<svg width="38" height="42" viewBox="0 0 38 42" fill="none" xmlns="http://www.w3.org/2000/svg" xmlns:xlink="http://www.w3.org/1999/xlink">
<path d="M28.379,1.266C28.283,0.551 27.674,0 26.938,0C26.135,0 25.485,0.656 25.485,1.465L25.485,3.085L12.733,3.085L12.733,1.465L12.72,1.266C12.624,0.551 12.015,0 11.279,0C10.476,0 9.825,0.656 9.825,1.465L9.825,3.121C3.868,3.532 0.2,7.392 0.2,13.62L0.2,31.299C0.2,37.983 4.312,42 10.902,42L27.298,42C33.895,42 38,38.05 38,31.446L38,13.62C38.019,7.39 34.363,3.53 28.392,3.121L28.392,1.465L28.379,1.266ZM25.485,6.015L25.485,7.894L25.498,8.092C25.594,8.808 26.202,9.359 26.938,9.359C27.741,9.359 28.392,8.703 28.392,7.894L28.392,6.058C32.736,6.42 35.106,9.036 35.092,13.616L35.092,14.464L3.108,14.464L3.108,13.62C3.108,9.043 5.49,6.422 9.825,6.059L9.825,7.894L9.839,8.092C9.935,8.808 10.543,9.359 11.279,9.359C12.082,9.359 12.733,8.703 12.733,7.894L12.733,6.015L25.485,6.015ZM3.108,17.394L3.108,31.299C3.108,36.344 5.898,39.07 10.902,39.07L27.298,39.07C32.319,39.07 35.092,36.401 35.092,31.446L35.092,17.394L3.108,17.394ZM29.182,23.558C29.182,22.749 28.532,22.093 27.729,22.093L27.513,22.107C26.804,22.204 26.257,22.817 26.257,23.558C26.257,24.368 26.908,25.024 27.729,25.024L27.926,25.01C28.636,24.913 29.182,24.3 29.182,23.558ZM19.127,22.093C19.93,22.093 20.581,22.749 20.581,23.558C20.581,24.3 20.034,24.913 19.324,25.01L19.127,25.024C18.306,25.024 17.655,24.368 17.655,23.558C17.655,22.817 18.202,22.204 18.912,22.107L19.127,22.093ZM11.961,23.558C11.961,22.749 11.31,22.093 10.507,22.093L10.292,22.107C9.582,22.204 9.035,22.817 9.035,23.558C9.035,24.368 9.686,25.024 10.489,25.024L10.704,25.01C11.414,24.913 11.961,24.3 11.961,23.558ZM27.729,29.686C28.532,29.686 29.182,30.342 29.182,31.151C29.182,31.893 28.636,32.505 27.926,32.603L27.729,32.616C26.908,32.616 26.257,31.96 26.257,31.151C26.257,30.409 26.804,29.796 27.513,29.699L27.729,29.686ZM20.581,31.151C20.581,30.342 19.93,29.686 19.127,29.686L18.912,29.699C18.202,29.796 17.655,30.409 17.655,31.151C17.655,31.96 18.306,32.616 19.127,32.616L19.324,32.603C20.034,32.505 20.581,31.893 20.581,31.151ZM10.507,29.686C11.31,29.686 11.961,30.342 11.961,31.151C11.961,31.893 11.414,32.505 10.704,32.603L10.489,32.616C9.686,32.616 9.035,31.96 9.035,31.151C9.035,30.409 9.582,29.796 10.292,29.699L10.507,29.686Z" clip-rule="evenodd" fill-rule="evenodd" fill="#E41E1E"/>
</svg>
