<svg width="36" height="38" viewBox="0 0 36 38" fill="none" xmlns="http://www.w3.org/2000/svg" xmlns:xlink="http://www.w3.org/1999/xlink">
<path d="M25.495,0.146C25.408,-0.501 24.858,-1 24.192,-1C23.465,-1 22.876,-0.407 22.876,0.326L22.876,1.791L11.339,1.791L11.339,0.326L11.327,0.146C11.24,-0.501 10.69,-1 10.024,-1C9.298,-1 8.709,-0.407 8.709,0.326L8.709,1.824C3.318,2.195 0,5.688 0,11.323L0,27.318C0,33.366 3.721,37 9.683,37L24.517,37C30.486,37 34.2,33.427 34.2,27.451L34.2,11.323C34.217,5.686 30.909,2.194 25.507,1.824L25.507,0.326L25.495,0.146ZM22.876,4.442L22.876,6.142L22.888,6.322C22.976,6.969 23.526,7.467 24.192,7.467C24.918,7.467 25.507,6.874 25.507,6.142L25.507,4.481C29.438,4.808 31.582,7.175 31.569,11.319L31.569,12.087L2.631,12.087L2.631,11.323C2.631,7.182 4.787,4.81 8.709,4.482L8.709,6.142L8.721,6.322C8.808,6.969 9.358,7.467 10.024,7.467C10.751,7.467 11.339,6.874 11.339,6.142L11.339,4.442L22.876,4.442ZM2.631,14.738L2.631,27.318C2.631,31.883 5.156,34.349 9.683,34.349L24.517,34.349C29.06,34.349 31.569,31.934 31.569,27.451L31.569,14.738L2.631,14.738ZM26.222,20.315C26.222,19.583 25.633,18.989 24.907,18.989L24.712,19.001C24.07,19.089 23.575,19.644 23.575,20.315C23.575,21.047 24.164,21.64 24.907,21.64L25.085,21.628C25.727,21.54 26.222,20.986 26.222,20.315ZM17.124,18.989C17.851,18.989 18.44,19.583 18.44,20.315C18.44,20.986 17.945,21.54 17.303,21.628L17.124,21.64C16.382,21.64 15.793,21.047 15.793,20.315C15.793,19.644 16.287,19.089 16.93,19.001L17.124,18.989ZM10.641,20.315C10.641,19.583 10.052,18.989 9.326,18.989L9.131,19.001C8.489,19.089 7.994,19.644 7.994,20.315C7.994,21.047 8.583,21.64 9.309,21.64L9.504,21.628C10.146,21.54 10.641,20.986 10.641,20.315ZM24.907,25.858C25.633,25.858 26.222,26.452 26.222,27.184C26.222,27.855 25.727,28.41 25.085,28.498L24.907,28.51C24.164,28.51 23.575,27.916 23.575,27.184C23.575,26.513 24.07,25.958 24.712,25.871L24.907,25.858ZM18.44,27.184C18.44,26.452 17.851,25.858 17.124,25.858L16.93,25.871C16.287,25.958 15.793,26.513 15.793,27.184C15.793,27.916 16.382,28.51 17.124,28.51L17.303,28.498C17.945,28.41 18.44,27.855 18.44,27.184ZM9.326,25.858C10.052,25.858 10.641,26.452 10.641,27.184C10.641,27.855 10.146,28.41 9.504,28.498L9.309,28.51C8.583,28.51 7.994,27.916 7.994,27.184C7.994,26.513 8.489,25.958 9.131,25.871L9.326,25.858Z" clip-rule="evenodd" fill-rule="evenodd" fill="#FFFFFF"/>
</svg>
