<svg width="40" height="40" viewBox="0 0 40 40" fill="none" xmlns="http://www.w3.org/2000/svg" xmlns:xlink="http://www.w3.org/1999/xlink">
<line x1="11.834" y1="3.328" x2="11.834" y2="8.328" stroke="#8A8A8A" stroke-width="1.5" stroke-miterlimit="10" stroke-linecap="round" stroke-linejoin="round"/>
<line x1="25.166" y1="3.328" x2="25.166" y2="8.328" stroke="#8A8A8A" stroke-width="1.5" stroke-miterlimit="10" stroke-linecap="round" stroke-linejoin="round"/>
<line x1="6.666" y1="13.5" x2="34.999" y2="13.5" stroke="#8A8A8A" stroke-width="1.5" stroke-miterlimit="10" stroke-linecap="round" stroke-linejoin="round"/>
<path d="M33.5,14.161L33.5,28.328L36.5,28.328L36.5,14.161L33.5,14.161ZM33.5,28.328C33.5,30.598 32.932,32.261 31.922,33.349C30.93,34.417 29.297,35.162 26.667,35.162L26.667,38.162C29.869,38.162 32.404,37.239 34.12,35.391C35.818,33.562 36.5,31.058 36.5,28.328L33.5,28.328ZM26.667,35.162L13.333,35.162L13.333,38.162L26.667,38.162L26.667,35.162ZM13.333,35.162C10.703,35.162 9.07,34.417 8.078,33.349C7.068,32.261 6.5,30.598 6.5,28.328L3.5,28.328C3.5,31.058 4.182,33.562 5.88,35.391C7.596,37.239 10.131,38.162 13.333,38.162L13.333,35.162ZM6.5,28.328L6.5,14.161L3.5,14.161L3.5,28.328L6.5,28.328ZM6.5,14.161C6.5,11.891 7.068,10.229 8.078,9.14C9.07,8.072 10.703,7.328 13.333,7.328L13.333,4.328C10.131,4.328 7.596,5.251 5.88,7.099C4.182,8.927 3.5,11.432 3.5,14.161L6.5,14.161ZM13.333,7.328L26.667,7.328L26.667,4.328L13.333,4.328L13.333,7.328ZM26.667,7.328C29.297,7.328 30.93,8.072 31.922,9.14C32.932,10.229 33.5,11.891 33.5,14.161L36.5,14.161C36.5,11.432 35.818,8.927 34.12,7.099C32.404,5.251 29.869,4.328 26.667,4.328L26.667,7.328Z" fill="#8A8A8A"/>
<path d="M26.158,20.826C25.054,20.826 24.158,21.721 24.158,22.826C24.158,23.93 25.054,24.826 26.158,24.826L26.158,20.826ZM26.173,24.826C27.278,24.826 28.173,23.93 28.173,22.826C28.173,21.721 27.278,20.826 26.173,20.826L26.173,24.826ZM26.158,24.826L26.173,24.826L26.173,20.826L26.158,20.826L26.158,24.826Z" fill="#8A8A8A"/>
<path d="M26.158,25.826C25.054,25.826 24.158,26.721 24.158,27.826C24.158,28.93 25.054,29.826 26.158,29.826L26.158,25.826ZM26.173,29.826C27.278,29.826 28.173,28.93 28.173,27.826C28.173,26.721 27.278,25.826 26.173,25.826L26.173,29.826ZM26.158,29.826L26.173,29.826L26.173,25.826L26.158,25.826L26.158,29.826Z" fill="#8A8A8A"/>
<path d="M19.992,20.826C18.888,20.826 17.992,21.721 17.992,22.826C17.992,23.93 18.888,24.826 19.992,24.826L19.992,20.826ZM20.007,24.826C21.112,24.826 22.007,23.93 22.007,22.826C22.007,21.721 21.112,20.826 20.007,20.826L20.007,24.826ZM19.992,24.826L20.007,24.826L20.007,20.826L19.992,20.826L19.992,24.826Z" fill="#8A8A8A"/>
<path d="M19.992,25.826C18.888,25.826 17.992,26.721 17.992,27.826C17.992,28.93 18.888,29.826 19.992,29.826L19.992,25.826ZM20.007,29.826C21.112,29.826 22.007,28.93 22.007,27.826C22.007,26.721 21.112,25.826 20.007,25.826L20.007,29.826ZM19.992,29.826L20.007,29.826L20.007,25.826L19.992,25.826L19.992,29.826Z" fill="#8A8A8A"/>
<path d="M13.824,20.826C12.72,20.826 11.824,21.721 11.824,22.826C11.824,23.93 12.72,24.826 13.824,24.826L13.824,20.826ZM13.839,24.826C14.944,24.826 15.839,23.93 15.839,22.826C15.839,21.721 14.944,20.826 13.839,20.826L13.839,24.826ZM13.824,24.826L13.839,24.826L13.839,20.826L13.824,20.826L13.824,24.826Z" fill="#8A8A8A"/>
<path d="M13.824,25.826C12.72,25.826 11.824,26.721 11.824,27.826C11.824,28.93 12.72,29.826 13.824,29.826L13.824,25.826ZM13.839,29.826C14.944,29.826 15.839,28.93 15.839,27.826C15.839,26.721 14.944,25.826 13.839,25.826L13.839,29.826ZM13.824,29.826L13.839,29.826L13.839,25.826L13.824,25.826L13.824,29.826Z" fill="#8A8A8A"/>
</svg>
