<svg width="38" height="38" viewBox="0 0 38 38" fill="none" xmlns="http://www.w3.org/2000/svg" xmlns:xlink="http://www.w3.org/1999/xlink">
<g opacity="0.4" style="isolation:isolate">
<path d="M26.337,3.278L31.902,3.278L31.902,0.722L26.337,0.722L26.337,3.278ZM31.902,3.278C33.488,3.278 34.795,4.579 34.795,6.208L37.35,6.208C37.35,3.189 34.921,0.722 31.902,0.722L31.902,3.278ZM34.795,6.208L34.795,11.82L37.35,11.82L37.35,6.208L34.795,6.208ZM34.795,11.82C34.795,13.448 33.488,14.751 31.902,14.751L31.902,17.306C34.922,17.306 37.35,14.837 37.35,11.82L34.795,11.82ZM31.902,14.751L26.337,14.751L26.337,17.306L31.902,17.306L31.902,14.751ZM26.337,14.751C24.749,14.751 23.443,13.448 23.443,11.82L20.887,11.82C20.887,14.837 23.316,17.306 26.337,17.306L26.337,14.751ZM23.443,11.82L23.443,6.208L20.887,6.208L20.887,11.82L23.443,11.82ZM23.443,6.208C23.443,4.579 24.749,3.278 26.337,3.278L26.337,0.722C23.317,0.722 20.887,3.189 20.887,6.208L23.443,6.208Z" fill="#01008A"/>
</g>
<path d="M6.172,3.278L11.736,3.278L11.736,0.722L6.172,0.722L6.172,3.278ZM11.736,3.278C13.324,3.278 14.63,4.579 14.63,6.208L17.185,6.208C17.185,3.189 14.756,0.722 11.736,0.722L11.736,3.278ZM14.63,6.208L14.63,11.82L17.185,11.82L17.185,6.208L14.63,6.208ZM14.63,11.82C14.63,13.448 13.323,14.751 11.736,14.751L11.736,17.306C14.756,17.306 17.185,14.837 17.185,11.82L14.63,11.82ZM11.736,14.751L6.172,14.751L6.172,17.306L11.736,17.306L11.736,14.751ZM6.172,14.751C4.584,14.751 3.278,13.448 3.278,11.82L0.722,11.82C0.722,14.837 3.151,17.306 6.172,17.306L6.172,14.751ZM3.278,11.82L3.278,6.208L0.722,6.208L0.722,11.82L3.278,11.82ZM3.278,6.208C3.278,4.579 4.584,3.278 6.172,3.278L6.172,0.722C3.152,0.722 0.722,3.189 0.722,6.208L3.278,6.208Z" fill="#01008A"/>
<path d="M6.172,23.323L11.736,23.323L11.736,20.767L6.172,20.767L6.172,23.323ZM11.736,23.323C13.323,23.323 14.63,24.624 14.63,26.255L17.185,26.255C17.185,23.234 14.756,20.767 11.736,20.767L11.736,23.323ZM14.63,26.255L14.63,31.865L17.185,31.865L17.185,26.255L14.63,26.255ZM14.63,31.865C14.63,33.494 13.324,34.796 11.736,34.796L11.736,37.351C14.756,37.351 17.185,34.884 17.185,31.865L14.63,31.865ZM11.736,34.796L6.172,34.796L6.172,37.351L11.736,37.351L11.736,34.796ZM6.172,34.796C4.584,34.796 3.278,33.494 3.278,31.865L0.722,31.865C0.722,34.884 3.152,37.351 6.172,37.351L6.172,34.796ZM3.278,31.865L3.278,26.255L0.722,26.255L0.722,31.865L3.278,31.865ZM3.278,26.255C3.278,24.624 4.584,23.323 6.172,23.323L6.172,20.767C3.151,20.767 0.722,23.234 0.722,26.255L3.278,26.255Z" fill="#01008A"/>
<path d="M26.337,23.323L31.902,23.323L31.902,20.767L26.337,20.767L26.337,23.323ZM31.902,23.323C33.488,23.323 34.795,24.624 34.795,26.255L37.35,26.255C37.35,23.234 34.922,20.767 31.902,20.767L31.902,23.323ZM34.795,26.255L34.795,31.865L37.35,31.865L37.35,26.255L34.795,26.255ZM34.795,31.865C34.795,33.494 33.488,34.796 31.902,34.796L31.902,37.351C34.921,37.351 37.35,34.884 37.35,31.865L34.795,31.865ZM31.902,34.796L26.337,34.796L26.337,37.351L31.902,37.351L31.902,34.796ZM26.337,34.796C24.749,34.796 23.443,33.494 23.443,31.865L20.887,31.865C20.887,34.884 23.317,37.351 26.337,37.351L26.337,34.796ZM23.443,31.865L23.443,26.255L20.887,26.255L20.887,31.865L23.443,31.865ZM23.443,26.255C23.443,24.624 24.749,23.323 26.337,23.323L26.337,20.767C23.316,20.767 20.887,23.234 20.887,26.255L23.443,26.255Z" fill="#01008A"/>
</svg>
