<svg width="38" height="38" viewBox="0 0 38 38" fill="none" xmlns="http://www.w3.org/2000/svg" xmlns:xlink="http://www.w3.org/1999/xlink">
<g opacity="0.4" style="isolation:isolate">
<path d="M26.338,3.278L31.903,3.278L31.903,0.722L26.338,0.722L26.338,3.278ZM31.903,3.278C33.489,3.278 34.796,4.579 34.796,6.208L37.351,6.208C37.351,3.189 34.922,0.722 31.903,0.722L31.903,3.278ZM34.796,6.208L34.796,11.82L37.351,11.82L37.351,6.208L34.796,6.208ZM34.796,11.82C34.796,13.448 33.489,14.751 31.903,14.751L31.903,17.306C34.923,17.306 37.351,14.837 37.351,11.82L34.796,11.82ZM31.903,14.751L26.338,14.751L26.338,17.306L31.903,17.306L31.903,14.751ZM26.338,14.751C24.75,14.751 23.444,13.448 23.444,11.82L20.888,11.82C20.888,14.837 23.317,17.306 26.338,17.306L26.338,14.751ZM23.444,11.82L23.444,6.208L20.888,6.208L20.888,11.82L23.444,11.82ZM23.444,6.208C23.444,4.579 24.75,3.278 26.338,3.278L26.338,0.722C23.318,0.722 20.888,3.189 20.888,6.208L23.444,6.208Z" fill="#01008A"/>
</g>
<path d="M6.172,3.278L11.736,3.278L11.736,0.722L6.172,0.722L6.172,3.278ZM11.736,3.278C13.324,3.278 14.63,4.579 14.63,6.208L17.185,6.208C17.185,3.189 14.756,0.722 11.736,0.722L11.736,3.278ZM14.63,6.208L14.63,11.82L17.185,11.82L17.185,6.208L14.63,6.208ZM14.63,11.82C14.63,13.448 13.323,14.751 11.736,14.751L11.736,17.306C14.756,17.306 17.185,14.837 17.185,11.82L14.63,11.82ZM11.736,14.751L6.172,14.751L6.172,17.306L11.736,17.306L11.736,14.751ZM6.172,14.751C4.584,14.751 3.278,13.448 3.278,11.82L0.722,11.82C0.722,14.837 3.151,17.306 6.172,17.306L6.172,14.751ZM3.278,11.82L3.278,6.208L0.722,6.208L0.722,11.82L3.278,11.82ZM3.278,6.208C3.278,4.579 4.584,3.278 6.172,3.278L6.172,0.722C3.152,0.722 0.722,3.189 0.722,6.208L3.278,6.208Z" fill="#01008A"/>
<path d="M6.172,23.321L11.736,23.321L11.736,20.765L6.172,20.765L6.172,23.321ZM11.736,23.321C13.323,23.321 14.63,24.622 14.63,26.253L17.185,26.253C17.185,23.232 14.756,20.765 11.736,20.765L11.736,23.321ZM14.63,26.253L14.63,31.863L17.185,31.863L17.185,26.253L14.63,26.253ZM14.63,31.863C14.63,33.492 13.324,34.794 11.736,34.794L11.736,37.349C14.756,37.349 17.185,34.883 17.185,31.863L14.63,31.863ZM11.736,34.794L6.172,34.794L6.172,37.349L11.736,37.349L11.736,34.794ZM6.172,34.794C4.584,34.794 3.278,33.492 3.278,31.863L0.722,31.863C0.722,34.883 3.152,37.349 6.172,37.349L6.172,34.794ZM3.278,31.863L3.278,26.253L0.722,26.253L0.722,31.863L3.278,31.863ZM3.278,26.253C3.278,24.622 4.584,23.321 6.172,23.321L6.172,20.765C3.151,20.765 0.722,23.232 0.722,26.253L3.278,26.253Z" fill="#01008A"/>
<path d="M26.338,23.321L31.903,23.321L31.903,20.765L26.338,20.765L26.338,23.321ZM31.903,23.321C33.489,23.321 34.796,24.622 34.796,26.253L37.351,26.253C37.351,23.232 34.923,20.765 31.903,20.765L31.903,23.321ZM34.796,26.253L34.796,31.863L37.351,31.863L37.351,26.253L34.796,26.253ZM34.796,31.863C34.796,33.492 33.489,34.794 31.903,34.794L31.903,37.349C34.922,37.349 37.351,34.882 37.351,31.863L34.796,31.863ZM31.903,34.794L26.338,34.794L26.338,37.349L31.903,37.349L31.903,34.794ZM26.338,34.794C24.75,34.794 23.444,33.492 23.444,31.863L20.888,31.863C20.888,34.883 23.318,37.349 26.338,37.349L26.338,34.794ZM23.444,31.863L23.444,26.253L20.888,26.253L20.888,31.863L23.444,31.863ZM23.444,26.253C23.444,24.622 24.75,23.321 26.338,23.321L26.338,20.765C23.317,20.765 20.888,23.232 20.888,26.253L23.444,26.253Z" fill="#01008A"/>
</svg>
