<svg width="38" height="38" viewBox="0 0 38 38" fill="none" xmlns="http://www.w3.org/2000/svg" xmlns:xlink="http://www.w3.org/1999/xlink">
<g opacity="0.4" style="isolation:isolate">
<path d="M26.338,2.243L31.903,2.243L31.903,-0.313L26.338,-0.313L26.338,2.243ZM31.903,2.243C33.489,2.243 34.796,3.544 34.796,5.173L37.351,5.173C37.351,2.154 34.922,-0.313 31.903,-0.313L31.903,2.243ZM34.796,5.173L34.796,10.785L37.351,10.785L37.351,5.173L34.796,5.173ZM34.796,10.785C34.796,12.413 33.489,13.715 31.903,13.715L31.903,16.271C34.923,16.271 37.351,13.802 37.351,10.785L34.796,10.785ZM31.903,13.715L26.338,13.715L26.338,16.271L31.903,16.271L31.903,13.715ZM26.338,13.715C24.75,13.715 23.444,12.413 23.444,10.785L20.888,10.785C20.888,13.802 23.317,16.271 26.338,16.271L26.338,13.715ZM23.444,10.785L23.444,5.173L20.888,5.173L20.888,10.785L23.444,10.785ZM23.444,5.173C23.444,3.544 24.75,2.243 26.338,2.243L26.338,-0.313C23.318,-0.313 20.888,2.154 20.888,5.173L23.444,5.173Z" fill="#FFFFFF"/>
</g>
<path d="M6.172,2.243L11.736,2.243L11.736,-0.313L6.172,-0.313L6.172,2.243ZM11.736,2.243C13.324,2.243 14.63,3.544 14.63,5.173L17.185,5.173C17.185,2.154 14.756,-0.313 11.736,-0.313L11.736,2.243ZM14.63,5.173L14.63,10.785L17.185,10.785L17.185,5.173L14.63,5.173ZM14.63,10.785C14.63,12.413 13.323,13.715 11.736,13.715L11.736,16.271C14.756,16.271 17.185,13.802 17.185,10.785L14.63,10.785ZM11.736,13.715L6.172,13.715L6.172,16.271L11.736,16.271L11.736,13.715ZM6.172,13.715C4.584,13.715 3.278,12.413 3.278,10.785L0.722,10.785C0.722,13.802 3.151,16.271 6.172,16.271L6.172,13.715ZM3.278,10.785L3.278,5.173L0.722,5.173L0.722,10.785L3.278,10.785ZM3.278,5.173C3.278,3.544 4.584,2.243 6.172,2.243L6.172,-0.313C3.152,-0.313 0.722,2.154 0.722,5.173L3.278,5.173Z" fill="#FFFFFF"/>
<path d="M6.172,22.286L11.736,22.286L11.736,19.73L6.172,19.73L6.172,22.286ZM11.736,22.286C13.323,22.286 14.63,23.587 14.63,25.218L17.185,25.218C17.185,22.197 14.756,19.73 11.736,19.73L11.736,22.286ZM14.63,25.218L14.63,30.828L17.185,30.828L17.185,25.218L14.63,25.218ZM14.63,30.828C14.63,32.457 13.324,33.758 11.736,33.758L11.736,36.314C14.756,36.314 17.185,33.847 17.185,30.828L14.63,30.828ZM11.736,33.758L6.172,33.758L6.172,36.314L11.736,36.314L11.736,33.758ZM6.172,33.758C4.584,33.758 3.278,32.457 3.278,30.828L0.722,30.828C0.722,33.847 3.152,36.314 6.172,36.314L6.172,33.758ZM3.278,30.828L3.278,25.218L0.722,25.218L0.722,30.828L3.278,30.828ZM3.278,25.218C3.278,23.587 4.584,22.286 6.172,22.286L6.172,19.73C3.151,19.73 0.722,22.197 0.722,25.218L3.278,25.218Z" fill="#FFFFFF"/>
<path d="M26.338,22.286L31.903,22.286L31.903,19.73L26.338,19.73L26.338,22.286ZM31.903,22.286C33.489,22.286 34.796,23.586 34.796,25.218L37.351,25.218C37.351,22.197 34.923,19.73 31.903,19.73L31.903,22.286ZM34.796,25.218L34.796,30.828L37.351,30.828L37.351,25.218L34.796,25.218ZM34.796,30.828C34.796,32.457 33.489,33.758 31.903,33.758L31.903,36.314C34.922,36.314 37.351,33.847 37.351,30.828L34.796,30.828ZM31.903,33.758L26.338,33.758L26.338,36.314L31.903,36.314L31.903,33.758ZM26.338,33.758C24.75,33.758 23.444,32.457 23.444,30.828L20.888,30.828C20.888,33.847 23.318,36.314 26.338,36.314L26.338,33.758ZM23.444,30.828L23.444,25.218L20.888,25.218L20.888,30.828L23.444,30.828ZM23.444,25.218C23.444,23.587 24.75,22.286 26.338,22.286L26.338,19.73C23.317,19.73 20.888,22.197 20.888,25.218L23.444,25.218Z" fill="#FFFFFF"/>
</svg>
