<svg width="38" height="38" viewBox="0 0 38 38" fill="none" xmlns="http://www.w3.org/2000/svg" xmlns:xlink="http://www.w3.org/1999/xlink">
<g opacity="0.4" style="isolation:isolate">
<path d="M26.338,3.278L31.903,3.278L31.903,0.722L26.338,0.722L26.338,3.278ZM31.903,3.278C33.489,3.278 34.796,4.579 34.796,6.208L37.351,6.208C37.351,3.189 34.922,0.722 31.903,0.722L31.903,3.278ZM34.796,6.208L34.796,11.82L37.351,11.82L37.351,6.208L34.796,6.208ZM34.796,11.82C34.796,13.448 33.489,14.751 31.903,14.751L31.903,17.306C34.923,17.306 37.351,14.837 37.351,11.82L34.796,11.82ZM31.903,14.751L26.338,14.751L26.338,17.306L31.903,17.306L31.903,14.751ZM26.338,14.751C24.75,14.751 23.444,13.448 23.444,11.82L20.888,11.82C20.888,14.837 23.317,17.306 26.338,17.306L26.338,14.751ZM23.444,11.82L23.444,6.208L20.888,6.208L20.888,11.82L23.444,11.82ZM23.444,6.208C23.444,4.579 24.75,3.278 26.338,3.278L26.338,0.722C23.318,0.722 20.888,3.189 20.888,6.208L23.444,6.208Z" fill="#01008A"/>
</g>
<path d="M6.172,3.278L11.736,3.278L11.736,0.722L6.172,0.722L6.172,3.278ZM11.736,3.278C13.324,3.278 14.63,4.579 14.63,6.208L17.185,6.208C17.185,3.189 14.756,0.722 11.736,0.722L11.736,3.278ZM14.63,6.208L14.63,11.82L17.185,11.82L17.185,6.208L14.63,6.208ZM14.63,11.82C14.63,13.448 13.323,14.751 11.736,14.751L11.736,17.306C14.756,17.306 17.185,14.837 17.185,11.82L14.63,11.82ZM11.736,14.751L6.172,14.751L6.172,17.306L11.736,17.306L11.736,14.751ZM6.172,14.751C4.584,14.751 3.278,13.448 3.278,11.82L0.722,11.82C0.722,14.837 3.151,17.306 6.172,17.306L6.172,14.751ZM3.278,11.82L3.278,6.208L0.722,6.208L0.722,11.82L3.278,11.82ZM3.278,6.208C3.278,4.579 4.584,3.278 6.172,3.278L6.172,0.722C3.152,0.722 0.722,3.189 0.722,6.208L3.278,6.208Z" fill="#01008A"/>
<path d="M6.172,23.323L11.736,23.323L11.736,20.767L6.172,20.767L6.172,23.323ZM11.736,23.323C13.323,23.323 14.63,24.624 14.63,26.255L17.185,26.255C17.185,23.234 14.756,20.767 11.736,20.767L11.736,23.323ZM14.63,26.255L14.63,31.865L17.185,31.865L17.185,26.255L14.63,26.255ZM14.63,31.865C14.63,33.494 13.324,34.796 11.736,34.796L11.736,37.351C14.756,37.351 17.185,34.884 17.185,31.865L14.63,31.865ZM11.736,34.796L6.172,34.796L6.172,37.351L11.736,37.351L11.736,34.796ZM6.172,34.796C4.584,34.796 3.278,33.494 3.278,31.865L0.722,31.865C0.722,34.884 3.152,37.351 6.172,37.351L6.172,34.796ZM3.278,31.865L3.278,26.255L0.722,26.255L0.722,31.865L3.278,31.865ZM3.278,26.255C3.278,24.624 4.584,23.323 6.172,23.323L6.172,20.767C3.151,20.767 0.722,23.234 0.722,26.255L3.278,26.255Z" fill="#01008A"/>
<path d="M26.338,23.323L31.903,23.323L31.903,20.767L26.338,20.767L26.338,23.323ZM31.903,23.323C33.489,23.323 34.796,24.624 34.796,26.255L37.351,26.255C37.351,23.234 34.923,20.767 31.903,20.767L31.903,23.323ZM34.796,26.255L34.796,31.865L37.351,31.865L37.351,26.255L34.796,26.255ZM34.796,31.865C34.796,33.494 33.489,34.796 31.903,34.796L31.903,37.351C34.922,37.351 37.351,34.884 37.351,31.865L34.796,31.865ZM31.903,34.796L26.338,34.796L26.338,37.351L31.903,37.351L31.903,34.796ZM26.338,34.796C24.75,34.796 23.444,33.494 23.444,31.865L20.888,31.865C20.888,34.884 23.318,37.351 26.338,37.351L26.338,34.796ZM23.444,31.865L23.444,26.255L20.888,26.255L20.888,31.865L23.444,31.865ZM23.444,26.255C23.444,24.624 24.75,23.323 26.338,23.323L26.338,20.767C23.317,20.767 20.888,23.234 20.888,26.255L23.444,26.255Z" fill="#01008A"/>
</svg>
