<svg width="34" height="34" viewBox="0 0 34 34" fill="none" xmlns="http://www.w3.org/2000/svg" xmlns:xlink="http://www.w3.org/1999/xlink">
<path d="M24.41,0L9.59,0C3.835,0 0,4.114 0,10.018L0,23.982C0,29.892 3.825,34 9.59,34L24.41,34C30.175,34 34,29.892 34,23.982L34,10.018C34,4.108 30.175,0 24.41,0ZM9.59,2.372L24.41,2.372C28.826,2.372 31.628,5.382 31.628,10.019L31.628,23.982C31.628,28.618 28.826,31.628 24.41,31.628L9.59,31.628C5.175,31.628 2.372,28.618 2.372,23.982L2.372,10.019C2.372,5.388 5.184,2.372 9.59,2.372ZM18.236,8.805C18.157,8.226 17.661,7.78 17.06,7.78C16.405,7.78 15.874,8.31 15.874,8.966L15.874,25.005L15.885,25.166C15.964,25.745 16.46,26.191 17.06,26.191C17.716,26.191 18.246,25.66 18.246,25.005L18.246,8.966L18.236,8.805Z" clip-rule="evenodd" fill-rule="evenodd" fill="#01008A"/>
<g opacity="0.4">
<path d="M9.68,12.971C10.281,12.971 10.777,13.417 10.855,13.996L10.866,14.157L10.866,25.005C10.866,25.66 10.335,26.191 9.68,26.191C9.08,26.191 8.584,25.745 8.505,25.166L8.494,25.005L8.494,14.157C8.494,13.502 9.025,12.971 9.68,12.971Z" fill="#01008A"/>
</g>
<g opacity="0.4">
<path d="M24.32,18.703C24.92,18.703 25.417,19.149 25.495,19.728L25.506,19.889L25.506,25.005C25.506,25.66 24.975,26.191 24.32,26.191C23.719,26.191 23.223,25.745 23.145,25.166L23.134,25.005L23.134,19.889C23.134,19.234 23.665,18.703 24.32,18.703Z" fill="#01008A"/>
</g>
</svg>
