<svg width="40" height="40" viewBox="0 0 40 40" fill="none" xmlns="http://www.w3.org/2000/svg" xmlns:xlink="http://www.w3.org/1999/xlink">
<path d="M0,20.03C0,9.772 8.198,0.527 19.513,0.527C30.574,0.527 38.947,9.596 38.947,19.972C38.947,32.005 29.133,39.475 19.474,39.475C16.28,39.475 12.736,38.617 9.893,36.939C8.899,36.335 8.062,35.886 6.991,36.237L3.057,37.407C2.064,37.72 1.168,36.939 1.461,35.886L2.765,31.518C2.979,30.913 2.941,30.269 2.629,29.762C0.954,26.681 0,23.307 0,20.03ZM25.919,20.049C25.919,21.414 27.029,22.545 28.412,22.545C29.795,22.545 30.905,21.414 30.905,20.049C30.905,18.664 29.795,17.552 28.412,17.552C27.029,17.552 25.919,18.664 25.919,20.049ZM16.942,20.031C16.942,21.415 18.052,22.527 19.435,22.546C20.818,22.546 21.928,21.415 21.928,20.05C21.928,18.665 20.818,17.554 19.435,17.554C18.072,17.534 16.942,18.665 16.942,20.031ZM10.457,22.545C9.094,22.545 7.964,21.414 7.964,20.049C7.964,18.664 9.074,17.552 10.457,17.552C11.84,17.552 12.95,18.664 12.95,20.049C12.95,21.414 11.84,22.526 10.457,22.545Z" clip-rule="evenodd" fill-rule="evenodd" fill="#707070"/>
</svg>
