<svg width="26" height="26" viewBox="0 0 26 26" fill="none" xmlns="http://www.w3.org/2000/svg" xmlns:xlink="http://www.w3.org/1999/xlink">
<path d="M0,12.883C0,6.107 5.416,0 12.89,0C20.196,0 25.728,5.991 25.728,12.845C25.728,20.793 19.244,25.728 12.864,25.728C10.754,25.728 8.413,25.161 6.535,24.053C5.879,23.654 5.326,23.357 4.618,23.589L2.02,24.362C1.364,24.568 0.772,24.053 0.965,23.357L1.827,20.471C1.968,20.072 1.942,19.647 1.737,19.312C0.63,17.276 0,15.048 0,12.883ZM6.908,14.545C6.007,14.545 5.261,13.798 5.261,12.896C5.261,11.981 5.994,11.247 6.908,11.247C7.821,11.247 8.554,11.981 8.554,12.896C8.554,13.798 7.821,14.532 6.908,14.545ZM17.12,12.898C17.12,13.8 17.853,14.547 18.766,14.547C19.679,14.547 20.413,13.8 20.413,12.898C20.413,11.984 19.679,11.249 18.766,11.249C17.853,11.249 17.12,11.984 17.12,12.898ZM11.191,12.888C11.191,13.802 11.924,14.537 12.837,14.55C13.751,14.55 14.484,13.802 14.484,12.901C14.484,11.986 13.751,11.251 12.837,11.251C11.937,11.239 11.191,11.986 11.191,12.888Z" clip-rule="evenodd" fill-rule="evenodd" fill="#707070"/>
</svg>
