<svg width="2454" height="1206" viewBox="0 0 2454 1206" fill="none" xmlns="http://www.w3.org/2000/svg" xmlns:xlink="http://www.w3.org/1999/xlink">
<path d="M256.311,1182C256.311,1182 5.601,901.848 267.052,657.946C557.64,386.878 258.381,231.378 685,31C1093.276,-121.254 1250.788,331.652 1708,257C2072.14,197.544 2184.98,474.582 2072.14,648.4C1978.584,792.52 2339.16,863.95 2154.6,1181.346L256.311,1182Z" fill="#ECEEFF"/>
<path d="M2448,1172L0,1172L0,1190L2448,1190L2448,1172Z" fill="#01008A"/>
<g opacity="0.6">
<path d="M700.187,1179.102C690.92,1167.266 555.122,948.934 706.365,699.782C857.607,450.631 1237.239,479.722 1388.481,576.81C1539.723,673.897 1613.781,800.076 1629.225,932.746C1644.671,1065.416 1542.813,1174.098 1542.813,1174.098L700.187,1179.102Z" fill="#CDD2FC"/>
</g>
<path d="M1750.868,1174.376L1750.514,1174.376C1748.439,1174.376 1746.778,1172.664 1746.817,1170.6L1752.421,927.919L1768.919,925.992L1754.86,1170.62C1754.732,1172.724 1752.992,1174.376 1750.868,1174.376Z" fill="#A6ADEE"/>
<path d="M1654.76,1174.376L1654.406,1174.376C1652.332,1174.376 1650.67,1172.664 1650.71,1170.6L1656.314,927.919L1672.812,925.992L1658.742,1170.61C1658.624,1172.724 1656.874,1174.376 1654.76,1174.376Z" fill="#8A93D8"/>
<path d="M1919.975,1174.376L1920.329,1174.376C1922.404,1174.376 1924.065,1172.664 1924.026,1170.6L1918.422,927.919L1901.924,925.992L1915.983,1170.62C1916.111,1172.724 1917.861,1174.376 1919.975,1174.376Z" fill="#A6ADEE"/>
<path d="M1643.83,912.856L1643.83,746.56C1643.83,717.301 1667.554,693.576 1696.814,693.576L1816.625,693.576C1845.886,693.576 1869.61,717.301 1869.61,746.56L1869.61,919.218L1643.83,912.856Z" fill="#A6ADEE"/>
<path d="M1891.082,939.108L1659.738,939.108C1650.948,939.108 1643.83,931.99 1643.83,923.2L1643.83,912.857L1891.072,912.857L1891.072,939.108L1891.082,939.108Z" fill="#8A93D8"/>
<path d="M1918.8,939.108L1743.782,939.108C1737.283,939.108 1732.023,933.838 1732.023,927.349L1732.023,924.626C1732.023,918.127 1737.293,912.867 1743.782,912.867L1918.8,912.867C1925.299,912.867 1930.559,918.137 1930.559,924.626L1930.559,927.349C1930.569,933.848 1925.299,939.108 1918.8,939.108Z" fill="#A6ADEE"/>
<path d="M1912.005,871.425C1894.839,901.294 1873.248,912.827 1873.248,912.827L1783.443,912.827C1783.443,912.827 1925.101,848.635 1912.005,871.425Z" fill="#0A015F"/>
<path d="M1843.026,1102.563C1840.686,1105.247 1840.391,1108.245 1841.542,1111.441C1841.542,1111.451 1841.551,1111.47 1841.561,1111.48C1843.705,1117.399 1850.784,1124.006 1859.003,1130.613C1860.055,1131.459 1860.989,1132.235 1861.805,1132.943C1862.021,1133.13 1862.238,1133.317 1862.434,1133.504C1862.601,1133.651 1862.759,1133.799 1862.916,1133.936C1870.585,1141.005 1867.694,1142.618 1881.469,1156.962C1897.17,1173.303 1907.985,1173.598 1911.063,1172.104C1913.668,1170.835 1908.379,1162.173 1902.519,1152.43C1902.234,1151.958 1901.958,1151.486 1901.664,1151.014C1900.887,1149.716 1900.11,1148.409 1899.333,1147.101C1892.471,1135.382 1894.231,1129.876 1895.863,1112.434C1897.18,1098.256 1917.916,1033.238 1917.916,1033.238L1887.82,1028.057C1887.82,1028.057 1878.755,1079.831 1868.776,1087.805C1863.437,1092.052 1857.459,1092.111 1852.327,1095.258C1851.963,1095.474 1851.609,1095.7 1851.255,1095.936C1848.345,1097.873 1845.376,1099.869 1843.026,1102.563Z" fill="#FFB7B5"/>
<path d="M1843.026,1102.562C1840.686,1105.247 1840.391,1108.245 1841.542,1111.441C1841.542,1111.45 1841.551,1111.47 1841.561,1111.48C1844.186,1117.389 1851.079,1123.967 1859.033,1130.554C1860.075,1131.419 1860.989,1132.206 1861.805,1132.943C1862.021,1133.13 1862.238,1133.317 1862.434,1133.503C1862.601,1133.651 1862.759,1133.798 1862.916,1133.936C1870.585,1141.005 1867.694,1142.618 1881.469,1156.962C1897.17,1173.303 1907.985,1173.598 1911.063,1172.103C1913.668,1170.835 1908.379,1162.173 1902.519,1152.43C1899.461,1151.309 1885.264,1145.538 1874.527,1131.803C1865.069,1119.739 1858.767,1104.234 1852.327,1095.257C1851.963,1095.474 1851.609,1095.7 1851.255,1095.936C1848.345,1097.873 1845.376,1099.868 1843.026,1102.562Z" fill="#233862"/>
<path d="M2085.686,1083.764C2087.544,1093.055 2100.787,1091.502 2115.575,1087.894C2130.372,1084.276 2126.852,1088.572 2147.902,1086.242C2168.952,1083.912 2175.333,1076.066 2175.972,1072.93C2176.552,1070.147 2166.14,1069.174 2154.981,1067.886C2153.575,1067.729 2152.169,1067.552 2150.763,1067.384C2138.168,1065.802 2128.936,1057.671 2117.492,1050.995C2106.657,1044.673 2090.474,1018.903 2090.474,1018.903L2061.598,1021.194C2061.598,1021.194 2076.749,1044.211 2082.608,1054.21C2086.059,1060.099 2085.873,1067.876 2085.44,1073.883C2085.243,1077.157 2085.027,1080.49 2085.686,1083.764Z" fill="#FFB7B5"/>
<path d="M2115.574,1087.894C2130.371,1084.275 2126.851,1088.572 2147.902,1086.242C2168.952,1083.912 2175.333,1076.066 2175.972,1072.93C2176.552,1070.147 2166.14,1069.174 2154.981,1067.886L2154.872,1068.102C2154.872,1068.102 2142.248,1077.059 2124.718,1077.472C2110.432,1077.816 2095.301,1073.726 2085.44,1073.883C2085.213,1077.147 2085.007,1080.49 2085.666,1083.764C2087.544,1093.055 2100.787,1091.502 2115.574,1087.894Z" fill="#233862"/>
<path d="M1975.027,899.141L1948.039,971.769L1912.801,1066.608C1912.801,1066.608 1903.235,1067.532 1894.081,1064.896C1885.645,1062.458 1875.971,1056.088 1875.971,1056.088C1875.971,1056.088 1885.753,954.259 1904.011,895.808C1908.691,880.805 1913.932,868.672 1919.713,861.839C1948.019,828.391 1975.027,899.141 1975.027,899.141Z" fill="#0A015F"/>
<path d="M1947.584,783.794C1929.898,778.091 1879.469,785.416 1828.805,795.326L1818.197,777.826L1708.768,769.282C1708.768,769.282 1672.655,849.363 1692.427,900.39C1695.337,907.892 1701.109,912.7 1710.951,912.857C1710.951,912.857 1712.543,912.857 1712.553,912.857C1712.553,912.857 1777.689,912.818 1798.838,912.818C1853.257,912.818 1914.008,875.407 1921.874,873.834C1934.734,871.258 1939.886,896.988 1952.746,924.006C1965.606,951.024 2073.668,1043.64 2073.668,1043.64C2073.668,1043.64 2090.274,1043.808 2097.138,1041.232C2104.512,1038.47 2107.216,1034.87 2107.216,1034.87C2107.216,1034.87 1987.462,796.654 1947.584,783.794Z" fill="#150B80"/>
<path d="M1813.894,459.183C1799.874,451.819 1778.548,450.826 1775.078,450.364C1733.617,444.789 1708.653,505.049 1707.189,523.307C1704.485,556.961 1686.679,562.094 1661.618,583.163C1611.377,625.421 1626.105,674.531 1653.585,692.779C1670.073,703.721 1699.126,692.779 1699.126,692.779C1699.539,693.063 1778.588,648.585 1817.561,627.132C1875.972,618.824 1849.612,477.943 1813.894,459.183Z" fill="#0E046A"/>
<path d="M1784.901,608.864C1785.068,608.972 1765.729,615.579 1752.79,609.847C1740.618,604.469 1731.406,584.452 1731.583,584.442C1737.118,584.186 1743.194,579.349 1747.874,547.592L1750.234,548.437L1789.866,562.694C1789.866,562.694 1786.995,575.406 1785.137,587.519C1783.574,597.685 1782.728,607.429 1784.901,608.864Z" fill="#FFBBBA"/>
<g opacity="0.5">
<path d="M1789.865,562.694C1789.865,562.694 1786.994,575.406 1785.136,587.519C1762.375,583.419 1753.438,560.737 1750.232,548.438L1789.865,562.694Z" fill="#FF938F"/>
</g>
<path d="M1795.764,575.318C1795.764,575.318 1741.541,568.042 1746.594,534.339C1751.648,500.645 1748.049,477.009 1782.884,480.224C1817.718,483.449 1822.506,497.312 1823.548,508.972C1824.591,520.633 1810,576.341 1795.764,575.318Z" fill="#FFBBBA"/>
<path d="M1821.573,490.508C1821.573,490.508 1786.867,520.416 1763.251,522.835C1739.644,525.244 1730.697,517.663 1730.697,517.663C1730.697,517.663 1744.619,506.111 1752.986,487.46C1755.454,481.964 1760.665,478.188 1766.672,477.677C1783.544,476.222 1815.497,475.553 1821.573,490.508Z" fill="#0E046A"/>
<path d="M1799.875,487.824C1799.875,487.824 1811.486,499.052 1815.144,507.38C1818.674,515.412 1819.735,534.634 1816.924,542.273C1816.924,542.273 1835.014,507.095 1824.769,489.997C1813.915,471.877 1799.875,487.824 1799.875,487.824Z" fill="#0E046A"/>
<path d="M1830.557,688.739C1828.915,798.502 1830.105,775.564 1818.1,785.986C1815.21,788.494 1807.069,789.988 1796.372,790.696C1762.717,792.928 1703.549,787.382 1701.297,781.168C1693.53,759.646 1699.016,752.96 1692.537,720.014C1691.859,716.514 1691.023,712.719 1690.05,708.589C1684.652,685.956 1679.392,678.258 1698.554,641.899C1715.927,608.963 1733.979,582.239 1735.601,583.203C1781.437,610.418 1785.134,587.539 1785.134,587.539C1785.134,587.539 1831.354,635.204 1830.557,688.739Z" fill="#FF3874"/>
<path d="M1948.039,971.769L1912.801,1066.608C1912.801,1066.608 1903.235,1067.532 1894.081,1064.897C1885.645,1062.459 1875.971,1056.088 1875.971,1056.088C1875.971,1056.088 1885.753,954.259 1904.011,895.808L1948.039,971.769Z" fill="#150B80"/>
<path d="M1785.135,587.519C1785.135,587.519 1832.308,595.512 1837.844,615.825C1843.379,636.138 1875.981,755.526 1875.981,755.526C1875.981,755.526 1852.001,759.833 1840.921,748.752C1829.84,737.672 1802.38,645.979 1802.38,645.979L1785.135,587.519Z" fill="#FF3874"/>
<path d="M1796.362,790.695C1762.707,792.927 1703.539,787.382 1701.288,781.168C1693.52,759.646 1699.007,752.96 1692.527,720.014L1708.76,674.305C1708.76,674.305 1706.076,725.205 1721.089,738.596C1736.083,751.987 1782.548,764.444 1789.853,775.633C1793.373,780.991 1795.693,786.369 1796.362,790.695Z" fill="#CA2556"/>
<path d="M1757.803,769.281C1757.803,769.281 1791.005,761.887 1796.363,764.837C1801.722,767.787 1814.818,778.513 1816.46,782.249C1818.102,785.985 1804.534,779.418 1800.119,778.228C1797.258,777.461 1789.737,780.077 1786.01,781.315C1770.338,786.536 1760.733,783.852 1760.733,783.852L1757.803,769.281Z" fill="#FFB5B3"/>
<path d="M1735.563,583.164C1735.563,583.164 1690.975,585.907 1675.539,607.439C1653.81,637.74 1610.707,766.892 1635.415,784.108C1663.229,803.506 1762.02,789.182 1762.02,789.182C1762.02,789.182 1765.304,773.814 1760.732,766.381C1756.16,758.948 1681.831,746.943 1678.4,743.512C1674.969,740.081 1721.287,676.616 1721.287,666.322C1721.287,656.038 1735.563,583.164 1735.563,583.164Z" fill="#FF3874"/>
<path d="M1797.975,774.08C1797.975,774.08 1804.936,783.056 1807.217,784.128C1809.498,785.199 1810.972,784.934 1810.972,784.934L1806.283,776.498L1797.975,774.08Z" fill="#FFB5B3"/>
<path d="M1796.363,764.838L1816.587,774.66C1816.587,774.66 1815.722,776.066 1813.235,775.958C1810.747,775.84 1804.465,773.549 1804.465,773.549L1796.363,764.838Z" fill="#FFB5B3"/>
<path d="M1807.215,797.873L1967.219,797.873L2015.357,678.179L1855.588,678.179L1807.215,797.873Z" fill="#1B1092"/>
<path d="M1969.097,793.212L1757.799,793.212L1757.799,797.873L1967.219,797.873L1969.097,793.212Z" fill="#7D97F4"/>
<path d="M1927.688,738C1928.908,732.477 1926.448,728 1922.203,728C1917.957,728 1913.533,732.477 1912.313,738C1911.093,743.522 1913.553,748 1917.798,748C1922.044,748 1926.468,743.522 1927.688,738Z" transform="rotate(8.903 1920.001 738)" fill="#7D97F4"/>
<path d="M964.797,1108.494C964.797,1108.494 961.321,1127.143 959.525,1145.617C958.823,1152.839 964.338,1159.163 971.58,1159.534C996.196,1160.797 1048.85,1163.294 1067.756,1162.626C1070.597,1162.525 1072.481,1159.636 1071.455,1156.983C1070.597,1154.762 1068.91,1152.954 1066.757,1151.934L980.132,1111.119L964.797,1108.494Z" fill="url(#pf_0_471_4017)"/>
<path d="M962.195,1097.492L964.632,1119.86C964.632,1119.86 979.805,1127.103 990.287,1119.212L984.213,1094.252L962.195,1097.492Z" fill="url(#pf_0_471_4018)"/>
<path d="M968.198,677.454C966.996,683.279 959.275,968.566 988.555,1096.728C989.034,1098.822 987.954,1100.96 985.963,1101.75C981.265,1103.62 972.072,1106.3 961.077,1106.564C957.675,1106.644 954.645,1104.404 953.713,1101.13C945.276,1071.378 904.92,922.338 900.823,780.292C896.246,621.566 900.877,774.892 900.877,774.892L905.385,676.846L968.198,677.454Z" fill="url(#pf_0_471_4019)"/>
<path d="M864.617,1117.282C864.617,1117.282 859.272,1126.664 853.953,1151.671C852.994,1156.187 856.113,1160.547 860.702,1161.047C868.829,1161.924 881.336,1163.071 891.359,1163.098C895.983,1163.112 899.628,1159.123 899.115,1154.526C898.089,1145.367 894.775,1130.329 884.198,1118.53L864.617,1117.282Z" fill="url(#pf_0_471_4020)"/>
<path d="M860.277,1088.501L866.15,1122.351C866.15,1122.351 872.231,1126.968 884.38,1123.775L881.768,1087.395L860.277,1088.501Z" fill="url(#pf_0_471_4021)"/>
<path d="M847.393,685.054C821.008,835.362 849.255,1057.189 859.076,1100.651C859.677,1103.309 861.803,1105.369 864.489,1105.835C869.052,1106.637 876.571,1107.325 884.009,1105.241C886.574,1104.525 888.39,1102.237 888.518,1099.577C890.226,1064.533 889.807,849.3 913.863,764.47C915.085,760.171 917.751,756.438 921.416,753.88L966.835,722.238L970.79,670.427L847.393,685.054Z" fill="url(#pf_0_471_4022)"/>
<path d="M1214.38,355.453C1207.124,346.51 1199.076,347.665 1199.076,347.665C1187.629,394.029 1114.578,442.734 1070.795,458.456C1074.507,474.972 1081.223,496.447 1099.912,518.532C1198.795,464.177 1214.38,355.453 1214.38,355.453Z" transform="rotate(90.429 1142.587 433.074)" fill="url(#pf_0_471_4024)"/>
<path d="M976,401C901.254,399.049 851.636,419.447 851.636,419.447C828.114,549.257 845.069,699.404 845.069,699.404C902.799,715.13 968.318,691.296 968.318,691.296C978.456,637.042 1024.792,484.521 1024.792,484.521C1061.362,480.336 1067.094,485.695 1092,471.999C1073.31,449.908 1087.712,420.516 1084,404C1058,390 984.934,395.682 976,401Z" fill="#FF3874"/>
<path d="M1269.745,448.013C1270.487,450.464 1261.557,454.102 1256.414,444.058C1256.279,439.266 1253.559,418.727 1256.461,414.852C1271.898,394.225 1301.691,368.462 1301.691,368.462C1306.638,373.436 1302.481,378.235 1302.481,378.235L1288.002,393.031C1290.952,398.478 1294.563,403.081 1296.21,409.655C1297.459,414.63 1296.615,419.928 1294.064,424.417C1291.506,428.925 1288.016,434.784 1284.729,439.367C1278.506,448.034 1269.745,448.013 1269.745,448.013Z" transform="rotate(90.429 1279.621 409.592)" fill="url(#pf_0_471_4027)"/>
<path d="M1275.704,395.816L1262.536,406.764L1258.331,417.746L1269.852,430.773C1269.852,430.773 1273.976,408.938 1276.933,404.233C1279.889,399.535 1278.404,397.227 1275.704,395.816Z" transform="rotate(90.429 1268.444 413.295)" fill="url(#pf_0_471_4028)"/>
<path d="M879.622,492.108L851.638,419.448C851.638,419.448 781.36,466.223 769.299,526.268C782.481,527.368 806.456,531.026 829.843,543.115C835.283,514.76 879.622,492.108 879.622,492.108Z" fill="#FF3874"/>
<path d="M939.99,560.799C939.99,560.799 861.168,604.354 835.08,566.273C829.661,558.362 828.425,550.546 829.849,543.115C806.462,531.026 782.487,527.361 769.305,526.268C765.667,544.37 767.314,563.674 777.789,583.269C823.316,668.47 950.189,580.231 950.189,580.231L939.99,560.799Z" fill="url(#pf_0_471_4030)"/>
<path d="M933.923,339.903L909.482,408.466C909.077,409.6 909.536,410.869 910.582,411.463C917.035,415.108 940.294,425.691 968.616,408.115C971.566,406.286 973.59,403.269 974.07,399.833L982.338,340.369L933.923,339.903Z" fill="url(#pf_0_471_4031)"/>
<path d="M986.285,276.699C986.285,276.699 1011.934,326.114 1008.397,345.944C1004.86,365.775 972.502,364.04 944.39,347.638L925.146,294.356L986.285,276.699Z" fill="url(#pf_0_471_4033)"/>
<path d="M945.888,321.578C947.042,321.078 947.481,319.674 946.799,318.621C944.734,315.402 940.88,308.848 939.678,303.124C939.678,303.124 935.014,300.073 951.693,296.246C968.378,292.419 993.264,286.473 998.617,272.353C1003.834,258.583 990.8,223.714 969.208,251.192C968.385,252.238 966.799,252.245 965.995,251.186C962.546,246.603 953.441,237.072 940.63,242.674C928.636,247.919 927.212,256.653 927.333,261.067C927.367,262.363 926.199,263.362 924.924,263.106C918.896,261.897 904.418,260.77 897.513,275.565C891.83,287.755 895.38,294.721 898.647,298.136C899.707,299.243 899.221,301.045 897.749,301.484C893.767,302.659 888.617,305.979 889.036,315.28C889.623,328.138 904,327.146 908.097,326.6C908.765,326.512 909.44,326.748 909.892,327.254C913.362,331.169 929.007,347.8 946.097,349.953C947.576,350.142 948.737,348.691 948.264,347.274L941.069,325.688C940.731,324.683 941.224,323.596 942.196,323.178L945.888,321.578Z" fill="url(#pf_0_471_4034)"/>
<path d="M948.83,324.662C948.83,324.662 930.357,311.723 928.892,322.455C927.434,333.187 945.489,338.182 954.5,334.26L948.83,324.662Z" fill="url(#pf_0_471_4035)"/>
<path d="M923.88,629.639L966.815,479.695C967.301,477.994 968.752,476.752 970.514,476.55C978.296,475.645 1000.833,473.094 1026.86,470.894C1058.212,468.241 1094.613,466.095 1116.374,467.924C1119.465,468.18 1121.335,471.454 1119.958,474.235C1107.586,499.262 1056.7,601.074 1031.213,634.424C1030.37,635.531 1029.06,636.172 1027.67,636.159L928.052,635.234C925.163,635.207 923.084,632.426 923.88,629.639Z" fill="url(#pf_0_471_4038)"/>
<path d="M934.254,593.414C934.254,593.414 928.274,568.818 930.684,560.097C933.093,551.37 937.771,540.152 953.349,542.649C968.927,545.14 987.313,551.707 987.313,551.707C987.313,551.707 986.382,563.074 974.543,559.409L981.887,565.092C981.887,565.092 980.834,574.191 970.837,569.331L977.668,576.863C977.668,576.863 973.375,584.335 966.011,579.543C958.654,574.737 955.124,596.377 934.254,593.414Z" fill="url(#pf_0_471_4039)"/>
<path d="M1024.004,515.651C1024.004,522.61 1029.647,528.253 1036.605,528.253C1043.564,528.253 1049.207,522.61 1049.207,515.651C1049.207,508.692 1043.564,503.05 1036.605,503.05C1029.647,503.05 1024.004,508.692 1024.004,515.651Z" fill="#7D97F4"/>
<path d="M971.674,523.96L968.461,523.008L977.202,493.357C978.626,488.524 982.527,484.899 987.373,483.894C1015.081,478.109 1088.058,476.928 1091.15,476.881L1091.204,480.229C1090.448,480.235 1015.452,481.45 988.055,487.167C984.417,487.923 981.488,490.657 980.415,494.302L971.674,523.96Z" fill="#DAE3FE"/>
<path d="M463.534,943.585C458.958,950.355 440.767,1103.701 437.919,1160.331C437.723,1164.157 440.788,1167.349 444.621,1167.349C447.929,1167.349 450.743,1164.941 451.25,1161.673L484.519,948.459L463.534,943.585Z" fill="#A6ADEE"/>
<path d="M609.783,943.585C614.36,950.355 632.55,1103.701 635.398,1160.331C635.594,1164.157 632.53,1167.349 628.696,1167.349C625.389,1167.349 622.574,1164.941 622.068,1161.673L588.799,948.459L609.783,943.585Z" fill="#A6ADEE"/>
<path d="M436.014,931.619L436.001,933.293C435.893,945.321 446.254,955.189 459.233,955.411L613.024,958.03C625.815,958.246 636.472,949.006 637.094,937.16L637.174,935.628C637.822,923.276 627.333,912.868 613.996,912.632L460.138,909.871C446.969,909.635 436.122,919.409 436.014,931.619Z" fill="#A6ADEE"/>
<path d="M759.974,1154.763C732.638,1154.763 720.542,1152.42 715.129,1150.281C716.182,1154.769 720.178,1158.313 725.233,1158.313L821.949,1158.313C825.202,1158.313 827.261,1155.195 826.485,1152.373C815.463,1153.257 792.041,1154.763 759.974,1154.763Z" fill="#A6ADEE"/>
<path d="M826.487,1152.373C826.332,1151.806 826.103,1151.246 825.698,1150.727C818.327,1141.318 803.532,1126.549 783.397,1126.833C753.908,1127.244 743.622,1130.444 720.707,1127.015L715.3,1144.935C714.747,1146.764 714.74,1148.587 715.138,1150.281C720.545,1152.421 732.64,1154.763 759.983,1154.763C792.044,1154.763 815.465,1153.258 826.487,1152.373Z" fill="#2B478B"/>
<path d="M727.342,1107.704L720.707,1130.275C720.707,1130.275 735.408,1136.971 748.34,1131.598L750.878,1112.044L727.342,1107.704Z" fill="url(#pf_0_471_4050)"/>
<path d="M927.792,1140.548C906.483,1157.672 895.589,1163.429 890.041,1165.157C893.659,1167.985 898.984,1168.228 902.926,1165.063L978.32,1104.484C980.858,1102.446 980.52,1098.74 978.151,1097.033C970.105,1104.633 952.793,1120.461 927.792,1140.548Z" fill="#A6ADEE"/>
<path d="M978.152,1097.039C977.673,1096.695 977.146,1096.405 976.505,1096.256C964.896,1093.576 944.154,1091.383 928.637,1104.214C905.904,1123.005 899.883,1131.928 879.877,1143.619L886.836,1160.911C887.545,1162.673 888.672,1164.097 890.042,1165.163C895.59,1163.436 906.484,1157.678 927.793,1140.554C952.794,1120.46 970.106,1104.632 978.152,1097.039Z" fill="#2B478B"/>
<path d="M585.376,850.542C585.376,850.542 749.048,863.906 782.627,879.714C816.207,895.522 755.223,1117.052 755.223,1117.052C755.223,1117.052 746.085,1121.454 725.742,1115.128C725.742,1115.128 746.598,951.645 731.081,916.196L553.861,887.206L585.376,850.542Z" fill="url(#pf_0_471_4054)"/>
<path d="M863.617,1112.497C865.136,1113.88 879.877,1143.613 879.877,1143.613C879.877,1143.613 896.292,1140.062 899.633,1129.674L884.865,1102.838L863.617,1112.497Z" fill="url(#pf_0_471_4055)"/>
<path d="M486.791,849.172C486.791,849.172 481.458,862.003 481.674,879.059C481.978,902.649 500.938,921.785 524.501,922.959L717.994,931.781C722.078,931.97 725.54,934.798 726.558,938.753C731.108,956.343 753.328,1010.347 861.97,1118.118C864.86,1120.988 869.362,1121.474 872.804,1119.3L888.268,1109.534C889.894,1108.508 890.406,1106.382 889.442,1104.72L776.784,912.335C770.864,902.568 761.354,895.515 750.29,892.687L585.376,850.529L486.791,849.172Z" fill="url(#pf_0_471_4056)"/>
<path d="M677.475,548.649C677.475,548.649 656.746,585.3 635.613,603.052L679.297,627.425C679.297,627.425 689.138,588.628 711.628,577.268L677.475,548.649Z" fill="url(#pf_0_471_4057)"/>
<path d="M483.283,850.542C483.283,850.542 535.519,863.272 585.379,850.542C585.379,850.542 655.143,756.755 682.135,731.228C682.135,731.228 725.191,799.164 821.015,808.796L826.361,796.855C826.361,796.855 750.071,761.689 726.589,707.652C703.099,653.614 693.669,630.57 672.301,616.47C658.99,607.689 651.026,601.689 646.908,598.415C644.654,596.62 641.543,596.417 639.086,597.915C616.407,611.732 509.708,684.811 483.283,850.542Z" fill="#FF3874"/>
<path d="M679.298,729.905C678.292,729.905 677.3,729.453 676.638,728.596C660,706.909 650.74,682.995 650.355,681.996C649.694,680.268 650.558,678.331 652.286,677.67C654.014,677.008 655.951,677.872 656.612,679.6C656.707,679.836 665.933,703.635 681.957,724.526C683.084,725.997 682.808,728.096 681.336,729.223C680.729,729.682 680.013,729.905 679.298,729.905Z" fill="#CA2556"/>
<path d="M815.254,790.612L826.04,787.736L858.789,780.15C862.731,779.239 866.875,779.934 870.297,782.094L898.457,799.811L820.694,799.683L815.254,790.612Z" fill="url(#pf_0_471_4060)"/>
<path d="M710.387,493.701C710.387,493.701 730.528,527.186 734.024,545.694C737.52,564.201 743.129,575.77 722.063,582.365C700.998,588.959 681.424,580.61 669.139,563.337C669.139,563.337 649.95,536.751 651.867,524.574C653.784,512.398 710.387,493.701 710.387,493.701Z" fill="url(#pf_0_471_4062)"/>
<path d="M674.755,549.014L677.482,548.656C677.482,548.656 663.219,527.105 672.554,521.759C681.889,516.413 719.923,503.292 726.525,488.314C732.889,473.877 723.366,457.563 711.885,454.154C711.156,453.938 710.393,454.37 710.13,455.079L709.455,456.895C708.996,458.144 707.248,458.191 706.714,456.976C706.208,455.822 704.554,455.774 704.035,456.922C701.996,461.41 695.901,469.071 677.61,475.004C651.657,483.421 635.492,496.502 637.476,514.942C637.605,516.11 636.444,516.913 635.37,516.44C633.251,515.502 630.031,515.354 626.299,519.437C619.806,526.538 624.895,542.076 642.633,553.071C643.477,553.59 643.625,554.785 642.869,555.426C640.217,557.701 636.484,562.763 648.485,567.279C660.763,571.896 667.458,570.336 669.935,569.344C670.604,569.074 670.982,568.386 670.847,567.684L667.695,551.525C667.533,550.688 668.106,549.892 668.95,549.777L674.755,549.014Z" fill="url(#pf_0_471_4063)"/>
<path d="M675.869,552.328C675.869,552.328 666.98,530.412 657.645,538.114C648.31,545.815 666.271,562.844 674.566,562.615L675.869,552.328Z" fill="url(#pf_0_471_4064)"/>
<path d="M785.211,815.065C785.339,815.072 785.467,815.072 785.595,815.072L951.725,814.903C955.828,814.903 959.156,811.575 959.149,807.472C959.143,803.368 955.802,799.986 951.704,800.054L785.575,800.222C781.471,800.222 778.144,803.55 778.15,807.654C778.157,811.629 781.282,814.876 785.211,815.065Z" fill="url(#pf_0_471_4067)"/>
<path d="M1016.062,652.371C1016.002,652.486 1015.948,652.601 1015.894,652.715L945.994,803.422C944.266,807.148 945.879,811.562 949.598,813.29C953.317,815.018 957.799,813.411 959.46,809.665L1029.359,658.959C1031.087,655.233 1029.474,650.819 1025.755,649.091C1022.157,647.424 1017.898,648.895 1016.062,652.371Z" fill="url(#pf_0_471_4069)"/>
<path d="M1451.088,966.528L1433.553,966.528L1433.553,1156.153L1451.088,1156.153L1451.088,966.528Z" fill="#A6ADEE"/>
<path d="M1519.114,1159.804L1365.539,1159.804C1365.539,1153.5 1370.649,1148.391 1376.953,1148.391L1507.7,1148.391C1514.005,1148.391 1519.114,1153.5 1519.114,1159.804Z" fill="#A6ADEE"/>
<path d="M1541.907,959.947C1541.907,970.321 1533.423,978.806 1523.048,978.806L1367.671,978.806C1357.297,978.806 1348.813,970.321 1348.813,959.947L1348.813,942.898C1348.813,932.523 1357.297,924.039 1367.671,924.039L1523.048,924.039C1533.423,924.039 1541.907,932.523 1541.907,942.898L1541.907,959.947Z" fill="#A6ADEE"/>
<path d="M1312.876,840.093C1312.876,840.093 1286.822,844.129 1257.529,863.717C1252.919,866.801 1250.387,872.174 1251.083,877.675C1254.592,905.463 1269.01,995.396 1316.575,1083.229C1319.085,1087.859 1319.801,1093.253 1318.694,1098.403L1310.432,1136.855L1295.111,1151.225L1334.576,1151.225L1360.852,1080.111L1349.614,1076.561C1340.9,1073.807 1334.927,1065.795 1334.765,1056.655L1333.449,980.371C1334.576,946.387 1312.606,922.932 1312.606,922.932L1375.634,919.867L1312.876,840.093Z" fill="url(#pf_0_471_4076)"/>
<path d="M1279.696,1158.158C1276.099,1162.862 1318.385,1169.072 1339.741,1158.779C1339.741,1158.779 1369.352,1107.258 1369.352,1080.732C1369.352,1080.732 1367.003,1075.326 1349.616,1076.547C1349.616,1076.547 1339.674,1137.551 1329.178,1144.381C1318.682,1151.212 1299.803,1145.07 1299.803,1145.07C1299.803,1145.07 1285.001,1151.219 1279.696,1158.158Z" fill="#2B478B"/>
<path d="M1367.672,924.038C1367.334,923.458 1299.811,915.919 1299.811,915.919C1299.811,915.919 1302.018,936.451 1295.113,964.712C1288.208,992.979 1189.063,1115.432 1189.063,1115.432L1199.457,1148.384C1167.315,1159.582 1135.7,1161.37 1104.584,1154.094L1169.009,1115.432C1169.009,1115.432 1229.304,909.959 1266.238,873.301L1333.924,849.88L1367.672,924.038Z" fill="url(#pf_0_471_4078)"/>
<path d="M1519.112,804.482C1519.112,804.482 1558.018,862.347 1561.21,888.745C1564.402,915.143 1550.552,925.868 1509.73,927.636C1468.908,929.405 1359.928,929.378 1359.928,929.378L1266.918,849.887C1266.918,849.887 1334.698,825.703 1352.321,818.859C1369.945,812.021 1519.112,804.482 1519.112,804.482Z" fill="url(#pf_0_471_4079)"/>
<path d="M1195.527,1137.294C1195.527,1137.294 1206.718,1148.134 1199.159,1160.196C1199.159,1160.196 1110.495,1175.909 1086.426,1168.782C1086.426,1168.782 1091.427,1157.375 1118.527,1144.388L1116.529,1145.921C1113.998,1147.864 1115.483,1151.914 1118.669,1151.732C1136.529,1150.713 1173.496,1147.439 1195.527,1137.294Z" fill="#2B478B"/>
<path d="M1350.587,437.496C1430.119,423.977 1467.559,488.841 1464.826,502.468C1464.461,504.277 1466.169,505.803 1467.944,505.324C1477.076,502.867 1497.244,499.769 1509.751,515.435C1520.794,529.265 1512.539,542.318 1505.816,549.487C1504.19,551.214 1505.56,554.029 1507.915,553.732C1524.702,551.613 1561.176,551.106 1567.144,585.273C1572.712,617.138 1550.532,626.122 1537.378,628.66C1535.15,629.085 1534.63,632.015 1536.548,633.23C1543.108,637.394 1550.714,645.994 1547.636,662.968C1542.824,689.576 1490.656,687.402 1484.555,687.052C1484.17,687.032 1483.806,686.916 1483.468,686.728L1399.907,639.068C1399.253,638.698 1398.807,638.056 1398.679,637.314L1381.811,539.889C1381.676,539.099 1381.919,538.296 1382.473,537.715L1327.996,460.843C1308.22,457.934 1349.649,437.651 1350.587,437.496Z" fill="url(#pf_0_471_4082)"/>
<path d="M1413.893,796.822C1413.893,796.822 1368.589,753.684 1346.288,725.106C1334.233,709.663 1330.447,689.326 1336.022,670.542C1346.2,636.24 1364.296,600.71 1365.95,595.182C1368.481,586.704 1419.279,587.062 1419.279,587.062C1419.279,587.062 1519.241,651.939 1558.518,761.837L1514.409,775.573C1514.409,775.573 1488.308,731.781 1462.517,703.946C1462.517,703.946 1507.139,762.897 1508.712,787.027L1413.893,796.822Z" fill="#FF3874"/>
<path d="M1359.809,547.813C1360.342,549.575 1373.598,593.528 1374.638,594.44C1375.677,595.351 1403.715,596.863 1416.911,587.839L1384.168,523.798L1359.809,547.813Z" fill="url(#pf_0_471_4084)"/>
<path d="M1306.655,491.332C1306.655,491.332 1300.249,516.515 1317.974,550.378C1335.699,584.241 1355.772,584.207 1366.74,573.367C1377.708,562.527 1391.242,544.134 1388.029,511.392C1384.816,478.649 1315.909,459.298 1306.655,491.332Z" fill="url(#pf_0_471_4086)"/>
<path d="M1363.499,513.174C1363.499,513.174 1334.084,468.207 1306.505,503.596L1306.006,516.468C1306.006,516.468 1273.702,512.634 1279.358,483.009C1285.007,453.385 1312.931,434.871 1348.886,447.702C1384.842,460.533 1405.442,473.688 1407.764,499.458C1410.085,525.222 1389.587,519.572 1389.587,519.572C1389.587,519.572 1382.898,501.429 1373.394,499.546C1363.891,497.663 1366.361,511.81 1366.361,511.81L1363.499,513.174Z" fill="url(#pf_0_471_4087)"/>
<path d="M1371.034,512.573C1371.034,512.573 1355.78,489.55 1371.412,486.114C1387.044,482.679 1384.621,508.55 1382.934,518.121L1371.034,512.573Z" fill="url(#pf_0_471_4088)"/>
<path d="M1321.598,800.027L1354.887,767.946L1400.933,787.398C1400.933,787.398 1446.77,794.499 1473.006,787.398C1499.242,780.298 1499.242,780.298 1499.242,780.298L1558.524,761.844L1567.832,788.154C1570.194,794.837 1567.818,802.254 1562.042,806.358C1556.912,810.003 1550.898,814.006 1547.07,815.686C1539.262,819.102 1354.617,813.324 1354.617,813.324L1321.598,800.027Z" fill="url(#pf_0_471_4089)"/>
<path d="M1447.565,815.154C1447.417,815.161 1447.269,815.167 1447.121,815.161L1254.025,814.951C1249.253,814.945 1245.386,811.077 1245.393,806.298C1245.399,801.526 1249.287,797.578 1254.046,797.665L1447.141,797.875C1451.913,797.882 1455.779,801.756 1455.773,806.528C1455.767,811.151 1452.129,814.924 1447.565,815.154Z" fill="url(#pf_0_471_4091)"/>
<path d="M1080.445,639.831L1241.255,639.831C1253.121,639.831 1263.914,646.675 1268.976,657.407L1343.318,815.046L1143.473,815.046C1135.826,815.046 1128.961,810.375 1126.147,803.267L1068.498,657.394C1065.17,648.97 1071.38,639.831 1080.445,639.831Z" fill="url(#pf_0_471_4092)"/>
<path d="M1193.737,720.658C1197.22,731.485 1194.648,742.001 1187.986,744.14C1181.324,746.287 1173.103,739.247 1169.614,728.42C1166.131,717.594 1168.702,707.078 1175.364,704.938C1182.026,702.792 1190.254,709.832 1193.737,720.658Z" fill="#7D97F4"/>
<path d="M2206.346,1135.903C2206.346,1135.903 2208.371,1147.155 2209.174,1160.512C2209.518,1166.202 2205.299,1171.15 2199.623,1171.703C2179.86,1173.62 2134.873,1177.157 2106.147,1173.013C2102.124,1172.432 2100.524,1167.492 2103.501,1164.717C2115.347,1153.682 2143.952,1132.218 2191.031,1127.527L2206.346,1135.903Z" fill="url(#pf_0_471_4096)"/>
<path d="M2216.174,1110.538L2206.184,1135.033C2204.814,1138.387 2201.412,1140.473 2197.801,1140.095C2195.351,1139.838 2192.455,1139.373 2189.641,1138.515C2184.005,1136.801 2180.819,1130.828 2182.506,1125.178L2190.046,1099.948L2216.174,1110.538Z" fill="url(#pf_0_471_4097)"/>
<path d="M2387.012,1155.41C2387.012,1155.41 2367,1172.149 2359.204,1193.627C2357.057,1199.533 2361.593,1205.756 2367.877,1205.756L2409.057,1205.756C2415.084,1205.756 2419.701,1200.336 2418.655,1194.396C2416.029,1179.574 2408.463,1155.478 2387.012,1155.41Z" fill="url(#pf_0_471_4098)"/>
<path d="M2411.798,1133.622C2411.798,1133.622 2407.755,1151.515 2404.65,1163.334C2404.083,1165.48 2401.795,1166.655 2399.71,1165.912C2393.48,1163.685 2388.411,1162.699 2384.719,1163.192C2383.018,1163.421 2381.526,1162.004 2381.506,1160.283L2381.121,1130.571L2411.798,1133.622Z" fill="url(#pf_0_471_4099)"/>
<path d="M2305.376,731.066L2183.666,1102.378C2183.666,1102.378 2207.013,1117.666 2218.13,1117.03L2362.694,818.622C2362.694,818.622 2387.992,1002.49 2375.734,1134.492L2417.144,1137.652C2417.144,1137.652 2484.472,800.317 2433.478,684.776L2305.376,731.066Z" fill="url(#pf_0_471_4100)"/>
<path d="M2361.921,815.416C2361.968,815.416 2362.022,815.41 2362.069,815.41C2362.717,815.329 2363.176,814.741 2363.088,814.094L2358.364,776.606C2358.283,775.958 2357.702,775.512 2357.048,775.587C2356.4,775.668 2355.941,776.255 2356.028,776.903L2360.753,814.39C2360.827,814.978 2361.334,815.416 2361.921,815.416Z" fill="#7D97F4"/>
<path d="M2282.565,404.334C2282.565,404.334 2381.17,413.089 2367.226,483.353C2367.226,483.353 2421.736,585.934 2447.216,706.766C2448.046,710.702 2445.414,714.534 2441.452,715.21L2277.232,743.328C2272.703,744.106 2268.336,741.278 2267.182,736.828L2227.946,585.185L2212.658,655.692L2164.074,643.036L2204.97,435.862C2204.97,435.862 2210.674,405.63 2282.565,404.334Z" fill="#FF3874"/>
<path d="M2227.11,578.409C2227.198,578.409 2227.285,578.402 2227.373,578.382C2228.034,578.24 2228.453,577.585 2228.311,576.924L2214.623,514.071C2214.481,513.409 2213.833,512.998 2213.165,513.133C2212.503,513.274 2212.085,513.929 2212.227,514.59L2225.915,577.443C2226.043,578.017 2226.55,578.409 2227.11,578.409Z" fill="#CA2556"/>
<path d="M2237.025,765.441C2242.195,762.6 2248.256,761.81 2253.98,763.234L2265.407,766.076C2267.837,766.683 2270.24,765.009 2270.523,762.518L2282.349,657.278C2297.13,664.297 2318.459,663.46 2325.493,662.947L2298.278,787.013L2203.047,787.013L2237.025,765.441Z" fill="url(#pf_0_471_4104)"/>
<path d="M1984,537.168L1986.875,527.604C1988.529,522.096 1992.599,517.648 1997.938,515.502L2049.998,494.564C2049.998,494.564 2050.781,487.889 2038.996,483.353C2027.211,478.817 2029.965,465.615 2029.965,465.615C2029.965,465.615 2046.07,472.958 2069.64,484.608C2083.119,491.27 2090.685,503.035 2094.694,511.884L2212.658,655.692L2198.808,665.209C2180.597,677.723 2155.549,671.575 2145.202,652.054L2081.296,529.514C2049.208,539.146 2016.743,540.995 1984,537.168Z" fill="url(#pf_0_471_4105)"/>
<path d="M2250.616,337.25L2280.942,422.134C2280.942,422.134 2254.086,443.132 2234.484,436.032L2219.203,387.373C2219.203,387.373 2230.88,327.902 2250.616,337.25Z" fill="url(#pf_0_471_4107)"/>
<path d="M2160.096,306.762C2160.096,308.072 2189.308,389.466 2189.308,389.466L2235.429,371.795L2219.203,290.536C2219.203,290.536 2160.096,284.866 2160.096,306.762Z" fill="url(#pf_0_471_4109)"/>
<path d="M2211.118,310.333L2223.011,352.444C2223.166,352.984 2223.241,353.53 2223.241,354.091C2223.247,357.526 2222.397,369.345 2210.355,367.738C2199.434,366.28 2189.445,365.113 2183.087,368.103C2180.232,369.446 2178.868,372.726 2179.934,375.696C2182.594,383.094 2188.885,399.644 2196.546,413.191C2198.098,415.938 2201.513,417.011 2204.389,415.701C2213.048,411.76 2231.09,402.938 2243.935,392.442C2245.676,391.018 2246.513,388.784 2246.095,386.577C2244.076,375.804 2238.049,343.041 2237.786,333.653C2237.536,324.838 2247.424,318.115 2251.778,315.584C2253.202,314.754 2254.221,313.39 2254.606,311.784C2255.969,306.114 2257.13,293.276 2240.756,290.448C2237.327,289.854 2235.093,286.574 2235.788,283.165C2237.172,276.382 2236.733,266.399 2223.848,262.72C2210.753,258.981 2202.512,266.865 2198.327,272.906C2196.633,275.349 2193.461,276.146 2190.748,274.931C2189.202,274.242 2187.332,274.208 2185.327,275.903C2182.621,278.184 2178.51,277.489 2176.519,274.566C2172.699,268.944 2165.767,263.335 2154.023,267.135C2133.186,273.878 2134.179,297.9 2141.819,310.96C2149.46,324.021 2171.632,315.429 2182.135,306.769C2190.12,300.188 2202.269,304.123 2207.635,306.391C2209.35,307.099 2210.612,308.557 2211.118,310.333Z" fill="url(#pf_0_471_4110)"/>
<path d="M2241.969,349.015C2241.969,349.015 2229.637,325.688 2237.791,318.358C2245.945,311.035 2259.761,312.229 2259.39,330.474C2258.931,353.173 2241.969,349.015 2241.969,349.015Z" fill="url(#pf_0_471_4111)"/>
<path d="M2315.922,664.534C2322.652,664.534 2327.458,664.021 2327.977,663.967L2328.855,663.873L2364.763,496.461C2364.905,495.8 2364.486,495.152 2363.825,495.01C2363.156,494.861 2362.515,495.287 2362.374,495.948L2326.837,661.618C2321.491,662.091 2292.96,663.981 2277.895,653.31L2308.997,507.861L2302.504,495.624C2302.187,495.03 2301.444,494.801 2300.85,495.118C2300.257,495.435 2300.027,496.178 2300.344,496.772L2306.419,508.219L2275.168,654.336L2275.789,654.801C2286.676,662.989 2304.212,664.534 2315.922,664.534Z" fill="#CA2556"/>
<path d="M700.838,1174.945C700.014,1174.945 699.177,1174.763 698.368,1174.385C695.195,1172.893 693.73,1168.877 695.094,1165.415L826.301,832.494C827.664,829.031 831.343,827.432 834.522,828.923C837.694,830.415 839.159,834.431 837.795,837.893L706.589,1170.815C705.569,1173.399 703.261,1174.945 700.838,1174.945Z" fill="#7D97F4"/>
<path d="M848.651,1174.944C846.228,1174.944 843.919,1173.398 842.9,1170.814L711.694,837.893C710.33,834.43 711.795,830.414 714.967,828.923C718.139,827.431 721.818,829.031 723.188,832.493L854.395,1165.414C855.758,1168.876 854.294,1172.892 851.121,1174.384C850.311,1174.768 849.474,1174.944 848.651,1174.944Z" fill="#7D97F4"/>
<path d="M2050.254,1174.944C2049.43,1174.944 2048.593,1174.762 2047.784,1174.384C2044.611,1172.892 2043.146,1168.876 2044.51,1165.414L2175.717,832.493C2177.08,829.031 2180.759,827.431 2183.938,828.923C2187.11,830.414 2188.575,834.43 2187.211,837.893L2056.005,1170.814C2054.985,1173.398 2052.677,1174.944 2050.254,1174.944Z" fill="#7D97F4"/>
<path d="M2198.065,1174.944C2195.642,1174.944 2193.333,1173.398 2192.314,1170.814L2061.108,837.893C2059.744,834.43 2061.209,830.414 2064.381,828.923C2067.553,827.431 2071.232,829.031 2072.602,832.493L2203.809,1165.414C2205.172,1168.876 2203.708,1172.892 2200.535,1174.384C2199.732,1174.768 2198.888,1174.944 2198.065,1174.944Z" fill="#7D97F4"/>
<path d="M2096.914,808.984L2286.951,808.984L2286.951,789.37L2096.914,789.37C2100.984,789.376 2100.984,808.984 2096.914,808.984Z" fill="#BDD0FB"/>
<path d="M2284.696,808.984C2285.938,808.984 2286.951,807.972 2286.951,806.73L2286.951,791.631C2286.951,790.389 2285.938,789.377 2284.696,789.377L2093.377,789.377C2092.135,789.377 2091.123,788.378 2091.123,787.163C2091.123,785.941 2092.135,784.949 2093.377,784.949L2297.831,784.949C2302.367,784.949 2306.039,788.621 2306.039,793.156L2306.039,805.69C2306.039,809.963 2302.577,813.426 2298.303,813.426L2093.377,813.426C2092.135,813.426 2091.123,812.427 2091.123,811.212C2091.123,809.997 2092.135,808.998 2093.377,808.998L2284.696,808.998L2284.696,808.984Z" fill="url(#pf_0_471_4120)"/>
<path d="M2329.86,822.207C2330.5,820.02 2329.63,817.752 2327.49,816.031C2325.35,814.31 2322.164,813.317 2318.804,813.317L640.116,813.317C635.695,813.317 631.577,814.809 629.195,817.28C626.812,819.75 626.495,822.855 628.344,825.514L640.683,843.232C643.511,847.288 649.633,849.887 656.369,849.887L2310.98,849.887C2317.244,849.887 2322.638,846.937 2323.826,842.861L2329.86,822.207Z" fill="#7D97F4"/>
<path d="M229.951,1167.555C229.951,1167.555 227.811,1150.895 222.855,1140.992C217.899,1131.089 186.38,1137.391 186.38,1137.391C186.38,1137.391 180.078,1142.793 178.723,1168.01L229.951,1167.555Z" fill="#233862"/>
<path d="M337.344,1167.332C329.938,1162.812 334.149,1129.085 334.149,1129.085C334.149,1129.085 368.659,1101.477 373.403,1122.619C378.146,1143.761 406.19,1153.247 422.152,1155.832C433.169,1157.623 436.586,1163.721 437.641,1167.332L337.344,1167.332L337.344,1167.332Z" fill="#233862"/>
<path d="M265.857,922.044C267.261,929.788 268.151,936.13 268.393,940.688C271.597,1003.262 321.073,1146.346 329.921,1149.686C343.609,1154.854 365.167,1143.868 376.454,1140.276C381.13,1138.786 384.285,1134.07 383.24,1129.288C358.739,1016.668 349.736,854.495 346.465,758.486C344.809,710.124 336.513,676.717 336.513,676.717C336.513,676.717 215.859,644.53 215.142,685.246C214.503,721.285 255.102,862.597 265.857,922.044Z" fill="#160B83"/>
<path d="M265.857,922.044L346.455,758.486C344.799,710.124 336.503,676.717 336.503,676.717C336.503,676.717 215.849,644.53 215.132,685.246C214.503,721.285 255.102,862.597 265.857,922.044Z" fill="#0A015E"/>
<path d="M292.7,685.391L228.916,1147.652C228.916,1147.652 200.911,1154.41 179.121,1149.008C179.121,1149.008 160.448,903.158 162.006,843.712C163.565,784.275 148.609,684.665 165.424,673.688C182.238,662.701 292.7,685.391 292.7,685.391Z" fill="#160B83"/>
<path d="M152.993,677.687C152.683,681.867 155.355,685.663 159.382,686.833C168.278,689.419 178.539,691.209 198.316,695.313C216.893,699.177 241.897,702.593 272.612,702.777C321.468,703.087 339.967,686.253 339.967,686.253C342.068,686.291 338.854,676.069 335.96,627.445C334.982,610.979 334.033,590.099 333.346,563.72C332.726,539.984 332.31,511.776 332.272,478.321C332.223,438.07 269.921,394.771 268.769,394.771L268.759,394.79C268.759,400.588 259.621,411.275 245.556,412.205C228.857,413.299 208.374,404.983 208.374,395.371C208.374,395.274 178.191,443.656 167.475,495.213C166.11,501.747 165.055,508.639 164.222,515.9C161.676,537.758 164.135,522.153 152.993,677.687Z" fill="#FF3874"/>
<path d="M268.781,394.77C268.781,394.77 326.708,394.276 340.657,413.831C354.597,433.385 385.167,538.57 369.214,573.574C353.261,608.577 323.417,559.092 306.844,537.66C290.271,516.219 268.781,394.77 268.781,394.77Z" fill="#FF3874"/>
<path d="M269.369,385.932L269.34,391.924C269.34,391.924 270.976,410.656 247.908,413.385C224.849,416.125 207.677,409.939 208.306,395.487C210.387,384.296 212.362,372.748 212.517,363.493C212.575,360.057 212.342,356.398 211.694,352.284L256.378,351.393L269.543,353.542L269.369,385.932Z" fill="#FFB4B2"/>
<path d="M269.535,353.533L269.36,385.923C264.617,388.13 259.254,389.476 253.252,389.476C232.711,389.476 219.439,374.413 212.499,363.484C212.557,360.048 212.324,356.388 211.676,352.274L256.36,351.384L269.535,353.533Z" fill="#FF9996" fill-opacity="0.53"/>
<path d="M208.268,345.082C213.457,372.99 249.457,372.07 265.014,370.318C269.389,369.834 272.148,369.273 272.148,369.273C277.085,367.956 279.844,360.173 281.122,349.99C283.658,329.826 280.454,300.233 277.046,292.673C271.916,281.279 262.264,268.966 226.012,277.852C189.74,286.748 201.608,309.333 208.268,345.082Z" fill="#FFB8B6"/>
<path d="M328.013,473.161C328.013,473.161 350.423,522.637 349.765,537.477C349.765,537.477 338.671,537.099 328.013,540.274C310.502,545.492 328.013,473.161 328.013,473.161Z" fill="#CA2556"/>
<path d="M288.178,266.11C288.178,266.11 272.216,264.881 253.397,256.701C238.122,250.06 218.839,257.378 212.585,260.67C212.75,259.663 213.156,258.288 214.115,256.904C214.115,256.904 211.307,258.898 210.891,261.676C210.601,261.889 210.475,262.035 210.543,262.083C210.543,262.083 207.358,261.502 205.315,262.422C205.315,262.422 206.748,262.219 207.261,263.138C207.319,263.235 207.397,263.322 207.493,263.39C183.641,274.909 181.444,312.575 189.111,321.297C198.336,331.781 212.004,355.11 212.004,355.11C212.004,355.11 213.437,349.815 211.762,340.59C210.088,331.365 218.055,331.365 228.122,327.163C238.19,322.972 229.797,311.23 238.606,304.095C247.415,296.961 279.708,301.162 279.292,295.703C291.276,291.337 288.178,267.339 288.178,266.11Z" fill="#0E046A"/>
<path d="M200.959,565.85C210.417,603.835 312.708,623.457 335.96,627.445C334.982,610.979 334.033,590.099 333.346,563.72L200.959,565.85Z" fill="#CA2556"/>
<path d="M223.417,578.192C222.44,578.192 200.678,574.939 196.777,572.994C192.876,571.048 175.055,545.705 186.729,539.209C198.404,532.714 229.748,558.696 229.748,558.696L223.417,578.192Z" fill="#FFA6A4"/>
<path d="M355.795,585.723C355.795,585.723 271.615,590.292 215.131,578.192C215.131,578.192 213.708,561.871 231.461,554.62C231.461,554.62 319.503,535.957 340.655,541.155C361.796,546.353 355.795,585.723 355.795,585.723Z" fill="#FF3874"/>
<path d="M162.481,519.665C179.954,540.729 202.789,557.921 227.958,561.958L227.968,561.948C228.171,561.629 235.586,550.381 234.202,533.837C233.563,526.18 231.027,517.39 225.035,508.029C223.186,505.154 221.55,501.786 220.088,498.049C206.342,462.968 208.385,395.371 208.385,395.371C208.385,395.371 150.003,401.489 131.814,427.47C120.672,443.385 134.873,486.355 162.481,519.665Z" fill="#FF3874"/>
<path d="M265.014,370.318C269.39,369.834 272.149,369.273 272.149,369.273C277.086,367.956 279.845,360.173 281.122,349.99C271.868,352.274 267.618,359.428 265.857,362.468C265.053,363.842 264.889,366.911 265.014,370.318Z" fill="#FF9692"/>
<path d="M288.537,386.106C288.537,386.106 308.701,352.835 293.019,351.383C277.337,349.931 271.035,360.551 268.78,364.442C266.515,368.343 269.37,385.923 269.37,385.923L288.537,386.106Z" fill="#FFBFBD"/>
<path d="M211.685,532.714C212.304,536.934 213.563,540.807 215.121,544.262C220.048,555.191 227.957,561.948 227.957,561.948L227.967,561.939C280.327,538.299 290.927,457.14 292.699,412.543C293.415,394.615 292.699,382.602 292.699,382.602C269.079,374.781 262.438,388.372 262.438,388.372C262.438,388.372 234.549,454.701 220.077,498.049C214.55,514.631 210.978,527.864 211.685,532.714Z" fill="#FF3874"/>
<path d="M162.48,519.665C179.953,540.729 202.789,557.921 227.958,561.958L227.967,561.948C280.328,538.309 290.928,457.15 292.699,412.553C292.699,412.553 267.918,502.424 234.192,533.837C228.093,539.519 221.704,543.294 215.122,544.272C215.122,544.272 172.596,532.249 163.671,520.933C163.042,520.12 162.655,519.713 162.48,519.665Z" fill="#CA2556"/>
<defs>
<linearGradient id="pf_0_471_4017" x1="1065.751" y1="1083.64" x2="743.861" y2="1427.158" gradientUnits="userSpaceOnUse">
<stop stop-color="#09005D"/>
<stop offset="1" stop-color="#1A0F91"/>
</linearGradient>
<linearGradient id="pf_0_471_4018" x1="962.092" y1="1108.393" x2="990.391" y2="1108.662" gradientUnits="userSpaceOnUse">
<stop stop-color="#FEBBBA"/>
<stop offset="1" stop-color="#FF928E"/>
</linearGradient>
<linearGradient id="pf_0_471_4019" x1="1094.577" y1="691.947" x2="819.972" y2="1056.832" gradientUnits="userSpaceOnUse">
<stop stop-color="#09005D"/>
<stop offset="1" stop-color="#1A0F91"/>
</linearGradient>
<linearGradient id="pf_0_471_4020" x1="994.902" y1="1017.241" x2="672.999" y2="1360.773" gradientUnits="userSpaceOnUse">
<stop stop-color="#09005D"/>
<stop offset="1" stop-color="#1A0F91"/>
</linearGradient>
<linearGradient id="pf_0_471_4021" x1="860.113" y1="1105.969" x2="884.547" y2="1106.201" gradientUnits="userSpaceOnUse">
<stop stop-color="#FEBBBA"/>
<stop offset="1" stop-color="#FF928E"/>
</linearGradient>
<linearGradient id="pf_0_471_4022" x1="1046.596" y1="655.838" x2="771.994" y2="1020.719" gradientUnits="userSpaceOnUse">
<stop stop-color="#09005D"/>
<stop offset="1" stop-color="#1A0F91"/>
</linearGradient>
<linearGradient id="pf_0_471_4024" x1="1090.603" y1="381.055" x2="1191.482" y2="484.642" gradientUnits="userSpaceOnUse">
<stop stop-color="#FEBBBA"/>
<stop offset="1" stop-color="#FF928E"/>
</linearGradient>
<linearGradient id="pf_0_471_4027" x1="1208.423" y1="459.432" x2="1298.034" y2="393.806" gradientUnits="userSpaceOnUse">
<stop stop-color="#FEBBBA"/>
<stop offset="1" stop-color="#FF928E"/>
</linearGradient>
<linearGradient id="pf_0_471_4028" x1="1261.027" y1="415.944" x2="1333.865" y2="401.521" gradientUnits="userSpaceOnUse">
<stop stop-color="#FEBBBA"/>
<stop offset="1" stop-color="#FF928E"/>
</linearGradient>
<linearGradient id="pf_0_471_4030" x1="767.265" y1="572.958" x2="950.234" y2="574.696" gradientUnits="userSpaceOnUse">
<stop stop-color="#FEBBBA"/>
<stop offset="1" stop-color="#FF928E"/>
</linearGradient>
<linearGradient id="pf_0_471_4031" x1="909.624" y1="378.692" x2="981.967" y2="379.379" gradientUnits="userSpaceOnUse">
<stop stop-color="#FEBBBA"/>
<stop offset="1" stop-color="#FF928E"/>
</linearGradient>
<linearGradient id="pf_0_471_4033" x1="999.609" y1="333.522" x2="920.531" y2="284.254" gradientUnits="userSpaceOnUse">
<stop stop-color="#FEBBBA"/>
<stop offset="1" stop-color="#FF928E"/>
</linearGradient>
<linearGradient id="pf_0_471_4034" x1="878.915" y1="232.716" x2="980.898" y2="314.849" gradientUnits="userSpaceOnUse">
<stop stop-color="#09005D"/>
<stop offset="1" stop-color="#1A0F91"/>
</linearGradient>
<linearGradient id="pf_0_471_4035" x1="978.545" y1="351.414" x2="907.397" y2="307.087" gradientUnits="userSpaceOnUse">
<stop stop-color="#FEBBBA"/>
<stop offset="1" stop-color="#FF928E"/>
</linearGradient>
<linearGradient id="pf_0_471_4038" x1="999.297" y1="456.699" x2="1100.259" y2="877.374" gradientUnits="userSpaceOnUse">
<stop stop-color="#09005D"/>
<stop offset="1" stop-color="#1A0F91"/>
</linearGradient>
<linearGradient id="pf_0_471_4039" x1="930.114" y1="567.99" x2="987.317" y2="567.99" gradientUnits="userSpaceOnUse">
<stop stop-color="#FEBBBA"/>
<stop offset="1" stop-color="#FF928E"/>
</linearGradient>
<linearGradient id="pf_0_471_4050" x1="720.705" y1="1120.691" x2="750.878" y2="1120.691" gradientUnits="userSpaceOnUse">
<stop stop-color="#FEBBBA"/>
<stop offset="1" stop-color="#FF928E"/>
</linearGradient>
<linearGradient id="pf_0_471_4054" x1="1064.547" y1="692.054" x2="726.041" y2="942.548" gradientUnits="userSpaceOnUse">
<stop stop-color="#09005D"/>
<stop offset="1" stop-color="#1A0F91"/>
</linearGradient>
<linearGradient id="pf_0_471_4055" x1="863.618" y1="1123.231" x2="899.641" y2="1123.231" gradientUnits="userSpaceOnUse">
<stop stop-color="#FEBBBA"/>
<stop offset="1" stop-color="#FF928E"/>
</linearGradient>
<linearGradient id="pf_0_471_4056" x1="728.946" y1="950.805" x2="1157.742" y2="655.162" gradientUnits="userSpaceOnUse">
<stop stop-color="#09005D"/>
<stop offset="1" stop-color="#1A0F91"/>
</linearGradient>
<linearGradient id="pf_0_471_4057" x1="663.526" y1="615.618" x2="681.286" y2="570.833" gradientUnits="userSpaceOnUse">
<stop stop-color="#FEBBBA"/>
<stop offset="1" stop-color="#FF928E"/>
</linearGradient>
<linearGradient id="pf_0_471_4060" x1="815.251" y1="789.789" x2="898.458" y2="789.789" gradientUnits="userSpaceOnUse">
<stop stop-color="#FEBBBA"/>
<stop offset="1" stop-color="#FF928E"/>
</linearGradient>
<linearGradient id="pf_0_471_4062" x1="717.749" y1="524.539" x2="638.258" y2="603.826" gradientUnits="userSpaceOnUse">
<stop stop-color="#FEBBBA"/>
<stop offset="1" stop-color="#FF928E"/>
</linearGradient>
<linearGradient id="pf_0_471_4063" x1="648.609" y1="479.325" x2="742.236" y2="571.844" gradientUnits="userSpaceOnUse">
<stop stop-color="#09005D"/>
<stop offset="1" stop-color="#1A0F91"/>
</linearGradient>
<linearGradient id="pf_0_471_4064" x1="704.896" y1="511.654" x2="625.406" y2="590.939" gradientUnits="userSpaceOnUse">
<stop stop-color="#FEBBBA"/>
<stop offset="1" stop-color="#FF928E"/>
</linearGradient>
<linearGradient id="pf_0_471_4067" x1="-17015.794" y1="-18245.062" x2="-16721.657" y2="-17931.714" gradientUnits="userSpaceOnUse">
<stop stop-color="#09005D"/>
<stop offset="1" stop-color="#1A0F91"/>
</linearGradient>
<linearGradient id="pf_0_471_4069" x1="25798.104" y1="-7450.577" x2="25389.963" y2="-7315.985" gradientUnits="userSpaceOnUse">
<stop stop-color="#09005D"/>
<stop offset="1" stop-color="#1A0F91"/>
</linearGradient>
<linearGradient id="pf_0_471_4076" x1="1250.97" y1="995.657" x2="1375.644" y2="995.657" gradientUnits="userSpaceOnUse">
<stop stop-color="#FEBBBA"/>
<stop offset="1" stop-color="#FF928E"/>
</linearGradient>
<linearGradient id="pf_0_471_4078" x1="1104.584" y1="1004.174" x2="1367.672" y2="1004.174" gradientUnits="userSpaceOnUse">
<stop stop-color="#FEBBBA"/>
<stop offset="1" stop-color="#FF928E"/>
</linearGradient>
<linearGradient id="pf_0_471_4079" x1="1266.916" y1="866.93" x2="1561.65" y2="866.93" gradientUnits="userSpaceOnUse">
<stop stop-color="#09005D"/>
<stop offset="1" stop-color="#1A0F91"/>
</linearGradient>
<linearGradient id="pf_0_471_4082" x1="1474.526" y1="374.657" x2="1431.127" y2="602.656" gradientUnits="userSpaceOnUse">
<stop stop-color="#09005D"/>
<stop offset="1" stop-color="#1A0F91"/>
</linearGradient>
<linearGradient id="pf_0_471_4084" x1="1402.708" y1="659.911" x2="1384.948" y2="545.957" gradientUnits="userSpaceOnUse">
<stop stop-color="#FEBBBA"/>
<stop offset="1" stop-color="#FF928E"/>
</linearGradient>
<linearGradient id="pf_0_471_4086" x1="1306.152" y1="539.115" x2="1439.298" y2="494.199" gradientUnits="userSpaceOnUse">
<stop stop-color="#FEBBBA"/>
<stop offset="1" stop-color="#FF928E"/>
</linearGradient>
<linearGradient id="pf_0_471_4087" x1="1277.752" y1="420.269" x2="1433.201" y2="592.608" gradientUnits="userSpaceOnUse">
<stop stop-color="#09005D"/>
<stop offset="1" stop-color="#1A0F91"/>
</linearGradient>
<linearGradient id="pf_0_471_4088" x1="1302.19" y1="527.365" x2="1435.335" y2="482.449" gradientUnits="userSpaceOnUse">
<stop stop-color="#FEBBBA"/>
<stop offset="1" stop-color="#FF928E"/>
</linearGradient>
<linearGradient id="pf_0_471_4089" x1="1475.632" y1="789.297" x2="1722.771" y2="789.297" gradientUnits="userSpaceOnUse">
<stop stop-color="#FEBBBA"/>
<stop offset="1" stop-color="#FF928E"/>
</linearGradient>
<linearGradient id="pf_0_471_4091" x1="1480.324" y1="763.847" x2="1327.041" y2="814.12" gradientUnits="userSpaceOnUse">
<stop stop-color="#09005D"/>
<stop offset="1" stop-color="#1A0F91"/>
</linearGradient>
<linearGradient id="pf_0_471_4092" x1="1269.76" y1="663.343" x2="1159.372" y2="780.017" gradientUnits="userSpaceOnUse">
<stop stop-color="#09005D"/>
<stop offset="1" stop-color="#1A0F91"/>
</linearGradient>
<linearGradient id="pf_0_471_4096" x1="2153.923" y1="1339.678" x2="2152.293" y2="1512.459" gradientUnits="userSpaceOnUse">
<stop stop-color="#09005D"/>
<stop offset="1" stop-color="#1A0F91"/>
</linearGradient>
<linearGradient id="pf_0_471_4097" x1="2195.573" y1="1146.725" x2="2204.538" y2="1076.634" gradientUnits="userSpaceOnUse">
<stop stop-color="#FEBBBA"/>
<stop offset="1" stop-color="#FF928E"/>
</linearGradient>
<linearGradient id="pf_0_471_4098" x1="2387.36" y1="1341.879" x2="2385.73" y2="1514.659" gradientUnits="userSpaceOnUse">
<stop stop-color="#09005D"/>
<stop offset="1" stop-color="#1A0F91"/>
</linearGradient>
<linearGradient id="pf_0_471_4099" x1="2391.515" y1="1170.747" x2="2400.251" y2="1102.445" gradientUnits="userSpaceOnUse">
<stop stop-color="#FEBBBA"/>
<stop offset="1" stop-color="#FF928E"/>
</linearGradient>
<linearGradient id="pf_0_471_4100" x1="2452.566" y1="911.214" x2="2183.666" y2="911.214" gradientUnits="userSpaceOnUse">
<stop stop-color="#09005D"/>
<stop offset="1" stop-color="#1A0F91"/>
</linearGradient>
<linearGradient id="pf_0_471_4104" x1="2406.532" y1="598.052" x2="2206.814" y2="811.31" gradientUnits="userSpaceOnUse">
<stop stop-color="#FEBBBA"/>
<stop offset="1" stop-color="#FF928E"/>
</linearGradient>
<linearGradient id="pf_0_471_4105" x1="2212.655" y1="568.666" x2="1984" y2="568.666" gradientUnits="userSpaceOnUse">
<stop stop-color="#FEBBBA"/>
<stop offset="1" stop-color="#FF928E"/>
</linearGradient>
<linearGradient id="pf_0_471_4107" x1="2294.972" y1="440.421" x2="2215.395" y2="358.777" gradientUnits="userSpaceOnUse">
<stop stop-color="#FEBBBA"/>
<stop offset="1" stop-color="#FF928E"/>
</linearGradient>
<linearGradient id="pf_0_471_4109" x1="2179.564" y1="307.336" x2="2278.778" y2="438.587" gradientUnits="userSpaceOnUse">
<stop stop-color="#FEBBBA"/>
<stop offset="1" stop-color="#FF928E"/>
</linearGradient>
<linearGradient id="pf_0_471_4110" x1="2255.337" y1="338.997" x2="2136.825" y2="338.997" gradientUnits="userSpaceOnUse">
<stop stop-color="#09005D"/>
<stop offset="1" stop-color="#1A0F91"/>
</linearGradient>
<linearGradient id="pf_0_471_4111" x1="2324.873" y1="411.277" x2="2245.295" y2="329.633" gradientUnits="userSpaceOnUse">
<stop stop-color="#FEBBBA"/>
<stop offset="1" stop-color="#FF928E"/>
</linearGradient>
<linearGradient id="pf_0_471_4120" x1="-2318.325" y1="-10185.484" x2="-2152.406" y2="-9781.897" gradientUnits="userSpaceOnUse">
<stop stop-color="#4F52FF"/>
<stop offset="1" stop-color="#4042E2"/>
</linearGradient>
</defs>
</svg>
