<svg width="786" height="640" viewBox="0 0 786 640" fill="none" xmlns="http://www.w3.org/2000/svg" xmlns:xlink="http://www.w3.org/1999/xlink">
<path d="M183.129,247.887L746.223,247.887C751.913,247.887 756.553,252.528 756.553,258.217L756.553,306.396C756.553,312.064 751.913,316.726 746.223,316.726L183.129,316.726C177.46,316.726 172.799,312.084 172.799,306.396L172.799,258.217C172.799,252.528 177.44,247.887 183.129,247.887Z" clip-rule="evenodd" fill-rule="evenodd" fill="#01004D"/>
<path d="M182.841,247.887L746.511,247.887C752.035,247.887 756.553,252.528 756.553,258.217L756.553,277.172C756.553,282.861 752.035,287.502 746.511,287.502L182.841,287.502C177.317,287.502 172.799,282.861 172.799,277.172L172.799,258.217C172.799,252.528 177.317,247.887 182.841,247.887Z" clip-rule="evenodd" fill-rule="evenodd" fill="#01008A"/>
<path d="M28.385,248.749L184.176,248.749C190.07,248.749 194.875,253.575 194.875,259.449L194.875,614.301C194.875,620.175 190.049,625.001 184.176,625.001L28.385,625.001C22.491,625.001 17.685,620.175 17.685,614.301L17.685,259.449C17.685,253.575 22.511,248.749 28.385,248.749Z" clip-rule="evenodd" fill-rule="evenodd" fill="#01004D"/>
<path d="M182.266,248.749L321.73,248.749C326.988,248.749 331.3,253.062 331.3,258.34L331.3,615.431C331.3,620.709 326.988,625.021 321.73,625.021L182.266,625.021C176.988,625.021 172.675,620.709 172.675,615.431L172.675,258.319C172.675,253.062 176.988,248.749 182.266,248.749Z" clip-rule="evenodd" fill-rule="evenodd" fill="#01008A"/>
<path d="M176.31,236.16L780.623,236.16C782.553,236.16 784.135,237.741 784.135,239.672L784.135,256.101C784.135,258.032 782.553,259.613 780.623,259.613L176.31,259.613C174.38,259.613 172.799,258.032 172.799,256.101L172.799,239.672C172.799,237.741 174.38,236.16 176.31,236.16Z" clip-rule="evenodd" fill-rule="evenodd" fill="#D58750"/>
<path d="M2.981,236.16L175.509,236.16C177.44,236.16 179.021,237.741 179.021,239.672L179.021,256.101C179.021,258.032 177.44,259.613 175.509,259.613L2.981,259.613C1.05,259.613 -0.531,258.032 -0.531,256.101L-0.531,239.672C-0.552,237.741 1.03,236.16 2.981,236.16Z" clip-rule="evenodd" fill-rule="evenodd" fill="#B56B41"/>
<path d="M192.534,271.483L311.442,271.483C315.836,271.483 319.43,275.077 319.43,279.472L319.43,371.641C319.43,376.036 315.836,379.629 311.442,379.629L192.534,379.629C188.139,379.629 184.545,376.036 184.545,371.641L184.545,279.472C184.545,275.077 188.139,271.483 192.534,271.483Z" clip-rule="evenodd" fill-rule="evenodd" fill="#FFFFFF"/>
<path d="M319.348,372.852L202.063,372.852C198.942,372.852 196.21,371.025 194.896,368.396C194.362,367.328 194.074,366.137 194.074,364.864L194.074,272.695C194.074,272.284 194.095,271.894 194.157,271.504L192.534,271.504C188.139,271.504 184.545,275.098 184.545,279.493L184.545,371.661C184.545,376.056 188.139,379.65 192.534,379.65L194.896,379.65L311.442,379.65C315.446,379.63 318.773,376.672 319.348,372.852Z" clip-rule="evenodd" fill-rule="evenodd" fill="#E4E1E8"/>
<path d="M223.298,277.869L280.698,277.869C282.402,277.869 283.778,279.245 283.778,280.95L283.778,281.915C283.778,283.619 282.382,284.995 280.698,284.995L223.298,284.995C221.593,284.995 220.217,283.599 220.217,281.915L220.217,280.95C220.217,279.245 221.614,277.869 223.298,277.869Z" clip-rule="evenodd" fill-rule="evenodd" fill="#070725"/>
<path d="M661.961,248.75L640.459,248.75C639.945,248.75 639.514,249.181 639.514,249.695L639.514,628.596C639.514,629.13 639.945,629.54 640.459,629.54L661.961,629.54C662.495,629.54 662.905,629.11 662.905,628.596L662.905,249.695C662.926,249.181 662.495,248.75 661.961,248.75Z" clip-rule="evenodd" fill-rule="evenodd" fill="#7473FA"/>
<path d="M661.756,248.75L655.041,248.75C652.392,248.75 650.235,250.906 650.235,253.556L650.235,624.756C650.235,627.384 652.392,629.562 655.041,629.562L661.756,629.562C664.406,629.562 666.562,627.406 666.562,624.756L666.562,253.535C666.541,250.906 664.385,248.75 661.756,248.75Z" clip-rule="evenodd" fill-rule="evenodd" fill="#CFCFFF"/>
<path d="M762.694,248.75L741.192,248.75C740.658,248.75 740.247,249.181 740.247,249.695L740.247,628.596C740.247,629.13 740.678,629.54 741.192,629.54L762.694,629.54C763.207,629.54 763.638,629.11 763.638,628.596L763.638,249.695C763.638,249.181 763.207,248.75 762.694,248.75Z" clip-rule="evenodd" fill-rule="evenodd" fill="#7473FA"/>
<path d="M762.467,248.75L755.752,248.75C753.103,248.75 750.946,250.906 750.946,253.556L750.946,624.756C750.946,627.384 753.103,629.562 755.752,629.562L762.467,629.562C765.117,629.562 767.273,627.406 767.273,624.756L767.273,253.535C767.273,250.906 765.117,248.75 762.467,248.75Z" clip-rule="evenodd" fill-rule="evenodd" fill="#CFCFFF"/>
<path d="M429.753,236.16L780.623,236.16C782.553,236.16 784.133,237.741 784.133,239.672L784.133,256.101C784.133,258.032 782.553,259.613 780.623,259.613L452.611,259.613C446.326,251.008 438.255,243.122 429.753,236.16Z" clip-rule="evenodd" fill-rule="evenodd" fill="#B56B41"/>
<path d="M557.184,134.339L561.599,141.712C561.599,141.712 563.303,150.666 560.757,156.786C558.21,162.905 589.981,169.539 589.981,169.539L614.625,149.659L620.067,142.862C620.067,142.862 608.505,130.293 607.827,124.851C607.149,119.388 557.184,134.339 557.184,134.339Z" clip-rule="evenodd" fill-rule="evenodd" fill="#ED7862"/>
<path d="M502.268,204.802C502.268,204.802 485.613,218.233 479.842,219.239C474.071,220.266 448.75,208.539 443.657,207.163C438.563,205.808 427.166,205.808 419.177,205.808C411.188,205.808 402.686,208.868 398.435,217.699C398.435,217.699 410.839,217.699 415.439,217.699C420.019,217.699 435.503,230.267 450.454,240.474C465.405,250.66 477.296,259.162 487.174,258.156C497.031,257.129 531.02,231.643 531.02,231.643L502.268,204.802Z" clip-rule="evenodd" fill-rule="evenodd" fill="#F5AC83"/>
<path d="M450.434,240.494C465.384,250.681 477.275,259.183 487.153,258.176C497.011,257.15 530.999,231.664 530.999,231.664L502.268,204.822C502.268,204.822 498.407,207.923 493.787,211.25C505.883,230.473 500.44,238.79 486.229,244.458C474.852,249.017 445.895,233.183 427.679,224.353C434.251,228.871 442.424,235.011 450.434,240.494Z" clip-rule="evenodd" fill-rule="evenodd" fill="#ED7862"/>
<path d="M638.159,361.68C638.159,361.68 552.172,360.9 541.534,361.803C530.896,362.707 520.648,373.9 522.414,391.191C524.181,408.483 548.25,543.142 548.25,543.142C548.25,543.142 549.872,544.333 551.741,544.724C553.61,545.114 568.992,547.64 568.992,547.64L570.039,535.153L561.044,404.15L640.357,389.672L638.159,361.68Z" clip-rule="evenodd" fill-rule="evenodd" fill="#05044D"/>
<path d="M570.059,535.174C570.059,535.174 571.866,535.667 572.647,537.967C573.448,540.267 575.091,555.135 574.926,557.271C574.783,559.387 569.464,563.514 560.386,567.355C551.309,571.216 516.767,581.299 516.767,581.299L516.376,580.046C516.376,580.046 514.754,579.328 514.097,577.212C513.44,575.097 513.666,570.374 515.555,567.704C517.444,565.014 528.596,557.374 530.629,555.731C532.662,554.088 542.766,540.041 543.587,539.096C544.409,538.152 549.748,534.763 556.053,538.295C562.378,541.787 569.525,540.554 570.059,535.174Z" clip-rule="evenodd" fill-rule="evenodd" fill="#D64C47"/>
<path d="M516.398,580.047C516.398,580.047 550.858,567.396 558.416,564.747C565.973,562.098 574.866,554.91 574.866,554.91C574.866,554.91 576.098,555.465 576.344,556.471C576.611,557.477 576.796,561.01 576.899,561.749C576.981,562.488 576.735,565.815 572.956,567.438C569.177,569.06 521.039,586.023 518.842,586.742C516.644,587.461 515.761,581.649 515.761,581.649C515.761,581.649 515.597,580.396 516.398,580.047Z" clip-rule="evenodd" fill-rule="evenodd" fill="#FFFFFF"/>
<path d="M691.411,308.306C691.411,308.306 461.585,334.839 449.017,337.57C436.448,340.302 425.913,355.252 430.657,375.645C435.422,396.038 486.928,559.818 486.928,559.818C486.928,559.818 489.063,561.01 491.343,561.174C493.643,561.338 512.414,562.016 512.414,562.016L519.807,554.458L478.672,408.278L646.579,399.776C693.671,392.177 700.057,334.818 691.411,308.306Z" clip-rule="evenodd" fill-rule="evenodd" fill="#01008A"/>
<path d="M529.705,325.824C529.705,325.824 548.065,339.419 559.114,335.004C570.163,330.589 623.188,238.975 623.188,238.975L597.702,147.196C597.702,147.196 580.698,147.874 560.49,152.289L556.67,155.781C556.67,155.781 541.719,158.327 533.217,167.836C524.715,177.344 496.846,202.173 495.82,204.206C494.793,206.239 520.115,234.107 526.584,238.543C526.584,238.543 529.644,239.57 531.512,237.701L534.572,235.237C534.572,235.237 541.37,270.642 541.37,281.116C541.37,291.61 541.37,291.61 541.37,291.61C541.37,291.61 537.797,318.677 535.086,321.224C532.354,323.77 529.705,325.824 529.705,325.824Z" clip-rule="evenodd" fill-rule="evenodd" fill="#D64C47"/>
<path d="M611.77,343.26C616.021,343.26 619.471,339.81 619.471,335.559C619.471,331.308 616.021,327.858 611.77,327.858L543.794,327.858C534.511,327.858 526.091,324.058 519.951,317.938C515.474,313.461 512.249,307.752 510.832,301.386C506.335,303.172 501.468,305.596 496.703,308.245C499.085,316.111 503.378,323.175 509.066,328.843C517.979,337.756 530.26,343.281 543.794,343.281L611.77,343.281L611.77,343.26Z" clip-rule="evenodd" fill-rule="evenodd" fill="#FFFFFF"/>
<path d="M631.711,404.336L612.18,404.336L612.18,565.035L631.711,565.035L631.711,404.336Z" fill="#01004D"/>
<path d="M605.301,350.365L586.263,350.365L586.263,393.862L605.301,393.862L605.301,350.365Z" fill="#01004D"/>
<path d="M736.838,350.365L717.8,350.365L717.8,393.862L736.838,393.862L736.838,350.365Z" fill="#01004D"/>
<path d="M612.18,444.012L631.711,444.012C637.934,444.012 643.027,438.919 643.027,432.697L643.027,411.811C643.027,405.588 637.934,400.516 631.711,400.516L612.18,400.516C605.958,400.516 600.865,405.609 600.865,411.811L600.865,432.697C600.885,438.919 605.978,444.012 612.18,444.012Z" clip-rule="evenodd" fill-rule="evenodd" fill="#383774"/>
<path d="M596.634,429.884L647.257,429.884C649.044,429.884 650.502,428.426 650.502,426.639L650.502,400.373C650.502,398.586 649.044,397.128 647.257,397.128L596.634,397.128C594.847,397.128 593.389,398.586 593.389,400.373L593.389,426.639C593.41,428.426 594.868,429.884 596.634,429.884Z" clip-rule="evenodd" fill-rule="evenodd" fill="#01008A"/>
<path d="M472.059,384.683L630.438,384.683C636.414,384.683 641.302,389.57 641.302,395.567L641.302,407.807C641.302,413.783 636.414,418.691 630.438,418.691L472.059,418.691C466.083,418.691 461.175,413.804 461.175,407.807L461.175,395.567C461.195,389.591 466.083,384.683 472.059,384.683Z" clip-rule="evenodd" fill-rule="evenodd" fill="#F18A00"/>
<path d="M587.29,384.683L745.668,384.683C751.645,384.683 756.553,389.57 756.553,395.567L756.553,407.807C756.553,413.783 751.665,418.691 745.668,418.691L587.29,418.691C581.314,418.691 576.405,413.804 576.405,407.807L576.405,395.567C576.405,389.591 581.293,384.683 587.29,384.683Z" clip-rule="evenodd" fill-rule="evenodd" fill="#FCC100"/>
<path d="M612.18,554.561L631.711,554.561C637.934,554.561 643.027,559.654 643.027,565.876L643.027,586.762C643.027,592.985 637.934,598.057 631.711,598.057L612.18,598.057C605.958,598.057 600.865,592.964 600.865,586.762L600.865,565.856C600.885,559.633 605.978,554.561 612.18,554.561Z" clip-rule="evenodd" fill-rule="evenodd" fill="#383774"/>
<path d="M598.092,575.262L645.84,575.262C648.407,575.262 650.522,577.356 650.522,579.944L650.522,617.875C650.522,620.442 648.407,622.558 645.84,622.558L598.092,622.558C595.525,622.558 593.41,620.463 593.41,617.875L593.41,579.944C593.41,577.377 595.504,575.262 598.092,575.262Z" clip-rule="evenodd" fill-rule="evenodd" fill="#01004D"/>
<path d="M673.791,610.976C673.791,618.677 667.487,625.002 659.765,625.002L584.128,625.002C576.406,625.002 570.102,618.698 570.102,610.976C570.102,603.274 576.406,596.949 584.128,596.949L659.765,596.949C667.487,596.949 673.791,603.274 673.791,610.976Z" clip-rule="evenodd" fill-rule="evenodd" fill="#383874"/>
<path d="M747.373,625.001C747.373,632.702 741.069,639.028 733.347,639.028L541.144,639.028C533.422,639.028 527.117,632.723 527.117,625.001C527.117,617.279 533.422,610.975 541.144,610.975L733.347,610.975C741.069,610.975 747.373,617.279 747.373,625.001Z" clip-rule="evenodd" fill-rule="evenodd" fill="#01008A"/>
<path d="M627.049,625.001C627.049,632.702 620.744,639.028 613.022,639.028L510.544,639.028C502.822,639.028 496.518,632.723 496.518,625.001C496.518,617.279 502.822,610.975 510.544,610.975L613.022,610.975C620.744,610.975 627.049,617.279 627.049,625.001Z" clip-rule="evenodd" fill-rule="evenodd" fill="#01004D"/>
<path d="M583.224,291.59C587.475,291.59 590.925,295.04 590.925,299.291C590.925,303.542 587.475,306.992 583.224,306.992L515.247,306.992C505.965,306.992 497.524,310.792 491.404,316.911C485.284,323.031 481.485,331.472 481.485,340.755L481.485,402.015C481.485,406.267 478.035,409.717 473.784,409.717C469.533,409.717 466.083,406.267 466.083,402.015L466.083,340.775C466.083,327.241 471.607,314.94 480.52,306.048C489.433,297.135 501.714,291.61 515.247,291.61L583.224,291.61L583.224,291.59Z" clip-rule="evenodd" fill-rule="evenodd" fill="#FFFFFF"/>
<path d="M734.107,209.484C734.107,163.03 696.093,125.017 649.639,125.017L638.426,125.017C591.972,125.017 553.959,163.03 553.959,209.484C553.959,241.85 553.959,302.761 553.959,335.107C553.959,347.039 563.734,356.815 575.666,356.815L712.379,356.815C724.311,356.815 734.086,347.039 734.086,335.107C734.107,302.741 734.107,241.829 734.107,209.484Z" clip-rule="evenodd" fill-rule="evenodd" fill="#F18A00"/>
<path d="M756.553,209.484C756.553,163.03 718.54,125.017 672.086,125.017L660.873,125.017C614.419,125.017 576.405,163.03 576.405,209.484C576.405,241.85 576.405,302.761 576.405,335.107C576.405,347.039 586.181,356.815 598.112,356.815L734.825,356.815C746.757,356.815 756.532,347.039 756.532,335.107C756.553,302.741 756.553,241.829 756.553,209.484Z" clip-rule="evenodd" fill-rule="evenodd" fill="#FCC100"/>
<path d="M517.999,548.586C517.999,548.586 520.936,548.606 522.805,551.071C524.674,553.535 531.307,570.54 531.636,573.086C531.964,575.633 524.838,582.102 511.756,589.392C498.674,596.703 447.6,619.129 447.6,619.129L446.655,617.774C446.655,617.774 443.944,617.425 442.322,615.145C440.699,612.845 439.775,607.239 441.973,603.501C444.17,599.763 459.47,587.359 462.201,584.813C464.933,582.266 476.823,562.633 477.85,561.278C478.877,559.922 486.27,554.316 497.052,556.513C507.854,558.71 518.656,555.076 517.999,548.586Z" clip-rule="evenodd" fill-rule="evenodd" fill="#D64C47"/>
<path d="M446.675,617.773C446.675,617.773 496.908,592.348 507.936,586.927C518.985,581.484 530.855,570.333 530.855,570.333C530.855,570.333 532.908,570.62 533.586,571.709C534.264,572.818 535.537,576.884 535.886,577.747C536.215,578.589 536.728,582.593 531.286,585.653C525.844,588.713 455.485,623.379 452.261,624.919C449.037,626.439 446.059,619.867 446.059,619.867C446.059,619.867 445.525,618.43 446.675,617.773Z" clip-rule="evenodd" fill-rule="evenodd" fill="#FFFFFF"/>
<path d="M542.541,30.918L550.694,29.008C570.183,24.449 589.857,36.668 594.416,56.158L603.555,95.177C608.114,114.667 595.895,134.341 576.406,138.9L568.252,140.81C548.763,145.369 529.089,133.15 524.53,113.66L515.412,74.641C510.852,55.151 523.051,35.477 542.541,30.918Z" clip-rule="evenodd" fill-rule="evenodd" fill="#F5AC83"/>
<path d="M595.463,60.634L603.555,95.177C608.114,114.666 595.894,134.34 576.405,138.899L568.252,140.809C560.161,142.699 552.069,141.713 545.005,138.509C545.97,138.92 552.891,141.61 554.431,136.517C556.094,131.034 546.648,113.455 546.648,113.455C546.648,113.455 546.032,112.284 546.812,111.216C547.592,110.128 553.014,100.475 550.673,88.749C548.311,77.043 563.467,68.869 563.467,68.869L528.411,78.357L528.411,85.484C528.411,85.484 524.612,77.536 515.884,76.632L515.411,74.64C513.276,65.46 514.836,56.239 519.149,48.579C530.773,49.996 568.848,54.863 595.463,60.634Z" clip-rule="evenodd" fill-rule="evenodd" fill="#ED7862"/>
<path d="M530.732,96.429C530.732,96.429 527.549,96.08 526.501,91.603C525.454,87.126 525.105,85.647 525.105,85.647C525.105,85.647 521.737,81.17 519.724,72.586C519.724,72.586 498.982,69.69 494.957,50.489C490.932,31.287 508.799,10.996 511.427,8.984C514.056,6.971 525.084,3.151 538.926,9.374C538.926,9.374 541.288,10.832 545.806,9.004C550.344,7.177 575.769,-0.011 588.07,-0.422C600.372,-0.812 608.299,11.88 614.07,27.262C614.07,27.262 614.789,21.039 620.991,19.745C627.193,18.451 623.866,30.075 619.389,34.059C619.389,34.059 629.965,39.481 631.978,50.797C633.99,62.092 630.171,111.955 620.724,121.895C611.277,131.855 587.454,136.085 579.856,137.872C572.257,139.659 557.183,131.814 551.063,110.928C551.063,110.928 554.062,100.536 551.597,91.973C549.133,83.409 546.874,77.125 543.67,76.016C540.466,74.907 532.56,83.183 531.882,86.9C531.204,90.617 532.704,95.69 532.704,95.69C532.704,95.69 531.862,96.511 530.732,96.429Z" clip-rule="evenodd" fill-rule="evenodd" fill="#101537"/>
<path d="M530.732,96.428C530.732,96.428 527.549,96.079 526.501,91.602C525.454,87.125 525.105,85.647 525.105,85.647C525.105,85.647 521.737,81.17 519.724,72.565C519.724,72.565 498.982,69.669 494.957,50.467C490.932,31.266 508.799,10.975 511.427,8.963C511.427,8.963 491.877,30.3 513.44,41.246C535.004,52.192 566.856,59.154 587.762,57.84C608.669,56.505 623.517,20.258 623.517,20.217C625.919,22.497 623.044,30.793 619.389,34.059C619.389,34.059 629.965,39.48 631.978,50.796C633.99,62.091 630.171,111.954 620.724,121.894C611.277,131.854 587.454,136.085 579.856,137.871C572.278,139.658 557.183,131.813 551.063,110.927C551.063,110.927 554.062,100.536 551.597,91.972C549.133,83.408 546.874,77.124 543.67,76.015C540.466,74.906 532.56,83.182 531.882,86.899C531.204,90.617 532.704,95.689 532.704,95.689C532.704,95.689 531.862,96.511 530.732,96.428Z" clip-rule="evenodd" fill-rule="evenodd" fill="#070725"/>
</svg>
