<svg width="74" height="76" viewBox="0 0 74 76" fill="none" xmlns="http://www.w3.org/2000/svg" xmlns:xlink="http://www.w3.org/1999/xlink">
<path d="M37.962,1.508L33.599,2.471L10.951,28.355L0,47.857L2.985,64.693L22.306,75.251L36.68,75.19L57.649,75.5L61.226,73.156L62.346,67.432L61.226,65.066L66.578,64.942L68.569,62.453L69.813,58.969L67.449,54.489L69.813,53.493L72.675,49.512L71.306,45.405L67.573,43.662L69.315,40.426L69.565,35.325L65.706,33.085L46.044,32.338L44.799,31.342L43.524,30.45L29.897,30.45L29.991,27.858L35.839,13.546L38.328,6.702L37.962,1.508Z" fill="#E0EBFF"/>
<path d="M35.199,75.177C35.995,75.177 36.64,74.532 36.64,73.736C36.64,72.94 35.995,72.294 35.199,72.294L35.199,75.177ZM0.852,51.335L-0.59,51.329L-0.59,51.335L0.852,51.335ZM9.392,32.883C9.923,32.29 9.873,31.379 9.279,30.848C8.686,30.317 7.775,30.368 7.245,30.961L9.392,32.883ZM35.199,72.294L21.759,72.294L21.759,75.177L35.199,75.177L35.199,72.294ZM21.759,72.294C10.256,72.294 2.293,63.097 2.293,51.335L-0.59,51.335C-0.59,64.42 8.408,75.177 21.759,75.177L21.759,72.294ZM2.293,51.342C2.322,44.527 4.847,37.96 9.392,32.883L7.245,30.961C2.23,36.563 -0.558,43.81 -0.59,51.329L2.293,51.342Z" fill="#2573FF"/>
<path d="M34.284,33.364C35.08,33.364 35.725,32.718 35.725,31.922C35.725,31.127 35.08,30.481 34.284,30.481L34.284,33.364ZM27.73,31.922L26.387,31.4C26.214,31.844 26.272,32.343 26.54,32.736C26.809,33.129 27.254,33.364 27.73,33.364L27.73,31.922ZM38.183,5.042L36.84,4.52L36.84,4.52L38.183,5.042ZM30.717,3.549L31.848,4.442L31.848,4.442L30.717,3.549ZM7.185,31.029C6.692,31.654 6.799,32.56 7.423,33.054C8.048,33.547 8.954,33.44 9.448,32.815L7.185,31.029ZM34.284,30.481L27.73,30.481L27.73,33.364L34.284,33.364L34.284,30.481ZM29.073,32.445L39.527,5.565L36.84,4.52L26.387,31.4L29.073,32.445ZM39.526,5.565C40.002,4.344 39.83,3.123 39.212,2.141C38.615,1.192 37.647,0.525 36.576,0.186C34.384,-0.506 31.597,0.108 29.585,2.656L31.848,4.442C33.137,2.808 34.689,2.613 35.708,2.935C36.242,3.103 36.598,3.399 36.772,3.675C36.925,3.918 36.971,4.184 36.84,4.52L39.526,5.565ZM29.586,2.656L7.185,31.029L9.448,32.815L31.848,4.442L29.586,2.656Z" fill="#2573FF"/>
<path d="M38.5,37.148L37.063,37.042C37.058,37.112 37.058,37.184 37.063,37.254L38.5,37.148ZM44.473,42.375L44.473,40.934C44.445,40.934 44.416,40.934 44.388,40.936L44.473,42.375ZM63.887,42.375L64.077,40.946C64.014,40.938 63.951,40.934 63.887,40.934L63.887,42.375ZM65.281,31.921L65.472,30.493L65.472,30.493L65.281,31.921ZM63.887,31.921L63.887,33.362C63.951,33.362 64.014,33.358 64.077,33.35L63.887,31.921ZM44.474,31.921L44.388,33.36C44.417,33.362 44.445,33.362 44.474,33.362L44.474,31.921ZM37.063,37.254C37.349,41.122 40.687,44.043 44.559,43.813L44.388,40.936C42.089,41.073 40.107,39.338 39.937,37.042L37.063,37.254ZM44.473,43.816L63.887,43.816L63.887,40.934L44.473,40.934L44.473,43.816ZM63.696,43.803C67.372,44.293 70.749,41.711 71.239,38.036L68.382,37.655C68.103,39.752 66.175,41.226 64.077,40.946L63.696,43.803ZM71.239,38.036C71.73,34.36 69.148,30.983 65.472,30.493L65.091,33.35C67.189,33.63 68.662,35.557 68.382,37.655L71.239,38.036ZM65.472,30.493C64.883,30.414 64.286,30.414 63.697,30.493L64.077,33.35C64.414,33.305 64.755,33.305 65.091,33.35L65.472,30.493ZM63.887,30.48L44.474,30.48L44.474,33.362L63.887,33.362L63.887,30.48ZM44.559,30.483C40.688,30.253 37.349,33.174 37.063,37.042L39.937,37.254C40.107,34.958 42.089,33.223 44.388,33.36L44.559,30.483Z" fill="#2573FF"/>
<path d="M39.781,69.011L38.344,68.905C38.339,68.976 38.339,69.047 38.344,69.118L39.781,69.011ZM45.755,74.238L45.755,72.797C45.726,72.797 45.698,72.798 45.669,72.799L45.755,74.238ZM56.208,74.238L56.399,72.81C56.335,72.801 56.272,72.797 56.208,72.797L56.208,74.238ZM57.603,63.785L57.793,62.356L57.793,62.356L57.603,63.785ZM56.208,63.785L56.208,65.226C56.272,65.226 56.336,65.221 56.399,65.213L56.208,63.785ZM45.755,63.785L45.669,65.223C45.698,65.225 45.726,65.226 45.755,65.226L45.755,63.785ZM38.344,69.118C38.63,72.985 41.969,75.906 45.84,75.677L45.669,72.799C43.371,72.936 41.388,71.201 41.218,68.905L38.344,69.118ZM45.755,75.679L56.208,75.679L56.208,72.797L45.755,72.797L45.755,75.679ZM56.018,75.666C59.693,76.157 63.07,73.575 63.56,69.899L60.704,69.518C60.424,71.616 58.496,73.089 56.399,72.81L56.018,75.666ZM63.56,69.899C64.051,66.223 61.469,62.846 57.793,62.356L57.412,65.213C59.51,65.493 60.983,67.42 60.704,69.518L63.56,69.899ZM57.793,62.356C57.204,62.278 56.607,62.278 56.018,62.356L56.399,65.213C56.735,65.168 57.076,65.168 57.412,65.213L57.793,62.356ZM56.208,62.343L45.755,62.343L45.755,65.226L56.208,65.226L56.208,62.343ZM45.84,62.346C41.969,62.116 38.63,65.037 38.344,68.905L41.218,69.118C41.388,66.821 43.371,65.087 45.669,65.223L45.84,62.346Z" fill="#2573FF"/>
<path d="M32.211,48.105L30.774,47.999C30.768,48.069 30.768,48.141 30.774,48.211L32.211,48.105ZM38.184,53.332L38.184,51.891C38.156,51.891 38.127,51.891 38.099,51.893L38.184,53.332ZM66.558,53.332L66.749,51.903C66.685,51.895 66.622,51.891 66.558,51.891L66.558,53.332ZM67.953,42.878L68.143,41.45L68.143,41.45L67.953,42.878ZM66.558,42.878L66.558,44.319C66.622,44.319 66.685,44.315 66.749,44.307L66.558,42.878ZM38.184,42.878L38.099,44.317C38.128,44.319 38.156,44.319 38.184,44.319L38.184,42.878ZM30.774,48.211C31.06,52.079 34.398,55 38.27,54.77L38.099,51.893C35.8,52.03 33.818,50.295 33.648,47.999L30.774,48.211ZM38.184,54.773L66.558,54.773L66.558,51.891L38.184,51.891L38.184,54.773ZM66.368,54.76C70.043,55.25 73.42,52.668 73.91,48.993L71.054,48.612C70.774,50.709 68.846,52.183 66.749,51.903L66.368,54.76ZM73.91,48.993C74.401,45.317 71.819,41.94 68.143,41.45L67.762,44.307C69.86,44.587 71.333,46.514 71.054,48.612L73.91,48.993ZM68.143,41.45C67.554,41.371 66.957,41.371 66.368,41.45L66.749,44.307C67.085,44.262 67.426,44.262 67.762,44.307L68.143,41.45ZM66.558,41.437L38.184,41.437L38.184,44.319L66.558,44.319L66.558,41.437ZM38.27,41.44C34.398,41.21 31.06,44.131 30.774,47.999L33.648,48.211C33.818,45.915 35.8,44.18 38.099,44.317L38.27,41.44Z" fill="#2573FF"/>
<path d="M35.197,58.558L33.76,58.452C33.755,58.523 33.755,58.594 33.76,58.664L35.197,58.558ZM41.171,63.785L41.171,62.344C41.142,62.344 41.114,62.345 41.085,62.346L41.171,63.785ZM63.571,63.785L63.761,62.356C63.698,62.348 63.635,62.344 63.571,62.344L63.571,63.785ZM64.965,53.331L65.156,51.903L65.156,51.903L64.965,53.331ZM63.571,53.331L63.571,54.773C63.635,54.773 63.698,54.768 63.761,54.76L63.571,53.331ZM41.171,53.331L41.085,54.77C41.114,54.772 41.142,54.773 41.171,54.773L41.171,53.331ZM33.76,58.664C34.046,62.532 37.385,65.453 41.256,65.223L41.085,62.346C38.787,62.483 36.804,60.748 36.634,58.452L33.76,58.664ZM41.171,65.226L63.571,65.226L63.571,62.344L41.171,62.344L41.171,65.226ZM63.38,65.213C67.056,65.704 70.433,63.122 70.923,59.446L68.066,59.065C67.786,61.163 65.859,62.636 63.761,62.356L63.38,65.213ZM70.923,59.446C71.414,55.77 68.831,52.393 65.156,51.903L64.775,54.76C66.873,55.04 68.346,56.967 68.066,59.065L70.923,59.446ZM65.156,51.903C64.567,51.824 63.97,51.824 63.381,51.903L63.761,54.76C64.098,54.715 64.439,54.715 64.775,54.76L65.156,51.903ZM63.571,51.89L41.171,51.89L41.171,54.773L63.571,54.773L63.571,51.89ZM41.256,51.893C37.385,51.663 34.046,54.584 33.76,58.452L36.634,58.664C36.804,56.368 38.787,54.634 41.085,54.77L41.256,51.893Z" fill="#2573FF"/>
<path d="M0.842,50.589L-0.599,50.546L-0.599,50.568L-0.599,50.589L0.842,50.589ZM2.389,38.259C0.546,42.101 -0.472,46.287 -0.599,50.546L2.282,50.632C2.397,46.775 3.318,42.985 4.987,39.506L2.389,38.259ZM-0.599,50.589C-0.599,57.224 1.193,63.386 5.173,67.908C9.18,72.461 15.251,75.177 23.429,75.177L23.429,72.295C15.926,72.295 10.703,69.829 7.337,66.004C3.944,62.149 2.283,56.738 2.283,50.589L-0.599,50.589Z" fill="#2573FF"/>
</svg>
