<svg width="154" height="22" viewBox="0 0 154 22" fill="none" xmlns="http://www.w3.org/2000/svg" xmlns:xlink="http://www.w3.org/1999/xlink">
<path d="M31.987,-0.614L141.969,-0.614C148.114,-0.614 153.139,4.411 153.139,10.556C153.139,16.7 148.114,21.725 141.969,21.725L31.987,21.725C25.843,21.725 20.817,16.7 20.817,10.556C20.817,4.411 25.843,-0.614 31.987,-0.614Z" clip-rule="evenodd" fill-rule="evenodd" fill="#101537"/>
<path d="M10.991,-0.614L61.939,-0.614C68.084,-0.614 73.109,4.411 73.109,10.556C73.109,16.7 68.084,21.725 61.939,21.725L10.991,21.725C4.846,21.725 -0.179,16.7 -0.179,10.556C-0.179,4.411 4.859,-0.614 10.991,-0.614Z" clip-rule="evenodd" fill-rule="evenodd" fill="#070725"/>
</svg>
