<svg width="136" height="108" viewBox="0 0 136 108" fill="none" xmlns="http://www.w3.org/2000/svg" xmlns:xlink="http://www.w3.org/1999/xlink">
<path d="M8.534,-0.641L127.442,-0.641C131.836,-0.641 135.43,2.953 135.43,7.348L135.43,99.517C135.43,103.912 131.836,107.506 127.442,107.506L8.534,107.506C4.139,107.506 0.545,103.912 0.545,99.517L0.545,7.348C0.545,2.953 4.139,-0.641 8.534,-0.641Z" clip-rule="evenodd" fill-rule="evenodd" fill="#FFFFFF"/>
<path d="M135.348,100.727L18.063,100.727C14.942,100.727 12.21,98.92 10.896,96.271C10.362,95.203 10.074,94.012 10.074,92.739L10.074,0.57C10.074,0.159 10.095,-0.231 10.157,-0.621L8.534,-0.621C4.139,-0.621 0.545,2.973 0.545,7.368L0.545,99.536C0.545,103.931 4.139,107.525 8.534,107.525L10.896,107.525L127.442,107.525C131.446,107.525 134.773,104.547 135.348,100.727Z" clip-rule="evenodd" fill-rule="evenodd" fill="#E4E1E8"/>
<path d="M39.298,5.746L96.698,5.746C98.402,5.746 99.778,7.143 99.778,8.827L99.778,9.792C99.778,11.496 98.382,12.872 96.698,12.872L39.298,12.872C37.593,12.872 36.217,11.476 36.217,9.792L36.217,8.827C36.217,7.143 37.614,5.746 39.298,5.746Z" clip-rule="evenodd" fill-rule="evenodd" fill="#070725"/>
</svg>
