<svg width="76" height="82" viewBox="0 0 76 82" fill="none" xmlns="http://www.w3.org/2000/svg" xmlns:xlink="http://www.w3.org/1999/xlink">
<path d="M69.983,25.993C67.541,29.521 69.836,32.6 72.135,36.111C74.522,39.755 73.235,44.507 69.674,47.654C69.367,47.848 69.103,48.103 68.899,48.403C68.695,48.703 68.554,49.042 68.487,49.399C68.42,49.756 68.427,50.123 68.508,50.477C68.589,50.831 68.743,51.164 68.958,51.456C71.381,56.577 69.655,61.53 64.824,64.602C63.84,65.255 63.08,66.192 62.643,67.288C61.987,69.437 60.598,71.286 58.718,72.516C56.838,73.745 54.586,74.275 52.355,74.014C51.832,74.038 51.319,74.172 50.851,74.408C50.383,74.644 49.97,74.977 49.64,75.384C46.867,79.221 43.245,79.978 39.282,77.174C38.874,76.782 38.329,76.564 37.764,76.567C37.198,76.57 36.655,76.794 36.251,77.19C32.426,79.954 28.662,79.154 25.865,75.353C25.528,74.947 25.11,74.617 24.636,74.383C24.163,74.15 23.646,74.019 23.119,73.998C20.934,74.285 18.72,73.779 16.877,72.573C15.033,71.366 13.684,69.538 13.073,67.422C12.645,66.305 11.882,65.349 10.888,64.683C5.715,61.46 4.041,56.355 6.826,50.904C7.613,49.363 7.164,48.76 6.101,47.829C4.947,46.942 4.006,45.808 3.349,44.509C2.692,43.211 2.335,41.781 2.305,40.326C2.274,38.871 2.571,37.428 3.174,36.103C3.776,34.778 4.668,33.605 5.784,32.671C6.314,32.298 6.684,31.738 6.819,31.104C6.954,30.47 6.845,29.808 6.513,29.251C4.301,23.794 5.918,19.396 10.887,16.197C11.923,15.456 12.705,14.413 13.125,13.209C13.747,11.19 15.063,9.455 16.841,8.312C18.619,7.169 20.744,6.691 22.84,6.964C23.476,7.124 24.148,7.058 24.74,6.777C25.333,6.496 25.808,6.017 26.086,5.423C26.552,4.578 27.197,3.846 27.977,3.278C28.757,2.71 29.652,2.32 30.599,2.135C31.546,1.951 32.522,1.977 33.458,2.211C34.394,2.445 35.267,2.882 36.016,3.49C36.238,3.723 36.504,3.908 36.799,4.036C37.094,4.163 37.411,4.23 37.733,4.233C38.054,4.235 38.373,4.172 38.669,4.049C38.966,3.925 39.235,3.743 39.46,3.514C43.121,0.883 46.921,1.778 49.629,5.445C49.99,5.876 50.439,6.226 50.945,6.471C51.451,6.716 52.003,6.852 52.565,6.87C54.799,6.643 57.041,7.216 58.893,8.487C60.744,9.758 62.085,11.644 62.677,13.81C63.215,14.961 64.087,15.924 65.179,16.572C66.764,17.554 68.049,18.952 68.895,20.612C69.742,22.273 70.118,24.134 69.983,25.993L69.983,25.993Z" fill="#FFE4BF"/>
<path d="M72.135,36.111L73.341,35.321L73.341,35.321L72.135,36.111ZM69.674,47.654L70.443,48.873L70.541,48.811L70.628,48.734L69.674,47.654ZM68.958,51.456L70.261,50.84L70.201,50.713L70.117,50.6L68.958,51.456ZM64.824,64.602L64.05,63.386L64.039,63.393L64.027,63.401L64.824,64.602ZM62.643,67.288L61.304,66.755L61.282,66.81L61.264,66.867L62.643,67.288ZM52.355,74.014L52.523,72.583L52.407,72.569L52.29,72.574L52.355,74.014ZM49.64,75.384L48.521,74.477L48.495,74.508L48.472,74.54L49.64,75.384ZM39.282,77.174L38.283,78.213L38.361,78.288L38.45,78.351L39.282,77.174ZM36.251,77.19L37.095,78.359L37.184,78.295L37.261,78.219L36.251,77.19ZM25.865,75.353L27.026,74.499L27.001,74.465L26.975,74.433L25.865,75.353ZM23.119,73.998L23.174,72.558L23.052,72.554L22.931,72.569L23.119,73.998ZM13.073,67.422L14.458,67.022L14.441,66.963L14.419,66.905L13.073,67.422ZM10.888,64.683L11.691,63.486L11.671,63.473L11.651,63.46L10.888,64.683ZM6.826,50.904L8.109,51.56L8.109,51.56L6.826,50.904ZM6.101,47.829L7.05,46.745L7.015,46.714L6.979,46.686L6.101,47.829ZM5.784,32.671L4.954,31.493L4.905,31.528L4.86,31.566L5.784,32.671ZM6.513,29.251L5.178,29.792L5.219,29.894L5.275,29.988L6.513,29.251ZM10.887,16.197L11.667,17.409L11.696,17.39L11.725,17.37L10.887,16.197ZM13.125,13.209L14.485,13.684L14.494,13.659L14.502,13.634L13.125,13.209ZM22.84,6.964L23.193,5.567L23.11,5.546L23.026,5.535L22.84,6.964ZM26.086,5.423L24.824,4.727L24.801,4.769L24.78,4.813L26.086,5.423ZM36.016,3.49L37.06,2.496L36.996,2.429L36.925,2.371L36.016,3.49ZM39.46,3.514L38.619,2.343L38.518,2.416L38.43,2.505L39.46,3.514ZM49.629,5.445L48.469,6.301L48.496,6.338L48.525,6.372L49.629,5.445ZM52.565,6.87L52.521,8.31L52.616,8.313L52.71,8.303L52.565,6.87ZM62.677,13.81L61.287,14.19L61.319,14.308L61.371,14.42L62.677,13.81ZM65.179,16.572L65.939,15.347L65.927,15.34L65.915,15.333L65.179,16.572ZM68.798,25.173C67.282,27.364 67.236,29.502 67.915,31.519C68.546,33.389 69.835,35.229 70.93,36.901L73.341,35.321C72.136,33.482 71.128,32.027 70.647,30.598C70.215,29.316 70.242,28.15 71.168,26.813L68.798,25.173ZM70.93,36.901C72.803,39.76 71.93,43.737 68.72,46.574L70.628,48.734C74.541,45.276 76.242,39.75 73.341,35.321L70.93,36.901ZM68.905,46.435C68.43,46.734 68.022,47.128 67.707,47.593L70.09,49.213C70.183,49.077 70.303,48.961 70.443,48.873L68.905,46.435ZM67.707,47.593C67.391,48.057 67.175,48.581 67.071,49.133L69.904,49.666C69.934,49.504 69.998,49.349 70.09,49.213L67.707,47.593ZM67.071,49.133C66.967,49.684 66.978,50.251 67.104,50.798L69.913,50.155C69.876,49.994 69.873,49.828 69.904,49.666L67.071,49.133ZM67.104,50.798C67.229,51.345 67.465,51.861 67.799,52.312L70.117,50.6C70.02,50.467 69.95,50.316 69.913,50.155L67.104,50.798ZM67.655,52.072C68.727,54.338 68.848,56.477 68.24,58.353C67.629,60.241 66.236,61.996 64.05,63.386L65.597,65.818C68.242,64.136 70.129,61.878 70.982,59.241C71.84,56.593 71.612,53.695 70.261,50.84L67.655,52.072ZM64.027,63.401C62.799,64.216 61.849,65.386 61.304,66.755L63.981,67.822C64.31,66.998 64.882,66.293 65.621,65.803L64.027,63.401ZM61.264,66.867C60.707,68.693 59.527,70.265 57.929,71.309L59.506,73.722C61.669,72.308 63.266,70.18 64.021,67.709L61.264,66.867ZM57.929,71.309C56.332,72.354 54.418,72.804 52.523,72.583L52.188,75.446C54.754,75.746 57.344,75.135 59.506,73.722L57.929,71.309ZM52.29,72.574C51.563,72.607 50.851,72.794 50.202,73.122L51.5,75.695C51.786,75.55 52.1,75.468 52.42,75.454L52.29,72.574ZM50.202,73.122C49.552,73.45 48.979,73.911 48.521,74.477L50.76,76.292C50.961,76.043 51.214,75.839 51.5,75.695L50.202,73.122ZM48.472,74.54C47.227,76.263 45.919,77.12 44.649,77.352C43.389,77.581 41.88,77.247 40.115,75.998L38.45,78.351C40.647,79.906 42.931,80.594 45.166,80.187C47.39,79.782 49.28,78.342 50.808,76.229L48.472,74.54ZM40.281,76.135C39.603,75.483 38.697,75.121 37.756,75.126L37.771,78.009C37.962,78.008 38.146,78.081 38.283,78.213L40.281,76.135ZM37.756,75.126C36.815,75.131 35.913,75.503 35.242,76.162L37.261,78.219C37.397,78.085 37.58,78.01 37.771,78.009L37.756,75.126ZM35.407,76.022C33.735,77.231 32.23,77.558 30.937,77.317C29.627,77.073 28.276,76.198 27.026,74.499L24.705,76.207C26.252,78.31 28.182,79.735 30.409,80.15C32.653,80.569 34.943,79.914 37.095,78.359L35.407,76.022ZM26.975,74.433C26.508,73.871 25.929,73.414 25.274,73.091L23.999,75.676C24.291,75.819 24.549,76.023 24.756,76.273L26.975,74.433ZM25.274,73.091C24.619,72.768 23.904,72.586 23.174,72.558L23.063,75.438C23.388,75.451 23.707,75.532 23.999,75.676L25.274,73.091ZM22.931,72.569C21.089,72.811 19.221,72.385 17.666,71.367L16.087,73.778C18.219,75.174 20.78,75.759 23.306,75.427L22.931,72.569ZM17.666,71.367C16.111,70.349 14.973,68.808 14.458,67.022L11.689,67.821C12.395,70.269 13.956,72.383 16.087,73.778L17.666,71.367ZM14.419,66.905C13.884,65.512 12.931,64.317 11.691,63.486L10.086,65.88C10.832,66.381 11.406,67.099 11.728,67.938L14.419,66.905ZM11.651,63.46C9.293,61.991 7.846,60.168 7.252,58.21C6.66,56.263 6.858,54.01 8.109,51.56L5.542,50.249C4.009,53.25 3.651,56.274 4.494,59.048C5.333,61.811 7.31,64.152 10.126,65.906L11.651,63.46ZM8.109,51.56C8.573,50.651 8.847,49.691 8.53,48.7C8.246,47.808 7.555,47.186 7.05,46.745L5.151,48.913C5.407,49.137 5.567,49.291 5.674,49.417C5.774,49.535 5.786,49.582 5.784,49.576C5.762,49.504 5.866,49.616 5.542,50.249L8.109,51.56ZM6.979,46.686C5.996,45.931 5.195,44.965 4.635,43.859L2.063,45.16C2.818,46.651 3.898,47.954 5.223,48.972L6.979,46.686ZM4.635,43.859C4.075,42.753 3.772,41.535 3.746,40.296L0.864,40.356C0.899,42.027 1.309,43.669 2.063,45.16L4.635,43.859ZM3.746,40.296C3.72,39.057 3.973,37.827 4.486,36.699L1.862,35.506C1.17,37.028 0.829,38.685 0.864,40.356L3.746,40.296ZM4.486,36.699C4.999,35.571 5.758,34.572 6.709,33.777L4.86,31.566C3.578,32.638 2.553,33.985 1.862,35.506L4.486,36.699ZM6.615,33.849C7.441,33.267 8.018,32.393 8.229,31.404L5.41,30.803C5.35,31.082 5.187,31.329 4.954,31.493L6.615,33.849ZM8.229,31.404C8.439,30.415 8.269,29.383 7.752,28.514L5.275,29.988C5.421,30.233 5.469,30.524 5.41,30.803L8.229,31.404ZM7.849,28.709C6.841,26.225 6.759,24.126 7.37,22.345C7.985,20.553 9.371,18.887 11.667,17.409L10.107,14.986C7.434,16.706 5.526,18.839 4.644,21.409C3.757,23.992 3.973,26.82 5.178,29.792L7.849,28.709ZM11.725,17.37C13.004,16.456 13.968,15.168 14.485,13.684L11.764,12.735C11.442,13.657 10.843,14.457 10.049,15.025L11.725,17.37ZM14.502,13.634C15.024,11.939 16.129,10.483 17.621,9.524L16.062,7.099C13.998,8.426 12.47,10.44 11.747,12.785L14.502,13.634ZM17.621,9.524C19.113,8.565 20.896,8.164 22.654,8.393L23.026,5.535C20.593,5.218 18.126,5.773 16.062,7.099L17.621,9.524ZM22.488,8.361C23.448,8.604 24.463,8.504 25.358,8.079L24.122,5.475C23.832,5.613 23.504,5.645 23.193,5.567L22.488,8.361ZM25.358,8.079C26.253,7.654 26.972,6.93 27.392,6.033L24.78,4.813C24.644,5.103 24.412,5.338 24.122,5.475L25.358,8.079ZM27.348,6.119C27.712,5.459 28.216,4.886 28.826,4.442L27.129,2.113C26.179,2.805 25.392,3.697 24.824,4.727L27.348,6.119ZM28.826,4.442C29.435,3.999 30.135,3.694 30.875,3.55L30.324,0.721C29.17,0.945 28.079,1.42 27.129,2.113L28.826,4.442ZM30.875,3.55C31.615,3.406 32.377,3.426 33.109,3.609L33.808,0.813C32.667,0.527 31.478,0.496 30.324,0.721L30.875,3.55ZM33.109,3.609C33.84,3.792 34.522,4.133 35.107,4.608L36.925,2.371C36.012,1.63 34.948,1.098 33.808,0.813L33.109,3.609ZM34.973,4.484C35.328,4.857 35.754,5.154 36.227,5.359L37.371,2.713C37.254,2.662 37.148,2.589 37.06,2.496L34.973,4.484ZM36.227,5.359C36.699,5.563 37.208,5.67 37.723,5.674L37.743,2.792C37.615,2.791 37.489,2.764 37.371,2.713L36.227,5.359ZM37.723,5.674C38.238,5.677 38.748,5.577 39.223,5.379L38.116,2.718C37.998,2.768 37.871,2.792 37.743,2.792L37.723,5.674ZM39.223,5.379C39.698,5.182 40.129,4.89 40.489,4.522L38.43,2.505C38.341,2.597 38.234,2.669 38.116,2.718L39.223,5.379ZM40.301,4.684C41.866,3.56 43.33,3.27 44.616,3.53C45.925,3.795 47.268,4.675 48.469,6.301L50.788,4.589C49.281,2.548 47.37,1.147 45.188,0.705C42.982,0.259 40.716,0.837 38.619,2.343L40.301,4.684ZM48.525,6.372C49.017,6.958 49.627,7.434 50.316,7.768L51.574,5.174C51.25,5.017 50.964,4.794 50.732,4.519L48.525,6.372ZM50.316,7.768C51.004,8.102 51.756,8.286 52.521,8.31L52.61,5.429C52.25,5.418 51.897,5.331 51.574,5.174L50.316,7.768ZM52.71,8.303C54.605,8.111 56.507,8.597 58.077,9.675L59.708,7.299C57.576,5.835 54.993,5.175 52.42,5.436L52.71,8.303ZM58.077,9.675C59.648,10.753 60.785,12.353 61.287,14.19L64.067,13.43C63.385,10.935 61.841,8.762 59.708,7.299L58.077,9.675ZM61.371,14.42C62.031,15.833 63.102,17.015 64.444,17.812L65.915,15.333C65.071,14.832 64.398,14.089 63.983,13.2L61.371,14.42ZM64.42,17.797C65.781,18.641 66.884,19.841 67.612,21.267L70.179,19.958C69.213,18.063 67.747,16.468 65.939,15.347L64.42,17.797ZM67.612,21.267C68.339,22.693 68.662,24.291 68.545,25.888L71.42,26.097C71.575,23.976 71.146,21.853 70.179,19.958L67.612,21.267Z" fill="#FF9E16"/>
<line x1="36.389" y1="4.223" x2="36.389" y2="76.57" stroke="#FF9E16" stroke-width="1.441" stroke-miterlimit="10"/>
<path d="M26.418,25.84C25.856,26.405 25.859,27.317 26.423,27.878C26.987,28.44 27.9,28.437 28.461,27.873L26.418,25.84ZM36.435,29.862C36.639,30.631 37.428,31.09 38.197,30.886C38.967,30.683 39.425,29.894 39.222,29.124L36.435,29.862ZM27.439,26.857C28.461,27.873 28.461,27.873 28.46,27.874C28.46,27.874 28.46,27.874 28.46,27.874C28.46,27.875 28.459,27.875 28.459,27.875C28.459,27.875 28.459,27.875 28.46,27.874C28.461,27.873 28.464,27.87 28.469,27.865C28.479,27.856 28.495,27.84 28.518,27.818C28.564,27.774 28.636,27.708 28.73,27.625C28.918,27.457 29.194,27.226 29.533,26.976C30.228,26.464 31.109,25.937 31.998,25.688C32.862,25.446 33.607,25.493 34.255,25.923C34.944,26.38 35.797,27.45 36.435,29.862L39.222,29.124C38.493,26.37 37.364,24.527 35.849,23.522C34.292,22.488 32.61,22.523 31.219,22.913C29.853,23.296 28.649,24.047 27.824,24.655C27.402,24.966 27.058,25.255 26.818,25.468C26.697,25.575 26.602,25.663 26.534,25.727C26.5,25.76 26.473,25.786 26.454,25.805C26.444,25.814 26.436,25.822 26.43,25.828C26.427,25.831 26.425,25.833 26.422,25.836C26.421,25.837 26.421,25.838 26.42,25.838C26.419,25.839 26.419,25.839 26.419,25.839C26.418,25.84 26.418,25.84 27.439,26.857Z" fill="#FF9E16"/>
<path d="M47.197,27.873C47.759,28.437 48.671,28.44 49.235,27.878C49.8,27.317 49.802,26.405 49.241,25.84L47.197,27.873ZM36.437,29.124C36.233,29.894 36.692,30.683 37.461,30.886C38.231,31.09 39.02,30.631 39.223,29.862L36.437,29.124ZM48.219,26.857C49.241,25.84 49.24,25.84 49.24,25.839C49.24,25.839 49.239,25.839 49.239,25.838C49.238,25.838 49.237,25.837 49.236,25.836C49.234,25.833 49.231,25.831 49.228,25.828C49.222,25.822 49.215,25.814 49.205,25.805C49.185,25.786 49.158,25.76 49.125,25.727C49.057,25.663 48.961,25.575 48.841,25.468C48.6,25.255 48.257,24.966 47.835,24.655C47.01,24.047 45.806,23.296 44.439,22.913C43.048,22.523 41.367,22.488 39.81,23.522C38.295,24.527 37.166,26.37 36.437,29.124L39.223,29.862C39.862,27.45 40.715,26.38 41.404,25.923C42.051,25.493 42.797,25.446 43.661,25.688C44.55,25.937 45.43,26.464 46.126,26.976C46.465,27.226 46.74,27.457 46.929,27.625C47.023,27.708 47.095,27.774 47.14,27.818C47.163,27.84 47.18,27.856 47.19,27.865C47.194,27.87 47.197,27.873 47.199,27.874C47.199,27.875 47.2,27.875 47.199,27.875C47.199,27.875 47.199,27.875 47.199,27.874C47.199,27.874 47.198,27.874 47.198,27.874C47.198,27.873 47.197,27.873 48.219,26.857Z" fill="#FF9E16"/>
<path d="M52.407,20.346C52.026,21.046 52.285,21.921 52.984,22.301C53.683,22.681 54.558,22.423 54.939,21.724L52.407,20.346ZM48.133,10.392C47.337,10.417 46.713,11.082 46.737,11.877C46.762,12.673 47.427,13.298 48.222,13.273L48.133,10.392ZM53.673,21.035C54.939,21.724 54.939,21.723 54.939,21.723C54.939,21.723 54.94,21.722 54.94,21.721C54.941,21.72 54.941,21.719 54.942,21.718C54.943,21.715 54.945,21.712 54.947,21.708C54.951,21.701 54.956,21.691 54.963,21.679C54.975,21.655 54.992,21.622 55.014,21.58C55.056,21.497 55.113,21.38 55.181,21.234C55.317,20.943 55.495,20.531 55.673,20.038C56.019,19.074 56.395,17.705 56.372,16.286C56.349,14.841 55.901,13.221 54.466,12.024C53.069,10.859 50.981,10.304 48.133,10.392L48.222,13.273C50.716,13.196 51.985,13.708 52.62,14.237C53.217,14.735 53.476,15.436 53.49,16.333C53.505,17.256 53.252,18.25 52.96,19.063C52.818,19.459 52.675,19.79 52.568,20.018C52.515,20.132 52.472,20.22 52.443,20.276C52.429,20.304 52.418,20.325 52.412,20.337C52.409,20.343 52.407,20.346 52.406,20.348C52.405,20.349 52.405,20.349 52.405,20.349C52.406,20.349 52.406,20.349 52.406,20.348C52.406,20.348 52.406,20.347 52.406,20.347C52.407,20.347 52.407,20.346 53.673,21.035Z" fill="#FF9E16"/>
<path d="M49.241,52.922C49.802,52.358 49.8,51.446 49.235,50.884C48.671,50.323 47.759,50.325 47.197,50.89L49.241,52.922ZM39.223,48.901C39.02,48.131 38.231,47.673 37.461,47.876C36.692,48.08 36.233,48.869 36.437,49.638L39.223,48.901ZM48.219,51.906C47.197,50.89 47.198,50.889 47.198,50.889C47.198,50.889 47.199,50.889 47.199,50.888C47.199,50.888 47.199,50.888 47.199,50.888C47.2,50.887 47.199,50.888 47.199,50.888C47.197,50.89 47.194,50.893 47.19,50.897C47.18,50.907 47.163,50.923 47.14,50.945C47.095,50.988 47.023,51.055 46.929,51.138C46.74,51.305 46.465,51.537 46.126,51.787C45.43,52.299 44.55,52.825 43.661,53.075C42.797,53.317 42.051,53.269 41.404,52.84C40.715,52.382 39.862,51.313 39.223,48.901L36.437,49.638C37.166,52.392 38.295,54.235 39.81,55.241C41.367,56.274 43.048,56.24 44.439,55.85C45.806,55.467 47.01,54.715 47.835,54.107C48.257,53.797 48.6,53.508 48.841,53.295C48.961,53.188 49.057,53.099 49.125,53.035C49.158,53.003 49.185,52.977 49.205,52.958C49.215,52.949 49.222,52.941 49.228,52.935C49.231,52.932 49.234,52.929 49.236,52.927C49.237,52.926 49.238,52.925 49.239,52.924C49.239,52.924 49.24,52.923 49.24,52.923C49.24,52.923 49.241,52.922 48.219,51.906Z" fill="#FF9E16"/>
<path d="M49.132,38.393C48.566,38.952 48.56,39.865 49.119,40.431C49.678,40.998 50.59,41.004 51.157,40.444L49.132,38.393ZM59.112,42.507C59.309,43.278 60.093,43.744 60.865,43.548C61.636,43.351 62.102,42.567 61.905,41.796L59.112,42.507ZM50.145,39.419C51.157,40.444 51.156,40.445 51.156,40.445C51.156,40.445 51.156,40.446 51.155,40.446C51.155,40.446 51.155,40.446 51.155,40.446C51.155,40.447 51.155,40.446 51.155,40.446C51.157,40.445 51.16,40.441 51.165,40.437C51.175,40.427 51.191,40.412 51.214,40.39C51.261,40.347 51.333,40.281 51.427,40.199C51.618,40.033 51.896,39.804 52.237,39.558C52.937,39.052 53.822,38.533 54.713,38.292C55.58,38.058 56.325,38.113 56.968,38.548C57.653,39.012 58.496,40.089 59.112,42.507L61.905,41.796C61.202,39.035 60.09,37.181 58.584,36.162C57.037,35.114 55.356,35.133 53.961,35.51C52.591,35.88 51.38,36.621 50.549,37.221C50.125,37.528 49.778,37.813 49.536,38.024C49.414,38.13 49.318,38.218 49.25,38.281C49.216,38.313 49.188,38.339 49.169,38.358C49.159,38.367 49.151,38.375 49.145,38.381C49.142,38.384 49.139,38.386 49.137,38.388C49.136,38.389 49.135,38.39 49.134,38.391C49.134,38.391 49.133,38.392 49.133,38.392C49.133,38.393 49.132,38.393 50.145,39.419Z" fill="#FF9E16"/>
<path d="M28.461,50.89C27.9,50.325 26.987,50.323 26.423,50.884C25.859,51.446 25.856,52.358 26.418,52.922L28.461,50.89ZM39.222,49.638C39.425,48.869 38.967,48.08 38.197,47.876C37.428,47.673 36.639,48.131 36.435,48.901L39.222,49.638ZM27.439,51.906C26.418,52.922 26.418,52.923 26.419,52.923C26.419,52.923 26.419,52.924 26.42,52.924C26.421,52.925 26.421,52.926 26.422,52.927C26.425,52.929 26.427,52.932 26.43,52.935C26.436,52.941 26.444,52.949 26.454,52.958C26.473,52.977 26.5,53.003 26.534,53.035C26.602,53.099 26.697,53.188 26.818,53.295C27.058,53.508 27.402,53.797 27.824,54.107C28.649,54.715 29.853,55.467 31.219,55.85C32.61,56.24 34.292,56.274 35.849,55.241C37.364,54.235 38.493,52.392 39.222,49.638L36.435,48.901C35.797,51.313 34.944,52.382 34.255,52.84C33.607,53.269 32.862,53.317 31.998,53.075C31.109,52.825 30.228,52.299 29.533,51.787C29.194,51.537 28.918,51.305 28.73,51.138C28.636,51.055 28.564,50.988 28.518,50.945C28.495,50.923 28.479,50.907 28.469,50.897C28.464,50.893 28.461,50.89 28.46,50.888C28.459,50.888 28.459,50.887 28.459,50.888C28.459,50.888 28.46,50.888 28.46,50.888C28.46,50.889 28.46,50.889 28.46,50.889C28.461,50.889 28.461,50.89 27.439,51.906Z" fill="#FF9E16"/>
<path d="M64.134,17.557C64.68,18.136 65.592,18.163 66.171,17.618C66.75,17.072 66.777,16.16 66.231,15.58L64.134,17.557ZM54.73,13.163C53.937,13.227 53.345,13.922 53.409,14.716C53.473,15.509 54.168,16.1 54.962,16.036L54.73,13.163ZM65.183,16.569C66.231,15.58 66.231,15.579 66.23,15.579C66.229,15.578 66.229,15.577 66.228,15.577C66.227,15.575 66.226,15.574 66.224,15.573C66.222,15.57 66.219,15.567 66.216,15.564C66.21,15.558 66.204,15.552 66.197,15.545C66.183,15.531 66.166,15.514 66.146,15.495C66.107,15.458 66.056,15.412 65.994,15.359C65.869,15.253 65.697,15.12 65.472,14.971C65.022,14.672 64.364,14.314 63.455,13.989C61.635,13.338 58.842,12.832 54.73,13.163L54.962,16.036C58.732,15.732 61.107,16.211 62.485,16.703C63.175,16.95 63.624,17.203 63.88,17.373C64.008,17.458 64.09,17.523 64.13,17.557C64.15,17.574 64.16,17.584 64.16,17.584C64.161,17.584 64.158,17.582 64.154,17.578C64.152,17.576 64.149,17.573 64.146,17.569C64.144,17.568 64.142,17.566 64.14,17.564C64.139,17.563 64.138,17.562 64.137,17.561C64.137,17.56 64.136,17.559 64.136,17.559C64.135,17.558 64.134,17.557 65.183,16.569Z" fill="#FF9E16"/>
<path d="M54.88,58.528C54.563,57.798 53.714,57.463 52.984,57.779C52.254,58.096 51.919,58.945 52.235,59.675L54.88,58.528ZM47.438,66.348C46.648,66.253 45.93,66.816 45.835,67.606C45.74,68.397 46.303,69.115 47.093,69.21L47.438,66.348ZM53.557,59.102C52.235,59.675 52.235,59.675 52.235,59.674C52.235,59.674 52.235,59.673 52.235,59.673C52.234,59.673 52.234,59.673 52.234,59.672C52.234,59.672 52.234,59.672 52.235,59.673C52.235,59.675 52.237,59.679 52.24,59.685C52.245,59.698 52.253,59.719 52.265,59.748C52.289,59.807 52.324,59.898 52.367,60.016C52.452,60.253 52.566,60.595 52.672,61.002C52.891,61.838 53.055,62.851 52.957,63.769C52.863,64.661 52.543,65.336 51.904,65.779C51.225,66.25 49.915,66.647 47.438,66.348L47.093,69.21C49.921,69.551 52.051,69.184 53.546,68.148C55.082,67.083 55.672,65.509 55.824,64.072C55.973,62.661 55.72,61.264 55.461,60.273C55.328,59.766 55.187,59.34 55.078,59.038C55.023,58.886 54.976,58.764 54.941,58.678C54.924,58.635 54.91,58.6 54.899,58.575C54.894,58.562 54.89,58.552 54.886,58.544C54.885,58.54 54.883,58.537 54.882,58.534C54.882,58.533 54.881,58.532 54.881,58.531C54.88,58.53 54.88,58.53 54.88,58.529C54.88,58.529 54.88,58.528 53.557,59.102Z" fill="#FF9E16"/>
<path d="M66.002,65.548C66.624,65.051 66.726,64.144 66.229,63.522C65.732,62.9 64.825,62.799 64.203,63.296L66.002,65.548ZM54.397,64.187C53.613,64.053 52.868,64.58 52.734,65.365C52.6,66.149 53.127,66.894 53.911,67.028L54.397,64.187ZM65.103,64.422C64.203,63.296 64.204,63.295 64.205,63.295C64.205,63.295 64.206,63.294 64.206,63.294C64.207,63.293 64.208,63.292 64.209,63.291C64.211,63.29 64.213,63.289 64.214,63.288C64.217,63.285 64.219,63.284 64.22,63.283C64.223,63.281 64.223,63.281 64.22,63.283C64.213,63.288 64.195,63.301 64.164,63.321C64.102,63.361 63.991,63.43 63.828,63.514C63.501,63.683 62.962,63.917 62.185,64.121C60.638,64.528 58.109,64.823 54.397,64.187L53.911,67.028C57.994,67.727 60.94,67.429 62.918,66.909C63.904,66.65 64.641,66.338 65.149,66.075C65.403,65.945 65.599,65.826 65.74,65.734C65.811,65.688 65.868,65.648 65.912,65.617C65.933,65.601 65.952,65.587 65.967,65.575C65.975,65.57 65.981,65.564 65.987,65.56C65.99,65.558 65.993,65.555 65.995,65.553C65.997,65.552 65.998,65.551 65.999,65.55C66,65.55 66.001,65.549 66.001,65.549C66.002,65.548 66.002,65.548 65.103,64.422Z" fill="#FF9E16"/>
<path d="M21.12,21.724C21.501,22.423 22.376,22.681 23.075,22.301C23.774,21.921 24.033,21.046 23.652,20.346L21.12,21.724ZM27.837,13.273C28.632,13.298 29.297,12.673 29.322,11.877C29.346,11.082 28.722,10.417 27.926,10.392L27.837,13.273ZM22.386,21.035C23.652,20.346 23.652,20.347 23.653,20.347C23.653,20.347 23.653,20.348 23.653,20.348C23.653,20.349 23.653,20.349 23.654,20.349C23.654,20.349 23.654,20.349 23.653,20.348C23.652,20.346 23.65,20.343 23.647,20.337C23.641,20.325 23.63,20.304 23.616,20.276C23.587,20.22 23.544,20.132 23.491,20.018C23.385,19.79 23.241,19.459 23.099,19.063C22.807,18.25 22.554,17.256 22.569,16.333C22.583,15.436 22.842,14.735 23.439,14.237C24.074,13.708 25.343,13.196 27.837,13.273L27.926,10.392C25.078,10.304 22.99,10.859 21.593,12.024C20.158,13.221 19.711,14.841 19.687,16.286C19.664,17.705 20.04,19.074 20.386,20.038C20.564,20.531 20.742,20.943 20.878,21.234C20.946,21.38 21.003,21.497 21.045,21.58C21.067,21.622 21.084,21.655 21.096,21.679C21.103,21.691 21.108,21.701 21.112,21.708C21.114,21.712 21.116,21.715 21.117,21.718C21.118,21.719 21.119,21.72 21.119,21.721C21.119,21.722 21.12,21.723 21.12,21.723C21.12,21.723 21.12,21.724 22.386,21.035Z" fill="#FF9E16"/>
<path d="M23.549,40.444C24.116,41.004 25.028,40.998 25.587,40.431C26.146,39.865 26.14,38.952 25.574,38.393L23.549,40.444ZM12.801,41.796C12.604,42.567 13.07,43.351 13.841,43.548C14.613,43.744 15.397,43.278 15.594,42.507L12.801,41.796ZM24.561,39.419C25.574,38.393 25.573,38.393 25.573,38.392C25.573,38.392 25.572,38.391 25.572,38.391C25.571,38.39 25.57,38.389 25.569,38.388C25.567,38.386 25.564,38.384 25.561,38.381C25.555,38.375 25.547,38.367 25.537,38.358C25.517,38.339 25.49,38.313 25.456,38.281C25.388,38.218 25.292,38.13 25.17,38.024C24.928,37.813 24.581,37.528 24.157,37.221C23.326,36.621 22.115,35.88 20.745,35.51C19.35,35.133 17.669,35.114 16.122,36.162C14.616,37.181 13.504,39.035 12.801,41.796L15.594,42.507C16.21,40.089 17.053,39.012 17.738,38.548C18.381,38.113 19.126,38.058 19.993,38.292C20.884,38.533 21.769,39.052 22.469,39.558C22.81,39.804 23.088,40.033 23.278,40.199C23.373,40.281 23.445,40.347 23.492,40.39C23.515,40.412 23.531,40.427 23.541,40.437C23.546,40.441 23.549,40.445 23.55,40.446C23.551,40.446 23.551,40.447 23.551,40.446C23.551,40.446 23.551,40.446 23.55,40.446C23.55,40.446 23.55,40.445 23.55,40.445C23.55,40.445 23.549,40.444 24.561,39.419Z" fill="#FF9E16"/>
<path d="M9.818,15.196C9.227,15.729 9.18,16.64 9.713,17.231C10.245,17.822 11.157,17.87 11.748,17.337L9.818,15.196ZM21.101,16.04C21.894,16.104 22.589,15.512 22.653,14.719C22.717,13.926 22.126,13.231 21.332,13.167L21.101,16.04ZM10.783,16.266C11.748,17.337 11.747,17.338 11.746,17.339C11.746,17.339 11.745,17.34 11.745,17.34C11.743,17.341 11.742,17.342 11.741,17.343C11.739,17.345 11.737,17.346 11.736,17.348C11.732,17.351 11.729,17.354 11.727,17.356C11.722,17.359 11.72,17.361 11.72,17.361C11.721,17.36 11.732,17.352 11.753,17.336C11.796,17.306 11.882,17.247 12.016,17.171C12.285,17.018 12.752,16.792 13.465,16.575C14.888,16.141 17.311,15.734 21.101,16.04L21.332,13.167C17.24,12.837 14.446,13.262 12.623,13.818C11.713,14.096 11.05,14.405 10.594,14.664C10.366,14.793 10.191,14.909 10.063,15.001C10,15.048 9.948,15.088 9.907,15.121C9.887,15.137 9.869,15.152 9.855,15.164C9.847,15.171 9.84,15.176 9.834,15.182C9.831,15.184 9.829,15.187 9.826,15.189C9.825,15.19 9.823,15.191 9.822,15.193C9.821,15.193 9.821,15.194 9.82,15.194C9.819,15.195 9.818,15.196 10.783,16.266Z" fill="#FF9E16"/>
<path d="M23.331,59.675C23.647,58.945 23.312,58.096 22.582,57.779C21.852,57.463 21.003,57.798 20.686,58.528L23.331,59.675ZM28.473,69.21C29.263,69.115 29.826,68.397 29.731,67.606C29.636,66.816 28.918,66.253 28.128,66.348L28.473,69.21ZM22.008,59.102C20.686,58.528 20.686,58.529 20.686,58.529C20.686,58.53 20.685,58.53 20.685,58.531C20.685,58.532 20.684,58.533 20.684,58.534C20.683,58.537 20.681,58.54 20.679,58.544C20.676,58.552 20.672,58.562 20.667,58.575C20.656,58.6 20.642,58.635 20.624,58.678C20.59,58.764 20.543,58.886 20.488,59.038C20.379,59.34 20.238,59.766 20.105,60.273C19.846,61.264 19.593,62.661 19.742,64.072C19.894,65.509 20.484,67.083 22.02,68.148C23.515,69.184 25.644,69.551 28.473,69.21L28.128,66.348C25.651,66.647 24.341,66.25 23.662,65.779C23.023,65.336 22.703,64.661 22.608,63.769C22.511,62.851 22.675,61.838 22.894,61.002C23,60.595 23.114,60.253 23.199,60.016C23.242,59.898 23.277,59.807 23.301,59.748C23.312,59.719 23.321,59.698 23.326,59.685C23.329,59.679 23.331,59.675 23.331,59.673C23.332,59.672 23.332,59.672 23.332,59.672C23.332,59.673 23.332,59.673 23.331,59.673C23.331,59.673 23.331,59.674 23.331,59.674C23.331,59.675 23.331,59.675 22.008,59.102Z" fill="#FF9E16"/>
<path d="M11.362,63.296C10.741,62.799 9.834,62.9 9.337,63.522C8.84,64.144 8.942,65.051 9.563,65.548L11.362,63.296ZM21.655,67.028C22.439,66.894 22.966,66.149 22.832,65.365C22.698,64.58 21.953,64.053 21.168,64.187L21.655,67.028ZM10.463,64.422C9.563,65.548 9.564,65.548 9.565,65.549C9.565,65.549 9.566,65.55 9.567,65.55C9.568,65.551 9.569,65.552 9.57,65.553C9.573,65.555 9.576,65.558 9.579,65.56C9.585,65.564 9.591,65.57 9.599,65.575C9.614,65.587 9.632,65.601 9.654,65.617C9.698,65.648 9.755,65.688 9.825,65.734C9.967,65.826 10.163,65.945 10.417,66.075C10.925,66.338 11.661,66.65 12.648,66.909C14.626,67.429 17.572,67.727 21.655,67.028L21.168,64.187C17.456,64.823 14.928,64.528 13.381,64.121C12.604,63.917 12.065,63.683 11.738,63.514C11.575,63.43 11.464,63.361 11.402,63.321C11.371,63.301 11.353,63.288 11.346,63.283C11.343,63.281 11.343,63.281 11.345,63.283C11.347,63.284 11.349,63.285 11.352,63.288C11.353,63.289 11.355,63.29 11.357,63.291C11.357,63.292 11.358,63.293 11.359,63.294C11.36,63.294 11.361,63.295 11.361,63.295C11.362,63.295 11.362,63.296 10.463,64.422Z" fill="#FF9E16"/>
</svg>
