<svg width="368" height="22" viewBox="0 0 368 22" fill="none" xmlns="http://www.w3.org/2000/svg" xmlns:xlink="http://www.w3.org/1999/xlink">
<path d="M367.083,-0.262L0.037,-0.262L0.037,20.803L367.083,20.803L367.083,-0.262Z" fill="#000000"/>
<path d="M10.32,12.551C11.581,12.551 12.604,11.529 12.604,10.268C12.604,9.007 11.581,7.984 10.32,7.984C9.059,7.984 8.037,9.007 8.037,10.268C8.037,11.529 9.059,12.551 10.32,12.551Z" fill="#FFFFFF"/>
<path d="M18.436,12.551C19.697,12.551 20.719,11.529 20.719,10.268C20.719,9.007 19.697,7.984 18.436,7.984C17.175,7.984 16.152,9.007 16.152,10.268C16.152,11.529 17.175,12.551 18.436,12.551Z" fill="#FFFFFF"/>
<path d="M26.553,12.551C27.814,12.551 28.836,11.529 28.836,10.268C28.836,9.007 27.814,7.984 26.553,7.984C25.292,7.984 24.27,9.007 24.27,10.268C24.27,11.529 25.292,12.551 26.553,12.551Z" fill="#FFFFFF"/>
</svg>
