<svg width="66" height="78" viewBox="0 0 66 78" fill="none" xmlns="http://www.w3.org/2000/svg" xmlns:xlink="http://www.w3.org/1999/xlink">
<path d="M32.848,0C50.991,0 65.696,14.705 65.696,32.848C65.696,45.436 58.551,56.711 47.576,62.218C47.903,63.504 47.623,64.914 46.74,65.997L46.443,66.325C44.548,68.221 42.372,69.81 39.996,71.037L38.965,71.54L34.491,73.602C34.291,73.707 34.101,73.834 33.924,73.979L33.667,74.211L32.385,75.494C31.71,76.169 30.615,76.169 29.94,75.494C29.34,74.894 29.273,73.962 29.74,73.288L29.94,73.049L31.222,71.766C31.59,71.398 31.997,71.074 32.468,70.783L32.963,70.502L37.516,68.401C39.926,67.289 42.12,65.758 43.998,63.88C44.336,63.543 44.336,62.995 43.998,62.658L43.893,62.572L43.75,62.494C42.807,62.061 42.474,60.92 42.973,60.06L43.147,59.811C43.58,59.296 43.552,58.544 43.082,58.073C42.909,57.901 42.694,57.786 42.457,57.734L42.212,57.703C41.163,57.667 40.414,56.723 40.561,55.729L40.632,55.43C40.79,54.955 40.677,54.447 40.331,54.1C40.073,53.842 39.724,53.714 39.364,53.731L39.093,53.772C37.497,54.178 36.353,52.368 37.24,51.116L37.445,50.874L43.998,44.321C44.336,43.983 44.336,43.436 43.998,43.098C43.709,42.809 43.266,42.767 42.932,42.974L42.776,43.098L29.94,55.934C29.101,56.773 27.718,56.526 27.191,55.524L27.077,55.258L26.112,52.362C26.057,52.195 25.974,52.036 25.87,51.893L25.661,51.655C24.905,50.899 23.796,50.707 22.862,51.081L22.715,51.15L23.368,51.807C23.861,52.3 24.192,52.929 24.321,53.609L24.374,54.022L24.89,61.765C24.905,61.995 24.897,62.224 24.866,62.449L24.805,62.784C24.792,62.84 24.776,62.898 24.757,62.955C24.63,63.388 24.432,63.775 24.165,64.118L23.884,64.435L19.148,69.172C18.472,69.847 17.378,69.847 16.703,69.172C16.102,68.571 16.036,67.64 16.503,66.966L16.703,66.727L20.241,63.189C8.147,58.165 0,46.292 0,32.848C0,14.705 14.705,0 32.848,0ZM32.848,3.458C16.615,3.458 3.458,16.615 3.458,32.848C3.458,44.777 10.627,55.324 21.298,59.882L20.924,54.253L19.549,52.878C18.524,51.853 18.552,50.2 19.571,49.188C21.813,46.97 25.354,46.861 27.723,48.858L28.141,49.245C28.596,49.701 28.963,50.237 29.221,50.823L29.393,51.271L29.473,51.507L40.331,40.653C41.913,39.071 44.417,38.972 46.115,40.356L46.443,40.653C48.026,42.236 48.125,44.74 46.74,46.437L46.443,46.766L42.103,51.101L42.401,51.318L42.776,51.655C43.478,52.357 43.92,53.236 44.086,54.165L44.147,54.675L44.285,54.737C44.587,54.886 44.874,55.069 45.142,55.283L45.527,55.628C46.371,56.473 46.831,57.558 46.902,58.667C56.222,53.596 62.238,43.775 62.238,32.848C62.238,16.615 49.081,3.458 32.848,3.458ZM22.475,27.661C23.324,27.661 24.029,28.273 24.176,29.079L24.204,29.39L24.204,32.848C24.204,33.803 23.43,34.577 22.475,34.577C21.626,34.577 20.92,33.965 20.774,33.159L20.746,32.848L20.746,29.39C20.746,28.435 21.52,27.661 22.475,27.661ZM43.221,24.204C44.07,24.204 44.776,24.815 44.922,25.622L44.95,25.933L44.95,28.848C44.95,29.803 44.176,30.577 43.221,30.577C42.372,30.577 41.666,29.965 41.52,29.159L41.492,28.848L41.492,25.933C41.492,24.978 42.266,24.204 43.221,24.204ZM20.746,20.746C22.235,20.746 24.179,21.394 26.706,22.657C27.56,23.084 27.906,24.123 27.479,24.977C27.052,25.831 26.013,26.177 25.159,25.75C23.076,24.708 21.562,24.204 20.746,24.204C19.12,24.204 17.975,24.967 17.106,26.706C16.679,27.56 15.64,27.906 14.786,27.479C13.932,27.052 13.586,26.013 14.013,25.159C15.449,22.288 17.762,20.746 20.746,20.746ZM44.95,12.102C47.934,12.102 50.247,13.644 51.683,16.515C52.11,17.369 51.763,18.408 50.909,18.835C50.055,19.262 49.017,18.916 48.59,18.062C47.721,16.323 46.576,15.56 44.95,15.56C44.134,15.56 42.62,16.064 40.536,17.106C39.682,17.533 38.644,17.187 38.217,16.333C37.79,15.479 38.136,14.44 38.99,14.013C41.517,12.75 43.461,12.102 44.95,12.102Z" fill="#4E3A50"/>
<path d="M16.386,67.354C15.525,69.507 16.511,71.475 17.789,72.83C19.078,74.197 20.946,75.294 22.844,76.023C24.744,76.752 26.867,77.185 28.739,77.054C30.569,76.926 32.651,76.19 33.499,74.072L30.27,72.78C30.151,73.077 29.764,73.495 28.496,73.584C27.272,73.67 25.67,73.382 24.09,72.776C22.509,72.169 21.143,71.317 20.319,70.443C19.483,69.557 19.476,68.993 19.615,68.646L16.386,67.354Z" fill="#4E3A50"/>
</svg>
