<svg width="82" height="68" viewBox="0 0 82 68" fill="none" xmlns="http://www.w3.org/2000/svg" xmlns:xlink="http://www.w3.org/1999/xlink">
<path d="M3.893,0.92L75.912,0.92C78.574,0.92 80.751,3.097 80.751,5.759L80.751,61.583C80.751,64.245 78.574,66.421 75.912,66.421L3.893,66.421C1.231,66.421 -0.946,64.245 -0.946,61.583L-0.946,5.759C-0.946,3.097 1.231,0.92 3.893,0.92Z" clip-rule="evenodd" fill-rule="evenodd" fill="#FFFFFF"/>
<path d="M80.701,62.317L9.665,62.317C7.774,62.317 6.12,61.222 5.323,59.618C5,58.971 4.826,58.249 4.826,57.478L4.826,1.654C4.826,1.405 4.838,1.169 4.876,0.933L3.893,0.933C1.231,0.933 -0.946,3.109 -0.946,5.771L-0.946,61.595C-0.946,64.257 1.231,66.434 3.893,66.434L5.323,66.434L75.912,66.434C78.338,66.434 80.353,64.63 80.701,62.317Z" clip-rule="evenodd" fill-rule="evenodd" fill="#E4E1E8"/>
<path d="M22.526,4.789L57.292,4.789C58.324,4.789 59.157,5.635 59.157,6.655L59.157,7.239C59.157,8.272 58.312,9.105 57.292,9.105L22.526,9.105C21.493,9.105 20.66,8.259 20.66,7.239L20.66,6.655C20.66,5.635 21.506,4.789 22.526,4.789Z" clip-rule="evenodd" fill-rule="evenodd" fill="#070725"/>
</svg>
