<svg width="254" height="38" viewBox="0 0 254 38" fill="none" xmlns="http://www.w3.org/2000/svg" xmlns:xlink="http://www.w3.org/1999/xlink">
<path d="M53.565,-0.281L235.151,-0.281C245.295,-0.281 253.593,8.016 253.593,18.161C253.593,28.306 245.295,36.603 235.151,36.603L53.565,36.603C43.42,36.603 35.123,28.306 35.123,18.161C35.123,8.016 43.42,-0.281 53.565,-0.281Z" clip-rule="evenodd" fill-rule="evenodd" fill="#101537"/>
<path d="M18.899,-0.281L103.017,-0.281C113.162,-0.281 121.459,8.016 121.459,18.161C121.459,28.306 113.162,36.603 103.017,36.603L18.899,36.603C8.754,36.603 0.457,28.306 0.457,18.161C0.457,8.016 8.774,-0.281 18.899,-0.281Z" clip-rule="evenodd" fill-rule="evenodd" fill="#070725"/>
</svg>
