<svg width="202" height="132" viewBox="0 0 202 132" fill="none" xmlns="http://www.w3.org/2000/svg" xmlns:xlink="http://www.w3.org/1999/xlink">
<path d="M189.913,-0.542L2.352,-0.542C0.76,-0.542 -0.546,0.764 -0.546,2.344L-0.546,127.774C-0.546,129.366 0.76,130.672 2.352,130.672L189.913,130.672C191.505,130.672 192.799,129.366 192.799,127.774L192.799,2.356C192.811,0.764 191.505,-0.542 189.913,-0.542Z" clip-rule="evenodd" fill-rule="evenodd" fill="#00000F"/>
<path d="M199.092,-0.542L11.519,-0.542C9.927,-0.542 8.633,0.764 8.633,2.344L8.633,127.774C8.633,129.366 9.939,130.672 11.519,130.672L199.08,130.672C200.672,130.672 201.978,129.366 201.978,127.774L201.978,2.356C201.978,0.764 200.672,-0.542 199.092,-0.542Z" clip-rule="evenodd" fill-rule="evenodd" fill="#3B405F"/>
<path d="M197.525,1.337L13.098,1.337C12.041,1.337 11.183,2.208 11.183,3.252L11.183,116.356C11.183,117.016 11.718,117.55 12.377,117.55L198.246,117.55C198.906,117.55 199.44,117.016 199.44,116.356L199.44,3.252C199.44,2.208 198.57,1.337 197.525,1.337Z" clip-rule="evenodd" fill-rule="evenodd" fill="#101537"/>
<path d="M194.017,6.761L16.594,6.761L16.594,112.128L194.017,112.128L194.017,6.761Z" fill="#044A06"/>
<path d="M194.627,6.761L16.594,6.761L16.594,12.818L194.627,12.818L194.627,6.761Z" fill="#FFFFFF"/>
<path d="M194.627,106.068L16.594,106.068L16.594,112.126L194.627,112.126L194.627,106.068Z" fill="#FFFFFF"/>
<path d="M62.43,8.042L17.713,8.042L17.713,11.525L62.43,11.525L62.43,8.042Z" fill="#E4E1E8"/>
<path d="M109.249,8.042L64.532,8.042L64.532,11.525L109.249,11.525L109.249,8.042Z" fill="#E4E1E8"/>
</svg>
