<svg width="82" height="66" viewBox="0 0 82 66" fill="none" xmlns="http://www.w3.org/2000/svg" xmlns:xlink="http://www.w3.org/1999/xlink">
<path d="M3.893,-0.107L75.912,-0.107C78.574,-0.107 80.751,2.069 80.751,4.731L80.751,60.555C80.751,63.217 78.574,65.394 75.912,65.394L3.893,65.394C1.231,65.394 -0.946,63.217 -0.946,60.555L-0.946,4.731C-0.946,2.082 1.231,-0.107 3.893,-0.107Z" clip-rule="evenodd" fill-rule="evenodd" fill="#FFFFFF"/>
<path d="M80.701,61.289L9.665,61.289C7.774,61.289 6.12,60.181 5.323,58.589C5,57.943 4.826,57.221 4.826,56.45L4.826,0.626C4.826,0.377 4.838,0.141 4.876,-0.096L3.893,-0.096C1.231,-0.096 -0.946,2.081 -0.946,4.743L-0.946,60.567C-0.946,63.229 1.231,65.406 3.893,65.406L5.323,65.406L75.912,65.406C78.338,65.406 80.353,63.602 80.701,61.289Z" clip-rule="evenodd" fill-rule="evenodd" fill="#E4E1E8"/>
<path d="M22.526,3.761L57.292,3.761C58.324,3.761 59.157,4.594 59.157,5.627L59.157,6.211C59.157,7.244 58.312,8.077 57.292,8.077L22.526,8.077C21.493,8.077 20.66,7.244 20.66,6.211L20.66,5.627C20.66,4.607 21.506,3.761 22.526,3.761Z" clip-rule="evenodd" fill-rule="evenodd" fill="#070725"/>
</svg>
