<svg width="546" height="620" viewBox="0 0 546 620" fill="none" xmlns="http://www.w3.org/2000/svg" xmlns:xlink="http://www.w3.org/1999/xlink">
<path d="M367.082,225.086L-0.096,225.086L-0.096,266.538L367.082,266.538L367.082,225.086Z" fill="#F5F5F5"/>
<path d="M75.385,245.137L78.67,245.137L79.701,247.287L80.408,247.287L77.123,240.438L76.931,240.438L73.646,247.287L74.354,247.287L75.385,245.137ZM77.035,241.719L78.36,244.503L75.65,244.503L77.035,241.719Z" fill="#01008A"/>
<path d="M80.895,248.762L73.117,248.762L73.117,249.307L80.895,249.307L80.895,248.762Z" fill="#01008A"/>
<path d="M27.039,240.039L26.523,240.039C25.778,240.091 25.081,240.425 24.572,240.972C24.063,241.519 23.781,242.238 23.783,242.985C24.15,245.16 25.096,247.196 26.523,248.878C26.523,248.878 26.715,249.231 27.039,248.878C28.466,247.196 29.412,245.16 29.779,242.985C29.78,242.238 29.499,241.519 28.99,240.972C28.481,240.425 27.784,240.091 27.039,240.039L27.039,240.039ZM26.774,244.709C26.452,244.709 26.139,244.613 25.872,244.435C25.605,244.256 25.397,244.002 25.275,243.705C25.153,243.408 25.122,243.081 25.185,242.767C25.249,242.452 25.405,242.163 25.633,241.937C25.861,241.711 26.151,241.558 26.467,241.497C26.782,241.436 27.108,241.471 27.404,241.596C27.7,241.72 27.952,241.93 28.128,242.199C28.304,242.467 28.397,242.782 28.394,243.103C28.394,243.526 28.227,243.933 27.929,244.233C27.631,244.534 27.226,244.705 26.803,244.709L26.774,244.709Z" fill="#01008A"/>
<path d="M63.482,246.933C63.482,247.375 63.306,247.798 62.994,248.11C62.682,248.423 62.259,248.598 61.817,248.598C61.376,248.598 60.952,248.423 60.64,248.11C60.328,247.798 60.153,247.375 60.153,246.933L60.153,241.557C60.153,241.271 60.266,240.998 60.468,240.796C60.669,240.595 60.943,240.481 61.228,240.481C61.513,240.481 61.787,240.595 61.988,240.796C62.19,240.998 62.303,241.271 62.303,241.557L62.303,246.108C62.274,246.244 62.2,246.365 62.093,246.453C61.986,246.541 61.853,246.591 61.714,246.595C61.574,246.592 61.438,246.543 61.329,246.455C61.22,246.367 61.143,246.245 61.11,246.108L61.11,242.514L60.712,242.514L60.712,245.873L60.712,246.035C60.747,246.273 60.866,246.491 61.046,246.65C61.227,246.81 61.459,246.899 61.699,246.904C61.939,246.897 62.169,246.806 62.349,246.647C62.53,246.488 62.649,246.272 62.686,246.035L62.686,245.946C62.688,245.922 62.688,245.897 62.686,245.873L62.686,241.454C62.686,241.063 62.531,240.688 62.255,240.412C61.979,240.136 61.604,239.98 61.213,239.98C60.823,239.98 60.448,240.136 60.172,240.412C59.895,240.688 59.74,241.063 59.74,241.454L59.74,247.081C59.791,247.593 60.03,248.067 60.411,248.413C60.792,248.758 61.288,248.95 61.803,248.951C62.316,248.953 62.812,248.762 63.191,248.416C63.571,248.069 63.806,247.593 63.85,247.081L63.85,247.081L63.85,242.514L63.452,242.514L63.482,246.933Z" fill="#01008A"/>
<path d="M45.776,242.838L44.303,239.715L42.756,242.838L39.324,243.339L41.814,245.769L41.224,249.187L44.303,247.566L47.382,249.187L46.793,245.769L49.282,243.339L45.776,242.838ZM46.66,248.273L44.244,247.007L41.828,248.273L42.27,245.725L42.27,245.592L40.296,243.692L42.992,243.294L44.2,240.849L45.408,243.294L48.104,243.692L46.292,245.46L46.189,245.563L46.66,248.273Z" fill="#01008A"/>
<path d="M96.625,241.543L90.262,241.543L90.262,248.319L96.625,248.319L96.625,241.543Z" fill="#01008A"/>
<path d="M120.8,245.167L122.745,243.223L122.98,243.458L120.8,245.638L118.605,243.458L118.841,243.223L120.8,245.167Z" fill="#01008A"/>
<path d="M368.556,266.527C368.556,263.963 368.424,161.526 368.246,-0.262L368.556,0.048L0.067,0.121L0.45,-0.262C0.45,95.385 0.45,186.097 0.45,266.527L0.097,266.187L368.616,266.527L0.097,266.879L-0.242,266.879L-0.242,266.527C-0.242,186.097 -0.242,95.385 -0.242,-0.262L-0.242,-0.645L0.17,-0.645L368.66,-0.645L368.968,-0.645L368.968,-0.335C368.674,161.496 368.556,263.963 368.556,266.527Z" fill="#01008A"/>
<path d="M481.407,534.375L472.893,534.375L472.893,538.956L481.407,538.956L481.407,534.375Z" fill="#E0E0E0"/>
<path d="M478.49,418.918L458.824,418.918L458.824,516.45L478.49,516.45L478.49,418.918Z" fill="#EBEBEB"/>
<path d="M513.284,424.059L420.981,424.059C416.266,424.059 411.743,422.186 408.409,418.851C405.074,415.517 403.201,410.995 403.201,406.279L403.201,406.279C403.199,403.943 403.658,401.629 404.55,399.47C405.443,397.312 406.752,395.35 408.404,393.697C410.055,392.045 412.016,390.734 414.174,389.839C416.332,388.945 418.645,388.484 420.981,388.484L513.284,388.484C515.62,388.484 517.933,388.945 520.091,389.839C522.25,390.734 524.21,392.045 525.861,393.697C527.513,395.35 528.822,397.312 529.715,399.47C530.607,401.629 531.066,403.943 531.064,406.279L531.064,406.279C531.064,408.614 530.604,410.926 529.71,413.083C528.817,415.24 527.507,417.2 525.856,418.851C524.205,420.502 522.245,421.812 520.088,422.706C517.931,423.599 515.619,424.059 513.284,424.059Z" fill="#455A64"/>
<path d="M474.954,516.449L462.492,516.449L462.492,585.684L474.954,585.684L474.954,516.449Z" fill="#E0E0E0"/>
<path d="M418.742,619.432C416.297,619.741 523.758,619.432 523.758,619.432C523.758,619.432 477.916,614.305 474.955,585.684L462.493,585.684C462.493,585.684 459.355,614.261 418.742,619.432Z" fill="#E0E0E0"/>
<path d="M516.937,424.059C516.937,424.265 495.592,424.442 469.268,424.442C442.944,424.442 421.6,424.265 421.6,424.059C421.6,423.853 442.944,423.676 469.268,423.676C495.592,423.676 516.937,423.853 516.937,424.059Z" fill="#01008A"/>
<path d="M478.476,516.508C471.877,517.018 465.248,517.018 458.648,516.508C465.253,515.997 471.886,515.997 478.491,516.508L478.476,516.508Z" fill="#01008A"/>
<path d="M481.408,544.083C480.742,544.083 480.104,543.82 479.632,543.35C479.16,542.881 478.893,542.244 478.889,541.579L478.889,531.753C478.893,531.086 479.159,530.448 479.631,529.976C480.102,529.505 480.741,529.238 481.408,529.234L481.408,529.234C482.075,529.238 482.713,529.505 483.185,529.976C483.656,530.448 483.923,531.086 483.927,531.753L483.927,541.549C483.929,541.881 483.865,542.21 483.739,542.518C483.613,542.825 483.428,543.104 483.194,543.34C482.96,543.575 482.682,543.762 482.375,543.89C482.068,544.017 481.74,544.083 481.408,544.083Z" fill="#E0E0E0"/>
<path d="M285.002,140.431C285.002,140.431 289.318,135.703 290.629,135.6C291.94,135.496 305.36,139.518 305.36,139.518C306.916,139.813 308.368,140.508 309.573,141.536C310.781,143.009 324.053,157.372 324.053,157.372L309.322,170.364C309.322,170.364 292.029,167.256 290.526,165.444C289.023,163.632 287.816,160.73 288.92,159.817C288.176,158.543 287.827,157.076 287.919,155.604C288.161,154.567 288.461,153.544 288.817,152.54C288.817,152.54 286.21,150.669 286.107,149.373C286.075,148.674 285.905,147.988 285.606,147.355L285.002,146.353L285.002,140.431Z" fill="#FFBE9D"/>
<path d="M291.027,143.248C291.1,143.248 291.027,143.704 290.791,144.367C290.452,145.252 289.889,146.034 289.156,146.636C288.77,146.934 288.324,147.146 287.848,147.255C287.373,147.364 286.879,147.369 286.401,147.269C285.665,147.078 285.37,146.68 285.429,146.636C285.488,146.592 285.842,146.783 286.475,146.842C287.304,146.881 288.122,146.631 288.788,146.135C289.439,145.586 289.983,144.922 290.393,144.176C290.718,143.587 290.938,143.218 291.027,143.248Z" fill="#EB996E"/>
<path d="M315.435,150.627L308.394,146.207L290.363,136.691C290.363,136.691 286.784,140.168 292.838,145.176L300.292,151.069C300.292,151.069 306.921,163.221 308.335,164.105C310.919,165.326 313.564,166.413 316.26,167.361L315.435,150.627Z" fill="#FFBE9D"/>
<path d="M316.953,167.698C316.705,167.681 316.462,167.627 316.231,167.536C315.759,167.404 315.067,167.212 314.183,166.903C313.299,166.593 312.239,166.225 311.031,165.68C310.384,165.399 309.754,165.079 309.145,164.723C308.435,164.322 307.813,163.78 307.319,163.132C305.06,159.969 303.027,156.652 301.235,153.203L300.41,151.73C300.139,151.266 299.779,150.86 299.349,150.537C298.51,149.8 297.567,149.064 296.639,148.357C294.639,146.909 292.725,145.345 290.909,143.672C289.916,142.75 289.272,141.514 289.084,140.173C288.896,138.831 289.177,137.466 289.878,136.307L290.025,136.086L290.275,136.233C297.479,140.299 303.695,144.011 308.394,146.191C310.677,147.443 312.416,148.563 313.609,149.314L314.979,150.213C315.141,150.317 315.294,150.435 315.435,150.566C315.254,150.505 315.081,150.42 314.92,150.316L313.447,149.506C312.209,148.799 310.427,147.723 308.144,146.559C303.4,144.482 297.125,140.814 289.922,136.778L290.305,136.69C289.69,137.689 289.46,138.877 289.657,140.034C289.853,141.249 290.425,142.372 291.292,143.245C293.097,144.883 294.985,146.426 296.948,147.871C297.891,148.607 298.819,149.344 299.688,150.08C299.91,150.275 300.122,150.481 300.322,150.699C300.53,150.918 300.713,151.16 300.867,151.421C301.132,151.921 301.412,152.393 301.677,152.894C303.421,156.329 305.389,159.646 307.569,162.822C308.512,163.939 309.716,164.804 311.075,165.341C312.254,165.901 313.299,166.313 314.169,166.652L316.157,167.389C316.429,167.475 316.694,167.578 316.953,167.698L316.953,167.698Z" fill="#EB996E"/>
<path d="M511.443,116.331C511.193,111.911 510.647,90.67 510.382,87.429C510.112,83.002 508.206,78.833 505.035,75.733C501.824,72.786 496.83,71.461 492.897,73.39C491.617,73.716 490.446,74.374 489.502,75.297C488.557,76.22 487.874,77.377 487.52,78.649C478.564,110.497 479.978,144.407 476.016,177.345C487.712,179.245 503.444,178.465 515.273,177.846C515.273,151.552 513.049,144.731 511.443,116.331Z" fill="#070638"/>
<path d="M506.507,161.246C506.44,160.966 506.411,160.679 506.419,160.392C506.419,159.743 506.345,158.918 506.301,157.946C506.227,155.722 506.139,152.673 506.021,148.961C505.859,141.286 505.638,130.842 505.402,119.308C505.314,113.533 505.226,108.024 505.152,102.986C505.152,100.482 505.152,98.095 505.064,95.871C505.104,93.815 504.961,91.759 504.636,89.728C504.455,88.267 503.953,86.863 503.166,85.618C502.379,84.372 501.327,83.316 500.085,82.525C499.13,82.012 498.084,81.692 497.006,81.582L497.212,81.582C497.428,81.561 497.645,81.561 497.86,81.582C498.689,81.652 499.496,81.887 500.232,82.275C501.396,82.907 502.403,83.793 503.178,84.867C504.189,86.291 504.873,87.921 505.181,89.64C505.536,91.698 505.708,93.783 505.697,95.871C505.697,98.11 505.8,100.482 505.859,102.986C505.962,108.024 506.065,113.533 506.168,119.322C506.33,130.842 506.463,141.286 506.566,148.961C506.566,152.687 506.566,155.722 506.566,157.961C506.566,158.948 506.566,159.758 506.566,160.406C506.58,160.688 506.56,160.969 506.507,161.246L506.507,161.246Z" fill="#455A64"/>
<path d="M495.872,149.169C495.764,148.537 495.72,147.895 495.74,147.254C495.74,146.017 495.666,144.22 495.666,142.01C495.666,137.591 495.754,131.492 495.916,124.76C496.078,118.028 496.27,112.077 496.403,107.496C496.403,105.419 496.52,103.666 496.579,102.281C496.568,101.635 496.617,100.989 496.727,100.352C496.846,100.987 496.896,101.635 496.874,102.281C496.874,103.519 496.874,105.227 496.948,107.511C496.948,111.93 496.859,118.028 496.682,124.775C496.506,131.522 496.329,137.444 496.211,142.025C496.137,144.102 496.078,145.855 496.034,147.254C496.047,147.896 495.992,148.538 495.872,149.169L495.872,149.169Z" fill="#455A64"/>
<path d="M456.805,48.896C465.644,47.983 473.009,51.842 479.992,57.189C486.985,62.696 492.125,70.212 494.722,78.726C497.506,87.564 497.551,100.159 494.383,108.894C492.966,113.03 490.567,116.761 487.39,119.766C484.214,122.77 480.356,124.959 476.147,126.144C463.935,129.591 450.177,128.191 440.572,119.898C430.968,111.605 426.033,98.597 426.372,85.914C426.482,77.099 429.369,68.542 434.621,61.461C437.263,57.966 440.595,55.051 444.412,52.9C448.229,50.748 452.447,49.405 456.805,48.955Z" fill="#070638"/>
<path d="M479.565,80.02C478.504,76.617 479.241,72.934 478.976,69.384C478.372,61.562 472.538,54.948 465.512,51.442C458.971,48.201 450.781,48.275 442.473,50.367C436.742,51.698 431.509,54.636 427.389,58.837C424.758,61.701 422.85,65.153 421.825,68.904C420.8,72.656 420.687,76.598 421.496,80.403L461.52,77.221C465.026,80.535 468.635,83.908 473.024,85.912C474.286,86.571 475.696,86.896 477.12,86.855C477.827,86.814 478.508,86.572 479.082,86.157C479.656,85.742 480.1,85.171 480.36,84.512C480.743,83.025 480.022,81.493 479.565,80.02Z" fill="#070638"/>
<path d="M440.971,61.328L475.102,70.932C476.709,71.144 478.178,71.953 479.218,73.197C480.257,74.441 480.791,76.03 480.715,77.649L475.397,152.525C475.04,157.645 472.999,162.503 469.593,166.343L466.013,170.335C457.853,179.541 442.665,177.568 437.627,166.343C437.322,165.701 437.099,165.023 436.964,164.325C436.861,163.759 436.787,163.189 436.743,162.616C436.393,158.826 436.443,155.009 436.891,151.229C436.994,144.541 437.068,141.801 437.053,141.86C437.038,141.919 423.014,139.15 420.569,120.648C419.361,111.456 420.23,96.46 421.32,84.204C422.248,73.112 429.938,59.854 440.971,61.328Z" fill="#FFBE9D"/>
<path d="M425.607,98.586C425.583,99.201 425.801,99.802 426.214,100.259C426.627,100.716 427.202,100.993 427.817,101.031C428.116,101.061 428.419,101.032 428.706,100.944C428.994,100.857 429.262,100.713 429.493,100.521C429.725,100.329 429.916,100.093 430.056,99.826C430.195,99.56 430.281,99.268 430.306,98.969C430.331,98.353 430.113,97.753 429.7,97.296C429.287,96.839 428.712,96.561 428.097,96.523C427.797,96.493 427.495,96.522 427.207,96.61C426.919,96.697 426.652,96.841 426.42,97.033C426.189,97.225 425.997,97.461 425.858,97.728C425.718,97.994 425.633,98.286 425.607,98.586L425.607,98.586Z" fill="#070638"/>
<path d="M424.311,92.071C424.591,92.395 426.417,91.113 428.966,91.187C431.514,91.26 433.385,92.66 433.621,92.277C433.856,91.894 433.473,91.584 432.678,90.966C431.596,90.181 430.302,89.745 428.966,89.714C427.644,89.675 426.344,90.057 425.254,90.804C424.458,91.378 424.178,91.938 424.311,92.071Z" fill="#070638"/>
<path d="M448.336,99.496C448.312,100.111 448.529,100.712 448.942,101.169C449.355,101.626 449.931,101.903 450.545,101.941C450.845,101.974 451.148,101.946 451.437,101.859C451.726,101.772 451.994,101.628 452.226,101.436C452.458,101.244 452.649,101.007 452.788,100.739C452.927,100.472 453.011,100.179 453.035,99.879C453.055,99.264 452.836,98.666 452.424,98.21C452.012,97.753 451.439,97.475 450.825,97.433C450.526,97.403 450.224,97.433 449.936,97.52C449.648,97.608 449.38,97.752 449.149,97.943C448.917,98.135 448.726,98.371 448.586,98.638C448.447,98.904 448.362,99.196 448.336,99.496L448.336,99.496Z" fill="#070638"/>
<path d="M448.424,93.027C448.704,93.351 450.531,92.07 453.065,92.143C455.598,92.217 457.484,93.617 457.72,93.234C457.955,92.851 457.587,92.541 456.777,91.922C455.696,91.136 454.401,90.7 453.065,90.67C451.743,90.634 450.444,91.015 449.353,91.76C448.557,92.335 448.336,92.895 448.424,93.027Z" fill="#070638"/>
<path d="M439.497,111.808C438.168,111.354 436.787,111.067 435.387,110.954C434.739,110.866 434.135,110.733 434.032,110.276C433.99,109.608 434.16,108.943 434.518,108.376C435.166,106.815 435.844,105.18 436.566,103.486C439.424,96.518 441.501,90.788 441.221,90.67C440.941,90.552 438.392,96.105 435.549,103.073C434.857,104.797 434.194,106.432 433.575,107.993C433.149,108.764 433.008,109.662 433.178,110.527C433.263,110.759 433.4,110.969 433.579,111.14C433.757,111.311 433.973,111.439 434.209,111.514C434.569,111.616 434.94,111.675 435.314,111.691C436.697,111.908 438.103,111.947 439.497,111.808L439.497,111.808Z" fill="#070638"/>
<path d="M436.995,141.834C445.659,142.21 454.258,140.17 461.831,135.941C461.831,135.941 455.29,148.521 436.906,146.253L436.995,141.834Z" fill="#EB996E"/>
<path d="M440.47,117.971C440.965,117.372 441.606,116.912 442.331,116.633C443.056,116.354 443.841,116.267 444.609,116.38C445.168,116.443 445.709,116.619 446.198,116.897C446.686,117.176 447.113,117.551 447.452,118C447.782,118.432 447.972,118.954 447.996,119.497C448.02,120.039 447.876,120.576 447.585,121.035C447.163,121.48 446.619,121.79 446.02,121.923C445.422,122.057 444.797,122.009 444.226,121.786C443.038,121.331 441.951,120.645 441.03,119.768C440.749,119.552 440.509,119.288 440.323,118.987C440.228,118.848 440.178,118.684 440.178,118.516C440.178,118.348 440.228,118.183 440.323,118.044Z" fill="#EB996E"/>
<path d="M446.981,113.77C446.569,113.77 446.495,116.495 444.035,118.38C441.575,120.266 438.702,119.854 438.658,120.281C438.614,120.708 439.306,120.84 440.544,120.899C442.144,120.942 443.708,120.421 444.963,119.426C446.195,118.482 447.005,117.09 447.217,115.552C447.467,114.447 447.173,113.755 446.981,113.77Z" fill="#070638"/>
<path d="M449.059,85.514C449.28,86.221 451.828,85.956 454.804,86.398C457.78,86.84 460.166,87.709 460.578,87.105C460.755,86.811 460.357,86.148 459.4,85.455C458.134,84.587 456.68,84.031 455.157,83.835C453.634,83.615 452.08,83.757 450.62,84.248C449.516,84.66 448.956,85.19 449.059,85.514Z" fill="#070638"/>
<path d="M425.341,80.98C425.783,81.569 427.536,80.98 429.642,80.98C431.749,80.98 433.531,81.466 433.944,80.877C434.135,80.582 433.87,80.008 433.104,79.404C432.087,78.706 430.876,78.345 429.642,78.373C428.406,78.354 427.195,78.725 426.181,79.433C425.415,80.111 425.15,80.7 425.341,80.98Z" fill="#070638"/>
<path d="M486.253,75.088C483.307,64.319 468.576,48.926 457.469,49.191L439.232,59.046C439.672,62.101 440.93,64.98 442.872,67.379C444.814,69.777 447.369,71.606 450.266,72.672C453.359,73.776 457.13,74.145 458.868,77.003C460.607,79.86 459.355,83.808 461.004,86.725C463.273,90.776 470.005,90.893 471.655,95.254C472.376,97.139 471.861,99.349 472.612,101.234C473.629,103.753 479.712,107.127 482.32,106.449C484.927,105.772 485.148,101.367 486.091,99.084C487.269,96.541 487.535,93.669 486.842,90.952C485.958,85.708 487.638,80.228 486.253,75.088Z" fill="#070638"/>
<path d="M474.617,108.273C474.617,106.903 476.34,103.721 477.695,103.544C481.319,103.073 487.83,103.544 487.653,112.721C487.403,125.272 474.852,122.429 474.838,122.075C474.823,121.722 474.484,113.016 474.617,108.273Z" fill="#FFBE9D"/>
<path d="M478.756,117.396C478.756,117.396 478.976,117.558 479.345,117.734C479.86,117.967 480.446,117.994 480.98,117.808C482.32,117.337 483.469,115.26 483.573,112.991C483.627,111.918 483.44,110.846 483.027,109.853C482.918,109.46 482.715,109.099 482.436,108.801C482.156,108.503 481.808,108.278 481.422,108.145C481.171,108.069 480.901,108.086 480.661,108.191C480.42,108.296 480.226,108.483 480.111,108.719C479.934,109.058 480.008,109.308 479.949,109.338C479.89,109.367 479.684,109.117 479.787,108.601C479.869,108.292 480.05,108.018 480.302,107.821C480.656,107.568 481.095,107.462 481.525,107.526C482.035,107.642 482.508,107.885 482.9,108.233C483.291,108.581 483.588,109.021 483.764,109.515C484.281,110.613 484.519,111.823 484.456,113.035C484.324,115.569 482.983,117.911 481.157,118.397C480.818,118.485 480.465,118.498 480.121,118.434C479.778,118.371 479.452,118.232 479.168,118.029C478.785,117.705 478.711,117.425 478.756,117.396Z" fill="#EB996E"/>
<path d="M496.535,92.498C496.98,91.305 497.219,90.045 497.242,88.771C497.713,82.586 496.078,76.424 492.602,71.286C491.955,70.172 491.123,69.176 490.142,68.34C489.892,68.487 493.825,72.921 495.593,79.786C497.36,86.65 496.256,92.483 496.535,92.498Z" fill="#FF3874"/>
<path d="M443.122,55.434C441.648,60.457 433.458,66.482 429.864,70.165C422.882,77.309 421.585,78.355 420.186,101.099C417.272,93.8 415.985,85.953 416.415,78.105C417.019,71.521 419.985,65.377 424.767,60.811C427.197,58.548 430.121,56.883 433.308,55.95C436.494,55.017 439.855,54.84 443.122,55.434Z" fill="#070638"/>
<path d="M492.647,75.335C491.94,75.539 491.215,75.672 490.481,75.733C489.789,75.836 488.935,75.954 487.918,76.013C486.902,76.072 485.782,76.19 484.516,76.175C481.561,76.233 478.607,76.07 475.677,75.689C472.069,75.201 468.507,74.418 465.027,73.347C461.563,72.231 458.194,70.842 454.951,69.193C452.317,67.817 449.786,66.252 447.379,64.508C446.333,63.801 445.464,63.035 444.684,62.431C443.903,61.827 443.211,61.223 442.739,60.737C442.177,60.261 441.654,59.738 441.178,59.176C441.801,59.57 442.387,60.018 442.931,60.516C443.461,60.973 444.124,61.518 444.934,62.092C445.744,62.667 446.628,63.404 447.689,64.081C450.116,65.722 452.65,67.199 455.275,68.5C458.492,70.105 461.826,71.464 465.248,72.566C468.692,73.609 472.207,74.402 475.765,74.938C478.694,75.344 481.647,75.555 484.604,75.571C485.856,75.571 486.99,75.571 487.992,75.571C488.994,75.571 489.848,75.497 490.54,75.424C491.239,75.337 491.943,75.307 492.647,75.335Z" fill="#455A64"/>
<path d="M493.368,84.41C492.889,84.549 492.394,84.633 491.895,84.66C490.541,84.82 489.179,84.903 487.815,84.911C478.769,85.002 469.867,82.646 462.051,78.09C460.878,77.409 459.742,76.667 458.648,75.866C458.219,75.601 457.827,75.279 457.484,74.908C457.558,74.805 459.311,76.013 462.316,77.634C470.166,81.873 478.911,84.185 487.83,84.38C491.232,84.469 493.354,84.277 493.368,84.41Z" fill="#455A64"/>
<path d="M496.505,84.898C496.691,85.516 496.795,86.154 496.814,86.799C496.932,88.051 497.006,89.848 496.991,92.072C496.956,94.682 496.789,97.287 496.49,99.88C496.151,103.065 495.515,106.211 494.59,109.278C492.745,114.904 488.98,119.701 483.954,122.83C482.437,123.735 480.827,124.476 479.152,125.04C478.549,125.276 477.922,125.444 477.281,125.54C477.845,125.225 478.437,124.964 479.049,124.76C480.655,124.094 482.202,123.296 483.674,122.373C485.838,120.987 487.755,119.25 489.346,117.232C491.342,114.81 492.87,112.038 493.853,109.057C494.768,106.031 495.414,102.931 495.783,99.791C496.151,96.845 496.343,94.267 496.446,92.058C496.549,89.848 496.549,88.051 496.446,86.828C496.418,86.184 496.437,85.539 496.505,84.898L496.505,84.898Z" fill="#455A64"/>
<path d="M324.097,157.371L360.512,194.198C365.299,193.093 424.06,157.975 424.06,157.975L433.355,203.169C433.355,203.169 373.21,230.863 356.667,227.504C353.957,226.959 349.523,226.605 346.724,223.085C333.437,206.012 308.395,170.187 308.395,170.187L324.097,157.371Z" fill="#FFBE9D"/>
<path d="M371.854,495.281L389.825,534.244L418.83,520.839L400.24,472.625L371.854,495.281Z" fill="#FFBE9D"/>
<path d="M386.467,531.635L396.97,551.669C396.97,551.669 370.043,579.466 372.576,585.741L435.771,555.44L418.404,515.27L386.467,531.635Z" fill="#455A64"/>
<path d="M415.162,539.561C415.857,539.473 416.56,539.635 417.146,540.018C417.731,540.402 418.162,540.981 418.359,541.652C418.492,542.344 418.354,543.061 417.973,543.654C417.591,544.246 416.996,544.669 416.311,544.834C415.572,544.963 414.81,544.805 414.183,544.392C413.556,543.978 413.111,543.341 412.938,542.61C412.875,541.875 413.099,541.143 413.563,540.57C414.027,539.996 414.695,539.624 415.428,539.531Z" fill="#E0E0E0"/>
<g opacity="0.6">
<g opacity="0.6">
<path d="M435.77,555.38L433.134,550.387L373.533,581.321C373.533,581.321 371.309,583.899 372.576,585.741L435.77,555.38Z" fill="#FFFFFF"/>
</g>
</g>
<path d="M395.747,551.862C395.909,552.171 397.515,551.567 399.519,551.862C401.522,552.156 402.936,553.04 403.157,552.775C403.378,552.51 402.067,550.963 399.651,550.683C397.235,550.403 395.541,551.582 395.747,551.862Z" fill="#01008A"/>
<path d="M390.43,557.753C390.504,558.091 392.095,557.974 393.774,558.784C395.454,559.594 396.411,560.817 396.72,560.655C397.03,560.493 396.382,558.651 394.29,557.708C392.198,556.766 390.298,557.458 390.43,557.753Z" fill="#01008A"/>
<path d="M390.473,567.491C390.783,567.491 390.473,565.679 388.868,564.368C387.262,563.057 385.509,563.086 385.494,563.396C385.48,563.705 386.82,564.191 388.116,565.296C389.413,566.401 390.149,567.609 390.473,567.491Z" fill="#01008A"/>
<path d="M392.742,544.127C393.008,544.348 394.215,543.243 396.013,542.522C397.81,541.8 399.43,541.697 399.474,541.358C399.518,541.019 397.677,540.548 395.556,541.358C393.435,542.168 392.462,543.95 392.742,544.127Z" fill="#01008A"/>
<path d="M370.425,516.507L325.658,394.787C325.658,394.787 326.719,374.562 330.446,368.168C334.173,361.775 447.039,324.507 447.039,324.507C447.039,324.507 475.794,317.583 494.958,324.507C514.123,331.43 533.596,339.974 531.682,353.408C531.374,355.462 530.88,357.483 530.208,359.448C526.984,368.908 520.938,377.151 512.883,383.067C504.828,388.983 495.153,392.287 485.162,392.533L470.167,394.242L394.082,408.766C393.289,408.928 392.538,409.252 391.876,409.718C391.213,410.183 390.654,410.78 390.232,411.471C389.811,412.162 389.536,412.932 389.425,413.734C389.315,414.536 389.371,415.352 389.59,416.132L414.16,498.02C414.16,498.02 387.321,511.115 370.425,516.507Z" fill="#01008A"/>
<path d="M330.889,432.277L329.828,475.173L361.764,475.954L366.375,424.484L330.889,432.277Z" fill="#FFBE9D"/>
<path d="M329.826,469.457L328.501,493.939C328.501,493.939 292.116,507.02 291.674,513.708L361.763,514.415L363.913,470.709L329.826,469.457Z" fill="#455A64"/>
<path d="M328.177,480.14C328.072,479.729 328.072,479.299 328.177,478.888C328.414,477.727 328.918,476.637 329.651,475.706C329.88,475.355 330.164,475.042 330.49,474.778C330.707,474.601 330.964,474.479 331.239,474.423C331.513,474.366 331.797,474.377 332.066,474.454C332.222,474.501 332.364,474.583 332.484,474.692C332.604,474.802 332.698,474.937 332.759,475.087C332.863,475.363 332.863,475.666 332.759,475.942C332.555,476.392 332.308,476.821 332.022,477.223C331.477,478.048 331.021,478.873 330.328,479.801C330.104,480.073 329.815,480.284 329.488,480.415C329.162,480.546 328.807,480.594 328.457,480.552C327.806,480.464 327.185,480.222 326.646,479.845C325.676,479.212 324.782,478.471 323.979,477.636C323.606,477.25 323.257,476.842 322.933,476.413C322.562,475.987 322.29,475.484 322.138,474.94C322.076,474.638 322.123,474.324 322.272,474.054C322.42,473.784 322.66,473.576 322.948,473.467C323.23,473.392 323.525,473.382 323.81,473.438C324.096,473.494 324.366,473.615 324.598,473.791C325.268,474.31 325.867,474.914 326.38,475.588C327.103,476.511 327.689,477.533 328.119,478.623C328.302,479.006 328.407,479.421 328.428,479.845C327.714,478.458 326.871,477.141 325.909,475.912C325.405,475.307 324.832,474.763 324.2,474.292C324.062,474.179 323.9,474.1 323.726,474.059C323.553,474.018 323.372,474.017 323.198,474.056C323.053,474.118 322.937,474.234 322.874,474.379C322.811,474.524 322.806,474.688 322.86,474.837C323.017,475.255 323.252,475.64 323.552,475.971C323.87,476.377 324.21,476.765 324.568,477.135C325.338,477.91 326.187,478.601 327.102,479.197C327.54,479.506 328.045,479.708 328.575,479.786C328.789,479.818 329.008,479.791 329.208,479.708C329.407,479.625 329.581,479.489 329.709,479.315C330.299,478.564 330.858,477.621 331.389,476.84C331.658,476.484 331.895,476.105 332.096,475.706C332.243,475.338 332.096,475.117 331.875,475.014C331.241,474.778 330.623,475.426 330.196,475.971C329.244,477.207 328.557,478.627 328.177,480.14L328.177,480.14Z" fill="#01008A"/>
<path d="M350.214,491.126C350.876,491.354 351.434,491.809 351.79,492.411C352.147,493.013 352.277,493.722 352.159,494.411C351.968,495.088 351.527,495.667 350.926,496.031C350.324,496.395 349.606,496.516 348.918,496.37C348.195,496.16 347.581,495.681 347.2,495.032C346.819,494.383 346.701,493.612 346.87,492.879C347.135,492.189 347.659,491.629 348.33,491.318C349.001,491.007 349.767,490.97 350.465,491.215Z" fill="#E0E0E0"/>
<g opacity="0.6">
<g opacity="0.6">
<path d="M361.72,514.417L361.587,508.73L294.444,510.204C294.444,510.204 291.307,511.529 291.631,513.739L361.72,514.417Z" fill="#FFFFFF"/>
</g>
</g>
<path d="M327.383,493.574C327.383,493.912 329.092,494.089 330.771,495.209C332.45,496.328 333.319,497.772 333.643,497.639C333.967,497.507 333.467,495.533 331.419,494.207C329.371,492.881 327.309,493.264 327.383,493.574Z" fill="#01008A"/>
<path d="M319.987,496.535C319.913,496.874 321.386,497.463 322.535,498.922C323.684,500.38 324.008,501.868 324.347,501.868C324.686,501.868 324.922,499.923 323.463,498.141C322.005,496.358 320.002,496.211 319.987,496.535Z" fill="#01008A"/>
<path d="M315.76,505.298C316.069,505.371 316.57,503.662 315.76,501.777C314.95,499.891 313.315,499.14 313.167,499.42C313.02,499.7 313.992,500.716 314.64,502.278C315.289,503.839 315.392,505.253 315.76,505.298Z" fill="#01008A"/>
<path d="M328.074,485.322C328.221,485.631 329.797,485.175 331.727,485.322C333.657,485.469 335.159,486.103 335.336,485.808C335.513,485.513 334.084,484.335 331.801,484.144C329.517,483.952 327.912,485.042 328.074,485.322Z" fill="#01008A"/>
<path d="M349.553,313.225C349.553,313.225 330.403,311.752 328.282,332.449C326.16,353.145 316.158,449.455 316.158,449.455L368.776,453.874L375.7,354.839L447.041,324.494C447.041,324.494 362.324,310.544 349.553,313.225Z" fill="#01008A"/>
<path d="M428.42,285.234C428.42,285.234 416.812,317.789 419.022,321.413C421.231,325.037 451.105,339.988 451.105,339.988L525.834,368.684C525.834,368.684 533.509,356.472 533.509,337.749C533.509,319.027 507.524,285.234 507.524,285.234L428.42,285.234Z" fill="#01008A"/>
<path d="M450.575,322.801C450.463,322.872 450.345,322.931 450.221,322.978L449.161,323.478L445.021,325.32L429.495,332.081L375.86,355.164L376.096,354.825C375.419,364.607 374.623,375.183 373.931,386.113C372.119,411.656 370.44,435.211 369.114,453.875L369.114,454.214L368.775,454.214L336.205,451.356L327.234,450.516L324.892,450.28C324.62,450.262 324.349,450.223 324.082,450.163C324.352,450.14 324.623,450.14 324.892,450.163L327.249,450.31L336.235,450.973L368.79,453.492L368.436,453.801C369.718,435.167 371.382,411.598 373.091,386.04C373.857,375.11 374.564,364.533 375.286,354.766L375.286,354.472L375.507,354.369L429.259,331.566L444.918,325.01L449.116,323.287L450.206,322.86L450.575,322.801Z" fill="#455A64"/>
<path d="M510.014,326.055C509.302,325.922 508.602,325.729 507.922,325.48L502.295,323.668C496.152,321.581 489.852,319.99 483.455,318.91C477.068,317.855 470.546,317.935 464.187,319.146C459.311,320.162 456.512,321.547 456.453,321.385C457.061,320.986 457.713,320.659 458.398,320.413C460.225,319.632 462.118,319.016 464.054,318.571C470.475,317.172 477.104,317.007 483.587,318.085C490.026,319.164 496.348,320.846 502.472,323.108C504.829,323.933 506.729,324.655 508.025,325.171C508.717,325.396 509.383,325.693 510.014,326.055L510.014,326.055Z" fill="#455A64"/>
<path d="M499.452,308.876C497.274,308.752 495.09,308.752 492.912,308.876C490.908,309.008 488.492,309.318 485.841,309.627C483.189,309.936 480.258,310.305 477.238,310.879C472.046,311.705 467.069,313.553 462.596,316.315C460.8,317.549 459.101,318.918 457.514,320.41C457.791,319.865 458.154,319.367 458.589,318.937C459.694,317.752 460.924,316.69 462.257,315.77C466.729,312.811 471.781,310.843 477.076,309.995C480.14,309.421 483.086,309.082 485.752,308.802C488.419,308.522 490.834,308.287 492.882,308.228C494.501,308.153 496.123,308.227 497.728,308.449C498.322,308.501 498.903,308.645 499.452,308.876L499.452,308.876Z" fill="#455A64"/>
<path d="M390.886,540.078C390.602,539.702 390.401,539.27 390.296,538.811C389.938,537.573 389.837,536.274 390.002,534.996C390.044,534.553 390.143,534.117 390.296,533.699C390.401,533.434 390.572,533.201 390.795,533.023C391.017,532.844 391.282,532.727 391.563,532.683C391.735,532.664 391.908,532.683 392.071,532.739C392.234,532.795 392.383,532.887 392.506,533.007C392.72,533.251 392.854,533.554 392.889,533.876C392.934,534.41 392.934,534.948 392.889,535.482C392.801,536.542 392.801,537.574 392.639,538.811C392.582,539.169 392.43,539.505 392.2,539.785C391.969,540.065 391.668,540.278 391.328,540.402C390.682,540.595 389.997,540.62 389.339,540.476C388.147,540.275 386.984,539.929 385.877,539.444C385.348,539.224 384.831,538.973 384.33,538.693C383.798,538.437 383.322,538.076 382.931,537.633C382.711,537.368 382.59,537.034 382.59,536.69C382.59,536.345 382.711,536.012 382.931,535.747C383.154,535.543 383.424,535.398 383.718,535.325C384.011,535.253 384.318,535.257 384.61,535.335C385.481,535.57 386.317,535.917 387.1,536.366C388.227,536.967 389.259,537.732 390.164,538.634C390.514,538.939 390.808,539.303 391.033,539.71C389.724,538.639 388.319,537.692 386.835,536.881C386.091,536.515 385.311,536.229 384.507,536.027C384.095,536.027 383.653,536.027 383.491,536.233C383.393,536.373 383.349,536.543 383.365,536.713C383.381,536.883 383.457,537.042 383.579,537.161C383.914,537.511 384.315,537.791 384.758,537.986C385.232,538.254 385.725,538.49 386.231,538.693C387.29,539.138 388.397,539.459 389.53,539.651C390.043,539.777 390.579,539.777 391.092,539.651C391.3,539.578 391.483,539.448 391.621,539.276C391.759,539.104 391.846,538.897 391.873,538.678C392.02,537.662 392.064,536.469 392.167,535.452C392.227,534.964 392.252,534.471 392.241,533.979C392.241,533.552 392.005,533.361 391.696,533.375C391.018,533.375 390.768,534.348 390.65,535.084C390.407,536.748 390.487,538.444 390.886,540.078L390.886,540.078Z" fill="#01008A"/>
<path d="M426.578,156.887C421.311,158.928 416.92,162.741 414.16,167.67C409.505,175.934 410.757,179.999 411.965,184.875C413.173,189.751 415.339,199.429 415.457,198.81C415.574,198.192 426.578,156.887 426.578,156.887Z" fill="#FFBE9D"/>
<path d="M505.359,171.604C505.359,171.604 499.26,156.873 497.993,155.518L475.485,149.832L461.417,156.726C457.359,158.783 452.813,159.685 448.277,159.333C443.239,158.862 438.82,156.829 436.596,153.102L427.757,155.489C427.757,155.489 413.793,197.633 414.073,209.3C414.352,220.967 419.214,254.111 418.654,260.651C418.094,267.192 420.466,285.237 428.42,285.237L507.524,285.237C507.524,285.237 525.378,280.287 526.159,269.549C526.939,258.81 505.359,171.604 505.359,171.604Z" fill="#FF3874"/>
<path d="M480.155,235.563C479.768,235.997 479.322,236.374 478.829,236.683C477.543,237.606 476.171,238.405 474.734,239.069C472.594,240.063 470.322,240.742 467.987,241.087C465.112,241.503 462.185,241.378 459.355,240.719C454.243,239.412 449.593,236.715 445.921,232.927C444.809,231.809 443.78,230.613 442.842,229.347C442.471,228.898 442.159,228.403 441.914,227.874C442.032,227.786 443.461,229.804 446.333,232.499C450.039,236.063 454.607,238.602 459.591,239.865C464.595,241.002 469.832,240.517 474.543,238.48C478.122,236.977 480.067,235.416 480.155,235.563Z" fill="#01008A"/>
<g opacity="0.3">
<g opacity="0.3">
<path d="M443.24,229.7C443.786,235.749 446.704,241.337 451.357,245.241C453.69,247.141 456.439,248.465 459.38,249.105C462.32,249.745 465.37,249.683 468.283,248.923C471.177,248.096 473.788,246.487 475.828,244.273C477.868,242.059 479.258,239.325 479.846,236.373C475.862,238.42 471.614,239.908 467.222,240.792C462.481,241.426 457.657,240.675 453.334,238.628C449.01,236.582 445.372,233.327 442.857,229.258L443.491,229.935Z" fill="#000000"/>
</g>
</g>
<g opacity="0.3">
<g opacity="0.3">
<path d="M509.792,242.515C501.439,226.311 492.601,209.518 477.988,198.617C481.229,209.695 484.131,220.109 487.711,231.025C488.727,234.133 490.333,237.757 493.603,238.272C494.796,238.464 496.019,238.169 497.197,238.405C499.23,238.803 500.615,240.614 501.705,242.367C502.59,244.241 503.984,245.828 505.726,246.949C507.582,247.862 510.411,246.949 510.587,244.945C510.555,244.077 510.279,243.234 509.792,242.515Z" fill="#000000"/>
</g>
</g>
<path d="M533.509,211.583L493.663,230.262C493.663,230.262 475.986,194.908 474.616,190.003C473.246,185.098 470.197,176.745 474.719,166.434C476.743,162.054 480.275,158.55 484.671,156.562C489.067,154.573 494.031,154.234 498.656,155.607C516.23,161.882 533.509,211.583 533.509,211.583Z" fill="#FF3874"/>
<path d="M417.961,211.583C416.105,211.583 394.73,222.763 394.73,222.763L380.574,181.709C398.943,171.751 419.36,157.698 429.981,154.84L420.745,186.894L417.961,211.583Z" fill="#FF3874"/>
<path d="M497.565,227.787C505.107,240.19 510.381,247.32 510.381,247.32L442.693,288.566L450.574,306.891L532.86,273.01C535.627,271.911 538.094,270.171 540.058,267.933C542.022,265.695 543.428,263.022 544.159,260.136C544.836,257.424 544.77,254.579 543.967,251.901L529.973,213.277L497.565,227.787Z" fill="#FFBE9D"/>
<path d="M526.851,253.626C524.262,252.017 521.554,250.609 518.75,249.413C514.021,247.631 509.837,247.586 509.911,247.321C513.03,247.099 516.161,247.546 519.093,248.634C522.025,249.721 524.691,251.423 526.91,253.626L526.851,253.626Z" fill="#EB996E"/>
<path d="M420.421,175.063C419.967,175.645 419.582,176.278 419.272,176.948C418.392,178.707 417.658,180.534 417.077,182.413C415.241,188.513 414.119,194.806 413.733,201.165C413.249,207.474 413.323,213.813 413.954,220.109C414.143,222.024 414.438,223.927 414.838,225.81C414.944,226.517 415.132,227.209 415.398,227.872C415.416,227.164 415.347,226.457 415.192,225.766C415.015,224.425 414.779,222.481 414.617,220.079C414.166,213.798 414.166,207.491 414.617,201.209C415.018,194.903 416.04,188.652 417.667,182.546C418.193,180.679 418.828,178.844 419.567,177.051C419.924,176.422 420.21,175.755 420.421,175.063L420.421,175.063Z" fill="#070638"/>
<path d="M390.164,301.101L407.09,293.029L440.027,290.407L442.723,288.551L450.604,306.876C450.604,306.876 441.972,311 437.45,311.369L409.741,310.529L395.261,312.002L390.164,301.101Z" fill="#FFBE9D"/>
<path d="M533.508,211.582C533.237,211.642 532.975,211.736 532.727,211.862L530.518,212.79L522.46,216.37L495.945,228.434L492.719,229.907L493.22,230.084C488.624,220.612 484.602,212.127 481.744,205.999C480.36,203.053 479.24,200.564 478.415,198.767L477.517,196.807C477.426,196.57 477.302,196.347 477.148,196.145C477.202,196.391 477.276,196.632 477.369,196.866C477.546,197.323 477.797,198.001 478.15,198.87C478.842,200.623 479.903,203.127 481.273,206.235C483.998,212.422 487.946,220.966 492.542,230.438L492.704,230.777L493.043,230.614L496.269,229.141L522.622,216.885L530.577,213.085L532.727,212.009C533.003,211.897 533.265,211.754 533.508,211.582L533.508,211.582Z" fill="#01008A"/>
<path d="M496.845,155.711C496.845,155.858 494.974,155.799 492.087,156.492C488.335,157.375 484.874,159.209 482.036,161.818C479.199,164.426 477.08,167.72 475.883,171.384C474.926,174.198 474.823,176.069 474.675,176.054C474.608,175.619 474.608,175.177 474.675,174.743C474.793,173.551 475.019,172.373 475.353,171.222C476.459,167.39 478.601,163.938 481.543,161.245C484.485,158.552 488.113,156.724 492.028,155.961C493.163,155.734 494.317,155.616 495.475,155.608C495.934,155.565 496.397,155.6 496.845,155.711L496.845,155.711Z" fill="#070638"/>
<path d="M519.75,181.383C519.648,181.992 519.469,182.586 519.219,183.15C518.681,184.749 517.917,186.262 516.951,187.643L515.905,188.954L515.33,189.661L514.653,190.295L513.18,191.606L511.471,192.77C508.852,194.365 506.02,195.58 503.06,196.379C496.814,198.132 491.025,198.957 487.018,200.209C484.853,200.887 482.728,201.688 480.654,202.61C481.133,202.219 481.657,201.888 482.216,201.623C482.837,201.259 483.487,200.949 484.16,200.695L485.412,200.164L486.885,199.693C490.907,198.22 496.711,197.366 502.883,195.642C505.777,194.862 508.552,193.693 511.132,192.166L512.811,191.061L514.284,189.824C514.505,189.617 514.741,189.441 514.947,189.234L515.507,188.571L516.568,187.334C517.545,186.001 518.361,184.557 518.998,183.033C519.193,182.459 519.444,181.906 519.75,181.383Z" fill="#FFFFFF"/>
<path d="M514.507,172.001C513.939,172.066 513.38,172.199 512.843,172.399C511.441,173.071 510.283,174.162 509.528,175.522C508.998,176.361 508.468,177.319 507.761,178.306C506.991,179.337 506.09,180.263 505.08,181.06C502.727,182.817 500.063,184.112 497.228,184.876C494.282,185.774 491.336,186.349 488.817,186.923C486.541,187.438 484.317,188.163 482.174,189.089C480.233,190.006 478.424,191.18 476.797,192.58C476.797,192.58 476.871,192.432 477.062,192.211C477.34,191.877 477.64,191.562 477.961,191.269C479.153,190.185 480.498,189.282 481.953,188.588C484.099,187.574 486.345,186.789 488.655,186.245C491.233,185.568 494.105,185.023 497.007,184.139C499.749,183.394 502.333,182.161 504.638,180.5C505.616,179.76 506.493,178.893 507.245,177.923C507.938,177.009 508.497,176.052 509.087,175.227C509.923,173.812 511.209,172.718 512.74,172.119C513.159,171.966 513.605,171.896 514.051,171.913C514.345,171.927 514.507,171.971 514.507,172.001Z" fill="#FFFFFF"/>
<path d="M482.365,207.426C482.174,207.569 481.967,207.688 481.746,207.779L479.875,208.648C478.255,209.385 475.883,210.431 472.908,211.595C469.418,212.976 465.828,214.089 462.169,214.924C457.664,215.986 453.009,216.26 448.411,215.734C443.861,214.986 439.412,213.715 435.153,211.948C431.701,210.579 428.11,209.591 424.444,209.002C421.973,208.635 419.458,208.69 417.005,209.164C415.267,209.532 414.353,209.945 414.339,209.871C414.324,209.797 414.545,209.739 414.972,209.532C415.608,209.263 416.263,209.042 416.931,208.869C419.409,208.273 421.975,208.134 424.503,208.457C428.229,208.981 431.882,209.935 435.389,211.3C439.611,213.003 444.007,214.238 448.499,214.983C453.011,215.492 457.577,215.243 462.007,214.246C465.64,213.449 469.214,212.4 472.702,211.108C475.648,210.018 478.093,209.061 479.743,208.398L481.658,207.661C481.879,207.545 482.118,207.465 482.365,207.426Z" fill="#FFFFFF"/>
<path d="M416.975,193.906C416.975,193.906 417.137,193.744 417.49,193.494C418.017,193.148 418.58,192.862 419.17,192.639C421.363,191.814 423.733,191.571 426.049,191.932C429.46,192.454 432.737,193.635 435.697,195.409C439.221,197.597 442.893,199.536 446.686,201.213C450.583,202.595 454.709,203.215 458.839,203.039C462.22,202.913 465.585,202.509 468.9,201.831C471.743,201.286 474.041,200.741 475.618,200.358C476.429,200.132 477.256,199.97 478.092,199.872C477.312,200.191 476.51,200.452 475.691,200.653C474.13,201.11 471.861,201.728 469.018,202.347C465.678,203.108 462.276,203.572 458.854,203.732C454.631,203.952 450.406,203.336 446.421,201.92C442.592,200.234 438.894,198.264 435.359,196.027C432.481,194.266 429.298,193.061 425.975,192.477C423.738,192.076 421.437,192.228 419.273,192.919C417.755,193.405 417.019,193.906 416.975,193.906Z" fill="#FFFFFF"/>
<path d="M409.388,214.852C409.388,214.852 409.226,214.852 408.932,214.852C408.503,214.766 408.083,214.638 407.68,214.469C406.169,213.814 404.84,212.803 403.805,211.522C402.256,209.678 401.13,207.515 400.506,205.188C399.821,202.356 399.465,199.455 399.445,196.541C399.422,193.676 399.196,190.816 398.768,187.983C398.357,185.695 397.539,183.5 396.352,181.501C395.214,179.677 393.646,178.16 391.785,177.082C391.785,177.082 391.947,177.082 392.227,177.215C392.636,177.371 393.031,177.563 393.406,177.789C394.765,178.682 395.915,179.858 396.779,181.236C398.077,183.257 398.977,185.507 399.43,187.865C399.91,190.733 400.162,193.634 400.182,196.541C400.199,199.401 400.525,202.251 401.154,205.041C401.732,207.284 402.765,209.385 404.188,211.213C405.161,212.436 406.381,213.44 407.768,214.159C408.784,214.645 409.403,214.778 409.388,214.852Z" fill="#FFFFFF"/>
<path d="M413.424,204.392C412.619,202.836 411.911,201.232 411.302,199.59L406.368,188.011C404.394,183.489 402.567,179.409 401.168,176.507C399.768,173.605 398.796,171.852 398.884,171.793C399.226,172.124 399.515,172.507 399.739,172.927C400.225,173.693 400.888,174.827 401.654,176.256C403.127,179.114 405.101,183.165 407.075,187.702C409.049,192.239 410.684,196.393 411.803,199.487C412.363,200.96 412.79,202.241 413.07,203.11C413.243,203.521 413.362,203.951 413.424,204.392L413.424,204.392Z" fill="#FFFFFF"/>
<path d="M295.137,236.063L390.121,236.843C393.2,236.843 396.146,238.316 396.603,241.366L406.988,310.6L455.908,310.6C456.666,310.6 457.393,310.901 457.929,311.437C458.465,311.973 458.766,312.7 458.766,313.458C458.766,314.216 458.465,314.942 457.929,315.478C457.393,316.014 456.666,316.315 455.908,316.315L299.719,316.315L289.039,243.251C288.901,242.367 288.956,241.464 289.198,240.604C289.441,239.743 289.866,238.944 290.444,238.262C291.023,237.58 291.742,237.031 292.551,236.651C293.361,236.272 294.243,236.071 295.137,236.063L295.137,236.063Z" fill="#E0E0E0"/>
<path d="M295.137,236.063C294.642,236.043 294.146,236.092 293.664,236.21C292.208,236.552 290.923,237.404 290.04,238.611C289.389,239.503 288.983,240.549 288.862,241.646C288.84,242.956 288.959,244.265 289.215,245.55L290.585,255.198C292.677,269.708 295.682,290.552 299.424,316.345L299.424,316.596L299.689,316.596L451.268,316.684L455.348,316.684C456.095,316.754 456.846,316.611 457.514,316.272C458.017,315.99 458.436,315.58 458.727,315.083C459.019,314.586 459.172,314.02 459.172,313.444C459.172,312.867 459.019,312.301 458.727,311.804C458.436,311.307 458.017,310.897 457.514,310.615C456.853,310.284 456.114,310.141 455.378,310.203L407.091,310.203L407.459,310.527C403.717,285.735 400.226,262.608 397.147,241.852C397.054,240.467 396.425,239.173 395.394,238.243C394.358,237.374 393.097,236.817 391.756,236.638C390.483,236.513 389.204,236.469 387.926,236.505L384.199,236.505L369.896,236.402L344.485,236.255L308.306,236.063L295.137,236.063C295.137,236.063 295.417,236.063 295.992,236.063L298.481,236.063L308.159,236.196L344.338,236.593L369.748,236.844L384.052,236.991L387.779,236.991C389.027,236.961 390.277,237.005 391.52,237.124C392.742,237.291 393.892,237.802 394.835,238.597C395.726,239.452 396.254,240.618 396.308,241.852C399.416,262.593 402.863,285.735 406.619,310.527L406.619,310.851L455.231,310.851C455.837,310.786 456.45,310.894 456.998,311.16C457.512,311.449 457.907,311.912 458.112,312.465C458.317,313.018 458.319,313.626 458.118,314.18C457.917,314.731 457.525,315.191 457.013,315.476C456.458,315.755 455.834,315.868 455.216,315.8L451.283,315.8L299.704,315.889L299.984,316.139C296.183,290.434 293.075,269.531 290.924,255.022C290.379,251.412 289.893,248.186 289.451,245.402C289.174,244.135 289.045,242.84 289.068,241.543C289.165,240.482 289.541,239.465 290.158,238.597C291.004,237.395 292.254,236.538 293.679,236.181C294.163,236.118 294.649,236.078 295.137,236.063L295.137,236.063Z" fill="#01008A"/>
<path d="M342.51,281.258C345.797,281.258 348.461,278.593 348.461,275.307C348.461,272.02 345.797,269.355 342.51,269.355C339.223,269.355 336.559,272.02 336.559,275.307C336.559,278.593 339.223,281.258 342.51,281.258Z" fill="#FFFFFF"/>
<path d="M403.202,315.657C403.055,315.657 400.035,298.054 396.441,276.296C392.847,254.539 390.048,236.862 390.18,236.848C390.313,236.833 393.333,254.451 396.927,276.208C400.521,297.965 403.335,315.642 403.202,315.657Z" fill="#01008A"/>
</svg>
