<svg width="486" height="712" viewBox="0 0 486 712" fill="none" xmlns="http://www.w3.org/2000/svg" xmlns:xlink="http://www.w3.org/1999/xlink">
<path d="M63.03,237.106C77.356,249.714 95.518,257.791 108.09,272.372C113.023,278.11 117.482,284.213 122.087,290.243C125.449,294.628 134.366,301.9 135.791,307.382C136.412,309.794 136.303,306.504 135.645,304.093C135.608,303.984 135.572,303.91 135.535,303.801C134.293,292.655 133.379,281.472 132.977,270.253C132.575,259.07 133.269,247.851 132.575,236.704C131.588,220.953 126.655,205.714 113.791,195.847C107.505,191.023 99.429,188.099 93.618,182.727C88.136,177.648 90.329,171.837 93.545,166.172C96.578,160.873 100.233,155.648 101.402,149.545C102.754,142.601 100.123,135.438 96.615,129.554C89.123,116.983 72.532,102.95 56.781,104.85C43.661,106.422 42.163,121.551 42.382,132.076C42.565,142.309 43.588,152.541 43.661,162.774C43.771,173.299 41.98,183.641 41.834,194.129C41.688,211.963 49.91,225.558 63.03,237.106Z" fill="#8584FF"/>
<path d="M196.236,400.755C200.22,391.217 204.824,382.335 210.452,373.675C218.162,361.798 226.75,350.213 231.94,336.91C237.24,323.316 236.472,308.807 236.984,294.518C237.348,283.993 240.492,273.542 239.652,262.98C239.25,257.937 236.326,249.751 229.784,250.591C224.704,251.249 221.67,257.535 219.734,261.591C216.336,268.608 213.96,276.1 211.438,283.482C210.452,286.369 209.502,289.292 208.258,292.07C207.528,293.678 205.226,297.625 203.034,297.113C199.305,296.199 202.704,281.033 203.252,278.329C206.03,264.844 210.196,252.309 210.78,238.422C211.622,218.286 210.05,194.349 190.352,183.312C185.199,180.425 178.694,178.707 173.797,183.02C168.973,187.259 167.621,194.604 166.89,200.671C164.697,219.272 169.083,236.85 175.04,254.355C179.973,268.791 185.82,283.701 186.259,299.16C186.661,314.033 178.95,327.19 175.295,341.259C169.521,363.625 170.691,375.502 170.691,382.737C170.654,391.801 170.983,400.791 171.641,409.855C172.262,418.187 172.957,426.483 173.98,434.777C174.199,436.459 174.382,438.213 174.601,439.967C171.385,432.257 170.289,423.449 167.621,415.701C162.907,401.961 157.462,388.475 152.93,374.661C149.202,363.259 145.657,351.748 140.76,340.748C136.156,330.442 130.564,319.552 121.94,311.987C116.714,307.419 110.428,304.751 103.448,304.787C98.99,304.824 94.97,306.359 90.73,307.492C85.504,308.88 81.375,308.405 77.063,305.08C62.956,294.226 58.644,274.784 48.229,261.043C40.445,250.811 21.953,233.342 8.358,244.525C1.159,250.445 -0.851,261.884 -0.449,270.691C0.026,281.691 4.85,291.777 10.551,300.987C16.654,310.781 24.511,319.552 30.102,329.601C33.428,335.558 33.94,341.259 33.391,347.947C32.88,354.269 32.332,360.372 34.488,366.475C40.956,384.785 61.166,382.227 76.88,382.701C87.88,383.031 99.647,384.675 110.099,388.183C122.159,392.239 130.016,400.097 134.329,412.011C137.435,420.635 139.116,430.429 145,437.775C147.777,441.209 151.432,443.767 155.452,445.559C161.591,448.263 180.266,449.433 180.375,447.751C180.85,442.051 183.555,436.021 185.236,430.611C188.379,420.489 192.106,410.549 196.236,400.755Z" fill="#8584FF"/>
<path d="M282.957,397.283C281.349,386.831 281.641,375.283 276.707,365.671C276.342,364.977 275.428,364.794 274.771,365.16C271.226,367.133 271.08,372.871 270.787,376.379C270.312,382.226 270.678,388.073 269.947,393.884C268.704,404.117 266.329,414.642 262.638,424.253C258.472,435.143 250.907,441.319 239.907,444.718C232.853,446.911 225.91,448.811 219.99,453.489C214.691,457.692 211.036,463.466 208.332,469.569C200.986,486.05 197.478,504.433 194.079,522.047C191.777,533.888 189.913,545.801 187.026,557.532C184.139,569.264 181.069,580.922 179.425,592.908C179.132,593.53 178.84,594.114 178.584,594.736C177.817,596.526 180.631,597.476 181.581,596.014C192.946,578.546 206.76,562.831 225.654,553.22C234.169,548.871 245.498,547.958 252.624,541.124C258.033,535.934 258.764,528.004 257.96,520.914C256.9,511.632 252.442,503.994 247.8,496.064C245.242,491.715 242.246,487.074 243.269,481.775C244.256,476.805 248.385,473.114 252.478,470.555C260.335,465.695 269.508,463.502 275.903,456.486C281.86,449.981 285.186,441.831 285.844,433.06C286.757,421.402 284.747,408.867 282.957,397.283Z" fill="#8584FF"/>
<path d="M128.151,457.655C118.138,444.755 106.041,433.609 92.447,424.582C85.174,419.758 68.071,410.256 64.599,424.472C62.589,432.805 70.739,440.991 76.111,446.217C84.187,454.074 93.506,460.835 100.304,469.898C91.862,472.602 83.054,473.114 75.745,478.924C67.084,485.831 63.174,499.134 71.799,507.612C76.001,511.742 81.556,514.263 86.746,516.785C93.543,520.074 100.45,523.034 107.393,525.958C122.413,532.243 137.616,538.602 150.407,548.871C163.453,559.323 175.733,577.048 176.756,594.114C176.865,595.759 176.244,594.26 177.194,593.529C177.743,594.004 179.497,593.164 179.497,592.214C179.241,566.888 174.673,542.732 164.33,519.526C154.719,497.964 142.623,476.293 128.151,457.655Z" fill="#8584FF"/>
<path d="M93.506,221.721C99.025,233.196 104.799,244.415 110.938,255.598C116.859,266.379 122.742,277.05 127.164,288.562C132.609,302.705 138.31,316.628 144.048,330.661C150.041,345.243 155.377,360.08 159.653,375.246C168.022,404.848 174.234,435.29 177.304,465.914C178.875,481.482 179.57,497.124 179.131,512.764C178.802,524.97 177.414,537.068 176.281,549.236C175.075,561.882 174.234,574.708 175.294,587.39C176.171,597.988 177.852,610.632 186.111,618.198C187.719,619.696 190.022,617.832 189.071,615.932C179.277,595.868 179.826,573.978 181.689,552.234C182.713,540.21 184.138,528.26 184.576,516.2C185.088,500.852 184.503,485.466 183.041,470.19C180.191,440.15 174.198,410.476 166.45,381.349C162.467,366.402 157.533,351.748 151.869,337.386C146.168,322.987 139.59,308.954 134.071,294.482C124.094,268.279 108.892,245.073 95.407,220.661C94.749,219.345 92.922,220.442 93.506,221.721Z" fill="#BFBFFF"/>
<path d="M177.819,435.911C179.391,416.834 181.108,398.452 187.504,380.289C190.501,371.811 194.118,363.552 197.042,355.037C199.417,347.983 202.999,338.336 201.172,330.844C200.952,330.003 199.746,330.04 199.527,330.844C198.285,335.12 198.431,339.797 197.554,344.183C196.677,348.459 195.544,352.625 194.228,356.791C191.414,365.598 187.723,374.04 184.544,382.738C178.368,399.512 175.188,418.077 176.54,435.911C176.577,436.751 177.746,436.751 177.819,435.911Z" fill="#BFBFFF"/>
<path d="M67.269,326.277C74.834,344.549 97.601,345.609 114.193,349.702C126.033,352.626 134.767,360.519 141.053,370.788C147.923,382.008 152.565,395.164 156.402,407.699C156.438,407.845 156.658,407.772 156.621,407.626C151.98,385.699 145.329,359.313 122.744,349.117C104.618,340.931 80.754,345.061 69.206,325.473C68.584,324.523 66.83,325.18 67.269,326.277Z" fill="#BFBFFF"/>
<path d="M165.828,433.025C166.741,434.231 167.545,435.51 168.495,436.716C168.97,437.301 169.409,437.849 169.994,438.324C170.578,438.799 171.273,439.42 172.113,439.384C172.442,439.384 172.698,438.982 172.515,438.69C172.15,438.068 171.456,437.703 170.944,437.264C170.396,436.789 169.848,436.314 169.336,435.802C168.276,434.816 167.326,433.719 166.266,432.696C166.047,432.513 165.645,432.769 165.828,433.025Z" fill="#43588E"/>
<path d="M118.502,491.021C131.548,501.728 143.608,514.409 153.183,528.333C157.751,534.984 161.99,542.001 165.827,549.09C169.994,556.838 172.771,565.024 176.023,573.174C176.279,573.795 177.412,573.795 177.303,572.991C175.475,555.778 164.585,541.051 155.887,526.725C151.356,519.306 145.728,513.313 139.661,507.1C133.412,500.705 127.017,494.639 119.708,489.486C118.794,488.864 117.661,490.326 118.502,491.021Z" fill="#BFBFFF"/>
<path d="M222.474,470.775C216.188,474.357 215.969,484.26 215.859,490.619C215.64,502.825 218.637,514.264 213.301,525.885C208.477,536.374 200.766,545.144 194.7,554.865C189.035,564.001 183.407,575.659 183.554,586.623C183.554,587.244 184.54,587.61 184.833,586.952C187.135,581.982 187.939,576.317 189.584,571.091C191.411,565.207 194.005,559.872 197.331,554.719C203.178,545.656 210.341,537.433 215.092,527.712C220.099,517.443 219.368,507.284 219.039,496.174C218.819,489.084 218.125,477.682 223.826,472.42C224.667,471.616 223.534,470.191 222.474,470.775Z" fill="#BFBFFF"/>
<path d="M180.445,587.755C155.12,587.389 106.844,587.133 106.844,587.133L118.794,675.791C121.498,695.745 138.492,710.619 158.628,710.619L179.422,710.619L181.432,710.619L202.226,710.619C222.362,710.619 239.392,695.745 242.06,675.791L254.01,587.133C254.01,587.133 205.771,587.389 180.445,587.755Z" fill="#FFFFFF"/>
<path d="M413.894,128.97L236.944,128.97C225.98,128.97 217.1,120.09 217.1,109.126L217.1,20.797C217.1,9.834 225.98,0.953 236.944,0.953L413.894,0.953C424.858,0.953 433.738,9.834 433.738,20.797L433.738,109.126C433.738,120.09 424.858,128.97 413.894,128.97Z" fill="#FFFFFF"/>
<path d="M484.171,64.98L417.695,36.95L417.695,93.01L484.171,64.98Z" fill="#FFFFFF"/>
<path d="M283.43,77.222C290.191,77.222 295.673,71.741 295.673,64.979C295.673,58.218 290.191,52.737 283.43,52.737C276.669,52.737 271.188,58.218 271.188,64.979C271.188,71.741 276.669,77.222 283.43,77.222Z" fill="#01008A"/>
<path d="M325.42,77.222C332.182,77.222 337.663,71.741 337.663,64.979C337.663,58.218 332.182,52.737 325.42,52.737C318.659,52.737 313.178,58.218 313.178,64.979C313.178,71.741 318.659,77.222 325.42,77.222Z" fill="#01008A"/>
<path d="M367.412,77.222C374.174,77.222 379.655,71.741 379.655,64.979C379.655,58.218 374.174,52.737 367.412,52.737C360.651,52.737 355.17,58.218 355.17,64.979C355.17,71.741 360.651,77.222 367.412,77.222Z" fill="#01008A"/>
</svg>
