<svg width="52" height="50" viewBox="0 0 52 50" fill="none" xmlns="http://www.w3.org/2000/svg" xmlns:xlink="http://www.w3.org/1999/xlink">
<path d="M41.995,12.717C40.239,3.905 31.672,-1.814 22.86,-0.058C16.414,1.227 11.375,6.263 10.086,12.707C3.838,13.428 -0.644,19.076 0.076,25.325C0.738,31.075 5.609,35.414 11.398,35.41L19.532,35.41C20.431,35.41 21.159,34.681 21.159,33.783C21.159,32.884 20.431,32.156 19.532,32.156L11.398,32.156C6.905,32.129 3.285,28.466 3.311,23.973C3.337,19.48 7.001,15.86 11.494,15.886C12.323,15.886 13.02,15.263 13.111,14.438C13.937,7.298 20.395,2.179 27.536,3.005C33.539,3.699 38.275,8.435 38.969,14.438C39.106,15.277 39.832,15.892 40.682,15.886C45.175,15.886 48.817,19.528 48.817,24.021C48.817,28.514 45.175,32.156 40.682,32.156L32.548,32.156C31.649,32.156 30.921,32.884 30.921,33.783C30.921,34.681 31.649,35.41 32.548,35.41L40.683,35.41C46.972,35.371 52.039,30.24 52,23.951C51.964,18.223 47.681,13.413 41.995,12.717L41.995,12.717Z" fill="#FFFFFF"/>
<g opacity="0.7">
<path d="M31.791,38.745L27.666,42.871L27.666,22.394C27.666,21.496 26.938,20.767 26.04,20.767C25.141,20.767 24.413,21.496 24.413,22.394L24.413,42.871L20.288,38.745C19.664,38.098 18.634,38.081 17.988,38.705C17.342,39.329 17.324,40.359 17.948,41.005C17.961,41.019 17.974,41.032 17.988,41.045L24.888,47.947C25.039,48.097 25.217,48.217 25.413,48.298C25.814,48.468 26.266,48.468 26.666,48.298C26.863,48.217 27.041,48.097 27.192,47.947L34.091,41.045C34.738,40.421 34.756,39.391 34.132,38.745C33.507,38.099 32.477,38.081 31.831,38.705C31.817,38.718 31.804,38.731 31.791,38.745Z" fill="#FFFFFF"/>
</g>
</svg>
