<svg width="336" height="218" viewBox="0 0 336 218" fill="none" xmlns="http://www.w3.org/2000/svg" xmlns:xlink="http://www.w3.org/1999/xlink">
<path d="M315.433,0.088L5.76,0.088C3.131,0.088 0.975,2.244 0.975,4.852L0.975,211.944C0.975,214.572 3.131,216.73 5.76,216.73L315.433,216.73C318.061,216.73 320.197,214.572 320.197,211.944L320.197,4.873C320.217,2.244 318.061,0.088 315.433,0.088Z" clip-rule="evenodd" fill-rule="evenodd" fill="#00000F"/>
<path d="M330.589,0.088L20.895,0.088C18.267,0.088 16.131,2.244 16.131,4.852L16.131,211.944C16.131,214.572 18.287,216.73 20.895,216.73L330.567,216.73C333.197,216.73 335.353,214.572 335.353,211.944L335.353,4.873C335.353,2.244 333.197,0.088 330.589,0.088Z" clip-rule="evenodd" fill-rule="evenodd" fill="#3B405F"/>
<path d="M328,3.188L23.503,3.188C21.757,3.188 20.34,4.626 20.34,6.351L20.34,193.091C20.34,194.179 21.223,195.062 22.312,195.062L329.192,195.062C330.28,195.062 331.162,194.179 331.162,193.091L331.162,6.351C331.162,4.626 329.724,3.188 328,3.188Z" clip-rule="evenodd" fill-rule="evenodd" fill="#101537"/>
<path d="M322.21,12.144L29.274,12.144L29.274,186.11L322.21,186.11L322.21,12.144Z" fill="#044A06"/>
<path d="M323.216,12.144L29.274,12.144L29.274,22.145L323.216,22.145L323.216,12.144Z" fill="#FFFFFF"/>
<path d="M323.216,176.107L29.274,176.107L29.274,186.109L323.216,186.109L323.216,176.107Z" fill="#FFFFFF"/>
<path d="M104.952,14.259L31.122,14.259L31.122,20.009L104.952,20.009L104.952,14.259Z" fill="#E4E1E8"/>
<path d="M101.399,18.407C102.097,18.407 102.652,17.852 102.652,17.154C102.652,16.456 102.077,15.901 101.399,15.901C100.701,15.901 100.146,16.476 100.146,17.154C100.146,17.832 100.701,18.407 101.399,18.407Z" clip-rule="evenodd" fill-rule="evenodd" fill="#D64C47"/>
<path d="M97.559,18.407C98.257,18.407 98.832,17.852 98.832,17.154C98.832,16.456 98.257,15.901 97.559,15.901C96.86,15.901 96.306,16.476 96.306,17.154C96.306,17.832 96.86,18.407 97.559,18.407Z" clip-rule="evenodd" fill-rule="evenodd" fill="#D64C47"/>
<path d="M93.718,18.407C94.417,18.407 94.992,17.852 94.992,17.154C94.992,16.456 94.417,15.901 93.718,15.901C93.02,15.901 92.466,16.476 92.466,17.154C92.466,17.832 93.02,18.407 93.718,18.407Z" clip-rule="evenodd" fill-rule="evenodd" fill="#D64C47"/>
<path d="M182.252,14.259L108.423,14.259L108.423,20.009L182.252,20.009L182.252,14.259Z" fill="#E4E1E8"/>
<path d="M178.699,18.407C179.397,18.407 179.972,17.852 179.972,17.154C179.972,16.456 179.397,15.901 178.699,15.901C178.001,15.901 177.446,16.476 177.446,17.154C177.446,17.832 178.021,18.407 178.699,18.407Z" clip-rule="evenodd" fill-rule="evenodd" fill="#D64C47"/>
<path d="M174.859,18.407C175.557,18.407 176.111,17.852 176.111,17.154C176.111,16.456 175.536,15.901 174.859,15.901C174.16,15.901 173.585,16.476 173.585,17.154C173.606,17.832 174.181,18.407 174.859,18.407Z" clip-rule="evenodd" fill-rule="evenodd" fill="#D64C47"/>
<path d="M171.039,18.407C171.737,18.407 172.312,17.852 172.312,17.154C172.312,16.456 171.737,15.901 171.039,15.901C170.34,15.901 169.786,16.476 169.786,17.154C169.765,17.832 170.34,18.407 171.039,18.407Z" clip-rule="evenodd" fill-rule="evenodd" fill="#D64C47"/>
</svg>
