<svg width="90" height="70" viewBox="0 0 90 70" fill="none" xmlns="http://www.w3.org/2000/svg" xmlns:xlink="http://www.w3.org/1999/xlink">
<path d="M16.521,30.797L16.746,6.725L16.746,7.714C16.747,3.173 8.37,1.951 8.369,8.786L8.292,17.081L8.144,32.859L8.314,14.716C8.314,10.625 1.027,10.487 1.026,15.762L1.021,47.191C1.02,58.543 10.127,67.595 21.479,67.597C32.83,67.599 42.034,58.397 42.036,47.046C41.976,43.086 42.397,36.352 42.398,27.219C39.595,24.415 35.111,28.256 33.565,31.919L33.564,38.222L33.568,8.488C33.569,3.764 25.021,3.412 25.02,9.232L25.021,5.466C25.022,0.379 16.748,-1.394 16.746,7.714Z" fill="#CFFBFF"/>
<path d="M23.576,29.878C23.576,30.674 24.221,31.319 25.017,31.319C25.813,31.319 26.459,30.674 26.459,29.878L23.576,29.878ZM26.462,9.231C26.462,8.435 25.817,7.789 25.021,7.789C24.225,7.789 23.58,8.434 23.58,9.23L26.462,9.231ZM26.459,29.878L26.462,9.231L23.58,9.23L23.576,29.878L26.459,29.878Z" fill="#2B9DA8"/>
<path d="M62.785,32.857C62.785,33.653 63.43,34.298 64.226,34.298C65.022,34.298 65.667,33.652 65.667,32.857L62.785,32.857ZM65.664,9.23C65.664,8.434 65.018,7.789 64.222,7.789C63.427,7.789 62.781,8.435 62.782,9.231L65.664,9.23ZM65.667,32.857L65.664,9.23L62.782,9.231L62.785,32.857L65.667,32.857Z" fill="#2B9DA8"/>
<path d="M71.284,30.811C71.291,31.607 71.942,32.246 72.738,32.239C73.534,32.231 74.173,31.58 74.166,30.784L71.284,30.811ZM72.499,6.725L73.94,6.711C73.933,5.918 73.286,5.28 72.492,5.284C71.699,5.287 71.058,5.932 71.058,6.725L72.499,6.725ZM72.499,7.714L71.058,7.714C71.058,8.51 71.704,9.155 72.5,9.155C73.295,9.155 73.941,8.51 73.94,7.714L72.499,7.714ZM80.876,8.786L79.435,8.786L79.435,8.8L80.876,8.786ZM80.954,17.081L82.395,17.068L82.395,17.068L80.954,17.081ZM79.661,32.872C79.668,33.668 80.319,34.307 81.115,34.3C81.911,34.292 82.55,33.641 82.543,32.845L79.661,32.872ZM80.932,14.716L79.491,14.716L79.491,14.73L80.932,14.716ZM88.22,15.762L89.661,15.762L89.661,15.762L88.22,15.762ZM88.224,47.191L86.783,47.192L86.783,47.192L88.224,47.191ZM47.21,47.046L45.769,47.024L45.769,47.046L47.21,47.046ZM46.848,27.219L45.828,26.2C45.558,26.47 45.406,26.836 45.407,27.219L46.848,27.219ZM55.681,31.919L57.122,31.919C57.122,31.726 57.083,31.536 57.009,31.358L55.681,31.919ZM54.241,38.223C54.241,39.019 54.886,39.664 55.682,39.664C56.478,39.663 57.123,39.018 57.123,38.222L54.241,38.223ZM55.678,8.488L54.236,8.488L54.236,8.488L55.678,8.488ZM62.784,9.233C62.784,10.028 63.43,10.674 64.225,10.673C65.021,10.673 65.666,10.028 65.666,9.232L62.784,9.233ZM64.225,5.466L65.666,5.466L65.666,5.466L64.225,5.466ZM71.058,7.714C71.058,8.51 71.704,9.155 72.5,9.155C73.295,9.155 73.941,8.51 73.94,7.714L71.058,7.714ZM74.166,30.784L73.94,6.711L71.058,6.738L71.284,30.811L74.166,30.784ZM71.058,6.725L71.058,7.714L73.94,7.714L73.94,6.725L71.058,6.725ZM73.94,7.714C73.94,6.494 75.109,5.44 76.7,5.425C77.427,5.419 78.084,5.657 78.554,6.122C79.012,6.574 79.435,7.381 79.435,8.786L82.317,8.786C82.317,6.774 81.692,5.17 80.58,4.071C79.479,2.984 78.041,2.531 76.674,2.543C74.077,2.566 71.058,4.393 71.058,7.714L73.94,7.714ZM79.435,8.8L79.513,17.095L82.395,17.068L82.317,8.773L79.435,8.8ZM79.513,17.095L79.661,32.872L82.543,32.845L82.395,17.068L79.513,17.095ZM82.543,32.845L82.373,14.703L79.491,14.73L79.661,32.872L82.543,32.845ZM82.373,14.716C82.373,14.173 82.593,13.818 82.928,13.57C83.3,13.295 83.862,13.127 84.486,13.165C85.101,13.204 85.672,13.438 86.075,13.831C86.457,14.203 86.778,14.8 86.779,15.763L89.661,15.762C89.661,14.087 89.07,12.724 88.086,11.765C87.123,10.828 85.871,10.364 84.665,10.289C83.466,10.214 82.207,10.517 81.213,11.254C80.181,12.017 79.491,13.214 79.491,14.716L82.373,14.716ZM86.779,15.763L86.783,47.192L89.665,47.191L89.661,15.762L86.779,15.763ZM86.783,47.192C86.785,57.742 78.328,66.154 67.767,66.156L67.767,69.038C79.91,69.037 89.667,59.344 89.665,47.191L86.783,47.192ZM67.767,66.156C57.211,66.157 48.652,57.601 48.651,47.045L45.769,47.046C45.77,59.194 55.62,69.04 67.767,69.038L67.767,66.156ZM48.651,47.067C48.681,45.046 48.589,42.329 48.492,39.03C48.394,35.713 48.289,31.764 48.289,27.218L45.407,27.219C45.407,31.807 45.513,35.791 45.611,39.115C45.709,42.456 45.798,45.085 45.769,47.024L48.651,47.067ZM47.867,28.237C48.285,27.819 48.707,27.683 49.153,27.696C49.648,27.709 50.265,27.913 50.957,28.357C52.355,29.253 53.683,30.891 54.353,32.479L57.009,31.358C56.133,29.284 54.445,27.169 52.513,25.931C51.541,25.307 50.415,24.847 49.232,24.815C48.001,24.781 46.812,25.216 45.828,26.2L47.867,28.237ZM54.24,31.919L54.241,38.223L57.123,38.222L57.122,31.919L54.24,31.919ZM57.123,38.222L57.119,8.488L54.236,8.488L54.241,38.223L57.123,38.222ZM57.119,8.488C57.119,7.795 57.411,7.299 57.882,6.942C58.388,6.56 59.126,6.329 59.918,6.347C60.706,6.365 61.428,6.626 61.932,7.074C62.406,7.495 62.784,8.163 62.784,9.233L65.666,9.232C65.666,7.392 64.975,5.921 63.846,4.919C62.747,3.943 61.333,3.496 59.984,3.465C58.639,3.434 57.24,3.813 56.143,4.644C55.012,5.5 54.236,6.82 54.236,8.488L57.119,8.488ZM65.666,9.232L65.666,5.466L62.784,5.466L62.784,9.233L65.666,9.232ZM65.666,5.466C65.666,3.761 67.036,2.671 68.32,2.708C68.915,2.725 69.54,2.985 70.053,3.67C70.585,4.38 71.058,5.64 71.058,7.714L73.94,7.714C73.94,5.235 73.378,3.3 72.359,1.941C71.32,0.555 69.876,-0.131 68.403,-0.173C65.549,-0.255 62.783,2.084 62.784,5.466L65.666,5.466Z" fill="#2B9DA8"/>
<path d="M62.785,32.857C62.785,33.653 63.43,34.298 64.226,34.298C65.022,34.298 65.667,33.652 65.667,32.857L62.785,32.857ZM65.664,9.23C65.664,8.434 65.018,7.789 64.222,7.789C63.427,7.789 62.781,8.435 62.782,9.231L65.664,9.23ZM65.667,32.857L65.664,9.23L62.782,9.231L62.785,32.857L65.667,32.857Z" fill="#2B9DA8"/>
<path d="M23.576,32.857C23.576,33.652 24.221,34.298 25.017,34.298C25.813,34.298 26.459,33.653 26.459,32.857L23.576,32.857ZM26.462,9.231C26.462,8.435 25.817,7.789 25.021,7.789C24.225,7.789 23.58,8.434 23.58,9.23L26.462,9.231ZM26.459,32.857L26.462,9.231L23.58,9.23L23.576,32.857L26.459,32.857Z" fill="#2B9DA8"/>
<path d="M15.08,30.784C15.072,31.58 15.712,32.231 16.508,32.239C17.303,32.246 17.955,31.607 17.962,30.811L15.08,30.784ZM16.746,6.725L18.188,6.725C18.188,5.932 17.547,5.287 16.753,5.284C15.96,5.28 15.313,5.918 15.305,6.711L16.746,6.725ZM16.746,7.714L15.305,7.714C15.305,8.51 15.95,9.155 16.746,9.155C17.542,9.155 18.187,8.51 18.188,7.714L16.746,7.714ZM8.369,8.786L9.81,8.799L9.81,8.786L8.369,8.786ZM8.292,17.081L6.851,17.068L6.851,17.068L8.292,17.081ZM6.703,32.845C6.695,33.641 7.335,34.292 8.13,34.3C8.926,34.307 9.578,33.668 9.585,32.872L6.703,32.845ZM8.314,14.716L9.755,14.73L9.755,14.716L8.314,14.716ZM1.026,15.762L-0.415,15.762L-0.415,15.762L1.026,15.762ZM1.021,47.191L2.463,47.192L2.463,47.192L1.021,47.191ZM42.036,47.046L43.477,47.046L43.477,47.024L42.036,47.046ZM42.398,27.219L43.839,27.219C43.839,26.836 43.687,26.47 43.417,26.2L42.398,27.219ZM33.565,31.919L32.237,31.358C32.162,31.536 32.124,31.726 32.124,31.919L33.565,31.919ZM32.123,38.222C32.123,39.018 32.768,39.663 33.564,39.664C34.36,39.664 35.005,39.019 35.005,38.223L32.123,38.222ZM33.568,8.488L35.009,8.488L35.009,8.488L33.568,8.488ZM23.579,9.232C23.579,10.028 24.224,10.673 25.02,10.673C25.816,10.674 26.461,10.028 26.462,9.233L23.579,9.232ZM25.021,5.466L23.58,5.466L23.58,5.466L25.021,5.466ZM15.305,7.714C15.305,8.51 15.95,9.155 16.746,9.155C17.542,9.155 18.187,8.51 18.188,7.714L15.305,7.714ZM17.962,30.811L18.188,6.738L15.305,6.711L15.08,30.784L17.962,30.811ZM15.305,6.724L15.305,7.714L18.188,7.714L18.188,6.725L15.305,6.724ZM18.188,7.714C18.188,4.393 15.169,2.566 12.571,2.543C11.204,2.531 9.767,2.984 8.666,4.071C7.553,5.17 6.928,6.773 6.928,8.786L9.81,8.786C9.811,7.381 10.233,6.574 10.691,6.122C11.162,5.657 11.818,5.419 12.546,5.425C14.136,5.439 15.305,6.494 15.305,7.714L18.188,7.714ZM6.928,8.772L6.851,17.068L9.733,17.095L9.81,8.799L6.928,8.772ZM6.851,17.068L6.703,32.845L9.585,32.872L9.733,17.095L6.851,17.068ZM9.585,32.872L9.755,14.73L6.873,14.703L6.703,32.845L9.585,32.872ZM9.755,14.716C9.755,13.214 9.064,12.017 8.033,11.254C7.039,10.517 5.78,10.214 4.581,10.289C3.374,10.364 2.123,10.828 1.16,11.765C0.175,12.724 -0.415,14.087 -0.415,15.762L2.467,15.763C2.467,14.8 2.788,14.203 3.17,13.831C3.574,13.438 4.145,13.204 4.76,13.165C5.383,13.127 5.946,13.295 6.318,13.57C6.653,13.818 6.873,14.173 6.873,14.716L9.755,14.716ZM-0.415,15.762L-0.42,47.191L2.463,47.192L2.467,15.763L-0.415,15.762ZM-0.42,47.191C-0.421,59.344 9.336,69.037 21.478,69.038L21.479,66.156C10.918,66.154 2.461,57.742 2.463,47.192L-0.42,47.191ZM21.478,69.038C33.626,69.04 43.475,59.194 43.477,47.046L40.595,47.045C40.593,57.601 32.035,66.157 21.479,66.156L21.478,69.038ZM43.477,47.024C43.448,45.085 43.536,42.456 43.635,39.115C43.733,35.791 43.838,31.807 43.839,27.219L40.957,27.218C40.956,31.764 40.851,35.713 40.754,39.03C40.656,42.329 40.565,45.046 40.595,47.067L43.477,47.024ZM43.417,26.2C42.434,25.216 41.244,24.781 40.013,24.815C38.831,24.847 37.705,25.307 36.732,25.931C34.801,27.169 33.113,29.284 32.237,31.358L34.892,32.479C35.563,30.891 36.891,29.253 38.288,28.357C38.98,27.913 39.598,27.709 40.093,27.696C40.539,27.683 40.961,27.819 41.379,28.237L43.417,26.2ZM32.124,31.919L32.123,38.222L35.005,38.223L35.006,31.919L32.124,31.919ZM35.005,38.223L35.009,8.488L32.127,8.488L32.123,38.222L35.005,38.223ZM35.009,8.488C35.009,6.82 34.234,5.5 33.103,4.644C32.005,3.813 30.606,3.434 29.262,3.465C27.913,3.496 26.498,3.943 25.4,4.919C24.271,5.921 23.58,7.392 23.579,9.232L26.462,9.233C26.462,8.163 26.839,7.495 27.313,7.074C27.817,6.626 28.54,6.365 29.328,6.347C30.12,6.329 30.858,6.56 31.363,6.942C31.834,7.299 32.127,7.795 32.127,8.488L35.009,8.488ZM26.462,9.233L26.462,5.466L23.58,5.466L23.579,9.232L26.462,9.233ZM26.462,5.466C26.463,2.084 23.697,-0.255 20.843,-0.173C19.369,-0.131 17.926,0.555 16.887,1.941C15.868,3.3 15.306,5.235 15.305,7.714L18.188,7.714C18.188,5.64 18.66,4.38 19.193,3.67C19.706,2.985 20.331,2.725 20.926,2.708C22.209,2.671 23.58,3.761 23.58,5.466L26.462,5.466Z" fill="#2B9DA8"/>
</svg>
