<svg width="440" height="498" viewBox="0 0 440 498" fill="none" xmlns="http://www.w3.org/2000/svg" xmlns:xlink="http://www.w3.org/1999/xlink">
<path d="M295.927,180.59L0.813,180.59L0.813,213.906L295.927,213.906L295.927,180.59Z" fill="#F5F5F5"/>
<path d="M61.479,196.707L64.119,196.707L64.948,198.435L65.516,198.435L62.876,192.93L62.722,192.93L60.082,198.435L60.65,198.435L61.479,196.707ZM62.805,193.96L63.871,196.197L61.692,196.197L62.805,193.96Z" fill="#01008A"/>
<path d="M22.62,192.609L22.206,192.609C21.607,192.651 21.047,192.919 20.638,193.359C20.229,193.798 20.002,194.377 20.004,194.977C20.298,196.725 21.059,198.361 22.206,199.713C22.206,199.713 22.36,199.997 22.62,199.713C23.767,198.361 24.528,196.725 24.823,194.977C24.824,194.377 24.597,193.798 24.189,193.359C23.78,192.919 23.219,192.651 22.62,192.609L22.62,192.609ZM22.407,196.363C22.149,196.363 21.897,196.286 21.683,196.142C21.468,195.999 21.301,195.794 21.203,195.556C21.105,195.317 21.08,195.055 21.131,194.802C21.182,194.549 21.307,194.317 21.491,194.135C21.674,193.953 21.907,193.83 22.161,193.781C22.414,193.733 22.676,193.76 22.914,193.86C23.152,193.961 23.354,194.13 23.496,194.345C23.638,194.561 23.712,194.814 23.71,195.072C23.71,195.412 23.575,195.739 23.336,195.98C23.096,196.222 22.771,196.359 22.431,196.363L22.407,196.363Z" fill="#01008A"/>
<path d="M51.914,198.151C51.914,198.506 51.773,198.846 51.522,199.097C51.271,199.348 50.93,199.489 50.576,199.489C50.221,199.489 49.881,199.348 49.63,199.097C49.379,198.846 49.238,198.506 49.238,198.151L49.238,193.829C49.238,193.6 49.329,193.38 49.491,193.218C49.653,193.056 49.873,192.965 50.102,192.965C50.331,192.965 50.551,193.056 50.713,193.218C50.875,193.38 50.966,193.6 50.966,193.829L50.966,197.488C50.943,197.596 50.883,197.694 50.797,197.765C50.711,197.836 50.604,197.876 50.493,197.878C50.38,197.876 50.271,197.837 50.183,197.766C50.095,197.695 50.034,197.597 50.007,197.488L50.007,194.599L49.688,194.599L49.688,197.298L49.688,197.429C49.716,197.62 49.811,197.795 49.956,197.923C50.101,198.051 50.287,198.124 50.481,198.127C50.674,198.121 50.859,198.048 51.003,197.921C51.148,197.793 51.244,197.619 51.274,197.429L51.274,197.358C51.275,197.338 51.275,197.318 51.274,197.298L51.274,193.746C51.274,193.432 51.149,193.131 50.927,192.909C50.705,192.687 50.404,192.563 50.09,192.563C49.776,192.563 49.475,192.687 49.253,192.909C49.031,193.131 48.906,193.432 48.906,193.746L48.906,198.269C48.947,198.681 49.14,199.062 49.446,199.34C49.752,199.618 50.15,199.772 50.564,199.773C50.977,199.774 51.375,199.621 51.68,199.342C51.985,199.064 52.174,198.681 52.209,198.269L52.209,198.269L52.209,194.599L51.89,194.599L51.914,198.151Z" fill="#01008A"/>
<path d="M37.682,194.858L36.498,192.348L35.255,194.858L32.496,195.26L34.497,197.214L34.023,199.96L36.498,198.658L38.972,199.96L38.499,197.214L40.5,195.26L37.682,194.858ZM38.392,199.226L36.451,198.208L34.509,199.226L34.864,197.178L34.864,197.072L33.278,195.544L35.444,195.225L36.415,193.259L37.386,195.225L39.552,195.544L38.096,196.965L38.013,197.048L38.392,199.226Z" fill="#01008A"/>
<path d="M78.552,193.82L73.438,193.82L73.438,199.267L78.552,199.267L78.552,193.82Z" fill="#01008A"/>
<path d="M75.048,192.539L75.048,192.953L76.93,192.953L76.93,192.539L78.54,192.539L78.54,193.38L73.438,193.38L73.438,192.539L75.048,192.539Z" fill="#01008A"/>
<path d="M97.979,196.731L99.542,195.168L99.731,195.357L97.979,197.11L96.215,195.357L96.404,195.168L97.979,196.731Z" fill="#01008A"/>
<path d="M297.111,213.898C297.111,211.838 297.005,129.506 296.863,-0.528L297.111,-0.279L0.944,-0.22L1.252,-0.528C1.252,76.346 1.252,149.254 1.252,213.898L0.968,213.626L297.159,213.898L0.968,214.182L0.695,214.182L0.695,213.898C0.695,149.254 0.695,76.346 0.695,-0.528L0.695,-0.836L1.027,-0.836L297.193,-0.836L297.443,-0.836L297.443,-0.587C297.205,129.482 297.111,211.838 297.111,213.898Z" fill="#01008A"/>
<path d="M387.812,429.176L380.969,429.176L380.969,432.858L387.812,432.858L387.812,429.176Z" fill="#E0E0E0"/>
<path d="M385.47,336.379L369.664,336.379L369.664,414.769L385.47,414.769L385.47,336.379Z" fill="#EBEBEB"/>
<path d="M413.434,340.511L339.247,340.511C335.457,340.511 331.823,339.005 329.143,336.325C326.463,333.645 324.957,330.01 324.957,326.22L324.957,326.22C324.955,324.343 325.324,322.483 326.041,320.748C326.759,319.013 327.811,317.436 329.138,316.108C330.466,314.779 332.041,313.726 333.776,313.007C335.511,312.288 337.37,311.918 339.247,311.918L413.434,311.918C415.312,311.918 417.171,312.288 418.906,313.007C420.64,313.726 422.216,314.779 423.543,316.108C424.87,317.436 425.923,319.013 426.64,320.748C427.358,322.483 427.726,324.343 427.725,326.22L427.725,326.22C427.725,328.097 427.355,329.955 426.637,331.689C425.919,333.423 424.866,334.998 423.539,336.325C422.212,337.652 420.637,338.705 418.903,339.423C417.169,340.141 415.311,340.511 413.434,340.511Z" fill="#455A64"/>
<path d="M382.63,414.766L372.613,414.766L372.613,470.412L382.63,470.412L382.63,414.766Z" fill="#E0E0E0"/>
<path d="M337.447,497.538C335.482,497.787 421.851,497.538 421.851,497.538C421.851,497.538 385.007,493.418 382.627,470.414L372.611,470.414C372.611,470.414 370.089,493.383 337.447,497.538Z" fill="#E0E0E0"/>
<path d="M416.372,340.511C416.372,340.677 399.216,340.819 378.059,340.819C356.902,340.819 339.746,340.677 339.746,340.511C339.746,340.345 356.902,340.203 378.059,340.203C399.216,340.203 416.372,340.345 416.372,340.511Z" fill="#01008A"/>
<path d="M385.459,414.816C380.155,415.225 374.828,415.225 369.523,414.816C374.831,414.405 380.163,414.405 385.471,414.816L385.459,414.816Z" fill="#01008A"/>
<path d="M387.814,436.977C387.279,436.977 386.766,436.766 386.386,436.388C386.007,436.011 385.792,435.499 385.789,434.965L385.789,427.068C385.792,426.532 386.006,426.018 386.385,425.639C386.764,425.26 387.278,425.046 387.814,425.043L387.814,425.043C388.35,425.046 388.863,425.26 389.242,425.639C389.621,426.018 389.835,426.532 389.838,427.068L389.838,434.941C389.84,435.208 389.789,435.472 389.688,435.719C389.586,435.966 389.438,436.191 389.249,436.38C389.061,436.569 388.838,436.72 388.591,436.822C388.345,436.925 388.081,436.977 387.814,436.977Z" fill="#E0E0E0"/>
<path d="M229.957,112.549C229.957,112.549 233.426,108.749 234.48,108.666C235.533,108.583 246.319,111.815 246.319,111.815C247.57,112.052 248.737,112.611 249.705,113.437C250.676,114.621 261.344,126.165 261.344,126.165L249.504,136.607C249.504,136.607 235.605,134.109 234.397,132.653C233.189,131.196 232.218,128.864 233.106,128.13C232.508,127.106 232.228,125.927 232.301,124.744C232.496,123.91 232.737,123.088 233.023,122.281C233.023,122.281 230.928,120.778 230.845,119.736C230.819,119.174 230.683,118.622 230.442,118.114L229.957,117.309L229.957,112.549Z" fill="#FFBE9D"/>
<path d="M234.798,114.814C234.857,114.814 234.798,115.181 234.608,115.714C234.336,116.425 233.883,117.053 233.294,117.537C232.984,117.777 232.625,117.947 232.243,118.035C231.861,118.122 231.464,118.126 231.08,118.046C230.488,117.892 230.251,117.572 230.299,117.537C230.346,117.501 230.63,117.655 231.139,117.703C231.806,117.734 232.463,117.533 232.998,117.134C233.522,116.693 233.959,116.16 234.289,115.56C234.549,115.086 234.727,114.79 234.798,114.814Z" fill="#EB996E"/>
<path d="M254.417,120.743L248.758,117.191L234.266,109.543C234.266,109.543 231.389,112.337 236.255,116.363L242.246,121.098C242.246,121.098 247.574,130.866 248.711,131.576C250.788,132.558 252.914,133.431 255.08,134.193L254.417,120.743Z" fill="#FFBE9D"/>
<path d="M255.636,134.462C255.437,134.449 255.241,134.405 255.056,134.332C254.677,134.226 254.12,134.072 253.41,133.823C252.7,133.574 251.847,133.278 250.876,132.84C250.356,132.615 249.85,132.358 249.361,132.071C248.79,131.749 248.29,131.314 247.893,130.792C246.077,128.25 244.443,125.584 243.003,122.812L242.34,121.628C242.122,121.255 241.833,120.929 241.488,120.669C240.813,120.077 240.055,119.485 239.309,118.917C237.701,117.754 236.164,116.496 234.704,115.152C233.906,114.411 233.388,113.418 233.237,112.339C233.086,111.261 233.311,110.164 233.875,109.232L233.993,109.055L234.194,109.173C239.984,112.441 244.98,115.424 248.757,117.177C250.592,118.183 251.989,119.083 252.948,119.687L254.049,120.409C254.18,120.492 254.303,120.588 254.416,120.693C254.27,120.643 254.131,120.576 254.002,120.492L252.818,119.841C251.824,119.272 250.391,118.408 248.556,117.473C244.743,115.803 239.7,112.855 233.91,109.611L234.218,109.54C233.724,110.343 233.539,111.298 233.697,112.228C233.855,113.204 234.315,114.107 235.011,114.809C236.462,116.125 237.98,117.366 239.558,118.526C240.315,119.118 241.061,119.71 241.76,120.302C241.938,120.459 242.108,120.625 242.269,120.8C242.436,120.976 242.583,121.171 242.707,121.38C242.92,121.782 243.145,122.161 243.358,122.564C244.76,125.325 246.342,127.99 248.094,130.543C248.852,131.441 249.82,132.136 250.912,132.568C251.859,133.018 252.7,133.349 253.398,133.622L254.997,134.214C255.215,134.283 255.428,134.366 255.636,134.462L255.636,134.462Z" fill="#EB996E"/>
<path d="M411.955,93.178C411.753,89.626 411.315,72.554 411.102,69.949C410.885,66.391 409.353,63.04 406.804,60.548C404.223,58.18 400.21,57.115 397.049,58.666C396.02,58.927 395.078,59.456 394.32,60.198C393.561,60.94 393.011,61.87 392.727,62.892C385.529,88.49 386.665,115.744 383.48,142.218C392.881,143.745 405.526,143.118 415.033,142.62C415.033,121.486 413.245,116.005 411.955,93.178Z" fill="#070638"/>
<path d="M407.988,129.279C407.934,129.055 407.911,128.824 407.917,128.593C407.917,128.072 407.858,127.409 407.822,126.627C407.763,124.839 407.692,122.389 407.597,119.405C407.467,113.237 407.29,104.842 407.1,95.572C407.029,90.931 406.958,86.503 406.899,82.454C406.899,80.441 406.899,78.523 406.828,76.735C406.86,75.083 406.746,73.43 406.484,71.798C406.339,70.623 405.935,69.495 405.303,68.494C404.67,67.494 403.825,66.645 402.826,66.009C402.059,65.597 401.218,65.339 400.352,65.251L400.517,65.251C400.691,65.234 400.865,65.234 401.038,65.251C401.705,65.307 402.353,65.496 402.944,65.807C403.88,66.316 404.689,67.028 405.312,67.891C406.125,69.036 406.674,70.346 406.923,71.727C407.207,73.381 407.346,75.057 407.337,76.735C407.337,78.535 407.42,80.441 407.467,82.454C407.55,86.503 407.633,90.931 407.716,95.584C407.846,104.842 407.953,113.237 408.035,119.405C408.035,122.401 408.035,124.84 408.035,126.639C408.035,127.432 408.035,128.084 408.035,128.604C408.047,128.831 408.031,129.057 407.988,129.279L407.988,129.279Z" fill="#455A64"/>
<path d="M399.439,119.572C399.352,119.064 399.317,118.549 399.333,118.033C399.333,117.039 399.273,115.594 399.273,113.818C399.273,110.266 399.344,105.365 399.475,99.954C399.605,94.543 399.759,89.76 399.865,86.078C399.865,84.409 399.96,83 400.007,81.887C399.998,81.367 400.038,80.848 400.126,80.336C400.222,80.847 400.262,81.367 400.244,81.887C400.244,82.881 400.244,84.255 400.303,86.09C400.303,89.642 400.232,94.543 400.09,99.966C399.948,105.389 399.806,110.148 399.711,113.83C399.652,115.5 399.605,116.908 399.569,118.033C399.579,118.549 399.536,119.065 399.439,119.572L399.439,119.572Z" fill="#455A64"/>
<path d="M368.044,38.979C375.148,38.245 381.068,41.347 386.68,45.645C392.3,50.071 396.432,56.111 398.519,62.954C400.757,70.058 400.792,80.181 398.247,87.201C397.108,90.526 395.179,93.524 392.626,95.939C390.073,98.354 386.972,100.113 383.589,101.066C373.774,103.836 362.716,102.711 354.997,96.046C347.277,89.38 343.311,78.926 343.583,68.732C343.672,61.646 345.992,54.769 350.214,49.078C352.337,46.269 355.015,43.926 358.083,42.197C361.151,40.468 364.541,39.388 368.044,39.026Z" fill="#070638"/>
<path d="M386.335,63.995C385.482,61.26 386.074,58.3 385.861,55.447C385.376,49.16 380.687,43.844 375.04,41.026C369.783,38.422 363.2,38.481 356.523,40.162C351.916,41.232 347.711,43.594 344.399,46.97C342.284,49.272 340.751,52.046 339.927,55.061C339.103,58.077 339.013,61.245 339.663,64.303L371.831,61.746C374.649,64.409 377.55,67.121 381.078,68.731C382.092,69.261 383.226,69.522 384.37,69.489C384.938,69.456 385.485,69.262 385.947,68.928C386.409,68.594 386.765,68.136 386.974,67.606C387.282,66.41 386.702,65.179 386.335,63.995Z" fill="#070638"/>
<path d="M355.313,48.969L382.746,56.689C384.037,56.86 385.218,57.509 386.053,58.509C386.889,59.509 387.318,60.786 387.256,62.088L382.982,122.268C382.695,126.384 381.055,130.288 378.318,133.374L375.441,136.582C368.881,143.982 356.675,142.396 352.626,133.374C352.38,132.858 352.201,132.313 352.093,131.752C352.01,131.297 351.95,130.839 351.915,130.378C351.634,127.332 351.674,124.265 352.034,121.227C352.116,115.851 352.176,113.649 352.164,113.697C352.152,113.744 340.881,111.518 338.915,96.648C337.944,89.26 338.643,77.207 339.519,67.356C340.265,58.441 346.445,47.786 355.313,48.969Z" fill="#FFBE9D"/>
<path d="M342.966,78.917C342.947,79.412 343.122,79.894 343.454,80.262C343.786,80.629 344.248,80.852 344.742,80.882C344.983,80.907 345.226,80.883 345.457,80.813C345.688,80.742 345.904,80.627 346.09,80.472C346.276,80.318 346.43,80.128 346.542,79.914C346.654,79.7 346.722,79.466 346.743,79.225C346.763,78.73 346.588,78.247 346.256,77.88C345.924,77.513 345.461,77.29 344.967,77.259C344.727,77.235 344.484,77.259 344.252,77.329C344.021,77.399 343.806,77.515 343.62,77.669C343.434,77.823 343.28,78.013 343.168,78.227C343.055,78.442 342.987,78.676 342.966,78.917L342.966,78.917Z" fill="#070638"/>
<path d="M341.924,73.682C342.149,73.942 343.617,72.912 345.665,72.971C347.713,73.03 349.217,74.155 349.406,73.847C349.596,73.54 349.288,73.291 348.649,72.794C347.779,72.163 346.739,71.812 345.665,71.787C344.603,71.756 343.558,72.063 342.682,72.663C342.042,73.125 341.817,73.575 341.924,73.682Z" fill="#070638"/>
<path d="M361.236,79.647C361.216,80.142 361.391,80.625 361.723,80.992C362.055,81.359 362.518,81.582 363.012,81.613C363.253,81.639 363.496,81.616 363.728,81.547C363.96,81.477 364.176,81.361 364.362,81.207C364.549,81.052 364.703,80.862 364.814,80.647C364.926,80.432 364.993,80.197 365.013,79.955C365.029,79.461 364.853,78.98 364.522,78.614C364.191,78.247 363.73,78.023 363.237,77.99C362.996,77.965 362.753,77.989 362.522,78.059C362.291,78.13 362.075,78.245 361.889,78.4C361.703,78.554 361.549,78.744 361.437,78.958C361.325,79.172 361.257,79.406 361.236,79.647L361.236,79.647Z" fill="#070638"/>
<path d="M361.304,74.447C361.529,74.708 362.997,73.677 365.033,73.737C367.07,73.796 368.585,74.921 368.774,74.613C368.964,74.305 368.668,74.056 368.017,73.559C367.148,72.927 366.107,72.576 365.033,72.553C363.971,72.523 362.927,72.83 362.05,73.429C361.41,73.891 361.233,74.34 361.304,74.447Z" fill="#070638"/>
<path d="M354.132,89.542C353.064,89.177 351.954,88.946 350.829,88.855C350.308,88.784 349.822,88.678 349.739,88.311C349.705,87.773 349.842,87.239 350.13,86.783C350.651,85.528 351.196,84.214 351.776,82.853C354.073,77.253 355.742,72.647 355.517,72.552C355.292,72.458 353.244,76.921 350.959,82.521C350.402,83.906 349.87,85.221 349.372,86.476C349.029,87.096 348.916,87.817 349.053,88.512C349.121,88.699 349.231,88.867 349.375,89.005C349.519,89.142 349.692,89.245 349.881,89.305C350.171,89.388 350.469,89.435 350.769,89.447C351.882,89.622 353.011,89.654 354.132,89.542L354.132,89.542Z" fill="#070638"/>
<path d="M352.118,113.677C359.082,113.979 365.993,112.34 372.079,108.941C372.079,108.941 366.823,119.052 352.047,117.229L352.118,113.677Z" fill="#EB996E"/>
<path d="M354.911,94.497C355.309,94.016 355.824,93.646 356.407,93.422C356.989,93.198 357.62,93.128 358.237,93.218C358.687,93.268 359.121,93.41 359.514,93.634C359.907,93.858 360.25,94.159 360.523,94.52C360.788,94.867 360.941,95.287 360.96,95.723C360.979,96.159 360.863,96.591 360.629,96.959C360.29,97.317 359.853,97.566 359.372,97.674C358.891,97.781 358.389,97.743 357.93,97.563C356.975,97.198 356.101,96.646 355.36,95.941C355.135,95.768 354.942,95.555 354.792,95.314C354.716,95.202 354.676,95.07 354.676,94.935C354.676,94.8 354.716,94.668 354.792,94.556Z" fill="#EB996E"/>
<path d="M360.144,91.121C359.813,91.121 359.753,93.312 357.776,94.827C355.799,96.343 353.49,96.011 353.455,96.354C353.419,96.698 353.976,96.804 354.97,96.852C356.256,96.886 357.514,96.467 358.522,95.668C359.512,94.909 360.163,93.79 360.334,92.554C360.535,91.666 360.298,91.109 360.144,91.121Z" fill="#070638"/>
<path d="M361.814,68.411C361.992,68.979 364.04,68.766 366.432,69.122C368.823,69.477 370.741,70.175 371.073,69.69C371.215,69.453 370.895,68.92 370.126,68.364C369.109,67.665 367.94,67.219 366.716,67.061C365.491,66.885 364.242,66.998 363.069,67.393C362.181,67.724 361.732,68.151 361.814,68.411Z" fill="#070638"/>
<path d="M342.751,64.765C343.106,65.238 344.515,64.765 346.208,64.765C347.901,64.765 349.334,65.155 349.666,64.682C349.819,64.445 349.606,63.983 348.991,63.498C348.173,62.937 347.2,62.647 346.208,62.669C345.214,62.654 344.241,62.952 343.426,63.522C342.81,64.066 342.597,64.54 342.751,64.765Z" fill="#070638"/>
<path d="M391.71,60.031C389.342,51.377 377.502,39.004 368.575,39.218L353.918,47.138C354.271,49.594 355.282,51.908 356.843,53.836C358.404,55.764 360.458,57.233 362.786,58.09C365.272,58.978 368.303,59.274 369.7,61.571C371.097,63.868 370.091,67.041 371.417,69.385C373.24,72.641 378.651,72.735 379.977,76.24C380.557,77.755 380.143,79.531 380.746,81.047C381.563,83.071 386.453,85.783 388.549,85.238C390.644,84.693 390.822,81.153 391.58,79.318C392.527,77.274 392.74,74.966 392.184,72.783C391.473,68.568 392.823,64.164 391.71,60.031Z" fill="#070638"/>
<path d="M382.357,86.704C382.357,85.602 383.742,83.045 384.831,82.903C387.744,82.524 392.977,82.903 392.835,90.279C392.633,100.366 382.546,98.081 382.534,97.797C382.522,97.513 382.25,90.516 382.357,86.704Z" fill="#FFBE9D"/>
<path d="M385.685,94.033C385.685,94.033 385.863,94.163 386.159,94.305C386.573,94.493 387.043,94.514 387.473,94.365C388.55,93.986 389.474,92.316 389.557,90.493C389.6,89.63 389.45,88.769 389.118,87.971C389.031,87.655 388.868,87.364 388.643,87.125C388.418,86.886 388.138,86.705 387.828,86.598C387.626,86.537 387.409,86.55 387.216,86.635C387.023,86.72 386.866,86.87 386.774,87.06C386.632,87.332 386.691,87.533 386.644,87.557C386.597,87.581 386.431,87.379 386.514,86.965C386.58,86.716 386.725,86.496 386.928,86.337C387.213,86.134 387.565,86.049 387.911,86.101C388.321,86.194 388.701,86.389 389.016,86.669C389.33,86.948 389.569,87.303 389.71,87.699C390.126,88.582 390.317,89.554 390.267,90.529C390.16,92.565 389.083,94.447 387.615,94.838C387.343,94.909 387.059,94.919 386.783,94.868C386.507,94.817 386.245,94.706 386.016,94.542C385.709,94.282 385.649,94.057 385.685,94.033Z" fill="#EB996E"/>
<path d="M399.972,74.022C400.329,73.063 400.521,72.05 400.54,71.027C400.918,66.056 399.604,61.103 396.811,56.973C396.29,56.078 395.622,55.277 394.833,54.605C394.632,54.724 397.793,58.288 399.214,63.805C400.635,69.322 399.747,74.011 399.972,74.022Z" fill="#FF3874"/>
<path d="M357.042,44.234C355.858,48.271 349.275,53.113 346.386,56.073C340.774,61.816 339.732,62.656 338.608,80.936C336.266,75.069 335.231,68.762 335.577,62.455C336.062,57.163 338.447,52.226 342.29,48.555C344.243,46.736 346.593,45.399 349.154,44.648C351.715,43.898 354.416,43.756 357.042,44.234Z" fill="#070638"/>
<path d="M396.848,60.23C396.28,60.393 395.697,60.501 395.107,60.55C394.551,60.633 393.864,60.727 393.047,60.775C392.23,60.822 391.331,60.917 390.312,60.905C387.938,60.951 385.564,60.821 383.209,60.514C380.309,60.123 377.446,59.493 374.649,58.632C371.865,57.735 369.157,56.619 366.55,55.293C364.433,54.188 362.399,52.929 360.465,51.528C359.624,50.96 358.926,50.344 358.298,49.859C357.671,49.373 357.114,48.888 356.735,48.497C356.283,48.114 355.864,47.694 355.48,47.242C355.981,47.559 356.453,47.919 356.889,48.32C357.316,48.687 357.848,49.125 358.5,49.586C359.151,50.048 359.861,50.64 360.714,51.185C362.664,52.504 364.701,53.69 366.811,54.737C369.397,56.026 372.076,57.119 374.826,58.004C377.594,58.843 380.42,59.48 383.28,59.911C385.634,60.237 388.007,60.407 390.383,60.42C391.39,60.42 392.301,60.42 393.107,60.42C393.912,60.42 394.598,60.36 395.155,60.301C395.716,60.231 396.283,60.208 396.848,60.23Z" fill="#455A64"/>
<path d="M397.427,67.524C397.042,67.636 396.644,67.704 396.243,67.726C395.155,67.854 394.06,67.921 392.964,67.927C385.693,68 378.538,66.106 372.256,62.445C371.314,61.898 370.401,61.301 369.521,60.657C369.176,60.444 368.861,60.185 368.586,59.888C368.645,59.805 370.054,60.776 372.469,62.078C378.778,65.485 385.807,67.344 392.976,67.501C395.71,67.572 397.415,67.418 397.427,67.524Z" fill="#455A64"/>
<path d="M399.951,67.914C400.1,68.41 400.184,68.924 400.199,69.441C400.294,70.448 400.353,71.892 400.341,73.68C400.313,75.777 400.179,77.871 399.939,79.955C399.666,82.515 399.155,85.044 398.412,87.509C396.929,92.03 393.903,95.886 389.863,98.401C388.644,99.128 387.35,99.724 386.004,100.177C385.519,100.367 385.015,100.502 384.5,100.579C384.953,100.326 385.429,100.116 385.921,99.952C387.211,99.417 388.455,98.776 389.638,98.034C391.377,96.92 392.918,95.523 394.197,93.902C395.801,91.955 397.03,89.727 397.82,87.331C398.555,84.899 399.074,82.407 399.37,79.884C399.666,77.516 399.82,75.444 399.903,73.668C399.986,71.892 399.986,70.448 399.903,69.465C399.881,68.948 399.896,68.429 399.951,67.914L399.951,67.914Z" fill="#455A64"/>
<path d="M261.379,126.164L290.646,155.763C294.494,154.875 341.722,126.649 341.722,126.649L349.193,162.973C349.193,162.973 300.852,185.232 287.556,182.532C285.378,182.094 281.814,181.81 279.564,178.98C268.885,165.258 248.758,136.464 248.758,136.464L261.379,126.164Z" fill="#FFBE9D"/>
<path d="M299.762,397.752L314.206,429.068L337.518,418.294L322.577,379.543L299.762,397.752Z" fill="#FFBE9D"/>
<path d="M311.507,426.974L319.949,443.076C319.949,443.076 298.306,465.417 300.342,470.461L351.134,446.107L337.175,413.82L311.507,426.974Z" fill="#455A64"/>
<path d="M334.57,433.344C335.128,433.273 335.693,433.404 336.164,433.712C336.634,434.02 336.98,434.485 337.139,435.025C337.246,435.581 337.135,436.157 336.828,436.634C336.522,437.11 336.044,437.45 335.493,437.583C334.898,437.686 334.287,437.559 333.783,437.227C333.279,436.894 332.921,436.382 332.782,435.795C332.731,435.204 332.911,434.616 333.284,434.155C333.657,433.694 334.194,433.395 334.783,433.32Z" fill="#E0E0E0"/>
<g opacity="0.6">
<g opacity="0.6">
<path d="M351.136,446.057L349.017,442.043L301.114,466.906C301.114,466.906 299.327,468.978 300.345,470.458L351.136,446.057Z" fill="#FFFFFF"/>
</g>
</g>
<path d="M318.967,443.231C319.097,443.48 320.388,442.995 321.998,443.231C323.608,443.468 324.744,444.179 324.922,443.965C325.1,443.752 324.046,442.509 322.104,442.284C320.163,442.059 318.801,443.006 318.967,443.231Z" fill="#01008A"/>
<path d="M314.693,447.963C314.752,448.235 316.031,448.14 317.38,448.791C318.73,449.443 319.5,450.425 319.748,450.295C319.997,450.165 319.476,448.685 317.795,447.927C316.114,447.169 314.586,447.726 314.693,447.963Z" fill="#01008A"/>
<path d="M314.728,455.793C314.977,455.793 314.728,454.337 313.438,453.283C312.147,452.229 310.738,452.253 310.727,452.501C310.715,452.75 311.792,453.141 312.834,454.029C313.876,454.917 314.468,455.888 314.728,455.793Z" fill="#01008A"/>
<path d="M316.553,437.011C316.767,437.189 317.737,436.301 319.182,435.721C320.626,435.141 321.929,435.058 321.964,434.786C322,434.513 320.52,434.134 318.815,434.786C317.11,435.437 316.329,436.869 316.553,437.011Z" fill="#01008A"/>
<path d="M298.613,414.814L262.633,316.983C262.633,316.983 263.485,300.727 266.481,295.589C269.476,290.451 360.191,260.497 360.191,260.497C360.191,260.497 383.302,254.932 398.705,260.497C414.108,266.061 429.76,272.928 428.221,283.726C427.973,285.376 427.577,287.001 427.037,288.58C424.446,296.183 419.586,302.809 413.112,307.564C406.638,312.319 398.862,314.974 390.832,315.172L378.779,316.545L317.628,328.219C316.99,328.349 316.386,328.61 315.854,328.983C315.322,329.357 314.872,329.837 314.533,330.393C314.194,330.948 313.974,331.567 313.885,332.212C313.796,332.856 313.841,333.512 314.017,334.139L333.765,399.955C333.765,399.955 312.193,410.48 298.613,414.814Z" fill="#01008A"/>
<path d="M266.837,347.115L265.984,381.592L291.653,382.219L295.358,340.852L266.837,347.115Z" fill="#FFBE9D"/>
<path d="M265.985,377L264.919,396.677C264.919,396.677 235.676,407.191 235.32,412.566L291.653,413.134L293.382,378.006L265.985,377Z" fill="#455A64"/>
<path d="M264.657,385.583C264.572,385.253 264.572,384.907 264.657,384.577C264.847,383.644 265.252,382.768 265.841,382.02C266.025,381.737 266.253,381.486 266.516,381.274C266.69,381.131 266.897,381.033 267.117,380.988C267.338,380.943 267.566,380.951 267.782,381.013C267.907,381.051 268.022,381.117 268.118,381.205C268.215,381.293 268.29,381.401 268.339,381.522C268.423,381.744 268.423,381.988 268.339,382.209C268.175,382.571 267.977,382.915 267.747,383.239C267.309,383.902 266.942,384.565 266.385,385.311C266.205,385.529 265.973,385.699 265.711,385.804C265.448,385.91 265.163,385.948 264.882,385.915C264.358,385.844 263.859,385.649 263.426,385.346C262.646,384.837 261.927,384.242 261.283,383.57C260.983,383.26 260.702,382.932 260.442,382.588C260.143,382.246 259.925,381.841 259.803,381.404C259.753,381.161 259.791,380.909 259.91,380.692C260.03,380.475 260.222,380.308 260.454,380.22C260.68,380.16 260.917,380.152 261.147,380.197C261.377,380.242 261.593,380.339 261.78,380.48C262.318,380.897 262.8,381.383 263.212,381.925C263.793,382.666 264.264,383.488 264.609,384.364C264.757,384.671 264.842,385.006 264.858,385.346C264.284,384.231 263.606,383.173 262.834,382.185C262.429,381.699 261.968,381.261 261.46,380.883C261.349,380.793 261.219,380.729 261.079,380.696C260.94,380.663 260.795,380.662 260.655,380.693C260.538,380.743 260.445,380.836 260.394,380.953C260.343,381.07 260.339,381.201 260.383,381.321C260.509,381.657 260.698,381.966 260.939,382.233C261.195,382.559 261.468,382.871 261.756,383.168C262.374,383.791 263.057,384.347 263.793,384.826C264.145,385.074 264.55,385.236 264.977,385.299C265.149,385.325 265.324,385.303 265.485,385.236C265.645,385.169 265.785,385.06 265.888,384.92C266.362,384.316 266.812,383.559 267.238,382.931C267.455,382.645 267.645,382.34 267.806,382.02C267.925,381.724 267.806,381.546 267.629,381.463C267.119,381.274 266.622,381.795 266.279,382.233C265.514,383.226 264.962,384.367 264.657,385.583L264.657,385.583Z" fill="#01008A"/>
<path d="M282.369,394.413C282.901,394.596 283.35,394.962 283.636,395.446C283.922,395.929 284.027,396.499 283.932,397.053C283.779,397.597 283.425,398.063 282.941,398.355C282.457,398.648 281.88,398.745 281.327,398.628C280.747,398.459 280.253,398.074 279.946,397.552C279.64,397.03 279.546,396.411 279.682,395.822C279.895,395.267 280.315,394.817 280.855,394.567C281.394,394.317 282.01,394.287 282.571,394.484Z" fill="#E0E0E0"/>
<g opacity="0.6">
<g opacity="0.6">
<path d="M291.617,413.133L291.511,408.563L237.546,409.746C237.546,409.746 235.024,410.812 235.284,412.588L291.617,413.133Z" fill="#FFFFFF"/>
</g>
</g>
<path d="M264.021,396.382C264.021,396.654 265.394,396.796 266.744,397.696C268.094,398.596 268.792,399.756 269.053,399.65C269.313,399.543 268.911,397.957 267.265,396.891C265.619,395.825 263.962,396.133 264.021,396.382Z" fill="#01008A"/>
<path d="M258.076,398.762C258.017,399.035 259.201,399.508 260.125,400.68C261.048,401.852 261.309,403.048 261.581,403.048C261.853,403.048 262.043,401.485 260.871,400.053C259.698,398.62 258.088,398.502 258.076,398.762Z" fill="#01008A"/>
<path d="M254.678,405.805C254.926,405.864 255.329,404.491 254.678,402.975C254.027,401.46 252.712,400.856 252.594,401.081C252.476,401.306 253.257,402.123 253.778,403.378C254.299,404.633 254.382,405.769 254.678,405.805Z" fill="#01008A"/>
<path d="M264.575,389.75C264.694,389.999 265.961,389.632 267.512,389.75C269.063,389.869 270.27,390.378 270.412,390.141C270.554,389.904 269.406,388.957 267.571,388.803C265.736,388.649 264.445,389.525 264.575,389.75Z" fill="#01008A"/>
<path d="M281.836,251.427C281.836,251.427 266.445,250.243 264.74,266.878C263.035,283.513 254.996,360.92 254.996,360.92L297.287,364.472L302.852,284.874L360.191,260.485C360.191,260.485 292.101,249.273 281.836,251.427Z" fill="#01008A"/>
<path d="M345.228,228.934C345.228,228.934 335.898,255.099 337.674,258.012C339.45,260.924 363.461,272.941 363.461,272.941L423.523,296.005C423.523,296.005 429.691,286.19 429.691,271.142C429.691,256.094 408.806,228.934 408.806,228.934L345.228,228.934Z" fill="#01008A"/>
<path d="M363.034,259.125C362.944,259.182 362.849,259.229 362.75,259.267L361.897,259.67L358.57,261.15L346.091,266.584L302.983,285.137L303.173,284.864C302.628,292.726 301.989,301.227 301.432,310.012C299.976,330.541 298.626,349.473 297.561,364.474L297.561,364.746L297.288,364.746L271.111,362.449L263.901,361.774L262.018,361.585C261.799,361.57 261.581,361.538 261.367,361.49C261.584,361.472 261.802,361.472 262.018,361.49L263.913,361.608L271.135,362.141L297.3,364.166L297.016,364.414C298.046,349.437 299.384,330.494 300.758,309.952C301.373,301.167 301.941,292.667 302.522,284.817L302.522,284.58L302.699,284.497L345.902,266.17L358.487,260.901L361.862,259.516L362.738,259.172L363.034,259.125Z" fill="#455A64"/>
<path d="M410.806,261.739C410.234,261.632 409.672,261.478 409.125,261.278L404.603,259.821C399.665,258.144 394.601,256.865 389.46,255.997C384.327,255.149 379.084,255.213 373.974,256.187C370.055,257.003 367.805,258.116 367.758,257.986C368.246,257.665 368.771,257.403 369.321,257.205C370.789,256.577 372.311,256.082 373.867,255.725C379.028,254.6 384.356,254.467 389.566,255.334C394.741,256.201 399.823,257.553 404.745,259.371C406.639,260.034 408.166,260.615 409.208,261.029C409.764,261.21 410.299,261.448 410.806,261.739L410.806,261.739Z" fill="#455A64"/>
<path d="M402.317,247.934C400.566,247.835 398.811,247.835 397.06,247.934C395.45,248.041 393.508,248.29 391.377,248.538C389.246,248.787 386.89,249.083 384.463,249.545C380.29,250.209 376.29,251.694 372.694,253.913C371.251,254.905 369.885,256.005 368.609,257.205C368.833,256.767 369.124,256.367 369.474,256.021C370.362,255.069 371.35,254.215 372.422,253.475C376.016,251.098 380.077,249.515 384.332,248.834C386.795,248.372 389.163,248.1 391.306,247.875C393.449,247.65 395.39,247.461 397.036,247.413C398.337,247.353 399.641,247.413 400.931,247.591C401.408,247.633 401.875,247.749 402.317,247.934L402.317,247.934Z" fill="#455A64"/>
<path d="M315.058,433.758C314.83,433.456 314.669,433.109 314.585,432.74C314.296,431.745 314.216,430.701 314.348,429.673C314.382,429.317 314.462,428.967 314.585,428.631C314.669,428.418 314.807,428.231 314.985,428.087C315.164,427.944 315.377,427.85 315.603,427.814C315.741,427.799 315.88,427.814 316.011,427.859C316.142,427.904 316.261,427.978 316.361,428.075C316.533,428.271 316.64,428.514 316.668,428.773C316.704,429.203 316.704,429.634 316.668,430.064C316.597,430.916 316.597,431.745 316.467,432.74C316.421,433.027 316.3,433.298 316.114,433.522C315.929,433.747 315.687,433.918 315.413,434.018C314.894,434.173 314.344,434.194 313.815,434.078C312.857,433.916 311.923,433.638 311.033,433.249C310.607,433.071 310.192,432.87 309.79,432.645C309.361,432.439 308.979,432.149 308.665,431.792C308.488,431.58 308.391,431.312 308.391,431.035C308.391,430.758 308.488,430.49 308.665,430.277C308.844,430.113 309.061,429.996 309.297,429.938C309.533,429.88 309.78,429.883 310.015,429.946C310.714,430.135 311.387,430.414 312.015,430.774C312.921,431.258 313.751,431.872 314.478,432.598C314.759,432.843 314.996,433.135 315.177,433.462C314.125,432.601 312.995,431.84 311.802,431.189C311.205,430.895 310.578,430.664 309.932,430.502C309.6,430.502 309.245,430.502 309.115,430.668C309.037,430.78 309.001,430.917 309.014,431.054C309.027,431.19 309.088,431.318 309.186,431.414C309.455,431.694 309.777,431.92 310.133,432.077C310.515,432.292 310.91,432.482 311.317,432.645C312.169,433.002 313.058,433.26 313.969,433.415C314.381,433.516 314.812,433.516 315.224,433.415C315.391,433.356 315.539,433.252 315.65,433.114C315.76,432.975 315.83,432.809 315.852,432.633C315.97,431.816 316.005,430.857 316.088,430.04C316.136,429.647 316.156,429.252 316.147,428.856C316.147,428.513 315.958,428.359 315.709,428.371C315.165,428.371 314.964,429.152 314.869,429.744C314.674,431.082 314.738,432.445 315.058,433.758L315.058,433.758Z" fill="#01008A"/>
<path d="M343.747,125.773C339.514,127.414 335.984,130.479 333.766,134.44C330.025,141.082 331.031,144.35 332.002,148.269C332.973,152.187 334.713,159.966 334.808,159.469C334.903,158.972 343.747,125.773 343.747,125.773Z" fill="#FFBE9D"/>
<path d="M407.065,137.604C407.065,137.604 402.163,125.765 401.145,124.676L383.054,120.105L371.747,125.646C368.485,127.3 364.832,128.025 361.186,127.742C357.137,127.363 353.585,125.729 351.797,122.734L344.694,124.652C344.694,124.652 333.47,158.525 333.695,167.902C333.92,177.279 337.827,203.918 337.377,209.175C336.927,214.431 338.833,228.935 345.227,228.935L408.805,228.935C408.805,228.935 423.155,224.957 423.782,216.326C424.41,207.695 407.065,137.604 407.065,137.604Z" fill="#FF3874"/>
<path d="M386.806,189.011C386.495,189.359 386.136,189.662 385.74,189.91C384.706,190.652 383.604,191.295 382.449,191.828C380.729,192.627 378.903,193.173 377.026,193.45C374.715,193.784 372.362,193.684 370.088,193.154C365.98,192.104 362.242,189.936 359.291,186.891C358.397,185.993 357.57,185.032 356.816,184.014C356.518,183.653 356.267,183.255 356.07,182.83C356.165,182.759 357.313,184.381 359.622,186.548C362.6,189.412 366.272,191.453 370.278,192.468C374.3,193.382 378.509,192.992 382.295,191.355C385.172,190.147 386.735,188.892 386.806,189.011Z" fill="#01008A"/>
<g opacity="0.3">
<g opacity="0.3">
<path d="M357.14,184.297C357.578,189.159 359.924,193.65 363.663,196.787C365.539,198.315 367.748,199.379 370.112,199.893C372.475,200.408 374.927,200.358 377.267,199.747C379.594,199.082 381.692,197.789 383.332,196.01C384.971,194.23 386.089,192.033 386.561,189.66C383.359,191.306 379.944,192.501 376.415,193.212C372.604,193.722 368.727,193.118 365.252,191.473C361.777,189.828 358.853,187.212 356.832,183.941L357.341,184.486Z" fill="#000000"/>
</g>
</g>
<g opacity="0.3">
<g opacity="0.3">
<path d="M410.628,194.598C403.915,181.575 396.811,168.078 385.066,159.316C387.671,168.22 390.004,176.59 392.881,185.363C393.697,187.862 394.988,190.774 397.616,191.189C398.575,191.342 399.558,191.106 400.505,191.295C402.139,191.615 403.252,193.071 404.128,194.48C404.84,195.985 405.96,197.261 407.36,198.162C408.852,198.896 411.125,198.162 411.267,196.552C411.241,195.854 411.02,195.177 410.628,194.598Z" fill="#000000"/>
</g>
</g>
<path d="M429.692,169.735L397.666,184.748C397.666,184.748 383.459,156.333 382.358,152.39C381.256,148.448 378.806,141.735 382.44,133.447C384.067,129.927 386.906,127.11 390.439,125.512C393.972,123.914 397.962,123.642 401.68,124.745C415.804,129.788 429.692,169.735 429.692,169.735Z" fill="#FF3874"/>
<path d="M336.822,169.735C335.33,169.735 318.151,178.721 318.151,178.721L306.773,145.724C321.537,137.721 337.947,126.426 346.483,124.129L339.06,149.892L336.822,169.735Z" fill="#FF3874"/>
<path d="M400.802,182.76C406.863,192.729 411.102,198.459 411.102,198.459L356.699,231.61L363.033,246.338L429.169,219.107C431.393,218.223 433.376,216.825 434.955,215.026C436.533,213.227 437.663,211.079 438.25,208.759C438.794,206.579 438.741,204.293 438.096,202.141L426.849,171.098L400.802,182.76Z" fill="#FFBE9D"/>
<path d="M424.339,203.526C422.258,202.233 420.081,201.101 417.827,200.14C414.027,198.707 410.664,198.672 410.723,198.459C413.23,198.28 415.747,198.64 418.103,199.514C420.46,200.388 422.602,201.756 424.386,203.526L424.339,203.526Z" fill="#EB996E"/>
<path d="M338.797,140.383C338.432,140.851 338.122,141.359 337.873,141.898C337.166,143.312 336.576,144.781 336.109,146.291C334.633,151.194 333.731,156.252 333.422,161.363C333.032,166.433 333.091,171.528 333.599,176.588C333.75,178.128 333.988,179.657 334.31,181.17C334.395,181.738 334.546,182.294 334.759,182.828C334.774,182.259 334.718,181.69 334.594,181.135C334.452,180.057 334.262,178.494 334.132,176.565C333.77,171.516 333.77,166.447 334.132,161.398C334.454,156.329 335.275,151.305 336.583,146.397C337.006,144.897 337.516,143.422 338.11,141.981C338.397,141.475 338.627,140.939 338.797,140.383L338.797,140.383Z" fill="#070638"/>
<path d="M314.48,241.685L328.084,235.197L354.557,233.089L356.724,231.598L363.058,246.326C363.058,246.326 356.12,249.641 352.485,249.937L330.215,249.262L318.577,250.446L314.48,241.685Z" fill="#FFBE9D"/>
<path d="M429.689,169.736C429.471,169.784 429.26,169.86 429.061,169.961L427.285,170.707L420.809,173.584L399.498,183.281L396.905,184.465L397.308,184.607C393.614,176.994 390.381,170.174 388.085,165.249C386.972,162.881 386.072,160.88 385.409,159.436L384.687,157.861C384.613,157.67 384.514,157.491 384.391,157.328C384.434,157.526 384.493,157.72 384.568,157.908C384.71,158.275 384.912,158.82 385.196,159.518C385.752,160.927 386.605,162.94 387.706,165.438C389.896,170.411 393.069,177.278 396.763,184.891L396.893,185.163L397.166,185.033L399.758,183.849L420.939,173.998L427.333,170.944L429.061,170.079C429.283,169.989 429.493,169.874 429.689,169.736L429.689,169.736Z" fill="#01008A"/>
<path d="M400.222,124.832C400.222,124.95 398.719,124.903 396.398,125.459C393.383,126.169 390.601,127.644 388.32,129.74C386.039,131.836 384.336,134.484 383.375,137.429C382.605,139.69 382.522,141.194 382.404,141.182C382.35,140.833 382.35,140.478 382.404,140.128C382.498,139.17 382.68,138.223 382.948,137.299C383.837,134.219 385.559,131.444 387.923,129.28C390.288,127.116 393.204,125.646 396.351,125.033C397.263,124.85 398.191,124.755 399.121,124.749C399.49,124.714 399.862,124.742 400.222,124.832L400.222,124.832Z" fill="#070638"/>
<path d="M418.633,145.465C418.551,145.954 418.408,146.432 418.207,146.886C417.775,148.17 417.161,149.386 416.384,150.497L415.543,151.55L415.081,152.119L414.537,152.628L413.353,153.682L411.979,154.617C409.874,155.899 407.598,156.875 405.219,157.518C400.199,158.926 395.546,159.589 392.326,160.596C390.585,161.141 388.878,161.785 387.211,162.526C387.596,162.212 388.017,161.945 388.466,161.732C388.965,161.44 389.488,161.191 390.029,160.987L391.035,160.56L392.219,160.181C395.451,158.997 400.116,158.311 405.077,156.926C407.403,156.299 409.634,155.359 411.707,154.131L413.057,153.243L414.241,152.249C414.418,152.083 414.608,151.941 414.774,151.775L415.223,151.243L416.076,150.248C416.861,149.177 417.517,148.016 418.029,146.791C418.186,146.33 418.388,145.885 418.633,145.465Z" fill="#FFFFFF"/>
<path d="M414.419,137.924C413.962,137.977 413.512,138.084 413.081,138.244C411.954,138.784 411.023,139.662 410.417,140.754C409.991,141.429 409.564,142.199 408.996,142.992C408.378,143.821 407.653,144.565 406.841,145.206C404.951,146.618 402.809,147.658 400.531,148.272C398.163,148.994 395.795,149.456 393.77,149.918C391.941,150.332 390.153,150.915 388.431,151.658C386.871,152.395 385.417,153.339 384.109,154.464C384.109,154.464 384.169,154.346 384.322,154.168C384.546,153.9 384.787,153.646 385.045,153.411C386.003,152.54 387.084,151.814 388.253,151.256C389.978,150.441 391.784,149.81 393.64,149.373C395.712,148.829 398.021,148.391 400.353,147.68C402.556,147.081 404.634,146.091 406.486,144.756C407.273,144.16 407.977,143.464 408.582,142.684C409.138,141.95 409.588,141.18 410.062,140.517C410.734,139.38 411.768,138.501 412.998,138.019C413.335,137.897 413.693,137.84 414.052,137.853C414.288,137.865 414.419,137.901 414.419,137.924Z" fill="#FFFFFF"/>
<path d="M388.582,166.395C388.429,166.51 388.262,166.605 388.085,166.679L386.581,167.377C385.279,167.969 383.372,168.81 380.981,169.745C378.176,170.856 375.291,171.75 372.35,172.421C368.729,173.275 364.988,173.495 361.292,173.072C357.635,172.471 354.059,171.45 350.636,170.029C347.862,168.929 344.976,168.134 342.029,167.661C340.043,167.366 338.021,167.411 336.05,167.792C334.653,168.088 333.919,168.419 333.907,168.36C333.895,168.301 334.073,168.253 334.416,168.088C334.927,167.871 335.453,167.693 335.991,167.555C337.982,167.076 340.044,166.963 342.076,167.223C345.071,167.645 348.007,168.411 350.826,169.508C354.219,170.877 357.753,171.87 361.363,172.468C364.989,172.878 368.659,172.678 372.22,171.876C375.14,171.235 378.012,170.393 380.815,169.354C383.183,168.478 385.148,167.709 386.474,167.176L388.014,166.584C388.191,166.49 388.383,166.426 388.582,166.395Z" fill="#FFFFFF"/>
<path d="M336.027,155.53C336.027,155.53 336.158,155.4 336.442,155.198C336.865,154.921 337.318,154.69 337.791,154.512C339.555,153.848 341.459,153.653 343.321,153.943C346.062,154.363 348.696,155.312 351.075,156.738C353.907,158.496 356.859,160.055 359.908,161.402C363.04,162.513 366.356,163.011 369.675,162.87C372.393,162.769 375.098,162.444 377.762,161.9C380.047,161.461 381.894,161.023 383.161,160.716C383.813,160.534 384.478,160.403 385.15,160.325C384.523,160.581 383.878,160.791 383.22,160.952C381.965,161.319 380.142,161.817 377.857,162.314C375.172,162.926 372.438,163.298 369.687,163.427C366.293,163.604 362.897,163.109 359.695,161.971C356.617,160.616 353.645,159.033 350.803,157.235C348.491,155.819 345.932,154.851 343.261,154.381C341.464,154.059 339.614,154.181 337.874,154.737C336.655,155.127 336.063,155.53 336.027,155.53Z" fill="#FFFFFF"/>
<path d="M329.93,172.364C329.93,172.364 329.799,172.364 329.563,172.364C329.218,172.296 328.88,172.193 328.556,172.057C327.342,171.53 326.274,170.718 325.442,169.689C324.197,168.206 323.292,166.468 322.79,164.598C322.24,162.322 321.954,159.99 321.938,157.648C321.919,155.345 321.737,153.046 321.393,150.769C321.063,148.93 320.406,147.166 319.452,145.56C318.537,144.094 317.277,142.874 315.781,142.008C315.781,142.008 315.912,142.008 316.136,142.114C316.465,142.24 316.782,142.394 317.084,142.576C318.176,143.294 319.101,144.239 319.795,145.347C320.838,146.971 321.561,148.779 321.926,150.674C322.312,152.979 322.514,155.311 322.53,157.648C322.544,159.946 322.806,162.237 323.311,164.479C323.776,166.283 324.606,167.971 325.75,169.44C326.532,170.423 327.512,171.23 328.627,171.808C329.444,172.199 329.941,172.305 329.93,172.364Z" fill="#FFFFFF"/>
<path d="M333.175,163.955C332.528,162.704 331.958,161.416 331.47,160.095L327.503,150.789C325.917,147.155 324.449,143.875 323.324,141.543C322.199,139.21 321.418,137.801 321.489,137.754C321.764,138.02 321.995,138.328 322.176,138.666C322.566,139.281 323.099,140.193 323.715,141.341C324.899,143.638 326.485,146.894 328.072,150.541C329.658,154.187 330.972,157.526 331.872,160.012C332.322,161.196 332.665,162.226 332.89,162.925C333.029,163.255 333.125,163.601 333.175,163.955L333.175,163.955Z" fill="#FFFFFF"/>
<path d="M238.102,189.41L314.443,190.038C316.918,190.038 319.286,191.222 319.653,193.672L328,249.318L367.319,249.318C367.928,249.318 368.512,249.56 368.943,249.991C369.374,250.422 369.616,251.006 369.616,251.615C369.616,252.225 369.374,252.809 368.943,253.239C368.512,253.67 367.928,253.912 367.319,253.912L241.784,253.912L233.2,195.188C233.09,194.478 233.133,193.752 233.328,193.06C233.523,192.368 233.865,191.726 234.33,191.178C234.795,190.63 235.372,190.188 236.023,189.883C236.674,189.578 237.383,189.417 238.102,189.41L238.102,189.41Z" fill="#E0E0E0"/>
<path d="M238.1,189.41C237.702,189.393 237.304,189.433 236.916,189.528C235.746,189.803 234.713,190.488 234.004,191.458C233.481,192.174 233.154,193.015 233.057,193.897C233.039,194.95 233.135,196.002 233.341,197.035L234.442,204.789C236.123,216.451 238.538,233.204 241.546,253.935L241.546,254.137L241.759,254.137L363.588,254.208L366.868,254.208C367.467,254.264 368.071,254.149 368.608,253.876C369.012,253.65 369.349,253.32 369.583,252.921C369.817,252.521 369.941,252.066 369.941,251.603C369.941,251.14 369.817,250.685 369.583,250.285C369.349,249.886 369.012,249.556 368.608,249.33C368.077,249.064 367.483,248.949 366.891,248.998L328.081,248.998L328.377,249.259C325.37,229.333 322.564,210.745 320.089,194.063C320.014,192.95 319.509,191.909 318.68,191.162C317.848,190.463 316.834,190.016 315.756,189.872C314.733,189.772 313.705,189.736 312.678,189.765L309.682,189.765L298.186,189.682L277.763,189.564L248.685,189.41L238.1,189.41C238.1,189.41 238.325,189.41 238.787,189.41L240.788,189.41L248.567,189.516L277.644,189.836L298.068,190.037L309.564,190.156L312.559,190.156C313.563,190.131 314.567,190.167 315.567,190.262C316.549,190.397 317.473,190.807 318.231,191.446C318.947,192.134 319.371,193.071 319.414,194.063C321.913,210.733 324.683,229.333 327.702,249.259L327.702,249.519L366.773,249.519C367.26,249.467 367.753,249.554 368.194,249.768C368.607,250 368.924,250.372 369.089,250.816C369.254,251.261 369.255,251.749 369.093,252.195C368.932,252.638 368.617,253.007 368.205,253.237C367.759,253.461 367.257,253.552 366.761,253.497L363.6,253.497L241.771,253.568L241.996,253.77C238.941,233.11 236.443,216.309 234.714,204.647C234.276,201.747 233.885,199.154 233.53,196.916C233.307,195.898 233.204,194.857 233.222,193.814C233.301,192.961 233.603,192.144 234.099,191.446C234.779,190.481 235.783,189.792 236.928,189.505C237.317,189.454 237.708,189.422 238.1,189.41L238.1,189.41Z" fill="#01008A"/>
<path d="M276.178,225.734C278.819,225.734 280.961,223.593 280.961,220.951C280.961,218.309 278.819,216.168 276.178,216.168C273.536,216.168 271.395,218.309 271.395,220.951C271.395,223.593 273.536,225.734 276.178,225.734Z" fill="#FFFFFF"/>
<path d="M324.958,253.385C324.84,253.385 322.413,239.236 319.524,221.749C316.635,204.262 314.385,190.055 314.492,190.043C314.598,190.031 317.026,204.191 319.914,221.678C322.803,239.165 325.065,253.373 324.958,253.385Z" fill="#01008A"/>
</svg>
