<svg width="1448" height="1014" viewBox="0 0 1448 1014" fill="none" xmlns="http://www.w3.org/2000/svg" xmlns:xlink="http://www.w3.org/1999/xlink">
<path d="M578.637,376.495C578.637,376.495 568.807,458.904 565.043,465.701C561.279,472.499 561.279,472.499 561.279,472.499L542.385,485.363C542.385,485.363 578.674,536.781 623.295,545.077C667.917,553.409 664.116,526.914 664.116,526.914L657.319,512.552L666.382,433.907C666.345,433.944 585.435,396.924 578.637,376.495Z" fill="#FF9D8C"/>
<path d="M518.889,492.196L548.38,479.332C548.38,479.332 567.274,510.322 611.128,528.485C654.982,546.648 655.749,536.05 658.015,528.485C660.281,520.92 657.248,512.624 657.248,512.624L660.5,486.166L678.042,492.013L738.927,984.456L582.404,992.022L518.889,492.196Z" fill="#FFFFFF"/>
<path d="M663.313,486.642C663.313,486.642 673.911,511.09 683.741,568.539C693.572,625.988 702.635,722.796 704.901,789.308C707.166,855.856 708.665,1007.81 708.665,1007.81C708.665,1007.81 903.743,1007.81 906.008,1007.81C908.272,1007.81 921.869,932.966 921.869,932.966C921.869,932.966 835.659,859.108 831.127,847.012C828.094,838.936 829.628,689.504 816.765,620.689C803.901,551.874 787.273,538.024 752.482,520.884C716.595,503.197 663.313,486.642 663.313,486.642Z" fill="#01008A"/>
<path d="M766.153,921.197C765.13,921.197 764.326,920.393 764.326,919.369C764.326,913.961 763.376,837.143 762.426,762.884C761.512,688.589 760.525,611.771 760.525,606.362C760.525,605.339 761.329,604.535 762.353,604.535C763.376,604.535 764.18,605.339 764.18,606.362C764.18,611.771 765.13,688.589 766.08,762.848C766.994,837.143 767.981,913.961 767.981,919.369C767.981,920.393 767.14,921.197 766.153,921.197Z" fill="#8593B6"/>
<path d="M372.961,902.743L371.463,1007.846L601.331,1007.846C601.331,1007.846 611.161,918.64 607.397,910.308C603.597,901.975 372.961,902.743 372.961,902.743Z" fill="#01008A"/>
<path d="M628.778,463.436C638.134,471.001 650.961,477.03 660.938,480.721L666.347,433.944C666.347,433.944 605.572,406.097 584.961,385.412C589.273,408.947 599.871,440.12 628.778,463.436Z" fill="#8E9BBB"/>
<path d="M737.425,223.006C737.425,223.006 753.285,250.232 756.318,283.488C759.352,316.744 756.318,402.186 729.093,438.475C701.867,474.763 645.149,464.165 619.458,442.239C595.85,422.103 572.57,399.884 566.54,356.03C560.474,312.176 579.404,229 633.089,211.604C686.737,194.282 737.425,223.006 737.425,223.006Z" fill="#FF9D8C"/>
<path d="M805.62,960.301C805.62,960.301 802.952,960.301 798.895,960.191C797.945,960.155 796.885,960.191 795.789,960.155C791.879,960.045 787.128,959.935 782.341,959.789C781.281,959.753 780.184,959.716 779.125,959.68C774.374,959.57 770.317,960.155 766.517,959.935L766.407,959.935C765.603,959.899 764.434,960.008 763.483,960.045C763.008,960.082 762.57,960.118 762.277,960.082C760.085,959.68 759.646,959.168 757.271,958.108C754.201,956.719 712.649,947.437 678.845,947.656C645.078,947.802 614.782,950.105 609.848,945.975C604.878,941.773 601.882,899.344 630.716,896.566L666.164,910.015C666.164,910.015 747.111,900.404 776.786,922.294C806.533,944.185 805.62,960.301 805.62,960.301Z" fill="#FF9D8C"/>
<path d="M766.407,959.935C765.603,959.899 764.433,960.008 763.483,960.045C762.752,958.876 761.217,956.756 760.377,955.879C751.241,946.56 729.167,940.53 721.164,938.593C720.433,938.41 719.958,937.68 720.141,936.949C720.287,936.218 721.054,935.779 721.822,935.925C733.48,938.739 758.221,945.939 765.237,957.743C765.457,958.072 766.041,959.204 766.407,959.935Z" fill="#223A7A"/>
<path d="M782.341,959.788C781.281,959.752 780.185,959.752 779.125,959.679C769.148,941.48 752.812,936.254 732.676,929.785L731.47,929.383C730.776,929.164 730.374,928.36 730.593,927.629C730.812,926.935 731.58,926.533 732.347,926.752L733.517,927.154C754.823,934.024 771.999,939.506 782.341,959.788Z" fill="#223A7A"/>
<path d="M798.896,960.19C797.946,960.154 796.886,960.19 795.79,960.154C789.724,947.436 769.697,926.13 743.238,921.197C742.471,921.05 741.996,920.356 742.106,919.589C742.252,918.858 742.983,918.383 743.713,918.492C770.976,923.609 793.013,945.901 798.896,960.19Z" fill="#223A7A"/>
<path d="M584.669,318.645C584.669,318.645 601.297,310.714 613.028,288.385C624.759,266.093 623.224,246.03 623.224,246.03C623.224,246.03 644.384,242.631 676.141,252.096C707.899,261.561 745.686,274.389 777.444,256.262C809.202,238.099 809.202,209.01 793.706,196.913C776.348,183.355 741.922,191.614 741.922,191.614C741.922,191.614 755.152,178.75 747.988,171.186C740.79,163.621 714.733,173.451 714.733,173.451C714.733,173.451 682.975,148.126 622.859,151.159C562.742,154.192 534.018,196.146 530.619,243.033C527.221,289.92 544.214,336.807 544.214,336.807L584.669,318.645Z" fill="#223A7A"/>
<path d="M706.619,330.01C703.22,338.415 703.293,348.172 702.453,357.053C701.795,363.996 700.516,372.073 706.875,376.751C709.908,378.98 724.27,385.01 716.888,389.907C714.074,391.771 709.36,391.259 706.144,391.113C703.951,391.003 701.722,390.93 699.492,390.747C697.117,390.565 694.815,389.87 692.439,389.834C691.051,389.834 690.612,391.661 691.745,392.392C695.546,394.767 701.174,395.535 705.595,395.681C710.054,395.864 713.051,395.644 717.071,393.671C719.519,392.465 721.931,390.711 722.296,387.787C722.735,384.498 720.25,381.538 717.765,379.674C714.914,377.555 711.406,376.568 708.519,374.485C704.499,371.634 704.828,366.774 705.12,362.315C705.815,351.571 708.263,341.01 709.213,330.302C709.433,328.73 707.167,328.73 706.619,330.01Z" fill="#8E9BBB"/>
<path d="M737.537,355.152C736.404,361.511 731.763,366.043 727.195,365.239C722.59,364.435 719.812,358.587 720.909,352.229C722.042,345.87 726.683,341.338 731.251,342.142C735.856,342.946 738.67,348.793 737.537,355.152Z" fill="#223A7A"/>
<path d="M679.684,350.109C678.661,356.979 673.8,361.95 668.867,361.219C663.896,360.488 660.717,354.312 661.74,347.441C662.764,340.571 667.624,335.601 672.558,336.332C677.491,337.062 680.707,343.239 679.684,350.109Z" fill="#223A7A"/>
<path d="M724.09,328.877C727.635,329.461 731.18,328.877 734.761,329.132C735.602,329.206 736.479,329.315 737.319,329.388C737.941,329.461 736.186,329.206 737.027,329.352C737.21,329.388 737.392,329.425 737.575,329.425C738.014,329.498 738.452,329.608 738.891,329.717C739.658,329.9 740.389,330.192 741.156,330.338C741.851,330.485 742.618,330.667 743.313,330.631C743.715,330.594 744.08,330.521 744.482,330.485C744.226,330.521 744.007,330.558 743.751,330.631C743.751,330.704 745.067,330.485 745.213,330.485C747.223,330.01 748.502,327.671 747.917,325.697C747.771,325.112 747.515,324.637 747.15,324.162C747.004,323.98 746.858,323.76 746.675,323.578C746.821,323.724 746.967,323.907 747.113,324.053C746.967,323.833 746.821,323.651 746.638,323.431C746.456,323.103 746.163,322.81 745.834,322.627C745.542,322.408 745.286,322.189 744.994,321.97C744.044,321.312 742.838,320.946 741.705,320.654C739.585,320.106 737.392,319.85 735.2,319.813C733.043,319.813 730.887,320.033 728.768,320.325C726.867,320.581 724.784,321.239 723.249,322.372C722.08,323.249 721.349,324.382 721.532,325.916C721.678,327.196 722.701,328.657 724.09,328.877Z" fill="#223A7A"/>
<path d="M683.741,318.754C683.266,318.462 682.754,318.206 682.279,317.987C681.841,317.804 680.671,317.183 681.548,317.658C681.219,317.475 680.89,317.292 680.562,317.146C679.1,316.415 677.565,315.904 675.993,315.502C672.558,314.625 668.904,314.405 665.359,314.771C661.595,315.173 658.123,316.086 654.87,318.06C654.395,318.352 653.92,318.608 653.555,319.01C653.299,319.339 653.043,319.668 652.787,319.997C652.86,319.887 652.934,319.777 653.007,319.668C651.983,320.362 651.399,321.532 651.435,322.738C651.435,323.907 652.056,324.894 653.08,325.442C654.322,326.136 655.492,325.807 656.771,325.478C656.15,325.478 655.492,325.478 654.87,325.478C655.93,325.625 656.661,325.698 657.721,325.442C657.757,325.442 658.744,325.186 658.086,325.332C657.465,325.478 659.11,325.223 659.292,325.186C659.512,325.149 660.645,325.04 659.439,325.149C659.658,325.113 659.877,325.113 660.096,325.076C660.681,325.003 661.229,324.93 661.814,324.894C664.299,324.711 666.784,324.601 669.306,324.492C671.608,324.419 673.983,324.382 676.322,324.492C677.309,324.528 678.296,324.565 679.282,324.601C679.831,324.601 679.611,324.711 679.209,324.601C679.429,324.674 679.611,324.711 679.831,324.747C680.233,324.857 680.635,325.003 681.037,325.149C682.645,325.771 684.581,324.601 685.166,323.103C685.824,321.532 685.276,319.668 683.741,318.754Z" fill="#223A7A"/>
<path d="M701.687,423.894C705.159,416.914 711.481,411.798 718.754,408.509C712.432,407.851 682.501,405.11 674.973,409.386C666.531,414.173 676.544,433.469 694.013,434.419C695.84,434.529 697.521,434.383 699.129,434.127C699.275,430.619 700.079,427.11 701.687,423.894Z" fill="#223A7A"/>
<path d="M563.51,383.292C563.51,383.292 566.543,395.023 583.938,408.618C601.334,422.212 626.55,432.189 626.55,432.189L628.56,423.382C628.56,423.382 602.467,412.053 590.37,399.555C578.274,387.093 576.776,380.259 576.776,380.259L563.51,383.292Z" fill="#DEE1EB"/>
<path d="M631.553,416.841C645.55,416.183 653.371,427.256 654.321,434.419C655.308,441.582 648.583,449.622 632.832,442.569C613.317,433.798 617.557,417.499 631.553,416.841Z" fill="#223A7A"/>
<path d="M574.474,296.717C574.474,296.717 580.504,253.265 609.63,223.737C665.215,167.421 712.468,170.82 712.468,170.82C712.468,170.82 712.102,162.89 694.305,156.823C677.604,151.159 670.112,154.192 670.112,154.192C670.112,154.192 624.358,157.956 585.803,200.677C547.248,243.398 543.082,297.85 543.082,297.85L574.474,296.717Z" fill="#DEE1EB"/>
<path d="M570.306,291.418C533.907,285.242 513.588,313.71 512.09,342.471C510.591,371.195 531.458,393.049 559.342,390.857C622.09,385.96 614.927,298.983 570.306,291.418Z" fill="#FFFFFF"/>
<path d="M552.178,362.936C542.567,362.936 534.454,358.112 529.813,349.597C524.843,340.497 525.245,329.278 530.873,321.019C531.311,320.398 532.152,320.251 532.773,320.653C533.394,321.092 533.577,321.932 533.138,322.554C528.095,329.972 527.73,340.059 532.225,348.281C536.464,356.065 543.992,360.487 552.909,360.195C561.242,359.976 568.295,356.175 572.753,349.487C577.869,341.849 579.039,331.324 575.75,322.627C572.461,314.002 563.507,308.155 555.358,309.215C554.627,309.324 553.933,308.776 553.823,308.045C553.713,307.278 554.261,306.62 554.992,306.51C564.531,305.231 574.544,311.773 578.308,321.677C581.926,331.178 580.61,342.69 575.019,351.022C570.012,358.477 562.192,362.717 552.982,362.936C552.69,362.936 552.434,362.936 552.178,362.936Z" fill="#818FB3"/>
<path d="M525.723,481.599C525.723,481.599 415.32,508.825 376.765,552.679C338.21,596.532 320.047,812.769 319.316,852.859C318.549,892.949 346.542,909.577 363.17,920.905C379.798,932.235 453.144,952.663 512.127,955.697C571.111,958.731 627.061,955.697 627.061,955.697C627.061,955.697 626.879,942.833 635.941,923.939C644.347,906.397 655.019,902.779 655.019,902.779L604.367,884.617C604.367,884.617 595.487,725.683 581.673,648.719C565.775,560.243 525.723,481.599 525.723,481.599Z" fill="#01008A"/>
<path d="M708.665,859.216C708.41,859.216 708.154,859.18 707.934,859.07C707.021,858.668 706.582,857.572 707.021,856.658C717.363,833.306 728.071,787.516 734.101,755.356L734.612,752.762C736.44,743.296 738.705,731.566 734.174,723.416C731.872,719.286 726.645,710.296 721.602,701.672C716.376,692.718 711.479,684.24 710.091,681.718C707.423,676.784 715.828,663.592 727.961,645.502C731.25,640.605 734.064,636.402 735.709,633.552C740.021,626.06 737.171,619.226 733.808,611.259L732.676,608.518C729.642,601.1 726.207,593.681 722.881,586.482C721.529,583.558 720.177,580.598 718.825,577.638C717.034,573.728 715.28,569.744 713.453,565.724C702.782,541.897 691.709,517.266 677.566,493.475C677.054,492.598 677.346,491.501 678.187,490.953C679.064,490.442 680.16,490.734 680.708,491.575C694.961,515.548 706.071,540.289 716.778,564.189C718.569,568.209 720.36,572.193 722.114,576.067C723.466,579.027 724.818,581.95 726.171,584.874C729.496,592.11 732.968,599.565 736.001,607.057L737.134,609.761C740.533,617.837 744.041,626.243 738.815,635.269C737.097,638.23 734.247,642.505 730.921,647.439C724.599,656.867 711.443,676.492 713.233,679.891C714.586,682.376 719.483,690.818 724.672,699.734C729.715,708.396 734.941,717.386 737.28,721.552C742.469,730.834 740.057,743.332 738.121,753.346L737.609,755.94C735.416,767.634 723.758,827.568 710.273,858.048C710.054,858.814 709.396,859.216 708.665,859.216Z" fill="#8593B6"/>
<path d="M600.932,865.614C600.457,865.614 599.982,865.43 599.653,865.066C591.065,856.404 549.623,784.666 546.553,771.182C544.872,763.8 549.112,745.052 553.205,726.926C556.384,712.892 559.673,698.384 558.723,694.438C557.334,688.554 546.736,679.892 536.467,671.523C524.078,661.4 511.288,650.948 508.803,641.52C505.989,630.812 508.401,563.789 509.972,519.46C510.557,503.526 510.995,490.918 510.995,486.423C510.995,485.4 511.799,484.596 512.822,484.596C513.846,484.596 514.65,485.4 514.65,486.423C514.65,490.991 514.211,503.599 513.626,519.569C512.128,561.011 509.643,630.374 512.311,640.57C514.504,648.829 527.367,659.354 538.733,668.636C549.952,677.809 560.514,686.434 562.195,693.524C563.328,698.274 560.258,711.906 556.676,727.656C552.839,744.54 548.527,763.69 550.025,770.268C553.058,783.498 593.733,853.882 602.175,862.398C602.869,863.128 602.869,864.262 602.175,864.992C601.883,865.468 601.407,865.614 600.932,865.614Z" fill="#8593B6"/>
<path d="M452.376,834.257C452.303,834.257 452.193,834.257 452.12,834.257C451.133,834.111 450.439,833.197 450.548,832.175C451.901,822.673 472.878,633.369 473.828,618.861C473.901,617.838 474.778,617.07 475.765,617.143C476.788,617.217 477.519,618.094 477.482,619.08C476.532,633.589 455.519,823.147 454.166,832.649C454.057,833.599 453.253,834.257 452.376,834.257Z" fill="#8593B6"/>
<path d="M602.831,885.676C602.612,885.676 602.356,885.64 602.137,885.53C597.495,883.63 576.957,876.723 550.974,867.952C498.495,850.264 426.648,826.035 412.98,818.909C412.067,818.434 411.738,817.337 412.213,816.46C412.688,815.546 413.784,815.218 414.661,815.693C428.073,822.673 502.734,847.852 552.143,864.517C578.2,873.324 598.775,880.231 603.525,882.168C604.476,882.533 604.914,883.63 604.549,884.543C604.22,885.238 603.562,885.676 602.831,885.676Z" fill="#8593B6"/>
<path d="M577.578,961.033C531.386,961.033 441.887,952.7 373.877,928.654C372.927,928.325 372.415,927.265 372.781,926.315C373.11,925.365 374.169,924.853 375.119,925.219C461.037,955.624 581.232,960.813 603.598,955.77C604.586,955.551 605.572,956.172 605.792,957.159C606.01,958.146 605.39,959.132 604.402,959.352C599.506,960.448 590.15,961.033 577.578,961.033Z" fill="#8593B6"/>
<path d="M1391.075,710.802L1246.539,997.132L825.139,1000.164L955.166,706.782L1391.075,710.802Z" fill="#FFFFFF"/>
<path d="M545.459,998.374L545.532,975.46L818.341,975.46L943.835,700.24L1380.109,700.24L1391.073,710.838L964.885,710.838L834.457,998.154C834.457,998.118 545.459,997.606 545.459,998.374Z" fill="#B8B8FF"/>
<path d="M1172.241,868.822C1167.49,883.111 1141.653,894.148 1114.537,893.453C1087.42,892.759 1069.294,880.662 1074.081,866.373C1078.832,852.084 1104.669,841.048 1131.786,841.742C1158.902,842.4 1176.992,854.533 1172.241,868.822Z" fill="#B8B8FF"/>
<path d="M834.456,999.945C834.2,999.945 833.944,999.909 833.688,999.799C832.775,999.397 832.373,998.301 832.775,997.387L963.679,709.011L1391.035,709.011C1392.059,709.011 1392.863,709.815 1392.863,710.838C1392.863,711.862 1392.059,712.666 1391.035,712.666L966.018,712.666L836.064,998.923C835.808,999.579 835.15,999.945 834.456,999.945Z" fill="#FFFFFF"/>
<path d="M548,996L0,996L0,1014L548,1014L548,996Z" fill="#01008A"/>
<path d="M1448,996L546,996L546,1014L1448,1014L1448,996Z" fill="#01008A"/>
<path d="M1300.843,-0.795L892.307,-0.795C866.068,-0.795 844.799,20.474 844.799,46.713L844.799,240.511C844.799,266.751 866.068,288.019 892.307,288.019L928.925,288.019C929.949,305.597 927.427,331.727 912.772,365.129C959.989,343.349 987.141,310.677 1001.357,288.019L1300.879,288.019C1327.119,288.019 1348.389,266.751 1348.389,240.511L1348.389,46.713C1348.351,20.474 1327.083,-0.795 1300.843,-0.795Z" fill="#8584FF"/>
<path d="M1126.556,91.554L923.915,91.554C918.36,91.554 913.828,87.022 913.828,81.467C913.828,75.912 918.36,71.381 923.915,71.381L1126.556,71.381C1132.112,71.381 1136.642,75.912 1136.642,81.467C1136.642,87.059 1132.112,91.554 1126.556,91.554Z" fill="#FFFFFF"/>
<path d="M1271.858,150.281L920.004,150.281C916.606,150.281 913.828,147.504 913.828,144.105C913.828,140.707 916.606,137.929 920.004,137.929L1271.858,137.929C1275.258,137.929 1278.036,140.707 1278.036,144.105C1278.036,147.541 1275.258,150.281 1271.858,150.281Z" fill="#D4D4FF"/>
<path d="M1271.858,184.561L920.004,184.561C916.606,184.561 913.828,181.784 913.828,178.385C913.828,174.986 916.606,172.209 920.004,172.209L1271.858,172.209C1275.258,172.209 1278.036,174.986 1278.036,178.385C1278.036,181.82 1275.258,184.561 1271.858,184.561Z" fill="#D4D4FF"/>
<path d="M1195.119,221.106L920.045,221.106C916.647,221.106 913.869,218.328 913.869,214.93C913.869,211.531 916.647,208.753 920.045,208.753L1195.119,208.753C1198.517,208.753 1201.295,211.531 1201.295,214.93C1201.295,218.365 1198.517,221.106 1195.119,221.106Z" fill="#D4D4FF"/>
<path d="M1269.084,91.554L1172.422,91.554C1166.868,91.554 1162.336,87.022 1162.336,81.467C1162.336,75.912 1166.868,71.381 1172.422,71.381L1269.084,71.381C1274.639,71.381 1279.17,75.912 1279.17,81.467C1279.17,87.059 1274.675,91.554 1269.084,91.554Z" fill="#FFFFFF"/>
</svg>
