<svg width="80" height="74" viewBox="0 0 80 74" fill="none" xmlns="http://www.w3.org/2000/svg" xmlns:xlink="http://www.w3.org/1999/xlink">
<path d="M68.744,6.538C55.857,-4.509 44.964,5.003 41.128,11.14C38.825,11.14 27.321,-4.97 13.513,4.236C-1.805,14.448 2.774,28.783 6.609,34.152L41.128,68.672L68.744,41.056C75.648,34.152 84.853,20.345 68.744,6.538Z" transform="rotate(360 40.273 35.033)" fill="#D17655"/>
<path d="M39.699,72.208L40.002,71.905L40.306,72.208L73.19,39.324C82.27,30.244 82.27,15.52 73.19,6.44C68.649,1.898 62.698,-0.371 56.747,-0.371C50.796,-0.371 44.845,1.898 40.304,6.44L40,6.743L39.697,6.44C35.155,1.898 29.204,-0.371 23.253,-0.371C17.303,-0.371 11.352,1.898 6.81,6.44C-2.27,15.52 -2.27,30.244 6.81,39.324L39.699,72.208ZM35.545,10.593L35.849,10.896L40.002,15.05L44.155,10.896L44.461,10.591C47.743,7.309 52.108,5.502 56.749,5.502C61.39,5.502 65.754,7.309 69.036,10.591C72.318,13.873 74.126,18.238 74.126,22.879C74.126,27.52 72.318,31.885 69.036,35.167L40.308,63.899L40.004,63.596L39.699,63.901L10.968,35.171C4.192,28.395 4.192,17.37 10.968,10.595C14.25,7.313 18.615,5.505 23.255,5.505C27.898,5.504 32.261,7.311 35.545,10.593Z" transform="rotate(360 40 35.918)" fill="#6E2D16"/>
</svg>
