<svg width="478" height="388" viewBox="0 0 478 388" fill="none" xmlns="http://www.w3.org/2000/svg" xmlns:xlink="http://www.w3.org/1999/xlink">
<path d="M112.196,149.657L453.25,149.657C456.694,149.657 459.506,152.468 459.506,155.914L459.506,185.095C459.506,188.528 456.694,191.351 453.25,191.351L112.196,191.351C108.763,191.351 105.94,188.54 105.94,185.095L105.94,155.914C105.94,152.468 108.751,149.657 112.196,149.657Z" clip-rule="evenodd" fill-rule="evenodd" fill="#01004D"/>
<path d="M112.022,149.657L453.424,149.657C456.77,149.657 459.506,152.468 459.506,155.914L459.506,167.395C459.506,170.84 456.77,173.651 453.424,173.651L112.022,173.651C108.676,173.651 105.94,170.84 105.94,167.395L105.94,155.914C105.94,152.468 108.676,149.657 112.022,149.657Z" clip-rule="evenodd" fill-rule="evenodd" fill="#01008A"/>
<path d="M18.472,150.18L112.831,150.18C116.4,150.18 119.311,153.103 119.311,156.66L119.311,371.586C119.311,375.144 116.388,378.066 112.831,378.066L18.472,378.066C14.902,378.066 11.991,375.144 11.991,371.586L11.991,156.66C11.991,153.103 14.914,150.18 18.472,150.18Z" clip-rule="evenodd" fill-rule="evenodd" fill="#01004D"/>
<path d="M111.674,150.18L196.144,150.18C199.328,150.18 201.94,152.792 201.94,155.988L201.94,372.27C201.94,375.468 199.328,378.08 196.144,378.08L111.674,378.08C108.477,378.08 105.865,375.468 105.865,372.27L105.865,155.976C105.865,152.792 108.477,150.18 111.674,150.18Z" clip-rule="evenodd" fill-rule="evenodd" fill="#01008A"/>
<path d="M108.067,142.554L474.084,142.554C475.254,142.554 476.212,143.511 476.212,144.681L476.212,154.632C476.212,155.801 475.254,156.759 474.084,156.759L108.067,156.759C106.898,156.759 105.94,155.801 105.94,154.632L105.94,144.681C105.94,143.511 106.898,142.554 108.067,142.554Z" clip-rule="evenodd" fill-rule="evenodd" fill="#D58750"/>
<path d="M3.085,142.554L107.582,142.554C108.751,142.554 109.709,143.511 109.709,144.681L109.709,154.632C109.709,155.801 108.751,156.759 107.582,156.759L3.085,156.759C1.916,156.759 0.958,155.801 0.958,154.632L0.958,144.681C0.946,143.511 1.904,142.554 3.085,142.554Z" clip-rule="evenodd" fill-rule="evenodd" fill="#B56B41"/>
<path d="M117.893,163.948L189.912,163.948C192.574,163.948 194.751,166.125 194.751,168.787L194.751,224.611C194.751,227.273 192.574,229.45 189.912,229.45L117.893,229.45C115.231,229.45 113.054,227.273 113.054,224.611L113.054,168.787C113.054,166.125 115.231,163.948 117.893,163.948Z" clip-rule="evenodd" fill-rule="evenodd" fill="#FFFFFF"/>
<path d="M194.701,225.346L123.665,225.346C121.774,225.346 120.12,224.239 119.323,222.647C119,222 118.826,221.279 118.826,220.508L118.826,164.683C118.826,164.435 118.838,164.198 118.876,163.962L117.893,163.962C115.231,163.962 113.054,166.139 113.054,168.801L113.054,224.625C113.054,227.287 115.231,229.463 117.893,229.463L119.323,229.463L189.912,229.463C192.338,229.451 194.353,227.66 194.701,225.346Z" clip-rule="evenodd" fill-rule="evenodd" fill="#E4E1E8"/>
<path d="M136.526,167.816L171.292,167.816C172.324,167.816 173.157,168.65 173.157,169.682L173.157,170.267C173.157,171.299 172.312,172.133 171.292,172.133L136.526,172.133C135.493,172.133 134.66,171.287 134.66,170.267L134.66,169.682C134.66,168.65 135.506,167.816 136.526,167.816Z" clip-rule="evenodd" fill-rule="evenodd" fill="#070725"/>
<path d="M402.213,150.179L389.19,150.179C388.879,150.179 388.618,150.44 388.618,150.751L388.618,380.243C388.618,380.567 388.879,380.815 389.19,380.815L402.213,380.815C402.537,380.815 402.786,380.553 402.786,380.243L402.786,150.751C402.798,150.44 402.537,150.179 402.213,150.179Z" clip-rule="evenodd" fill-rule="evenodd" fill="#7473FA"/>
<path d="M402.089,150.179L398.022,150.179C396.417,150.179 395.111,151.485 395.111,153.089L395.111,377.917C395.111,379.509 396.417,380.827 398.022,380.827L402.089,380.827C403.694,380.827 405,379.521 405,377.917L405,153.077C404.988,151.485 403.682,150.179 402.089,150.179Z" clip-rule="evenodd" fill-rule="evenodd" fill="#CFCFFF"/>
<path d="M463.225,150.179L450.202,150.179C449.878,150.179 449.63,150.44 449.63,150.751L449.63,380.243C449.63,380.567 449.891,380.815 450.202,380.815L463.225,380.815C463.536,380.815 463.797,380.553 463.797,380.243L463.797,150.751C463.797,150.44 463.536,150.179 463.225,150.179Z" clip-rule="evenodd" fill-rule="evenodd" fill="#7473FA"/>
<path d="M463.088,150.179L459.021,150.179C457.416,150.179 456.11,151.485 456.11,153.089L456.11,377.917C456.11,379.509 457.416,380.827 459.021,380.827L463.088,380.827C464.692,380.827 465.999,379.521 465.999,377.917L465.999,153.077C465.999,151.485 464.692,150.179 463.088,150.179Z" clip-rule="evenodd" fill-rule="evenodd" fill="#CFCFFF"/>
<path d="M261.571,142.554L474.083,142.554C475.253,142.554 476.211,143.511 476.211,144.681L476.211,154.632C476.211,155.801 475.253,156.759 474.083,156.759L275.415,156.759C271.609,151.547 266.72,146.77 261.571,142.554Z" clip-rule="evenodd" fill-rule="evenodd" fill="#B56B41"/>
<path d="M338.752,80.883L341.427,85.348C341.427,85.348 342.459,90.772 340.917,94.478C339.374,98.185 358.617,102.203 358.617,102.203L373.543,90.162L376.839,86.045C376.839,86.045 369.836,78.433 369.426,75.136C369.015,71.828 338.752,80.883 338.752,80.883Z" clip-rule="evenodd" fill-rule="evenodd" fill="#ED7862"/>
<path d="M305.492,123.561C305.492,123.561 295.404,131.695 291.909,132.305C288.413,132.927 273.077,125.824 269.992,124.991C266.907,124.17 260.004,124.17 255.165,124.17C250.327,124.17 245.177,126.023 242.602,131.372C242.602,131.372 250.115,131.372 252.901,131.372C255.675,131.372 265.054,138.984 274.109,145.166C283.164,151.336 290.366,156.485 296.349,155.876C302.32,155.254 322.906,139.818 322.906,139.818L305.492,123.561Z" clip-rule="evenodd" fill-rule="evenodd" fill="#F5AC83"/>
<path d="M274.097,145.179C283.152,151.349 290.354,156.498 296.337,155.889C302.307,155.267 322.893,139.83 322.893,139.83L305.491,123.573C305.491,123.573 303.153,125.451 300.354,127.467C307.681,139.109 304.384,144.147 295.777,147.58C288.886,150.341 271.348,140.751 260.315,135.402C264.295,138.139 269.245,141.858 274.097,145.179Z" clip-rule="evenodd" fill-rule="evenodd" fill="#ED7862"/>
<path d="M387.797,218.578C387.797,218.578 335.717,218.106 329.274,218.653C322.831,219.2 316.624,225.979 317.694,236.452C318.763,246.926 333.341,328.485 333.341,328.485C333.341,328.485 334.324,329.207 335.456,329.443C336.588,329.679 345.904,331.209 345.904,331.209L346.539,323.647L341.091,244.301L389.128,235.532L387.797,218.578Z" clip-rule="evenodd" fill-rule="evenodd" fill="#05044D"/>
<path d="M346.551,323.659C346.551,323.659 347.645,323.958 348.118,325.351C348.603,326.744 349.598,335.749 349.499,337.043C349.412,338.324 346.19,340.824 340.692,343.15C335.194,345.489 314.273,351.596 314.273,351.596L314.037,350.837C314.037,350.837 313.054,350.402 312.656,349.121C312.258,347.84 312.395,344.979 313.539,343.362C314.683,341.732 321.437,337.105 322.669,336.11C323.9,335.115 330.02,326.607 330.518,326.035C331.015,325.463 334.249,323.41 338.068,325.55C341.899,327.664 346.227,326.918 346.551,323.659Z" clip-rule="evenodd" fill-rule="evenodd" fill="#D64C47"/>
<path d="M314.049,350.838C314.049,350.838 334.921,343.176 339.499,341.571C344.076,339.967 349.462,335.613 349.462,335.613C349.462,335.613 350.208,335.949 350.358,336.559C350.519,337.168 350.631,339.308 350.693,339.755C350.743,340.203 350.594,342.218 348.305,343.201C346.017,344.183 316.861,354.458 315.53,354.893C314.199,355.328 313.664,351.808 313.664,351.808C313.664,351.808 313.564,351.05 314.049,350.838Z" clip-rule="evenodd" fill-rule="evenodd" fill="#FFFFFF"/>
<path d="M420.051,186.251C420.051,186.251 280.851,202.322 273.238,203.976C265.626,205.63 259.245,214.686 262.118,227.037C265.004,239.389 296.2,338.586 296.2,338.586C296.2,338.586 297.493,339.307 298.874,339.407C300.267,339.507 311.636,339.917 311.636,339.917L316.114,335.34L291.2,246.802L392.897,241.652C421.419,237.05 425.287,202.309 420.051,186.251Z" clip-rule="evenodd" fill-rule="evenodd" fill="#01008A"/>
<path d="M322.11,196.861C322.11,196.861 333.23,205.096 339.922,202.421C346.614,199.747 378.73,144.259 378.73,144.259L363.294,88.671C363.294,88.671 352.995,89.081 340.755,91.756L338.441,93.87C338.441,93.87 329.386,95.413 324.237,101.172C319.087,106.931 302.208,121.969 301.586,123.2C300.964,124.432 316.301,141.311 320.219,143.998C320.219,143.998 322.072,144.619 323.204,143.488L325.058,141.995C325.058,141.995 329.175,163.439 329.175,169.783C329.175,176.139 329.175,176.139 329.175,176.139C329.175,176.139 327.01,192.533 325.369,194.075C323.714,195.618 322.11,196.861 322.11,196.861Z" clip-rule="evenodd" fill-rule="evenodd" fill="#D64C47"/>
<path d="M371.814,207.422C374.389,207.422 376.478,205.332 376.478,202.757C376.478,200.183 374.389,198.093 371.814,198.093L330.642,198.093C325.02,198.093 319.92,195.792 316.201,192.085C313.49,189.373 311.537,185.916 310.678,182.06C307.954,183.142 305.006,184.609 302.121,186.214C303.564,190.978 306.163,195.257 309.609,198.69C315.007,204.088 322.445,207.434 330.642,207.434L371.814,207.434L371.814,207.422Z" clip-rule="evenodd" fill-rule="evenodd" fill="#FFFFFF"/>
<path d="M383.892,244.414L372.063,244.414L372.063,341.746L383.892,341.746L383.892,244.414Z" fill="#01004D"/>
<path d="M367.896,211.725L356.365,211.725L356.365,238.069L367.896,238.069L367.896,211.725Z" fill="#01004D"/>
<path d="M447.565,211.725L436.034,211.725L436.034,238.069L447.565,238.069L447.565,211.725Z" fill="#01004D"/>
<path d="M372.063,268.444L383.892,268.444C387.661,268.444 390.745,265.36 390.745,261.591L390.745,248.941C390.745,245.172 387.661,242.1 383.892,242.1L372.063,242.1C368.294,242.1 365.209,245.184 365.209,248.941L365.209,261.591C365.221,265.36 368.306,268.444 372.063,268.444Z" clip-rule="evenodd" fill-rule="evenodd" fill="#383774"/>
<path d="M362.647,259.887L393.308,259.887C394.39,259.887 395.273,259.004 395.273,257.922L395.273,242.013C395.273,240.931 394.39,240.048 393.308,240.048L362.647,240.048C361.564,240.048 360.681,240.931 360.681,242.013L360.681,257.922C360.694,259.004 361.577,259.887 362.647,259.887Z" clip-rule="evenodd" fill-rule="evenodd" fill="#01008A"/>
<path d="M287.195,232.51L383.121,232.51C386.74,232.51 389.701,235.47 389.701,239.102L389.701,246.516C389.701,250.135 386.74,253.108 383.121,253.108L287.195,253.108C283.575,253.108 280.602,250.148 280.602,246.516L280.602,239.102C280.614,235.483 283.575,232.51 287.195,232.51Z" clip-rule="evenodd" fill-rule="evenodd" fill="#F18A00"/>
<path d="M356.987,232.51L452.913,232.51C456.533,232.51 459.506,235.47 459.506,239.102L459.506,246.516C459.506,250.135 456.545,253.108 452.913,253.108L356.987,253.108C353.367,253.108 350.395,250.148 350.395,246.516L350.395,239.102C350.395,235.483 353.355,232.51 356.987,232.51Z" clip-rule="evenodd" fill-rule="evenodd" fill="#FCC100"/>
<path d="M372.063,335.401L383.892,335.401C387.661,335.401 390.745,338.486 390.745,342.255L390.745,354.905C390.745,358.674 387.661,361.746 383.892,361.746L372.063,361.746C368.294,361.746 365.209,358.662 365.209,354.905L365.209,342.243C365.221,338.474 368.306,335.401 372.063,335.401Z" clip-rule="evenodd" fill-rule="evenodd" fill="#383774"/>
<path d="M363.53,347.939L392.449,347.939C394.004,347.939 395.286,349.208 395.286,350.775L395.286,373.749C395.286,375.304 394.004,376.585 392.449,376.585L363.53,376.585C361.975,376.585 360.694,375.317 360.694,373.749L360.694,350.775C360.694,349.221 361.963,347.939 363.53,347.939Z" clip-rule="evenodd" fill-rule="evenodd" fill="#01004D"/>
<path d="M409.379,369.571C409.379,374.235 405.56,378.066 400.883,378.066L355.072,378.066C350.395,378.066 346.576,374.248 346.576,369.571C346.576,364.906 350.395,361.075 355.072,361.075L400.883,361.075C405.56,361.075 409.379,364.906 409.379,369.571Z" clip-rule="evenodd" fill-rule="evenodd" fill="#383874"/>
<path d="M453.946,378.066C453.946,382.73 450.127,386.561 445.45,386.561L329.038,386.561C324.361,386.561 320.542,382.743 320.542,378.066C320.542,373.389 324.361,369.57 329.038,369.57L445.45,369.57C450.127,369.57 453.946,373.389 453.946,378.066Z" clip-rule="evenodd" fill-rule="evenodd" fill="#01008A"/>
<path d="M381.068,378.066C381.068,382.73 377.249,386.561 372.572,386.561L310.504,386.561C305.827,386.561 302.008,382.743 302.008,378.066C302.008,373.389 305.827,369.57 310.504,369.57L372.572,369.57C377.249,369.57 381.068,373.389 381.068,378.066Z" clip-rule="evenodd" fill-rule="evenodd" fill="#01004D"/>
<path d="M354.524,176.127C357.099,176.127 359.189,178.217 359.189,180.791C359.189,183.366 357.099,185.456 354.524,185.456L313.353,185.456C307.73,185.456 302.618,187.757 298.911,191.464C295.205,195.17 292.904,200.283 292.904,205.905L292.904,243.009C292.904,245.584 290.814,247.674 288.239,247.674C285.664,247.674 283.575,245.584 283.575,243.009L283.575,205.917C283.575,197.72 286.921,190.27 292.319,184.884C297.717,179.485 305.156,176.139 313.353,176.139L354.524,176.139L354.524,176.127Z" clip-rule="evenodd" fill-rule="evenodd" fill="#FFFFFF"/>
<path d="M445.91,126.396C445.91,98.26 422.887,75.236 394.751,75.236L387.959,75.236C359.823,75.236 336.799,98.26 336.799,126.396C336.799,145.999 336.799,182.892 336.799,202.483C336.799,209.71 342.72,215.63 349.947,215.63L432.75,215.63C439.977,215.63 445.898,209.71 445.898,202.483C445.91,182.88 445.91,145.987 445.91,126.396Z" clip-rule="evenodd" fill-rule="evenodd" fill="#F18A00"/>
<path d="M459.506,126.396C459.506,98.26 436.482,75.236 408.346,75.236L401.554,75.236C373.418,75.236 350.395,98.26 350.395,126.396C350.395,145.999 350.395,182.892 350.395,202.483C350.395,209.71 356.315,215.63 363.542,215.63L446.346,215.63C453.572,215.63 459.493,209.71 459.493,202.483C459.506,182.88 459.506,145.987 459.506,126.396Z" clip-rule="evenodd" fill-rule="evenodd" fill="#FCC100"/>
<path d="M315.02,331.782C315.02,331.782 316.798,331.795 317.93,333.287C319.062,334.78 323.08,345.079 323.279,346.621C323.478,348.164 319.162,352.082 311.238,356.498C303.315,360.926 272.38,374.509 272.38,374.509L271.808,373.688C271.808,373.688 270.166,373.476 269.183,372.096C268.201,370.702 267.641,367.307 268.972,365.043C270.303,362.779 279.57,355.266 281.224,353.724C282.878,352.181 290.08,340.29 290.702,339.469C291.324,338.648 295.802,335.253 302.332,336.583C308.875,337.914 315.418,335.713 315.02,331.782Z" clip-rule="evenodd" fill-rule="evenodd" fill="#D64C47"/>
<path d="M271.82,373.688C271.82,373.688 302.245,358.289 308.924,355.005C315.616,351.709 322.806,344.955 322.806,344.955C322.806,344.955 324.049,345.129 324.46,345.788C324.87,346.46 325.642,348.923 325.853,349.445C326.052,349.955 326.363,352.381 323.067,354.234C319.771,356.088 277.156,377.084 275.203,378.017C273.25,378.937 271.447,374.957 271.447,374.957C271.447,374.957 271.123,374.086 271.82,373.688Z" clip-rule="evenodd" fill-rule="evenodd" fill="#FFFFFF"/>
<path d="M329.884,18.245L334.822,17.088C346.626,14.327 358.542,21.727 361.303,33.532L366.838,57.165C369.6,68.969 362.199,80.885 350.395,83.647L345.457,84.803C333.652,87.565 321.736,80.164 318.975,68.36L313.452,44.726C310.691,32.922 318.079,21.006 329.884,18.245Z" clip-rule="evenodd" fill-rule="evenodd" fill="#F5AC83"/>
<path d="M361.938,36.242L366.838,57.163C369.6,68.968 362.199,80.884 350.395,83.645L345.457,84.802C340.556,85.946 335.655,85.349 331.376,83.409C331.961,83.658 336.153,85.287 337.085,82.202C338.093,78.881 332.371,68.234 332.371,68.234C332.371,68.234 331.998,67.525 332.471,66.878C332.943,66.219 336.227,60.373 334.809,53.27C333.379,46.18 342.558,41.23 342.558,41.23L321.326,46.976L321.326,51.292C321.326,51.292 319.025,46.479 313.738,45.932L313.452,44.725C312.159,39.165 313.104,33.58 315.716,28.94C322.756,29.799 345.817,32.747 361.938,36.242Z" clip-rule="evenodd" fill-rule="evenodd" fill="#ED7862"/>
<path d="M322.731,57.922C322.731,57.922 320.803,57.711 320.169,54.999C319.535,52.288 319.323,51.392 319.323,51.392C319.323,51.392 317.283,48.681 316.064,43.481C316.064,43.481 303.501,41.727 301.063,30.097C298.625,18.467 309.447,6.178 311.039,4.959C312.631,3.74 319.311,1.426 327.694,5.195C327.694,5.195 329.125,6.078 331.861,4.971C334.61,3.864 350.009,-0.489 357.46,-0.738C364.91,-0.974 369.712,6.713 373.207,16.029C373.207,16.029 373.642,12.26 377.399,11.477C381.155,10.693 379.14,17.733 376.429,20.146C376.429,20.146 382.834,23.43 384.053,30.284C385.272,37.125 382.959,67.326 377.237,73.346C371.515,79.379 357.087,81.941 352.484,83.023C347.882,84.106 338.752,79.354 335.045,66.704C335.045,66.704 336.861,60.41 335.369,55.223C333.876,50.036 332.508,46.23 330.568,45.558C328.627,44.887 323.838,49.9 323.428,52.151C323.017,54.402 323.925,57.475 323.925,57.475C323.925,57.475 323.415,57.972 322.731,57.922Z" clip-rule="evenodd" fill-rule="evenodd" fill="#101537"/>
<path d="M322.731,57.922C322.731,57.922 320.803,57.711 320.169,54.999C319.535,52.287 319.323,51.392 319.323,51.392C319.323,51.392 317.283,48.68 316.064,43.468C316.064,43.468 303.501,41.715 301.063,30.085C298.625,18.455 309.447,6.165 311.039,4.946C311.039,4.946 299.197,17.87 312.258,24.5C325.318,31.129 344.611,35.346 357.273,34.55C369.936,33.741 378.929,11.788 378.929,11.763C380.384,13.143 378.643,18.168 376.429,20.146C376.429,20.146 382.834,23.43 384.053,30.284C385.272,37.125 382.959,67.326 377.237,73.346C371.515,79.379 357.087,81.941 352.484,83.023C347.894,84.105 338.752,79.354 335.045,66.704C335.045,66.704 336.861,60.41 335.369,55.223C333.876,50.036 332.508,46.23 330.568,45.558C328.627,44.886 323.838,49.899 323.428,52.151C323.017,54.402 323.925,57.474 323.925,57.474C323.925,57.474 323.415,57.972 322.731,57.922Z" clip-rule="evenodd" fill-rule="evenodd" fill="#070725"/>
</svg>
