<svg width="296" height="18" viewBox="0 0 296 18" fill="none" xmlns="http://www.w3.org/2000/svg" xmlns:xlink="http://www.w3.org/1999/xlink">
<path d="M295.924,-0.527L0.918,-0.527L0.918,16.403L295.924,16.403L295.924,-0.527Z" fill="#000000"/>
<path d="M9.183,9.768C10.196,9.768 11.018,8.946 11.018,7.933C11.018,6.919 10.196,6.098 9.183,6.098C8.169,6.098 7.348,6.919 7.348,7.933C7.348,8.946 8.169,9.768 9.183,9.768Z" fill="#FFFFFF"/>
<path d="M15.706,9.768C16.72,9.768 17.541,8.946 17.541,7.933C17.541,6.919 16.72,6.098 15.706,6.098C14.693,6.098 13.871,6.919 13.871,7.933C13.871,8.946 14.693,9.768 15.706,9.768Z" fill="#FFFFFF"/>
<path d="M22.23,9.768C23.243,9.768 24.065,8.946 24.065,7.933C24.065,6.919 23.243,6.098 22.23,6.098C21.216,6.098 20.395,6.919 20.395,7.933C20.395,8.946 21.216,9.768 22.23,9.768Z" fill="#FFFFFF"/>
</svg>
