<svg width="136" height="108" viewBox="0 0 136 108" fill="none" xmlns="http://www.w3.org/2000/svg" xmlns:xlink="http://www.w3.org/1999/xlink">
<path d="M8.534,-0.766L127.442,-0.766C131.836,-0.766 135.43,2.828 135.43,7.223L135.43,99.392C135.43,103.787 131.836,107.381 127.442,107.381L8.534,107.381C4.139,107.381 0.545,103.787 0.545,99.392L0.545,7.223C0.545,2.849 4.139,-0.766 8.534,-0.766Z" clip-rule="evenodd" fill-rule="evenodd" fill="#FFFFFF"/>
<path d="M135.348,100.603L18.063,100.603C14.942,100.603 12.21,98.775 10.896,96.147C10.362,95.079 10.074,93.888 10.074,92.614L10.074,0.446C10.074,0.035 10.095,-0.355 10.157,-0.745L8.534,-0.745C4.139,-0.745 0.545,2.849 0.545,7.244L0.545,99.412C0.545,103.807 4.139,107.401 8.534,107.401L10.896,107.401L127.442,107.401C131.446,107.401 134.773,104.423 135.348,100.603Z" clip-rule="evenodd" fill-rule="evenodd" fill="#E4E1E8"/>
<path d="M39.298,5.622L96.698,5.622C98.402,5.622 99.778,6.998 99.778,8.703L99.778,9.668C99.778,11.372 98.382,12.748 96.698,12.748L39.298,12.748C37.593,12.748 36.217,11.372 36.217,9.668L36.217,8.703C36.217,7.019 37.614,5.622 39.298,5.622Z" clip-rule="evenodd" fill-rule="evenodd" fill="#070725"/>
</svg>
