<svg width="32" height="34" viewBox="0 0 32 34" fill="none" xmlns="http://www.w3.org/2000/svg" xmlns:xlink="http://www.w3.org/1999/xlink">
<path d="M6.744,33.839C7.37,33.946 8.034,34 8.735,34L21.867,34C27.343,34 30.6,30.682 30.6,25.145L30.6,8.855L30.6,8.724C30.549,3.264 27.3,0 21.867,0L8.735,0C3.832,0 0.695,2.659 0.102,7.223C0.034,7.744 0,8.287 0,8.855L0,25.145C0,29.844 2.343,32.931 6.373,33.769L6.744,33.839ZM2.443,8.855C2.443,4.624 4.559,2.477 8.735,2.477L21.852,2.477C26.025,2.477 28.128,4.624 28.128,8.855L28.128,25.145C28.128,29.376 26.025,31.523 21.852,31.523L8.735,31.523C4.559,31.523 2.443,29.376 2.443,25.145L2.443,8.855Z" clip-rule="evenodd" fill-rule="evenodd" fill="#01008A"/>
<g opacity="0.4">
<path d="M21.408,22.967C22.078,22.967 22.62,23.518 22.62,24.198C22.62,24.878 22.078,25.429 21.408,25.429L9.149,25.429C8.48,25.429 7.936,24.878 7.936,24.198C7.936,23.518 8.48,22.967 9.149,22.967L21.408,22.967Z" fill="#01008A"/>
</g>
<g opacity="0.4">
<path d="M21.408,15.761C21.876,15.71 22.333,15.934 22.583,16.337C22.833,16.743 22.833,17.257 22.583,17.663C22.333,18.066 21.876,18.29 21.408,18.239L9.15,18.239C8.528,18.168 8.057,17.636 8.057,17C8.057,16.364 8.528,15.83 9.15,15.761L21.408,15.761Z" fill="#01008A"/>
</g>
<g opacity="0.4">
<path d="M13.828,8.571C14.45,8.641 14.921,9.175 14.921,9.811C14.921,10.445 14.45,10.978 13.828,11.048L9.165,11.048C8.541,10.978 8.07,10.445 8.07,9.811C8.07,9.175 8.541,8.641 9.165,8.571L13.828,8.571Z" fill="#01008A"/>
</g>
</svg>
