<svg width="32" height="36" viewBox="0 0 32 36" fill="none" xmlns="http://www.w3.org/2000/svg" xmlns:xlink="http://www.w3.org/1999/xlink">
<path d="M7.052,35.609C7.707,35.721 8.402,35.778 9.134,35.778L22.868,35.778C28.594,35.778 32,32.308 32,26.517L32,9.483L32,9.346C31.947,3.636 28.549,0.222 22.868,0.222L9.134,0.222C4.007,0.222 0.727,3.003 0.107,7.776C0.036,8.32 0,8.889 0,9.483L0,26.517C0,31.431 2.45,34.66 6.665,35.536L7.052,35.609ZM2.555,9.483C2.555,5.058 4.768,2.812 9.134,2.812L22.851,2.812C27.216,2.812 29.415,5.058 29.415,9.483L29.415,26.517C29.415,30.942 27.216,33.188 22.851,33.188L9.134,33.188C4.768,33.188 2.555,30.942 2.555,26.517L2.555,9.483Z" clip-rule="evenodd" fill-rule="evenodd" fill="#01008A"/>
<g opacity="0.4">
<path d="M14.21,15.452L10.894,27.66L8.094,27.66L12.658,13.164L14.408,13.164L14.21,15.452M16.838,27.66L13.512,15.452L13.284,13.164L15.06,13.164L19.652,27.66L16.838,27.66M16.924,22.266L16.924,24.486L10.274,24.486L10.274,22.266L16.924,22.266Z" fill="#01008A"/>
</g>
</svg>
