<svg width="42" height="46" viewBox="0 0 42 46" fill="none" xmlns="http://www.w3.org/2000/svg" xmlns:xlink="http://www.w3.org/1999/xlink">
<path d="M9.016,45.24C9.852,45.383 10.741,45.456 11.678,45.456L29.235,45.456C36.555,45.456 40.91,41.019 40.91,33.617L40.91,11.839L40.91,11.664C40.842,4.364 36.499,0 29.235,0L11.678,0C5.123,0 0.93,3.555 0.136,9.657C0.045,10.352 0,11.08 0,11.839L0,33.617C0,39.899 3.132,44.026 8.521,45.146L9.016,45.24ZM3.266,11.839C3.266,6.182 6.095,3.311 11.677,3.311L29.214,3.311C34.794,3.311 37.605,6.182 37.605,11.839L37.605,33.617C37.605,39.274 34.794,42.144 29.214,42.144L11.677,42.144C6.095,42.144 3.266,39.274 3.266,33.617L3.266,11.839Z" clip-rule="evenodd" fill-rule="evenodd" fill="#17BCF3"/>
<path d="M18.204,19.4L13.944,35.076L10.348,35.076L16.212,16.462L18.458,16.462L18.204,19.4M21.576,35.076L17.308,19.4L17.014,16.462L19.294,16.462L25.192,35.076L21.576,35.076M21.688,28.15L21.688,31.002L13.15,31.002L13.15,28.15L21.688,28.15Z" fill="#96E1FA"/>
</svg>
