<svg width="42" height="46" viewBox="0 0 42 46" fill="none" xmlns="http://www.w3.org/2000/svg" xmlns:xlink="http://www.w3.org/1999/xlink">
<path d="M9.016,45.361C9.852,45.504 10.741,45.577 11.678,45.577L29.235,45.577C36.555,45.577 40.91,41.141 40.91,33.738L40.91,11.96L40.91,11.785C40.842,4.485 36.499,0.122 29.235,0.122L11.678,0.122C5.123,0.122 0.93,3.676 0.136,9.779C0.045,10.474 0,11.201 0,11.96L0,33.738C0,40.02 3.132,44.148 8.521,45.268L9.016,45.361ZM3.266,11.96C3.266,6.304 6.095,3.433 11.677,3.433L29.214,3.433C34.794,3.433 37.605,6.304 37.605,11.96L37.605,33.738C37.605,39.395 34.794,42.266 29.214,42.266L11.677,42.266C6.095,42.266 3.266,39.395 3.266,33.738L3.266,11.96Z" clip-rule="evenodd" fill-rule="evenodd" fill="#17BCF3"/>
<path d="M18.204,19.522L13.944,35.198L10.348,35.198L16.212,16.584L18.458,16.584L18.204,19.522M21.576,35.198L17.308,19.522L17.014,16.584L19.294,16.584L25.192,35.198L21.576,35.198M21.688,28.272L21.688,31.124L13.15,31.124L13.15,28.272L21.688,28.272Z" fill="#96E1FA"/>
</svg>
