<svg width="32" height="34" viewBox="0 0 32 34" fill="none" xmlns="http://www.w3.org/2000/svg" xmlns:xlink="http://www.w3.org/1999/xlink">
<path d="M6.744,32.839C7.37,32.946 8.034,33 8.735,33L21.867,33C27.343,33 30.6,29.682 30.6,24.145L30.6,7.855L30.6,7.724C30.549,2.264 27.3,-1 21.867,-1L8.735,-1C3.832,-1 0.695,1.659 0.102,6.223C0.034,6.743 0,7.287 0,7.855L0,24.145C0,28.844 2.343,31.931 6.373,32.769L6.744,32.839ZM2.443,7.855C2.443,3.624 4.559,1.477 8.735,1.477L21.852,1.477C26.025,1.477 28.128,3.624 28.128,7.855L28.128,24.145C28.128,28.376 26.025,30.523 21.852,30.523L8.735,30.523C4.559,30.523 2.443,28.376 2.443,24.145L2.443,7.855Z" clip-rule="evenodd" fill-rule="evenodd" fill="#FFFFFF"/>
<g opacity="0.4">
<path d="M21.408,21.969C22.078,21.969 22.62,22.52 22.62,23.2C22.62,23.88 22.078,24.43 21.408,24.43L9.149,24.43C8.48,24.43 7.936,23.88 7.936,23.2C7.936,22.52 8.48,21.969 9.149,21.969L21.408,21.969Z" fill="#FFFFFF"/>
</g>
<g opacity="0.4">
<path d="M21.408,14.761C21.876,14.71 22.333,14.934 22.583,15.337C22.833,15.744 22.833,16.257 22.583,16.663C22.333,17.066 21.876,17.291 21.408,17.24L9.15,17.24C8.528,17.168 8.057,16.636 8.057,16C8.057,15.365 8.528,14.831 9.15,14.761L21.408,14.761Z" fill="#FFFFFF"/>
</g>
<g opacity="0.4">
<path d="M13.828,7.57C14.45,7.64 14.921,8.174 14.921,8.81C14.921,9.444 14.45,9.978 13.828,10.047L9.165,10.047C8.541,9.978 8.07,9.444 8.07,8.81C8.07,8.174 8.541,7.64 9.165,7.57L13.828,7.57Z" fill="#FFFFFF"/>
</g>
</svg>
