<svg width="40" height="46" viewBox="0 0 40 46" fill="none" xmlns="http://www.w3.org/2000/svg" xmlns:xlink="http://www.w3.org/1999/xlink">
<path d="M8.105,44.896C8.941,45.039 9.83,45.112 10.766,45.112L28.323,45.112C35.644,45.112 39.999,40.675 39.999,33.273L39.999,11.495L39.999,11.32C39.93,4.02 35.587,-0.344 28.323,-0.344L10.766,-0.344C4.212,-0.344 0.018,3.211 -0.775,9.313C-0.866,10.009 -0.911,10.736 -0.911,11.495L-0.911,33.273C-0.911,39.555 2.221,43.682 7.609,44.803L8.105,44.896ZM2.355,11.495C2.355,5.838 5.184,2.968 10.766,2.968L28.303,2.968C33.882,2.968 36.694,5.838 36.694,11.495L36.694,33.273C36.694,38.93 33.882,41.8 28.303,41.8L10.766,41.8C5.184,41.8 2.355,38.93 2.355,33.273L2.355,11.495Z" clip-rule="evenodd" fill-rule="evenodd" fill="#16BEA6"/>
<g opacity="0.4">
<path d="M27.71,30.361C28.605,30.361 29.33,31.098 29.33,32.007C29.33,32.916 28.605,33.652 27.71,33.652L11.321,33.652C10.425,33.652 9.698,32.916 9.698,32.007C9.698,31.098 10.425,30.361 11.321,30.361L27.71,30.361Z" fill="#16BEA6"/>
</g>
<g opacity="0.4">
<path d="M27.71,20.727C28.335,20.659 28.946,20.959 29.28,21.498C29.614,22.041 29.614,22.727 29.28,23.27C28.946,23.809 28.335,24.109 27.71,24.041L11.321,24.041C10.489,23.945 9.859,23.234 9.859,22.384C9.859,21.534 10.489,20.82 11.321,20.727L27.71,20.727Z" fill="#16BEA6"/>
</g>
<g opacity="0.4">
<path d="M17.575,11.116C18.407,11.209 19.037,11.922 19.037,12.772C19.037,13.62 18.407,14.334 17.575,14.427L11.341,14.427C10.507,14.334 9.878,13.62 9.878,12.772C9.878,11.922 10.507,11.209 11.341,11.116L17.575,11.116Z" fill="#16BEA6"/>
</g>
</svg>
