<svg width="40" height="46" viewBox="0 0 40 46" fill="none" xmlns="http://www.w3.org/2000/svg" xmlns:xlink="http://www.w3.org/1999/xlink">
<path d="M8.105,45.017C8.941,45.161 9.83,45.233 10.766,45.233L28.323,45.233C35.644,45.233 39.999,40.797 39.999,33.394L39.999,11.617L39.999,11.442C39.93,4.142 35.587,-0.222 28.323,-0.222L10.766,-0.222C4.212,-0.222 0.018,3.332 -0.775,9.435C-0.866,10.13 -0.911,10.858 -0.911,11.617L-0.911,33.394C-0.911,39.676 2.221,43.804 7.609,44.924L8.105,45.017ZM2.355,11.617C2.355,5.96 5.184,3.089 10.766,3.089L28.303,3.089C33.882,3.089 36.694,5.96 36.694,11.617L36.694,33.394C36.694,39.051 33.882,41.922 28.303,41.922L10.766,41.922C5.184,41.922 2.355,39.051 2.355,33.394L2.355,11.617Z" clip-rule="evenodd" fill-rule="evenodd" fill="#16BEA6"/>
<g opacity="0.4">
<path d="M27.71,30.483C28.605,30.483 29.33,31.22 29.33,32.129C29.33,33.038 28.605,33.774 27.71,33.774L11.321,33.774C10.425,33.774 9.698,33.038 9.698,32.129C9.698,31.22 10.425,30.483 11.321,30.483L27.71,30.483Z" fill="#16BEA6"/>
</g>
<g opacity="0.4">
<path d="M27.71,20.849C28.335,20.781 28.946,21.081 29.28,21.619C29.614,22.162 29.614,22.849 29.28,23.392C28.946,23.931 28.335,24.231 27.71,24.162L11.321,24.162C10.489,24.067 9.859,23.356 9.859,22.506C9.859,21.656 10.489,20.942 11.321,20.849L27.71,20.849Z" fill="#16BEA6"/>
</g>
<g opacity="0.4">
<path d="M17.575,11.237C18.407,11.33 19.037,12.044 19.037,12.894C19.037,13.742 18.407,14.455 17.575,14.549L11.341,14.549C10.507,14.455 9.878,13.742 9.878,12.894C9.878,12.044 10.507,11.33 11.341,11.237L17.575,11.237Z" fill="#16BEA6"/>
</g>
</svg>
