<svg width="44" height="26" viewBox="0 0 44 26" fill="none" xmlns="http://www.w3.org/2000/svg" xmlns:xlink="http://www.w3.org/1999/xlink">
<path d="M1.234,0.821C1.739,0.317 2.423,0.034 3.136,0.034C3.85,0.034 4.534,0.317 5.039,0.821L21.971,17.754L38.903,0.821C39.151,0.564 39.448,0.359 39.776,0.218C40.105,0.077 40.458,0.003 40.815,0C41.172,-0.003 41.527,0.065 41.857,0.2C42.188,0.336 42.488,0.535 42.741,0.788C42.994,1.041 43.193,1.341 43.329,1.672C43.464,2.002 43.532,2.357 43.529,2.714C43.526,3.071 43.452,3.424 43.311,3.753C43.17,4.081 42.965,4.378 42.708,4.626L23.873,23.461C23.368,23.965 22.684,24.248 21.971,24.248C21.257,24.248 20.573,23.965 20.069,23.461L1.234,4.626C0.73,4.121 0.446,3.437 0.446,2.724C0.446,2.01 0.73,1.326 1.234,0.821Z" clip-rule="evenodd" fill-rule="evenodd" fill="#01008A"/>
</svg>
