<svg width="24" height="24" viewBox="0 0 24 24" fill="none" xmlns="http://www.w3.org/2000/svg" xmlns:xlink="http://www.w3.org/1999/xlink">
<path d="M11,2.871C11.484,2.871 11.875,2.479 11.875,1.996C11.875,1.513 11.484,1.121 11,1.121L11,2.871ZM22.875,12.996C22.875,12.513 22.484,12.121 22,12.121C21.517,12.121 21.125,12.513 21.125,12.996L22.875,12.996ZM11,1.121L9,1.121L9,2.871L11,2.871L11,1.121ZM9,1.121C6.414,1.121 4.376,1.633 3.007,3.002C1.637,4.372 1.125,6.41 1.125,8.996L2.875,8.996C2.875,6.582 3.364,5.12 4.244,4.24C5.125,3.359 6.587,2.871 9,2.871L9,1.121ZM1.125,8.996L1.125,14.996L2.875,14.996L2.875,8.996L1.125,8.996ZM1.125,14.996C1.125,17.582 1.637,19.62 3.007,20.99C4.376,22.359 6.414,22.871 9,22.871L9,21.121C6.587,21.121 5.125,20.633 4.244,19.752C3.364,18.872 2.875,17.41 2.875,14.996L1.125,14.996ZM9,22.871L15,22.871L15,21.121L9,21.121L9,22.871ZM15,22.871C17.587,22.871 19.625,22.359 20.994,20.99C22.364,19.62 22.875,17.582 22.875,14.996L21.125,14.996C21.125,17.41 20.637,18.872 19.757,19.752C18.876,20.633 17.414,21.121 15,21.121L15,22.871ZM22.875,14.996L22.875,12.996L21.125,12.996L21.125,14.996L22.875,14.996Z" fill="#707070"/>
<path d="M16.04,3.025L16.659,3.644L16.659,3.644L16.04,3.025ZM8.16,10.905L7.541,10.286L7.541,10.286L8.16,10.905ZM7.5,12.225L8.366,12.349L8.366,12.346L7.5,12.225ZM7.07,15.235L7.936,15.362L7.936,15.359L7.07,15.235ZM8.77,16.935L8.889,17.802L8.894,17.801L8.77,16.935ZM11.78,16.505L11.656,15.639L11.656,15.639L11.78,16.505ZM13.1,15.845L13.708,16.474L13.719,16.464L13.1,15.845ZM20.98,7.965L20.361,7.346L20.361,7.346L20.98,7.965ZM15.421,2.406L7.541,10.286L8.779,11.524L16.659,3.644L15.421,2.406ZM7.541,10.286C7.305,10.522 7.105,10.831 6.958,11.123C6.811,11.416 6.681,11.765 6.633,12.104L8.366,12.346C8.379,12.255 8.429,12.094 8.522,11.909C8.615,11.725 8.715,11.588 8.779,11.524L7.541,10.286ZM6.634,12.101L6.204,15.111L7.936,15.359L8.366,12.349L6.634,12.101ZM6.204,15.108C6.09,15.889 6.302,16.641 6.834,17.17C7.363,17.698 8.114,17.909 8.889,17.802L8.651,16.068C8.336,16.112 8.156,16.018 8.069,15.93C7.982,15.844 7.89,15.672 7.936,15.362L6.204,15.108ZM8.894,17.801L11.904,17.371L11.656,15.639L8.646,16.069L8.894,17.801ZM11.904,17.371C12.239,17.324 12.584,17.193 12.874,17.047C13.166,16.9 13.471,16.703 13.708,16.474L12.491,15.216C12.418,15.287 12.274,15.39 12.088,15.483C11.9,15.578 11.741,15.627 11.656,15.639L11.904,17.371ZM13.719,16.464L21.599,8.584L20.361,7.346L12.481,15.226L13.719,16.464ZM21.599,8.584C22.329,7.854 23.001,6.938 23.111,5.821C23.225,4.658 22.711,3.519 21.599,2.406L20.361,3.644C21.249,4.531 21.415,5.183 21.369,5.65C21.319,6.162 20.991,6.717 20.361,7.346L21.599,8.584ZM21.599,2.406C20.486,1.294 19.347,0.78 18.184,0.894C17.067,1.004 16.151,1.676 15.421,2.406L16.659,3.644C17.289,3.014 17.843,2.686 18.355,2.636C18.822,2.59 19.474,2.756 20.361,3.644L21.599,2.406Z" fill="#707070"/>
<path d="M15.752,3.912C15.622,3.447 15.139,3.175 14.673,3.306C14.208,3.436 13.937,3.919 14.067,4.385L15.752,3.912ZM19.611,9.93C20.076,10.062 20.56,9.792 20.692,9.327C20.823,8.862 20.553,8.378 20.088,8.247L19.611,9.93ZM14.067,4.385C14.82,7.07 16.92,9.168 19.611,9.93L20.088,8.247C17.979,7.649 16.339,6.007 15.752,3.912L14.067,4.385Z" fill="#707070"/>
</svg>
