<svg width="28" height="28" viewBox="0 0 28 28" fill="none" xmlns="http://www.w3.org/2000/svg" xmlns:xlink="http://www.w3.org/1999/xlink">
<line x1="5.133" y1="2.332" x2="5.133" y2="25.665" stroke="#707070" stroke-width="0.875" stroke-miterlimit="10" stroke-linecap="round" stroke-linejoin="round"/>
<path d="M6.008,3.793C5.525,3.793 5.133,4.185 5.133,4.668C5.133,5.151 5.525,5.543 6.008,5.543L6.008,3.793ZM20.708,8.635L21.327,9.253L21.327,9.253L20.708,8.635ZM19.308,10.035L18.69,9.416L18.69,9.416L19.308,10.035ZM19.308,13.301L19.927,12.683C19.913,12.669 19.899,12.656 19.885,12.643L19.308,13.301ZM6.008,17.793C5.525,17.793 5.133,18.185 5.133,18.668C5.133,19.151 5.525,19.543 6.008,19.543L6.008,17.793ZM6.008,5.543L19.075,5.543L19.075,3.793L6.008,3.793L6.008,5.543ZM19.075,5.543C19.792,5.543 20.301,5.644 20.633,5.783C20.958,5.919 21.06,6.066 21.094,6.151C21.129,6.236 21.159,6.416 21.023,6.745C20.884,7.08 20.594,7.512 20.09,8.016L21.327,9.253C21.931,8.649 22.385,8.031 22.64,7.414C22.897,6.792 22.971,6.119 22.714,5.489C22.457,4.859 21.932,4.43 21.309,4.169C20.693,3.911 19.933,3.793 19.075,3.793L19.075,5.543ZM20.09,8.016L18.69,9.416L19.927,10.653L21.327,9.253L20.09,8.016ZM18.69,9.416C17.439,10.666 17.376,12.773 18.732,13.96L19.885,12.643C19.374,12.196 19.311,11.27 19.927,10.653L18.69,9.416ZM18.69,13.92L20.09,15.32L21.327,14.083L19.927,12.683L18.69,13.92ZM20.09,15.32C21.154,16.384 21.133,16.992 21.056,17.171C20.974,17.364 20.529,17.793 19.075,17.793L19.075,19.543C20.654,19.543 22.135,19.097 22.665,17.861C23.2,16.611 22.479,15.235 21.327,14.083L20.09,15.32ZM19.075,17.793L6.008,17.793L6.008,19.543L19.075,19.543L19.075,17.793Z" fill="#707070"/>
</svg>
