<svg width="44" height="46" viewBox="0 0 44 46" fill="none" xmlns="http://www.w3.org/2000/svg" xmlns:xlink="http://www.w3.org/1999/xlink">
<path d="M10.948,0.665L15.15,0.665C17.156,0.665 19.045,1.611 20.247,3.216L22.165,5.77C22.775,6.582 23.731,7.06 24.743,7.062L30.69,7.062C38.914,7.062 42.588,11.372 42.588,20.176L42.531,30.618C42.531,39.02 37.393,44.165 29.002,44.165L12.637,44.165C4.229,44.165 -0.911,39.023 -0.911,30.618L-0.911,14.212C-0.911,5.397 2.851,0.665 10.948,0.665ZM15.15,3.822L10.948,3.822C4.77,3.822 2.241,7.002 2.241,14.212L2.241,30.618C2.241,37.279 5.97,41.008 12.637,41.008L29.002,41.008C35.652,41.008 39.378,37.277 39.378,30.609L39.436,20.167C39.436,13.014 37.052,10.219 30.69,10.219L24.74,10.219C22.737,10.215 20.851,9.271 19.646,7.668L17.726,5.112C17.118,4.3 16.164,3.822 15.15,3.822Z" clip-rule="evenodd" fill-rule="evenodd" fill="#21BF07"/>
<g opacity="0.4">
<path d="M30.882,26.369C31.753,26.369 32.458,27.076 32.458,27.948C32.458,28.747 31.865,29.407 31.096,29.512L30.882,29.526L10.718,29.526C9.847,29.526 9.142,28.819 9.142,27.948C9.142,27.148 9.735,26.488 10.504,26.384L10.718,26.369L30.882,26.369Z" fill="#21BF07"/>
</g>
</svg>
