<svg width="36" height="36" viewBox="0 0 36 36" fill="none" xmlns="http://www.w3.org/2000/svg" xmlns:xlink="http://www.w3.org/1999/xlink">
<path d="M9.401,0.758L12.732,0.758C14.322,0.758 15.819,1.507 16.773,2.78L18.293,4.805C18.777,5.448 19.534,5.827 20.336,5.829L25.051,5.829C31.57,5.829 34.483,9.245 34.483,16.224L34.437,24.502C34.437,31.163 30.365,35.241 23.713,35.241L10.74,35.241C4.075,35.241 0,31.165 0,24.502L0,11.497C0,4.509 2.983,0.758 9.401,0.758ZM12.732,3.26L9.401,3.26C4.504,3.26 2.499,5.781 2.499,11.497L2.499,24.502C2.499,29.782 5.455,32.738 10.74,32.738L23.713,32.738C28.984,32.738 31.938,29.78 31.938,24.495L31.984,16.217C31.984,10.547 30.094,8.332 25.051,8.332L20.334,8.332C18.746,8.328 17.252,7.58 16.296,6.309L14.774,4.283C14.292,3.639 13.536,3.26 12.732,3.26Z" clip-rule="evenodd" fill-rule="evenodd" fill="#FFFFFF"/>
<g opacity="0.4">
<path d="M25.203,21.133C25.893,21.133 26.452,21.693 26.452,22.384C26.452,23.018 25.982,23.541 25.372,23.624L25.203,23.635L9.218,23.635C8.528,23.635 7.969,23.075 7.969,22.384C7.969,21.751 8.439,21.227 9.049,21.144L9.218,21.133L25.203,21.133Z" fill="#FFFFFF"/>
</g>
</svg>
