<svg width="36" height="36" viewBox="0 0 36 36" fill="none" xmlns="http://www.w3.org/2000/svg" xmlns:xlink="http://www.w3.org/1999/xlink">
<path d="M9.401,0L12.732,0C14.322,0 15.819,0.75 16.773,2.022L18.293,4.047C18.777,4.69 19.534,5.07 20.336,5.071L25.051,5.071C31.57,5.071 34.483,8.487 34.483,15.467L34.437,23.744C34.437,30.405 30.365,34.483 23.713,34.483L10.74,34.483C4.075,34.483 0,30.407 0,23.744L0,10.739C0,3.751 2.983,0 9.401,0ZM12.732,2.503L9.401,2.503C4.504,2.503 2.499,5.024 2.499,10.739L2.499,23.744C2.499,29.024 5.455,31.98 10.74,31.98L23.713,31.98C28.984,31.98 31.938,29.023 31.938,23.737L31.984,15.46C31.984,9.79 30.094,7.574 25.051,7.574L20.334,7.574C18.746,7.571 17.252,6.822 16.296,5.552L14.774,3.525C14.292,2.881 13.535,2.503 12.732,2.503Z" clip-rule="evenodd" fill-rule="evenodd" fill="#01008A"/>
<g opacity="0.4">
<path d="M25.203,20.376C25.893,20.376 26.453,20.936 26.453,21.627C26.453,22.261 25.983,22.784 25.373,22.867L25.203,22.879L9.219,22.879C8.529,22.879 7.969,22.318 7.969,21.627C7.969,20.994 8.439,20.47 9.049,20.387L9.219,20.376L25.203,20.376Z" fill="#01008A"/>
</g>
</svg>
