<svg width="44" height="46" viewBox="0 0 44 46" fill="none" xmlns="http://www.w3.org/2000/svg" xmlns:xlink="http://www.w3.org/1999/xlink">
<path d="M10.948,0.787L15.15,0.787C17.156,0.787 19.045,1.732 20.247,3.338L22.165,5.892C22.775,6.703 23.731,7.182 24.743,7.184L30.69,7.184C38.914,7.184 42.588,11.493 42.588,20.298L42.531,30.739C42.531,39.142 37.393,44.286 29.002,44.286L12.637,44.286C4.229,44.286 -0.911,39.145 -0.911,30.739L-0.911,14.333C-0.911,5.518 2.851,0.787 10.948,0.787ZM15.15,3.944L10.948,3.944C4.77,3.944 2.241,7.124 2.241,14.333L2.241,30.739C2.241,37.401 5.97,41.129 12.637,41.129L29.002,41.129C35.652,41.129 39.378,37.398 39.378,30.731L39.436,20.289C39.436,13.136 37.052,10.341 30.69,10.341L24.74,10.341C22.737,10.337 20.851,9.393 19.646,7.79L17.726,5.233C17.118,4.421 16.164,3.944 15.15,3.944Z" clip-rule="evenodd" fill-rule="evenodd" fill="#21BF07"/>
<g opacity="0.4">
<path d="M30.882,26.491C31.753,26.491 32.458,27.197 32.458,28.069C32.458,28.868 31.865,29.529 31.096,29.633L30.882,29.648L10.718,29.648C9.847,29.648 9.142,28.941 9.142,28.069C9.142,27.27 9.735,26.61 10.504,26.505L10.718,26.491L30.882,26.491Z" fill="#21BF07"/>
</g>
</svg>
