<svg width="628" height="642" viewBox="0 0 628 642" fill="none" xmlns="http://www.w3.org/2000/svg" xmlns:xlink="http://www.w3.org/1999/xlink">
<path d="M279.497,628.111C277.302,626.225 272.382,620.23 276.168,613.262C277.567,610.714 280.513,609.447 283.194,608.328C285.947,607.4 288.541,606.053 290.884,604.336C295.052,600.8 296.201,594.908 298.971,590.165C302.153,584.729 308.074,580.663 314.35,580.943C321.523,581.282 327.504,587.13 330.215,593.818C332.925,600.506 333.028,607.915 333.161,615.133C333.161,619.125 333.013,623.633 330.082,626.329C327.151,629.024 323.306,628.833 319.653,628.73L280.44,627.522Z" fill="#F5F5F5"/>
<path d="M354.506,520.285L251.391,520.285L269.966,631.045C270.352,633.359 271.388,635.515 272.953,637.263C274.518,639.01 276.547,640.277 278.804,640.915L279.173,641.018C279.467,641.092 279.762,641.195 280.086,641.254C280.776,641.385 281.476,641.464 282.178,641.49L282.178,641.622L282.679,641.548L328.653,641.548C329.499,641.548 330.343,641.464 331.172,641.298C333.857,640.882 336.331,639.599 338.218,637.643C340.104,635.688 341.297,633.169 341.616,630.471L350.514,554.122L350.911,551.087L354.447,520.83L354.506,520.285ZM335.046,590.993L324.47,590.993L325.53,558.85L337.801,558.85L335.046,590.993ZM338.832,558.85L348.952,558.85L345.181,590.993L336.077,590.993L338.832,558.85ZM308.59,626.612L307.942,598.623L323.188,598.623L322.26,626.612L308.59,626.612ZM292.106,598.623L306.925,598.623L307.559,626.612L294.301,626.612L292.106,598.623ZM293.255,626.612L280.837,626.612C279.659,619.069 278.127,609.273 276.418,598.623L291.046,598.623L293.255,626.612ZM291.591,590.934L289.086,558.791L306.071,558.791L306.822,590.934L291.591,590.934ZM307.795,590.934L307.058,558.791L324.543,558.791L323.468,590.934L307.795,590.934ZM306.881,551.161L306.189,521.375L325.781,521.375L324.794,551.161L306.881,551.161ZM305.85,551.161L288.424,551.161L286.096,521.375L305.143,521.375L305.85,551.161ZM287.422,551.161L268.964,551.161C268.316,547.036 267.698,543.147 267.138,539.641C265.223,527.606 264.501,523.084 264.089,521.375L285.08,521.375L287.422,551.161ZM288.026,558.865L290.515,591.007L275.254,591.007C274.739,587.752 274.223,584.452 273.781,581.153C272.588,573.566 271.38,565.98 270.261,558.865L288.026,558.865ZM274.253,591.007L264.295,591.007L258.903,558.865L269.215,558.865C270.717,568.72 272.441,579.753 274.223,590.934L274.253,591.007ZM275.461,598.726C276.934,608.39 278.407,617.876 279.88,626.715L270.32,626.715L265.635,598.726L275.461,598.726ZM323.321,626.715L324.249,598.726L334.428,598.726L332.041,626.715L323.321,626.715ZM325.825,551.22L326.812,521.434L341.027,521.434L338.493,551.22L325.825,551.22ZM263.146,521.434C263.558,523.6 265.444,535.31 267.963,551.22L257.651,551.22L252.657,521.434L263.146,521.434ZM341.042,626.715L333.058,626.715L335.444,598.726L344.282,598.726L341.042,626.715ZM349.88,551.22L339.495,551.22L342.043,521.434L353.371,521.434L349.88,551.22Z" fill="#E0E0E0"/>
<path d="M359.53,410.791L303.892,428.129C302.046,428.685 300.055,428.495 298.348,427.6C296.64,426.705 295.351,425.176 294.759,423.341L270.762,346.329C270.206,344.483 270.396,342.493 271.291,340.785C272.186,339.077 273.715,337.789 275.55,337.196L310.83,326.207L346.92,345.843L364.317,401.658C364.873,403.504 364.683,405.494 363.788,407.202C362.893,408.909 361.364,410.198 359.53,410.791L359.53,410.791Z" fill="#EBEBEB"/>
<path d="M310.83,326.207L317.591,347.876C318.133,349.585 319.33,351.01 320.921,351.839C322.511,352.667 324.365,352.831 326.076,352.295L346.92,345.799L310.83,326.207Z" fill="#E0E0E0"/>
<path d="M312.642,348.48C312.73,348.759 307.044,350.778 299.929,352.987C292.814,355.197 286.996,356.773 286.907,356.493C286.819,356.213 292.52,354.195 299.62,351.986C306.72,349.776 312.568,348.17 312.642,348.48Z" fill="#FAFAFA"/>
<path d="M333.089,355.524C333.177,355.803 323.764,358.985 312.068,362.624C300.372,366.262 290.812,369.002 290.723,368.722C290.635,368.442 300.048,365.261 311.759,361.622C323.47,357.984 333,355.244 333.089,355.524Z" fill="#FAFAFA"/>
<path d="M340.099,364.565C340.188,364.845 329.92,368.292 317.164,372.269C304.407,376.246 294.007,379.237 293.919,378.957C293.83,378.677 304.097,375.23 316.854,371.253C329.611,367.275 340.011,364.285 340.099,364.565Z" fill="#FAFAFA"/>
<path d="M343.148,374.217C343.237,374.497 332.969,377.944 320.212,381.922C307.456,385.899 297.056,388.889 296.967,388.609C296.879,388.329 307.146,384.882 319.903,380.905C332.66,376.928 343.016,373.937 343.148,374.217Z" fill="#FAFAFA"/>
<path d="M346.095,383.833C346.184,384.113 335.916,387.56 323.174,391.538C310.432,395.515 300.003,398.505 299.915,398.225C299.826,397.945 310.094,394.513 322.85,390.536C335.607,386.559 346.095,383.598 346.095,383.833Z" fill="#FAFAFA"/>
<path d="M349.116,393.526C349.204,393.806 338.937,397.253 326.195,401.23C313.453,405.207 303.038,408.198 302.95,407.918C302.861,407.638 313.129,404.191 325.871,400.214C338.613,396.236 349.042,393.246 349.116,393.526Z" fill="#FAFAFA"/>
<path d="M595.603,110.299L541.291,89.219C539.502,88.5 538.067,87.108 537.294,85.343C536.52,83.578 536.469,81.579 537.151,79.777L566.392,4.65C566.737,3.758 567.255,2.942 567.916,2.25C568.577,1.558 569.368,1.004 570.244,0.618C571.12,0.232 572.063,0.023 573.02,0.002C573.976,-0.019 574.928,0.149 575.82,0.496L610.275,13.901L626.243,51.656L605.045,106.16C604.326,107.948 602.934,109.383 601.169,110.157C599.404,110.931 597.405,110.982 595.603,110.299L595.603,110.299Z" fill="#EBEBEB"/>
<path d="M610.275,13.813L602.04,34.966C601.707,35.799 601.543,36.69 601.557,37.587C601.572,38.484 601.764,39.37 602.123,40.192C602.482,41.014 603.001,41.757 603.649,42.377C604.297,42.997 605.062,43.482 605.9,43.804L626.243,51.715L610.275,13.813Z" fill="#E0E0E0"/>
<path d="M597.813,32.332C597.71,32.612 592.009,30.638 585.071,27.912C578.132,25.187 572.594,22.801 572.697,22.536C572.8,22.271 578.515,24.23 585.454,26.955C592.392,29.68 597.989,32.067 597.813,32.332Z" fill="#FAFAFA"/>
<path d="M609.392,50.612C609.288,50.877 599.949,47.504 588.533,43.055C577.117,38.607 567.91,34.791 568.042,34.526C568.175,34.261 577.485,37.664 588.916,42.083C600.347,46.502 609.495,50.332 609.392,50.612Z" fill="#FAFAFA"/>
<path d="M609.23,62.039C609.126,62.319 598.918,58.607 586.5,53.76C574.082,48.914 564.109,44.775 564.109,44.51C564.109,44.244 574.421,47.942 586.839,52.788C599.257,57.635 609.333,61.774 609.23,62.039Z" fill="#FAFAFA"/>
<path d="M605.563,71.543C605.46,71.809 595.252,68.111 582.834,63.265C570.416,58.418 560.384,54.279 560.487,53.999C560.59,53.719 570.799,57.446 583.217,62.278C595.635,67.11 605.681,71.19 605.563,71.543Z" fill="#FAFAFA"/>
<path d="M601.908,80.895C601.79,81.16 591.596,77.463 579.178,72.616C566.76,67.77 556.714,63.631 556.817,63.351C556.92,63.071 567.129,66.783 579.561,71.629C591.994,76.476 602.011,80.615 601.908,80.895Z" fill="#FAFAFA"/>
<path d="M598.241,90.31C598.123,90.59 587.929,86.878 575.511,82.046C563.094,77.214 553.047,73.016 553.165,72.78C553.283,72.545 563.477,76.213 575.895,81.059C588.313,85.905 598.344,90.045 598.241,90.31Z" fill="#FAFAFA"/>
<path d="M85.361,325.354C86.491,325.542 87.503,326.162 88.185,327.083C88.866,328.004 89.164,329.153 89.015,330.288C88.794,331.761 88.573,333.235 88.484,333.942L83.476,366.806C83.349,367.551 82.94,368.22 82.334,368.672C81.728,369.125 80.971,369.327 80.22,369.236L5.005,357.791C4.29,357.662 3.648,357.273 3.202,356.699C2.756,356.126 2.538,355.407 2.589,354.682L6.434,312.096C6.476,311.709 6.594,311.335 6.782,310.994C6.969,310.654 7.222,310.354 7.526,310.111C7.83,309.869 8.179,309.689 8.553,309.582C8.927,309.475 9.318,309.444 9.704,309.489L26.718,312.081C28.322,312.337 29.786,313.144 30.858,314.364L33.907,317.885L85.361,325.354Z" fill="#E0E0E0"/>
<path d="M86.986,324.1L3.846,324.1L3.846,374.272L86.986,374.272L86.986,324.1Z" transform="rotate(17.3 45.416 349.186)" fill="#F5F5F5"/>
<path d="M0.881,321.595L-0.71,374.272C-0.723,374.723 -0.572,375.162 -0.284,375.509C0.003,375.856 0.407,376.087 0.851,376.158L80.942,388.34C81.409,388.405 81.883,388.289 82.267,388.015C82.651,387.741 82.915,387.33 83.004,386.867L94.907,335.752C94.965,335.506 94.972,335.252 94.929,335.004C94.886,334.756 94.792,334.519 94.654,334.308C94.517,334.097 94.337,333.917 94.127,333.777C93.918,333.638 93.682,333.543 93.434,333.498L3.031,319.754C2.765,319.711 2.493,319.727 2.234,319.8C1.975,319.873 1.734,320.001 1.53,320.177C1.325,320.352 1.161,320.569 1.049,320.814C0.937,321.059 0.879,321.326 0.881,321.595L0.881,321.595Z" fill="#EBEBEB"/>
</svg>
