<svg width="148" height="258" viewBox="0 0 148 258" fill="none" xmlns="http://www.w3.org/2000/svg" xmlns:xlink="http://www.w3.org/1999/xlink">
<path d="M125.201,7C112.178,13.772 102.126,25.411 94.928,38.245C87.729,51.079 83.088,65.132 78.494,79.115L74.469,151.135C89.659,125.289 101.866,94.897 105.157,65.097L95.046,64.185C101.83,63.155 107.513,58.265 111.136,52.417C114.759,46.568 116.618,39.878 118.441,33.26L106.104,35.107C115.848,28.543 122.687,18.476 125.201,7L125.201,7Z" fill="#A1F59F"/>
<g opacity="0.3">
<g opacity="0.3">
<path d="M125.197,7C112.174,13.772 102.122,25.411 94.924,38.245C87.725,51.079 83.084,65.132 78.49,79.115L74.465,151.135C89.655,125.289 101.862,94.897 105.153,65.097L95.042,64.185C101.826,63.155 107.509,58.265 111.132,52.417C114.755,46.568 116.614,39.878 118.437,33.26L106.1,35.107C115.844,28.543 122.683,18.476 125.197,7L125.197,7Z" fill="#A1F59F"/>
</g>
</g>
<path d="M72.218,168.041C72.218,168.041 39.233,128.568 39.6,90.882L52.931,90.882C52.931,90.882 38.416,81.363 39.6,76.035C40.784,70.708 41.139,50.498 41.139,50.498L53.322,53.552C53.322,53.552 44.182,48.982 43.045,41.713C41.909,34.443 45.709,0.984 45.709,0.984C45.709,0.984 60.556,16.589 65.126,32.572C69.696,48.556 81.701,67.215 78.15,115.947C74.598,164.678 72.218,168.041 72.218,168.041Z" fill="#CBFFCA"/>
<path d="M88.935,171.772C88.935,171.772 124.679,147.963 132.611,117.583L121.896,114.67C121.896,114.67 135.618,110.183 135.867,105.648C136.116,101.114 140.236,84.834 140.236,84.834L129.782,84.621C129.782,84.621 138.069,82.94 140.627,77.376C143.184,71.811 147.34,44.023 147.34,44.023C147.34,44.023 131.948,53.329 124.844,65.181C117.741,77.032 103.96,89.405 96.122,129.351C88.284,169.298 88.935,171.772 88.935,171.772Z" fill="#CBFFCA"/>
<path d="M54.719,35.461C54.771,35.591 54.811,35.726 54.837,35.864L55.121,37.047L56.163,41.783C56.625,43.808 57.158,46.306 57.738,49.207C58.318,52.107 59.005,55.411 59.668,59.081C61.088,66.398 62.58,75.159 64.108,84.891C65.635,94.623 67.079,105.374 68.405,116.669C69.731,127.964 70.702,138.761 71.472,148.636C72.241,158.51 72.75,167.33 73.046,174.777C73.224,178.507 73.319,181.881 73.402,184.829C73.484,187.777 73.556,190.346 73.579,192.43C73.603,194.514 73.579,196.089 73.579,197.225L73.579,198.468C73.597,198.61 73.597,198.753 73.579,198.895C73.564,198.757 73.564,198.618 73.579,198.48C73.579,198.16 73.579,197.746 73.579,197.225C73.579,196.041 73.484,194.49 73.413,192.43C73.342,190.37 73.271,187.801 73.129,184.841C72.987,181.881 72.893,178.519 72.679,174.801C72.324,167.354 71.732,158.51 70.974,148.683C70.217,138.856 69.151,128.082 67.861,116.787C66.57,105.492 65.078,94.765 63.622,85.021C62.166,75.278 60.674,66.54 59.313,59.211C58.673,55.541 58.022,52.238 57.466,49.325C56.909,46.413 56.424,43.914 56.009,41.878C55.595,39.842 55.287,38.326 55.074,37.142C54.979,36.633 54.896,36.219 54.849,35.958C54.788,35.798 54.744,35.631 54.719,35.461Z" fill="#01008A"/>
<path d="M67.647,192.218C67.647,192.218 37.456,157.978 28.091,137.27L35.195,134.251C30.068,135.092 24.811,132.889 20.833,129.515C16.855,126.141 13.943,121.772 11.078,117.427L20.395,115.852C11.834,113.406 4.542,107.759 0.031,100.082C11.03,101.893 20.987,107.932 29.18,115.473C35.693,121.728 41.607,128.577 46.845,135.932C49.481,139.468 51.777,143.246 53.7,147.215C58.744,157.729 67.659,179.644 67.647,192.218Z" fill="#A1F59F"/>
<path d="M133.13,63.958C133.097,64.078 133.049,64.193 132.988,64.301L132.526,65.296L130.691,69.096C129.069,72.387 126.784,77.171 124.001,83.102C121.219,89.034 118.022,96.126 114.53,104.094C111.037,112.062 107.485,120.859 103.874,130.141C100.263,139.423 97.043,148.433 94.213,156.626C91.383,164.819 88.992,172.242 87.109,178.494C85.227,184.745 83.652,189.836 82.634,193.352L81.45,197.402C81.308,197.84 81.201,198.183 81.119,198.455C81.036,198.728 81,198.81 80.988,198.799C80.994,198.695 81.009,198.591 81.036,198.491C81.107,198.218 81.19,197.875 81.308,197.425C81.568,196.454 81.924,195.057 82.385,193.352C83.333,189.801 84.753,184.709 86.683,178.435C88.613,172.16 90.934,164.712 93.704,156.496C96.474,148.279 99.73,139.317 103.329,129.987C106.929,120.657 110.611,111.849 113.985,103.94C117.359,96.031 120.71,88.904 123.54,82.984C126.369,77.064 128.725,72.328 130.407,69.061L132.348,65.307C132.561,64.917 132.727,64.597 132.869,64.348C133.011,64.1 133.13,63.946 133.13,63.958Z" fill="#01008A"/>
<path d="M70.203,206.898C70.127,206.697 70.079,206.485 70.061,206.271C69.978,205.785 69.883,205.182 69.765,204.448C69.528,202.873 69.137,200.588 68.581,197.794C68.024,195 67.267,191.673 66.284,188.038C65.301,184.403 64.011,180.449 62.483,176.364C60.956,172.279 59.251,168.503 57.617,165.105C55.983,161.707 54.35,158.711 52.881,156.249C51.413,153.786 50.229,151.821 49.33,150.483L48.347,148.92C48.213,148.749 48.109,148.557 48.039,148.352C48.193,148.5 48.328,148.667 48.442,148.849C48.738,149.251 49.093,149.737 49.519,150.341C50.454,151.643 51.733,153.585 53.225,156.035C54.717,158.486 56.374,161.458 58.067,164.844C59.76,168.23 61.441,172.054 63.004,176.151C64.567,180.247 65.834,184.285 66.828,187.837C67.823,191.388 68.521,194.834 69.019,197.663C69.516,200.493 69.848,202.778 70.001,204.365C70.072,205.111 70.132,205.714 70.179,206.2C70.22,206.43 70.228,206.666 70.203,206.898L70.203,206.898Z" fill="#01008A"/>
<path d="M110.034,198.836L43.969,198.836L43.969,212.309L110.034,212.309L110.034,198.836Z" fill="#FF3874"/>
<path d="M50.266,212.32L57.405,257.642L97.328,257.642L103.982,212.32L50.266,212.32Z" fill="#FF3874"/>
<path d="M105.984,212.323C105.984,212.489 93.481,212.631 78.066,212.631C62.651,212.631 50.16,212.489 50.16,212.323C50.16,212.158 62.651,212.016 78.066,212.016C93.481,212.016 105.984,212.146 105.984,212.323Z" fill="#01008A"/>
</svg>
