<svg width="504" height="516" viewBox="0 0 504 516" fill="none" xmlns="http://www.w3.org/2000/svg" xmlns:xlink="http://www.w3.org/1999/xlink">
<path d="M224.448,504.835C222.684,503.32 218.729,498.501 221.772,492.901C222.897,490.853 225.265,489.835 227.42,488.935C229.632,488.189 231.717,487.107 233.6,485.726C236.951,482.885 237.874,478.149 240.1,474.337C242.657,469.968 247.417,466.7 252.46,466.925C258.226,467.197 263.033,471.898 265.212,477.273C267.39,482.648 267.473,488.603 267.579,494.405C267.579,497.613 267.461,501.236 265.105,503.403C262.749,505.569 259.659,505.415 256.723,505.333L225.206,504.362Z" fill="#F5F5F5"/>
<path d="M284.736,418.172L201.859,418.172L216.789,507.194C217.1,509.053 217.932,510.786 219.19,512.191C220.448,513.595 222.079,514.613 223.893,515.126L224.189,515.209C224.426,515.268 224.662,515.351 224.923,515.398C225.478,515.504 226.04,515.567 226.604,515.588L226.604,515.694L227.007,515.635L263.958,515.635C264.638,515.635 265.316,515.568 265.983,515.434C268.14,515.1 270.129,514.068 271.645,512.497C273.161,510.925 274.121,508.9 274.377,506.732L281.528,445.367L281.848,442.928L284.689,418.61L284.736,418.172ZM269.096,475.002L260.596,475.002L261.448,449.168L271.31,449.168L269.096,475.002ZM272.139,449.168L280.273,449.168L277.242,475.002L269.925,475.002L272.139,449.168ZM247.832,503.63L247.312,481.135L259.565,481.135L258.82,503.63L247.832,503.63ZM234.584,481.135L246.495,481.135L247.004,503.63L236.348,503.63L234.584,481.135ZM235.507,503.63L225.527,503.63C224.58,497.568 223.348,489.695 221.975,481.135L233.732,481.135L235.507,503.63ZM234.17,474.954L232.157,449.12L245.808,449.12L246.412,474.954L234.17,474.954ZM247.193,474.954L246.601,449.12L260.655,449.12L259.79,474.954L247.193,474.954ZM246.459,442.988L245.903,419.048L261.649,419.048L260.856,442.988L246.459,442.988ZM245.63,442.988L231.624,442.988L229.753,419.048L245.062,419.048L245.63,442.988ZM230.819,442.988L215.984,442.988C215.463,439.672 214.966,436.547 214.516,433.729C212.977,424.056 212.397,420.421 212.065,419.048L228.937,419.048L230.819,442.988ZM231.304,449.18L233.305,475.014L221.039,475.014C220.625,472.397 220.211,469.745 219.856,467.093C218.897,460.996 217.926,454.898 217.026,449.18L231.304,449.18ZM220.234,475.014L212.231,475.014L207.898,449.18L216.185,449.18C217.393,457.1 218.778,465.968 220.211,474.954L220.234,475.014ZM221.205,481.218C222.389,488.984 223.573,496.609 224.757,503.713L217.073,503.713L213.308,481.218L221.205,481.218ZM259.672,503.713L260.418,481.218L268.599,481.218L266.681,503.713L259.672,503.713ZM261.685,443.035L262.478,419.095L273.903,419.095L271.867,443.035L261.685,443.035ZM211.307,419.095C211.639,420.836 213.154,430.248 215.179,443.035L206.891,443.035L202.878,419.095L211.307,419.095ZM273.915,503.713L267.498,503.713L269.416,481.218L276.52,481.218L273.915,503.713ZM281.019,443.035L272.672,443.035L274.72,419.095L283.825,419.095L281.019,443.035Z" fill="#E0E0E0"/>
<path d="M288.773,330.166L244.055,344.102C242.571,344.549 240.971,344.396 239.599,343.677C238.226,342.957 237.191,341.728 236.714,340.254L217.427,278.356C216.98,276.873 217.133,275.273 217.852,273.9C218.572,272.528 219.801,271.492 221.275,271.016L249.631,262.184L278.638,277.966L292.621,322.826C293.068,324.31 292.915,325.909 292.196,327.282C291.476,328.654 290.247,329.69 288.773,330.166L288.773,330.166Z" fill="#EBEBEB"/>
<path d="M249.629,262.184L255.063,279.6C255.499,280.974 256.461,282.119 257.739,282.785C259.017,283.45 260.508,283.582 261.883,283.151L278.636,277.93L249.629,262.184Z" fill="#E0E0E0"/>
<path d="M251.087,280.085C251.158,280.31 246.588,281.932 240.869,283.708C235.151,285.484 230.474,286.751 230.403,286.526C230.332,286.301 234.914,284.679 240.621,282.903C246.327,281.127 251.028,279.837 251.087,280.085Z" fill="#FAFAFA"/>
<path d="M267.52,285.746C267.591,285.971 260.025,288.529 250.625,291.453C241.224,294.377 233.54,296.579 233.469,296.355C233.398,296.13 240.964,293.572 250.376,290.648C259.789,287.724 267.449,285.521 267.52,285.746Z" fill="#FAFAFA"/>
<path d="M273.157,293.015C273.228,293.24 264.975,296.01 254.722,299.207C244.469,302.403 236.111,304.807 236.04,304.582C235.968,304.357 244.221,301.586 254.474,298.39C264.727,295.193 273.085,292.79 273.157,293.015Z" fill="#FAFAFA"/>
<path d="M275.606,300.772C275.677,300.997 267.425,303.768 257.172,306.965C246.919,310.161 238.56,312.565 238.489,312.34C238.418,312.115 246.67,309.344 256.923,306.148C267.176,302.951 275.499,300.547 275.606,300.772Z" fill="#FAFAFA"/>
<path d="M277.973,308.499C278.044,308.724 269.792,311.494 259.551,314.691C249.309,317.888 240.927,320.291 240.856,320.066C240.785,319.841 249.037,317.083 259.29,313.886C269.543,310.689 277.973,308.309 277.973,308.499Z" fill="#FAFAFA"/>
<path d="M280.402,316.292C280.474,316.517 272.221,319.287 261.98,322.484C251.739,325.681 243.368,328.084 243.297,327.859C243.226,327.634 251.478,324.864 261.72,321.667C271.961,318.47 280.343,316.067 280.402,316.292Z" fill="#FAFAFA"/>
<path d="M478.512,88.651L434.859,71.709C433.422,71.131 432.269,70.012 431.647,68.593C431.025,67.174 430.984,65.568 431.532,64.119L455.034,3.738C455.311,3.02 455.728,2.365 456.259,1.809C456.79,1.253 457.426,0.807 458.13,0.497C458.834,0.186 459.592,0.018 460.361,0.001C461.13,-0.015 461.894,0.12 462.611,0.399L490.304,11.173L503.138,41.518L486.101,85.324C485.523,86.761 484.404,87.915 482.985,88.537C481.567,89.159 479.96,89.2 478.512,88.651L478.512,88.651Z" fill="#EBEBEB"/>
<path d="M490.304,11.102L483.686,28.103C483.418,28.773 483.286,29.489 483.298,30.21C483.309,30.931 483.463,31.643 483.752,32.303C484.041,32.964 484.457,33.561 484.979,34.06C485.5,34.558 486.115,34.948 486.788,35.207L503.138,41.565L490.304,11.102Z" fill="#E0E0E0"/>
<path d="M480.289,25.986C480.206,26.211 475.624,24.625 470.048,22.435C464.472,20.244 460.02,18.326 460.103,18.113C460.186,17.9 464.779,19.475 470.356,21.665C475.932,23.855 480.431,25.773 480.289,25.986Z" fill="#FAFAFA"/>
<path d="M489.594,40.679C489.511,40.892 482.005,38.181 472.829,34.605C463.654,31.03 456.254,27.963 456.361,27.75C456.467,27.537 463.95,30.272 473.137,33.824C482.325,37.376 489.677,40.454 489.594,40.679Z" fill="#FAFAFA"/>
<path d="M489.464,49.862C489.381,50.087 481.176,47.103 471.195,43.208C461.215,39.313 453.199,35.986 453.199,35.773C453.199,35.559 461.487,38.531 471.468,42.426C481.448,46.322 489.547,49.648 489.464,49.862Z" fill="#FAFAFA"/>
<path d="M486.515,57.503C486.432,57.717 478.227,54.745 468.246,50.85C458.266,46.954 450.203,43.627 450.286,43.403C450.369,43.178 458.573,46.173 468.554,50.056C478.535,53.94 486.61,57.219 486.515,57.503Z" fill="#FAFAFA"/>
<path d="M483.581,65.019C483.487,65.232 475.294,62.26 465.313,58.365C455.332,54.47 447.258,51.143 447.34,50.918C447.423,50.693 455.628,53.677 465.621,57.572C475.613,61.467 483.664,64.794 483.581,65.019Z" fill="#FAFAFA"/>
<path d="M480.632,72.586C480.538,72.811 472.345,69.827 462.364,65.944C452.383,62.061 444.308,58.686 444.403,58.497C444.498,58.307 452.691,61.256 462.672,65.151C472.652,69.046 480.715,72.373 480.632,72.586Z" fill="#FAFAFA"/>
<path d="M68.415,261.498C69.323,261.649 70.137,262.148 70.685,262.888C71.232,263.628 71.472,264.551 71.352,265.464C71.174,266.648 70.996,267.832 70.925,268.4L66.9,294.814C66.798,295.413 66.469,295.95 65.982,296.314C65.495,296.678 64.887,296.84 64.283,296.768L3.83,287.568C3.256,287.465 2.74,287.152 2.381,286.691C2.023,286.23 1.847,285.653 1.889,285.07L4.979,250.842C5.013,250.531 5.108,250.231 5.258,249.957C5.409,249.683 5.612,249.442 5.857,249.247C6.101,249.052 6.382,248.908 6.682,248.822C6.982,248.736 7.297,248.71 7.607,248.746L21.282,250.83C22.571,251.036 23.748,251.685 24.609,252.665L27.06,255.495L68.415,261.498Z" fill="#E0E0E0"/>
<path d="M69.719,260.491L2.896,260.491L2.896,300.817L69.719,300.817L69.719,260.491Z" transform="rotate(17.3 36.307 280.654)" fill="#F5F5F5"/>
<path d="M0.514,258.475L-0.765,300.814C-0.775,301.176 -0.654,301.529 -0.423,301.808C-0.192,302.087 0.133,302.272 0.49,302.329L64.862,312.121C65.237,312.173 65.618,312.079 65.927,311.859C66.235,311.639 66.447,311.309 66.519,310.937L76.086,269.853C76.132,269.656 76.138,269.452 76.104,269.252C76.069,269.053 75.994,268.863 75.883,268.693C75.772,268.524 75.628,268.379 75.459,268.267C75.291,268.155 75.101,268.078 74.902,268.042L2.242,256.995C2.028,256.961 1.81,256.974 1.601,257.032C1.393,257.091 1.2,257.194 1.035,257.335C0.871,257.476 0.739,257.651 0.649,257.848C0.559,258.045 0.513,258.259 0.514,258.475L0.514,258.475Z" fill="#EBEBEB"/>
</svg>
