<svg width="184" height="320" viewBox="0 0 184 320" fill="none" xmlns="http://www.w3.org/2000/svg" xmlns:xlink="http://www.w3.org/1999/xlink">
<path d="M155.338,7.711C139.134,16.137 126.628,30.617 117.671,46.585C108.715,62.553 102.941,80.039 97.225,97.436L92.217,187.043C111.116,154.886 126.304,117.072 130.399,79.995L117.819,78.86C126.259,77.579 133.33,71.495 137.838,64.218C142.345,56.941 144.658,48.618 146.927,40.384L131.577,42.682C143.7,34.514 152.21,21.99 155.338,7.711L155.338,7.711Z" fill="#A1F59F"/>
<g opacity="0.3">
<g opacity="0.3">
<path d="M155.338,7.711C139.134,16.137 126.628,30.617 117.671,46.585C108.715,62.553 102.941,80.039 97.225,97.436L92.217,187.043C111.116,154.886 126.304,117.072 130.399,79.995L117.819,78.86C126.259,77.579 133.33,71.495 137.838,64.218C142.345,56.941 144.658,48.618 146.927,40.384L131.577,42.682C143.7,34.514 152.21,21.99 155.338,7.711L155.338,7.711Z" fill="#A1F59F"/>
</g>
</g>
<path d="M89.419,208.077C89.419,208.077 48.379,158.965 48.835,112.077L65.422,112.077C65.422,112.077 47.362,100.233 48.835,93.605C50.309,86.976 50.75,61.83 50.75,61.83L65.908,65.631C65.908,65.631 54.536,59.945 53.122,50.9C51.708,41.856 56.436,0.227 56.436,0.227C56.436,0.227 74.909,19.642 80.595,39.528C86.281,59.415 101.218,82.63 96.799,143.262C92.379,203.893 89.419,208.077 89.419,208.077Z" fill="#CBFFCA"/>
<path d="M110.218,212.718C110.218,212.718 154.69,183.094 164.559,145.295L151.228,141.672C151.228,141.672 168.301,136.089 168.61,130.447C168.92,124.805 174.046,104.55 174.046,104.55L161.039,104.285C161.039,104.285 171.35,102.193 174.532,95.27C177.714,88.346 182.884,53.773 182.884,53.773C182.884,53.773 163.734,65.352 154.896,80.097C146.057,94.843 128.911,110.236 119.159,159.938C109.407,209.639 110.218,212.718 110.218,212.718Z" fill="#CBFFCA"/>
<path d="M67.646,43.121C67.711,43.283 67.761,43.451 67.794,43.622L68.147,45.095L69.444,50.987C70.018,53.506 70.681,56.614 71.403,60.223C72.125,63.832 72.979,67.942 73.804,72.509C75.572,81.612 77.428,92.513 79.328,104.622C81.228,116.73 83.025,130.106 84.675,144.159C86.325,158.212 87.533,171.647 88.49,183.932C89.448,196.217 90.081,207.192 90.45,216.457C90.671,221.098 90.788,225.296 90.891,228.964C90.995,232.632 91.083,235.828 91.112,238.421C91.142,241.013 91.112,242.973 91.112,244.387L91.112,245.933C91.135,246.109 91.135,246.287 91.112,246.463C91.094,246.293 91.094,246.119 91.112,245.949C91.112,245.551 91.112,245.035 91.112,244.387C91.112,242.914 90.995,240.984 90.906,238.421C90.818,235.858 90.729,232.661 90.553,228.978C90.376,225.296 90.258,221.112 89.993,216.487C89.551,207.221 88.814,196.217 87.872,183.991C86.929,171.764 85.603,158.359 83.998,144.306C82.392,130.253 80.536,116.907 78.724,104.784C76.912,92.66 75.056,81.789 73.362,72.671C72.567,68.104 71.756,63.994 71.064,60.371C70.372,56.747 69.768,53.639 69.252,51.105C68.737,48.571 68.354,46.686 68.088,45.213C67.971,44.579 67.867,44.064 67.809,43.74C67.732,43.54 67.678,43.333 67.646,43.121Z" fill="#01008A"/>
<path d="M83.733,238.158C83.733,238.158 46.169,195.557 34.517,169.793L43.356,166.036C36.977,167.082 30.437,164.342 25.487,160.144C20.538,155.946 16.914,150.51 13.349,145.104L24.942,143.145C14.29,140.101 5.218,133.075 -0.395,123.523C13.29,125.777 25.679,133.29 35.872,142.673C43.975,150.455 51.333,158.977 57.851,168.128C61.131,172.527 63.987,177.228 66.38,182.166C72.655,195.247 83.747,222.514 83.733,238.158Z" fill="#A1F59F"/>
<path d="M165.208,78.579C165.168,78.728 165.108,78.872 165.031,79.006L164.457,80.243L162.174,84.972C160.155,89.067 157.312,95.018 153.851,102.399C150.389,109.779 146.412,118.602 142.066,128.516C137.721,138.43 133.301,149.375 128.808,160.924C124.316,172.473 120.309,183.683 116.788,193.876C113.268,204.07 110.292,213.306 107.95,221.084C105.608,228.862 103.648,235.196 102.382,239.571L100.908,244.609C100.732,245.154 100.599,245.581 100.496,245.92C100.393,246.259 100.349,246.362 100.334,246.347C100.341,246.218 100.36,246.089 100.393,245.964C100.481,245.625 100.584,245.198 100.732,244.638C101.056,243.43 101.498,241.692 102.072,239.571C103.251,235.152 105.018,228.818 107.419,221.01C109.821,213.203 112.708,203.937 116.155,193.714C119.602,183.491 123.653,172.34 128.131,160.732C132.609,149.124 137.19,138.165 141.389,128.325C145.587,118.485 149.756,109.617 153.276,102.251C156.797,94.886 159.728,88.994 161.82,84.928L164.236,80.258C164.501,79.772 164.707,79.374 164.884,79.065C165.061,78.756 165.208,78.564 165.208,78.579Z" fill="#01008A"/>
<path d="M86.914,256.425C86.82,256.174 86.76,255.912 86.737,255.645C86.634,255.041 86.516,254.289 86.369,253.376C86.074,251.417 85.588,248.574 84.896,245.097C84.203,241.621 83.26,237.482 82.038,232.959C80.815,228.437 79.21,223.517 77.309,218.435C75.409,213.353 73.288,208.654 71.255,204.426C69.222,200.198 67.189,196.471 65.363,193.407C63.536,190.343 62.063,187.898 60.944,186.234L59.721,184.289C59.555,184.076 59.425,183.837 59.338,183.582C59.53,183.767 59.698,183.975 59.839,184.201C60.207,184.702 60.649,185.306 61.179,186.057C62.343,187.677 63.934,190.093 65.79,193.142C67.646,196.192 69.708,199.889 71.815,204.102C73.921,208.315 76.013,213.073 77.958,218.17C79.902,223.267 81.478,228.29 82.715,232.709C83.953,237.128 84.822,241.415 85.441,244.935C86.059,248.456 86.472,251.299 86.663,253.273C86.752,254.201 86.825,254.952 86.884,255.556C86.935,255.843 86.945,256.136 86.914,256.425L86.914,256.425Z" fill="#01008A"/>
<path d="M136.469,246.391L54.271,246.391L54.271,263.154L136.469,263.154L136.469,246.391Z" fill="#FF3874"/>
<path d="M62.107,263.168L70.99,319.557L120.662,319.557L128.941,263.168L62.107,263.168Z" fill="#FF3874"/>
<path d="M131.43,263.172C131.43,263.378 115.874,263.555 96.695,263.555C77.516,263.555 61.975,263.378 61.975,263.172C61.975,262.966 77.516,262.789 96.695,262.789C115.874,262.789 131.43,262.951 131.43,263.172Z" fill="#01008A"/>
</svg>
