<svg width="20" height="10" viewBox="0 0 20 10" fill="none" xmlns="http://www.w3.org/2000/svg" xmlns:xlink="http://www.w3.org/1999/xlink">
<path d="M7.238,1.596L7.238,0L0,0L0,9.618L1.75,9.618L1.75,5.628L6.72,5.628L6.72,4.032L1.75,4.032L1.75,1.596L7.238,1.596Z" fill="#01008A"/>
<path d="M16.492,9.618L14.084,6.202C15.47,5.768 16.408,4.648 16.408,3.192C16.408,1.316 14.868,0 12.81,0L8.624,0L8.624,9.618L10.374,9.618L10.374,6.384L12.236,6.384L14.504,9.618L16.492,9.618ZM10.374,1.61L12.614,1.61C13.804,1.61 14.63,2.212 14.63,3.192C14.63,4.172 13.804,4.774 12.614,4.774L10.374,4.774L10.374,1.61Z" fill="#01008A"/>
<path d="M17.877,9.618L19.613,9.618L19.613,0L17.877,0L17.877,9.618Z" fill="#01008A"/>
</svg>
