<svg width="278" height="350" viewBox="0 0 278 350" fill="none" xmlns="http://www.w3.org/2000/svg" xmlns:xlink="http://www.w3.org/1999/xlink">
<path d="M62.644,1.397C77.593,-2.965 94.474,2.041 105.03,13.498C131.124,41.843 111.883,63.692 124.946,83.53C132.84,95.514 139.468,116.509 115.019,128.928C103.718,134.671 70.041,164.678 63.148,165.384C-6.729,172.563 -7.987,101.669 15.57,81.124C48.665,52.251 18.418,14.297 62.644,1.397Z" fill="#01008A"/>
<path d="M99.162,110.991C99.162,110.991 162.931,141.882 174.876,141.362C186.821,140.842 261.488,114.546 261.488,114.546L259.617,127.205C259.617,127.205 202.81,159.873 182.956,161.728C163.405,163.552 96.546,144.179 90.096,140.089C83.639,136.006 80.41,115.135 99.162,110.991Z" fill="#ED985F"/>
<path d="M106.185,140.136C100.403,144.149 93.161,147.455 84.065,149.551C49.96,157.429 36.89,128.61 31.984,108.826C36.634,106.164 41.011,105.582 43.541,105.279C46.01,104.992 48.602,104.798 50.744,104.689C54.571,101.755 60.283,89.756 61.54,71.112L63.147,71.539L90.026,78.897C90.026,78.897 88.791,87.443 88.194,95.515C87.728,101.833 87.65,107.871 88.854,109.354C90.949,109.812 92.207,110.107 92.207,110.107C92.207,110.107 92.207,110.114 92.222,110.13C92.571,110.712 100.364,123.534 106.185,140.136Z" fill="#FFB27D"/>
<path d="M90.019,78.897C90.019,78.897 88.785,87.435 88.187,95.515C72.959,93.993 65.896,79.495 63.141,71.539L90.019,78.897Z" fill="#ED985F"/>
<path d="M94.565,86.914C94.565,86.914 58.419,84.92 60.01,62.434C61.601,39.949 58.008,24.542 81.145,24.868C104.29,25.194 108.163,34.089 109.459,41.727C110.755,49.364 104.003,86.852 94.565,86.914Z" fill="#FFB27D"/>
<path d="M109.282,29.137C104.19,21.973 99.867,23.153 97.352,25.016C78.399,12.752 64.537,27.88 64.537,27.88C60.966,43.838 48.664,52.251 48.664,52.251C48.664,52.251 55.067,57.374 70.396,53.974C90.01,49.628 96.747,32.614 97.663,30.006C99.727,32.141 102.39,33.499 104.431,38.141C106.86,43.644 108.382,46.841 108.428,55.884C108.428,55.891 116.919,39.887 109.282,29.137Z" fill="#01008A"/>
<path d="M21.684,213.614C18.416,196.927 7.775,130.27 18.416,108.817C22.235,101.11 37.238,100.419 53.693,101.094C58.815,104.401 78.32,116.889 86.338,115.329C86.423,115.314 86.578,115.275 86.788,115.22C90.56,114.274 91.988,111.627 88.837,109.337C88.829,109.329 96.063,109.849 106.184,111.751C111.905,112.83 127.599,122.462 127.599,122.462C127.599,122.462 120.481,133.538 109.033,138.373C110.981,155.79 108.086,163.474 90.017,203.695C74.75,237.698 92.074,268.31 92.074,268.31C92.074,268.31 2.202,340.564 1.706,303.774C1.325,276.087 25.86,234.943 21.684,213.614Z" fill="#F99746"/>
<path d="M96.53,346.888C101.42,346.337 105.821,343.66 108.553,339.569C108.987,338.917 109.453,338.219 109.942,337.474C120.172,321.989 124.153,274.566 147.159,224.038C152.763,211.736 172.881,209.524 178.368,195.623C178.368,195.623 191.873,150.551 152.522,149.224C113.171,147.897 47.151,274.62 46.111,287.916C45.102,300.792 20.094,355.512 96.53,346.888Z" fill="#B0B0FF"/>
<path d="M252.911,346.625L196.911,346.625C196.911,346.625 194.815,337.458 198.494,331.218C201.746,325.7 200.504,322.548 198.09,317.984C200.629,319.048 203.912,320.018 207.521,319.808C210.307,319.645 213.264,318.341 215.849,316.805C218.263,319.622 228.578,331.637 231.807,334.012C235.462,336.705 251.785,335.743 252.911,346.625Z" fill="#0D2644"/>
<path d="M179.647,162.256C183.016,187.536 196.187,267.325 219.418,306.257C226.908,318.808 200.549,325.84 200.41,325.809C196.878,324.885 190.987,319.25 188.27,316.805C169.41,299.807 131.13,251.685 131.13,213.103C131.13,194.288 130.804,158.36 144.48,149.225C152.901,143.598 178.305,152.213 179.647,162.256Z" fill="#B0B0FF"/>
<path d="M23.881,140.097C23.881,140.097 35.244,163.218 88.294,179.549C141.345,195.887 110.997,154.844 110.997,154.844L36.835,128.928L23.881,140.097Z" fill="#ED7D2B"/>
<path d="M69.186,346.943C69.186,346.943 72.027,342.69 73.827,336.364C76.839,325.801 77.91,318.109 83.692,301.654C89.769,284.377 96.972,263.126 105.976,241.013C108.754,234.191 111.704,227.283 114.847,220.383C120.451,208.081 135.873,209.781 141.353,195.88C141.353,195.88 162.759,147.68 123.408,146.345C84.065,145.018 9.297,275.296 5.005,287.909C0.294,301.732 -16.603,360.177 69.186,346.943Z" fill="#C6C6FF"/>
<path d="M211.797,346.625L155.797,346.625C155.797,346.625 153.702,337.458 157.381,331.218C160.633,325.7 159.391,322.548 156.977,317.984C159.515,319.048 162.798,320.018 166.408,319.808C169.194,319.645 172.151,318.341 174.736,316.805C177.15,319.622 187.465,331.637 190.694,334.012C194.357,336.705 210.672,335.743 211.797,346.625Z" fill="#163560"/>
<g opacity="0.5">
<g opacity="0.5">
<path d="M83.684,301.663C89.762,284.385 96.965,263.134 105.968,241.021C103.616,224.272 98.54,209.61 90.01,203.704C90.018,203.711 69.318,267.822 83.684,301.663Z" fill="#94B0ED"/>
</g>
</g>
<path d="M146.959,160.463C150.327,185.742 155.077,267.324 178.308,306.256C185.798,318.807 159.439,325.839 159.3,325.808C155.768,324.884 149.877,319.249 147.16,316.804C128.3,299.807 90.02,251.685 90.02,213.102C90.02,194.288 112.101,159.865 125.777,150.738C134.198,145.103 145.616,150.427 146.959,160.463Z" fill="#C6C6FF"/>
<path d="M268.178,81.97L210.828,75.878C209.159,75.699 207.576,76.669 206.978,78.245L186.456,132.164C185.556,134.532 187.24,137.078 189.77,137.178L246.678,139.476C248.223,139.538 249.643,138.63 250.241,137.21L271.205,87.085C272.16,84.796 270.646,82.234 268.178,81.97Z" fill="#A3123D"/>
<path d="M273.16,82.49L215.81,76.397C214.141,76.219 212.558,77.189 211.96,78.764L191.439,132.684C190.538,135.051 192.223,137.597 194.753,137.698L251.661,139.996C253.205,140.058 254.626,139.149 255.223,137.721L276.187,87.597C277.142,85.315 275.621,82.754 273.16,82.49Z" fill="#FF3874"/>
<path d="M241.369,107.669C242.068,105.744 241.074,104.184 239.149,104.184C237.225,104.184 235.098,105.744 234.399,107.669C233.701,109.593 234.694,111.153 236.619,111.153C238.544,111.153 240.671,109.593 241.369,107.669Z" fill="#EBF3FA"/>
<path d="M271.446,87.589C271.787,86.642 271.306,85.874 270.359,85.874C269.412,85.874 268.364,86.642 268.023,87.589C267.681,88.536 268.17,89.305 269.11,89.305C270.049,89.305 271.104,88.536 271.446,87.589Z" fill="#EBF3FA"/>
<path d="M31.978,108.817C31.978,108.817 111.464,138.086 123.401,137.489C131.124,137.101 195.281,114.545 195.281,114.545L201.041,125.443C201.041,125.443 138.591,165.578 121.422,165.384C87.527,164.996 30.332,144.187 23.882,140.097C17.433,136.006 13.226,112.962 31.978,108.817Z" fill="#FFB27D"/>
<path d="M195.289,114.546C195.289,114.546 201.048,105.682 206.784,105.418C212.52,105.154 222.423,109.33 225.815,109.982C229.207,110.634 238.847,113.762 235.983,118.458C233.111,123.153 219.816,124.193 214.088,123.153C208.352,122.113 201.056,125.451 201.056,125.451L195.289,114.546Z" fill="#FFB27D"/>
<path d="M205.223,105.698C205.223,105.698 214.343,101.514 216.95,100.73C219.558,99.946 219.038,100.746 218.254,103.214C217.47,105.682 212.783,108.042 212.783,108.818C212.783,109.594 205.223,105.698 205.223,105.698Z" fill="#FFB27D"/>
<path d="M267.254,109.857C267.254,109.857 263.614,97.866 259.617,101.638C255.456,105.558 257.979,109.477 258.491,114.476C259.461,124.03 261.394,123.619 262.62,123.192C263.847,122.765 268.605,114.662 267.254,109.857Z" fill="#FFB27D"/>
<path d="M267.472,111.682C267.472,111.682 269.311,121.889 259.617,127.213L262.489,120.189L267.472,111.682Z" fill="#FFB27D"/>
<path d="M101.327,73.983C101.327,73.983 97.912,72.633 88.295,73.409C88.295,73.409 88.807,77.158 95.893,77.53C99.914,77.74 101.327,73.983 101.327,73.983Z" fill="#FFFFFF"/>
<path d="M72.927,123.254C72.927,123.254 65.817,145.755 41.407,150.878C41.407,150.878 1.093,138.459 21.165,110.991C21.165,110.991 41.011,96.244 72.927,123.254Z" fill="#F99746"/>
<path d="M267.472,113.125C267.472,113.125 269.149,107.506 269.242,106.535C269.335,105.565 269.218,105.076 268.357,105.759C267.495,106.442 266.176,108.243 266.564,109.943C266.952,111.643 267.472,113.125 267.472,113.125Z" fill="#FFB27D"/>
</svg>
