<svg width="656" height="640" viewBox="0 0 656 640" fill="none" xmlns="http://www.w3.org/2000/svg" xmlns:xlink="http://www.w3.org/1999/xlink">
<path d="M624.412,101.059L376.5,101.059L376.5,111.934L624.412,111.934L624.412,101.059Z" fill="#DEE1FF"/>
<path d="M401.287,111.938L390.411,111.938L390.411,147.898L401.287,147.898L401.287,111.938Z" fill="#DEE1FF"/>
<path d="M401.287,111.938L390.411,111.938L390.411,123.051L401.287,123.051L401.287,111.938Z" fill="#D9DCFF"/>
<path d="M610.53,111.938L599.654,111.938L599.654,147.898L610.53,147.898L610.53,111.938Z" fill="#DEE1FF"/>
<path d="M610.53,111.938L599.654,111.938L599.654,123.051L610.53,123.051L610.53,111.938Z" fill="#D9DCFF"/>
<path d="M472.106,57.691L402.819,57.691L402.819,75.143L472.106,75.143L472.106,57.691Z" transform="rotate(180 437.463 66.417)" fill="#BDC3FF"/>
<path d="M441.257,23.149L433.639,23.149L433.639,40.601L441.257,40.601L441.257,23.149Z" transform="rotate(180 437.448 31.875)" fill="#D9DCFF"/>
<path d="M438.876,38.117L436.049,38.117L436.049,55.569L438.876,55.569L438.876,38.117Z" transform="rotate(180 437.463 46.843)" fill="#D9DCFF"/>
<path d="M442.357,78.348L434.74,78.348L434.74,97.972L442.357,97.972L442.357,78.348Z" transform="rotate(180 438.548 88.16)" fill="#D9DCFF"/>
<path d="M492.689,54.543L411.857,54.543L411.857,66.743L492.689,66.743L492.689,54.543Z" transform="rotate(180 452.273 60.643)" fill="#D9DCFF"/>
<path d="M467.769,39.708L436.689,39.708L436.689,47.028L467.769,47.028L467.769,39.708Z" transform="rotate(180 452.229 43.368)" fill="#DEE1FF"/>
<path d="M552.484,62.257L471.651,62.257L471.651,74.457L552.484,74.457L552.484,62.257Z" transform="rotate(89.34 512.067 68.357)" fill="#BDC3FF"/>
<path d="M531.836,68.813L500.756,68.813L500.756,76.133L531.836,76.133L531.836,68.813Z" transform="rotate(89.34 516.296 72.473)" fill="#D9DCFF"/>
<path d="M499.407,60.01L438.02,60.01L438.02,80.72L499.407,80.72L499.407,60.01Z" transform="rotate(180 468.713 70.365)" fill="#8891EE"/>
<path d="M471.592,81.357L465.864,81.357L465.864,102.067L471.592,102.067L471.592,81.357Z" transform="rotate(180 468.728 91.712)" fill="#BDC3FF"/>
<path d="M469.836,73.617L467.62,73.617L467.62,94.327L469.836,94.327L469.836,73.617Z" transform="rotate(180 468.728 83.972)" fill="#BDC3FF"/>
<path d="M450.436,65.078L392.739,65.078L392.739,79.376L450.436,79.376L450.436,65.078Z" transform="rotate(180 421.587 72.227)" fill="#8891EE"/>
<path d="M424.273,85.111L418.902,85.111L418.902,99.409L424.273,99.409L424.273,85.111Z" transform="rotate(180 421.587 92.26)" fill="#BDC3FF"/>
<path d="M424.273,50.802L418.902,50.802L418.902,65.1L424.273,65.1L424.273,50.802Z" transform="rotate(180 421.587 57.951)" fill="#BDC3FF"/>
<path d="M422.629,58.221L420.546,58.221L420.546,72.518L422.629,72.518L422.629,58.221Z" transform="rotate(180 421.587 65.37)" fill="#BDC3FF"/>
<path d="M580.24,27.145C568.04,39.047 565.987,57.585 568.561,73.773C568.635,74.145 569.2,74.04 569.2,73.698C569.2,70.008 569.081,66.363 569.096,62.718C569.096,62.555 569.215,62.391 569.29,62.227C572.577,60.061 575.297,57.138 577.22,53.702C579.258,49.7 580.061,45.177 581.609,40.996C581.757,40.595 581.326,40.714 581.058,40.907C573.619,46.382 571.268,52.274 569.156,60.159C569.203,56.041 569.636,51.937 570.45,47.9C571.872,40.281 575.385,33.208 580.597,27.472C580.761,27.264 580.448,26.937 580.24,27.145Z" fill="#8891EE"/>
<path d="M582.53,28.546C584.642,28.546 585.952,31.968 587.588,33.009C587.759,33.15 587.958,33.252 588.172,33.311C588.386,33.369 588.609,33.382 588.828,33.349C589.047,33.315 589.257,33.235 589.443,33.115C589.629,32.995 589.788,32.837 589.909,32.652C591.531,30.376 589.299,27.593 587.216,26.031C588.591,26.846 590.047,27.514 591.561,28.025C591.767,28.097 591.986,28.124 592.204,28.102C592.421,28.08 592.631,28.01 592.818,27.898C593.006,27.786 593.166,27.634 593.288,27.453C593.41,27.271 593.491,27.065 593.524,26.85C594.239,23.77 590.37,22.386 587.707,22.386C589.002,21.493 592.691,19.068 590.683,17.923C588.674,16.777 584.36,20.199 582.961,21.36C580.878,23.041 578.408,25.555 578.304,28.189C578.23,31.149 580.923,29.185 582.53,28.546Z" fill="#9CF69A"/>
<path d="M581.935,29.068C584.613,27.848 589.776,29.604 590.208,28.592C591.1,26.524 586.979,25.096 584.747,24.828C586.8,24.262 590.698,23.34 590.609,21.406C590.46,18.996 584.584,21.064 581.608,23.355C577.874,26.226 577.889,28.994 578.513,29.544C579.138,30.095 581.489,29.261 581.935,29.068Z" fill="#CBFFCA"/>
<path d="M552.447,25.97C565.094,37.441 567.846,55.83 565.837,72.092C565.837,72.464 565.213,72.389 565.198,72.092C565.064,68.402 565.034,64.757 564.885,61.112L564.677,60.636C561.312,58.597 558.485,55.781 556.435,52.423C554.233,48.495 553.266,44.002 551.555,39.881C551.391,39.479 551.822,39.583 552.105,39.777C559.737,44.969 562.326,50.772 564.751,58.553C564.548,54.44 563.961,50.356 562.996,46.353C561.283,38.794 557.502,31.861 552.075,26.327C552.028,26.278 552.002,26.212 552.004,26.143C552.005,26.075 552.033,26.01 552.083,25.962C552.132,25.915 552.198,25.889 552.267,25.891C552.335,25.892 552.4,25.921 552.447,25.97L552.447,25.97Z" fill="#8891EE"/>
<path d="M550.171,27.444C548.073,27.593 546.883,31 545.291,32.042C545.124,32.187 544.929,32.296 544.717,32.362C544.506,32.427 544.283,32.448 544.064,32.423C543.844,32.398 543.632,32.327 543.441,32.215C543.25,32.104 543.084,31.953 542.955,31.774C541.244,29.572 543.371,26.701 545.395,25.049C544.087,25.909 542.696,26.637 541.244,27.221C541.041,27.302 540.822,27.336 540.604,27.323C540.385,27.309 540.173,27.248 539.981,27.143C539.789,27.037 539.623,26.891 539.494,26.715C539.365,26.538 539.277,26.335 539.235,26.12C538.417,23.055 542.211,21.538 544.874,21.374C543.55,20.526 539.771,18.25 541.69,16.911C543.609,15.572 548.088,18.949 549.546,20.035C551.688,21.642 554.247,24.067 554.441,26.686C554.634,29.825 551.852,28.025 550.171,27.444Z" fill="#9CF69A"/>
<path d="M550.84,27.934C548.103,26.818 543.029,28.782 542.553,27.77C541.586,25.747 545.648,24.17 547.85,23.813C545.782,23.337 541.824,22.593 541.898,20.614C541.898,18.204 547.85,20.049 550.944,22.221C554.798,24.943 554.887,27.711 554.292,28.291C553.697,28.871 551.287,28.172 550.84,27.934Z" fill="#CBFFCA"/>
<path d="M565.391,56.274C566.237,62.411 567.55,68.474 569.319,74.411C569.343,74.527 569.412,74.629 569.511,74.695C569.61,74.761 569.731,74.784 569.847,74.76C569.964,74.737 570.066,74.668 570.132,74.569C570.197,74.47 570.221,74.349 570.197,74.232C569.364,68.638 567.846,63.163 567.028,57.569C566.114,51.914 565.785,46.181 566.046,40.459C566.582,31.027 569.141,21.014 575.285,13.679C575.419,13.5 575.136,13.262 575.002,13.426C562.684,27.768 564.588,45.369 564.662,46.946C562.922,40.995 561.121,34.196 554.53,28.14C554.248,27.887 554.025,28.006 554.069,28.453C555.245,39.477 558.309,45.22 564.707,51.112C564.885,52.823 565.049,54.549 565.391,56.274Z" fill="#8891EE"/>
<path d="M575.463,15.289C577.68,14.307 580.73,17.119 582.902,17.312C583.146,17.373 583.4,17.382 583.648,17.338C583.896,17.295 584.132,17.2 584.341,17.06C584.549,16.92 584.727,16.737 584.861,16.525C584.995,16.312 585.083,16.073 585.119,15.824C585.669,12.655 581.95,10.87 579.004,10.305C580.864,10.2 582.694,10.691 584.524,10.2C584.775,10.169 585.016,10.084 585.231,9.951C585.447,9.818 585.631,9.641 585.772,9.43C585.913,9.22 586.007,8.983 586.049,8.733C586.09,8.483 586.077,8.228 586.011,7.984C585.193,4.428 580.492,5.008 577.695,6.228C578.587,4.651 581.191,0.277 578.558,0.009C575.924,-0.259 573.142,5.558 572.264,7.448C570.955,10.245 569.646,14.098 570.881,16.881C572.205,20.094 574.05,16.776 575.463,15.289Z" fill="#9CF69A"/>
<path d="M575.031,16.135C577.204,13.517 583.437,12.743 583.378,11.464C583.259,8.875 578.275,9.47 575.82,10.303C577.665,8.696 581.295,5.84 580.179,3.816C578.81,1.391 573.767,6.494 571.818,10.363C569.378,15.228 570.806,18.084 571.728,18.352C572.993,18.709 574.674,16.567 575.031,16.135Z" fill="#CBFFCA"/>
<path d="M557.282,59.595L551.852,101.075L584.896,101.075C584.211,97.4 578.067,59.551 578.067,59.551L557.282,59.595Z" fill="#D9DCFF"/>
<path d="M38.159,15.84L283.467,15.84L283.467,336.462L38.159,336.462L38.159,15.84ZM276.995,22.312L44.631,22.312L44.631,329.99L276.995,329.99L276.995,22.312Z" fill="#DEE1FF"/>
<path d="M166.571,23.992L160.099,23.992L160.099,333.216L166.571,333.216L166.571,23.992Z" fill="#DEE1FF"/>
<path d="M289.33,28.917L32.282,28.917L32.282,37.918L289.33,37.918L289.33,28.917Z" transform="rotate(360 160.805 33.417)" fill="#DEE1FF"/>
<path d="M289.33,39.05L32.282,39.05L32.282,48.051L289.33,48.051L289.33,39.05Z" transform="rotate(360 160.805 43.55)" fill="#DEE1FF"/>
<path d="M289.33,49.194L32.282,49.194L32.282,58.195L289.33,58.195L289.33,49.194Z" transform="rotate(360 160.805 53.695)" fill="#DEE1FF"/>
<path d="M289.33,59.327L32.282,59.327L32.282,68.328L289.33,68.328L289.33,59.327Z" transform="rotate(360 160.805 63.828)" fill="#DEE1FF"/>
<path d="M289.33,69.46L32.282,69.46L32.282,78.461L289.33,78.461L289.33,69.46Z" transform="rotate(360 160.805 73.96)" fill="#DEE1FF"/>
<path d="M289.33,79.593L32.282,79.593L32.282,88.594L289.33,88.594L289.33,79.593Z" transform="rotate(360 160.805 84.093)" fill="#DEE1FF"/>
<path d="M289.33,89.71L32.282,89.71L32.282,98.711L289.33,98.711L289.33,89.71Z" transform="rotate(360 160.805 94.21)" fill="#DEE1FF"/>
<path d="M289.33,99.854L32.282,99.854L32.282,108.855L289.33,108.855L289.33,99.854Z" transform="rotate(360 160.805 104.355)" fill="#DEE1FF"/>
<path d="M289.33,109.987L32.282,109.987L32.282,118.988L289.33,118.988L289.33,109.987Z" transform="rotate(360 160.805 114.488)" fill="#DEE1FF"/>
<path d="M53.127,27.086L51.505,27.086L51.505,234.708L53.127,234.708L53.127,27.086Z" fill="#263238"/>
<path d="M49.437,242.239L55.179,242.239L53.736,233.996L50.88,233.996L49.437,242.239Z" fill="#263238"/>
<path d="M47.294,27.086L45.672,27.086L45.672,327.444L47.294,327.444L47.294,27.086Z" fill="#263238"/>
<path d="M43.619,333.515L49.347,333.515L47.919,325.258L45.047,325.258L43.619,333.515Z" fill="#263238"/>
<path d="M299.372,14.56L22.254,14.56L22.254,33.41L299.372,33.41L299.372,14.56Z" transform="rotate(360 160.813 23.985)" fill="#D9DCFF"/>
<path d="M563.531,351.293L408.755,351.293L408.755,565.491L563.531,565.491L563.531,351.293Z" fill="#D9DCFF"/>
<path d="M571.03,343.348L401.257,343.348L401.257,351.293L571.03,351.293L571.03,343.348Z" fill="#DEE1FF"/>
<path d="M624.426,343.348L571.029,343.348L571.029,351.293L624.426,351.293L624.426,343.348Z" fill="#D9DCFF"/>
<path d="M615.976,351.293L563.531,351.293L563.531,565.491L615.976,565.491L615.976,351.293Z" fill="#DEE1FF"/>
<path d="M546.853,450.425L425.419,450.425L425.419,381.793L546.853,381.793L546.853,450.425ZM425.791,450.053L546.481,450.053L546.481,382.165L425.791,382.165L425.791,450.053Z" fill="#8891EE"/>
<path d="M492.831,401.848L469.189,401.848L469.189,415.431L492.831,415.431L492.831,401.848Z" fill="#8891EE"/>
<path d="M500.002,414.598L475.989,414.598L475.989,402.695L500.002,402.695L500.002,414.598ZM476.361,414.226L499.586,414.226L499.586,403.097L476.361,403.097L476.361,414.226Z" fill="#8891EE"/>
<path d="M546.853,536.66L425.419,536.66L425.419,468.027L546.853,468.027L546.853,536.66ZM425.791,536.288L546.481,536.288L546.481,468.399L425.791,468.399L425.791,536.288Z" fill="#8891EE"/>
<path d="M492.831,488.082L469.189,488.082L469.189,501.666L492.831,501.666L492.831,488.082Z" fill="#8891EE"/>
<path d="M500.002,500.832L475.989,500.832L475.989,488.93L500.002,488.93L500.002,500.832ZM476.361,500.46L499.586,500.46L499.586,489.287L476.361,489.287L476.361,500.46Z" fill="#8891EE"/>
<path d="M327.001,639.998C469.047,639.998 584.197,633.683 584.197,625.893C584.197,618.104 469.047,611.789 327.001,611.789C184.955,611.789 69.805,618.104 69.805,625.893C69.805,633.683 184.955,639.998 327.001,639.998Z" fill="#DEE1FF"/>
<path d="M-0.584,564.96L81.305,564.602L163.208,564.469L327,564.23L490.792,564.469L572.68,564.602L654.584,564.96L572.68,565.331L490.792,565.465L327,565.703L163.208,565.465L81.305,565.331L-0.584,564.96Z" fill="#263238"/>
<path d="M559.409,454.575C559.409,454.575 589.493,447.761 605.977,432.57C622.462,417.38 631.672,390.168 631.672,390.168C620.24,392.379 608.972,395.362 597.943,399.095C595.25,401.966 590.117,407.903 587.737,413.512C587.454,410.082 587.424,406.635 587.648,403.201C583.805,404.85 580.205,407.018 576.95,409.643C563.277,421.605 559.409,454.575 559.409,454.575Z" fill="#C8FFD4"/>
<path d="M612.895,403.392C616.987,400.551 621.167,397.813 625.244,394.957C625.292,394.921 625.325,394.868 625.336,394.809C625.347,394.75 625.336,394.689 625.304,394.639C625.272,394.588 625.222,394.551 625.164,394.535C625.106,394.52 625.044,394.527 624.991,394.555C617.255,399.182 609.607,404.136 602.213,409.314C599.639,411.114 597.11,413.004 594.61,414.923C594.774,414.625 594.952,414.328 595.131,414.03C596.038,412.542 596.991,411.055 597.928,409.567C599.819,406.551 601.959,403.7 604.326,401.042C604.415,400.952 604.326,400.804 604.177,400.908C601.826,403.601 599.49,406.279 597.348,409.135C596.336,410.504 595.399,411.917 594.491,413.361C594.03,414.105 593.584,414.849 593.152,415.622L592.691,416.411C588.808,419.461 585.014,422.645 581.399,426.007C579.167,428.09 577.024,430.247 574.941,432.464C576.102,428.819 577.129,425.144 578.468,421.558C578.468,421.439 578.319,421.38 578.274,421.558C576.965,425.308 575.537,429.087 574.51,432.955C572.219,435.44 570.047,438.028 567.934,440.706C567.934,440.543 568.008,440.379 568.038,440.216C568.38,438.728 568.737,437.389 569.124,435.975C569.853,433.253 570.612,430.56 571.564,427.882C573.299,422.346 576.038,417.177 579.643,412.632C579.732,412.527 579.643,412.379 579.494,412.483C573.617,419.446 570.181,427.777 567.979,436.541C567.651,437.82 567.354,439.1 567.056,440.394C566.907,441.078 566.729,441.778 566.61,442.477C565.702,443.697 564.81,444.947 563.961,446.211C558.831,454.051 554.561,462.421 551.226,471.177C547.464,481.005 544.245,491.033 541.585,501.215C541.595,501.249 541.616,501.278 541.644,501.298C541.672,501.319 541.706,501.33 541.741,501.33C541.776,501.33 541.81,501.319 541.838,501.298C541.866,501.278 541.887,501.249 541.897,501.215C547.774,483.63 553.8,465.776 563.857,450.035C565.985,446.717 568.321,443.518 570.731,440.424C575.716,440.084 580.634,439.083 585.356,437.448C590.52,435.714 595.444,433.335 600.011,430.366C602.613,428.605 605.121,426.708 607.524,424.683C607.643,424.594 607.524,424.43 607.39,424.534C603.194,427.919 598.56,430.721 593.613,432.866C588.753,435.128 583.666,436.868 578.438,438.058C576.221,438.534 573.974,438.891 571.713,439.204C574.514,435.771 577.494,432.489 580.64,429.369C581.651,428.358 582.708,427.391 583.749,426.394C587.258,423.946 590.977,421.815 594.863,420.026C599.788,417.646 604.653,415.116 609.518,412.587C612.27,411.188 615.008,409.745 617.79,408.391C617.909,408.391 617.79,408.168 617.671,408.228C612.732,410.608 607.718,412.84 602.719,415.131C598.032,417.274 593.271,419.431 588.763,421.975L588.198,422.302C592.274,418.761 596.485,415.384 600.799,412.126C604.742,409.18 608.774,406.234 612.895,403.392Z" fill="#263238"/>
<path d="M611.169,418.897C608.715,419.968 606.23,420.921 603.805,422.051C601.38,423.182 598.955,424.581 596.589,425.979C596.485,425.979 596.589,426.187 596.693,426.143C599.089,424.997 601.514,423.911 603.894,422.721C606.275,421.531 608.729,420.192 611.229,419.091C611.363,419.046 611.303,418.853 611.169,418.897Z" fill="#263238"/>
<path d="M461.705,303.012C467.24,310.189 470.364,318.932 470.632,327.992C470.721,330.685 470.305,334.434 469.992,338.868C481.195,344.819 489.616,355.635 489.616,355.635C483.248,351.812 474.5,350.264 469.784,350.889C469.937,353.89 470.32,356.874 470.929,359.816C473.012,359.697 477.029,359.98 483.68,362.345C479.73,362.296 475.813,363.071 472.179,364.622C477.535,381.687 493.484,399.198 537.479,406.652C542.151,385.727 539.395,363.829 529.683,344.715C516.575,318.842 461.705,303.012 461.705,303.012Z" fill="#CBFFCA"/>
<path d="M552.789,479.688C552.03,472.398 551.063,465.137 549.947,457.892C547.695,443.394 544.716,429.019 541.02,414.82C539.3,408.157 537.179,401.603 534.667,395.196C534.788,394.025 534.843,392.847 534.831,391.67C534.831,390.257 534.831,388.843 534.831,387.445C534.831,384.618 534.667,381.806 534.414,378.994C533.979,373.428 533.078,367.909 531.721,362.494C530.918,359.37 529.981,356.275 529.058,353.181C529.064,353.165 529.067,353.148 529.065,353.131C529.063,353.114 529.057,353.098 529.048,353.083C529.038,353.069 529.025,353.058 529.01,353.05C528.995,353.042 528.978,353.038 528.961,353.038C528.944,353.038 528.928,353.042 528.913,353.05C528.898,353.058 528.885,353.069 528.875,353.083C528.866,353.098 528.86,353.114 528.858,353.131C528.856,353.148 528.858,353.165 528.865,353.181C530.327,358.589 531.41,364.092 532.108,369.65C532.902,375.124 533.399,380.637 533.596,386.165C533.596,387.653 533.685,389.141 533.685,390.628C533.685,391.268 533.685,391.908 533.685,392.563C531.517,387.304 529.033,382.182 526.246,377.223C521.783,369.353 516.751,361.82 511.19,354.683C511.176,353.853 511.056,353.028 510.833,352.228C510.624,351.246 510.401,350.264 510.193,349.253C509.732,347.244 509.226,345.236 508.705,343.301C507.604,339.314 506.161,335.461 504.911,331.518C504.911,331.399 504.688,331.444 504.718,331.518C505.878,335.416 506.652,339.448 507.545,343.421C507.991,345.384 508.422,347.348 508.854,349.372L509.479,352.347L509.479,352.571C507.693,350.319 505.873,348.107 504.019,345.935C495.627,336.086 486.403,326.995 477.134,317.964C475.988,316.848 474.828,315.777 473.667,314.676C473.578,314.587 473.444,314.676 473.533,314.825C482.46,324.079 491.119,333.423 499.377,343.212C501.34,345.533 503.275,347.899 505.179,350.279C504.182,349.595 503.17,348.94 502.203,348.286C499.644,346.619 497.056,344.983 494.378,343.48C491.699,341.977 489.021,340.504 486.284,339.165C483.546,337.826 480.437,336.636 477.714,335.044C477.595,335.044 477.491,335.178 477.61,335.223C480.388,336.522 483.073,338.014 485.644,339.686C488.322,341.278 491,342.885 493.634,344.551C496.267,346.218 498.811,347.81 501.385,349.476C503.528,350.86 505.64,352.377 507.857,353.671C512.959,360.223 517.664,367.074 521.946,374.188C524.613,378.667 527.046,383.28 529.237,388.01L527.66,387.326L523.628,385.54C521.039,384.38 518.435,383.264 515.846,382.133C510.907,379.991 505.893,378.012 501.058,375.661C498.329,374.377 495.689,372.911 493.157,371.272C493.053,371.198 492.949,371.376 493.053,371.451C502.084,377.67 512.201,382.059 522.185,386.477L526.514,388.397C527.704,388.917 528.895,389.513 530.115,389.974C533.069,396.585 535.555,403.396 537.554,410.357C541.513,424.396 544.731,438.634 547.194,453.012C549.724,467.384 551.42,481.846 552.744,496.381C552.908,498.196 553.071,499.997 553.28,501.812C553.302,501.948 553.371,502.072 553.476,502.161C553.581,502.25 553.715,502.299 553.852,502.299C553.99,502.299 554.124,502.25 554.229,502.161C554.333,502.072 554.403,501.948 554.425,501.812C554.321,494.417 553.562,487.023 552.789,479.688Z" fill="#263238"/>
<path d="M526.022,358.166C525.204,353.702 524.014,349.313 522.808,344.939C522.808,344.805 522.585,344.865 522.615,344.939C523.731,349.239 524.534,353.613 525.338,357.987C526.141,362.361 526.825,366.914 527.51,371.377C527.51,371.377 527.644,371.377 527.629,371.377C527.345,366.946 526.809,362.535 526.022,358.166L526.022,358.166Z" fill="#263238"/>
<path d="M507.023,370.365C503.961,368.354 500.764,366.554 497.457,364.979C495.85,364.161 494.228,363.372 492.606,362.584C490.985,361.795 489.185,361.096 487.518,360.263C487.506,360.251 487.492,360.243 487.476,360.239C487.461,360.234 487.445,360.233 487.429,360.236C487.413,360.239 487.398,360.245 487.385,360.255C487.372,360.265 487.361,360.277 487.354,360.292C487.347,360.306 487.343,360.322 487.343,360.339C487.343,360.355 487.347,360.371 487.354,360.385C487.361,360.4 487.372,360.412 487.385,360.422C487.398,360.432 487.413,360.438 487.429,360.441C489.036,361.245 490.553,362.226 492.145,363.089C493.737,363.952 495.389,364.875 497.025,365.753C500.239,367.478 503.408,369.398 506.785,370.796C506.84,370.812 506.899,370.808 506.952,370.786C507.004,370.764 507.048,370.725 507.076,370.675C507.103,370.625 507.113,370.567 507.104,370.511C507.094,370.454 507.066,370.403 507.023,370.365Z" fill="#263238"/>
<g opacity="0.1">
<path d="M559.96,402.471C559.96,402.471 587.797,395.836 600.577,377.179C612.777,359.325 616.72,328.944 617.032,326.281C616.526,328.736 610.783,355.293 591.844,367.672C577.338,377.134 563.322,384.93 559.96,402.471Z" fill="#263238"/>
</g>
<path d="M585.654,354.385C580.701,358.934 577.141,364.795 575.388,371.287C575.388,371.287 575.462,371.376 575.477,371.287C577.515,364.95 581.052,359.198 585.787,354.519C585.877,354.46 585.743,354.296 585.654,354.385Z" fill="#263238"/>
<path d="M559.959,402.47C559.959,402.47 587.795,395.834 600.576,377.177C612.776,359.323 616.718,328.943 617.031,326.279C617.037,326.215 617.037,326.15 617.031,326.086C617.031,326.086 603.641,345.055 589.655,349.891C575.67,354.726 555.942,371.464 559.959,402.47Z" fill="#B0FFAE"/>
<path d="M612.136,336.547C609.634,341.654 606.755,346.567 603.522,351.246C600.278,355.69 596.427,359.656 592.081,363.03C588.302,366.005 584.3,368.758 580.476,371.703L580.565,371.555C581.279,370.498 582.053,369.457 582.841,368.445C584.433,366.407 586.174,364.488 587.93,362.583C591.381,358.834 594.922,355.144 598.017,351.097C599.74,348.856 601.235,346.449 602.48,343.911C602.48,343.792 602.347,343.718 602.287,343.837C597.824,353.24 588.763,359.265 582.321,367.21C581.403,368.336 580.544,369.508 579.747,370.722C579.113,371.602 578.579,372.55 578.155,373.548C574.626,376.37 571.436,379.59 568.648,383.145C568.899,381.322 569.272,379.517 569.764,377.744C570.422,375.271 571.424,372.902 572.739,370.707C572.739,370.588 572.635,370.469 572.561,370.588C571.214,372.791 570.126,375.143 569.317,377.595C568.736,379.529 568.396,381.528 568.306,383.546L568.306,383.546C566.931,385.415 565.674,387.368 564.542,389.393L564.899,387.608C565.449,384.841 566.059,382.073 566.773,379.336C568.084,373.762 570.35,368.457 573.468,363.654C573.543,363.55 573.379,363.431 573.305,363.535C570.104,368.266 567.599,373.432 565.866,378.875C564.973,381.612 564.274,384.394 563.649,387.192C563.336,388.56 563.069,389.929 562.801,391.313C562.667,392.027 562.518,392.801 562.399,393.485C559.636,399.545 557.483,405.864 555.972,412.35C553.246,423.941 551.258,435.694 550.021,447.537C548.593,459.947 547.952,472.434 548.101,484.925C548.101,486.413 548.22,488.05 548.31,489.612C548.31,490.013 548.935,490.073 548.949,489.612C549.232,483.437 549.396,477.248 549.753,471.074C550.11,464.899 550.66,458.74 551.241,452.595C552.51,440.501 554.448,428.486 557.043,416.605C559.305,406.429 562.221,396.193 567.785,387.281C570.558,382.862 573.938,378.855 577.828,375.378C581.726,371.882 585.996,368.802 590.117,365.559C594.281,362.4 598.061,358.765 601.379,354.728C604.779,350.233 607.743,345.426 610.232,340.37C610.887,339.106 611.556,337.856 612.226,336.591C612.359,336.532 612.196,336.428 612.136,336.547Z" fill="#263238"/>
<path d="M607.331,340.607C605.502,344.354 603.43,347.977 601.127,351.453C601.127,351.527 601.201,351.617 601.261,351.527C603.646,348.087 605.741,344.454 607.524,340.666C607.584,340.607 607.376,340.503 607.331,340.607Z" fill="#263238"/>
<path d="M457.837,390.168C457.837,390.168 457.39,429.714 481.031,441.14C504.673,452.566 517.363,443.044 533.432,446.868C532.807,445.916 521.336,429.431 503.095,424.893C484.305,420.207 463.52,406.653 457.837,390.168Z" fill="#B0FFAE"/>
<g opacity="0.1">
<path d="M457.837,390.168C457.837,390.168 457.39,429.714 481.031,441.14C504.673,452.566 517.363,443.044 533.432,446.868C524.946,442.821 515.871,440.144 506.547,438.938C491.61,437.123 463.118,427.408 457.837,390.168Z" fill="#B0FFAE"/>
</g>
<path d="M534.994,447.564C532.172,445.013 529.007,442.87 525.591,441.197C525.085,440.958 524.55,440.765 524.103,440.542C523.851,440.23 523.583,439.932 523.3,439.634C522.598,438.893 521.858,438.187 521.083,437.522C519.602,436.236 518.009,435.086 516.322,434.085C512.409,431.779 508.11,430.172 504.107,428.03C503.988,428.03 503.884,428.149 504.003,428.208C505.982,429.235 507.901,430.38 509.835,431.496C511.77,432.612 513.614,433.639 515.444,434.814C517.088,435.872 518.654,437.045 520.131,438.325C520.548,438.682 520.934,439.084 521.336,439.486C518.722,438.604 516.053,437.894 513.347,437.358C509.017,436.48 504.643,435.87 500.313,434.948C498.199,434.487 496.108,433.921 494.05,433.252C492.086,431.675 490.122,430.098 488.262,428.387C486.01,426.328 483.962,424.056 482.147,421.602C482.073,421.498 481.894,421.602 481.984,421.721C484.848,425.6 488.093,429.184 491.669,432.418C490.658,432.032 489.646,431.615 488.694,431.169C480.578,427.517 473.613,421.72 468.549,414.401C468.474,414.282 468.296,414.401 468.37,414.505C472.687,420.797 478.259,426.126 484.736,430.157C487.966,432.176 491.421,433.809 495.032,435.022C499.222,436.311 503.498,437.305 507.827,437.998C512.073,438.69 516.264,439.684 520.369,440.973C524.141,442.25 527.687,444.118 530.873,446.508C536.839,451.21 541.636,457.229 544.888,464.094C549.351,473.021 551.494,483.108 552.684,493.017C552.684,493.433 553.383,493.433 553.354,493.017C552.253,476.413 547.804,459.11 534.994,447.564Z" fill="#263238"/>
<path d="M507.544,434.685C506.313,432.821 504.642,431.288 502.679,430.221C500.437,429.059 498.468,427.43 496.906,425.445C496.832,425.341 496.653,425.445 496.728,425.55C498.144,427.364 499.872,428.91 501.831,430.117C503.982,431.257 505.876,432.827 507.395,434.729C507.47,434.863 507.604,434.774 507.544,434.685Z" fill="#263238"/>
<path d="M520.102,476.758L521.173,498.509L524.476,564.955L574.079,564.955L577.382,498.509L578.453,476.758L520.102,476.758Z" fill="#37474F"/>
<path d="M520.102,476.758L521.173,498.509L577.382,498.509L578.453,476.758L520.102,476.758Z" fill="#263238"/>
<path d="M581.919,467.683L516.604,467.683L516.604,488.438L581.919,488.438L581.919,467.683Z" transform="rotate(360 549.262 478.06)" fill="#37474F"/>
<path d="M304.965,615.321C301.499,616.437 202.575,615.172 198.84,612.732C197.353,611.84 196.757,597.408 196.46,580.001L196.46,579.45C196.39,575.85 196.351,572.165 196.341,568.396C196.341,567.875 196.341,567.369 196.341,566.908L201.132,515.594L267.309,516.234L260.792,567.072L260.792,569.095L260.391,579.614L260.391,580.7C260.391,580.7 297.898,598.003 301.707,601.127C305.516,604.252 308.447,614.205 304.965,615.321Z" fill="#FFB573"/>
<path d="M304.965,615.319C301.499,616.435 202.575,615.17 198.84,612.73C197.353,611.838 196.757,597.406 196.46,579.999L196.46,579.448C196.39,575.848 196.351,572.163 196.341,568.394C196.341,567.873 196.341,567.367 196.341,566.906L260.792,567.07L260.792,569.093L260.391,579.612L260.391,580.698C260.391,580.698 297.898,598.001 301.707,601.126C305.516,604.25 308.447,614.203 304.965,615.319Z" fill="#DEE1FF"/>
<path d="M304.981,615.302C303.195,615.883 276.325,615.823 250.051,615.302C244.769,615.198 239.517,615.079 234.503,614.945C215.772,614.439 200.284,613.666 198.796,612.728C197.308,611.791 196.713,597.85 196.431,580.681C196.431,580.428 196.431,580.19 196.431,579.952C196.431,579.714 196.431,579.565 196.431,579.387L196.505,579.387L260.257,579.491L260.257,580.592C260.257,580.592 297.913,597.999 301.707,601.109C305.501,604.218 308.447,614.201 304.981,615.302Z" fill="#FF3874"/>
<path d="M303.894,611.466C287.231,610.841 219.938,609.904 203.408,610.559C203.274,610.559 203.274,610.663 203.408,610.663C219.923,611.645 287.216,612.031 303.894,611.734C304.251,611.734 304.251,611.481 303.894,611.466Z" fill="#263238"/>
<path d="M267.384,579.773C260.837,578.464 252.803,579.371 247.73,583.983C247.536,584.162 247.73,584.445 247.998,584.37C254.293,582.434 260.777,581.172 267.339,580.606C267.449,580.612 267.558,580.574 267.64,580.5C267.722,580.426 267.772,580.322 267.778,580.212C267.784,580.101 267.746,579.993 267.672,579.911C267.598,579.828 267.494,579.779 267.384,579.773Z" fill="#263238"/>
<path d="M272.086,582.691C265.539,581.382 257.505,582.289 252.432,586.901C252.238,587.08 252.432,587.363 252.7,587.288C258.995,585.352 265.479,584.09 272.041,583.524C272.152,583.53 272.26,583.492 272.342,583.418C272.425,583.344 272.474,583.24 272.48,583.13C272.486,583.019 272.448,582.911 272.374,582.829C272.3,582.746 272.196,582.697 272.086,582.691L272.086,582.691Z" fill="#263238"/>
<path d="M276.787,585.605C270.241,584.296 262.206,585.203 257.133,589.815C256.94,589.994 257.133,590.277 257.401,590.202C263.697,588.266 270.18,587.004 276.742,586.438C276.853,586.444 276.961,586.406 277.043,586.332C277.126,586.258 277.175,586.154 277.181,586.044C277.187,585.933 277.149,585.825 277.075,585.743C277.001,585.66 276.897,585.611 276.787,585.605L276.787,585.605Z" fill="#263238"/>
<path d="M250.051,615.302C244.769,615.198 239.517,615.079 234.503,614.945C215.772,614.439 200.284,613.666 198.796,612.728C197.308,611.791 196.713,597.85 196.431,580.681C196.431,580.428 196.431,580.19 196.431,579.952C196.431,579.714 196.431,579.565 196.431,579.387L196.505,579.387C205.268,585.516 236.051,606.004 250.051,615.302Z" fill="#D62F61"/>
<path d="M264.096,579.728L192.845,579.728C192.845,579.728 207.158,413.318 206.607,410.417C205.893,406.697 201.683,389.855 196.074,367.851C194.318,360.962 192.429,353.583 190.45,345.921C185.138,325.225 179.277,302.596 174.173,282.912C166.511,253.424 160.53,230.512 160.53,230.512L220.905,230.512C220.905,230.512 227.942,252.829 236.825,281.841C251.286,329.004 270.613,393.917 272.532,409.703C275.612,435.188 264.096,579.728 264.096,579.728Z" fill="#263238"/>
<path d="M260.942,567.579C250.051,567.355 253.191,567.266 242.3,567.162C236.974,567.162 201.98,566.805 197.011,567.638C196.988,567.647 196.969,567.662 196.955,567.682C196.941,567.702 196.934,567.725 196.934,567.75C196.934,567.774 196.941,567.798 196.955,567.818C196.969,567.838 196.988,567.853 197.011,567.861C201.98,568.68 236.974,568.367 242.3,568.322C253.191,568.203 250.066,568.114 260.942,567.891C260.975,567.881 261.004,567.86 261.025,567.832C261.046,567.804 261.057,567.77 261.057,567.735C261.057,567.7 261.046,567.666 261.025,567.638C261.004,567.61 260.975,567.589 260.942,567.579L260.942,567.579Z" fill="#263238"/>
<path d="M219.998,400.258C217.662,389.963 214.166,379.875 211.071,369.758C204.892,349.227 198.678,328.7 192.429,308.178C189.305,297.912 186.166,287.656 183.011,277.41C181.424,272.233 179.823,267.06 178.206,261.893C176.629,256.834 174.814,251.82 173.385,246.717C172.805,244.649 172.493,245.795 173.237,248.428C174.724,253.739 176.212,259.051 177.774,264.362C180.839,274.856 183.929,285.345 187.043,295.829C193.213,316.659 199.447,337.488 205.745,358.317C208.889,368.781 212.033,379.231 215.178,389.665C216.772,394.64 218.059,399.708 219.031,404.841C219.876,410.203 220.09,415.645 219.671,421.058C218.986,431.963 217.737,442.854 216.695,453.714C215.654,464.576 214.687,475.51 213.72,486.446C211.736,508.138 209.752,529.826 207.768,551.508C207.52,554.264 207.287,557.018 207.069,559.764C207.069,560.688 208.393,560.612 208.557,559.764C210.908,538.31 212.693,516.798 214.702,495.314C216.71,473.83 218.704,452.568 220.653,431.204C221.159,425.833 221.724,420.462 221.724,415.062C221.707,410.078 221.128,405.112 219.998,400.258L219.998,400.258Z" fill="#263238"/>
<path d="M214.046,230.512C209.866,262.946 201.891,323.752 196.074,367.866C182.446,314.424 160.53,230.512 160.53,230.512L214.046,230.512Z" fill="#263238"/>
<path d="M228.21,616.286C224.744,617.417 125.82,616.524 122.07,614.084C120.583,613.191 119.928,598.774 119.571,581.352L119.571,580.802C119.482,577.201 119.422,573.497 119.407,569.747C119.407,569.227 119.407,568.721 119.407,568.26C119.169,543.071 120.984,516.945 120.984,516.945L185.644,517.347L183.859,568.185L183.784,570.209L183.427,580.727L183.427,581.814C183.427,581.814 221.128,599.087 224.967,602.196C228.805,605.306 231.677,615.17 228.21,616.286Z" fill="#FFB573"/>
<path d="M228.21,616.284C224.744,617.415 125.82,616.522 122.07,614.082C120.583,613.19 119.928,598.773 119.571,581.351L119.571,580.8C119.482,577.2 119.422,573.495 119.407,569.746C119.407,569.225 119.407,568.719 119.407,568.258L183.859,568.184L183.784,570.207L183.427,580.726L183.427,581.812C183.427,581.812 221.128,599.085 224.967,602.195C228.805,605.304 231.677,615.168 228.21,616.284Z" fill="#DEE1FF"/>
<path d="M228.21,616.286C224.743,617.417 125.819,616.524 122.07,614.084C120.582,613.191 119.927,598.774 119.57,581.352L119.57,580.802L183.397,580.668L183.397,581.754C183.397,581.754 221.098,599.027 224.936,602.137C228.775,605.246 231.676,615.17 228.21,616.286Z" fill="#FF3874"/>
<path d="M227.123,612.433C210.46,611.882 143.152,611.183 126.637,611.897C126.503,611.897 126.489,612.001 126.637,612.001C143.137,612.924 210.445,613.072 227.123,612.715C227.48,612.701 227.48,612.448 227.123,612.433Z" fill="#263238"/>
<path d="M190.495,580.891C183.948,579.597 175.914,580.534 170.856,585.161C170.662,585.34 170.856,585.622 171.123,585.563C177.414,583.59 183.898,582.298 190.465,581.709C190.561,581.695 190.649,581.647 190.714,581.575C190.778,581.502 190.816,581.41 190.819,581.313C190.823,581.216 190.792,581.12 190.733,581.043C190.674,580.966 190.589,580.913 190.495,580.891L190.495,580.891Z" fill="#263238"/>
<path d="M195.21,583.777C188.664,582.497 180.615,583.434 175.571,588.062C175.363,588.24 175.571,588.523 175.839,588.448C182.132,586.487 188.615,585.2 195.18,584.61C195.291,584.614 195.398,584.574 195.479,584.498C195.56,584.423 195.608,584.319 195.612,584.208C195.616,584.098 195.576,583.99 195.5,583.909C195.425,583.828 195.321,583.781 195.21,583.777L195.21,583.777Z" fill="#263238"/>
<path d="M199.927,586.679C193.366,585.4 185.332,586.337 180.273,590.964C180.08,591.142 180.273,591.41 180.556,591.351C186.846,589.38 193.331,588.093 199.897,587.512C200.008,587.516 200.115,587.476 200.196,587.401C200.277,587.325 200.325,587.221 200.329,587.11C200.333,587 200.293,586.892 200.217,586.812C200.142,586.731 200.038,586.683 199.927,586.679Z" fill="#263238"/>
<path d="M218.956,230.514C218.956,230.514 217.572,259.407 210.967,282.289C210.431,284.179 209.851,286.038 209.241,287.824C203.178,290.263 197.352,293.251 191.833,296.751C191.833,296.751 191.149,319.99 190.45,345.848C189.691,374.83 188.888,407.16 189.066,414.004C189.676,439.655 185.897,580.639 185.897,580.639L114.661,580.935C114.661,580.935 127.501,423.437 127.412,414.034C127.278,398.933 130.848,332.205 133.601,283.509C135.297,253.515 136.681,230.395 136.681,230.395L218.956,230.514Z" fill="#263238"/>
<path d="M183.443,568.109C172.567,567.93 175.691,567.841 164.815,567.781C159.489,567.781 124.481,567.603 119.512,568.451C119.408,568.451 119.408,568.659 119.512,568.674C124.496,569.477 159.489,569.016 164.815,568.942C175.691,568.778 172.567,568.704 183.443,568.436C183.486,568.436 183.528,568.419 183.558,568.388C183.589,568.357 183.606,568.316 183.606,568.272C183.606,568.229 183.589,568.187 183.558,568.157C183.528,568.126 183.486,568.109 183.443,568.109Z" fill="#263238"/>
<path d="M142.661,240.928C141.367,280.667 139.983,320.421 138.198,360.13C136.412,399.84 134.032,439.846 130.759,479.601C128.899,501.813 127.158,533.071 124.808,555.225C124.808,555.373 125.016,555.433 125.046,555.225C130.223,515.799 133.095,467.059 135.639,427.379C138.183,387.699 139.894,347.99 141.248,308.265C142.007,285.8 142.587,263.319 143.256,240.838C143.167,240.511 142.676,240.541 142.661,240.928Z" fill="#263238"/>
<path d="M212.201,286.114C205.115,289.071 198.3,292.64 191.833,296.782C191.786,296.815 191.752,296.865 191.739,296.921C191.725,296.978 191.733,297.038 191.761,297.089C191.788,297.14 191.833,297.179 191.888,297.2C191.942,297.22 192.002,297.219 192.057,297.198C198.915,293.851 205.938,290.637 212.618,286.932C212.715,286.871 212.785,286.775 212.815,286.665C212.846,286.554 212.834,286.436 212.782,286.334C212.73,286.232 212.641,286.153 212.534,286.112C212.427,286.071 212.308,286.072 212.201,286.114L212.201,286.114Z" fill="#263238"/>
<path d="M212.588,261.594C212.127,264.123 211.502,266.638 210.966,269.152C210.431,271.666 210.074,273.928 209.479,276.249C208.969,278.508 207.823,280.573 206.176,282.2C205.238,283.063 204.227,283.822 203.2,284.61C202.679,285.027 202.099,285.444 201.549,285.875C201.549,285.533 201.683,285.191 201.742,284.848L202.233,281.977C202.59,279.834 202.932,277.707 203.26,275.565C203.899,271.369 204.48,267.114 205.357,262.963C205.357,262.784 205.134,262.725 205.105,262.963C204.048,267.084 202.903,271.175 201.98,275.326C201.534,277.365 199.942,287.422 199.882,288.136C199.823,288.851 199.748,289.624 199.719,290.353C199.615,291.103 199.615,291.864 199.719,292.615C199.719,292.793 199.986,292.763 200.061,292.615C200.359,291.913 200.574,291.179 200.701,290.428C200.879,289.714 201.043,288.94 201.162,288.255C201.162,287.988 201.251,287.72 201.296,287.452C202.278,286.842 203.2,286.054 204.123,285.384C205.045,284.714 206.146,283.896 207.098,283.152C208.847,281.683 210.108,279.716 210.714,277.514C211.324,275.143 211.723,272.724 211.904,270.283C212.216,267.411 212.454,264.54 212.856,261.698C212.871,261.49 212.618,261.43 212.588,261.594Z" fill="#263238"/>
<path d="M194.228,154.98C198.186,166.005 212.082,190.687 233.432,210.148C241.689,217.661 303.121,212.722 309.206,210.356C313.461,208.69 321.406,177.729 316.927,174.932C308.536,169.68 253.622,181.79 251.286,180.556C247.715,178.651 224.059,162.806 208.839,147.824C197.725,136.784 187.682,136.665 194.228,154.98Z" fill="#FFB573"/>
<path d="M210.029,187.534L244.873,173.697C244.873,173.697 213.63,146.813 202.174,141.501C189.304,135.55 189.066,143.406 193.589,156.097C198.112,168.788 210.029,187.534 210.029,187.534Z" fill="#01008A"/>
<g opacity="0.1">
<path d="M210.029,187.534L244.873,173.697C244.873,173.697 213.63,146.813 202.174,141.501C189.304,135.55 189.066,143.406 193.589,156.097C198.112,168.788 210.029,187.534 210.029,187.534Z" fill="#000000"/>
</g>
<path d="M237.509,169.512C236.23,169.794 225.309,173.975 222.944,174.898C220.578,175.82 210.922,179.644 208.572,180.849C208.548,180.849 208.525,180.858 208.509,180.875C208.492,180.892 208.482,180.914 208.482,180.938C208.482,180.962 208.492,180.984 208.509,181.001C208.525,181.018 208.548,181.027 208.572,181.027C211.101,180.298 220.861,176.564 223.271,175.582C225.681,174.6 236.423,170.315 237.539,169.631C237.733,169.512 237.599,169.512 237.509,169.512Z" fill="#263238"/>
<path d="M223.464,182.189L210.074,187.53C210.074,187.53 198.172,168.799 193.708,156.108C190.405,146.824 189.646,140.099 194.497,139.504L223.464,182.189Z" fill="#0A0A5A"/>
<path d="M128.721,261.966C128.944,262.219 227.496,262.858 228.403,261.862C229.668,260.374 207.783,153.594 197.71,140.368C195.568,137.541 181.969,133.688 174.084,140.115C157.331,153.758 142.84,200.594 139.418,214.728C133.824,237.953 127.902,261.043 128.721,261.966Z" fill="#01008A"/>
<g opacity="0.4">
<path d="M198.261,141.244L172.819,141.244C173.236,140.858 173.653,140.501 174.069,140.158C174.322,139.952 174.585,139.758 174.858,139.578L196.773,139.578C197.119,139.81 197.43,140.091 197.695,140.411C197.901,140.677 198.09,140.955 198.261,141.244Z" fill="#C9C9FF"/>
</g>
<g opacity="0.4">
<path d="M200.642,145.99L168.431,145.99C168.892,145.41 169.353,144.844 169.829,144.309L199.912,144.309C200.151,144.829 200.389,145.395 200.642,145.99Z" fill="#C9C9FF"/>
</g>
<g opacity="0.4">
<path d="M202.486,150.783L164.979,150.783C165.365,150.203 165.737,149.652 166.124,149.102L201.831,149.102L202.486,150.783Z" fill="#C9C9FF"/>
</g>
<g opacity="0.4">
<path d="M204.108,155.556L162.048,155.556C162.375,154.991 162.702,154.425 163.045,153.875L203.513,153.875C203.751,154.425 203.929,154.991 204.108,155.556Z" fill="#C9C9FF"/>
</g>
<g opacity="0.4">
<path d="M205.626,160.349L159.504,160.349C159.801,159.784 160.084,159.218 160.397,158.668L205.179,158.668C205.269,159.218 205.447,159.784 205.626,160.349Z" fill="#C9C9FF"/>
</g>
<g opacity="0.4">
<path d="M207.038,165.142L157.033,165.142C157.301,164.577 157.569,164.011 157.851,163.461L206.488,163.461L207.038,165.142Z" fill="#C9C9FF"/>
</g>
<g opacity="0.4">
<path d="M208.393,169.916L154.832,169.916L155.591,168.234L207.976,168.234C208.08,168.785 208.229,169.35 208.393,169.916Z" fill="#C9C9FF"/>
</g>
<g opacity="0.4">
<path d="M209.687,174.709L152.764,174.709L153.478,173.027L209.241,173.027L209.687,174.709Z" fill="#C9C9FF"/>
</g>
<g opacity="0.4">
<path d="M210.952,179.498L150.83,179.498C151.038,178.932 151.262,178.382 151.5,177.816L210.521,177.816C210.654,178.441 210.803,178.932 210.952,179.498Z" fill="#C9C9FF"/>
</g>
<g opacity="0.4">
<path d="M212.171,184.275L148.984,184.275C149.193,183.71 149.401,183.159 149.624,182.594L211.755,182.594C211.889,183.159 212.037,183.71 212.171,184.275Z" fill="#C9C9FF"/>
</g>
<g opacity="0.4">
<path d="M213.377,189.064L147.244,189.064C147.438,188.499 147.646,187.948 147.854,187.383L212.96,187.383C213.094,187.948 213.228,188.499 213.377,189.064Z" fill="#C9C9FF"/>
</g>
<g opacity="0.4">
<path d="M214.537,193.838L145.593,193.838C145.771,193.288 145.965,192.722 146.173,192.172L214.136,192.172L214.537,193.838Z" fill="#C9C9FF"/>
</g>
<g opacity="0.4">
<path d="M215.683,198.63L144.001,198.63L144.537,196.949L215.267,196.949L215.683,198.63Z" fill="#C9C9FF"/>
</g>
<g opacity="0.4">
<path d="M216.798,203.419L142.513,203.419C142.676,202.869 142.84,202.304 143.019,201.738L216.412,201.738C216.546,202.244 216.679,202.869 216.798,203.419Z" fill="#C9C9FF"/>
</g>
<g opacity="0.4">
<path d="M217.914,208.198L141.129,208.198L141.605,206.531L217.483,206.531C217.647,207.097 217.78,207.647 217.914,208.198Z" fill="#C9C9FF"/>
</g>
<g opacity="0.4">
<path d="M218.986,212.99L139.835,212.99C139.969,212.469 140.118,211.904 140.266,211.309L218.614,211.309C218.733,211.874 218.867,212.424 218.986,212.99Z" fill="#C9C9FF"/>
</g>
<g opacity="0.4">
<path d="M220.057,217.779L138.675,217.779L139.077,216.098L219.686,216.098C219.879,216.663 219.879,217.228 220.057,217.779Z" fill="#C9C9FF"/>
</g>
<g opacity="0.4">
<path d="M221.098,222.553L137.514,222.553L137.915,220.887L220.741,220.887L221.098,222.553Z" fill="#C9C9FF"/>
</g>
<g opacity="0.4">
<path d="M222.11,227.345L136.354,227.345L136.755,225.664L221.753,225.664C221.887,226.229 222.006,226.78 222.11,227.345Z" fill="#C9C9FF"/>
</g>
<g opacity="0.4">
<path d="M223.121,232.134L135.192,232.134L135.594,230.453L222.854,230.453C222.854,231.018 223.017,231.584 223.121,232.134Z" fill="#C9C9FF"/>
</g>
<g opacity="0.4">
<path d="M224.104,236.912L134.032,236.912L134.434,235.23L223.702,235.23C223.881,235.796 224,236.361 224.104,236.912Z" fill="#C9C9FF"/>
</g>
<g opacity="0.4">
<path d="M225.071,241.701L132.827,241.701C132.976,241.15 133.11,240.585 133.244,240.02L224.699,240.02C224.848,240.585 224.967,241.15 225.071,241.701Z" fill="#C9C9FF"/>
</g>
<g opacity="0.4">
<path d="M226.009,246.494L131.727,246.494C131.86,245.943 131.979,245.393 132.128,244.813L225.681,244.813C225.83,245.393 225.904,245.943 226.009,246.494Z" fill="#C9C9FF"/>
</g>
<g opacity="0.4">
<path d="M226.901,251.345L130.61,251.345C130.729,250.795 130.863,250.244 130.997,249.664L226.588,249.664C226.693,250.17 226.797,250.72 226.901,251.345Z" fill="#C9C9FF"/>
</g>
<g opacity="0.4">
<path d="M227.734,256.06L129.539,256.06C129.643,255.539 129.762,254.974 129.911,254.379L227.436,254.379C227.555,254.974 227.645,255.525 227.734,256.06Z" fill="#C9C9FF"/>
</g>
<g opacity="0.4">
<path d="M228.418,260.853L128.735,260.853C128.735,260.407 128.869,259.841 128.988,259.172L228.21,259.172C228.314,259.856 228.373,260.422 228.418,260.853Z" fill="#C9C9FF"/>
</g>
<path d="M193.396,154.636C190.004,155.141 180.006,148.937 176.271,142.242C176.018,141.781 177.759,123.258 177.67,119.553C177.67,118.795 200.969,124.924 200.969,124.924C199.701,129.573 199.007,134.36 198.901,139.177C198.914,139.678 198.974,140.176 199.079,140.665C199.079,140.74 199.079,140.814 199.079,140.918C199.615,143.894 198.365,153.951 193.396,154.636Z" fill="#FFB573"/>
<path d="M179.172,119.719C180.109,125.328 183.873,141.024 196.728,141.173C197.525,141.182 198.321,141.127 199.108,141.009L199.108,140.756C199.015,140.265 198.961,139.768 198.945,139.268C199.051,134.451 199.745,129.664 201.013,125.015C201.013,125.015 184.335,120.611 179.172,119.719Z" fill="#CC915C"/>
<path d="M179.931,88.308C175.765,95.837 175.096,120.028 179.738,126.426C186.448,135.71 199.912,139.31 208.422,130.681C216.665,122.305 216.977,90.763 211.576,84.693C203.617,75.781 186.09,77.165 179.931,88.308Z" fill="#FFB573"/>
<path d="M199.675,107.547C199.675,107.547 199.556,107.621 199.556,107.696C199.556,109.317 199.273,111.192 197.785,111.683L197.785,111.772C199.6,111.579 199.942,109.094 199.675,107.547Z" fill="#263238"/>
<path d="M198.276,105.808C195.672,105.525 195.3,110.762 197.711,111.03C200.121,111.298 200.537,106.046 198.276,105.808Z" fill="#263238"/>
<path d="M208.646,108.082C208.646,108.082 208.765,108.156 208.765,108.231C208.586,109.853 208.675,111.742 210.104,112.382C210.104,112.382 210.104,112.486 210.104,112.471C208.303,112.084 208.229,109.585 208.646,108.082Z" fill="#263238"/>
<path d="M210.223,106.492C212.841,106.492 212.678,111.729 210.223,111.744C207.768,111.759 207.976,106.492 210.223,106.492Z" fill="#263238"/>
<path d="M196.073,104.051C196.778,103.905 197.474,103.716 198.156,103.486C198.914,103.385 199.619,103.041 200.165,102.504C200.303,102.301 200.37,102.057 200.353,101.812C200.337,101.566 200.239,101.334 200.075,101.15C199.703,100.829 199.251,100.613 198.767,100.527C198.282,100.441 197.784,100.486 197.323,100.659C196.336,100.869 195.462,101.436 194.868,102.251C194.748,102.446 194.686,102.67 194.691,102.899C194.695,103.127 194.765,103.349 194.892,103.539C195.019,103.729 195.198,103.878 195.407,103.969C195.617,104.06 195.848,104.088 196.073,104.051Z" fill="#263238"/>
<path d="M212.439,102.831C211.748,102.64 211.067,102.412 210.401,102.146C209.645,101.999 208.957,101.613 208.437,101.045C208.316,100.832 208.266,100.585 208.295,100.341C208.325,100.097 208.432,99.87 208.601,99.691C208.994,99.395 209.459,99.209 209.948,99.152C210.436,99.094 210.932,99.168 211.383,99.364C212.351,99.633 213.186,100.247 213.734,101.09C213.852,101.289 213.909,101.519 213.897,101.751C213.885,101.982 213.805,102.205 213.666,102.391C213.528,102.577 213.337,102.718 213.119,102.797C212.901,102.875 212.664,102.886 212.439,102.831L212.439,102.831Z" fill="#263238"/>
<path d="M203.512,119.644C202.765,120.488 201.811,121.124 200.745,121.489C200.16,121.682 199.529,121.682 198.945,121.489C197.665,121.058 197.725,119.867 198.037,118.871C198.207,118.35 198.436,117.85 198.722,117.383C200.038,118.626 201.716,119.418 203.512,119.644L203.512,119.644Z" fill="#263238"/>
<path d="M200.761,121.49C200.176,121.683 199.545,121.683 198.96,121.49C197.681,121.058 197.74,119.868 198.053,118.871C198.737,118.928 199.38,119.22 199.874,119.697C200.367,120.175 200.681,120.808 200.761,121.49Z" fill="#FF9CBD"/>
<path d="M177.089,110.36C181.552,109.779 185.837,95.824 185.837,95.824C185.837,95.824 184.885,101.879 186.046,101.894C187.206,101.909 193.098,94.455 194.496,88.504C197.519,91.223 200.885,93.534 204.509,95.377C209.657,97.803 215.683,98.353 215.831,97.416C216.233,94.678 214.82,87.18 211.472,84.026C209.069,81.575 206.063,79.802 202.756,78.885C199.448,77.968 195.958,77.94 192.637,78.803C183.323,80.871 180.169,86.242 178.205,90.378C176.241,94.515 175.452,110.568 177.089,110.36Z" fill="#263238"/>
<path d="M195.241,116.205C193.903,115.999 192.651,115.421 191.627,114.537C190.603,113.652 189.849,112.497 189.452,111.204C189.054,109.91 189.029,108.531 189.379,107.224C189.729,105.917 190.44,104.736 191.431,103.814C192.422,102.893 193.652,102.269 194.981,102.015C196.31,101.761 197.684,101.886 198.945,102.376C200.206,102.867 201.303,103.703 202.111,104.788C202.919,105.873 203.405,107.164 203.513,108.513C203.608,109.605 203.452,110.704 203.059,111.726C202.666,112.749 202.045,113.669 201.244,114.416C200.442,115.163 199.481,115.718 198.433,116.038C197.385,116.358 196.278,116.436 195.196,116.265L195.241,116.205ZM197.398,102.934C196.903,102.879 196.405,102.879 195.91,102.934C194.329,103.123 192.879,103.91 191.858,105.132C190.837,106.355 190.321,107.921 190.416,109.511C190.511,111.101 191.21,112.594 192.369,113.687C193.529,114.779 195.061,115.387 196.654,115.387C198.247,115.387 199.779,114.779 200.939,113.687C202.098,112.594 202.797,111.101 202.892,109.511C202.987,107.921 202.471,106.355 201.45,105.132C200.429,103.91 198.979,103.123 197.398,102.934L197.398,102.934Z" fill="#FF3874"/>
<path d="M211.755,116.849C209.032,116.402 207.009,113.219 207.172,109.41C207.226,107.611 207.84,105.874 208.928,104.441C209.353,103.794 209.938,103.27 210.627,102.918C211.316,102.566 212.084,102.4 212.856,102.434C213.629,102.469 214.379,102.703 215.034,103.115C215.688,103.527 216.225,104.101 216.59,104.783C217.545,106.301 217.998,108.081 217.885,109.871C217.721,113.843 215.177,116.968 212.216,116.834C212.063,116.854 211.909,116.859 211.755,116.849L211.755,116.849ZM213.243,103.459L212.886,103.459C212.269,103.456 211.66,103.603 211.113,103.888C210.566,104.173 210.097,104.588 209.746,105.095C208.794,106.39 208.274,107.952 208.258,109.559C208.11,112.995 209.955,115.867 212.38,115.971C214.805,116.075 216.843,113.382 217.051,110.02C217.143,108.449 216.743,106.889 215.906,105.556C215.631,105.032 215.243,104.575 214.769,104.22C214.296,103.865 213.749,103.62 213.168,103.503L213.243,103.459Z" fill="#FF3874"/>
<path d="M203.289,109.288L202.694,108.514C203.825,107.651 206.414,106.535 208.08,108.514L207.351,109.139C205.848,107.354 203.394,109.199 203.289,109.288Z" fill="#FF3874"/>
<path d="M172.567,110.005L171.733,109.529C171.957,109.142 173.98,105.72 176.197,105.467C178.414,105.214 189.587,106.672 190.197,106.761L190.063,107.714C185.509,107.024 180.919,106.592 176.316,106.419C174.828,106.627 173.102,109.112 172.567,110.005Z" fill="#FF3874"/>
<path d="M180.898,108.335C180.898,108.335 177.059,99.766 173.265,101.001C169.471,102.235 171.361,113.944 175.095,116.206C175.555,116.54 176.078,116.776 176.633,116.899C177.187,117.023 177.761,117.031 178.319,116.923C178.877,116.816 179.407,116.595 179.876,116.275C180.345,115.954 180.743,115.541 181.046,115.06L180.898,108.335Z" fill="#FFB573"/>
<path d="M173.891,104.336L173.891,104.44C176.494,106.121 177.476,109.037 178.012,111.879C177.901,111.564 177.724,111.277 177.492,111.038C177.26,110.798 176.978,110.612 176.667,110.492C176.356,110.371 176.022,110.32 175.689,110.341C175.356,110.363 175.032,110.456 174.739,110.614C174.723,110.624 174.711,110.637 174.702,110.652C174.693,110.668 174.688,110.686 174.688,110.704C174.688,110.722 174.693,110.739 174.702,110.755C174.711,110.771 174.723,110.784 174.739,110.793C175.264,110.726 175.798,110.825 176.264,111.075C176.731,111.326 177.108,111.716 177.342,112.192C177.735,112.989 178.039,113.827 178.25,114.691C178.339,114.974 178.815,114.914 178.771,114.691C179.515,111.016 177.685,105.437 173.891,104.336Z" fill="#CC915C"/>
<path d="M204.137,79.145C201.353,77.313 198.316,75.899 195.121,74.95C191.535,73.953 179.886,73.149 176.791,75.054C173.697,76.958 171.376,87.7 171.063,89.277C170.751,90.854 170.067,100.555 173.191,103.381C176.315,106.208 179.053,89.991 185.331,85.349C191.61,80.707 204.137,79.145 204.137,79.145Z" fill="#FF3874"/>
<path d="M204.138,79.145C204.138,79.145 191.61,80.752 185.332,85.349C179.053,89.947 176.331,106.179 173.191,103.382C171.808,102.132 171.287,100.51 171.034,97.877C172.522,93.22 175.498,86.108 180.184,81.511C184.648,77.256 191.372,75.783 198.32,76.006C200.344,76.887 202.29,77.937 204.138,79.145L204.138,79.145Z" fill="#D62F61"/>
<path d="M172.729,113.2C173.682,108.9 179.796,97.92 185.405,91.924C191.014,85.928 205.208,84.054 207.098,84.485C211.68,85.422 213.049,87.059 213.837,86.747C214.626,86.434 210.371,82.283 209.195,81.301C208.02,80.319 204.732,77.983 202.753,77.73C200.774,77.478 188.173,76.897 182.891,81.524C177.609,86.151 169.069,100.033 169.679,103.99C169.828,104.942 170.944,105.701 171.167,107.055C171.435,108.825 171.495,110.834 171.837,112.084C172.075,113.066 172.64,113.571 172.729,113.2Z" fill="#FF3874"/>
<path d="M173.325,108.857C173.251,108.514 173.087,108.217 172.983,107.889C172.855,107.524 172.77,107.144 172.73,106.759C172.748,106.025 172.683,105.291 172.537,104.572C172.332,104.011 172.062,103.477 171.733,102.98C171.325,102.436 171.115,101.77 171.138,101.09C171.138,101.001 171.004,100.971 170.989,101.09C171.003,102.348 171.336,103.582 171.956,104.676C172.128,105.449 172.233,106.235 172.269,107.027C172.338,107.764 172.647,108.459 173.147,109.005C173.169,109.014 173.193,109.016 173.216,109.012C173.239,109.008 173.261,108.998 173.279,108.983C173.297,108.968 173.311,108.948 173.319,108.926C173.327,108.904 173.329,108.88 173.325,108.857L173.325,108.857Z" fill="#FFB6CC"/>
<path d="M175.512,104.379C174.748,103.346 174.169,102.189 173.801,100.957C173.608,100.377 173.474,99.767 173.295,99.172C173.117,98.577 172.774,97.788 172.596,97.074L172.462,97.074C172.64,97.818 172.7,98.562 172.864,99.336C173.014,99.976 173.202,100.607 173.429,101.225C173.642,101.82 173.911,102.393 174.232,102.936C174.535,103.509 174.95,104.015 175.452,104.424L175.512,104.379Z" fill="#FFB6CC"/>
<path d="M177.714,100.36C176.914,99.47 176.247,98.467 175.736,97.384C175.245,96.313 174.828,95.212 174.411,94.111C174.411,94.037 174.248,94.111 174.263,94.111C174.461,95.324 174.806,96.508 175.289,97.637C175.537,98.165 175.841,98.664 176.197,99.125C176.611,99.614 177.08,100.053 177.595,100.434C177.595,100.434 177.774,100.434 177.714,100.36Z" fill="#FFB6CC"/>
<path d="M180.021,96.61C179.614,96.228 179.282,95.774 179.039,95.271C178.741,94.736 178.443,94.185 178.176,93.62C177.908,93.055 177.625,92.564 177.372,92.028C177.072,91.502 176.884,90.919 176.822,90.317C176.822,90.317 176.688,90.228 176.673,90.317C176.637,90.918 176.723,91.52 176.926,92.088C177.117,92.724 177.366,93.341 177.67,93.932C177.959,94.514 178.287,95.076 178.652,95.614C178.941,96.123 179.384,96.529 179.916,96.774C180.021,96.759 180.125,96.61 180.021,96.61Z" fill="#FFB6CC"/>
<path d="M182.014,91.567C181.671,91.121 181.329,90.659 181.032,90.183C180.734,89.707 180.437,89.216 180.154,88.695C179.871,88.175 179.574,87.669 179.306,87.208C179.306,87.118 179.157,87.208 179.172,87.208C179.321,87.787 179.515,88.354 179.752,88.904C179.997,89.417 180.276,89.914 180.585,90.392C180.889,90.909 181.227,91.406 181.597,91.879C181.942,92.354 182.371,92.762 182.862,93.084C182.951,93.084 183.04,93.084 183.01,92.951C182.724,92.458 182.391,91.994 182.014,91.567L182.014,91.567Z" fill="#FFB6CC"/>
<path d="M190.599,87.117C190.269,86.518 189.906,85.937 189.513,85.377C189.095,84.809 188.648,84.262 188.174,83.74C187.28,82.718 186.282,81.79 185.198,80.973C185.124,80.973 185.02,80.973 185.079,81.077C186.879,83.13 188.769,85.124 190.539,87.192L190.599,87.117Z" fill="#FFB6CC"/>
<path d="M193.768,83.787C193.415,83.196 192.99,82.652 192.503,82.165C191.466,81.165 190.318,80.287 189.081,79.547C189.007,79.547 188.917,79.547 188.992,79.666C190.004,80.573 191.045,81.481 191.967,82.448C192.445,82.919 192.897,83.416 193.321,83.936C193.753,84.457 194.05,85.067 194.437,85.617L194.541,85.617C194.407,84.962 194.144,84.34 193.768,83.787L193.768,83.787Z" fill="#FFB6CC"/>
<path d="M197.636,82.611C197.311,82.042 196.927,81.509 196.491,81.019C195.654,80.112 194.674,79.348 193.589,78.758C193.515,78.758 193.441,78.758 193.5,78.877C194.472,79.665 195.368,80.542 196.178,81.495C196.595,81.971 196.967,82.462 197.368,82.983C197.77,83.504 198.053,84.054 198.484,84.471C198.265,83.824 197.981,83.201 197.636,82.611L197.636,82.611Z" fill="#FFB6CC"/>
<path d="M200.537,80.824C200.135,80.393 199.719,79.976 199.287,79.559C198.883,79.134 198.417,78.773 197.903,78.488C197.829,78.488 197.769,78.488 197.829,78.607C198.618,79.455 199.317,80.303 200.15,81.151C200.796,81.992 201.359,82.894 201.831,83.844L201.92,83.844C201.771,82.722 201.289,81.67 200.537,80.824L200.537,80.824Z" fill="#FFB6CC"/>
<path d="M203.929,80.603C203.202,79.697 202.308,78.939 201.296,78.371C201.296,78.371 201.147,78.445 201.296,78.49C202.191,79.165 202.983,79.967 203.646,80.871C204.316,81.762 204.885,82.725 205.342,83.742C205.342,83.742 205.447,83.742 205.447,83.742C205.197,82.59 204.676,81.514 203.929,80.603L203.929,80.603Z" fill="#FFB6CC"/>
<path d="M207.976,83.222C207.9,82.979 207.811,82.74 207.709,82.507C207.482,82.043 207.213,81.599 206.905,81.183C206.25,80.362 205.517,79.604 204.718,78.922C204.718,78.922 204.554,78.922 204.629,79.041C205.395,79.718 206.075,80.488 206.652,81.332C206.937,81.739 207.19,82.167 207.411,82.612C207.515,82.835 207.619,83.058 207.709,83.281C207.78,83.511 207.869,83.735 207.976,83.951L208.11,83.951C208.106,83.702 208.061,83.456 207.976,83.222L207.976,83.222Z" fill="#FFB6CC"/>
<path d="M210.49,83.788C210.296,83.414 210.083,83.052 209.85,82.701C209.607,82.354 209.344,82.021 209.061,81.705C208.779,81.377 208.481,81.065 208.198,80.723C208.198,80.723 208.02,80.723 208.094,80.827C208.386,81.151 208.65,81.499 208.883,81.868L209.567,82.895L210.237,83.921C210.475,84.278 210.653,84.665 210.921,84.993L211.025,84.993C210.894,84.572 210.714,84.167 210.49,83.788Z" fill="#FFB6CC"/>
<path d="M164.502,151.261C151.291,173.577 128.096,228.805 137.038,240.529C149.059,256.195 187.623,275.641 200.061,277.545C205.432,278.378 218.703,237.776 213.451,235.381C207.113,232.509 171.897,216.768 171.793,214.656C171.688,212.543 176.598,186.893 177.744,164.948C178.919,139.403 171.763,139.031 164.502,151.261Z" fill="#FFB573"/>
<path d="M204.644,235.692C204.644,235.692 221.01,232.969 231.677,231.69C237.628,230.976 248.043,230.663 252.7,232.151C259.648,234.368 287.276,248.115 284.078,254.885C281.191,261.014 258.963,246.196 258.963,246.196C258.963,246.196 282.768,259.155 277.888,265.894C273.008,272.634 250.171,252.504 250.171,252.504C250.171,252.504 274.273,266.385 268.203,272.545C263.605,277.202 241.839,260.181 241.839,260.181C241.839,260.181 262.475,272.247 257.967,277.246C252.968,282.766 231.9,268.32 231.9,268.32C218.272,279.076 207.381,278.63 199.674,277.38C197.815,277.112 204.644,235.692 204.644,235.692Z" fill="#FFB573"/>
<path d="M251.033,241.183C253.875,242.671 256.776,244.025 259.484,245.646C262.192,247.268 264.84,249.083 267.384,251.003C270.753,253.441 273.833,256.257 276.564,259.394C271.312,254.172 261.686,248.042 258.993,246.376C256.3,244.709 253.667,242.909 250.974,241.228C250.899,241.243 250.959,241.138 251.033,241.183Z" fill="#263238"/>
<path d="M244.829,250.851C248.385,252.829 251.986,254.659 255.452,256.802C258.919,258.944 261.999,261.265 265.287,263.586C265.54,263.765 265.287,263.839 265.093,263.675C261.716,261.459 258.413,259.658 254.991,257.486C251.569,255.314 248.251,253.023 244.77,250.94C244.71,250.895 244.77,250.821 244.829,250.851Z" fill="#263238"/>
<path d="M238,258.203C243.527,261.097 248.742,264.552 253.563,268.513C253.801,268.707 253.563,268.781 253.295,268.602C248.192,265.076 244.204,262.264 237.911,258.396C237.807,258.337 237.881,258.143 238,258.203Z" fill="#263238"/>
<path d="M175.914,191.724L138.422,191.724C138.422,191.724 157.495,155.154 166.14,145.99C175.855,135.664 179.009,142.895 179.53,156.404C180.05,169.913 175.914,191.724 175.914,191.724Z" fill="#01008A"/>
<g opacity="0.1">
<path d="M175.914,191.724L138.422,191.724C138.422,191.724 157.495,155.154 166.14,145.99C175.855,135.664 179.009,142.895 179.53,156.404C180.05,169.913 175.914,191.724 175.914,191.724Z" fill="#000000"/>
</g>
<path d="M174.976,185.372C173.667,185.179 161.988,185.105 159.443,185.149C156.899,185.194 146.514,185.239 143.896,185.506C143.872,185.506 143.85,185.516 143.833,185.533C143.816,185.549 143.807,185.572 143.807,185.596C143.807,185.619 143.816,185.642 143.833,185.659C143.85,185.675 143.872,185.685 143.896,185.685C146.514,185.923 156.989,185.893 159.577,185.908C162.166,185.923 173.726,185.744 175.006,185.536C175.095,185.521 175.065,185.387 174.976,185.372Z" fill="#263238"/>
<path d="M325.75,175.465C327.238,181.803 332.401,190.462 331.91,195.253C331.833,196.441 331.375,197.572 330.603,198.479C329.83,199.385 328.786,200.017 327.625,200.281C327.625,200.281 331.761,203.659 330.6,207.943C330.005,210.145 325.944,211.127 325.944,211.127C325.944,211.127 329.142,213.984 327.878,217.718C326.851,220.694 322.953,221.23 322.953,221.23C322.953,221.23 324.738,225.395 322.73,228.103C318.653,233.593 292.275,227.627 290.4,216.989C289.522,212.035 295.89,213.835 295.89,213.835C295.89,213.835 287.365,209.03 288.451,203.554C289.537,198.079 297.661,200.936 297.661,200.936C297.661,200.936 289.448,196.205 291.144,190.64C292.84,185.076 300.562,189.153 300.562,189.153C300.562,189.153 295.593,183.856 297.884,179.898C301.648,173.367 312.955,185.18 319.07,185.121L321.688,175.822L325.75,175.465Z" fill="#FFB573"/>
<path d="M328.607,184.868C327.774,178.739 332.401,177.236 333.264,171.344C334.231,164.783 326.227,164.738 321.778,175.48L319.07,185.106L328.607,184.868Z" fill="#FFB573"/>
<path d="M322.328,221.451C322.348,221.451 322.367,221.459 322.381,221.473C322.395,221.487 322.403,221.506 322.403,221.526C322.403,221.545 322.395,221.564 322.381,221.578C322.367,221.592 322.348,221.6 322.328,221.6C312.819,221.779 303.48,219.066 295.548,213.819C295.295,213.655 295.473,213.164 295.786,213.313C304.193,217.295 313.134,220.037 322.328,221.451L322.328,221.451Z" fill="#263238"/>
<path d="M326.049,211.246C326.153,211.246 326.138,211.44 326.049,211.44C316.616,211.544 305.309,208.256 297.334,201.144C297.051,200.906 297.051,200.415 297.334,200.668C303.032,204.998 317.39,210.056 326.049,211.246Z" fill="#263238"/>
<path d="M300.22,188.439C308.135,194.97 317.359,198.288 327.313,200.341C327.432,200.341 327.387,200.55 327.313,200.55C322.165,200.877 315.961,198.898 311.259,196.949C306.866,195.224 303,192.383 300.041,188.707C299.803,188.573 299.982,188.305 300.22,188.439Z" fill="#263238"/>
<path d="M287.976,141.365L354.927,140.205C358.333,140.163 361.711,140.832 364.844,142.169C367.977,143.506 370.796,145.482 373.122,147.971C383.12,158.594 392.181,176.046 400.81,201.324L333.859,202.484C325.23,177.192 316.169,159.77 306.171,149.147C303.846,146.656 301.027,144.677 297.894,143.338C294.761,141.998 291.383,141.326 287.976,141.365L287.976,141.365Z" fill="#DEE1FF"/>
<path d="M337.296,191.831C345.151,191.534 353.022,191.43 360.877,191.236C368.733,191.043 376.589,190.983 384.444,190.998C376.589,191.296 368.733,191.4 360.877,191.608C353.022,191.817 345.166,191.831 337.296,191.831Z" fill="#8891EE"/>
<path d="M388,192.249C387.643,191.326 387.271,190.374 386.929,189.392L386.929,189.214L387.107,189.214L390.336,189.035L390.485,189.035L390.485,189.169L391.392,192.145L391.392,192.338L391.199,192.338C390.038,192.308 388.952,192.279 388,192.249ZM388,192.249C389.116,192.16 390.172,192.07 391.228,192.026L391.08,192.204L390.113,189.229L390.291,189.348C389.22,189.348 388.149,189.348 387.063,189.437L387.197,189.258C387.405,190.24 387.643,191.222 388,192.249Z" fill="#8891EE"/>
<path d="M389.815,191.074C389.437,190.796 389.075,190.498 388.729,190.181L388.967,190.181C388.642,191.202 388.187,192.177 387.613,193.082C387.858,192.051 388.222,191.053 388.699,190.107L388.804,189.898L388.937,190.062C389.25,190.345 389.488,190.687 389.815,191.074Z" fill="#01008A"/>
<path d="M334.855,185.209C342.711,184.911 350.582,184.822 358.437,184.614C366.293,184.405 374.148,184.391 382.048,184.391C374.193,184.688 366.337,184.792 358.482,184.986C350.626,185.179 342.726,185.239 334.855,185.209Z" fill="#8891EE"/>
<path d="M385.485,185.687C385.128,184.779 384.756,183.827 384.414,182.83L384.414,182.667L384.593,182.667L387.821,182.488L387.97,182.488L387.97,182.637L388.877,185.613L388.877,185.806L388.684,185.806C387.613,185.761 386.512,185.732 385.485,185.687ZM385.485,185.687L388.714,185.464L388.565,185.657L387.598,182.682L387.777,182.816C386.705,182.816 385.634,182.816 384.548,182.905L384.682,182.726C385.024,183.693 385.203,184.675 385.485,185.687Z" fill="#8891EE"/>
<path d="M387.375,184.512C386.994,184.244 386.631,183.951 386.289,183.634L386.527,183.634C386.198,184.654 385.743,185.629 385.173,186.535C385.415,185.504 385.78,184.505 386.259,183.56L386.363,183.352L386.497,183.515C386.809,183.768 387.092,184.14 387.375,184.512Z" fill="#01008A"/>
<path d="M332.415,178.666C340.271,178.369 348.141,178.28 355.997,178.071C363.852,177.863 371.708,177.818 379.563,177.848C371.708,178.146 363.852,178.235 355.997,178.443C348.141,178.652 340.285,178.696 332.415,178.666Z" fill="#8891EE"/>
<path d="M383.046,179.14C382.689,178.233 382.317,177.266 381.975,176.284L381.975,176.12L382.049,176.12C383.135,176.031 384.206,176.001 385.278,175.941L385.426,175.941L385.426,176.075L386.334,179.051L386.334,179.244L386.14,179.244C385.158,179.215 384.072,179.17 383.046,179.14ZM383.046,179.14C384.162,179.051 385.218,178.962 386.274,178.917L386.126,179.11L385.158,176.135L385.337,176.269C384.266,176.269 383.195,176.343 382.109,176.343L382.242,176.165C382.525,177.147 382.763,178.114 383.046,179.14Z" fill="#8891EE"/>
<path d="M384.935,177.964C384.557,177.687 384.195,177.389 383.849,177.072L384.087,177.072C383.763,178.117 383.309,179.116 382.733,180.047C382.976,179.016 383.34,178.017 383.82,177.072L383.924,176.863L384.058,177.027C384.37,177.22 384.653,177.592 384.935,177.964Z" fill="#01008A"/>
<path d="M329.351,172.117C337.206,171.819 345.062,171.715 352.917,171.521C360.773,171.328 368.643,171.269 376.499,171.283C368.643,171.581 360.788,171.685 352.932,171.893C345.077,172.102 337.221,172.131 329.351,172.117Z" fill="#8891EE"/>
<path d="M379.98,172.593C379.623,171.67 379.251,170.718 378.909,169.736L378.909,169.557L379.073,169.557C380.144,169.483 381.23,169.438 382.301,169.379L382.435,169.379L382.435,169.513L383.343,172.488L383.343,172.667L383.149,172.667C382.048,172.652 381.007,172.622 379.98,172.593ZM379.98,172.593C381.096,172.503 382.153,172.414 383.194,172.369L383.06,172.548L382.078,169.572L382.272,169.691C381.2,169.691 380.114,169.781 379.043,169.781L379.162,169.602C379.445,170.584 379.698,171.566 379.98,172.593Z" fill="#8891EE"/>
<path d="M381.87,171.418C381.492,171.14 381.129,170.842 380.784,170.525L381.022,170.525C380.684,171.541 380.229,172.514 379.668,173.426C379.912,172.395 380.277,171.396 380.754,170.45L380.858,170.242L380.992,170.406C381.305,170.674 381.587,171.001 381.87,171.418Z" fill="#01008A"/>
<path d="M325.929,165.556C333.784,165.258 341.64,165.169 349.496,164.961C357.351,164.753 365.207,164.723 373.077,164.738C365.222,165.035 357.351,165.139 349.496,165.333C341.64,165.526 333.784,165.586 325.929,165.556Z" fill="#8891EE"/>
<path d="M376.544,166.035C376.202,165.127 375.815,164.175 375.473,163.178L375.473,163.014L375.666,163.014C376.737,162.94 377.809,162.895 378.88,162.836L379.029,162.836L379.029,162.985L379.921,165.96L379.921,166.154L379.728,166.154C378.671,166.109 377.585,166.079 376.544,166.035ZM376.544,166.035L379.772,165.812L379.639,166.005L378.657,163.029L378.835,163.163C377.764,163.163 376.693,163.238 375.607,163.253L375.74,163.074C376.098,164.041 376.276,165.053 376.544,166.035Z" fill="#8891EE"/>
<path d="M378.433,164.875C378.066,164.597 377.709,164.299 377.362,163.982L377.6,163.982C377.263,165.001 376.803,165.975 376.231,166.883C376.474,165.852 376.838,164.853 377.318,163.908L377.422,163.699L377.57,163.863C377.875,164.185 378.163,164.523 378.433,164.875L378.433,164.875Z" fill="#01008A"/>
<path d="M321.51,158.67C329.365,158.373 337.221,158.284 345.091,158.075C352.962,157.867 360.803,157.822 368.658,157.852C360.803,158.15 352.947,158.239 345.091,158.447C337.236,158.655 329.38,158.7 321.51,158.67Z" fill="#8891EE"/>
<path d="M372.14,159.101C371.783,158.194 371.411,157.226 371.068,156.245L371.068,156.081L371.247,156.081C372.318,155.992 373.404,155.962 374.475,155.902L374.624,155.902L374.624,156.036L375.532,159.012L375.532,159.205L375.338,159.205C374.252,159.22 373.122,159.176 372.14,159.101ZM372.14,159.101C373.255,159.012 374.312,158.923 375.353,158.878L375.219,159.071L374.252,156.096L374.431,156.215C373.36,156.215 372.273,156.304 371.202,156.304L371.336,156.126C371.634,157.152 371.857,158.119 372.14,159.101Z" fill="#8891EE"/>
<path d="M374.03,157.968C373.652,157.691 373.289,157.393 372.944,157.076L373.182,157.076C372.856,158.097 372.401,159.072 371.828,159.977C372.069,158.945 372.434,157.946 372.914,157.001L373.018,156.793L373.152,156.957C373.462,157.278 373.755,157.616 374.03,157.968L374.03,157.968Z" fill="#01008A"/>
<path d="M316.303,151.782C324.158,151.484 332.014,151.38 339.87,151.172C347.725,150.963 355.596,150.934 363.451,150.949C355.596,151.246 347.74,151.35 339.884,151.544C332.029,151.737 324.158,151.797 316.303,151.782Z" fill="#8891EE"/>
<path d="M366.933,152.242C366.575,151.334 366.204,150.382 365.861,149.4L365.861,149.221L366.04,149.221C367.111,149.221 368.197,149.102 369.268,149.043L369.402,149.043L369.402,149.177L370.31,152.152L370.31,152.346L370.146,152.346C369.045,152.316 367.959,152.286 366.933,152.242ZM366.933,152.242C368.048,152.242 369.105,152.078 370.146,152.033L370.012,152.212L369.03,149.236L369.224,149.37L365.995,149.46L366.114,149.281C366.397,150.248 366.65,151.23 366.933,152.242Z" fill="#8891EE"/>
<path d="M368.807,151.081C368.44,150.794 368.083,150.496 367.736,150.189L367.974,150.189C367.641,151.23 367.187,152.229 366.62,153.164C366.865,152.133 367.229,151.135 367.706,150.189L367.81,149.98L367.944,150.144C368.248,150.441 368.536,150.754 368.807,151.081L368.807,151.081Z" fill="#01008A"/>
<path d="M308.225,144.873C316.08,144.576 323.936,144.487 331.791,144.278C339.647,144.07 347.517,144.025 355.373,144.055C347.517,144.353 339.662,144.442 331.806,144.65C323.951,144.859 316.08,144.903 308.225,144.873Z" fill="#8891EE"/>
<path d="M358.854,145.351C358.497,144.444 358.125,143.491 357.783,142.495L357.783,142.331L357.962,142.331C359.033,142.256 360.119,142.212 361.19,142.152L361.22,142.152L361.22,142.286L362.128,145.262L362.128,145.455L361.934,145.455C360.967,145.426 359.881,145.381 358.854,145.351ZM358.854,145.351C359.97,145.262 361.027,145.173 362.068,145.128L361.934,145.321L360.952,142.346L361.146,142.48L357.917,142.569L358.036,142.376C358.319,143.357 358.572,144.325 358.854,145.351Z" fill="#8891EE"/>
<path d="M360.728,144.222C360.361,143.944 360.004,143.647 359.657,143.329L359.895,143.329C359.558,144.369 359.104,145.368 358.541,146.305C358.783,145.273 359.148,144.274 359.627,143.329L359.731,143.121L359.865,143.285C360.169,143.582 360.457,143.895 360.728,144.222L360.728,144.222Z" fill="#01008A"/>
<path d="M288.659,141.364L355.61,140.203C346.818,140.352 338.084,145.693 332.401,153.593C317.88,173.783 305.457,236.494 304.862,274.968C304.653,288.105 309.935,310.869 315.544,334.971C322.983,366.721 331.27,402.695 329.708,427.095C328.532,445.469 323.072,467.519 317.3,490.847C312.286,511.037 307.123,531.927 304.192,552.369C300.725,576.649 303.686,605.379 310.262,611.449C311.999,613.169 314.059,614.529 316.324,615.449C318.59,616.367 321.015,616.829 323.459,616.805L256.508,617.981C254.066,618.001 251.644,617.539 249.382,616.619C247.119,615.701 245.061,614.343 243.326,612.625C236.735,606.555 233.774,577.825 237.241,553.529C240.217,533.101 245.349,512.213 250.348,492.023C256.121,468.679 261.581,446.645 262.772,428.271C264.259,403.871 255.972,367.881 248.593,336.132C242.984,312.044 237.702,289.266 237.91,276.144C238.506,237.669 250.929,174.973 265.45,154.754C271.133,146.854 279.867,141.527 288.659,141.364Z" fill="#D9DCFF"/>
<path d="M358.958,537.461L425.909,536.301C411.522,536.554 394.665,555.389 376.812,575.341C358.601,595.664 339.914,616.538 323.504,616.821L256.553,617.996C272.919,617.698 291.65,596.839 309.861,576.501C327.699,556.565 344.571,537.714 358.958,537.461Z" fill="#BDC3FF"/>
<path d="M275.373,614.369C283.229,614.071 291.084,613.967 298.94,613.759C306.795,613.551 314.651,613.506 322.507,613.536C314.651,613.833 306.795,613.922 298.94,614.131C291.084,614.339 283.229,614.369 275.373,614.369Z" fill="#8891EE"/>
<path d="M324.501,614.874C324.888,613.937 325.26,612.925 325.691,611.899L325.691,611.824L325.78,611.824C326.941,611.824 328.101,611.824 329.262,611.824L329.559,611.824L329.426,612.092L328.027,615.068L328.027,615.157L327.923,615.157L324.501,614.874ZM324.501,614.874L327.953,614.874L327.819,614.963L329.143,611.988L329.307,612.256C328.146,612.256 326.986,612.256 325.825,612.256L325.959,612.181L324.501,614.874Z" fill="#8891EE"/>
<path d="M327.596,613.579C327.417,613.319 327.258,613.045 327.119,612.761L327.358,612.761C326.491,613.759 325.535,614.675 324.501,615.499C325.287,614.424 326.173,613.428 327.149,612.523L327.328,612.359L327.328,612.583C327.446,612.906 327.535,613.24 327.596,613.579L327.596,613.579Z" fill="#01008A"/>
<path d="M282.663,608.877C290.519,608.579 298.374,608.475 306.23,608.267C314.085,608.058 321.941,608.014 329.811,608.043C321.956,608.341 314.1,608.43 306.245,608.639C298.389,608.847 290.519,608.892 282.663,608.877Z" fill="#8891EE"/>
<path d="M331.806,609.335C332.178,608.398 332.55,607.386 332.996,606.36L332.996,606.285L333.085,606.285C334.246,606.285 335.406,606.285 336.567,606.285L336.864,606.285L336.745,606.553L335.347,609.529L335.347,609.618L335.257,609.618L331.806,609.335ZM331.806,609.335L335.242,609.335L335.109,609.424L336.433,606.449L336.596,606.717C335.436,606.717 334.275,606.717 333.115,606.717L333.249,606.642L331.806,609.335Z" fill="#8891EE"/>
<path d="M334.885,608.044C334.712,607.78 334.554,607.507 334.409,607.226L334.662,607.226C333.796,608.224 332.839,609.14 331.806,609.963C332.586,608.889 333.468,607.893 334.439,606.988L334.618,606.824L334.618,607.047C334.736,607.371 334.825,607.705 334.885,608.044Z" fill="#01008A"/>
<path d="M289.953,603.341C297.809,603.044 305.664,602.94 313.52,602.731C321.376,602.523 329.246,602.479 337.102,602.508C329.246,602.806 321.39,602.895 313.535,603.103C305.679,603.312 297.824,603.356 289.953,603.341Z" fill="#8891EE"/>
<path d="M339.096,603.804C339.483,602.867 339.84,601.855 340.286,600.828L340.286,600.754L340.39,600.754C341.551,600.754 342.711,600.754 343.872,600.754L344.169,600.754L344.035,601.022L342.637,603.997L342.637,604.087L342.547,604.087L339.096,603.804ZM339.096,603.804L342.533,603.804L342.399,603.893L343.723,600.918L343.901,601.185C342.741,601.185 341.58,601.185 340.42,601.185L340.539,601.111L339.096,603.804Z" fill="#8891EE"/>
<path d="M296.455,597.806C304.296,597.509 312.166,597.405 320.022,597.196C327.877,596.988 335.733,596.943 343.589,596.973C335.733,597.271 327.877,597.36 320.022,597.568C312.166,597.777 304.311,597.821 296.455,597.806Z" fill="#8891EE"/>
<path d="M345.583,598.269C345.97,597.331 346.342,596.32 346.773,595.293L346.773,595.219L346.863,595.219C348.023,595.219 349.184,595.219 350.344,595.219L350.642,595.219L350.508,595.487L349.109,598.462L349.109,598.551L349.005,598.551L345.583,598.269ZM345.583,598.269L349.035,598.269L348.901,598.358L350.225,595.382L350.389,595.65C349.228,595.65 348.068,595.65 346.907,595.65L347.026,595.576L345.583,598.269Z" fill="#8891EE"/>
<path d="M302.377,592.273C310.233,591.975 318.103,591.871 325.959,591.663C333.814,591.454 341.67,591.41 349.525,591.424C341.67,591.737 333.814,591.826 325.959,592.034C318.103,592.243 310.247,592.287 302.377,592.273Z" fill="#8891EE"/>
<path d="M351.52,592.734C351.906,591.796 352.278,590.785 352.71,589.758L352.71,589.684L352.814,589.684C353.974,589.684 355.135,589.684 356.295,589.684L356.593,589.684L356.459,589.951L355.06,592.927L355.06,593.016L354.971,593.016L351.52,592.734ZM351.52,592.734L354.971,592.734L354.837,592.823L356.161,589.847L356.325,590.115C355.165,590.115 354.004,590.115 352.844,590.115L352.963,590.041L351.52,592.734Z" fill="#8891EE"/>
<path d="M307.228,586.737C315.083,586.44 322.939,586.336 330.794,586.127C338.65,585.919 346.52,585.874 354.376,585.889C346.52,586.202 338.665,586.291 330.809,586.499C322.954,586.708 315.098,586.752 307.228,586.737Z" fill="#8891EE"/>
<path d="M356.369,587.198C356.756,586.261 357.113,585.249 357.559,584.223L357.559,584.148L357.664,584.148C358.824,584.148 359.985,584.148 361.145,584.148L361.443,584.148L361.309,584.401L359.91,587.377L359.91,587.466L359.821,587.466L356.369,587.198ZM356.369,587.198L359.806,587.198L359.672,587.288L360.996,584.312L361.175,584.58C360.014,584.58 358.854,584.58 357.693,584.58L357.812,584.505L356.369,587.198Z" fill="#8891EE"/>
<path d="M312.688,581.202C320.543,580.905 328.399,580.8 336.254,580.592C344.11,580.384 351.98,580.339 359.836,580.354C351.98,580.667 344.125,580.756 336.269,580.964C328.414,581.172 320.558,581.217 312.688,581.202Z" fill="#8891EE"/>
<path d="M361.829,581.632C362.216,580.695 362.573,579.683 363.019,578.656L363.123,578.656C364.284,578.656 365.444,578.656 366.605,578.656L366.903,578.656L366.769,578.909L365.37,581.885L365.37,581.974L365.281,581.974L361.829,581.632ZM361.829,581.632L365.266,581.632L365.132,581.721L366.456,578.746L366.635,579.013C365.474,579.013 364.314,579.013 363.153,579.013L363.272,578.939L361.829,581.632Z" fill="#8891EE"/>
<path d="M317.775,575.687C325.631,575.389 333.487,575.285 341.342,575.077C349.198,574.868 357.068,574.824 364.924,574.839C357.068,575.151 349.213,575.24 341.357,575.449C333.501,575.657 325.631,575.687 317.775,575.687Z" fill="#8891EE"/>
<path d="M366.918,576.128C367.29,575.191 367.662,574.179 368.108,573.152L368.108,573.078L368.198,573.078C369.358,573.078 370.533,573.078 371.694,573.078L371.977,573.078L371.857,573.331L370.459,576.307L370.459,576.396L370.37,576.396L366.918,576.128ZM366.918,576.128L370.355,576.128L370.221,576.217L371.545,573.242L371.724,573.51C370.548,573.51 369.388,573.51 368.227,573.51L368.361,573.435L366.918,576.128Z" fill="#8891EE"/>
<path d="M322.537,570.136C330.378,569.838 338.248,569.734 346.104,569.526C353.96,569.317 361.815,569.273 369.671,569.288C361.815,569.6 353.96,569.689 346.104,569.898C338.248,570.106 330.378,570.151 322.537,570.136Z" fill="#8891EE"/>
<path d="M371.635,570.593C372.022,569.655 372.394,568.644 372.825,567.617L372.914,567.617C374.075,567.617 375.235,567.617 376.396,567.617L376.693,567.617L376.559,567.87L375.161,570.846L375.161,570.935L375.057,570.935L371.635,570.593ZM371.635,570.593L375.086,570.593L374.953,570.593L376.277,567.617L376.44,567.885C375.28,567.885 374.119,567.885 372.959,567.885L373.078,567.811L371.635,570.593Z" fill="#8891EE"/>
<path d="M327.759,564.601C335.614,564.303 343.47,564.199 351.326,563.991C359.181,563.782 367.037,563.738 374.907,563.753C367.052,564.065 359.181,564.154 351.326,564.363C343.47,564.571 335.614,564.616 327.759,564.601Z" fill="#8891EE"/>
<path d="M376.886,565.061C377.273,564.124 377.645,563.112 378.076,562.085L378.076,561.996L378.165,561.996C379.326,561.996 380.486,561.996 381.647,561.996L381.944,561.996L381.825,562.249L380.427,565.225L380.427,565.314L380.323,565.314L376.886,565.061ZM376.886,565.061L380.337,565.061L380.204,565.135L381.528,562.16L381.691,562.428C380.531,562.428 379.37,562.428 378.21,562.428L378.344,562.353L376.886,565.061Z" fill="#8891EE"/>
<path d="M332.089,559.065C339.944,558.768 347.8,558.664 355.656,558.456C363.511,558.247 371.382,558.203 379.237,558.217C371.382,558.53 363.526,558.619 355.67,558.827C347.815,559.036 339.959,559.08 332.089,559.065Z" fill="#8891EE"/>
<path d="M381.23,559.51C381.617,558.588 381.974,557.576 382.421,556.535L382.421,556.445L382.525,556.445C383.685,556.445 384.846,556.445 386.006,556.445L386.304,556.445L386.17,556.698L384.771,559.674L384.771,559.763L384.682,559.763L381.23,559.51ZM381.23,559.51L384.667,559.51L384.533,559.51L385.858,556.535L386.036,556.802C384.876,556.802 383.715,556.802 382.555,556.802L382.674,556.802L381.23,559.51Z" fill="#8891EE"/>
<path d="M337.415,553.53C345.271,553.233 353.141,553.129 360.997,552.92C368.852,552.712 376.708,552.667 384.563,552.682C376.708,552.995 368.852,553.084 360.997,553.292C353.141,553.501 345.315,553.545 337.415,553.53Z" fill="#8891EE"/>
<path d="M386.587,553.979C386.974,553.056 387.346,552.045 387.777,551.003L387.777,550.914L387.866,550.914C389.027,550.914 390.187,550.914 391.348,550.914L391.645,550.914L391.512,551.167L390.113,554.143L390.113,554.232L390.024,554.232L386.587,553.979ZM386.587,553.979L390.039,553.979L389.905,554.053L391.229,551.078L391.393,551.346C390.232,551.346 389.072,551.346 387.911,551.346L388.03,551.271L386.587,553.979Z" fill="#8891EE"/>
<path d="M343.901,547.995C351.757,547.698 359.613,547.593 367.468,547.385C375.324,547.177 383.179,547.132 391.05,547.147C383.194,547.46 375.324,547.549 367.468,547.757C359.613,547.965 351.757,548.01 343.901,547.995Z" fill="#8891EE"/>
<path d="M393.029,548.444C393.416,547.521 393.788,546.51 394.22,545.468L394.22,545.379L394.309,545.379C395.469,545.379 396.63,545.379 397.79,545.379L398.088,545.379L397.969,545.632L396.57,548.607L396.57,548.697L396.466,548.697L393.029,548.444ZM393.029,548.444L396.481,548.444L396.347,548.444L397.671,545.468L397.835,545.736C396.674,545.736 395.514,545.736 394.353,545.736L394.487,545.736L393.029,548.444Z" fill="#8891EE"/>
<path d="M349.927,542.46C357.782,542.162 365.638,542.058 373.494,541.85C381.349,541.642 389.205,541.597 397.06,541.612C389.22,541.924 381.349,542.014 373.494,542.222C365.638,542.43 357.782,542.475 349.927,542.46Z" fill="#8891EE"/>
<path d="M399.054,542.952C399.441,542.029 399.813,541.017 400.244,539.976L400.244,539.887L400.333,539.887C401.494,539.887 402.654,539.887 403.815,539.887L404.112,539.887L403.993,540.155L402.595,543.13L402.595,543.219L402.491,543.219L399.054,542.952ZM399.054,542.952L402.505,542.952L402.372,543.026L403.696,540.05L403.859,540.318C402.699,540.318 401.538,540.318 400.378,540.318L400.512,540.244L399.054,542.952Z" fill="#8891EE"/>
<path d="M358.929,537.493L425.88,536.332C444.939,535.99 456.826,557.593 468.327,578.467C478.414,596.782 487.951,614.1 501.296,613.862L434.345,615.037C420.955,615.26 411.463,597.957 401.376,579.642C389.875,558.753 377.987,537.165 358.929,537.493Z" fill="#DEE1FF"/>
<path d="M492.295,599.011L559.246,597.836C544.681,598.089 535.858,602.299 527.333,606.421C519.581,610.155 512.246,613.666 501.326,613.86L434.375,615.035C445.31,614.841 452.63,611.33 460.382,607.596C468.907,603.504 477.73,599.264 492.295,599.011Z" fill="#BDC3FF"/>
<path d="M457.927,612.002C464.786,611.704 471.659,611.6 478.518,611.392C485.377,611.183 492.25,611.139 499.124,611.168C492.265,611.466 485.392,611.555 478.533,611.764C471.674,611.972 464.786,612.017 457.927,612.002Z" fill="#8891EE"/>
<path d="M501.073,612.46C501.445,611.523 501.817,610.511 502.263,609.485L502.263,609.41L502.353,609.41C503.513,609.41 504.674,609.41 505.834,609.41L506.132,609.41L506.013,609.678L504.614,612.654L504.614,612.743L504.525,612.743L501.073,612.46ZM501.073,612.46L504.51,612.46L504.376,612.549L505.7,609.574L505.864,609.842C504.703,609.842 503.543,609.842 502.383,609.842L502.516,609.767L501.073,612.46Z" fill="#8891EE"/>
<path d="M468.817,607.508C475.929,607.21 483.041,607.121 490.152,606.913C497.264,606.704 504.376,606.66 511.502,606.674C504.391,606.972 497.264,607.076 490.152,607.284C483.041,607.493 475.929,607.537 468.817,607.508Z" fill="#8891EE"/>
<path d="M513.481,607.967C513.868,607.045 514.24,606.033 514.672,604.992L514.672,604.902L514.761,604.902C515.921,604.902 517.082,604.902 518.242,604.902L518.54,604.902L518.421,605.17L517.022,608.146L517.022,608.25L516.918,608.25L513.481,607.967ZM513.481,607.967L516.933,607.967L516.799,608.042L518.123,605.066L518.287,605.319L514.806,605.319L514.94,605.23L513.481,607.967Z" fill="#8891EE"/>
<path d="M480.913,603.341C488.025,603.044 495.136,602.94 502.248,602.731C509.36,602.523 516.471,602.479 523.598,602.508C516.486,602.806 509.375,602.895 502.263,603.103C495.151,603.312 488.025,603.356 480.913,603.341Z" fill="#8891EE"/>
<path d="M525.592,603.804C525.964,602.867 526.336,601.855 526.782,600.828L526.782,600.754L526.871,600.754C528.032,600.754 529.192,600.754 530.353,600.754L530.65,600.754L530.531,601.022L529.133,603.997L529.133,604.087L529.043,604.087L525.592,603.804ZM525.592,603.804L529.029,603.804L528.895,603.893L530.219,600.918L530.383,601.185C529.222,601.185 528.062,601.185 526.901,601.185L527.035,601.111L525.592,603.804Z" fill="#8891EE"/>
<path d="M492.28,599.012L559.231,597.837C566.283,597.718 602.154,613.741 603.672,614.426L536.721,615.586C535.203,614.902 499.347,598.893 492.28,599.012Z" fill="#DEE1FF"/>
<path d="M314.012,87.292C313.368,93.495 311.012,99.397 307.207,104.339C303.402,109.28 298.298,113.067 292.466,115.275C286.633,117.484 280.301,118.028 274.178,116.846C268.054,115.664 262.38,112.803 257.788,108.582L240.946,111.052L249.367,96.501C247.439,91.764 246.616,86.65 246.961,81.547C247.305,76.444 248.808,71.487 251.356,67.052C253.903,62.617 257.428,58.821 261.662,55.952C265.896,53.084 270.728,51.218 275.792,50.497C280.855,49.775 286.016,50.217 290.883,51.79C295.75,53.362 300.194,56.022 303.879,59.569C307.563,63.117 310.391,67.457 312.147,72.26C313.903,77.064 314.541,82.205 314.012,87.292L314.012,87.292Z" fill="#FFFFFF"/>
<path d="M314.012,87.295C313.351,93.498 310.999,99.402 307.213,104.36C306.293,105.589 305.299,106.762 304.237,107.871C303.117,108.939 301.929,109.933 300.681,110.847C298.201,112.707 295.471,114.209 292.573,115.31C289.666,116.442 286.617,117.168 283.512,117.467C281.959,117.608 280.398,117.638 278.84,117.557C277.278,117.517 275.721,117.358 274.183,117.08C267.977,115.939 262.212,113.09 257.535,108.853L257.922,108.972L241.11,111.561L239.89,111.739L240.5,110.668L248.876,96.088L248.876,96.668C246.896,91.845 246.052,86.631 246.411,81.43C246.769,76.228 248.32,71.179 250.944,66.674C253.566,62.185 257.167,58.346 261.478,55.441C266.843,51.875 273.112,49.906 279.554,49.766C285.995,49.625 292.344,51.318 297.86,54.647C303.376,57.976 307.833,62.804 310.711,68.568C313.589,74.332 314.77,80.796 314.116,87.205L314.012,87.295ZM314.012,87.295C314.55,82.227 313.917,77.104 312.161,72.32C310.406,67.536 307.576,63.219 303.889,59.701C300.202,56.184 295.756,53.56 290.895,52.032C286.034,50.504 280.886,50.113 275.85,50.888C270.849,51.647 266.089,53.546 261.939,56.438C257.833,59.329 254.402,63.075 251.881,67.418C249.402,71.777 247.942,76.641 247.612,81.646C247.283,86.65 248.091,91.664 249.977,96.311L250.096,96.608L249.932,96.891L241.467,111.412L240.857,110.534L257.713,108.169L257.952,108.169L258.115,108.317C262.611,112.528 268.19,115.403 274.228,116.619C275.734,116.922 277.261,117.107 278.796,117.17C280.326,117.281 281.863,117.281 283.393,117.17C286.445,116.924 289.449,116.258 292.32,115.191C295.226,114.136 297.963,112.663 300.443,110.817C301.685,109.895 302.873,108.902 303.999,107.841C305.061,106.747 306.054,105.59 306.975,104.375C310.855,99.442 313.291,93.529 314.012,87.295L314.012,87.295Z" fill="#263238"/>
<path d="M276.593,102.99L262.221,88.44L267.056,83.679L275.447,92.174L292.884,64.828L298.612,68.473L276.593,102.99Z" fill="#01008A"/>
</svg>
