<svg width="38" height="38" viewBox="0 0 38 38" fill="none" xmlns="http://www.w3.org/2000/svg" xmlns:xlink="http://www.w3.org/1999/xlink">
<path d="M36.741,3.886L33.024,0.164C32.75,-0.111 32.377,-0.265 31.989,-0.265C31.601,-0.265 31.228,-0.111 30.953,0.164L17.092,14.015C16.944,14.163 16.829,14.341 16.755,14.538L14.518,20.496C14.42,20.76 14.4,21.046 14.459,21.32C14.519,21.595 14.656,21.846 14.855,22.045C15.054,22.244 15.305,22.381 15.58,22.441C15.854,22.501 16.14,22.48 16.404,22.382L22.362,20.15C22.559,20.076 22.737,19.961 22.885,19.813L36.741,5.956C37.015,5.682 37.17,5.309 37.17,4.921C37.17,4.533 37.015,4.16 36.741,3.886L36.741,3.886ZM21.044,17.512L18.401,18.489L19.378,15.847L31.984,3.265L33.635,4.916L21.044,17.512Z" fill="#179E8A"/>
<path d="M33.279,33.322L33.279,20.677C33.279,20.289 33.124,19.916 32.85,19.641C32.575,19.367 32.202,19.212 31.813,19.212C31.425,19.212 31.052,19.367 30.777,19.641C30.502,19.916 30.348,20.289 30.348,20.677L30.348,33.327C30.348,33.716 30.194,34.089 29.919,34.363C29.644,34.638 29.271,34.792 28.883,34.792L3.583,34.792C3.195,34.792 2.822,34.638 2.547,34.363C2.272,34.089 2.118,33.716 2.118,33.327L2.118,8.023C2.118,7.634 2.272,7.261 2.547,6.987C2.822,6.712 3.195,6.557 3.583,6.557L16.228,6.557C16.617,6.557 16.989,6.403 17.264,6.128C17.539,5.853 17.693,5.481 17.693,5.092C17.693,4.704 17.539,4.331 17.264,4.056C16.989,3.781 16.617,3.627 16.228,3.627L3.583,3.627C2.417,3.627 1.299,4.09 0.475,4.914C-0.349,5.739 -0.813,6.857 -0.813,8.023L-0.813,33.322C-0.813,34.488 -0.349,35.606 0.475,36.431C1.299,37.255 2.417,37.718 3.583,37.718L28.883,37.718C30.049,37.718 31.167,37.255 31.991,36.431C32.816,35.606 33.279,34.488 33.279,33.322L33.279,33.322Z" fill="#179E8A"/>
</svg>
