<svg width="160" height="290" viewBox="0 0 160 290" fill="none" xmlns="http://www.w3.org/2000/svg" xmlns:xlink="http://www.w3.org/1999/xlink">
<path d="M25.238,73.476C27.029,69.151 27.772,64.922 27.435,60.909C26.657,51.595 28.395,45.619 29.986,42.246C31.707,38.605 33.636,37.134 33.653,37.117L32.987,36.209C32.901,36.27 30.86,37.818 29.018,41.675C27.34,45.186 25.515,51.379 26.319,61.004C26.916,68.183 23.777,74.998 20.343,80.161C20.17,80.42 20.239,80.766 20.499,80.939C20.758,81.112 21.113,81.043 21.286,80.784C22.912,78.327 24.235,75.889 25.238,73.476Z" fill="#01008A"/>
<path d="M34.343,36.632C34.508,36.399 34.785,36.278 35.07,36.303C35.615,36.355 36.151,36.373 36.687,36.373C36.748,36.269 36.8,36.156 36.86,36.053C36.843,36.044 36.826,36.035 36.808,36.027C34.049,34.851 31.749,32.922 30.045,30.509C28.16,27.828 27.009,24.55 26.802,21.065C26.681,19.024 26.88,16.913 27.433,14.803C27.546,14.362 27.684,13.938 27.822,13.515C28.618,11.154 29.82,9.043 31.308,7.253C33.107,5.1 35.321,3.404 37.768,2.306C39.541,1.51 41.435,1.043 43.364,0.922C42.923,0.767 42.473,0.62 42.015,0.499C40.986,0.222 39.948,0.075 38.919,0.023C36.35,-0.116 33.807,0.377 31.472,1.424C29.025,2.522 26.811,4.209 25.012,6.371C23.524,8.161 22.322,10.271 21.526,12.632C21.379,13.056 21.25,13.48 21.128,13.921C20.566,16.031 20.367,18.142 20.497,20.183C20.705,23.668 21.855,26.946 23.74,29.627C25.349,31.91 27.502,33.752 30.062,34.946C30.062,34.946 31.507,35.551 31.265,36.987C31.204,37.333 31.377,37.687 31.697,37.826C31.896,37.912 32.112,38.025 32.32,38.172C32.683,38.422 33.176,38.336 33.427,37.981L34.343,36.632Z" fill="#DE8500"/>
<path d="M43.754,34.678C46.617,33.26 49.142,31.02 50.993,28.166C52.091,26.47 52.956,24.55 53.509,22.466C53.613,22.06 53.708,21.662 53.786,21.255C54.271,18.842 54.296,16.447 53.916,14.172C53.449,11.413 52.394,8.845 50.846,6.674C48.995,4.071 46.435,2.03 43.365,0.914C41.427,1.035 39.542,1.511 37.769,2.298C35.322,3.396 33.108,5.083 31.309,7.245C29.821,9.035 28.619,11.145 27.823,13.506C27.676,13.93 27.547,14.354 27.434,14.795C26.872,16.905 26.673,19.015 26.803,21.056C27.01,24.542 28.161,27.82 30.046,30.501C31.75,32.914 34.05,34.842 36.809,36.018C36.826,36.027 36.844,36.036 36.861,36.044C36.801,36.157 36.749,36.261 36.688,36.364C39.144,36.356 41.549,35.768 43.754,34.678Z" fill="#F29305"/>
<g opacity="0.32">
<g opacity="0.32">
<path d="M44.49,5.229C44.776,5.047 45.156,5.056 45.433,5.281C48.728,7.927 50.89,11.594 51.504,15.616C52.127,19.663 51.115,23.572 48.668,26.634C48.382,26.989 47.872,27.041 47.526,26.764C47.171,26.487 47.119,25.968 47.405,25.622C49.567,22.924 50.458,19.456 49.904,15.867C49.351,12.252 47.396,8.939 44.421,6.552C44.067,6.275 44.015,5.756 44.3,5.411C44.343,5.333 44.412,5.272 44.49,5.229Z" fill="#FFFFFF"/>
</g>
</g>
<path d="M21.848,72.895C21.477,69.868 20.543,67.231 19.064,65.06C15.63,60.026 14.705,56.074 14.523,53.652C14.333,51.032 14.956,49.579 14.956,49.57L14.29,49.268C14.264,49.328 13.598,50.859 13.788,53.644C13.961,56.169 14.912,60.277 18.458,65.475C21.096,69.35 21.503,74.227 21.208,78.258C21.191,78.456 21.347,78.629 21.546,78.647C21.745,78.664 21.926,78.508 21.944,78.301C22.082,76.398 22.056,74.582 21.848,72.895Z" fill="#01008A"/>
<path d="M15.198,49.067C15.215,48.885 15.336,48.721 15.5,48.652C15.82,48.505 16.14,48.349 16.443,48.168C16.443,48.09 16.434,48.012 16.434,47.934C16.417,47.934 16.408,47.934 16.391,47.934C14.454,48.15 12.525,47.796 10.787,46.974C8.858,46.057 7.155,44.57 5.918,42.658C5.191,41.543 4.629,40.28 4.266,38.905C4.197,38.611 4.136,38.326 4.076,38.04C3.773,36.449 3.773,34.866 4.05,33.37C4.378,31.571 5.096,29.902 6.125,28.492C6.878,27.472 7.795,26.598 8.858,25.906C8.556,25.958 8.262,26.019 7.959,26.097C7.284,26.287 6.653,26.529 6.048,26.832C4.543,27.575 3.263,28.674 2.277,30.014C1.239,31.424 0.53,33.093 0.201,34.892C-0.067,36.388 -0.076,37.971 0.227,39.562C0.279,39.848 0.34,40.133 0.417,40.419C0.781,41.794 1.343,43.056 2.069,44.172C3.306,46.083 5.01,47.571 6.938,48.488C8.582,49.266 10.398,49.621 12.231,49.482C12.231,49.482 13.243,49.361 13.563,50.26C13.641,50.477 13.849,50.624 14.073,50.598C14.212,50.58 14.376,50.58 14.532,50.598C14.817,50.624 15.068,50.416 15.094,50.131L15.198,49.067Z" fill="#22D1B0"/>
<path d="M19.911,44.951C21.078,43.23 21.796,41.146 21.934,38.932C22.012,37.617 21.891,36.251 21.537,34.884C21.467,34.625 21.39,34.365 21.303,34.106C20.802,32.584 20.049,31.217 19.106,30.05C17.956,28.631 16.538,27.516 14.955,26.781C13.07,25.898 10.968,25.561 8.867,25.907C7.811,26.599 6.886,27.473 6.134,28.493C5.096,29.903 4.387,31.572 4.058,33.371C3.781,34.867 3.781,36.45 4.084,38.041C4.136,38.326 4.196,38.612 4.274,38.897C4.637,40.272 5.2,41.535 5.926,42.651C7.163,44.562 8.867,46.05 10.795,46.966C12.534,47.788 14.462,48.143 16.399,47.926C16.417,47.926 16.425,47.926 16.443,47.926C16.443,48.004 16.451,48.082 16.451,48.16C17.835,47.373 19.011,46.274 19.911,44.951Z" fill="#23D9B7"/>
<g opacity="0.2">
<g opacity="0.2">
<path d="M10.882,27.999C10.986,27.809 11.202,27.688 11.435,27.723C14.16,28.164 16.555,29.556 18.199,31.64C19.85,33.733 20.534,36.276 20.119,38.801C20.075,39.087 19.799,39.286 19.513,39.243C19.228,39.199 19.029,38.923 19.072,38.637C19.435,36.414 18.83,34.157 17.36,32.298C15.881,30.421 13.719,29.176 11.262,28.769C10.977,28.726 10.778,28.449 10.821,28.164C10.83,28.112 10.847,28.051 10.882,27.999Z" fill="#FDE2DE"/>
</g>
</g>
<path d="M91.997,224.955C96.771,224.955 100.632,221.435 100.632,217.102L100.632,169.613C100.632,165.271 96.761,161.76 91.997,161.76C87.223,161.76 83.361,165.28 83.361,169.613L83.361,217.102C83.352,221.435 87.223,224.955 91.997,224.955Z" fill="#01008A"/>
<path d="M70.999,224.955C66.224,224.955 62.363,221.435 62.363,217.102L62.363,169.613C62.363,165.271 66.234,161.76 70.999,161.76C75.773,161.76 79.634,165.28 79.634,169.613L79.634,217.102C79.644,221.435 75.773,224.955 70.999,224.955Z" fill="#01008A"/>
<path d="M89.534,150.768C89.534,150.768 93.604,154.158 97.789,160.636C105.026,171.835 96.305,186.045 82.011,186.322C81.707,186.33 81.412,186.33 81.107,186.33C67.27,186.356 58.178,173.115 64.236,161.803C66.062,158.387 68.354,154.668 71.207,150.768L89.534,150.768Z" fill="#01008A"/>
<path d="M87.147,97.311C87.147,97.311 85.872,100.709 88.896,103.529C91.921,106.34 93.604,112.1 89.743,114.27L80.309,112.895L80.737,101.669L87.147,97.311Z" fill="#141370"/>
<path d="M75.24,93.756C75.24,93.756 76.486,109.271 72.663,112.895C68.84,116.527 57.437,109.418 63.59,102.525C63.59,102.525 65.797,99.706 69.724,98.66C73.652,97.613 72.644,94.517 72.644,94.517L75.24,93.756Z" fill="#141370"/>
<path d="M83.933,112.904L72.663,112.904L74.499,97.311L81.65,97.311L83.933,112.904Z" fill="#DC85E6"/>
<path d="M89.534,150.767L71.217,150.767L60.708,129.802C56.742,121.889 63.105,112.895 72.663,112.895L88.821,112.895C98.531,112.895 104.884,122.148 100.633,130.079L89.534,150.767Z" fill="#F29305"/>
<path d="M80.309,102.526C76.486,102.526 73.366,99.681 73.366,96.213L73.366,91.776C73.366,88.3 76.495,85.463 80.309,85.463C84.132,85.463 87.251,88.308 87.251,91.776L87.251,96.213C87.261,99.69 84.132,102.526 80.309,102.526Z" fill="#F493FE"/>
<path d="M82.196,92.508C82.237,92.422 82.201,92.319 82.115,92.278C82.029,92.236 81.926,92.273 81.884,92.359L82.196,92.508ZM82.563,94.864L82.7,94.758L82.7,94.757L82.563,94.864ZM81.745,97.684C81.65,97.689 81.577,97.771 81.582,97.866C81.588,97.961 81.669,98.034 81.765,98.029L81.745,97.684ZM82.04,92.434C81.884,92.359 81.884,92.359 81.884,92.359C81.884,92.359 81.884,92.359 81.884,92.359C81.884,92.359 81.884,92.36 81.884,92.36C81.884,92.36 81.883,92.361 81.883,92.361C81.883,92.362 81.882,92.363 81.881,92.365C81.88,92.368 81.878,92.373 81.876,92.378C81.871,92.388 81.865,92.403 81.858,92.422C81.844,92.459 81.826,92.513 81.808,92.58C81.772,92.716 81.736,92.909 81.736,93.146C81.736,93.623 81.879,94.268 82.427,94.97L82.7,94.757C82.201,94.119 82.082,93.549 82.082,93.146C82.082,92.943 82.113,92.78 82.142,92.669C82.157,92.614 82.171,92.572 82.182,92.544C82.187,92.531 82.191,92.521 82.193,92.515C82.195,92.511 82.196,92.509 82.196,92.508C82.196,92.508 82.196,92.508 82.196,92.508C82.196,92.508 82.196,92.508 82.196,92.508C82.196,92.508 82.196,92.508 82.196,92.508C82.196,92.508 82.196,92.508 82.196,92.508C82.196,92.508 82.196,92.508 82.04,92.434ZM82.427,94.97C82.683,95.3 82.898,95.636 83.043,95.954C83.189,96.274 83.258,96.563 83.239,96.803C83.219,97.035 83.118,97.23 82.898,97.381C82.669,97.537 82.303,97.652 81.745,97.684L81.765,98.029C82.353,97.996 82.791,97.873 83.093,97.666C83.402,97.455 83.556,97.163 83.583,96.832C83.61,96.509 83.516,96.158 83.358,95.811C83.198,95.461 82.967,95.102 82.7,94.758L82.427,94.97Z" fill="#C53CCF"/>
<path d="M78.749,93.454C78.749,93.679 78.549,93.869 78.292,93.869C78.045,93.869 77.836,93.688 77.836,93.454C77.836,93.229 78.036,93.039 78.292,93.039C78.549,93.039 78.749,93.229 78.749,93.454Z" fill="#4A4185"/>
<path d="M84.731,93.454C84.731,93.679 84.532,93.869 84.275,93.869C84.028,93.869 83.818,93.688 83.818,93.454C83.818,93.229 84.018,93.039 84.275,93.039C84.522,93.039 84.731,93.229 84.731,93.454Z" fill="#4A4185"/>
<path d="M78.302,96.662C78.954,96.662 79.482,96.182 79.482,95.59C79.482,94.998 78.954,94.518 78.302,94.518C77.651,94.518 77.123,94.998 77.123,95.59C77.123,96.182 77.651,96.662 78.302,96.662Z" fill="#D97EB0"/>
<path d="M86.633,95.59C86.633,96.178 86.11,96.662 85.454,96.662C84.807,96.662 84.274,96.187 84.274,95.59C84.274,94.993 84.797,94.518 85.454,94.518C86.1,94.518 86.633,95.002 86.633,95.59Z" fill="#D97EB0"/>
<path d="M79.593,98.7C79.52,98.639 79.411,98.648 79.35,98.72C79.288,98.793 79.297,98.902 79.37,98.964L79.593,98.7ZM84.4,98.797C84.471,98.733 84.477,98.623 84.413,98.552C84.349,98.481 84.24,98.476 84.169,98.539L84.4,98.797ZM79.481,98.832C79.37,98.964 79.37,98.964 79.37,98.964C79.37,98.964 79.37,98.964 79.37,98.965C79.37,98.965 79.37,98.965 79.371,98.965C79.371,98.965 79.372,98.966 79.372,98.967C79.374,98.968 79.376,98.97 79.379,98.972C79.384,98.976 79.392,98.982 79.402,98.99C79.421,99.006 79.45,99.028 79.486,99.054C79.56,99.108 79.667,99.181 79.803,99.262C80.073,99.423 80.462,99.614 80.93,99.735C81.875,99.978 83.138,99.931 84.4,98.797L84.169,98.539C83.006,99.585 81.867,99.619 81.017,99.4C80.588,99.289 80.23,99.113 79.979,98.964C79.854,98.89 79.756,98.823 79.69,98.775C79.657,98.751 79.632,98.732 79.616,98.719C79.608,98.712 79.602,98.707 79.598,98.704C79.596,98.703 79.595,98.702 79.594,98.701C79.594,98.701 79.593,98.7 79.593,98.7C79.593,98.7 79.593,98.7 79.593,98.7C79.593,98.7 79.593,98.7 79.593,98.7C79.593,98.7 79.593,98.7 79.481,98.832Z" fill="#C53CCF"/>
<path d="M72.938,110.596L79.101,112.905L83.418,110.596L83.932,112.905L86.633,112.905L79.481,122.245L69.724,113.199L72.662,112.905L72.938,110.596Z" fill="#FBE3F9"/>
<path d="M72.643,94.517C72.643,94.517 81.906,92.657 82.591,85.643C82.582,85.643 71.435,82.737 72.643,94.517Z" fill="#141370"/>
<path d="M75.744,95.148C75.744,96.342 74.679,97.311 73.367,97.311C72.054,97.311 70.989,96.342 70.989,95.148C70.989,93.955 72.054,92.986 73.367,92.986C74.679,92.986 75.744,93.955 75.744,95.148Z" fill="#D97EB0"/>
<path d="M74.261,99.301C74.261,99.301 77.266,103.409 82.373,102.241L82.849,105.484C82.849,105.493 75.459,105.606 74.261,99.301Z" fill="#D97EB0"/>
<path d="M72.77,112.716C72.667,112.657 72.535,112.693 72.475,112.797C72.416,112.9 72.452,113.032 72.556,113.092L72.77,112.716ZM77.846,115.87L77.739,116.058C77.79,116.087 77.851,116.094 77.907,116.078C77.964,116.061 78.011,116.022 78.038,115.97L77.846,115.87ZM79.482,112.705L79.676,112.61C79.64,112.537 79.566,112.49 79.484,112.489C79.403,112.488 79.327,112.533 79.29,112.606L79.482,112.705ZM81.032,115.87L80.838,115.966C80.869,116.029 80.929,116.073 80.998,116.084C81.067,116.095 81.138,116.072 81.187,116.022L81.032,115.87ZM84.087,113.055C84.171,112.97 84.169,112.833 84.084,112.749C83.999,112.666 83.862,112.667 83.778,112.753L84.087,113.055ZM72.556,113.092L77.739,116.058L77.954,115.683L72.77,112.716L72.556,113.092ZM78.038,115.97L79.674,112.804L79.29,112.606L77.654,115.771L78.038,115.97ZM79.288,112.8L80.838,115.966L81.226,115.775L79.676,112.61L79.288,112.8ZM81.187,116.022L84.087,113.055L83.778,112.753L80.878,115.719L81.187,116.022Z" fill="#7E07F3"/>
<path d="M35.734,120.316L65.673,124.234C67.851,124.519 70.019,123.707 71.341,122.107C74.261,118.569 71.607,113.51 66.748,113.346L36.524,112.342C33.785,112.256 31.617,114.435 32.006,116.909C32.273,118.673 33.794,120.057 35.734,120.316Z" fill="#F29305"/>
<path d="M27.184,85.299L31.531,94.068L24.341,96.516L21.288,87.461L27.184,85.299Z" fill="#FBE3F9"/>
<path d="M39.995,114.418C40.879,116.537 39.738,118.916 37.437,119.772C34.926,120.706 32.082,119.478 31.293,117.125L24.341,96.516L31.531,94.068L39.995,114.418Z" fill="#F29305"/>
<path d="M20.613,85.307C20.613,85.307 24.388,85.203 24.978,83.11C25.444,81.484 25.197,77.705 24.189,75.785C23.903,75.248 23.028,75.378 22.943,75.966L22.458,79.417L17.864,74.081C17.465,73.614 16.647,73.899 16.694,74.487C16.799,75.854 17.027,77.705 17.512,79.088C18.387,81.588 20.613,85.307 20.613,85.307Z" fill="#DC85E6"/>
<path d="M26.947,85.878L24.988,83.119L20.09,84.408L21.288,87.461L26.947,85.878Z" fill="#DC85E6"/>
<path d="M118.731,133.357L90.485,123.515C88.431,122.798 86.976,121.128 86.681,119.148C86.025,114.772 91.056,111.52 95.383,113.535L122.316,126.058C124.76,127.191 125.474,130.062 123.819,132.051C122.621,133.461 120.557,133.989 118.731,133.357Z" fill="#F29305"/>
<path d="M144.951,106.564L136.458,112.29L141.432,117.617L148.945,111.062L144.951,106.564Z" fill="#FBE3F9"/>
<path d="M118.17,126.318C116.258,127.78 115.982,130.357 117.542,132.13C119.235,134.059 122.373,134.249 124.332,132.545L141.442,117.626L136.477,112.299L118.17,126.318Z" fill="#F29305"/>
<path d="M150.685,109.487C150.685,109.487 147.442,107.732 148.042,105.639C148.508,104.013 150.743,100.821 152.654,99.585C153.187,99.239 153.89,99.74 153.643,100.294L152.217,103.528L159.083,100.899C159.682,100.674 160.243,101.28 159.891,101.773C159.064,102.923 157.875,104.436 156.715,105.431C154.632,107.221 150.685,109.487 150.685,109.487Z" fill="#DC85E6"/>
<path d="M144.846,107.17L148.041,105.631L151.627,108.935L148.945,111.062L144.846,107.17Z" fill="#DC85E6"/>
<path d="M83.105,218.27L88.022,274.304L94.204,274.382L100.766,218.227C101.07,213.6 97.028,209.699 91.931,209.699C86.814,209.691 82.772,213.626 83.105,218.27Z" fill="#01008A"/>
<path d="M79.891,218.27L72.121,276.933L66.3,279.969L62.23,218.227C61.926,213.6 65.968,209.699 71.065,209.699C76.172,209.691 80.224,213.626 79.891,218.27Z" fill="#01008A"/>
<path d="M91.236,147.594L89.534,150.768L71.759,152.039L69.629,147.594L91.236,147.594Z" fill="#004145"/>
<path d="M89.762,150.336L92.539,153.752L69.115,153.752L70.998,150.336L89.762,150.336Z" fill="#003033"/>
<path d="M87.87,284.881L87.832,287.804L112.949,288.107C112.949,288.107 112.863,287.804 112.407,285.184L87.87,284.881Z" fill="#01008A"/>
<path d="M112.366,285.01C111.881,282.225 103.559,281.516 98.481,281.005C93.402,280.495 94.201,274.381 94.201,274.381L88.019,274.303L87.867,284.88L112.394,285.174C112.385,285.122 112.385,285.07 112.366,285.01Z" fill="#BEBEFF"/>
<path d="M99.358,285.019C99.437,285.056 99.437,285.056 99.437,285.056C99.437,285.056 99.437,285.056 99.437,285.056C99.437,285.056 99.437,285.056 99.437,285.056C99.437,285.056 99.437,285.055 99.437,285.055C99.437,285.054 99.438,285.053 99.439,285.051C99.441,285.048 99.443,285.042 99.447,285.035C99.454,285.021 99.466,284.999 99.482,284.972C99.513,284.916 99.562,284.836 99.63,284.74C99.766,284.547 99.979,284.287 100.283,284.025C100.89,283.5 101.865,282.96 103.337,282.908L103.331,282.736C101.816,282.788 100.804,283.346 100.17,283.894C99.853,284.167 99.632,284.438 99.489,284.64C99.418,284.742 99.366,284.826 99.332,284.886C99.315,284.915 99.302,284.939 99.293,284.955C99.289,284.964 99.286,284.97 99.284,284.974C99.283,284.977 99.282,284.978 99.281,284.98C99.281,284.98 99.281,284.981 99.281,284.981C99.28,284.981 99.28,284.981 99.28,284.981C99.28,284.982 99.28,284.982 99.28,284.982C99.28,284.982 99.28,284.982 99.358,285.019ZM103.337,282.908C104.827,282.857 106.625,282.878 108.051,282.913C108.764,282.93 109.384,282.951 109.825,282.967C110.046,282.975 110.222,282.982 110.343,282.987C110.403,282.989 110.45,282.991 110.481,282.993C110.497,282.993 110.509,282.994 110.517,282.994C110.521,282.995 110.524,282.995 110.526,282.995C110.527,282.995 110.528,282.995 110.528,282.995C110.529,282.995 110.529,282.995 110.529,282.995C110.529,282.995 110.529,282.995 110.529,282.995C110.529,282.995 110.529,282.995 110.533,282.908C110.537,282.822 110.537,282.822 110.537,282.822C110.537,282.822 110.537,282.822 110.537,282.822C110.537,282.822 110.536,282.822 110.536,282.822C110.536,282.822 110.535,282.822 110.534,282.822C110.532,282.822 110.529,282.822 110.525,282.822C110.517,282.821 110.505,282.821 110.489,282.82C110.457,282.819 110.41,282.817 110.35,282.814C110.229,282.809 110.052,282.802 109.831,282.794C109.389,282.778 108.769,282.757 108.055,282.74C106.628,282.705 104.826,282.684 103.331,282.736L103.337,282.908Z" fill="#01008A"/>
<path d="M93.51,281.412L93.538,281.33L93.537,281.33L93.51,281.412ZM91.152,274.338C91.065,274.336 91.065,274.336 91.065,274.336C91.065,274.336 91.065,274.336 91.065,274.336C91.065,274.336 91.065,274.337 91.065,274.337C91.065,274.338 91.065,274.339 91.065,274.34C91.065,274.344 91.065,274.348 91.065,274.354C91.064,274.366 91.064,274.384 91.064,274.407C91.063,274.453 91.063,274.521 91.063,274.608C91.063,274.781 91.067,275.029 91.079,275.329C91.104,275.929 91.162,276.738 91.3,277.575C91.438,278.41 91.656,279.278 92,279.991C92.344,280.703 92.821,281.274 93.483,281.494L93.537,281.33C92.939,281.131 92.491,280.609 92.156,279.915C91.822,279.224 91.608,278.375 91.471,277.546C91.334,276.719 91.276,275.917 91.252,275.322C91.24,275.024 91.236,274.778 91.236,274.607C91.236,274.522 91.236,274.455 91.237,274.409C91.237,274.386 91.237,274.369 91.238,274.357C91.238,274.352 91.238,274.347 91.238,274.344C91.238,274.343 91.238,274.342 91.238,274.341C91.238,274.341 91.238,274.341 91.238,274.34C91.238,274.34 91.238,274.34 91.238,274.34C91.238,274.34 91.238,274.34 91.152,274.338ZM93.482,281.494C94.763,281.925 96.256,281.842 97.422,281.656C98.006,281.562 98.511,281.442 98.87,281.345C99.05,281.297 99.193,281.254 99.291,281.224C99.34,281.208 99.378,281.196 99.404,281.187C99.417,281.183 99.427,281.18 99.434,281.178C99.437,281.177 99.44,281.176 99.441,281.175C99.442,281.175 99.443,281.175 99.443,281.174C99.444,281.174 99.444,281.174 99.444,281.174C99.444,281.174 99.444,281.174 99.444,281.174C99.444,281.174 99.444,281.174 99.416,281.092C99.388,281.011 99.388,281.011 99.388,281.011C99.388,281.011 99.388,281.011 99.388,281.011C99.388,281.011 99.387,281.011 99.387,281.011C99.387,281.011 99.386,281.011 99.386,281.011C99.384,281.012 99.382,281.013 99.379,281.014C99.372,281.016 99.363,281.019 99.35,281.023C99.325,281.031 99.288,281.043 99.24,281.058C99.143,281.088 99.002,281.13 98.825,281.178C98.47,281.274 97.972,281.392 97.394,281.485C96.238,281.67 94.778,281.748 93.538,281.33L93.482,281.494Z" fill="#01008A"/>
<path d="M91.447,278.096L95.232,279.358L95.287,279.194L91.502,277.932L91.447,278.096Z" fill="#01008A"/>
<path d="M94.569,277.973L91.896,279.564L91.985,279.713L94.657,278.121L94.569,277.973Z" fill="#01008A"/>
<path d="M65.825,286.594L65.787,289.517L90.904,289.82C90.904,289.82 90.818,289.517 90.362,286.896L65.825,286.594Z" fill="#01008A"/>
<path d="M90.321,286.723C89.836,283.938 81.514,283.229 76.436,282.718C71.357,282.208 72.156,276.093 72.156,276.093L65.974,276.016L65.822,286.593L90.349,286.887C90.34,286.835 90.33,286.774 90.321,286.723Z" fill="#CECEFF"/>
<path d="M77.313,286.732C77.392,286.769 77.392,286.769 77.392,286.769C77.392,286.769 77.392,286.769 77.392,286.769C77.392,286.769 77.392,286.769 77.392,286.769C77.392,286.768 77.392,286.768 77.392,286.768C77.392,286.767 77.393,286.766 77.394,286.764C77.396,286.76 77.398,286.755 77.402,286.748C77.41,286.734 77.421,286.712 77.437,286.684C77.469,286.629 77.517,286.549 77.585,286.453C77.721,286.26 77.934,286 78.238,285.738C78.845,285.213 79.82,284.672 81.292,284.621L81.286,284.448C79.771,284.501 78.759,285.059 78.125,285.607C77.808,285.88 77.587,286.151 77.444,286.353C77.373,286.454 77.321,286.539 77.287,286.598C77.27,286.628 77.257,286.652 77.249,286.668C77.244,286.676 77.241,286.683 77.239,286.687C77.238,286.689 77.237,286.691 77.236,286.692C77.236,286.693 77.236,286.694 77.236,286.694C77.236,286.694 77.235,286.694 77.235,286.694C77.235,286.694 77.235,286.695 77.235,286.695C77.235,286.695 77.235,286.695 77.313,286.732ZM81.292,284.621C82.782,284.57 84.58,284.591 86.006,284.626C86.719,284.643 87.339,284.663 87.78,284.68C88.001,284.688 88.177,284.695 88.298,284.7C88.358,284.702 88.405,284.704 88.436,284.706C88.452,284.706 88.464,284.707 88.472,284.707C88.476,284.707 88.479,284.708 88.481,284.708C88.482,284.708 88.483,284.708 88.483,284.708C88.484,284.708 88.484,284.708 88.484,284.708C88.484,284.708 88.484,284.708 88.484,284.708C88.484,284.708 88.484,284.708 88.488,284.621C88.492,284.535 88.492,284.535 88.492,284.535C88.492,284.535 88.492,284.535 88.492,284.535C88.492,284.535 88.491,284.535 88.491,284.535C88.491,284.535 88.49,284.535 88.489,284.535C88.487,284.535 88.484,284.535 88.48,284.534C88.472,284.534 88.46,284.534 88.444,284.533C88.412,284.531 88.365,284.529 88.305,284.527C88.184,284.522 88.007,284.515 87.786,284.507C87.344,284.491 86.724,284.47 86.01,284.453C84.583,284.418 82.781,284.396 81.286,284.448L81.292,284.621Z" fill="#01008A"/>
<path d="M71.465,283.125L71.493,283.043L71.492,283.043L71.465,283.125ZM69.107,276.051C69.02,276.049 69.02,276.049 69.02,276.049C69.02,276.049 69.02,276.049 69.02,276.049C69.02,276.049 69.02,276.049 69.02,276.05C69.02,276.051 69.02,276.052 69.02,276.053C69.02,276.056 69.02,276.061 69.02,276.067C69.019,276.079 69.019,276.097 69.019,276.12C69.018,276.166 69.018,276.234 69.018,276.321C69.019,276.494 69.022,276.742 69.034,277.042C69.059,277.642 69.117,278.451 69.255,279.288C69.393,280.123 69.611,280.99 69.956,281.704C70.299,282.416 70.776,282.987 71.438,283.207L71.492,283.043C70.894,282.844 70.446,282.322 70.111,281.628C69.777,280.936 69.563,280.087 69.426,279.259C69.29,278.432 69.231,277.63 69.207,277.035C69.195,276.737 69.192,276.491 69.191,276.32C69.191,276.235 69.191,276.168 69.192,276.122C69.192,276.099 69.192,276.082 69.193,276.07C69.193,276.065 69.193,276.06 69.193,276.057C69.193,276.056 69.193,276.055 69.193,276.054C69.193,276.054 69.193,276.053 69.193,276.053C69.193,276.053 69.193,276.053 69.193,276.053C69.193,276.053 69.193,276.053 69.107,276.051ZM71.438,283.207C72.718,283.638 74.211,283.555 75.377,283.369C75.961,283.275 76.466,283.155 76.825,283.058C77.005,283.01 77.148,282.967 77.246,282.936C77.296,282.921 77.334,282.909 77.359,282.9C77.372,282.896 77.382,282.893 77.389,282.891C77.392,282.889 77.395,282.889 77.396,282.888C77.397,282.888 77.398,282.887 77.398,282.887C77.399,282.887 77.399,282.887 77.399,282.887C77.399,282.887 77.399,282.887 77.399,282.887C77.399,282.887 77.399,282.887 77.371,282.805C77.343,282.724 77.343,282.724 77.343,282.724C77.343,282.724 77.343,282.724 77.343,282.724C77.343,282.724 77.343,282.724 77.342,282.724C77.342,282.724 77.341,282.724 77.341,282.724C77.339,282.725 77.337,282.726 77.334,282.727C77.327,282.729 77.318,282.732 77.305,282.736C77.28,282.744 77.243,282.756 77.195,282.771C77.098,282.801 76.957,282.843 76.78,282.891C76.426,282.987 75.927,283.105 75.35,283.198C74.193,283.383 72.733,283.46 71.493,283.043L71.438,283.207Z" fill="#01008A"/>
<path d="M69.393,279.809L73.187,281.071L73.242,280.907L69.447,279.645L69.393,279.809Z" fill="#01008A"/>
<path d="M72.524,279.685L69.851,281.277L69.94,281.425L72.612,279.834L72.524,279.685Z" fill="#01008A"/>
</svg>
