<svg width="40" height="46" viewBox="0 0 40 46" fill="none" xmlns="http://www.w3.org/2000/svg" xmlns:xlink="http://www.w3.org/1999/xlink">
<path d="M9.722,-0.318L24.988,-0.318C25.457,-0.318 25.905,-0.127 26.23,0.211L37.852,12.318C38.16,12.638 38.331,13.065 38.331,13.51L38.331,34.542C38.331,40.277 33.683,45.238 28.054,45.238L9.722,45.238C3.803,45.238 -0.797,40.51 -0.797,34.542L-0.797,9.96C-0.797,4.312 4.014,-0.318 9.722,-0.318ZM34.888,14.202L24.252,3.123L9.722,3.125C5.886,3.125 2.645,6.244 2.645,9.961L2.645,34.544C2.645,38.631 5.725,41.797 9.722,41.797L28.054,41.797C31.73,41.797 34.889,38.425 34.889,34.544L34.888,14.202Z" clip-rule="evenodd" fill-rule="evenodd" fill="#EE9311"/>
<path d="M24.385,-0.344C25.256,-0.344 25.976,0.304 26.09,1.144L26.106,1.377L26.106,8.052C26.106,10.362 27.974,12.235 30.282,12.24L36.486,12.239C37.435,12.177 38.254,12.895 38.317,13.843C38.379,14.792 37.661,15.611 36.713,15.674L32.879,15.687C32.113,15.686 31.242,15.684 30.274,15.682C26.214,15.674 22.9,12.491 22.676,8.485L22.664,8.052L22.664,1.377C22.664,0.427 23.435,-0.344 24.385,-0.344Z" fill="#EE9311"/>
<g opacity="0.4">
<path d="M23.949,29.045C24.9,29.045 25.67,29.816 25.67,30.766C25.67,31.638 25.023,32.358 24.183,32.472L23.949,32.487L11.565,32.487C10.614,32.487 9.844,31.717 9.844,30.766C9.844,29.895 10.491,29.175 11.331,29.061L11.565,29.045L23.949,29.045Z" fill="#EE9311"/>
</g>
<g opacity="0.4">
<path d="M19.265,17.682C20.215,17.682 20.986,18.452 20.986,19.403C20.986,20.274 20.338,20.994 19.498,21.108L19.265,21.124L11.564,21.124C10.613,21.124 9.843,20.353 9.843,19.403C9.843,18.531 10.49,17.811 11.33,17.697L11.564,17.682L19.265,17.682Z" fill="#EE9311"/>
</g>
</svg>
