<svg width="52" height="52" viewBox="0 0 52 52" fill="none" xmlns="http://www.w3.org/2000/svg" xmlns:xlink="http://www.w3.org/1999/xlink">
<path d="M11.894,52C10.972,51.802 10.029,51.67 9.13,51.395C1.156,48.958 -2.448,39.581 1.799,32.408C1.952,32.149 1.983,31.78 1.966,31.467C1.915,30.471 1.75,29.478 1.744,28.484C1.719,23.998 1.732,19.511 1.733,15.024C1.733,14.142 2.005,13.858 2.877,13.858C17.183,13.856 31.49,13.852 45.797,13.862C48.818,13.864 51.268,15.719 51.828,18.583C52.068,19.808 51.909,21.111 51.917,22.379C51.918,22.646 51.882,22.919 51.816,23.178C51.152,25.814 48.743,27.7 46.025,27.72C45.164,27.727 44.303,27.721 43.362,27.721C43.362,27.982 43.369,28.211 43.361,28.44C43.105,36.328 39.43,41.991 32.272,45.33C29.73,46.515 26.996,46.887 24.205,46.799C23.634,46.782 23.268,46.946 22.884,47.398C20.677,50.002 17.854,51.497 14.461,51.91C14.348,51.924 14.238,51.968 14.127,51.999C13.383,52 12.638,52 11.894,52ZM3.521,30.071C8.438,25.029 15.499,25.085 20,28.023C22.276,29.508 23.981,31.473 25.01,33.992C26.536,37.73 26.314,41.415 24.464,45.193C25.899,45.025 27.207,44.977 28.466,44.708C36.001,43.104 41.303,36.896 41.572,29.199C41.727,24.77 41.617,20.331 41.623,15.896C41.623,15.815 41.599,15.734 41.582,15.626C28.882,15.626 16.198,15.626 3.52,15.626C3.521,20.425 3.521,25.191 3.521,30.071ZM43.391,25.974C44.403,25.974 45.402,26.042 46.388,25.96C48.339,25.796 49.929,24.321 50.195,22.387C50.328,21.423 50.345,20.421 50.247,19.453C50.051,17.512 48.691,15.992 46.798,15.704C45.696,15.536 44.549,15.673 43.392,15.673C43.391,19.081 43.391,22.506 43.391,25.974ZM13.009,50.272C19.215,50.271 24.282,45.2 24.281,38.993C24.28,32.781 19.217,27.724 13.001,27.727C6.785,27.729 1.736,32.784 1.736,39.004C1.736,45.218 6.792,50.273 13.009,50.272Z" fill="#01008A"/>
<path d="M22.325,10.357C21.93,10.357 21.409,10.357 20.853,10.357C20.788,9.773 20.989,9.278 21.269,8.819C21.425,8.563 21.636,8.334 21.85,8.121C22.789,7.195 22.797,6.653 21.869,5.74C20.449,4.346 20.467,2.548 21.884,1.132C22.195,0.821 22.419,0.422 22.731,0C23.146,0 23.684,0 24.263,0C24.255,0.852 23.935,1.544 23.366,2.135C23.189,2.318 22.999,2.488 22.838,2.681C22.443,3.157 22.437,3.727 22.826,4.212C22.973,4.396 23.149,4.557 23.319,4.721C24.596,5.962 24.594,7.859 23.338,9.115C22.992,9.461 22.714,9.875 22.325,10.357Z" fill="#01008A"/>
<path d="M31.011,10.352C30.607,10.352 30.071,10.352 29.497,10.352C29.51,9.586 29.762,8.95 30.243,8.4C30.399,8.222 30.579,8.066 30.742,7.895C31.393,7.216 31.406,6.61 30.738,5.953C30.224,5.446 29.759,4.919 29.584,4.2C29.304,3.046 29.645,2.078 30.454,1.231C30.78,0.889 31.044,0.488 31.42,0.006C31.783,0.006 32.335,0.006 32.924,0.006C32.931,0.809 32.635,1.463 32.129,2.037C32.017,2.163 31.888,2.274 31.769,2.394C31.009,3.159 30.996,3.773 31.784,4.514C32.453,5.144 32.903,5.858 32.935,6.799C32.966,7.716 32.628,8.469 31.994,9.125C31.654,9.479 31.376,9.892 31.011,10.352Z" fill="#01008A"/>
<path d="M12.164,10.376C12.165,9.494 12.494,8.817 13.05,8.235C13.214,8.064 13.394,7.907 13.549,7.728C13.977,7.234 13.98,6.621 13.558,6.118C13.417,5.951 13.253,5.801 13.097,5.647C11.828,4.385 11.839,2.515 13.099,1.247C13.433,0.91 13.698,0.504 14.083,0.019C14.447,0.019 14.996,0.019 15.585,0.019C15.596,0.843 15.274,1.52 14.724,2.104C14.538,2.301 14.331,2.48 14.16,2.688C13.77,3.165 13.787,3.791 14.197,4.262C14.351,4.441 14.53,4.598 14.697,4.766C15.897,5.961 15.896,7.84 14.73,9.061C14.402,9.405 14.167,9.837 13.881,10.221C13.829,10.291 13.732,10.367 13.652,10.369C13.167,10.382 12.68,10.376 12.164,10.376Z" fill="#01008A"/>
<path d="M13,49.398C7.244,49.39 2.606,44.745 2.61,38.994C2.615,33.235 7.258,28.599 13.011,28.607C18.772,28.616 23.403,33.252 23.401,39.007C23.4,44.758 18.747,49.407 13,49.398ZM4.347,38.968C4.326,43.754 8.152,47.619 12.949,47.661C17.742,47.702 21.648,43.834 21.667,39.028C21.684,34.236 17.849,30.363 13.062,30.342C8.241,30.319 4.369,34.152 4.347,38.968Z" fill="#01008A"/>
<path d="M8.069,37.151C8.363,36.64 8.631,36.175 8.93,35.652C9.62,36.047 10.287,36.431 10.955,36.811C11.476,37.107 12.132,36.727 12.134,36.124C12.138,34.973 12.135,33.823 12.135,32.673C12.135,32.491 12.135,32.308 12.135,32.1C12.729,32.1 13.264,32.1 13.875,32.1C13.875,32.287 13.875,32.466 13.875,32.644C13.875,33.811 13.861,34.98 13.889,36.145C13.894,36.331 14.041,36.589 14.198,36.681C15.38,37.376 15.893,38.656 15.45,39.89C15.014,41.104 13.766,41.803 12.492,41.548C11.208,41.291 10.379,40.19 10.399,38.818C10.401,38.655 10.25,38.425 10.103,38.334C9.446,37.925 8.768,37.553 8.069,37.151ZM13.86,38.978C13.849,38.493 13.461,38.129 12.971,38.147C12.51,38.164 12.148,38.536 12.147,38.997C12.146,39.477 12.536,39.863 13.015,39.859C13.496,39.854 13.871,39.464 13.86,38.978Z" fill="#01008A"/>
</svg>
