<svg width="60" height="52" viewBox="0 0 60 52" fill="none" xmlns="http://www.w3.org/2000/svg" xmlns:xlink="http://www.w3.org/1999/xlink">
<path d="M0,45.499C0.318,44.8 0.858,44.555 1.625,44.558C6.326,44.579 11.026,44.569 15.727,44.569C15.931,44.569 16.137,44.569 16.31,44.569C15.155,43.387 13.936,42.284 12.887,41.038C9.758,37.326 7.982,33.018 7.559,28.182C7.424,26.646 7.426,25.091 7.442,23.546C7.465,21.427 8.976,19.924 11.097,19.819C11.251,19.812 11.406,19.812 11.562,19.812C22.839,19.812 34.116,19.818 45.393,19.805C46.75,19.803 47.898,20.175 48.759,21.272C49.349,22.025 49.531,22.899 49.542,23.826C49.548,24.344 49.544,24.862 49.544,25.348C50.663,25.157 51.719,24.939 52.787,24.801C53.974,24.649 55.145,24.782 56.257,25.251C58.087,26.023 58.987,27.497 59.319,29.387C59.352,29.574 59.4,29.757 59.442,29.943C59.442,30.562 59.442,31.181 59.442,31.8C59.19,32.503 59.013,33.244 58.67,33.899C57.697,35.759 56.107,37.023 54.353,38.087C51.091,40.065 47.502,41.179 43.813,42.021C43.552,42.08 43.235,42.095 43.053,42.255C42.22,42.982 41.424,43.752 40.549,44.568C40.847,44.568 41.054,44.568 41.263,44.568C46.004,44.568 50.744,44.571 55.485,44.563C56.099,44.562 56.604,44.736 56.856,45.33C57.11,45.925 56.884,46.411 56.446,46.842C55.576,47.697 54.725,48.569 53.858,49.425C52.123,51.139 50.028,51.996 47.592,51.998C34.84,52.001 22.09,52.001 9.338,51.998C7.36,51.998 5.509,51.483 4.015,50.182C2.596,48.946 1.332,47.533 0,46.196C0,45.964 0,45.732 0,45.499ZM28.467,22.28C22.8,22.28 17.133,22.279 11.466,22.282C10.421,22.282 9.878,22.726 9.909,23.71C9.968,25.638 9.922,27.596 10.243,29.487C11.361,36.08 14.921,41.024 20.71,44.362C20.931,44.488 21.216,44.559 21.472,44.559C26.133,44.571 30.794,44.569 35.456,44.561C35.696,44.561 35.968,44.52 36.171,44.405C41.326,41.501 44.701,37.194 46.322,31.506C47.024,29.039 47.084,26.512 47.051,23.974C47.033,22.669 46.654,22.279 45.351,22.279C39.724,22.28 34.096,22.28 28.467,22.28ZM4.311,47.064C4.433,47.219 4.496,47.309 4.57,47.389C5.934,48.871 7.627,49.54 9.636,49.538C22.19,49.527 34.744,49.534 47.299,49.528C47.762,49.528 48.23,49.508 48.686,49.435C50.291,49.178 51.575,48.373 52.662,47.064C36.519,47.064 20.472,47.064 4.311,47.064ZM45.592,39.055C48.817,38.075 51.845,37.045 54.436,35.067C56.055,33.83 57.173,32.333 56.916,30.102C56.71,28.312 55.771,27.335 53.96,27.262C52.588,27.209 51.281,27.513 49.981,27.91C49.535,28.046 49.417,28.301 49.343,28.727C49.113,30.054 48.886,31.39 48.541,32.69C47.946,34.923 46.935,36.982 45.592,39.055Z" fill="#01008A"/>
<path d="M32.177,5.462C32.196,6.697 31.559,8.189 30.588,9.596C29.526,11.135 29.472,12.806 30.199,14.506C30.343,14.84 30.579,15.133 30.752,15.456C31.093,16.098 30.925,16.768 30.348,17.13C29.777,17.488 29.105,17.333 28.668,16.741C26.851,14.282 26.734,10.855 28.481,8.318C29.505,6.83 30.019,5.288 29.482,3.519C29.322,2.994 29.028,2.502 28.755,2.018C28.489,1.547 28.381,1.085 28.674,0.599C29.16,-0.206 30.196,-0.188 30.791,0.627C31.736,1.918 32.175,3.371 32.177,5.462Z" fill="#01008A"/>
<path d="M24.753,5.26C24.783,6.647 24.185,8.159 23.194,9.554C22.271,10.851 22.084,12.298 22.526,13.806C22.676,14.314 22.96,14.789 23.226,15.257C23.661,16.026 23.563,16.743 22.927,17.133C22.306,17.516 21.634,17.312 21.151,16.595C19.388,13.981 19.34,10.838 21.126,8.221C22.284,6.526 22.651,4.788 21.83,2.868C21.702,2.569 21.506,2.299 21.342,2.015C20.929,1.302 21.035,0.607 21.615,0.224C22.239,-0.188 22.926,-0.007 23.412,0.68C24.311,1.949 24.745,3.364 24.753,5.26Z" fill="#01008A"/>
<path d="M39.606,4.851C39.634,6.642 39.056,8.143 38.072,9.52C37.133,10.833 36.933,12.299 37.395,13.824C37.57,14.405 37.923,14.931 38.207,15.477C38.442,15.93 38.438,16.368 38.146,16.788C37.852,17.21 37.418,17.41 36.936,17.272C36.628,17.184 36.296,16.967 36.109,16.712C34.273,14.216 34.177,10.867 35.938,8.298C36.958,6.808 37.466,5.259 36.917,3.496C36.737,2.917 36.383,2.39 36.109,1.84C35.795,1.213 35.951,0.557 36.496,0.211C37.061,-0.149 37.718,-0.046 38.146,0.508C38.405,0.843 38.64,1.205 38.828,1.582C39.351,2.634 39.635,3.75 39.606,4.851Z" fill="#01008A"/>
</svg>
