<svg width="992" height="706" viewBox="0 0 992 706" fill="none" xmlns="http://www.w3.org/2000/svg" xmlns:xlink="http://www.w3.org/1999/xlink">
<path d="M506.854,175.522L292.494,175.522L292.494,177.349L506.854,177.349L506.854,175.522ZM292.494,175.522C289.765,175.522 287.543,173.3 287.543,170.571L285.716,170.571C285.716,174.309 288.756,177.349 292.494,177.349L292.494,175.522ZM287.543,170.571L287.543,45.725L285.716,45.725L285.716,170.571L287.543,170.571ZM287.543,45.725C287.543,42.996 289.765,40.775 292.494,40.775L292.494,38.948C288.756,38.948 285.716,41.988 285.716,45.725L287.543,45.725ZM292.494,40.775L506.854,40.775L506.854,38.948L292.494,38.948L292.494,40.775ZM506.854,40.775C509.584,40.775 511.806,42.996 511.806,45.725L513.632,45.725C513.632,41.988 510.592,38.948 506.854,38.948L506.854,40.775ZM511.806,45.725L511.806,170.571L513.632,170.571L513.632,45.725L511.806,45.725ZM511.806,170.571C511.806,173.3 509.584,175.522 506.854,175.522L506.854,177.349C510.592,177.349 513.632,174.309 513.632,170.571L511.806,170.571Z" fill="#C0CCD8"/>
<line x1="286.648" y1="63.702" x2="512.719" y2="63.702" stroke="#C0CCD8" stroke-width="0.913" stroke-miterlimit="10"/>
<path d="M303.949,52.393C303.949,53.887 302.738,55.097 301.245,55.097L301.245,56.924C303.747,56.924 305.776,54.896 305.776,52.393L303.949,52.393ZM301.245,55.097C299.752,55.097 298.541,53.887 298.541,52.393L296.715,52.393C296.715,54.896 298.743,56.924 301.245,56.924L301.245,55.097ZM298.541,52.393C298.541,50.9 299.752,49.69 301.245,49.69L301.245,47.863C298.743,47.863 296.715,49.891 296.715,52.393L298.541,52.393ZM301.245,49.69C302.738,49.69 303.949,50.9 303.949,52.393L305.776,52.393C305.776,49.891 303.747,47.863 301.245,47.863L301.245,49.69Z" fill="#C0CCD8"/>
<path d="M318.8,52.393C318.8,53.88 317.583,55.097 316.097,55.097L316.097,56.924C318.592,56.924 320.627,54.889 320.627,52.393L318.8,52.393ZM316.097,55.097C314.61,55.097 313.393,53.88 313.393,52.393L311.566,52.393C311.566,54.889 313.601,56.924 316.097,56.924L316.097,55.097ZM313.393,52.393C313.393,50.907 314.61,49.69 316.097,49.69L316.097,47.863C313.601,47.863 311.566,49.898 311.566,52.393L313.393,52.393ZM316.097,49.69C317.602,49.69 318.8,50.888 318.8,52.393L320.627,52.393C320.627,49.88 318.611,47.863 316.097,47.863L316.097,49.69Z" fill="#C0CCD8"/>
<path d="M333.67,52.393C333.67,53.88 332.454,55.097 330.967,55.097L330.967,56.924C333.462,56.924 335.497,54.889 335.497,52.393L333.67,52.393ZM330.967,55.097C329.48,55.097 328.263,53.88 328.263,52.393L326.436,52.393C326.436,54.889 328.471,56.924 330.967,56.924L330.967,55.097ZM328.263,52.393C328.263,50.907 329.48,49.69 330.967,49.69L330.967,47.863C328.471,47.863 326.436,49.898 326.436,52.393L328.263,52.393ZM330.967,49.69C332.472,49.69 333.67,50.888 333.67,52.393L335.497,52.393C335.497,49.88 333.481,47.863 330.967,47.863L330.967,49.69Z" fill="#C0CCD8"/>
<path d="M158.697,181.368L157.784,181.368L158.697,181.368ZM168.051,191.635L221.504,191.635L221.504,189.808L168.051,189.808L168.051,191.635ZM221.504,191.635C227.178,191.635 231.77,187.042 231.77,181.368L229.944,181.368C229.944,186.034 226.169,189.808 221.504,189.808L221.504,191.635ZM231.77,181.368L231.77,127.915L229.944,127.915L229.944,181.368L231.77,181.368ZM231.77,127.915C231.77,122.24 227.178,117.648 221.504,117.648L221.504,119.475C226.169,119.475 229.944,123.249 229.944,127.915L231.77,127.915ZM221.504,117.648L168.051,117.648L168.051,119.475L221.504,119.475L221.504,117.648ZM168.051,117.648C162.376,117.648 157.784,122.241 157.784,127.915L159.611,127.915C159.611,123.249 163.385,119.475 168.051,119.475L168.051,117.648ZM157.784,127.915L157.784,181.368L159.611,181.368L159.611,127.915L157.784,127.915ZM157.784,181.368C157.784,187.042 162.376,191.635 168.051,191.635L168.051,189.808C163.385,189.808 159.611,186.034 159.611,181.368L157.784,181.368Z" fill="#C0CCD8"/>
<path d="M212.698,154.642C212.698,164.54 204.674,172.563 194.777,172.563L194.777,178.044C207.701,178.044 218.178,167.566 218.178,154.642L212.698,154.642ZM194.777,172.563C184.879,172.563 176.855,164.539 176.855,154.642L171.375,154.642C171.375,167.566 181.852,178.044 194.777,178.044L194.777,172.563ZM176.855,154.642C176.855,144.744 184.879,136.721 194.777,136.721L194.777,131.24C181.852,131.24 171.375,141.718 171.375,154.642L176.855,154.642ZM194.777,136.721C204.674,136.721 212.698,144.744 212.698,154.642L218.178,154.642C218.178,141.718 207.701,131.24 194.777,131.24L194.777,136.721Z" fill="#C0CCD8"/>
<path d="M206.798,138.107L177.605,167.281L181.479,171.158L210.672,141.983L206.798,138.107Z" fill="#C0CCD8"/>
<path d="M709.268,174.298L694.306,158.788L463.961,158.788C453.182,158.788 444.45,150.056 444.45,139.278L444.45,19.511C444.45,8.732 453.182,0 463.961,0L695.328,0C706.108,0 714.84,8.732 714.84,19.511L714.84,172.051C714.858,174.974 711.296,176.399 709.268,174.298Z" fill="#FFFFFF" stroke="#C0CCD8" stroke-width="0.913" stroke-miterlimit="10" stroke-linejoin="round"/>
<path d="M916.96,391.472L917.873,391.472L916.96,391.472ZM926.313,401.739L979.766,401.739L979.766,399.912L926.313,399.912L926.313,401.739ZM979.766,401.739C985.441,401.739 990.033,397.147 990.033,391.472L988.206,391.472C988.206,396.138 984.432,399.912 979.766,399.912L979.766,401.739ZM990.033,391.472L990.033,338.019L988.206,338.019L988.206,391.472L990.033,391.472ZM990.033,338.019C990.033,332.345 985.441,327.753 979.766,327.753L979.766,329.579C984.432,329.579 988.206,333.354 988.206,338.019L990.033,338.019ZM979.766,327.753L926.313,327.753L926.313,329.579L979.766,329.579L979.766,327.753ZM926.313,327.753C920.639,327.753 916.047,332.345 916.047,338.019L917.873,338.019C917.873,333.354 921.648,329.579 926.313,329.579L926.313,327.753ZM916.047,338.019L916.047,391.472L917.873,391.472L917.873,338.019L916.047,338.019ZM916.047,391.472C916.047,397.148 920.658,401.739 926.313,401.739L926.313,399.912C921.665,399.912 917.873,396.137 917.873,391.472L916.047,391.472Z" fill="#C0CCD8"/>
<path d="M976.314,385.006C976.04,385.098 975.747,385.152 975.455,385.152L930.661,385.171C929.73,385.171 928.853,384.659 928.378,383.855C927.903,383.051 927.903,382.047 928.378,381.225L950.756,342.423C951.231,341.619 952.09,341.107 953.022,341.107C953.953,341.107 954.83,341.601 955.305,342.423L977.72,381.206C978.195,382.01 978.195,383.015 977.72,383.837C977.392,384.403 976.898,384.805 976.314,385.006ZM931.885,381.827L974.213,381.809L953.04,345.163L931.885,381.827Z" fill="#C0CCD8"/>
<path d="M953.041,374.118C952.2,374.118 951.488,373.442 951.451,372.602L950.538,357.329C950.483,355.905 951.598,354.735 953.023,354.735C954.447,354.735 955.58,355.923 955.507,357.329L954.612,372.602C954.594,373.46 953.899,374.118 953.041,374.118Z" fill="#C0CCD8"/>
<path d="M954.666,377.808C954.666,378.703 953.936,379.415 953.059,379.415C952.164,379.415 951.451,378.685 951.451,377.808C951.451,376.931 952.182,376.2 953.059,376.2C953.936,376.2 954.666,376.913 954.666,377.808Z" fill="#C0CCD8"/>
<path d="M4.074,267.813L4.074,268.727L4.074,267.813ZM7.234,271.887C7.234,273.63 5.816,275.048 4.074,275.048L4.074,276.875C6.825,276.875 9.061,274.639 9.061,271.887L7.234,271.887ZM4.074,275.048C2.331,275.048 0.913,273.63 0.913,271.887L-0.913,271.887C-0.913,274.639 1.322,276.875 4.074,276.875L4.074,275.048ZM0.913,271.887C0.913,270.145 2.331,268.727 4.074,268.727L4.074,266.9C1.322,266.9 -0.913,269.136 -0.913,271.887L0.913,271.887ZM4.074,268.727C5.819,268.727 7.234,270.129 7.234,271.887L9.061,271.887C9.061,269.115 6.823,266.9 4.074,266.9L4.074,268.727Z" fill="#C0CCD8"/>
<path d="M687.985,484.859L687.985,483.946L687.985,484.859ZM691.145,488.933C691.145,490.676 689.728,492.094 687.985,492.094L687.985,493.92C690.736,493.92 692.972,491.685 692.972,488.933L691.145,488.933ZM687.985,492.094C686.242,492.094 684.825,490.676 684.825,488.933L682.998,488.933C682.998,491.685 685.234,493.92 687.985,493.92L687.985,492.094ZM684.825,488.933C684.825,487.191 686.242,485.773 687.985,485.773L687.985,483.946C685.234,483.946 682.998,486.182 682.998,488.933L684.825,488.933ZM687.985,485.773C689.728,485.773 691.145,487.191 691.145,488.933L692.972,488.933C692.972,486.182 690.736,483.946 687.985,483.946L687.985,485.773Z" fill="#C0CCD8"/>
<path d="M970.889,154.641C970.889,156.384 969.471,157.802 967.728,157.802L967.728,159.628C970.48,159.628 972.715,157.393 972.715,154.641L970.889,154.641ZM967.728,157.802C965.986,157.802 964.568,156.384 964.568,154.641L962.741,154.641C962.741,157.393 964.977,159.628 967.728,159.628L967.728,157.802ZM964.568,154.641C964.568,152.899 965.986,151.481 967.728,151.481L967.728,149.654C964.977,149.654 962.741,151.89 962.741,154.641L964.568,154.641ZM967.728,151.481C969.471,151.481 970.889,152.899 970.889,154.641L972.715,154.641C972.715,151.89 970.48,149.654 967.728,149.654L967.728,151.481Z" fill="#C0CCD8"/>
<path d="M751.157,28.736C751.157,30.478 749.739,31.896 747.997,31.896L747.997,33.723C750.748,33.723 752.984,31.487 752.984,28.736L751.157,28.736ZM747.997,31.896C746.254,31.896 744.836,30.478 744.836,28.736L743.009,28.736C743.009,31.487 745.245,33.723 747.997,33.723L747.997,31.896ZM744.836,28.736C744.836,26.993 746.254,25.576 747.997,25.576L747.997,23.749C745.245,23.749 743.009,25.984 743.009,28.736L744.836,28.736ZM747.997,25.576C749.739,25.576 751.157,26.993 751.157,28.736L752.984,28.736C752.984,25.984 750.748,23.749 747.997,23.749L747.997,25.576Z" fill="#C0CCD8"/>
<line x1="962.74" y1="287.78" x2="962.74" y2="300.385" stroke="#C0CCD8" stroke-width="0.913" stroke-miterlimit="10" stroke-linecap="round" stroke-linejoin="round"/>
<line x1="957.351" y1="293.17" x2="969.956" y2="293.17" stroke="#C0CCD8" stroke-width="0.913" stroke-miterlimit="10" stroke-linecap="round" stroke-linejoin="round"/>
<line x1="633.216" y1="530.621" x2="633.216" y2="543.226" stroke="#C0CCD8" stroke-width="0.913" stroke-miterlimit="10" stroke-linecap="round" stroke-linejoin="round"/>
<line x1="627.81" y1="536.01" x2="640.433" y2="536.01" stroke="#C0CCD8" stroke-width="0.913" stroke-miterlimit="10" stroke-linecap="round" stroke-linejoin="round"/>
<line x1="366.609" y1="5.48" x2="366.609" y2="18.086" stroke="#C0CCD8" stroke-width="0.913" stroke-miterlimit="10" stroke-linecap="round" stroke-linejoin="round"/>
<line x1="361.22" y1="10.87" x2="373.825" y2="10.87" stroke="#C0CCD8" stroke-width="0.913" stroke-miterlimit="10" stroke-linecap="round" stroke-linejoin="round"/>
<line x1="84.418" y1="127.33" x2="84.418" y2="139.935" stroke="#C0CCD8" stroke-width="0.913" stroke-miterlimit="10" stroke-linecap="round" stroke-linejoin="round"/>
<line x1="79.028" y1="132.719" x2="91.633" y2="132.719" stroke="#C0CCD8" stroke-width="0.913" stroke-miterlimit="10" stroke-linecap="round" stroke-linejoin="round"/>
<line x1="63.903" y1="417.559" x2="63.903" y2="430.164" stroke="#C0CCD8" stroke-width="0.913" stroke-miterlimit="10" stroke-linecap="round" stroke-linejoin="round"/>
<line x1="58.514" y1="422.948" x2="71.119" y2="422.948" stroke="#C0CCD8" stroke-width="0.913" stroke-miterlimit="10" stroke-linecap="round" stroke-linejoin="round"/>
<line x1="778.468" y1="76.854" x2="778.468" y2="89.46" stroke="#C0CCD8" stroke-width="0.913" stroke-miterlimit="10" stroke-linecap="round" stroke-linejoin="round"/>
<line x1="773.079" y1="82.244" x2="785.684" y2="82.244" stroke="#C0CCD8" stroke-width="0.913" stroke-miterlimit="10" stroke-linecap="round" stroke-linejoin="round"/>
<path d="M158.606,344.869L32.463,344.869L32.463,346.696L158.606,346.696L158.606,344.869ZM32.463,344.869C30.76,344.869 29.394,343.49 29.394,341.8L27.567,341.8C27.567,344.494 29.745,346.696 32.463,346.696L32.463,344.869ZM29.394,341.8C29.394,340.097 30.773,338.731 32.463,338.731L32.463,336.904C29.769,336.904 27.567,339.082 27.567,341.8L29.394,341.8ZM32.463,338.731L158.606,338.731L158.606,336.904L32.463,336.904L32.463,338.731ZM158.606,338.731C160.309,338.731 161.675,340.109 161.675,341.8L163.502,341.8C163.502,339.106 161.323,336.904 158.606,336.904L158.606,338.731ZM161.675,341.8C161.675,343.503 160.296,344.869 158.606,344.869L158.606,346.696C161.3,346.696 163.502,344.518 163.502,341.8L161.675,341.8Z" fill="#C0CCD8"/>
<path d="M905.305,241.068L904.392,241.068L904.392,241.076L905.305,241.068ZM901.322,244.138L775.18,244.138L775.18,245.964L901.322,245.964L901.322,244.138ZM775.18,244.138C773.476,244.138 772.111,242.759 772.111,241.068L770.284,241.068C770.284,243.762 772.462,245.964 775.18,245.964L775.18,244.138ZM772.111,241.068C772.111,239.365 773.489,237.999 775.18,237.999L775.18,236.173C772.486,236.173 770.284,238.351 770.284,241.068L772.111,241.068ZM775.18,237.999L901.322,237.999L901.322,236.173L775.18,236.173L775.18,237.999ZM901.322,237.999C903.026,237.999 904.392,239.378 904.392,241.068L906.218,241.068C906.218,238.375 904.04,236.173 901.322,236.173L901.322,237.999ZM904.392,241.076C904.406,242.769 903.035,244.138 901.322,244.138L901.322,245.964C904.03,245.964 906.241,243.789 906.218,241.061L904.392,241.076Z" fill="#C0CCD8"/>
<path d="M919.792,271.887L873.153,271.887C872.057,271.887 871.162,270.992 871.162,269.896C871.162,268.799 872.057,267.904 873.153,267.904L919.792,267.904C920.889,267.904 921.784,268.799 921.784,269.896C921.784,270.992 920.889,271.887 919.792,271.887Z" fill="#C0CCD8"/>
<path d="M796.389,176.818L749.75,176.818C748.654,176.818 747.759,175.923 747.759,174.827C747.759,173.731 748.654,172.836 749.75,172.836L796.389,172.836C797.485,172.836 798.38,173.731 798.38,174.827C798.38,175.923 797.485,176.818 796.389,176.818Z" fill="#C0CCD8"/>
<path d="M111.711,310.524L76.051,310.524C74.955,310.524 74.06,309.629 74.06,308.533C74.06,307.437 74.955,306.542 76.051,306.542L111.729,306.542C112.825,306.542 113.72,307.437 113.72,308.533C113.72,309.629 112.825,310.524 111.711,310.524Z" fill="#C0CCD8"/>
<path d="M824.925,127.696L824.011,127.696L824.011,127.7L824.925,127.696ZM831.684,135.369L870.303,135.369L870.303,133.542L831.684,133.542L831.684,135.369ZM870.303,135.369C874.535,135.369 877.976,131.927 877.976,127.696L876.149,127.696C876.149,130.918 873.526,133.542 870.303,133.542L870.303,135.369ZM877.976,127.696L877.976,89.077L876.149,89.077L876.149,127.696L877.976,127.696ZM877.976,89.077C877.976,84.845 874.535,81.404 870.303,81.404L870.303,83.231C873.526,83.231 876.149,85.854 876.149,89.077L877.976,89.077ZM870.303,81.404L831.684,81.404L831.684,83.231L870.303,83.231L870.303,81.404ZM831.684,81.404C827.453,81.404 824.011,84.845 824.011,89.077L825.838,89.077C825.838,85.854 828.462,83.231 831.684,83.231L831.684,81.404ZM824.011,89.077L824.011,127.696L825.838,127.696L825.838,89.077L824.011,89.077ZM824.011,127.7C824.032,131.944 827.45,135.369 831.684,135.369L831.684,133.542C828.464,133.542 825.854,130.938 825.838,127.691L824.011,127.7Z" fill="#C0CCD8"/>
<path d="M858.392,106.194L857.478,110.67L862.465,110.67L862.465,114.653L856.729,114.653L855.249,122.49L851.011,122.49L852.509,114.653L847.029,114.653L845.567,122.49L841.42,122.49L842.845,114.653L838.26,114.653L838.26,110.67L843.612,110.67L844.526,106.194L839.666,106.194L839.666,102.157L845.238,102.157L846.718,94.302L850.938,94.302L849.458,102.157L855.03,102.157L856.528,94.302L860.675,94.302L859.177,102.157L863.817,102.157L863.817,106.194L858.392,106.194L858.392,106.194ZM847.759,110.67L853.276,110.67L854.19,106.194L848.673,106.194L847.759,110.67Z" fill="#C0CCD8"/>
<path d="M411.968,495.144L375.341,254.934L210.378,254.934L249.911,509.484C252.596,526.73 266.973,538.878 284.73,538.878L562.116,538.878L564.162,515.55L436.064,515.55C423.752,515.55 413.796,507.11 411.968,495.144Z" fill="#475577"/>
<path d="M255.848,495.143L220.572,263.812C219.769,258.605 215.439,254.915 210.068,254.915L209.739,254.915C202.231,254.915 196.075,261.948 197.207,269.256L234.529,509.465C237.215,526.711 251.592,538.859 269.349,538.859L447.994,538.859L450.04,515.531L279.926,515.531C267.632,515.549 257.675,507.109 255.848,495.143Z" fill="#717A91"/>
<line x1="366.153" y1="538.877" x2="366.153" y2="669.989" stroke="#544943" stroke-width="1.37" stroke-miterlimit="10"/>
<path d="M295.382,681.571C295.382,675.934 299.957,671.359 305.594,671.359L305.594,668.619C298.443,668.619 292.642,674.421 292.642,681.571L295.382,681.571ZM305.594,671.359L429.435,671.359L429.435,668.619L305.594,668.619L305.594,671.359ZM429.435,671.359C435.072,671.359 439.647,675.934 439.647,681.571L442.387,681.571C442.387,674.421 436.585,668.619 429.435,668.619L429.435,671.359Z" fill="#544943"/>
<path d="M356.216,681.571C356.216,675.934 360.791,671.359 366.428,671.359L366.428,668.619C359.277,668.619 353.476,674.421 353.476,681.571L356.216,681.571Z" fill="#544943"/>
<path d="M305.704,693.263C305.704,699.73 300.461,704.955 294.012,704.955C287.545,704.955 282.32,699.712 282.32,693.263C282.32,686.796 287.563,681.571 294.012,681.571C300.479,681.571 305.704,686.814 305.704,693.263Z" fill="#717A91"/>
<g opacity="0.45">
<g opacity="0.45">
<path d="M298.305,693.263C298.305,695.638 296.387,697.556 294.012,697.556C291.637,697.556 289.719,695.638 289.719,693.263C289.719,690.888 291.637,688.97 294.012,688.97C296.387,688.97 298.305,690.906 298.305,693.263Z" fill="#8E9DB2"/>
</g>
</g>
<path d="M366.537,693.263C366.537,699.73 361.294,704.955 354.845,704.955C348.378,704.955 343.153,699.712 343.153,693.263C343.153,686.796 348.396,681.571 354.845,681.571C361.312,681.571 366.537,686.814 366.537,693.263Z" fill="#717A91"/>
<g opacity="0.45">
<g opacity="0.45">
<path d="M359.139,693.264C359.139,695.639 357.221,697.557 354.846,697.557C352.471,697.557 350.553,695.639 350.553,693.264C350.553,690.889 352.471,688.971 354.846,688.971C357.221,688.971 359.139,690.907 359.139,693.264Z" fill="#8E9DB2"/>
</g>
</g>
<path d="M452.71,693.263C452.71,699.73 447.467,704.955 441.018,704.955C434.551,704.955 429.326,699.712 429.326,693.263C429.326,686.796 434.569,681.571 441.018,681.571C447.485,681.571 452.71,686.814 452.71,693.263Z" fill="#717A91"/>
<g opacity="0.45">
<g opacity="0.45">
<path d="M445.311,693.263C445.311,695.638 443.393,697.556 441.018,697.556C438.643,697.556 436.725,695.638 436.725,693.263C436.725,690.888 438.643,688.97 441.018,688.97C443.393,688.97 445.311,690.906 445.311,693.263Z" fill="#8E9DB2"/>
</g>
</g>
<path d="M496.441,280.71L538.258,218.251L551.21,220.955C541.308,254.294 534.768,267.484 534.768,267.484Z" fill="#FFCBBB"/>
<path d="M544.542,231.295L551.21,220.955C551.21,220.955 563.614,218.105 568.127,215.803C572.639,213.502 575.635,209.428 576.895,205.975C577.864,203.326 577.444,195.58 576.311,195.453C573.644,195.16 568.328,205.098 565.825,205.683C563.34,206.267 555.248,205.665 550.808,206.249C543.337,207.236 540.176,214.232 540.176,214.232L533.344,226.637Z" fill="#FFCBBB"/>
<path d="M523.771,236.537L531.114,225.905L550.095,234.418L544.067,250.586Z" fill="#E6E8EF"/>
<path d="M371.23,214.269C371.23,214.269 402.195,200.02 429.452,224.28C456.726,248.54 475.177,271.065 485.188,278.373L526.274,231.112L549.219,241.891C543.172,276.107 526.182,330.693 484.64,336.32C439.682,342.403 373.751,286.977 373.751,286.977Z" fill="#F04365"/>
<path d="M472.549,294.675L485.885,278.964L484.492,277.782L471.156,293.493L472.549,294.675Z" fill="#846A6A"/>
<path d="M537.527,685.207L534.056,698.561C533.216,701.795 535.664,704.973 539.007,704.973L579.453,704.973C581.883,704.973 583.856,703 583.856,700.571C583.856,698.653 582.613,696.954 580.786,696.369L553.147,685.207Z" fill="#173789"/>
<path d="M514.217,476.693C507.75,544.56 537.527,685.207 537.527,685.207C537.527,685.207 544.597,693.757 553.147,685.207C553.147,685.207 560.326,551.1 567.871,490.815Z" fill="#FFCBBB"/>
<path d="M417.742,397.207L464.161,421.559L464.161,422.034C464.161,422.034 558.882,415.676 573.224,449.491C595.658,502.451 599.476,674.685 599.476,674.685L530.147,674.685C530.147,674.685 504.352,530.018 495.528,521.194C486.704,512.37 450.332,513.028 383.434,513.028C308.296,513.028 344.979,416.151 372.948,407.839Z" fill="#01008A"/>
<path d="M499.182,514.435L498.647,515.175L498.647,515.176L499.182,514.435ZM534.933,674.667C535.838,674.542 535.838,674.541 535.838,674.54C535.838,674.539 535.837,674.537 535.837,674.535C535.836,674.53 535.836,674.523 535.834,674.514C535.832,674.496 535.828,674.469 535.823,674.433C535.813,674.361 535.798,674.254 535.778,674.112C535.739,673.829 535.68,673.408 535.603,672.86C535.448,671.763 535.219,670.153 534.922,668.1C534.329,663.994 533.464,658.117 532.38,651.031C530.21,636.859 527.16,617.847 523.635,598.491C520.112,579.139 516.111,559.425 512.041,543.857C510.006,536.075 507.949,529.306 505.917,524.128C504.901,521.54 503.884,519.329 502.869,517.58C501.865,515.848 500.82,514.491 499.717,513.695L498.647,515.176C499.438,515.747 500.328,516.839 501.289,518.496C502.24,520.136 503.219,522.255 504.216,524.796C506.21,529.876 508.247,536.566 510.274,544.319C514.326,559.82 518.317,579.48 521.838,598.818C525.358,618.152 528.406,637.146 530.574,651.308C531.658,658.388 532.521,664.26 533.114,668.361C533.411,670.412 533.639,672.02 533.794,673.115C533.871,673.663 533.93,674.082 533.969,674.364C533.989,674.505 534.004,674.612 534.013,674.684C534.018,674.72 534.022,674.747 534.025,674.765C534.026,674.774 534.027,674.78 534.027,674.785C534.028,674.787 534.028,674.789 534.028,674.79C534.028,674.791 534.028,674.792 534.933,674.667ZM499.717,513.695C497.268,511.923 493.75,510.562 489.55,509.51C485.334,508.455 480.358,507.693 474.939,507.16C464.101,506.093 451.411,505.931 439.325,506.187C427.234,506.443 415.725,507.118 407.24,507.729C402.996,508.034 399.508,508.323 397.08,508.536C395.866,508.643 394.917,508.73 394.272,508.791C393.949,508.821 393.701,508.845 393.535,508.861C393.451,508.869 393.388,508.876 393.346,508.88C393.325,508.882 393.309,508.883 393.298,508.885C393.292,508.885 393.288,508.885 393.285,508.886C393.284,508.886 393.283,508.886 393.282,508.886C393.282,508.886 393.281,508.886 393.372,509.795C393.463,510.704 393.463,510.704 393.464,510.704C393.464,510.704 393.465,510.704 393.467,510.704C393.469,510.703 393.473,510.703 393.478,510.702C393.489,510.701 393.504,510.7 393.525,510.698C393.567,510.694 393.629,510.688 393.711,510.68C393.876,510.663 394.122,510.64 394.443,510.61C395.085,510.549 396.03,510.462 397.24,510.356C399.66,510.144 403.138,509.855 407.371,509.551C415.836,508.942 427.313,508.269 439.364,508.014C451.419,507.758 464.026,507.921 474.76,508.978C480.128,509.506 485.007,510.256 489.106,511.283C493.219,512.313 496.474,513.604 498.647,515.175L499.717,513.695Z" fill="#CE680D"/>
<path d="M392.148,685.207L388.677,698.561C387.837,701.795 390.285,704.973 393.628,704.973L434.074,704.973C436.504,704.973 438.477,703 438.477,700.571C438.477,698.653 437.234,696.954 435.408,696.369L407.768,685.207Z" fill="#173789"/>
<path d="M398.889,476.693C392.422,544.56 392.148,685.207 392.148,685.207C392.148,685.207 399.218,693.757 407.768,685.207C407.768,685.207 432.101,551.1 439.664,490.815Z" fill="#FFCBBB"/>
<path d="M335.863,418.508C335.863,418.508 457.621,420.463 473.551,457.365C493.136,502.725 460.855,674.666 460.855,674.666L387.471,674.666L387.471,520.847C387.471,517.869 385.133,515.184 382.155,515.275C371.998,515.549 349.308,515.549 320.518,515.549C245.38,515.549 282.063,398.614 310.032,390.302Z" fill="#01008A"/>
<path d="M473.552,457.366L472.713,457.728L472.713,457.728L473.552,457.366ZM335.863,418.509C335.849,419.422 335.849,419.422 335.85,419.422C335.851,419.422 335.852,419.422 335.854,419.422C335.857,419.422 335.863,419.422 335.87,419.422C335.884,419.423 335.906,419.423 335.935,419.424C335.993,419.425 336.079,419.426 336.194,419.429C336.423,419.434 336.765,419.441 337.211,419.453C338.103,419.476 339.416,419.515 341.092,419.578C344.445,419.703 349.255,419.923 355.078,420.302C366.724,421.061 382.412,422.456 398.592,425.001C414.779,427.548 431.418,431.239 444.983,436.576C458.6,441.934 468.885,448.86 472.713,457.728L474.39,457.004C470.253,447.42 459.344,440.264 445.652,434.876C431.907,429.468 415.119,425.752 398.876,423.197C382.624,420.64 366.877,419.24 355.196,418.479C349.355,418.099 344.528,417.878 341.16,417.752C339.476,417.689 338.157,417.65 337.258,417.627C336.809,417.615 336.465,417.607 336.232,417.602C336.116,417.6 336.028,417.598 335.968,417.597C335.939,417.597 335.916,417.596 335.901,417.596C335.894,417.596 335.888,417.596 335.884,417.596C335.882,417.596 335.881,417.596 335.88,417.596C335.879,417.596 335.878,417.595 335.863,418.509ZM472.713,457.728C477.948,469.834 480.711,490.606 479.289,515.498L481.113,515.602C482.542,490.586 479.787,469.486 474.39,457.003L472.713,457.728Z" fill="#01008A"/>
<path d="M394.889,512.005L395.729,511.645L395.728,511.644L394.889,512.005ZM397.684,674.666C398.598,674.672 398.598,674.67 398.598,674.67C398.598,674.668 398.598,674.666 398.598,674.664C398.598,674.66 398.598,674.652 398.598,674.642C398.598,674.624 398.598,674.596 398.598,674.56C398.599,674.484 398.599,674.374 398.6,674.228C398.601,673.936 398.603,673.5 398.605,672.934C398.61,671.802 398.616,670.138 398.623,668.018C398.636,663.78 398.652,657.716 398.659,650.412C398.674,635.808 398.657,616.246 398.529,596.426C398.401,576.608 398.163,556.526 397.734,540.88C397.52,533.058 397.258,526.336 396.938,521.307C396.779,518.794 396.604,516.693 396.412,515.085C396.225,513.524 396.011,512.303 395.729,511.645L394.05,512.366C394.211,512.74 394.406,513.693 394.598,515.301C394.784,516.861 394.956,518.924 395.115,521.423C395.433,526.419 395.694,533.115 395.908,540.93C396.336,556.557 396.574,576.624 396.702,596.438C396.83,616.252 396.847,635.808 396.832,650.412C396.825,657.712 396.81,663.776 396.796,668.014C396.789,670.132 396.783,671.794 396.778,672.926C396.776,673.494 396.774,673.928 396.773,674.22C396.772,674.366 396.772,674.476 396.771,674.55C396.771,674.588 396.771,674.616 396.771,674.634C396.771,674.644 396.771,674.65 396.771,674.656C396.771,674.658 396.771,674.66 396.771,674.66C396.771,674.662 396.771,674.662 397.684,674.666ZM395.728,511.644C394.391,508.54 392.221,506.573 389.12,505.408C386.079,504.264 382.155,503.895 377.285,503.883C372.405,503.87 366.455,504.218 359.331,504.565C352.195,504.913 343.844,505.264 334.11,505.264L334.11,507.091C343.888,507.091 352.273,506.739 359.42,506.39C366.58,506.04 372.461,505.697 377.281,505.71C382.111,505.722 385.758,506.095 388.477,507.117C391.139,508.118 392.921,509.744 394.05,512.367L395.728,511.644ZM334.11,505.264C315.569,505.264 303.696,498.644 296.637,488.712C289.544,478.732 287.21,465.264 288.082,451.414C288.953,437.577 293.02,423.471 298.597,412.323C301.385,406.75 304.538,401.94 307.837,398.279C311.145,394.608 314.547,392.15 317.82,391.177L317.299,389.426C313.58,390.532 309.906,393.253 306.48,397.056C303.045,400.868 299.805,405.825 296.963,411.505C291.281,422.863 287.146,437.207 286.258,451.299C285.372,465.38 287.723,479.322 295.148,489.77C302.607,500.266 315.084,507.091 334.11,507.091L334.11,505.264Z" fill="#01008A"/>
<path d="M289.078,437.307C289.056,438.22 289.056,438.22 289.057,438.22C289.057,438.22 289.057,438.22 289.058,438.22C289.059,438.22 289.061,438.22 289.064,438.22C289.069,438.22 289.076,438.22 289.085,438.221C289.104,438.221 289.132,438.222 289.169,438.222C289.243,438.224 289.353,438.226 289.495,438.229C289.781,438.234 290.2,438.242 290.735,438.249C291.805,438.263 293.34,438.276 295.199,438.274C298.916,438.27 303.936,438.204 309.142,437.954C314.343,437.705 319.752,437.271 324.24,436.528C326.483,436.156 328.519,435.704 330.194,435.149C331.843,434.603 333.252,433.924 334.135,433.037L332.842,431.748C332.268,432.323 331.196,432.893 329.62,433.415C328.07,433.928 326.135,434.362 323.942,434.725C319.556,435.452 314.227,435.881 309.054,436.129C303.886,436.377 298.896,436.444 295.197,436.448C293.348,436.45 291.822,436.436 290.759,436.422C290.228,436.415 289.813,436.408 289.53,436.402C289.389,436.4 289.281,436.398 289.209,436.396C289.173,436.395 289.145,436.395 289.127,436.394C289.118,436.394 289.111,436.394 289.107,436.394C289.104,436.394 289.103,436.394 289.102,436.394C289.101,436.394 289.101,436.394 289.1,436.394C289.1,436.394 289.1,436.394 289.078,437.307ZM334.135,433.037C335.007,432.163 335.612,430.957 336.034,429.595C336.459,428.227 336.717,426.642 336.857,424.949C337.137,421.564 336.949,417.643 336.583,413.943C336.216,410.236 335.665,406.718 335.207,404.129C334.978,402.834 334.772,401.769 334.623,401.027C334.548,400.656 334.488,400.366 334.446,400.168C334.425,400.069 334.409,399.993 334.398,399.941C334.392,399.915 334.388,399.896 334.385,399.882C334.384,399.876 334.383,399.871 334.382,399.867C334.381,399.865 334.381,399.864 334.381,399.863C334.381,399.863 334.381,399.862 334.381,399.862C334.381,399.862 334.381,399.861 333.488,400.058C332.596,400.254 332.596,400.254 332.596,400.254C332.596,400.254 332.596,400.254 332.597,400.255C332.597,400.255 332.597,400.256 332.597,400.258C332.598,400.261 332.599,400.265 332.6,400.271C332.603,400.283 332.607,400.302 332.612,400.326C332.623,400.375 332.638,400.449 332.659,400.545C332.699,400.738 332.759,401.023 332.832,401.387C332.979,402.117 333.182,403.168 333.409,404.447C333.861,407.007 334.404,410.477 334.765,414.123C335.127,417.776 335.303,421.573 335.037,424.799C334.903,426.411 334.661,427.855 334.289,429.054C333.915,430.26 333.427,431.16 332.842,431.748L334.135,433.037Z" fill="#01008A"/>
<path d="M338.842,437.58L338.24,436.893L338.842,437.58ZM288.129,442.494C288.11,443.408 288.11,443.408 288.11,443.408C288.11,443.408 288.11,443.408 288.11,443.408C288.11,443.408 288.11,443.408 288.11,443.408C288.11,443.408 288.11,443.408 288.11,443.408C288.111,443.408 288.112,443.408 288.113,443.408C288.115,443.408 288.117,443.408 288.121,443.408C288.128,443.408 288.139,443.408 288.154,443.408C288.183,443.409 288.226,443.41 288.283,443.411C288.396,443.413 288.564,443.416 288.782,443.419C289.219,443.426 289.858,443.435 290.667,443.443L290.684,441.616C289.879,441.609 289.245,441.6 288.811,441.593C288.595,441.589 288.429,441.586 288.317,441.584C288.261,441.583 288.219,441.583 288.19,441.582C288.176,441.582 288.166,441.581 288.159,441.581C288.155,441.581 288.152,441.581 288.151,441.581C288.15,441.581 288.149,441.581 288.149,441.581C288.149,441.581 288.148,441.581 288.148,441.581C288.148,441.581 288.148,441.581 288.148,441.581C288.148,441.581 288.148,441.581 288.148,441.581C288.148,441.581 288.148,441.581 288.129,442.494ZM295.82,443.461C297.379,443.457 299.116,443.444 300.975,443.418L300.948,441.591C299.098,441.617 297.368,441.63 295.815,441.634L295.82,443.461ZM306.126,443.311C307.805,443.265 309.533,443.206 311.278,443.131L311.199,441.306C309.465,441.38 307.746,441.439 306.076,441.485L306.126,443.311ZM316.428,442.862C318.168,442.754 319.895,442.626 321.576,442.477L321.415,440.657C319.752,440.805 318.041,440.931 316.314,441.039L316.428,442.862ZM326.722,441.925C328.555,441.689 330.283,441.417 331.849,441.103L331.491,439.312C329.976,439.615 328.292,439.881 326.489,440.113L326.722,441.925ZM336.973,439.678C337.958,439.281 338.814,438.82 339.444,438.267L338.24,436.893C337.828,437.255 337.184,437.624 336.291,437.983L336.973,439.678ZM339.444,438.267C340.216,437.591 340.808,436.707 341.261,435.704L339.596,434.951C339.22,435.784 338.767,436.431 338.24,436.893L339.444,438.267ZM342.575,430.018C342.737,428.231 342.752,426.304 342.67,424.347L340.845,424.423C340.925,426.325 340.908,428.168 340.756,429.853L342.575,430.018ZM342.21,418.741C341.982,416.797 341.7,414.911 341.408,413.193L339.607,413.498C339.895,415.192 340.172,417.046 340.395,418.953L342.21,418.741ZM340.352,407.696C340.17,406.85 340.014,406.17 339.904,405.7C339.849,405.466 339.805,405.284 339.775,405.16C339.76,405.098 339.748,405.05 339.74,405.018C339.736,405.002 339.733,404.99 339.731,404.981C339.73,404.977 339.729,404.974 339.729,404.972C339.728,404.971 339.728,404.97 339.728,404.969C339.728,404.969 339.728,404.968 339.728,404.968C339.728,404.968 339.728,404.968 339.728,404.968C339.728,404.968 339.728,404.968 339.728,404.968C339.728,404.968 339.728,404.968 338.842,405.19C337.956,405.413 337.956,405.413 337.956,405.413C337.956,405.413 337.956,405.413 337.956,405.413C337.956,405.413 337.956,405.413 337.956,405.413C337.956,405.413 337.956,405.413 337.956,405.413C337.956,405.414 337.956,405.414 337.957,405.415C337.957,405.417 337.958,405.42 337.959,405.423C337.96,405.431 337.963,405.442 337.967,405.457C337.974,405.487 337.985,405.532 338,405.592C338.029,405.711 338.072,405.888 338.126,406.118C338.233,406.577 338.386,407.246 338.565,408.08L340.352,407.696Z" fill="#01008A"/>
<path d="M280.693,257.783C280.693,257.783 271.449,422.016 285.443,422.016C299.436,422.016 455.027,421.54 464.143,421.54C473.259,421.54 451.922,281.094 421.195,251.426C421.195,251.426 375.615,201.973 355.538,206.705C335.443,211.455 280.693,257.783 280.693,257.783Z" fill="#F04365"/>
<path d="M455.165,332.267L435.838,253.073L434.063,253.507L453.391,332.7L455.165,332.267Z" fill="#846A6A"/>
<path d="M201.994,287.524L160.178,225.064L147.226,227.768C157.127,261.108 163.667,274.298 163.667,274.298Z" fill="#FFCBBB"/>
<path d="M153.893,238.109L147.225,227.769C147.225,227.769 134.821,224.919 130.308,222.617C125.796,220.315 122.8,216.241 121.539,212.789C120.571,210.14 120.991,202.394 122.124,202.266C124.791,201.974 130.107,211.912 132.61,212.496C135.095,213.081 143.169,212.478 147.627,213.063C155.098,214.049 158.259,221.046 158.259,221.046L165.091,233.45Z" fill="#FFCBBB"/>
<path d="M174.663,243.351L167.32,232.719L148.339,241.232L154.367,257.399Z" fill="#E6E8EF"/>
<path d="M338.201,215.218C338.201,215.218 307.602,193.461 276.016,220.187C246.567,245.087 226.947,295.343 220.371,295.343C215.803,295.343 187.469,259.209 170.553,237.104L150.439,247.864C163.118,286.575 190.758,352.432 232.117,352.432C264.562,352.432 331.204,276.417 331.204,276.417Z" fill="#F04365"/>
<path d="M278.61,328.8L327.935,287.678L326.765,286.275L277.44,327.397L278.61,328.8Z" fill="#846A6A"/>
<path d="M341.144,219.091L370.537,250.586L374.392,214.177Z" fill="#E6E8EF" stroke="#846A6A" stroke-width="0.913" stroke-miterlimit="10" stroke-linejoin="round"/>
<path d="M364.746,187.287L373.022,205.409C373.022,205.409 376.347,215.785 362.572,220.498C347.464,225.65 338.202,215.201 338.202,215.201L336.028,186.757Z" fill="#FFCBBB"/>
<path d="M337.398,204.86C337.398,204.86 348.286,218.489 362.572,220.516L352.195,235.917C343.792,231.185 333.507,212.807 333.507,212.807L337.398,204.86Z" fill="#FFFFFF"/>
<path d="M372.163,202.924C372.163,202.924 370.428,212.661 362.572,220.498L374.392,229.431C377.114,222.745 376.803,212.332 376.803,212.332L372.163,202.924Z" fill="#FFFFFF"/>
<path d="M377.004,158.021C377.004,158.021 384.805,187.908 373.095,195.471C361.366,203.034 340.979,191.525 339.81,187.78C338.641,184.035 333.306,152.12 340.961,149.727C354.552,145.47 373.022,145.288 377.004,158.021Z" fill="#FFCBBB"/>
<path d="M376.747,167.721C376.948,168.543 376.437,169.365 375.615,169.548C374.793,169.749 373.971,169.238 373.788,168.415C373.587,167.593 374.098,166.771 374.92,166.589C375.743,166.388 376.565,166.899 376.747,167.721Z" fill="#173789"/>
<path d="M374.135,158.824C374.647,158.897 376.949,159.134 376.455,160.267C376.236,160.779 375.432,160.76 374.994,160.724C374.519,160.706 374.044,160.632 373.605,160.779C373.733,160.906 373.825,161.071 373.898,161.235C374.044,161.582 372.911,161.619 372.783,161.619C371.651,161.619 370.299,161.418 368.929,162.331C369.824,159.098 373.313,158.696 374.135,158.824Z" fill="#173789"/>
<path d="M357.967,171.867C358.022,172.707 358.734,173.347 359.575,173.31C360.415,173.255 361.054,172.543 361.018,171.703C360.963,170.862 360.251,170.223 359.41,170.259C358.57,170.296 357.912,171.027 357.967,171.867Z" fill="#173789"/>
<path d="M353.455,165.821C352.359,166.406 351.428,167.209 351.683,168.123C351.884,168.854 352.597,168.671 353.053,168.306C353.802,167.721 354.643,167.264 355.556,166.972C355.154,167.301 354.917,167.831 354.953,168.342C357.803,168.068 360.288,165.602 360.598,162.752C360.58,162.953 358.735,164.086 358.461,164.213C356.835,164.981 355.045,164.962 353.455,165.821Z" fill="#173789"/>
<path d="M369.166,169.511C368.318,169.848 368.318,169.848 368.318,169.848C368.318,169.848 368.318,169.848 368.318,169.848C368.318,169.848 368.318,169.849 368.318,169.849C368.319,169.85 368.319,169.852 368.32,169.855C368.322,169.859 368.325,169.866 368.329,169.876C368.336,169.895 368.348,169.924 368.362,169.962C368.392,170.037 368.435,170.149 368.49,170.291C368.6,170.576 368.755,170.985 368.937,171.479C369.301,172.468 369.77,173.792 370.192,175.141C370.617,176.497 370.983,177.845 371.155,178.892C371.242,179.421 371.27,179.823 371.25,180.091C371.225,180.434 371.147,180.272 371.372,180.133L372.332,181.687C372.926,181.32 373.042,180.631 373.072,180.226C373.108,179.745 373.054,179.178 372.958,178.596C372.765,177.42 372.368,175.974 371.936,174.595C371.502,173.208 371.022,171.853 370.651,170.848C370.466,170.344 370.307,169.927 370.195,169.635C370.139,169.489 370.094,169.374 370.064,169.296C370.048,169.257 370.036,169.226 370.028,169.206C370.024,169.195 370.021,169.188 370.019,169.182C370.018,169.179 370.017,169.177 370.016,169.176C370.016,169.175 370.016,169.175 370.016,169.174C370.016,169.174 370.016,169.174 370.015,169.174C370.015,169.174 370.015,169.174 369.166,169.511ZM371.372,180.133C371.165,180.261 370.716,180.403 370.03,180.517C369.378,180.626 368.623,180.693 367.895,180.733C367.169,180.773 366.486,180.786 365.983,180.788C365.732,180.789 365.527,180.788 365.386,180.786C365.315,180.785 365.26,180.784 365.223,180.784C365.205,180.783 365.191,180.783 365.182,180.783C365.178,180.783 365.174,180.783 365.172,180.783C365.171,180.783 365.171,180.783 365.17,180.783C365.17,180.783 365.17,180.783 365.17,180.783C365.17,180.783 365.17,180.783 365.17,180.783C365.17,180.783 365.17,180.783 365.147,181.696C365.125,182.609 365.125,182.609 365.125,182.609C365.125,182.609 365.126,182.609 365.126,182.609C365.126,182.609 365.126,182.609 365.127,182.609C365.128,182.609 365.129,182.609 365.13,182.609C365.133,182.609 365.137,182.609 365.143,182.609C365.154,182.609 365.169,182.61 365.19,182.61C365.23,182.611 365.289,182.612 365.364,182.613C365.514,182.615 365.729,182.616 365.991,182.615C366.514,182.613 367.23,182.6 367.995,182.558C368.757,182.515 369.586,182.443 370.33,182.319C371.04,182.201 371.799,182.016 372.332,181.687L371.372,180.133Z" fill="#EF977F"/>
<path d="M369.312,197.206C368.983,196.354 368.984,196.354 368.984,196.354C368.984,196.354 368.984,196.353 368.984,196.353C368.985,196.353 368.984,196.353 368.984,196.354C368.984,196.354 368.983,196.354 368.981,196.355C368.977,196.356 368.971,196.359 368.961,196.362C368.943,196.369 368.913,196.38 368.873,196.394C368.792,196.422 368.669,196.464 368.506,196.516C368.181,196.619 367.699,196.759 367.085,196.903C365.857,197.191 364.11,197.493 362.049,197.544C357.93,197.645 352.582,196.744 347.577,192.747L346.437,194.175C351.863,198.508 357.668,199.479 362.094,199.37C364.305,199.316 366.179,198.992 367.503,198.681C368.166,198.526 368.692,198.373 369.057,198.258C369.24,198.2 369.382,198.152 369.48,198.117C369.529,198.1 369.568,198.086 369.595,198.076C369.608,198.071 369.619,198.067 369.627,198.064C369.631,198.062 369.634,198.061 369.636,198.06C369.638,198.06 369.639,198.059 369.639,198.059C369.64,198.059 369.64,198.058 369.641,198.058C369.641,198.058 369.641,198.058 369.312,197.206Z" fill="#EF977F"/>
<path d="M362.572,190.19C363.463,190.394 363.462,190.395 363.462,190.396C363.462,190.396 363.462,190.396 363.462,190.397C363.462,190.398 363.462,190.398 363.462,190.399C363.461,190.4 363.461,190.401 363.461,190.402C363.46,190.403 363.46,190.404 363.46,190.403C363.461,190.402 363.462,190.397 363.465,190.388C363.47,190.37 363.48,190.337 363.496,190.291C363.528,190.199 363.583,190.056 363.672,189.879C363.851,189.525 364.161,189.036 364.682,188.541C365.704,187.569 367.632,186.482 371.231,186.482L371.231,184.655C367.231,184.655 364.83,185.879 363.422,187.217C362.728,187.878 362.299,188.545 362.041,189.057C361.912,189.314 361.825,189.532 361.77,189.692C361.742,189.773 361.721,189.839 361.707,189.889C361.7,189.914 361.695,189.934 361.691,189.951C361.689,189.959 361.687,189.966 361.685,189.972C361.685,189.975 361.684,189.977 361.683,189.98C361.683,189.981 361.683,189.982 361.683,189.983C361.683,189.984 361.682,189.984 361.682,189.985C361.682,189.985 361.682,189.986 362.572,190.19Z" fill="#EF977F"/>
<path d="M383.617,141.981C383.489,140.556 383.27,139.039 382.283,138.016C381.169,136.829 379.36,136.591 377.734,136.573C371.998,136.537 366.28,138.364 361.622,141.707C362.9,140.592 364.161,139.496 365.44,138.382C366.444,137.505 368.71,136.117 367.614,134.472C366.664,133.029 363.942,133.851 362.553,133.833C356.013,133.76 349.711,136.08 343.682,138.4C340.705,139.533 337.727,140.702 335.041,142.401C332.356,144.1 329.963,146.42 328.666,149.324C327.533,151.864 327.314,154.732 327.332,157.509C327.369,162.514 328.154,167.483 328.94,172.434C329.798,177.823 331.095,188.455 338.33,189.113C339.736,189.241 341.271,189.332 342.422,188.492C343.554,187.67 343.938,186.19 344.121,184.802C344.395,182.555 344.23,180.253 343.7,178.061C345.052,178.791 346.349,180.034 347.866,179.796C348.377,179.723 348.889,179.449 349.053,178.974C349.163,178.663 349.126,178.335 349.09,178.006C348.523,172.836 348.213,167.702 347.884,162.514C355.301,160.943 362.754,159.591 370.263,158.459C373.587,157.965 377.113,157.417 379.689,155.262C383.398,152.193 384.019,146.767 383.617,141.981Z" fill="#173789"/>
<path d="M345.29,180.071C344.066,177.038 341.911,173.366 338.531,175.43C337.343,176.161 336.668,177.714 336.211,179.23C334.658,184.254 338.275,192 343.189,191.269C345.582,190.922 346.916,188.072 347.903,185.716Z" fill="#FFCBBB"/>
<path d="M793.156,506.416C793.138,490.139 800.098,473.989 811.936,462.827C817.782,457.329 824.76,453.072 832.287,450.314C836.525,448.743 856.858,447.208 856.858,447.208C856.858,447.208 854.483,462.718 850.446,470.537C841.001,488.768 822.331,504.096 793.156,506.416Z" fill="#8EBCA2"/>
<path d="M852.93,552.726C860.274,543.72 870.906,537.436 882.342,535.335C893.778,533.234 905.944,535.335 916.01,541.144C916.339,541.327 916.686,541.564 916.777,541.93C916.887,542.368 916.576,542.788 916.266,543.117C906.821,553.694 892.17,559.394 878.067,557.987C871.874,557.366 858.867,554.644 852.93,552.726Z" fill="#A2CCB6"/>
<path d="M869.261,527.991C869.279,513.796 873.992,501.063 882.323,492.733C890.653,484.403 902.527,480.53 915.187,482.028C915.608,482.083 916.064,482.156 916.393,482.539C916.795,482.996 916.813,483.635 916.777,484.165C916.064,501.246 907.496,515.386 894.435,521.067C888.717,523.552 875.673,527.132 869.261,527.991Z" fill="#8EBCA2"/>
<path d="M891.293,502.597C896.92,493.536 903.752,485.242 911.571,478.008C914.713,475.103 918.038,472.327 921.819,470.299C934.041,463.741 949.112,465.768 962.247,470.208C957.022,480.127 950.208,489.846 940.179,494.87C935.74,497.098 930.88,498.304 926.039,499.382C916.412,501.538 901.067,501.337 891.293,502.597Z" fill="#A2CCB6"/>
<path d="M884.315,478.923C859.872,466.116 856.255,439.408 855.633,429.525C855.25,423.332 855.652,416.445 860.803,411.987C891.111,422.656 898.838,443.153 884.315,478.923Z" fill="#8EBCA2"/>
<path d="M778.962,475.067C780.862,462.06 782.615,448.085 776.697,436.339C774.577,432.137 771.563,428.428 768.275,425.049C760.328,416.864 749.915,410.105 738.516,410.087C736.47,422.272 738.936,435.169 745.366,445.729C751.779,456.288 762.082,464.435 773.847,468.217Z" fill="#8EBCA2"/>
<path d="M850.061,560.143C836.433,555.594 824.851,545.218 818.841,532.156C812.831,519.113 812.447,503.566 817.836,490.249C818.074,489.664 818.384,489.006 819.005,488.806C819.59,488.623 820.193,488.915 820.723,489.226C841.804,501.356 856.218,536.614 850.061,560.143Z" fill="#A2CCB6"/>
<path d="M792.754,488.294C788.826,476.912 789.027,464.161 793.338,452.908C797.649,441.673 806.016,432.027 816.539,426.199C820.832,423.825 825.49,422.034 829.308,418.929C830.606,424.647 831.464,430.456 831.903,436.302C832.341,442.075 832.323,447.975 830.788,453.566C826.824,468.016 813.506,477.844 800.134,484.585Z" fill="#A2CCB6"/>
<path d="M775.088,486.102C753.13,488.769 726.111,479.909 714.364,459.229C751.906,440.139 775.088,469.331 775.088,486.102Z" fill="#A2CCB6"/>
<path d="M787.913,535.078C782.999,518.217 770.028,504.388 754.427,499.346C738.826,494.285 721.014,498.158 708.391,509.338C707.861,509.795 707.295,510.398 707.349,511.129C707.386,511.567 707.623,511.951 707.861,512.298C716.246,524.428 729.637,531.589 743.32,534.603C757.003,537.618 771.142,536.905 785.081,535.864Z" fill="#A2CCB6"/>
<path d="M759.688,445.199C768.256,453.621 774.467,464.052 779.217,475.031C784.277,486.759 787.949,499.127 791.11,511.477C797.851,537.728 801.687,564.601 804.391,591.528C805.907,606.654 806.912,621.835 808.629,636.943C808.684,637.437 809.433,637.455 809.415,636.943C808.83,623.224 807.606,609.504 806.254,595.84C804.921,582.248 803.35,568.675 801.285,555.174C799.221,541.637 796.663,528.174 793.338,514.874C790.233,502.434 786.616,489.975 781.702,478.119C776.605,465.806 769.882,453.986 760.072,444.815C759.798,444.596 759.432,444.962 759.688,445.199Z" fill="#597F6E"/>
<path d="M800.061,549.237C793.594,538.532 783.382,531.224 772.348,525.762C760.126,519.715 746.991,515.477 733.509,513.394C726.11,512.244 718.419,511.476 710.929,512.079C710.509,512.116 710.491,512.737 710.929,512.755C717.707,513.084 724.43,513.285 731.152,514.235C737.656,515.148 744.086,516.555 750.371,518.418C756.783,520.318 763.067,522.675 769.132,525.506C774.722,528.119 780.221,531.042 785.172,534.75C790.725,538.915 795.311,544.012 799.275,549.694C799.604,550.15 800.353,549.73 800.061,549.237Z" fill="#597F6E"/>
<path d="M793.411,517.176C793.484,507.073 792.388,497.026 793.283,486.942C794.123,477.552 796.59,468.125 800.609,459.594C802.819,454.881 805.651,450.643 808.629,446.386C808.83,446.094 808.391,445.765 808.154,446.021C804.993,449.327 802.49,453.419 800.444,457.493C798.343,461.64 796.681,466.006 795.366,470.464C792.589,479.89 791.73,489.572 791.95,499.364C792.077,505.301 792.37,511.293 793.009,517.212C793.027,517.45 793.411,517.45 793.411,517.176Z" fill="#597F6E"/>
<path d="M742.461,466.28C749.147,466.975 755.285,470.738 760.675,474.538C767.105,479.086 772.951,484.402 778.724,489.737C781.683,492.477 784.57,495.345 787.694,497.903C787.986,498.14 788.388,497.757 788.114,497.483C782.688,492.039 776.86,486.85 771.015,481.881C765.242,476.967 759.122,472.126 752.216,468.893C749.129,467.45 745.877,466.353 742.461,466.098C742.352,466.098 742.352,466.28 742.461,466.28Z" fill="#597F6E"/>
<path d="M841.512,592.313C843.466,581.955 845.987,571.853 849.897,562.042C853.77,552.342 858.72,543.062 864.548,534.384C876.24,517.048 891.549,502.141 909.287,491.052C914.256,487.946 919.389,485.151 924.706,482.685C930.095,480.182 935.648,478.227 941.22,476.145C941.75,475.944 941.549,475.14 940.983,475.286C935.941,476.583 930.99,478.593 926.24,480.712C921.399,482.868 916.686,485.297 912.119,487.983C903.039,493.335 894.545,499.674 886.799,506.836C871.271,521.195 858.702,538.823 850.408,558.279C845.823,569.039 842.224,580.548 840.854,592.204C840.799,592.587 841.439,592.678 841.512,592.313Z" fill="#597F6E"/>
<path d="M871.198,432.685C880.971,453.073 886.799,477.059 882.287,499.584C880.971,506.106 878.651,512.207 875.783,518.199C875.527,518.747 876.276,519.222 876.605,518.674C882.78,508.609 885.063,496.131 885.1,484.458C885.136,472.583 882.871,460.764 879.09,449.529C877.098,443.61 874.669,437.837 871.837,432.265C871.636,431.863 870.997,432.247 871.198,432.685Z" fill="#597F6E"/>
<path d="M887.932,574.557L887.932,595.967C887.932,680.842 865.59,704.974 865.59,704.974L796.408,704.974C796.408,704.974 774.065,680.842 774.065,595.967L774.065,574.557L887.932,574.557Z" fill="#F2F5F9"/>
<path d="M146.337,705.254L204.997,423.94L202.314,423.38L143.655,704.694L146.337,705.254Z" fill="#544943"/>
<path d="M263.674,704.693L204.997,423.379L202.314,423.939L260.992,705.253L263.674,704.693Z" fill="#544943"/>
<path d="M738.907,705.254L797.584,423.94L794.902,423.38L736.224,704.694L738.907,705.254Z" fill="#544943"/>
<path d="M856.245,704.693L797.585,423.379L794.903,423.939L853.563,705.253L856.245,704.693Z" fill="#544943"/>
<path d="M847.706,406.816L146.896,406.816L146.896,423.642L847.706,423.642L847.706,406.816Z" fill="#E7EAF2"/>
<path d="M813.927,374.737L566.264,374.737C561.843,374.737 558.5,370.737 559.267,366.389L587.729,206.34C588.624,201.261 593.045,197.571 598.197,197.571L845.861,197.571C850.281,197.571 853.625,201.572 852.857,205.92L824.395,365.969C823.481,371.047 819.079,374.737 813.927,374.737Z" fill="#475577"/>
<path d="M819.681,374.737L572.018,374.737C567.597,374.737 564.254,370.737 565.021,366.389L593.483,206.34C594.378,201.261 598.799,197.571 603.951,197.571L851.615,197.571C856.035,197.571 859.379,201.572 858.611,205.92L830.149,365.969C829.235,371.047 824.833,374.737 819.681,374.737Z" fill="#C0CCD8"/>
<g opacity="0.45">
<path d="M774.12,374.738L631.079,374.738C628.522,374.738 626.604,372.436 627.042,369.915L643.484,277.477C644.013,274.554 646.553,272.417 649.53,272.417L792.571,272.417C795.129,272.417 797.047,274.719 796.609,277.24L780.167,369.678C779.637,372.619 777.098,374.738 774.12,374.738Z" fill="#8E9DB2"/>
</g>
<path d="M777.537,374.738L634.496,374.738C631.939,374.738 630.021,372.436 630.459,369.915L646.901,277.477C647.43,274.554 649.97,272.417 652.947,272.417L795.988,272.417C798.546,272.417 800.464,274.719 800.026,277.24L783.584,369.678C783.054,372.619 780.515,374.738 777.537,374.738Z" fill="#C6D2E0"/>
<path d="M745.841,320.371L687.784,320.371L687.784,374.738L745.841,374.738L745.841,320.371Z" fill="#8E9DB2"/>
<path d="M742.516,320.371L687.784,320.371L687.784,335.991L702.728,397.993L760.821,397.993L742.516,320.371ZM728.468,381.46C721.964,381.46 715.077,373.879 713.104,364.507C711.131,355.154 714.803,347.554 721.307,347.554C727.81,347.554 734.697,355.136 736.67,364.507C738.643,373.879 734.971,381.46 728.468,381.46Z" fill="#475577"/>
<path d="M655.76,397.993L785.794,397.993L785.794,406.817L646.918,406.817C646.936,401.957 650.882,397.993 655.76,397.993Z" fill="#475577"/>
<path d="M785.813,397.993L681.848,397.993L681.848,406.817L785.813,406.817L785.813,397.993Z" fill="#C0CCD8"/>
<path d="M745.877,320.371L687.784,320.371L706.089,397.993L764.182,397.993L745.877,320.371ZM731.61,381.46C725.106,381.46 718.219,373.879 716.246,364.507C714.273,355.154 717.945,347.554 724.449,347.554C730.952,347.554 737.839,355.136 739.812,364.507C741.785,373.861 738.113,381.46 731.61,381.46Z" fill="#C0CCD8"/>
<g opacity="0.65">
<g opacity="0.65">
<path d="M610.236,213.337L606.783,232.701L610.236,232.701L613.67,213.337L610.236,213.337Z" fill="#8E9DB2"/>
</g>
<g opacity="0.65">
<path d="M620.192,213.337L616.739,232.701L620.192,232.701L623.626,213.337L620.192,213.337Z" fill="#8E9DB2"/>
</g>
<g opacity="0.65">
<path d="M630.148,213.337L626.695,232.701L630.148,232.701L633.583,213.337L630.148,213.337Z" fill="#8E9DB2"/>
</g>
<g opacity="0.65">
<path d="M640.105,213.337L636.652,232.701L640.105,232.701L643.539,213.337L640.105,213.337Z" fill="#8E9DB2"/>
</g>
<g opacity="0.65">
<path d="M650.06,213.337L646.607,232.701L650.06,232.701L653.495,213.337L650.06,213.337Z" fill="#8E9DB2"/>
</g>
</g>
<g opacity="0.65">
<g opacity="0.65">
<path d="M740.909,213.337L737.456,232.701L740.909,232.701L744.343,213.337L740.909,213.337Z" fill="#8E9DB2"/>
</g>
<g opacity="0.65">
<path d="M751.358,213.337L747.924,232.701L751.358,232.701L754.811,213.337L751.358,213.337Z" fill="#8E9DB2"/>
</g>
<g opacity="0.65">
<path d="M761.826,213.337L758.392,232.701L761.826,232.701L765.26,213.337L761.826,213.337Z" fill="#8E9DB2"/>
</g>
<g opacity="0.65">
<path d="M772.295,213.337L768.842,232.701L772.295,232.701L775.729,213.337L772.295,213.337Z" fill="#8E9DB2"/>
</g>
<g opacity="0.65">
<path d="M782.743,213.337L779.309,232.701L782.743,232.701L786.196,213.337L782.743,213.337Z" fill="#8E9DB2"/>
</g>
<g opacity="0.65">
<path d="M793.211,213.337L789.776,232.701L793.211,232.701L796.645,213.337L793.211,213.337Z" fill="#8E9DB2"/>
</g>
<g opacity="0.65">
<path d="M803.678,213.337L800.226,232.701L803.678,232.701L807.113,213.337L803.678,213.337Z" fill="#8E9DB2"/>
</g>
<g opacity="0.65">
<path d="M814.128,213.337L810.693,232.701L814.128,232.701L817.581,213.337L814.128,213.337Z" fill="#8E9DB2"/>
</g>
<g opacity="0.65">
<path d="M824.596,213.337L821.161,232.701L824.596,232.701L828.03,213.337L824.596,213.337Z" fill="#8E9DB2"/>
</g>
<g opacity="0.65">
<path d="M835.063,213.337L831.629,232.701L835.063,232.701L838.498,213.337L835.063,213.337Z" fill="#8E9DB2"/>
</g>
</g>
<g opacity="0.55">
<g opacity="0.55">
<path d="M344.303,362.973C344.303,362.973 345.911,362.68 346.568,361.767C347.92,359.885 345.673,357.894 344.212,356.944C342.33,355.738 339.754,355.336 338.841,353.035C337.818,350.44 339.59,347.554 341.727,346.129C343.536,344.942 345.655,344.339 347.683,343.572C349.948,342.731 352.232,341.361 353.547,339.242C355.191,336.593 354.862,333.195 355.081,330.217C355.922,318.562 367.851,312.771 377.88,312.534C382.904,312.406 390.577,314.214 393.902,318.106C395.016,319.421 395.875,320.974 396.185,322.673C396.678,325.303 395.655,327.733 393.956,329.688C392.239,331.661 389.864,332.812 387.983,334.584C386.028,336.41 387.416,338.347 386.978,340.539C386.485,342.969 384.859,344.01 382.74,345.179C378.282,347.664 373.039,348.285 368.198,349.637C366.682,350.057 365.166,350.568 363.942,351.555C362.352,352.834 361.457,354.734 360.27,356.378C358.077,359.355 354.771,361.493 351.154,362.224Z" fill="url(#pf_0_258_407)"/>
</g>
</g>
<path d="M372.217,392.311L362.699,392.311L362.699,387.762L372.217,387.762C375.286,387.762 377.789,385.26 377.789,382.19L377.789,374.372C377.789,371.303 375.286,368.8 372.217,368.8L362.699,368.8L362.699,364.251L372.217,364.251C377.789,364.251 382.319,368.782 382.319,374.353L382.319,382.172C382.338,387.781 377.789,392.311 372.217,392.311Z" fill="#E8EAEF"/>
<path d="M358.662,404.277L342.604,404.277C336.429,404.277 331.424,399.272 331.424,393.097L331.424,357.857L369.86,357.857L369.86,393.097C369.842,399.253 364.837,404.277 358.662,404.277Z" fill="#E8EAEF"/>
<path d="M325.194,397.792C325.194,397.792 325.56,406.835 339.608,406.835L361.64,406.835C375.688,406.835 376.053,397.792 376.053,397.792L325.194,397.792Z" fill="#C6D2E0"/>
<path d="M634.003,403.219L430.713,403.219L430.713,406.836L634.003,406.836L634.003,403.219Z" fill="#475577"/>
<path d="M452.214,400.296L437.654,400.296L437.654,403.219L452.214,403.219L452.214,400.296Z" fill="#475577"/>
<path d="M474.265,400.296L459.705,400.296L459.705,403.219L474.265,403.219L474.265,400.296Z" fill="#475577"/>
<path d="M496.315,400.296L481.755,400.296L481.755,403.219L496.315,403.219L496.315,400.296Z" fill="#475577"/>
<path d="M518.364,400.296L503.804,400.296L503.804,403.219L518.364,403.219L518.364,400.296Z" fill="#475577"/>
<path d="M540.432,400.296L525.872,400.296L525.872,403.219L540.432,403.219L540.432,400.296Z" fill="#475577"/>
<path d="M562.483,400.296L547.923,400.296L547.923,403.219L562.483,403.219L562.483,400.296Z" fill="#475577"/>
<path d="M584.533,400.296L569.973,400.296L569.973,403.219L584.533,403.219L584.533,400.296Z" fill="#475577"/>
<path d="M606.581,400.296L592.021,400.296L592.021,403.219L606.581,403.219L606.581,400.296Z" fill="#475577"/>
<path d="M628.632,400.296L614.072,400.296L614.072,403.219L628.632,403.219L628.632,400.296Z" fill="#475577"/>
<path d="M636.652,403.219L433.362,403.219L433.362,406.836L636.652,406.836L636.652,403.219Z" fill="#C0CCD8"/>
<path d="M454.882,400.296L440.322,400.296L440.322,403.219L454.882,403.219L454.882,400.296Z" fill="#C0CCD8"/>
<path d="M476.932,400.296L462.372,400.296L462.372,403.219L476.932,403.219L476.932,400.296Z" fill="#C0CCD8"/>
<path d="M498.983,400.296L484.423,400.296L484.423,403.219L498.983,403.219L498.983,400.296Z" fill="#C0CCD8"/>
<path d="M521.032,400.296L506.472,400.296L506.472,403.219L521.032,403.219L521.032,400.296Z" fill="#C0CCD8"/>
<path d="M543.081,400.296L528.521,400.296L528.521,403.219L543.081,403.219L543.081,400.296Z" fill="#C0CCD8"/>
<path d="M565.132,400.296L550.572,400.296L550.572,403.219L565.132,403.219L565.132,400.296Z" fill="#C0CCD8"/>
<path d="M587.182,400.296L572.622,400.296L572.622,403.219L587.182,403.219L587.182,400.296Z" fill="#C0CCD8"/>
<path d="M609.25,400.296L594.69,400.296L594.69,403.219L609.25,403.219L609.25,400.296Z" fill="#C0CCD8"/>
<path d="M631.299,400.296L616.739,400.296L616.739,403.219L631.299,403.219L631.299,400.296Z" fill="#C0CCD8"/>
<path d="M144.101,543.19C146.622,533.161 145.507,522.255 140.995,512.956C136.483,503.657 128.609,496.021 119.165,491.82C115.31,490.102 111.181,488.915 107.71,486.54C107.034,491.527 106.724,496.569 106.779,501.593C106.833,506.58 107.272,511.622 109.007,516.281C113.465,528.356 125.595,535.773 137.542,540.559Z" fill="#8EBCA2"/>
<path d="M145.562,575.562C145.799,566.391 145.653,557.093 144.959,547.958C144.648,543.939 144.228,539.866 143.205,535.938C141.963,531.17 140.173,526.475 137.962,522.072C135.423,517.012 132.171,511.897 127.86,508.133C127.567,507.878 127.166,508.261 127.421,508.572C130.673,512.481 133.706,516.427 136.135,520.921C138.565,525.434 140.428,530.238 141.853,535.171C144.265,543.501 144.301,552.489 144.557,561.093C144.703,565.916 144.667,570.757 145.123,575.562C145.16,575.818 145.544,575.836 145.562,575.562Z" fill="#597F6E"/>
<path d="M115.694,606.198C113.94,592.332 106.249,579.325 94.941,571.104C89.369,567.049 82.957,564.199 76.234,562.646C72.453,561.769 54.97,562.683 54.97,562.683C54.97,562.683 58.678,575.635 62.971,581.864C73.001,596.369 90.575,607.385 115.694,606.198Z" fill="#8EBCA2"/>
<path d="M100.403,561.55C99.946,553.165 98.412,544.834 95.836,536.869C94.795,533.672 93.589,530.494 91.799,527.662C86.026,518.491 75.229,514.217 64.835,512.335C64.707,521.177 65.711,530.475 70.589,537.746C72.745,540.961 75.558,543.629 78.39,546.204C84.016,551.32 94.338,556.983 100.403,561.55Z" fill="#A2CCB6"/>
<path d="M159.41,530.987C157.784,519.807 156.268,507.805 161.364,497.721C163.191,494.103 165.785,490.925 168.599,488.02C175.431,480.987 184.364,475.177 194.156,475.159C195.91,485.627 193.791,496.698 188.274,505.777C182.775,514.874 169.512,527.735 159.41,530.987Z" fill="#A2CCB6"/>
<path d="M141.471,595.912C151.865,598.068 163.1,595.747 171.796,589.646C180.492,583.544 186.484,573.771 188,563.266C188.073,562.81 188.11,562.262 187.799,561.915C187.507,561.586 186.995,561.549 186.557,561.549C168.563,561.458 146.275,578.612 141.471,595.912Z" fill="#A2CCB6"/>
<path d="M104.513,555.503C119.311,547.172 128.829,530.475 129.103,512.353C118.416,511.768 110.378,518.327 105.719,524.008C99.234,531.9 98.686,545.747 104.513,555.503Z" fill="#A2CCB6"/>
<path d="M115.255,584.787C111.309,574.94 112.552,563.176 118.471,554.37C124.39,545.565 134.821,539.975 145.435,539.938C145.873,539.938 146.385,539.975 146.64,540.34C146.787,540.56 146.805,540.834 146.823,541.089C147.225,550.187 143.224,559.047 137.488,566.117C131.752,573.187 124.371,578.704 116.973,583.983Z" fill="#A2CCB6"/>
<path d="M175.631,504.991C168.068,512.043 162.606,520.939 158.404,530.348C153.983,540.249 150.805,550.698 148.028,561.166C142.036,583.801 138.729,607.074 136.318,630.33C134.966,643.52 133.705,656.801 133.212,670.045C133.194,670.557 133.943,670.539 133.998,670.045C135.386,658.427 136.153,646.717 137.286,635.062C138.4,623.479 139.716,611.916 141.451,600.425C143.168,589.044 145.288,577.717 148.028,566.519C150.64,555.795 153.673,545.108 157.71,534.823C161.948,524.009 167.685,513.596 176.015,505.357C176.252,505.119 175.887,504.754 175.631,504.991Z" fill="#597F6E"/>
<path d="M115.237,600.443C115.255,598.397 115.054,596.351 115.127,594.305C115.2,591.967 115.401,589.61 115.73,587.29C116.041,585.098 116.443,582.924 116.954,580.768C117.411,578.832 118.196,576.877 118.47,574.886C118.525,574.521 118.014,574.484 117.849,574.721C116.698,576.384 116.242,578.686 115.767,580.622C115.237,582.833 114.853,585.08 114.543,587.327C114.232,589.647 114.049,591.985 113.995,594.323C113.94,596.369 113.885,598.58 114.378,600.589C114.488,601.046 115.237,600.936 115.237,600.443Z" fill="#597F6E"/>
<path d="M116.48,524.885C112.059,528.74 109.373,534.366 107.546,539.865C105.318,546.606 104.276,553.822 104.532,560.91C104.678,564.838 105.135,568.93 106.45,572.657C106.578,573.004 107.108,572.876 107.017,572.492C105.427,565.641 104.824,558.846 105.592,551.831C106.322,545.199 108.058,538.513 111.127,532.576C112.552,529.817 114.324,527.168 116.607,525.031C116.699,524.94 116.571,524.812 116.48,524.885Z" fill="#597F6E"/>
<path d="M120.791,651.924C121.047,644.105 120.389,636.195 119.603,628.431C118.781,620.283 117.557,612.172 115.877,604.17C112.46,587.893 107.181,571.835 99.088,557.257C96.859,553.238 94.43,549.347 91.762,545.62C89.114,541.912 86.264,538.112 82.921,534.988C82.5,534.586 81.952,535.171 82.299,535.609C84.894,538.824 87.616,541.894 90.045,545.237C92.438,548.525 94.667,551.941 96.713,555.449C100.897,562.61 104.368,570.155 107.254,577.919C112.972,593.301 116.425,609.486 118.306,625.745C119.311,634.459 119.585,643.173 120.078,651.924C120.115,652.362 120.773,652.362 120.791,651.924Z" fill="#597F6E"/>
<path d="M181.222,616.008L181.222,630.604C181.222,688.496 162.022,704.956 162.022,704.956L102.596,704.956C102.596,704.956 83.396,688.496 83.396,630.604L83.396,616.008L181.222,616.008Z" fill="#F2F5F9"/>
<defs>
<linearGradient id="pf_0_258_407" x1="367.449" y1="362.968" x2="367.449" y2="312.54" gradientUnits="userSpaceOnUse">
<stop stop-color="#FFFFFF" stop-opacity="0.1"/>
<stop offset="1" stop-color="#FFFFFF" stop-opacity="0.4"/>
</linearGradient>
</defs>
</svg>
