<svg width="318" height="200" viewBox="0 0 318 200" fill="none" xmlns="http://www.w3.org/2000/svg" xmlns:xlink="http://www.w3.org/1999/xlink">
<path d="M191.734,167.495C199.296,156.524 215.143,138.29 245.456,120.129C293.394,91.409 329.702,53.347 313.743,30.82C298.083,8.717 227.88,51.406 169.581,158.104C178.151,162.594 185.477,165.629 191.734,167.495Z" clip-rule="evenodd" fill-rule="evenodd" fill="#A3F65C"/>
<path d="M182.367,157.742C183.698,157.68 187.206,157.68 191.82,159.036C192.144,159.135 192.48,158.949 192.579,158.625C192.679,158.302 192.492,157.966 192.169,157.867C188.126,156.673 184.855,156.498 183.089,156.511C184.121,154.757 185.166,153.016 186.198,151.311C188.313,151.262 195.142,151.125 197.704,151.274C198.04,151.299 198.326,151.038 198.351,150.702C198.375,150.366 198.114,150.08 197.778,150.055C195.428,149.931 189.644,150.018 186.957,150.08C188.897,146.896 190.85,143.799 192.791,140.788C194.843,140.826 201.187,141.012 208.214,141.958C208.55,142.007 208.861,141.771 208.898,141.435C208.948,141.099 208.712,140.801 208.376,140.751C202.008,139.893 196.174,139.657 193.562,139.594C195.527,136.572 197.492,133.636 199.445,130.775C202.256,130.825 211.386,131.086 221.474,132.442C221.81,132.492 222.121,132.256 222.158,131.92C222.208,131.584 221.971,131.285 221.636,131.236C212.294,129.979 203.799,129.656 200.279,129.581C202.853,125.85 205.428,122.267 207.99,118.822C210.926,118.698 223.091,118.387 232.233,121.31C232.557,121.409 232.905,121.235 233.004,120.912C233.104,120.588 232.93,120.252 232.619,120.14C224.098,117.404 213.053,117.429 208.923,117.553C212.07,113.349 215.192,109.369 218.29,105.587C222.295,105.811 238.403,107.03 245.941,112.366C246.214,112.565 246.6,112.491 246.786,112.217C246.973,111.943 246.911,111.558 246.637,111.371C239.323,106.197 224.434,104.766 219.247,104.418C222.544,100.438 225.79,96.681 228.999,93.149C231.922,93.808 244.149,96.781 255.643,102.552C255.941,102.702 256.314,102.577 256.464,102.279C256.613,101.98 256.488,101.607 256.19,101.458C245.306,95.985 233.776,93.012 229.932,92.104C231.835,90.027 233.713,88.024 235.579,86.096C238.378,86.668 250.282,89.392 266.054,97.017C266.352,97.166 266.725,97.042 266.862,96.731C267.011,96.433 266.887,96.059 266.576,95.923C251.874,88.808 240.455,85.922 236.587,85.064C241.015,80.536 245.343,76.419 249.51,72.687C253.043,73.857 270.967,79.927 280.383,85.91C280.669,86.084 281.042,86.009 281.216,85.723C281.403,85.437 281.316,85.064 281.03,84.89C271.974,79.131 255.307,73.347 250.555,71.754C252.993,69.603 255.381,67.575 257.707,65.684C260.742,66.717 274.624,71.593 287.286,78.944C287.572,79.106 287.946,79.019 288.12,78.72C288.281,78.434 288.194,78.061 287.896,77.887C275.955,70.971 262.969,66.219 258.814,64.776C264.275,60.386 269.412,56.679 274.139,53.544C277.136,54.253 290.67,57.637 300.819,63.533C301.106,63.707 301.479,63.607 301.653,63.309C301.815,63.023 301.727,62.649 301.429,62.475C292.088,57.064 279.985,53.731 275.532,52.624C277.497,51.355 279.375,50.186 281.179,49.116C283.604,49.365 292.598,50.522 304.215,54.987C304.526,55.112 304.887,54.95 304.999,54.639C305.123,54.328 304.961,53.967 304.651,53.855C294.725,50.049 286.664,48.619 282.908,48.109C297.498,39.688 306.554,37.548 306.628,37.524C307.113,37.399 307.412,36.902 307.288,36.416C307.163,35.931 306.666,35.633 306.18,35.757C306.131,35.77 302.15,36.715 295.222,39.775C297.113,37.387 299.8,34.09 300.521,33.655C300.807,33.481 300.894,33.108 300.72,32.822C300.546,32.536 300.173,32.449 299.887,32.623C298.792,33.294 294.339,38.942 292.809,40.894C289.998,42.213 286.814,43.83 283.281,45.832L289.289,33.879C289.438,33.58 289.314,33.207 289.015,33.058C288.717,32.909 288.344,33.033 288.194,33.332L281.353,46.927C278.928,48.345 276.353,49.937 273.654,51.703L280.196,37.561C280.333,37.25 280.209,36.889 279.898,36.752C279.587,36.616 279.226,36.752 279.089,37.051L271.788,53.01C267.745,55.734 263.442,58.856 258.902,62.463L264.524,47.785C264.648,47.474 264.486,47.114 264.175,47.002C263.864,46.877 263.516,47.039 263.392,47.35L257.023,63.993C254.958,65.672 252.844,67.438 250.692,69.316L255.456,56.082C255.568,55.771 255.406,55.41 255.095,55.298C254.772,55.186 254.424,55.348 254.312,55.659L248.801,70.971C244.809,74.516 240.691,78.409 236.462,82.675L240.045,69.752C240.132,69.428 239.945,69.093 239.622,69.006C239.298,68.918 238.963,69.105 238.875,69.428L234.696,84.467C233.017,86.183 231.325,87.974 229.634,89.815L231.649,79.951C231.711,79.628 231.499,79.305 231.176,79.23C230.853,79.168 230.529,79.379 230.455,79.703L228.041,91.544C224.87,95.015 221.66,98.709 218.414,102.615L220.292,91.619C220.354,91.283 220.131,90.972 219.795,90.922C219.459,90.873 219.148,91.084 219.098,91.42L216.872,104.493C214.023,107.963 211.162,111.62 208.277,115.439L209.496,105.674C209.545,105.339 209.309,105.04 208.973,104.99C208.637,104.953 208.339,105.189 208.289,105.513L206.809,117.404C204.284,120.787 201.759,124.295 199.221,127.964L199.283,119.145C199.283,118.81 199.022,118.536 198.686,118.536C198.351,118.536 198.077,118.797 198.077,119.133L198.002,129.743C196.161,132.417 194.321,135.166 192.48,137.99L191.534,130.477C191.485,130.141 191.186,129.905 190.85,129.954C190.514,129.992 190.278,130.303 190.328,130.639L191.447,139.594C189.756,142.219 188.052,144.906 186.36,147.655L185.477,142.804C185.415,142.468 185.104,142.256 184.768,142.318C184.432,142.381 184.22,142.692 184.283,143.027L185.402,149.222C184.133,151.299 182.877,153.414 181.608,155.553L179.593,151.573C179.444,151.274 179.071,151.15 178.772,151.311C178.474,151.461 178.349,151.821 178.499,152.132L180.862,156.822C179.83,158.588 178.797,160.367 177.765,162.183C178.325,162.444 178.884,162.693 179.444,162.942C180.402,161.138 181.384,159.434 182.367,157.742Z" clip-rule="evenodd" fill-rule="evenodd" fill="#FFFFFF"/>
<path d="M183.039,173.714C191.137,168.589 205.429,161.735 227.01,158.651C263.641,153.426 296.33,138.413 293.854,118.387C291.466,99.095 239.548,106.521 174.929,158.862L183.002,173.651L183.039,173.714Z" clip-rule="evenodd" fill-rule="evenodd" fill="#84E532"/>
<path d="M283.978,121.372C284.674,121.372 285.234,120.8 285.222,120.104C285.222,119.407 284.65,118.847 283.953,118.86C283.903,118.86 279.823,118.847 272.858,119.793L278.828,115.763C279.214,115.501 279.313,114.979 279.052,114.606C278.791,114.22 278.269,114.121 277.895,114.382L269.014,120.377C265.768,120.912 262.074,121.634 257.994,122.604L264.275,116.608C264.611,116.285 264.623,115.763 264.3,115.427C263.977,115.091 263.454,115.079 263.118,115.402L254.71,123.437C250.481,124.544 245.891,125.912 241.04,127.617L246.289,122.206C246.612,121.87 246.6,121.348 246.277,121.024C245.941,120.701 245.418,120.713 245.095,121.037L237.42,128.935C232.345,130.838 226.997,133.114 221.462,135.814L225.902,130.104C226.188,129.744 226.126,129.221 225.753,128.935C225.392,128.649 224.87,128.711 224.584,129.084L217.991,137.567C212.804,140.229 207.481,143.277 202.07,146.76L203.886,142.879C204.085,142.456 203.898,141.958 203.488,141.759C203.065,141.56 202.568,141.747 202.381,142.157L199.408,148.501C195.303,151.237 191.161,154.21 187.007,157.482L188.674,153.539C188.848,153.116 188.649,152.618 188.226,152.444C187.803,152.27 187.305,152.469 187.131,152.892L184.27,159.683C182.243,161.325 180.215,163.042 178.2,164.82L179.432,167.084C181.459,165.293 183.487,163.577 185.502,161.922C187.579,162.059 192.53,162.482 194.619,163.577C195.03,163.788 195.527,163.639 195.751,163.228C195.963,162.818 195.813,162.308 195.403,162.096C193.562,161.126 189.93,160.641 187.405,160.405C189.01,159.136 190.602,157.892 192.206,156.698C194.234,157.034 199.234,158.016 202.555,159.895C202.953,160.119 203.463,159.982 203.699,159.584C203.923,159.186 203.787,158.676 203.376,158.439C200.528,156.822 196.572,155.84 194.035,155.33C197.331,152.929 200.615,150.69 203.849,148.613C206.635,149.77 215.466,153.514 218.924,156.362C219.285,156.661 219.807,156.599 220.106,156.25C220.404,155.89 220.355,155.367 219.994,155.069C216.747,152.394 209.172,149.036 205.578,147.518C209.06,145.342 212.506,143.351 215.889,141.523C218.675,142.593 227.743,146.274 233.726,151.001C234.087,151.287 234.609,151.225 234.908,150.864C235.194,150.504 235.132,149.981 234.771,149.683C229.385,145.416 221.599,142.008 217.83,140.478C219.509,139.595 221.163,138.762 222.818,137.953C225.703,138.874 235.48,142.269 244.535,148.824C244.908,149.098 245.431,149.011 245.704,148.638C245.978,148.265 245.891,147.742 245.518,147.469C237.595,141.722 229.111,138.351 224.982,136.908C230.952,134.097 236.674,131.796 242.048,129.918C245.244,131.895 257.633,139.682 263.044,144.832C263.38,145.155 263.914,145.143 264.225,144.807C264.549,144.471 264.524,143.948 264.188,143.625C259.175,138.861 248.466,131.97 244.075,129.221C248.105,127.865 251.924,126.746 255.481,125.825C258.354,128.027 268.977,136.15 271.427,138.277C271.776,138.575 272.311,138.538 272.609,138.189C272.908,137.841 272.87,137.306 272.522,137.008C270.271,135.067 261.377,128.239 257.546,125.303C262.21,124.159 266.39,123.338 269.985,122.766C272.572,125.004 278.779,130.428 280.234,131.883C280.557,132.206 281.092,132.206 281.416,131.883C281.739,131.56 281.739,131.025 281.416,130.701C280.122,129.408 275.109,125.017 272.161,122.442C279.562,121.36 283.928,121.372 283.978,121.372Z" clip-rule="evenodd" fill-rule="evenodd" fill="#A3F65C"/>
<path d="M-0.193,191.302C-0.728,184.001 -0.964,176.923 -0.939,170.045C-0.915,163.067 -0.604,156.337 -0.031,149.844C2.133,125.589 8.029,104.655 16.81,86.781C26.313,67.439 39.2,51.667 54.412,39.116C68.505,27.486 84.576,18.63 101.803,12.261C120.274,5.433 140.064,1.465 160.14,-0.015C166.919,-0.513 173.748,-0.724 180.589,-0.662C187.517,-0.6 194.433,-0.252 201.299,0.358C202.071,0.42 202.755,0.805 203.227,1.365C203.687,1.925 203.949,2.646 203.875,3.43L203.849,3.629C203.575,6.303 197.393,63.608 169.481,115.39C141.233,167.768 90.845,214.513 2.009,193.927C1.374,193.777 0.839,193.429 0.454,192.956C0.068,192.484 -0.168,191.912 -0.193,191.302ZM200.739,4.848C197.418,6.142 183.761,11.702 164.593,22.511C172.068,23.842 189.01,26.989 196.622,29.414C199.135,17.249 200.317,8.343 200.739,4.848ZM196.05,32.089L196.013,32.076C187.231,29.203 164.307,25.21 160.899,24.625C151.371,30.148 140.624,36.902 129.218,44.987L188.674,60.623C191.846,50.174 194.246,40.447 196.05,32.089ZM187.878,63.222L126.357,47.04C115.747,54.702 104.602,63.521 93.345,73.571C105.547,77.29 163.884,95.177 173.76,100.165C179.581,87.577 184.221,74.977 187.878,63.222ZM172.628,102.615C162.677,97.528 98.283,77.9 91.006,75.686C82.013,83.845 72.97,92.801 64.077,102.59L155.724,131.846C155.836,131.883 155.948,131.933 156.035,131.995C159.978,126.136 163.585,120.104 166.882,113.984C168.909,110.215 170.825,106.421 172.628,102.615ZM154.455,134.296L62.074,104.804C55.158,112.541 48.342,120.788 41.75,129.557C56.676,134.607 133.161,158.402 133.385,158.477C133.596,158.539 133.783,158.651 133.932,158.8C141.594,151.3 148.398,143.016 154.455,134.296ZM131.83,160.828C123.732,158.303 52.148,136.013 40.046,131.846C34.386,139.483 28.888,147.531 23.614,155.977C41.688,164.895 102.425,180.667 102.612,180.717C102.972,180.816 103.271,181.04 103.445,181.339C113.968,175.729 123.396,168.751 131.83,160.828ZM100.348,182.919C90.608,180.356 38.653,166.5 22.184,158.278C18.813,163.751 15.554,169.41 12.382,175.231C19.323,177.968 50.395,189.897 70.47,191.949C71.043,192.011 71.49,192.409 71.64,192.932C82.001,190.693 91.554,187.284 100.348,182.919ZM65.706,194.063C45.145,190.854 17.022,179.983 11.101,177.632C8.713,182.11 6.399,186.687 4.148,191.377C27.221,196.551 47.646,197.061 65.706,194.063ZM2.556,188.416C4.646,184.125 6.785,179.933 8.987,175.816C6.213,168.129 4.16,154.807 3.153,147.332C3.066,148.252 2.966,149.16 2.892,150.093C2.319,156.499 2.009,163.141 1.984,170.045C1.959,175.953 2.145,182.085 2.556,188.416ZM3.986,140.354C4.596,140.428 5.093,140.913 5.168,141.548C5.168,141.61 7.332,161.163 10.765,172.545C13.825,166.972 16.972,161.561 20.219,156.3C19.124,152.568 13.241,131.709 11.263,108.25C8.004,118.163 5.554,128.848 3.986,140.354ZM12.805,103.747C13.303,103.921 13.676,104.369 13.713,104.929C15.181,126.261 20.156,145.976 22.147,153.203C27.259,145.093 32.582,137.356 38.043,129.992C36.451,125.278 27.197,97.192 25.903,76.308C23.602,80.064 21.438,83.982 19.435,88.062C16.997,93.05 14.77,98.274 12.805,103.747ZM27.881,73.173C28.241,73.397 28.503,73.807 28.515,74.268C29.237,93.162 37.384,119.308 40.021,127.343C46.539,118.723 53.243,110.613 60.059,103.001C47.882,77.203 46.053,56.182 45.78,50.958C39.187,57.6 33.192,65.001 27.881,73.173ZM48.044,48.719C48.28,48.955 48.429,49.279 48.429,49.652C48.429,49.714 48.678,72.054 62.025,100.824C70.943,91.01 80.011,82.017 89.041,73.832C83.581,61.531 78.307,30.907 77.598,26.715C70.085,30.994 62.945,35.87 56.266,41.393C53.442,43.706 50.705,46.157 48.044,48.719ZM80.036,25.347C80.11,25.484 80.16,25.633 80.185,25.795C80.197,25.894 85.571,58.52 91.168,71.917C102.562,61.717 113.844,52.774 124.591,45C120.635,29.228 120.735,12.137 120.772,9.388C114.665,10.98 108.669,12.858 102.798,15.023C94.937,17.921 87.325,21.354 80.036,25.347ZM123.446,8.692C123.471,8.803 123.496,8.928 123.483,9.052C123.483,9.102 123.011,26.765 126.954,43.283C138.559,35.012 149.505,28.108 159.219,22.474C158.025,13.717 158.709,4.599 158.834,3.032C146.856,3.99 134.977,5.843 123.446,8.692ZM161.558,2.833C161.558,2.908 161.558,2.97 161.558,3.044C161.558,3.069 160.7,12.075 161.769,21.018C179.42,10.955 192.667,5.209 198.003,3.032C192.219,2.584 186.398,2.335 180.564,2.273C174.245,2.223 167.902,2.398 161.558,2.833Z" clip-rule="evenodd" fill-rule="evenodd" fill="#84E532"/>
</svg>
