<svg width="694" height="518" viewBox="0 0 694 518" fill="none" xmlns="http://www.w3.org/2000/svg" xmlns:xlink="http://www.w3.org/1999/xlink">
<path d="M692.52,453.473L0,453.473L0,453.819L692.52,453.819L692.52,453.473Z" fill="#E8EAFF"/>
<path d="M616.699,469.332L546.201,469.332L546.201,469.678L616.699,469.678L616.699,469.332Z" fill="#E8EAFF"/>
<path d="M138.045,465.234L72.658,465.234L72.658,465.581L138.045,465.581L138.045,465.234Z" fill="#E8EAFF"/>
<path d="M551.243,462.898L524.664,462.898L524.664,463.245L551.243,463.245L551.243,462.898Z" fill="#E8EAFF"/>
<path d="M458.749,472.082L439.248,472.082L439.248,472.428L458.749,472.428L458.749,472.082Z" fill="#E8EAFF"/>
<path d="M426.912,472.082L377.826,472.082L377.826,472.428L426.912,472.428L426.912,472.082Z" fill="#E8EAFF"/>
<path d="M349.321,466.246L270.389,466.246L270.389,466.592L349.321,466.592L349.321,466.246Z" fill="#E8EAFF"/>
<path d="M328.252,391.688L60.815,391.688C58.72,391.684 56.712,390.85 55.231,389.368C53.751,387.884 52.92,385.876 52.92,383.78L52.92,7.839C52.938,5.756 53.778,3.764 55.256,2.297C56.734,0.829 58.732,0.004 60.815,0L328.252,0C330.35,0 332.36,0.833 333.844,2.316C335.326,3.8 336.16,5.811 336.16,7.909L336.16,383.78C336.16,385.878 335.326,387.89 333.844,389.372C332.36,390.856 330.35,391.688 328.252,391.688L328.252,391.688ZM60.815,0.277C58.811,0.281 56.891,1.079 55.476,2.497C54.061,3.915 53.266,5.836 53.266,7.839L53.266,383.78C53.266,385.784 54.061,387.704 55.476,389.122C56.891,390.54 58.811,391.338 60.815,391.342L328.252,391.342C330.256,391.338 332.178,390.54 333.594,389.124C335.012,387.706 335.81,385.784 335.814,383.78L335.814,7.839C335.81,5.835 335.012,3.913 333.594,2.496C332.178,1.079 330.256,0.281 328.252,0.277L60.815,0.277Z" fill="#E8EAFF"/>
<path d="M627.854,391.688L360.403,391.688C358.306,391.684 356.297,390.85 354.815,389.368C353.332,387.886 352.498,385.876 352.494,383.78L352.494,7.839C352.516,5.755 353.358,3.763 354.839,2.296C356.319,0.828 358.318,0.004 360.403,0L627.854,0C629.934,0.007 631.928,0.834 633.404,2.302C634.878,3.769 635.716,5.759 635.734,7.839L635.734,383.78C635.734,385.872 634.904,387.88 633.428,389.362C631.95,390.844 629.946,391.682 627.854,391.688L627.854,391.688ZM360.403,0.277C358.398,0.281 356.477,1.079 355.059,2.496C353.642,3.913 352.844,5.835 352.84,7.839L352.84,383.78C352.844,385.784 353.642,387.706 355.059,389.124C356.477,390.54 358.398,391.338 360.403,391.342L627.854,391.342C629.858,391.338 631.78,390.54 633.196,389.124C634.614,387.706 635.412,385.784 635.416,383.78L635.416,7.839C635.412,5.835 634.614,3.913 633.196,2.496C631.78,1.079 629.858,0.281 627.854,0.277L360.403,0.277Z" fill="#E8EAFF"/>
<path d="M301.439,36.794L106.663,36.794L106.663,209.66L301.439,209.66L301.439,36.794Z" transform="rotate(360 204.051 123.227)" fill="#E8EAFF"/>
<path d="M297.121,36.794L102.344,36.794L102.344,209.66L297.121,209.66L297.121,36.794Z" transform="rotate(360 199.733 123.227)" fill="#D9DCFF"/>
<path d="M277.438,33.612L122.024,33.612L122.024,212.849L277.438,212.849L277.438,33.612Z" transform="rotate(180 199.731 123.231)" fill="#FFFFFF"/>
<path d="M189.44,121.596L34.026,121.596L34.026,124.865L189.44,124.865L189.44,121.596Z" transform="rotate(180 111.733 123.231)" fill="#E8EAFF"/>
<path d="M293.904,174.38L105.554,174.38L105.554,186.098L293.904,186.098L293.904,174.38Z" transform="rotate(360 199.729 180.239)" fill="#D9DCFF"/>
<path d="M93.867,22.352L309.932,22.352C310.09,22.35 310.246,22.379 310.392,22.438C310.538,22.497 310.67,22.585 310.782,22.696C310.896,22.806 310.984,22.938 311.044,23.084C311.106,23.229 311.136,23.385 311.136,23.543L311.136,23.543C311.134,23.86 311.004,24.163 310.778,24.386C310.554,24.609 310.248,24.734 309.932,24.734L93.867,24.734C93.547,24.734 93.241,24.607 93.015,24.381C92.789,24.155 92.662,23.848 92.662,23.529L92.662,23.529C92.664,23.372 92.697,23.218 92.758,23.074C92.82,22.93 92.909,22.8 93.021,22.691C93.133,22.581 93.265,22.495 93.41,22.437C93.555,22.379 93.711,22.35 93.867,22.352Z" fill="#E8EAFF"/>
<path d="M89.67,23.515C89.67,24.107 89.845,24.685 90.174,25.177C90.503,25.669 90.97,26.053 91.517,26.279C92.063,26.505 92.665,26.565 93.245,26.449C93.826,26.334 94.359,26.049 94.777,25.631C95.195,25.212 95.48,24.679 95.596,24.099C95.711,23.518 95.652,22.917 95.426,22.37C95.199,21.824 94.816,21.356 94.324,21.028C93.832,20.699 93.253,20.523 92.662,20.523C91.868,20.523 91.107,20.839 90.546,21.4C89.985,21.961 89.67,22.722 89.67,23.515Z" fill="#E8EAFF"/>
<path d="M299.823,30.237C300.252,30.233 300.662,30.061 300.965,29.758C301.268,29.455 301.44,29.045 301.444,28.616L301.444,25.14C301.444,24.71 301.273,24.298 300.969,23.994C300.665,23.69 300.253,23.52 299.823,23.52C299.397,23.52 298.989,23.689 298.687,23.99C298.386,24.291 298.217,24.7 298.217,25.126L298.217,28.603C298.215,28.815 298.255,29.026 298.335,29.224C298.415,29.421 298.532,29.601 298.682,29.753C298.831,29.904 299.008,30.025 299.204,30.108C299.4,30.191 299.611,30.235 299.823,30.237L299.823,30.237Z" fill="#E8EAFF"/>
<path d="M111.902,30.238C112.119,30.243 112.334,30.206 112.537,30.127C112.739,30.048 112.923,29.93 113.079,29.779C113.235,29.628 113.36,29.448 113.445,29.248C113.531,29.049 113.576,28.834 113.578,28.617L113.578,25.141C113.578,24.923 113.534,24.708 113.449,24.508C113.364,24.307 113.24,24.126 113.083,23.975C112.927,23.824 112.742,23.706 112.539,23.628C112.336,23.549 112.119,23.513 111.902,23.52L111.902,23.52C111.476,23.52 111.067,23.69 110.766,23.991C110.464,24.292 110.295,24.701 110.295,25.127L110.295,28.604C110.293,28.816 110.333,29.027 110.413,29.225C110.493,29.422 110.611,29.602 110.76,29.753C110.909,29.905 111.087,30.026 111.283,30.109C111.478,30.192 111.689,30.236 111.902,30.238L111.902,30.238Z" fill="#E8EAFF"/>
<g opacity="0.4">
<path d="M293.904,23.539L94.252,23.539L94.252,192.734L293.904,192.734L293.904,23.539Z" transform="rotate(360 194.078 108.137)" fill="#E8EAFF"/>
</g>
<path d="M277.607,23.515C277.607,24.107 277.783,24.685 278.112,25.177C278.44,25.669 278.908,26.053 279.454,26.279C280.001,26.505 280.602,26.565 281.183,26.449C281.763,26.334 282.296,26.049 282.715,25.631C283.133,25.212 283.418,24.679 283.533,24.099C283.649,23.518 283.589,22.917 283.363,22.37C283.137,21.824 282.753,21.356 282.261,21.028C281.769,20.699 281.191,20.523 280.599,20.523C279.806,20.523 279.045,20.839 278.484,21.4C277.923,21.961 277.607,22.722 277.607,23.515Z" fill="#E8EAFF"/>
<path d="M293.99,262.649L249.752,262.649L249.752,444.863L293.99,444.863L293.99,262.649Z" transform="rotate(360 271.871 353.756)" fill="#E8EAFF"/>
<path d="M285.484,444.872L115.596,444.872L115.596,453.473L285.484,453.473L285.484,444.872Z" transform="rotate(360 200.54 449.172)" fill="#E8EAFF"/>
<path d="M249.74,262.66L107.109,262.66L107.109,444.875L249.74,444.875L249.74,262.66Z" fill="#D9DCFF"/>
<path d="M232.343,331.496L124.504,331.496L124.504,375.997L232.343,375.997L232.343,331.496Z" fill="#E8EAFF"/>
<path d="M232.343,384.121L124.504,384.121L124.504,428.622L232.343,428.622L232.343,384.121Z" fill="#E8EAFF"/>
<path d="M232.343,278.887L124.504,278.887L124.504,323.388L232.343,323.388L232.343,278.887Z" fill="#E8EAFF"/>
<path d="M249.736,247.702L101.206,247.702L101.206,262.66L249.736,262.66L249.736,247.702Z" transform="rotate(360 175.471 255.181)" fill="#E8EAFF"/>
<path d="M300.152,247.695L249.736,247.695L249.736,262.654L300.152,262.654L300.152,247.695Z" fill="#E8EAFF"/>
<path d="M188.446,223.695L164.873,223.695L164.873,247.67L188.446,247.67L188.446,223.695Z" fill="#E8EAFF"/>
<path d="M164.859,223.72L123.045,223.72L123.045,247.695L164.859,247.695L164.859,223.72Z" transform="rotate(360 143.952 235.708)" fill="#D9DCFF"/>
<g opacity="0.7" style="mix-blend-mode:multiply">
<path d="M188.433,227.324L122.811,227.324L122.811,229.263L188.433,229.263L188.433,227.324Z" fill="#E8EAFF"/>
</g>
<path d="M189.734,222.543L164.873,222.543L164.873,228.152L189.734,228.152L189.734,222.543Z" fill="#E8EAFF"/>
<path d="M164.859,222.512L121.743,222.512L121.743,228.121L164.859,228.121L164.859,222.512Z" transform="rotate(360 143.301 225.316)" fill="#D9DCFF"/>
<path d="M272.159,223.695L248.586,223.695L248.586,247.67L272.159,247.67L272.159,223.695Z" fill="#E8EAFF"/>
<path d="M248.586,223.72L206.772,223.72L206.772,247.695L248.586,247.695L248.586,223.72Z" transform="rotate(360 227.679 235.708)" fill="#D9DCFF"/>
<g opacity="0.7" style="mix-blend-mode:multiply">
<path d="M272.146,227.324L206.523,227.324L206.523,229.263L272.146,229.263L272.146,227.324Z" fill="#E8EAFF"/>
</g>
<path d="M273.447,222.543L248.586,222.543L248.586,228.152L273.447,228.152L273.447,222.543Z" fill="#E8EAFF"/>
<path d="M248.586,222.512L205.47,222.512L205.47,228.121L248.586,228.121L248.586,222.512Z" transform="rotate(360 227.028 225.316)" fill="#D9DCFF"/>
<path d="M609.627,90.625L518.353,90.625L518.353,202.23L609.627,202.23L609.627,90.625Z" transform="rotate(360 563.99 146.428)" fill="#E8EAFF"/>
<path d="M603.734,90.625L498.749,90.625L498.749,202.23L603.734,202.23L603.734,90.625Z" transform="rotate(360 551.242 146.428)" fill="#D9DCFF"/>
<path d="M598.237,102.72L504.221,102.72L504.221,190.116L598.237,190.116L598.237,102.72Z" transform="rotate(-180 551.229 146.418)" fill="#FFFFFF"/>
<path d="M569.729,123.864L532.721,123.864C529.561,123.864 527,126.425 527,129.584L527,163.171C527,166.33 529.561,168.891 532.721,168.891L569.729,168.891C572.888,168.891 575.449,166.33 575.449,163.171L575.449,129.584C575.449,126.425 572.888,123.864 569.729,123.864Z" transform="rotate(-180 551.225 146.377)" fill="#D9DCFF"/>
<path d="M491.422,38.707L400.148,38.707L400.148,150.313L491.422,150.313L491.422,38.707Z" transform="rotate(360 445.785 94.51)" fill="#E8EAFF"/>
<path d="M485.553,38.707L380.567,38.707L380.567,150.313L485.553,150.313L485.553,38.707Z" transform="rotate(360 433.06 94.51)" fill="#D9DCFF"/>
<path d="M480.067,50.818L386.051,50.818L386.051,138.213L480.067,138.213L480.067,50.818Z" transform="rotate(-180 433.059 94.516)" fill="#FFFFFF"/>
<path d="M444.895,72.016L421.211,72.016C414.372,72.016 408.829,77.56 408.829,84.398L408.829,104.661C408.829,111.5 414.372,117.043 421.211,117.043L444.895,117.043C451.733,117.043 457.277,111.5 457.277,104.661L457.277,84.398C457.277,77.56 451.733,72.016 444.895,72.016Z" transform="rotate(-180 433.053 94.53)" fill="#D9DCFF"/>
<path d="M337.551,285.538L271.873,285.538L271.873,453.473L337.551,453.473L337.551,285.538Z" transform="rotate(360 304.712 369.505)" fill="#E8EAFF"/>
<path d="M278.464,453.468L271.857,453.468L271.857,430.602L285.403,430.602L278.464,453.468Z" fill="#E8EAFF"/>
<path d="M440.482,285.538L374.804,285.538L374.804,453.473L440.482,453.473L440.482,285.538Z" transform="rotate(360 407.643 369.505)" fill="#E8EAFF"/>
<path d="M380.568,285.525L271.871,285.525L271.871,439.43L380.568,439.43L380.568,285.525Z" transform="rotate(360 326.22 362.477)" fill="#E8EAFF"/>
<path d="M375.443,292.357L276.995,292.357L276.995,334.559L375.443,334.559L375.443,292.357Z" transform="rotate(360 326.219 313.458)" fill="#E8EAFF"/>
<path d="M316.567,305.465L331.415,305.465C337.855,305.465 344.018,300.257 348.45,291.074L299.531,291.074C303.963,300.257 310.127,305.465 316.567,305.465Z" fill="#E8EAFF"/>
<path d="M373.947,453.468L380.553,453.468L380.553,430.602L367.021,430.602L373.947,453.468Z" fill="#E8EAFF"/>
<path d="M375.443,341.38L276.995,341.38L276.995,383.582L375.443,383.582L375.443,341.38Z" transform="rotate(360 326.219 362.481)" fill="#E8EAFF"/>
<path d="M316.567,354.479L331.415,354.479C337.855,354.479 344.018,349.271 348.45,340.074L299.531,340.074C303.963,349.271 310.127,354.479 316.567,354.479Z" fill="#E8EAFF"/>
<path d="M375.443,390.404L276.995,390.404L276.995,432.605L375.443,432.605L375.443,390.404Z" transform="rotate(360 326.219 411.505)" fill="#E8EAFF"/>
<path d="M316.567,403.51L331.415,403.51C337.855,403.51 344.018,398.302 348.45,389.105L299.531,389.105C303.963,398.302 310.127,403.51 316.567,403.51Z" fill="#E8EAFF"/>
<path d="M531.091,265.691L519.277,307.173C519.637,396.84 515.592,402.006 515.551,417.421L528.016,417.421C529.193,342.381 536.562,348.766 531.091,265.691Z" fill="#E8EAFF"/>
<path d="M528.805,453.465C540.056,453.469 550.97,449.624 559.735,442.57C568.5,435.516 574.589,425.676 576.991,414.684C578.161,408.765 579.843,402.958 582.018,397.33L582.392,396.43L475.232,396.43L475.606,397.33C477.776,402.939 479.449,408.728 480.606,414.629C483,425.632 489.087,435.485 497.855,442.55C506.623,449.614 517.545,453.466 528.805,453.465L528.805,453.465Z" fill="#F5F6FF"/>
<path d="M468.295,401.808L589.332,401.808L592.795,375.59L464.832,375.59L468.295,401.808Z" fill="#E8EAFF"/>
<path d="M524.347,384.406C519.873,297.993 576.895,292.993 599.484,322.218C611.479,353.589 526.923,434.1 524.347,384.406Z" fill="#E8EAFF"/>
<path d="M524.43,348.64C515.303,284.859 556.895,272.809 575.482,291.258C586.41,312.906 529.68,385.329 524.43,348.64Z" fill="#E8EAFF"/>
<path d="M527.09,302.183C517.63,261.934 543.53,251.865 556.453,262.599C564.666,275.812 532.533,325.327 527.09,302.183Z" fill="#E8EAFF"/>
<path d="M518.501,330.848C534.9,281.901 503.862,266.416 486.563,278.217C474.818,293.757 509.069,358.992 518.501,330.848Z" fill="#E8EAFF"/>
<path d="M528.349,305.908C552.185,260.133 523.944,239.995 504.997,248.997C490.994,262.446 514.637,332.238 528.349,305.908Z" fill="#E8EAFF"/>
<path d="M522.311,378.94C534.056,303.498 484.458,293.996 461.992,317.556C448.627,344.024 515.552,422.319 522.311,378.94Z" fill="#E8EAFF"/>
<path d="M346.265,516.002C494.579,516.002 614.811,508.982 614.811,500.323C614.811,491.664 494.579,484.645 346.265,484.645C197.951,484.645 77.719,491.664 77.719,500.323C77.719,508.982 197.951,516.002 346.265,516.002Z" fill="#D9DCFF"/>
<path d="M376.819,488.401L366.127,488.401L365.67,463.664L376.362,463.664L376.819,488.401Z" fill="#FFB573"/>
<path d="M440.957,488.401L430.278,488.401L425.514,463.664L436.192,463.664L440.957,488.401Z" fill="#FFB573"/>
<path d="M429.545,487.168L441.553,487.168C441.764,487.165 441.969,487.237 442.131,487.372C442.294,487.506 442.403,487.694 442.439,487.902L444.323,497.39C444.363,497.624 444.352,497.864 444.29,498.094C444.228,498.323 444.116,498.536 443.963,498.718C443.81,498.9 443.619,499.047 443.404,499.147C443.189,499.248 442.954,499.3 442.716,499.301C438.561,499.218 436.497,498.982 431.221,498.982C427.966,498.982 421.262,499.315 416.789,499.315C412.315,499.315 411.816,494.883 413.672,494.481C421.982,492.68 425.099,490.187 427.799,487.819C428.289,487.407 428.905,487.177 429.545,487.168Z" fill="#263238"/>
<path d="M366.221,487.168L377.897,487.168C378.107,487.168 378.311,487.241 378.473,487.375C378.635,487.509 378.745,487.695 378.784,487.902L380.667,497.389C380.712,497.622 380.705,497.862 380.646,498.091C380.588,498.321 380.479,498.535 380.328,498.717C380.177,498.9 379.988,499.047 379.774,499.148C379.559,499.249 379.325,499.301 379.088,499.301C374.933,499.218 368.797,498.982 363.507,498.982C357.316,498.982 351.969,499.315 344.712,499.315C340.335,499.315 339.172,494.883 341.069,494.481C349.476,492.653 356.304,492.459 363.631,487.999C364.403,487.491 365.298,487.204 366.221,487.168L366.221,487.168Z" fill="#263238"/>
<path d="M365.915,153.093L354.572,142.871C354.572,142.871 329.641,182.15 324.627,184.339C317.702,187.303 294.697,207.178 287.121,211.776C286.636,213.521 286.761,218.327 287.633,219.726C300.237,218.646 330.722,200.114 335.735,195.447C347.093,184.796 365.915,153.093 365.915,153.093Z" fill="#FFB573"/>
<path d="M373.825,144.961C375.501,155.044 352.232,179.753 352.232,179.753L333.59,164.518C338.423,156.41 344.091,148.829 350.501,141.9C360.113,132.136 371.997,133.909 373.825,144.961Z" fill="#FF3874"/>
<g opacity="0.2">
<path d="M347.41,175.916L352.23,179.822C352.23,179.822 357.452,174.282 362.756,167.356C368.975,158.326 373.767,150.154 373.92,146.373L373.92,146.276C371.551,144.545 358.061,159.185 347.41,175.916Z" fill="#000000"/>
</g>
<path d="M288.655,210.941L277.658,212.977L277.049,224.806C281.729,223.594 286.195,221.67 290.29,219.099L288.655,210.941Z" fill="#FFB573"/>
<path d="M265.93,216.952L267.55,223.032L277.051,224.805L277.661,212.977L265.93,216.952Z" fill="#FFB573"/>
<g opacity="0.2">
<path d="M365.67,463.664L365.905,476.42L376.598,476.42L376.362,463.664L365.67,463.664Z" fill="#000000"/>
</g>
<g opacity="0.2">
<path d="M436.206,463.664L425.514,463.664L427.979,476.42L438.658,476.42L436.206,463.664Z" fill="#000000"/>
</g>
<path d="M336.721,158.242L330.322,165.86L351.056,182.951L359.352,174.752L336.721,158.242Z" fill="#CC2D5D"/>
<path d="M358.452,136.371C358.452,136.371 345.045,168.642 355.557,228.725L412.745,228.725C413.355,219.957 408.895,177.16 418.368,135.831C412.07,134.611 405.7,133.802 399.297,133.407C391.205,132.943 383.094,132.943 375.003,133.407C369.418,133.968 363.885,134.958 358.452,136.371L358.452,136.371Z" fill="#FF3874"/>
<g opacity="0.2">
<path d="M405.651,146.001C404.543,152.815 406.288,169.089 412.299,187.898C412.593,171.786 414.308,155.731 417.424,139.92L417.424,139.879C413.67,139.449 406.731,139.629 405.651,146.001Z" fill="#000000"/>
</g>
<path d="M396.639,110.707C394.907,118.519 393.869,128.214 399.256,133.421C399.256,133.421 395.918,141.358 381.389,141.358C368.121,141.358 374.963,133.421 374.963,133.421C383.73,131.344 383.536,120.568 382.165,114.488L396.639,110.707Z" fill="#FFB573"/>
<g opacity="0.2">
<path d="M382.165,114.502C383.23,118.729 383.101,123.169 381.791,127.327C383.149,127.125 384.47,126.724 385.711,126.136C390.683,123.823 393.19,120.167 395.849,114.765C396.071,113.38 396.334,111.995 396.639,110.707L382.165,114.502Z" fill="#000000"/>
</g>
<path d="M370.403,104.124C370.638,105.407 371.126,106.63 371.839,107.722C372.553,108.814 373.477,109.752 374.558,110.482C377.481,112.379 380.098,109.969 380.182,106.617C380.292,103.612 378.893,98.986 375.5,98.432C374.754,98.337 373.997,98.424 373.292,98.687C372.588,98.949 371.958,99.379 371.457,99.939C370.955,100.499 370.597,101.173 370.414,101.902C370.23,102.631 370.227,103.394 370.403,104.124L370.403,104.124Z" fill="#FFB573"/>
<g opacity="0.2">
<path d="M370.403,104.124C370.638,105.407 371.126,106.63 371.839,107.722C372.553,108.814 373.477,109.752 374.558,110.482C377.481,112.379 380.098,109.969 380.182,106.617C380.292,103.612 378.893,98.986 375.5,98.432C374.754,98.337 373.997,98.424 373.292,98.687C372.588,98.949 371.958,99.379 371.457,99.939C370.955,100.499 370.597,101.173 370.414,101.902C370.23,102.631 370.227,103.394 370.403,104.124L370.403,104.124Z" fill="#000000"/>
</g>
<path d="M384.672,85.684L377.636,108.814C368.425,92.291 378.772,78.246 384.672,85.684Z" fill="#263238"/>
<path d="M404.144,104.193C399.629,113.888 397.482,119.788 390.501,123.029C380.016,127.918 369.656,118.874 371.208,108.057C372.593,98.362 379.753,84.11 390.944,83.75C393.4,83.651 395.838,84.194 398.019,85.326C400.2,86.457 402.048,88.138 403.381,90.203C404.714,92.267 405.485,94.643 405.619,97.096C405.753,99.55 405.244,101.996 404.144,104.193L404.144,104.193Z" fill="#FFB573"/>
<path d="M397.966,112.591C392.426,113.27 396.997,99.225 401.803,95.43C395.362,94.572 378.063,93.131 378.894,83.727C379.891,72.328 392.744,75.735 392.744,78.408C395.196,80.167 414.462,78.713 412.578,93.311C422.024,93.713 416.747,110.333 397.966,112.591Z" fill="#263238"/>
<path d="M412.546,93.691L412.449,93.691C412.357,93.662 412.279,93.598 412.232,93.513C412.186,93.427 412.174,93.327 412.2,93.234C414.333,86.142 411.785,83.635 409.333,82.236C409.253,82.185 409.194,82.106 409.168,82.014C409.143,81.922 409.152,81.823 409.195,81.738C409.244,81.655 409.323,81.594 409.416,81.568C409.509,81.543 409.608,81.554 409.693,81.599C413.627,83.843 414.652,87.61 412.893,93.455C412.867,93.526 412.819,93.586 412.757,93.628C412.695,93.671 412.621,93.692 412.546,93.691L412.546,93.691Z" fill="#263238"/>
<path d="M415.666,101.394C415.617,101.396 415.568,101.387 415.522,101.368C415.477,101.349 415.436,101.32 415.403,101.283C415.369,101.25 415.342,101.21 415.324,101.166C415.305,101.122 415.296,101.075 415.296,101.027C415.296,100.979 415.305,100.932 415.324,100.888C415.342,100.844 415.369,100.804 415.403,100.771C417.495,98.887 418.339,97.211 417.855,95.923C417.37,94.635 415.237,93.666 412.522,93.666C412.427,93.666 412.335,93.628 412.268,93.56C412.2,93.493 412.162,93.401 412.162,93.305C412.162,93.21 412.2,93.118 412.268,93.051C412.335,92.983 412.427,92.945 412.522,92.945C415.583,92.945 417.896,93.984 418.533,95.715C418.963,96.823 418.838,98.707 415.888,101.366C415.818,101.397 415.741,101.407 415.666,101.394L415.666,101.394Z" fill="#263238"/>
<path d="M404.559,115.614C402.422,117.231 399.737,117.947 397.079,117.609C393.589,117.124 393.326,113.648 395.542,111.085C397.523,108.772 401.747,106.238 404.642,108.025C407.536,109.811 407.204,113.537 404.559,115.614Z" fill="#FFB573"/>
<path d="M355.554,228.729C355.554,228.729 352.119,308.617 352.493,341.207C352.867,375.085 361.981,473.963 361.981,473.963L380.083,473.963C380.083,473.963 383.421,377.01 385.041,343.769C386.8,307.482 393.116,228.715 393.116,228.715L355.554,228.729Z" fill="#01008A"/>
<g opacity="0.4">
<path d="M355.554,228.729C355.554,228.729 352.119,308.617 352.493,341.207C352.867,375.085 361.981,473.963 361.981,473.963L380.083,473.963C380.083,473.963 383.421,377.01 385.041,343.769C386.8,307.482 393.116,228.715 393.116,228.715L355.554,228.729Z" fill="#FFFFFF"/>
</g>
<path d="M381.413,468.404C381.496,468.404 381.26,474.318 381.26,474.318L360.402,474.318L359.695,467.684L381.413,468.404Z" fill="#263238"/>
<g opacity="0.2">
<path d="M380.028,249.875C379.405,289.515 381.205,313.586 385.568,332.977C386.662,314.071 388.449,289.071 390.014,268.296L380.028,249.875Z" fill="#000000"/>
</g>
<path d="M375.834,228.727C375.834,228.727 385.959,310.443 391.859,340.914C398.327,374.418 423.05,473.877 423.05,473.877L442.62,473.877C442.62,473.877 427.191,377.174 423.825,344.017C420.197,308.006 412.745,228.727 412.745,228.727L375.834,228.727Z" fill="#01008A"/>
<g opacity="0.4">
<path d="M375.834,228.727C375.834,228.727 385.959,310.443 391.859,340.914C398.327,374.418 423.05,473.877 423.05,473.877L442.62,473.877C442.62,473.877 427.191,377.174 423.825,344.017C420.197,308.006 412.745,228.727 412.745,228.727L375.834,228.727Z" fill="#FFFFFF"/>
</g>
<path d="M442.744,468.856C442.827,468.856 443.589,474.313 443.589,474.313L422.079,474.313L420.334,468.039L442.744,468.856Z" fill="#263238"/>
<path d="M388.135,101.435C387.817,102.239 387.138,102.737 386.612,102.543C386.086,102.349 385.919,101.532 386.238,100.729C386.556,99.926 387.235,99.344 387.761,99.607C388.288,99.87 388.454,100.618 388.135,101.435Z" fill="#263238"/>
<path d="M379.077,97.997C378.758,98.8 378.08,99.299 377.553,99.105C377.027,98.911 376.861,98.094 377.179,97.291C377.498,96.487 378.177,95.989 378.703,96.182C379.229,96.376 379.395,97.194 379.077,97.997Z" fill="#263238"/>
<path d="M381.791,99.539C379.867,101.667 377.669,103.531 375.254,105.079C375.647,105.677 376.167,106.179 376.778,106.55C377.389,106.922 378.075,107.152 378.786,107.226L381.791,99.539Z" fill="#ED893E"/>
<path d="M380.239,110.228C380.208,110.217 380.18,110.2 380.156,110.178C380.132,110.156 380.113,110.129 380.1,110.099C380.087,110.069 380.08,110.037 380.08,110.004C380.08,109.972 380.087,109.939 380.1,109.909C380.111,109.877 380.129,109.847 380.151,109.821C380.174,109.796 380.202,109.775 380.233,109.761C380.265,109.746 380.298,109.739 380.333,109.738C380.367,109.737 380.401,109.744 380.433,109.757C381.435,110.145 382.514,110.294 383.583,110.193C384.653,110.092 385.684,109.744 386.596,109.175C386.643,109.131 386.705,109.105 386.769,109.105C386.834,109.105 386.896,109.131 386.943,109.175C386.988,109.224 387.014,109.289 387.014,109.355C387.014,109.422 386.988,109.487 386.943,109.535C385.961,110.177 384.841,110.574 383.675,110.695C382.509,110.815 381.331,110.655 380.239,110.228L380.239,110.228Z" fill="#263238"/>
<path d="M391.97,99.423C391.897,99.398 391.831,99.357 391.778,99.301C391.725,99.246 391.686,99.178 391.665,99.104C391.523,98.482 391.23,97.904 390.812,97.421C390.394,96.938 389.865,96.565 389.269,96.334C389.207,96.315 389.148,96.284 389.098,96.242C389.048,96.2 389.007,96.149 388.977,96.09C388.947,96.032 388.93,95.968 388.925,95.903C388.92,95.838 388.929,95.773 388.951,95.711C388.968,95.647 388.998,95.587 389.039,95.535C389.08,95.482 389.131,95.439 389.189,95.406C389.247,95.374 389.311,95.354 389.377,95.347C389.443,95.339 389.51,95.346 389.574,95.364C390.322,95.634 390.993,96.083 391.526,96.672C392.06,97.261 392.441,97.973 392.635,98.744C392.654,98.809 392.66,98.876 392.653,98.943C392.646,99.01 392.626,99.075 392.594,99.134C392.562,99.193 392.518,99.246 392.466,99.288C392.413,99.33 392.353,99.362 392.289,99.381C392.19,99.43 392.078,99.444 391.97,99.423L391.97,99.423Z" fill="#263238"/>
<path d="M376.277,93.252C376.213,93.218 376.156,93.171 376.111,93.114C376.025,93.009 375.984,92.874 375.996,92.739C376.009,92.604 376.075,92.48 376.18,92.393C376.79,91.861 377.517,91.482 378.302,91.287C379.087,91.092 379.907,91.087 380.695,91.271C380.819,91.313 380.923,91.401 380.982,91.518C381.042,91.634 381.053,91.77 381.014,91.895C380.972,92.023 380.883,92.131 380.764,92.195C380.646,92.259 380.507,92.276 380.377,92.241C379.752,92.102 379.104,92.114 378.485,92.275C377.866,92.437 377.294,92.743 376.817,93.169C376.744,93.232 376.655,93.274 376.559,93.288C376.463,93.303 376.366,93.291 376.277,93.252L376.277,93.252Z" fill="#263238"/>
<path d="M408.979,153.373L423.826,148.539C423.826,148.539 437.496,183.359 442.566,185.381C449.491,188.151 463.438,195.464 472.136,197.209C473.133,198.677 474.477,203.192 474.047,204.785C461.582,208.026 436.208,201.184 431.208,196.71C419.809,186.475 408.979,153.373 408.979,153.373Z" fill="#FFB573"/>
<path d="M418.284,135.79C428.354,137.258 439.06,172.286 439.06,172.286L417.536,184.28C417.536,184.28 408.589,167.66 404.282,155.194C399.822,142.286 407.523,134.211 418.284,135.79Z" fill="#FF3874"/>
<path d="M439.073,168.504L444.516,177.991L418.325,189.086L413.686,179.127L439.073,168.504Z" fill="#CC2D5D"/>
<path d="M425.973,489.038C425.247,489.096 424.522,488.9 423.924,488.484C423.727,488.317 423.579,488.101 423.494,487.858C423.409,487.614 423.39,487.352 423.439,487.099C423.443,486.951 423.486,486.806 423.564,486.68C423.642,486.553 423.751,486.45 423.882,486.379C425.073,485.77 428.48,487.889 428.868,488.138C428.909,488.164 428.941,488.202 428.961,488.246C428.98,488.291 428.987,488.34 428.979,488.387C428.966,488.437 428.94,488.483 428.903,488.519C428.867,488.556 428.821,488.582 428.771,488.595C427.858,488.847 426.92,488.996 425.973,489.038L425.973,489.038ZM424.436,486.822C424.326,486.8 424.213,486.8 424.104,486.822C424.034,486.822 423.965,486.919 423.937,487.113C423.91,487.28 423.925,487.451 423.98,487.611C424.036,487.771 424.131,487.914 424.256,488.027C424.838,488.526 426.223,488.595 428.051,488.221C426.948,487.526 425.72,487.05 424.436,486.822L424.436,486.822Z" fill="#01008A"/>
<path d="M428.714,488.674L428.589,488.674C427.509,488.078 425.418,485.738 425.681,484.519C425.719,484.331 425.822,484.162 425.971,484.04C426.12,483.919 426.306,483.853 426.498,483.854C426.691,483.83 426.888,483.848 427.074,483.905C427.26,483.962 427.432,484.058 427.578,484.186C428.783,485.198 428.963,488.272 428.963,488.411C428.964,488.457 428.953,488.503 428.931,488.544C428.909,488.586 428.878,488.621 428.839,488.646C428.801,488.667 428.757,488.676 428.714,488.674L428.714,488.674ZM426.664,484.339L426.595,484.339C426.263,484.339 426.235,484.533 426.221,484.602C426.069,485.308 427.384,487.067 428.465,487.912C428.418,486.702 428.008,485.534 427.288,484.56C427.117,484.408 426.893,484.328 426.664,484.339L426.664,484.339Z" fill="#01008A"/>
<path d="M361.732,489.036C360.822,489.12 359.911,488.885 359.155,488.371C358.986,488.218 358.856,488.026 358.779,487.811C358.702,487.596 358.679,487.365 358.712,487.139C358.723,487.001 358.768,486.868 358.843,486.752C358.918,486.636 359.02,486.54 359.142,486.474C360.457,485.74 364.682,487.859 365.18,488.177C365.228,488.201 365.266,488.24 365.288,488.287C365.311,488.335 365.317,488.389 365.305,488.441C365.299,488.494 365.275,488.543 365.238,488.581C365.2,488.619 365.15,488.642 365.097,488.648C363.99,488.882 362.863,489.012 361.732,489.036L361.732,489.036ZM359.862,486.82C359.695,486.81 359.528,486.843 359.377,486.917C359.329,486.943 359.289,486.981 359.26,487.027C359.231,487.073 359.214,487.126 359.211,487.18C359.19,487.33 359.206,487.482 359.257,487.624C359.307,487.766 359.391,487.894 359.502,487.997C360.139,488.579 361.898,488.676 364.266,488.288C362.894,487.549 361.404,487.052 359.862,486.82L359.862,486.82Z" fill="#01008A"/>
<path d="M365.059,488.669L364.948,488.669C363.674,488.087 361.181,485.774 361.403,484.514C361.403,484.237 361.666,483.877 362.372,483.807C362.62,483.781 362.871,483.805 363.109,483.879C363.347,483.953 363.568,484.074 363.757,484.237C365.142,485.359 365.308,488.239 365.322,488.392C365.321,488.435 365.311,488.477 365.292,488.515C365.272,488.553 365.245,488.587 365.211,488.613C365.166,488.644 365.113,488.663 365.059,488.669ZM362.552,484.334L362.4,484.334C361.943,484.334 361.915,484.569 361.901,484.625C361.763,485.345 363.466,487.159 364.754,487.949C364.654,486.735 364.169,485.585 363.369,484.666C363.144,484.464 362.855,484.346 362.552,484.334L362.552,484.334Z" fill="#01008A"/>
<path d="M473.092,205.004L483.272,205.502L477.856,194.422C477.856,194.422 468.95,194.297 467.496,201.139L473.092,205.004Z" fill="#FFB573"/>
<path d="M491.5,200.169L486.112,190.391L477.857,194.449L483.273,205.529L491.5,200.169Z" fill="#FFB573"/>
<path d="M490.135,125.608L475.191,125.608L475.191,185.164L490.135,185.164L490.135,125.608Z" transform="rotate(172.86 482.663 155.386)" fill="#01008A"/>
<g opacity="0.5">
<path d="M491.346,144.866L476.402,144.866L476.402,204.422L491.346,204.422L491.346,144.866Z" transform="rotate(172.86 483.874 174.644)" fill="#FFFFFF"/>
</g>
<g opacity="0.5">
<path d="M491.346,144.866L476.402,144.866L476.402,204.422L491.346,204.422L491.346,144.866Z" transform="rotate(172.86 483.874 174.644)" fill="#01008A"/>
</g>
<path d="M462.286,416.266L173.383,393.122C169.757,392.821 166.398,391.098 164.039,388.329C161.68,385.56 160.513,381.97 160.793,378.343L173.341,221.669C173.648,218.049 175.375,214.699 178.143,212.348C180.912,209.997 184.498,208.836 188.119,209.12L477.022,232.25C480.64,232.572 483.986,234.3 486.34,237.064C488.696,239.828 489.87,243.407 489.612,247.029L477.064,403.717C476.732,407.326 475,410.662 472.236,413.008C469.474,415.354 465.902,416.524 462.286,416.266L462.286,416.266Z" fill="#01008A"/>
<g opacity="0.4">
<path d="M462.286,416.266L173.383,393.122C169.757,392.821 166.398,391.098 164.039,388.329C161.68,385.56 160.513,381.97 160.793,378.343L173.341,221.669C173.648,218.049 175.375,214.699 178.143,212.348C180.912,209.997 184.498,208.836 188.119,209.12L477.022,232.25C480.64,232.572 483.986,234.3 486.34,237.064C488.696,239.828 489.87,243.407 489.612,247.029L477.064,403.717C476.732,407.326 475,410.662 472.236,413.008C469.474,415.354 465.902,416.524 462.286,416.266L462.286,416.266Z" fill="#000000"/>
</g>
<path d="M457.155,415.886L168.252,392.756C164.635,392.434 161.289,390.706 158.934,387.942C156.579,385.178 155.404,381.599 155.662,377.977L168.21,221.289C168.532,217.672 170.26,214.326 173.024,211.971C175.788,209.617 179.367,208.441 182.989,208.699L471.893,231.829C475.499,232.15 478.837,233.871 481.189,236.623C483.543,239.375 484.725,242.939 484.483,246.552L471.933,403.24C471.627,406.867 469.903,410.228 467.137,412.594C464.373,414.96 460.787,416.142 457.155,415.886L457.155,415.886Z" fill="#01008A"/>
<path d="M468.476,396.735L160.1,372.04C159.496,371.994 158.935,371.71 158.54,371.25C158.145,370.791 157.949,370.193 157.995,369.589L168.757,235.241C168.803,234.636 169.087,234.075 169.546,233.68C170.006,233.286 170.604,233.09 171.208,233.135L479.598,257.831C479.906,257.855 480.206,257.94 480.48,258.083C480.754,258.225 480.996,258.421 481.192,258.658C481.388,258.896 481.534,259.171 481.622,259.467C481.71,259.762 481.738,260.073 481.704,260.379L470.942,394.727C470.872,395.316 470.576,395.855 470.116,396.23C469.656,396.605 469.068,396.786 468.476,396.735L468.476,396.735Z" fill="#FFFFFF"/>
<path d="M188.699,229.653C188.487,229.667 188.274,229.667 188.062,229.653C186.008,229.57 184.069,228.685 182.661,227.188C181.253,225.691 180.487,223.702 180.529,221.647C180.571,219.592 181.416,217.636 182.884,216.197C184.352,214.759 186.325,213.953 188.38,213.953C190.436,213.953 192.409,214.759 193.877,216.197C195.345,217.636 196.19,219.592 196.232,221.647C196.274,223.702 195.508,225.691 194.1,227.188C192.692,228.685 190.753,229.57 188.699,229.653L188.699,229.653ZM188.699,214.972C186.909,215.042 185.218,215.812 183.99,217.116C182.761,218.419 182.093,220.152 182.128,221.943C182.164,223.734 182.9,225.44 184.179,226.694C185.458,227.948 187.178,228.65 188.969,228.65C190.76,228.65 192.48,227.948 193.759,226.694C195.038,225.44 195.774,223.734 195.81,221.943C195.845,220.152 195.177,218.419 193.948,217.116C192.72,215.812 191.029,215.042 189.239,214.972L188.699,214.972Z" fill="#FFFFFF"/>
<path d="M211.406,231.47L210.769,231.47C208.594,231.386 206.539,230.453 205.045,228.87C203.551,227.288 202.737,225.182 202.779,223.006C202.821,220.83 203.714,218.758 205.268,217.233C206.822,215.709 208.911,214.855 211.088,214.855C213.264,214.855 215.353,215.709 216.907,217.233C218.461,218.758 219.354,220.83 219.396,223.006C219.438,225.182 218.624,227.288 217.13,228.87C215.636,230.453 213.581,231.386 211.406,231.47ZM211.406,216.788C210.315,216.788 209.239,217.05 208.271,217.555C207.303,218.059 206.472,218.79 205.847,219.685C205.222,220.579 204.823,221.612 204.684,222.695C204.544,223.777 204.668,224.877 205.045,225.901C205.422,226.925 206.041,227.843 206.849,228.577C207.657,229.31 208.631,229.837 209.687,230.114C210.743,230.39 211.85,230.407 212.913,230.163C213.977,229.919 214.966,229.422 215.797,228.714C216.475,228.139 217.033,227.436 217.437,226.644C217.841,225.852 218.084,224.988 218.151,224.101L218.151,224.101C218.293,222.313 217.719,220.541 216.556,219.175C215.392,217.809 213.735,216.961 211.946,216.816L211.406,216.788Z" fill="#FFFFFF"/>
<path d="M234.068,233.312L233.43,233.312C231.388,233.229 229.46,232.348 228.059,230.859C226.659,229.37 225.897,227.391 225.939,225.348C225.981,223.304 226.822,221.358 228.282,219.927C229.742,218.497 231.705,217.695 233.749,217.695C235.793,217.695 237.756,218.497 239.216,219.927C240.676,221.358 241.517,223.304 241.559,225.348C241.601,227.391 240.84,229.37 239.439,230.859C238.038,232.348 236.11,233.229 234.068,233.312L234.068,233.312ZM234.068,218.631C232.322,218.701 230.673,219.454 229.476,220.726C228.279,221.998 227.628,223.689 227.663,225.436C227.699,227.183 228.417,228.846 229.665,230.069C230.913,231.292 232.591,231.977 234.338,231.977C236.085,231.977 237.762,231.292 239.01,230.069C240.258,228.846 240.977,227.183 241.012,225.436C241.048,223.689 240.397,221.998 239.199,220.726C238.002,219.454 236.354,218.701 234.608,218.631L234.068,218.631Z" fill="#FFFFFF"/>
<path d="M255.028,240.292L240.084,240.292L240.084,299.849L255.028,299.849L255.028,240.292Z" transform="rotate(189.16 247.556 270.071)" fill="#01008A"/>
<path d="M385.995,270.136L371.051,270.136L371.051,329.692L385.995,329.692L385.995,270.136Z" transform="rotate(189.16 378.523 299.914)" fill="#01008A"/>
<g opacity="0.5">
<path d="M318.198,284.039L303.254,284.039L303.254,343.595L318.198,343.595L318.198,284.039Z" transform="rotate(189.16 310.726 313.817)" fill="#01008A"/>
</g>
<g opacity="0.5">
<path d="M248.87,317.23L233.926,317.23L233.926,376.786L248.87,376.786L248.87,317.23Z" transform="rotate(189.16 241.398 347.008)" fill="#01008A"/>
</g>
<path d="M450.7,294.687L435.756,294.687L435.756,354.243L450.7,354.243L450.7,294.687Z" transform="rotate(189.16 443.228 324.465)" fill="#01008A"/>
<g opacity="0.5">
<path d="M449.151,313.925L434.207,313.925L434.207,373.481L449.151,373.481L449.151,313.925Z" transform="rotate(189.16 441.679 343.703)" fill="#01008A"/>
</g>
<path d="M381.362,327.871L366.418,327.871L366.418,387.427L381.362,387.427L381.362,327.871Z" transform="rotate(189.16 373.89 357.649)" fill="#01008A"/>
<path d="M480.191,279.352L480.191,278.673L414.277,273.397L415.925,252.801L415.247,252.801L413.599,273.397L348.03,268.147L349.679,247.552L348.986,247.552L347.338,268.147L281.771,262.898L283.419,242.303L282.74,242.303L281.161,262.732L215.594,257.483L217.228,236.859L216.55,236.859L214.901,257.455L167.298,253.646L167.298,254.325L214.901,258.133L213.295,276.679L165.761,272.87L165.761,273.563L213.295,277.358L211.813,295.917L164.209,292.108L164.209,292.787L211.813,296.61L210.331,315.169L162.727,311.36L162.727,312.039L210.22,315.806L208.724,334.379L161.134,330.557L161.134,331.249L208.738,335.058L207.242,353.617L159.639,349.809L159.639,350.487L207.228,354.31L205.525,375.653L206.203,375.653L207.921,354.296L273.488,359.559L271.771,380.903L272.463,380.903L274.167,359.545L339.734,364.795L337.947,386.304L338.626,386.304L340.33,364.947L405.897,370.196L404.193,391.553L404.873,391.553L406.589,370.196L472.489,375.473L472.489,374.795L406.589,369.518L408.071,350.958L473.985,356.235L473.985,355.543L408.169,350.432L409.651,331.872L475.565,337.149L475.565,336.471L409.651,331.194L411.147,312.621L477.047,317.898L477.047,317.219L411.147,311.942L412.629,293.382L478.543,298.659L478.543,297.967L412.739,292.635L414.221,274.075L480.191,279.352ZM347.338,268.715L345.856,287.288L280.289,282.039L281.771,263.466L347.338,268.715ZM277.214,320.529L278.696,301.97L344.263,307.219L342.781,325.778L277.214,320.529ZM342.726,326.457L341.23,345.03L275.621,339.767L277.117,321.208L342.726,326.457ZM278.751,301.277L280.233,282.718L345.801,287.967L344.319,306.526L278.751,301.277ZM215.525,258.161L281.161,263.41L279.679,281.984L214.112,276.734L215.525,258.161ZM213.987,277.413L279.555,282.662L278.059,301.222L212.491,295.972L213.987,277.413ZM212.436,296.665L278.003,301.956L276.521,320.515L210.954,315.266L212.436,296.665ZM210.899,315.903L276.466,321.152L274.984,339.726L209.417,334.476L210.899,315.903ZM207.879,353.714L209.361,335.155L274.929,340.404L273.447,358.964L207.879,353.714ZM274.125,359.019L275.621,340.46L341.188,345.709L339.693,364.282L274.125,359.019ZM405.939,369.573L340.371,364.282L341.867,345.723L407.435,350.972L405.939,369.573ZM407.491,350.321L341.922,345.072L343.404,326.512L408.973,331.762L407.491,350.321ZM409.027,331.041L343.488,325.834L344.97,307.274L410.537,312.524L409.027,331.041ZM410.565,311.79L344.997,306.54L346.479,287.981L412.047,293.23L410.565,311.79ZM412.103,292.551L346.535,287.302L348.03,268.715L413.599,273.964L412.103,292.551Z" fill="#E8EAFF"/>
</svg>
