<svg width="32" height="26" viewBox="0 0 32 26" fill="none" xmlns="http://www.w3.org/2000/svg" xmlns:xlink="http://www.w3.org/1999/xlink">
<path d="M0,2.603C0,1.165 1.165,0 2.603,0L28.308,0C29.746,0 30.911,1.165 30.911,2.603L30.911,22.126C30.911,23.564 29.746,24.729 28.308,24.729L2.603,24.729C1.165,24.729 0,23.563 0,22.126L0,2.603ZM2.278,3.253C2.278,2.714 2.715,2.277 3.254,2.277L27.658,2.277C28.197,2.277 28.634,2.714 28.634,3.253L28.634,19.234L22.695,13.666L19.571,16.595L9.81,6.833L2.278,14.365L2.278,3.253Z" clip-rule="evenodd" fill-rule="evenodd" fill="#3E82D8"/>
<circle cx="23.427" cy="7.486" r="2.603" fill="#3E82D8"/>
</svg>
