<svg width="698" height="414" viewBox="0 0 698 414" fill="none" xmlns="http://www.w3.org/2000/svg" xmlns:xlink="http://www.w3.org/1999/xlink">
<path d="M686.442,335.386C674.432,293.02 697.816,248.392 673.838,208.248C666.224,195.498 654.326,184.274 644.328,172.358C629.232,154.365 618.378,134.583 612.464,114.285C608.594,101.006 606.808,87.486 601.346,74.429C586.196,38.206 540.936,8.381 491.12,1.787C450.972,-3.527 409.428,3.276 376.596,18.671C229.116,87.83 152.281,55.116 100.797,78.976C68.528,93.932 52.633,121.741 43.051,149.542C33.467,177.343 29.629,226.17 15.701,257.614C-30.55,362.032 37.173,399.186 67.371,410.114C68.449,410.504 73.005,411.048 74.116,411.39L151.062,412.516C166.37,410.386 201.31,411.15 213.746,411.496C262.574,412.856 303.032,410.276 345.606,410.724C451.674,411.842 551,412.244 650.916,411.64C665.536,411.552 674.01,407.802 684.866,401.138C696.438,394.038 699.354,381.404 697.472,369.79C695.59,358.18 689.708,346.908 686.442,335.386Z" fill="#F8F8FF"/>
<g opacity="0.5">
<g opacity="0.5">
<path d="M354.176,102.67L429.057,102.67L463.451,31.277L388.571,31.277L354.176,102.67Z" fill="#E4E4FF"/>
</g>
<g opacity="0.5">
<path d="M474.87,31.277L440.475,102.67L515.356,102.67L549.75,31.277L474.87,31.277Z" fill="#E4E4FF"/>
</g>
<g opacity="0.5">
<path d="M316.337,181.218L391.217,181.218L425.612,109.823L350.731,109.823L316.337,181.218Z" fill="#E4E4FF"/>
</g>
<g opacity="0.5">
<path d="M402.636,181.218L477.516,181.218L511.911,109.823L437.028,109.823L402.636,181.218Z" fill="#E4E4FF"/>
</g>
</g>
<path d="M378.395,278.312C378.211,278.494 378.301,278.808 378.553,278.861C380.512,279.276 386.665,280.619 386.674,281.142C386.682,281.764 381.155,280.696 380.862,281.194C380.57,281.691 385.988,282.595 385.892,283.259C385.796,283.925 380.881,282.934 380.743,283.201C380.604,283.468 385.209,284.919 385.388,285.346C385.565,285.771 380.461,284.82 380.2,285.096C379.939,285.371 383.244,287.2 383.12,287.501C382.996,287.802 382.964,288.024 374.343,286.04L370.984,285.115L368.649,282.879L370.101,279.273C370.101,279.273 380.499,274.641 380.896,274.891C381.274,275.128 381.221,275.51 378.395,278.312Z" fill="#FFC0BB"/>
<path d="M335.611,232.051L345.184,270.059L371.473,278.293C371.473,278.293 370.881,285.848 370.954,285.801C371.026,285.754 336.032,286.102 332.208,283.073C328.385,280.045 327.324,238.911 327.324,238.911L335.611,232.051Z" fill="#7683C4"/>
<path d="M290.659,402.246L296.116,402.225C296.556,402.223 296.938,401.873 297.03,401.381C297.09,401.059 297.353,400.841 297.634,400.877L297.707,400.873C298.267,400.946 297.711,401.183 297.707,401.826L299.482,403.769L300.559,404.743C301.776,405.843 303.265,406.484 304.818,406.576L306.439,406.67C306.928,406.698 307.385,406.948 307.71,407.364L307.865,407.563C308.481,408.349 308.818,409.37 308.81,410.423L296.193,410.579C295.763,410.576 295.345,410.433 294.986,410.169L293.249,408.923L293.237,410.562L289.708,410.536L289.759,403.863C289.762,402.966 289.875,402.249 290.659,402.246Z" fill="#3C2340"/>
<path d="M293.252,410.518L289.719,410.518L289.719,410.949L293.252,410.949L293.252,410.518Z" transform="rotate(-1.015 291.485 410.733)" fill="#07085B"/>
<path d="M308.81,410.777L295.691,410.894C295.64,410.894 295.599,410.854 295.599,410.805L295.597,410.465L308.807,410.348L308.81,410.777Z" fill="#07085B"/>
<path d="M326.828,402.246L332.285,402.225C332.725,402.223 333.106,401.873 333.199,401.381C333.259,401.059 333.522,400.841 333.804,400.877L333.877,400.873C334.436,400.946 333.881,401.183 333.877,401.826L335.651,403.769L336.728,404.743C337.945,405.843 339.434,406.484 340.987,406.576L342.608,406.67C343.097,406.698 343.554,406.948 343.879,407.364L344.035,407.563C344.65,408.349 344.988,409.37 344.979,410.423L332.362,410.579C331.933,410.576 331.514,410.433 331.155,410.169L329.419,408.923L329.406,410.562L325.878,410.536L325.929,403.863C325.931,402.966 326.044,402.249 326.828,402.246Z" fill="#3C2340"/>
<path d="M329.423,410.518L325.89,410.518L325.89,410.949L329.423,410.949L329.423,410.518Z" transform="rotate(-1.015 327.656 410.733)" fill="#07085B"/>
<path d="M344.979,410.777L331.86,410.894C331.809,410.894 331.768,410.854 331.768,410.805L331.766,410.465L344.977,410.348L344.979,410.777Z" fill="#07085B"/>
<path d="M307.75,210.485C307.75,210.485 305.213,199.837 311.099,195.796C316.984,191.757 323.248,192.152 327.524,194.514C331.8,196.877 334.4,205.203 332.514,209.985L318.336,205.538L307.75,210.485Z" fill="#06055E"/>
<path d="M314.572,219.977L314.081,232.012L324.641,231.047L322.96,220.481L314.572,219.977Z" fill="#FFC0BB"/>
<path d="M323.759,225.506L322.96,220.481L314.572,219.977L314.403,224.144C316.133,225.729 319.194,227.313 323.759,225.506Z" fill="#F99893"/>
<path d="M329.639,211.228C329.06,212.571 329.461,214.037 330.536,214.5C331.61,214.964 332.951,214.25 333.53,212.907C334.109,211.563 333.708,210.098 332.633,209.635C331.559,209.171 330.218,209.884 329.639,211.228Z" fill="#F99893"/>
<path d="M329.092,219.144C329.44,218.567 329.739,217.952 329.978,217.309C330.662,215.579 331.025,213.736 331.215,212.125C331.256,211.779 331.315,211.437 331.384,211.096C331.653,209.716 331.679,208.251 331.384,206.734C330.435,201.86 326.317,198.12 321.373,197.654C314.713,197.026 309.094,202.183 308.963,208.693C308.263,208.285 307.47,208.178 306.763,208.477C305.409,209.049 304.89,210.888 305.608,212.58C306.323,214.274 308.002,215.182 309.358,214.609C309.546,214.53 309.717,214.423 309.871,214.299C310.326,219.851 314.779,224.217 320.226,224.236C322.889,224.244 325.322,223.211 327.17,221.504C327.294,221.406 327.424,221.288 327.561,221.154C328.159,220.558 328.663,219.876 329.092,219.144Z" fill="#FFC0BB"/>
<path d="M322.817,208.857C322.866,209.505 322.9,210.137 322.96,210.754C323.026,211.359 323.12,212.004 323.383,212.418L323.434,212.484C323.453,212.51 323.458,212.523 323.498,212.565C323.56,212.644 323.633,212.708 323.68,212.802C323.784,212.973 323.861,213.176 323.874,213.39C323.908,213.817 323.699,214.21 323.425,214.458C322.868,214.968 322.123,215.047 321.497,214.921C322.125,214.782 322.721,214.539 323.056,214.11C323.21,213.898 323.308,213.663 323.261,213.45C323.244,213.345 323.203,213.242 323.137,213.146C323.114,213.095 323.06,213.054 323.026,213.007L322.941,212.903L322.845,212.781C322.627,212.444 322.548,212.098 322.494,211.76C322.447,211.421 322.439,211.092 322.456,210.763C322.488,210.113 322.599,209.473 322.817,208.857Z" fill="#F99893"/>
<path d="M319.102,209.876C319.1,210.42 318.656,210.863 318.111,210.86C317.567,210.858 317.124,210.414 317.127,209.869C317.129,209.325 317.573,208.883 318.118,208.885C318.664,208.887 319.104,209.331 319.102,209.876Z" fill="#333333"/>
<path d="M327.584,210.462C327.582,211.006 327.137,211.449 326.593,211.446C326.048,211.444 325.606,211 325.608,210.455C325.61,209.911 326.055,209.469 326.599,209.471C327.146,209.473 327.586,209.917 327.584,210.462Z" fill="#333333"/>
<path d="M320.245,207.594C319.737,207.462 319.258,207.364 318.786,207.31C318.317,207.259 317.857,207.265 317.415,207.34C316.975,207.419 316.533,207.535 316.112,207.748C315.888,207.829 315.696,207.972 315.469,208.079C315.252,208.199 315.053,208.348 314.809,208.47C314.925,208.235 315.059,208.005 315.219,207.793C315.397,207.599 315.568,207.381 315.794,207.229C316.213,206.881 316.751,206.667 317.298,206.573C317.849,206.484 318.417,206.539 318.93,206.719C319.434,206.9 319.904,207.184 320.245,207.594Z" fill="#07085B"/>
<path d="M324.613,207.893C324.995,207.524 325.495,207.291 326.02,207.165C326.548,207.041 327.12,207.048 327.659,207.197C328.193,207.349 328.703,207.618 329.083,208.011C329.293,208.186 329.436,208.421 329.592,208.633C329.728,208.861 329.837,209.105 329.925,209.35C329.696,209.205 329.513,209.034 329.31,208.891C329.096,208.761 328.921,208.596 328.705,208.494C328.31,208.235 327.883,208.075 327.454,207.949C327.02,207.827 326.565,207.77 326.093,207.772C325.621,207.772 325.134,207.817 324.613,207.893Z" fill="#07085B"/>
<path d="M309.669,209.362C309.018,208.803 308.518,208.848 308.518,208.848L308.798,205.398L309.859,203.316C309.859,203.316 314.033,197.707 314.18,197.568C314.328,197.429 317.523,195.607 317.72,195.513C317.916,195.419 322.408,196.077 322.408,196.077C322.408,196.077 330.294,194.43 328.98,198.561C327.667,202.694 321.915,204.883 321.618,204.702C322.549,203.773 322.634,201.145 322.634,201.145C318.57,205.586 310.87,208.867 309.669,209.362Z" fill="#06055E"/>
<path d="M325.305,216.348C325.083,217.586 323.934,218.548 322.524,218.586C321.114,218.622 319.918,217.723 319.632,216.497L325.305,216.348Z" fill="#FFFFFF"/>
<path d="M311.396,229.168L326.264,229.127L328.146,237.912L319.989,259.245C319.989,259.245 311.832,250.46 311.832,249.207C311.832,247.951 308.066,238.54 308.694,237.284C309.32,236.028 311.396,229.168 311.396,229.168Z" fill="#FFC0BB"/>
<path d="M338.449,289.877C332.157,299.343 319.583,313 319.583,313L325.38,404.735C325.38,404.735 333.774,405.643 336.66,403.413C336.66,403.413 338.86,316.445 338.449,289.877Z" fill="#010066"/>
<path d="M336.433,292.943C336.412,291.602 338.864,295.557 338.817,294.487C337.856,272.206 307.315,290.888 307.315,290.888L300.901,289.541L289.117,403.914C289.117,403.914 296.783,405.605 301.174,403.914L319.949,313.668C319.949,313.668 326.666,310.786 336.433,292.943Z" fill="#01008A"/>
<path d="M297.13,309.502C296.96,309.308 296.641,309.379 296.573,309.628C296.041,311.557 294.326,317.619 293.803,317.595C293.183,317.568 294.582,312.115 294.104,311.792C293.625,311.47 292.393,316.824 291.735,316.688C291.077,316.551 292.363,311.707 292.107,311.551C291.851,311.397 290.12,315.906 289.685,316.058C289.249,316.209 290.509,311.171 290.251,310.895C289.992,310.62 287.965,313.806 287.673,313.665C287.38,313.522 287.16,313.477 289.663,304.994L290.791,301.696L293.166,299.5L296.678,301.168C296.678,301.168 300.67,311.828 300.396,312.209C300.134,312.572 299.756,312.493 297.13,309.502Z" fill="#FFC0BB"/>
<path d="M312.714,230.549C312.714,230.549 320.134,235.043 326.016,230.549C326.016,230.549 329.361,239.381 329.045,239.699C328.727,240.017 325.237,249.535 325.237,249.851C325.237,250.169 321.112,253.975 319.209,251.12C317.306,248.264 316.037,248.582 313.498,242.553C310.96,236.525 309.055,234.62 309.689,233.985C310.326,233.353 312.714,230.549 312.714,230.549Z" fill="#3C2340"/>
<path d="M311.83,229.127C311.83,229.127 296.769,230.383 293.632,235.402C290.494,240.422 282.965,269.286 283.593,278.071C284.221,286.856 289.868,303.798 289.868,303.798C289.868,303.798 294.888,304.426 296.772,301.288C296.772,301.288 293.006,277.443 293.634,275.562C294.262,273.68 301.163,254.228 301.163,254.228L299.907,292.503C299.907,292.503 314.967,301.916 338.81,294.385C338.81,294.385 341.948,232.265 333.791,230.383L326.262,229.127L323.124,247.325L311.83,229.127Z" fill="#838CCF"/>
<path d="M425.82,220.14L425.797,222.069L425.577,226.864L435.015,225.621L436.045,224.222L436.126,220.58L436.436,217.167L430.162,217.167L425.82,220.14Z" fill="#FFC0BB"/>
<path d="M440.287,195.351C440.287,195.351 443.864,192.767 448.17,194.994C452.476,197.222 452.846,205.377 451.28,207.404C449.717,209.431 451.573,211.994 448.382,214.691C445.191,217.389 439.97,218.562 436.831,215.723C433.691,212.882 435.594,206.144 435.594,206.144L440.287,195.351Z" fill="#06055E"/>
<path d="M420.104,206.076C420.696,207.488 420.263,209.018 419.137,209.492C418.009,209.966 416.617,209.208 416.025,207.796C415.433,206.384 415.867,204.855 416.992,204.381C418.118,203.906 419.513,204.665 420.104,206.076Z" fill="#F99893"/>
<path d="M436.538,216.304C436.538,216.304 436.288,218.239 436.126,220.58C434.016,222.289 431.29,223.164 428.447,222.797C427.512,222.675 426.625,222.425 425.797,222.071C425.863,220.543 425.839,219.13 425.604,218.45C424.955,216.586 436.538,216.304 436.538,216.304Z" fill="#F99893"/>
<path d="M420.6,214.368C420.241,213.761 419.936,213.114 419.69,212.439C418.994,210.623 418.631,208.69 418.447,207.003C418.409,206.642 418.349,206.283 418.28,205.924C418.011,204.478 418.001,202.945 418.321,201.362C419.357,196.27 423.691,192.395 428.857,191.955C435.818,191.362 441.639,196.81 441.713,203.624C442.448,203.203 443.277,203.101 444.012,203.419C445.421,204.032 445.945,205.958 445.18,207.725C444.415,209.489 442.655,210.425 441.246,209.812C441.049,209.726 440.874,209.613 440.714,209.483C440.188,215.286 435.496,219.814 429.81,219.78C427.029,219.765 424.498,218.659 422.584,216.856C422.456,216.751 422.322,216.627 422.181,216.484C421.563,215.854 421.042,215.136 420.6,214.368Z" fill="#FFC0BB"/>
<path d="M430.848,205.741C430.844,206.356 431.339,206.856 431.952,206.86C432.565,206.865 433.065,206.369 433.069,205.754C433.074,205.139 432.578,204.639 431.965,204.635C431.352,204.633 430.852,205.128 430.848,205.741Z" fill="#333333"/>
<path d="M421.745,206.153C421.74,206.768 422.236,207.268 422.849,207.272C423.462,207.277 423.962,206.781 423.966,206.166C423.97,205.551 423.475,205.051 422.862,205.047C422.249,205.045 421.749,205.54 421.745,206.153Z" fill="#333333"/>
<path d="M427.366,203.776C427.39,204.135 427.409,204.492 427.411,204.851C427.418,205.207 427.413,205.564 427.394,205.921C427.373,206.275 427.341,206.63 427.27,206.974C427.202,207.318 427.101,207.659 426.913,207.937C426.888,207.969 426.867,208.008 426.839,208.035C426.811,208.067 426.787,208.095 426.753,208.131C426.721,208.166 426.689,208.2 426.659,208.238C426.629,208.275 426.6,208.313 426.576,208.356C426.471,208.516 426.399,208.704 426.379,208.898C426.339,209.291 426.514,209.674 426.775,209.938C427.035,210.21 427.371,210.389 427.717,210.496C428.065,210.601 428.43,210.639 428.787,210.62C428.607,210.607 428.43,210.583 428.257,210.551C428.082,210.517 427.913,210.466 427.749,210.402C427.422,210.276 427.116,210.088 426.888,209.832C426.661,209.577 426.52,209.244 426.565,208.917C426.585,208.755 426.644,208.599 426.736,208.46C426.758,208.426 426.783,208.392 426.809,208.36C426.834,208.326 426.862,208.296 426.892,208.266L426.986,208.164C427.02,208.129 427.046,208.089 427.074,208.048C427.18,207.89 427.257,207.717 427.317,207.542C427.377,207.367 427.42,207.187 427.452,207.008C427.514,206.647 427.541,206.286 427.546,205.925C427.559,205.203 427.49,204.483 427.366,203.776Z" fill="#F99893"/>
<path d="M429.831,203.93C430.323,203.639 430.837,203.415 431.365,203.259C431.895,203.108 432.437,203.035 432.975,203.063C433.245,203.073 433.514,203.116 433.776,203.178C433.909,203.206 434.037,203.249 434.169,203.287C434.236,203.306 434.298,203.334 434.362,203.355C434.426,203.379 434.492,203.4 434.554,203.43C435.06,203.644 435.541,203.934 436.013,204.259C435.654,203.812 435.201,203.432 434.688,203.15C434.432,203.009 434.159,202.892 433.873,202.813C433.588,202.732 433.294,202.678 432.997,202.665C432.403,202.638 431.805,202.744 431.265,202.969C430.993,203.078 430.735,203.217 430.493,203.377C430.254,203.537 430.024,203.716 429.831,203.93Z" fill="#07085B"/>
<path d="M425.363,204.134C425.152,203.938 424.908,203.78 424.654,203.641C424.398,203.504 424.128,203.389 423.849,203.305C423.289,203.132 422.685,203.079 422.097,203.16C421.802,203.199 421.514,203.278 421.236,203.384C420.959,203.489 420.698,203.63 420.455,203.795C419.968,204.123 419.553,204.54 419.235,205.018C419.675,204.653 420.128,204.32 420.613,204.062C420.673,204.027 420.735,204 420.796,203.972C420.858,203.944 420.918,203.91 420.982,203.886C421.108,203.835 421.234,203.782 421.362,203.743C421.619,203.658 421.882,203.592 422.149,203.557C422.682,203.483 423.231,203.504 423.772,203.609C424.314,203.713 424.846,203.889 425.363,204.134Z" fill="#07085B"/>
<path d="M418.473,195.263C420.316,187.646 430.269,186.931 430.269,186.931C445.731,187.304 443.916,200.961 443.51,203.225C443.059,203.142 442.446,203.183 441.718,203.623C441.412,203.806 441.167,203.999 440.968,204.189C439.127,203.717 438.441,200.72 437.435,199.308C436.07,197.39 430.498,198.665 428.302,197.36C426.106,196.055 425.79,193.9 425.79,193.9C417.629,195.579 418.15,204.278 418.15,204.278C417.791,204.214 417.353,204.274 417.353,204.274C417.353,204.274 416.828,202.066 418.473,195.263Z" fill="#06055E"/>
<path d="M424.714,212.118C425.047,213.261 426.429,214.085 428.056,214.029C429.682,213.974 431.006,213.055 431.26,211.894L424.714,212.118Z" fill="#FFFFFF"/>
<path d="M383.023,255.417L372.724,250.641L374.904,245.273C374.904,245.273 379.821,246.976 384.86,248.648L383.023,255.417Z" fill="#FFC0BB"/>
<path d="M406.082,406.943L414.961,401.396L422.674,406.016L419.996,407.945L410.674,409.308C410.674,409.308 407.033,408.857 406.87,408.75C406.712,408.641 406.082,406.943 406.082,406.943Z" fill="#FFC0BB"/>
<path d="M427.503,326.46C427.503,326.46 426.232,357.202 426.115,362.51C425.998,367.817 423.291,407.208 422.114,410.627L415.523,410.155C415.523,410.155 411.027,333.891 412.441,326.46C413.853,319.031 427.503,326.46 427.503,326.46Z" fill="#FFC0BB"/>
<path d="M406.082,406.945L403.833,408.41C402.791,409.076 403.261,410.693 404.497,410.693L421.585,410.693C422.187,410.693 422.676,410.204 422.676,409.6L422.676,406.016C411.296,409.647 407.364,408.542 406.082,406.945Z" fill="#838CCF"/>
<path d="M447.972,407.212L455.998,400.488L464.277,403.995L461.891,406.277L452.848,408.917C452.848,408.917 449.178,408.976 449.003,408.891C448.83,408.808 447.972,407.212 447.972,407.212Z" fill="#FFC0BB"/>
<path d="M458.044,324.54C458.044,324.54 461.041,355.163 461.658,360.434C462.276,365.706 465.05,405.092 464.356,408.642L457.762,409.086C457.762,409.086 442.751,334.178 443.123,326.623C443.495,319.073 458.044,324.54 458.044,324.54Z" fill="#FFC0BB"/>
<path d="M447.972,407.213L445.947,408.975C445.007,409.778 445.697,411.316 446.921,411.145L463.843,408.779C464.439,408.695 464.856,408.142 464.773,407.544L464.277,403.994C453.508,409.169 449.462,408.618 447.972,407.213Z" fill="#07085B"/>
<path d="M455.355,280.158L462.024,272.78L457.194,267.757L449.037,278.323C449.037,278.323 453.792,291.1 454.076,291.668C454.36,292.236 455.319,291.668 455.319,291.668C455.033,289.481 455.168,283.315 455.257,280.19C455.319,280.169 455.355,280.158 455.355,280.158Z" fill="#FFC0BB"/>
<path d="M417.088,271.039C417.088,271.039 408.282,280.894 407.532,312.509C406.783,344.125 408.432,355.511 408.432,355.511C408.432,355.511 432.606,361.404 466.268,350.268C466.268,350.268 457.976,290.484 445.791,270.107C445.791,270.105 431.589,261.632 417.088,271.039Z" fill="#01008A"/>
<path d="M376.348,246.463C376.308,245.972 374.988,245.327 374.988,245.327C373.868,244.853 371.592,244.276 369.528,244.357C368.881,244.383 368.445,245.03 368.676,245.635L369.836,245.684C369.802,245.718 369.759,245.746 369.706,245.756C369.392,245.827 368.943,245.927 368.426,246.047L368.907,251.258C369.926,251.038 371.252,252.036 373.191,251.568L375.772,250.829C375.588,250.515 375.417,250.195 375.28,249.859C375.075,249.338 374.913,248.8 374.793,248.255C374.68,247.713 376.395,247.019 376.348,246.463Z" fill="#FFC0BB"/>
<path d="M365.916,252.42L367.298,252.094C367.988,251.931 368.642,251.598 369.221,251.12L369.535,250.859C370.239,250.274 370.722,249.377 370.872,248.364L370.949,247.843C371.028,247.316 370.934,246.771 370.688,246.32C370.391,245.776 369.9,245.428 369.357,245.376L367.787,245.225L365.916,252.42ZM366.696,251.182L367.971,246.284L369.039,246.387C369.409,246.423 369.742,246.66 369.945,247.029C370.111,247.335 370.175,247.707 370.122,248.065L370.069,248.42C369.966,249.108 369.639,249.721 369.159,250.118L368.945,250.295C368.552,250.622 368.106,250.846 367.636,250.957L366.696,251.182Z" fill="#84E532"/>
<path d="M353.737,244.018L353.814,244.007L360.882,244.214L368.027,244.005L368.039,244.013C368.039,244.013 368.061,244.026 368.061,244.069C368.065,244.808 367.738,251.993 364.763,255.026C364.763,255.026 362.725,255.338 360.88,255.3C359.034,255.34 356.713,254.676 356.713,254.676C353.748,251.654 353.695,244.857 353.699,244.077C353.703,244.031 353.737,244.018 353.737,244.018Z" fill="#84E532"/>
<path d="M353.703,244.077C353.703,244.03 353.737,244.017 353.737,244.017L353.814,244.007L360.882,244.214L361.311,244.201C359.801,245.139 358.398,246.519 358.325,248.426C358.21,251.521 360.011,254.541 362.648,255.173C362.07,255.255 361.452,255.31 360.88,255.297C359.034,255.338 356.713,254.674 356.713,254.674C353.75,251.655 353.699,244.857 353.703,244.077Z" fill="#64C513"/>
<path d="M353.703,244.076C353.703,245.136 356.928,245.997 360.888,245.997C364.85,245.997 368.06,245.138 368.06,244.076C368.06,243.017 364.85,242.156 360.888,242.156C356.926,242.158 353.703,243.017 353.703,244.076Z" fill="#64C513"/>
<path d="M367.177,244.983L364.957,245.581L363.199,245.843L360.812,245.903L358.473,245.784L356.965,245.591L355.636,245.279L354.696,244.884C354.696,244.884 354.453,244.662 354.278,244.508C355.303,243.782 358.089,243.262 361.161,243.262C364.277,243.262 366.773,243.797 367.762,244.54L367.177,244.983Z" fill="#294F0A"/>
<g opacity="0.5">
<path d="M355.147,244.283C355.164,244.239 355.194,244.211 355.228,244.2C357.166,243.677 359.043,243.487 360.731,243.482C360.735,243.482 360.739,243.482 360.745,243.482C360.75,243.482 360.754,243.482 360.76,243.482C362.448,243.487 364.325,243.675 366.262,244.2C366.297,244.209 366.329,244.239 366.344,244.283C366.371,244.36 366.361,244.491 366.096,244.64C365.374,244.89 364.62,244.933 363.883,244.766C363.11,244.591 362.038,244.416 360.748,244.377C359.457,244.416 358.387,244.591 357.612,244.766C356.873,244.933 356.121,244.89 355.399,244.64C355.13,244.491 355.119,244.36 355.147,244.283Z" fill="#559C19"/>
</g>
<path d="M366.882,244.136C366.638,244.031 366.388,243.952 366.139,243.877C365.889,243.805 365.634,243.741 365.382,243.683C365.128,243.625 364.874,243.578 364.618,243.533C364.49,243.51 364.361,243.491 364.233,243.471C364.105,243.452 363.977,243.435 363.849,243.418C363.336,243.35 362.819,243.307 362.305,243.277C361.788,243.247 361.273,243.234 360.756,243.234C359.724,243.239 358.691,243.298 357.665,243.446C357.153,243.521 356.642,243.615 356.136,243.738C355.884,243.8 355.632,243.871 355.382,243.952C355.132,244.033 354.884,244.121 354.645,244.236C354.705,244.208 354.767,244.183 354.827,244.159C354.889,244.136 354.951,244.112 355.01,244.091C355.134,244.046 355.258,244.005 355.384,243.967C355.634,243.89 355.886,243.824 356.138,243.766C356.644,243.647 357.155,243.559 357.668,243.491C358.18,243.424 358.695,243.373 359.21,243.341C359.724,243.309 360.241,243.296 360.756,243.294C361.788,243.29 362.819,243.339 363.845,243.463C363.973,243.478 364.101,243.495 364.229,243.512C364.357,243.531 364.485,243.548 364.613,243.57C364.87,243.61 365.124,243.657 365.378,243.711C365.632,243.764 365.884,243.822 366.136,243.89C366.262,243.924 366.386,243.961 366.512,244.001C366.638,244.042 366.76,244.087 366.882,244.136Z" fill="#FFFFFF"/>
<path d="M353.703,244.076C353.703,245.136 356.928,245.997 360.888,245.997C364.85,245.997 368.06,245.138 368.06,244.076C368.06,243.017 364.85,242.156 360.888,242.156C356.926,242.158 353.703,243.017 353.703,244.076ZM354.002,244.076C354.002,243.094 357.092,242.299 360.888,242.299C364.683,242.299 367.761,243.096 367.761,244.079C367.761,245.061 364.683,245.858 360.888,245.858C357.092,245.858 354.002,245.059 354.002,244.076Z" fill="#84E532"/>
<path d="M371.431,246.503C371.431,246.921 370.643,247.263 369.669,247.263C368.695,247.263 367.907,246.923 367.907,246.503C367.907,246.084 368.695,245.742 369.669,245.742C370.643,245.744 371.431,246.084 371.431,246.503Z" fill="#FCB7B4"/>
<path d="M371.295,247.707C371.295,248.125 370.507,248.467 369.533,248.467C368.559,248.467 367.771,248.127 367.771,247.707C367.771,247.286 368.559,246.946 369.533,246.946C370.504,246.946 371.295,247.286 371.295,247.707Z" fill="#FCB7B4"/>
<path d="M371.165,249.038C371.165,249.456 370.376,249.798 369.402,249.798C368.428,249.798 367.64,249.458 367.64,249.038C367.64,248.617 368.428,248.277 369.402,248.277C370.374,248.277 371.165,248.617 371.165,249.038Z" fill="#FCB7B4"/>
<path d="M371.077,250.371C371.077,250.789 370.289,251.131 369.315,251.131C368.341,251.131 367.553,250.791 367.553,250.371C367.553,249.95 368.341,249.61 369.315,249.61C370.289,249.61 371.077,249.95 371.077,250.371Z" fill="#FCB7B4"/>
<path d="M474.957,252.458C472.626,244.6 454.712,224.089 448.452,223.025C442.192,221.959 436.931,223.89 436.931,223.89C436.931,223.89 430.538,227.952 425.011,225.088C425.011,225.088 423.535,224.84 421.386,225.187C421.386,225.187 409.621,235.516 415.222,248.329C415.222,248.329 416.954,261.115 417.086,271.036C417.086,271.036 419.551,276.297 431.869,275.963C444.189,275.63 445.787,270.102 445.787,270.102C445.787,270.102 447.252,245.862 449.315,241.934C449.315,241.934 462.434,252.456 462.701,253.654C462.968,254.852 455.842,268.037 453.444,270.968C453.444,270.968 455.108,274.661 460.768,275.976C460.774,275.98 477.289,260.316 474.957,252.458Z" fill="#FF5B7E"/>
<path d="M421.388,225.187C418.193,225.699 413.507,227.521 409.963,233.414C404.036,243.269 397.91,249.529 397.91,249.529L383.593,247.932C383.593,247.932 381.861,253.393 382.728,255.856C382.728,255.856 393.184,262.116 399.243,260.117C405.303,258.12 415.226,248.331 415.226,248.331C409.624,235.516 421.388,225.187 421.388,225.187Z" fill="#F24C78"/>
<path d="M583.015,338.58L588.188,412.521L585.601,412.521L577.41,339.381L583.015,338.58Z" fill="#FFFFFF"/>
<path d="M528.677,338.58L523.504,412.521L526.091,412.521L534.282,339.381L528.677,338.58Z" fill="#FFFFFF"/>
<path d="M605.591,262.732C605.591,262.732 564.238,261.506 561.562,261.698C558.886,261.888 556.41,270.494 556.41,270.494C556.41,270.494 544.329,315.312 544.571,316.544C544.812,317.776 533.302,346.656 533.302,346.656C533.302,346.656 543.232,346.391 543.669,346.656C544.109,346.921 582.067,343.399 582.594,343.046C583.122,342.694 585.055,336.09 585.142,335.739C585.23,335.387 588.13,309.677 588.13,309.677L589.623,295.501C589.623,295.501 595.335,283.339 595.422,283.301C595.51,283.262 600.781,272.608 601.134,272.081C601.486,271.553 606.933,265.654 607.108,265.124C607.285,264.594 605.591,262.732 605.591,262.732Z" fill="#FEE4CB"/>
<g opacity="0.5">
<path d="M605.591,262.732C605.591,262.732 591.334,262.309 579.021,261.999C583.807,264.814 586.49,272.691 584.499,286.703C582.808,298.611 580.926,311.533 573.429,327.029C569.567,335.011 552.939,330.54 539.31,331.328C536.373,338.949 533.304,346.653 533.304,346.653C533.304,346.653 543.234,346.389 543.671,346.653C544.111,346.918 582.069,343.396 582.596,343.044C583.124,342.691 585.057,336.087 585.144,335.737C585.232,335.384 588.132,309.674 588.132,309.674L589.625,295.498C589.625,295.498 595.337,283.337 595.424,283.298C595.512,283.26 600.783,272.606 601.136,272.078C601.488,271.551 606.935,265.651 607.11,265.122C607.285,264.594 605.591,262.732 605.591,262.732Z" fill="#FEE4CB"/>
</g>
<path d="M525.747,348.233C525.659,346.817 526.725,345.599 528.135,345.503C532.554,345.204 542.11,344.518 551.94,343.587C570.78,341.799 577.592,340.336 580.031,339.572C580.873,339.307 581.52,338.623 581.733,337.767C582.395,335.133 582.782,329.667 583.107,325.094C584.337,307.742 586.366,279.13 604.194,263.42C605.307,262.44 607.02,262.615 607.924,263.792C608.746,264.864 608.605,266.393 607.591,267.286C591.349,281.548 589.485,307.847 588.235,325.462C587.522,335.503 587.084,340.43 584.89,342.724C583.833,343.831 581.864,345.888 553.217,348.641C543.054,349.617 533.05,350.334 528.481,350.644C527.061,350.738 525.835,349.657 525.747,348.233Z" fill="#E8B891"/>
<path d="M152.297,338.58L147.124,412.521L149.71,412.521L157.901,339.381L152.297,338.58Z" fill="#FFFFFF"/>
<path d="M206.636,338.58L211.809,412.521L209.223,412.521L201.032,339.381L206.636,338.58Z" fill="#FFFFFF"/>
<path d="M129.72,262.732C129.72,262.732 171.073,261.506 173.75,261.698C176.426,261.888 178.902,270.494 178.902,270.494C178.902,270.494 190.982,315.312 190.741,316.544C190.499,317.776 202.01,346.656 202.01,346.656C202.01,346.656 192.082,346.391 191.642,346.656C191.202,346.921 153.245,343.399 152.717,343.046C152.19,342.694 150.257,336.09 150.169,335.739C150.082,335.387 147.181,309.677 147.181,309.677L145.688,295.501C145.688,295.501 139.977,283.339 139.889,283.301C139.802,283.262 134.53,272.608 134.178,272.081C133.825,271.553 128.379,265.654 128.204,265.124C128.029,264.594 129.72,262.732 129.72,262.732Z" fill="#FEE4CB"/>
<g opacity="0.5">
<path d="M129.72,262.732C129.72,262.732 143.977,262.309 156.291,261.999C151.504,264.814 148.821,272.691 150.812,286.703C152.504,298.611 154.385,311.533 161.882,327.029C165.744,335.011 182.372,330.54 195.999,331.328C198.936,338.949 202.008,346.653 202.008,346.653C202.008,346.653 192.078,346.389 191.64,346.653C191.2,346.918 153.243,343.396 152.715,343.044C152.188,342.691 150.255,336.087 150.167,335.737C150.079,335.384 147.179,309.674 147.179,309.674L145.686,295.498C145.686,295.498 139.975,283.337 139.887,283.298C139.799,283.26 134.528,272.606 134.176,272.078C133.823,271.551 128.377,265.651 128.201,265.122C128.028,264.594 129.72,262.732 129.72,262.732Z" fill="#FEE4CB"/>
</g>
<path d="M206.83,350.644C202.262,350.334 192.257,349.617 182.095,348.641C153.448,345.888 151.479,343.831 150.421,342.724C148.228,340.43 147.788,335.503 147.076,325.462C145.827,307.847 143.962,281.55 127.721,267.286C126.706,266.396 126.565,264.864 127.388,263.792C128.291,262.615 130.004,262.44 131.115,263.42C148.943,279.13 150.972,307.742 152.203,325.094C152.527,329.667 152.914,335.133 153.576,337.767C153.792,338.623 154.439,339.307 155.28,339.572C157.717,340.336 164.531,341.799 183.372,343.587C193.201,344.521 202.757,345.204 207.176,345.503C208.586,345.599 209.652,346.819 209.564,348.231L209.564,348.233C209.477,349.659 208.251,350.74 206.83,350.644Z" fill="#E8B891"/>
<path d="M639.648,355.86C639.337,353.111 638.967,350.3 637.688,347.846C636.133,344.862 633.401,342.712 631.015,340.341C626.555,335.911 623.125,330.454 621.066,324.516C619.473,319.924 618.68,315.032 616.484,310.696C615.145,308.048 613.317,305.681 611.796,303.133C608.902,298.291 607.069,292.74 603.925,288.131C603.067,286.87 601.076,287.53 601.144,289.053C601.354,293.855 603.174,298.59 606.309,302.24C607.509,303.639 608.904,304.9 609.818,306.499C611.48,309.404 611.328,312.95 611.523,316.29C611.888,322.57 613.661,328.762 616.675,334.283C619.874,340.148 624.494,345.371 626.205,351.83C627.487,356.67 627.106,362.099 629.84,366.294C630.137,366.749 630.475,367.206 630.547,367.742C630.588,368.045 630.541,368.351 630.494,368.652C630.432,369.043 630.372,369.432 630.31,369.82C629.689,373.782 629.046,378.821 632.457,381.786C634.821,383.84 637.863,383.885 639.561,381.158C641.27,378.409 641.118,374.387 640.992,371.294C640.783,366.144 640.229,360.98 639.648,355.86Z" fill="#84E532"/>
<path d="M645.793,352.674C644.467,348.088 642.406,343.722 641.374,339.06C640.372,334.538 640.366,329.864 640.362,325.234C640.358,320.159 640.355,315.086 640.351,310.013C640.349,306.854 640.345,303.678 639.821,300.564C638.696,293.862 635.206,287.663 634.614,280.892C634.358,277.964 634.655,275.006 634.332,272.084C634.148,270.416 633.719,268.711 632.944,267.231C632.111,265.64 629.81,265.708 629.056,267.34C627.361,271.005 626.286,274.97 626.97,278.898C627.38,281.253 628.403,283.451 629.167,285.718C632.568,295.812 630.763,306.985 633.392,317.305C634.187,320.42 635.387,323.476 635.526,326.688C635.861,334.376 630.107,341.398 630.635,349.075C631.068,355.369 635.601,360.577 637.506,366.591C638.572,369.958 638.8,373.552 639.941,376.895C640.827,379.492 642.891,382.645 646.095,381.857C649.136,381.109 648.218,378.631 648.081,376.265C647.624,368.259 648.055,360.493 645.793,352.674Z" fill="#A4FC59"/>
<path d="M652.754,356.878C652.62,354.495 652.218,352.1 652.551,349.736C652.833,347.741 653.63,345.859 654.198,343.926C655.264,340.304 655.527,336.5 655.785,332.732C656.255,325.882 656.723,319.034 657.193,312.184C657.921,301.537 658.654,290.862 660.649,280.377C661.202,277.465 661.823,274.313 660.514,271.656C660.239,271.096 659.694,270.502 659.098,270.688C658.673,270.82 658.466,271.288 658.312,271.705C653.95,283.531 652.304,296.261 647.436,307.887C646.27,310.672 644.913,313.413 644.311,316.371C643.587,319.923 643.984,323.592 644.078,327.217C644.213,332.416 643.704,337.653 642.267,342.649C641.515,345.263 640.507,347.818 640.095,350.507C639.58,353.86 640.011,357.275 640.334,360.652C640.953,367.143 641.163,373.675 640.962,380.194C640.844,384.026 644.085,383.925 646.233,381.571C647.735,379.925 647.722,378.118 648.235,376.067C649.92,369.339 653.164,364.172 652.754,356.878Z" fill="#84E532"/>
<path d="M632.502,367.269C629.635,362.673 623.924,360.061 622.094,354.962C621.628,353.666 621.444,352.271 620.876,351.015C619.612,348.228 616.735,346.652 613.909,345.37C613.516,345.193 613.069,345.477 613.063,345.906C613.054,346.592 613.379,347.245 613.947,347.628C616.126,349.091 617.781,351.327 618.518,353.847C619.392,356.836 619.014,360.11 620.099,363.028C621.011,365.475 622.886,367.479 623.768,369.937C624.573,372.186 624.49,374.643 624.868,377.001C625.246,379.359 626.297,381.862 628.467,382.859C636.317,386.471 634.354,370.238 632.502,367.269Z" fill="#A4FC59"/>
<path d="M665.157,365.75C665.036,367.971 665.375,370.302 664.504,372.35C663.946,373.659 662.945,374.719 662.12,375.881C659.23,379.96 658.182,385.74 653.741,388.038C653.448,388.19 653.122,388.324 652.797,388.265C652.342,388.179 652.043,387.741 651.861,387.316C650.772,384.785 651.994,381.932 652.718,379.275C652.844,378.809 652.951,378.29 652.729,377.863C652.485,377.393 651.928,377.188 651.545,376.818C650.787,376.081 650.858,374.864 651.009,373.817C651.385,371.203 651.915,368.61 652.594,366.055C652.979,364.607 653.423,363.146 654.258,361.903C655.179,360.534 656.516,359.513 657.765,358.439C663.295,353.691 667.53,347.452 669.903,340.559C670.416,339.068 670.873,337.492 671.935,336.324C672.994,335.155 674.884,334.553 676.177,335.461C677.095,336.106 673.331,342.146 672.894,342.87C671.64,344.94 671.623,346.741 670.914,349.041C669.179,354.675 665.491,359.716 665.157,365.75Z" fill="#84E532"/>
<path d="M660.781,368.322C661.603,366.203 662.43,364.054 662.701,361.796C663.002,359.287 662.603,356.721 663.032,354.231C663.583,351.029 665.454,348.214 666.381,345.098C667.05,342.849 667.214,340.486 667.616,338.175C668.765,331.565 671.879,325.106 670.984,318.457C670.79,317.011 670.136,315.325 668.697,315.078C667.394,314.856 666.208,316.043 665.871,317.32C665.534,318.598 665.786,319.943 665.877,321.261C666.136,324.937 665.085,328.69 662.958,331.697C660.911,334.585 657.945,336.761 656.103,339.784C653.846,343.492 653.538,348.02 652.385,352.206C650.093,360.532 644.345,367.794 643.299,376.363C642.882,379.774 643.683,383.92 646.838,385.281C655.96,389.221 658.716,373.653 660.781,368.322Z" fill="#A4FC59"/>
<path d="M644.834,374.584L643.375,374.584L623.9,374.584C622.469,374.584 621.412,375.921 621.743,377.314L629.375,409.427C629.612,410.427 630.505,411.131 631.532,411.131L643.375,411.131L644.834,411.131L656.678,411.131C657.705,411.131 658.596,410.427 658.835,409.427L666.467,377.314C666.798,375.921 665.743,374.584 664.309,374.584L644.834,374.584Z" fill="#FFFFFF"/>
<g opacity="0.3">
<path d="M625.716,374.584L623.898,374.584C622.467,374.584 621.41,375.921 621.741,377.314L629.373,409.427C629.61,410.427 630.503,411.131 631.53,411.131L643.373,411.131L644.832,411.131L656.676,411.131C657.703,411.131 658.594,410.427 658.833,409.427L659.115,408.237C644.828,400.24 630.889,389.106 625.716,374.584Z" fill="#C9EAFD"/>
</g>
<path d="M539.733,16.091L539.733,45.455C537.755,45.765 536.174,48.384 536.068,51.628C529.79,54.375 525.1,63.563 524.969,74.529L554.643,74.884C554.774,63.916 550.305,54.62 544.094,51.724C544.086,50.727 543.934,49.787 543.673,48.95C543.067,47.204 541.967,46.151 541.967,46.151C541.79,46.002 541.602,45.876 541.409,45.769L541.409,16.896C540.854,16.625 540.295,16.356 539.733,16.091Z" fill="#84E532"/>
<path d="M297.724,48.774L297.724,101.527C295.99,102.163 294.664,104.605 294.565,107.567C288.288,110.314 283.598,119.503 283.467,130.468L313.141,130.823C313.272,119.855 308.803,110.56 302.592,107.663C302.584,106.666 302.432,105.724 302.171,104.889C301.565,103.144 300.465,102.091 300.465,102.091C300.136,101.813 299.779,101.608 299.401,101.489L299.401,48.283C298.844,48.448 298.282,48.614 297.724,48.774Z" fill="#4F8F19"/>
<path d="M387.676,58.501C387.667,57.504 387.515,56.562 387.255,55.727C386.648,53.982 385.548,52.929 385.548,52.929C385.145,52.589 384.698,52.356 384.226,52.256L384.226,15.313C383.664,15.544 383.105,15.779 382.547,16.016L382.547,52.474C380.941,53.249 379.741,55.592 379.647,58.405C373.369,61.152 368.679,70.341 368.549,81.306L398.223,81.661C398.355,70.695 393.887,61.398 387.676,58.501Z" fill="#84E532"/>
<path d="M490.654,121.085C490.785,110.117 486.316,100.822 480.105,97.925C480.096,96.928 479.945,95.986 479.684,95.151C479.078,93.406 477.978,92.353 477.978,92.353C477.574,92.013 477.127,91.78 476.655,91.68L476.655,0.398C476.096,0.364 475.536,0.332 474.977,0.302L474.977,91.896C473.37,92.671 472.17,95.014 472.076,97.827C465.799,100.574 461.108,109.763 460.978,120.728L490.654,121.085Z" fill="#4F8F19"/>
<path d="M543.789,246.872L543.789,257.137C543.789,257.707 543.503,258.227 543.052,258.47C541.679,259.205 538.609,260.409 535.745,258.489C535.359,258.231 535.13,257.744 535.13,257.231L535.13,247.959L543.789,246.872Z" fill="#FFC0BB"/>
<path d="M543.789,253.782L543.789,248.964L535.13,249.916L535.13,254.005C536.753,254.498 539.778,254.991 543.789,253.782Z" fill="#F99893"/>
<path d="M532.304,256.772C532.616,256.978 546.113,256.772 546.113,256.772C546.113,256.772 547.601,258.244 547.352,258.492C547.104,258.74 541.965,262.275 541.965,262.275L535.128,261.345L532.304,256.772Z" fill="#FFC0BB"/>
<path d="M493.388,262.074C493.388,262.074 488.057,296.806 495.673,303.919C503.29,311.033 517.658,292.133 517.658,292.133L520.727,279.787L507.31,283.988L502.455,289.971L499.945,257.751L493.388,262.074Z" fill="#FFC0BB"/>
<path d="M498.401,250.737L498.471,250.798L502.416,254.229C502.846,254.603 502.869,255.26 502.47,255.664L493.67,264.526C493.377,264.821 492.931,264.902 492.555,264.722C491.694,264.317 490.094,263.464 488.555,262.127C487.017,260.79 485.951,259.323 485.43,258.526C485.201,258.178 485.218,257.725 485.47,257.394L493.027,247.452C493.371,246.999 494.027,246.932 494.456,247.304L498.401,250.737Z" fill="#84E532"/>
<path d="M494.586,245.211C495.018,244.922 495.5,244.901 495.793,245.155L500.041,248.85L500.112,248.912L504.36,252.607C504.655,252.864 504.7,253.342 504.473,253.81L503.721,255.369C503.51,255.807 502.94,255.924 502.574,255.604L497.858,251.501L497.788,251.439L493.072,247.336C492.704,247.018 492.743,246.437 493.147,246.168L494.586,245.211Z" fill="#24410C"/>
<path d="M496.393,244.479C496.547,244.303 496.812,244.284 496.989,244.438L500.913,247.851L500.983,247.913L504.907,251.326C505.082,251.48 505.101,251.745 504.947,251.922L504.117,252.877L500.073,248.887L495.562,245.436L496.393,244.479Z" fill="#1B3406"/>
<path d="M501.182,257.567L497.107,261.529C497.038,261.598 496.934,261.615 496.846,261.572C496.267,261.292 494.057,260.164 491.897,258.287C489.738,256.407 488.315,254.376 487.956,253.842C487.903,253.761 487.905,253.656 487.963,253.579L491.32,248.994C491.41,248.87 491.596,248.868 491.688,248.989C493.401,251.256 498.651,255.822 501.133,257.204C501.27,257.277 501.293,257.46 501.182,257.567Z" fill="#489506"/>
<path d="M493.044,254.304C492.064,255.07 491.889,256.487 492.655,257.469C493.422,258.449 494.838,258.625 495.821,257.858C496.801,257.091 496.976,255.675 496.209,254.692C495.443,253.71 494.027,253.537 493.044,254.304Z" fill="#F3FDFF"/>
<path d="M495.618,391.291L494.24,402.364L486.833,402.938L486.948,392.673L495.618,391.291Z" fill="#FFC0BB"/>
<path d="M475.574,411.044L495.814,411.18C496.256,411.182 496.613,410.834 496.609,410.401L496.605,409.818C496.6,409.384 496.239,409.032 495.797,409.027L475.557,408.891C475.115,408.888 474.759,409.237 474.763,409.67L474.767,410.253C474.771,410.687 475.132,411.039 475.574,411.044Z" fill="#FFFFFF"/>
<path d="M495.539,402.484L496.314,408.477C496.41,409.216 495.994,409.882 495.441,409.88L476.194,409.75C475.694,409.746 475.197,409.438 474.93,408.861C474.656,408.27 474.594,407.383 475.444,406.196C477.147,403.821 482.802,403.278 485.554,401.26L494.518,401.32C495.022,401.322 495.453,401.815 495.539,402.484Z" fill="#EA426E"/>
<path d="M486.948,404.74C487.087,404.657 487.136,404.428 487.053,404.253C486.668,403.431 485.468,401.425 483.069,401.818C482.931,401.842 482.839,402.021 482.864,402.207L482.864,402.213C482.89,402.393 483.016,402.512 483.148,402.491C485.299,402.145 486.318,403.913 486.63,404.603C486.696,404.751 486.833,404.81 486.948,404.74Z" fill="#FFFFFF"/>
<path d="M484.955,405.502C485.094,405.418 485.143,405.19 485.06,405.015C484.676,404.192 483.475,402.187 481.077,402.58C480.938,402.603 480.846,402.783 480.871,402.968L480.871,402.975C480.895,403.154 481.023,403.274 481.156,403.253C483.306,402.907 484.325,404.675 484.637,405.365C484.705,405.512 484.84,405.57 484.955,405.502Z" fill="#FFFFFF"/>
<path d="M483.101,406.209C483.24,406.125 483.289,405.897 483.206,405.722C482.822,404.899 481.621,402.894 479.223,403.287C479.084,403.31 478.992,403.49 479.018,403.676L479.018,403.682C479.041,403.863 479.169,403.981 479.302,403.96C481.453,403.614 482.471,405.382 482.783,406.072C482.852,406.217 482.988,406.277 483.101,406.209Z" fill="#FFFFFF"/>
<g opacity="0.3">
<path d="M490.304,409.845C491.777,405.018 494.387,404.501 495.816,404.623L496.316,408.476C496.412,409.215 495.996,409.881 495.443,409.879L490.304,409.845Z" fill="#E87B50"/>
</g>
<path d="M506.989,391.527L503.715,402.211L496.175,402.262L497.489,394.464L506.989,391.527Z" fill="#FFC0BB"/>
<path d="M485.346,411.241L505.586,411.378C506.028,411.38 506.385,411.032 506.38,410.598L506.376,410.015C506.372,409.581 506.011,409.229 505.569,409.225L485.329,409.088C484.887,409.086 484.53,409.434 484.534,409.868L484.539,410.451C484.541,410.884 484.904,411.239 485.346,411.241Z" fill="#FFFFFF"/>
<path d="M505.311,402.681L506.086,408.674C506.182,409.413 505.766,410.08 505.212,410.078L485.966,409.947C485.466,409.943 484.968,409.635 484.701,409.059C484.426,408.467 484.366,407.581 485.216,406.393C486.918,404.018 492.574,403.475 495.325,401.457L504.292,401.517C504.792,401.521 505.223,402.014 505.311,402.681Z" fill="#F76390"/>
<path d="M496.718,404.941C496.857,404.858 496.906,404.629 496.822,404.454C496.438,403.632 495.238,401.626 492.839,402.019C492.7,402.043 492.608,402.222 492.634,402.408L492.634,402.414C492.657,402.594 492.783,402.713 492.918,402.692C495.069,402.346 496.088,404.115 496.399,404.804C496.468,404.952 496.602,405.009 496.718,404.941Z" fill="#FFFFFF"/>
<path d="M494.725,405.699C494.864,405.616 494.913,405.387 494.83,405.212C494.445,404.39 493.247,402.384 490.846,402.777C490.707,402.801 490.616,402.98 490.641,403.166L490.641,403.172C490.665,403.354 490.791,403.471 490.925,403.45C493.076,403.104 494.095,404.872 494.407,405.562C494.475,405.708 494.61,405.767 494.725,405.699Z" fill="#FFFFFF"/>
<path d="M492.873,406.406C493.012,406.323 493.061,406.094 492.978,405.919C492.594,405.097 491.393,403.091 488.995,403.484C488.856,403.508 488.764,403.687 488.79,403.873L488.79,403.879C488.815,404.059 488.941,404.178 489.074,404.157C491.224,403.811 492.243,405.579 492.555,406.269C492.624,406.417 492.758,406.476 492.873,406.406Z" fill="#FFFFFF"/>
<g opacity="0.3">
<path d="M500.075,410.044C501.549,405.217 504.159,404.7 505.586,404.822L506.086,408.675C506.182,409.414 505.765,410.08 505.212,410.078L500.075,410.044Z" fill="#E87B50"/>
</g>
<path d="M530.807,320.205C530.807,320.205 493.292,324.336 486.139,331.107C478.986,337.878 483.783,388.838 484.975,393.509C484.975,393.509 491.504,396.621 496.671,395.028C501.838,393.434 499.851,371.131 499.851,371.131C499.851,371.131 499.255,349.824 500.05,346.838C500.845,343.852 511.774,341.66 511.774,341.66C511.774,341.66 538.054,327.867 537.059,327.867C536.066,327.867 530.807,320.205 530.807,320.205Z" fill="#010066"/>
<path d="M572.335,329.076C572.493,319.431 569.714,311.135 569.714,311.135L552.875,325.674L552.727,324.375C552.727,324.375 510.58,319.358 504.817,338.474C499.054,357.591 494.682,395.426 494.682,395.426C494.682,395.426 500.246,398.811 507.797,395.426C507.797,395.426 518.476,354.803 522.477,350.82C525.027,348.28 540.873,345.358 550.141,345.22C559.718,345.079 572.149,340.506 572.335,329.076Z" fill="#01008A"/>
<path d="M532.304,256.772C532.304,256.772 522.866,258.492 518.03,263.887C513.194,269.28 506.592,282.67 506.592,282.67C506.592,282.67 511.56,292.611 516.849,293.457L528.63,282.019L532.304,256.772Z" fill="#29589B"/>
<path d="M532.304,256.773C532.304,256.773 523.517,264.027 522.261,270.582C521.005,277.137 523.237,322.192 523.237,322.192C523.237,322.192 529.933,329.445 550.017,327.074C550.017,327.074 568.847,309.778 569.266,309.359C569.684,308.94 560.756,292.161 560.756,292.161C560.756,292.161 570.938,289.551 573.45,286.204C573.45,286.204 570.381,255.237 546.11,256.773C546.11,256.773 540.115,262.074 532.304,256.773Z" fill="#3660AC"/>
<path d="M573.452,286.207C573.452,286.207 571.778,288.915 560.759,292.164C560.759,292.164 564.246,303.922 563.967,306.573C563.698,309.13 542.39,332.336 540.897,333.959L540.749,333.887C540.749,333.887 529.337,337.503 529.201,337.977C529.07,338.428 529.38,338.69 533.56,338.919C533.831,338.934 533.981,339.244 533.818,339.461C532.567,341.153 528.667,346.499 529.023,346.914C529.45,347.407 533.054,342.714 533.63,342.9C534.207,343.086 530.578,347.574 531.119,348.029C531.659,348.484 534.833,344.28 535.128,344.391C535.422,344.504 532.815,348.855 532.973,349.312C533.131,349.769 536.482,345.463 536.877,345.498C537.274,345.532 535.952,349.272 536.26,349.421C536.567,349.571 536.749,349.722 542.142,342.155L544.137,339.086L544.156,338.861C546.292,337.712 573.301,322.987 576.383,311.733C579.589,300.016 573.452,286.207 573.452,286.207Z" fill="#FFC0BB"/>
<path d="M492.824,247.84C493.864,248.858 494.217,250.183 493.612,250.8C493.008,251.417 491.675,251.093 490.635,250.076C489.595,249.057 489.242,247.733 489.847,247.116C490.451,246.498 491.784,246.823 492.824,247.84Z" fill="#FFC0BB"/>
<path d="M491.243,249.455C492.284,250.474 492.636,251.798 492.032,252.415C491.427,253.032 490.094,252.708 489.054,251.691C488.014,250.672 487.662,249.348 488.266,248.731C488.87,248.114 490.203,248.438 491.243,249.455Z" fill="#FFC0BB"/>
<path d="M489.663,251.072C490.703,252.09 491.056,253.415 490.451,254.032C489.847,254.649 488.514,254.325 487.474,253.308C486.434,252.289 486.081,250.965 486.686,250.347C487.29,249.728 488.623,250.053 489.663,251.072Z" fill="#FFC0BB"/>
<path d="M488.08,252.687C489.12,253.706 489.473,255.03 488.868,255.647C488.264,256.264 486.931,255.94 485.891,254.923C484.851,253.904 484.498,252.58 485.103,251.963C485.707,251.343 487.042,251.668 488.08,252.687Z" fill="#FFC0BB"/>
<path d="M533.154,245.075C533.338,246.397 534.515,247.463 536.004,247.561C537.492,247.66 538.795,246.754 539.148,245.468L533.154,245.075Z" fill="#FFFFFF"/>
<path d="M551.963,239.585C551.963,239.585 555.086,228.403 549.026,223.878C542.969,219.352 536.328,219.514 531.706,221.84C527.084,224.166 523.993,232.885 525.792,238.032L540.972,233.906L551.963,239.585Z" fill="#06055E"/>
<path d="M528.782,239.47C529.34,240.918 528.853,242.454 527.697,242.9C526.542,243.347 525.153,242.535 524.596,241.087C524.038,239.639 524.525,238.103 525.681,237.657C526.836,237.21 528.225,238.022 528.782,239.47Z" fill="#F99893"/>
<path d="M529.034,247.883C528.688,247.257 528.4,246.593 528.171,245.901C527.52,244.04 527.21,242.071 527.078,240.356C527.05,239.989 526.999,239.623 526.943,239.258C526.715,237.786 526.749,236.229 527.125,234.636C528.329,229.508 532.838,225.714 538.088,225.426C545.16,225.037 550.891,230.734 550.758,237.639C551.514,237.235 552.358,237.156 553.093,237.502C554.503,238.167 554.975,240.134 554.146,241.9C553.319,243.664 551.506,244.559 550.096,243.895C549.9,243.803 549.725,243.684 549.566,243.545C548.857,249.41 543.966,253.853 538.206,253.648C535.388,253.547 532.857,252.351 530.973,250.465C530.847,250.354 530.715,250.226 530.576,250.076C529.963,249.419 529.457,248.675 529.034,247.883Z" fill="#FFC0BB"/>
<path d="M536.095,237.24C536.016,237.924 535.957,238.592 535.867,239.244C535.771,239.88 535.645,240.562 535.352,240.991L535.294,241.059C535.273,241.085 535.267,241.098 535.224,241.145C535.156,241.226 535.077,241.292 535.023,241.388C534.904,241.565 534.814,241.777 534.793,242.001C534.739,242.454 534.944,242.879 535.222,243.152C535.79,243.716 536.576,243.832 537.242,243.723C536.585,243.55 535.963,243.266 535.628,242.798C535.474,242.567 535.378,242.315 535.438,242.091C535.459,241.98 535.506,241.873 535.581,241.775C535.608,241.721 535.666,241.681 535.705,241.632L535.799,241.525L535.905,241.401C536.149,241.053 536.249,240.688 536.32,240.333C536.382,239.976 536.407,239.626 536.403,239.278C536.392,238.584 536.3,237.898 536.095,237.24Z" fill="#F99893"/>
<path d="M539.983,238.472C539.961,239.051 540.414,239.535 540.991,239.557C541.568,239.578 542.052,239.125 542.074,238.547C542.095,237.968 541.642,237.483 541.066,237.462C540.487,237.442 540.002,237.893 539.983,238.472Z" fill="#333333"/>
<path d="M530.986,238.741C530.965,239.32 531.418,239.805 531.994,239.826C532.571,239.848 533.056,239.395 533.077,238.816C533.099,238.237 532.646,237.752 532.069,237.731C531.492,237.712 531.007,238.165 530.986,238.741Z" fill="#333333"/>
<path d="M538.868,236.004C539.412,235.884 539.921,235.799 540.423,235.765C540.923,235.729 541.407,235.756 541.873,235.852C542.337,235.955 542.798,236.094 543.236,236.337C543.471,236.431 543.667,236.591 543.902,236.713C544.126,236.85 544.331,237.017 544.586,237.153C544.475,236.899 544.34,236.651 544.18,236.418C544,236.205 543.83,235.968 543.597,235.797C543.167,235.41 542.608,235.163 542.033,235.041C541.454,234.921 540.85,234.957 540.301,235.128C539.754,235.303 539.246,235.585 538.868,236.004Z" fill="#07085B"/>
<path d="M534.235,236.145C533.844,235.737 533.327,235.47 532.776,235.314C532.223,235.162 531.619,235.145 531.044,235.28C530.474,235.418 529.923,235.683 529.504,236.083C529.275,236.26 529.113,236.503 528.94,236.721C528.786,236.958 528.66,237.213 528.558,237.469C528.808,237.324 529.006,237.151 529.226,237.008C529.457,236.879 529.649,236.713 529.882,236.61C530.311,236.354 530.768,236.2 531.228,236.083C531.691,235.972 532.174,235.931 532.674,235.95C533.176,235.972 533.686,236.04 534.235,236.145Z" fill="#07085B"/>
<path d="M550.577,237.791C551.29,237.225 551.815,237.293 551.815,237.293L551.662,233.626L550.624,231.375C550.624,231.375 546.442,225.258 546.292,225.104C546.143,224.95 542.838,222.887 542.633,222.78C542.428,222.673 537.652,223.184 537.652,223.184C537.652,223.184 529.38,221.112 530.6,225.546C531.819,229.98 537.813,232.539 538.135,232.357C537.187,231.334 537.206,228.545 537.206,228.545C541.318,233.423 549.327,237.219 550.577,237.791Z" fill="#06055E"/>
<path d="M533.987,245.455C534.337,246.743 535.638,247.653 537.129,247.561C538.618,247.47 539.797,246.408 539.983,245.086L533.987,245.455Z" fill="#FFFFFF"/>
<path d="M242.912,392.422L244.181,402.631L251.014,403.163L250.907,393.693L242.912,392.422Z" fill="#FFC0BB"/>
<path d="M261.396,410.637L242.731,410.763C242.323,410.765 241.994,410.444 241.998,410.045L242.003,409.507C242.007,409.107 242.34,408.781 242.748,408.778L261.414,408.652C261.822,408.65 262.15,408.971 262.146,409.37L262.142,409.908C262.138,410.308 261.804,410.634 261.396,410.637Z" fill="#FFFFFF"/>
<path d="M242.983,402.745L242.267,408.273C242.18,408.954 242.562,409.569 243.072,409.567L260.824,409.447C261.285,409.445 261.742,409.159 261.99,408.627C262.242,408.083 262.3,407.262 261.516,406.169C259.946,403.979 254.73,403.478 252.191,401.617L243.923,401.673C243.461,401.673 243.064,402.128 242.983,402.745Z" fill="#F9A435"/>
<path d="M250.907,404.832C250.779,404.755 250.734,404.544 250.811,404.383C251.166,403.625 252.272,401.775 254.485,402.139C254.613,402.16 254.698,402.326 254.675,402.497L254.675,402.504C254.651,402.67 254.536,402.779 254.412,402.76C252.428,402.442 251.488,404.071 251.2,404.708C251.138,404.84 251.014,404.896 250.907,404.832Z" fill="#FFFFFF"/>
<path d="M252.746,405.527C252.618,405.45 252.573,405.239 252.65,405.079C253.005,404.32 254.111,402.471 256.324,402.834C256.452,402.855 256.537,403.022 256.514,403.193L256.514,403.199C256.49,403.366 256.375,403.475 256.251,403.455C254.267,403.137 253.327,404.767 253.039,405.403C252.977,405.536 252.851,405.591 252.746,405.527Z" fill="#FFFFFF"/>
<path d="M254.455,406.18C254.327,406.103 254.282,405.891 254.359,405.731C254.713,404.973 255.82,403.123 258.033,403.486C258.161,403.508 258.246,403.674 258.223,403.845L258.223,403.851C258.199,404.018 258.084,404.127 257.96,404.108C255.976,403.789 255.036,405.419 254.748,406.056C254.686,406.188 254.56,406.244 254.455,406.18Z" fill="#FFFFFF"/>
<g opacity="0.3">
<path d="M247.812,409.533C246.454,405.082 244.046,404.606 242.729,404.717L242.267,408.271C242.18,408.952 242.562,409.567 243.072,409.565L247.812,409.533Z" fill="#E87B50"/>
</g>
<path d="M232.423,392.639L235.443,402.494L242.398,402.541L241.186,395.347L232.423,392.639Z" fill="#FFC0BB"/>
<path d="M252.385,410.822L233.719,410.948C233.311,410.95 232.982,410.63 232.987,410.231L232.991,409.692C232.995,409.293 233.328,408.966 233.736,408.964L252.402,408.838C252.81,408.836 253.139,409.156 253.135,409.556L253.13,410.094C253.126,410.493 252.793,410.818 252.385,410.822Z" fill="#FFFFFF"/>
<path d="M233.971,402.929L233.256,408.456C233.168,409.138 233.55,409.753 234.061,409.751L251.812,409.631C252.274,409.629 252.731,409.343 252.979,408.811C253.233,408.266 253.288,407.446 252.504,406.352C250.935,404.163 245.717,403.661 243.179,401.801L234.911,401.856C234.45,401.858 234.052,402.313 233.971,402.929Z" fill="#FEB546"/>
<path d="M241.898,405.015C241.77,404.939 241.725,404.727 241.802,404.567C242.156,403.809 243.263,401.959 245.475,402.322C245.604,402.343 245.689,402.51 245.665,402.681L245.665,402.687C245.642,402.854 245.527,402.963 245.403,402.944C243.418,402.625 242.479,404.255 242.19,404.892C242.128,405.024 242.002,405.077 241.898,405.015Z" fill="#FFFFFF"/>
<path d="M243.735,405.711C243.606,405.634 243.562,405.422 243.638,405.262C243.993,404.504 245.099,402.654 247.312,403.017C247.44,403.039 247.526,403.205 247.502,403.376L247.502,403.383C247.479,403.549 247.363,403.658 247.24,403.639C245.255,403.321 244.316,404.95 244.027,405.587C243.965,405.721 243.839,405.775 243.735,405.711Z" fill="#FFFFFF"/>
<path d="M245.443,406.365C245.315,406.288 245.27,406.077 245.347,405.917C245.702,405.158 246.808,403.309 249.021,403.672C249.149,403.693 249.235,403.86 249.211,404.031L249.211,404.037C249.188,404.204 249.072,404.312 248.948,404.293C246.964,403.975 246.024,405.605 245.736,406.241C245.674,406.374 245.548,406.427 245.443,406.365Z" fill="#FFFFFF"/>
<g opacity="0.3">
<path d="M238.8,409.717C237.442,405.266 235.035,404.789 233.717,404.9L233.256,408.454C233.168,409.136 233.55,409.751 234.061,409.749L238.8,409.717Z" fill="#E87B50"/>
</g>
<path d="M210.457,321.432C210.457,321.432 245.057,325.24 251.655,331.485C258.252,337.729 253.113,391.731 252.013,396.041C252.013,396.041 245.992,398.909 241.227,397.44C236.462,395.97 239.01,368.4 239.01,368.4C239.01,368.4 239.559,348.75 238.826,345.994C238.094,343.239 228.012,341.219 228.012,341.219C228.012,341.219 194.816,325.336 195.735,325.336C196.649,325.336 210.457,321.432 210.457,321.432Z" fill="#010066"/>
<path d="M172.156,329.613C172.316,320.717 174.574,313.066 174.574,313.066L190.104,326.476L190.241,325.277C190.241,325.277 229.112,320.651 234.428,338.281C239.742,355.91 243.233,397.659 243.233,397.659C243.233,397.659 239.337,402.781 232.374,399.66C232.374,399.66 221.829,353.341 218.142,349.669C215.786,347.326 171.787,350.077 172.156,329.613Z" fill="#01008A"/>
<path d="M225.138,260.793C225.285,260.934 225.528,260.855 225.565,260.656C225.844,259.108 226.752,254.242 227.162,254.223C227.649,254.201 226.942,258.569 227.34,258.789C227.737,259.007 228.318,254.729 228.843,254.791C229.369,254.853 228.707,258.736 228.92,258.838C229.132,258.941 230.163,255.289 230.494,255.141C230.825,254.992 230.197,259.026 230.42,259.223C230.642,259.422 232,256.784 232.239,256.873C232.479,256.963 232.654,256.984 231.3,263.802L230.652,266.464L228.95,268.347L226.084,267.286C226.084,267.286 222.199,259.216 222.386,258.9C222.57,258.599 222.871,258.633 225.138,260.793Z" fill="#FFC0BB"/>
<path d="M213.302,287.827C213.302,287.827 218.602,300.376 227.664,300.517C236.727,300.655 231.43,265.518 231.43,265.518L224.597,265.518C224.597,265.518 223.627,284.202 223.136,284.341C222.645,284.48 218.322,274.023 218.322,274.023L213.302,287.827Z" fill="#EF972E"/>
<path d="M193.174,247.155L192.761,253.206L198.661,256.842L201.008,255.686L201.141,248.193L193.174,247.155Z" fill="#FFC0BB"/>
<path d="M201.055,253.065L201.14,248.193L193.174,247.155L193.003,249.663C194.564,250.925 197.285,252.617 201.055,253.065Z" fill="#F99893"/>
<path d="M184.976,238.023C184.976,238.023 181.106,228.373 186.635,223.824C192.165,219.274 198.614,218.834 203.268,220.492C207.922,222.149 211.576,229.616 210.222,234.343L195.198,232.015L184.976,238.023Z" fill="#06055E"/>
<path d="M208.58,236.361C208.244,237.775 208.924,239.118 210.094,239.364C211.265,239.61 212.486,238.663 212.82,237.251C213.155,235.838 212.476,234.494 211.305,234.248C210.135,234.001 208.915,234.947 208.58,236.361Z" fill="#F99893"/>
<path d="M209.503,244.144C209.748,243.518 209.934,242.867 210.056,242.196C210.423,240.389 210.449,238.531 210.338,236.933C210.314,236.589 210.312,236.248 210.316,235.904C210.331,234.515 210.083,233.086 209.503,231.673C207.638,227.123 202.785,224.274 197.706,224.759C190.865,225.41 186.153,231.476 187.234,237.818C186.452,237.555 185.63,237.602 184.974,238.025C183.714,238.836 183.532,240.718 184.57,242.224C185.608,243.732 187.473,244.294 188.733,243.482C188.908,243.369 189.06,243.234 189.192,243.085C190.685,248.384 195.993,251.778 201.495,250.763C204.186,250.268 206.448,248.805 207.997,246.799C208.104,246.679 208.212,246.543 208.326,246.385C208.823,245.69 209.206,244.934 209.503,244.144Z" fill="#FFC0BB"/>
<path d="M198.118,237.905C198.225,238.475 197.832,239.027 197.238,239.135C196.644,239.244 196.076,238.871 195.969,238.3C195.863,237.73 196.256,237.179 196.849,237.07C197.443,236.963 198.011,237.335 198.118,237.905Z" fill="#333333"/>
<path d="M207.003,236.715C207.11,237.286 206.717,237.837 206.123,237.946C205.53,238.055 204.962,237.681 204.855,237.11C204.748,236.54 205.141,235.989 205.735,235.88C206.329,235.771 206.897,236.145 207.003,236.715Z" fill="#333333"/>
<path d="M198.797,236.049C198.272,235.863 197.736,235.745 197.198,235.692C196.659,235.643 196.121,235.668 195.604,235.788C195.346,235.844 195.094,235.929 194.848,236.032C194.724,236.081 194.607,236.143 194.487,236.2C194.427,236.23 194.372,236.266 194.312,236.299C194.254,236.331 194.195,236.363 194.139,236.401C193.684,236.687 193.268,237.04 192.866,237.422C193.139,236.946 193.511,236.514 193.962,236.164C194.186,235.989 194.432,235.833 194.694,235.709C194.955,235.583 195.233,235.485 195.519,235.421C196.089,235.292 196.685,235.288 197.247,235.401C197.529,235.455 197.802,235.54 198.063,235.647C198.323,235.754 198.575,235.882 198.797,236.049Z" fill="#333333"/>
<path d="M203.159,235.463C203.33,235.245 203.539,235.055 203.761,234.882C203.985,234.711 204.227,234.558 204.483,234.432C204.996,234.173 205.572,234.019 206.156,233.994C206.448,233.979 206.741,234.002 207.027,234.054C207.313,234.103 207.591,234.188 207.854,234.299C208.381,234.519 208.853,234.837 209.242,235.224C208.753,234.959 208.259,234.731 207.745,234.573C207.681,234.551 207.617,234.536 207.55,234.519C207.486,234.504 207.422,234.483 207.356,234.47C207.226,234.444 207.095,234.417 206.963,234.402C206.7,234.367 206.433,234.35 206.168,234.365C205.639,234.387 205.111,234.504 204.607,234.692C204.103,234.891 203.616,235.147 203.159,235.463Z" fill="#333333"/>
<path d="M187.85,237.29C187.85,237.29 195.281,233.193 198.829,228.003C198.829,228.003 199.077,230.553 198.316,231.563C198.618,231.704 203.757,228.906 204.476,224.754C205.196,220.602 197.987,223.129 197.987,223.129C197.987,223.129 193.684,223.026 193.508,223.139C193.335,223.253 190.557,225.393 190.437,225.546C190.315,225.698 187.09,231.617 187.09,231.617L186.351,233.757L185.591,237.499L187.85,237.29Z" fill="#06055E"/>
<g opacity="0.3">
<path d="M200.045,243.818C200.045,243.818 201.256,243.211 202.552,243.803C202.552,243.803 203.74,242.853 204.857,243.459C204.857,243.459 204.633,245.373 202.493,245.531C200.354,245.691 200.045,243.818 200.045,243.818Z" fill="#F99893"/>
</g>
<path d="M198.844,243.304C199.109,243.458 199.383,243.597 199.667,243.712C199.947,243.832 200.235,243.936 200.53,244.015C201.117,244.176 201.726,244.261 202.33,244.229C202.937,244.201 203.533,244.048 204.088,243.8C204.641,243.546 205.15,243.195 205.617,242.796C205.414,243.027 205.192,243.242 204.951,243.439C204.71,243.635 204.443,243.802 204.167,243.956C203.887,244.101 203.59,244.218 203.283,244.304C202.975,244.385 202.657,244.434 202.339,244.455C201.7,244.483 201.064,244.385 200.47,244.18C199.88,243.977 199.319,243.689 198.844,243.304Z" fill="#F99893"/>
<path d="M202.057,236.89C202.424,237.321 202.751,237.782 203.054,238.257C203.357,238.731 203.633,239.224 203.868,239.743C203.979,240.006 204.084,240.273 204.143,240.568C204.156,240.642 204.165,240.719 204.167,240.801C204.167,240.841 204.163,240.886 204.158,240.929C204.146,240.976 204.141,241.023 204.114,241.072C204.099,241.097 204.084,241.121 204.069,241.144L204.028,241.187C204,241.215 203.975,241.245 203.947,241.273C203.889,241.324 203.834,241.375 203.772,241.42C203.535,241.606 203.278,241.749 203.016,241.879C202.751,242.005 202.484,242.118 202.204,242.204C202.691,241.896 203.184,241.591 203.588,241.221C203.639,241.176 203.682,241.125 203.729,241.078L203.791,241.003L203.821,240.967C203.823,240.961 203.825,240.954 203.827,240.948C203.855,240.89 203.84,240.749 203.81,240.632C203.75,240.382 203.65,240.128 203.537,239.878C203.319,239.376 203.061,238.882 202.808,238.387C202.556,237.891 202.3,237.398 202.057,236.89Z" fill="#F99893"/>
<path d="M192.761,222.525C192.761,222.525 185.924,209.37 174.499,210.496C163.076,211.622 160.567,220.881 161.086,225.469C161.605,230.057 164.721,235.162 161.778,241.565C158.835,247.968 159.529,257.578 168.527,256.841C177.528,256.104 175.537,246.903 175.625,243.628C175.712,240.354 182.028,240.696 180.471,234.726C178.914,228.756 174.76,222.611 180.557,221.746C186.356,220.881 189.818,223.563 189.818,223.563L192.761,222.525Z" fill="#06055E"/>
<path d="M215.878,252.491L215.878,262.18C215.878,264.093 217.431,265.646 219.345,265.646L223.997,265.646C225.581,265.646 226.916,264.583 227.331,263.132C229.691,263.094 231.6,261.161 231.6,258.79C231.6,256.464 229.764,254.559 227.463,254.452L227.463,252.491L215.878,252.491ZM227.463,261.641L227.463,255.941C228.943,256.047 230.116,257.284 230.116,258.792C230.116,260.3 228.943,261.535 227.463,261.641Z" fill="#70C0FD"/>
<g opacity="0.3">
<path d="M225.03,252.491L227.463,252.491L227.463,262.18C227.463,264.093 225.91,265.646 223.997,265.646L219.345,265.646C218.206,265.646 217.196,265.097 216.564,264.249C226.314,264.536 225.03,252.491 225.03,252.491Z" fill="#4188E4"/>
</g>
<path d="M215.878,252.603C215.878,253.203 218.478,253.688 221.686,253.688C224.894,253.688 227.493,253.203 227.493,252.603C227.493,252.002 224.894,251.518 221.686,251.518C218.478,251.518 215.878,252.002 215.878,252.603Z" fill="#E6F7FF"/>
<path d="M216.346,252.603C216.346,253.064 218.736,253.438 221.683,253.438C224.631,253.438 227.021,253.064 227.021,252.603C227.021,252.141 224.631,251.768 221.683,251.768C218.736,251.768 216.346,252.141 216.346,252.603Z" fill="#70C0FD"/>
<path d="M221.685,253.437C224.531,253.437 226.837,253.162 226.837,252.822C226.837,252.482 224.531,252.207 221.685,252.207C218.84,252.207 216.534,252.482 216.534,252.822C216.534,253.162 218.84,253.437 221.685,253.437Z" fill="#4C2816"/>
<g opacity="0.3">
<path d="M230.554,258.791C230.554,260.297 229.381,261.536 227.901,261.642L227.901,261.576C229.167,261.283 230.114,260.145 230.114,258.791C230.114,257.437 229.167,256.3 227.901,256.006L227.901,255.939C229.383,256.046 230.554,257.285 230.554,258.791Z" fill="#4188E4"/>
</g>
<g opacity="0.2">
<path d="M217.158,261.411C217.418,261.411 217.63,261.199 217.63,260.939L217.63,254.826C217.63,254.565 217.418,254.354 217.158,254.354C216.897,254.354 216.686,254.565 216.686,254.826L216.686,260.939C216.683,261.199 216.895,261.411 217.158,261.411Z" fill="#FFFFFF"/>
</g>
<path d="M216.63,261.729C216.735,261.902 216.991,261.893 217.079,261.709C217.756,260.289 219.911,255.831 220.312,255.923C220.789,256.03 218.958,260.061 219.285,260.375C219.612,260.691 221.297,256.716 221.786,256.912C222.277,257.109 220.618,260.682 220.795,260.838C220.972,260.994 222.927,257.741 223.286,257.683C223.642,257.626 221.978,261.353 222.141,261.603C222.303,261.853 224.307,259.663 224.514,259.815C224.721,259.967 224.885,260.031 221.786,266.255L220.462,268.653L218.324,270.025L215.838,268.247C215.838,268.247 214.21,259.441 214.475,259.185C214.729,258.939 215.011,259.052 216.63,261.729Z" fill="#FFC0BB"/>
<path d="M191.967,251.851C191.967,251.851 179,254.918 177.325,263.145C175.653,271.373 168.401,315.016 171.33,329.239C171.33,329.239 179.277,341.509 198.101,328.542C198.101,328.542 205.492,322.128 210.791,321.432L206.049,300.237L215.112,272.49C215.112,272.49 216.227,256.315 204.097,254.085C204.099,254.083 197.685,256.315 191.967,251.851Z" fill="#FEB546"/>
<path d="M181.022,260.566C183.037,258.669 186.33,259.293 187.642,261.73C190.873,267.727 200.088,284.744 200.893,285.319C201.869,286.015 214.697,266.459 214.697,266.459C214.697,266.459 219.298,266.634 221.391,268.308C221.391,268.308 214.419,305.956 201.869,303.03C192.268,300.789 183.485,283.943 179.886,276.149C178.252,272.612 177.816,268.614 178.793,264.842C179.22,263.182 179.912,261.61 181.022,260.566Z" fill="#F9A435"/>
<path d="M209.822,307.129L204.459,307.129L204.459,410.701L209.822,410.701L209.822,307.129Z" fill="#02014B"/>
<path d="M260.432,307.129L255.069,307.129L255.069,410.701L260.432,410.701L260.432,307.129Z" fill="#02014B"/>
<path d="M475.844,307.129L470.48,307.129L470.48,410.701L475.844,410.701L475.844,307.129Z" fill="#02014B"/>
<path d="M526.456,307.129L521.093,307.129L521.093,410.701L526.456,410.701L526.456,307.129Z" fill="#02014B"/>
<path d="M541.077,308.927L184.229,308.927C183.864,308.927 183.565,308.657 183.565,308.321L183.565,302.071C183.565,301.738 183.862,301.465 184.229,301.465L541.077,301.465C541.443,301.465 541.741,301.735 541.741,302.071L541.741,308.321C541.741,308.657 541.443,308.927 541.077,308.927Z" fill="#FFFFFF"/>
<g opacity="0.2">
<path d="M541.023,308.35L469.139,308.35C468.844,308.35 468.603,308.111 468.603,307.814L468.603,302.282C468.603,301.987 468.842,301.746 469.139,301.746L541.023,301.746C541.317,301.746 541.559,301.985 541.559,302.282L541.559,307.814C541.559,308.111 541.317,308.35 541.023,308.35Z" fill="#E0A689"/>
</g>
<path d="M670.312,410.662L46.036,410.662L46.036,413.533L670.312,413.533L670.312,410.662Z" fill="#07085B"/>
<path d="M276.523,274.537L239.674,274.537L229.225,300.021L211.474,300.021C210.978,300.021 210.575,300.422 210.575,300.918C210.575,301.413 210.976,301.815 211.474,301.815L264.276,301.815L276.523,274.537Z" fill="#84E532"/>
<path d="M255.265,289.078C255.047,290.163 254.101,290.892 253.149,290.699C252.198,290.509 251.602,289.475 251.82,288.388C252.038,287.303 252.984,286.575 253.937,286.767C254.887,286.957 255.483,287.991 255.265,289.078Z" fill="#DAEEF7"/>
<path d="M551.231,180.611L545.534,180.611L545.534,203.658L551.231,203.658L551.231,180.611Z" fill="#FFFFFF"/>
<path d="M591.984,189.601L587.456,189.601L587.456,212.648L591.984,212.648L591.984,189.601Z" transform="rotate(180 589.72 201.124)" fill="#69CA17"/>
<path d="M595.048,185.058L590.52,185.058L590.52,208.105L595.048,208.105L595.048,185.058Z" transform="rotate(180 592.784 196.581)" fill="#FFFFFF"/>
<path d="M590.28,180.628L585.752,180.628L585.752,203.674L590.28,203.674L590.28,180.628Z" transform="rotate(180 588.016 192.151)" fill="#01008A"/>
<path d="M557.818,171.328L551.993,171.328L551.993,203.318L557.818,203.318L557.818,171.328Z" fill="#84E532"/>
<path d="M544.857,174.855L539.492,174.855L539.492,203.318L544.857,203.318L544.857,174.855Z" fill="#01008A"/>
<path d="M569.139,174.841L563.774,174.841L563.774,203.304L569.139,203.304L569.139,174.841Z" transform="rotate(-52.044 566.457 189.072)" fill="#01008A"/>
<path d="M619.801,172.305C618.387,172.305 617.243,173.45 617.243,174.864L617.243,177.714C617.243,178.237 616.82,178.66 616.296,178.66L615.126,178.66L615.126,173.467C615.126,171.573 613.59,170.037 611.696,170.037C609.801,170.037 608.265,171.573 608.265,173.467L608.265,184.395L607.605,184.395C606.77,184.395 606.095,183.718 606.095,182.885L606.095,180.597C606.095,179.183 604.95,178.038 603.536,178.038C602.123,178.038 600.978,179.183 600.978,180.597L600.978,184.395C600.978,187.22 603.267,189.512 606.095,189.512L608.265,189.512L608.265,196.04L615.126,196.04L615.126,183.777L617.243,183.777C620.068,183.777 622.36,181.486 622.36,178.66L622.36,174.862C622.36,173.45 621.215,172.305 619.801,172.305Z" fill="#84E532"/>
<path d="M611.645,196.039L611.645,170.041C609.776,170.069 608.268,171.592 608.268,173.469L608.268,184.396L607.608,184.396C606.773,184.396 606.098,183.719 606.098,182.886L606.098,180.599C606.098,179.185 604.953,178.04 603.539,178.04C602.125,178.04 600.98,179.185 600.98,180.599L600.98,184.396C600.98,187.222 603.27,189.514 606.098,189.514L608.268,189.514L608.268,196.041L611.645,196.041L611.645,196.039Z" fill="#69CA17"/>
<path d="M613.796,203.156L609.492,203.156C607.493,203.156 605.871,201.535 605.871,199.536L605.871,191.611L617.418,191.611L617.418,199.536C617.418,201.535 615.795,203.156 613.796,203.156Z" fill="#01008A"/>
<path d="M627.386,203.156L535.233,203.156L535.233,205.76L627.386,205.76L627.386,203.156Z" fill="#01008A"/>
<path d="M122.77,147.176C137.121,147.176 148.754,135.518 148.754,121.137C148.754,106.757 137.121,95.099 122.77,95.099C108.42,95.099 96.787,106.757 96.787,121.137C96.787,135.518 108.42,147.176 122.77,147.176Z" fill="#01008A"/>
<path d="M122.77,143.432C135.058,143.432 145.02,133.45 145.02,121.137C145.02,108.824 135.058,98.843 122.77,98.843C110.482,98.843 100.521,108.824 100.521,121.137C100.521,133.45 110.482,143.432 122.77,143.432Z" fill="#FFFFFF"/>
<path d="M103.26,116.914L102.628,116.914L102.628,125.116L103.26,125.116L103.26,116.914Z" transform="rotate(-180 102.944 121.015)" fill="#01008A"/>
<path d="M142.964,116.912L142.332,116.912L142.332,125.114L142.964,125.114L142.964,116.912Z" transform="rotate(-180 142.648 121.013)" fill="#01008A"/>
<path d="M123.05,97.327L122.42,97.327L122.42,105.546L123.05,105.546L123.05,97.327Z" fill="#01008A"/>
<path d="M123.05,136.954L122.42,136.954L122.42,145.173L123.05,145.173L123.05,136.954Z" fill="#01008A"/>
<path d="M123.45,121.135C123.45,121.511 123.146,121.817 122.77,121.817C122.394,121.817 122.091,121.511 122.091,121.135C122.091,120.76 122.394,120.454 122.77,120.454C123.144,120.456 123.45,120.76 123.45,121.135Z" fill="#01008A"/>
<path d="M122.77,121.442C122.694,121.442 122.615,121.412 122.557,121.352L110.357,109.126C110.237,109.007 110.237,108.815 110.357,108.697C110.474,108.578 110.668,108.578 110.786,108.697L122.986,120.923C123.106,121.043 123.106,121.235 122.986,121.352C122.924,121.412 122.847,121.442 122.77,121.442Z" fill="#01008A"/>
<path d="M126.692,133.491C126.641,133.466 126.6,133.421 126.581,133.363L122.638,121.428C122.6,121.313 122.662,121.187 122.779,121.148C122.894,121.11 123.021,121.172 123.059,121.289L127.002,133.224C127.04,133.34 126.978,133.466 126.861,133.504C126.803,133.521 126.743,133.517 126.692,133.491Z" fill="#01008A"/>
<path d="M86.062,178.306L79.862,178.306L79.862,203.443L86.062,203.443L86.062,178.306Z" fill="#01008A"/>
<path d="M130.427,188.137L125.488,188.137L125.488,213.223L130.427,213.223L130.427,188.137Z" transform="rotate(180 127.958 200.68)" fill="#84E532"/>
<path d="M133.765,183.182L128.826,183.182L128.826,208.268L133.765,208.268L133.765,183.182Z" transform="rotate(180 131.296 195.725)" fill="#01008A"/>
<path d="M128.571,178.349L123.633,178.349L123.633,203.435L128.571,203.435L128.571,178.349Z" transform="rotate(180 126.102 190.892)" fill="#FFFFFF"/>
<path d="M93.235,168.18L86.893,168.18L86.893,203.072L93.235,203.072L93.235,168.18Z" fill="#FFFFFF"/>
<path d="M79.125,172.026L73.286,172.026L73.286,203.074L79.125,203.074L79.125,172.026Z" fill="#84E532"/>
<path d="M112.078,200.215L106.83,202.784L93.237,174.883L98.487,172.315L112.078,200.215Z" fill="#84E532"/>
<path d="M145.524,202.896L68.65,202.896L68.65,205.737L145.524,205.737L145.524,202.896Z" fill="#01008A"/>
<path d="M79.125,174.471L73.286,174.471L73.286,176.485L79.125,176.485L79.125,174.471Z" fill="#FFFFFF"/>
<path d="M84.702,180.434L81.225,180.434L81.225,190.024L84.702,190.024L84.702,180.434Z" fill="#84E532"/>
<path d="M93.235,172.026L86.893,172.026L86.893,173.541L93.235,173.541L93.235,172.026Z" fill="#84E532"/>
<path d="M93.235,198.193L86.893,198.193L86.893,200.18L93.235,200.18L93.235,198.193Z" fill="#84E532"/>
<path d="M257.396,119.362L213.865,119.362L213.865,162.894L257.396,162.894L257.396,119.362Z" fill="#FFFFFF"/>
<path d="M252.935,123.821L218.324,123.821L218.324,158.431L252.935,158.431L252.935,123.821Z" fill="#CACAFD"/>
<path d="M598.618,102.358L564.082,102.358L564.082,136.894L598.618,136.894L598.618,102.358Z" fill="#FFFFFF"/>
<path d="M595.079,105.897L567.619,105.897L567.619,133.357L595.079,133.357L595.079,105.897Z" fill="#CACAFD"/>
<path d="M200.368,94.9L170.525,94.9L170.525,124.743L200.368,124.743L200.368,94.9Z" fill="#FFFFFF"/>
<path d="M197.311,97.958L173.584,97.958L173.584,121.686L197.311,121.686L197.311,97.958Z" fill="#E8E8FF"/>
<path d="M551.623,125.307L528.325,125.307L528.325,148.603L551.623,148.603L551.623,125.307Z" fill="#FFFFFF"/>
<path d="M549.235,127.695L530.713,127.695L530.713,146.218L549.235,146.218L549.235,127.695Z" fill="#E8E8FF"/>
</svg>
