<svg width="680" height="488" viewBox="0 0 680 488" fill="none" xmlns="http://www.w3.org/2000/svg" xmlns:xlink="http://www.w3.org/1999/xlink">
<path d="M235.934,221.917L105.825,221.917L105.825,414.95L235.934,414.95L235.934,221.917Z" transform="rotate(-141.7 170.879 318.433)" fill="#F6F7FF"/>
<path d="M283.381,288.611C282.662,289.032 281.904,289.385 281.119,289.665L274.498,292.341L250.007,301.922L168.786,333.011L168.111,333.259L167.732,332.656L166.796,331.187L119.992,256.504L105.97,233.765L102.239,227.535C101.777,226.826 101.381,226.077 101.055,225.297C101.614,225.93 102.11,226.616 102.535,227.346L106.55,233.398L121.034,255.888L168.289,330.299C168.596,330.808 168.916,331.305 169.212,331.767L168.158,331.412L249.568,300.821L274.262,291.714L281,289.345C281.768,289.023 282.565,288.777 283.381,288.611L283.381,288.611Z" fill="#D9DCFF"/>
<path d="M58.362,348.266C58.113,347.851 77.678,335.771 102.051,321.275C126.425,306.779 146.392,295.374 146.641,295.788C146.89,296.203 127.325,308.283 102.94,322.779C78.554,337.275 58.61,348.621 58.362,348.266Z" fill="#D9DCFF"/>
<path d="M207.787,315.235C208.237,315.081 215.983,336.553 225.078,363.094C234.174,389.634 241.173,411.367 240.711,411.521C240.249,411.675 232.516,390.203 223.42,363.662C214.325,337.121 207.325,315.389 207.787,315.235Z" fill="#D9DCFF"/>
<path d="M650.753,207.751L467.739,207.751L467.739,331.11L650.753,331.11L650.753,207.751Z" transform="rotate(-19.24 559.246 269.43)" fill="#D9DCFF"/>
<path d="M639.142,193.379C638.736,194.057 638.268,194.695 637.744,195.286L633.469,200.532L617.48,219.671C603.754,235.861 584.971,258.019 564.186,282.558L563.748,283.079L563.155,282.748L561.711,281.954L488.733,241.237L466.716,228.731L460.795,225.261C460.08,224.893 459.405,224.453 458.781,223.946C459.535,224.223 460.265,224.564 460.96,224.965L467.06,228.174L489.337,240.207L562.551,280.474L563.996,281.267L562.966,281.457L616.663,218.889L633.042,200.094C634.925,197.998 636.418,196.316 637.554,195.037C638.039,194.443 638.569,193.889 639.142,193.379L639.142,193.379Z" fill="#F6F7FF"/>
<path d="M479.315,345.575C478.924,345.338 489.666,326.366 503.309,303.2C516.953,280.035 528.346,261.441 528.737,261.678C529.127,261.915 518.386,280.876 504.742,304.053C491.099,327.23 479.706,345.8 479.315,345.575Z" fill="#F6F7FF"/>
<path d="M588.463,249.967C588.771,249.635 605.043,263.906 624.668,281.86C644.292,299.815 660.067,314.642 659.747,315.021C659.427,315.4 643.238,301.058 623.542,283.128C603.847,265.197 588.108,250.334 588.463,249.967Z" fill="#F6F7FF"/>
<path d="M548.26,-0.446L459.448,-0.446L459.448,131.322L548.26,131.322L548.26,-0.446Z" transform="rotate(-137.06 503.854 65.438)" fill="#F6F7FF"/>
<path d="M581.382,49.331C580.884,49.609 580.355,49.827 579.807,49.982L575.223,51.64L558.252,57.503L501.985,76.452L501.523,76.606L501.286,76.179L500.694,75.161L470.861,22.921C467.13,16.3 464.099,10.9 461.931,7.027L459.563,2.68C459.262,2.184 459.008,1.661 458.805,1.117C459.172,1.564 459.497,2.044 459.776,2.55C460.415,3.628 461.268,5.037 462.346,6.79L471.607,22.506C479.376,35.924 490.023,54.281 501.772,74.616L502.364,75.647L501.665,75.374L558.027,56.757L575.081,51.202L579.736,49.816C580.271,49.611 580.821,49.449 581.382,49.331L581.382,49.331Z" fill="#D9DCFF"/>
<path d="M426.259,83.773C426.093,83.489 439.772,75.779 456.803,66.565C473.833,57.351 487.761,50.126 487.915,50.41C488.069,50.695 474.414,58.405 457.371,67.583C440.329,76.762 426.413,84.069 426.259,83.773Z" fill="#D9DCFF"/>
<path d="M529.084,65.403C529.403,65.308 534.093,80.148 539.553,98.564C545.013,116.98 549.205,131.938 548.885,132.033C548.566,132.127 543.876,117.3 538.416,98.872C532.956,80.444 528.764,65.498 529.084,65.403Z" fill="#D9DCFF"/>
<path d="M678.806,485.741C678.806,485.907 526.834,486.049 339.414,486.049C151.996,486.049 0,485.907 0,485.741C0,485.576 151.937,485.434 339.414,485.434C526.892,485.434 678.806,485.564 678.806,485.741Z" fill="#263238"/>
<path d="M33.492,162.869L50.428,156.864L43.144,147.141C42.783,144.993 42.609,142.817 42.623,140.639C42.627,139.518 42.819,138.405 43.192,137.347C43.603,136.016 44.197,134.748 44.956,133.581C45.145,133.382 45.265,133.129 45.3,132.857C45.335,132.586 45.283,132.31 45.151,132.07C45.019,131.83 44.815,131.639 44.567,131.523C44.319,131.407 44.041,131.372 43.772,131.425C42.588,131.721 40.361,134.421 39.354,138.424C38.348,142.427 35.6,136.529 34.617,134.41C33.634,132.29 30.057,125.847 29.145,125.646C27.819,125.349 27.262,126.723 28.352,128.82C29.442,130.916 32.248,137.453 31.088,137.951C29.927,138.448 24.823,127.529 24.823,127.529C24.823,127.529 24.112,125.018 22.762,125.551C20.322,126.498 26.635,137.69 27.262,138.732C27.701,139.467 26.469,140.047 26.078,139.242C25.687,138.436 21.211,128.239 18.723,129.187C16.817,129.909 23.828,138.436 23.579,141.03C23.33,143.624 18.925,134.031 17.125,134.789C16.461,135.073 15.94,135.381 19.327,140.544C20.986,142.96 22.769,145.288 24.669,147.52L24.669,147.52L33.516,162.845Z" fill="#FFBE9D"/>
<path d="M185.926,183.571C185.926,183.571 177.564,164.053 171.797,154.567C166.361,145.637 159.16,144.192 155.323,143.908C153.732,143.418 152.098,143.081 150.443,142.901L119.118,142.652C112.271,142.715 105.657,145.141 100.394,149.521C98.937,150.706 88.101,163.283 73.711,181.19L48.544,153.951L33.539,162.833C33.539,162.833 49.835,219.1 70.253,215.239C82.404,212.977 91.879,204.545 91.879,204.545L107.808,191.707L108.175,193.839C108.495,196.432 109.3,200.625 109.916,203.159C111.834,211.201 112.912,221.789 108.732,228.8C108.732,228.8 103.059,233.146 107.547,237.919L166.586,237.919C166.586,237.919 174.947,232.246 167.308,225.946L162.571,213.972L165.662,199.358L166.846,193.507L172.045,202.413C172.045,202.413 182.325,215.346 193.02,213.759C205.87,211.84 213.319,188.426 201.724,157.468L187.749,161.72L185.926,183.571Z" fill="#FF3874"/>
<g opacity="0.4">
<g opacity="0.4">
<path d="M33.492,162.867L34.973,167.557L51.648,157.383L48.498,153.984L33.492,162.867Z" fill="#000000"/>
</g>
</g>
<g opacity="0.2">
<g opacity="0.2">
<path d="M108.721,228.797C111.203,228.426 113.583,227.557 115.72,226.242C117.857,224.927 119.707,223.194 121.157,221.147C122.676,219.084 123.772,216.742 124.382,214.254C124.992,211.766 125.103,209.182 124.71,206.651C124.645,205.751 124.393,204.875 123.968,204.08C123.544,203.284 122.957,202.586 122.246,202.032C120.387,200.847 117.841,201.463 115.91,200.433C114.323,199.592 113.482,197.863 112.357,196.442C111.232,195.02 109.728,192.818 108.094,193.528C108.094,193.528 110.072,203.95 110.936,208.593C111.801,213.235 112.12,219.903 110.451,224.771C110.022,226.172 109.443,227.522 108.721,228.797L108.721,228.797Z" fill="#000000"/>
</g>
</g>
<path d="M71.297,190.746C71.314,189.078 71.61,187.425 72.173,185.854C72.535,184.236 73.035,182.651 73.666,181.117C73.663,182.786 73.366,184.442 72.789,186.008C72.427,187.627 71.928,189.212 71.297,190.746Z" fill="#263238"/>
<path d="M75.038,188.203C74.142,185.967 73.66,183.588 73.617,181.18C74.159,182.259 74.504,183.426 74.636,184.626C74.972,185.787 75.108,186.996 75.038,188.203L75.038,188.203Z" fill="#263238"/>
<path d="M187.62,119.262L166.184,153.986L183.048,158.688L201.761,129.826L187.62,119.262Z" fill="#455A64"/>
<path d="M186.28,148.848L187.003,153.928L189.999,157.777L190.295,160.928L201.049,157.659L196.702,142.263C197.05,140.19 197.193,138.087 197.129,135.986L194.168,139.906L193.351,133.511L187.299,128.643C187.142,128.528 186.964,128.444 186.774,128.398C186.585,128.352 186.389,128.343 186.196,128.373C186.004,128.402 185.819,128.47 185.652,128.571C185.486,128.672 185.341,128.806 185.226,128.963C185.022,129.248 184.926,129.595 184.954,129.944C184.982,130.294 185.133,130.621 185.38,130.87L190.248,135.157L190.568,140.451L187.015,137.182C186.668,136.858 186.237,136.636 185.771,136.543L180.88,135.56C180.706,135.526 180.526,135.529 180.353,135.568C180.18,135.607 180.017,135.682 179.874,135.788C179.731,135.894 179.612,136.028 179.525,136.183C179.437,136.337 179.382,136.508 179.364,136.685L179.364,136.685C179.334,136.978 179.406,137.272 179.568,137.518C179.73,137.764 179.971,137.946 180.252,138.035L184.705,139.397L189.206,143.945L184.8,142.263L178.819,143.104C178.539,143.149 178.284,143.294 178.102,143.511C177.919,143.728 177.821,144.004 177.824,144.288L177.824,144.288C177.824,144.602 177.949,144.903 178.171,145.125C178.393,145.348 178.695,145.472 179.009,145.472L182.81,145.259L185.049,145.958L179.909,147.32C179.677,147.378 179.473,147.515 179.333,147.707C179.192,147.9 179.123,148.136 179.139,148.374L179.139,148.374C179.145,148.512 179.179,148.648 179.238,148.773C179.298,148.899 179.382,149.01 179.486,149.102C179.59,149.194 179.712,149.264 179.843,149.308C179.975,149.351 180.114,149.368 180.252,149.357L186.28,148.848Z" fill="#FFBE9D"/>
<g opacity="0.4">
<g opacity="0.4">
<path d="M187.692,161.72L187.23,167.405L203.539,162.917L201.667,157.469L187.692,161.72Z" fill="#000000"/>
</g>
</g>
<path d="M166.181,154.035C166.181,154.035 164.736,152.08 164.855,151.749C164.973,151.417 185.249,118.031 185.249,118.031L187.617,119.31L166.181,154.035Z" fill="#263238"/>
<path d="M192.986,127.977C193.078,127.885 193.192,127.819 193.317,127.785C193.442,127.75 193.574,127.749 193.699,127.781C193.825,127.813 193.94,127.877 194.033,127.967C194.126,128.057 194.194,128.17 194.231,128.294C194.267,128.419 194.271,128.551 194.241,128.677C194.211,128.803 194.148,128.919 194.06,129.014C193.971,129.108 193.859,129.178 193.736,129.217C193.612,129.255 193.48,129.26 193.354,129.232C193.237,129.196 193.131,129.133 193.043,129.048C192.955,128.964 192.889,128.86 192.849,128.744C192.808,128.629 192.795,128.506 192.811,128.386C192.827,128.265 192.871,128.149 192.939,128.048Z" fill="#263238"/>
<path d="M179.52,170.837C179.368,171.153 179.16,171.438 178.904,171.678C178.165,172.368 177.252,172.843 176.263,173.052C174.7,173.371 173.088,173.371 171.525,173.052C169.535,172.58 167.474,172.487 165.45,172.779C163.076,173.471 160.887,174.685 159.043,176.332C156.923,177.955 154.684,179.968 151.676,180.916C150.137,181.353 148.527,181.478 146.939,181.283C145.313,181.034 143.723,180.592 142.202,179.968C139.099,178.784 136.126,177.031 132.857,175.847C129.707,174.618 126.258,174.379 122.968,175.16C119.759,175.823 116.751,176.936 113.754,177.529C108.399,178.683 102.809,177.911 97.967,175.349C94.688,173.659 91.849,171.225 89.677,168.243C88.886,167.167 88.222,166.003 87.699,164.773C87.782,164.773 88.351,166.053 89.878,168.101C92.098,170.966 94.931,173.297 98.169,174.923C102.943,177.384 108.427,178.096 113.671,176.936C116.62,176.297 119.593,175.172 122.885,174.485C126.288,173.669 129.858,173.913 133.118,175.184C136.458,176.368 139.442,178.121 142.486,179.329C143.962,179.936 145.504,180.37 147.081,180.62C148.588,180.803 150.117,180.69 151.581,180.288C154.424,179.412 156.65,177.469 158.782,175.847C160.701,174.178 162.972,172.963 165.426,172.294C167.506,172.01 169.621,172.131 171.656,172.649C173.165,172.991 174.726,173.032 176.251,172.768C177.207,172.605 178.105,172.197 178.856,171.583C179.091,171.347 179.313,171.098 179.52,170.837L179.52,170.837Z" fill="#FAFAFA"/>
<path d="M186.271,193.4C185.899,191.677 185.736,189.915 185.785,188.153C185.621,186.397 185.673,184.627 185.939,182.883C186.311,184.606 186.474,186.367 186.425,188.129C186.588,189.886 186.536,191.656 186.271,193.4Z" fill="#263238"/>
<path d="M149.332,411.164C149.841,413.225 161.921,480.956 161.921,480.956L180.432,479.571L177.045,410.406L149.332,411.164Z" fill="#FFBE9D"/>
<path d="M180.989,480.646L180.93,478.691L161.211,479.106L161.329,485.525L162.514,485.525C167.938,485.703 190.108,486.07 193.697,484.992C197.747,483.82 180.989,480.646 180.989,480.646Z" fill="#01008A"/>
<g opacity="0.3">
<g opacity="0.3">
<path d="M168.447,485.239C168.096,483.679 167.17,482.309 165.853,481.402C164.507,480.459 162.872,480.018 161.234,480.158L161.341,485.263L168.447,485.239Z" fill="#000000"/>
</g>
</g>
<g opacity="0.3">
<g opacity="0.3">
<path d="M189.183,482.465C189.183,482.465 195.105,483.922 194.359,484.833C193.613,485.745 171.229,486.16 161.328,485.532L161.328,485.118L187.478,484.857C187.478,484.857 188.046,482.524 189.183,482.465Z" fill="#000000"/>
</g>
</g>
<path d="M161.043,485.112L161.375,485.112L162.346,485.112L165.899,485.194C168.919,485.194 173.076,485.254 177.683,485.194C182.29,485.135 186.447,484.958 189.467,484.804L193.02,484.602L193.979,484.531L194.322,484.531L193.979,484.531L193.008,484.531L189.455,484.662C186.447,484.768 182.278,484.91 177.683,484.981C173.088,485.052 168.919,485.076 165.899,485.076L161.043,485.076L161.043,485.112Z" fill="#263238"/>
<path d="M187.5,485.132C187.64,484.574 187.851,484.037 188.128,483.533C188.468,483.056 188.866,482.622 189.312,482.242C188.714,482.447 188.215,482.87 187.915,483.427C187.563,483.921 187.415,484.531 187.5,485.132Z" fill="#263238"/>
<path d="M181.651,482.503C181.651,482.503 181.971,482.219 182.255,481.793C182.54,481.366 182.706,480.999 182.646,480.964C182.587,480.928 182.327,481.248 182.054,481.674C181.782,482.101 181.592,482.468 181.651,482.503Z" fill="#263238"/>
<path d="M180.041,481.748C180.041,481.748 180.396,481.594 180.728,481.31C181.06,481.026 181.285,480.754 181.249,480.706C181.214,480.659 180.894,480.86 180.562,481.144C180.231,481.429 179.994,481.713 180.041,481.748Z" fill="#263238"/>
<path d="M178.996,480.041C179.327,480.152 179.679,480.189 180.026,480.148C180.371,480.183 180.718,480.143 181.045,480.029C180.712,479.925 180.362,479.888 180.015,479.923C179.671,479.896 179.325,479.936 178.996,480.041L178.996,480.041Z" fill="#263238"/>
<path d="M178.629,478.832C178.983,479.052 179.397,479.155 179.813,479.128C180.217,479.188 180.629,479.126 180.998,478.95C180.603,478.92 180.207,478.92 179.813,478.95C179.423,478.876 179.026,478.836 178.629,478.832L178.629,478.832Z" fill="#263238"/>
<path d="M182.277,480.908C182.697,480.974 183.125,480.974 183.545,480.908C183.996,480.85 184.44,480.747 184.871,480.6C185.14,480.532 185.399,480.428 185.641,480.292C185.713,480.254 185.776,480.202 185.827,480.139C185.878,480.076 185.915,480.003 185.937,479.925C185.959,479.837 185.951,479.743 185.914,479.66C185.878,479.576 185.815,479.507 185.736,479.463C185.255,479.242 184.713,479.188 184.198,479.31C183.683,479.433 183.223,479.724 182.893,480.138C182.708,480.372 182.575,480.642 182.502,480.932C182.502,481.133 182.502,481.251 182.502,481.251C182.615,480.883 182.801,480.541 183.047,480.245C183.332,479.924 183.701,479.69 184.113,479.57C184.605,479.403 185.143,479.428 185.617,479.641C185.818,479.771 185.747,479.996 185.534,480.114C185.308,480.237 185.07,480.336 184.824,480.41C184.403,480.557 183.971,480.672 183.533,480.754C182.763,480.908 182.277,480.908 182.277,480.908Z" fill="#263238"/>
<path d="M182.608,480.906C182.745,480.657 182.787,480.367 182.727,480.089C182.682,479.78 182.56,479.486 182.371,479.237C182.256,479.059 182.098,478.913 181.912,478.812C181.726,478.711 181.517,478.657 181.306,478.656C181.244,478.666 181.186,478.688 181.134,478.721C181.081,478.754 181.036,478.798 181.001,478.848C180.965,478.899 180.941,478.957 180.928,479.017C180.915,479.078 180.915,479.14 180.927,479.201C180.958,479.39 181.035,479.569 181.152,479.722C181.327,479.98 181.533,480.215 181.767,480.421C181.971,480.633 182.223,480.791 182.502,480.883C182.502,480.883 182.241,480.681 181.886,480.314C181.679,480.102 181.496,479.868 181.341,479.616C181.163,479.379 181.033,478.929 181.341,478.869C181.508,478.886 181.669,478.938 181.814,479.022C181.959,479.106 182.084,479.219 182.182,479.355C182.363,479.575 182.489,479.835 182.549,480.113C182.596,480.375 182.615,480.641 182.608,480.906L182.608,480.906Z" fill="#263238"/>
<path d="M161.328,480.114C161.328,480.114 161.897,480.055 162.785,480.114C163.931,480.229 165.028,480.636 165.971,481.298C166.876,481.943 167.582,482.829 168.008,483.856C168.327,484.638 168.363,485.159 168.41,485.159C168.436,485.038 168.436,484.913 168.41,484.792C168.369,484.458 168.293,484.128 168.185,483.809C167.786,482.725 167.068,481.788 166.125,481.121C165.151,480.425 164.003,480.014 162.809,479.936C162.45,479.901 162.089,479.901 161.731,479.936C161.458,480.055 161.328,480.09 161.328,480.114Z" fill="#263238"/>
<path d="M170.871,483.415C171.818,483.607 172.785,483.679 173.749,483.628C174.711,483.656 175.673,483.568 176.615,483.368C176.615,483.296 175.324,483.368 173.737,483.368C172.15,483.368 170.883,483.356 170.871,483.415Z" fill="#263238"/>
<path d="M167.023,483.488C167.023,483.488 167.13,483.737 167.272,484.01C167.414,484.282 167.485,484.519 167.556,484.519C167.627,484.519 167.651,484.223 167.485,483.915C167.32,483.607 167.071,483.441 167.023,483.488Z" fill="#263238"/>
<path d="M165.543,481.827C165.543,481.827 165.626,482.064 165.827,482.253C166.029,482.443 166.242,482.561 166.289,482.514C166.336,482.467 166.206,482.277 165.993,482.088C165.78,481.898 165.578,481.792 165.543,481.827Z" fill="#263238"/>
<path d="M163.447,481.106C163.447,481.165 163.719,481.165 164.015,481.248C164.311,481.331 164.512,481.473 164.56,481.438C164.607,481.402 164.441,481.142 164.086,481.035C163.731,480.928 163.423,481.047 163.447,481.106Z" fill="#263238"/>
<path d="M161.957,480.777C161.957,480.777 162.052,480.919 162.218,480.979C162.383,481.038 162.537,481.038 162.561,480.979C162.585,480.919 162.466,480.825 162.3,480.765C162.135,480.706 161.981,480.718 161.957,480.777Z" fill="#263238"/>
<path d="M102.242,405.512C102.147,407.632 94.461,473.587 94.461,473.587L112.569,477.601L129.28,410.403L102.242,405.512Z" fill="#FFBE9D"/>
<path d="M113.385,479.354L113.799,477.459L94.542,473.16L93.133,479.425L94.317,479.757C99.54,481.225 120.988,486.863 124.742,486.661C128.911,486.436 113.385,479.354 113.385,479.354Z" fill="#01008A"/>
<g opacity="0.3">
<g opacity="0.3">
<path d="M100.17,480.906C100.207,479.307 99.636,477.753 98.571,476.559C97.489,475.321 96.004,474.503 94.379,474.25L93.266,479.236L100.17,480.906Z" fill="#000000"/>
</g>
</g>
<g opacity="0.3">
<g opacity="0.3">
<path d="M120.917,483.081C120.917,483.081 126.282,485.9 125.382,486.634C124.482,487.369 102.607,482.406 93.133,479.445L93.251,479.055L118.714,484.976C118.714,484.976 119.792,482.868 120.917,483.081Z" fill="#000000"/>
</g>
</g>
<path d="M92.957,478.949L93.277,479.056L94.212,479.328L97.659,480.252C100.584,481.01 104.623,482.017 109.111,483.035C113.6,484.054 117.686,484.895 120.646,485.463L124.199,486.114L125.159,486.268L125.502,486.268L125.171,486.185L124.223,485.984L120.67,485.262C117.709,484.646 113.635,483.793 109.147,482.775C104.658,481.756 100.62,480.773 97.682,480.051L94.248,479.245L93.3,479.02C93.19,478.98 93.074,478.956 92.957,478.949Z" fill="#263238"/>
<path d="M118.645,485.275C118.918,484.767 119.252,484.293 119.639,483.866C120.091,483.488 120.583,483.162 121.108,482.895C120.483,482.964 119.904,483.254 119.474,483.712C119.006,484.106 118.709,484.666 118.645,485.275L118.645,485.275Z" fill="#263238"/>
<path d="M113.587,481.333C113.587,481.333 113.978,481.132 114.345,480.777C114.712,480.421 114.973,480.113 114.926,480.078C114.878,480.042 114.547,480.279 114.18,480.623C113.812,480.966 113.54,481.286 113.587,481.333Z" fill="#263238"/>
<path d="M112.201,480.218C112.476,480.193 112.741,480.099 112.97,479.946C113.361,479.744 113.657,479.531 113.622,479.484C113.586,479.436 113.243,479.543 112.852,479.744C112.461,479.946 112.177,480.159 112.201,480.218Z" fill="#263238"/>
<path d="M111.597,478.313C110.357,478.29 109.156,478.743 108.241,479.58C107.326,480.416 106.766,481.571 106.677,482.807C106.587,484.044 106.976,485.267 107.761,486.226C108.547,487.185 109.67,487.806 110.9,487.962C112.13,488.117 113.373,487.795 114.373,487.062C115.372,486.329 116.053,485.24 116.274,484.021C116.495,482.801 116.241,481.543 115.562,480.505C114.884,479.468 113.833,478.73 112.627,478.443C112.296,478.329 111.946,478.285 111.597,478.313L111.597,478.313Z" fill="#263238"/>
<path d="M111.527,477.047C111.812,477.331 112.175,477.525 112.57,477.604C112.946,477.753 113.356,477.794 113.754,477.722C113.394,477.576 113.021,477.465 112.641,477.39C112.278,477.249 111.906,477.134 111.527,477.047L111.527,477.047Z" fill="#263238"/>
<path d="M114.582,479.923C114.961,480.07 115.36,480.158 115.766,480.183C116.223,480.226 116.683,480.226 117.14,480.183C117.412,480.171 117.682,480.131 117.945,480.065C118.107,480.022 118.246,479.921 118.336,479.78C118.373,479.697 118.385,479.604 118.37,479.514C118.356,479.423 118.315,479.339 118.253,479.271C117.836,478.944 117.321,478.766 116.791,478.766C116.26,478.766 115.745,478.944 115.328,479.271C115.086,479.45 114.888,479.68 114.748,479.946C114.653,480.124 114.641,480.242 114.653,480.242C114.854,479.916 115.115,479.63 115.423,479.401C115.772,479.158 116.182,479.018 116.607,478.999C117.126,478.952 117.642,479.105 118.052,479.425C118.218,479.603 118.052,479.792 117.851,479.863C117.607,479.931 117.357,479.974 117.105,479.994C116.659,480.023 116.212,480.023 115.766,479.994C115.056,479.982 114.594,479.887 114.582,479.923Z" fill="#263238"/>
<path d="M114.891,480.042C114.891,480.042 115.151,479.817 115.211,479.284C115.235,478.972 115.183,478.659 115.057,478.372C114.985,478.173 114.866,477.994 114.709,477.851C114.552,477.709 114.362,477.607 114.157,477.555C114.095,477.552 114.033,477.561 113.975,477.582C113.917,477.603 113.864,477.636 113.819,477.678C113.774,477.72 113.737,477.77 113.712,477.827C113.686,477.883 113.673,477.944 113.671,478.005C113.657,478.196 113.69,478.387 113.766,478.562C113.872,478.852 114.015,479.126 114.192,479.379C114.343,479.632 114.549,479.847 114.796,480.007C114.796,480.007 114.595,479.746 114.334,479.308C114.187,479.052 114.064,478.782 113.967,478.503C113.849,478.219 113.837,477.757 114.157,477.78C114.476,477.804 114.725,478.171 114.855,478.444C114.979,478.702 115.044,478.986 115.045,479.273C115.022,479.534 114.97,479.792 114.891,480.042Z" fill="#263238"/>
<path d="M94.426,474.169C94.426,474.169 94.982,474.24 95.835,474.536C96.921,474.904 97.893,475.549 98.654,476.407C99.38,477.255 99.856,478.288 100.028,479.391C100.076,479.84 100.1,480.291 100.099,480.742C100.099,480.742 100.158,480.611 100.182,480.386C100.219,480.048 100.219,479.706 100.182,479.368C100.052,478.225 99.581,477.148 98.831,476.277C98.038,475.384 97.014,474.728 95.871,474.382C95.523,474.276 95.166,474.205 94.805,474.169C94.679,474.147 94.551,474.147 94.426,474.169L94.426,474.169Z" fill="#263238"/>
<path d="M102.906,479.651C103.776,480.063 104.696,480.362 105.642,480.539C106.573,480.796 107.531,480.939 108.496,480.965C108.496,480.906 107.229,480.693 105.701,480.326C104.173,479.959 102.93,479.592 102.906,479.651Z" fill="#263238"/>
<path d="M99.152,478.8C99.152,478.8 99.152,479.073 99.271,479.369C99.389,479.665 99.354,479.914 99.425,479.926C99.496,479.937 99.591,479.665 99.508,479.333C99.425,479.002 99.2,478.765 99.152,478.8Z" fill="#263238"/>
<path d="M98.098,476.844C98.098,476.844 98.098,477.093 98.287,477.318C98.477,477.543 98.619,477.709 98.666,477.685C98.713,477.662 98.666,477.437 98.488,477.212C98.311,476.987 98.157,476.809 98.098,476.844Z" fill="#263238"/>
<path d="M96.238,475.638C96.238,475.709 96.499,475.757 96.759,475.911C97.02,476.065 97.198,476.254 97.257,476.23C97.316,476.207 97.257,475.911 96.878,475.721C96.499,475.532 96.238,475.579 96.238,475.638Z" fill="#263238"/>
<path d="M94.875,474.983C94.875,474.983 94.934,475.149 95.076,475.244C95.218,475.339 95.372,475.374 95.408,475.315C95.443,475.256 95.408,475.149 95.207,475.054C95.005,474.96 94.911,474.912 94.875,474.983Z" fill="#263238"/>
<path d="M170.222,111.775C169.736,110.366 168.54,109.312 167.96,107.938C167.095,105.877 167.735,103.544 167.96,101.329C168.185,99.114 167.723,96.414 165.698,95.502C164.811,95.271 163.941,94.983 163.092,94.638C161.505,93.643 161.588,91.393 161.446,89.533C161.35,88.304 161.038,87.101 160.522,85.98L160.854,85.874C162.054,85.583 163.318,85.724 164.424,86.272C165.531,86.82 166.409,87.74 166.906,88.87C167.125,89.343 167.22,89.864 167.183,90.384C167.146,90.904 166.977,91.406 166.693,91.843C166.449,92.207 166.09,92.478 165.673,92.613C165.256,92.749 164.806,92.74 164.395,92.589C164.077,92.423 163.822,92.157 163.67,91.831C163.518,91.506 163.477,91.14 163.554,90.789C163.654,90.535 163.838,90.324 164.075,90.19C164.312,90.056 164.588,90.008 164.857,90.054C165.036,90.07 165.211,90.123 165.368,90.211C165.525,90.299 165.662,90.419 165.769,90.564C165.911,90.777 165.923,90.931 165.946,90.919C165.97,90.907 165.946,90.765 165.946,90.505C165.846,90.314 165.703,90.15 165.528,90.025C165.354,89.899 165.152,89.816 164.94,89.782C164.635,89.725 164.32,89.75 164.028,89.853C163.845,89.921 163.679,90.029 163.542,90.168C163.405,90.307 163.3,90.474 163.234,90.658C163.097,91.106 163.121,91.587 163.3,92.02C163.479,92.452 163.804,92.808 164.217,93.027C164.734,93.254 165.313,93.295 165.857,93.144C166.401,92.993 166.876,92.659 167.202,92.198C167.562,91.686 167.783,91.091 167.846,90.468C167.908,89.846 167.809,89.218 167.557,88.645C167.06,87.446 166.178,86.446 165.051,85.802C163.923,85.159 162.613,84.909 161.328,85.092C161.606,84.622 161.783,84.099 161.846,83.556C161.91,83.013 161.858,82.463 161.695,81.942C161.477,81.306 161.117,80.729 160.644,80.253C160.17,79.777 159.594,79.415 158.959,79.194C157.847,78.785 156.639,78.719 155.489,79.005C154.516,79.241 153.591,79.642 152.753,80.189C151.983,80.686 151.391,81.231 150.823,81.598C150.352,81.938 149.801,82.15 149.224,82.214C148.727,82.26 148.229,82.157 147.791,81.918C147.791,81.918 148.158,82.487 149.236,82.487C149.872,82.469 150.49,82.277 151.024,81.93C151.652,81.575 152.279,81.042 153.014,80.604C153.836,80.034 154.779,79.661 155.77,79.515C156.76,79.369 157.77,79.454 158.722,79.763C159.271,79.951 159.77,80.263 160.18,80.673C160.591,81.084 160.902,81.582 161.091,82.131C161.266,82.682 161.283,83.271 161.138,83.83C160.993,84.39 160.694,84.897 160.274,85.294C159.674,84.202 158.79,83.294 157.715,82.664C155.347,81.326 151.794,81.977 150.61,84.417L131.175,77.738C129.956,76.713 128.5,76.013 126.939,75.7C125.378,75.388 123.764,75.473 122.245,75.949L121.842,75.878C120.72,75.773 119.59,75.961 118.562,76.423C117.272,77.146 116.147,78.131 115.258,79.313C114.725,79.926 114.097,80.45 113.398,80.864C113.275,80.919 113.148,80.966 113.019,81.006C112.158,81.103 111.291,81.135 110.426,81.101C108.791,80.722 107.098,79.786 105.084,79.585C103.959,79.433 102.814,79.513 101.721,79.822C100.56,80.164 99.517,80.825 98.713,81.729C97.866,82.676 97.402,83.905 97.41,85.175C97.425,86.087 97.569,86.992 97.836,87.863C97.399,89.036 97.206,90.285 97.268,91.535C97.351,93.181 97.824,94.91 97.848,96.521C97.372,96.893 96.829,97.17 96.249,97.338C95.231,97.658 94.129,97.812 93.087,98.214C92.111,98.612 91.232,99.214 90.509,99.98C89.786,100.746 89.235,101.659 88.895,102.656C88.569,103.452 88.446,104.317 88.537,105.173C88.628,106.029 88.93,106.848 89.416,107.559C89.167,108.64 89.161,109.762 89.399,110.846C89.636,111.929 90.111,112.946 90.789,113.824C91.868,114.848 92.884,115.936 93.833,117.081C95.112,119.058 94.923,121.605 95.254,123.938C95.586,126.271 96.924,128.924 99.281,129.078C101.176,129.196 102.834,127.609 104.776,127.763C107.429,127.976 108.519,131.162 110.058,133.341C111.052,134.711 112.395,135.789 113.947,136.463C115.498,137.138 117.202,137.385 118.882,137.179C121.25,136.859 123.69,135.58 126.047,136.172C129.019,136.93 130.784,140.412 133.851,140.85C136.102,141.17 138.198,139.666 139.88,138.126C141.561,136.586 143.255,134.81 145.505,134.407C148.205,133.922 150.811,135.592 153.535,135.923C155.303,136.135 157.094,135.822 158.686,135.024C160.278,134.226 161.6,132.978 162.488,131.435C163.981,128.723 163.969,125.395 165.378,122.635C166.456,120.877 167.643,119.188 168.931,117.578C170.044,115.908 170.909,113.765 170.222,111.775ZM92.294,103.035C92.075,102.988 91.849,102.988 91.63,103.035C91.63,103.035 91.832,103.035 92.163,103.165L91.796,103.437C90.687,104.361 89.886,105.6 89.499,106.99C89.205,106.361 89.043,105.678 89.023,104.983C89.002,104.289 89.124,103.597 89.38,102.952C89.706,102.044 90.22,101.215 90.89,100.521C91.559,99.827 92.369,99.283 93.265,98.925C94.212,98.57 95.29,98.416 96.391,98.084C96.868,97.95 97.323,97.746 97.741,97.48C97.691,98.125 97.501,98.751 97.185,99.316C96.166,101.08 94.011,101.827 92.294,103.035L92.294,103.035ZM105.558,81.243C103.984,81.541 102.501,82.203 101.23,83.178C99.959,84.154 98.934,85.413 98.239,86.857C98.118,86.324 98.055,85.78 98.049,85.234C98.044,84.128 98.444,83.057 99.174,82.226C99.906,81.455 100.815,80.874 101.822,80.534C102.829,80.193 103.904,80.103 104.954,80.272C106.045,80.415 107.115,80.69 108.14,81.089C107.277,81.075 106.413,81.127 105.558,81.243L105.558,81.243ZM115.305,80.426C115.068,80.533 114.819,80.604 114.582,80.686C114.928,80.373 115.256,80.041 115.565,79.692C116.404,78.544 117.458,77.571 118.668,76.826C119.562,76.387 120.551,76.175 121.546,76.21C121.032,76.398 120.54,76.64 120.078,76.932C118.42,77.998 117.105,79.597 115.305,80.426Z" fill="#263238"/>
<path d="M157.43,121.106C158.354,115.279 158.07,105.71 157.572,97.881C157.468,96.213 157.027,94.583 156.277,93.089C155.526,91.596 154.48,90.27 153.203,89.191C151.927,88.112 150.444,87.303 148.846,86.812C147.249,86.321 145.568,86.159 143.905,86.334L123.547,88.49C122.52,88.597 121.571,89.086 120.889,89.861C120.206,90.635 119.84,91.638 119.864,92.67L121.96,142.684L117.223,142.684L117.223,151.744C117.223,156.72 119.199,161.491 122.717,165.009C126.235,168.528 131.007,170.504 135.982,170.504C140.958,170.504 145.729,168.528 149.247,165.009C152.765,161.491 154.742,156.72 154.742,151.744L154.742,143.904C154.742,143.904 149.863,142.305 146.902,142.471L146.179,142.471C146.179,137.888 146.558,134.299 146.558,134.299C146.558,134.299 155.571,132.843 157.43,121.106Z" fill="#FFBE9D"/>
<path d="M154.528,105.475C154.528,105.867 154.376,106.244 154.105,106.527C153.833,106.81 153.463,106.976 153.071,106.991C152.879,107.007 152.686,106.985 152.503,106.924C152.319,106.864 152.15,106.767 152.006,106.64C151.861,106.513 151.743,106.358 151.66,106.184C151.576,106.011 151.528,105.822 151.52,105.629C151.519,105.237 151.671,104.861 151.942,104.578C152.214,104.295 152.585,104.129 152.976,104.113C153.168,104.099 153.361,104.123 153.543,104.184C153.725,104.245 153.894,104.342 154.038,104.468C154.183,104.595 154.3,104.75 154.384,104.923C154.469,105.096 154.517,105.283 154.528,105.475Z" fill="#263238"/>
<path d="M155.502,102.868C155.313,103.058 154.176,102.217 152.553,102.217C150.931,102.217 149.746,103.034 149.569,102.833C149.391,102.631 149.675,102.395 150.196,102.016C150.894,101.538 151.72,101.282 152.565,101.281C153.415,101.275 154.245,101.541 154.934,102.039C155.419,102.418 155.597,102.774 155.502,102.868Z" fill="#263238"/>
<path d="M138.696,105.475C138.699,105.866 138.55,106.243 138.28,106.526C138.011,106.809 137.641,106.976 137.251,106.991C137.059,107.007 136.865,106.985 136.682,106.924C136.499,106.864 136.33,106.767 136.186,106.64C136.041,106.513 135.923,106.358 135.839,106.184C135.756,106.011 135.708,105.822 135.699,105.629C135.693,105.238 135.841,104.859 136.111,104.575C136.382,104.292 136.753,104.126 137.144,104.113C137.336,104.099 137.529,104.123 137.711,104.184C137.893,104.245 138.062,104.342 138.206,104.468C138.351,104.595 138.468,104.75 138.553,104.923C138.637,105.096 138.685,105.283 138.696,105.475L138.696,105.475Z" fill="#263238"/>
<path d="M139.584,103.165C139.395,103.367 138.258,102.526 136.635,102.526C135.013,102.526 133.828,103.343 133.651,103.142C133.473,102.94 133.757,102.703 134.278,102.325C134.971,101.837 135.8,101.58 136.647,101.59C137.498,101.578 138.33,101.844 139.016,102.348C139.501,102.727 139.679,103.106 139.584,103.165Z" fill="#263238"/>
<path d="M145.456,115.176C146.309,114.91 147.193,114.751 148.085,114.703C148.5,114.703 148.891,114.584 148.962,114.3C148.987,113.887 148.892,113.476 148.689,113.116C148.299,112.121 147.896,111.067 147.505,109.965C145.811,105.489 144.58,101.805 144.769,101.734C146.108,104.307 147.244,106.98 148.168,109.729C148.571,110.842 148.962,111.884 149.353,112.903C149.614,113.401 149.69,113.976 149.566,114.525C149.504,114.671 149.41,114.801 149.291,114.905C149.172,115.01 149.031,115.086 148.879,115.129C148.651,115.192 148.416,115.223 148.18,115.224C147.274,115.325 146.358,115.309 145.456,115.176L145.456,115.176Z" fill="#263238"/>
<path d="M146.583,134.341C141.057,134.425 135.617,132.974 130.867,130.148C130.867,130.148 134.681,138.214 146.417,137.112L146.583,134.341Z" fill="#EB996E"/>
<path d="M144.769,119.084C144.461,118.696 144.059,118.392 143.601,118.201C143.143,118.011 142.644,117.94 142.151,117.995C141.794,118.028 141.448,118.134 141.132,118.305C140.817,118.476 140.539,118.709 140.316,118.99C140.098,119.259 139.969,119.589 139.945,119.934C139.922,120.28 140.006,120.624 140.186,120.92C140.448,121.206 140.789,121.409 141.166,121.504C141.542,121.598 141.939,121.581 142.305,121.453C143.066,121.195 143.77,120.793 144.378,120.269C144.561,120.137 144.718,119.972 144.84,119.783C144.901,119.694 144.934,119.589 144.934,119.481C144.934,119.373 144.901,119.268 144.84,119.179Z" fill="#EB996E"/>
<path d="M140.695,116.301C140.956,116.301 140.956,118.042 142.46,119.286C143.964,120.529 145.835,120.34 145.847,120.588C145.859,120.837 145.433,120.932 144.663,120.955C143.635,120.968 142.636,120.616 141.844,119.961C141.075,119.341 140.582,118.443 140.47,117.462C140.435,116.727 140.577,116.289 140.695,116.301Z" fill="#263238"/>
<path d="M140.308,100.338C140.154,100.776 138.531,100.563 136.636,100.8C134.741,101.037 133.202,101.546 132.953,101.143C132.834,100.966 133.107,100.551 133.723,100.125C134.543,99.587 135.482,99.258 136.458,99.166C137.431,99.049 138.416,99.162 139.336,99.497C140.035,99.781 140.438,100.125 140.308,100.338Z" fill="#263238"/>
<path d="M154.908,99.551C154.624,99.919 153.499,99.551 152.16,99.551C150.822,99.551 149.685,99.8 149.424,99.409C149.306,99.22 149.424,98.853 149.981,98.509C150.644,98.086 151.421,97.875 152.208,97.905C152.996,97.917 153.762,98.174 154.399,98.639C154.872,98.995 155.026,99.374 154.908,99.551Z" fill="#263238"/>
<path d="M161.943,87.415C161.137,84.288 158.769,81.399 155.595,80.807C153.522,80.428 151.402,81.032 149.306,80.901C147.565,80.795 146.937,79.409 145.291,78.864C142.543,77.964 140.435,74.909 134.502,75.548C132.915,75.726 130.878,77.562 129.421,79.646C127.147,78.663 124.151,79.717 122.517,80.439C119.118,81.92 116.998,85.745 116.323,89.63C115.647,93.514 116.204,97.506 116.749,101.414C116.998,103.19 117.246,104.967 117.507,106.767C117.604,107.952 117.921,109.109 118.442,110.178L115.742,135.285C117.094,135.718 118.519,135.87 119.932,135.733C121.344,135.596 122.714,135.173 123.958,134.489C125.201,133.805 126.292,132.875 127.164,131.756C128.036,130.637 128.671,129.351 129.03,127.978C130.072,123.04 127.325,118.018 127.763,112.985C128.024,109.988 129.717,107.205 129.705,104.197C129.686,103.208 129.543,102.225 129.279,101.272L129.279,101.272C134.016,97.399 135.272,94.284 135.07,90.613C136.532,91.635 138.261,92.207 140.044,92.259C142.555,92.259 145.173,91.311 147.518,92.259C149.132,93.085 150.556,94.238 151.698,95.646C152.989,96.925 154.659,98.098 156.435,97.849C157.285,97.648 158.11,97.358 158.899,96.984C159.295,96.797 159.728,96.7 160.166,96.7C160.604,96.7 161.037,96.797 161.433,96.984C162.392,93.886 162.567,90.598 161.943,87.415L161.943,87.415Z" fill="#263238"/>
<path d="M91.785,113.124C93,114.005 94.306,114.751 95.682,115.35C97.295,116.03 99.024,116.396 100.774,116.428C103.095,116.49 105.374,115.805 107.276,114.474C108.417,113.686 109.379,112.668 110.102,111.485C110.824,110.301 111.29,108.98 111.469,107.605C111.653,106.079 111.341,104.535 110.58,103.199C110.187,102.515 109.629,101.94 108.956,101.526C108.284,101.113 107.519,100.874 106.731,100.831C105.926,100.81 105.139,101.069 104.505,101.565C103.861,102.103 103.384,102.814 103.131,103.614C102.851,104.438 102.787,105.32 102.945,106.177C103.103,107.033 103.476,107.834 104.031,108.505C105.238,109.907 106.867,110.88 108.674,111.276C110.54,111.717 112.479,111.749 114.358,111.371C116.245,110.996 118.017,110.184 119.534,109.003C121.002,107.865 122.116,106.333 122.743,104.585C123.36,102.903 123.507,101.086 123.17,99.327C123.009,98.495 122.713,97.694 122.293,96.958C121.91,96.22 121.363,95.58 120.694,95.087C120.075,94.596 119.317,94.31 118.527,94.27C118.161,94.257 117.798,94.346 117.479,94.525C117.159,94.705 116.895,94.969 116.715,95.288C116.37,95.94 116.29,96.699 116.49,97.408C116.718,98.113 117.127,98.745 117.674,99.244C119.624,100.893 122.119,101.753 124.671,101.654C127.222,101.555 129.644,100.505 131.46,98.711C132.679,97.454 133.57,95.917 134.054,94.234C134.453,92.794 134.577,91.291 134.421,89.805C134.53,90.191 134.594,90.588 134.61,90.989C134.694,92.116 134.59,93.248 134.302,94.341C133.833,96.079 132.947,97.677 131.721,98.995C130.052,100.738 127.819,101.833 125.42,102.086C123.973,102.273 122.503,102.154 121.105,101.735C119.708,101.317 118.414,100.609 117.307,99.658C116.694,99.098 116.243,98.382 116.005,97.586C115.764,96.734 115.861,95.821 116.277,95.039C116.506,94.633 116.84,94.297 117.244,94.065C117.649,93.834 118.109,93.716 118.575,93.725C119.491,93.763 120.373,94.086 121.097,94.649C121.833,95.188 122.437,95.889 122.862,96.697C123.319,97.505 123.643,98.381 123.821,99.291C124.19,101.159 124.038,103.093 123.383,104.881C122.72,106.749 121.541,108.392 119.984,109.618C118.383,110.851 116.518,111.694 114.536,112.082C112.577,112.472 110.558,112.436 108.614,111.975C106.674,111.543 104.925,110.497 103.628,108.991C103.016,108.225 102.609,107.316 102.444,106.35C102.298,105.398 102.375,104.425 102.669,103.507C102.955,102.583 103.502,101.76 104.244,101.139C104.996,100.56 105.925,100.259 106.873,100.286C107.762,100.333 108.624,100.606 109.378,101.079C110.132,101.551 110.754,102.207 111.184,102.986C111.99,104.426 112.318,106.085 112.12,107.723C111.923,109.167 111.423,110.552 110.653,111.788C109.884,113.025 108.862,114.086 107.655,114.9C105.677,116.266 103.306,116.948 100.904,116.843C99.114,116.792 97.352,116.389 95.717,115.658C94.681,115.214 93.703,114.645 92.804,113.965C92.496,113.74 92.283,113.538 92.129,113.42L91.785,113.124Z" fill="#455A64"/>
<path d="M162.63,92.72C162.462,92.879 162.27,93.011 162.061,93.111C161.481,93.435 160.854,93.666 160.202,93.798C159.162,94.009 158.091,94.009 157.052,93.798C155.677,93.473 154.404,92.814 153.345,91.879C152.069,90.743 151.072,89.329 150.431,87.746C150.219,87.29 150.1,86.796 150.084,86.293C150.068,85.79 150.154,85.289 150.337,84.82C150.563,84.315 150.95,83.899 151.438,83.636C151.701,83.499 151.994,83.428 152.291,83.428C152.588,83.428 152.88,83.499 153.143,83.636C153.651,83.931 154.044,84.388 154.259,84.934C154.473,85.48 154.498,86.083 154.328,86.644C154.122,87.195 153.805,87.697 153.398,88.121C152.991,88.544 152.501,88.88 151.959,89.108C149.778,90.049 147.312,90.088 145.102,89.214C143.998,88.816 142.938,88.304 141.94,87.686C140.943,87.109 140.037,86.387 139.251,85.543C138.831,85.096 138.575,84.52 138.525,83.909C138.476,83.298 138.636,82.688 138.979,82.179C139.181,81.933 139.447,81.747 139.748,81.64C140.048,81.534 140.372,81.511 140.684,81.575C141.257,81.702 141.768,82.024 142.129,82.487C142.489,82.942 142.655,83.521 142.591,84.098C142.517,84.638 142.286,85.144 141.928,85.555C141.27,86.315 140.337,86.783 139.334,86.857C138.432,86.922 137.526,86.805 136.67,86.514C135.898,86.269 135.143,85.976 134.408,85.638C133.105,85.094 131.966,84.22 131.103,83.103C130.474,82.223 130.172,81.15 130.251,80.071C130.292,79.397 130.531,78.751 130.937,78.212C131.079,78.025 131.256,77.868 131.459,77.75C130.862,78.397 130.521,79.239 130.499,80.119C130.468,81.124 130.782,82.11 131.388,82.914C132.233,83.969 133.339,84.786 134.597,85.282C136.065,86.024 137.689,86.406 139.334,86.396C139.765,86.355 140.184,86.229 140.566,86.026C140.948,85.823 141.286,85.546 141.561,85.211C141.867,84.901 142.052,84.492 142.082,84.058C142.112,83.623 141.986,83.192 141.727,82.843C141.194,82.144 140.057,81.836 139.524,82.558C139.388,82.739 139.289,82.946 139.234,83.166C139.179,83.385 139.169,83.614 139.204,83.837C139.273,84.319 139.479,84.771 139.796,85.14C140.542,85.921 141.395,86.591 142.331,87.13C143.29,87.724 144.31,88.212 145.374,88.587C146.384,89.007 147.467,89.223 148.56,89.223C149.654,89.223 150.736,89.007 151.746,88.587C152.203,88.395 152.616,88.113 152.96,87.756C153.304,87.4 153.572,86.977 153.747,86.514C153.893,86.075 153.881,85.598 153.715,85.167C153.549,84.735 153.238,84.374 152.835,84.145C152.647,84.06 152.443,84.015 152.236,84.014C152.029,84.012 151.824,84.054 151.634,84.137C151.445,84.219 151.274,84.341 151.134,84.493C150.995,84.646 150.888,84.826 150.822,85.022C150.672,85.421 150.601,85.847 150.616,86.274C150.63,86.7 150.728,87.12 150.905,87.509C151.5,89.024 152.431,90.385 153.629,91.488C154.617,92.401 155.812,93.059 157.111,93.407C158.097,93.658 159.124,93.71 160.131,93.561C160.998,93.393 161.838,93.11 162.63,92.72L162.63,92.72Z" fill="#455A64"/>
<path d="M128.429,120.269C128.288,120.431 128.12,120.568 127.932,120.672C127.406,121.013 126.819,121.246 126.202,121.359C125.228,121.56 124.218,121.494 123.277,121.169C122.629,120.981 122.028,120.657 121.516,120.217C121.003,119.778 120.59,119.235 120.305,118.623C120.112,118.233 120.052,117.791 120.133,117.363C120.214,116.936 120.432,116.547 120.755,116.254C121.119,115.973 121.567,115.82 122.028,115.82C122.488,115.82 122.936,115.973 123.301,116.254C124.035,116.853 124.592,117.639 124.913,118.53C125.235,119.421 125.308,120.382 125.125,121.311C125.004,122.34 124.627,123.323 124.03,124.169C123.432,125.015 122.632,125.698 121.702,126.155C120.679,126.588 119.567,126.77 118.459,126.688C117.351,126.605 116.279,126.26 115.33,125.681C114.35,125.131 113.513,124.356 112.891,123.419C112.574,122.951 112.359,122.421 112.259,121.864C112.159,121.307 112.177,120.736 112.31,120.186C112.453,119.637 112.744,119.137 113.151,118.741C113.359,118.539 113.606,118.381 113.877,118.277C114.147,118.173 114.437,118.126 114.726,118.137C115.259,118.178 115.772,118.355 116.216,118.651C116.66,118.948 117.02,119.354 117.261,119.831C117.7,120.69 117.939,121.638 117.96,122.602C117.994,123.49 117.907,124.379 117.699,125.243C117.327,126.815 116.503,128.243 115.33,129.353C114.491,130.165 113.431,130.71 112.282,130.921C111.134,131.132 109.949,130.998 108.876,130.537C108.303,130.287 107.781,129.934 107.336,129.495C107.176,129.352 107.04,129.184 106.934,128.998C107.541,129.535 108.228,129.974 108.971,130.3C109.852,130.641 110.804,130.759 111.742,130.644C112.976,130.494 114.125,129.94 115.011,129.069C116.081,128.002 116.821,126.649 117.142,125.172C117.334,124.354 117.406,123.512 117.356,122.673C117.33,121.802 117.107,120.947 116.704,120.174C116.513,119.787 116.225,119.456 115.868,119.213C115.511,118.97 115.098,118.824 114.667,118.789C114.232,118.816 113.819,118.99 113.496,119.282C113.173,119.575 112.96,119.969 112.891,120.399C112.779,120.864 112.766,121.346 112.854,121.816C112.942,122.285 113.128,122.731 113.4,123.123C113.969,123.972 114.727,124.678 115.615,125.184C116.49,125.716 117.479,126.032 118.5,126.106C119.522,126.18 120.546,126.01 121.489,125.61C122.327,125.195 123.049,124.578 123.59,123.816C124.132,123.053 124.476,122.168 124.592,121.24C124.759,120.417 124.705,119.565 124.434,118.77C124.164,117.975 123.687,117.266 123.052,116.716C122.777,116.5 122.437,116.383 122.087,116.383C121.737,116.383 121.397,116.5 121.122,116.716C120.883,116.937 120.721,117.229 120.659,117.548C120.597,117.868 120.639,118.199 120.778,118.493C121.027,119.049 121.39,119.547 121.842,119.955C122.295,120.363 122.828,120.672 123.407,120.861C124.292,121.189 125.246,121.287 126.179,121.146C126.973,120.984 127.734,120.688 128.429,120.269L128.429,120.269Z" fill="#455A64"/>
<path d="M79.504,408.165C79.504,408.165 87.427,423.561 108.082,416.076C108.082,416.076 128.31,427.066 147.662,414.761C147.662,414.761 172.71,418.113 186.342,411.516L168.861,260.349L166.634,237.137L111.315,237.137C111.315,237.137 94.9,244.61 92.259,281.099C89.618,317.588 83.969,367.708 83.969,367.708L79.504,408.165Z" fill="#263238"/>
<path d="M146.475,415.224C146.475,415.224 146.475,415.07 146.475,414.762C146.475,414.454 146.404,413.993 146.357,413.424C146.262,412.24 146.132,410.475 145.954,408.26C145.623,403.784 145.184,397.294 144.711,389.311C143.751,373.276 142.733,351.081 142.2,326.542C141.667,302.003 141.726,279.797 141.987,263.773C142.117,255.732 142.259,249.23 142.413,244.741C142.484,242.515 142.543,240.786 142.591,239.566C142.591,238.997 142.591,238.547 142.591,238.216C142.576,238.066 142.576,237.915 142.591,237.766C142.609,237.915 142.609,238.066 142.591,238.216L142.591,239.566C142.591,240.75 142.591,242.527 142.532,244.741C142.532,249.265 142.401,255.767 142.307,263.773C142.164,279.845 142.164,302.051 142.697,326.542C143.23,351.034 144.19,373.24 145.066,389.311C145.504,397.317 145.86,403.796 146.12,408.26C146.239,410.475 146.333,412.216 146.404,413.424C146.404,413.993 146.404,414.443 146.464,414.774C146.48,414.924 146.484,415.074 146.475,415.224Z" fill="#455A64"/>
<path d="M151.332,371.948C151.332,371.948 151.45,371.782 151.758,371.699C152.214,371.6 152.69,371.659 153.108,371.865C153.425,372.02 153.703,372.245 153.923,372.521C154.142,372.798 154.297,373.12 154.375,373.464C154.421,373.907 154.336,374.353 154.133,374.748C153.93,375.144 153.616,375.472 153.23,375.693C152.843,375.914 152.401,376.018 151.957,375.992C151.513,375.966 151.086,375.812 150.728,375.548C150.471,375.303 150.273,375.003 150.148,374.671C150.023,374.339 149.974,373.983 150.005,373.63C150.039,373.165 150.231,372.726 150.55,372.386C150.775,372.161 150.964,372.114 150.976,372.138C150.66,372.583 150.475,373.108 150.443,373.654C150.444,373.928 150.502,374.2 150.615,374.451C150.727,374.702 150.89,374.926 151.095,375.11C151.367,375.282 151.681,375.377 152.003,375.384C152.325,375.391 152.642,375.311 152.922,375.152C153.202,374.992 153.433,374.76 153.591,374.479C153.749,374.199 153.828,373.881 153.819,373.559C153.769,373.287 153.66,373.03 153.501,372.805C153.341,372.58 153.134,372.393 152.895,372.256C152.417,371.996 151.872,371.889 151.332,371.948L151.332,371.948Z" fill="#455A64"/>
<path d="M150.101,327.062C150.101,327.062 150.219,326.908 150.527,326.825C150.982,326.719 151.461,326.778 151.877,326.991C152.199,327.139 152.482,327.361 152.702,327.638C152.922,327.916 153.074,328.242 153.144,328.59C153.185,329.029 153.098,329.471 152.894,329.863C152.69,330.255 152.378,330.579 151.994,330.798C151.611,331.016 151.172,331.12 150.731,331.096C150.291,331.072 149.866,330.921 149.508,330.662C149.247,330.423 149.046,330.126 148.92,329.795C148.795,329.464 148.749,329.108 148.786,328.755C148.824,328.312 149.012,327.894 149.319,327.571C149.556,327.334 149.733,327.299 149.745,327.322C149.431,327.764 149.246,328.285 149.212,328.827C149.212,329.101 149.27,329.373 149.383,329.624C149.495,329.875 149.659,330.1 149.864,330.283C150.134,330.459 150.448,330.557 150.77,330.567C151.093,330.576 151.412,330.498 151.692,330.339C151.973,330.18 152.205,329.948 152.363,329.666C152.521,329.385 152.598,329.066 152.588,328.744C152.536,328.473 152.429,328.216 152.271,327.989C152.114,327.763 151.911,327.572 151.676,327.429C151.195,327.162 150.65,327.035 150.101,327.062L150.101,327.062Z" fill="#455A64"/>
<path d="M149.376,287.366C149.376,287.366 149.495,287.212 149.815,287.129C150.266,287.024 150.741,287.083 151.153,287.295C151.476,287.444 151.759,287.666 151.981,287.943C152.203,288.221 152.358,288.546 152.432,288.894C152.475,289.335 152.389,289.78 152.184,290.174C151.98,290.567 151.666,290.894 151.28,291.113C150.894,291.332 150.453,291.435 150.01,291.409C149.568,291.383 149.142,291.229 148.784,290.966C148.525,290.726 148.325,290.428 148.2,290.098C148.075,289.767 148.027,289.412 148.062,289.06C148.094,288.597 148.282,288.159 148.595,287.816C148.832,287.591 149.009,287.544 149.033,287.567C148.711,288.006 148.522,288.528 148.488,289.071C148.486,289.348 148.545,289.621 148.659,289.873C148.774,290.124 148.942,290.348 149.151,290.528C149.422,290.7 149.734,290.796 150.055,290.804C150.375,290.812 150.692,290.733 150.971,290.575C151.25,290.416 151.48,290.185 151.637,289.905C151.795,289.626 151.873,289.309 151.863,288.989C151.812,288.718 151.704,288.461 151.547,288.234C151.39,288.008 151.187,287.817 150.951,287.674C150.465,287.427 149.92,287.32 149.376,287.366L149.376,287.366Z" fill="#455A64"/>
<path d="M147.969,244.893C147.969,244.893 148.087,244.727 148.395,244.644C148.852,244.544 149.33,244.607 149.745,244.822C150.066,244.972 150.347,245.195 150.567,245.472C150.787,245.75 150.939,246.074 151.012,246.421C151.073,246.868 150.991,247.322 150.778,247.72C150.566,248.117 150.233,248.438 149.828,248.635C149.447,248.871 149.003,248.984 148.556,248.959C148.109,248.934 147.681,248.771 147.329,248.493C147.073,248.248 146.875,247.948 146.75,247.616C146.625,247.284 146.576,246.928 146.607,246.575C146.654,246.131 146.845,245.715 147.151,245.39C147.388,245.165 147.566,245.118 147.578,245.142C147.262,245.587 147.077,246.112 147.045,246.658C147.046,246.932 147.104,247.204 147.216,247.455C147.328,247.706 147.492,247.931 147.696,248.114C147.969,248.286 148.282,248.381 148.604,248.388C148.926,248.395 149.244,248.315 149.524,248.156C149.803,247.996 150.035,247.764 150.192,247.483C150.35,247.203 150.429,246.885 150.42,246.563C150.37,246.292 150.262,246.034 150.102,245.809C149.943,245.584 149.736,245.397 149.496,245.26C149.036,244.987 148.503,244.859 147.969,244.893L147.969,244.893Z" fill="#455A64"/>
<path d="M220.069,198.92L499.416,196.895L507.196,386.812L217.938,384.136L220.069,198.92Z" fill="#01008A"/>
<path d="M220.059,198.92L352.276,91.941C354.993,89.745 358.383,88.554 361.876,88.567C365.369,88.579 368.75,89.796 371.45,92.012L499.417,196.895Z" fill="#01008A"/>
<g opacity="0.3">
<g opacity="0.3">
<path d="M220.059,198.92L352.276,91.941C354.993,89.745 358.383,88.554 361.876,88.567C365.369,88.579 368.75,89.796 371.45,92.012L499.417,196.895Z" fill="#000000"/>
</g>
</g>
<path d="M217.937,384.137C217.594,383.805 239.954,359.385 267.892,329.599C295.83,299.813 318.747,275.926 319.102,276.245C319.457,276.565 297.086,300.986 269.148,330.783C241.209,360.581 218.293,384.457 217.937,384.137Z" fill="#7C7BFF"/>
<path d="M507.196,386.814C506.841,387.134 485.061,363.211 458.556,333.389C432.051,303.568 410.852,279.124 411.184,278.804C411.515,278.484 433.318,302.407 459.824,332.241C486.329,362.074 507.575,386.494 507.196,386.814Z" fill="#7C7BFF"/>
<g opacity="0.5">
<g opacity="0.5">
<path d="M499.416,196.895L359.133,308.955L220.07,198.92Z" fill="#000000"/>
</g>
</g>
<path d="M234.126,209.299L233.699,122.062L478.297,119.16L481.057,210.957L359.119,307.491L234.126,209.299Z" fill="#FAFAFA"/>
<path d="M234.127,209.294C234.127,209.294 234.92,209.886 236.424,211.059L243.056,216.222L268.342,235.965L359.309,307.285L359.002,307.285L480.904,210.715L480.786,210.964C480.264,193.46 479.708,175.079 479.14,156.391C478.772,143.801 478.394,131.366 478.026,119.167L478.334,119.463L233.736,122.247L233.925,122.057C234.02,149.498 234.103,171.301 234.15,186.247C234.15,193.72 234.15,199.476 234.15,203.373L234.15,207.79C234.15,208.785 234.15,209.294 234.15,209.294C234.15,209.294 234.15,208.797 234.15,207.814C234.15,206.831 234.15,205.35 234.15,203.42C234.15,199.524 234.067,193.78 234.008,186.318C233.914,171.348 233.771,149.533 233.594,122.057L233.594,121.856L233.783,121.856L478.394,118.859L478.69,118.859L478.69,119.167C479.056,131.354 479.424,143.789 479.802,156.379C480.37,175.079 480.916,193.448 481.448,210.964L481.448,211.118L481.33,211.213L359.345,307.699L359.191,307.818L359.037,307.699L268.129,236.143L242.997,216.305L236.365,211.094C234.873,209.91 234.127,209.294 234.127,209.294Z" fill="#263238"/>
<path d="M439.643,163.093C439.643,163.259 402.23,163.626 356.101,163.899C309.971,164.171 272.547,164.278 272.547,164.1C272.547,163.922 309.948,163.567 356.101,163.283C402.254,162.999 439.643,162.916 439.643,163.093Z" fill="#263238"/>
<path d="M439.643,187.729C439.643,187.907 402.23,188.274 356.101,188.546C309.971,188.819 272.547,188.914 272.547,188.748C272.547,188.582 309.948,188.215 356.101,187.931C402.254,187.646 439.643,187.563 439.643,187.729Z" fill="#263238"/>
<path d="M439.643,216.142C439.643,216.308 402.23,216.675 356.101,216.959C309.971,217.243 272.547,217.326 272.547,217.149C272.547,216.971 309.948,216.616 356.101,216.343C402.254,216.071 439.643,215.964 439.643,216.142Z" fill="#263238"/>
<path d="M439.644,244.542C439.644,244.719 403.96,245.063 359.939,245.335C315.918,245.608 280.235,245.679 280.223,245.513C280.211,245.347 315.906,244.992 359.939,244.719C403.972,244.447 439.644,244.376 439.644,244.542Z" fill="#263238"/>
<path d="M408.353,269.469C408.033,269.524 407.707,269.547 407.382,269.54L404.563,269.623L394.236,269.789L360.14,270.275C346.828,270.5 334.76,270.571 326.031,270.583L315.704,270.583L312.885,270.583C312.56,270.589 312.236,270.569 311.914,270.523C312.235,270.469 312.56,270.445 312.885,270.452L315.704,270.381L326.031,270.204L360.128,269.718C373.439,269.493 385.508,269.422 394.224,269.41L404.563,269.41L407.382,269.41C407.707,269.409 408.031,269.429 408.353,269.469L408.353,269.469Z" fill="#263238"/>
<path d="M376.862,293.441C376.862,293.607 368.891,293.749 359.097,293.749C349.303,293.749 341.332,293.607 341.332,293.441C341.332,293.275 349.314,293.133 359.097,293.133C368.879,293.133 376.862,293.263 376.862,293.441Z" fill="#263238"/>
<path d="M459.193,274.09C475.513,274.09 488.742,260.86 488.742,244.541C488.742,228.222 475.513,214.992 459.193,214.992C442.874,214.992 429.645,228.222 429.645,244.541C429.645,260.86 442.874,274.09 459.193,274.09Z" fill="#D62F61"/>
<path d="M451.975,274.125C468.294,274.125 481.523,260.896 481.523,244.576C481.523,228.257 468.294,215.027 451.975,215.027C435.655,215.027 422.426,228.257 422.426,244.576C422.426,260.896 435.655,274.125 451.975,274.125Z" fill="#FF3874"/>
<path d="M451.384,256.201C457.647,256.201 462.077,251.156 462.077,243.984C462.077,236.846 457.647,231.801 451.384,231.801C445.121,231.801 440.727,236.846 440.727,243.984C440.727,251.156 445.121,256.201 451.384,256.201ZM451.384,251.602C448.201,251.602 445.952,248.411 445.952,243.984C445.952,239.557 448.201,236.399 451.384,236.399C454.602,236.399 456.817,239.557 456.817,243.984C456.817,248.411 454.602,251.602 451.384,251.602Z" fill="#FFFFFF"/>
<path d="M245.84,80.882C245.87,81.47 246.024,82.046 246.292,82.57C246.561,83.095 246.938,83.556 247.397,83.924C247.857,84.293 248.39,84.559 248.961,84.707C249.531,84.854 250.126,84.879 250.707,84.779C251.288,84.68 251.841,84.459 252.33,84.13C252.819,83.801 253.232,83.372 253.543,82.872C253.855,82.372 254.056,81.811 254.135,81.227C254.213,80.643 254.167,80.049 254,79.484Z" fill="#FF3874"/>
<path d="M251.063,54.012L248.41,54.012L248.41,59.649L251.063,59.649L251.063,54.012Z" fill="#01008A"/>
<path d="M288.961,63.723C288.881,63.491 288.817,63.253 288.772,63.012C288.653,62.503 288.499,61.828 288.298,60.928C288.051,59.795 287.73,58.679 287.339,57.588C287.102,56.949 286.936,56.226 286.616,55.504L285.609,53.206C283.788,49.325 281.37,45.753 278.444,42.618C274.602,38.568 269.949,35.372 264.789,33.239C261.85,32.002 258.772,31.127 255.622,30.633C252.225,30.138 248.778,30.082 245.366,30.467C243.571,30.656 241.791,30.965 240.037,31.391C239.149,31.581 238.284,31.924 237.384,32.196C236.48,32.447 235.597,32.768 234.743,33.156C231.114,34.623 227.738,36.649 224.735,39.16C218.072,44.654 213.375,52.165 211.352,60.561C210.287,65.059 210.027,69.71 210.583,74.299C211.07,79.046 212.448,83.658 214.645,87.895L215.332,89.186L215.415,89.352L215.415,89.529C213.224,96.635 211.092,103.741 209.008,110.527L208.451,110.018L225.375,101.195L225.576,101.088L225.766,101.23C232.841,106.687 241.562,109.574 250.496,109.42C259.429,109.265 268.045,106.076 274.927,100.378C278.456,97.427 281.462,93.904 283.821,89.956C285.707,86.658 287.16,83.131 288.144,79.463C288.808,76.676 289.205,73.833 289.328,70.971C289.328,69.787 289.328,68.768 289.328,67.856C289.328,66.944 289.186,66.222 289.139,65.594C289.091,64.966 289.044,64.552 289.02,64.209C289.002,64.051 289.002,63.892 289.02,63.735C289.062,63.886 289.09,64.04 289.103,64.197C289.103,64.544 289.162,65.006 289.281,65.582C289.352,66.21 289.435,66.956 289.541,67.856C289.648,68.756 289.541,69.81 289.541,70.983C289.475,73.87 289.118,76.742 288.476,79.557C287.53,83.283 286.096,86.867 284.212,90.216C281.853,94.251 278.825,97.855 275.258,100.875C270.891,104.521 265.798,107.194 260.317,108.717C254.836,110.241 249.093,110.579 243.471,109.71C236.854,108.659 230.6,105.986 225.268,101.929L225.671,101.929L208.771,110.776L207.918,111.226L208.202,110.267L214.598,89.269L214.598,89.612L213.899,88.298C211.658,83.968 210.252,79.255 209.754,74.406C209.174,69.709 209.447,64.947 210.559,60.348C212.631,51.788 217.432,44.134 224.238,38.544C227.31,36.003 230.758,33.953 234.459,32.469C235.328,32.075 236.227,31.75 237.147,31.498C238.059,31.237 238.935,30.894 239.847,30.704C241.627,30.266 243.436,29.958 245.26,29.78C248.728,29.398 252.232,29.47 255.682,29.994C258.873,30.523 261.99,31.429 264.967,32.694C270.183,34.89 274.873,38.168 278.729,42.31C281.655,45.502 284.054,49.141 285.834,53.088C286.178,53.917 286.51,54.687 286.806,55.456C287.102,56.226 287.279,56.925 287.504,57.576C287.888,58.676 288.185,59.805 288.393,60.952C288.558,61.84 288.701,62.539 288.795,63.06C288.865,63.277 288.92,63.498 288.961,63.723Z" fill="#263238"/>
<path d="M236.047,82.21L263.073,82.21L259.413,78.018L259.413,67.963C259.413,65.35 258.375,62.843 256.527,60.995C254.68,59.148 252.173,58.109 249.56,58.109L249.56,58.109C248.267,58.109 246.986,58.364 245.791,58.86C244.596,59.355 243.511,60.081 242.597,60.996C241.683,61.911 240.958,62.998 240.464,64.193C239.97,65.388 239.717,66.669 239.718,67.963L239.718,77.52L236.047,82.21Z" fill="#01008A"/>
<path d="M615.717,344.961C619.589,358.048 616.652,374.877 611.962,387.692C607.196,400.632 598.425,411.714 586.926,419.325C585.647,420.166 584.001,420.983 582.65,420.26C582.151,419.864 581.745,419.362 581.46,418.791C581.176,418.22 581.02,417.594 581.004,416.956C578.234,402.806 580.124,388.139 586.391,375.153C592.657,362.168 602.963,351.562 615.764,344.926Z" fill="#A3F6A1"/>
<g opacity="0.2">
<g opacity="0.2">
<path d="M615.717,344.961C619.589,358.048 616.652,374.877 611.962,387.692C607.196,400.632 598.425,411.714 586.926,419.325C585.647,420.166 584.001,420.983 582.65,420.26C582.151,419.864 581.745,419.362 581.46,418.791C581.176,418.22 581.02,417.594 581.004,416.956C578.234,402.806 580.124,388.139 586.391,375.153C592.657,362.168 602.963,351.562 615.764,344.926Z" fill="#72CF70"/>
</g>
</g>
<path d="M557.544,282.844C565.693,282.619 571.069,291.679 571.886,299.803C572.704,307.928 570.903,316.384 573.284,324.153C576.268,334.054 585.577,341.16 588.372,351.144C591.688,362.904 585.234,375.115 584.926,387.325C584.772,393.247 586.11,399.275 584.985,405.09C584.048,410.064 581.415,414.559 577.535,417.809C573.655,421.059 568.767,422.863 563.706,422.914C558.645,422.964 553.723,421.257 549.779,418.085C545.835,414.913 543.113,410.471 542.077,405.516C540.17,396.373 544.209,386.65 541.793,377.613C540.005,370.946 534.817,365.273 534.391,358.38C533.894,350.173 540.242,343.079 541.426,334.942C542.61,326.806 538.489,318.859 537.873,310.652C536.771,295.943 542.859,284.395 557.533,282.82Z" fill="#CBFFCA"/>
<path d="M575.402,450.364C575.513,450.101 575.597,449.827 575.651,449.547C575.793,448.931 575.971,448.137 576.184,447.178C576.622,445.129 577.368,442.156 578.197,438.497C582.825,419.431 589.426,400.899 597.893,383.201C599.515,379.802 600.865,377.078 601.825,375.195L602.902,373.028C603.04,372.78 603.152,372.518 603.234,372.246C603.053,372.46 602.898,372.695 602.772,372.945L601.588,375.053C600.546,376.889 599.112,379.589 597.431,382.964C588.669,400.58 582.041,419.179 577.688,438.367C576.871,442.05 576.267,445.046 575.912,447.131C575.758,448.09 575.627,448.883 575.521,449.499C575.45,449.782 575.411,450.072 575.402,450.364L575.402,450.364Z" fill="#263238"/>
<path d="M557.875,322.969C557.88,323.405 557.92,323.841 557.993,324.271C558.1,325.183 558.254,326.427 558.444,327.99L560.255,341.669C561.783,353.216 563.891,369.157 566.106,386.792C568.321,404.426 570.228,420.403 571.589,431.974C572.276,437.694 572.833,442.36 573.236,445.664C573.437,447.228 573.591,448.471 573.709,449.383C573.751,449.818 573.822,450.249 573.923,450.674C573.959,450.241 573.959,449.805 573.923,449.371C573.84,448.448 573.733,447.204 573.591,445.629C573.248,442.313 572.774,437.647 572.193,431.903C571.009,420.32 569.15,404.332 566.935,386.697C564.72,369.063 562.529,353.122 560.848,341.586C559.995,335.89 559.296,331.247 558.811,327.955C558.55,326.391 558.349,325.16 558.207,324.248C558.137,323.812 558.026,323.384 557.875,322.969L557.875,322.969Z" fill="#263238"/>
<path d="M603.854,434.367L541.961,434.367L541.961,441.592L603.854,441.592L603.854,434.367Z" fill="#263238"/>
<path d="M547.703,441.59L554.963,485.433L593.359,485.433L598.38,441.59L547.703,441.59Z" fill="#263238"/>
<path d="M598.58,441.293C598.58,441.471 587.151,441.743 573.046,441.921C558.94,442.098 547.512,442.098 547.512,441.921C547.512,441.743 558.94,441.471 573.046,441.293C587.151,441.115 598.58,441.127 598.58,441.293Z" fill="#455A64"/>
<path d="M596.474,463.239L596.131,463.239L595.1,463.239C593.78,463.287 592.457,463.235 591.145,463.085C589.035,462.877 587.017,462.117 585.294,460.882C584.214,460.101 583.34,459.069 582.748,457.874C582.061,456.508 581.93,454.929 582.381,453.468C582.64,452.65 583.155,451.937 583.85,451.434C584.545,450.93 585.383,450.664 586.241,450.673C587.154,450.748 588.003,451.172 588.61,451.858C589.204,452.576 589.61,453.431 589.794,454.345C590.541,458.087 587.911,462.256 583.873,463.559C579.834,464.861 574.908,462.611 572.894,458.525C572.369,457.494 572.062,456.365 571.994,455.209C571.914,454.005 572.23,452.807 572.894,451.798C573.245,451.287 573.701,450.858 574.232,450.539C574.764,450.22 575.358,450.019 575.973,449.951C576.609,449.916 577.243,450.046 577.814,450.328C578.384,450.61 578.872,451.035 579.23,451.562C579.947,452.574 580.317,453.791 580.284,455.032C580.261,456.23 579.956,457.406 579.396,458.466C578.306,460.517 576.576,462.155 574.469,463.132C572.478,464.071 570.345,464.675 568.157,464.921C566.051,465.225 563.902,465.038 561.88,464.376C559.926,463.721 558.254,462.417 557.143,460.681C556.627,459.855 556.303,458.924 556.197,457.956C556.09,456.988 556.203,456.009 556.527,455.091C556.801,454.214 557.308,453.427 557.994,452.816C558.681,452.205 559.52,451.792 560.423,451.621C561.258,451.493 562.112,451.58 562.904,451.875C563.695,452.169 564.399,452.66 564.947,453.302C565.4,453.926 565.676,454.659 565.747,455.426C565.818,456.193 565.681,456.965 565.35,457.661C564.8,458.888 563.892,459.92 562.745,460.622C561.783,461.235 560.754,461.736 559.677,462.114C558.694,462.493 557.782,462.789 556.953,463.026C555.689,463.395 554.404,463.688 553.104,463.902L552.086,464.056L551.742,464.056C551.742,464.056 551.849,464.056 552.074,463.961L553.08,463.76C553.957,463.571 555.26,463.274 556.894,462.765C557.699,462.516 558.599,462.197 559.571,461.818C560.619,461.432 561.621,460.927 562.555,460.314C563.605,459.622 564.428,458.638 564.924,457.483C565.223,456.855 565.346,456.157 565.279,455.465C565.212,454.772 564.958,454.111 564.545,453.551C564.042,452.975 563.402,452.535 562.683,452.274C561.964,452.013 561.19,451.939 560.435,452.059C559.623,452.226 558.871,452.609 558.258,453.167C557.645,453.726 557.194,454.439 556.953,455.233C556.657,456.079 556.556,456.981 556.658,457.871C556.761,458.761 557.064,459.617 557.545,460.373C558.595,461.989 560.16,463.204 561.987,463.819C563.928,464.439 565.986,464.609 568.003,464.317C570.121,464.069 572.184,463.482 574.114,462.576C576.103,461.647 577.737,460.096 578.768,458.158C579.323,457.205 579.605,456.118 579.584,455.015C579.563,453.912 579.24,452.837 578.65,451.905C578.357,451.461 577.952,451.101 577.476,450.862C577,450.623 576.47,450.513 575.938,450.543C575.414,450.605 574.909,450.779 574.457,451.053C574.006,451.327 573.618,451.694 573.321,452.13C572.728,453.025 572.449,454.091 572.527,455.162C572.59,456.233 572.868,457.28 573.344,458.241C575.227,462.066 579.858,464.269 583.612,462.978C587.367,461.687 589.854,457.85 589.167,454.416C589.016,453.581 588.648,452.801 588.101,452.154C587.848,451.852 587.538,451.603 587.188,451.422C586.838,451.241 586.456,451.132 586.064,451.1C585.307,451.09 584.566,451.323 583.95,451.764C583.335,452.205 582.876,452.831 582.641,453.551C582.209,454.905 582.319,456.375 582.949,457.649C583.494,458.793 584.306,459.788 585.318,460.551C586.986,461.77 588.939,462.54 590.991,462.789C592.291,462.958 593.6,463.045 594.911,463.049L595.941,463.049L596.474,463.239Z" fill="#455A64"/>
</svg>
