<svg width="698" height="280" viewBox="0 0 698 280" fill="none" xmlns="http://www.w3.org/2000/svg" xmlns:xlink="http://www.w3.org/1999/xlink">
<path d="M658.051,203.899C651.611,171.916 639.841,134.225 642.185,122.904C649.747,86.398 635.373,26.849 524.653,10.085C373.381,-12.818 198.863,10.188 151.876,28.2C122.425,39.49 105.993,60.483 95.044,81.47C84.094,102.457 86.419,148.163 61.084,163.055C54.294,167.046 46.554,170.362 40.26,174.68C19.542,188.894 13.228,220.879 18.815,234.241C26.344,252.247 44.769,271.571 63.998,276.215C64.92,276.437 94.383,276.785 95.316,277.043L166.728,277.043C180.23,275.433 209.653,277.155 220.521,276.473C263.015,273.803 528.099,280.783 614.903,277.377C703.935,273.885 659.801,212.597 658.051,203.899Z" fill="#CBEFEF"/>
<g opacity="0.4">
<path d="M131.812,222.538C135.184,220.483 138.426,218.232 140.298,215.485C142.542,212.195 142.643,208.463 142.26,204.872C141.709,199.713 140.122,194.417 135.538,190.191C128.979,184.144 117.608,181.339 108.09,177.28C98.571,173.222 89.909,165.964 93.654,158.977C96.249,154.135 104.18,150.946 105.844,145.933C107.629,140.551 101.229,135.29 93.7,132.768C89.951,131.514 85.965,130.706 81.853,130.179C77.929,143.961 72.136,156.513 60.969,163.077C58.359,164.611 55.61,166.045 52.856,167.476C53.072,167.575 53.289,167.671 53.503,167.77C56.007,168.933 58.577,170.239 59.689,172.103C61.283,174.773 59.533,178.02 61.692,180.515C65.394,184.8 75.912,182.903 82.285,185.546C84.813,186.593 86.504,188.303 87.88,190.034C90.309,193.087 92.01,196.747 89.982,199.922C85.848,206.392 70.637,205.894 63.556,211.175C55.698,217.034 61.647,226.41 57.649,233.736C55.163,238.289 35.144,248.499 28.729,250.984C35.591,259.716 45.352,269.267 58.159,274.354C59.299,273.106 71.513,262.69 72.242,261.337C75.469,255.342 75.457,248.369 81.665,243.467C86.478,239.665 94.03,237.943 100.937,235.922C112.27,232.606 122.748,228.064 131.812,222.538Z" fill="#FFFFFF"/>
</g>
<g opacity="0.4">
<path d="M584.175,26.502C583.505,26.641 582.789,26.743 582.003,26.803C576.707,27.074 565.441,27.632 560.273,28.376C547.405,30.23 535.997,35.026 523.413,37.575C501.512,42.01 477.91,39.369 454.984,39.885C433.418,40.373 410.361,43.507 391.298,36.936C388.662,36.027 386.04,34.853 384.812,33.087C382.983,30.452 384.919,27.211 388.289,25.324C391.659,23.438 396.135,22.64 400.502,22.094C419.453,19.727 438.961,21.126 458.255,21.398C477.549,21.672 497.773,20.629 514.205,14.051C517.223,12.843 520.109,11.415 522.647,9.788C505.517,7.242 488.097,5.281 470.608,3.831C470.306,3.922 470.005,4.012 469.706,4.1C452.141,9.26 433.172,12.398 413.948,13.324C397.907,14.096 381.779,13.341 365.709,13.779C349.638,14.217 333.214,15.953 319.345,21.249C317.147,22.088 314.951,23.062 313.667,24.492C312.236,26.086 312.129,28.032 312.336,29.872C312.914,35.041 315.718,40.098 320.346,44.317C321.113,45.017 321.928,45.685 322.779,46.33L350.34,42.636L355.216,58.012C359.716,58.659 364.303,59.061 368.843,59.236C387.31,59.953 405.686,57.572 424.126,56.607C463.883,54.527 503.655,59.039 543.401,61.192C550.889,61.598 558.427,61.742 565.903,61.36C598.463,59.698 618.105,58.433 626.279,57.19C617.009,45.774 603.445,35.125 584.175,26.502Z" fill="#FFFFFF"/>
</g>
<g opacity="0.4">
<path d="M621.03,177.92C614.106,175.995 607.693,173.345 600.709,171.512C580.59,166.231 557.214,168.061 537.4,162.313C533.793,161.268 530.214,159.898 528.082,157.736C525.949,155.575 525.699,152.454 528.427,150.597C530.94,148.885 534.988,148.724 538.627,148.673C552.377,148.481 566.193,148.29 579.822,149.491C585.912,150.027 592.051,150.842 598.15,150.352C606.708,149.664 614.291,146.481 621.04,142.992C622.844,142.059 624.669,141.078 626.855,140.606C628.781,140.19 630.855,140.197 632.885,140.209C636.161,140.228 639.435,140.248 642.711,140.267C641.803,135.379 640.153,130.554 637.483,125.81C635.353,122.023 632.623,118.414 629.635,114.882C623.601,114.08 617.572,113.255 611.537,112.463C606.963,111.862 602.174,111.265 597.695,112.112C590.953,113.387 586.67,117.524 581.677,120.732C571.897,127.017 558.193,130.134 544.567,131.346C530.94,132.558 517.113,132.049 503.36,132.118C483.758,132.217 464.17,133.496 444.927,135.932C439.087,136.671 432.965,137.623 428.66,140.293C421.984,144.433 421.914,151.722 426.501,156.923C431.089,162.127 439.296,165.554 447.719,168.001C481.161,177.723 521.221,174.966 553.551,186.165C564.271,189.878 573.764,195.02 584.816,198.296C600.69,203.001 618.011,203.46 635.641,203.299C636.257,196.028 637.731,188.719 639.247,181.431C633.003,180.637 626.879,179.548 621.03,177.92Z" fill="#FFFFFF"/>
</g>
<g opacity="0.8">
<path d="M297.843,193.082C296.552,189.431 291.525,186.707 285.517,186.707C284.413,186.707 283.345,186.8 282.325,186.973C279.359,182.851 272.923,179.994 265.46,179.994C263.531,179.994 261.67,180.186 259.919,180.539C255.902,176.215 248.602,173.322 240.264,173.322C230.343,173.322 221.893,177.415 218.692,183.144C216.426,182.322 213.817,181.853 211.038,181.853C202.342,181.853 195.292,186.435 195.292,192.087C195.292,192.423 195.319,192.753 195.367,193.08L297.843,193.08L297.843,193.082Z" fill="#FFFFFF"/>
</g>
<path d="M695.704,278.39L2.509,278.39C0.703,278.39 0,277.543 0,276.499C0,275.455 0.703,274.607 2.509,274.607L695.704,274.607C697.508,274.607 698,275.455 698,276.499C698.002,277.543 697.508,278.39 695.704,278.39Z" fill="#7678A8"/>
<g opacity="0.8">
<path d="M541.055,79.422C540.207,77.027 536.911,75.239 532.967,75.239C532.243,75.239 531.541,75.298 530.872,75.411C528.926,72.707 524.703,70.833 519.806,70.833C518.54,70.833 517.319,70.958 516.171,71.191C513.535,68.353 508.745,66.456 503.275,66.456C496.766,66.456 491.221,69.142 489.121,72.9C487.634,72.361 485.922,72.053 484.099,72.053C478.394,72.053 473.768,75.059 473.768,78.768C473.768,78.987 473.785,79.205 473.817,79.42L541.055,79.42L541.055,79.422Z" fill="#FFFFFF"/>
</g>
<g opacity="0.8">
<path d="M235.146,61.588C233.977,58.281 229.425,55.815 223.982,55.815C222.983,55.815 222.014,55.898 221.09,56.054C218.404,52.321 212.574,49.735 205.815,49.735C204.067,49.735 202.381,49.908 200.796,50.229C197.157,46.313 190.547,43.694 182.993,43.694C174.007,43.694 166.354,47.402 163.455,52.59C161.402,51.845 159.038,51.421 156.522,51.421C148.647,51.421 142.261,55.572 142.261,60.691C142.261,60.994 142.285,61.294 142.329,61.59L235.146,61.59L235.146,61.588Z" fill="#FFFFFF"/>
</g>
<path d="M209.15,138.311C208.91,138.237 206.94,142.104 206.32,144.51C205.91,145.481 206.721,148.842 206.029,153.289L175.968,147.348C175.968,147.348 168.096,124.312 162.437,113.853C160.799,113.859 150.736,126.567 156.821,138.723C161.047,147.047 166.413,155.508 170.74,157.702C175.067,159.896 206.649,160.091 206.649,160.091C206.649,160.091 210.326,160.124 210.829,159.037C212.072,156.345 209.636,138.459 209.15,138.311Z" fill="#F0A8A3"/>
<path d="M205.637,152.781L175.968,147.346C175.968,147.346 168.096,124.311 162.437,113.851C160.799,113.857 150.736,126.565 156.821,138.721C161.047,147.045 166.413,155.506 170.74,157.7C175.067,159.894 207.039,160.678 207.039,160.678C207.039,160.678 206.702,155.298 205.637,152.781Z" fill="#E03268"/>
<path d="M171.861,212.73C179.134,218.933 189.614,219.147 198.171,216.153C206.728,213.158 213.581,215.165 211.647,229.843C211.647,238.381 208.381,250.508 208.109,262.679C208.128,262.684 208.148,262.691 208.171,262.703C214.228,262.407 240.34,267.369 258.295,267.178C258.803,267.094 259.281,267.027 259.704,266.988C264.356,266.56 263.394,259.02 260.987,249.448C259.305,242.759 259.276,232.765 268.688,226.348C278.1,219.931 288.367,222.07 294.784,229.343C301.201,236.616 299.489,248.166 297.352,255.011C295.212,261.856 299.063,267.417 309.33,267.417C319.524,267.417 347.844,262.359 354.945,262.705C354.951,262.703 354.954,262.702 354.959,262.7C354.572,250.795 351.467,238.038 351.467,229.846C349.533,215.169 356.387,213.163 364.943,216.156C373.499,219.15 383.981,218.936 391.253,212.733C398.527,206.53 399.741,193.711 391.895,184.819C384.675,176.638 373.927,178.08 363.682,180.22C353.436,182.36 351.253,178.08 351.467,167.814C351.681,157.547 355.959,132.093 355.105,122.895L355.103,122.895C355.081,122.843 355.021,122.852 354.945,122.89C347.844,122.542 319.524,127.6 309.33,127.6C299.063,127.6 295.212,122.039 297.352,115.194C299.491,108.349 301.201,96.799 294.784,89.526C288.367,82.253 278.1,80.115 268.688,86.532C259.276,92.949 259.306,102.944 260.987,109.633C263.394,119.206 264.356,126.746 259.704,127.172C259.279,127.212 258.801,127.278 258.295,127.362C240.34,127.554 214.226,122.592 208.171,122.888C208.095,122.85 208.035,122.842 208.013,122.893L208.011,122.893C207.156,132.092 211.435,157.546 211.649,167.812C211.863,178.079 208.551,183.373 199.434,180.218C189.544,176.795 180.421,177.558 171.043,184.818C162.681,191.286 164.588,206.527 171.861,212.73Z" fill="#02CCC0"/>
<path d="M107.732,187.764C107.732,187.764 87.56,213.987 84.566,216.171C81.573,218.355 35.009,242.06 35.171,245.408C35.334,248.754 34.699,252.718 37.97,254.538C37.97,254.538 91.146,236.935 102.825,230.533C114.505,224.132 128.169,206.555 138.076,200.463L122.606,185.164L107.732,187.764Z" fill="#F7B5B2"/>
<path d="M150.349,190.256L149.784,164.331C149.784,164.331 138.428,152.418 124.592,160.531C110.759,168.644 90.109,208.991 87.644,212.095C84.697,214.79 52.644,231.895 41.726,238.466C44.214,246.98 48.398,254.537 48.398,254.537C87.386,241.155 103.667,232.042 106.656,230.25C108.109,229.379 114.879,222.623 121.451,215.915C133.724,205.108 150.349,190.256 150.349,190.256Z" fill="#F4A640"/>
<path d="M118.322,166.237C118.322,166.237 104.134,195.902 142.063,201.311L174.499,204.753L148.297,258.725L152.66,266.378C152.66,266.378 202.45,212.914 196.783,198.105C191.116,183.295 141.003,167.377 141.003,167.377L128.719,162.975L118.322,166.237Z" fill="#FFC0BB"/>
<path d="M172.585,274.927L145.546,271.244C144.711,271.131 144.126,270.361 144.239,269.525C144.352,268.69 145.122,268.105 145.957,268.219L172.996,271.903C173.831,272.018 174.417,272.786 174.304,273.621C174.191,274.455 173.421,275.04 172.585,274.927Z" fill="#FFFFFF"/>
<path d="M147.075,259.004L144.932,267.285C144.668,268.305 145.12,269.327 145.882,269.431L172.375,273.04C173.063,273.134 173.803,272.797 174.273,272.038C174.756,271.261 175.001,270.024 174.042,268.185C172.147,264.546 164.602,262.669 161.129,259.351C161.059,259.283 160.97,259.24 160.873,259.227L148.681,257.566C147.994,257.472 147.313,258.081 147.075,259.004Z" fill="#C1275F"/>
<path d="M158.486,263.879C158.312,263.736 158.284,263.404 158.43,263.172C159.108,262.091 161.115,259.504 164.345,260.531C164.532,260.591 164.628,260.862 164.559,261.12L164.558,261.129C164.491,261.379 164.297,261.521 164.116,261.464C161.22,260.555 159.501,262.84 158.948,263.749C158.827,263.943 158.632,263.999 158.486,263.879Z" fill="#FFFFFF"/>
<path d="M161.09,265.336C160.915,265.193 160.888,264.861 161.033,264.629C161.711,263.548 163.719,260.961 166.949,261.988C167.135,262.048 167.231,262.319 167.163,262.577L167.161,262.586C167.094,262.836 166.901,262.978 166.719,262.921C163.823,262.011 162.105,264.297 161.552,265.206C161.432,265.4 161.235,265.456 161.09,265.336Z" fill="#FFFFFF"/>
<path d="M163.512,266.698C163.336,266.554 163.31,266.222 163.456,265.991C164.134,264.909 166.141,262.323 169.371,263.35C169.558,263.41 169.652,263.68 169.585,263.939L169.583,263.947C169.517,264.197 169.323,264.339 169.142,264.283C166.246,263.372 164.527,265.659 163.974,266.568C163.853,266.761 163.658,266.818 163.512,266.698Z" fill="#FFFFFF"/>
<path d="M35.206,270.603L26.646,244.69C26.381,243.889 26.816,243.027 27.617,242.761C28.418,242.496 29.28,242.931 29.546,243.732L38.107,269.645C38.373,270.446 37.938,271.309 37.137,271.574C36.334,271.837 35.472,271.403 35.206,270.603Z" fill="#FFFFFF"/>
<path d="M38.312,240.691L29.931,242.401C28.897,242.612 28.179,243.466 28.42,244.197L36.809,269.586C37.026,270.245 37.653,270.762 38.541,270.852C39.452,270.945 40.67,270.621 41.901,268.954C44.338,265.654 42.714,258.051 44.169,253.474C44.198,253.382 44.198,253.282 44.167,253.188L40.307,241.504C40.092,240.845 39.246,240.5 38.312,240.691Z" fill="#C1275F"/>
<path d="M38.94,253.085C38.994,252.864 39.279,252.694 39.55,252.722C40.82,252.855 44.024,253.524 44.519,256.878C44.548,257.071 44.346,257.276 44.084,257.328L44.075,257.329C43.822,257.379 43.61,257.268 43.581,257.08C43.127,254.077 40.318,253.536 39.259,253.439C39.033,253.418 38.898,253.268 38.94,253.085Z" fill="#FFFFFF"/>
<path d="M38.776,256.064C38.829,255.843 39.115,255.673 39.385,255.702C40.655,255.836 43.86,256.505 44.354,259.858C44.383,260.052 44.18,260.257 43.919,260.309L43.911,260.31C43.658,260.36 43.444,260.249 43.416,260.06C42.963,257.058 40.154,256.517 39.094,256.42C38.868,256.399 38.731,256.248 38.776,256.064Z" fill="#FFFFFF"/>
<path d="M38.615,258.835C38.668,258.614 38.954,258.445 39.225,258.474C40.495,258.607 43.699,259.277 44.194,262.63C44.223,262.823 44.021,263.029 43.759,263.08L43.75,263.082C43.497,263.131 43.285,263.02 43.256,262.832C42.802,259.83 39.993,259.289 38.934,259.191C38.708,259.171 38.573,259.018 38.615,258.835Z" fill="#FFFFFF"/>
<path d="M158.498,99.221L149.432,113.28L158.644,112.938L161.863,113.09L166.47,105.088L158.498,99.221Z" fill="#FFC0BB"/>
<path d="M163.475,110.292L166.47,105.089L158.499,99.223L156.821,101.824C157.751,104.116 159.676,107.562 163.475,110.292Z" fill="#F99893"/>
<path d="M151.441,103.988L155.28,104.228L162.435,113.851L162.553,116.319C162.553,116.319 158.474,117.973 158.144,117.077C157.815,116.182 149.81,106.073 149.81,106.073L151.441,103.988Z" fill="#FFC0BB"/>
<path d="M198.373,199.703C198.073,195.744 193.145,190.368 187.654,187.79C170.738,175.579 141.003,167.375 141.003,167.375L128.719,162.973L118.293,165.374C118.293,165.374 104.132,195.902 142.061,201.312L170.921,205.297C171.323,205.357 172.689,205.55 173.165,205.456C173.165,205.456 160.579,229.505 149.676,252.809C149.676,252.809 158.341,256.842 164.58,257.559C164.58,257.559 177.311,239.963 186.424,226.669C195.535,213.371 198.672,203.662 198.373,199.703Z" fill="#FEB546"/>
<path d="M148,103.636C149.221,103.67 150.424,103.771 151.444,103.987C151.444,103.987 151.946,112.203 162.438,113.85C162.438,113.85 166.656,122.634 162.743,134.141C158.83,145.649 151.458,171.018 151.458,171.018C151.458,171.018 123.263,172.688 118.298,165.374C122.141,141.366 125.102,124.366 130.16,114.314C133.535,107.6 140.489,103.431 148,103.636Z" fill="#FF5B7E"/>
<path d="M163.661,130.877C157.444,122.849 144.972,111.049 144.972,111.049C138.996,120.759 135.085,127.91 135.085,127.91C146.615,139.094 158.374,145.626 158.958,145.953C160.377,137.468 163.661,130.877 163.661,130.877Z" fill="#FFFFFF"/>
<path d="M160.987,84.607C160.987,84.607 164.308,78.213 164.996,78.028C165.684,77.845 173.462,78.824 173.91,78.851C174.36,78.878 176.123,84.003 176.123,84.003C176.123,84.003 177.234,87.454 177.024,87.553C176.813,87.652 171.907,89.91 171.728,89.89C171.548,89.871 164.357,89.441 164.357,89.441C164.357,89.441 158.979,89.799 159.301,89.133C159.624,88.472 160.987,84.607 160.987,84.607Z" fill="#FFC0BB"/>
<path d="M180.895,84.46C180.895,84.46 181.42,89.278 180.595,93.006C180.299,94.347 180.346,95.742 180.681,97.072L181.523,100.406C181.686,101.048 181.169,101.659 180.51,101.606L178.203,101.423C178.203,101.423 172.886,109.805 170.158,110.233C167.429,110.661 162.057,108.945 157.243,97.078C157.243,97.078 152.855,96.837 153.382,91.726C153.909,86.615 159.258,88.649 159.852,90.413C159.854,90.413 170.777,79.257 180.895,84.46Z" fill="#FFC0BB"/>
<path d="M177.678,94.592C177.485,95.335 176.85,95.81 176.261,95.655C175.672,95.499 175.352,94.768 175.547,94.025C175.741,93.282 176.376,92.806 176.965,92.962C177.554,93.118 177.874,93.849 177.678,94.592Z" fill="#333333"/>
<path d="M179.793,91.664C179.34,91.349 178.859,91.096 178.36,90.903C177.861,90.714 177.339,90.598 176.815,90.574C175.731,90.512 174.728,90.901 173.771,91.414C174.574,90.615 175.713,90.144 176.829,90.201C177.407,90.227 177.977,90.381 178.484,90.637C178.956,90.874 179.478,91.259 179.793,91.664Z" fill="#333333"/>
<path d="M173.547,101.586C173.019,103.065 173.648,104.816 175.118,105.778C175.727,104.999 176.292,104.225 176.77,103.548L173.547,101.586Z" fill="#FFFFFF"/>
<path d="M187.305,76.481C185.147,74.429 180.825,72.015 176.137,70.837C177.407,70.338 178.215,69.893 177.985,69.624C176.116,67.44 167.809,70.031 165.141,70.937C164.835,70.247 163.72,68.087 161.935,68.552C159.818,69.104 163.042,71.466 163.042,71.466C163.042,71.466 160.42,71.163 159.513,72.383C158.842,73.285 160.448,73.461 161.331,73.492C161.045,73.516 160.629,73.626 160.157,73.865C160.157,73.865 155.949,75.942 155.893,77.694C155.879,78.117 156.22,78.234 156.742,78.167C155.919,79.807 154.455,82.936 154.975,83.509C155.273,83.838 155.66,83.723 156.009,83.478C155.864,86.239 156.11,88.49 156.11,88.49C159.292,88.695 161.098,92.591 161.098,92.591C161.343,88.319 166.161,81.241 166.161,81.241C166.161,81.241 176.743,88.831 175.603,84.942C175.603,84.942 188.269,92.728 186.894,85.452C186.894,85.452 192.204,86.287 187.233,79.7C187.235,79.7 191.169,80.154 187.305,76.481Z" fill="#07085B"/>
<path d="M211.031,136.443C210.901,136.696 211.101,136.995 211.385,136.965C213.58,136.73 220.492,136.037 220.678,136.581C220.901,137.23 214.74,138 214.603,138.62C214.466,139.241 220.457,138.337 220.582,139.068C220.707,139.799 215.22,140.439 215.165,140.766C215.11,141.093 220.435,141.042 220.767,141.427C221.099,141.812 215.422,142.558 215.244,142.937C215.066,143.315 219.155,144.102 219.127,144.46C219.1,144.818 218.744,145.249 209.03,146.113L201.554,146.524L202.375,144.556L201.554,139.813C201.554,139.813 211.985,131.869 212.486,131.996C212.962,132.121 213.036,132.54 211.031,136.443Z" fill="#FFC0BB"/>
<path d="M145.255,110.667C145.255,110.667 167.037,136.249 171.186,136.972C175.335,137.694 201.921,139.132 201.921,139.132C202.831,141.764 203.413,144.883 203.042,147.609C203.042,147.609 174.572,149.383 166.469,148.708C158.368,148.034 134.664,127.93 134.664,127.93C124.819,116.731 136.232,102.981 145.255,110.667Z" fill="#FF5B7E"/>
<path d="M566.05,121.86C566.856,124.352 565.282,125.17 566.103,127.69L562.059,127.522C557.006,130.023 551.207,133.213 552.037,132.119C553.021,130.524 556.34,128.297 552.72,129.661C545.817,132.205 552.02,128.902 553.439,127.53C549.399,128.556 544.838,130.281 552.61,125.945C554.527,124.352 546.205,127.796 547.249,126.623C554.356,121.863 557.062,123.679 552.468,120.742C547.027,117.038 563.152,122.527 566.05,121.86Z" fill="#F7B2AD"/>
<path d="M639.568,115.506C639.568,115.506 642.266,106.366 622.155,108.221C614.913,108.889 601.733,117.973 598.1,118.532C572.711,119.645 561.823,120.146 561.823,120.146C561.823,120.146 560.796,124.643 562.134,128.809C562.134,128.809 593.22,131.726 600.782,131.404C620.803,130.553 639.168,123.63 639.568,115.506Z" fill="#00ABA1"/>
<path d="M674.951,264.488C675.735,266.854 678.079,270.048 676.261,270.366C664.319,275.167 660.414,278.846 668.783,267.109C668.781,267.111 672.132,267.794 674.951,264.488Z" fill="#07085B"/>
<path d="M571.991,265.755C570.516,267.762 569.266,271.521 567.953,270.222C557.129,263.259 551.869,262.203 566.283,262.237C566.283,262.239 567.664,265.368 571.991,265.755Z" fill="#07085B"/>
<path d="M614.921,157.945C570.38,222.189 583.943,199.876 565.993,262.245C565.993,262.245 567.864,266.287 571.989,265.754C571.989,265.754 594.047,220.021 596.29,215.796C598.532,211.572 630.437,187.347 630.437,187.347L614.921,157.945Z" fill="#E03268"/>
<path d="M611.85,167.102C638.485,240.599 628.131,216.627 668.62,267.348C668.62,267.348 672.999,268.16 674.952,264.487C674.952,264.487 650.41,220.036 648.26,215.764C646.112,211.49 644.809,171.453 644.809,171.453L611.85,167.102Z" fill="#FF5B7E"/>
<path d="M628.177,100.157C628.177,100.157 614.376,98.064 610.403,104.762C606.431,111.459 607.956,171.922 607.956,171.922L617.39,171.819C629.17,103.11 629.151,107.889 628.177,100.157Z" fill="#07085B"/>
<path d="M659.848,134.449L637.026,104.463L642.767,116.575L658.217,136.647L659.848,134.449Z" fill="#4F2305"/>
<path d="M612.486,102.511C612.486,102.511 609.068,102.512 606.726,106.335C604.385,110.155 603.606,158.085 603.943,172.364C603.943,172.364 606.877,174.469 609.764,174.262C609.764,174.262 607.664,113.12 612.486,102.511Z" fill="#00ABA1"/>
<path d="M616.405,90.557L609.602,95.108L613.388,104.82C613.388,104.82 620.671,106.662 622.742,100.435L616.405,90.557Z" fill="#FFC0BB"/>
<path d="M611.4,99.728L609.6,95.11L616.403,90.559L618.598,93.98C617.922,96.161 616.128,99.001 611.4,99.728Z" fill="#F99893"/>
<path d="M630.978,100.249C620.624,97.137 615.609,110.384 615.242,126.915C615.063,145.04 615.383,173.517 615.381,173.539C615.381,173.539 636.184,175.524 646.069,171.885C645.921,168.755 651.143,106.308 630.978,100.249Z" fill="#02CCC0"/>
<path d="M615.609,120.795C615.471,122.181 615.368,123.607 615.305,125.064C618.593,124.788 627.105,123.282 631.468,121.038C631.468,121.039 624.796,120.593 615.609,120.795Z" fill="#FFFFFF"/>
<path d="M608.166,104.525C608.166,104.525 599.054,120.947 622.87,160.423L620.229,162.861C620.229,162.861 600.97,131.33 604.09,110.597C604.307,109.159 605.007,105.236 608.166,104.525Z" fill="#4F2305"/>
<path d="M600.338,86.521C601.514,89.861 597.827,91.066 596.516,88.084C595.341,84.746 599.028,83.541 600.338,86.521Z" fill="#F99893"/>
<path d="M600.325,93.044C589.907,69.597 619.173,65.512 620.123,83.231C626.008,81.144 623.583,91.544 619.136,88.676C617.881,99.144 605.163,101.402 600.325,93.044Z" fill="#FFC0BB"/>
<path d="M606.625,83.138C606.856,86.164 603.614,89.091 607.801,89.069C604.078,87.908 608.076,87.294 606.625,83.138Z" fill="#F99893"/>
<path d="M604.864,82.626C603.336,81.195 600.47,81.645 599.664,83.949C600.967,82.839 602.868,82.131 604.864,82.626Z" fill="#F46C0F"/>
<path d="M675.567,166.077C631.712,195.412 644.892,196.851 622.805,167.104L663.775,138.451C676.427,157.178 681.934,160.607 675.567,166.077Z" fill="#4F2305"/>
<path d="M666.956,144.332C666.947,144.335 632.983,168.095 627.875,171.664C624.943,173.569 624.941,172.641 620.63,166.51C615.892,160.326 617.574,163.622 656.117,135.698C660.162,133.019 660.847,131.056 664.203,136.547C666.709,140.433 669.314,142.307 666.956,144.332Z" fill="#632D07"/>
<path d="M656.934,156.031L638.698,156.031L638.698,159.463L656.934,159.463L656.934,156.031Z" transform="rotate(-69.932 647.816 157.747)" fill="#FEB546"/>
<path d="M625.866,72.576C626.311,72.391 626.717,72.129 627.044,71.789C625.77,72.311 624.327,72.608 622.758,72.054C622.592,70.695 621.611,64.788 617.176,65.264C617.176,65.264 609.58,58.044 603.082,65.293C601.881,64.456 600.934,62.939 601.061,61.193C600.532,62.73 601.08,64.584 602.514,65.763C601.549,65.473 595.483,63.915 595.123,70.779C594.303,71.087 589.291,74.342 597.203,79.541C595.525,79.66 593.531,79.089 591.849,78.082C593.117,79.779 595.453,80.662 597.716,80.169C596.484,80.824 594.943,81.117 593.324,81.168C595.144,81.886 597.449,81.562 599.121,80.148C600.534,80.386 602.41,80.266 604.417,78.926C604.417,78.926 606.67,81.186 611.439,78.598C611.439,78.598 612.678,80.46 617.58,78.385L618.376,84.876C618.376,84.876 620.25,82.329 622.352,83.038C622.352,83.038 624.654,76.321 623.401,73.259C623.997,73.572 624.962,73.812 625.897,73.572C625.099,73.43 624.119,73.216 623.266,72.615C623.915,72.845 624.944,72.954 625.866,72.576Z" fill="#F46C0F"/>
<path d="M609.959,84.404C609.975,84.909 610.398,85.306 610.904,85.29C611.411,85.275 611.81,84.854 611.794,84.349C611.779,83.844 611.356,83.447 610.849,83.462C610.343,83.478 609.944,83.899 609.959,84.404Z" fill="#333333"/>
<path d="M602.094,85.15C602.11,85.655 602.532,86.052 603.039,86.036C603.546,86.021 603.944,85.6 603.929,85.095C603.914,84.59 603.491,84.193 602.984,84.208C602.478,84.224 602.079,84.645 602.094,85.15Z" fill="#333333"/>
<path d="M608.842,82.319C609.311,82.184 609.752,82.081 610.189,82.021C610.624,81.961 611.05,81.958 611.464,82.016C611.875,82.078 612.289,82.173 612.684,82.362C612.895,82.43 613.078,82.558 613.29,82.653C613.496,82.759 613.684,82.892 613.913,82.997C613.802,82.783 613.67,82.572 613.516,82.38C613.345,82.206 613.184,82.007 612.969,81.872C612.57,81.559 612.067,81.376 611.555,81.302C611.041,81.232 610.514,81.297 610.043,81.475C609.578,81.658 609.148,81.934 608.842,82.319Z" fill="#F46C0F"/>
<path d="M604.721,92.001C605.291,93.478 606.951,94.396 608.717,94.108C610.484,93.821 611.764,92.424 611.831,90.841L604.721,92.001Z" fill="#FFFFFF"/>
<path d="M429.687,246.336C427.772,237.276 432.437,228.254 438.945,222.355C445.453,216.459 446.915,209.694 433.526,204.551C426.258,200.6 414.424,197.769 403.937,192.37C403.942,192.352 403.943,192.331 403.945,192.307C407,187.287 414.857,162.764 423.328,147.568C423.634,147.174 423.913,146.799 424.143,146.455C426.659,142.693 432.633,146.999 439.668,153.478C444.583,158.005 453.078,162.654 462.895,157.612C472.711,152.569 475.642,142.84 472.418,134.011C469.197,125.184 458.573,121.297 451.755,119.95C444.939,118.605 441.985,112.754 446.737,104.015C451.452,95.336 468.862,73.569 471.852,67.363C471.857,67.359 471.859,67.356 471.864,67.354C481.819,73.193 491.242,81.736 498.215,85.527C509.813,93.964 514.693,89.058 516.102,80.388C517.51,71.721 522.543,62.897 531.188,59.576C539.834,56.256 551.307,61.151 555.247,71.945C558.873,81.876 552.67,90.357 546.109,98.089C539.548,105.82 542.181,109.658 551.018,114.226C559.857,118.795 583.504,126.929 590.937,131.913L590.937,131.915C590.972,131.957 590.936,132.004 590.869,132.052C587.879,138.256 570.471,160.025 565.754,168.703C561.004,177.443 563.956,183.294 570.772,184.639C577.588,185.984 588.212,189.871 591.435,198.7C594.657,207.527 591.728,217.256 581.912,222.301C572.095,227.345 563.6,222.694 558.684,218.167C551.65,211.69 545.676,207.382 543.16,211.144C542.93,211.486 542.651,211.863 542.345,212.257C533.874,227.453 526.017,251.976 522.962,256.996C522.959,257.078 522.94,257.133 522.885,257.128C522.885,257.128 522.885,257.128 522.885,257.129C514.659,253.602 494.971,238.183 486.329,233.252C477.689,228.319 471.648,228.69 470.118,237.909C468.456,247.912 463.586,255.325 453.068,259.95C443.693,264.07 431.602,255.396 429.687,246.336Z" fill="#FEB546"/>
<path d="M560.235,115.345C560.828,117.897 559.189,118.579 559.795,121.158L555.78,120.65C550.535,122.716 544.486,125.407 545.405,124.385C546.521,122.878 550.015,120.937 546.292,121.993C539.199,123.946 545.659,121.177 547.189,119.931C543.078,120.612 538.386,121.946 546.498,118.281C548.541,116.855 539.959,119.585 541.099,118.505C548.581,114.361 551.124,116.4 546.795,113.084C541.686,108.937 557.291,115.765 560.235,115.345Z" fill="#FFC0BB"/>
<path d="M637.464,116.342C637.464,116.342 637.243,100.952 623.746,103.634C615.164,105.341 598.558,109.976 598.558,109.976L556.663,113.682C556.663,113.682 555.283,118.555 556.677,121.966C556.677,121.966 628.885,131.769 637.464,116.342Z" fill="#02CCC0"/>
</svg>
