<svg width="36" height="34" viewBox="0 0 36 34" fill="none" xmlns="http://www.w3.org/2000/svg" xmlns:xlink="http://www.w3.org/1999/xlink">
<path d="M29.073,9.064C27.858,2.963 21.926,-0.996 15.826,0.219C11.364,1.109 7.875,4.596 6.983,9.057C2.657,9.556 -0.446,13.466 0.053,17.792C0.511,21.773 3.883,24.777 7.891,24.774L13.522,24.774C14.144,24.774 14.649,24.27 14.649,23.648C14.649,23.025 14.144,22.521 13.522,22.521L7.891,22.521C4.78,22.503 2.274,19.967 2.292,16.856C2.31,13.746 4.847,11.239 7.957,11.258C8.531,11.258 9.013,10.826 9.077,10.255C9.648,5.312 14.12,1.768 19.063,2.34C23.219,2.821 26.498,6.099 26.978,10.255C27.073,10.836 27.576,11.262 28.164,11.258C31.275,11.258 33.796,13.779 33.796,16.89C33.796,20 31.275,22.521 28.164,22.521L22.533,22.521C21.911,22.521 21.406,23.025 21.406,23.648C21.406,24.27 21.911,24.774 22.533,24.774L28.165,24.774C32.519,24.747 36.027,21.195 36,16.841C35.975,12.876 33.009,9.546 29.073,9.064L29.073,9.064Z" fill="#FFFFFF"/>
<g opacity="0.7">
<path d="M22.009,27.083L19.154,29.939L19.154,15.764C19.154,15.141 18.649,14.637 18.028,14.637C17.406,14.637 16.901,15.141 16.901,15.764L16.901,29.939L14.046,27.083C13.614,26.636 12.901,26.623 12.453,27.055C12.006,27.488 11.993,28.201 12.425,28.648C12.435,28.658 12.444,28.667 12.453,28.676L17.23,33.454C17.334,33.558 17.458,33.64 17.594,33.697C17.871,33.814 18.184,33.814 18.461,33.697C18.597,33.64 18.721,33.558 18.825,33.454L23.602,28.676C24.049,28.244 24.062,27.531 23.629,27.083C23.197,26.636 22.484,26.623 22.037,27.055C22.027,27.065 22.018,27.074 22.009,27.083Z" fill="#FFFFFF"/>
</g>
</svg>
