<svg width="84" height="86" viewBox="0 0 84 86" fill="none" xmlns="http://www.w3.org/2000/svg" xmlns:xlink="http://www.w3.org/1999/xlink">
<path d="M59.8,14.251L59.435,14.085C59.443,14.077 59.95,12.931 59.402,11.585C58.97,10.514 58.214,9.767 57.891,9.468L57.027,10.655L56.703,10.415L57.816,8.887L57.982,9.011C58.032,9.053 59.178,9.95 59.784,11.428C60.382,12.939 59.825,14.193 59.8,14.251Z" fill="#FFA93B"/>
<path d="M52.22,15.022C52.228,15.022 52.228,15.03 52.236,15.03C55.342,17.289 58.705,17.937 59.768,16.483C60.822,15.03 59.162,12.024 56.064,9.774C56.056,9.774 56.056,9.766 56.048,9.766L52.22,15.022Z" fill="#FFA465"/>
<path d="M52.22,15.022C52.228,15.022 52.228,15.03 52.236,15.03C55.342,17.289 58.705,17.937 59.768,16.483C60.822,15.03 59.162,12.024 56.064,9.774C56.056,9.774 56.056,9.766 56.048,9.766L52.22,15.022Z" fill="#FF8626"/>
<path d="M59.817,16.508L63.064,18.866L61.81,20.593L61.337,20.245L61.536,19.97L61.328,19.821C61.328,19.821 61.536,19.472 60.938,18.376C60.523,17.604 59.51,16.989 59.51,16.989L59.817,16.508Z" fill="#FF8626"/>
<path d="M59.801,16.534L63.048,18.893L64.301,17.165L63.828,16.817L63.629,17.091L63.421,16.941C63.421,16.941 63.156,17.248 61.927,17.016C61.063,16.858 60.166,16.086 60.166,16.086L59.801,16.534Z" fill="#FFA93B"/>
<path d="M57.6,17.273C57.559,17.315 56.537,18.236 54.91,18.112C53.315,17.996 52.103,17.182 52.053,17.14L51.879,17.024L52.992,15.496L53.315,15.737L52.452,16.924C52.834,17.149 53.789,17.63 54.935,17.713C56.388,17.821 57.318,16.982 57.326,16.974L57.6,17.273Z" fill="#FF8626"/>
<path d="M52.759,14.375C52.751,14.375 52.751,14.367 52.742,14.367L52.643,14.5C52.651,14.5 52.651,14.508 52.659,14.508C54.37,15.754 56.114,16.576 57.484,16.867C56.18,16.501 54.469,15.621 52.759,14.375Z" fill="#FFA93B"/>
<path d="M55.757,10.23L55.3,10.862C55.308,10.862 55.308,10.87 55.316,10.87C58.297,13.037 60.207,15.537 59.726,16.591C59.767,16.55 59.8,16.508 59.834,16.467C60.689,15.287 58.87,12.497 55.773,10.247C55.765,10.239 55.757,10.23 55.757,10.23Z" fill="#FFA93B"/>
<path d="M60.664,16.035L59.61,17.48C59.543,17.571 59.41,17.596 59.319,17.529L59.053,17.338C58.962,17.272 58.937,17.139 59.003,17.048L60.058,15.603C60.124,15.512 60.257,15.487 60.349,15.553L60.614,15.744C60.714,15.811 60.731,15.943 60.664,16.035Z" fill="#FFA93B"/>
<path d="M64.274,18.341L60.687,18.341L60.687,18.632L64.274,18.632L64.274,18.341Z" transform="rotate(-107.94 62.48 18.487)" fill="#FF8626"/>
<path d="M55.898,9.601L52.037,14.907C51.987,14.974 52.004,15.073 52.07,15.123C52.136,15.173 52.236,15.156 52.286,15.09L56.147,9.784C56.197,9.717 56.18,9.618 56.114,9.568C56.039,9.518 55.948,9.535 55.898,9.601Z" fill="#FFA93B"/>
<path d="M10.891,56.683C10.891,56.683 13.606,55.355 16.155,55.213C18.704,55.072 12.36,38.996 12.36,38.996L10.891,56.683Z" fill="#5B0000"/>
<path d="M25.763,66.647C25.232,66.331 23.513,66.074 21.52,69.578C19.527,73.074 17.933,78.911 17.933,78.911L19.419,79.443C19.419,79.443 23.853,73.398 24.592,72.177C26.261,69.379 27.432,67.643 25.763,66.647Z" fill="#FFA47C"/>
<path d="M17.891,78.918C17.891,78.918 17.136,80.33 17.169,81.052C17.177,81.243 21.296,83.062 22.002,83.012C22.699,82.97 23.297,82.887 23.297,82.887C23.297,82.887 23.372,82.206 23.106,82.09C22.841,81.974 20.457,80.421 20.3,79.956C20.15,79.491 20.117,78.81 19.893,78.984C19.66,79.159 18.614,79.292 17.891,78.918Z" fill="#CEE0FF"/>
<path d="M21.994,83.012C22.384,82.987 22.741,82.954 22.973,82.921C22.517,82.888 22.11,82.83 21.935,82.746C21.47,82.506 19.942,81.434 18.938,80.712C18.058,80.081 18.066,79.201 18.091,78.993C18.024,78.968 17.95,78.943 17.891,78.91C17.891,78.91 17.136,80.322 17.169,81.044C17.169,81.244 21.296,83.062 21.994,83.012Z" fill="#B7A994"/>
<path d="M23.288,82.889C23.288,82.889 22.059,83.063 21.81,83.005C21.636,82.964 19.352,81.61 18.049,81.054C17.667,80.888 17.359,80.705 17.202,80.638C17.127,80.605 17.094,81.054 17.094,81.054L17.119,81.386C17.119,81.386 21.569,83.221 21.736,83.254C21.902,83.296 23.405,83.155 23.405,83.155L23.288,82.889Z" fill="#22272C"/>
<path d="M23.139,44.402C23.62,41.653 25.19,36.837 23.786,36.239C21.951,35.458 17.01,35.525 17.01,35.525L17.019,35.608C17.019,35.608 12.178,36.712 10.633,37.974C9.446,38.946 12.377,43.339 13.598,45.846C13.888,46.444 14.802,49.209 15.084,51.734C15.15,52.357 15.275,55.23 15.532,56.392C15.607,56.741 19.56,58.111 20.988,58.161C22.109,58.202 25.754,55.213 25.729,54.856C25.646,53.669 24.517,50.937 24.409,50.314C23.977,47.823 23.022,45.058 23.139,44.402Z" fill="#FFBD95"/>
<path d="M12.85,40.722C13.622,40.074 13.49,38.671 12.269,37.259C11.048,35.847 10.06,35.017 9.728,34.66C9.388,34.286 7.594,31.994 7.013,31.463C6.431,30.931 5.593,30.732 4.995,31.255C4.488,31.695 4.654,33.124 5.327,34.303C6.008,35.474 10.791,42.457 12.85,40.722Z" fill="#FFA47C"/>
<path d="M18.929,34.454C18.746,33.972 18.115,31.539 18.115,31.539L16.48,31.772L16.488,31.855L14.852,32.087C14.852,32.087 14.927,34.603 14.885,35.118C14.844,35.633 13.606,36.579 13.606,36.579L20.856,35.674C20.847,35.666 19.112,34.935 18.929,34.454Z" fill="#FFBD95"/>
<path d="M18.713,33.772C18.506,33.033 18.223,31.97 18.14,31.638L18.024,31.547L16.48,31.763L16.488,31.846L14.852,32.078C14.852,32.078 14.927,34.594 14.885,35.109C14.844,35.624 13.606,36.571 13.606,36.571L13.773,36.546C15.267,35.906 16.762,35.275 16.961,35.184C17.368,35.001 18.713,33.772 18.713,33.772Z" fill="#FFA47C"/>
<path d="M18.24,52.489C16.222,52.448 15.408,53.834 15.383,58.161C15.358,62.487 16.156,68.167 16.421,68.848C16.687,69.529 19.145,69.271 19.436,68.881C19.726,68.491 20.764,58.883 20.789,57.48C20.806,56.068 20.44,52.531 18.24,52.489Z" fill="#FFBD95"/>
<path d="M17.749,67.809C17.135,67.809 15.69,68.639 15.765,72.666C15.839,76.694 17.475,82.606 17.475,82.606L18.937,82.606C18.937,82.606 19.725,74.759 19.734,73.331C19.75,70.076 19.7,67.817 17.749,67.809Z" fill="#FFBD95"/>
<path d="M22.997,52.912C24.999,52.663 25.954,53.967 26.419,58.26C26.884,62.561 26.734,67.709 26.535,68.407C26.335,69.113 23.944,69.096 23.62,68.739C23.296,68.382 21.146,59.522 20.971,58.127C20.805,56.748 20.813,53.186 22.997,52.912Z" fill="#FFA47C"/>
<path d="M22.184,39.468C21.346,38.92 21.312,37.509 22.367,35.964C23.421,34.42 24.31,33.481 24.592,33.091C24.883,32.684 26.403,30.201 26.917,29.603C27.432,29.006 28.238,28.715 28.902,29.163C29.45,29.537 29.45,30.982 28.919,32.227C28.379,33.465 24.435,40.946 22.184,39.468Z" fill="#FFA47C"/>
<path d="M6.008,33.406C5.261,33.738 4.472,33.622 3.442,31.579C2.404,29.544 0.619,24.504 0.619,24.504L1.823,23.973C1.823,23.973 4.821,27.535 5.427,28.614C6.05,29.694 7.968,32.542 6.008,33.406Z" fill="#FFA47C"/>
<path d="M19.319,29.418C19.718,31.51 18.53,33.893 17.193,34.151C15.914,34.392 13.872,32.623 13.473,30.53C13.075,28.438 14.063,26.495 15.674,26.188C17.293,25.872 18.92,27.325 19.319,29.418Z" fill="#FFBD95"/>
<path d="M13.556,30.948C13.382,30.749 12.759,29.861 12.776,29.404C12.784,28.947 12.718,28.001 13.232,27.585C13.34,27.494 13.722,27.486 13.673,27.079C13.606,26.456 14.81,26.199 14.943,26.157C15.167,26.091 15.765,25.925 16.255,25.908C16.745,25.891 17.725,25.958 18.929,27.37C19.153,27.635 19.552,28.374 19.535,28.491C19.518,28.615 19.493,29.603 19.485,29.678C19.477,29.761 19.386,30.002 19.386,30.002C19.386,30.002 18.215,28.15 18.165,27.967C18.107,27.785 14.113,28.482 13.888,28.665C13.673,28.848 13.556,30.948 13.556,30.948Z" fill="#8D3B26"/>
<path d="M0.205,21.381C0.354,21.34 0.504,21.431 0.545,21.572L0.861,22.718C0.902,22.868 0.811,23.017 0.67,23.059C0.52,23.1 0.371,23.009 0.329,22.868L0.014,21.722C-0.036,21.58 0.055,21.423 0.205,21.381Z" fill="#FFA47C"/>
<path d="M0.686,21.201C0.836,21.16 0.985,21.251 1.027,21.392L1.342,22.538C1.384,22.688 1.293,22.837 1.151,22.879C1.002,22.92 0.852,22.829 0.811,22.688L0.495,21.542C0.454,21.392 0.545,21.243 0.686,21.201Z" fill="#FFA47C"/>
<path d="M1.176,21.049C1.326,21.008 1.475,21.099 1.517,21.24L1.832,22.386C1.874,22.536 1.783,22.685 1.641,22.726C1.492,22.768 1.342,22.677 1.301,22.536L0.985,21.39C0.936,21.24 1.027,21.091 1.176,21.049Z" fill="#FFA47C"/>
<path d="M1.658,20.951C1.807,20.91 1.957,21.001 1.998,21.142L2.314,22.288C2.355,22.438 2.264,22.587 2.123,22.629C1.973,22.67 1.824,22.579 1.782,22.438L1.467,21.292C1.417,21.142 1.508,20.985 1.658,20.951Z" fill="#FFA47C"/>
<path d="M2.421,25.079C2.421,25.079 2.712,23.136 2.654,22.762C2.596,22.38 1.931,21.043 1.931,21.043C1.931,21.043 1.574,21.616 1.234,21.657C0.893,21.699 0.005,21.732 0.005,21.732C0.005,21.732 0.013,23.036 0.212,23.609C0.412,24.182 0.736,24.697 0.736,24.697L2.421,25.079Z" fill="#FFA47C"/>
<path d="M27.83,31.391C28.577,31.723 29.366,31.606 30.396,29.564C31.434,27.529 33.219,22.489 33.219,22.489L32.015,21.949C32.015,21.949 29.017,25.512 28.403,26.591C27.797,27.687 25.879,30.527 27.83,31.391Z" fill="#FFA47C"/>
<path d="M34.199,19.963C34.066,19.888 33.892,19.946 33.826,20.079L33.269,21.125C33.195,21.258 33.253,21.432 33.386,21.499C33.518,21.565 33.684,21.515 33.759,21.383L34.316,20.336C34.39,20.203 34.332,20.029 34.199,19.963Z" fill="#FFA47C"/>
<path d="M33.76,19.674C33.627,19.599 33.453,19.657 33.386,19.79L32.83,20.836C32.755,20.969 32.813,21.143 32.946,21.21C33.079,21.276 33.245,21.226 33.32,21.094L33.876,20.047C33.951,19.914 33.901,19.748 33.76,19.674Z" fill="#FFA47C"/>
<path d="M33.319,19.424C33.187,19.349 33.012,19.407 32.946,19.54L32.389,20.586C32.315,20.719 32.373,20.893 32.506,20.96C32.639,21.026 32.805,20.976 32.879,20.844L33.436,19.797C33.51,19.664 33.461,19.498 33.319,19.424Z" fill="#FFA47C"/>
<path d="M32.871,19.224C32.738,19.15 32.564,19.208 32.498,19.341L31.941,20.387C31.866,20.52 31.925,20.694 32.057,20.761C32.19,20.827 32.356,20.777 32.431,20.644L32.987,19.598C33.062,19.457 33.012,19.291 32.871,19.224Z" fill="#FFA47C"/>
<path d="M31.235,23.087C31.235,23.087 31.368,21.127 31.509,20.77C31.642,20.413 32.581,19.242 32.581,19.242C32.581,19.242 32.813,19.873 33.137,19.99C33.461,20.106 34.324,20.33 34.324,20.33C34.324,20.33 34.034,21.6 33.718,22.115C33.403,22.63 32.971,23.07 32.971,23.07L31.235,23.087Z" fill="#FFA47C"/>
<path d="M19.004,82.705L17.11,82.613C17.11,82.613 17.069,83.053 16.604,83.784C16.28,84.291 15.782,84.814 15.798,85.221C15.807,85.478 15.939,85.752 16.18,85.785C16.811,85.868 18.007,85.951 18.339,85.719C18.646,85.511 18.854,85.08 19.045,84.797C19.244,84.498 19.161,84.008 19.153,83.759C19.128,83.469 19.004,82.705 19.004,82.705Z" fill="#22272C"/>
<path d="M19.004,82.49L17.11,82.398C17.11,82.398 17.069,82.839 16.604,83.569C16.28,84.076 15.782,84.599 15.798,85.006C15.807,85.263 15.915,85.479 16.164,85.512C16.795,85.595 17.99,85.67 18.323,85.446C18.63,85.238 18.804,84.881 18.995,84.607C19.194,84.308 19.17,83.802 19.153,83.553C19.128,83.254 19.004,82.49 19.004,82.49Z" fill="#CEE0FF"/>
<path d="M17.55,82.115C17.335,82.247 17.227,83.485 17.227,83.559C17.227,83.634 17.617,83.667 17.758,83.643C18.348,83.543 18.572,82.546 18.439,82.247C18.339,82.04 17.741,81.998 17.55,82.115Z" fill="#CEE0FF"/>
<path d="M19.144,83.543C19.136,83.327 19.061,82.837 19.02,82.613C19.036,82.746 19.053,82.871 19.053,82.954C19.07,83.203 19.094,83.709 18.895,84.008C18.704,84.291 18.53,84.639 18.223,84.847C17.89,85.071 16.695,84.996 16.064,84.913C15.956,84.897 15.881,84.847 15.823,84.781C15.798,84.855 15.781,84.938 15.781,85.005C15.79,85.262 15.898,85.478 16.147,85.511C16.778,85.594 17.973,85.669 18.306,85.445C18.613,85.237 18.787,84.88 18.978,84.606C19.186,84.299 19.153,83.792 19.144,83.543Z" fill="#B7A994"/>
<path d="M15.516,26.507C16.33,26.349 18.48,26.532 18.514,28.143C18.522,28.682 17.517,29.288 17.517,29.288C17.517,29.288 17.99,28.342 17.152,28.209C16.313,28.076 15.798,29.048 15.059,29.006C14.32,28.973 13.905,29.106 13.772,28.632C13.648,28.151 14.569,26.681 15.516,26.507Z" fill="#8D3B26"/>
<path d="M17.824,28.084C17.824,28.084 18.314,28.549 18.314,28.964C18.314,29.379 18.107,29.537 18.107,29.537C18.107,29.537 18.405,29.503 18.621,29.221C18.92,28.823 18.779,28.059 18.779,28.059L17.824,28.084Z" fill="#8D3B26"/>
<path d="M15.151,52.48C15.151,52.48 15.126,55.668 15.151,57.669C15.176,59.671 15.765,66.687 15.765,66.687L19.975,66.687L20.972,58.126L20.349,52.23L15.151,52.48Z" fill="#002D56"/>
<path d="M24.609,50.977L20.357,52.239L20.98,58.134L22.483,66.314L27.025,66.156C27.025,66.156 26.901,60.285 26.544,57.977C25.946,54.124 24.609,50.977 24.609,50.977Z" fill="#00233F"/>
<path d="M15.151,52.48C15.151,52.48 14.37,48.735 13.606,46.833C12.842,44.923 11.729,41.519 10.833,40.996C9.936,40.473 12.078,37.027 12.078,37.027L14.03,36.213C14.03,36.213 15.923,37.384 17.434,37.193C18.954,37.002 20.008,35.258 20.008,35.258C20.008,35.258 22.367,36.13 22.367,35.947C22.367,35.773 24.368,38.87 24.177,39.443C23.986,40.016 23.537,43.18 23.687,44.707C23.828,46.235 24.609,50.96 24.609,50.96C24.609,50.96 23.28,51.857 20.357,52.222C17.434,52.604 15.151,52.48 15.151,52.48Z" fill="#CEE0FF"/>
<path d="M18.314,46.832C18.647,45.487 23.529,44.009 23.006,43.394C22.483,42.78 18.696,44.241 16.388,44.1C14.08,43.959 12.768,42.207 12.768,42.207L13.058,45.445C13.249,45.944 13.424,46.425 13.59,46.832C14.354,48.742 15.134,52.479 15.134,52.479C15.134,52.479 17.418,52.603 20.341,52.238C20.357,52.238 17.991,48.177 18.314,46.832Z" fill="#B8D1FF"/>
<path d="M7.934,32.344C7.934,32.344 11.696,36.413 11.887,36.379C12.078,36.354 12.402,36.155 12.452,36.504C12.501,36.853 14.278,35.981 14.278,35.981C14.278,35.981 15.3,40.099 15.125,43.272C14.959,46.444 12.983,52.514 12.759,54.689C12.551,56.873 12.551,57.297 12.551,57.297L10.891,56.881C10.891,56.881 10.824,41.935 10.359,41.279C9.894,40.614 5.692,35.424 5.692,35.424C5.692,35.424 6.872,34.893 7.536,34.179C8.192,33.456 7.934,32.344 7.934,32.344Z" fill="#7E0000"/>
<path d="M20.009,35.266C20.009,35.266 21.694,37.649 22.027,43.395C22.359,49.142 23.073,56.341 23.073,56.341L26.245,55.486C26.245,55.486 24.534,40.589 24.609,39.866C24.684,39.136 27.05,35.864 27.715,35.133C28.379,34.402 28.578,33.539 28.578,33.539C28.578,33.539 27.341,31.87 26.345,31.521C25.348,31.172 25.116,31.313 25.116,31.313C25.116,31.313 22.84,34.66 22.749,34.527C22.658,34.394 22.276,34.328 22.276,34.527C22.276,34.726 22.035,35.324 21.944,35.025C21.852,34.726 21.379,35.009 21.229,35.125C21.08,35.258 20.009,35.266 20.009,35.266Z" fill="#7E0000"/>
<path d="M20.009,67.552L15.774,67.552C15.641,67.552 15.533,67.444 15.533,67.312L15.533,66.182C15.533,66.049 15.641,65.941 15.774,65.941L20.009,65.941C20.142,65.941 20.25,66.049 20.25,66.182L20.25,67.312C20.25,67.444 20.142,67.552 20.009,67.552Z" fill="#375987"/>
<path d="M26.967,67.552L22.416,67.552C22.275,67.552 22.167,67.436 22.167,67.303L22.167,66.191C22.167,66.049 22.283,65.941 22.416,65.941L26.967,65.941C27.108,65.941 27.216,66.058 27.216,66.191L27.216,67.303C27.216,67.436 27.108,67.552 26.967,67.552Z" fill="#375987"/>
<path d="M53.315,59.589C53.315,59.589 53.971,60.303 54.569,60.776C55.175,61.258 60.324,60.037 61.237,60.643C62.151,61.249 63.338,59.721 64.343,59.863C65.348,60.004 66.319,60.643 67.075,60.452C67.839,60.261 68.354,59.796 68.196,59.431C68.038,59.065 60.614,54.365 58.455,54.573C56.305,54.781 53.315,59.589 53.315,59.589Z" fill="#BF0000"/>
<path d="M66.428,27.379C66.228,27.362 65.722,28.6 66.918,30.186C68.113,31.772 69.899,32.81 70.048,33.914C70.198,35.019 70.139,35.866 71.003,36.438C71.576,36.82 72.149,36.87 72.149,36.87C72.149,36.87 71.136,36.239 71.011,35.816C70.862,35.301 70.978,34.703 71.044,33.922C71.069,33.574 70.82,33.051 70.82,33.051C70.82,33.051 71.518,33.433 71.734,33.947C71.95,34.462 72.24,34.944 72.572,35.118C72.938,35.317 73.569,35.102 73.569,35.102C73.569,35.102 72.938,34.985 72.788,34.57C72.639,34.155 72.481,33.117 71.767,32.602C71.061,32.087 71.858,31.838 72.523,32.245C72.805,32.411 72.913,33.134 72.913,33.134C72.913,33.134 73.37,32.245 72.473,31.722C69.998,30.269 69.367,27.744 69.367,27.744L66.428,27.379Z" fill="#8D3B26"/>
<path d="M67.374,28.788C67.183,28.722 66.369,29.785 67.108,31.62C67.847,33.463 69.292,34.933 69.143,36.037C68.993,37.142 68.719,37.947 69.4,38.719C69.849,39.234 70.397,39.442 70.397,39.442C70.397,39.442 69.583,38.562 69.575,38.13C69.566,37.598 69.832,37.05 70.106,36.311C70.222,35.979 70.114,35.414 70.114,35.414C70.114,35.414 70.687,35.963 70.762,36.519C70.837,37.067 70.994,37.615 71.26,37.872C71.559,38.163 72.223,38.113 72.223,38.113C72.223,38.113 71.65,37.831 71.609,37.399C71.567,36.959 71.692,35.913 71.144,35.232C70.596,34.543 71.435,34.518 71.966,35.082C72.19,35.323 72.107,36.046 72.107,36.046C72.107,36.046 72.78,35.307 72.049,34.568C70.048,32.516 70.098,29.917 70.098,29.917L67.374,28.788Z" fill="#8D3B26"/>
<path d="M66.395,27.941C66.395,27.941 66.777,26.222 68.113,26.596C69.45,26.97 70.098,28.697 69.824,29.436C69.55,30.175 69.675,32.865 69.857,32.832C70.032,32.799 69.99,33.289 69.591,33.372C69.193,33.463 67.972,33.438 67.864,32.126C67.756,30.814 67.084,30.017 67.084,30.017L66.395,27.941Z" fill="#8D3B26"/>
<path d="M60.789,36.934C61.429,36.361 61.063,35.19 60.025,34.227C58.987,33.272 52.552,29.477 52.095,29.544C51.647,29.61 50.725,30.341 50.999,30.931C51.282,31.528 56.197,35.531 57.194,36.17C58.19,36.818 59.951,37.682 60.789,36.934Z" fill="#FFA47C"/>
<path d="M52.818,31.68C51.971,31.938 50.111,30.634 49.097,29.43C48.093,28.218 45.469,24.29 45.469,24.29L46.498,23.352C46.498,23.352 52.519,29.04 52.818,29.363C53.125,29.696 54.279,31.24 52.818,31.68Z" fill="#FFA47C"/>
<path d="M60.64,79.258C60.739,79.873 61.03,80.238 61.221,80.529C61.445,80.877 61.462,81.5 61.304,81.691C60.864,82.206 60.283,82.098 59.726,82.53C59.178,82.962 58.423,84.382 57.933,84.556C57.443,84.73 56.305,84.797 56.206,84.564C56.106,84.332 57.21,83.335 57.21,83.335C58.771,80.936 58.854,79.873 58.854,79.873C58.854,79.873 60.623,79.167 60.64,79.258Z" fill="#FFA47C"/>
<path d="M57.219,83.339C57.219,83.339 56.911,83.663 56.969,83.746C57.061,83.862 57.567,83.763 57.7,83.68C58.846,82.941 60.324,81.438 60.615,80.989C60.922,80.524 60.914,80.051 60.914,80.051C61.022,80.043 61.512,80.69 61.462,81.222C61.445,81.338 61.346,81.637 61.304,81.695C61.055,81.986 60.166,82.534 59.926,82.716C59.378,83.148 58.688,84.568 58.207,84.742C57.717,84.917 56.031,85.066 55.931,84.834C55.848,84.651 56.695,83.788 57.219,83.339Z" fill="#4F2718"/>
<path d="M61.462,81.129C61.462,81.129 61.205,82.125 61.138,82.458C61.031,82.956 61.031,84.01 61.031,84.01L60.815,84.019C60.815,84.019 60.898,82.034 59.926,82.723C59.619,82.939 61.462,81.129 61.462,81.129Z" fill="#4F2718"/>
<path d="M60.823,49.547C61.636,49.829 61.794,54.621 61.171,57.793C60.574,60.807 60.158,64.942 59.901,65.158C59.644,65.374 57.393,65.673 57.036,65.449C56.679,65.225 55.409,52.819 55.375,52.188C55.342,51.565 57.294,48.335 60.823,49.547Z" fill="#FFA47C"/>
<path d="M60.034,65.045C61.437,66.323 61.869,69.769 61.853,71.106C61.828,72.443 60.532,79.493 60.632,79.975C60.723,80.448 58.863,80.157 58.872,79.892C58.905,77.201 57.883,70.135 57.742,69.437C57.601,68.74 57.111,65.551 57.095,65.236C57.003,63.6 59.229,64.314 60.034,65.045Z" fill="#FFA47C"/>
<path d="M65.241,29.203C65.241,29.203 64.194,32.94 64.385,33.189C64.983,33.953 67.026,34.983 67.292,36.153C67.616,37.573 62.949,39.757 62.575,43.876C62.392,45.869 64.253,48.601 64.643,50.502C65.033,52.404 59.129,55.02 58.913,55.028C58.689,55.036 56.007,53.409 55.608,52.803C55.21,52.196 56.115,46.45 56.048,45.196C55.982,43.942 55.949,40.662 55.808,40.405C55.666,40.147 55.044,39.259 55.218,38.462C55.467,37.308 57.543,36.054 57.701,35.672C57.859,35.29 59.279,34.044 59.536,33.828C59.536,33.828 60.873,33.455 60.956,33.206C61.047,32.965 61.67,29.701 61.67,29.701L65.241,29.203Z" fill="#FFBD95"/>
<path d="M61.387,31.116L61.32,31.464L63.288,33.05C63.62,33.316 64.044,33.432 64.467,33.366L64.55,33.349C64.55,33.349 64.592,32.486 64.692,31.689C64.8,30.817 65.099,30.02 65.099,30.02L61.387,31.116Z" fill="#FFA47C"/>
<path d="M74.324,35.252C75.154,35.409 76.782,34.006 77.612,32.76C78.443,31.523 80.543,27.546 80.543,27.546L79.406,26.773C79.406,26.773 74.349,32.727 74.091,33.068C73.842,33.4 72.904,34.978 74.324,35.252Z" fill="#FFBD95"/>
<path d="M63.455,36.511C63.114,35.722 63.936,34.808 65.29,34.377C66.635,33.945 74.075,33.222 74.449,33.48C74.831,33.729 75.354,34.784 74.856,35.199C74.349,35.622 68.196,37.175 67.034,37.341C65.863,37.499 63.895,37.54 63.455,36.511Z" fill="#FFBD95"/>
<path d="M80.162,28.273C80.162,28.273 80.494,27.484 81.382,27.268C82.271,27.052 82.661,26.28 82.736,26.155C82.811,26.03 83.326,25.167 83.317,25.067C83.292,24.785 83.018,24.984 83.01,24.901C83.01,24.818 83.002,24.519 82.728,24.586C82.454,24.66 82.487,24.569 82.42,24.494C82.354,24.42 82.122,24.453 82.03,24.544C81.947,24.627 81.839,24.503 81.698,24.561C81.632,24.586 81.457,24.702 81.358,24.909C81.183,25.25 80.917,25.499 80.386,25.698C79.855,25.898 79.016,26.255 79.116,27.168C79.207,28.082 80.162,28.273 80.162,28.273Z" fill="#FFBD95"/>
<path d="M45.576,24.39C45.576,24.39 45.253,23.867 44.339,23.9C43.426,23.933 42.836,23.302 42.737,23.194C42.637,23.086 41.898,22.405 41.881,22.306C41.831,22.032 42.147,22.148 42.13,22.065C42.106,21.982 42.039,21.691 42.313,21.691C42.595,21.683 42.546,21.608 42.587,21.517C42.629,21.426 42.861,21.392 42.977,21.459C43.077,21.517 43.152,21.368 43.301,21.384C43.376,21.392 43.575,21.459 43.725,21.625C43.982,21.907 44.306,22.073 44.871,22.123C45.435,22.173 46.34,22.289 46.498,23.194C46.656,24.099 45.576,24.39 45.576,24.39Z" fill="#FFA47C"/>
<path d="M66.303,30.765C64.659,32.334 61.985,32.193 61.188,31.354C60.407,30.541 60.698,28.149 62.201,26.414C63.687,24.703 65.697,24.67 66.884,25.915C68.071,27.153 67.947,29.195 66.303,30.765Z" fill="#FFBD95"/>
<path d="M64.6,26.125C64.418,26.773 64.683,27.454 65.696,28.367C66.427,29.023 66.112,30.485 65.771,30.9C65.647,31.058 64.858,31.706 64.858,31.706C64.858,31.706 67.748,31.365 67.814,28.176C67.88,24.98 65.165,24.755 65.032,24.905C64.899,25.054 64.683,25.818 64.6,26.125Z" fill="#8D3B26"/>
<path d="M65.357,26.051C65.357,26.051 64.792,26.798 64.036,26.466C63.289,26.134 62.268,26.192 62.268,26.192C62.268,26.192 63.488,24.324 65.033,24.905C66.569,25.486 65.357,26.051 65.357,26.051Z" fill="#8D3B26"/>
<path d="M64.609,50.353C65.988,53.251 63.48,56.266 61.612,58.898C59.096,62.444 57.202,65.782 56.87,65.865C56.538,65.948 54.313,64.827 54.089,64.47C53.864,64.113 58.166,53.957 58.406,53.384C58.656,52.803 62.716,46.367 64.609,50.353Z" fill="#FFBD95"/>
<path d="M67.872,70.931C68.42,71.23 68.894,71.213 69.234,71.238C69.649,71.271 70.156,71.636 70.206,71.877C70.347,72.542 69.907,72.932 69.915,73.638C69.923,74.335 70.604,75.797 70.446,76.295C70.289,76.785 69.658,77.74 69.408,77.673C69.168,77.607 69.035,76.129 69.035,76.129C68.072,73.438 67.274,72.724 67.274,72.724C67.274,72.724 67.789,70.881 67.872,70.931Z" fill="#FFBD95"/>
<path d="M69.044,76.121C69.044,76.121 69.11,76.561 69.218,76.561C69.367,76.561 69.6,76.096 69.608,75.938C69.708,74.576 69.409,72.492 69.235,71.985C69.052,71.462 68.67,71.18 68.67,71.18C68.728,71.097 69.542,71.089 69.932,71.454C70.015,71.537 70.198,71.794 70.214,71.869C70.297,72.243 70.19,73.281 70.198,73.588C70.206,74.285 70.929,75.689 70.771,76.187C70.613,76.677 69.708,78.114 69.467,78.055C69.268,77.997 69.085,76.802 69.044,76.121Z" fill="#4F2718"/>
<path d="M69.856,71.398C69.856,71.398 70.496,72.204 70.712,72.461C71.044,72.852 71.883,73.483 71.883,73.483L71.758,73.665C71.758,73.665 70.222,72.395 70.189,73.591C70.18,73.964 69.856,71.398 69.856,71.398Z" fill="#4F2718"/>
<path d="M56.181,62.799C58.05,62.45 61.055,64.203 62.102,65.025C63.148,65.847 67.981,71.153 68.421,71.369C68.861,71.585 67.499,72.888 67.283,72.722C65.166,71.061 58.913,67.599 58.274,67.292C57.634,66.984 54.794,65.448 54.537,65.265C53.2,64.344 55.118,62.999 56.181,62.799Z" fill="#FFBD95"/>
<path d="M56.23,31.73C56.23,31.73 55.931,33.441 55.657,33.723C55.383,33.997 54.868,34.653 54.868,34.653L56.662,36.572C56.662,36.572 58.937,34.927 59.253,34.554C59.576,34.172 59.817,33.757 59.817,33.757L56.23,31.73Z" fill="#5B0000"/>
<path d="M59.253,37.103C59.253,37.103 60.748,37.451 61.744,36.862C63.015,36.114 63.886,34.836 64.293,34.62C65.016,34.238 65.572,34.113 65.572,34.113L65.78,34.271C65.78,34.271 65.331,34.362 64.426,34.902C63.521,35.442 63.206,37.908 63.936,38.805C64.227,39.162 61.703,39.112 60.366,38.556C59.228,38.082 59.253,37.103 59.253,37.103Z" fill="#D60000"/>
<path d="M66.178,53.645C65.788,51.785 63.148,45.092 63.206,43.232C63.264,41.372 65.091,39.105 65.091,39.105C65.091,39.105 62.35,38.408 60.233,37.835C60.225,37.835 58.647,37.17 58.896,35.833C59.004,35.269 60.233,33.566 60.233,33.566L59.519,33.832L57.194,36.174L57.177,36.406C57.144,36.265 57.194,36.174 57.194,36.174C57.194,36.174 55.35,37.394 55.201,38.457C55.051,39.52 55.35,41.164 55.699,43.332C56.048,45.491 53.308,59.59 53.308,59.59C53.308,59.59 53.905,59.781 54.238,59.781C54.57,59.773 54.869,60.695 55.168,60.645C55.467,60.595 55.907,57.498 57.161,57.274C58.414,57.041 60.482,57.323 61.744,58.934C62.367,59.723 63.247,61.06 63.754,61.11C64.26,61.16 65.614,61.035 65.863,60.379C66.112,59.723 68.196,59.424 68.196,59.424C68.196,59.424 66.569,55.505 66.178,53.645Z" fill="#D60000"/>
<path d="M59.07,47.143C59.469,45.798 62.824,42.767 62.409,42.368C61.993,41.969 60.872,42.268 59.643,42.036C58.414,41.803 55.699,40.483 55.226,39.977C55.309,40.898 55.5,42.019 55.716,43.34C56.064,45.499 53.324,59.598 53.324,59.598C53.324,59.598 53.922,59.789 54.254,59.789C54.586,59.781 54.885,60.703 55.184,60.653C55.433,60.611 56.123,57.78 56.837,57.414C57.268,55.496 58.722,48.305 59.07,47.143Z" fill="#BF0000"/>
<path d="M65.198,33.94C65.198,33.94 67.075,33.616 68.204,33.69C69.334,33.765 70.297,33.574 70.297,33.574C70.297,33.574 70.612,35.11 70.612,36.049C70.612,36.987 70.438,37.435 70.438,37.435C70.438,37.435 66.909,37.643 66.801,37.992C66.701,38.341 65.696,42.152 67.299,46.57C68.918,51.029 68.777,53.561 68.777,53.561C68.777,53.561 65.198,54.55 64.218,54.574C63.239,54.599 61.927,54.217 61.927,54.217C61.927,54.217 62.491,51.12 62.167,47.815C61.893,44.967 60.706,41.953 60.955,40.948C61.495,38.772 64.542,33.865 65.198,33.94Z" fill="#7E0000"/>
<path d="M27.314,37.458C27.314,37.458 26.883,37.143 27.099,35.839C27.314,34.535 28.062,32.418 28.062,32.418L30.702,36.005L27.314,37.458Z" fill="#B7A994"/>
<path d="M44.404,42.112C44.902,39.288 46.513,34.339 45.068,33.725C43.183,32.919 38.11,32.986 38.11,32.986L38.118,33.069C38.118,33.069 33.144,34.206 31.566,35.502C30.354,36.498 33.352,41.015 34.614,43.59C34.913,44.204 35.851,47.044 36.133,49.635C36.2,50.274 36.333,53.23 36.59,54.426C36.665,54.783 40.725,56.195 42.195,56.245C43.349,56.286 47.086,53.214 47.061,52.857C46.978,51.636 45.815,48.829 45.708,48.198C45.267,45.624 44.288,42.792 44.404,42.112Z" fill="#FFBD95"/>
<path d="M34.68,37.494C35.145,36.572 34.448,35.301 32.72,34.463C30.993,33.624 29.723,33.25 29.266,33.043C28.793,32.827 26.169,31.399 25.405,31.125C24.641,30.859 23.769,31.017 23.42,31.747C23.121,32.362 23.86,33.641 24.973,34.479C26.086,35.326 33.435,39.96 34.68,37.494Z" fill="#FFBD95"/>
<path d="M40.078,31.896C39.887,31.398 39.248,28.898 39.248,28.898L37.562,29.139L37.57,29.222L35.885,29.463C35.885,29.463 35.959,32.046 35.918,32.577C35.876,33.108 34.598,34.08 34.598,34.08L42.221,33.2C42.229,33.191 40.269,32.394 40.078,31.896Z" fill="#FFBD95"/>
<path d="M39.862,31.19C39.646,30.426 39.356,29.338 39.273,28.998L39.148,28.906L37.562,29.13L37.57,29.213L35.885,29.454C35.885,29.454 35.959,32.037 35.918,32.568C35.876,33.1 34.598,34.071 34.598,34.071L34.764,34.046C36.3,33.39 37.836,32.743 38.035,32.651C38.484,32.46 39.862,31.19 39.862,31.19Z" fill="#FFA47C"/>
<path d="M39.372,50.415C37.296,50.365 36.465,51.802 36.432,56.245C36.407,60.687 37.221,66.525 37.495,67.222C37.769,67.92 40.293,67.654 40.584,67.255C40.883,66.857 41.946,56.984 41.979,55.539C42.012,54.102 41.639,50.465 39.372,50.415Z" fill="#FFBD95"/>
<path d="M38.874,66.156C38.242,66.156 36.756,67.003 36.831,71.147C36.914,75.282 38.591,81.352 38.591,81.352L40.094,81.352C40.094,81.352 40.908,73.297 40.916,71.828C40.925,68.481 40.875,66.165 38.874,66.156Z" fill="#FFBD95"/>
<path d="M44.263,50.862C46.322,50.605 47.302,51.942 47.775,56.36C48.257,60.777 48.099,66.067 47.9,66.789C47.701,67.512 45.243,67.495 44.902,67.13C44.57,66.764 42.361,57.663 42.187,56.235C42.012,54.79 42.012,51.136 44.263,50.862Z" fill="#FFBD95"/>
<path d="M42.917,36.637C43.731,37.268 45.11,36.836 46.264,35.3C47.418,33.764 48.032,32.593 48.323,32.186C48.622,31.763 50.532,29.463 50.947,28.765C51.354,28.068 51.371,27.187 50.715,26.698C50.167,26.291 48.772,26.764 47.734,27.694C46.696,28.632 40.725,34.943 42.917,36.637Z" fill="#FFBD95"/>
<path d="M46.613,65.925C45.999,65.775 44.23,66.033 43.325,70.077C42.42,74.121 42.619,80.324 42.619,80.324L44.238,80.398C44.238,80.398 46.779,73.133 47.128,71.704C47.934,68.458 48.556,66.398 46.613,65.925Z" fill="#FFBD95"/>
<path d="M24.907,33.175C24.077,33.299 23.33,32.967 22.865,30.667C22.4,28.367 22.001,22.895 22.001,22.895L23.338,22.695C23.338,22.695 25.331,27.038 25.638,28.275C25.954,29.504 27.075,32.851 24.907,33.175Z" fill="#FFBD95"/>
<path d="M40.185,25.525C41.34,27.385 41.09,30.109 39.903,30.848C38.765,31.554 36.158,30.615 35.004,28.755C33.85,26.895 34.074,24.67 35.502,23.773C36.922,22.884 39.023,23.665 40.185,25.525Z" fill="#FFBD95"/>
<path d="M35.901,29.812C35.66,29.679 34.066,28.384 33.908,27.944C33.75,27.503 33.335,26.623 33.675,26.034C33.75,25.909 34.107,25.751 33.908,25.386C33.617,24.813 34.672,24.115 34.788,24.032C34.979,23.891 35.486,23.501 35.951,23.31C36.416,23.119 37.379,22.812 39.056,23.717C39.372,23.883 38.076,23.792 37.952,23.634C37.827,23.476 35.818,25.511 35.668,25.76C35.619,25.843 35.552,26.266 35.486,26.781C35.469,26.922 35.893,27.603 35.868,27.753C35.843,27.944 35.32,28.201 35.295,28.392C35.22,29.106 35.901,29.812 35.901,29.812Z" fill="#8D3B26"/>
<path d="M22.441,19.68C22.599,19.68 22.723,19.813 22.723,19.962L22.723,21.183C22.723,21.34 22.599,21.465 22.441,21.465C22.283,21.465 22.159,21.34 22.159,21.183L22.159,19.962C22.15,19.804 22.283,19.68 22.441,19.68Z" fill="#FFBD95"/>
<path d="M22.972,19.629C23.13,19.629 23.254,19.753 23.254,19.911L23.254,21.132C23.254,21.29 23.13,21.414 22.972,21.414C22.814,21.414 22.69,21.29 22.69,21.132L22.69,19.911C22.682,19.753 22.814,19.629 22.972,19.629Z" fill="#FFBD95"/>
<path d="M23.496,19.613C23.653,19.613 23.778,19.746 23.778,19.896L23.778,21.116C23.778,21.274 23.653,21.399 23.496,21.399C23.338,21.399 23.213,21.274 23.213,21.116L23.213,19.896C23.205,19.738 23.338,19.613 23.496,19.613Z" fill="#FFBD95"/>
<path d="M23.994,19.645C24.152,19.645 24.277,19.769 24.277,19.927L24.277,21.148C24.277,21.306 24.152,21.43 23.994,21.43C23.836,21.43 23.712,21.297 23.712,21.148L23.712,19.927C23.712,19.769 23.836,19.637 23.994,19.645Z" fill="#FFBD95"/>
<path d="M23.628,23.94C23.628,23.94 24.442,22.097 24.492,21.706C24.542,21.316 24.251,19.805 24.251,19.805C24.251,19.805 23.736,20.27 23.388,20.22C23.039,20.17 22.15,19.962 22.15,19.962C22.15,19.962 21.81,21.258 21.843,21.872C21.885,22.495 22.059,23.093 22.059,23.093L23.628,23.94Z" fill="#FFBD95"/>
<path d="M49.179,28.75C49.901,29.174 50.723,29.132 52.002,27.164C53.281,25.196 55.656,20.247 55.656,20.247L54.485,19.566C54.485,19.566 51.031,22.871 50.292,23.909C49.553,24.956 47.277,27.646 49.179,28.75Z" fill="#FFBD95"/>
<path d="M55.349,16.914C55.191,16.914 55.058,17.039 55.058,17.196L55.033,18.417C55.033,18.575 55.158,18.708 55.316,18.708C55.473,18.708 55.606,18.583 55.606,18.425L55.631,17.205C55.631,17.047 55.507,16.914 55.349,16.914Z" fill="#FFBD95"/>
<path d="M54.817,16.855C54.66,16.855 54.527,16.98 54.527,17.138L54.502,18.358C54.502,18.516 54.627,18.649 54.784,18.649C54.942,18.649 55.075,18.525 55.075,18.367L55.1,17.146C55.1,16.988 54.975,16.855 54.817,16.855Z" fill="#FFBD95"/>
<path d="M54.294,16.824C54.136,16.824 54.003,16.949 54.003,17.107L53.979,18.327C53.979,18.485 54.103,18.618 54.261,18.618C54.419,18.618 54.551,18.493 54.551,18.336L54.576,17.115C54.576,16.957 54.452,16.833 54.294,16.824Z" fill="#FFBD95"/>
<path d="M53.787,16.848C53.629,16.848 53.497,16.972 53.497,17.13L53.472,18.351C53.472,18.508 53.596,18.641 53.754,18.641C53.912,18.641 54.036,18.517 54.045,18.359L54.07,17.138C54.07,16.981 53.945,16.848 53.787,16.848Z" fill="#FFBD95"/>
<path d="M54.061,21.151C54.061,21.151 53.281,19.291 53.248,18.901C53.214,18.511 53.53,17.008 53.53,17.008C53.53,17.008 54.036,17.481 54.385,17.44C54.734,17.398 55.631,17.207 55.631,17.207C55.631,17.207 55.888,18.502 55.896,19.125C55.905,19.997 55.531,20.529 55.531,20.529L54.061,21.151Z" fill="#FFBD95"/>
<path d="M42.577,80.338C42.577,80.338 42.262,81.958 42.511,82.655C42.577,82.846 47.169,83.386 47.842,83.128C48.514,82.871 49.071,82.614 49.071,82.614C49.071,82.614 48.938,81.916 48.647,81.883C48.348,81.85 45.542,81.036 45.251,80.629C44.96,80.222 44.728,79.566 44.554,79.799C44.379,80.048 43.399,80.496 42.577,80.338Z" fill="#191919"/>
<path d="M47.834,83.13C48.208,82.989 48.548,82.848 48.772,82.748C48.316,82.848 47.9,82.923 47.701,82.881C47.17,82.782 45.351,82.192 44.147,81.785C43.093,81.428 42.843,80.565 42.794,80.357C42.719,80.349 42.644,80.349 42.569,80.332C42.569,80.332 42.254,81.951 42.503,82.649C42.569,82.848 47.161,83.388 47.834,83.13Z" fill="#080808"/>
<path d="M49.071,82.624C49.071,82.624 47.917,83.164 47.651,83.181C47.46,83.189 44.82,82.55 43.375,82.4C42.951,82.35 42.586,82.267 42.42,82.242C42.345,82.234 42.437,82.682 42.437,82.682L42.561,83.006C42.561,83.006 47.485,83.463 47.66,83.455C47.834,83.446 49.271,82.848 49.271,82.848L49.071,82.624Z" fill="#22272C"/>
<path d="M40.161,81.455L38.218,81.355C38.218,81.355 38.177,81.804 37.695,82.56C37.363,83.083 36.848,83.622 36.865,84.029C36.873,84.295 37.006,84.577 37.255,84.611C37.903,84.694 39.132,84.777 39.472,84.544C39.788,84.328 40.003,83.888 40.194,83.597C40.402,83.29 40.311,82.784 40.302,82.535C40.286,82.244 40.161,81.455 40.161,81.455Z" fill="#22272C"/>
<path d="M40.161,81.236L38.218,81.137C38.218,81.137 38.177,81.585 37.695,82.341C37.363,82.864 36.848,83.404 36.865,83.811C36.873,84.076 36.989,84.292 37.238,84.325C37.886,84.408 39.115,84.491 39.455,84.259C39.771,84.043 39.954,83.686 40.145,83.395C40.352,83.088 40.319,82.565 40.311,82.316C40.286,82.025 40.161,81.236 40.161,81.236Z" fill="#191919"/>
<path d="M38.666,80.845C38.442,80.978 38.334,82.256 38.334,82.331C38.334,82.406 38.733,82.439 38.882,82.414C39.488,82.306 39.721,81.285 39.58,80.986C39.48,80.77 38.865,80.728 38.666,80.845Z" fill="#191919"/>
<path d="M40.302,82.318C40.293,82.094 40.21,81.596 40.177,81.363C40.194,81.496 40.21,81.629 40.21,81.712C40.227,81.969 40.252,82.493 40.044,82.792C39.853,83.082 39.67,83.439 39.355,83.655C39.014,83.888 37.785,83.805 37.138,83.722C37.03,83.705 36.955,83.655 36.897,83.58C36.872,83.663 36.855,83.738 36.855,83.813C36.864,84.079 36.98,84.295 37.229,84.328C37.877,84.411 39.106,84.494 39.446,84.261C39.762,84.045 39.944,83.688 40.135,83.398C40.343,83.09 40.31,82.567 40.302,82.318Z" fill="#080808"/>
<path d="M36.199,23.334C36.922,22.886 39.048,22.263 39.67,23.791C39.886,24.306 39.147,25.253 39.147,25.253C39.147,25.253 39.255,24.173 38.392,24.347C37.536,24.53 37.404,25.651 36.681,25.892C35.959,26.133 35.618,26.415 35.311,26.016C35.02,25.601 35.369,23.849 36.199,23.334Z" fill="#8D3B26"/>
<path d="M38.732,24.081C38.732,24.081 39.372,24.347 39.521,24.746C39.679,25.144 39.538,25.377 39.538,25.377C39.538,25.377 39.895,25.252 39.912,24.878C39.978,23.583 38.898,23.5 38.898,23.5L38.732,24.081Z" fill="#8D3B26"/>
<path d="M35.569,33.193C35.569,33.193 37.164,34.339 38.733,34.073C40.302,33.808 40.934,32.57 40.934,32.57L43.391,32.986L46.057,35.452C46.057,35.452 44.695,40.791 44.728,42.46C44.77,44.129 46.182,49.659 46.182,49.659C46.182,49.659 44.047,51.245 41.44,51.204C38.833,51.162 35.968,51.204 35.968,51.204C35.968,51.204 35.594,46.753 34.814,44.602C34.025,42.452 31.642,37.926 31.642,37.926L32.995,34.596L35.569,33.193Z" fill="#FF8626"/>
<path d="M36.283,51.699L41.988,51.699L42.187,56.225C42.187,56.225 40.933,66.405 41.141,66.455C41.348,66.505 41.664,66.795 41.456,66.895C41.249,67.003 41.016,67.186 41.199,67.368C41.381,67.551 41.091,68.099 41.174,68.381C41.257,68.664 40.883,80.065 40.734,80.58C40.576,81.103 38.832,81.227 38.151,80.97C37.47,80.713 37.528,80.339 37.528,80.339C37.528,80.339 36.441,71.819 36.449,71.147C36.457,70.466 36.69,67.667 36.615,67.476C36.54,67.285 36.848,67.003 36.848,66.737C36.848,66.48 36.897,66.214 36.848,66.032C36.798,65.849 36.275,58.699 36.117,57.404C35.951,56.1 36.283,51.699 36.283,51.699Z" fill="#0E3854"/>
<path d="M41.987,51.701L46.438,50.422C46.438,50.422 47.302,52.523 47.758,54.848C48.207,57.173 48.456,66.456 48.456,66.631C48.456,66.805 48.29,67.984 48.091,68.997C47.9,70.002 45.101,80.05 45.101,80.05C45.101,80.05 44.312,80.755 43.308,80.407C42.303,80.058 42.112,79.502 42.112,79.502C42.112,79.502 42.436,70.185 43.2,69.28C43.731,68.649 44.072,67.993 43.964,67.959C43.856,67.926 43.723,67.611 43.93,67.486C44.138,67.362 44.204,66.946 43.964,66.913C43.723,66.88 43.822,65.751 43.69,64.821C43.548,63.891 42.112,55.686 42.112,55.686L41.987,51.701Z" fill="#0E3854"/>
<path d="M36.1,57.404C36.258,58.708 36.781,65.849 36.831,66.032C36.881,66.214 36.831,66.472 36.831,66.737C36.831,66.995 36.524,67.285 36.598,67.476C36.673,67.667 36.441,70.466 36.432,71.147C36.424,71.828 37.512,80.339 37.512,80.339C37.512,80.339 37.487,80.563 37.786,80.787C37.695,79.359 37.371,73.912 37.337,72.293C37.304,70.416 37.67,66.928 37.844,66.696C38.01,66.463 37.337,54.589 37.645,53.709C37.944,52.82 41.996,51.699 41.996,51.699L36.283,51.699C36.283,51.699 35.951,56.1 36.1,57.404Z" fill="#00233F"/>
<path d="M43.042,56.747C42.378,56.066 42.245,56.166 42.212,56.216C42.536,58.059 43.574,64.03 43.69,64.81C43.831,65.74 43.723,66.869 43.964,66.903C44.205,66.936 44.138,67.351 43.931,67.476C43.723,67.6 43.864,67.907 43.964,67.949C44.072,67.982 43.732,68.638 43.2,69.269C42.436,70.174 42.112,79.491 42.112,79.491C42.112,79.491 42.295,80.047 43.308,80.396C43.325,80.404 43.341,80.404 43.358,80.404C43.482,78.86 43.748,75.63 43.873,74.301C44.039,72.524 45.583,68.298 45.55,67.65C45.517,67.002 43.848,57.569 43.042,56.747Z" fill="#00233F"/>
<path d="M40.758,43.862C41.464,42.483 44.445,40.748 44.08,40.175C43.714,39.602 37.976,41.379 37.412,41.279C36.839,41.18 36.324,38.207 36.324,38.207L34.414,43.596C34.572,43.97 34.713,44.31 34.821,44.609C35.61,46.76 35.975,51.211 35.975,51.211C35.975,51.211 38.84,51.169 41.447,51.211C41.696,51.211 41.937,51.202 42.17,51.178C42.045,50.82 40.077,45.191 40.758,43.862Z" fill="#FF6E26"/>
<path d="M28.062,32.426C28.062,32.426 28.394,33.348 28.253,34.61C28.112,35.864 27.314,37.466 27.314,37.466L32.081,39.791C32.081,39.791 33.301,45.205 32.812,47.73C32.322,50.254 32.081,52.272 32.081,52.272C32.081,52.272 35.419,53.659 36.532,53.733C37.644,53.808 38.425,53.559 38.425,53.559C38.425,53.559 36.507,37.773 36.067,36.918C35.627,36.071 34.53,33.763 34.53,33.763C34.53,33.763 32.936,34.336 32.878,34.07C32.82,33.804 32.23,33.58 32.197,33.763C32.164,33.945 31.632,33.738 31.657,33.563C31.666,33.389 28.062,32.426 28.062,32.426Z" fill="#CEE0FF"/>
<path d="M41.838,32.725C41.838,32.725 42.992,32.825 42.884,32.568C42.776,32.31 43.025,32.211 43.2,32.227C43.374,32.244 43.341,31.704 43.515,31.729C43.69,31.754 45.774,29.18 45.774,29.18C45.774,29.18 48.589,30.342 49.046,30.957C49.494,31.571 49.917,32.418 49.917,32.418L46.837,36.379C46.837,36.379 46.355,40.971 46.189,44.442C46.023,47.921 46.745,51.209 46.745,51.209C46.745,51.209 44.977,52.679 44.562,52.679C44.146,52.679 43.656,52.405 43.656,52.405C43.656,52.405 43.59,40.655 43.449,38.206C43.308,35.756 41.838,32.725 41.838,32.725Z" fill="#CEE0FF"/>
<path d="M32.812,47.732C32.322,50.257 32.081,52.274 32.081,52.274C32.081,52.274 33.26,52.764 34.448,53.179C34.514,51.552 34.647,48.363 34.606,47.824C34.556,47.085 33.319,39.644 32.87,39.038C32.422,38.432 27.323,37.469 27.323,37.469L32.09,39.794C32.081,39.794 33.294,45.208 32.812,47.732Z" fill="#B8D1FF"/>
<path d="M44.82,33.748C44.404,33.906 46.289,36.281 46.19,36.92C46.09,37.56 45.351,44.095 45.484,45.672C45.575,46.719 45.716,49.916 45.808,51.958C46.306,51.593 46.746,51.219 46.746,51.219C46.746,51.219 46.024,47.931 46.19,44.452C46.356,40.972 46.837,36.389 46.837,36.389L49.918,32.428C49.918,32.428 49.893,32.386 49.868,32.328C48.864,33.25 47.344,34.612 47.078,34.612C46.663,34.603 45.218,33.59 44.82,33.748Z" fill="#B8D1FF"/>
<path d="M35.305,9.596L32.158,9.596L32.158,10.335L35.305,10.335L35.305,9.596Z" transform="rotate(78.068 33.732 9.966)" fill="#D60000"/>
<path d="M69.178,15.678L66.031,15.678L66.031,16.417L69.178,16.417L69.178,15.678Z" transform="rotate(78.068 67.605 16.048)" fill="#FF8626"/>
<path d="M11.708,14.955L8.561,14.955L8.561,15.694L11.708,15.694L11.708,14.955Z" transform="rotate(78.068 10.134 15.325)" fill="#FF8626"/>
<path d="M75.16,7.686L72.013,7.686L72.013,8.425L75.16,8.425L75.16,7.686Z" transform="rotate(78.068 73.586 8.055)" fill="#B54095"/>
<path d="M31.801,3.36L28.654,3.36L28.654,4.099L31.801,4.099L31.801,3.36Z" transform="rotate(57.487 30.227 3.729)" fill="#B54095"/>
<path d="M54.589,5.272L51.441,5.272L51.441,6.011L54.589,6.011L54.589,5.272Z" transform="rotate(78.068 53.015 5.641)" fill="#FF8626"/>
<path d="M21.284,20.322L18.137,20.322L18.137,21.062L21.284,21.062L21.284,20.322Z" transform="rotate(285.311 19.71 20.692)" fill="#D60000"/>
<path d="M64.33,22.397L61.183,22.397L61.183,23.136L64.33,23.136L64.33,22.397Z" transform="rotate(285.311 62.756 22.766)" fill="#178C00"/>
<path d="M39.53,17.638L36.383,17.638L36.383,18.377L39.53,18.377L39.53,17.638Z" transform="rotate(-63.686 37.957 18.007)" fill="#178C00"/>
<path d="M39.712,8.837L38.018,8.837L38.018,9.576L39.712,9.576L39.712,8.837Z" transform="rotate(-63.677 38.865 9.207)" fill="#FF8626"/>
<path d="M47.725,10.882L46.031,10.882L46.031,11.621L47.725,11.621L47.725,10.882Z" transform="rotate(64.186 46.878 11.251)" fill="#D60000"/>
<path d="M49.29,0.224L47.596,0.224L47.596,0.963L49.29,0.963L49.29,0.224Z" transform="rotate(-33.057 48.443 0.594)" fill="#D60000"/>
<path d="M32.156,13.633L30.462,13.633L30.462,14.372L32.156,14.372L32.156,13.633Z" transform="rotate(-34.663 31.309 14.003)" fill="#375987"/>
<path d="M24.536,7.986L20.592,7.986L20.592,8.725L24.536,8.725L24.536,7.986Z" transform="rotate(-34.663 22.564 8.355)" fill="#178C00"/>
<path d="M72.53,21.919L70.836,21.919L70.836,22.658L72.53,22.658L72.53,21.919Z" transform="rotate(-63.686 71.683 22.289)" fill="#375987"/>
<path d="M26.529,13.635L24.835,13.635L24.835,14.374L26.529,14.374L26.529,13.635Z" transform="rotate(65.861 25.682 14.005)" fill="#FF8626"/>
<path d="M63.794,3.99L57.749,3.99L57.749,4.729L63.794,4.729L63.794,3.99Z" transform="rotate(-63.686 60.771 4.36)" fill="#178C00"/>
<path d="M82.856,15.767L76.811,15.767L76.811,16.506L82.856,16.506L82.856,15.767Z" transform="rotate(40.415 79.834 16.137)" fill="#D60000"/>
<path d="M13.874,22.263L7.829,22.263L7.829,23.002L13.874,23.002L13.874,22.263Z" transform="rotate(40.415 10.851 22.633)" fill="#D60000"/>
<path d="M67.523,10.604C67.523,10.961 67.042,11.244 66.435,11.244C65.838,11.244 65.348,10.961 65.348,10.604C65.348,10.247 65.829,9.965 66.435,9.965C67.042,9.965 67.523,10.255 67.523,10.604Z" fill="#D60000"/>
<path d="M43.534,5.007C43.534,5.364 43.243,5.655 42.886,5.655C42.529,5.655 42.238,5.364 42.238,5.007C42.238,4.65 42.529,4.359 42.886,4.359C43.243,4.359 43.534,4.65 43.534,5.007Z" fill="#375987"/>
<path d="M46.88,15.703C46.88,15.994 46.639,16.235 46.349,16.235C46.058,16.235 45.817,15.994 45.817,15.703C45.817,15.413 46.058,15.172 46.349,15.172C46.639,15.172 46.88,15.413 46.88,15.703Z" fill="#B54095"/>
<path d="M18.04,15.189C18.04,15.413 17.858,15.604 17.625,15.604C17.401,15.604 17.21,15.421 17.21,15.189C17.21,14.964 17.393,14.773 17.625,14.773C17.858,14.782 18.04,14.964 18.04,15.189Z" fill="#B54095"/>
<path d="M5.951,19.438C5.951,19.737 5.71,19.978 5.411,19.978C5.112,19.978 4.871,19.737 4.871,19.438C4.871,19.139 5.112,18.898 5.411,18.898C5.71,18.898 5.951,19.139 5.951,19.438Z" fill="#178C00"/>
<path d="M10.85,7.077C11.244,7.077 11.564,6.757 11.564,6.363C11.564,5.968 11.244,5.648 10.85,5.648C10.455,5.648 10.136,5.968 10.136,6.363C10.136,6.757 10.455,7.077 10.85,7.077Z" fill="#375987"/>
</svg>
