<svg width="584" height="584" viewBox="0 0 584 584" fill="none" xmlns="http://www.w3.org/2000/svg" xmlns:xlink="http://www.w3.org/1999/xlink">
<path d="M558.789,390.724C503.753,520.312 357.151,592.908 230.017,573.324C209.33,570.138 152.616,560.646 102.403,515.866C5.737,429.664 -14.935,258.968 63.041,138.676C119.795,51.121 221.527,1.492 318.197,3.975C339.021,4.511 418.819,7.806 488.949,65.633C499.251,74.127 521.969,94.31 542.445,126.33C590.523,201.517 594.657,306.27 558.789,390.724Z" fill="#EDEFFF"/>
<path d="M222.858,452.924C222.858,452.924 150.89,232.862 30.437,119.595C22.34,111.982 9.03,116.29 7,127.217C-6.582,200.285 -25.982,420.102 222.858,452.924Z" fill="#8584FF"/>
<g opacity="0.5">
<path d="M199.281,440.317C199.873,440.807 199.218,441.715 198.566,441.309C174.481,426.341 79.885,350.817 33.703,188.4C33.554,187.879 34.318,187.611 34.51,188.117C48.72,225.474 105.524,362.849 199.281,440.317Z" fill="#8584FF"/>
</g>
<path d="M279.433,492.641C279.433,492.641 231.443,220.664 108.241,66.655C99.958,56.304 83.518,59.153 79.281,71.716C50.96,155.722 -8.909,412.045 279.433,492.641Z" fill="#B5B5FF"/>
<g opacity="0.5">
<path d="M253.706,473.79C254.323,474.468 253.398,475.43 252.695,474.84C226.769,453.118 127.756,348.024 100.527,148.458C100.439,147.818 101.385,147.63 101.527,148.262C112.028,194.764 156.013,366.544 253.706,473.79Z" fill="#FFFFFF"/>
</g>
<path d="M451.355,473.861L203.947,476.229C173.224,389.687 141.44,238.237 143.76,161.673L500.139,161.673C498.157,247.917 477.561,396.133 451.355,473.861Z" fill="#8584FF"/>
<path d="M321.952,185.14C420.364,185.14 500.142,174.633 500.142,161.672C500.142,148.712 420.364,138.205 321.952,138.205C223.54,138.205 143.762,148.712 143.762,161.672C143.762,174.633 223.54,185.14 321.952,185.14Z" fill="#8D8CEF"/>
<path d="M493.925,239.988L492.814,239.205C492.399,238.898 491.906,238.492 491.458,238.134C490.592,237.404 489.801,236.67 489.023,235.854C488.253,235.042 487.527,234.174 486.847,233.261C486.173,232.343 485.558,231.376 484.997,230.376C482.771,226.343 481.7,221.767 481.558,217.439C481.399,213.087 482.01,208.934 482.953,205.007C483.907,201.076 485.207,197.348 486.682,193.753L486.849,193.35L487.286,192.684C490.47,187.839 494.366,183.295 499.002,179.424C503.607,175.522 509.051,172.447 514.873,170.392C517.802,169.409 520.819,168.692 523.876,168.221C526.939,167.794 530.031,167.631 533.119,167.725C539.295,167.959 545.421,169.233 551.287,171.7C554.216,172.96 557.093,174.51 559.85,176.598C562.578,178.723 565.304,181.316 567.438,185.301C567.783,185.849 568.658,187.448 569.353,188.816C570.035,190.174 570.664,191.54 571.267,192.958C572.451,195.799 573.445,198.829 574.114,202.022C575.518,208.388 575.282,215.491 573.508,221.782C571.759,228.104 568.873,233.636 565.668,238.527C562.453,243.433 558.927,247.819 555.327,252.003C551.716,256.17 548.009,260.116 544.27,263.968C536.772,271.638 529.204,279 521.587,286.241C506.356,300.712 491.265,315.087 476.543,329.839L477.947,328.105C477.392,328.946 477.189,329.508 477.028,329.623C476.886,329.755 476.595,329.573 476.44,330.075C476.432,330.186 476.401,330.345 476.419,330.523C476.438,330.701 476.484,330.9 476.547,331.136C476.687,331.59 476.934,332.14 477.286,332.726C477.629,333.327 478.083,333.946 478.597,334.628C479.116,335.299 479.715,335.979 480.342,336.758L480.947,337.507C483.104,340.176 482.688,344.089 480.016,346.246C478.863,347.177 477.476,347.626 476.101,347.624C474.758,347.622 473.417,347.438 472.057,347.128C470.689,346.836 469.325,346.352 467.946,345.712C465.222,344.421 462.406,342.36 460.197,339.122C459.111,337.505 458.216,335.599 457.695,333.548C457.142,331.506 456.996,329.339 457.153,327.305C457.308,325.263 457.808,323.364 458.427,321.65C459.078,319.941 459.887,318.424 460.747,317.048L461.318,316.131L462.151,315.313C477.219,300.513 492.657,286.099 507.986,271.822C515.622,264.662 523.317,257.624 530.614,250.419C534.259,246.821 537.811,243.189 541.148,239.496C544.467,235.803 547.594,232.044 550.209,228.226C552.814,224.403 554.917,220.56 556.082,216.786C557.252,213.007 557.513,209.331 556.816,205.415C556.475,203.461 555.911,201.459 555.143,199.434C554.749,198.425 554.314,197.394 553.854,196.392C553.392,195.404 553.038,194.686 552.111,192.942C551.808,192.266 550.833,190.979 549.456,189.862C548.08,188.718 546.37,187.64 544.521,186.745C540.795,184.958 536.539,183.826 532.246,183.464C530.096,183.299 527.932,183.307 525.786,183.498C523.645,183.732 521.522,184.127 519.445,184.711C515.313,185.933 511.323,187.82 507.762,190.511C504.18,193.161 500.946,196.461 498.144,200.224L498.747,199.155C497.276,202.176 495.992,205.235 495.038,208.294C494.086,211.348 493.466,214.407 493.385,217.305C493.307,220.204 493.719,222.916 494.81,225.341C495.353,226.554 496.067,227.7 496.937,228.78C497.368,229.314 497.866,229.851 498.347,230.332L499.067,231.014L500.115,231.881C502.289,233.676 502.594,236.893 500.797,239.067C499.096,241.136 496.084,241.502 493.925,239.988Z" fill="#5F5EE3"/>
<path d="M147.785,166.648C180.814,187.192 402.143,197.074 492.983,168.273C455.005,150.595 246.026,138.205 147.785,166.648Z" fill="url(#pf_0_310_462)"/>
<path d="M143.76,161.673C135.254,199.988 480.069,205.252 499.719,163.269C451.273,195.94 156.219,193.59 143.76,161.673Z" fill="#91B3FA"/>
<g opacity="0.68">
<path d="M293.836,147.63C291.349,143.852 289.675,139.695 288.06,135.552C286.503,131.567 284.97,127.485 284.903,123.263C284.712,111.384 295.7,102.063 305.954,94.571C316.208,87.079 327.499,78.311 328.3,66.451C328.865,58.084 323.951,50.339 320.597,42.519C317.337,34.916 315.477,26.828 315.113,18.685C315.049,17.239 315.034,15.768 315.456,14.371C316.04,12.444 317.406,10.798 318.745,9.203C321.321,6.136 323.898,3.069 326.474,0C320.289,5.793 322.806,15.342 326.654,22.587C330.413,29.665 335.07,36.351 338.483,43.569C341.895,50.787 344.037,58.779 342.416,66.486C338.529,84.947 315.283,95.32 308.318,113.034C304.764,122.075 306.038,132.544 311.68,140.678C316.77,148.015 325.089,153.417 329.007,161.317C330.842,165.018 331.664,170.311 329.047,173.905C324.737,179.824 321.109,174.901 317.68,171.25C310.069,163.15 299.912,156.859 293.836,147.63Z" fill="#B5B5FF"/>
</g>
<g opacity="0.68">
<path d="M238.883,147.63C236.396,143.852 234.722,139.695 233.107,135.552C231.55,131.567 230.017,127.485 229.95,123.263C229.759,111.384 240.747,102.063 251.001,94.571C261.254,87.079 272.546,78.311 273.347,66.451C273.912,58.084 268.997,50.339 265.644,42.519C262.384,34.916 260.524,26.828 260.16,18.685C260.095,17.239 260.081,15.768 260.503,14.371C261.087,12.444 262.453,10.798 263.792,9.203C266.368,6.136 268.945,3.069 271.521,0C265.336,5.793 267.853,15.342 271.7,22.587C275.46,29.665 280.117,36.351 283.529,43.569C286.942,50.787 289.084,58.779 287.463,66.486C283.575,84.947 260.33,95.32 253.365,113.034C249.81,122.075 251.084,132.544 256.727,140.678C261.817,148.015 270.136,153.417 274.054,161.317C275.889,165.018 276.711,170.311 274.094,173.905C269.784,179.824 266.156,174.901 262.727,171.25C255.116,163.15 244.959,156.859 238.883,147.63Z" fill="#B5B5FF"/>
</g>
<g opacity="0.68">
<path d="M348.789,147.63C346.302,143.852 344.628,139.695 343.013,135.552C341.456,131.567 339.923,127.485 339.856,123.263C339.666,111.384 350.654,102.063 360.907,94.571C371.161,87.079 382.452,78.311 383.253,66.451C383.818,58.084 378.904,50.339 375.55,42.519C372.291,34.916 370.431,26.828 370.067,18.685C370.002,17.239 369.987,15.768 370.41,14.371C370.993,12.444 372.36,10.798 373.699,9.203C376.274,6.136 378.852,3.069 381.427,0C375.243,5.793 377.759,15.342 381.607,22.587C385.366,29.665 390.024,36.351 393.436,43.569C396.848,50.787 398.99,58.779 397.369,66.486C393.482,84.947 370.236,95.32 363.271,113.034C359.717,122.075 360.991,132.544 366.633,140.678C371.724,148.015 380.042,153.417 383.961,161.317C385.795,165.018 386.618,170.311 384,173.905C379.69,179.824 376.063,174.901 372.634,171.25C365.022,163.15 354.865,156.859 348.789,147.63Z" fill="#B5B5FF"/>
</g>
<path d="M451.35,473.86C451.35,483.59 384.935,492.459 320.38,492.459C255.825,492.459 203.494,484.572 203.494,474.839C203.494,465.106 255.827,457.219 320.38,457.219C384.933,457.219 451.35,464.129 451.35,473.86Z" fill="url(#pf_0_310_467)"/>
<path d="M517.117,488.957C516.722,490.415 515.222,491.279 513.761,490.884L513.286,490.756C511.828,490.363 510.964,488.86 511.36,487.4L520.203,454.691C520.598,453.233 522.099,452.369 523.559,452.765L524.034,452.892C525.492,453.285 526.356,454.788 525.961,456.248L517.117,488.957Z" fill="#ACABFF"/>
<path d="M512.741,493.229C514.536,495.886 521.674,556.048 522.789,578.266C522.865,579.768 521.664,581.021 520.157,581.021C518.86,581.021 517.756,580.076 517.555,578.793L504.502,495.141L512.741,493.229Z" fill="#ACABFF"/>
<path d="M455.362,493.229C453.567,495.886 446.429,556.048 445.314,578.266C445.239,579.768 446.439,581.021 447.944,581.021C449.241,581.021 450.346,580.076 450.546,578.793L463.601,495.141L455.362,493.229Z" fill="#ACABFF"/>
<path d="M523.536,488.534L523.543,489.191C523.587,493.911 519.519,497.781 514.429,497.869L454.092,498.896C449.075,498.982 444.891,495.354 444.648,490.71L444.617,490.109C444.363,485.264 448.479,481.18 453.711,481.088L514.074,480.006C519.239,479.908 523.492,483.743 523.536,488.534Z" fill="#ACABFF"/>
<path d="M535.524,394.371C535.325,388.822 524.511,390.498 521.301,390.613C509.753,391.028 512.38,405.658 512.251,413.409C512.069,424.305 512.956,435.352 513.763,446.216C514.021,449.668 514.401,453.101 514.521,456.56C514.68,461.102 520.78,461.665 524.944,461.518C527.128,461.441 528.925,459.775 529.174,457.604C530.674,444.593 535.729,400.133 535.524,394.371Z" fill="#ACABFF"/>
<path d="M514.732,536.297C514.732,537.835 513.487,539.08 511.95,539.08L453.704,539.08C452.167,539.08 450.922,537.835 450.922,536.297L450.922,536.191C450.922,534.653 452.167,533.408 453.704,533.408L511.95,533.408C513.487,533.408 514.732,534.653 514.732,536.191L514.732,536.297Z" fill="#ACABFF"/>
<path d="M341.851,483.469L335.713,483.469L335.713,549.855L341.851,549.855L341.851,483.469Z" fill="#7D97F4"/>
<path d="M365.668,551.133L311.902,551.133C311.902,548.926 313.691,547.137 315.898,547.137L361.672,547.137C363.878,547.137 365.668,548.926 365.668,551.133Z" fill="#7D97F4"/>
<path d="M373.648,481.163C373.648,484.793 370.677,487.764 367.047,487.764L312.652,487.764C309.022,487.764 306.051,484.793 306.051,481.163L306.051,475.194C306.051,471.565 309.022,468.594 312.652,468.594L367.047,468.594C370.677,468.594 373.648,471.565 373.648,475.194L373.648,481.163Z" fill="url(#pf_0_310_480)"/>
<path d="M387.563,438.314L383.295,437.176L370.334,434.176C368.773,433.814 367.133,434.09 365.779,434.944L354.637,441.954L385.412,441.902L387.563,438.314Z" fill="url(#pf_0_310_482)"/>
<path d="M410.521,577.08C421.34,577.08 426.126,576.151 428.267,575.306C427.85,577.082 426.269,578.486 424.269,578.486L385.995,578.486C384.706,578.486 383.892,577.251 384.2,576.134C388.562,576.484 397.83,577.08 410.521,577.08Z" fill="url(#pf_0_310_484)"/>
<path d="M384.201,576.132C384.264,575.906 384.354,575.684 384.515,575.481C387.431,571.76 393.287,565.914 401.254,566.025C412.926,566.188 416.996,567.456 426.065,566.096L428.205,573.188C428.423,573.912 428.427,574.634 428.27,575.304C426.13,576.151 421.343,577.078 410.525,577.078C397.831,577.08 388.563,576.484 384.201,576.132Z" fill="url(#pf_0_310_485)"/>
<path d="M423.433,558.454L426.059,567.385C426.059,567.385 420.241,570.034 415.123,567.908L414.119,560.169L423.433,558.454Z" fill="#FF9D8C"/>
<path d="M344.107,571.454C352.541,578.23 356.85,580.509 359.047,581.193C357.616,582.31 355.507,582.408 353.949,581.155L324.113,557.181C323.108,556.374 323.242,554.907 324.18,554.233C327.362,557.238 334.213,563.504 344.107,571.454Z" fill="url(#pf_0_310_488)"/>
<path d="M324.18,554.234C324.368,554.098 324.577,553.983 324.83,553.924C329.423,552.863 337.632,551.995 343.773,557.073C352.769,564.51 355.152,568.042 363.068,572.668L360.315,579.511C360.035,580.208 359.587,580.771 359.047,581.193C356.851,580.509 352.541,578.231 344.107,571.454C334.214,563.504 327.362,557.238 324.18,554.234Z" fill="url(#pf_0_310_489)"/>
<path d="M479.616,456.685C479.616,456.685 414.843,461.974 401.554,468.23C388.266,474.485 412.397,562.155 412.397,562.155C412.397,562.155 416.014,563.895 424.063,561.393C424.063,561.393 415.809,496.696 421.95,482.668L492.083,471.196L479.616,456.685Z" fill="#000000"/>
<path d="M369.502,560.353C368.899,560.901 363.067,572.668 363.067,572.668C363.067,572.668 356.57,571.262 355.246,567.153L361.089,556.533L369.502,560.353Z" fill="url(#pf_0_310_491)"/>
<path d="M518.63,456.143C518.63,456.143 520.741,461.223 520.656,467.972C520.536,477.307 513.032,484.881 503.709,485.347L427.137,488.839C425.519,488.912 424.151,490.032 423.745,491.599C421.946,498.559 413.151,519.932 370.157,562.581C369.013,563.715 367.232,563.909 365.87,563.047L359.751,559.181C359.108,558.775 358.903,557.932 359.286,557.277L403.87,481.142C406.211,477.278 409.977,474.485 414.354,473.368L479.618,456.685L518.63,456.143Z" fill="#000000"/>
<path d="M443.168,337.216C443.168,337.216 451.371,351.718 459.733,358.746L442.446,368.391C442.446,368.391 438.55,353.036 429.652,348.54L443.168,337.216Z" fill="#FF9D8C"/>
<path d="M520.02,456.685C520.02,456.685 499.347,461.723 479.616,456.685C479.616,456.685 452.006,419.57 441.326,409.468C441.326,409.468 424.287,436.354 386.363,440.163L384.248,435.437C384.248,435.437 414.44,421.52 423.733,400.134C433.028,378.751 436.761,369.629 445.217,364.049C450.483,360.574 453.636,358.202 455.266,356.904C456.157,356.195 457.389,356.114 458.362,356.708C467.337,362.179 509.563,391.098 520.02,456.685Z" fill="#FF3874"/>
<path d="M445.779,403.664C446.235,403.664 446.685,403.459 446.984,403.07C451.829,396.749 454.53,389.78 454.643,389.488C454.944,388.705 454.553,387.826 453.771,387.527C452.988,387.226 452.11,387.617 451.808,388.4C451.783,388.467 449.143,395.262 444.574,401.222C444.063,401.888 444.189,402.842 444.854,403.35C445.13,403.561 445.456,403.664 445.779,403.664Z" fill="url(#pf_0_310_495)"/>
<path d="M430.144,315.467C430.144,315.467 422.173,328.719 420.79,336.043C419.407,343.368 417.187,347.946 425.522,350.557C433.857,353.166 441.604,349.864 446.467,343.027C446.467,343.027 454.059,332.506 453.302,327.688C452.542,322.867 430.144,315.467 430.144,315.467Z" fill="#FF9D8C"/>
<path d="M443.575,325.759C443.575,325.759 418.365,317.334 420.597,305.513C422.829,293.692 434.012,292.998 439.818,302.994C445.623,312.988 462.105,314.513 458.982,323.859C457.716,329.489 468.879,334.918 444.686,345.724C447.508,337.058 445.364,337.016 444.265,337.016C443.169,337.016 442.872,337.016 442.872,337.016C442.872,337.016 450.199,326.621 443.575,325.759Z" fill="url(#pf_0_310_498)"/>
<path d="M443.803,338.672C443.803,338.672 447.32,330 451.014,333.048C454.709,336.096 447.6,342.835 444.317,342.745L443.803,338.672Z" fill="url(#pf_0_310_499)"/>
<path d="M427.416,313.656C427.393,313.656 427.37,313.652 427.349,313.643C427.221,313.591 424.219,312.298 424.219,306.978C424.219,301.664 430.299,298.795 430.359,298.768C430.445,298.726 430.554,298.764 430.593,298.854C430.635,298.942 430.596,299.048 430.508,299.088C430.449,299.115 424.572,301.889 424.572,306.976C424.572,312.062 427.451,313.3 427.48,313.313C427.57,313.35 427.614,313.453 427.577,313.545C427.552,313.614 427.487,313.656 427.416,313.656Z" fill="#91B3FA"/>
<path d="M286.282,443.442C286.282,443.442 277.161,444.857 266.905,451.713C265.292,452.792 264.405,454.673 264.65,456.598C265.878,466.324 270.926,497.811 287.577,528.561C288.456,530.183 288.707,532.07 288.32,533.873L285.427,547.334L280.062,552.364L293.879,552.364L303.078,527.467L299.145,526.222C296.095,525.258 294.002,522.452 293.946,519.253L293.484,492.545C293.877,480.647 286.188,472.437 286.188,472.437L308.256,471.364L286.282,443.442Z" fill="url(#pf_0_310_502)"/>
<path d="M274.667,554.794C273.41,556.441 288.212,558.614 295.689,555.012C295.689,555.012 306.056,536.975 306.056,527.688C306.056,527.688 305.233,525.795 299.145,526.224C299.145,526.224 295.664,547.58 291.988,549.972C288.312,552.363 281.705,550.214 281.705,550.214C281.705,550.214 276.523,552.365 274.667,554.794Z" fill="url(#pf_0_310_503)"/>
<path d="M305.464,472.833C305.347,472.63 281.706,469.989 281.706,469.989C281.706,469.989 282.48,477.178 280.061,487.072C277.643,496.968 242.932,539.838 242.932,539.838L246.572,551.376C235.319,555.297 224.251,555.922 213.359,553.374L235.915,539.838C235.915,539.838 257.025,467.902 269.954,455.068L293.652,446.869L305.464,472.833Z" fill="url(#pf_0_310_504)"/>
<path d="M358.482,430.975C358.482,430.975 372.102,451.233 373.221,460.474C374.338,469.715 369.491,473.471 355.199,474.09C340.908,474.709 302.756,474.699 302.756,474.699L270.193,446.869C270.193,446.869 293.925,438.402 300.094,436.007C306.26,433.615 358.482,430.975 358.482,430.975Z" fill="url(#pf_0_310_505)"/>
<path d="M245.198,547.491C245.198,547.491 249.117,551.286 246.47,555.508C246.47,555.508 215.431,561.01 207.004,558.514C207.004,558.514 208.753,554.52 218.243,549.974L217.542,550.512C216.657,551.192 217.176,552.608 218.291,552.545C224.542,552.188 237.484,551.043 245.198,547.491Z" fill="url(#pf_0_310_506)"/>
<path d="M319.327,315.993C319.327,315.993 326.516,297.678 305.249,300.463C283.983,303.248 287.6,315.777 285.918,322.052C284.236,328.326 275.315,335.437 250.485,345.118C225.656,354.798 233.018,381.19 244.171,389.95C255.325,398.71 261.406,392.888 263.999,408.008C266.593,423.127 276.941,435.406 289.849,422.59C302.76,409.773 317.432,394.618 313.329,374.745C309.224,354.871 313.873,358.631 321.884,349.515C329.897,340.396 312.917,331.571 319.327,315.993Z" fill="url(#pf_0_310_509)"/>
<path d="M276.974,336.958C276.895,336.958 276.819,336.908 276.792,336.828C276.757,336.728 276.811,336.619 276.911,336.584C285.813,333.487 290.207,327.853 289.282,320.717C288.309,313.212 293.033,311.978 293.082,311.967C293.186,311.94 293.289,312.005 293.314,312.108C293.339,312.21 293.276,312.315 293.174,312.34C292.992,312.384 288.738,313.518 289.665,320.667C290.615,328.002 286.131,333.784 277.039,336.948C277.016,336.954 276.995,336.958 276.974,336.958Z" fill="#91B3FA"/>
<path d="M258.322,392.913C258.291,392.913 258.258,392.904 258.228,392.888C248.029,387.222 242.023,380.377 240.374,372.537C238.221,362.302 244.454,353.942 244.516,353.859C244.581,353.775 244.7,353.758 244.786,353.821C244.872,353.886 244.887,354.005 244.824,354.091C244.761,354.172 238.635,362.401 240.753,372.462C242.378,380.186 248.322,386.946 258.417,392.551C258.509,392.603 258.542,392.72 258.492,392.812C258.456,392.877 258.389,392.913 258.322,392.913Z" fill="#91B3FA"/>
<path d="M321.649,428.293C321.649,428.293 305.788,413.19 297.98,403.187C293.76,397.779 292.434,390.662 294.386,384.086C297.951,372.077 304.286,359.639 304.863,357.702C305.748,354.735 323.534,354.859 323.534,354.859C323.534,354.859 358.531,377.571 372.281,416.046L356.839,420.853C356.839,420.853 347.7,405.524 338.673,395.777C338.673,395.777 354.295,416.416 354.845,424.864L321.649,428.293Z" fill="#FF3874"/>
<path d="M302.711,341.118C302.897,341.735 307.537,357.123 307.902,357.443C308.266,357.763 318.082,358.29 322.701,355.133L311.239,332.714L302.711,341.118Z" fill="url(#pf_0_310_514)"/>
<path d="M309.836,313.183C309.836,313.183 318.119,316.943 323.494,329.198C328.868,341.454 324.466,346.931 319.102,347.557C313.738,348.183 305.752,347.854 297.507,339.81C289.264,331.763 299.057,308.7 309.836,313.183Z" fill="url(#pf_0_310_516)"/>
<path d="M303.36,333.498C303.36,333.498 297.51,315.621 313.218,315.828L316.844,318.508C316.844,318.508 322.865,308.842 313.534,303.903C304.203,298.965 293.033,302.543 288.671,315.175C284.309,327.808 283.395,336.318 289.929,342.591C296.46,348.863 299.404,342.026 299.404,342.026C299.404,342.026 295.91,336.228 297.475,333.218C299.04,330.207 302.366,333.979 302.366,333.979L303.36,333.498Z" fill="url(#pf_0_310_517)"/>
<path d="M301.546,335.423C301.546,335.423 298.592,326.215 294.234,329.734C289.874,333.253 297.475,338.253 300.458,339.887L301.546,335.423Z" fill="url(#pf_0_310_518)"/>
<path d="M107.152,488.956C107.546,490.414 109.048,491.279 110.508,490.883L110.983,490.755C112.441,490.362 113.305,488.86 112.91,487.4L104.066,454.691C103.673,453.233 102.171,452.369 100.711,452.764L100.236,452.892C98.777,453.285 97.913,454.787 98.309,456.248L107.152,488.956Z" fill="#ACABFF"/>
<path d="M111.53,493.229C109.735,495.886 102.597,556.048 101.482,578.266C101.407,579.768 102.607,581.021 104.112,581.021C105.409,581.021 106.513,580.076 106.714,578.793L119.767,495.141L111.53,493.229Z" fill="#ACABFF"/>
<path d="M168.911,493.229C170.706,495.886 177.844,556.048 178.959,578.266C179.034,579.768 177.834,581.021 176.329,581.021C175.032,581.021 173.928,580.076 173.729,578.793L160.674,495.141L168.911,493.229Z" fill="#ACABFF"/>
<path d="M100.735,488.534L100.729,489.191C100.685,493.911 104.752,497.781 109.842,497.869L170.18,498.896C175.197,498.982 179.381,495.354 179.624,490.71L179.655,490.109C179.908,485.264 175.793,481.18 170.561,481.088L110.198,480.006C105.032,479.908 100.777,483.743 100.735,488.534Z" fill="#ACABFF"/>
<path d="M88.75,394.371C88.949,388.822 99.763,390.498 102.973,390.613C114.521,391.028 111.894,405.658 112.023,413.409C112.205,424.305 111.318,435.352 110.511,446.216C110.253,449.668 109.873,453.101 109.753,456.56C109.594,461.102 103.494,461.665 99.33,461.518C97.146,461.441 95.349,459.775 95.1,457.604C93.598,444.593 88.545,400.133 88.75,394.371Z" fill="#ACABFF"/>
<path d="M172.285,536.191C172.285,534.653 171.04,533.408 169.502,533.408L111.259,533.408C109.721,533.408 108.477,534.653 108.477,536.191L108.477,536.297C108.477,537.835 109.721,539.08 111.259,539.08L169.504,539.08C171.042,539.08 172.287,537.835 172.287,536.297L172.287,536.191L172.285,536.191Z" fill="#ACABFF"/>
<path d="M187.998,308.892C187.998,308.892 161.013,306.258 147.895,340.843C142.192,355.88 132.367,365.127 120.39,375.117C95.983,395.476 94.023,445.695 134.38,446.185C166.986,446.58 194.812,418.405 189.242,399.103C183.673,379.799 197.598,320.041 198.778,316.721C199.958,313.403 195.55,308.591 189.242,308.846L187.998,308.892Z" fill="url(#pf_0_310_529)"/>
<path d="M162.944,448.44C162.944,448.44 185.039,420.881 192.541,411.269C196.598,406.072 197.87,399.231 195.995,392.913C192.571,381.372 186.482,369.418 185.928,367.558C185.077,364.706 167.986,364.826 167.986,364.826C167.986,364.826 134.355,386.653 121.141,423.628L135.98,428.247C135.98,428.247 144.761,413.514 153.437,404.148C153.437,404.148 127.693,440.323 127.164,448.44L162.944,448.44L162.944,448.44Z" fill="#FF3874"/>
<path d="M187.995,351.622C187.817,352.214 183.355,367.003 183.008,367.311C182.658,367.618 173.225,368.125 168.785,365.091L179.8,343.546L187.995,351.622Z" fill="url(#pf_0_310_531)"/>
<path d="M194.252,321.125C194.252,321.125 201.032,326.642 203.037,339.345C205.039,352.049 199.612,356.064 194.473,355.336C189.335,354.608 181.992,352.352 176.293,342.862C170.594,333.372 185.327,314.327 194.252,321.125Z" fill="url(#pf_0_310_532)"/>
<path d="M183.272,338.425C183.272,338.425 182.199,320.38 196.748,324.407L199.464,327.784C199.464,327.784 207.42,320.269 199.953,313.403C192.486,306.534 181.231,307.132 174.092,317.809C166.954,328.485 164.027,336.171 168.567,343.596C173.107,351.021 177.511,345.385 177.511,345.385C177.511,345.385 175.678,339.142 177.868,336.728C180.059,334.312 182.228,338.63 182.228,338.63L183.272,338.425Z" fill="url(#pf_0_310_533)"/>
<path d="M181.117,339.772C181.117,339.772 180.62,330.493 175.709,332.701C170.797,334.908 176.642,341.41 179.017,343.657L181.117,339.772Z" fill="url(#pf_0_310_534)"/>
<path d="M200.849,436.473L189.649,425.68L174.157,432.224C174.157,432.224 158.736,434.613 149.909,432.224C141.082,429.834 141.082,429.834 141.082,429.834L121.138,423.625L118.006,432.477C117.211,434.724 118.01,437.22 119.954,438.601C121.68,439.827 123.703,441.174 124.992,441.739C127.617,442.887 189.739,440.944 189.739,440.944L200.849,436.473Z" fill="url(#pf_0_310_535)"/>
<path d="M203.653,460.131C203.653,460.131 213.028,461.585 223.568,468.629C225.227,469.738 226.137,471.671 225.886,473.651C224.625,483.647 219.434,516.006 202.322,547.61C201.421,549.277 201.161,551.217 201.559,553.068L204.532,566.904L210.045,572.073L195.843,572.073L186.389,546.487L190.433,545.208C193.567,544.217 195.718,541.334 195.774,538.047L196.249,510.6C195.845,498.371 203.747,489.934 203.747,489.934L181.068,488.831L203.653,460.131Z" fill="url(#pf_0_310_537)"/>
<path d="M215.591,574.569C216.884,576.262 201.672,578.496 193.985,574.793C193.985,574.793 183.332,556.257 183.332,546.712C183.332,546.712 184.177,544.767 190.433,545.208C190.433,545.208 194.01,567.157 197.787,569.615C201.563,572.073 208.354,569.864 208.354,569.864C208.354,569.864 213.683,572.073 215.591,574.569Z" fill="url(#pf_0_310_538)"/>
<path d="M183.939,490.335C184.061,490.126 208.357,487.415 208.357,487.415C208.357,487.415 207.562,494.802 210.047,504.972C212.533,515.142 248.206,559.2 248.206,559.2L244.465,571.056C256.03,575.086 267.405,575.728 278.601,573.111L255.42,559.2C255.42,559.2 233.726,485.27 220.437,472.081L196.082,463.656L183.939,490.335Z" fill="url(#pf_0_310_539)"/>
<path d="M245.876,567.062C245.876,567.062 241.848,570.962 244.568,575.301C244.568,575.301 276.469,580.956 285.129,578.391C285.129,578.391 283.329,574.286 273.578,569.615L274.298,570.167C275.208,570.866 274.674,572.322 273.528,572.257C267.103,571.891 253.803,570.713 245.876,567.062Z" fill="url(#pf_0_310_540)"/>
<path d="M129.448,443.794C129.448,443.794 115.45,464.615 114.301,474.111C113.153,483.609 118.136,487.467 132.823,488.103C147.51,488.739 189.332,490.978 189.332,490.978L217.701,463.652C217.701,463.652 172.262,448.643 165.923,446.183C159.581,443.725 129.448,443.794 129.448,443.794Z" fill="#FF3874"/>
<path d="M113.002,423.803C112.935,423.803 112.87,423.766 112.841,423.701C108.201,413.7 112.86,401.08 116.05,394.448C118.969,388.383 123.4,383.216 126.936,379.391C127.001,379.32 127.116,379.316 127.187,379.381C127.258,379.448 127.262,379.558 127.197,379.632C123.678,383.439 119.268,388.58 116.371,394.601C113.207,401.177 108.584,413.684 113.161,423.55C113.203,423.638 113.163,423.745 113.075,423.786C113.054,423.797 113.027,423.803 113.002,423.803Z" fill="#91B3FA"/>
<path d="M200.362,320.746C200.362,320.746 200.36,320.746 200.358,320.746C200.26,320.744 200.183,320.664 200.185,320.566C200.226,318.252 199.515,316.346 198.074,314.901C194.925,311.748 189.293,311.808 189.239,311.802L189.236,311.802C189.14,311.802 189.061,311.725 189.059,311.628C189.057,311.53 189.134,311.451 189.232,311.448C189.456,311.455 195.069,311.392 198.323,314.652C199.835,316.166 200.582,318.16 200.538,320.574C200.538,320.669 200.459,320.746 200.362,320.746Z" fill="#91B3FA"/>
<path d="M426.212,583.998C426.536,583.998 426.865,583.927 427.181,583.775C428.426,583.176 429.001,581.563 428.465,580.172L376.988,446.496C376.453,445.105 375.011,444.463 373.764,445.061C372.519,445.66 371.944,447.273 372.48,448.664L423.957,582.339C424.356,583.377 425.262,583.998 426.212,583.998Z" fill="#01008A"/>
<path d="M368.219,583.998C369.171,583.998 370.075,583.377 370.475,582.339L421.952,448.664C422.487,447.273 421.912,445.66 420.667,445.061C419.422,444.463 417.979,445.105 417.443,446.496L365.966,580.172C365.43,581.563 366.006,583.176 367.251,583.775C367.566,583.927 367.897,583.998 368.219,583.998Z" fill="#01008A"/>
<path d="M264.566,583.998C264.89,583.998 265.218,583.927 265.534,583.775C266.779,583.176 267.354,581.563 266.819,580.172L215.342,446.496C214.806,445.105 213.365,444.463 212.118,445.061C210.873,445.66 210.298,447.273 210.833,448.664L262.31,582.339C262.71,583.377 263.614,583.998 264.566,583.998Z" fill="#01008A"/>
<path d="M206.573,584C207.525,584 208.428,583.379 208.828,582.341L260.305,448.666C260.841,447.274 260.266,445.661 259.021,445.063C257.776,444.465 256.332,445.107 255.797,446.498L204.319,580.176C203.784,581.567 204.359,583.18 205.604,583.779C205.92,583.929 206.248,584 206.573,584Z" fill="#01008A"/>
<path d="M180.202,438.45C180.047,437.574 180.259,436.666 180.773,435.977C181.29,435.289 182.058,434.889 182.87,434.889L457.606,434.889C458.672,434.889 459.666,435.488 460.24,436.477C460.814,437.467 460.892,438.712 460.444,439.777L457.468,446.873C456.786,448.499 455.308,449.539 453.682,449.539L184.755,449.539C183.242,449.539 181.943,448.357 181.656,446.723L180.202,438.45Z" fill="#01008A"/>
<path d="M177.833,492.744C172.284,492.089 166.485,491.007 167.274,489.509C170.527,483.342 175.87,453.934 178.004,446.549C179.312,442.026 178.41,434.371 184.178,434.352C184.32,434.352 455.303,433.469 455.303,433.469C467.341,433.429 462.997,465.194 464.793,473.46C466.151,479.714 466.521,492.386 469.003,496.315C461.477,502.474 450.127,498.175 441.511,495.635C434.091,493.449 411.531,494.168 407.935,495.269C385.217,502.215 361.102,503.47 337.896,498.92C329.379,497.25 320.969,494.807 312.355,493.924C307.263,493.403 302.068,493.445 297.033,494.518C292.283,495.53 288.187,498.173 283.542,499.252C272.887,501.729 261.169,501.964 250.443,500.02C235.538,497.317 221.205,489.672 206.123,490.518C199.735,490.875 185.737,493.451 184.268,493.346C182.523,493.225 180.201,493.024 177.833,492.744Z" fill="#01008A"/>
<path d="M204.225,433.452C204.539,433.452 204.855,433.441 205.175,433.423L204.93,429.433C202.039,429.607 199.641,428.736 198.005,426.904C196.176,424.855 195.427,421.707 195.996,418.479C196.174,417.476 196.612,415.752 197.553,415.453C198.986,415.001 202.011,416.999 203.645,418.619L206.459,415.778C205.522,414.849 200.622,410.281 196.344,411.643C194.095,412.359 192.655,414.424 192.061,417.784C191.268,422.274 192.348,426.567 195.024,429.565C197.277,432.09 200.518,433.452 204.225,433.452Z" fill="url(#pf_0_310_554)"/>
<path d="M204.372,410.043L229.927,410.043C230.377,410.043 229.712,410.367 229.712,410.817L229.712,430.215C229.712,434.065 227.62,436.276 223.77,436.276L210.529,436.276C206.68,436.276 202.771,434.065 202.771,430.215L202.771,410.817C202.769,410.365 203.922,410.043 204.372,410.043Z" fill="url(#pf_0_310_555)"/>
<path d="M278.178,433.452C278.492,433.452 278.808,433.441 279.128,433.422L278.883,429.433C275.992,429.606 273.594,428.736 271.958,426.903C270.132,424.855 269.381,421.706 269.95,418.478C270.127,417.476 270.565,415.752 271.506,415.453C272.939,415.001 275.965,416.999 277.598,418.618L280.412,415.777C279.475,414.848 274.575,410.281 270.297,411.643C268.048,412.359 266.608,414.424 266.014,417.784C265.221,422.273 266.301,426.566 268.977,429.565C271.23,432.09 274.471,433.452 278.178,433.452Z" fill="url(#pf_0_310_558)"/>
<path d="M278.325,410.043L303.881,410.043C304.331,410.043 303.452,410.367 303.452,410.817L303.452,430.215C303.452,434.065 301.573,436.276 297.724,436.276L284.483,436.276C280.633,436.276 277.221,434.065 277.221,430.215L277.221,410.817C277.221,410.365 277.876,410.043 278.325,410.043Z" fill="url(#pf_0_310_559)"/>
<path d="M289.334,429.414L300.987,418.182L317.109,424.991C317.109,424.991 333.156,427.477 342.341,424.991C351.525,422.506 351.525,422.506 351.525,422.506L372.279,416.045L375.539,425.257C376.367,427.596 375.535,430.193 373.511,431.63C371.716,432.906 369.612,434.308 368.271,434.896C365.538,436.092 300.895,434.069 300.895,434.069L289.334,429.414Z" fill="url(#pf_0_310_560)"/>
<path d="M394.375,435.691C394.061,435.691 393.745,435.68 393.425,435.661L393.67,431.672C396.561,431.845 398.959,430.975 400.595,429.142C402.424,427.094 403.173,423.945 402.603,420.717C402.426,419.715 401.988,417.991 401.047,417.692C399.614,417.24 396.589,419.238 394.955,420.857L392.141,418.016C393.078,417.087 397.978,412.52 402.256,413.882C404.505,414.598 405.945,416.663 406.539,420.023C407.332,424.512 406.252,428.805 403.576,431.804C401.323,434.329 398.08,435.691 394.375,435.691Z" fill="url(#pf_0_310_563)"/>
<path d="M394.23,412.878L368.675,412.878C368.225,412.878 368.681,412.606 368.681,413.056L368.681,432.454C368.681,436.304 370.98,438.402 374.832,438.402L388.073,438.402C391.923,438.402 395.624,436.304 395.624,432.454L395.624,413.056C395.624,412.606 394.68,412.878 394.23,412.878Z" fill="url(#pf_0_310_564)"/>
<defs>
<linearGradient id="pf_0_310_462" x1="482.704" y1="-113.702" x2="423.151" y2="-10.548" gradientUnits="userSpaceOnUse">
<stop stop-color="#09005D"/>
<stop offset="1" stop-color="#1A0F91"/>
</linearGradient>
<linearGradient id="pf_0_310_467" x1="57.476" y1="765.366" x2="695.867" y2="76.861" gradientUnits="userSpaceOnUse">
<stop stop-color="#53D8FF"/>
<stop offset="1" stop-color="#3840F7"/>
</linearGradient>
<linearGradient id="pf_0_310_480" x1="329.062" y1="546.02" x2="342.33" y2="462.562" gradientUnits="userSpaceOnUse">
<stop stop-color="#C32B78"/>
<stop offset="1" stop-color="#593092"/>
</linearGradient>
<linearGradient id="pf_0_310_482" x1="387.564" y1="437.986" x2="354.635" y2="437.986" gradientUnits="userSpaceOnUse">
<stop stop-color="#FEBBBA"/>
<stop offset="1" stop-color="#FF928E"/>
</linearGradient>
<linearGradient id="pf_0_310_484" x1="311.98" y1="-37.829" x2="300.282" y2="-114.046" gradientUnits="userSpaceOnUse">
<stop stop-color="#09005D"/>
<stop offset="1" stop-color="#1A0F91"/>
</linearGradient>
<linearGradient id="pf_0_310_485" x1="394.266" y1="492.034" x2="406.324" y2="575.344" gradientUnits="userSpaceOnUse">
<stop stop-color="#4F52FF"/>
<stop offset="1" stop-color="#4042E2"/>
</linearGradient>
<linearGradient id="pf_0_310_488" x1="249.63" y1="-28.261" x2="237.932" y2="-104.478" gradientUnits="userSpaceOnUse">
<stop stop-color="#09005D"/>
<stop offset="1" stop-color="#1A0F91"/>
</linearGradient>
<linearGradient id="pf_0_310_489" x1="334.539" y1="500.679" x2="346.596" y2="583.988" gradientUnits="userSpaceOnUse">
<stop stop-color="#4F52FF"/>
<stop offset="1" stop-color="#4042E2"/>
</linearGradient>
<linearGradient id="pf_0_310_491" x1="369.503" y1="564.6" x2="355.247" y2="564.6" gradientUnits="userSpaceOnUse">
<stop stop-color="#A22B25"/>
<stop offset="1" stop-color="#C0423C"/>
</linearGradient>
<linearGradient id="pf_0_310_495" x1="444.261" y1="395.545" x2="454.745" y2="395.545" gradientUnits="userSpaceOnUse">
<stop stop-color="#E1473D"/>
<stop offset="1" stop-color="#E9605A"/>
</linearGradient>
<linearGradient id="pf_0_310_498" x1="450.566" y1="305.647" x2="414.329" y2="352.302" gradientUnits="userSpaceOnUse">
<stop stop-color="#09005D"/>
<stop offset="1" stop-color="#1A0F91"/>
</linearGradient>
<linearGradient id="pf_0_310_499" x1="195.952" y1="-711.94" x2="209.188" y2="-656.803" gradientUnits="userSpaceOnUse">
<stop stop-color="#A22B25"/>
<stop offset="1" stop-color="#C0423C"/>
</linearGradient>
<linearGradient id="pf_0_310_502" x1="264.609" y1="497.904" x2="308.257" y2="497.904" gradientUnits="userSpaceOnUse">
<stop stop-color="#FEBBBA"/>
<stop offset="1" stop-color="#FF928E"/>
</linearGradient>
<linearGradient id="pf_0_310_503" x1="225.388" y1="622.555" x2="352.535" y2="477.919" gradientUnits="userSpaceOnUse">
<stop stop-color="#4F52FF"/>
<stop offset="1" stop-color="#4042E2"/>
</linearGradient>
<linearGradient id="pf_0_310_504" x1="213.358" y1="500.886" x2="305.464" y2="500.886" gradientUnits="userSpaceOnUse">
<stop stop-color="#FEBBBA"/>
<stop offset="1" stop-color="#FF928E"/>
</linearGradient>
<linearGradient id="pf_0_310_505" x1="270.189" y1="452.838" x2="373.374" y2="452.838" gradientUnits="userSpaceOnUse">
<stop stop-color="#FDF53F"/>
<stop offset="0.664" stop-color="#E57A58"/>
<stop offset="1" stop-color="#D93C65"/>
</linearGradient>
<linearGradient id="pf_0_310_506" x1="193.57" y1="594.585" x2="320.717" y2="449.949" gradientUnits="userSpaceOnUse">
<stop stop-color="#4F52FF"/>
<stop offset="1" stop-color="#4042E2"/>
</linearGradient>
<linearGradient id="pf_0_310_509" x1="315.276" y1="296.59" x2="364.165" y2="202.922" gradientUnits="userSpaceOnUse">
<stop stop-color="#09005D"/>
<stop offset="1" stop-color="#1A0F91"/>
</linearGradient>
<linearGradient id="pf_0_310_514" x1="317.73" y1="380.362" x2="311.512" y2="340.467" gradientUnits="userSpaceOnUse">
<stop stop-color="#FEBBBA"/>
<stop offset="1" stop-color="#FF928E"/>
</linearGradient>
<linearGradient id="pf_0_310_516" x1="-974.974" y1="-2295.574" x2="-1021.361" y2="-2390.502" gradientUnits="userSpaceOnUse">
<stop stop-color="#FEBBBA"/>
<stop offset="1" stop-color="#FF928E"/>
</linearGradient>
<linearGradient id="pf_0_310_517" x1="-976.88" y1="-2294.6" x2="-1023.267" y2="-2389.528" gradientUnits="userSpaceOnUse">
<stop stop-color="#09005D"/>
<stop offset="1" stop-color="#1A0F91"/>
</linearGradient>
<linearGradient id="pf_0_310_518" x1="-985.26" y1="-2290.537" x2="-1031.647" y2="-2385.465" gradientUnits="userSpaceOnUse">
<stop stop-color="#FEBBBA"/>
<stop offset="1" stop-color="#FF928E"/>
</linearGradient>
<linearGradient id="pf_0_310_529" x1="213.337" y1="302.765" x2="87.522" y2="495.363" gradientUnits="userSpaceOnUse">
<stop stop-color="#09005D"/>
<stop offset="1" stop-color="#1A0F91"/>
</linearGradient>
<linearGradient id="pf_0_310_531" x1="173.561" y1="389.334" x2="179.535" y2="350.996" gradientUnits="userSpaceOnUse">
<stop stop-color="#FEBBBA"/>
<stop offset="1" stop-color="#FF928E"/>
</linearGradient>
<linearGradient id="pf_0_310_532" x1="203.968" y1="333.931" x2="158.994" y2="348.5" gradientUnits="userSpaceOnUse">
<stop stop-color="#FEBBBA"/>
<stop offset="1" stop-color="#FF928E"/>
</linearGradient>
<linearGradient id="pf_0_310_533" x1="204.011" y1="296.675" x2="78.196" y2="489.273" gradientUnits="userSpaceOnUse">
<stop stop-color="#09005D"/>
<stop offset="1" stop-color="#1A0F91"/>
</linearGradient>
<linearGradient id="pf_0_310_534" x1="202.683" y1="329.961" x2="157.708" y2="344.531" gradientUnits="userSpaceOnUse">
<stop stop-color="#FEBBBA"/>
<stop offset="1" stop-color="#FF928E"/>
</linearGradient>
<linearGradient id="pf_0_310_535" x1="149.025" y1="432.865" x2="65.878" y2="432.865" gradientUnits="userSpaceOnUse">
<stop stop-color="#FEBBBA"/>
<stop offset="1" stop-color="#FF928E"/>
</linearGradient>
<linearGradient id="pf_0_310_537" x1="225.927" y1="516.102" x2="181.069" y2="516.102" gradientUnits="userSpaceOnUse">
<stop stop-color="#FEBBBA"/>
<stop offset="1" stop-color="#FF928E"/>
</linearGradient>
<linearGradient id="pf_0_310_538" x1="-92.942" y1="-504.552" x2="-68.836" y2="-416.636" gradientUnits="userSpaceOnUse">
<stop stop-color="#09005D"/>
<stop offset="1" stop-color="#1A0F91"/>
</linearGradient>
<linearGradient id="pf_0_310_539" x1="278.598" y1="519.167" x2="183.939" y2="519.167" gradientUnits="userSpaceOnUse">
<stop stop-color="#FEBBBA"/>
<stop offset="1" stop-color="#FF928E"/>
</linearGradient>
<linearGradient id="pf_0_310_540" x1="-36.083" y1="-520.148" x2="-11.977" y2="-432.232" gradientUnits="userSpaceOnUse">
<stop stop-color="#09005D"/>
<stop offset="1" stop-color="#1A0F91"/>
</linearGradient>
<linearGradient id="pf_0_310_554" x1="191.806" y1="422.421" x2="206.46" y2="422.421" gradientUnits="userSpaceOnUse">
<stop stop-color="#DAE3FE"/>
<stop offset="1" stop-color="#E9EFFD"/>
</linearGradient>
<linearGradient id="pf_0_310_555" x1="202.77" y1="423.159" x2="230.084" y2="423.159" gradientUnits="userSpaceOnUse">
<stop stop-color="#DAE3FE"/>
<stop offset="1" stop-color="#E9EFFD"/>
</linearGradient>
<linearGradient id="pf_0_310_558" x1="265.759" y1="422.421" x2="280.413" y2="422.421" gradientUnits="userSpaceOnUse">
<stop stop-color="#DAE3FE"/>
<stop offset="1" stop-color="#E9EFFD"/>
</linearGradient>
<linearGradient id="pf_0_310_559" x1="277.22" y1="423.159" x2="304.009" y2="423.159" gradientUnits="userSpaceOnUse">
<stop stop-color="#DAE3FE"/>
<stop offset="1" stop-color="#E9EFFD"/>
</linearGradient>
<linearGradient id="pf_0_310_560" x1="343.261" y1="425.659" x2="429.783" y2="425.659" gradientUnits="userSpaceOnUse">
<stop stop-color="#FEBBBA"/>
<stop offset="1" stop-color="#FF928E"/>
</linearGradient>
<linearGradient id="pf_0_310_563" x1="392.139" y1="424.661" x2="406.793" y2="424.661" gradientUnits="userSpaceOnUse">
<stop stop-color="#DAE3FE"/>
<stop offset="1" stop-color="#E9EFFD"/>
</linearGradient>
<linearGradient id="pf_0_310_564" x1="368.476" y1="425.6" x2="395.623" y2="425.6" gradientUnits="userSpaceOnUse">
<stop stop-color="#DAE3FE"/>
<stop offset="1" stop-color="#E9EFFD"/>
</linearGradient>
</defs>
</svg>
