<svg width="160" height="290" viewBox="0 0 160 290" fill="none" xmlns="http://www.w3.org/2000/svg" xmlns:xlink="http://www.w3.org/1999/xlink">
<path d="M25.239,73.475C27.029,69.151 27.773,64.922 27.435,60.909C26.657,51.594 28.395,45.618 29.987,42.245C31.708,38.604 33.636,37.134 33.654,37.116L32.988,36.208C32.901,36.269 30.86,37.817 29.018,41.674C27.34,45.186 25.515,51.378 26.32,61.004C26.916,68.182 23.777,74.997 20.343,80.16C20.17,80.42 20.24,80.766 20.499,80.939C20.759,81.112 21.113,81.042 21.286,80.783C22.912,78.327 24.235,75.888 25.239,73.475Z" fill="#01008A"/>
<path d="M34.344,36.632C34.508,36.399 34.785,36.278 35.071,36.303C35.615,36.355 36.152,36.373 36.688,36.373C36.748,36.269 36.8,36.156 36.861,36.053C36.844,36.044 36.826,36.035 36.809,36.027C34.05,34.851 31.75,32.922 30.046,30.509C28.16,27.828 27.01,24.55 26.803,21.065C26.682,19.024 26.88,16.913 27.434,14.803C27.546,14.362 27.685,13.938 27.823,13.515C28.619,11.154 29.821,9.043 31.308,7.253C33.107,5.1 35.321,3.404 37.769,2.306C39.542,1.51 41.436,1.043 43.364,0.922C42.923,0.767 42.474,0.62 42.015,0.499C40.986,0.222 39.948,0.075 38.919,0.023C36.351,-0.115 33.808,0.377 31.473,1.424C29.025,2.522 26.811,4.209 25.012,6.371C23.525,8.161 22.323,10.271 21.527,12.632C21.38,13.056 21.25,13.48 21.129,13.921C20.567,16.031 20.368,18.142 20.498,20.183C20.705,23.668 21.856,26.946 23.741,29.627C25.35,31.91 27.503,33.752 30.063,34.946C30.063,34.946 31.507,35.551 31.265,36.987C31.205,37.333 31.378,37.687 31.698,37.826C31.897,37.912 32.113,38.025 32.32,38.172C32.684,38.422 33.177,38.336 33.427,37.981L34.344,36.632Z" fill="#DE8500"/>
<path d="M43.755,34.678C46.618,33.259 49.143,31.019 50.994,28.165C52.092,26.47 52.957,24.55 53.511,22.466C53.614,22.059 53.71,21.661 53.787,21.255C54.272,18.842 54.298,16.446 53.917,14.172C53.45,11.413 52.395,8.844 50.847,6.674C48.996,4.07 46.436,2.029 43.366,0.914C41.429,1.035 39.543,1.51 37.77,2.297C35.323,3.396 33.109,5.082 31.31,7.244C29.822,9.035 28.62,11.145 27.824,13.506C27.677,13.93 27.548,14.354 27.435,14.795C26.873,16.905 26.674,19.015 26.804,21.056C27.012,24.541 28.162,27.819 30.047,30.5C31.751,32.913 34.051,34.842 36.81,36.018C36.828,36.027 36.845,36.035 36.862,36.044C36.802,36.156 36.75,36.26 36.689,36.364C39.145,36.355 41.55,35.767 43.755,34.678Z" fill="#F29305"/>
<g opacity="0.32">
<g opacity="0.32">
<path d="M44.49,5.229C44.776,5.048 45.156,5.056 45.433,5.281C48.728,7.928 50.89,11.595 51.504,15.616C52.127,19.664 51.115,23.573 48.667,26.634C48.382,26.989 47.872,27.041 47.526,26.764C47.171,26.487 47.119,25.969 47.405,25.623C49.567,22.924 50.458,19.456 49.904,15.867C49.351,12.252 47.396,8.94 44.421,6.553C44.066,6.276 44.015,5.757 44.3,5.411C44.343,5.333 44.412,5.273 44.49,5.229Z" fill="#FFFFFF"/>
</g>
</g>
<path d="M21.848,72.895C21.476,69.868 20.542,67.231 19.064,65.06C15.63,60.026 14.705,56.074 14.523,53.652C14.333,51.032 14.955,49.579 14.955,49.57L14.29,49.268C14.264,49.328 13.598,50.859 13.788,53.644C13.961,56.169 14.912,60.277 18.458,65.475C21.096,69.35 21.502,74.227 21.208,78.258C21.191,78.456 21.347,78.629 21.546,78.647C21.745,78.664 21.926,78.508 21.944,78.301C22.082,76.398 22.056,74.582 21.848,72.895Z" fill="#01008A"/>
<path d="M15.198,49.069C15.215,48.887 15.336,48.723 15.5,48.654C15.82,48.507 16.14,48.351 16.443,48.169C16.443,48.092 16.434,48.014 16.434,47.936C16.417,47.936 16.408,47.936 16.391,47.936C14.454,48.152 12.525,47.797 10.787,46.976C8.858,46.059 7.154,44.572 5.918,42.66C5.191,41.545 4.629,40.282 4.266,38.907C4.197,38.613 4.136,38.327 4.076,38.042C3.773,36.451 3.773,34.868 4.05,33.372C4.378,31.573 5.096,29.904 6.125,28.494C6.878,27.473 7.794,26.6 8.858,25.908C8.555,25.96 8.261,26.02 7.959,26.098C7.284,26.288 6.653,26.531 6.047,26.833C4.543,27.577 3.263,28.675 2.277,30.016C1.239,31.426 0.53,33.095 0.201,34.894C-0.067,36.39 -0.076,37.973 0.227,39.564C0.279,39.849 0.339,40.135 0.417,40.42C0.78,41.795 1.343,43.058 2.069,44.174C3.306,46.085 5.01,47.573 6.938,48.489C8.581,49.268 10.398,49.622 12.231,49.484C12.231,49.484 13.243,49.363 13.563,50.262C13.641,50.479 13.848,50.626 14.073,50.6C14.212,50.582 14.376,50.582 14.532,50.6C14.817,50.626 15.068,50.418 15.094,50.133L15.198,49.069Z" fill="#22D1B0"/>
<path d="M19.911,44.952C21.079,43.231 21.796,41.147 21.935,38.933C22.013,37.618 21.892,36.252 21.537,34.885C21.468,34.626 21.39,34.366 21.303,34.107C20.802,32.585 20.049,31.218 19.107,30.051C17.956,28.632 16.538,27.517 14.955,26.782C13.07,25.899 10.968,25.562 8.867,25.908C7.812,26.6 6.886,27.473 6.134,28.494C5.096,29.904 4.387,31.573 4.058,33.372C3.781,34.868 3.781,36.451 4.084,38.042C4.136,38.327 4.197,38.613 4.274,38.898C4.638,40.273 5.2,41.536 5.926,42.652C7.163,44.563 8.867,46.05 10.795,46.967C12.534,47.789 14.462,48.143 16.4,47.927C16.417,47.927 16.426,47.927 16.443,47.927C16.443,48.005 16.452,48.083 16.452,48.161C17.835,47.374 19.012,46.275 19.911,44.952Z" fill="#23D9B7"/>
<g opacity="0.2">
<g opacity="0.2">
<path d="M10.882,28.001C10.986,27.811 11.202,27.69 11.436,27.724C14.16,28.165 16.555,29.558 18.199,31.642C19.851,33.735 20.534,36.278 20.119,38.803C20.075,39.088 19.799,39.287 19.513,39.244C19.228,39.201 19.029,38.924 19.072,38.639C19.435,36.416 18.83,34.159 17.36,32.299C15.881,30.423 13.719,29.177 11.263,28.771C10.977,28.727 10.778,28.451 10.821,28.165C10.83,28.113 10.847,28.053 10.882,28.001Z" fill="#FDE2DE"/>
</g>
</g>
<path d="M91.997,224.954C96.771,224.954 100.632,221.434 100.632,217.101L100.632,169.612C100.632,165.271 96.761,161.759 91.997,161.759C87.223,161.759 83.361,165.279 83.361,169.612L83.361,217.101C83.352,221.434 87.223,224.954 91.997,224.954Z" fill="#01008A"/>
<path d="M70.998,224.954C66.224,224.954 62.363,221.434 62.363,217.101L62.363,169.612C62.363,165.271 66.233,161.759 70.998,161.759C75.772,161.759 79.633,165.279 79.633,169.612L79.633,217.101C79.643,221.434 75.772,224.954 70.998,224.954Z" fill="#01008A"/>
<path d="M89.534,150.767C89.534,150.767 93.604,154.157 97.789,160.635C105.026,171.835 96.305,186.044 82.011,186.321C81.707,186.33 81.412,186.33 81.107,186.33C67.27,186.356 58.178,173.115 64.236,161.803C66.062,158.386 68.354,154.668 71.207,150.767L89.534,150.767L89.534,150.767Z" fill="#01008A"/>
<path d="M87.147,97.31C87.147,97.31 85.872,100.709 88.896,103.529C91.921,106.339 93.604,112.099 89.743,114.27L80.309,112.895L80.737,101.669L87.147,97.31Z" fill="#141370"/>
<path d="M75.24,93.756C75.24,93.756 76.485,109.271 72.662,112.895C68.839,116.527 57.436,109.418 63.589,102.525C63.589,102.525 65.796,99.706 69.724,98.66C73.651,97.613 72.643,94.517 72.643,94.517L75.24,93.756Z" fill="#141370"/>
<path d="M83.932,112.904L72.662,112.904L74.498,97.31L81.65,97.31L83.932,112.904Z" fill="#DC85E6"/>
<path d="M89.534,150.767L71.217,150.767L60.708,129.803C56.742,121.89 63.104,112.895 72.662,112.895L88.82,112.895C98.53,112.895 104.883,122.149 100.632,130.08L89.534,150.767Z" fill="#F29305"/>
<path d="M80.309,102.525C76.485,102.525 73.366,99.68 73.366,96.212L73.366,91.775C73.366,88.299 76.495,85.462 80.309,85.462C84.132,85.462 87.251,88.307 87.251,91.775L87.251,96.212C87.261,99.689 84.132,102.525 80.309,102.525Z" fill="#F493FE"/>
<path d="M82.195,92.507C82.237,92.421 82.2,92.318 82.114,92.277C82.028,92.235 81.925,92.272 81.884,92.358L82.195,92.507ZM82.563,94.863L82.699,94.757L82.699,94.756L82.563,94.863ZM81.744,97.683C81.649,97.688 81.576,97.77 81.582,97.865C81.587,97.96 81.669,98.033 81.764,98.028L81.744,97.683ZM82.04,92.433C81.884,92.358 81.884,92.358 81.884,92.358C81.884,92.358 81.883,92.358 81.883,92.358C81.883,92.358 81.883,92.359 81.883,92.359C81.883,92.359 81.883,92.36 81.883,92.36C81.882,92.361 81.881,92.362 81.881,92.364C81.879,92.367 81.877,92.372 81.875,92.377C81.871,92.387 81.864,92.402 81.857,92.421C81.843,92.458 81.825,92.512 81.807,92.579C81.771,92.715 81.736,92.908 81.736,93.145C81.736,93.622 81.879,94.267 82.426,94.969L82.699,94.756C82.2,94.118 82.082,93.548 82.082,93.145C82.082,92.942 82.112,92.779 82.141,92.668C82.156,92.613 82.17,92.571 82.181,92.543C82.186,92.53 82.19,92.52 82.193,92.514C82.194,92.511 82.195,92.508 82.195,92.507C82.196,92.507 82.196,92.507 82.196,92.507C82.196,92.507 82.196,92.507 82.196,92.507C82.196,92.507 82.196,92.507 82.196,92.507C82.196,92.507 82.196,92.507 82.196,92.507C82.195,92.507 82.195,92.507 82.04,92.433ZM82.426,94.969C82.682,95.299 82.897,95.635 83.043,95.953C83.189,96.273 83.258,96.562 83.238,96.802C83.219,97.034 83.117,97.229 82.897,97.38C82.669,97.536 82.302,97.651 81.744,97.683L81.764,98.028C82.353,97.995 82.791,97.872 83.092,97.665C83.402,97.454 83.555,97.162 83.583,96.831C83.609,96.508 83.516,96.157 83.357,95.81C83.198,95.46 82.966,95.101 82.699,94.757L82.426,94.969Z" fill="#C53CCF"/>
<path d="M78.749,93.453C78.749,93.678 78.549,93.868 78.292,93.868C78.045,93.868 77.836,93.687 77.836,93.453C77.836,93.228 78.036,93.038 78.292,93.038C78.549,93.038 78.749,93.228 78.749,93.453Z" fill="#4A4185"/>
<path d="M84.731,93.453C84.731,93.678 84.531,93.868 84.274,93.868C84.027,93.868 83.818,93.687 83.818,93.453C83.818,93.228 84.018,93.038 84.274,93.038C84.522,93.038 84.731,93.228 84.731,93.453Z" fill="#4A4185"/>
<path d="M78.302,96.662C78.953,96.662 79.481,96.182 79.481,95.589C79.481,94.997 78.953,94.517 78.302,94.517C77.651,94.517 77.123,94.997 77.123,95.589C77.123,96.182 77.651,96.662 78.302,96.662Z" fill="#D97EB0"/>
<path d="M86.633,95.589C86.633,96.177 86.11,96.662 85.454,96.662C84.807,96.662 84.274,96.186 84.274,95.589C84.274,94.993 84.797,94.517 85.454,94.517C86.1,94.517 86.633,95.001 86.633,95.589Z" fill="#D97EB0"/>
<path d="M79.593,98.701C79.52,98.639 79.411,98.648 79.349,98.721C79.288,98.794 79.297,98.903 79.369,98.964L79.593,98.701ZM84.4,98.797C84.471,98.733 84.476,98.624 84.413,98.553C84.349,98.482 84.239,98.476 84.168,98.54L84.4,98.797ZM79.481,98.833C79.369,98.964 79.369,98.964 79.37,98.965C79.37,98.965 79.37,98.965 79.37,98.965C79.37,98.965 79.37,98.965 79.37,98.965C79.371,98.966 79.371,98.966 79.372,98.967C79.374,98.968 79.376,98.97 79.379,98.972C79.384,98.976 79.391,98.983 79.401,98.99C79.421,99.006 79.449,99.028 79.486,99.055C79.56,99.108 79.667,99.181 79.802,99.262C80.073,99.423 80.461,99.614 80.93,99.735C81.875,99.979 83.137,99.931 84.4,98.797L84.168,98.54C83.005,99.585 81.867,99.619 81.016,99.4C80.587,99.29 80.23,99.114 79.979,98.965C79.854,98.89 79.756,98.823 79.69,98.775C79.657,98.751 79.632,98.732 79.616,98.719C79.608,98.712 79.601,98.708 79.598,98.704C79.596,98.703 79.594,98.702 79.594,98.701C79.593,98.701 79.593,98.701 79.593,98.7C79.593,98.7 79.593,98.7 79.593,98.7C79.593,98.7 79.593,98.7 79.593,98.7C79.593,98.701 79.593,98.701 79.481,98.833Z" fill="#C53CCF"/>
<path d="M72.938,110.595L79.101,112.904L83.418,110.595L83.932,112.904L86.633,112.904L79.481,122.244L69.724,113.198L72.662,112.904L72.938,110.595Z" fill="#FBE3F9"/>
<path d="M72.643,94.517C72.643,94.517 81.906,92.657 82.591,85.643C82.582,85.643 71.436,82.738 72.643,94.517Z" fill="#141370"/>
<path d="M75.744,95.148C75.744,96.342 74.678,97.31 73.366,97.31C72.054,97.31 70.988,96.342 70.988,95.148C70.988,93.955 72.054,92.986 73.366,92.986C74.678,92.986 75.744,93.955 75.744,95.148Z" fill="#D97EB0"/>
<path d="M74.26,99.299C74.26,99.299 77.265,103.408 82.372,102.24L82.848,105.483C82.848,105.492 75.458,105.604 74.26,99.299Z" fill="#D97EB0"/>
<path d="M72.77,112.716C72.666,112.657 72.534,112.693 72.475,112.796C72.415,112.9 72.451,113.032 72.555,113.091L72.77,112.716ZM77.845,115.87L77.738,116.058C77.789,116.087 77.85,116.094 77.907,116.077C77.963,116.061 78.01,116.022 78.037,115.969L77.845,115.87ZM79.481,112.705L79.675,112.61C79.639,112.536 79.565,112.489 79.484,112.489C79.402,112.488 79.327,112.533 79.289,112.605L79.481,112.705ZM81.031,115.87L80.837,115.965C80.868,116.028 80.928,116.072 80.997,116.084C81.066,116.095 81.137,116.072 81.186,116.021L81.031,115.87ZM84.087,113.055C84.17,112.969 84.169,112.833 84.083,112.749C83.998,112.666 83.861,112.667 83.777,112.753L84.087,113.055ZM72.555,113.091L77.738,116.058L77.953,115.682L72.77,112.716L72.555,113.091ZM78.037,115.969L79.673,112.804L79.289,112.605L77.653,115.771L78.037,115.969ZM79.287,112.8L80.837,115.965L81.226,115.775L79.675,112.61L79.287,112.8ZM81.186,116.021L84.087,113.055L83.777,112.753L80.877,115.719L81.186,116.021Z" fill="#7E07F3"/>
<path d="M35.734,120.315L65.672,124.233C67.85,124.519 70.018,123.706 71.34,122.106C74.26,118.568 71.607,113.509 66.747,113.345L36.523,112.342C33.784,112.255 31.616,114.434 32.006,116.908C32.272,118.672 33.794,120.056 35.734,120.315Z" fill="#F29305"/>
<path d="M27.184,85.298L31.53,94.067L24.34,96.515L21.288,87.46L27.184,85.298Z" fill="#FBE3F9"/>
<path d="M39.994,114.417C40.879,116.536 39.738,118.914 37.436,119.771C34.925,120.705 32.082,119.477 31.292,117.124L24.34,96.515L31.53,94.067L39.994,114.417Z" fill="#F29305"/>
<path d="M20.612,85.306C20.612,85.306 24.388,85.202 24.977,83.109C25.443,81.484 25.196,77.704 24.188,75.784C23.903,75.248 23.028,75.378 22.942,75.966L22.457,79.417L17.864,74.08C17.464,73.613 16.646,73.899 16.694,74.487C16.799,75.853 17.027,77.704 17.512,79.088C18.387,81.587 20.612,85.306 20.612,85.306Z" fill="#DC85E6"/>
<path d="M26.946,85.877L24.987,83.118L20.089,84.407L21.288,87.46L26.946,85.877Z" fill="#DC85E6"/>
<path d="M118.73,133.358L90.485,123.515C88.43,122.798 86.975,121.128 86.681,119.148C86.024,114.772 91.055,111.52 95.382,113.535L122.316,126.058C124.76,127.191 125.473,130.062 123.818,132.052C122.62,133.461 120.556,133.989 118.73,133.358Z" fill="#F29305"/>
<path d="M144.95,106.564L136.458,112.29L141.431,117.617L148.945,111.062L144.95,106.564Z" fill="#FBE3F9"/>
<path d="M118.169,126.318C116.258,127.779 115.982,130.356 117.542,132.129C119.234,134.058 122.373,134.248 124.332,132.545L141.441,117.626L136.477,112.298L118.169,126.318Z" fill="#F29305"/>
<path d="M150.685,109.488C150.685,109.488 147.442,107.732 148.041,105.639C148.507,104.013 150.742,100.822 152.654,99.585C153.186,99.239 153.89,99.741 153.643,100.294L152.216,103.529L159.083,100.9C159.682,100.675 160.243,101.28 159.891,101.773C159.064,102.923 157.875,104.437 156.714,105.431C154.632,107.222 150.685,109.488 150.685,109.488Z" fill="#DC85E6"/>
<path d="M144.846,107.17L148.041,105.63L151.627,108.934L148.945,111.062L144.846,107.17Z" fill="#DC85E6"/>
<path d="M83.105,218.269L88.021,274.303L94.203,274.381L100.765,218.226C101.07,213.599 97.028,209.698 91.93,209.698C86.814,209.69 82.772,213.625 83.105,218.269Z" fill="#01008A"/>
<path d="M79.89,218.269L72.12,276.932L66.3,279.968L62.23,218.226C61.925,213.599 65.967,209.698 71.065,209.698C76.172,209.69 80.223,213.625 79.89,218.269Z" fill="#01008A"/>
<path d="M91.236,147.593L89.534,150.767L71.759,152.038L69.629,147.593L91.236,147.593Z" fill="#004145"/>
<path d="M89.762,150.335L92.539,153.751L69.115,153.751L70.998,150.335L89.762,150.335Z" fill="#003033"/>
<path d="M87.869,284.88L87.831,287.803L112.948,288.106C112.948,288.106 112.862,287.803 112.406,285.183L87.869,284.88Z" fill="#01008A"/>
<path d="M112.365,285.01C111.88,282.225 103.559,281.516 98.48,281.005C93.402,280.495 94.2,274.381 94.2,274.381L88.019,274.303L87.867,284.88L112.394,285.174C112.384,285.122 112.384,285.07 112.365,285.01Z" fill="#BEBEFF"/>
<path d="M99.358,285.018C99.436,285.055 99.436,285.055 99.436,285.055C99.436,285.055 99.436,285.055 99.436,285.055C99.436,285.055 99.436,285.055 99.436,285.055C99.436,285.055 99.436,285.055 99.436,285.054C99.437,285.054 99.437,285.052 99.438,285.051C99.44,285.047 99.443,285.042 99.446,285.035C99.454,285.02 99.465,284.999 99.481,284.971C99.513,284.916 99.562,284.836 99.63,284.74C99.766,284.546 99.978,284.287 100.282,284.024C100.889,283.5 101.865,282.959 103.336,282.908L103.33,282.735C101.815,282.788 100.803,283.346 100.169,283.893C99.853,284.167 99.631,284.437 99.488,284.64C99.417,284.741 99.365,284.826 99.331,284.885C99.314,284.915 99.301,284.939 99.293,284.955C99.289,284.963 99.285,284.97 99.283,284.974C99.282,284.976 99.281,284.978 99.281,284.979C99.28,284.98 99.28,284.98 99.28,284.981C99.28,284.981 99.28,284.981 99.28,284.981C99.28,284.981 99.28,284.981 99.28,284.981C99.28,284.981 99.28,284.981 99.358,285.018ZM103.336,282.908C104.827,282.856 106.624,282.878 108.051,282.912C108.763,282.93 109.383,282.95 109.824,282.966C110.045,282.975 110.221,282.982 110.342,282.987C110.402,282.989 110.449,282.991 110.481,282.992C110.496,282.993 110.508,282.994 110.516,282.994C110.52,282.994 110.523,282.994 110.525,282.994C110.527,282.994 110.527,282.994 110.528,282.994C110.528,282.994 110.528,282.994 110.528,282.994C110.528,282.994 110.528,282.994 110.528,282.994C110.529,282.994 110.529,282.994 110.532,282.908C110.536,282.822 110.536,282.822 110.536,282.822C110.536,282.822 110.536,282.822 110.536,282.822C110.536,282.822 110.536,282.822 110.536,282.822C110.535,282.822 110.534,282.822 110.533,282.822C110.531,282.821 110.528,282.821 110.524,282.821C110.516,282.821 110.504,282.82 110.488,282.82C110.456,282.818 110.41,282.816 110.349,282.814C110.228,282.809 110.052,282.802 109.831,282.794C109.389,282.777 108.768,282.757 108.055,282.739C106.628,282.705 104.826,282.683 103.33,282.735L103.336,282.908Z" fill="#01008A"/>
<path d="M93.509,281.412L93.536,281.33L93.536,281.33L93.509,281.412ZM91.15,274.337C91.064,274.335 91.064,274.335 91.064,274.335C91.064,274.335 91.064,274.335 91.064,274.336C91.064,274.336 91.064,274.336 91.064,274.336C91.064,274.337 91.064,274.338 91.064,274.34C91.064,274.343 91.064,274.348 91.063,274.354C91.063,274.366 91.063,274.383 91.063,274.407C91.062,274.453 91.062,274.521 91.062,274.607C91.062,274.78 91.066,275.028 91.078,275.328C91.102,275.928 91.161,276.738 91.299,277.574C91.437,278.41 91.655,279.277 91.999,279.99C92.343,280.702 92.82,281.274 93.482,281.494L93.536,281.33C92.938,281.131 92.49,280.608 92.155,279.915C91.821,279.223 91.607,278.374 91.47,277.546C91.333,276.719 91.275,275.917 91.251,275.321C91.239,275.024 91.235,274.778 91.235,274.607C91.235,274.521 91.235,274.454 91.236,274.409C91.236,274.386 91.236,274.369 91.236,274.357C91.237,274.351 91.237,274.347 91.237,274.344C91.237,274.342 91.237,274.341 91.237,274.341C91.237,274.34 91.237,274.34 91.237,274.34C91.237,274.34 91.237,274.34 91.237,274.34C91.237,274.34 91.237,274.34 91.15,274.337ZM93.481,281.494C94.761,281.924 96.254,281.842 97.421,281.655C98.005,281.562 98.51,281.441 98.869,281.345C99.048,281.296 99.192,281.254 99.29,281.223C99.339,281.208 99.377,281.195 99.403,281.187C99.416,281.183 99.426,281.179 99.433,281.177C99.436,281.176 99.439,281.175 99.44,281.175C99.441,281.174 99.442,281.174 99.442,281.174C99.442,281.174 99.443,281.174 99.443,281.174C99.443,281.174 99.443,281.174 99.443,281.174C99.443,281.174 99.443,281.174 99.415,281.092C99.387,281.01 99.387,281.01 99.387,281.01C99.387,281.01 99.387,281.01 99.387,281.01C99.386,281.01 99.386,281.01 99.386,281.01C99.386,281.01 99.385,281.011 99.384,281.011C99.383,281.011 99.381,281.012 99.377,281.013C99.371,281.015 99.362,281.019 99.349,281.023C99.324,281.031 99.287,281.043 99.239,281.058C99.142,281.088 99.001,281.13 98.824,281.178C98.469,281.273 97.97,281.392 97.393,281.484C96.237,281.67 94.777,281.747 93.536,281.33L93.481,281.494Z" fill="#01008A"/>
<path d="M91.446,278.095L95.231,279.358L95.286,279.194L91.501,277.931L91.446,278.095Z" fill="#01008A"/>
<path d="M94.568,277.973L91.896,279.565L91.984,279.713L94.656,278.122L94.568,277.973Z" fill="#01008A"/>
<path d="M65.824,286.592L65.786,289.516L90.903,289.818C90.903,289.818 90.818,289.516 90.361,286.895L65.824,286.592Z" fill="#01008A"/>
<path d="M90.32,286.722C89.835,283.937 81.514,283.228 76.435,282.718C71.357,282.208 72.156,276.093 72.156,276.093L65.974,276.015L65.822,286.592L90.349,286.886C90.339,286.835 90.33,286.774 90.32,286.722Z" fill="#CECEFF"/>
<path d="M77.313,286.731C77.391,286.768 77.391,286.768 77.391,286.768C77.391,286.768 77.391,286.768 77.391,286.768C77.391,286.768 77.391,286.768 77.391,286.768C77.391,286.768 77.391,286.767 77.391,286.767C77.392,286.766 77.392,286.765 77.393,286.763C77.395,286.76 77.398,286.754 77.401,286.747C77.409,286.733 77.42,286.711 77.436,286.684C77.468,286.628 77.517,286.548 77.585,286.452C77.721,286.259 77.933,286 78.237,285.737C78.844,285.212 79.82,284.672 81.291,284.62L81.285,284.448C79.77,284.5 78.758,285.058 78.124,285.606C77.808,285.879 77.586,286.15 77.443,286.352C77.372,286.454 77.32,286.538 77.286,286.598C77.269,286.627 77.256,286.651 77.248,286.667C77.244,286.676 77.24,286.682 77.238,286.686C77.237,286.689 77.236,286.69 77.236,286.692C77.235,286.692 77.235,286.693 77.235,286.693C77.235,286.693 77.235,286.693 77.235,286.694C77.235,286.694 77.235,286.694 77.235,286.694C77.235,286.694 77.235,286.694 77.313,286.731ZM81.291,284.62C82.782,284.569 84.58,284.59 86.006,284.625C86.718,284.642 87.338,284.663 87.779,284.679C88,284.687 88.176,284.694 88.297,284.699C88.358,284.701 88.404,284.703 88.436,284.705C88.451,284.705 88.463,284.706 88.471,284.706C88.476,284.707 88.479,284.707 88.481,284.707C88.482,284.707 88.482,284.707 88.483,284.707C88.483,284.707 88.483,284.707 88.483,284.707C88.483,284.707 88.484,284.707 88.484,284.707C88.484,284.707 88.484,284.707 88.487,284.621C88.491,284.534 88.491,284.534 88.491,284.534C88.491,284.534 88.491,284.534 88.491,284.534C88.491,284.534 88.491,284.534 88.491,284.534C88.49,284.534 88.489,284.534 88.488,284.534C88.486,284.534 88.483,284.534 88.479,284.534C88.471,284.533 88.459,284.533 88.443,284.532C88.412,284.531 88.365,284.529 88.304,284.526C88.183,284.521 88.007,284.514 87.786,284.506C87.344,284.49 86.723,284.469 86.01,284.452C84.583,284.417 82.781,284.396 81.285,284.448L81.291,284.62Z" fill="#01008A"/>
<path d="M71.464,283.124L71.492,283.042L71.491,283.042L71.464,283.124ZM69.105,276.05C69.019,276.048 69.019,276.048 69.019,276.048C69.019,276.048 69.019,276.048 69.019,276.048C69.019,276.048 69.019,276.048 69.019,276.049C69.019,276.05 69.019,276.051 69.019,276.052C69.019,276.055 69.019,276.06 69.019,276.066C69.018,276.078 69.018,276.096 69.018,276.119C69.017,276.165 69.017,276.233 69.017,276.32C69.017,276.493 69.021,276.741 69.033,277.041C69.057,277.641 69.116,278.45 69.254,279.287C69.392,280.122 69.61,280.989 69.954,281.703C70.298,282.415 70.775,282.986 71.437,283.206L71.491,283.042C70.893,282.843 70.445,282.321 70.11,281.627C69.776,280.935 69.562,280.087 69.425,279.258C69.288,278.431 69.23,277.629 69.206,277.034C69.194,276.736 69.19,276.49 69.19,276.319C69.19,276.234 69.19,276.167 69.191,276.121C69.191,276.098 69.191,276.081 69.192,276.069C69.192,276.064 69.192,276.059 69.192,276.056C69.192,276.055 69.192,276.054 69.192,276.053C69.192,276.053 69.192,276.052 69.192,276.052C69.192,276.052 69.192,276.052 69.192,276.052C69.192,276.052 69.192,276.052 69.105,276.05ZM71.436,283.206C72.716,283.637 74.21,283.554 75.376,283.368C75.96,283.274 76.465,283.154 76.824,283.057C77.004,283.009 77.147,282.966 77.245,282.935C77.294,282.92 77.332,282.908 77.358,282.899C77.371,282.895 77.381,282.892 77.388,282.89C77.391,282.888 77.394,282.888 77.395,282.887C77.396,282.887 77.397,282.887 77.397,282.886C77.398,282.886 77.398,282.886 77.398,282.886C77.398,282.886 77.398,282.886 77.398,282.886C77.398,282.886 77.398,282.886 77.37,282.804C77.342,282.723 77.342,282.723 77.342,282.723C77.342,282.723 77.342,282.723 77.342,282.723C77.342,282.723 77.341,282.723 77.341,282.723C77.341,282.723 77.34,282.723 77.34,282.723C77.338,282.724 77.336,282.725 77.333,282.726C77.326,282.728 77.317,282.731 77.304,282.735C77.279,282.743 77.242,282.755 77.194,282.77C77.097,282.8 76.956,282.842 76.779,282.89C76.424,282.986 75.925,283.104 75.348,283.197C74.192,283.382 72.732,283.459 71.492,283.042L71.436,283.206Z" fill="#01008A"/>
<path d="M69.392,279.808L73.187,281.07L73.241,280.906L69.447,279.643L69.392,279.808Z" fill="#01008A"/>
<path d="M72.523,279.686L69.851,281.277L69.939,281.426L72.611,279.834L72.523,279.686Z" fill="#01008A"/>
</svg>
