<svg width="34" height="56" viewBox="0 0 34 56" fill="none" xmlns="http://www.w3.org/2000/svg" xmlns:xlink="http://www.w3.org/1999/xlink">
<path d="M7.989,0C8.757,0.529 8.869,0.796 8.631,1.689C8.412,2.507 8.483,3.31 8.707,4.11C9.065,5.396 9.145,6.685 8.762,7.984C8.549,8.707 8.022,9.09 7.409,8.94C6.761,8.78 6.435,8.181 6.652,7.44C6.959,6.397 6.794,5.389 6.519,4.378C6.233,3.318 6.239,2.26 6.487,1.194C6.609,0.672 6.837,0.247 7.332,0C7.551,0 7.77,0 7.989,0Z" fill="#01008A"/>
<path d="M16.757,0C17.524,0.53 17.637,0.796 17.399,1.689C17.179,2.509 17.251,3.31 17.475,4.11C17.832,5.396 17.911,6.685 17.53,7.982C17.317,8.706 16.789,9.087 16.177,8.937C15.528,8.777 15.202,8.178 15.422,7.436C15.728,6.393 15.563,5.384 15.289,4.373C15.001,3.314 15.008,2.256 15.256,1.189C15.378,0.668 15.606,0.243 16.101,-0.003C16.319,0 16.538,0 16.757,0Z" fill="#01008A"/>
<path d="M25.524,0C26.314,0.552 26.404,0.773 26.152,1.739C25.945,2.541 26.022,3.324 26.24,4.107C26.598,5.393 26.678,6.682 26.297,7.981C26.084,8.706 25.559,9.089 24.947,8.94C24.298,8.782 23.969,8.181 24.187,7.442C24.494,6.399 24.329,5.39 24.055,4.379C23.765,3.302 23.772,2.228 24.038,1.144C24.162,0.636 24.402,0.245 24.868,0.001C25.086,0 25.305,0 25.524,0Z" fill="#01008A"/>
<path d="M2.238,18.81C1.8,18.81 1.436,18.826 1.072,18.807C0.425,18.77 -0.05,18.307 0.004,17.665C0.163,15.797 0.355,13.931 0.562,12.066C0.619,11.547 1.052,11.207 1.585,11.163C1.749,11.15 1.914,11.157 2.078,11.157C11.645,11.157 21.213,11.157 30.78,11.157C31.938,11.157 32.22,11.404 32.345,12.557C32.519,14.169 32.684,15.78 32.846,17.394C32.938,18.32 32.495,18.802 31.564,18.812C31.274,18.815 30.981,18.812 30.623,18.812C30.571,19.588 30.514,20.342 30.468,21.098C30.106,27.208 29.747,33.319 29.387,39.43C29.088,44.522 28.787,49.614 28.491,54.706C28.439,55.617 28.065,55.998 27.163,55.998C20.006,56 12.848,56 5.691,55.998C4.79,55.998 4.418,55.618 4.364,54.705C4.014,48.794 3.656,42.884 3.308,36.973C2.997,31.699 2.696,26.425 2.389,21.15C2.345,20.391 2.291,19.631 2.238,18.81ZM27.968,26.386C20.228,26.386 12.586,26.386 4.886,26.386C5.286,33.177 5.684,39.932 6.083,46.685C13.019,46.685 19.875,46.685 26.773,46.685C27.174,39.908 27.569,33.166 27.968,26.386ZM4.752,24.124C12.57,24.124 20.318,24.124 28.106,24.124C28.208,22.35 28.309,20.613 28.41,18.843C20.402,18.843 12.456,18.843 4.448,18.843C4.55,20.611 4.649,22.349 4.752,24.124ZM26.639,48.949C19.784,48.949 13.023,48.949 6.217,48.949C6.314,50.584 6.409,52.177 6.504,53.787C13.139,53.787 19.721,53.787 26.354,53.787C26.449,52.173 26.542,50.582 26.639,48.949ZM2.3,16.584C11.758,16.584 21.146,16.584 30.559,16.584C30.444,15.482 30.334,14.423 30.224,13.377C20.985,13.377 11.812,13.377 2.624,13.377C2.516,14.46 2.409,15.51 2.3,16.584Z" fill="#01008A"/>
<path d="M21.912,36.678C21.838,38.497 21.291,40.14 20.015,41.49C18.078,43.54 15.202,43.642 13.11,41.749C10.283,39.19 10.243,33.962 13.034,31.365C15.607,28.97 19.573,29.856 21.139,33.177C21.659,34.283 21.873,35.457 21.912,36.678ZM14.977,32.661C13.458,33.765 12.819,35.882 13.319,37.876C13.64,39.158 14.273,40.192 15.712,40.81C15.712,39.91 15.796,39.145 15.696,38.402C15.446,36.522 14.653,34.719 14.977,32.661ZM17.27,32.309C16.973,33.503 17.079,34.581 17.358,35.647C17.754,37.163 18.09,38.686 17.939,40.27C17.938,40.287 17.987,40.311 18.05,40.359C19.507,38.996 19.975,37.318 19.59,35.406C19.316,34.057 18.652,32.951 17.27,32.309Z" fill="#01008A"/>
</svg>
