<svg width="62" height="54" viewBox="0 0 62 54" fill="none" xmlns="http://www.w3.org/2000/svg" xmlns:xlink="http://www.w3.org/1999/xlink">
<path d="M9.172,38.362C9.172,41.11 9.184,43.767 9.167,46.423C9.159,47.754 8.345,48.858 7.117,49.287C5.917,49.707 4.59,49.343 3.775,48.365C3.233,47.713 3.054,46.952 3.054,46.112C3.062,36.926 3.059,27.74 3.059,18.553C3.059,17.511 3.081,16.468 3.042,15.427C3.034,15.184 2.87,14.867 2.675,14.724C0.926,13.442 0.017,11.73 0.007,9.559C-0.005,6.964 0.002,4.37 0.005,1.777C0.005,0.921 0.379,0.467 1.053,0.485C1.701,0.502 2.04,0.938 2.04,1.775C2.043,4.433 2.021,7.092 2.05,9.75C2.072,11.756 3.566,13.401 5.547,13.68C7.527,13.961 9.416,12.785 9.989,10.872C10.127,10.413 10.179,9.911 10.183,9.43C10.202,6.857 10.178,4.283 10.21,1.71C10.215,1.367 10.37,0.924 10.615,0.715C10.834,0.528 11.328,0.474 11.602,0.591C11.874,0.708 12.196,1.113 12.196,1.394C12.209,4.475 12.257,7.56 12.102,10.634C12.015,12.346 11.003,13.688 9.592,14.667C9.274,14.888 9.155,15.109 9.164,15.493C9.191,16.567 9.174,17.642 9.174,18.799C13.768,10.119 20.755,5.163 30.576,5.163C40.388,5.163 47.357,10.117 51.964,18.806C51.964,17.836 51.915,16.941 51.98,16.055C52.034,15.31 51.811,14.852 51.188,14.381C49.703,13.256 48.949,11.67 48.924,9.804C48.9,8.213 48.839,6.6 49.051,5.033C49.465,1.989 52.322,-0.176 55.433,0.012C58.441,0.196 60.98,2.696 61.104,5.719C61.172,7.371 61.162,9.04 61.005,10.684C60.847,12.348 59.927,13.666 58.561,14.622C58.178,14.891 58.067,15.162 58.067,15.607C58.079,25.794 58.077,35.978 58.076,46.165C58.076,47.818 57.159,49.062 55.723,49.379C53.763,49.811 51.985,48.404 51.969,46.372C51.951,43.905 51.964,41.438 51.964,38.973C51.964,38.803 51.964,38.634 51.964,38.36C47.387,47.026 40.412,51.99 30.606,52.002C20.777,52.011 13.786,47.058 9.172,38.362ZM9.174,28.543C9.148,40.343 18.727,49.983 30.515,50.02C42.288,50.058 51.915,40.467 51.964,28.652C52.012,16.833 42.401,7.16 30.591,7.146C18.809,7.131 9.199,16.732 9.174,28.543ZM56.041,30.439C56.041,25.188 56.049,19.938 56.031,14.687C56.029,14.008 56.262,13.588 56.869,13.271C58.333,12.508 59.064,11.255 59.091,9.607C59.11,8.438 59.11,7.269 59.091,6.1C59.056,3.829 57.264,2.047 55.035,2.042C52.803,2.037 50.991,3.813 50.952,6.073C50.931,7.284 50.925,8.497 50.954,9.707C50.993,11.252 51.68,12.472 53.039,13.19C53.8,13.591 54.016,14.102 54.016,14.915C53.996,25.226 54.002,35.534 54.002,45.845C54.002,46.078 53.985,46.316 54.02,46.546C54.094,47.06 54.544,47.446 55.039,47.417C55.566,47.385 55.906,47.092 56.017,46.573C56.059,46.369 56.041,46.149 56.041,45.937C56.041,40.77 56.041,35.604 56.041,30.439ZM5.097,15.747C5.097,15.912 5.097,16.058 5.097,16.205C5.097,26.178 5.097,36.152 5.097,46.127C5.097,46.275 5.085,46.43 5.118,46.571C5.235,47.09 5.572,47.4 6.098,47.41C6.627,47.42 6.974,47.118 7.103,46.604C7.149,46.422 7.132,46.223 7.132,46.032C7.134,36.143 7.134,26.255 7.134,16.365C7.134,16.155 7.134,15.948 7.134,15.747C6.445,15.747 5.814,15.747 5.097,15.747Z" fill="#01008A"/>
<path d="M5.097,4.568C5.097,5.524 5.104,6.481 5.095,7.437C5.089,8.168 4.667,8.64 4.058,8.626C3.469,8.612 3.067,8.158 3.064,7.457C3.055,5.523 3.055,3.59 3.064,1.655C3.067,0.905 3.464,0.471 4.102,0.483C4.714,0.495 5.089,0.915 5.097,1.635C5.106,2.613 5.097,3.592 5.097,4.568Z" fill="#01008A"/>
<path d="M9.174,4.592C9.174,5.528 9.179,6.462 9.172,7.398C9.167,8.146 8.779,8.614 8.174,8.626C7.563,8.638 7.142,8.168 7.139,7.433C7.132,5.499 7.131,3.566 7.139,1.632C7.142,0.914 7.524,0.492 8.136,0.483C8.772,0.473 9.164,0.907 9.171,1.659C9.181,2.637 9.174,3.615 9.174,4.592Z" fill="#01008A"/>
<path d="M30.566,11.228C40.116,11.226 47.896,19.025 47.89,28.594C47.883,38.161 40.089,45.952 30.54,45.936C21.016,45.921 13.258,38.142 13.249,28.602C13.241,19.03 21.016,11.229 30.566,11.228ZM30.568,13.269C22.147,13.271 15.298,20.121 15.287,28.548C15.277,36.99 22.113,43.886 30.503,43.895C38.991,43.901 45.853,37.041 45.853,28.546C45.85,20.128 38.988,13.268 30.568,13.269Z" fill="#01008A"/>
<path d="M58.072,7.653C58.072,8.035 58.089,8.418 58.069,8.799C57.985,10.348 56.738,11.598 55.2,11.688C54.571,11.726 54.081,11.353 54.013,10.788C53.948,10.24 54.302,9.8 54.908,9.676C55.828,9.487 56.036,9.235 56.041,8.301C56.042,7.77 56.051,7.239 56.037,6.708C56.022,6.028 55.745,5.716 55.074,5.585C54.321,5.439 53.929,5.007 54.014,4.413C54.101,3.807 54.581,3.499 55.35,3.559C56.803,3.673 57.997,4.934 58.071,6.445C58.089,6.844 58.074,7.249 58.072,7.653Z" fill="#01008A"/>
</svg>
