<svg width="380" height="502" viewBox="0 0 380 502" fill="none" xmlns="http://www.w3.org/2000/svg" xmlns:xlink="http://www.w3.org/1999/xlink">
<path d="M149.014,452.095C147.392,453.958 147.182,456.03 147.99,458.25C147.99,458.258 147.997,458.273 148.005,458.281C149.488,462.387 154.393,466.966 160.09,471.538C160.82,472.128 161.464,472.663 162.03,473.152C162.178,473.284 162.325,473.416 162.465,473.54C162.581,473.641 162.69,473.75 162.799,473.843C168.108,478.74 166.113,479.858 175.652,489.801C186.534,501.125 194.024,501.327 196.158,500.294C197.959,499.417 194.295,493.41 190.236,486.657C190.042,486.331 189.848,486.005 189.646,485.671C189.103,484.771 188.567,483.863 188.032,482.963C183.274,474.836 184.5,471.025 185.626,458.941C186.541,449.114 200.908,404.058 200.908,404.058L180.053,400.465C180.053,400.465 173.774,436.347 166.85,441.873C163.148,444.822 159.011,444.853 155.449,447.042C155.2,447.197 154.952,447.353 154.711,447.508C152.693,448.843 150.636,450.224 149.014,452.095Z" fill="#FFC49C"/>
<path d="M149.014,452.095C147.392,453.958 147.182,456.03 147.99,458.25C147.99,458.258 147.997,458.273 148.005,458.281C149.821,462.379 154.603,466.935 160.113,471.499C160.835,472.097 161.472,472.648 162.03,473.16C162.178,473.292 162.325,473.424 162.465,473.548C162.581,473.649 162.69,473.758 162.799,473.851C168.108,478.748 166.113,479.866 175.652,489.809C186.534,501.133 194.024,501.335 196.158,500.302C197.959,499.425 194.295,493.418 190.236,486.665C188.117,485.889 178.275,481.892 170.84,472.368C164.289,464.009 159.919,453.26 155.456,447.042C155.208,447.198 154.959,447.353 154.719,447.508C152.693,448.843 150.636,450.225 149.014,452.095Z" fill="#233862"/>
<path d="M317.178,439.063C318.466,445.497 327.64,444.426 337.893,441.919C348.146,439.412 345.709,442.392 360.301,440.778C374.893,439.163 379.309,433.723 379.759,431.549C380.155,429.624 372.945,428.949 365.214,428.057C364.244,427.948 363.266,427.824 362.288,427.707C353.556,426.613 347.161,420.978 339.236,416.352C331.723,411.967 320.515,394.115 320.515,394.115L300.506,395.699C300.506,395.699 311.007,411.649 315.067,418.58C317.457,422.655 317.325,428.049 317.03,432.217C316.867,434.483 316.72,436.796 317.178,439.063Z" fill="#FFC49C"/>
<path d="M337.894,441.928C348.147,439.421 345.71,442.401 360.302,440.787C374.894,439.172 379.31,433.731 379.76,431.558C380.156,429.633 372.946,428.958 365.215,428.065L365.145,428.213C365.145,428.213 356.398,434.414 344.251,434.709C334.355,434.95 323.869,432.117 317.031,432.226C316.876,434.492 316.729,436.805 317.186,439.071C318.467,445.506 327.641,444.427 337.894,441.928Z" fill="#233862"/>
<path d="M240.493,311.121L221.788,361.455L197.37,427.18C197.37,427.18 190.741,427.816 184.392,425.992C178.548,424.3 171.842,419.884 171.842,419.884C171.842,419.884 178.625,349.316 191.277,308.808C194.521,298.408 198.154,290.002 202.158,285.267C221.772,262.091 240.493,311.121 240.493,311.121Z" fill="#ED7D2B"/>
<path d="M221.476,231.185C209.803,227.42 177.538,231.844 144.163,238.217C141.152,238.791 138.094,237.425 136.502,234.801L131.807,227.055L55.968,221.133C55.968,221.133 36.394,265.607 44.714,302.607C46.755,311.672 57.839,323.408 74.782,324.463C122.283,327.421 154.331,310.919 203.64,293.588C212.217,290.576 216.121,309.631 225.039,328.352C233.957,347.073 308.84,411.261 308.84,411.261C308.84,411.261 320.35,411.378 325.102,409.592C330.216,407.675 332.086,405.184 332.086,405.184C332.086,405.184 249.108,240.095 221.476,231.185Z" fill="#F99746"/>
<path d="M128.818,6.231C119.1,1.131 104.322,0.441 101.916,0.115C73.183,-3.751 55.882,38.014 54.866,50.666C52.987,73.989 40.654,77.544 23.284,92.151C-11.535,121.436 -1.328,155.47 17.711,168.114C29.136,175.697 49.269,168.114 49.269,168.114C49.557,168.316 104.338,137.487 131.34,122.616C171.84,116.857 153.577,19.231 128.818,6.231Z" fill="#01008A"/>
<path d="M108.725,109.956C108.841,110.034 95.437,114.613 86.472,110.639C78.035,106.913 71.647,93.036 71.779,93.028C75.614,92.85 79.828,89.496 83.072,67.492L84.702,68.075L112.171,77.955C112.171,77.955 110.184,86.764 108.895,95.162C107.809,102.21 107.227,108.963 108.725,109.956Z" fill="#FFB27D"/>
<path d="M112.171,77.963C112.171,77.963 110.798,84.219 109.276,92.772C93.497,89.931 86.923,76.612 84.703,68.082L112.171,77.963Z" fill="#ED975D"/>
<path d="M116.262,86.71C116.262,86.71 78.68,81.665 82.188,58.311C85.689,34.956 83.197,18.579 107.336,20.814C131.474,23.05 134.788,32.658 135.518,40.738C136.24,48.81 126.127,87.416 116.262,86.71Z" fill="#FFB27D"/>
<path d="M134.146,27.932C134.146,27.932 110.092,48.663 93.731,50.332C77.37,52 71.176,46.754 71.176,46.754C71.176,46.754 80.823,38.744 86.621,25.821C88.329,22.01 91.946,19.394 96.106,19.037C107.787,18.028 129.939,17.57 134.146,27.932Z" fill="#01008A"/>
<path d="M119.111,26.077C119.111,26.077 127.16,33.862 129.69,39.629C132.135,45.201 132.873,58.52 130.924,63.806C130.924,63.806 143.459,39.427 136.365,27.583C128.837,15.024 119.111,26.077 119.111,26.077Z" fill="#01008A"/>
<path d="M140.368,165.312C143.248,233.141 138.691,229.399 131.737,232.706C129.339,233.847 124.1,235.477 116.68,235.974C93.356,237.518 52.352,233.676 50.792,229.368C45.413,214.451 49.208,209.817 44.722,186.982C44.256,184.553 43.674,181.922 42.999,179.066C39.258,163.379 35.61,158.047 48.89,132.853C60.928,110.026 73.44,91.507 74.565,92.175C106.333,111.035 108.895,95.186 108.895,95.186C108.895,95.186 138.792,128.235 140.368,165.312Z" fill="#C6C6FF"/>
<path d="M221.788,361.455L197.37,427.181C197.37,427.181 190.741,427.817 184.392,425.993C178.548,424.301 171.842,419.885 171.842,419.885C171.842,419.885 178.625,349.316 191.277,308.809L221.788,361.455Z" fill="#F99746"/>
<path d="M108.896,95.17C108.896,95.17 141.588,100.712 145.422,114.784C149.264,128.856 171.851,211.594 171.851,211.594C171.851,211.594 155.233,214.582 147.557,206.906C139.881,199.23 120.842,135.686 120.842,135.686L108.896,95.17Z" fill="#C6C6FF"/>
<path d="M116.672,235.966C93.349,237.511 52.344,233.669 50.784,229.361C45.406,214.443 49.201,209.809 44.715,186.975L55.969,155.3C55.969,155.3 54.106,190.576 64.515,199.859C74.907,209.134 107.11,217.773 112.171,225.519C114.608,229.237 116.207,232.97 116.672,235.966Z" fill="#B0B0FF"/>
<path d="M89.949,221.133C89.949,221.133 112.962,216.011 116.672,218.052C120.382,220.093 129.463,227.529 130.597,230.121C131.73,232.706 122.331,228.157 119.272,227.335C117.293,226.807 112.077,228.615 109.501,229.477C98.642,233.094 91.983,231.239 91.983,231.239L89.949,221.133Z" fill="#FFB27D"/>
<path d="M74.543,92.143C74.543,92.143 43.644,94.045 32.949,108.962C17.891,129.965 -11.975,219.464 5.139,231.401C24.419,244.844 92.876,234.917 92.876,234.917C92.876,234.917 95.158,224.268 91.983,219.115C88.817,213.961 37.303,205.641 34.928,203.266C32.553,200.891 64.647,156.906 64.647,149.773C64.647,142.648 74.543,92.143 74.543,92.143Z" fill="#C6C6FF"/>
<path d="M117.791,224.455C117.791,224.455 122.611,230.672 124.194,231.417C125.778,232.162 126.794,231.976 126.794,231.976L123.542,226.131L117.791,224.455Z" fill="#FFB27D"/>
<path d="M116.672,218.052L130.689,224.859C130.689,224.859 130.092,225.837 128.369,225.759C126.646,225.681 122.291,224.09 122.291,224.09L116.672,218.052Z" fill="#FFB27D"/>
<path d="M124.193,240.941L235.083,240.941L268.435,157.993L157.723,157.993L124.193,240.941Z" fill="#FF3874"/>
<path d="M236.379,237.712L89.949,237.712L89.949,240.941L235.083,240.941L236.379,237.712Z" fill="#A80F3D"/>
<path d="M207.087,199.47C207.926,196.552 206.234,194.192 203.323,194.192C200.412,194.192 197.37,196.56 196.532,199.47C195.693,202.389 197.378,204.748 200.296,204.748C203.214,204.748 206.257,202.381 207.087,199.47Z" fill="#EBF3FA"/>
</svg>
