<svg width="700" height="482" viewBox="0 0 700 482" fill="none" xmlns="http://www.w3.org/2000/svg" xmlns:xlink="http://www.w3.org/1999/xlink">
<path d="M388.545,355.586C388.193,386.767 389.803,417.997 393.323,449.002L394.379,450.662L698.34,450.662C700.528,446.89 699.372,441.609 694.92,439.497C681.794,433.286 666.808,430.948 652.424,433.11C664.344,427.025 675.206,418.928 684.41,409.222C687.552,405.877 690.796,401.653 687.428,396.674C685.666,394.059 682.674,392.525 679.532,392.349C659.918,391.142 640.178,392.223 620.842,395.593C623.984,382.467 632.61,371.327 637.036,358.578C642.542,342.711 638.694,320.206 617.02,320.482C614.304,320.533 611.588,321.036 608.948,321.765C589.284,327.071 571.832,340.121 561.02,357.421C563.761,328.931 566.2,298.807 553.954,272.932C550.132,264.91 544.6,257.191 536.503,253.494C525.112,248.289 511.483,252.338 500.871,259.052C483.998,269.713 471.753,286.586 463.379,304.716C455.005,322.871 450.203,342.41 445.45,361.797C439.792,348.872 433.606,335.293 420.204,328.906C413.565,325.738 405.745,325.436 399.333,329.057C389.375,334.69 388.671,345.678 388.545,355.586Z" fill="#55E0D3"/>
<path d="M310.844,355.736C311.196,386.917 309.588,418.148 306.068,449.152L305.012,450.812L1.075,450.812C-1.113,447.04 0.044,441.76 4.495,439.647C17.621,433.436 32.608,431.098 46.991,433.26C35.072,427.175 24.209,419.078 15.006,409.372C11.863,406.028 8.619,401.803 11.988,396.824C13.748,394.209 16.741,392.675 19.884,392.499C39.498,391.292 59.237,392.374 78.574,395.743C75.431,382.617 66.806,371.477 62.38,358.729C56.873,342.862 60.721,320.356 82.396,320.633C85.112,320.683 87.828,321.186 90.468,321.915C110.132,327.221 127.583,340.272 138.396,357.572C135.655,329.082 133.216,298.957 145.462,273.082C149.284,265.061 154.816,257.341 162.913,253.645C174.304,248.44 187.933,252.488 198.544,259.202C215.416,269.864 227.662,286.736 236.036,304.866C244.41,323.022 249.212,342.56 253.966,361.947C259.624,349.022 265.808,335.444 279.212,329.057C285.85,325.888 293.67,325.587 300.082,329.208C310.04,334.815 310.72,345.829 310.844,355.736Z" fill="#55E0D3"/>
<path d="M249.44,368.913C235.006,375.023 220.598,381.109 206.164,387.219C212.551,373.54 219.416,360.087 226.758,346.885C227.538,345.477 225.275,344.371 224.495,345.779C210.313,371.226 197.941,397.629 187.456,424.812L174.908,296.72C174.757,295.11 172.242,295.286 172.393,296.921L187.632,452.522C187.782,454.132 190.297,453.956 190.146,452.321L187.984,430.268C188.009,430.243 188.034,430.218 188.034,430.193C193.189,416.539 198.847,403.086 204.932,389.859C205.208,390.085 205.586,390.161 206.038,389.985C220.774,383.749 235.534,377.513 250.27,371.277C251.753,370.648 250.923,368.284 249.44,368.913Z" fill="#FFFFFF"/>
<path d="M136.133,447.492C131.682,439.672 127.257,431.877 122.806,424.056C122.781,423.704 122.63,423.378 122.303,423.176C119.864,418.876 117.4,414.551 114.96,410.251C116.67,394.108 118.38,377.964 120.09,361.821C120.266,360.212 117.802,359.734 117.626,361.343C116.017,376.405 114.432,391.468 112.823,406.53C103.243,389.682 93.662,372.81 84.081,355.962C83.277,354.554 81.215,355.987 82.019,357.395C92.128,375.198 102.262,393.002 112.37,410.805C112.345,411.056 112.32,411.282 112.295,411.534C112.194,412.439 112.924,412.967 113.628,412.992L119.135,422.699C107.04,421.19 94.97,419.681 82.874,418.172C81.265,417.971 80.787,420.435 82.397,420.637L120.694,425.414C125.144,433.26 129.595,441.08 134.071,448.926C134.876,450.334 136.938,448.875 136.133,447.492Z" fill="#FFFFFF"/>
<path d="M290.477,401.853C283.386,408.593 276.32,415.357 269.229,422.096L290.225,374.57C290.879,373.087 288.616,371.98 287.962,373.464L276.345,399.792C275.792,394.41 275.213,389.054 274.66,383.673C274.484,382.064 271.995,382.24 272.146,383.874C272.774,389.909 273.403,395.919 274.031,401.954C274.082,402.532 274.484,402.884 274.912,403.01L264.476,426.622C264.35,426.748 264.199,426.873 264.074,426.999C263.697,427.376 263.646,427.779 263.797,428.131L254.192,449.907C253.538,451.391 255.801,452.497 256.455,451.013L266.588,428.055C275.188,419.858 283.788,411.685 292.363,403.488C293.545,402.382 291.633,400.747 290.477,401.853Z" fill="#FFFFFF"/>
<path d="M538.992,314.371C525.991,334.689 513.016,355.007 500.016,375.324C504.768,344.27 509.496,313.215 514.248,282.16C514.5,280.55 512.035,280.072 511.784,281.682C505.824,320.733 499.84,359.809 493.88,398.861C483.772,383.622 473.688,368.384 463.58,353.146C462.674,351.788 460.612,353.221 461.518,354.579C472.079,370.496 482.615,386.414 493.176,402.331C493.227,402.406 493.277,402.432 493.352,402.507C490.938,418.324 488.524,434.14 486.11,449.932C485.859,451.541 488.323,452.019 488.575,450.409C492.12,427.175 495.666,403.965 499.211,380.731C499.463,380.63 499.689,380.479 499.865,380.228C513.67,358.653 527.475,337.053 541.28,315.478C542.135,314.12 539.872,313.013 538.992,314.371Z" fill="#FFFFFF"/>
<path d="M613.8,340.021L587.573,388.653C586.014,375.2 584.43,361.773 582.871,348.319C582.695,346.71 580.18,346.886 580.356,348.521C582.016,362.829 583.701,377.111 585.36,391.419C585.385,391.721 585.536,391.947 585.712,392.123L564.062,432.281C563.911,432.382 563.735,432.507 563.584,432.608C563.056,432.985 562.981,433.513 563.131,433.991C560.189,439.473 557.222,444.929 554.28,450.411C553.501,451.844 555.764,452.926 556.543,451.517L565.998,434.016C580.13,424.134 594.262,414.252 608.394,404.369C609.726,403.439 608.293,401.377 606.96,402.307C594.186,411.234 581.412,420.161 568.638,429.088C584.455,399.768 600.247,370.448 616.063,341.153C616.818,339.694 614.554,338.588 613.8,340.021Z" fill="#FFFFFF"/>
<path d="M655.366,414.351C646.64,418.299 637.915,422.247 629.164,426.195C635.123,419.581 641.058,412.968 647.017,406.329C648.099,405.122 646.188,403.488 645.106,404.695C641.133,409.095 637.185,413.521 633.212,417.921C633.992,412.314 634.771,406.707 635.576,401.099C635.802,399.49 633.338,399.012 633.112,400.621C632.257,406.782 631.377,412.943 630.522,419.103C630.446,419.657 630.698,420.084 631.075,420.31C628.51,423.177 625.92,426.018 623.355,428.885C623.255,428.961 623.179,429.061 623.104,429.162C617.245,435.674 611.411,442.187 605.552,448.7C604.471,449.907 606.382,451.541 607.463,450.334C613.322,443.822 619.156,437.334 625.015,430.821C635.425,426.119 645.81,421.417 656.221,416.715C657.679,416.061 656.849,413.697 655.366,414.351Z" fill="#FFFFFF"/>
<path d="M141.438,297.525C141.112,303.56 140.785,309.57 140.458,315.605C140.382,317.214 142.872,317.013 142.972,315.404C143.299,309.369 143.626,303.359 143.953,297.324C144.028,295.715 141.539,295.916 141.438,297.525Z" fill="#00ACA1"/>
<path d="M143.45,325.812C143.274,324.203 140.76,324.379 140.936,326.013C141.841,333.708 142.746,341.378 143.651,349.072C143.827,350.681 146.342,350.505 146.166,348.871C145.261,341.202 144.355,333.507 143.45,325.812Z" fill="#00ACA1"/>
<path d="M150.264,313.14C150.239,311.531 147.724,311.707 147.749,313.342C147.875,320.584 148.001,327.8 148.152,335.042C148.177,336.652 150.691,336.476 150.666,334.841C150.515,327.624 150.39,320.382 150.264,313.14Z" fill="#00ACA1"/>
<path d="M69.798,331.421C64.643,340.222 64.694,350.582 69.723,359.433C70.527,360.841 72.589,359.408 71.785,358C67.183,349.928 67.384,340.498 72.061,332.527C72.866,331.119 70.603,330.013 69.798,331.421Z" fill="#00ACA1"/>
<path d="M79.304,378.819L74.325,367.076C73.697,365.593 71.333,366.423 71.962,367.931C73.621,371.854 75.281,375.777 76.941,379.674C77.569,381.158 79.958,380.303 79.304,378.819Z" fill="#00ACA1"/>
<path d="M80.108,366.197C78.599,362.123 77.09,358.049 75.607,353.976C75.053,352.467 72.665,353.297 73.243,354.831C74.752,358.904 76.26,362.978 77.744,367.052C78.322,368.56 80.686,367.73 80.108,366.197Z" fill="#00ACA1"/>
<path d="M119.737,344.697C114.934,341.352 110.156,337.983 105.353,334.639C104.046,333.708 102.386,335.619 103.719,336.55L118.102,346.608C119.41,347.513 121.07,345.602 119.737,344.697Z" fill="#00ACA1"/>
<path d="M114.281,350.155C111.037,347.665 107.768,345.176 104.525,342.686C103.242,341.706 101.608,343.617 102.89,344.597C106.134,347.087 109.403,349.576 112.647,352.066C113.929,353.046 115.564,351.135 114.281,350.155Z" fill="#00ACA1"/>
<path d="M58.482,398.76C51.115,397.678 43.722,397.301 36.304,397.955C32.381,398.307 24.234,398.181 22.097,402.532C17.973,410.88 37.586,419.48 42.791,421.944C44.25,422.648 45.356,420.385 43.898,419.681C39.598,417.644 35.474,415.356 31.577,412.59C30.068,411.509 28.509,410.452 27.126,409.195C24.661,407.988 24.309,406.404 26.12,404.418C26.397,401.752 27.956,400.646 30.797,401.149C39.824,399.69 49.002,399.916 58.03,401.249C59.589,401.475 60.092,398.986 58.482,398.76Z" fill="#00ACA1"/>
<path d="M56.069,430.546C53.202,429.339 50.336,428.132 47.494,426.925C46.011,426.296 44.904,428.559 46.388,429.188C49.254,430.395 52.121,431.602 54.962,432.809C56.471,433.437 57.578,431.174 56.069,430.546Z" fill="#00ACA1"/>
<path d="M57.376,422.046C53.454,420.084 49.531,418.123 45.633,416.161C44.175,415.432 43.094,417.695 44.527,418.425C48.45,420.386 52.372,422.347 56.27,424.309C57.728,425.038 58.835,422.775 57.376,422.046Z" fill="#00ACA1"/>
<path d="M81.642,441.18L24.662,444.022C23.053,444.097 23.229,446.612 24.863,446.536L81.843,443.695C83.453,443.594 83.251,441.105 81.642,441.18Z" fill="#00ACA1"/>
<path d="M108.774,440.352C102.437,440.779 96.1,441.181 89.789,441.609C88.18,441.709 88.356,444.224 89.99,444.123C96.327,443.696 102.663,443.294 108.975,442.866C110.559,442.766 110.383,440.251 108.774,440.352Z" fill="#00ACA1"/>
<path d="M96.578,435.146C90.996,435.347 85.439,435.574 79.856,435.775C78.247,435.825 78.423,438.34 80.057,438.289C85.64,438.088 91.197,437.862 96.779,437.661C98.389,437.585 98.187,435.071 96.578,435.146Z" fill="#00ACA1"/>
<path d="M169.073,327.649C168.872,326.04 166.357,326.241 166.558,327.85C167.614,335.998 168.696,344.12 169.752,352.267C169.953,353.876 172.468,353.675 172.266,352.066C171.185,343.918 170.129,335.796 169.073,327.649Z" fill="#00ACA1"/>
<path d="M174.454,361.896C174.253,360.287 171.764,360.463 171.94,362.097C174.303,381.862 176.667,401.627 179.031,421.391C179.232,423 181.721,422.824 181.545,421.19L174.454,361.896Z" fill="#00ACA1"/>
<path d="M165.677,346.534C165.376,344.975 162.861,345.125 163.163,346.735C164.772,354.882 166.356,363.029 167.966,371.176C168.267,372.735 170.782,372.585 170.48,370.975L165.677,346.534Z" fill="#00ACA1"/>
<path d="M134.398,425.944C130.45,419.531 126.528,413.119 122.58,406.707C121.725,405.324 119.663,406.757 120.518,408.14C124.466,414.553 128.389,420.965 132.336,427.377C133.166,428.76 135.253,427.327 134.398,425.944Z" fill="#00ACA1"/>
<path d="M141.815,440.25C140.332,437.232 138.873,434.19 137.39,431.172C136.686,429.739 134.322,430.569 135.026,432.027C136.51,435.045 137.968,438.087 139.452,441.105C140.131,442.538 142.519,441.708 141.815,440.25Z" fill="#00ACA1"/>
<path d="M146.467,430.897C144.028,425.339 141.589,419.782 139.15,414.2C138.496,412.716 136.132,413.571 136.786,415.055C139.225,420.612 141.664,426.169 144.103,431.751C144.757,433.21 147.121,432.38 146.467,430.897Z" fill="#00ACA1"/>
<path d="M169.274,255.606C160.046,260.032 152.779,267.248 148.428,276.552C147.749,278.011 150.013,279.117 150.691,277.659C154.74,269.009 161.504,262.119 170.129,257.995C171.562,257.266 170.733,254.902 169.274,255.606Z" fill="#00ACA1"/>
<path d="M168.722,263.828C164.422,267.977 160.147,272.126 155.847,276.275C154.69,277.407 156.601,279.041 157.758,277.91C162.058,273.761 166.333,269.612 170.633,265.463C171.789,264.331 169.878,262.697 168.722,263.828Z" fill="#00ACA1"/>
<path d="M584.606,336.048C579.351,341.781 574.096,347.54 568.84,353.273C567.734,354.48 569.645,356.114 570.751,354.907C576.007,349.174 581.262,343.416 586.517,337.683C587.624,336.501 585.713,334.841 584.606,336.048Z" fill="#00ACA1"/>
<path d="M609.575,323.726C604.898,326.115 600.196,328.503 595.519,330.867C594.086,331.596 594.915,333.96 596.374,333.231C601.051,330.842 605.753,328.453 610.43,326.089C611.864,325.385 611.034,322.997 609.575,323.726Z" fill="#00ACA1"/>
<path d="M598.914,334.364C594.69,336.753 590.44,339.116 586.216,341.505C584.808,342.31 586.241,344.372 587.649,343.567C591.874,341.178 596.123,338.814 600.348,336.426C601.756,335.621 600.323,333.559 598.914,334.364Z" fill="#00ACA1"/>
<path d="M630.045,346.835C628.762,355.536 625.996,363.658 621.696,371.327C620.892,372.735 623.18,373.842 623.959,372.433C628.36,364.588 631.201,356.24 632.534,347.338C632.735,345.704 630.271,345.226 630.045,346.835Z" fill="#00ACA1"/>
<path d="M614.856,381.938C613.171,385.082 611.511,388.25 609.827,391.393C609.072,392.826 611.335,393.933 612.09,392.499C613.774,389.356 615.434,386.188 617.119,383.045C617.898,381.611 615.635,380.505 614.856,381.938Z" fill="#00ACA1"/>
<path d="M618.025,361.999C615.586,367.858 613.147,373.717 610.682,379.601C610.054,381.085 612.317,382.191 612.946,380.708C615.385,374.849 617.824,368.99 620.288,363.106C620.892,361.597 618.654,360.491 618.025,361.999Z" fill="#00ACA1"/>
<path d="M660.747,395.039C655.014,395.818 649.306,396.598 643.573,397.377C641.989,397.604 642.165,400.093 643.774,399.892C649.507,399.112 655.215,398.333 660.949,397.553C662.533,397.327 662.357,394.812 660.747,395.039Z" fill="#00ACA1"/>
<path d="M680.084,396.347C676.765,396.071 673.446,395.819 670.126,395.543C668.517,395.417 668.039,397.881 669.649,398.007C672.968,398.284 676.287,398.535 679.606,398.812C681.19,398.937 681.693,396.473 680.084,396.347Z" fill="#00ACA1"/>
<path d="M671.157,401.853C667.084,401.903 663.01,401.953 658.962,402.004C657.352,402.029 657.528,404.518 659.163,404.518C663.237,404.468 667.31,404.418 671.359,404.367C672.968,404.342 672.767,401.828 671.157,401.853Z" fill="#00ACA1"/>
<path d="M648.552,441.433C640.555,441.71 632.584,441.961 624.588,442.238C622.978,442.288 623.154,444.803 624.789,444.753L648.753,443.948C650.362,443.872 650.161,441.383 648.552,441.433Z" fill="#00ACA1"/>
<path d="M682.901,441.03C674.753,441.081 666.631,441.106 658.484,441.156C656.875,441.156 657.051,443.671 658.685,443.671C666.833,443.62 674.955,443.595 683.102,443.545C684.711,443.52 684.51,441.005 682.901,441.03Z" fill="#00ACA1"/>
<path d="M661.2,436.631C655.768,436.932 650.362,437.234 644.931,437.536C643.321,437.636 643.497,440.126 645.132,440.05C650.563,439.749 655.969,439.447 661.401,439.145C663.01,439.07 662.834,436.555 661.2,436.631Z" fill="#00ACA1"/>
<path d="M584.153,427.98L569.292,436.001C567.859,436.756 569.317,438.843 570.726,438.063L585.587,430.042C587.02,429.287 585.587,427.225 584.153,427.98Z" fill="#00ACA1"/>
<path d="M607.363,411.584C601.555,415.482 595.721,419.379 589.912,423.277C588.579,424.182 589.988,426.244 591.345,425.339C597.154,421.441 602.988,417.544 608.797,413.646C610.129,412.766 608.696,410.679 607.363,411.584Z" fill="#00ACA1"/>
<path d="M599.718,426.346C593.784,429.514 587.824,432.708 581.89,435.876C580.457,436.63 581.915,438.692 583.323,437.938C589.258,434.77 595.217,431.576 601.152,428.408C602.585,427.653 601.152,425.592 599.718,426.346Z" fill="#00ACA1"/>
<path d="M231.962,316.761C228.039,308.916 224.117,301.096 220.194,293.25C219.49,291.817 217.101,292.647 217.83,294.105C221.753,301.951 225.676,309.771 229.598,317.616C230.302,319.025 232.691,318.195 231.962,316.761Z" fill="#00ACA1"/>
<path d="M241.895,342.961C239.934,337.228 237.973,331.52 236.011,325.787C235.483,324.253 233.12,325.108 233.648,326.642C235.609,332.375 237.57,338.083 239.532,343.816C240.06,345.35 242.424,344.495 241.895,342.961Z" fill="#00ACA1"/>
<path d="M231.863,330.716C230.153,326.492 228.443,322.267 226.733,318.018C226.129,316.534 223.766,317.364 224.369,318.873C226.079,323.097 227.789,327.322 229.499,331.571C230.102,333.055 232.466,332.225 231.863,330.716Z" fill="#00ACA1"/>
<path d="M284.996,331.948C282.959,333.155 280.923,334.362 278.886,335.569C277.503,336.399 278.936,338.461 280.319,337.631C282.356,336.424 284.393,335.217 286.43,334.01C287.813,333.206 286.379,331.119 284.996,331.948Z" fill="#00ACA1"/>
<path d="M273.453,340.523C268.348,346.005 264.149,352.141 260.88,358.905C260.176,360.363 262.439,361.47 263.143,360.011C266.337,353.448 270.41,347.514 275.364,342.183C276.471,340.976 274.559,339.342 273.453,340.523Z" fill="#00ACA1"/>
<path d="M285.75,337.706C281.048,339.818 276.974,342.861 273.68,346.859C272.649,348.116 274.56,349.751 275.591,348.493C278.608,344.847 282.305,342.006 286.605,340.07C288.063,339.416 287.233,337.052 285.75,337.706Z" fill="#00ACA1"/>
<path d="M302.346,367.203C302.069,373.841 301.767,380.454 301.466,387.093C301.39,388.702 303.905,388.501 303.98,386.892C304.282,380.253 304.558,373.64 304.86,367.002C304.91,365.417 302.421,365.618 302.346,367.203Z" fill="#00ACA1"/>
<path d="M301.164,397.956C301.089,402.256 301.013,406.556 300.938,410.83C300.913,412.44 303.427,412.239 303.452,410.629C303.528,406.329 303.603,402.029 303.679,397.755C303.704,396.145 301.189,396.347 301.164,397.956Z" fill="#00ACA1"/>
<path d="M298.926,387.823C298.926,386.214 296.411,386.39 296.411,388.024C296.411,391.721 296.411,395.417 296.411,399.088C296.411,400.698 298.926,400.522 298.926,398.887C298.926,395.216 298.926,391.519 298.926,387.823Z" fill="#00ACA1"/>
<path d="M268.575,403.086C264.903,410.378 261.232,417.67 257.561,424.963C256.832,426.421 259.095,427.502 259.824,426.069C263.495,418.777 267.166,411.484 270.838,404.192C271.567,402.759 269.304,401.652 268.575,403.086Z" fill="#00ACA1"/>
<path d="M254.04,432.532C252.18,436.782 250.319,441.006 248.458,445.256C247.804,446.74 250.067,447.846 250.721,446.362C252.582,442.113 254.443,437.888 256.304,433.639C256.957,432.155 254.694,431.049 254.04,432.532Z" fill="#00ACA1"/>
<path d="M255.701,416.639C252.583,423.176 249.465,429.739 246.322,436.277C245.618,437.736 247.881,438.842 248.585,437.384C251.703,430.846 254.821,424.283 257.964,417.745C258.643,416.287 256.38,415.18 255.701,416.639Z" fill="#00ACA1"/>
<path d="M225.525,384.83L210.765,390.915C209.281,391.519 210.111,393.908 211.62,393.279C216.548,391.242 221.452,389.231 226.38,387.194C227.864,386.59 227.009,384.227 225.525,384.83Z" fill="#00ACA1"/>
<path d="M246.322,375.904C241.192,378.016 236.037,380.104 230.907,382.216C229.424,382.819 230.254,385.208 231.762,384.579C236.892,382.467 242.047,380.38 247.177,378.268C248.66,377.639 247.83,375.276 246.322,375.904Z" fill="#00ACA1"/>
<path d="M237.344,385.383C232.692,386.691 228.191,388.375 223.816,390.437C222.357,391.116 223.187,393.505 224.671,392.801C229.046,390.739 233.522,389.054 238.199,387.747C239.758,387.319 238.903,384.93 237.344,385.383Z" fill="#00ACA1"/>
<path d="M203.473,372.231C200.883,377.889 198.268,383.522 195.678,389.179C194.999,390.663 197.263,391.744 197.941,390.286C200.531,384.628 203.147,378.995 205.737,373.337C206.416,371.854 204.152,370.773 203.473,372.231Z" fill="#00ACA1"/>
<path d="M212.248,350.532C210.438,354.253 208.627,358 206.817,361.722C206.113,363.18 208.376,364.287 209.08,362.828C210.89,359.107 212.701,355.36 214.511,351.638C215.215,350.155 212.952,349.073 212.248,350.532Z" fill="#00ACA1"/>
<path d="M202.417,357.649C201.285,360.364 200.154,363.08 199.022,365.796C198.394,367.28 200.657,368.386 201.285,366.902C202.417,364.187 203.549,361.471 204.68,358.755C205.309,357.246 203.046,356.14 202.417,357.649Z" fill="#00ACA1"/>
<path d="M483.017,406.43C482.012,412.314 480.981,418.173 479.975,424.057C479.698,425.641 482.162,426.144 482.439,424.535L485.482,406.908C485.758,405.323 483.294,404.82 483.017,406.43Z" fill="#00ACA1"/>
<path d="M477.007,436.278L474.693,445.783C474.316,447.367 476.781,447.845 477.158,446.261C477.937,443.092 478.692,439.924 479.471,436.756C479.873,435.196 477.384,434.719 477.007,436.278Z" fill="#00ACA1"/>
<path d="M471.853,421.34C471.4,424.508 470.948,427.677 470.495,430.845C470.269,432.455 472.733,432.932 472.959,431.323C473.412,428.155 473.865,424.986 474.317,421.818C474.544,420.234 472.079,419.756 471.853,421.34Z" fill="#00ACA1"/>
<path d="M485.607,276.276C468.683,297.222 457.393,321.966 452.716,348.495C452.439,350.079 454.904,350.582 455.18,348.972C459.782,322.846 470.821,298.53 487.493,277.911C488.549,276.653 486.638,275.019 485.607,276.276Z" fill="#00ACA1"/>
<path d="M506,260.938C501.6,264.207 497.174,267.501 492.773,270.77C491.466,271.725 492.899,273.812 494.207,272.831C498.607,269.563 503.033,266.268 507.433,263C508.716,262.044 507.283,259.957 506,260.938Z" fill="#00ACA1"/>
<path d="M498.935,272.278C495.993,275.095 493.051,277.936 490.109,280.753C488.952,281.884 490.863,283.493 492.02,282.387C494.962,279.571 497.904,276.729 500.846,273.913C502.003,272.781 500.092,271.147 498.935,272.278Z" fill="#00ACA1"/>
<path d="M501.349,303.711C499.891,312.185 498.432,320.659 496.974,329.159C496.697,330.743 499.161,331.246 499.438,329.636L503.813,304.189C504.09,302.58 501.626,302.102 501.349,303.711Z" fill="#00ACA1"/>
<path d="M493.679,340.673C492.245,348.921 490.812,357.194 489.354,365.442C489.077,367.026 491.541,367.529 491.818,365.919C493.251,357.672 494.685,349.399 496.143,341.151C496.42,339.567 493.955,339.089 493.679,340.673Z" fill="#00ACA1"/>
<path d="M491.542,323.374C490.637,330.39 489.731,337.38 488.826,344.396C488.625,346.005 491.089,346.483 491.29,344.874C492.196,337.858 493.101,330.868 494.006,323.852C494.232,322.243 491.743,321.765 491.542,323.374Z" fill="#00ACA1"/>
<path d="M522.873,350.884C519.479,356.29 516.059,361.722 512.664,367.128C511.809,368.511 514.072,369.592 514.927,368.234C518.322,362.828 521.742,357.396 525.137,351.99C525.991,350.632 523.728,349.526 522.873,350.884Z" fill="#00ACA1"/>
<path d="M541.104,322.997C536.477,329.686 531.875,336.35 527.248,343.038C526.343,344.346 528.229,346.006 529.159,344.673C533.786,337.984 538.388,331.321 543.015,324.632C543.945,323.324 542.034,321.665 541.104,322.997Z" fill="#00ACA1"/>
<path d="M532.983,344.42L524.508,358.326C523.654,359.709 525.942,360.79 526.772,359.432C529.588,354.805 532.429,350.153 535.246,345.527C536.076,344.119 533.812,343.037 532.983,344.42Z" fill="#00ACA1"/>
<path d="M553.903,284.549C553.425,283.015 551.061,283.845 551.539,285.404C554.003,293.375 555.235,301.472 555.286,309.82C555.286,311.43 557.8,311.254 557.8,309.619C557.75,301.045 556.442,292.721 553.903,284.549Z" fill="#00ACA1"/>
<path d="M555.387,321.01C554.481,328.352 553.576,335.695 552.671,343.037C552.47,344.647 554.934,345.125 555.135,343.515C556.04,336.173 556.946,328.83 557.851,321.488C558.052,319.903 555.588,319.401 555.387,321.01Z" fill="#00ACA1"/>
<path d="M552.269,305.872C552.244,304.263 549.729,304.439 549.754,306.073C549.83,312.284 549.93,318.495 550.006,324.731C550.031,326.341 552.545,326.165 552.52,324.53C552.42,318.319 552.344,312.108 552.269,305.872Z" fill="#00ACA1"/>
<path d="M498.858,429.211C497.375,434.291 495.891,439.37 494.382,444.45C493.93,446.009 496.394,446.487 496.847,444.928C498.33,439.848 499.814,434.769 501.323,429.689C501.775,428.13 499.311,427.678 498.858,429.211Z" fill="#00ACA1"/>
<path d="M505.775,397.277C504.191,403.488 502.607,409.699 501.023,415.935C500.62,417.519 503.085,417.972 503.487,416.413C505.071,410.202 506.655,403.991 508.24,397.755C508.642,396.195 506.178,395.718 505.775,397.277Z" fill="#00ACA1"/>
<path d="M565.068,406.228C559.36,417.946 553.652,429.689 547.969,441.407C547.265,442.866 549.528,443.972 550.232,442.514C555.94,430.796 561.648,419.053 567.331,407.335C568.035,405.876 565.772,404.77 565.068,406.228Z" fill="#00ACA1"/>
<path d="M576.057,386.464C574.599,388.954 573.115,391.443 571.656,393.932C570.827,395.341 573.09,396.422 573.92,395.039C575.378,392.549 576.862,390.06 578.32,387.571C579.125,386.162 576.862,385.081 576.057,386.464Z" fill="#00ACA1"/>
<path d="M564.79,392.877C562.552,397.403 560.314,401.929 558.076,406.481C557.347,407.939 559.61,409.046 560.34,407.587C562.578,403.061 564.815,398.535 567.053,393.983C567.758,392.525 565.494,391.418 564.79,392.877Z" fill="#00ACA1"/>
<path d="M2.735,450.687L699.999,450.562C699.999,450.562 651.419,480.208 343.963,480.208C36.506,480.208 2.735,450.687 2.735,450.687Z" fill="#E0FFF9"/>
<path d="M462.372,226.664C454.3,226.815 448.164,217.36 449.95,209.389C451.785,201.242 459.606,195.509 467.753,193.598C475.9,191.712 484.399,192.894 492.672,194.075C487.014,183.539 481.206,172.5 480.703,160.531C480.2,148.562 486.687,135.385 498.28,132.318C507.558,129.828 517.566,134.505 524.079,141.571C530.617,148.637 534.339,157.765 537.909,166.667C539.242,158.243 540.6,149.718 543.894,141.848C547.163,133.952 552.594,126.66 560.213,122.838C574.999,115.394 594.361,123.919 602.332,138.428C610.304,152.937 608.543,171.218 601.704,186.305C607.11,173.883 622.172,166.541 635.273,169.935C648.399,173.355 657.981,187.085 656.647,200.588C655.315,214.066 643.219,226.689 629.691,227.469L462.397,227.469L462.372,226.664Z" fill="#B2FFF0"/>
<path d="M127.91,140.162C124.012,140.313 120.014,140.388 116.393,138.955C112.596,137.446 109.302,133.851 109.503,129.777C109.754,125.2 114.054,121.957 118.203,119.97C127.809,115.368 138.898,113.885 149.384,115.846C143.399,110.993 137.867,105.21 134.875,98.119C131.883,91.027 131.757,82.352 136.057,75.94C139.728,70.458 146.165,67.265 152.703,66.359C159.241,65.479 165.905,66.636 172.267,68.396C185.82,72.193 198.569,78.781 209.507,87.633C202.341,76.468 203.573,60.576 212.374,50.618C221.175,40.686 236.79,37.543 248.76,43.301C260.729,49.059 267.996,63.241 265.708,76.342C277.677,63.116 290.2,49.537 306.67,42.748C312.002,40.56 318.062,39.127 323.518,40.988C329.352,42.949 333.426,48.355 335.688,54.088C341.648,69.302 335.588,88.287 321.934,97.238C331.916,93.592 342.854,91.581 353.19,93.995C363.55,96.409 373.13,104.003 375.67,114.312C378.21,124.622 371.822,136.969 361.388,138.955L361.362,141.495L127.91,140.162Z" fill="#B2FFF0"/>
<path d="M609.173,188.039C595.997,183.941 582.443,194.049 573.868,205.164C576.408,196.564 577.716,187.637 577.515,178.585C577.339,171.418 576.458,157.638 566.425,157.588C557.373,157.538 552.57,169.557 550.257,176.523C548.27,182.532 547.315,188.718 547.264,194.904C545.253,190.479 542.663,186.329 539.469,182.558C534.013,176.146 524.935,168.929 516.084,173.078C509.495,176.171 506.981,184.293 507.936,191.082C508.414,194.376 509.671,197.343 511.432,200.034C505.372,197.771 499.135,198.198 494.433,204.912C488.298,213.638 499.06,224.35 507.886,218.918C509.269,218.063 507.836,216.001 506.453,216.856C501.399,219.974 494.106,215.322 495.162,209.338C496.093,204.107 502.153,201.543 506.83,201.543C509.37,201.543 511.708,202.222 513.896,203.303C517.567,207.603 522.32,211.173 526.62,214.367C527.952,215.348 529.335,213.638 528.254,212.456C525.337,209.262 521.163,205.39 516.587,202.599C514.349,200.134 512.488,197.419 511.331,194.276C508.791,187.335 510.753,176.623 519.076,174.763C528.304,172.701 536.351,181.828 540.978,188.668C544.096,193.245 546.334,198.249 547.818,203.504C548.22,206.446 548.798,209.338 549.603,212.23C549.98,213.587 552.218,213.11 552.042,211.702C551.665,208.785 551.086,205.918 550.307,203.102C549.452,196.84 549.578,190.479 550.835,184.192C551.69,179.867 553.023,175.643 554.883,171.619C556.694,167.697 561.673,157.89 567.683,160.178C576.861,163.673 575.427,179.691 574.799,187.386C573.994,197.042 571.48,206.371 567.557,215.247C566.903,216.731 569.116,217.812 569.82,216.353C575.327,204.812 585.762,193.773 598.562,190.554C606.281,188.618 616.893,191.258 614.906,201.543C613.196,210.394 603.867,214.065 596.399,216.907C594.89,217.485 595.72,219.849 597.254,219.27C605.125,216.278 614.202,212.531 616.918,203.73C618.93,197.067 616.038,190.177 609.173,188.039Z" fill="#B1DDD5"/>
<path d="M338.38,111.345C335.564,104.153 326.411,104.48 320.124,105.008C310.418,105.838 301.064,108.403 292.213,112.351C296.311,101.941 300.938,91.505 304.132,80.818C306.068,74.331 303.931,67.114 295.809,68.044C287.536,69 279.414,78.429 274.108,84.238C267.671,91.279 262.415,99.225 258.165,107.724C256.531,100.231 253.941,93.014 250.194,86.25C247.604,81.598 243.355,73.375 236.691,74.406C231.612,75.186 229.776,81.145 228.519,85.319C225.803,94.246 224.596,103.449 224.596,112.753C220.07,107.649 214.839,103.324 208.779,100.105C203.197,97.138 193.214,92.436 186.827,94.925C182.15,96.761 181.194,102.117 183.005,106.417C184.313,109.56 186.827,111.471 189.769,112.703C184.564,112.98 179.384,113.659 174.455,115.368C170.03,116.902 164.221,119.442 163.97,124.873C163.743,129.45 167.515,133.624 171.664,135.083C178.076,137.321 184.891,133.649 190.373,130.682C191.806,129.928 190.348,127.841 188.939,128.62C183.885,131.336 177.045,135.108 171.337,132.216C167.691,130.355 166.685,127.916 167.892,124.094C169.175,119.995 170.256,119.643 174.33,118.109C182.502,114.991 191.454,115.042 200.054,115.016C201.462,115.016 201.613,112.703 200.205,112.527C194.823,111.848 187.129,110.943 185.092,104.883C183.432,99.904 189.392,97.087 193.44,97.238C196.056,97.339 199.149,98.672 201.512,99.577C210.791,103.097 218.737,109.132 224.898,116.877C225.677,117.858 227.236,117.355 227.186,116.072C226.985,109.032 227.412,102.016 228.745,95.076C229.701,90.122 230.53,82.377 234.202,78.731C241.343,71.69 249.289,89.644 250.898,93.24C253.514,99.124 255.299,105.285 256.405,111.622C256.606,112.778 258.216,113.306 258.794,112.074C265.156,98.219 274.384,85.873 286.228,76.217C287.536,75.135 288.893,74.029 290.302,73.073C291.383,72.445 292.489,71.816 293.571,71.188C297.393,69.151 299.58,70.232 300.184,74.482C302.598,79.184 301.919,79.611 300.259,84.138C299.555,86.074 298.801,87.985 298.047,89.921C294.954,98.018 291.886,106.115 288.793,114.212C288.441,115.117 289.271,116.475 290.352,115.947C296.261,113.08 302.397,110.792 308.784,109.308C314.693,107.925 329.428,104.279 333.929,109.836C336.117,110.918 336.343,112.628 334.608,114.966C335.036,117.33 334.332,118.813 332.471,119.392C331.289,120.272 329.479,120.724 328.121,121.127C324.902,122.057 321.583,122.711 318.314,123.49C310.846,125.276 303.377,127.061 295.909,128.847C294.35,129.224 295.205,131.587 296.764,131.21C307.879,128.545 319.772,126.785 330.535,122.988C335.564,121.278 340.694,117.305 338.38,111.345Z" fill="#B1DDD5"/>
<path d="M234.126,439.747L234.126,450.56L136.032,450.56L136.032,439.747L144.733,439.747L225.425,439.747L234.126,439.747Z" fill="#F47722"/>
<path d="M217.454,410.73L225.425,439.749L144.732,439.749L151.824,410.806L217.177,410.806L217.454,410.73Z" fill="#F79021"/>
<path d="M210.288,384.604L217.454,410.731L217.178,410.806L151.824,410.806L158.211,384.604L210.288,384.604Z" fill="#F9F9F9"/>
<path d="M198.243,340.675L210.288,384.604L158.211,384.604L168.973,340.675C168.973,340.675 174.505,351.563 185.092,351.563C195.678,351.563 198.243,340.675 198.243,340.675Z" fill="#F79021"/>
<path d="M168.974,340.675L198.268,340.675C198.268,340.675 195.653,351.563 185.092,351.563C174.531,351.563 168.974,340.675 168.974,340.675Z" fill="#F47722"/>
<path d="M405.645,136.442L404.639,135.989C405.167,134.732 405.619,133.425 405.997,132.092C407.782,125.805 407.832,119.142 406.499,112.73L408.385,112.378C421.159,105.89 433.43,98.372 444.997,89.998C445.098,90.048 445.199,90.099 445.299,90.149L441.603,115.471C441.326,115.496 441.05,115.546 440.773,115.596C438.434,116.049 436.171,117.407 435.09,119.519C434.034,121.531 434.185,123.894 434.562,126.183C422.014,130.382 410.296,134.33 405.645,136.442Z" fill="#00ACA1"/>
<path d="M427.068,206.348C425.936,196.063 416.683,188.62 406.398,189.727C396.088,190.833 388.645,200.087 389.752,210.396C390.883,220.706 400.137,228.149 410.421,227.018C420.731,225.911 428.174,216.658 427.068,206.348ZM398.829,171.622L417.362,169.61C416.808,171.622 416.507,173.759 416.507,175.947C416.507,183.843 420.304,190.883 426.188,195.284L428.225,174.74L440.194,169.283L443.413,198.905L450.428,263.63L396.516,269.464L396.516,269.036L343.634,269.036L343.634,275.197L314.465,278.365L304.005,181.906L347.934,177.129L357.263,176.123L391.135,172.452L398.829,171.622ZM349.695,259.984L410.698,253.37C410.698,253.37 405.744,227.546 376.575,230.689C347.406,233.857 349.695,259.984 349.695,259.984ZM344.037,234.461C354.347,233.329 361.79,224.076 360.683,213.791C359.552,203.481 350.298,196.038 339.988,197.145C329.704,198.276 322.261,207.53 323.367,217.84C324.473,228.124 333.752,235.567 344.037,234.461Z" fill="#C3D5D8"/>
<path d="M434.838,127.691C434.738,127.188 434.662,126.685 434.562,126.183C436.473,125.554 438.384,124.9 440.32,124.271L438.434,137.347C436.297,134.757 435.492,131.061 434.838,127.691Z" fill="#F2B481"/>
<path d="M301.591,391.973L301.591,422.123C287.359,418.099 271.995,416.666 257.913,421.167C243.404,425.794 230.605,437.763 228.09,452.8L201.763,452.8C202.039,437.462 208.527,422.374 219.415,411.587C224.846,410.681 229.775,406.834 232.264,401.805C241.216,394.337 252.18,389.282 263.671,387.371C276.194,385.284 289.295,386.894 300.912,391.973L301.591,391.973L301.591,391.973Z" fill="#00ACA1"/>
<path d="M388.746,153.139C389.073,155.83 389.425,158.495 389.777,161.186L355.704,164.857C355.302,162.217 354.9,159.602 354.497,156.961C339.159,156.735 324.524,146.35 318.841,132.067C313.133,117.709 316.553,100.283 326.913,88.792C337.273,77.325 353.944,72.12 369.082,75.188C384.245,78.23 397.421,89.269 403.582,103.451C404.864,106.419 405.87,109.537 406.499,112.73C407.831,119.142 407.781,125.806 405.996,132.092C405.619,133.425 405.166,134.733 404.638,135.99L404.613,135.99C401.545,143.358 395.938,149.72 388.746,153.139Z" fill="#F9A138"/>
<path d="M232.265,401.805C229.775,406.834 224.847,410.681 219.415,411.586C218.309,411.788 217.177,411.863 216.046,411.763L216.096,410.782C214.436,408.292 213.204,405.501 212.45,402.61L212.098,401.905C213.657,401.126 215.241,400.346 216.548,399.19C217.856,398.033 218.887,396.474 219.038,394.739C219.289,391.495 216.448,388.804 213.481,387.447C210.916,386.29 207.974,385.712 205.208,386.29C202.442,386.868 199.852,388.679 198.72,391.269C197.589,393.884 198.167,397.228 200.38,399.014L200.681,399.24C198.519,402.081 196.356,404.898 194.169,407.714C186.952,403.867 183.054,394.638 185.418,386.793C187.606,379.501 194.948,374.145 202.517,374.044C202.668,374.044 202.794,374.044 202.919,374.044L202.919,374.295C210.111,375.075 217.253,376.332 224.268,378.017C225.274,378.243 226.28,378.495 227.286,378.746L227.613,378.419C232.793,383.7 235.383,391.596 233.471,398.712C233.17,399.768 232.793,400.824 232.265,401.805Z" fill="#312A5E"/>
<path d="M398.855,171.621L391.16,172.451L357.289,176.123L347.96,177.128L346.753,165.838L355.73,164.857L389.802,161.186L397.648,160.331L398.855,171.621Z" fill="#312A5E"/>
<path d="M441.601,115.471L440.319,124.272C438.383,124.9 436.471,125.554 434.56,126.183C434.183,123.895 434.032,121.531 435.088,119.519C436.17,117.407 438.433,116.049 440.771,115.596C441.048,115.546 441.325,115.496 441.601,115.471Z" fill="#F2B481"/>
<path d="M396.189,434.695L396.642,434.695L425.811,434.695L428.728,434.695L428.728,449.883L428.728,450.537L359.577,450.537L359.577,434.695L396.189,434.695Z" fill="#312A5E"/>
<path d="M428.727,332.554L428.727,434.696L425.81,434.696L396.641,434.696L396.188,434.696L396.188,347.691L416.506,347.691L416.506,332.554L428.727,332.554Z" fill="#00ACA1"/>
<path d="M301.592,422.123L301.592,391.974L301.592,305.422L301.592,283.596L343.635,283.596L396.517,283.596L428.728,283.596L428.728,332.554L416.508,332.554L416.508,301.248L322.287,301.248L322.287,347.692L396.19,347.692L396.19,434.696L359.578,434.696L359.578,450.538L301.592,450.538L301.592,422.123Z" fill="#C3D5D8"/>
<path d="M427.068,206.347C428.174,216.657 420.731,225.911 410.421,227.017C400.137,228.149 390.883,220.706 389.752,210.396C388.645,200.086 396.088,190.833 406.398,189.726C416.683,188.62 425.936,196.063 427.068,206.347Z" fill="#312A5E"/>
<path d="M416.506,332.554L416.506,347.691L396.188,347.691L396.188,332.554L396.415,332.554L416.506,332.554Z" fill="#00ACA1"/>
<path d="M396.188,332.554L396.188,347.692L322.285,347.692L322.285,301.248L416.506,301.248L416.506,332.554L396.415,332.554L396.188,332.554ZM384.219,320.107L384.219,309.27L329.502,309.27L329.502,320.107L384.219,320.107ZM375.896,335.27C375.896,332.705 373.834,330.618 371.269,330.618C368.704,330.618 366.642,332.705 366.642,335.27C366.642,337.81 368.704,339.897 371.269,339.897C373.834,339.897 375.896,337.81 375.896,335.27ZM357.565,335.27C357.565,332.705 355.478,330.618 352.938,330.618C350.373,330.618 348.286,332.705 348.286,335.27C348.286,337.81 350.373,339.897 352.938,339.897C355.478,339.897 357.565,337.81 357.565,335.27ZM338.202,335.27C338.202,332.705 336.14,330.618 333.576,330.618C331.011,330.618 328.949,332.705 328.949,335.27C328.949,337.81 331.011,339.897 333.576,339.897C336.14,339.897 338.202,337.81 338.202,335.27Z" fill="#F9F9F9"/>
<path d="M410.698,253.37L349.694,259.983C349.694,259.983 347.406,233.857 376.575,230.688C405.744,227.545 410.698,253.37 410.698,253.37Z" fill="#00ACA1"/>
<path d="M396.516,269.462L396.516,283.594L343.635,283.594L343.635,275.195L396.516,269.462Z" fill="#312A5E"/>
<path d="M396.516,269.036L396.516,269.464L343.635,275.197L343.635,269.036L396.516,269.036Z" fill="#C3D5D8"/>
<path d="M384.221,309.269L329.504,309.269L329.504,320.106L384.221,320.106L384.221,309.269Z" fill="#312A5E"/>
<path d="M371.269,330.617C373.834,330.617 375.896,332.704 375.896,335.269C375.896,337.809 373.834,339.896 371.269,339.896C368.705,339.896 366.643,337.809 366.643,335.269C366.643,332.704 368.705,330.617 371.269,330.617Z" fill="#F47722"/>
<path d="M360.683,213.792C361.789,224.076 354.346,233.33 344.037,234.461C333.752,235.568 324.473,228.125 323.367,217.84C322.26,207.53 329.704,198.277 339.988,197.145C350.298,196.039 359.551,203.482 360.683,213.792Z" fill="#312A5E"/>
<path d="M352.939,330.617C355.479,330.617 357.566,332.704 357.566,335.269C357.566,337.809 355.479,339.896 352.939,339.896C350.374,339.896 348.287,337.809 348.287,335.269C348.287,332.704 350.374,330.617 352.939,330.617Z" fill="#F47722"/>
<path d="M333.576,330.617C336.141,330.617 338.203,332.704 338.203,335.269C338.203,337.809 336.141,339.896 333.576,339.896C331.011,339.896 328.949,337.809 328.949,335.269C328.949,332.704 331.011,330.617 333.576,330.617Z" fill="#F47722"/>
<path d="M202.92,374.044C202.794,374.044 202.668,374.044 202.517,374.044L202.492,373.39C205.837,349.074 218.108,326.066 236.464,309.772C254.317,293.905 277.728,284.475 301.591,283.52L301.591,283.595L301.591,305.421C282.556,306.729 264.074,314.776 250.143,327.776C236.137,340.877 226.833,358.906 224.268,377.917L224.268,378.017C217.253,376.332 210.111,375.075 202.92,374.296L202.92,374.044Z" fill="#00ACA1"/>
<path d="M298.12,152.032L296.989,176.071L289.847,161.285L279.085,165.535L269.957,148.134L285.22,135.863L287.232,154.773L298.12,152.032Z" fill="#F9A138"/>
<path d="M294.425,188.519L280.771,194.831L274.259,215.098L259.498,209.591L259.498,193.096L272.951,197.371L275.29,186.482L294.425,188.519Z" fill="#F9A138"/>
<path d="M364.631,163.097C357.289,147.959 349.946,132.796 342.604,117.659C341.899,116.225 339.536,117.055 340.24,118.513C347.582,133.651 354.925,148.814 362.268,163.952C362.972,165.385 365.335,164.555 364.631,163.097Z" fill="#F9F9F9"/>
<path d="M388.746,116.478C387.916,118.238 386.81,119.923 385.251,121.13C384.748,121.532 384.094,121.834 383.39,122.085C383.415,118.314 383.441,114.542 383.441,110.77C383.441,109.16 380.951,109.362 380.926,110.971C380.901,114.869 380.876,118.741 380.851,122.639C378.889,122.84 376.827,122.588 375.469,121.809C374.665,121.356 374.036,120.376 373.508,119.244C376.224,115.749 377.858,109.638 373.885,107.953C369.309,105.992 369.384,111.826 370.49,116.704C369.912,116.805 369.334,116.905 368.755,117.031C369.334,110.82 367.372,103.654 363.525,99.781C357.44,93.646 355.68,103.93 356.736,108.381C357.666,112.279 360.633,118.54 364.883,120.954C363.726,123.443 361.79,125.43 359.401,125.757C360.206,120.552 358.999,113.913 353.919,113.184C347.256,112.253 348.765,121.909 351.229,125.053C352.486,126.637 354.07,127.668 355.73,128.196C353.215,132.823 347.608,135.538 342.855,129.855C341.824,128.623 339.737,130.031 340.793,131.289C345.42,136.821 353.567,136.821 357.742,130.585C358.094,130.057 358.42,129.378 358.697,128.623C361.866,128.548 365.009,126.838 366.794,123.695C367.121,123.116 367.398,122.513 367.624,121.884C368.554,122.01 369.535,121.935 370.566,121.608C370.968,121.482 371.371,121.231 371.773,120.929C372.024,121.532 372.301,122.035 372.527,122.312C374.866,125.279 377.883,126.109 380.825,125.631C380.75,137.575 380.7,149.519 380.624,161.489C380.624,163.098 383.114,162.897 383.139,161.288C383.214,149.167 383.265,137.022 383.34,124.902C386.559,123.544 389.476,120.753 390.984,117.559C391.713,116.101 389.45,114.994 388.746,116.478ZM355.101,124.55C352.763,122.94 349.796,119.697 353.341,118.012C356.132,116.679 356.484,118.817 356.987,121.532C357.239,122.815 357.138,124.147 356.836,125.43C356.283,125.229 355.705,124.952 355.101,124.55ZM364.883,117.735C364.028,116.805 363.198,115.874 362.343,114.944C361.237,113.41 360.382,111.499 359.753,109.714C359.351,108.557 357.867,103.855 358.848,102.799C360.13,102.748 361.413,102.723 362.67,102.673C363.55,103.88 364.229,105.187 364.682,106.57C365.813,109.689 366.216,113.008 366.065,116.302C366.04,116.704 365.989,117.107 365.939,117.534C365.612,117.609 365.235,117.66 364.883,117.735Z" fill="#F9F9F9"/>
<path d="M351.808,224.504C348.715,222.492 345.622,220.506 342.604,218.393C340.542,221.411 338.43,224.378 336.293,227.345C335.161,228.879 332.747,227.245 333.879,225.711C336.016,222.744 338.128,219.751 340.19,216.734C337.399,214.848 334.608,212.861 331.867,210.875C330.333,209.794 331.968,207.38 333.502,208.486C336.242,210.472 339.034,212.434 341.825,214.345C343.736,211.529 345.622,208.662 347.483,205.795C348.514,204.211 350.902,205.846 349.897,207.43C348.036,210.322 346.15,213.163 344.214,216.004C347.256,218.066 350.349,220.103 353.442,222.115C355.026,223.096 353.392,225.51 351.808,224.504Z" fill="#F9F9F9"/>
<path d="M416.582,216.431C413.489,214.42 410.396,212.433 407.379,210.321C405.317,213.339 403.204,216.306 401.067,219.273C399.936,220.807 397.522,219.172 398.653,217.639C400.79,214.671 402.903,211.679 404.965,208.661C402.174,206.776 399.382,204.789 396.641,202.803C395.108,201.721 396.742,199.307 398.276,200.414C401.017,202.4 403.808,204.362 406.599,206.273C408.51,203.456 410.396,200.59 412.257,197.723C413.288,196.139 415.677,197.773 414.671,199.358C412.81,202.249 410.924,205.091 408.988,207.932C412.031,209.994 415.124,212.031 418.217,214.043C419.801,214.998 418.166,217.412 416.582,216.431Z" fill="#F9F9F9"/>
<path d="M363.7,257.444C362.468,251.56 361.236,245.676 360.004,239.817C359.677,238.258 357.162,238.434 357.489,240.018C358.721,245.902 359.953,251.786 361.186,257.645C361.538,259.204 364.052,259.028 363.7,257.444Z" fill="#067C70"/>
<path d="M372.3,232.299C372.099,230.689 369.585,230.89 369.786,232.5L372.879,256.589C373.08,258.199 375.595,257.997 375.393,256.388L372.3,232.299Z" fill="#067C70"/>
<path d="M384.295,232.499C384.295,230.89 381.78,231.066 381.78,232.7C381.831,240.319 381.881,247.963 381.931,255.583C381.931,257.192 384.446,257.016 384.446,255.382C384.395,247.737 384.345,240.118 384.295,232.499Z" fill="#067C70"/>
<path d="M394.529,234.712C393.448,241.175 392.367,247.662 391.31,254.125C391.034,255.709 393.523,256.212 393.775,254.603C394.856,248.14 395.937,241.652 396.993,235.19C397.27,233.606 394.806,233.128 394.529,234.712Z" fill="#067C70"/>
<path d="M427.924,345.329C417.74,345.077 407.556,344.851 397.372,344.599C395.687,344.549 395.888,347.064 397.573,347.114C407.757,347.365 417.941,347.592 428.125,347.843C429.81,347.893 429.583,345.379 427.924,345.329Z" fill="#067C70"/>
<path d="M427.924,360.743C417.74,360.491 407.556,360.265 397.372,360.013C395.687,359.963 395.888,362.478 397.573,362.528C407.757,362.779 417.941,363.006 428.125,363.257C429.81,363.282 429.583,360.793 427.924,360.743Z" fill="#067C70"/>
<path d="M427.924,375.377C417.74,375.126 407.556,374.9 397.372,374.648C395.687,374.598 395.888,377.112 397.573,377.163C407.757,377.414 417.941,377.641 428.125,377.892C429.81,377.917 429.583,375.428 427.924,375.377Z" fill="#067C70"/>
<path d="M427.924,390.791C417.74,390.539 407.556,390.313 397.372,390.061C395.687,390.011 395.888,392.526 397.573,392.576C407.757,392.827 417.941,393.054 428.125,393.305C429.81,393.33 429.583,390.841 427.924,390.791Z" fill="#067C70"/>
<path d="M427.924,406.985C417.74,406.733 407.556,406.507 397.372,406.256C395.687,406.205 395.888,408.72 397.573,408.77C407.757,409.022 417.941,409.248 428.125,409.499C429.81,409.525 429.583,407.01 427.924,406.985Z" fill="#067C70"/>
<path d="M427.924,422.399C417.74,422.147 407.556,421.921 397.372,421.67C395.687,421.619 395.888,424.134 397.573,424.184C407.757,424.436 417.941,424.662 428.125,424.913C429.81,424.939 429.583,422.424 427.924,422.399Z" fill="#067C70"/>
<path d="M284.291,289.605C284.064,288.021 281.55,288.197 281.776,289.806C282.581,295.514 283.385,301.222 284.19,306.93C284.416,308.515 286.931,308.339 286.705,306.729C285.9,301.021 285.095,295.313 284.291,289.605Z" fill="#067C70"/>
<path d="M270.033,312.261C267.04,306.678 264.023,301.071 261.03,295.489C260.276,294.055 258.189,295.514 258.968,296.922C261.961,302.504 264.978,308.112 267.971,313.694C268.725,315.102 270.787,313.669 270.033,312.261Z" fill="#067C70"/>
<path d="M256.756,320.811C252.783,315.228 248.835,309.621 244.862,304.038C243.932,302.731 241.845,304.139 242.8,305.472C246.773,311.054 250.721,316.662 254.694,322.244C255.625,323.552 257.687,322.143 256.756,320.811Z" fill="#067C70"/>
<path d="M244.107,331.397C239.204,327.097 234.275,322.797 229.372,318.497C228.14,317.441 226.505,319.327 227.738,320.408C232.641,324.708 237.569,329.008 242.473,333.308C243.705,334.364 245.339,332.478 244.107,331.397Z" fill="#067C70"/>
<path d="M233.849,345.403C228.166,342.159 222.458,338.915 216.775,335.671C215.367,334.867 214.285,337.13 215.668,337.934C221.351,341.178 227.059,344.422 232.742,347.666C234.15,348.47 235.232,346.182 233.849,345.403Z" fill="#067C70"/>
<path d="M226.179,363.055C219.842,361.068 213.531,359.082 207.194,357.095C205.66,356.618 205.182,359.082 206.716,359.56C213.053,361.546 219.365,363.533 225.701,365.519C227.26,366.022 227.713,363.533 226.179,363.055Z" fill="#067C70"/>
<path d="M231.736,440.454C224.67,437.336 217.604,434.218 210.564,431.1C209.08,430.446 207.974,432.709 209.457,433.363C216.523,436.481 223.589,439.599 230.63,442.717C232.113,443.371 233.22,441.108 231.736,440.454Z" fill="#067C70"/>
<path d="M242.599,428.964L226.229,411.236C225.122,410.054 223.513,411.965 224.594,413.147C230.051,419.056 235.508,424.965 240.964,430.875C242.045,432.057 243.68,430.145 242.599,428.964Z" fill="#067C70"/>
<path d="M255.223,420.186C252.382,411.637 249.515,403.113 246.674,394.563C246.171,393.029 243.782,393.884 244.31,395.418C247.152,403.968 250.018,412.492 252.86,421.041C253.388,422.575 255.751,421.72 255.223,420.186Z" fill="#067C70"/>
<path d="M264.174,389.432C263.998,387.823 261.483,387.999 261.659,389.634C262.791,399.189 263.897,408.744 265.029,418.274C265.205,419.884 267.719,419.708 267.543,418.073C266.412,408.543 265.305,398.988 264.174,389.432Z" fill="#067C70"/>
<path d="M282.907,389.659C282.329,398.863 281.776,408.091 281.197,417.294C281.097,418.879 283.561,419.381 283.662,417.772C284.24,408.569 284.793,399.34 285.372,390.137C285.472,388.553 283.008,388.05 282.907,389.659Z" fill="#067C70"/>
<path d="M297.543,393.029C295.984,401.553 294.45,410.077 292.891,418.627C292.614,420.211 295.078,420.714 295.355,419.105C296.914,410.58 298.448,402.056 300.007,393.506C300.309,391.922 297.819,391.444 297.543,393.029Z" fill="#067C70"/>
<path d="M317.181,236.397C317.056,234.788 314.541,234.964 314.667,236.598C315.094,241.728 315.547,246.858 315.974,251.962C316.1,253.572 318.615,253.396 318.489,251.761C318.061,246.632 317.609,241.527 317.181,236.397Z" fill="#A2BABC"/>
<path d="M322.387,249.497C322.286,247.888 319.771,248.064 319.872,249.698C320.098,253.319 320.325,256.94 320.551,260.536C320.652,262.145 323.166,261.969 323.066,260.335C322.839,256.739 322.613,253.118 322.387,249.497Z" fill="#A2BABC"/>
<path d="M318.313,262.623C318.238,261.014 315.723,261.19 315.799,262.824C315.924,265.615 316.05,268.406 316.176,271.198C316.251,272.807 318.766,272.631 318.69,270.996C318.565,268.18 318.439,265.389 318.313,262.623Z" fill="#A2BABC"/>
<path d="M441.048,227.344C440.973,225.734 438.458,225.91 438.534,227.545L439.213,240.646C439.288,242.255 441.803,242.079 441.727,240.444C441.501,236.094 441.275,231.719 441.048,227.344Z" fill="#A2BABC"/>
<path d="M439.466,248.566L439.466,256.034C439.466,257.644 441.98,257.468 441.98,255.833L441.98,248.365C441.98,246.756 439.466,246.957 439.466,248.566Z" fill="#A2BABC"/>
<path d="M436.322,241.376C436.222,239.766 433.707,239.943 433.808,241.577C433.958,244.066 434.109,246.556 434.26,249.045C434.361,250.655 436.875,250.479 436.775,248.844C436.624,246.329 436.473,243.84 436.322,241.376Z" fill="#A2BABC"/>
<path d="M343.886,350.382C335.11,350.181 326.334,349.98 317.533,349.804C317.433,344.548 317.332,339.293 317.232,334.062C317.206,332.453 314.692,332.629 314.717,334.263C314.818,339.67 314.918,345.076 315.019,350.482C314.767,351.212 315.195,352.293 316.251,352.293C325.53,352.494 334.783,352.72 344.062,352.922C345.696,352.922 345.495,350.407 343.886,350.382Z" fill="#A2BABC"/>
<path d="M382.308,349.452C373.181,349.779 364.078,350.106 354.95,350.433C353.341,350.483 353.517,352.997 355.151,352.947C364.279,352.62 373.382,352.293 382.51,351.966C384.119,351.891 383.943,349.376 382.308,349.452Z" fill="#A2BABC"/>
<path d="M376.224,354.632C370.943,354.833 365.663,355.009 360.407,355.21C358.798,355.26 358.974,357.775 360.608,357.725C365.889,357.523 371.169,357.347 376.425,357.146C378.034,357.096 377.833,354.581 376.224,354.632Z" fill="#A2BABC"/>
<path d="M308.078,385.109C308.053,383.5 305.539,383.676 305.564,385.31C305.765,398.562 305.991,411.839 306.192,425.091C306.217,426.7 308.732,426.524 308.707,424.89C308.506,411.638 308.279,398.386 308.078,385.109Z" fill="#A2BABC"/>
<path d="M308.607,430.999C308.532,429.39 306.017,429.566 306.092,431.2C306.319,435.424 306.545,439.649 306.771,443.848C306.847,445.458 309.361,445.282 309.286,443.647C309.06,439.448 308.833,435.223 308.607,430.999Z" fill="#A2BABC"/>
<path d="M314.063,421.972C313.937,420.362 311.423,420.538 311.549,422.173C311.85,426.171 312.152,430.169 312.454,434.142C312.579,435.751 315.094,435.575 314.968,433.941C314.667,429.943 314.365,425.945 314.063,421.972Z" fill="#A2BABC"/>
<path d="M306.796,152.336C306.67,158.597 306.519,164.883 306.394,171.145C306.369,172.754 308.858,172.553 308.908,170.944C309.034,164.682 309.185,158.396 309.311,152.135C309.336,150.525 306.846,150.726 306.796,152.336Z" fill="#F9A138"/>
<path d="M290.752,179.14C285.597,176.374 280.443,173.633 275.313,170.867C273.88,170.112 272.798,172.375 274.206,173.13C279.361,175.896 284.516,178.637 289.646,181.403C291.079,182.157 292.186,179.894 290.752,179.14Z" fill="#F9A138"/>
<path d="M294.198,197.32L284.517,205.593C283.31,206.624 284.718,208.711 285.951,207.655C289.169,204.889 292.413,202.148 295.632,199.382C296.839,198.351 295.431,196.289 294.198,197.32Z" fill="#F9A138"/>
<path d="M328.823,94.649C321.229,104.657 319.268,117.355 323.593,129.174C324.146,130.683 326.51,129.853 325.957,128.319C321.933,117.355 323.643,105.612 330.734,96.283C331.715,95.001 329.804,93.366 328.823,94.649Z" fill="#F7BC39"/>
<path d="M384.949,87.384C383.541,86.58 382.434,88.843 383.843,89.647C393.75,95.23 399.659,105.439 399.76,116.779C399.785,118.389 402.274,118.213 402.274,116.578C402.174,104.332 395.611,93.394 384.949,87.384Z" fill="#F7BC39"/>
<path d="M397.674,127.415C397.523,133.877 395.008,139.711 390.507,144.363C389.375,145.52 391.287,147.154 392.418,145.997C397.372,140.868 400.012,134.33 400.163,127.214C400.213,125.604 397.699,125.805 397.674,127.415Z" fill="#F7BC39"/>
<path d="M339.536,148.185C335.814,146.274 332.797,143.483 330.609,139.912C329.754,138.529 327.692,139.963 328.547,141.346C330.936,145.268 334.356,148.361 338.429,150.448C339.863,151.177 340.969,148.914 339.536,148.185Z" fill="#F7BC39"/>
<path d="M339.712,83.184C337.65,84.969 335.588,86.755 333.551,88.54C332.344,89.596 333.753,91.683 334.985,90.602L341.146,85.246C342.353,84.215 340.944,82.128 339.712,83.184Z" fill="#F7BC39"/>
<path d="M338.403,90.678C335.839,93.921 333.274,97.165 330.709,100.409C329.703,101.666 331.614,103.326 332.62,102.043C335.185,98.8 337.75,95.556 340.315,92.312C341.295,91.055 339.409,89.42 338.403,90.678Z" fill="#F7BC39"/>
<path d="M395.66,112.755C395.459,111.145 392.945,111.347 393.146,112.956C393.875,118.387 393.699,123.743 392.668,129.125C392.366,130.709 394.831,131.186 395.132,129.602C396.214,123.995 396.415,118.412 395.66,112.755Z" fill="#F7BC39"/>
<path d="M658.359,439.673L658.359,450.485L560.266,450.485L560.266,439.673L568.991,439.673L649.659,439.673L658.359,439.673Z" fill="#F47722"/>
<path d="M641.713,410.654L649.659,439.672L568.991,439.672L576.057,410.73L641.436,410.73L641.713,410.654Z" fill="#F79021"/>
<path d="M634.521,384.528L641.713,410.655L641.436,410.73L576.058,410.73L582.47,384.528L634.521,384.528Z" fill="#F9F9F9"/>
<path d="M622.502,340.599L634.547,384.528L582.47,384.528L593.232,340.599C593.232,340.599 598.764,351.487 609.351,351.487C619.937,351.487 622.502,340.599 622.502,340.599Z" fill="#F79021"/>
<path d="M593.207,340.599L622.502,340.599C622.502,340.599 619.887,351.487 609.325,351.487C598.764,351.487 593.207,340.599 593.207,340.599Z" fill="#F47722"/>
<path d="M509.521,231.341C495.968,232.397 482.339,232.397 468.785,231.366C469.011,225.029 469.263,218.743 469.514,212.481C497.476,212.079 525.388,209.414 552.898,204.561C556.167,235.339 553.752,279.092 553.652,309.971C571.43,339.97 587.247,371.201 599.04,403.991L598.587,404.142C598.462,404.393 598.336,404.621 598.185,404.847C594.69,410.881 588.428,415.207 581.589,416.489L581.639,416.715C580.784,417.419 579.954,418.123 579.125,418.877L578.999,418.727C561.472,387.445 543.292,356.516 524.533,325.939C519.655,294.607 514.777,263.226 509.873,231.894L509.446,231.844C509.471,231.668 509.496,231.517 509.521,231.341Z" fill="#F9A138"/>
<path d="M467.528,427.704C467.025,427.955 466.497,428.206 465.994,428.483L465.793,428.106C464.888,369.315 466.271,298.983 468.785,231.366C482.339,232.397 495.968,232.397 509.521,231.341C509.496,231.517 509.471,231.668 509.446,231.844C505.02,264.583 499.513,297.172 492.975,329.535C492.171,362.199 491.366,394.863 487.594,427.326L486.764,427.226C480.453,427.88 474.091,428.156 467.729,428.081L467.528,427.704Z" fill="#F79021"/>
<path d="M552.947,140.187C548.471,150.422 543.442,160.43 538.438,170.387L537.684,170.01C534.893,171.594 531.423,170.538 528.43,169.407C509.093,162.064 490.812,152.408 472.758,142.274C473.085,136.164 473.412,130.154 473.738,124.27C490.284,130.657 507.057,136.541 523.98,141.922C527.374,121.152 531.875,100.206 541.833,81.698C543.87,77.901 546.636,73.878 550.86,73.149C551.942,72.948 553.023,73.023 554.079,73.249C556.77,73.878 559.234,75.789 561.019,78.002C564.615,82.503 566.174,88.362 566.275,94.12C566.375,99.879 565.118,105.562 563.559,111.119C560.793,121.077 557.096,130.733 552.947,140.187Z" fill="#00ACA1"/>
<path d="M436.599,151.051C438.007,150.774 439.466,150.648 440.975,150.648C445.979,150.648 450.605,152.157 454.478,154.772C460.89,159.097 465.114,166.44 465.114,174.763C465.114,184.771 459.029,193.321 450.379,196.992L454.277,175.165L440.824,167.974L440.547,168.1L440.321,165.962L417.715,168.426C420.104,159.55 427.446,152.736 436.599,151.051Z" fill="#312A5E"/>
<path d="M538.439,170.388C543.443,160.43 548.472,150.422 552.948,140.188C553.426,161.561 553.904,182.935 554.381,204.309C553.878,204.41 553.401,204.485 552.898,204.56C525.388,209.414 497.477,212.079 469.515,212.481C470.018,199.808 470.571,187.31 471.149,175.04C471.677,163.9 472.205,152.936 472.758,142.275C490.813,152.408 509.094,162.064 528.431,169.407C531.423,170.538 534.893,171.594 537.685,170.01L538.439,170.388Z" fill="#00ACA1"/>
<path d="M521.088,66.837C532.303,67.591 543.442,69.578 554.23,72.746L554.079,73.249C553.023,73.023 551.941,72.947 550.86,73.148C546.636,73.878 543.87,77.901 541.833,81.698C531.875,100.205 527.374,121.152 523.979,141.922C507.056,136.541 490.284,130.657 473.738,124.27C473.99,119.844 474.241,115.494 474.493,111.194C471.45,112.577 465.415,114.74 458.098,117.229L460.637,90.147C467.427,87.985 472.632,82.276 474.09,75.185L475.398,75.412C481.106,72.897 487.216,71.288 493.427,70.659C493.402,71.087 493.377,71.514 493.352,71.941L493.151,72.067C496.42,77.951 499.311,83.986 501.851,90.197L502.631,90.826C508.867,83.131 515.103,75.487 521.314,67.792C521.314,67.792 521.238,67.44 521.088,66.837Z" fill="#00ACA1"/>
<path d="M472.758,142.275C468.308,139.811 463.907,137.297 459.481,134.807C459.708,129.904 460.336,125.025 461.393,120.223C461.468,120.273 461.569,120.323 461.644,120.374L462.901,120.021C466.497,121.455 470.118,122.888 473.739,124.271C473.412,130.155 473.085,136.165 472.758,142.275Z" fill="#00ACA1"/>
<path d="M458.099,117.229L457.998,118.286C457.621,118.084 457.193,117.883 456.791,117.682C457.218,117.531 457.671,117.38 458.099,117.229Z" fill="#312A5E"/>
<path d="M454.578,91.078C456.69,91.078 458.727,90.751 460.638,90.148L458.099,117.23C457.671,117.38 457.219,117.531 456.791,117.682C454.05,116.4 451.158,115.419 448.191,114.765C446.154,114.313 444.017,114.011 441.955,114.288L445.651,88.966C448.342,90.324 451.36,91.078 454.578,91.078Z" fill="#312A5E"/>
<path d="M457.997,118.286L456.237,137.045C453.723,138.101 450.73,139.182 448.819,139.459C445.978,139.911 442.885,139.534 440.546,137.849C439.867,137.372 439.289,136.793 438.786,136.165L440.672,123.089C446.229,121.253 451.786,119.393 456.79,117.683C457.193,117.884 457.62,118.085 457.997,118.286Z" fill="#F2B481"/>
<path d="M448.191,114.765C451.159,115.419 454.05,116.4 456.791,117.682C451.787,119.392 446.23,121.253 440.673,123.089L441.955,114.288C444.017,114.011 446.155,114.313 448.191,114.765Z" fill="#F2B481"/>
<path d="M605.075,414.1C606.508,417.545 606.659,421.795 604.471,424.837C602.962,426.925 600.574,428.207 598.235,429.364C584.003,436.404 569.192,442.289 553.979,446.89C561.17,436.555 569.644,427.126 579.124,418.878C579.954,418.124 580.784,417.42 581.639,416.715L581.589,416.489C588.428,415.207 594.689,410.882 598.185,404.847L598.537,405.048C601.051,407.814 603.616,410.655 605.075,414.1Z" fill="#312A5E"/>
<path d="M516.562,46.143C517.115,49.487 520.234,63.116 521.088,66.838C521.239,67.441 521.315,67.793 521.315,67.793C515.104,75.488 508.868,83.132 502.632,90.827L501.852,90.198C499.312,83.987 496.421,77.952 493.152,72.068L493.353,71.942C493.378,71.515 493.403,71.087 493.428,70.66C493.604,67.29 493.805,63.946 494.032,60.602C488.952,60.35 483.596,59.596 480.051,56.025C476.631,52.555 475.826,47.375 475.223,42.547C474.242,35.053 473.287,27.56 472.331,20.067C484.552,19.689 496.773,19.287 509.019,18.885C509.773,23.713 511.03,28.44 512.74,33.017L513.117,33.193C514.048,31.332 515.28,29.597 517.115,28.641C518.348,27.988 519.856,27.837 521.139,28.214C521.994,28.465 522.723,28.943 523.251,29.647C524.307,31.08 524.181,33.067 523.804,34.802C522.773,39.253 520.158,43.326 516.562,46.143Z" fill="#F2B481"/>
<path d="M472.28,19.715L471.928,19.765C468.885,17.175 465.742,14.409 464.409,10.637C463.051,6.891 464.233,1.912 467.93,0.428C469.866,-0.326 472.079,0.001 474.015,0.755C475.926,1.509 477.661,2.691 479.471,3.697C485.532,7.041 492.497,8.45 499.412,8.726C504.869,8.952 510.3,8.525 515.706,7.972L520.258,8.123C520.585,14.761 520.886,21.425 521.188,28.063L521.138,28.214C519.855,27.837 518.347,27.988 517.115,28.642C515.279,29.597 514.047,31.332 513.116,33.193L512.739,33.017C511.029,28.44 509.772,23.713 509.018,18.885C496.772,19.287 484.551,19.69 472.33,20.067C472.305,19.941 472.305,19.841 472.28,19.715Z" fill="#312A5E"/>
<path d="M488.072,428.056C488.7,433.463 488.851,438.944 488.474,444.376L488.575,446.689C471.4,447.494 454.2,448.324 437.026,449.154L436.875,445.784C446.229,439.447 455.961,433.639 465.994,428.484C466.497,428.207 467.025,427.956 467.528,427.704L467.729,428.082C474.091,428.157 480.452,427.88 486.764,427.227L487.594,427.327C487.569,427.553 487.544,427.805 487.518,428.031L488.072,428.056Z" fill="#312A5E"/>
<path d="M445.35,88.815C438.988,85.496 434.638,78.858 434.638,71.163C434.638,62.915 439.667,55.849 446.808,52.807L443.59,70.836L454.704,76.77L464.812,72.169L466.497,55.195C471.35,58.842 474.493,64.65 474.493,71.163C474.493,72.546 474.343,73.879 474.091,75.186C472.633,82.277 467.428,87.985 460.638,90.148C458.727,90.751 456.69,91.078 454.578,91.078C451.36,91.078 448.342,90.324 445.651,88.966C445.551,88.916 445.45,88.866 445.35,88.815Z" fill="#312A5E"/>
<path d="M459.48,134.806C459.455,135.082 459.43,135.334 459.43,135.611C458.575,136.013 457.468,136.516 456.236,137.044L457.997,118.285C459.178,118.864 460.285,119.517 461.391,120.221C460.335,125.024 459.706,129.902 459.48,134.806Z" fill="#F2B481"/>
<path d="M456.237,137.046L454.578,154.598L454.477,154.774C450.605,152.159 445.978,150.65 440.974,150.65C439.465,150.65 438.007,150.776 436.599,151.052L438.786,136.166C439.289,136.795 439.868,137.373 440.546,137.851C442.885,139.536 445.978,139.913 448.819,139.46C450.731,139.183 453.723,138.102 456.237,137.046Z" fill="#312A5E"/>
<path d="M440.32,165.963L440.547,168.1L428.577,173.557L426.54,194.101C420.656,189.7 416.859,182.66 416.859,174.764C416.859,172.576 417.161,170.439 417.714,168.427L440.32,165.963Z" fill="#312A5E"/>
<path d="M481.207,26.152C478.818,25.725 476.505,26.202 474.468,27.535C473.11,28.415 474.544,30.502 475.901,29.597C477.36,28.641 479.019,28.315 480.729,28.616C482.314,28.893 482.791,26.429 481.207,26.152Z" fill="#312A5E"/>
<path d="M501.701,26.756C498.708,25.549 495.54,25.474 492.497,26.605C490.989,27.184 491.818,29.547 493.352,28.969C495.741,28.064 498.23,28.064 500.594,29.019C502.103,29.623 503.209,27.36 501.701,26.756Z" fill="#312A5E"/>
<path d="M479.623,31.809C479.12,31.23 478.19,31.029 477.636,31.708C477.486,31.884 477.385,32.085 477.284,32.261C477.159,32.387 477.058,32.538 476.983,32.739C476.656,33.72 476.354,34.751 476.907,35.706C477.385,36.511 478.29,36.989 479.221,36.788C481.584,36.234 480.754,33.091 479.623,31.809Z" fill="#312A5E"/>
<path d="M498.785,33.621C498.558,32.288 497.502,30.955 495.994,31.508C494.787,31.961 494.51,33.118 494.711,34.199C494.661,35.481 495.164,36.789 496.698,36.864C498.483,36.965 499.011,35.054 498.785,33.621Z" fill="#312A5E"/>
<path d="M489.48,48.909C489.228,47.199 487.795,45.036 485.808,46.193C485.658,46.294 485.532,46.42 485.406,46.52C485.029,46.621 484.752,46.922 484.702,47.45C484.576,49.085 484.627,52.002 486.563,52.63C488.901,53.385 489.731,50.669 489.48,48.909Z" fill="#312A5E"/>
<path d="M487.042,42.044C484.728,41.918 485.483,40.058 485.835,38.373C486.212,36.688 486.564,34.978 486.941,33.293C487.293,31.709 484.804,31.232 484.477,32.816C484.15,34.375 483.798,35.934 483.471,37.493C483.194,38.75 482.742,40.083 482.792,41.365C482.867,43.553 484.628,44.383 486.589,44.508C488.148,44.609 488.651,42.145 487.042,42.044Z" fill="#E08B4B"/>
<path d="M508.314,44.03C507.736,40.283 502.808,38.699 500.293,41.641C499.463,42.597 499.237,43.804 499.438,44.91C499.438,46.293 500.016,47.676 501.425,48.556C504.618,50.543 508.893,47.802 508.314,44.03Z" fill="#E08B4B"/>
<path d="M551.565,72.723C540.526,76.746 535.396,87.056 532.253,97.718C527.928,112.352 525.087,127.465 523.201,142.603C523.176,142.578 523.15,142.552 523.1,142.527C507.585,135.134 491.693,128.622 475.449,123.039C473.94,122.511 472.809,124.774 474.343,125.303C490.587,130.885 506.479,137.398 521.994,144.79C522.471,145.017 522.899,144.916 523.201,144.665C523.754,145.545 525.338,145.62 525.489,144.338C526.998,131.84 529.236,119.469 532.278,107.248C535.396,94.801 538.942,79.965 552.42,75.087C553.929,74.533 553.099,72.17 551.565,72.723Z" fill="#067C70"/>
<path d="M550.886,141.546C547.693,148.763 544.499,155.98 541.306,163.171C540.149,165.786 539.747,167.295 537.132,168.854C533.963,170.74 532.203,169.307 528.884,168.024C525.238,166.641 521.617,165.133 518.046,163.599C503.688,157.438 489.782,150.272 476.38,142.225C474.997,141.395 473.89,143.658 475.273,144.488C492.02,154.521 509.547,163.222 527.777,170.288C532.153,171.972 537.308,174.889 540.778,170.313C543.317,166.918 544.726,161.663 546.435,157.79C548.673,152.736 550.911,147.682 553.149,142.652C553.803,141.169 551.54,140.062 550.886,141.546Z" fill="#067C70"/>
<path d="M474.267,86.553L473.412,107.222C473.336,108.832 475.851,108.63 475.926,107.021C476.203,100.131 476.505,93.241 476.781,86.351C476.857,84.742 474.342,84.943 474.267,86.553Z" fill="#067C70"/>
</svg>
