<svg width="224" height="430" viewBox="0 0 224 430" fill="none" xmlns="http://www.w3.org/2000/svg" xmlns:xlink="http://www.w3.org/1999/xlink">
<path d="M189.084,156.893C222.313,139.231 230.733,177.656 217.815,209.467C204.898,241.278 138.626,348.295 135.155,390.724C133.82,407.174 130.74,405.365 128.132,393.845C115.05,336.322 143.349,181.209 189.084,156.893Z" clip-rule="evenodd" fill-rule="evenodd" fill="#08661D"/>
<path d="M118.746,11.123C80.651,-23.173 56.828,24.842 63.421,71.152C70.013,117.462 122.32,280.79 112.914,338.026C109.258,360.206 113.9,358.85 121.19,344.474C157.458,272.74 171.176,58.337 118.746,11.123Z" clip-rule="evenodd" fill-rule="evenodd" fill="#63C015"/>
<path d="M112.113,353.941C112.935,356.077 114.742,355.009 117.165,351.477C156.863,219.221 95.027,21.617 94.821,20.981C94.493,19.892 93.322,19.276 92.234,19.625C91.145,19.954 90.529,21.124 90.878,22.213C91.063,22.829 153.762,223.123 112.113,353.941Z" clip-rule="evenodd" fill-rule="evenodd" fill="#1B7154"/>
<path d="M35.532,121.015C-1.393,104.935 -7.184,146.645 9.265,179.504C25.695,212.362 105.315,321.002 112.544,365.976C115.337,383.412 118.459,381.236 120.307,368.728C129.487,306.256 86.339,143.133 35.532,121.015Z" clip-rule="evenodd" fill-rule="evenodd" fill="#85AE3E"/>
<path d="M115.912,378.032C117.042,379.408 118.13,378.176 119.054,374.93C115.707,266.538 20.458,134.733 20.15,134.302C19.636,133.583 18.609,133.419 17.891,133.933C17.172,134.446 17.008,135.473 17.521,136.192C17.829,136.623 114.392,270.214 115.912,378.032Z" clip-rule="evenodd" fill-rule="evenodd" fill="#5F9850"/>
<path d="M87.511,354.025L158.424,354.025L176.948,370.742L161.812,429.005L122.977,429.005L84.122,429.005L68.987,370.742L87.511,354.025Z" clip-rule="evenodd" fill-rule="evenodd" fill="#3B405F"/>
<path d="M68.986,332.338L176.927,332.338C180.151,332.338 182.8,334.987 182.8,338.211L182.8,364.868C182.8,368.092 180.151,370.741 176.927,370.741L68.986,370.741C65.762,370.741 63.113,368.092 63.113,364.868L63.113,338.211C63.133,334.987 65.762,332.338 68.986,332.338Z" clip-rule="evenodd" fill-rule="evenodd" fill="#3B405F"/>
<path d="M176.948,370.741L173.826,382.714L72.108,382.714L68.987,370.741L176.948,370.741Z" clip-rule="evenodd" fill-rule="evenodd" fill="#101537"/>
</svg>
