<svg width="40" height="40" viewBox="0 0 40 40" fill="none" xmlns="http://www.w3.org/2000/svg" xmlns:xlink="http://www.w3.org/1999/xlink">
<path d="M14.671,22.773C14.194,23.251 14.194,24.024 14.671,24.502C15.148,24.979 15.922,24.979 16.399,24.502L14.671,22.773ZM34.322,6.579C34.799,6.102 34.799,5.328 34.322,4.851C33.845,4.374 33.071,4.374 32.594,4.851L34.322,6.579ZM16.399,24.502L34.322,6.579L32.594,4.851L14.671,22.773L16.399,24.502Z" fill="#707070"/>
<path d="M33.46,5.715L34.61,6.13C34.771,5.684 34.659,5.186 34.324,4.851C33.989,4.516 33.491,4.405 33.045,4.565L33.46,5.715ZM22.87,35.043L23.981,35.552C23.995,35.521 24.007,35.49 24.019,35.458L22.87,35.043ZM22.055,35.566L22.055,36.788L22.055,35.566ZM21.24,35.043L22.351,34.534C22.345,34.521 22.339,34.509 22.333,34.496L21.24,35.043ZM15.538,23.638L16.631,23.091C16.512,22.855 16.321,22.663 16.084,22.545L15.538,23.638ZM4.132,17.935L4.679,16.842C4.666,16.836 4.654,16.83 4.641,16.824L4.132,17.935ZM3.609,17.12L4.831,17.12L3.609,17.12ZM4.132,16.306L3.717,15.156C3.685,15.168 3.654,15.181 3.623,15.195L4.132,16.306ZM32.311,5.3L21.72,34.628L24.019,35.458L34.61,6.13L32.311,5.3ZM21.759,34.534C21.785,34.477 21.826,34.429 21.879,34.395L23.199,36.452C23.54,36.233 23.812,35.921 23.981,35.552L21.759,34.534ZM21.879,34.395C21.931,34.362 21.993,34.344 22.055,34.344L22.055,36.788C22.461,36.788 22.858,36.671 23.199,36.452L21.879,34.395ZM22.055,34.344C22.117,34.344 22.178,34.362 22.231,34.395L20.911,36.452C21.252,36.671 21.649,36.788 22.055,36.788L22.055,34.344ZM22.231,34.395C22.283,34.429 22.325,34.477 22.351,34.534L20.129,35.552C20.298,35.921 20.57,36.233 20.911,36.452L22.231,34.395ZM22.333,34.496L16.631,23.091L14.445,24.184L20.147,35.589L22.333,34.496ZM16.084,22.545L4.679,16.842L3.586,19.028L14.991,24.731L16.084,22.545ZM4.641,16.824C4.698,16.85 4.746,16.892 4.78,16.944L2.723,18.264C2.942,18.606 3.254,18.877 3.623,19.046L4.641,16.824ZM4.78,16.944C4.813,16.997 4.831,17.058 4.831,17.12L2.387,17.12C2.387,17.526 2.504,17.923 2.723,18.264L4.78,16.944ZM4.831,17.12C4.831,17.183 4.813,17.244 4.78,17.296L2.723,15.976C2.504,16.318 2.387,16.715 2.387,17.12L4.831,17.12ZM4.78,17.296C4.746,17.349 4.698,17.39 4.641,17.416L3.623,15.195C3.254,15.364 2.942,15.635 2.723,15.976L4.78,17.296ZM4.547,17.455L33.875,6.864L33.045,4.565L3.717,15.156L4.547,17.455Z" fill="#707070"/>
</svg>
