<svg width="56" height="48" viewBox="0 0 56 48" fill="none" xmlns="http://www.w3.org/2000/svg" xmlns:xlink="http://www.w3.org/1999/xlink">
<path d="M-0.286,41.728C0.005,41.087 0.5,40.862 1.204,40.864C5.515,40.884 9.826,40.875 14.137,40.875C14.325,40.875 14.514,40.875 14.672,40.875C13.613,39.79 12.495,38.779 11.532,37.637C8.663,34.232 7.034,30.281 6.647,25.846C6.523,24.437 6.524,23.012 6.539,21.594C6.56,19.651 7.946,18.272 9.891,18.176C10.032,18.17 10.175,18.17 10.317,18.17C20.66,18.17 31.002,18.175 41.345,18.163C42.589,18.162 43.642,18.502 44.431,19.509C44.973,20.199 45.139,21.001 45.15,21.851C45.155,22.326 45.151,22.801 45.151,23.247C46.177,23.071 47.146,22.872 48.125,22.745C49.214,22.606 50.288,22.728 51.308,23.158C52.986,23.866 53.811,25.218 54.116,26.951C54.147,27.123 54.19,27.29 54.229,27.461C54.229,28.029 54.229,28.596 54.229,29.164C53.997,29.809 53.835,30.489 53.521,31.089C52.628,32.795 51.171,33.954 49.562,34.93C46.57,36.744 43.278,37.766 39.895,38.538C39.656,38.592 39.365,38.606 39.198,38.752C38.434,39.419 37.705,40.126 36.902,40.874C37.175,40.874 37.365,40.874 37.557,40.874C41.905,40.874 46.252,40.876 50.6,40.87C51.163,40.868 51.626,41.028 51.857,41.572C52.09,42.118 51.883,42.564 51.481,42.959C50.683,43.743 49.902,44.543 49.108,45.328C47.516,46.9 45.595,47.686 43.361,47.688C31.666,47.69 19.973,47.69 8.278,47.688C6.464,47.688 4.766,47.215 3.396,46.023C2.095,44.889 0.936,43.593 -0.286,42.367C-0.286,42.154 -0.286,41.941 -0.286,41.728ZM25.821,20.434C20.624,20.434 15.427,20.432 10.229,20.435C9.271,20.435 8.773,20.842 8.801,21.745C8.856,23.513 8.813,25.309 9.107,27.043C10.134,33.089 13.398,37.624 18.707,40.685C18.91,40.8 19.172,40.866 19.406,40.866C23.681,40.876 27.956,40.875 32.23,40.867C32.451,40.867 32.7,40.83 32.887,40.725C37.614,38.061 40.71,34.111 42.196,28.894C42.84,26.632 42.895,24.315 42.864,21.987C42.848,20.79 42.501,20.432 41.306,20.432C36.145,20.434 30.983,20.434 25.821,20.434ZM3.668,43.163C3.78,43.305 3.837,43.388 3.905,43.461C5.156,44.82 6.709,45.433 8.551,45.432C20.065,45.421 31.578,45.428 43.092,45.423C43.517,45.423 43.946,45.404 44.364,45.337C45.836,45.102 47.014,44.363 48.011,43.163C33.206,43.163 18.489,43.163 3.668,43.163ZM41.527,35.818C44.484,34.919 47.262,33.974 49.637,32.16C51.123,31.026 52.147,29.653 51.912,27.607C51.723,25.965 50.862,25.069 49.201,25.003C47.943,24.953 46.744,25.233 45.552,25.596C45.143,25.721 45.035,25.956 44.967,26.346C44.756,27.563 44.548,28.788 44.231,29.98C43.686,32.028 42.758,33.917 41.527,35.818Z" fill="#FFFFFF"/>
<path d="M29.224,5.01C29.242,6.142 28.657,7.51 27.767,8.801C26.793,10.212 26.744,11.745 27.41,13.304C27.542,13.61 27.759,13.879 27.917,14.176C28.23,14.764 28.076,15.379 27.547,15.71C27.023,16.039 26.407,15.897 26.006,15.353C24.34,13.099 24.232,9.955 25.835,7.629C26.774,6.265 27.245,4.85 26.753,3.228C26.606,2.746 26.336,2.295 26.086,1.851C25.843,1.419 25.743,0.996 26.012,0.55C26.457,-0.189 27.408,-0.172 27.953,0.575C28.82,1.76 29.223,3.092 29.224,5.01Z" fill="#FFFFFF"/>
<path d="M22.415,4.824C22.443,6.096 21.895,7.483 20.986,8.762C20.14,9.951 19.968,11.278 20.374,12.661C20.511,13.127 20.772,13.564 21.015,13.992C21.415,14.698 21.324,15.355 20.741,15.713C20.172,16.064 19.555,15.877 19.112,15.219C17.495,12.822 17.451,9.94 19.089,7.54C20.152,5.985 20.488,4.391 19.735,2.63C19.618,2.356 19.438,2.108 19.288,1.848C18.908,1.194 19.006,0.557 19.538,0.205C20.11,-0.173 20.74,-0.006 21.186,0.623C22.011,1.788 22.409,3.085 22.415,4.824Z" fill="#FFFFFF"/>
<path d="M36.037,4.449C36.062,6.092 35.533,7.468 34.63,8.731C33.769,9.935 33.586,11.28 34.009,12.678C34.17,13.211 34.493,13.694 34.754,14.194C34.97,14.609 34.966,15.011 34.698,15.396C34.428,15.783 34.03,15.967 33.588,15.841C33.306,15.759 33.001,15.561 32.83,15.327C31.146,13.038 31.058,9.966 32.673,7.61C33.608,6.243 34.074,4.823 33.571,3.206C33.406,2.675 33.081,2.192 32.83,1.688C32.542,1.113 32.685,0.511 33.185,0.193C33.703,-0.137 34.306,-0.042 34.698,0.466C34.935,0.773 35.151,1.105 35.324,1.451C35.803,2.416 36.064,3.439 36.037,4.449Z" fill="#FFFFFF"/>
</svg>
