<svg width="118" height="84" viewBox="0 0 118 84" fill="none" xmlns="http://www.w3.org/2000/svg" xmlns:xlink="http://www.w3.org/1999/xlink">
<path d="M76.738,48.551L73.292,48.551L73.292,51.25L76.738,51.25L76.738,48.551Z" transform="rotate(-360 75.015 49.901)" fill="#99A2A9"/>
<path d="M73.012,53.836L69.59,53.836L69.59,78.137L73.012,78.137L73.012,53.836Z" fill="#99A2A9"/>
<path d="M64.494,80.968C64.494,82.065 63.603,82.956 62.507,82.956C61.41,82.956 60.519,82.065 60.519,80.968C60.519,79.872 61.41,78.98 62.507,78.98C63.603,78.98 64.494,79.872 64.494,80.968Z" fill="#303030"/>
<path d="M82.53,80.968C82.53,82.065 81.638,82.956 80.542,82.956C79.445,82.956 78.554,82.065 78.554,80.968C78.554,79.872 79.445,78.98 80.542,78.98C81.638,78.98 82.53,79.872 82.53,80.968Z" fill="#303030"/>
<path d="M83.181,79.808L59.422,79.808C59.422,78.88 60.169,78.133 61.097,78.133L81.506,78.133C82.422,78.133 83.181,78.892 83.181,79.808Z" fill="#99A2A9"/>
<path d="M72.457,55.961L71.602,55.961L71.602,78.142L72.457,78.142L72.457,55.961Z" fill="#99A2A9"/>
<path d="M82.507,56.005L60.097,56.005C59.049,56.005 58.193,55.15 58.193,54.102L58.193,53.005C58.193,51.957 59.049,51.102 60.097,51.102L82.507,51.102C83.555,51.102 84.41,51.957 84.41,53.005L84.41,54.102C84.41,55.162 83.555,56.005 82.507,56.005Z" fill="#303030"/>
<path d="M69.591,48.85L80.723,48.85C83.277,48.85 85.362,46.766 85.362,44.211L85.362,28.826C85.362,23.211 80.771,18.621 75.157,18.621C69.543,18.621 64.952,23.211 64.952,28.826L64.952,44.199C64.952,46.766 67.036,48.85 69.591,48.85Z" fill="#191919"/>
<path d="M69.446,47.077L78.12,47.077C80.108,47.077 81.735,45.451 81.735,43.463L81.735,28.354C81.735,23.981 78.156,20.402 73.783,20.402C69.409,20.402 65.831,23.981 65.831,28.354L65.831,43.451C65.831,45.439 67.458,47.077 69.446,47.077Z" fill="#303030"/>
<path d="M71.771,5.587C71.771,5.587 71.927,3.961 73.385,3.997C76.758,4.069 78.18,6.009 78.264,7.997C78.385,10.599 76.421,12.864 75.939,16.129C75.746,17.479 76.939,18.455 76.819,18.503C76.421,18.671 70.18,19.491 73.53,10.744C74.06,9.358 71.771,5.587 71.771,5.587Z" fill="#8D3B26"/>
<path d="M57.193,32.778C55.832,32.754 50.88,31.212 50.88,31.212L52.904,30.321C52.904,30.321 57.892,28.598 58.193,29.248C58.494,29.899 59.53,32.827 57.193,32.778Z" fill="#FFA47C"/>
<path d="M67.192,16.695C68.494,17.093 68.915,18.816 68.241,20.611C67.578,22.406 58.747,32.454 58.084,32.611C57.421,32.767 55.626,32.31 55.542,31.394C55.457,30.478 62.084,20.96 62.939,19.599C63.783,18.237 65.494,16.177 67.192,16.695Z" fill="#FFA47C"/>
<path d="M66.387,64.354C66.387,64.354 60.809,58.8 58.447,57.655C56.086,56.511 45.845,46.788 45.845,46.788L63.001,46.402L66.387,64.354Z" fill="#540000"/>
<path d="M72.336,51.864C71.903,53.166 64.3,53.479 59.252,52.515C54.457,51.599 47.891,50.985 47.541,50.575C47.192,50.166 46.698,46.587 47.047,46.021C47.397,45.455 66.963,41.9 67.951,41.84C68.963,41.792 74.216,46.238 72.336,51.864Z" fill="#FFA47C"/>
<path d="M49.013,72.883C48.989,73.967 49.374,74.678 49.603,75.232C49.88,75.907 49.711,76.967 49.374,77.244C48.458,77.979 47.495,77.606 46.41,78.172C45.326,78.738 43.591,80.919 42.699,81.064C41.808,81.208 39.832,80.967 39.735,80.534C39.639,80.112 41.844,78.75 41.844,78.75C45.278,75.16 45.76,73.377 45.76,73.377C45.76,73.377 49.025,72.714 49.013,72.883Z" fill="#FFA47C"/>
<path d="M41.868,78.754C41.868,78.754 41.229,79.212 41.314,79.369C41.434,79.597 42.338,79.585 42.579,79.489C44.771,78.585 47.783,76.489 48.422,75.826C49.085,75.128 49.229,74.32 49.229,74.32C49.41,74.344 50.048,75.597 49.795,76.489C49.735,76.682 49.47,77.164 49.374,77.248C48.856,77.658 47.169,78.308 46.687,78.561C45.603,79.128 43.988,81.332 43.097,81.477C42.205,81.622 39.265,81.332 39.169,80.911C39.121,80.561 40.832,79.356 41.868,78.754Z" fill="#191919"/>
<path d="M52.482,48.441C54.482,51.067 54.133,57.091 53.675,59.356C53.217,61.622 48.759,73.248 48.771,74.091C48.783,74.935 45.687,73.85 45.783,73.38C46.699,68.802 46.723,56.308 46.711,55.067C46.699,53.838 45.988,48.814 46.808,47.176C48.494,43.826 51.338,46.935 52.482,48.441Z" fill="#FFA47C"/>
<path d="M74.121,7.008C74.121,7.008 73.735,13.189 74.121,13.502C75.313,14.502 78.831,15.405 79.639,17.14C80.615,19.237 75.398,25.863 74.47,32.381C74.024,35.538 77.217,41.237 77.687,44.297C78.157,47.345 68.097,49.827 67.747,49.827C67.398,49.827 63.253,47.02 62.675,46.02C62.084,45.02 63.988,35.96 63.988,33.96C63.988,31.96 63.482,27.948 63.169,27.598C62.868,27.249 61.603,26.068 61.603,24.767C61.603,22.887 64.422,20.237 64.53,19.598C64.651,18.948 64.41,18.02 64.735,17.61C65.386,16.791 68.723,15.092 68.783,14.67C68.843,14.261 68.723,8.972 68.723,8.972L74.121,7.008Z" fill="#FFBD95"/>
<path d="M60.579,22.198C60.579,22.198 63.35,15.945 66.314,16.993C70.326,18.403 65.603,25.331 65.603,25.331L60.579,22.198Z" fill="#BD0000"/>
<path d="M68.747,10.653L68.795,13.991L73.952,11.28L74.096,7.328L68.747,10.653Z" fill="#FFA47C"/>
<path d="M77.723,49.073C76.398,51.868 70.82,52.964 65.567,53.085C58.639,53.241 52.663,52.699 52.265,52.326C51.868,51.952 51.446,48.579 51.735,47.976C52.024,47.374 65.904,43.458 66.892,43.302C67.663,43.181 76.446,40.711 77.687,44.29C78.036,45.302 78.542,47.326 77.723,49.073Z" fill="#FFBD95"/>
<path d="M54.205,47.79C57.061,49.453 58.952,54.935 59.398,57.212C59.844,59.477 60.229,72.14 60.567,72.923C60.892,73.694 57.856,74.429 57.735,73.971C56.266,68.164 51.663,57.911 51.181,56.778C50.699,55.646 49.772,51.224 49.254,49.164C48.555,46.417 52.579,46.839 54.205,47.79Z" fill="#FFBD95"/>
<path d="M60.409,71.947C60.795,72.959 61.433,73.465 61.855,73.899C62.361,74.417 62.614,75.465 62.409,75.839C61.843,76.863 60.807,76.887 60.023,77.827C59.24,78.754 58.469,81.441 57.698,81.911C56.927,82.381 55.011,82.911 54.758,82.549C54.517,82.188 56.035,80.092 56.035,80.092C57.831,75.465 57.602,73.622 57.602,73.622C57.602,73.622 60.349,71.79 60.409,71.947Z" fill="#FFBD95"/>
<path d="M56.047,80.105C56.047,80.105 55.638,80.767 55.77,80.888C55.963,81.056 56.807,80.695 56.987,80.514C58.674,78.84 60.65,75.755 60.987,74.9C61.337,73.996 61.156,73.201 61.156,73.201C61.337,73.153 62.409,74.069 62.505,74.996C62.517,75.201 62.469,75.743 62.397,75.852C62.072,76.43 60.758,77.683 60.421,78.093C59.638,79.02 58.987,81.683 58.216,82.153C57.445,82.623 54.614,83.49 54.373,83.129C54.192,82.828 55.325,81.044 56.047,80.105Z" fill="#303030"/>
<path d="M65.157,16.997L68.157,15.226C68.157,15.226 66.627,17.455 67.988,18.334C70.374,19.9 74.892,13.973 74.892,13.973C74.892,13.973 78.795,15.479 79.35,16.659C80.711,19.527 76.783,25.238 76.783,25.238C76.783,25.238 74.795,29.84 74.542,31.973C74.277,34.117 76.988,39.153 78.097,43.045C78.386,44.069 78.988,48.671 77.35,50.708C76.675,51.551 73.06,52.141 72.94,52.37C69.542,58.708 66.398,64.358 66.398,64.358C66.398,64.358 57.856,52.238 54.181,48.985C52.651,47.635 45.819,47.105 45.856,46.792C46.289,43.683 62.169,42.924 62.205,42.057C62.241,41.189 63.832,36.768 63.94,34.623C64.036,32.491 63.615,28.045 63.048,27.406C62.47,26.768 61.482,26.021 61.53,24.671C61.579,23.322 65.157,16.997 65.157,16.997Z" fill="#D60000"/>
<path d="M62.844,27.206C62.844,27.206 66.35,28.025 68.747,27.845C71.145,27.652 76.771,25.242 76.771,25.242C76.771,25.242 74.711,29.784 74.53,31.977C74.35,34.182 76.952,39.796 76.952,39.796C76.952,39.796 73.434,38.411 69.482,39.796C65.53,41.182 62.205,42.061 62.205,42.061C62.205,42.061 62.434,40.941 62.735,39.917C63.036,38.893 63.928,36.194 63.94,34.628C63.94,33.061 64.085,29.652 62.844,27.206Z" fill="#BD0000"/>
<path d="M76.616,34.818C75.339,35.276 72.7,32.927 70.989,31.083C69.278,29.24 64.278,23.577 64.278,23.577L65.869,22.035C65.869,22.035 75.808,30.662 76.314,31.168C76.833,31.662 78.82,34.035 76.616,34.818Z" fill="#FFBD95"/>
<path d="M77.951,16.009C79.312,15.864 80.312,17.551 80.324,19.804C80.336,22.057 78.204,33.43 77.638,33.9C77.071,34.358 74.927,34.924 74.529,33.96C74.132,32.997 74.686,22.9 74.987,21.045C75.288,19.189 76.18,16.189 77.951,16.009Z" fill="#FFBD95"/>
<path d="M53.951,29.986C53.951,29.986 52.132,28.926 51.277,28.926C50.819,28.926 48.831,31.576 48.71,32.119C48.65,32.396 50.626,32.854 51.265,32.516C52.325,31.95 52.493,32.42 53.698,31.998C54.915,31.576 53.951,29.986 53.951,29.986Z" fill="#FFA47C"/>
<path d="M74.519,22.946C74.519,22.946 74.82,16.115 77.952,16.006C82.193,15.85 80.338,24.03 80.338,24.03L74.519,22.946Z" fill="#D60000"/>
<path d="M75.917,6.406C75.17,9.9 71.555,12.08 69.784,11.695C68.049,11.321 66.314,7.96 66.748,4.369C67.17,0.827 69.76,-0.992 72.399,-0.414C75.025,0.141 76.676,2.912 75.917,6.406Z" fill="#FFBD95"/>
<path d="M69.603,1.876C69.94,2.888 70.88,3.539 73.013,3.828C74.543,4.033 75.41,6.214 75.35,7.057C75.326,7.382 74.868,8.913 74.868,8.913C74.868,8.913 78.338,5.925 75.603,1.708C72.868,-2.509 69.133,-0.401 69.085,-0.087C69.037,0.226 69.434,1.382 69.603,1.876Z" fill="#8D3B26"/>
<path d="M70.52,1.097C70.52,1.097 70.447,2.579 69.17,2.796C67.893,3.025 66.628,4.001 66.628,4.001C66.628,4.001 66.58,0.482 69.086,-0.12C71.592,-0.722 70.52,1.097 70.52,1.097Z" fill="#8D3B26"/>
<path d="M60.29,19.406L56.013,19.406L56.013,24.707L60.29,24.707L60.29,19.406Z" fill="#B5CCF9"/>
<path d="M60.12,24.05L60.036,23.569C60.108,23.556 61.675,23.267 61.675,21.918C61.675,20.593 60.181,20.556 60.12,20.556L60.12,20.063C60.831,20.075 62.169,20.46 62.169,21.918C62.169,23.34 60.831,23.93 60.12,24.05Z" fill="#B5CCF9"/>
<path d="M60.542,23.174C60.542,22.981 60.711,22.824 60.903,22.824L62.422,22.836C62.614,22.836 62.771,23.005 62.771,23.198C62.771,23.39 62.602,23.547 62.409,23.547L60.891,23.535C60.699,23.535 60.542,23.366 60.542,23.174Z" fill="#FFBD95"/>
<path d="M60.494,22.513C60.494,22.321 60.662,22.164 60.855,22.164L62.373,22.176C62.566,22.176 62.723,22.345 62.723,22.538C62.723,22.73 62.554,22.887 62.361,22.887L60.843,22.875C60.65,22.863 60.482,22.706 60.494,22.513Z" fill="#FFBD95"/>
<path d="M60.47,21.857C60.47,21.664 60.638,21.508 60.831,21.508L62.349,21.52C62.542,21.52 62.699,21.689 62.699,21.881C62.699,22.074 62.53,22.231 62.337,22.231L60.819,22.219C60.626,22.207 60.47,22.05 60.47,21.857Z" fill="#FFBD95"/>
<path d="M60.519,21.217C60.519,21.024 60.687,20.867 60.88,20.867L62.398,20.879C62.591,20.879 62.747,21.048 62.747,21.241C62.747,21.433 62.579,21.59 62.386,21.59L60.868,21.578C60.675,21.578 60.519,21.421 60.519,21.217Z" fill="#FFBD95"/>
<path d="M65.879,22.03C65.289,21.524 63.578,20.692 63.096,20.632C62.614,20.572 60.723,20.921 60.723,20.921C60.723,20.921 61.301,21.56 61.229,22.005C61.168,22.439 60.891,23.548 60.891,23.548C60.891,23.548 62.494,23.993 63.277,23.945C64.048,23.909 64.819,23.909 64.819,23.909C64.819,23.909 66.867,22.897 65.879,22.03Z" fill="#FFBD95"/>
<path d="M48.832,57.256L-0.541,57.256L-0.541,59.738L48.832,59.738L48.832,57.256Z" transform="rotate(-180 24.145 58.497)" fill="#79858E"/>
<path d="M116.456,57.467L67.083,57.467L67.083,59.949L116.456,59.949L116.456,57.467Z" transform="rotate(-180 91.769 58.708)" fill="#79858E"/>
<path d="M92.481,33.805L23.409,33.805L23.409,40.395L92.481,40.395L92.481,33.805Z" fill="#79858E"/>
<path d="M93.013,38.257L22.904,38.919L22.904,36.727L93.013,36.751L93.013,38.257Z" fill="#B9B9BD"/>
<path d="M96,32.824L20,32.824L20,36.896L96,36.896L96,32.824Z" fill="#99A2A9"/>
<path d="M49.507,31.798L31.965,31.798L29.989,18.605L47.531,18.605L49.507,31.798Z" fill="#8E8E8E"/>
<path d="M56.254,31.797L49.507,31.797L49.507,32.809L56.254,32.809L56.254,31.797Z" fill="#8E8E8E"/>
<path d="M49.505,31.797L31.975,31.797L31.975,32.809L49.505,32.809L49.505,31.797Z" fill="#757575"/>
<path d="M47.529,18.605L31.975,31.798L49.505,31.798L47.529,18.605Z" fill="#7F7F7F"/>
</svg>
