<svg width="200" height="274" viewBox="0 0 200 274" fill="none" xmlns="http://www.w3.org/2000/svg" xmlns:xlink="http://www.w3.org/1999/xlink">
<path d="M55.235,105.356C57.026,101.032 57.769,96.803 57.432,92.79C56.654,83.476 58.392,77.499 59.983,74.127C61.704,70.485 63.633,69.015 63.65,68.998L62.984,68.09C62.898,68.15 60.857,69.698 59.015,73.556C57.337,77.067 55.512,83.259 56.316,92.885C56.913,100.063 53.774,106.879 50.34,112.042C50.167,112.301 50.237,112.647 50.496,112.82C50.755,112.993 51.11,112.924 51.283,112.664C52.918,110.208 54.241,107.769 55.235,105.356Z" fill="#01008A"/>
<path d="M64.349,68.505C64.514,68.272 64.791,68.151 65.076,68.176C65.621,68.228 66.157,68.246 66.693,68.246C66.754,68.142 66.806,68.029 66.866,67.926C66.849,67.917 66.832,67.908 66.814,67.9C64.055,66.724 61.755,64.795 60.051,62.382C58.166,59.701 57.015,56.423 56.808,52.938C56.687,50.897 56.886,48.787 57.439,46.676C57.552,46.235 57.69,45.811 57.837,45.388C58.633,43.027 59.835,40.916 61.322,39.126C63.121,36.973 65.335,35.277 67.783,34.179C69.556,33.383 71.45,32.916 73.378,32.795C72.937,32.64 72.488,32.493 72.029,32.372C71,32.095 69.962,31.948 68.933,31.896C66.365,31.758 63.822,32.25 61.487,33.297C59.039,34.395 56.825,36.082 55.026,38.244C53.539,40.034 52.337,42.144 51.541,44.505C51.394,44.929 51.264,45.353 51.143,45.794C50.581,47.904 50.382,50.015 50.512,52.056C50.719,55.541 51.87,58.819 53.755,61.5C55.364,63.783 57.517,65.625 60.077,66.819C60.077,66.819 61.521,67.424 61.279,68.86C61.219,69.206 61.392,69.56 61.712,69.699C61.911,69.785 62.127,69.898 62.334,70.045C62.698,70.295 63.191,70.209 63.441,69.854L64.349,68.505Z" fill="#E28902"/>
<path d="M73.761,66.559C76.623,65.141 79.149,62.901 81,60.047C82.098,58.351 82.963,56.431 83.525,54.347C83.629,53.941 83.724,53.543 83.802,53.136C84.286,50.723 84.312,48.328 83.931,46.053C83.464,43.294 82.409,40.726 80.861,38.555C79.01,35.952 76.45,33.911 73.38,32.795C71.443,32.916 69.558,33.392 67.785,34.179C65.337,35.277 63.123,36.964 61.324,39.126C59.837,40.916 58.634,43.026 57.839,45.387C57.692,45.811 57.562,46.235 57.441,46.676C56.879,48.786 56.68,50.896 56.81,52.937C57.017,56.423 58.167,59.701 60.053,62.382C61.757,64.795 64.057,66.723 66.816,67.899C66.833,67.908 66.851,67.917 66.868,67.925C66.807,68.038 66.755,68.142 66.695,68.245C69.151,68.237 71.555,67.649 73.761,66.559Z" fill="#F29305"/>
<g opacity="0.32">
<g opacity="0.32">
<path d="M74.496,37.102C74.782,36.92 75.162,36.929 75.439,37.154C78.734,39.8 80.896,43.467 81.51,47.489C82.133,51.536 81.121,55.446 78.673,58.507C78.388,58.862 77.878,58.914 77.532,58.637C77.186,58.36 77.125,57.841 77.411,57.495C79.573,54.797 80.464,51.329 79.91,47.74C79.357,44.125 77.402,40.812 74.427,38.425C74.072,38.148 74.021,37.63 74.306,37.284C74.349,37.214 74.418,37.154 74.496,37.102Z" fill="#FFFFFF"/>
</g>
</g>
<path d="M52.866,98.542C51.56,92.134 49.104,86.659 45.575,82.274C37.385,72.095 34.722,63.818 33.934,58.664C33.078,53.103 34.159,49.894 34.168,49.86L32.689,49.332C32.637,49.47 31.478,52.852 32.36,58.768C33.165,64.138 35.898,72.744 44.356,83.26C50.661,91.096 52.356,101.448 52.416,110.105C52.416,110.538 52.771,110.884 53.203,110.884C53.636,110.884 53.999,110.52 53.999,110.079C53.964,105.98 53.593,102.114 52.866,98.542Z" fill="#01008A"/>
<path d="M34.601,48.752C34.609,48.354 34.834,47.999 35.18,47.8C35.846,47.437 36.486,47.039 37.109,46.616C37.091,46.451 37.074,46.278 37.057,46.105C37.031,46.114 37.005,46.114 36.97,46.123C32.862,46.91 28.685,46.494 24.828,45.024C20.538,43.398 16.655,40.501 13.68,36.626C11.941,34.361 10.514,31.757 9.52,28.877C9.312,28.281 9.131,27.675 8.966,27.078C8.041,23.723 7.781,20.341 8.11,17.107C8.508,13.206 9.753,9.513 11.725,6.33C13.152,4.021 14.977,1.998 17.122,0.346C16.49,0.501 15.859,0.692 15.236,0.908C13.827,1.401 12.512,2.032 11.275,2.776C8.188,4.627 5.637,7.178 3.751,10.214C1.779,13.396 0.534,17.089 0.136,20.99C-0.193,24.224 0.067,27.606 0.992,30.962C1.157,31.567 1.338,32.164 1.546,32.761C2.549,35.641 3.976,38.244 5.706,40.51C8.672,44.384 12.564,47.281 16.854,48.907C20.503,50.3 24.438,50.75 28.33,50.127C28.33,50.127 30.475,49.694 31.314,51.554C31.513,52.004 31.989,52.272 32.473,52.185C32.767,52.133 33.113,52.09 33.459,52.099C34.073,52.107 34.575,51.623 34.583,51.009L34.601,48.752Z" fill="#00DCEA"/>
<path d="M43.967,39.135C46.181,35.252 47.348,30.685 47.262,25.937C47.21,23.109 46.708,20.212 45.722,17.367C45.532,16.813 45.316,16.277 45.1,15.749C43.776,12.575 41.925,9.782 39.711,7.456C37.013,4.627 33.787,2.483 30.293,1.177C26.107,-0.389 21.558,-0.752 17.122,0.355C14.977,2.007 13.16,4.031 11.725,6.34C9.753,9.523 8.508,13.215 8.11,17.116C7.781,20.35 8.041,23.732 8.966,27.088C9.13,27.684 9.312,28.29 9.519,28.887C10.523,31.767 11.941,34.37 13.679,36.636C16.646,40.51 20.538,43.407 24.827,45.033C28.685,46.504 32.862,46.919 36.97,46.132C36.996,46.123 37.022,46.123 37.056,46.114C37.074,46.287 37.091,46.452 37.108,46.625C39.936,44.679 42.263,42.119 43.967,39.135Z" fill="#13E7F5"/>
<g opacity="0.2">
<g opacity="0.2">
<path d="M21.775,4.464C21.965,4.032 22.415,3.746 22.908,3.789C28.797,4.274 34.168,6.834 38.025,11.011C41.909,15.206 43.803,20.533 43.353,25.99C43.301,26.613 42.756,27.08 42.125,27.028C41.502,26.976 41.035,26.431 41.087,25.8C41.485,20.983 39.798,16.278 36.356,12.55C32.888,8.797 28.045,6.488 22.718,6.055C22.095,6.003 21.628,5.459 21.68,4.827C21.697,4.698 21.732,4.576 21.775,4.464Z" fill="#FDE2DE"/>
</g>
</g>
<path d="M156.087,143.757L149.872,187.717C149.374,191.237 146.06,193.875 142.124,193.875C137.814,193.875 134.318,190.718 134.318,186.826L135.171,130.516L144.489,132.66C151.366,132.228 156.959,137.581 156.087,143.757Z" fill="#01008A"/>
<path d="M144.269,254.916L150.523,267.846L150.523,185.494C150.523,181.456 146.893,178.178 142.421,178.178C137.948,178.178 134.318,181.456 134.318,185.494L144.269,254.916Z" fill="#01008A"/>
<path d="M156.183,149.491C167.788,149.491 177.195,140.995 177.195,130.516C177.195,120.036 167.788,111.541 156.183,111.541C144.578,111.541 135.171,120.036 135.171,130.516C135.171,140.995 144.578,149.491 156.183,149.491Z" fill="#002E8A"/>
<path d="M165.205,54.633L166.919,71.939L148.55,71.939L151.097,55.23L165.205,54.633Z" fill="#DC85E6"/>
<path d="M153.722,60.021L158.003,60.021C162.035,60.021 165.339,57.038 165.339,53.397L165.339,48.242C165.339,44.601 162.035,41.617 158.003,41.617L153.722,41.617C149.69,41.617 146.386,44.601 146.386,48.242L146.386,53.397C146.386,57.038 149.69,60.021 153.722,60.021Z" fill="#F493FE"/>
<path d="M164.879,55.697C164.879,55.697 163.596,59.468 158.855,59.97C154.114,60.471 150.485,59.33 150.485,59.33L149.795,63.844C149.785,63.853 164.122,65.877 164.879,55.697Z" fill="#D97EB0"/>
<path d="M156.595,47.801C156.595,48.173 156.93,48.467 157.332,48.467C157.734,48.467 158.07,48.164 158.07,47.801C158.07,47.437 157.734,47.135 157.332,47.135C156.93,47.135 156.595,47.437 156.595,47.801Z" fill="#4A4185"/>
<path d="M151.337,46.426C151.337,46.798 151.672,47.092 152.074,47.092C152.486,47.092 152.812,46.789 152.812,46.426C152.812,46.062 152.477,45.76 152.074,45.76C151.663,45.76 151.337,46.054 151.337,46.426Z" fill="#4A4185"/>
<path d="M163.739,54.625C165.495,54.625 166.919,53.34 166.919,51.754C166.919,50.168 165.495,48.883 163.739,48.883C161.983,48.883 160.56,50.168 160.56,51.754C160.56,53.34 161.983,54.625 163.739,54.625Z" fill="#D97EB0"/>
<path d="M161.45,49.756C161.45,49.756 159.947,48.502 160.55,46.132C161.163,43.763 162.983,43.391 162.983,43.391L165.329,44.377L165.329,49.272C165.339,49.272 163.749,48.424 161.45,49.756Z" fill="#141370"/>
<path d="M148.55,71.939L142.641,71.939C131.982,71.939 124.004,80.77 126.14,90.197L135.276,130.516L176.889,130.516L186.189,90.257C188.372,80.813 180.385,71.939 169.706,71.939L148.55,71.939Z" fill="#13E7F5"/>
<path d="M166.622,68.956L166.919,71.94L157.332,77.665L148.55,71.94L149.124,68.16L166.622,68.956Z" fill="#DC85E6"/>
<path d="M107.962,115.796C111.64,118.313 116.879,117.655 119.666,114.334L141.492,88.319C144.279,84.998 143.551,80.268 139.873,77.751C136.196,75.234 130.957,75.891 128.17,79.212L106.344,105.227C103.566,108.548 104.294,113.279 107.962,115.796Z" fill="#13E7F5"/>
<path d="M155.436,50.819C155.436,51.632 156.163,52.281 157.054,52.281C157.954,52.281 158.673,51.623 158.673,50.819C158.673,50.006 157.945,49.358 157.054,49.358C156.163,49.349 155.436,50.006 155.436,50.819Z" fill="#D97EB0"/>
<path d="M148.167,48.467C148.167,49.28 148.895,49.929 149.786,49.929C150.686,49.929 151.404,49.272 151.404,48.467C151.404,47.663 150.676,47.006 149.786,47.006C148.895,47.006 148.167,47.663 148.167,48.467Z" fill="#D97EB0"/>
<path d="M111.304,102.909L65.199,107.813L63.571,115.276L111.783,117.845C116.811,118.113 120.948,114.308 120.555,109.776C120.192,105.529 115.987,102.416 111.304,102.909Z" fill="#13E7F5"/>
<path d="M73.062,106.982L71.769,115.717L63.571,115.276L65.199,107.813L73.062,106.982Z" fill="#7E07F3"/>
<path d="M61.177,107.622C61.177,107.622 61.733,111.964 58.926,113.027C56.743,113.858 51.428,114.273 48.564,113.477C47.759,113.252 47.779,112.223 48.593,112.016L53.314,110.822L45.02,106.55C44.302,106.178 44.541,105.183 45.375,105.131C47.309,105.002 49.924,104.924 51.945,105.218C55.574,105.754 61.177,107.622 61.177,107.622Z" fill="#DC85E6"/>
<path d="M58.045,113.305L63.676,114.792L65.199,107.813L59.137,106.982L58.045,113.305Z" fill="#DC85E6"/>
<path d="M193.85,45.777C198.217,47.135 200.535,51.424 199.031,55.359L187.28,86.226C185.777,90.17 181.026,92.263 176.669,90.905C172.302,89.547 169.984,85.257 171.488,81.322L183.239,50.456C184.733,46.521 189.483,44.428 193.85,45.777Z" fill="#13E7F5"/>
<path d="M177.186,132.141L169.285,188.028C168.787,191.547 165.473,194.185 161.537,194.185C157.227,194.185 153.731,191.029 153.731,187.137L153.731,143.903L177.186,132.141Z" fill="#01008A"/>
<path d="M164.123,258.886L169.936,268.166L169.936,185.815C169.936,181.776 166.306,178.498 161.834,178.498C157.361,178.498 153.731,181.776 153.731,185.815L164.123,258.886Z" fill="#01008A"/>
<path d="M184.608,56.432L159.334,21.276L164.649,15.369L197.643,47.222C201.081,50.543 200.487,55.844 196.369,58.474C192.519,60.93 187.175,60.004 184.608,56.432Z" fill="#13E7F5"/>
<path d="M163.644,27.27L170.262,20.783L164.649,15.369L159.334,21.267L163.644,27.27Z" fill="#7E07F3"/>
<path d="M160.464,13.604C160.464,13.604 159.075,17.79 156.03,17.764C153.664,17.747 148.598,16.234 146.319,14.469C145.677,13.976 146.146,13.034 146.979,13.137L151.845,13.734L146.098,6.841C145.6,6.245 146.261,5.414 147.047,5.665C148.876,6.236 151.318,7.101 153.042,8.095C156.135,9.877 160.464,13.604 160.464,13.604Z" fill="#DC85E6"/>
<path d="M159.43,12.791L164.305,15.749L159.335,21.267L154.747,17.591L159.43,12.791Z" fill="#DC85E6"/>
<path d="M188.716,82.455L176.534,102.399L183.727,100.963L188.716,82.455Z" fill="#00DCEA"/>
<path d="M135.171,136.828L135.171,129.252L177.186,129.252L176.506,136.828L135.171,136.828Z" fill="#004145"/>
<path d="M150.532,134.363L150.939,134.367L150.939,134.363L150.532,134.363ZM152.668,136.699L155.599,136.699L155.599,135.885L152.668,135.885L152.668,136.699ZM155.599,136.699C156.961,136.699 158.141,135.69 158.141,134.363L157.327,134.363C157.327,135.164 156.592,135.885 155.599,135.885L155.599,136.699ZM158.141,134.363L158.141,131.907L157.327,131.907L157.327,134.363L158.141,134.363ZM158.141,131.907C158.141,130.581 156.961,129.572 155.599,129.572L155.599,130.386C156.592,130.386 157.327,131.106 157.327,131.907L158.141,131.907ZM155.599,129.572L152.668,129.572L152.668,130.386L155.599,130.386L155.599,129.572ZM152.668,129.572C151.305,129.572 150.125,130.581 150.125,131.907L150.939,131.907C150.939,131.106 151.675,130.386 152.668,130.386L152.668,129.572ZM150.125,131.907L150.125,134.363L150.939,134.363L150.939,131.907L150.125,131.907ZM150.125,134.36C150.113,135.691 151.298,136.699 152.668,136.699L152.668,135.885C151.663,135.885 150.932,135.163 150.939,134.367L150.125,134.36Z" fill="#FF9A17"/>
<path d="M154.504,47.118C154.566,47.024 154.54,46.897 154.446,46.836C154.352,46.774 154.226,46.8 154.164,46.894L154.504,47.118ZM150.312,53.129L150.141,53.017C150.106,53.071 150.098,53.138 150.12,53.198C150.142,53.258 150.191,53.305 150.252,53.324L150.312,53.129ZM152.368,53.972C152.476,54.005 152.59,53.945 152.623,53.837C152.656,53.73 152.595,53.616 152.488,53.583L152.368,53.972ZM154.164,46.894L150.141,53.017L150.482,53.241L154.504,47.118L154.164,46.894ZM150.252,53.324L152.368,53.972L152.488,53.583L150.371,52.934L150.252,53.324Z" fill="#C53CCF"/>
<path d="M162.447,44.739C162.447,44.739 156.049,43.65 155.11,41.617L164.611,41.617C164.611,41.617 165.339,43.442 165.339,44.376C165.339,45.31 164.879,45.76 164.879,45.76L162.447,44.739Z" fill="#141370"/>
<path d="M160.55,47.801L158.682,55.697C158.682,55.697 151.997,52.713 146.395,53.777C146.395,53.777 146.509,59.546 153.721,60.013C160.933,60.48 162.111,58.983 162.101,56.596C162.092,54.209 162.274,49.349 162.274,49.349L160.55,47.801Z" fill="#141370"/>
<path d="M154.794,55.49C154.526,56.502 153.52,57.255 152.314,57.255C151.107,57.255 150.101,56.502 149.833,55.49L154.794,55.49Z" fill="#F493FE"/>
<path d="M159.768,47.802C159.768,49.002 158.687,49.992 157.332,49.992L157.332,50.195C158.78,50.195 159.972,49.133 159.972,47.802L159.768,47.802ZM157.332,49.992C155.976,49.992 154.896,49.002 154.896,47.802L154.692,47.802C154.692,49.133 155.884,50.195 157.332,50.195L157.332,49.992ZM154.896,47.802C154.896,46.602 155.976,45.612 157.332,45.612L157.332,45.408C155.884,45.408 154.692,46.47 154.692,47.802L154.896,47.802ZM157.332,45.612C158.687,45.612 159.768,46.602 159.768,47.802L159.972,47.802C159.972,46.47 158.78,45.408 157.332,45.408L157.332,45.612Z" fill="#4A4185"/>
<path d="M154.233,46.184C154.233,47.384 153.152,48.375 151.797,48.375L151.797,48.578C153.245,48.578 154.436,47.516 154.436,46.184L154.233,46.184ZM151.797,48.375C150.441,48.375 149.361,47.384 149.361,46.184L149.157,46.184C149.157,47.516 150.349,48.578 151.797,48.578L151.797,48.375ZM149.361,46.184C149.361,44.984 150.441,43.994 151.797,43.994L151.797,43.791C150.349,43.791 149.157,44.853 149.157,46.184L149.361,46.184ZM151.797,43.994C153.152,43.994 154.233,44.984 154.233,46.184L154.436,46.184C154.436,44.853 153.245,43.791 151.797,43.791L151.797,43.994Z" fill="#4A4185"/>
<path d="M155.142,46.995L154.271,46.7L154.206,46.893L155.077,47.187L155.142,46.995Z" fill="#4A4185"/>
<path d="M157.332,77.665L166.919,71.939L168.7,76.385L157.332,77.665Z" fill="#7E07F3"/>
<path d="M157.332,77.665L146.395,76.03L148.549,71.939L157.332,77.665Z" fill="#7E07F3"/>
<path d="M150.648,265.416L150.686,268.339L125.393,268.642C125.393,268.642 125.479,268.339 125.938,265.719L150.648,265.416Z" fill="#01008A"/>
<path d="M125.977,265.545C126.465,262.76 134.845,262.051 139.96,261.541C145.074,261.03 144.269,254.916 144.269,254.916L150.494,254.838L150.648,265.415L125.948,265.709C125.958,265.657 125.967,265.605 125.977,265.545Z" fill="#BEBEFF"/>
<path d="M139.078,265.554C139.156,265.517 139.156,265.517 139.156,265.517C139.156,265.517 139.156,265.517 139.156,265.516C139.156,265.516 139.156,265.516 139.156,265.516C139.156,265.516 139.156,265.515 139.155,265.514C139.155,265.513 139.154,265.512 139.153,265.509C139.151,265.505 139.147,265.498 139.143,265.49C139.135,265.474 139.122,265.45 139.105,265.421C139.07,265.361 139.018,265.277 138.946,265.175C138.803,264.973 138.579,264.702 138.261,264.429C137.622,263.881 136.603,263.323 135.078,263.271L135.072,263.444C136.554,263.495 137.537,264.035 138.148,264.56C138.454,264.823 138.668,265.082 138.805,265.275C138.874,265.372 138.923,265.452 138.955,265.507C138.971,265.535 138.982,265.556 138.99,265.57C138.994,265.578 138.996,265.583 138.998,265.586C138.999,265.588 139,265.589 139,265.59C139,265.591 139,265.591 139,265.591C139,265.591 139,265.591 139,265.591C139,265.591 139,265.591 139,265.591C139,265.591 139,265.591 139.078,265.554ZM135.078,263.271C133.572,263.219 131.757,263.24 130.32,263.275C129.602,263.292 128.977,263.313 128.532,263.329C128.309,263.337 128.132,263.344 128.01,263.349C127.949,263.352 127.902,263.354 127.87,263.355C127.854,263.356 127.842,263.356 127.834,263.357C127.83,263.357 127.827,263.357 127.824,263.357C127.823,263.357 127.823,263.357 127.822,263.357C127.822,263.357 127.822,263.357 127.822,263.357C127.821,263.357 127.821,263.357 127.821,263.357C127.821,263.357 127.821,263.357 127.825,263.444C127.829,263.53 127.829,263.53 127.829,263.53C127.829,263.53 127.829,263.53 127.829,263.53C127.829,263.53 127.83,263.53 127.83,263.53C127.83,263.53 127.831,263.53 127.832,263.53C127.834,263.53 127.837,263.53 127.841,263.529C127.849,263.529 127.861,263.529 127.877,263.528C127.909,263.527 127.956,263.525 128.017,263.522C128.139,263.517 128.316,263.51 128.538,263.502C128.983,263.486 129.607,263.465 130.325,263.448C131.761,263.413 133.571,263.392 135.072,263.444L135.078,263.271Z" fill="#01008A"/>
<path d="M144.968,261.955L144.941,261.873L144.941,261.873L144.968,261.955ZM147.343,254.881C147.257,254.883 147.257,254.883 147.257,254.883C147.257,254.883 147.257,254.883 147.257,254.883C147.257,254.883 147.257,254.884 147.257,254.884C147.257,254.885 147.257,254.886 147.257,254.887C147.257,254.89 147.257,254.895 147.257,254.9C147.257,254.912 147.258,254.929 147.258,254.952C147.258,254.998 147.259,255.065 147.259,255.15C147.258,255.321 147.255,255.567 147.242,255.865C147.218,256.46 147.159,257.262 147.022,258.089C146.884,258.917 146.668,259.766 146.332,260.458C145.995,261.151 145.543,261.674 144.941,261.873L144.995,262.037C145.661,261.817 146.141,261.246 146.488,260.534C146.834,259.821 147.054,258.953 147.193,258.118C147.332,257.281 147.391,256.472 147.415,255.872C147.428,255.572 147.431,255.324 147.432,255.151C147.432,255.064 147.431,254.996 147.431,254.95C147.43,254.927 147.43,254.909 147.43,254.897C147.43,254.891 147.43,254.887 147.43,254.883C147.43,254.882 147.43,254.881 147.43,254.88C147.43,254.879 147.43,254.879 147.43,254.879C147.43,254.879 147.43,254.879 147.43,254.879C147.43,254.879 147.43,254.879 147.343,254.881ZM144.941,261.873C143.691,262.29 142.221,262.213 141.056,262.028C140.475,261.935 139.972,261.817 139.615,261.721C139.437,261.673 139.295,261.631 139.197,261.601C139.149,261.586 139.111,261.574 139.086,261.566C139.074,261.562 139.064,261.559 139.058,261.557C139.055,261.556 139.052,261.555 139.051,261.554C139.05,261.554 139.049,261.554 139.049,261.554C139.049,261.554 139.049,261.554 139.049,261.554C139.049,261.554 139.049,261.554 139.049,261.554C139.049,261.554 139.049,261.554 139.021,261.635C138.992,261.717 138.993,261.717 138.993,261.717C138.993,261.717 138.993,261.717 138.993,261.717C138.993,261.717 138.993,261.717 138.993,261.717C138.994,261.718 138.994,261.718 138.995,261.718C138.997,261.719 139,261.72 139.003,261.721C139.01,261.723 139.02,261.726 139.033,261.73C139.059,261.739 139.097,261.751 139.146,261.767C139.246,261.797 139.39,261.84 139.571,261.888C139.932,261.985 140.441,262.105 141.029,262.199C142.203,262.385 143.707,262.468 144.995,262.037L144.941,261.873Z" fill="#01008A"/>
<path d="M147,258.467L143.179,259.729L143.233,259.894L147.054,258.631L147,258.467Z" fill="#01008A"/>
<path d="M143.813,258.656L146.505,260.248L146.593,260.099L143.901,258.508L143.813,258.656Z" fill="#01008A"/>
<path d="M170.501,269.395L170.539,272.318L145.246,272.62C145.246,272.62 145.332,272.318 145.792,269.697L170.501,269.395Z" fill="#01008A"/>
<path d="M145.83,269.523C146.319,266.738 154.699,266.029 159.813,265.519C164.927,265.009 164.123,258.894 164.123,258.894L170.348,258.816L170.501,269.394L145.802,269.688C145.811,269.627 145.821,269.575 145.83,269.523Z" fill="#CECEFF"/>
<path d="M158.932,269.532C159.01,269.495 159.01,269.495 159.01,269.495C159.01,269.495 159.01,269.495 159.01,269.495C159.01,269.495 159.01,269.495 159.01,269.495C159.009,269.494 159.009,269.494 159.009,269.493C159.008,269.492 159.007,269.49 159.006,269.488C159.004,269.483 159.001,269.477 158.997,269.469C158.988,269.452 158.975,269.429 158.958,269.399C158.924,269.34 158.872,269.255 158.8,269.154C158.656,268.951 158.433,268.681 158.114,268.407C157.476,267.86 156.457,267.302 154.932,267.249L154.926,267.422C156.408,267.473 157.39,268.014 158.002,268.539C158.308,268.801 158.522,269.061 158.659,269.254C158.727,269.35 158.776,269.43 158.808,269.485C158.824,269.513 158.836,269.535 158.843,269.549C158.847,269.556 158.85,269.562 158.852,269.565C158.852,269.567 158.853,269.568 158.853,269.569C158.854,269.569 158.854,269.569 158.854,269.57C158.854,269.57 158.854,269.57 158.854,269.57C158.854,269.57 158.854,269.57 158.854,269.57C158.854,269.57 158.854,269.57 158.932,269.532ZM154.932,267.249C153.425,267.197 151.611,267.219 150.174,267.254C149.455,267.271 148.83,267.291 148.385,267.308C148.163,267.316 147.985,267.323 147.863,267.328C147.802,267.33 147.755,267.332 147.723,267.334C147.707,267.334 147.695,267.335 147.687,267.335C147.683,267.335 147.68,267.336 147.678,267.336C147.677,267.336 147.676,267.336 147.676,267.336C147.675,267.336 147.675,267.336 147.675,267.336C147.675,267.336 147.675,267.336 147.675,267.336C147.675,267.336 147.675,267.336 147.679,267.422C147.683,267.509 147.683,267.509 147.683,267.509C147.683,267.509 147.683,267.509 147.683,267.509C147.683,267.509 147.683,267.509 147.683,267.509C147.684,267.508 147.685,267.508 147.686,267.508C147.688,267.508 147.691,267.508 147.695,267.508C147.703,267.508 147.715,267.507 147.731,267.506C147.763,267.505 147.81,267.503 147.87,267.501C147.992,267.496 148.17,267.489 148.392,267.48C148.836,267.464 149.46,267.444 150.178,267.426C151.614,267.392 153.425,267.37 154.926,267.422L154.932,267.249Z" fill="#01008A"/>
<path d="M164.821,265.926L164.794,265.844L164.794,265.844L164.821,265.926ZM167.197,258.852C167.11,258.854 167.11,258.854 167.11,258.854C167.11,258.854 167.11,258.854 167.11,258.854C167.11,258.854 167.11,258.854 167.11,258.855C167.11,258.856 167.11,258.857 167.11,258.858C167.11,258.861 167.11,258.865 167.111,258.871C167.111,258.883 167.111,258.9 167.111,258.923C167.112,258.968 167.112,259.035 167.112,259.121C167.112,259.292 167.108,259.538 167.096,259.835C167.072,260.431 167.013,261.233 166.875,262.06C166.738,262.888 166.522,263.737 166.186,264.429C165.849,265.122 165.397,265.645 164.794,265.844L164.849,266.008C165.515,265.788 165.995,265.217 166.341,264.505C166.688,263.791 166.907,262.924 167.046,262.088C167.185,261.252 167.244,260.442 167.269,259.843C167.281,259.542 167.285,259.294 167.285,259.121C167.285,259.035 167.285,258.967 167.284,258.921C167.284,258.898 167.284,258.88 167.283,258.868C167.283,258.862 167.283,258.857 167.283,258.854C167.283,258.853 167.283,258.851 167.283,258.851C167.283,258.85 167.283,258.85 167.283,258.85C167.283,258.85 167.283,258.849 167.283,258.849C167.283,258.849 167.283,258.849 167.197,258.852ZM164.794,265.844C163.545,266.261 162.075,266.184 160.91,265.998C160.328,265.906 159.826,265.787 159.469,265.692C159.29,265.644 159.148,265.602 159.051,265.572C159.002,265.557 158.965,265.545 158.94,265.537C158.927,265.533 158.918,265.529 158.911,265.527C158.908,265.526 158.906,265.526 158.904,265.525C158.903,265.525 158.903,265.525 158.903,265.524C158.902,265.524 158.902,265.524 158.902,265.524C158.902,265.524 158.902,265.524 158.902,265.524C158.902,265.524 158.902,265.524 158.874,265.606C158.846,265.688 158.846,265.688 158.846,265.688C158.846,265.688 158.846,265.688 158.846,265.688C158.846,265.688 158.847,265.688 158.847,265.688C158.847,265.688 158.848,265.689 158.849,265.689C158.851,265.689 158.853,265.69 158.856,265.691C158.863,265.694 158.873,265.697 158.886,265.701C158.912,265.71 158.95,265.722 159,265.737C159.099,265.768 159.243,265.81 159.424,265.859C159.786,265.956 160.294,266.076 160.882,266.169C162.057,266.356 163.56,266.438 164.849,266.008L164.794,265.844Z" fill="#01008A"/>
<path d="M166.854,262.436L163.032,263.707L163.087,263.871L166.908,262.6L166.854,262.436Z" fill="#01008A"/>
<path d="M163.667,262.635L166.358,264.226L166.446,264.077L163.755,262.486L163.667,262.635Z" fill="#01008A"/>
</svg>
