<svg width="528" height="330" viewBox="0 0 528 330" fill="none" xmlns="http://www.w3.org/2000/svg" xmlns:xlink="http://www.w3.org/1999/xlink">
<path d="M319.033,276.88C331.519,258.768 357.683,228.66 407.731,198.677C486.879,151.257 546.825,88.415 520.477,51.223C494.621,14.73 378.712,85.212 282.457,261.376C296.607,268.788 308.703,273.8 319.033,276.88Z" clip-rule="evenodd" fill-rule="evenodd" fill="#A3F65C"/>
<path d="M303.568,260.779C305.766,260.677 311.557,260.677 319.176,262.915C319.71,263.079 320.265,262.771 320.429,262.237C320.593,261.703 320.285,261.149 319.751,260.985C313.077,259.013 307.676,258.725 304.759,258.747C306.464,255.851 308.189,252.975 309.894,250.162C313.385,250.079 324.659,249.853 328.89,250.1C329.445,250.141 329.917,249.71 329.958,249.155C329.999,248.601 329.568,248.128 329.013,248.087C325.132,247.882 315.582,248.026 311.146,248.128C314.35,242.871 317.574,237.757 320.778,232.788C324.167,232.849 334.64,233.157 346.244,234.718C346.798,234.8 347.311,234.41 347.373,233.855C347.455,233.301 347.065,232.808 346.511,232.726C335.996,231.309 326.364,230.919 322.051,230.816C325.296,225.826 328.541,220.979 331.765,216.255C336.406,216.338 351.48,216.769 368.136,219.007C368.69,219.09 369.204,218.699 369.265,218.145C369.347,217.59 368.957,217.097 368.403,217.015C352.98,214.941 338.953,214.407 333.141,214.284C337.392,208.123 341.643,202.208 345.874,196.52C350.721,196.314 370.805,195.801 385.9,200.627C386.434,200.791 387.009,200.504 387.173,199.97C387.337,199.436 387.05,198.881 386.536,198.697C372.469,194.179 354.232,194.22 347.414,194.425C352.61,187.484 357.765,180.912 362.878,174.669C369.491,175.038 396.086,177.051 408.531,185.861C408.983,186.19 409.62,186.067 409.928,185.615C410.236,185.163 410.133,184.526 409.681,184.218C397.606,175.675 373.023,173.313 364.46,172.738C369.902,166.167 375.262,159.964 380.56,154.132C385.386,155.22 405.574,160.129 424.55,169.658C425.043,169.904 425.659,169.699 425.905,169.206C426.152,168.713 425.946,168.097 425.453,167.851C407.484,158.814 388.446,153.906 382.101,152.407C385.243,148.977 388.344,145.671 391.424,142.488C396.045,143.432 415.699,147.93 441.739,160.519C442.232,160.765 442.848,160.56 443.074,160.047C443.32,159.554 443.115,158.938 442.602,158.712C418.327,146.965 399.475,142.2 393.088,140.783C400.399,133.308 407.546,126.51 414.425,120.349C420.258,122.28 449.851,132.302 465.397,142.18C465.87,142.467 466.486,142.344 466.773,141.872C467.081,141.399 466.937,140.783 466.465,140.496C451.514,130.987 423.995,121.438 416.15,118.809C420.175,115.256 424.119,111.909 427.959,108.787C432.97,110.492 455.889,118.542 476.795,130.679C477.267,130.946 477.884,130.802 478.171,130.31C478.438,129.837 478.294,129.221 477.801,128.934C458.086,117.515 436.646,109.67 429.787,107.288C438.802,100.038 447.284,93.919 455.088,88.743C460.037,89.914 482.381,95.5 499.14,105.234C499.612,105.522 500.228,105.357 500.516,104.865C500.782,104.392 500.638,103.776 500.146,103.489C484.722,94.555 464.74,89.051 457.388,87.224C460.633,85.129 463.734,83.198 466.712,81.432C470.716,81.843 485.564,83.753 504.746,91.126C505.26,91.331 505.854,91.064 506.04,90.551C506.244,90.037 505.978,89.442 505.464,89.257C489.076,82.972 475.768,80.611 469.566,79.769C493.656,65.865 508.606,62.333 508.73,62.292C509.53,62.087 510.024,61.265 509.818,60.464C509.612,59.663 508.792,59.17 507.99,59.376C507.908,59.396 501.336,60.957 489.898,66.009C493.019,62.066 497.456,56.624 498.646,55.905C499.118,55.618 499.262,55.001 498.974,54.529C498.688,54.057 498.072,53.913 497.6,54.201C495.792,55.31 488.439,64.633 485.913,67.857C481.272,70.034 476.015,72.704 470.182,76.011L480.102,56.275C480.348,55.782 480.143,55.166 479.65,54.919C479.157,54.673 478.541,54.878 478.294,55.371L466.999,77.818C462.994,80.159 458.743,82.788 454.287,85.704L465.089,62.354C465.315,61.84 465.11,61.245 464.596,61.019C464.083,60.793 463.487,61.019 463.261,61.512L451.206,87.86C444.532,92.358 437.426,97.512 429.93,103.468L439.213,79.235C439.418,78.721 439.151,78.126 438.638,77.941C438.125,77.736 437.55,78.003 437.344,78.516L426.829,105.994C423.42,108.767 419.929,111.683 416.376,114.784L424.242,92.933C424.427,92.419 424.16,91.824 423.646,91.639C423.112,91.454 422.537,91.721 422.352,92.235L413.255,117.515C406.662,123.368 399.865,129.796 392.882,136.84L398.797,115.503C398.941,114.969 398.633,114.414 398.099,114.27C397.565,114.127 397.01,114.435 396.866,114.969L389.966,139.797C387.194,142.631 384.401,145.589 381.608,148.628L384.935,132.343C385.037,131.809 384.688,131.275 384.154,131.152C383.62,131.049 383.086,131.398 382.963,131.932L378.979,151.483C373.742,157.213 368.444,163.312 363.084,169.76L366.185,151.606C366.287,151.052 365.918,150.538 365.363,150.456C364.809,150.374 364.295,150.723 364.213,151.277L360.537,172.861C355.834,178.591 351.111,184.629 346.346,190.934L348.359,174.812C348.441,174.258 348.051,173.765 347.496,173.683C346.942,173.621 346.449,174.012 346.367,174.546L343.923,194.179C339.754,199.765 335.585,205.556 331.396,211.614L331.498,197.054C331.498,196.499 331.067,196.047 330.512,196.047C329.958,196.047 329.506,196.479 329.506,197.033L329.383,214.551C326.343,218.966 323.304,223.505 320.265,228.167L318.704,215.763C318.622,215.208 318.129,214.818 317.574,214.9C317.02,214.962 316.63,215.475 316.712,216.03L318.56,230.816C315.767,235.149 312.954,239.585 310.161,244.124L308.702,236.114C308.6,235.56 308.086,235.211 307.532,235.314C306.977,235.416 306.628,235.93 306.731,236.484L308.579,246.711C306.484,250.141 304.41,253.632 302.315,257.165L298.989,250.593C298.742,250.1 298.126,249.895 297.633,250.162C297.14,250.408 296.935,251.004 297.181,251.517L301.083,259.259C299.379,262.175 297.674,265.113 295.97,268.111C296.894,268.543 297.818,268.953 298.742,269.363C300.323,266.385 301.946,263.573 303.568,260.779Z" clip-rule="evenodd" fill-rule="evenodd" fill="#FFFFFF"/>
<path d="M304.678,287.148C318.047,278.686 341.644,267.371 377.275,262.278C437.756,253.652 491.726,228.864 487.639,195.8C483.696,163.948 397.976,176.208 291.288,262.627L304.616,287.045L304.678,287.148Z" clip-rule="evenodd" fill-rule="evenodd" fill="#84E532"/>
<path d="M471.333,200.729C472.483,200.729 473.407,199.785 473.386,198.635C473.386,197.485 472.442,196.56 471.292,196.581C471.21,196.581 464.474,196.56 452.973,198.121L462.831,191.467C463.467,191.036 463.632,190.173 463.2,189.557C462.769,188.921 461.907,188.756 461.29,189.188L446.627,199.086C441.267,199.969 435.168,201.161 428.432,202.762L438.803,192.864C439.357,192.33 439.378,191.467 438.844,190.913C438.31,190.358 437.447,190.338 436.893,190.872L423.01,204.138C416.028,205.966 408.45,208.225 400.44,211.039L409.107,202.105C409.641,201.551 409.62,200.688 409.086,200.154C408.532,199.62 407.669,199.641 407.135,200.175L394.464,213.216C386.085,216.358 377.254,220.116 368.116,224.572L375.447,215.146C375.919,214.55 375.817,213.688 375.201,213.216C374.605,212.743 373.743,212.846 373.27,213.462L362.386,227.468C353.822,231.863 345.032,236.894 336.099,242.645L339.097,236.237C339.426,235.539 339.118,234.717 338.44,234.389C337.742,234.06 336.92,234.368 336.612,235.046L331.704,245.52C324.927,250.038 318.088,254.946 311.229,260.347L313.981,253.837C314.268,253.139 313.94,252.317 313.242,252.03C312.543,251.742 311.722,252.071 311.434,252.769L306.711,263.982C303.363,266.693 300.016,269.527 296.689,272.464L298.722,276.202C302.07,273.244 305.417,270.41 308.744,267.679C312.174,267.905 320.347,268.603 323.797,270.41C324.475,270.759 325.297,270.513 325.666,269.835C326.015,269.157 325.769,268.315 325.091,267.966C322.052,266.364 316.055,265.564 311.886,265.173C314.535,263.079 317.164,261.025 319.813,259.053C323.161,259.608 331.417,261.23 336.9,264.331C337.557,264.701 338.399,264.475 338.789,263.818C339.159,263.161 338.933,262.319 338.255,261.929C333.552,259.259 327.022,257.636 322.832,256.794C328.274,252.831 333.696,249.134 339.036,245.705C343.636,247.614 358.217,253.796 363.926,258.499C364.522,258.992 365.384,258.889 365.877,258.314C366.37,257.719 366.288,256.856 365.692,256.363C360.332,251.948 347.825,246.403 341.89,243.897C347.64,240.303 353.329,237.018 358.915,233.999C363.515,235.765 378.487,241.844 388.365,249.648C388.96,250.12 389.823,250.017 390.316,249.422C390.788,248.826 390.685,247.964 390.09,247.471C381.197,240.427 368.341,234.8 362.119,232.274C364.891,230.815 367.623,229.439 370.354,228.105C375.119,229.624 391.26,235.231 406.211,246.054C406.827,246.505 407.69,246.362 408.142,245.746C408.593,245.13 408.45,244.267 407.833,243.815C394.752,234.327 380.746,228.762 373.927,226.38C383.785,221.738 393.232,217.939 402.104,214.838C407.382,218.103 427.836,230.959 436.77,239.461C437.324,239.995 438.207,239.975 438.721,239.42C439.254,238.866 439.213,238.003 438.659,237.469C430.383,229.604 412.701,218.226 405.451,213.688C412.105,211.449 418.41,209.601 424.283,208.081C429.027,211.716 446.566,225.127 450.611,228.639C451.186,229.131 452.069,229.07 452.562,228.495C453.055,227.92 452.994,227.037 452.419,226.544C448.701,223.34 434.018,212.065 427.692,207.219C435.394,205.33 442.294,203.974 448.229,203.029C452.501,206.726 462.749,215.68 465.151,218.083C465.685,218.617 466.568,218.617 467.102,218.083C467.636,217.549 467.636,216.666 467.102,216.132C464.966,213.996 456.69,206.747 451.823,202.495C464.042,200.709 471.251,200.729 471.333,200.729Z" clip-rule="evenodd" fill-rule="evenodd" fill="#A3F65C"/>
<path d="M2.152,316.188C1.269,304.132 0.879,292.448 0.92,281.09C0.961,269.57 1.474,258.46 2.419,247.74C5.992,207.692 15.727,173.129 30.226,143.618C45.916,111.683 67.192,85.643 92.308,64.921C115.576,45.72 142.109,31.097 170.553,20.583C201.049,9.308 233.723,2.757 266.869,0.313C278.063,-0.509 289.337,-0.858 300.633,-0.755C312.071,-0.652 323.489,-0.077 334.825,0.929C336.099,1.032 337.229,1.668 338.009,2.592C338.769,3.517 339.199,4.708 339.077,6.002L339.035,6.33C338.583,10.746 328.377,105.358 282.293,190.852C235.655,277.332 152.46,354.51 5.787,320.522C4.74,320.274 3.857,319.7 3.22,318.92C2.583,318.138 2.193,317.194 2.152,316.188ZM333.901,8.343C328.419,10.479 305.869,19.659 274.221,37.505C286.565,39.702 314.535,44.898 327.103,48.903C331.253,28.818 333.203,14.114 333.901,8.343ZM326.159,53.318L326.097,53.298C311.599,48.554 273.749,41.961 268.123,40.996C252.391,50.114 234.647,61.266 215.815,74.615L313.981,100.429C319.217,83.178 323.181,67.119 326.159,53.318ZM312.667,104.721L211.093,78.003C193.574,90.654 175.174,105.214 156.588,121.808C176.734,127.948 273.051,157.48 289.357,165.715C298.969,144.932 306.629,124.129 312.667,104.721ZM287.489,169.761C271.059,161.362 164.741,128.955 152.727,125.299C137.879,138.771 122.949,153.558 108.265,169.72L259.579,218.022C259.765,218.084 259.949,218.166 260.093,218.27C266.603,208.596 272.559,198.636 278.001,188.532C281.349,182.309 284.511,176.045 287.489,169.761ZM257.485,222.068L104.959,173.376C93.54,186.149 82.286,199.766 71.402,214.244C96.046,222.582 222.325,261.868 222.695,261.992C223.045,262.094 223.353,262.28 223.599,262.526C236.249,250.142 247.483,236.464 257.485,222.068ZM220.129,265.874C206.759,261.704 88.57,224.902 68.588,218.022C59.244,230.632 50.167,243.92 41.459,257.864C71.299,272.588 171.58,298.63 171.888,298.712C172.483,298.876 172.976,299.246 173.264,299.738C190.638,290.476 206.205,278.954 220.129,265.874ZM168.15,302.346C152.07,298.116 66.288,275.238 39.098,261.664C33.532,270.7 28.152,280.044 22.915,289.654C34.374,294.172 85.675,313.868 118.821,317.256C119.766,317.358 120.505,318.016 120.751,318.878C137.858,315.182 153.631,309.554 168.15,302.346ZM110.955,320.748C77.008,315.448 30.575,297.5 20.799,293.618C16.856,301.012 13.037,308.568 9.319,316.312C47.415,324.854 81.136,325.696 110.955,320.748ZM6.691,311.424C10.141,304.338 13.673,297.418 17.308,290.62C12.728,277.928 9.34,255.934 7.676,243.59C7.533,245.11 7.368,246.61 7.245,248.15C6.3,258.726 5.787,269.692 5.746,281.09C5.705,290.846 6.013,300.97 6.691,311.424ZM9.052,232.07C10.059,232.192 10.88,232.994 11.003,234.042C11.003,234.144 14.577,266.428 20.245,285.218C25.297,276.018 30.493,267.084 35.853,258.398C34.046,252.236 24.332,217.796 21.066,179.064C15.686,195.432 11.64,213.074 9.052,232.07ZM23.613,171.63C24.434,171.917 25.051,172.657 25.112,173.581C27.535,208.802 35.75,241.352 39.036,253.284C47.477,239.894 56.266,227.12 65.282,214.962C62.653,207.18 47.374,160.807 45.238,126.326C41.439,132.528 37.865,138.997 34.559,145.733C30.534,153.968 26.858,162.594 23.613,171.63ZM48.503,121.151C49.099,121.52 49.53,122.198 49.551,122.958C50.742,154.153 64.193,197.321 68.547,210.588C79.308,196.356 90.378,182.966 101.632,170.398C81.526,127.805 78.507,93.098 78.056,84.472C67.171,95.439 57.273,107.658 48.503,121.151ZM81.793,80.776C82.183,81.166 82.43,81.7 82.43,82.316C82.43,82.419 82.841,119.302 104.877,166.804C119.601,150.6 134.573,135.752 149.482,122.239C140.467,101.928 131.759,51.367 130.588,44.446C118.184,51.511 106.396,59.561 95.368,68.68C90.706,72.499 86.188,76.545 81.793,80.776ZM134.614,42.187C134.737,42.413 134.819,42.66 134.86,42.927C134.881,43.091 143.752,96.959 152.994,119.077C171.806,102.236 190.432,87.471 208.175,74.635C201.645,48.595 201.809,20.377 201.871,15.839C191.788,18.467 181.889,21.568 172.196,25.142C159.217,29.927 146.648,35.595 134.614,42.187ZM206.287,14.689C206.327,14.873 206.369,15.079 206.349,15.284C206.349,15.366 205.567,44.528 212.077,71.801C231.239,58.144 249.311,46.746 265.351,37.443C263.379,22.985 264.509,7.932 264.713,5.344C244.937,6.926 225.325,9.986 206.287,14.689ZM269.211,5.016C269.211,5.139 269.211,5.242 269.211,5.365C269.211,5.406 267.793,20.275 269.561,35.04C298.701,18.426 320.573,8.938 329.383,5.344C319.833,4.605 310.223,4.194 300.591,4.092C290.159,4.01 279.685,4.297 269.211,5.016Z" clip-rule="evenodd" fill-rule="evenodd" fill="#84E532"/>
</svg>
