<svg width="976" height="732" viewBox="0 0 976 732" fill="none" xmlns="http://www.w3.org/2000/svg" xmlns:xlink="http://www.w3.org/1999/xlink">
<path d="M528.66,-0.625L455.761,-0.625L455.761,439.805L528.66,439.805L528.66,-0.625Z" transform="rotate(210.913 492.21 219.59)" fill="#EDEFFF"/>
<path d="M295.028,159.475L295.028,158.858L295.028,159.475ZM299.507,164.57C299.507,167.038 297.497,169.048 295.028,169.048L295.028,170.281C298.178,170.281 300.74,167.719 300.74,164.57L299.507,164.57ZM295.028,169.048C292.56,169.048 290.55,167.038 290.55,164.57L289.317,164.57C289.317,167.719 291.879,170.281 295.028,170.281L295.028,169.048ZM290.55,164.57C290.55,162.101 292.56,160.091 295.028,160.091L295.028,158.858C291.879,158.858 289.317,161.42 289.317,164.57L290.55,164.57ZM295.028,160.091C297.513,160.091 299.507,162.1 299.507,164.57L300.74,164.57C300.74,161.421 298.197,158.858 295.028,158.858L295.028,160.091Z" fill="#0B334C"/>
<path d="M528.653,-0.633L455.754,-0.633L455.754,439.797L528.653,439.797L528.653,-0.633Z" transform="rotate(119.999 492.203 219.582)" fill="#EDEFFF"/>
<path d="M318.474,319.371C318.474,321.84 316.464,323.849 313.995,323.849L313.995,325.083C317.145,325.083 319.707,322.521 319.707,319.371L318.474,319.371ZM313.995,323.849C311.527,323.849 309.517,321.84 309.517,319.371L308.284,319.371C308.284,322.521 310.846,325.083 313.995,325.083L313.995,323.849ZM309.517,319.371C309.517,316.903 311.527,314.893 313.995,314.893L313.995,313.66C310.846,313.66 308.284,316.221 308.284,319.371L309.517,319.371ZM313.995,314.893C316.464,314.893 318.474,316.903 318.474,319.371L319.707,319.371C319.707,316.221 317.145,313.66 313.995,313.66L313.995,314.893Z" fill="#0B334C"/>
<path d="M664.618,113.639L664.618,113.022L664.618,113.639ZM669.097,118.734C669.097,121.202 667.087,123.212 664.618,123.212L664.618,124.445C667.768,124.445 670.33,121.883 670.33,118.734L669.097,118.734ZM664.618,123.212C662.15,123.212 660.14,121.202 660.14,118.734L658.907,118.734C658.907,121.883 661.469,124.445 664.618,124.445L664.618,123.212ZM660.14,118.734C660.14,116.265 662.15,114.255 664.618,114.255L664.618,113.022C661.469,113.022 658.907,115.584 658.907,118.734L660.14,118.734ZM664.618,114.255C667.087,114.255 669.097,116.265 669.097,118.734L670.33,118.734C670.33,115.584 667.768,113.022 664.618,113.022L664.618,114.255Z" fill="#0B334C"/>
<path d="M929.564,345.597C938.651,345.597 946.017,338.231 946.017,329.144C946.017,320.056 938.651,312.69 929.564,312.69C920.477,312.69 913.11,320.056 913.11,329.144C913.11,338.231 920.477,345.597 929.564,345.597Z" transform="rotate(-90 929.564 329.144)" fill="#7F7EFF"/>
<path d="M51.317,301.182C60.404,301.182 67.771,293.815 67.771,284.728C67.771,275.641 60.404,268.274 51.317,268.274C42.23,268.274 34.864,275.641 34.864,284.728C34.864,293.815 42.23,301.182 51.317,301.182Z" transform="rotate(-142.431 51.317 284.728)" fill="#7F7EFF"/>
<path d="M959.132,232.946C966.85,232.946 973.108,226.688 973.108,218.97C973.108,211.251 966.85,204.993 959.132,204.993C951.413,204.993 945.156,211.251 945.156,218.97C945.156,226.688 951.413,232.946 959.132,232.946Z" transform="rotate(-165.534 959.132 218.97)" fill="#7F7EFF"/>
<path d="M964.502,310.232C964.502,321.809 955.118,331.193 943.541,331.193L943.541,333.66C956.48,333.66 966.969,323.171 966.969,310.232L964.502,310.232ZM943.541,331.193C931.965,331.193 922.581,321.809 922.581,310.232L920.114,310.232C920.114,323.171 930.603,333.66 943.541,333.66L943.541,331.193ZM922.581,310.232C922.581,298.656 931.965,289.272 943.541,289.272L943.541,286.805C930.603,286.805 920.114,297.294 920.114,310.232L922.581,310.232ZM943.541,289.272C955.118,289.272 964.502,298.656 964.502,310.232L966.969,310.232C966.969,297.294 956.48,286.805 943.541,286.805L943.541,289.272Z" transform="rotate(-90 943.541 310.232)" fill="#01008A"/>
<path d="M79.693,321.729C79.693,339.665 65.153,354.206 47.217,354.206L47.217,356.673C66.515,356.673 82.16,341.028 82.16,321.729L79.693,321.729ZM47.217,354.206C29.28,354.206 14.74,339.665 14.74,321.729L12.273,321.729C12.273,341.028 27.918,356.673 47.217,356.673L47.217,354.206ZM14.74,321.729C14.74,303.793 29.28,289.252 47.217,289.252L47.217,286.785C27.918,286.785 12.273,302.43 12.273,321.729L14.74,321.729ZM47.217,289.252C65.153,289.252 79.693,303.793 79.693,321.729L82.16,321.729C82.16,302.43 66.515,286.785 47.217,286.785L47.217,289.252Z" transform="rotate(-78.694 47.217 321.729)" fill="#01008A"/>
<path d="M339.539,43.78C339.539,54.451 330.889,63.101 320.218,63.101L320.218,65.568C332.251,65.568 342.006,55.813 342.006,43.78L339.539,43.78ZM320.218,63.101C309.548,63.101 300.897,54.451 300.897,43.78L298.43,43.78C298.43,55.813 308.185,65.568 320.218,65.568L320.218,63.101ZM300.897,43.78C300.897,33.11 309.548,24.46 320.218,24.46L320.218,21.993C308.185,21.993 298.43,31.747 298.43,43.78L300.897,43.78ZM320.218,24.46C330.889,24.46 339.539,33.11 339.539,43.78L342.006,43.78C342.006,31.747 332.251,21.993 320.218,21.993L320.218,24.46Z" transform="rotate(-153.1 320.218 43.78)" fill="#01008A"/>
<path d="M134.334,124.5L48,124.5L48,66.292C48,63.919 49.919,62 52.292,62L130.059,62C132.432,62 134.352,63.919 134.352,66.292L134.352,124.5L134.334,124.5Z" fill="#01008A"/>
<path d="M134.334,74.336L48,74.336L48,66.292C48,63.919 49.919,62 52.292,62L130.059,62C132.432,62 134.352,63.919 134.352,66.292L134.352,74.336L134.334,74.336Z" fill="#1F5B99"/>
<path d="M908.39,182.751L908.39,173.556L902.754,173.556C902.51,172.771 902.178,172.02 901.812,171.305L905.808,167.309L899.299,160.801L895.304,164.797C894.588,164.43 893.838,164.099 893.053,163.855L893.053,158.219L883.858,158.219L883.858,163.855C883.072,164.099 882.322,164.43 881.607,164.797L877.611,160.801L871.103,167.309L875.099,171.305C874.732,172.02 874.401,172.771 874.156,173.556L868.521,173.556L868.521,182.751L874.156,182.751C874.401,183.536 874.732,184.287 875.099,185.002L871.103,188.998L877.611,195.506L881.607,191.51C882.322,191.877 883.072,192.208 883.858,192.452L883.858,198.088L893.053,198.088L893.053,192.47C893.838,192.226 894.588,191.894 895.304,191.528L899.299,195.523L905.808,189.015L901.812,185.019C902.178,184.304 902.51,183.554 902.754,182.769L908.39,182.769L908.39,182.751ZM888.446,185.054C884.643,185.054 881.537,181.966 881.537,178.145C881.537,174.324 884.625,171.235 888.446,171.235C892.25,171.235 895.356,174.324 895.356,178.145C895.356,181.966 892.268,185.054 888.446,185.054Z" fill="#1F5B99"/>
<path d="M370.591,157.161C386.433,157.161 399.276,144.318 399.276,128.476C399.276,112.633 386.433,99.791 370.591,99.791C354.748,99.791 341.906,112.633 341.906,128.476C341.906,144.318 354.748,157.161 370.591,157.161Z" transform="rotate(-90 370.591 128.476)" fill="#FCB13A"/>
<path d="M365.677,115.54L375.518,115.54L373.877,131.278L367.317,131.278L365.677,115.54ZM365.799,137.036C365.799,134.594 367.771,132.744 370.615,132.744C373.459,132.744 375.43,134.594 375.43,137.036C375.43,139.444 373.459,141.416 370.615,141.416C367.753,141.416 365.799,139.444 365.799,137.036Z" fill="#FFFFFF"/>
<path d="M138.85,619.324C138.85,619.324 114.544,560.716 126.13,509.819C128.66,498.67 143.84,496.75 149.144,506.87C160.364,528.297 172.159,565.165 159.195,613.514L138.85,619.324Z" fill="#B3B2FF"/>
<path d="M137.945,512.28C137.907,511.942 137.602,511.698 137.263,511.736C136.925,511.774 136.681,512.079 136.719,512.417L137.945,512.28ZM145.967,595.052C146.005,595.391 146.31,595.634 146.648,595.597C146.987,595.559 147.23,595.254 147.193,594.915L145.967,595.052ZM136.719,512.417L145.967,595.052L147.193,594.915L137.945,512.28L136.719,512.417Z" fill="#0B334C"/>
<path d="M143.265,601.493C135.309,582.875 123.688,565.915 116.569,546.967C109.171,527.25 104.617,502.979 85.546,494.011C82.667,492.65 79.439,491.743 76.298,492.284C71.168,493.174 67.452,497.71 65.027,502.316C57.611,516.345 57.838,534.142 65.62,547.961C69.86,555.481 76.211,562.007 78.375,570.365C83.679,590.762 62.305,613.183 72.233,631.783C76.926,640.559 87.151,644.764 96.887,646.893C106.606,649.004 116.883,649.807 125.607,654.64C139.862,662.544 147.487,666.854 150.646,647.312C153.176,631.765 149.372,615.818 143.265,601.493Z" fill="#2CD0D1"/>
<path d="M76.648,511.847C76.39,511.625 76,511.654 75.778,511.913C75.556,512.171 75.586,512.56 75.844,512.782L76.648,511.847ZM97.254,564.973L96.637,564.986L96.637,564.986L97.254,564.973ZM98.842,597.654L99.441,597.508L99.441,597.507L98.842,597.654ZM137.2,645.183C137.47,645.391 137.857,645.341 138.065,645.071C138.273,644.802 138.223,644.414 137.953,644.206L137.2,645.183ZM75.844,512.782C90.418,525.306 96.238,545.601 96.637,564.986L97.87,564.961C97.467,545.401 91.597,524.693 76.648,511.847L75.844,512.782ZM96.637,564.986C96.694,567.709 96.659,570.444 96.615,573.191C96.572,575.934 96.519,578.69 96.541,581.436C96.585,586.93 96.926,592.42 98.242,597.801L99.441,597.507C98.157,592.262 97.818,586.882 97.774,581.427C97.753,578.698 97.805,575.96 97.849,573.211C97.892,570.464 97.927,567.708 97.87,564.961L96.637,564.986ZM98.242,597.8C103.222,618.178 120.81,632.538 137.2,645.183L137.953,644.206C121.505,631.516 104.302,617.401 99.441,597.508L98.242,597.8Z" fill="#0B334C"/>
<path d="M141.799,620.441C145.027,606.151 153.681,593.763 162.248,581.881C170.815,569.998 179.679,557.819 183.43,543.651C187.531,528.21 185.158,511.808 181.406,496.279C180.708,493.366 179.958,490.26 180.97,487.433C182.663,482.757 188.438,480.96 193.411,481.117C212.482,481.71 226.475,501.636 226.964,520.707C227.452,539.778 217.961,557.593 207.649,573.645C197.319,589.698 185.681,605.471 180.935,623.948C178.091,635.011 174.253,667.656 155.182,662.282C141.223,658.339 139.356,631.259 141.799,620.441Z" fill="#2CD0D1"/>
<path d="M197.538,495.882C197.405,495.568 197.043,495.421 196.73,495.554C196.416,495.687 196.269,496.049 196.402,496.363L197.538,495.882ZM194.929,540.284L195.503,540.509L195.503,540.509L194.929,540.284ZM174.566,580.781L175.124,581.044L175.125,581.043L174.566,580.781ZM159.119,641.845C159.107,642.186 159.373,642.471 159.713,642.484C160.053,642.496 160.339,642.23 160.352,641.89L159.119,641.845ZM196.402,496.363C202.21,510.074 199.841,526.065 194.354,540.059L195.503,540.509C201.044,526.375 203.525,510.017 197.538,495.882L196.402,496.363ZM194.355,540.058C191.604,547.053 188.134,553.729 184.539,560.383C180.949,567.028 177.228,573.659 174.008,580.519L175.125,581.043C178.326,574.224 182.021,567.638 185.624,560.969C189.222,554.31 192.722,547.578 195.503,540.509L194.355,540.058ZM174.008,580.518C164.987,599.682 159.89,620.684 159.119,641.845L160.352,641.89C161.116,620.896 166.174,600.057 175.124,581.044L174.008,580.518Z" fill="#0B334C"/>
<path d="M168.042,730.68L118.663,730.68L108.02,650.313L178.685,650.313L168.042,730.68Z" fill="#FCB13A"/>
<path d="M897.065,727.383L790.177,411.603L763.865,411.603L870.753,727.383L897.065,727.383Z" fill="#072130"/>
<path d="M669.924,727.383L724.764,411.603L698.452,411.603L643.612,727.383L669.924,727.383Z" fill="#072130"/>
<path d="M529.989,503.207L527.529,503.207L527.529,653.961L529.989,653.961L529.989,503.207Z" transform="rotate(-97.297 528.759 578.584)" fill="#76D3F0"/>
<path d="M565.843,571.948L441.087,571.948L441.087,574.408L565.843,574.408L565.843,571.948Z" transform="rotate(-61.861 503.465 573.178)" fill="#76D3F0"/>
<path d="M570.8,538.086L551.066,538.086L605.523,710.109L625.257,710.109L570.8,538.086Z" fill="#76D3F0"/>
<path d="M473.91,489.737L404.151,710.109L423.885,710.109L493.644,489.737L473.91,489.737Z" fill="#76D3F0"/>
<path d="M363.253,730.682L435.349,502.894L415.615,502.894L343.519,730.682L363.253,730.682Z" fill="#C6F1FE"/>
<path d="M562.547,730.682L490.451,502.894L470.717,502.894L542.796,730.682L562.547,730.682Z" fill="#C6F1FE"/>
<path d="M464.863,506.155L462.403,506.155L462.403,645.2L464.863,645.2L464.863,506.155Z" transform="rotate(-95.212 463.633 575.678)" fill="#C6F1FE"/>
<path d="M501.509,572.897L381.412,572.897L381.412,575.375L501.509,575.375L501.509,572.897Z" transform="rotate(-62.545 441.46 574.136)" fill="#C6F1FE"/>
<path d="M613.478,512.368C613.478,512.368 530.407,509.175 517.635,478.291C504.863,447.408 498.459,366.465 457.997,363.272C417.534,360.079 390.908,357.95 390.908,385.641C390.908,413.331 372.797,503.853 428.178,517.707C480.174,530.706 550.002,555.901 602.416,528.978C608.68,525.733 612.78,519.382 613.478,512.368Z" fill="#00A2DD"/>
<path d="M603.708,668.547C602.208,679.696 601.213,688.298 600.707,692.887C600.445,695.295 600.323,696.604 600.323,696.604L615.591,702.623L617.283,698.471L625.344,678.911C618.138,675.439 610.897,672.037 603.708,668.547Z" fill="#FA9778"/>
<path d="M617.422,698.436C617.422,698.436 605.802,701.49 600.777,692.783L597.863,696.43C595.315,699.605 593.326,703.217 592.017,707.073L591.616,708.242L641.396,725.15C642.618,721.555 641.448,717.595 638.482,715.222L617.422,698.436Z" fill="#F04365"/>
<path d="M541.871,407.154L670.901,438.701C680.69,441.091 689.78,446.064 696.585,453.514C704.402,462.081 710.701,475.08 704.646,492.721C692.537,528.018 625.483,687.2 625.483,687.2L600.044,677.202C600.044,677.202 618.068,536.272 641.257,505.144C641.257,505.144 544.61,509.977 517.548,495.024C490.486,480.071 541.871,407.154 541.871,407.154Z" fill="#01008A"/>
<path d="M643.102,501.398C643.201,501.072 643.018,500.727 642.692,500.628C642.366,500.529 642.022,500.712 641.922,501.038L643.102,501.398ZM641.256,505.336L640.666,505.156C640.588,505.41 640.683,505.686 640.9,505.839C641.117,505.993 641.408,505.99 641.622,505.832L641.256,505.336ZM649.666,499.9C649.94,499.697 649.998,499.311 649.796,499.037C649.594,498.763 649.208,498.705 648.933,498.907L649.666,499.9ZM641.922,501.038L640.666,505.156L641.846,505.516L643.102,501.398L641.922,501.038ZM641.622,505.832L649.666,499.9L648.933,498.907L640.89,504.839L641.622,505.832Z" fill="#9F9EFF" fill-opacity="0.26"/>
<path d="M603.392,666.955C603.072,666.84 602.719,667.006 602.603,667.326C602.488,667.647 602.654,668 602.975,668.115L603.392,666.955ZM628.205,677.189C628.526,677.304 628.879,677.137 628.994,676.817C629.109,676.496 628.943,676.143 628.623,676.028L628.205,677.189ZM602.975,668.115L628.205,677.189L628.623,676.028L603.392,666.955L602.975,668.115Z" fill="#0B334C"/>
<path d="M725.34,668.093C718.046,672.839 710.596,677.288 703.006,681.441C713.44,692.381 721.641,700.599 725.532,704.472C727.154,706.095 728.044,706.968 728.044,706.968L742.177,698.627L739.787,694.283L725.34,668.093Z" fill="#FA9778"/>
<path d="M739.42,694.387C739.42,694.387 734.988,705.554 725.008,704.437L726.212,708.939C727.259,712.882 728.986,716.599 731.324,719.949L732.039,720.961L775.172,690.898C773.008,687.792 769.117,686.378 765.453,687.356L739.42,694.387Z" fill="#F04365"/>
<path d="M450.564,388.484C450.564,388.484 425.578,417.78 428.37,439.364C431.144,460.947 437.007,481.606 478.935,500.119C520.881,518.614 601.666,553.475 601.666,553.475C601.666,553.475 669.506,662.02 714.54,694.702L733.662,680.516C733.662,680.516 655.948,532.503 645.776,520.167C635.604,507.831 557.575,449.239 557.575,449.239L542.778,389.113L450.564,388.484Z" fill="#01008A"/>
<path d="M538.898,438.642C538.615,438.452 538.232,438.528 538.043,438.812C537.854,439.095 537.93,439.478 538.213,439.667L538.898,438.642ZM628.117,505.728C628.324,505.999 628.711,506.05 628.981,505.842C629.252,505.635 629.303,505.248 629.096,504.978L628.117,505.728ZM538.556,439.154C538.213,439.667 538.213,439.667 538.214,439.668C538.214,439.668 538.215,439.669 538.217,439.669C538.219,439.671 538.223,439.674 538.228,439.677C538.237,439.683 538.252,439.693 538.271,439.706C538.31,439.732 538.368,439.771 538.444,439.822C538.597,439.924 538.823,440.076 539.12,440.274C539.712,440.672 540.582,441.256 541.693,442.004C543.914,443.501 547.098,445.652 550.949,448.273C558.651,453.514 569.018,460.631 579.68,468.132C590.342,475.634 601.296,483.518 610.172,490.295C614.61,493.684 618.524,496.793 621.621,499.436C624.73,502.089 626.978,504.243 628.117,505.728L629.096,504.978C627.87,503.379 625.531,501.151 622.422,498.498C619.301,495.834 615.368,492.711 610.92,489.315C602.025,482.524 591.057,474.629 580.389,467.123C569.721,459.617 559.348,452.497 551.643,447.253C547.791,444.631 544.605,442.479 542.382,440.981C541.27,440.233 540.4,439.648 539.807,439.25C539.51,439.051 539.283,438.899 539.13,438.797C539.054,438.746 538.996,438.707 538.957,438.681C538.938,438.668 538.923,438.658 538.913,438.651C538.908,438.648 538.905,438.646 538.902,438.644C538.901,438.643 538.9,438.643 538.899,438.642C538.899,438.642 538.898,438.642 538.556,439.154Z" fill="#9F9EFF" fill-opacity="0.26"/>
<path d="M602.891,547.954C602.916,547.614 602.66,547.319 602.321,547.294C601.981,547.27 601.686,547.525 601.661,547.865L602.891,547.954ZM601.875,553.458L601.26,553.413C601.24,553.685 601.401,553.937 601.655,554.034C601.909,554.131 602.197,554.05 602.363,553.835L601.875,553.458ZM605.853,549.316C606.061,549.046 606.011,548.659 605.742,548.451C605.472,548.242 605.085,548.292 604.877,548.562L605.853,549.316ZM601.661,547.865L601.26,553.413L602.49,553.502L602.891,547.954L601.661,547.865ZM602.363,553.835L605.853,549.316L604.877,548.562L601.387,553.081L602.363,553.835Z" fill="#9F9EFF" fill-opacity="0.26"/>
<path d="M451.383,432.37C451.433,432.034 451.201,431.72 450.864,431.669C450.527,431.619 450.213,431.851 450.163,432.188L451.383,432.37ZM454.786,459.115L454.381,459.58L454.381,459.58L454.786,459.115ZM713.922,687.037C714.11,687.319 714.494,687.395 714.776,687.205C715.06,687.015 715.136,686.631 714.946,686.349L713.922,687.037ZM450.773,432.279C450.163,432.188 450.163,432.188 450.163,432.189C450.163,432.189 450.163,432.189 450.163,432.19C450.163,432.19 450.162,432.191 450.162,432.193C450.162,432.196 450.161,432.2 450.16,432.205C450.159,432.216 450.157,432.231 450.154,432.251C450.148,432.292 450.139,432.352 450.129,432.429C450.108,432.585 450.077,432.813 450.042,433.104C449.97,433.687 449.877,434.525 449.787,435.55C449.607,437.597 449.441,440.396 449.5,443.393C449.558,446.386 449.84,449.599 450.565,452.467C451.287,455.323 452.468,457.916 454.381,459.58L455.191,458.649C453.553,457.225 452.457,454.919 451.761,452.165C451.068,449.422 450.79,446.312 450.733,443.369C450.676,440.429 450.838,437.677 451.016,435.658C451.104,434.649 451.196,433.825 451.266,433.254C451.301,432.968 451.33,432.746 451.351,432.596C451.361,432.521 451.369,432.464 451.375,432.426C451.377,432.407 451.379,432.393 451.381,432.384C451.381,432.379 451.382,432.376 451.382,432.373C451.382,432.372 451.383,432.371 451.383,432.371C451.383,432.371 451.383,432.371 451.383,432.37C451.383,432.37 451.383,432.37 450.773,432.279ZM454.381,459.58C454.879,460.013 455.93,460.667 457.396,461.495C458.882,462.335 460.848,463.383 463.222,464.606C467.969,467.055 474.362,470.218 481.841,473.851C496.799,481.118 516.114,490.275 535.309,499.371C554.507,508.469 573.585,517.507 588.077,524.54C595.323,528.056 601.419,531.069 605.807,533.337C608.002,534.471 609.763,535.416 611.026,536.142C611.659,536.505 612.159,536.81 612.523,537.053C612.705,537.175 612.847,537.277 612.952,537.361C613.004,537.402 613.043,537.436 613.072,537.464C613.087,537.477 613.098,537.488 613.105,537.496C613.11,537.501 613.11,537.501 613.113,537.505C613.117,537.509 613.114,537.506 613.116,537.508L614.084,536.744C613.909,536.522 613.579,536.276 613.208,536.028C612.811,535.762 612.284,535.442 611.641,535.073C610.354,534.333 608.573,533.378 606.373,532.241C601.97,529.966 595.864,526.948 588.615,523.43C574.117,516.394 555.033,507.353 535.838,498.257C516.64,489.159 497.332,480.006 482.38,472.742C474.904,469.109 468.521,465.952 463.787,463.51C461.42,462.289 459.469,461.25 458.003,460.422C456.516,459.581 455.578,458.986 455.191,458.649L454.381,459.58ZM613.116,537.508C613.948,538.562 620.654,548.416 630.28,562.659C639.892,576.883 652.39,595.443 664.78,613.87C677.172,632.295 689.458,650.587 698.644,664.273C703.238,671.115 707.058,676.807 709.728,680.787C711.064,682.777 712.112,684.339 712.826,685.403C713.184,685.937 713.458,686.345 713.642,686.619C713.734,686.757 713.804,686.861 713.85,686.931C713.874,686.965 713.892,686.993 713.904,687.009C713.91,687.019 713.914,687.025 713.916,687.029C713.918,687.031 713.92,687.033 713.92,687.035C713.92,687.035 713.922,687.037 714.434,686.693C714.946,686.349 714.946,686.349 714.944,686.347C714.944,686.347 714.942,686.345 714.942,686.343C714.938,686.337 714.934,686.331 714.928,686.323C714.916,686.305 714.898,686.279 714.874,686.243C714.828,686.173 714.758,686.069 714.666,685.933C714.482,685.657 714.208,685.249 713.85,684.717C713.136,683.651 712.088,682.089 710.752,680.099C708.082,676.119 704.262,670.427 699.668,663.585C690.482,649.899 678.196,631.608 665.804,613.181C653.412,594.755 640.915,576.193 631.302,561.969C621.702,547.764 614.954,537.845 614.084,536.744L613.116,537.508Z" fill="#9F9EFF" fill-opacity="0.26"/>
<path d="M729.598,675.759C729.872,675.556 729.929,675.17 729.726,674.896C729.523,674.623 729.137,674.565 728.863,674.768L729.598,675.759ZM709.74,688.954C709.466,689.157 709.409,689.543 709.612,689.817C709.815,690.09 710.201,690.147 710.475,689.944L709.74,688.954ZM728.863,674.768L709.74,688.954L710.475,689.944L729.598,675.759L728.863,674.768Z" fill="#0B334C"/>
<path d="M617.809,577.513C617.632,577.222 617.253,577.129 616.962,577.306C616.671,577.483 616.578,577.862 616.755,578.153L617.809,577.513ZM650.786,626.394C651.038,626.623 651.428,626.605 651.657,626.353C651.887,626.102 651.869,625.712 651.617,625.482L650.786,626.394ZM617.282,577.833C616.755,578.153 616.755,578.154 616.756,578.154C616.756,578.154 616.756,578.155 616.756,578.155C616.757,578.156 616.758,578.158 616.76,578.161C616.763,578.165 616.767,578.172 616.773,578.182C616.784,578.2 616.801,578.228 616.823,578.265C616.868,578.338 616.935,578.448 617.022,578.59C617.196,578.875 617.454,579.295 617.785,579.831C618.447,580.905 619.404,582.45 620.585,584.333C622.948,588.098 626.207,593.219 629.795,598.64C633.383,604.06 637.302,609.785 640.982,614.755C644.655,619.714 648.116,623.959 650.786,626.394L651.617,625.482C649.044,623.136 645.644,618.977 641.973,614.021C638.311,609.075 634.405,603.37 630.824,597.959C627.243,592.549 623.989,587.437 621.63,583.677C620.451,581.797 619.495,580.256 618.835,579.184C618.504,578.649 618.248,578.23 618.074,577.946C617.987,577.804 617.921,577.696 617.876,577.623C617.854,577.586 617.837,577.559 617.826,577.54C617.82,577.531 617.816,577.524 617.813,577.519C617.812,577.517 617.811,577.515 617.81,577.514C617.81,577.514 617.81,577.513 617.809,577.513C617.809,577.513 617.809,577.513 617.282,577.833Z" fill="#9F9EFF" fill-opacity="0.26"/>
<path d="M651.65,528.027C651.481,527.731 651.105,527.628 650.809,527.796C650.513,527.965 650.41,528.341 650.578,528.637L651.65,528.027ZM673.977,569.693C674.145,569.989 674.522,570.092 674.818,569.924C675.114,569.755 675.217,569.378 675.048,569.082L673.977,569.693ZM650.578,528.637L673.977,569.693L675.048,569.082L651.65,528.027L650.578,528.637Z" fill="#9F9EFF" fill-opacity="0.26"/>
<path d="M508.842,266.677C508.842,266.677 533.304,284.055 536.707,289.9C540.092,295.763 554.19,345.927 554.19,345.927L592.437,274.075L612.171,281.473C612.171,281.473 576.087,379.532 571.464,385.709C566.84,391.868 542.482,398.97 527.058,382.621C511.616,366.272 508.842,266.677 508.842,266.677Z" fill="#F04365"/>
<path d="M544.933,359.459C544.746,359.744 544.825,360.126 545.109,360.314C545.393,360.501 545.776,360.422 545.963,360.138L544.933,359.459ZM554.382,346.241L554.992,346.329C555.033,346.043 554.87,345.767 554.601,345.665C554.331,345.562 554.026,345.661 553.867,345.902L554.382,346.241ZM552.532,354.791C552.484,355.128 552.718,355.44 553.055,355.489C553.393,355.537 553.705,355.303 553.753,354.966L552.532,354.791ZM545.963,360.138L554.897,346.581L553.867,345.902L544.933,359.459L545.963,360.138ZM553.771,346.154L552.532,354.791L553.753,354.966L554.992,346.329L553.771,346.154Z" fill="#AF2C46"/>
<path d="M595.577,268.212L595.455,268.509C595.315,268.788 595.193,269.085 595.054,269.381C599.8,271.911 604.354,275.122 608.559,277.495C609.71,278.158 610.879,278.769 612.066,279.379C612.432,278.123 612.799,276.849 613.148,275.575C613.148,275.558 613.165,275.523 613.165,275.506C617.283,271.074 626.059,261.373 624.977,260.151C623.582,258.546 615.677,264.164 615.677,264.164C615.677,264.164 627.316,252.526 624.995,250.712C622.692,248.897 613.566,259.017 613.566,259.017C613.566,259.017 621.401,243.802 618.696,243.488C615.974,243.191 609.536,254.917 609.536,254.917C609.536,254.917 614.352,239.527 611.909,239.353C609.466,239.178 602.277,257.761 602.277,257.761C602.277,257.761 597.811,250.066 595.385,251.287C593.501,252.23 594.966,263.135 595.717,268.003C595.647,268.055 595.629,268.143 595.577,268.212Z" fill="#FA9778"/>
<path d="M613.112,278.071C613.671,278.315 613.985,278.908 613.897,279.501C613.531,281.805 612.536,287.353 611.176,288.976C609.658,290.773 598.962,284.806 596.275,283.27C595.891,283.043 595.646,282.66 595.594,282.223L595.245,278.088C595.245,278.088 592.576,281.997 591.947,281.997C591.581,281.997 590.272,281.386 589.278,280.88C588.597,280.548 588.336,279.711 588.702,279.03L593.308,270.55C593.64,269.922 594.408,269.678 595.053,269.957L613.112,278.071Z" fill="#FFFFFF"/>
<path d="M492.458,272.349C495.476,271.092 500.275,267.044 504.41,262.647C503.101,261.182 502.281,259.28 502.281,257.151L502.281,219.184L472.445,219.184L472.445,257.151C472.445,260.274 470.7,262.961 468.135,264.375C474.259,270.342 483.995,275.873 492.458,272.349Z" fill="#FA9778"/>
<path d="M502.299,243.123L502.299,249.422C500.851,249.544 499.386,249.474 497.937,249.177C491.499,247.939 482.321,244.99 476.615,237.958C475.237,236.283 473.824,233.858 472.445,230.944L472.445,229.984C472.934,230.77 473.457,231.485 473.946,232.113C479.651,239.145 488.829,242.111 495.268,243.332C497.641,243.786 500.031,243.681 502.299,243.123Z" fill="#0B334C"/>
<path d="M449.03,387.437L440.847,400.505L510.535,400.505L516.712,390.176L521.493,401.43L549.392,401.43L541.68,387.559L449.03,387.437Z" fill="#FFFFFF"/>
<path d="M469.688,262.054C469.688,262.054 489.422,277.775 504.219,262.054C504.219,262.054 533.514,284.248 538.452,290.425C543.39,296.584 543.076,311.084 539.988,319.72C536.899,328.357 523.639,352.715 531.037,367.511C538.435,382.307 542.762,389.095 542.762,389.095L447.477,389.095C447.477,389.095 462.238,367.79 457.335,348.999C457.335,348.999 437.618,399.267 413.871,396.807C390.124,394.347 356.815,284.562 356.815,284.562L376.235,275L412.929,343.764C412.929,343.764 435.751,270.377 447.459,266.974C459.202,263.589 469.688,262.054 469.688,262.054Z" fill="#F04365"/>
<path d="M469.688,262.054C469.688,262.054 457.195,272.54 464.593,280.549C471.991,288.575 488.026,270.83 488.026,270.83C488.026,270.83 500.676,286.551 508.074,280.706C515.472,274.843 504.218,262.054 504.218,262.054C504.218,262.054 491.586,272.54 469.688,262.054Z" fill="#FFFFFF"/>
<path d="M464.652,344.977C464.637,344.637 464.35,344.372 464.009,344.387C463.669,344.401 463.405,344.689 463.419,345.029L464.652,344.977ZM454.922,385.929C454.706,386.192 454.744,386.581 455.007,386.797C455.27,387.013 455.659,386.975 455.875,386.712L454.922,385.929ZM464.035,345.003C463.419,345.029 463.419,345.029 463.419,345.029C463.419,345.029 463.419,345.03 463.419,345.03C463.419,345.031 463.419,345.032 463.419,345.033C463.42,345.037 463.42,345.042 463.42,345.049C463.421,345.062 463.421,345.083 463.422,345.11C463.424,345.164 463.427,345.246 463.43,345.354C463.437,345.569 463.445,345.887 463.453,346.296C463.467,347.115 463.477,348.3 463.458,349.76C463.42,352.681 463.267,356.699 462.807,361.089C462.347,365.481 461.581,370.232 460.321,374.623C459.06,379.021 457.315,383.016 454.922,385.929L455.875,386.712C458.419,383.615 460.223,379.439 461.507,374.963C462.793,370.48 463.569,365.653 464.034,361.218C464.498,356.781 464.653,352.724 464.691,349.776C464.71,348.302 464.701,347.104 464.686,346.274C464.679,345.859 464.67,345.536 464.663,345.316C464.66,345.206 464.657,345.122 464.655,345.065C464.654,345.036 464.653,345.015 464.652,345C464.652,344.993 464.652,344.987 464.652,344.983C464.652,344.981 464.652,344.98 464.652,344.979C464.652,344.978 464.652,344.978 464.652,344.977C464.652,344.977 464.652,344.977 464.035,345.003Z" fill="#AF2C46"/>
<path d="M540.934,387.602C541.131,387.88 541.516,387.945 541.794,387.748C542.072,387.551 542.137,387.166 541.94,386.888L540.934,387.602ZM542.978,307.995C542.978,307.655 542.702,307.378 542.362,307.378C542.021,307.378 541.745,307.655 541.745,307.995L542.978,307.995ZM541.437,387.245C541.94,386.888 541.94,386.888 541.94,386.888C541.939,386.888 541.939,386.888 541.939,386.888C541.939,386.887 541.938,386.886 541.937,386.885C541.935,386.882 541.932,386.878 541.929,386.873C541.921,386.862 541.91,386.846 541.894,386.824C541.864,386.78 541.818,386.715 541.759,386.629C541.64,386.456 541.465,386.2 541.244,385.868C540.801,385.205 540.173,384.241 539.433,383.039C537.953,380.634 536.029,377.283 534.25,373.494C532.47,369.702 530.842,365.489 529.945,361.358C529.047,357.221 528.893,353.219 530.001,349.818L528.829,349.436C527.625,353.127 527.818,357.374 528.74,361.62C529.664,365.873 531.331,370.178 533.134,374.018C534.938,377.86 536.886,381.254 538.383,383.685C539.132,384.902 539.768,385.879 540.218,386.553C540.443,386.89 540.621,387.151 540.743,387.329C540.805,387.418 540.852,387.486 540.884,387.531C540.9,387.554 540.912,387.572 540.921,387.584C540.925,387.59 540.928,387.594 540.93,387.597C540.932,387.599 540.932,387.6 540.933,387.601C540.933,387.601 540.934,387.602 540.934,387.602C540.934,387.602 540.934,387.602 541.437,387.245ZM530.001,349.818C532.312,342.728 535.532,334.527 538.204,326.935C539.535,323.152 540.726,319.53 541.585,316.308C542.441,313.094 542.978,310.237 542.978,307.995L541.745,307.995C541.745,310.072 541.242,312.804 540.393,315.99C539.547,319.167 538.368,322.753 537.04,326.525C534.395,334.044 531.141,342.34 528.829,349.436L530.001,349.818Z" fill="#AF2C46"/>
<path d="M456.638,348.702C456.638,348.702 465.589,333.906 469.288,316.946C469.288,316.946 472.673,342.543 458.191,359.189C458.173,359.189 459.098,355.175 456.638,348.702Z" fill="#992A40"/>
<path d="M422.794,361.955C422.963,362.251 423.34,362.353 423.635,362.184C423.931,362.015 424.033,361.638 423.864,361.343L422.794,361.955ZM413.453,344.393L413.453,343.776C413.233,343.776 413.03,343.893 412.92,344.083C412.809,344.273 412.809,344.508 412.918,344.699L413.453,344.393ZM418.705,345.009C419.046,345.009 419.322,344.733 419.322,344.393C419.322,344.052 419.046,343.776 418.705,343.776L418.705,345.009ZM423.864,361.343L413.988,344.086L412.918,344.699L422.794,361.955L423.864,361.343ZM413.453,345.009L418.705,345.009L418.705,343.776L413.453,343.776L413.453,345.009Z" fill="#AF2C46"/>
<path d="M447.153,267.705C446.815,267.663 446.506,267.903 446.464,268.241C446.422,268.579 446.662,268.887 447,268.929L447.153,267.705ZM464.773,289.193C464.835,289.528 465.157,289.749 465.492,289.687C465.827,289.625 466.048,289.303 465.986,288.968L464.773,289.193ZM447.076,268.317C447,268.929 446.999,268.929 446.999,268.929C446.999,268.929 446.999,268.929 446.999,268.929C446.999,268.929 446.999,268.929 446.999,268.929C447,268.929 447.002,268.93 447.004,268.93C447.01,268.931 447.018,268.932 447.03,268.934C447.054,268.937 447.092,268.943 447.142,268.951C447.243,268.968 447.394,268.995 447.59,269.037C447.983,269.121 448.554,269.261 449.252,269.488C450.65,269.943 452.553,270.741 454.565,272.116C458.573,274.854 463.051,279.905 464.773,289.193L465.986,288.968C464.201,279.343 459.527,274.012 455.261,271.097C453.134,269.645 451.12,268.799 449.634,268.315C448.89,268.074 448.277,267.922 447.847,267.831C447.632,267.785 447.462,267.754 447.344,267.734C447.285,267.725 447.239,267.718 447.207,267.713C447.191,267.711 447.178,267.709 447.169,267.708C447.165,267.707 447.161,267.707 447.158,267.706C447.157,267.706 447.156,267.706 447.155,267.706C447.154,267.706 447.154,267.706 447.154,267.706C447.153,267.705 447.153,267.705 447.076,268.317Z" fill="#AF2C46"/>
<path d="M343.275,260.134C342.21,261.356 350.969,271.074 355.087,275.489C355.087,275.506 355.105,275.541 355.105,275.559C355.646,277.513 356.204,279.45 356.762,281.386C363.201,280.148 369.604,277.967 375.92,275.262C374.873,273.011 373.809,270.743 372.797,268.51L372.675,268.213C372.623,268.143 372.605,268.056 372.535,267.986C373.286,263.118 374.751,252.213 372.867,251.271C370.442,250.049 365.975,257.744 365.975,257.744C365.975,257.744 358.786,239.179 356.343,239.336C353.901,239.51 358.716,254.9 358.716,254.9C358.716,254.9 352.278,243.175 349.556,243.471C346.834,243.768 354.686,259 354.686,259C354.686,259 345.578,248.88 343.257,250.695C340.954,252.509 352.575,264.147 352.575,264.147C352.575,264.147 344.671,258.529 343.275,260.134Z" fill="#FA9778"/>
<path d="M355.803,279.31C355.244,279.554 354.93,280.147 355.017,280.741C355.384,283.044 356.378,288.592 357.739,290.215C359.257,292.012 369.953,286.045 372.64,284.51C373.024,284.283 373.268,283.899 373.321,283.463L373.67,279.327C373.67,279.327 376.339,283.236 376.967,283.236C377.334,283.236 378.642,282.625 379.637,282.119C380.317,281.788 380.579,280.95 380.213,280.27L375.606,271.79C375.275,271.162 374.507,270.917 373.862,271.197L355.803,279.31Z" fill="#FFFFFF"/>
<path d="M518.193,188.212C514.616,172.003 498.232,162.057 482.18,166.297C467.349,170.223 458.258,184.827 460.84,199.536C460.631,199.606 460.422,199.641 460.23,199.711C456.059,201.421 454.053,206.184 455.763,210.372C457.281,214.088 462.69,218.398 466.808,218.084C469.128,224.068 471.571,229.163 473.961,232.095C479.667,239.126 488.845,242.092 495.283,243.314C500.116,244.256 505.107,242.947 508.858,239.737C512.313,236.806 516.483,232.531 519.187,227.209C520.426,224.836 521.351,222.254 521.822,219.462C522.066,218.014 522.136,216.286 522.101,214.332C521.962,207.353 520.269,197.582 518.193,188.212Z" fill="#FA9778"/>
<path d="M491.428,220.283C491.428,224.122 488.322,227.228 484.484,227.228C480.645,227.228 477.539,224.122 477.539,220.283C477.539,216.445 480.645,213.339 484.484,213.339C488.322,213.356 491.428,216.462 491.428,220.283Z" fill="#FA845F"/>
<path d="M522.084,214.333C522.137,216.288 522.067,218.015 521.805,219.463C521.334,222.255 520.392,224.837 519.17,227.21C518.979,227.228 518.752,227.228 518.56,227.228C514.739,227.228 511.633,224.122 511.633,220.266C511.633,216.445 514.739,213.339 518.56,213.339C519.868,213.339 521.055,213.723 522.084,214.333Z" fill="#FA845F"/>
<path d="M500.449,204.563C501.286,207.18 502.211,209.326 502.822,211.961C503.031,213.234 503.415,214.648 502.839,216.323C502.176,218.015 500.658,218.643 499.35,218.905C500.152,217.753 500.92,216.707 500.902,215.817C500.937,214.927 500.606,213.723 500.327,212.484C500.082,211.245 499.803,209.954 499.768,208.611C499.716,207.267 499.838,205.819 500.449,204.563Z" fill="#0B334C"/>
<path d="M493.085,193.291C492.387,193.256 491.585,193.186 490.869,193.186C490.136,193.186 489.421,193.186 488.723,193.291C488.025,193.395 487.379,193.675 486.751,193.989C486.106,194.32 485.565,194.826 484.989,195.367L484.937,195.419C484.727,195.629 484.378,195.611 484.186,195.384C484.047,195.227 484.012,195.001 484.082,194.809C484.431,193.971 484.902,193.116 485.635,192.471C486.333,191.808 487.222,191.302 488.165,191.022C489.089,190.726 490.067,190.604 490.991,190.673C491.933,190.761 492.806,190.935 493.713,191.406C494.202,191.651 494.394,192.244 494.149,192.732C493.975,193.081 493.609,193.291 493.225,193.273L493.085,193.291Z" fill="#0B334C"/>
<path d="M507.637,191.424C508.545,190.97 509.417,190.778 510.359,190.691C511.302,190.621 512.261,190.743 513.186,191.04C514.111,191.319 515.001,191.808 515.716,192.488C516.466,193.116 516.937,193.989 517.269,194.826C517.374,195.105 517.251,195.419 516.972,195.524C516.78,195.611 516.554,195.559 516.396,195.419L516.344,195.367C515.751,194.826 515.227,194.303 514.582,193.989C513.936,193.675 513.308,193.395 512.61,193.291C511.912,193.186 511.197,193.169 510.464,193.186C509.749,193.186 508.946,193.256 508.248,193.291L508.109,193.291C507.568,193.308 507.097,192.889 507.079,192.349C507.079,191.947 507.306,191.598 507.637,191.424Z" fill="#0B334C"/>
<path d="M513.832,208.366C513.832,210.687 512.663,212.589 511.215,212.589C509.767,212.589 508.598,210.704 508.598,208.366C508.598,206.028 509.767,204.144 511.215,204.144C512.663,204.144 513.832,206.028 513.832,208.366Z" fill="#0B334C"/>
<path d="M492.754,208.366C492.754,210.687 491.585,212.589 490.137,212.589C488.689,212.589 487.52,210.704 487.52,208.366C487.52,206.028 488.689,204.144 490.137,204.144C491.585,204.144 492.754,206.028 492.754,208.366Z" fill="#0B334C"/>
<path d="M495.947,225.605C495.197,225.692 494.499,225.5 493.819,225.256C493.173,224.942 492.493,224.558 492.161,223.86C492.824,224.174 493.4,224.454 494.046,224.68C494.674,224.994 495.319,225.204 495.947,225.605Z" fill="#0B334C"/>
<path d="M495.074,224.122C496.154,224.122 497.029,222.763 497.029,221.086C497.029,219.409 496.154,218.05 495.074,218.05C493.995,218.05 493.12,219.409 493.12,221.086C493.12,222.763 493.995,224.122 495.074,224.122Z" fill="#0B334C"/>
<path d="M520.566,200.06C520.566,200.06 519.956,179.087 508.23,169.229C496.505,159.353 479.545,164.291 468.134,172.614C456.723,180.937 460.213,199.711 460.213,199.711C460.213,199.711 469.059,213.007 474.607,212.396C480.156,211.786 481.691,188.038 481.691,188.038C481.691,188.038 506.363,199.764 515,191.737L520.566,200.06Z" fill="#0B334C"/>
<path d="M440.74,164.396C431.004,166.943 423.31,175.929 422.263,185.927C421.408,194.075 424.566,202.45 422.472,210.372C421.233,215.083 418.267,219.096 415.824,223.318C411.986,229.984 409.386,237.609 409.962,245.268C410.537,252.928 414.742,260.588 421.652,263.938C424.496,265.317 427.672,265.927 430.83,266.137C438.839,266.66 447.057,264.496 453.582,259.82C455.345,258.564 457.02,257.081 458.049,255.162C459.009,253.382 459.358,251.34 459.567,249.316C460.108,243.785 459.567,238.15 457.979,232.828C456.845,228.989 455.17,225.308 453.914,221.504C451.82,215.188 450.86,208.383 452.134,201.875C453.408,195.349 457.089,189.137 462.743,185.665C463.702,185.072 464.749,184.548 465.465,183.676C469.809,178.407 466.232,171.602 461.696,168.391C455.694,164.169 447.842,162.529 440.74,164.396Z" fill="#0B334C"/>
<path d="M391.972,376.462C391.972,376.462 404.919,465.274 422.803,469.584C440.688,473.893 476.457,468.973 490.642,479.459C504.828,489.946 551.083,540.982 551.083,540.982C551.083,540.982 442.537,538.661 399.981,504.742C357.442,470.822 391.972,376.462 391.972,376.462Z" fill="#1FB4EB"/>
<path d="M772.101,383.826L607.424,383.826C606.394,383.826 605.574,383.006 605.574,381.976L605.574,275.28C605.574,274.251 606.394,273.431 607.424,273.431L772.101,273.431C773.13,273.431 773.95,274.251 773.95,275.28L773.95,381.976C773.95,383.006 773.113,383.826 772.101,383.826Z" fill="#01008A"/>
<path d="M610.938,274L607.85,274C606.82,274 606,274.82 606,275.85L606,382.546C606,383.575 606.82,384.395 607.85,384.395L610.938,384.395L610.938,274Z" fill="#3D3CCB"/>
<path d="M710.979,398.937L651.306,398.937L651.306,404.171L710.979,404.171L710.979,398.937Z" fill="#01008A"/>
<path d="M739.427,404.758L690.083,404.758L669.721,339.99L712.905,339.99L739.427,404.758Z" fill="#3D3CCB"/>
<path d="M742.49,404.189L693.147,404.189L672.802,339.421L715.969,339.421L742.49,404.189Z" fill="#01008A"/>
<line x1="609.588" y1="275.315" x2="609.588" y2="382.622" stroke="#9F9EFF" stroke-width="0.925" stroke-miterlimit="10" stroke-linecap="round" stroke-linejoin="round"/>
<path d="M716.58,340.067C717.091,340.067 717.505,339.653 717.505,339.142C717.505,338.631 717.091,338.216 716.58,338.216L716.58,340.067ZM668.789,339.142L668.789,338.216C668.492,338.216 668.213,338.359 668.039,338.6C667.865,338.841 667.817,339.15 667.911,339.432L668.789,339.142ZM682.41,383.228C682.571,383.713 683.094,383.976 683.579,383.815C684.064,383.654 684.327,383.131 684.167,382.646L682.41,383.228ZM716.58,338.216L668.789,338.216L668.789,340.067L716.58,340.067L716.58,338.216ZM667.911,339.432L682.41,383.228L684.167,382.646L669.667,338.851L667.911,339.432Z" fill="#9F9EFF"/>
<path d="M227.331,727.384L334.201,411.604L307.889,411.604L201.019,727.384L227.331,727.384Z" fill="#0B334C"/>
<path d="M501.111,727.384L394.241,411.604L367.911,411.604L474.799,727.384L501.111,727.384Z" fill="#0B334C"/>
<path d="M816.087,404.206L283.217,404.206L283.217,430.518L816.087,430.518L816.087,404.206Z" fill="#0B334C"/>
<path d="M401.638,404.206L283.217,404.206L283.217,430.518L401.638,430.518L401.638,404.206Z" fill="#256DB8"/>
</svg>
