<svg width="1920" height="1274" viewBox="0 0 1920 1274" fill="none" xmlns="http://www.w3.org/2000/svg" xmlns:xlink="http://www.w3.org/1999/xlink">
<path d="M108.311,1250C108.311,1250 -142.399,969.848 119.052,725.946C409.64,454.88 135.087,151.597 424.618,43.622C832.896,-108.632 906.076,192.511 1363.288,117.858C1745.082,55.522 1736.974,542.584 1624.14,716.402C1530.584,860.522 1891.152,931.95 1706.596,1249.346L108.311,1250Z" fill="#ECEEFF"/>
<g opacity="0.6">
<path d="M512.187,1247.102C502.92,1235.266 367.122,1016.934 518.365,767.782C669.607,518.631 1049.239,547.722 1200.481,644.81C1351.723,741.897 1425.781,868.076 1441.225,1000.746C1456.671,1133.416 1354.813,1242.098 1354.813,1242.098L512.187,1247.102Z" fill="#CDD2FC"/>
</g>
<path d="M63.043,844.575C75.005,855.102 90.17,861.846 100.667,874.021C104.786,878.811 108.509,883.907 112.354,888.942C115.161,892.604 122.606,898.676 123.797,903.253C124.315,905.267 124.224,902.521 123.674,900.507C123.644,900.415 123.613,900.354 123.583,900.263C122.545,890.956 121.783,881.619 121.447,872.251C121.111,862.914 121.691,853.546 121.111,844.239C120.287,831.088 116.168,818.363 105.427,810.125C100.179,806.097 93.435,803.656 88.584,799.17C84.006,794.929 85.837,790.077 88.523,785.347C91.055,780.923 94.107,776.559 95.083,771.464C96.212,765.666 94.015,759.685 91.086,754.773C84.83,744.276 70.977,732.558 57.826,734.145C46.871,735.457 45.62,748.09 45.803,756.878C45.956,765.422 46.81,773.966 46.871,782.51C46.963,791.298 45.467,799.933 45.345,808.691C45.223,823.581 52.089,834.932 63.043,844.575Z" fill="#8584FF"/>
<path d="M174.266,981.216C177.592,973.251 181.437,965.837 186.136,958.605C192.575,948.688 199.745,939.015 204.078,927.908C208.503,916.557 207.862,904.443 208.289,892.512C208.594,883.724 211.218,874.997 210.516,866.178C210.182,861.967 207.74,855.132 202.278,855.834C198.037,856.383 195.504,861.632 193.887,865.019C191.049,870.877 189.066,877.133 186.96,883.297C186.136,885.707 185.343,888.148 184.305,890.467C183.695,891.81 181.773,895.105 179.942,894.678C176.829,893.915 179.667,881.252 180.125,878.994C182.444,867.735 185.923,857.268 186.411,845.673C187.113,828.86 185.801,808.873 169.354,799.658C165.051,797.248 159.62,795.813 155.531,799.414C151.503,802.954 150.374,809.087 149.764,814.152C147.933,829.684 151.594,844.361 156.568,858.977C160.688,871.03 165.57,883.48 165.936,896.387C166.272,908.806 159.833,919.791 156.782,931.539C151.961,950.214 152.937,960.131 152.937,966.172C152.907,973.74 153.181,981.246 153.73,988.814C154.249,995.771 154.829,1002.697 155.683,1009.623C155.866,1011.027 156.019,1012.493 156.202,1013.957C153.517,1007.519 152.601,1000.165 150.374,993.696C146.438,982.223 141.891,970.963 138.107,959.429C134.995,949.908 132.035,940.297 127.946,931.112C124.102,922.507 119.433,913.414 112.232,907.097C107.868,903.283 102.62,901.056 96.792,901.086C93.069,901.117 89.712,902.398 86.173,903.344C81.809,904.504 78.361,904.107 74.761,901.33C62.982,892.268 59.382,876.034 50.685,864.561C44.186,856.017 28.746,841.432 17.395,850.769C11.383,855.712 9.705,865.263 10.041,872.617C10.437,881.801 14.465,890.223 19.225,897.913C24.321,906.09 30.882,913.414 35.55,921.805C38.327,926.779 38.754,931.539 38.297,937.123C37.869,942.402 37.412,947.498 39.212,952.594C44.613,967.881 61.487,965.745 74.608,966.142C83.793,966.416 93.618,967.789 102.345,970.719C112.415,974.106 118.975,980.666 122.576,990.614C125.169,997.815 126.573,1005.993 131.486,1012.125C133.805,1014.995 136.856,1017.131 140.213,1018.625C145.339,1020.883 160.932,1021.859 161.023,1020.457C161.42,1015.697 163.678,1010.661 165.082,1006.145C167.706,997.693 170.818,989.393 174.266,981.216Z" fill="#8584FF"/>
<path d="M246.675,978.317C245.332,969.59 245.577,959.948 241.457,951.923C241.152,951.343 240.389,951.19 239.84,951.496C236.88,953.143 236.758,957.934 236.514,960.863C236.117,965.745 236.422,970.628 235.812,975.479C234.775,984.023 232.791,992.811 229.709,1000.836C226.231,1009.93 219.914,1015.086 210.73,1017.924C204.84,1019.755 199.043,1021.342 194.1,1025.248C189.675,1028.757 186.624,1033.578 184.366,1038.674C178.232,1052.435 175.303,1067.784 172.465,1082.492C170.543,1092.378 168.987,1102.326 166.576,1112.121C164.165,1121.915 161.602,1131.649 160.229,1141.658C159.985,1142.177 159.741,1142.665 159.527,1143.184C158.887,1144.679 161.236,1145.472 162.03,1144.252C171.519,1129.666 183.054,1116.545 198.829,1108.52C205.939,1104.889 215.398,1104.126 221.349,1098.42C225.865,1094.087 226.475,1087.465 225.804,1081.546C224.919,1073.795 221.196,1067.418 217.321,1060.796C215.185,1057.165 212.683,1053.29 213.537,1048.865C214.361,1044.715 217.809,1041.633 221.226,1039.498C227.787,1035.439 235.446,1033.608 240.786,1027.75C245.76,1022.318 248.536,1015.514 249.086,1008.19C249.848,998.456 248.17,987.99 246.675,978.317Z" fill="#8584FF"/>
<path d="M117.418,1028.726C109.057,1017.955 98.957,1008.648 87.606,1001.111C81.534,997.083 67.253,989.15 64.354,1001.02C62.676,1007.977 69.481,1014.812 73.966,1019.175C80.71,1025.736 88.491,1031.381 94.166,1038.948C87.118,1041.206 79.764,1041.634 73.661,1046.485C66.429,1052.252 63.164,1063.36 70.366,1070.439C73.875,1073.887 78.513,1075.992 82.846,1078.098C88.521,1080.844 94.289,1083.316 100.086,1085.757C112.627,1091.005 125.321,1096.314 136.001,1104.889C146.894,1113.616 157.147,1128.415 158.001,1142.665C158.093,1144.038 157.574,1142.787 158.368,1142.177C158.825,1142.574 160.29,1141.872 160.29,1141.078C160.076,1119.932 156.262,1099.763 147.627,1080.386C139.602,1062.383 129.502,1044.288 117.418,1028.726Z" fill="#8584FF"/>
<path d="M88.491,831.728C93.099,841.31 97.92,850.677 103.047,860.015C107.99,869.016 112.902,877.926 116.595,887.538C121.141,899.347 125.901,910.973 130.692,922.69C135.696,934.865 140.151,947.254 143.721,959.917C150.709,984.633 155.897,1010.051 158.46,1035.623C159.772,1048.621 160.352,1061.681 159.985,1074.741C159.711,1084.933 158.551,1095.033 157.605,1105.195C156.598,1115.751 155.896,1126.463 156.781,1137.051C157.514,1145.899 158.917,1156.457 165.813,1162.773C167.156,1164.025 169.078,1162.469 168.285,1160.881C160.107,1144.129 160.565,1125.851 162.121,1107.697C162.976,1097.657 164.166,1087.679 164.532,1077.609C164.959,1064.793 164.471,1051.947 163.25,1039.193C160.87,1014.11 155.866,989.332 149.397,965.013C146.071,952.533 141.952,940.297 137.222,928.305C132.462,916.282 126.969,904.565 122.362,892.481C114.031,870.603 101.338,851.227 90.078,830.844C89.529,829.745 88.003,830.66 88.491,831.728Z" fill="#BFBFFF"/>
<path d="M158.89,1010.57C160.202,994.642 161.636,979.293 166.976,964.128C169.478,957.049 172.499,950.153 174.94,943.043C176.923,937.154 179.914,929.098 178.388,922.843C178.205,922.141 177.198,922.171 177.015,922.843C175.977,926.413 176.099,930.319 175.367,933.98C174.635,937.55 173.689,941.029 172.59,944.507C170.241,951.861 167.159,958.91 164.504,966.172C159.347,980.178 156.693,995.679 157.822,1010.57C157.852,1011.272 158.828,1011.272 158.89,1010.57Z" fill="#BFBFFF"/>
<path d="M66.583,919.029C72.9,934.286 91.91,935.171 105.763,938.589C115.65,941.03 122.943,947.621 128.191,956.195C133.928,965.563 137.803,976.548 141.007,987.014C141.037,987.136 141.22,987.075 141.19,986.953C137.315,968.645 131.761,946.614 112.904,938.1C97.769,931.265 77.843,934.714 68.201,918.358C67.682,917.565 66.217,918.114 66.583,919.029Z" fill="#BFBFFF"/>
<path d="M148.877,1008.161C149.639,1009.168 150.311,1010.236 151.104,1011.243C151.501,1011.731 151.867,1012.189 152.355,1012.585C152.843,1012.982 153.423,1013.501 154.125,1013.47C154.4,1013.47 154.613,1013.135 154.461,1012.89C154.155,1012.372 153.576,1012.067 153.149,1011.7C152.691,1011.304 152.233,1010.907 151.806,1010.48C150.921,1009.656 150.128,1008.741 149.243,1007.886C149.06,1007.734 148.724,1007.947 148.877,1008.161Z" fill="#43588E"/>
<path d="M109.361,1056.585C120.255,1065.526 130.324,1076.114 138.319,1087.74C142.133,1093.293 145.673,1099.152 148.877,1105.072C152.355,1111.541 154.674,1118.376 157.39,1125.18C157.604,1125.699 158.55,1125.699 158.458,1125.028C156.932,1110.656 147.839,1098.359 140.577,1086.397C136.793,1080.203 132.094,1075.199 127.029,1070.011C121.811,1064.671 116.471,1059.606 110.368,1055.304C109.605,1054.785 108.659,1056.005 109.361,1056.585Z" fill="#BFBFFF"/>
<path d="M196.175,1039.681C190.927,1042.671 190.744,1050.94 190.652,1056.25C190.469,1066.442 192.971,1075.992 188.516,1085.696C184.489,1094.453 178.05,1101.777 172.985,1109.893C168.255,1117.522 163.556,1127.256 163.678,1136.41C163.678,1136.929 164.502,1137.234 164.746,1136.684C166.668,1132.535 167.34,1127.805 168.713,1123.441C170.239,1118.529 172.405,1114.074 175.182,1109.771C180.064,1102.204 186.045,1095.338 190.012,1087.221C194.192,1078.647 193.582,1070.164 193.307,1060.888C193.124,1054.968 192.544,1045.448 197.304,1041.054C198.006,1040.383 197.06,1039.193 196.175,1039.681Z" fill="#BFBFFF"/>
<path d="M161.082,1137.355C139.936,1137.049 99.627,1136.836 99.627,1136.836L109.605,1210.863C111.863,1227.523 126.052,1239.942 142.865,1239.942L160.228,1239.942L161.906,1239.942L179.268,1239.942C196.081,1239.942 210.301,1227.523 212.528,1210.863L222.506,1136.836C222.506,1136.836 182.228,1137.049 161.082,1137.355Z" fill="#FFFFFF"/>
<path d="M1920,1240L50,1240L50,1258L1920,1258L1920,1240Z" fill="#01008A"/>
<path d="M776.797,1176.494C776.797,1176.494 773.321,1195.143 771.525,1213.617C770.823,1220.839 776.338,1227.163 783.58,1227.534C808.196,1228.797 860.85,1231.294 879.756,1230.626C882.597,1230.525 884.481,1227.636 883.455,1224.983C882.597,1222.762 880.91,1220.954 878.757,1219.934L792.132,1179.119L776.797,1176.494Z" fill="url(#pf_0_470_81)"/>
<path d="M774.195,1165.492L776.632,1187.86C776.632,1187.86 791.805,1195.103 802.287,1187.212L796.213,1162.252L774.195,1165.492Z" fill="url(#pf_0_470_82)"/>
<path d="M780.198,745.454C778.996,751.279 771.275,1036.566 800.555,1164.728C801.034,1166.822 799.954,1168.96 797.963,1169.75C793.265,1171.62 784.072,1174.3 773.077,1174.564C769.675,1174.644 766.645,1172.404 765.713,1169.13C757.276,1139.378 716.92,990.338 712.823,848.292C708.246,689.566 712.877,842.892 712.877,842.892L717.385,744.846L780.198,745.454Z" fill="url(#pf_0_470_83)"/>
<path d="M676.617,1185.282C676.617,1185.282 671.272,1194.664 665.953,1219.671C664.994,1224.187 668.113,1228.547 672.702,1229.047C680.829,1229.924 693.336,1231.071 703.359,1231.098C707.983,1231.112 711.628,1227.123 711.115,1222.526C710.089,1213.367 706.775,1198.329 696.198,1186.53L676.617,1185.282Z" fill="url(#pf_0_470_84)"/>
<path d="M672.277,1156.501L678.15,1190.351C678.15,1190.351 684.231,1194.968 696.38,1191.775L693.768,1155.395L672.277,1156.501Z" fill="url(#pf_0_470_85)"/>
<path d="M659.393,753.054C633.008,903.362 661.255,1125.189 671.076,1168.651C671.677,1171.309 673.803,1173.369 676.489,1173.835C681.052,1174.637 688.571,1175.325 696.009,1173.241C698.574,1172.525 700.39,1170.237 700.518,1167.577C702.226,1132.533 701.807,917.3 725.863,832.47C727.085,828.171 729.751,824.438 733.416,821.88L778.835,790.238L782.79,738.427L659.393,753.054Z" fill="url(#pf_0_470_86)"/>
<path d="M1026.38,423.453C1019.124,414.51 1011.076,415.665 1011.076,415.665C999.629,462.029 926.578,510.734 882.795,526.456C886.507,542.972 893.223,564.447 911.912,586.532C1010.795,532.177 1026.38,423.453 1026.38,423.453Z" transform="rotate(90.429 954.587 501.074)" fill="url(#pf_0_470_89)"/>
<path d="M788,469C713.254,467.049 663.636,487.447 663.636,487.447C640.114,617.257 657.069,767.404 657.069,767.404C714.799,783.13 780.318,759.296 780.318,759.296C790.456,705.042 836.792,552.521 836.792,552.521C873.362,548.336 879.094,553.695 904,539.999C885.31,517.908 899.712,488.516 896,472C870,458 796.934,463.682 788,469Z" fill="#FF3874"/>
<path d="M1081.745,516.013C1082.487,518.464 1073.557,522.102 1068.414,512.058C1068.279,507.266 1065.559,486.727 1068.461,482.852C1083.898,462.225 1113.691,436.462 1113.691,436.462C1118.638,441.436 1114.481,446.235 1114.481,446.235L1100.002,461.031C1102.952,466.478 1106.563,471.081 1108.21,477.655C1109.459,482.63 1108.615,487.928 1106.064,492.417C1103.506,496.925 1100.016,502.784 1096.729,507.367C1090.506,516.034 1081.745,516.013 1081.745,516.013Z" transform="rotate(90.429 1091.621 477.592)" fill="url(#pf_0_470_91)"/>
<path d="M1087.704,463.816L1074.536,474.764L1070.331,485.746L1081.852,498.773C1081.852,498.773 1085.976,476.938 1088.933,472.233C1091.889,467.535 1090.404,465.227 1087.704,463.816Z" transform="rotate(90.429 1080.444 481.295)" fill="url(#pf_0_470_92)"/>
<path d="M691.622,560.108L663.638,487.448C663.638,487.448 593.36,534.223 581.299,594.268C594.481,595.368 618.456,599.026 641.843,611.115C647.283,582.76 691.622,560.108 691.622,560.108Z" fill="#FF3874"/>
<path d="M751.99,628.799C751.99,628.799 673.168,672.354 647.08,634.273C641.661,626.362 640.425,618.546 641.849,611.115C618.462,599.026 594.487,595.361 581.305,594.268C577.667,612.37 579.314,631.674 589.789,651.269C635.316,736.47 762.189,648.231 762.189,648.231L751.99,628.799Z" fill="url(#pf_0_470_94)"/>
<path d="M745.923,407.903L721.482,476.466C721.077,477.6 721.536,478.869 722.582,479.463C729.035,483.108 752.294,493.691 780.616,476.115C783.566,474.286 785.59,471.269 786.07,467.833L794.338,408.369L745.923,407.903Z" fill="url(#pf_0_470_95)"/>
<path d="M798.285,344.699C798.285,344.699 823.934,394.114 820.397,413.944C816.86,433.775 784.502,432.04 756.39,415.638L737.146,362.356L798.285,344.699Z" fill="url(#pf_0_470_97)"/>
<path d="M757.888,389.578C759.042,389.078 759.481,387.674 758.799,386.621C756.734,383.402 752.88,376.848 751.678,371.124C751.678,371.124 747.014,368.073 763.693,364.246C780.378,360.419 805.264,354.473 810.617,340.353C815.834,326.583 802.8,291.714 781.208,319.192C780.385,320.238 778.799,320.245 777.995,319.186C774.546,314.603 765.441,305.072 752.63,310.674C740.636,315.919 739.212,324.653 739.333,329.067C739.367,330.363 738.199,331.362 736.924,331.106C730.896,329.897 716.418,328.77 709.513,343.565C703.83,355.755 707.38,362.721 710.647,366.136C711.707,367.243 711.221,369.045 709.749,369.484C705.767,370.659 700.617,373.979 701.036,383.28C701.623,396.138 716,395.146 720.097,394.6C720.765,394.512 721.44,394.748 721.892,395.254C725.362,399.169 741.007,415.8 758.097,417.953C759.576,418.142 760.737,416.691 760.264,415.274L753.069,393.688C752.731,392.683 753.224,391.596 754.196,391.178L757.888,389.578Z" fill="url(#pf_0_470_98)"/>
<path d="M760.83,392.662C760.83,392.662 742.357,379.723 740.892,390.455C739.434,401.187 757.489,406.182 766.5,402.26L760.83,392.662Z" fill="url(#pf_0_470_99)"/>
<path d="M735.88,697.639L778.815,547.695C779.301,545.994 780.752,544.752 782.514,544.55C790.296,543.645 812.833,541.094 838.86,538.894C870.212,536.241 906.613,534.095 928.374,535.924C931.465,536.18 933.335,539.454 931.958,542.235C919.586,567.262 868.7,669.074 843.213,702.424C842.37,703.531 841.06,704.172 839.67,704.159L740.052,703.234C737.163,703.207 735.084,700.426 735.88,697.639Z" fill="url(#pf_0_470_102)"/>
<path d="M746.254,661.414C746.254,661.414 740.274,636.818 742.684,628.097C745.093,619.37 749.771,608.152 765.349,610.649C780.927,613.14 799.313,619.707 799.313,619.707C799.313,619.707 798.382,631.074 786.543,627.409L793.887,633.092C793.887,633.092 792.834,642.191 782.837,637.331L789.668,644.863C789.668,644.863 785.375,652.335 778.011,647.543C770.654,642.737 767.124,664.377 746.254,661.414Z" fill="url(#pf_0_470_103)"/>
<path d="M836.004,583.651C836.004,590.61 841.647,596.253 848.605,596.253C855.564,596.253 861.207,590.61 861.207,583.651C861.207,576.692 855.564,571.05 848.605,571.05C841.647,571.05 836.004,576.692 836.004,583.651Z" fill="#7D97F4"/>
<path d="M783.674,591.96L780.461,591.008L789.202,561.357C790.626,556.524 794.527,552.899 799.373,551.894C827.081,546.109 900.058,544.928 903.15,544.881L903.204,548.229C902.448,548.235 827.452,549.45 800.055,555.167C796.417,555.923 793.488,558.657 792.415,562.302L783.674,591.96Z" fill="#DAE3FE"/>
<path d="M275.534,1011.585C270.958,1018.355 252.767,1171.701 249.919,1228.331C249.723,1232.157 252.788,1235.349 256.621,1235.349C259.929,1235.349 262.743,1232.941 263.25,1229.673L296.519,1016.459L275.534,1011.585Z" fill="#A6ADEE"/>
<path d="M421.783,1011.585C426.36,1018.355 444.55,1171.701 447.398,1228.331C447.594,1232.157 444.53,1235.349 440.696,1235.349C437.389,1235.349 434.574,1232.941 434.068,1229.673L400.799,1016.459L421.783,1011.585Z" fill="#A6ADEE"/>
<path d="M248.014,999.619L248.001,1001.293C247.893,1013.321 258.254,1023.189 271.233,1023.411L425.024,1026.03C437.815,1026.246 448.472,1017.006 449.094,1005.16L449.174,1003.628C449.822,991.276 439.333,980.868 425.996,980.632L272.138,977.871C258.969,977.635 248.122,987.409 248.014,999.619Z" fill="#A6ADEE"/>
<path d="M571.974,1222.763C544.638,1222.763 532.542,1220.42 527.129,1218.281C528.182,1222.769 532.178,1226.313 537.233,1226.313L633.949,1226.313C637.202,1226.313 639.261,1223.195 638.485,1220.373C627.463,1221.257 604.041,1222.763 571.974,1222.763Z" fill="#A6ADEE"/>
<path d="M638.487,1220.373C638.332,1219.806 638.103,1219.246 637.698,1218.727C630.327,1209.318 615.532,1194.549 595.397,1194.833C565.908,1195.244 555.622,1198.444 532.707,1195.015L527.3,1212.935C526.747,1214.764 526.74,1216.587 527.138,1218.281C532.545,1220.421 544.64,1222.763 571.983,1222.763C604.044,1222.763 627.465,1221.258 638.487,1220.373Z" fill="#2B478B"/>
<path d="M539.342,1175.704L532.707,1198.275C532.707,1198.275 547.408,1204.971 560.34,1199.598L562.878,1180.044L539.342,1175.704Z" fill="url(#pf_0_470_114)"/>
<path d="M739.792,1208.548C718.483,1225.672 707.589,1231.429 702.041,1233.157C705.659,1235.985 710.984,1236.228 714.926,1233.063L790.32,1172.484C792.858,1170.446 792.52,1166.74 790.151,1165.033C782.105,1172.633 764.793,1188.461 739.792,1208.548Z" fill="#A6ADEE"/>
<path d="M790.152,1165.039C789.673,1164.695 789.146,1164.405 788.505,1164.256C776.896,1161.576 756.154,1159.383 740.637,1172.214C717.904,1191.005 711.883,1199.928 691.877,1211.619L698.836,1228.911C699.545,1230.673 700.672,1232.097 702.042,1233.163C707.59,1231.436 718.484,1225.678 739.793,1208.554C764.794,1188.46 782.106,1172.632 790.152,1165.039Z" fill="#2B478B"/>
<path d="M397.376,918.542C397.376,918.542 561.048,931.906 594.627,947.714C628.207,963.522 567.223,1185.052 567.223,1185.052C567.223,1185.052 558.085,1189.454 537.742,1183.128C537.742,1183.128 558.598,1019.645 543.081,984.196L365.861,955.206L397.376,918.542Z" fill="url(#pf_0_470_118)"/>
<path d="M675.617,1180.497C677.136,1181.88 691.877,1211.613 691.877,1211.613C691.877,1211.613 708.292,1208.062 711.633,1197.674L696.865,1170.838L675.617,1180.497Z" fill="url(#pf_0_470_119)"/>
<path d="M298.791,917.172C298.791,917.172 293.458,930.003 293.674,947.059C293.978,970.649 312.938,989.785 336.501,990.959L529.994,999.781C534.078,999.97 537.54,1002.798 538.558,1006.753C543.108,1024.343 565.328,1078.347 673.97,1186.118C676.86,1188.988 681.362,1189.474 684.804,1187.3L700.268,1177.534C701.894,1176.508 702.406,1174.382 701.442,1172.72L588.784,980.335C582.864,970.568 573.354,963.515 562.29,960.687L397.376,918.529L298.791,917.172Z" fill="url(#pf_0_470_120)"/>
<path d="M489.475,616.649C489.475,616.649 468.746,653.3 447.613,671.052L491.297,695.425C491.297,695.425 501.138,656.628 523.628,645.268L489.475,616.649Z" fill="url(#pf_0_470_121)"/>
<path d="M295.283,918.542C295.283,918.542 347.519,931.272 397.379,918.542C397.379,918.542 467.143,824.755 494.135,799.228C494.135,799.228 537.191,867.164 633.015,876.796L638.361,864.855C638.361,864.855 562.071,829.689 538.589,775.652C515.099,721.614 505.669,698.57 484.301,684.47C470.99,675.689 463.026,669.689 458.908,666.415C456.654,664.62 453.543,664.417 451.086,665.915C428.407,679.732 321.708,752.811 295.283,918.542Z" fill="#FF3874"/>
<path d="M491.298,797.905C490.292,797.905 489.3,797.453 488.638,796.596C472,774.909 462.74,750.995 462.355,749.996C461.694,748.268 462.558,746.331 464.286,745.67C466.014,745.008 467.951,745.872 468.612,747.6C468.707,747.836 477.933,771.635 493.957,792.526C495.084,793.997 494.808,796.096 493.336,797.223C492.729,797.682 492.013,797.905 491.298,797.905Z" fill="#CA2556"/>
<path d="M627.254,858.612L638.04,855.736L670.789,848.15C674.731,847.239 678.875,847.934 682.297,850.094L710.457,867.811L632.694,867.683L627.254,858.612Z" fill="url(#pf_0_470_124)"/>
<path d="M522.387,561.701C522.387,561.701 542.528,595.186 546.024,613.694C549.52,632.201 555.129,643.77 534.063,650.365C512.998,656.959 493.424,648.61 481.139,631.337C481.139,631.337 461.95,604.751 463.867,592.574C465.784,580.398 522.387,561.701 522.387,561.701Z" fill="url(#pf_0_470_126)"/>
<path d="M486.755,617.014L489.482,616.656C489.482,616.656 475.219,595.105 484.554,589.759C493.889,584.413 531.923,571.292 538.525,556.314C544.889,541.877 535.366,525.563 523.885,522.154C523.156,521.938 522.393,522.37 522.13,523.079L521.455,524.895C520.996,526.144 519.248,526.191 518.714,524.976C518.208,523.822 516.554,523.774 516.035,524.922C513.996,529.41 507.901,537.071 489.61,543.004C463.657,551.421 447.492,564.502 449.476,582.942C449.605,584.11 448.444,584.913 447.37,584.44C445.251,583.502 442.031,583.354 438.299,587.437C431.806,594.538 436.895,610.076 454.633,621.071C455.477,621.59 455.625,622.785 454.869,623.426C452.217,625.701 448.484,630.763 460.485,635.279C472.763,639.896 479.458,638.336 481.935,637.344C482.604,637.074 482.982,636.386 482.847,635.684L479.695,619.525C479.533,618.688 480.106,617.892 480.95,617.777L486.755,617.014Z" fill="url(#pf_0_470_127)"/>
<path d="M487.869,620.328C487.869,620.328 478.98,598.412 469.645,606.114C460.31,613.815 478.271,630.844 486.566,630.615L487.869,620.328Z" fill="url(#pf_0_470_128)"/>
<path d="M597.211,883.065C597.339,883.072 597.467,883.072 597.595,883.072L763.725,882.903C767.828,882.903 771.156,879.575 771.149,875.472C771.143,871.368 767.802,867.986 763.704,868.054L597.575,868.222C593.471,868.222 590.144,871.55 590.15,875.654C590.157,879.629 593.282,882.876 597.211,883.065Z" fill="url(#pf_0_470_131)"/>
<path d="M828.062,720.371C828.002,720.486 827.948,720.601 827.894,720.715L757.994,871.422C756.266,875.148 757.879,879.562 761.598,881.29C765.317,883.018 769.799,881.411 771.46,877.665L841.359,726.959C843.087,723.233 841.474,718.819 837.755,717.091C834.157,715.424 829.898,716.895 828.062,720.371Z" fill="url(#pf_0_470_133)"/>
<path d="M1263.088,1034.528L1245.553,1034.528L1245.553,1224.153L1263.088,1224.153L1263.088,1034.528Z" fill="#A6ADEE"/>
<path d="M1331.114,1227.804L1177.539,1227.804C1177.539,1221.5 1182.649,1216.391 1188.953,1216.391L1319.7,1216.391C1326.005,1216.391 1331.114,1221.5 1331.114,1227.804Z" fill="#A6ADEE"/>
<path d="M1353.907,1027.947C1353.907,1038.321 1345.423,1046.806 1335.048,1046.806L1179.671,1046.806C1169.297,1046.806 1160.813,1038.321 1160.813,1027.947L1160.813,1010.898C1160.813,1000.523 1169.297,992.039 1179.671,992.039L1335.048,992.039C1345.423,992.039 1353.907,1000.523 1353.907,1010.898L1353.907,1027.947Z" fill="#A6ADEE"/>
<path d="M1124.876,908.093C1124.876,908.093 1098.822,912.129 1069.529,931.717C1064.919,934.801 1062.387,940.174 1063.083,945.675C1066.592,973.463 1081.01,1063.396 1128.575,1151.229C1131.085,1155.859 1131.801,1161.253 1130.694,1166.403L1122.432,1204.855L1107.111,1219.225L1146.576,1219.225L1172.852,1148.111L1161.614,1144.561C1152.9,1141.807 1146.927,1133.795 1146.765,1124.655L1145.449,1048.371C1146.576,1014.387 1124.606,990.932 1124.606,990.932L1187.634,987.867L1124.876,908.093Z" fill="url(#pf_0_470_140)"/>
<path d="M1091.696,1226.158C1088.099,1230.862 1130.385,1237.072 1151.741,1226.779C1151.741,1226.779 1181.352,1175.258 1181.352,1148.732C1181.352,1148.732 1179.003,1143.326 1161.616,1144.547C1161.616,1144.547 1151.674,1205.551 1141.178,1212.381C1130.682,1219.212 1111.803,1213.07 1111.803,1213.07C1111.803,1213.07 1097.001,1219.219 1091.696,1226.158Z" fill="#2B478B"/>
<path d="M1179.672,992.038C1179.334,991.458 1111.811,983.919 1111.811,983.919C1111.811,983.919 1114.018,1004.451 1107.113,1032.712C1100.208,1060.979 1001.063,1183.432 1001.063,1183.432L1011.457,1216.384C979.315,1227.582 947.7,1229.37 916.584,1222.094L981.009,1183.432C981.009,1183.432 1041.304,977.959 1078.238,941.301L1145.924,917.88L1179.672,992.038Z" fill="url(#pf_0_470_142)"/>
<path d="M1331.112,872.482C1331.112,872.482 1370.018,930.347 1373.21,956.745C1376.402,983.143 1362.552,993.868 1321.73,995.636C1280.908,997.405 1171.928,997.378 1171.928,997.378L1078.918,917.887C1078.918,917.887 1146.698,893.703 1164.321,886.859C1181.945,880.021 1331.112,872.482 1331.112,872.482Z" fill="url(#pf_0_470_143)"/>
<path d="M1007.527,1205.294C1007.527,1205.294 1018.718,1216.134 1011.159,1228.196C1011.159,1228.196 922.495,1243.909 898.426,1236.782C898.426,1236.782 903.427,1225.375 930.527,1212.388L928.529,1213.921C925.998,1215.864 927.483,1219.914 930.669,1219.732C948.529,1218.713 985.496,1215.439 1007.527,1205.294Z" fill="#2B478B"/>
<path d="M1162.587,505.496C1242.119,491.977 1279.559,556.841 1276.826,570.468C1276.461,572.277 1278.169,573.803 1279.944,573.324C1289.076,570.867 1309.244,567.769 1321.751,583.435C1332.794,597.265 1324.539,610.318 1317.816,617.487C1316.19,619.214 1317.56,622.029 1319.915,621.732C1336.702,619.613 1373.176,619.106 1379.144,653.273C1384.712,685.138 1362.532,694.122 1349.378,696.66C1347.15,697.085 1346.63,700.015 1348.548,701.23C1355.108,705.394 1362.714,713.994 1359.636,730.968C1354.824,757.576 1302.656,755.402 1296.555,755.052C1296.17,755.032 1295.806,754.916 1295.468,754.728L1211.907,707.068C1211.253,706.698 1210.807,706.056 1210.679,705.314L1193.811,607.889C1193.676,607.099 1193.919,606.296 1194.473,605.715L1139.996,528.843C1120.22,525.934 1161.649,505.651 1162.587,505.496Z" fill="url(#pf_0_470_146)"/>
<path d="M1225.893,864.822C1225.893,864.822 1180.589,821.684 1158.288,793.106C1146.233,777.663 1142.447,757.326 1148.022,738.542C1158.2,704.24 1176.296,668.71 1177.95,663.182C1180.481,654.704 1231.279,655.062 1231.279,655.062C1231.279,655.062 1331.241,719.939 1370.518,829.837L1326.409,843.573C1326.409,843.573 1300.308,799.781 1274.517,771.946C1274.517,771.946 1319.139,830.897 1320.712,855.027L1225.893,864.822Z" fill="#FF3874"/>
<path d="M1171.809,615.813C1172.342,617.575 1185.598,661.528 1186.638,662.44C1187.677,663.351 1215.715,664.863 1228.911,655.839L1196.168,591.798L1171.809,615.813Z" fill="url(#pf_0_470_148)"/>
<path d="M1118.655,559.332C1118.655,559.332 1112.249,584.515 1129.974,618.378C1147.699,652.241 1167.772,652.207 1178.74,641.367C1189.708,630.527 1203.242,612.134 1200.029,579.392C1196.816,546.649 1127.909,527.298 1118.655,559.332Z" fill="url(#pf_0_470_150)"/>
<path d="M1175.499,581.174C1175.499,581.174 1146.084,536.207 1118.505,571.596L1118.006,584.468C1118.006,584.468 1085.702,580.634 1091.358,551.009C1097.007,521.385 1124.931,502.871 1160.886,515.702C1196.842,528.533 1217.442,541.688 1219.764,567.458C1222.085,593.222 1201.587,587.572 1201.587,587.572C1201.587,587.572 1194.898,569.429 1185.394,567.546C1175.891,565.663 1178.361,579.81 1178.361,579.81L1175.499,581.174Z" fill="url(#pf_0_470_151)"/>
<path d="M1183.034,580.573C1183.034,580.573 1167.78,557.55 1183.412,554.114C1199.044,550.679 1196.621,576.55 1194.934,586.121L1183.034,580.573Z" fill="url(#pf_0_470_152)"/>
<path d="M1133.598,868.027L1166.887,835.946L1212.933,855.398C1212.933,855.398 1258.77,862.499 1285.006,855.398C1311.242,848.298 1311.242,848.298 1311.242,848.298L1370.524,829.844L1379.832,856.154C1382.194,862.837 1379.818,870.254 1374.042,874.358C1368.912,878.003 1362.898,882.006 1359.07,883.686C1351.262,887.102 1166.617,881.324 1166.617,881.324L1133.598,868.027Z" fill="url(#pf_0_470_153)"/>
<path d="M1259.565,883.154C1259.417,883.161 1259.269,883.167 1259.121,883.161L1066.025,882.951C1061.253,882.945 1057.386,879.077 1057.393,874.298C1057.399,869.526 1061.287,865.578 1066.046,865.665L1259.141,865.875C1263.913,865.882 1267.779,869.756 1267.773,874.528C1267.767,879.151 1264.129,882.924 1259.565,883.154Z" fill="url(#pf_0_470_155)"/>
<path d="M892.445,707.831L1053.255,707.831C1065.121,707.831 1075.914,714.675 1080.976,725.407L1155.318,883.046L955.473,883.046C947.826,883.046 940.961,878.375 938.147,871.267L880.498,725.394C877.17,716.97 883.38,707.831 892.445,707.831Z" fill="url(#pf_0_470_156)"/>
<path d="M1005.737,788.658C1009.22,799.485 1006.648,810.001 999.986,812.14C993.324,814.287 985.103,807.247 981.614,796.42C978.131,785.594 980.702,775.078 987.364,772.938C994.026,770.792 1002.254,777.832 1005.737,788.658Z" fill="#7D97F4"/>
<path d="M1479.705,1203.903C1479.705,1203.903 1481.73,1215.155 1482.533,1228.512C1482.877,1234.202 1478.659,1239.15 1472.982,1239.703C1453.219,1241.62 1408.233,1245.157 1379.506,1241.013C1375.484,1240.432 1373.884,1235.492 1376.86,1232.717C1388.706,1221.682 1417.311,1200.218 1464.39,1195.527L1479.705,1203.903Z" fill="url(#pf_0_470_160)"/>
<path d="M1489.533,1178.538L1479.544,1203.033C1478.173,1206.387 1474.771,1208.473 1471.16,1208.095C1468.71,1207.838 1465.815,1207.373 1463,1206.515C1457.364,1204.801 1454.178,1198.828 1455.866,1193.178L1463.405,1167.948L1489.533,1178.538Z" fill="url(#pf_0_470_161)"/>
<path d="M1660.372,1223.41C1660.372,1223.41 1640.359,1240.149 1632.563,1261.627C1630.417,1267.533 1634.952,1273.756 1641.236,1273.756L1682.416,1273.756C1688.443,1273.756 1693.06,1268.336 1692.014,1262.396C1689.388,1247.574 1681.822,1223.478 1660.372,1223.41Z" fill="url(#pf_0_470_162)"/>
<path d="M1685.158,1201.622C1685.158,1201.622 1681.114,1219.515 1678.01,1231.334C1677.443,1233.48 1675.155,1234.655 1673.069,1233.912C1666.839,1231.685 1661.77,1230.699 1658.078,1231.192C1656.377,1231.421 1654.885,1230.004 1654.865,1228.283L1654.48,1198.571L1685.158,1201.622Z" fill="url(#pf_0_470_163)"/>
<path d="M1578.735,799.066L1457.025,1170.378C1457.025,1170.378 1480.373,1185.666 1491.489,1185.03L1636.053,886.622C1636.053,886.622 1661.351,1070.49 1649.094,1202.492L1690.503,1205.652C1690.503,1205.652 1757.831,868.317 1706.837,752.776L1578.735,799.066Z" fill="url(#pf_0_470_164)"/>
<path d="M1635.28,883.416C1635.327,883.416 1635.381,883.41 1635.429,883.41C1636.077,883.329 1636.536,882.741 1636.448,882.094L1631.723,844.606C1631.642,843.958 1631.062,843.512 1630.407,843.587C1629.759,843.668 1629.3,844.255 1629.388,844.903L1634.112,882.39C1634.187,882.978 1634.693,883.416 1635.28,883.416Z" fill="#7D97F4"/>
<path d="M1555.924,472.334C1555.924,472.334 1654.53,481.089 1640.586,551.353C1640.586,551.353 1695.096,653.934 1720.576,774.766C1721.406,778.702 1718.774,782.534 1714.812,783.21L1550.592,811.328C1546.063,812.106 1541.696,809.278 1540.541,804.828L1501.306,653.185L1486.018,723.692L1437.434,711.036L1478.33,503.862C1478.33,503.862 1484.033,473.63 1555.924,472.334Z" fill="#FF3874"/>
<path d="M1500.469,646.409C1500.557,646.409 1500.645,646.402 1500.732,646.382C1501.394,646.24 1501.812,645.585 1501.67,644.924L1487.982,582.071C1487.841,581.409 1487.193,580.998 1486.524,581.133C1485.863,581.274 1485.444,581.929 1485.586,582.59L1499.275,645.443C1499.403,646.017 1499.909,646.409 1500.469,646.409Z" fill="#CA2556"/>
<path d="M1510.384,833.441C1515.554,830.6 1521.615,829.81 1527.339,831.234L1538.766,834.076C1541.196,834.683 1543.599,833.009 1543.883,830.518L1555.708,725.278C1570.49,732.297 1591.819,731.46 1598.852,730.947L1571.637,855.013L1476.406,855.013L1510.384,833.441Z" fill="url(#pf_0_470_168)"/>
<path d="M1257.359,605.168L1260.235,595.604C1261.888,590.096 1265.958,585.648 1271.297,583.502L1323.358,562.564C1323.358,562.564 1324.141,555.889 1312.356,551.353C1300.571,546.817 1303.325,533.615 1303.325,533.615C1303.325,533.615 1319.429,540.958 1342.999,552.608C1356.478,559.27 1364.045,571.035 1368.054,579.884L1486.017,723.692L1472.167,733.209C1453.957,745.723 1428.909,739.575 1418.562,720.054L1354.656,597.514C1322.568,607.146 1290.102,608.995 1257.359,605.168Z" fill="url(#pf_0_470_169)"/>
<path d="M1523.976,405.25L1554.302,490.134C1554.302,490.134 1527.445,511.132 1507.844,504.032L1492.563,455.373C1492.563,455.373 1504.239,395.902 1523.976,405.25Z" fill="url(#pf_0_470_171)"/>
<path d="M1433.455,374.762C1433.455,376.072 1462.668,457.466 1462.668,457.466L1508.788,439.795L1492.562,358.536C1492.562,358.536 1433.455,352.866 1433.455,374.762Z" fill="url(#pf_0_470_173)"/>
<path d="M1484.477,378.333L1496.37,420.444C1496.525,420.984 1496.6,421.53 1496.6,422.091C1496.606,425.526 1495.756,437.345 1483.715,435.738C1472.794,434.28 1462.804,433.113 1456.446,436.103C1453.591,437.446 1452.227,440.726 1453.294,443.696C1455.953,451.094 1462.244,467.644 1469.905,481.191C1471.457,483.938 1474.872,485.011 1477.748,483.701C1486.408,479.76 1504.45,470.938 1517.294,460.442C1519.036,459.018 1519.872,456.784 1519.454,454.577C1517.436,443.804 1511.408,411.041 1511.145,401.653C1510.895,392.838 1520.784,386.115 1525.137,383.584C1526.561,382.754 1527.581,381.39 1527.965,379.784C1529.329,374.114 1530.49,361.276 1514.115,358.448C1510.686,357.854 1508.452,354.574 1509.147,351.165C1510.531,344.382 1510.092,334.399 1497.207,330.72C1484.113,326.981 1475.871,334.865 1471.687,340.906C1469.992,343.349 1466.82,344.146 1464.107,342.931C1462.561,342.242 1460.691,342.208 1458.687,343.903C1455.98,346.184 1451.87,345.489 1449.878,342.566C1446.058,336.944 1439.126,331.335 1427.382,335.135C1406.546,341.878 1407.538,365.9 1415.179,378.96C1422.819,392.021 1444.992,383.429 1455.494,374.769C1463.479,368.188 1475.628,372.123 1480.994,374.391C1482.709,375.099 1483.971,376.557 1484.477,378.333Z" fill="url(#pf_0_470_174)"/>
<path d="M1515.329,417.015C1515.329,417.015 1502.997,393.688 1511.15,386.358C1519.304,379.035 1533.12,380.229 1532.749,398.474C1532.29,421.173 1515.329,417.015 1515.329,417.015Z" fill="url(#pf_0_470_175)"/>
<path d="M1589.282,732.534C1596.011,732.534 1600.817,732.021 1601.337,731.967L1602.214,731.873L1638.122,564.461C1638.264,563.8 1637.846,563.152 1637.184,563.01C1636.516,562.861 1635.875,563.287 1635.733,563.948L1600.196,729.618C1594.85,730.091 1566.319,731.981 1551.254,721.31L1582.357,575.861L1575.864,563.624C1575.546,563.03 1574.804,562.801 1574.21,563.118C1573.616,563.435 1573.386,564.178 1573.704,564.772L1579.778,576.219L1548.527,722.336L1549.148,722.801C1560.035,730.989 1577.571,732.534 1589.282,732.534Z" fill="#CA2556"/>
<path d="M512.838,1242.945C512.014,1242.945 511.177,1242.763 510.368,1242.385C507.195,1240.893 505.73,1236.877 507.094,1233.415L638.301,900.494C639.664,897.031 643.343,895.432 646.522,896.923C649.694,898.415 651.159,902.431 649.795,905.893L518.589,1238.815C517.569,1241.399 515.261,1242.945 512.838,1242.945Z" fill="#7D97F4"/>
<path d="M660.651,1242.944C658.228,1242.944 655.919,1241.398 654.9,1238.814L523.694,905.893C522.33,902.43 523.795,898.414 526.967,896.923C530.139,895.431 533.818,897.031 535.188,900.493L666.395,1233.414C667.758,1236.876 666.294,1240.892 663.121,1242.384C662.311,1242.768 661.474,1242.944 660.651,1242.944Z" fill="#7D97F4"/>
<path d="M1403.314,1242.944C1402.491,1242.944 1401.654,1242.762 1400.844,1242.384C1397.672,1240.892 1396.207,1236.876 1397.57,1233.414L1528.777,900.493C1530.141,897.031 1533.819,895.431 1536.998,896.923C1540.171,898.414 1541.635,902.43 1540.272,905.893L1409.065,1238.814C1408.046,1241.398 1405.738,1242.944 1403.314,1242.944Z" fill="#7D97F4"/>
<path d="M1551.125,1242.944C1548.702,1242.944 1546.394,1241.398 1545.375,1238.814L1414.168,905.893C1412.805,902.43 1414.269,898.414 1417.442,896.923C1420.614,895.431 1424.293,897.031 1425.663,900.493L1556.869,1233.414C1558.233,1236.876 1556.768,1240.892 1553.596,1242.384C1552.793,1242.768 1551.949,1242.944 1551.125,1242.944Z" fill="#7D97F4"/>
<path d="M1384.273,876.984L1574.31,876.984L1574.31,857.37L1384.273,857.37C1388.343,857.376 1388.343,876.984 1384.273,876.984Z" fill="#BDD0FB"/>
<path d="M1572.056,876.984C1573.298,876.984 1574.31,875.972 1574.31,874.73L1574.31,859.631C1574.31,858.389 1573.298,857.377 1572.056,857.377L1380.737,857.377C1379.495,857.377 1378.482,856.378 1378.482,855.163C1378.482,853.941 1379.495,852.949 1380.737,852.949L1585.19,852.949C1589.726,852.949 1593.398,856.621 1593.398,861.156L1593.398,873.69C1593.398,877.963 1589.936,881.426 1585.662,881.426L1380.737,881.426C1379.495,881.426 1378.482,880.427 1378.482,879.212C1378.482,877.997 1379.495,876.998 1380.737,876.998L1572.056,876.998L1572.056,876.984Z" fill="url(#pf_0_470_184)"/>
<path d="M1601.86,890.207C1602.5,888.02 1601.63,885.752 1599.49,884.031C1597.35,882.31 1594.164,881.317 1590.804,881.317L452.116,881.317C447.695,881.317 443.577,882.809 441.195,885.28C438.812,887.75 438.495,890.855 440.344,893.514L452.683,911.232C455.511,915.288 461.633,917.887 468.369,917.887L1582.98,917.887C1589.244,917.887 1594.638,914.937 1595.826,910.861L1601.86,890.207Z" fill="#7D97F4"/>
<defs>
<linearGradient id="pf_0_470_81" x1="877.751" y1="1151.64" x2="555.861" y2="1495.158" gradientUnits="userSpaceOnUse">
<stop stop-color="#09005D"/>
<stop offset="1" stop-color="#1A0F91"/>
</linearGradient>
<linearGradient id="pf_0_470_82" x1="774.092" y1="1176.393" x2="802.391" y2="1176.662" gradientUnits="userSpaceOnUse">
<stop stop-color="#FEBBBA"/>
<stop offset="1" stop-color="#FF928E"/>
</linearGradient>
<linearGradient id="pf_0_470_83" x1="906.577" y1="759.947" x2="631.972" y2="1124.832" gradientUnits="userSpaceOnUse">
<stop stop-color="#09005D"/>
<stop offset="1" stop-color="#1A0F91"/>
</linearGradient>
<linearGradient id="pf_0_470_84" x1="806.902" y1="1085.241" x2="484.999" y2="1428.773" gradientUnits="userSpaceOnUse">
<stop stop-color="#09005D"/>
<stop offset="1" stop-color="#1A0F91"/>
</linearGradient>
<linearGradient id="pf_0_470_85" x1="672.113" y1="1173.969" x2="696.547" y2="1174.201" gradientUnits="userSpaceOnUse">
<stop stop-color="#FEBBBA"/>
<stop offset="1" stop-color="#FF928E"/>
</linearGradient>
<linearGradient id="pf_0_470_86" x1="858.596" y1="723.838" x2="583.994" y2="1088.719" gradientUnits="userSpaceOnUse">
<stop stop-color="#09005D"/>
<stop offset="1" stop-color="#1A0F91"/>
</linearGradient>
<linearGradient id="pf_0_470_89" x1="902.603" y1="449.055" x2="1003.482" y2="552.642" gradientUnits="userSpaceOnUse">
<stop stop-color="#FEBBBA"/>
<stop offset="1" stop-color="#FF928E"/>
</linearGradient>
<linearGradient id="pf_0_470_91" x1="1020.423" y1="527.432" x2="1110.034" y2="461.806" gradientUnits="userSpaceOnUse">
<stop stop-color="#FEBBBA"/>
<stop offset="1" stop-color="#FF928E"/>
</linearGradient>
<linearGradient id="pf_0_470_92" x1="1073.027" y1="483.944" x2="1145.865" y2="469.521" gradientUnits="userSpaceOnUse">
<stop stop-color="#FEBBBA"/>
<stop offset="1" stop-color="#FF928E"/>
</linearGradient>
<linearGradient id="pf_0_470_94" x1="579.265" y1="640.958" x2="762.234" y2="642.696" gradientUnits="userSpaceOnUse">
<stop stop-color="#FEBBBA"/>
<stop offset="1" stop-color="#FF928E"/>
</linearGradient>
<linearGradient id="pf_0_470_95" x1="721.624" y1="446.692" x2="793.967" y2="447.379" gradientUnits="userSpaceOnUse">
<stop stop-color="#FEBBBA"/>
<stop offset="1" stop-color="#FF928E"/>
</linearGradient>
<linearGradient id="pf_0_470_97" x1="811.609" y1="401.522" x2="732.531" y2="352.254" gradientUnits="userSpaceOnUse">
<stop stop-color="#FEBBBA"/>
<stop offset="1" stop-color="#FF928E"/>
</linearGradient>
<linearGradient id="pf_0_470_98" x1="690.915" y1="300.716" x2="792.898" y2="382.849" gradientUnits="userSpaceOnUse">
<stop stop-color="#09005D"/>
<stop offset="1" stop-color="#1A0F91"/>
</linearGradient>
<linearGradient id="pf_0_470_99" x1="790.545" y1="419.414" x2="719.397" y2="375.087" gradientUnits="userSpaceOnUse">
<stop stop-color="#FEBBBA"/>
<stop offset="1" stop-color="#FF928E"/>
</linearGradient>
<linearGradient id="pf_0_470_102" x1="811.297" y1="524.699" x2="912.259" y2="945.374" gradientUnits="userSpaceOnUse">
<stop stop-color="#09005D"/>
<stop offset="1" stop-color="#1A0F91"/>
</linearGradient>
<linearGradient id="pf_0_470_103" x1="742.114" y1="635.99" x2="799.317" y2="635.99" gradientUnits="userSpaceOnUse">
<stop stop-color="#FEBBBA"/>
<stop offset="1" stop-color="#FF928E"/>
</linearGradient>
<linearGradient id="pf_0_470_114" x1="532.705" y1="1188.691" x2="562.878" y2="1188.691" gradientUnits="userSpaceOnUse">
<stop stop-color="#FEBBBA"/>
<stop offset="1" stop-color="#FF928E"/>
</linearGradient>
<linearGradient id="pf_0_470_118" x1="876.547" y1="760.054" x2="538.041" y2="1010.548" gradientUnits="userSpaceOnUse">
<stop stop-color="#09005D"/>
<stop offset="1" stop-color="#1A0F91"/>
</linearGradient>
<linearGradient id="pf_0_470_119" x1="675.618" y1="1191.231" x2="711.641" y2="1191.231" gradientUnits="userSpaceOnUse">
<stop stop-color="#FEBBBA"/>
<stop offset="1" stop-color="#FF928E"/>
</linearGradient>
<linearGradient id="pf_0_470_120" x1="540.946" y1="1018.805" x2="969.742" y2="723.162" gradientUnits="userSpaceOnUse">
<stop stop-color="#09005D"/>
<stop offset="1" stop-color="#1A0F91"/>
</linearGradient>
<linearGradient id="pf_0_470_121" x1="475.526" y1="683.618" x2="493.286" y2="638.833" gradientUnits="userSpaceOnUse">
<stop stop-color="#FEBBBA"/>
<stop offset="1" stop-color="#FF928E"/>
</linearGradient>
<linearGradient id="pf_0_470_124" x1="627.251" y1="857.789" x2="710.458" y2="857.789" gradientUnits="userSpaceOnUse">
<stop stop-color="#FEBBBA"/>
<stop offset="1" stop-color="#FF928E"/>
</linearGradient>
<linearGradient id="pf_0_470_126" x1="529.749" y1="592.539" x2="450.258" y2="671.826" gradientUnits="userSpaceOnUse">
<stop stop-color="#FEBBBA"/>
<stop offset="1" stop-color="#FF928E"/>
</linearGradient>
<linearGradient id="pf_0_470_127" x1="460.609" y1="547.325" x2="554.236" y2="639.844" gradientUnits="userSpaceOnUse">
<stop stop-color="#09005D"/>
<stop offset="1" stop-color="#1A0F91"/>
</linearGradient>
<linearGradient id="pf_0_470_128" x1="516.896" y1="579.654" x2="437.406" y2="658.939" gradientUnits="userSpaceOnUse">
<stop stop-color="#FEBBBA"/>
<stop offset="1" stop-color="#FF928E"/>
</linearGradient>
<linearGradient id="pf_0_470_131" x1="-17203.794" y1="-18177.062" x2="-16909.657" y2="-17863.714" gradientUnits="userSpaceOnUse">
<stop stop-color="#09005D"/>
<stop offset="1" stop-color="#1A0F91"/>
</linearGradient>
<linearGradient id="pf_0_470_133" x1="25610.104" y1="-7382.577" x2="25201.963" y2="-7247.985" gradientUnits="userSpaceOnUse">
<stop stop-color="#09005D"/>
<stop offset="1" stop-color="#1A0F91"/>
</linearGradient>
<linearGradient id="pf_0_470_140" x1="1062.97" y1="1063.657" x2="1187.644" y2="1063.657" gradientUnits="userSpaceOnUse">
<stop stop-color="#FEBBBA"/>
<stop offset="1" stop-color="#FF928E"/>
</linearGradient>
<linearGradient id="pf_0_470_142" x1="916.584" y1="1072.174" x2="1179.672" y2="1072.174" gradientUnits="userSpaceOnUse">
<stop stop-color="#FEBBBA"/>
<stop offset="1" stop-color="#FF928E"/>
</linearGradient>
<linearGradient id="pf_0_470_143" x1="1078.916" y1="934.93" x2="1373.65" y2="934.93" gradientUnits="userSpaceOnUse">
<stop stop-color="#09005D"/>
<stop offset="1" stop-color="#1A0F91"/>
</linearGradient>
<linearGradient id="pf_0_470_146" x1="1286.526" y1="442.657" x2="1243.127" y2="670.656" gradientUnits="userSpaceOnUse">
<stop stop-color="#09005D"/>
<stop offset="1" stop-color="#1A0F91"/>
</linearGradient>
<linearGradient id="pf_0_470_148" x1="1214.708" y1="727.911" x2="1196.948" y2="613.957" gradientUnits="userSpaceOnUse">
<stop stop-color="#FEBBBA"/>
<stop offset="1" stop-color="#FF928E"/>
</linearGradient>
<linearGradient id="pf_0_470_150" x1="1118.152" y1="607.115" x2="1251.298" y2="562.199" gradientUnits="userSpaceOnUse">
<stop stop-color="#FEBBBA"/>
<stop offset="1" stop-color="#FF928E"/>
</linearGradient>
<linearGradient id="pf_0_470_151" x1="1089.752" y1="488.269" x2="1245.201" y2="660.608" gradientUnits="userSpaceOnUse">
<stop stop-color="#09005D"/>
<stop offset="1" stop-color="#1A0F91"/>
</linearGradient>
<linearGradient id="pf_0_470_152" x1="1114.19" y1="595.365" x2="1247.335" y2="550.449" gradientUnits="userSpaceOnUse">
<stop stop-color="#FEBBBA"/>
<stop offset="1" stop-color="#FF928E"/>
</linearGradient>
<linearGradient id="pf_0_470_153" x1="1287.632" y1="857.297" x2="1534.771" y2="857.297" gradientUnits="userSpaceOnUse">
<stop stop-color="#FEBBBA"/>
<stop offset="1" stop-color="#FF928E"/>
</linearGradient>
<linearGradient id="pf_0_470_155" x1="1292.324" y1="831.847" x2="1139.041" y2="882.12" gradientUnits="userSpaceOnUse">
<stop stop-color="#09005D"/>
<stop offset="1" stop-color="#1A0F91"/>
</linearGradient>
<linearGradient id="pf_0_470_156" x1="1081.76" y1="731.343" x2="971.372" y2="848.017" gradientUnits="userSpaceOnUse">
<stop stop-color="#09005D"/>
<stop offset="1" stop-color="#1A0F91"/>
</linearGradient>
<linearGradient id="pf_0_470_160" x1="1427.283" y1="1407.678" x2="1425.653" y2="1580.459" gradientUnits="userSpaceOnUse">
<stop stop-color="#09005D"/>
<stop offset="1" stop-color="#1A0F91"/>
</linearGradient>
<linearGradient id="pf_0_470_161" x1="1468.932" y1="1214.725" x2="1477.897" y2="1144.634" gradientUnits="userSpaceOnUse">
<stop stop-color="#FEBBBA"/>
<stop offset="1" stop-color="#FF928E"/>
</linearGradient>
<linearGradient id="pf_0_470_162" x1="1660.72" y1="1409.879" x2="1659.09" y2="1582.659" gradientUnits="userSpaceOnUse">
<stop stop-color="#09005D"/>
<stop offset="1" stop-color="#1A0F91"/>
</linearGradient>
<linearGradient id="pf_0_470_163" x1="1664.874" y1="1238.747" x2="1673.611" y2="1170.445" gradientUnits="userSpaceOnUse">
<stop stop-color="#FEBBBA"/>
<stop offset="1" stop-color="#FF928E"/>
</linearGradient>
<linearGradient id="pf_0_470_164" x1="1725.925" y1="979.214" x2="1457.026" y2="979.214" gradientUnits="userSpaceOnUse">
<stop stop-color="#09005D"/>
<stop offset="1" stop-color="#1A0F91"/>
</linearGradient>
<linearGradient id="pf_0_470_168" x1="1679.891" y1="666.052" x2="1480.173" y2="879.31" gradientUnits="userSpaceOnUse">
<stop stop-color="#FEBBBA"/>
<stop offset="1" stop-color="#FF928E"/>
</linearGradient>
<linearGradient id="pf_0_470_169" x1="1486.014" y1="636.666" x2="1257.359" y2="636.666" gradientUnits="userSpaceOnUse">
<stop stop-color="#FEBBBA"/>
<stop offset="1" stop-color="#FF928E"/>
</linearGradient>
<linearGradient id="pf_0_470_171" x1="1568.332" y1="508.421" x2="1488.754" y2="426.777" gradientUnits="userSpaceOnUse">
<stop stop-color="#FEBBBA"/>
<stop offset="1" stop-color="#FF928E"/>
</linearGradient>
<linearGradient id="pf_0_470_173" x1="1452.924" y1="375.336" x2="1552.137" y2="506.587" gradientUnits="userSpaceOnUse">
<stop stop-color="#FEBBBA"/>
<stop offset="1" stop-color="#FF928E"/>
</linearGradient>
<linearGradient id="pf_0_470_174" x1="1528.696" y1="406.997" x2="1410.184" y2="406.997" gradientUnits="userSpaceOnUse">
<stop stop-color="#09005D"/>
<stop offset="1" stop-color="#1A0F91"/>
</linearGradient>
<linearGradient id="pf_0_470_175" x1="1598.232" y1="479.277" x2="1518.655" y2="397.633" gradientUnits="userSpaceOnUse">
<stop stop-color="#FEBBBA"/>
<stop offset="1" stop-color="#FF928E"/>
</linearGradient>
<linearGradient id="pf_0_470_184" x1="-3030.966" y1="-10117.484" x2="-2865.047" y2="-9713.897" gradientUnits="userSpaceOnUse">
<stop stop-color="#4F52FF"/>
<stop offset="1" stop-color="#4042E2"/>
</linearGradient>
</defs>
</svg>
