<svg width="892" height="640" viewBox="0 0 892 640" fill="none" xmlns="http://www.w3.org/2000/svg" xmlns:xlink="http://www.w3.org/1999/xlink">
<path d="M309.422,291.036L138.787,291.036L138.787,544.192L309.422,544.192L309.422,291.036Z" transform="rotate(-141.7 224.105 417.614)" fill="#F6F7FF"/>
<path d="M371.651,378.503C370.707,379.056 369.715,379.519 368.685,379.885L360.001,383.396L327.882,395.961L221.363,436.733L220.478,437.059L219.981,436.267L218.753,434.341L157.371,336.396L138.981,306.574L134.088,298.404C133.483,297.475 132.963,296.492 132.535,295.469C133.269,296.299 133.919,297.199 134.477,298.156L139.742,306.093L158.738,335.588L220.711,433.176C221.114,433.844 221.534,434.496 221.922,435.102L220.54,434.636L327.307,394.517L359.691,382.572L368.529,379.466C369.535,379.044 370.581,378.721 371.651,378.503L371.651,378.503Z" fill="#D9DCFF"/>
<path d="M76.542,456.739C76.216,456.196 101.875,440.353 133.84,421.342C165.805,402.33 191.992,387.373 192.318,387.917C192.644,388.46 166.985,404.303 135.005,423.314C103.024,442.325 76.868,457.205 76.542,456.739Z" fill="#D9DCFF"/>
<path d="M272.51,413.419C273.1,413.217 283.258,441.377 295.187,476.184C307.115,510.991 316.295,539.493 315.689,539.694C315.083,539.896 304.941,511.737 293.012,476.93C281.083,442.122 271.904,413.621 272.51,413.419Z" fill="#D9DCFF"/>
<path d="M853.445,272.46L613.429,272.46L613.429,434.242L853.445,434.242L853.445,272.46Z" transform="rotate(-19.24 733.437 353.351)" fill="#D9DCFF"/>
<path d="M838.218,253.609C837.686,254.498 837.072,255.335 836.384,256.11L830.778,262.991L809.81,288.09C791.807,309.323 767.173,338.383 739.915,370.566L739.34,371.249L738.563,370.814L736.669,369.773L640.96,316.374L612.086,299.973L604.32,295.422C603.383,294.939 602.498,294.361 601.68,293.698C602.669,294.06 603.625,294.507 604.538,295.033L612.537,299.243L641.752,315.023L737.771,367.832L739.666,368.873L738.315,369.121L808.738,287.065L830.218,262.416C832.688,259.667 834.644,257.461 836.136,255.784C836.77,255.005 837.466,254.278 838.218,253.609L838.218,253.609Z" fill="#F6F7FF"/>
<path d="M628.612,453.211C628.1,452.901 642.187,428.018 660.08,397.638C677.973,367.257 692.915,342.872 693.427,343.183C693.94,343.493 679.852,368.36 661.959,398.756C644.067,429.152 629.125,453.507 628.612,453.211Z" fill="#F6F7FF"/>
<path d="M771.756,327.824C772.16,327.389 793.501,346.105 819.237,369.652C844.974,393.198 865.662,412.644 865.243,413.141C864.824,413.638 843.591,394.829 817.762,371.314C791.932,347.798 771.29,328.305 771.756,327.824Z" fill="#F6F7FF"/>
<path d="M719.03,-0.585L602.555,-0.585L602.555,172.224L719.03,172.224L719.03,-0.585Z" transform="rotate(-137.06 660.792 85.82)" fill="#F6F7FF"/>
<path d="M762.468,64.696C761.814,65.06 761.121,65.346 760.402,65.55L754.391,67.724L732.133,75.413L658.341,100.264L657.735,100.466L657.424,99.907L656.648,98.571L617.523,30.059C612.63,21.377 608.654,14.294 605.811,9.215L602.705,3.515C602.31,2.864 601.977,2.178 601.711,1.465C602.192,2.051 602.619,2.68 602.985,3.344C603.823,4.758 604.942,6.606 606.355,8.905L618.501,29.516C628.69,47.113 642.653,71.188 658.061,97.857L658.838,99.208L657.921,98.851L731.838,74.434L754.204,67.15L760.309,65.333C761.01,65.063 761.732,64.85 762.468,64.696L762.468,64.696Z" fill="#D9DCFF"/>
<path d="M559.029,109.862C558.812,109.489 576.751,99.378 599.086,87.294C621.422,75.21 639.687,65.736 639.889,66.108C640.091,66.481 622.183,76.592 599.832,88.63C577.481,100.667 559.231,110.25 559.029,109.862Z" fill="#D9DCFF"/>
<path d="M693.878,85.77C694.297,85.646 700.448,105.107 707.608,129.26C714.769,153.412 720.267,173.029 719.847,173.153C719.428,173.278 713.277,153.832 706.117,129.664C698.957,105.496 693.459,85.894 693.878,85.77Z" fill="#D9DCFF"/>
<path d="M890.234,637.033C890.234,637.25 690.926,637.437 445.132,637.437C199.338,637.437 0,637.25 0,637.033C0,636.815 199.26,636.629 445.132,636.629C691.004,636.629 890.234,636.8 890.234,637.033Z" fill="#263238"/>
<path d="M43.925,213.597L66.135,205.723L56.583,192.971C56.11,190.154 55.881,187.301 55.9,184.444C55.905,182.973 56.157,181.513 56.645,180.126C57.184,178.38 57.963,176.718 58.96,175.187C59.207,174.926 59.365,174.594 59.411,174.238C59.456,173.882 59.388,173.521 59.215,173.206C59.042,172.891 58.774,172.64 58.449,172.488C58.124,172.336 57.759,172.291 57.406,172.36C55.853,172.748 52.933,176.289 51.613,181.539C50.293,186.789 46.689,179.054 45.4,176.274C44.111,173.494 39.42,165.044 38.224,164.78C36.485,164.392 35.755,166.194 37.184,168.943C38.613,171.692 42.294,180.266 40.771,180.918C39.249,181.57 32.555,167.25 32.555,167.25C32.555,167.25 31.623,163.957 29.852,164.656C26.653,165.899 34.931,180.576 35.755,181.943C36.329,182.906 34.714,183.667 34.201,182.611C33.689,181.555 27.818,168.182 24.556,169.424C22.055,170.372 31.25,181.555 30.924,184.956C30.598,188.358 24.82,175.777 22.459,176.771C21.589,177.144 20.906,177.548 25.348,184.32C27.524,187.488 29.862,190.541 32.353,193.468L32.353,193.468L43.956,213.566Z" fill="#FFBE9D"/>
<path d="M243.837,240.749C243.837,240.749 232.871,215.152 225.307,202.711C218.178,191 208.735,189.105 203.702,188.732C201.616,188.091 199.473,187.649 197.303,187.412L156.221,187.086C147.242,187.168 138.567,190.35 131.665,196.095C129.754,197.648 115.542,214.143 96.671,237.627L63.665,201.903L43.986,213.553C43.986,213.553 65.358,287.345 92.136,282.282C108.072,279.315 120.497,268.256 120.497,268.256L141.388,251.42L141.869,254.215C142.289,257.617 143.345,263.115 144.152,266.439C146.669,276.985 148.082,290.871 142.599,300.066C142.599,300.066 135.159,305.766 141.046,312.026L218.473,312.026C218.473,312.026 229.439,304.586 219.421,296.323L213.208,280.62L217.262,261.453L218.815,253.781L225.633,265.461C225.633,265.461 239.115,282.422 253.14,280.34C269.992,277.824 279.762,247.117 264.556,206.516L246.228,212.093L243.837,240.749Z" fill="#FF3874"/>
<g opacity="0.4">
<g opacity="0.4">
<path d="M43.925,213.594L45.866,219.745L67.735,206.403L63.604,201.945L43.925,213.594Z" fill="#000000"/>
</g>
</g>
<g opacity="0.2">
<g opacity="0.2">
<path d="M142.584,300.064C145.838,299.577 148.96,298.437 151.763,296.712C154.565,294.988 156.991,292.715 158.893,290.03C160.885,287.325 162.323,284.253 163.123,280.99C163.922,277.727 164.068,274.339 163.552,271.019C163.468,269.839 163.136,268.691 162.58,267.647C162.023,266.604 161.254,265.689 160.322,264.961C157.883,263.408 154.544,264.216 152.012,262.865C149.931,261.762 148.828,259.494 147.352,257.63C145.877,255.766 143.904,252.877 141.761,253.809C141.761,253.809 144.355,267.478 145.488,273.566C146.622,279.655 147.042,288.399 144.852,294.783C144.29,296.621 143.53,298.391 142.584,300.064L142.584,300.064Z" fill="#000000"/>
</g>
</g>
<path d="M93.503,250.159C93.525,247.971 93.914,245.803 94.652,243.744C95.127,241.621 95.782,239.543 96.609,237.531C96.606,239.72 96.217,241.892 95.46,243.946C94.985,246.069 94.33,248.147 93.503,250.159Z" fill="#263238"/>
<path d="M98.411,246.82C97.235,243.888 96.604,240.767 96.547,237.609C97.257,239.025 97.709,240.555 97.883,242.129C98.323,243.652 98.502,245.238 98.411,246.82L98.411,246.82Z" fill="#263238"/>
<path d="M246.058,156.41L217.945,201.95L240.063,208.116L264.604,170.265L246.058,156.41Z" fill="#455A64"/>
<path d="M244.304,195.207L245.251,201.87L249.181,206.918L249.569,211.05L263.672,206.763L257.972,186.571C258.428,183.852 258.616,181.095 258.531,178.339L254.648,183.48L253.576,175.093L245.64,168.709C245.434,168.558 245.2,168.449 244.952,168.388C244.704,168.327 244.446,168.316 244.193,168.355C243.941,168.394 243.699,168.482 243.48,168.615C243.262,168.748 243.072,168.922 242.922,169.129C242.654,169.502 242.527,169.958 242.564,170.416C242.601,170.874 242.799,171.304 243.123,171.629L249.507,177.252L249.926,184.195L245.267,179.908C244.812,179.482 244.247,179.192 243.636,179.069L237.221,177.78C236.993,177.736 236.757,177.739 236.53,177.791C236.303,177.843 236.089,177.941 235.902,178.08C235.715,178.219 235.559,178.395 235.444,178.597C235.329,178.8 235.257,179.024 235.233,179.256L235.233,179.256C235.194,179.64 235.288,180.026 235.501,180.348C235.713,180.671 236.03,180.91 236.398,181.026L242.238,182.812L248.14,188.777L242.362,186.571L234.519,187.674C234.151,187.733 233.817,187.923 233.578,188.208C233.338,188.493 233.209,188.855 233.214,189.227L233.214,189.227C233.214,189.639 233.378,190.034 233.669,190.325C233.96,190.617 234.355,190.78 234.767,190.78L239.753,190.501L242.689,191.417L235.948,193.203C235.644,193.279 235.377,193.459 235.192,193.711C235.008,193.964 234.918,194.273 234.938,194.586L234.938,194.586C234.946,194.767 234.99,194.946 235.068,195.11C235.147,195.274 235.257,195.421 235.394,195.541C235.53,195.661 235.689,195.753 235.862,195.81C236.034,195.868 236.217,195.89 236.398,195.875L244.304,195.207Z" fill="#FFBE9D"/>
<g opacity="0.4">
<g opacity="0.4">
<path d="M246.152,212.092L245.546,219.547L266.933,213.66L264.479,206.516L246.152,212.092Z" fill="#000000"/>
</g>
</g>
<path d="M217.945,202.01C217.945,202.01 216.05,199.448 216.205,199.013C216.361,198.578 242.951,154.793 242.951,154.793L246.058,156.47L217.945,202.01Z" fill="#263238"/>
<path d="M253.095,167.838C253.215,167.718 253.364,167.631 253.528,167.586C253.692,167.541 253.865,167.539 254.029,167.581C254.194,167.623 254.345,167.707 254.467,167.825C254.59,167.944 254.679,168.091 254.727,168.255C254.775,168.418 254.779,168.591 254.74,168.756C254.7,168.921 254.618,169.074 254.502,169.198C254.386,169.322 254.24,169.414 254.077,169.464C253.915,169.514 253.742,169.521 253.576,169.485C253.424,169.437 253.284,169.354 253.169,169.243C253.054,169.132 252.967,168.996 252.914,168.845C252.861,168.694 252.844,168.533 252.865,168.374C252.886,168.215 252.943,168.064 253.033,167.932Z" fill="#263238"/>
<path d="M235.434,224.05C235.236,224.465 234.962,224.839 234.627,225.153C233.658,226.058 232.46,226.681 231.163,226.955C229.113,227.373 227,227.373 224.95,226.955C222.34,226.335 219.637,226.214 216.982,226.597C213.869,227.505 210.998,229.097 208.58,231.257C205.799,233.385 202.864,236.025 198.919,237.268C196.901,237.841 194.788,238.005 192.706,237.749C190.574,237.422 188.488,236.844 186.493,236.025C182.424,234.472 178.525,232.173 174.238,230.62C170.107,229.009 165.583,228.695 161.269,229.719C157.06,230.589 153.115,232.049 149.185,232.826C142.162,234.339 134.831,233.327 128.481,229.968C124.18,227.75 120.457,224.559 117.608,220.649C116.571,219.237 115.701,217.71 115.015,216.098C115.123,216.098 115.869,217.775 117.873,220.462C120.783,224.219 124.498,227.276 128.745,229.409C135.006,232.636 142.199,233.57 149.076,232.049C152.944,231.21 156.842,229.735 161.16,228.834C165.622,227.764 170.305,228.084 174.58,229.75C178.96,231.303 182.874,233.602 186.866,235.187C188.802,235.983 190.824,236.551 192.892,236.879C194.869,237.12 196.874,236.972 198.794,236.445C202.522,235.295 205.442,232.748 208.238,230.62C210.755,228.431 213.733,226.838 216.951,225.96C219.679,225.588 222.453,225.746 225.121,226.426C227.1,226.875 229.148,226.928 231.148,226.582C232.402,226.368 233.579,225.833 234.565,225.029C234.873,224.719 235.163,224.392 235.434,224.05L235.434,224.05Z" fill="#FAFAFA"/>
<path d="M244.287,253.636C243.8,251.376 243.586,249.066 243.65,246.755C243.435,244.452 243.503,242.131 243.852,239.844C244.339,242.103 244.553,244.414 244.489,246.724C244.703,249.028 244.635,251.349 244.287,253.636Z" fill="#263238"/>
<path d="M195.844,539.228C196.512,541.931 212.354,630.759 212.354,630.759L236.631,628.941L232.189,538.234L195.844,539.228Z" fill="#FFBE9D"/>
<path d="M237.36,630.352L237.283,627.789L211.422,628.333L211.577,636.751L213.13,636.751C220.244,636.984 249.32,637.466 254.026,636.052C259.338,634.514 237.36,630.352 237.36,630.352Z" fill="#01008A"/>
<g opacity="0.3">
<g opacity="0.3">
<path d="M220.912,636.376C220.453,634.33 219.238,632.533 217.511,631.344C215.745,630.107 213.601,629.53 211.453,629.713L211.593,636.407L220.912,636.376Z" fill="#000000"/>
</g>
</g>
<g opacity="0.3">
<g opacity="0.3">
<path d="M248.108,632.742C248.108,632.742 255.874,634.653 254.895,635.849C253.917,637.045 224.561,637.588 211.576,636.765L211.576,636.221L245.871,635.88C245.871,635.88 246.616,632.82 248.108,632.742Z" fill="#000000"/>
</g>
</g>
<path d="M211.205,636.21L211.64,636.21L212.914,636.21L217.573,636.319C221.534,636.319 226.986,636.397 233.028,636.319C239.069,636.241 244.521,636.008 248.482,635.806L253.141,635.542L254.4,635.449L254.85,635.449L254.4,635.449L253.126,635.449L248.466,635.62C244.521,635.76 239.054,635.946 233.028,636.039C227.001,636.133 221.534,636.164 217.573,636.164L211.205,636.164L211.205,636.21Z" fill="#263238"/>
<path d="M245.903,636.239C246.086,635.508 246.362,634.803 246.726,634.142C247.172,633.516 247.694,632.947 248.279,632.449C247.495,632.718 246.84,633.272 246.447,634.002C245.986,634.651 245.791,635.451 245.903,636.239Z" fill="#263238"/>
<path d="M238.23,632.788C238.23,632.788 238.649,632.416 239.022,631.856C239.395,631.297 239.612,630.816 239.535,630.769C239.457,630.723 239.115,631.142 238.758,631.701C238.401,632.26 238.152,632.742 238.23,632.788Z" fill="#263238"/>
<path d="M236.117,631.798C236.117,631.798 236.583,631.596 237.018,631.223C237.453,630.85 237.748,630.493 237.702,630.431C237.655,630.369 237.236,630.633 236.801,631.006C236.366,631.378 236.055,631.751 236.117,631.798Z" fill="#263238"/>
<path d="M234.751,629.562C235.186,629.708 235.647,629.756 236.102,629.702C236.554,629.749 237.009,629.696 237.438,629.547C237.002,629.41 236.542,629.362 236.087,629.407C235.636,629.372 235.182,629.425 234.751,629.562L234.751,629.562Z" fill="#263238"/>
<path d="M234.27,627.977C234.734,628.265 235.277,628.4 235.823,628.365C236.352,628.444 236.893,628.363 237.376,628.132C236.859,628.092 236.34,628.092 235.823,628.132C235.311,628.034 234.791,627.982 234.27,627.977L234.27,627.977Z" fill="#263238"/>
<path d="M239.053,630.695C239.603,630.782 240.164,630.782 240.715,630.695C241.307,630.619 241.889,630.484 242.454,630.291C242.807,630.202 243.146,630.066 243.464,629.887C243.558,629.838 243.641,629.77 243.708,629.687C243.775,629.604 243.824,629.509 243.852,629.406C243.881,629.29 243.87,629.168 243.823,629.058C243.775,628.949 243.693,628.858 243.588,628.8C242.957,628.51 242.247,628.439 241.571,628.6C240.896,628.76 240.293,629.142 239.86,629.685C239.617,629.992 239.443,630.347 239.348,630.726C239.348,630.99 239.348,631.146 239.348,631.146C239.496,630.662 239.739,630.214 240.062,629.825C240.435,629.404 240.92,629.097 241.46,628.94C242.106,628.721 242.811,628.754 243.433,629.033C243.697,629.204 243.604,629.499 243.324,629.654C243.028,629.816 242.715,629.946 242.392,630.043C241.84,630.235 241.274,630.386 240.699,630.493C239.69,630.695 239.053,630.695 239.053,630.695Z" fill="#263238"/>
<path d="M239.488,630.693C239.667,630.366 239.722,629.986 239.644,629.622C239.585,629.216 239.425,628.831 239.178,628.503C239.026,628.271 238.819,628.079 238.575,627.946C238.331,627.814 238.058,627.743 237.78,627.742C237.7,627.755 237.623,627.784 237.554,627.828C237.486,627.871 237.426,627.927 237.38,627.994C237.334,628.061 237.301,628.136 237.284,628.216C237.268,628.295 237.267,628.377 237.283,628.457C237.324,628.705 237.426,628.94 237.578,629.14C237.807,629.478 238.079,629.786 238.386,630.056C238.652,630.334 238.983,630.542 239.349,630.662C239.349,630.662 239.007,630.398 238.541,629.917C238.269,629.639 238.03,629.331 237.826,629C237.593,628.69 237.423,628.099 237.826,628.022C238.045,628.044 238.256,628.112 238.446,628.222C238.636,628.332 238.801,628.481 238.929,628.659C239.167,628.947 239.332,629.288 239.411,629.653C239.472,629.996 239.498,630.345 239.488,630.693L239.488,630.693Z" fill="#263238"/>
<path d="M211.577,629.654C211.577,629.654 212.323,629.576 213.488,629.654C214.991,629.804 216.43,630.339 217.666,631.207C218.853,632.053 219.779,633.215 220.337,634.562C220.757,635.587 220.803,636.271 220.865,636.271C220.899,636.112 220.899,635.948 220.865,635.789C220.811,635.351 220.712,634.919 220.57,634.5C220.047,633.078 219.104,631.849 217.868,630.974C216.591,630.061 215.085,629.523 213.519,629.421C213.049,629.375 212.575,629.375 212.105,629.421C211.748,629.576 211.577,629.623 211.577,629.654Z" fill="#263238"/>
<path d="M224.096,633.986C225.337,634.238 226.605,634.332 227.87,634.266C229.132,634.302 230.394,634.188 231.629,633.924C231.629,633.831 229.936,633.924 227.854,633.924C225.773,633.924 224.111,633.909 224.096,633.986Z" fill="#263238"/>
<path d="M219.048,634.081C219.048,634.081 219.188,634.407 219.374,634.764C219.56,635.121 219.654,635.432 219.747,635.432C219.84,635.432 219.871,635.044 219.654,634.64C219.436,634.236 219.11,634.019 219.048,634.081Z" fill="#263238"/>
<path d="M217.106,631.903C217.106,631.903 217.215,632.214 217.479,632.463C217.743,632.711 218.023,632.866 218.085,632.804C218.147,632.742 217.976,632.494 217.697,632.245C217.417,631.997 217.153,631.857 217.106,631.903Z" fill="#263238"/>
<path d="M214.357,630.958C214.357,631.036 214.714,631.036 215.103,631.144C215.491,631.253 215.755,631.44 215.817,631.393C215.879,631.346 215.662,631.005 215.196,630.865C214.73,630.725 214.326,630.88 214.357,630.958Z" fill="#263238"/>
<path d="M212.4,630.524C212.4,630.524 212.525,630.71 212.742,630.788C212.96,630.865 213.161,630.865 213.193,630.788C213.224,630.71 213.068,630.586 212.851,630.508C212.633,630.43 212.431,630.446 212.4,630.524Z" fill="#263238"/>
<path d="M134.087,531.816C133.963,534.597 123.883,621.095 123.883,621.095L147.631,626.36L169.547,538.231L134.087,531.816Z" fill="#FFBE9D"/>
<path d="M148.703,628.658L149.247,626.173L123.992,620.535L122.144,628.752L123.697,629.187C130.546,631.112 158.675,638.506 163.599,638.242C169.066,637.947 148.703,628.658 148.703,628.658Z" fill="#01008A"/>
<g opacity="0.3">
<g opacity="0.3">
<path d="M131.371,630.698C131.419,628.601 130.67,626.563 129.274,624.997C127.854,623.373 125.907,622.301 123.775,621.969L122.315,628.508L131.371,630.698Z" fill="#000000"/>
</g>
</g>
<g opacity="0.3">
<g opacity="0.3">
<path d="M158.581,633.55C158.581,633.55 165.617,637.247 164.436,638.21C163.256,639.173 134.568,632.665 122.143,628.782L122.298,628.27L155.692,636.036C155.692,636.036 157.105,633.271 158.581,633.55Z" fill="#000000"/>
</g>
</g>
<path d="M121.911,628.129L122.33,628.269L123.558,628.626L128.077,629.837C131.914,630.831 137.21,632.152 143.097,633.487C148.984,634.823 154.342,635.926 158.225,636.672L162.885,637.526L164.143,637.728L164.593,637.728L164.158,637.619L162.916,637.355L158.256,636.407C154.373,635.6 149.03,634.481 143.143,633.146C137.257,631.81 131.96,630.521 128.108,629.573L123.604,628.517L122.362,628.222C122.217,628.169 122.065,628.137 121.911,628.129Z" fill="#263238"/>
<path d="M155.6,636.427C155.958,635.76 156.396,635.139 156.904,634.578C157.496,634.083 158.142,633.655 158.83,633.305C158.011,633.396 157.251,633.776 156.687,634.376C156.073,634.894 155.684,635.628 155.6,636.427L155.6,636.427Z" fill="#263238"/>
<path d="M148.968,631.253C148.968,631.253 149.481,630.989 149.962,630.523C150.444,630.057 150.785,629.653 150.723,629.606C150.661,629.56 150.226,629.87 149.745,630.321C149.263,630.771 148.906,631.19 148.968,631.253Z" fill="#263238"/>
<path d="M147.15,629.794C147.511,629.761 147.858,629.638 148.16,629.437C148.672,629.173 149.061,628.893 149.014,628.831C148.967,628.769 148.517,628.909 148.005,629.173C147.492,629.437 147.119,629.716 147.15,629.794Z" fill="#263238"/>
<path d="M146.359,627.292C144.733,627.262 143.158,627.857 141.958,628.953C140.758,630.05 140.023,631.565 139.906,633.186C139.789,634.808 140.298,636.412 141.329,637.67C142.359,638.927 143.832,639.742 145.445,639.946C147.058,640.15 148.688,639.728 149.999,638.766C151.31,637.805 152.203,636.377 152.493,634.778C152.783,633.178 152.449,631.528 151.559,630.167C150.669,628.806 149.292,627.839 147.71,627.463C147.276,627.313 146.816,627.255 146.359,627.292L146.359,627.292Z" fill="#263238"/>
<path d="M146.266,625.633C146.639,626.006 147.115,626.26 147.632,626.363C148.126,626.559 148.664,626.612 149.186,626.518C148.714,626.327 148.225,626.181 147.726,626.083C147.25,625.898 146.763,625.748 146.266,625.633L146.266,625.633Z" fill="#263238"/>
<path d="M150.272,629.404C150.769,629.598 151.293,629.713 151.826,629.746C152.425,629.802 153.028,629.802 153.627,629.746C153.984,629.73 154.338,629.678 154.684,629.59C154.895,629.535 155.078,629.402 155.196,629.218C155.244,629.108 155.26,628.986 155.241,628.868C155.221,628.749 155.168,628.639 155.087,628.55C154.54,628.12 153.865,627.887 153.169,627.887C152.474,627.887 151.798,628.12 151.251,628.55C150.934,628.784 150.674,629.087 150.49,629.435C150.366,629.668 150.35,629.823 150.366,629.823C150.629,629.395 150.972,629.02 151.375,628.721C151.833,628.401 152.371,628.218 152.928,628.192C153.608,628.131 154.286,628.331 154.823,628.752C155.041,628.985 154.823,629.233 154.559,629.326C154.239,629.415 153.912,629.472 153.581,629.497C152.996,629.535 152.41,629.535 151.826,629.497C150.894,629.482 150.288,629.357 150.272,629.404Z" fill="#263238"/>
<path d="M150.676,629.559C150.676,629.559 151.018,629.264 151.095,628.565C151.128,628.156 151.059,627.745 150.894,627.369C150.8,627.108 150.643,626.873 150.437,626.686C150.232,626.499 149.983,626.366 149.713,626.298C149.632,626.294 149.551,626.306 149.475,626.333C149.399,626.361 149.329,626.403 149.27,626.458C149.211,626.513 149.163,626.58 149.13,626.653C149.096,626.727 149.078,626.807 149.076,626.888C149.058,627.138 149.101,627.388 149.201,627.618C149.34,627.998 149.528,628.358 149.76,628.69C149.957,629.021 150.228,629.303 150.552,629.513C150.552,629.513 150.288,629.171 149.946,628.596C149.753,628.26 149.591,627.907 149.465,627.54C149.309,627.167 149.294,626.562 149.713,626.593C150.132,626.624 150.459,627.105 150.63,627.463C150.792,627.802 150.877,628.173 150.878,628.55C150.848,628.893 150.78,629.231 150.676,629.559Z" fill="#263238"/>
<path d="M123.837,621.857C123.837,621.857 124.567,621.95 125.685,622.339C127.11,622.822 128.383,623.668 129.382,624.793C130.335,625.905 130.959,627.26 131.184,628.707C131.247,629.295 131.278,629.886 131.277,630.477C131.277,630.477 131.354,630.307 131.385,630.012C131.434,629.568 131.434,629.12 131.385,628.676C131.215,627.178 130.598,625.765 129.615,624.622C128.575,623.451 127.231,622.591 125.732,622.137C125.276,621.998 124.808,621.905 124.334,621.857C124.169,621.829 124.001,621.829 123.837,621.857L123.837,621.857Z" fill="#263238"/>
<path d="M134.957,629.047C136.098,629.588 137.304,629.98 138.545,630.212C139.765,630.55 141.022,630.737 142.288,630.771C142.288,630.694 140.626,630.414 138.623,629.933C136.619,629.451 134.988,628.97 134.957,629.047Z" fill="#263238"/>
<path d="M130.034,627.93C130.034,627.93 130.034,628.288 130.19,628.676C130.345,629.064 130.298,629.39 130.391,629.406C130.485,629.421 130.609,629.064 130.5,628.629C130.391,628.194 130.096,627.884 130.034,627.93Z" fill="#263238"/>
<path d="M128.651,625.365C128.651,625.365 128.651,625.691 128.9,625.987C129.148,626.282 129.335,626.499 129.397,626.468C129.459,626.437 129.397,626.142 129.164,625.847C128.931,625.552 128.729,625.319 128.651,625.365Z" fill="#263238"/>
<path d="M126.213,623.783C126.213,623.877 126.555,623.939 126.896,624.141C127.238,624.343 127.471,624.591 127.549,624.56C127.626,624.529 127.549,624.141 127.052,623.892C126.555,623.644 126.213,623.706 126.213,623.783Z" fill="#263238"/>
<path d="M124.427,622.928C124.427,622.928 124.504,623.145 124.691,623.269C124.877,623.394 125.079,623.44 125.126,623.363C125.172,623.285 125.126,623.145 124.862,623.021C124.598,622.897 124.473,622.834 124.427,622.928Z" fill="#263238"/>
<path d="M223.242,146.592C222.605,144.744 221.036,143.361 220.275,141.56C219.141,138.857 219.98,135.797 220.275,132.893C220.57,129.988 219.965,126.447 217.309,125.251C216.146,124.948 215.005,124.569 213.892,124.117C211.81,122.812 211.919,119.861 211.733,117.423C211.607,115.81 211.197,114.233 210.521,112.763L210.956,112.624C212.53,112.243 214.188,112.427 215.639,113.146C217.09,113.864 218.242,115.071 218.893,116.553C219.18,117.174 219.305,117.857 219.256,118.538C219.207,119.22 218.986,119.879 218.613,120.452C218.293,120.929 217.822,121.285 217.276,121.462C216.73,121.64 216.139,121.628 215.6,121.43C215.182,121.212 214.848,120.863 214.649,120.437C214.449,120.01 214.396,119.529 214.497,119.069C214.628,118.737 214.869,118.459 215.18,118.284C215.492,118.109 215.854,118.046 216.206,118.106C216.441,118.126 216.67,118.196 216.876,118.311C217.082,118.426 217.261,118.584 217.402,118.774C217.588,119.054 217.604,119.256 217.635,119.24C217.666,119.225 217.635,119.038 217.635,118.697C217.503,118.447 217.316,118.231 217.087,118.067C216.857,117.903 216.593,117.794 216.315,117.749C215.915,117.675 215.502,117.707 215.119,117.842C214.879,117.932 214.661,118.073 214.481,118.255C214.302,118.438 214.164,118.657 214.078,118.898C213.898,119.485 213.929,120.116 214.164,120.683C214.399,121.25 214.825,121.718 215.367,122.005C216.045,122.302 216.805,122.356 217.518,122.158C218.231,121.96 218.854,121.522 219.281,120.918C219.753,120.247 220.044,119.465 220.126,118.649C220.207,117.833 220.077,117.009 219.747,116.258C219.095,114.685 217.939,113.373 216.46,112.53C214.981,111.686 213.263,111.358 211.577,111.598C211.943,110.982 212.175,110.296 212.257,109.584C212.34,108.872 212.273,108.151 212.059,107.467C211.773,106.634 211.302,105.876 210.68,105.252C210.059,104.627 209.303,104.153 208.471,103.863C207.013,103.327 205.428,103.241 203.92,103.615C202.644,103.925 201.431,104.45 200.332,105.168C199.323,105.821 198.546,106.535 197.8,107.016C197.183,107.462 196.461,107.74 195.704,107.824C195.052,107.884 194.398,107.749 193.824,107.436C193.824,107.436 194.306,108.181 195.719,108.181C196.553,108.158 197.365,107.906 198.064,107.451C198.888,106.985 199.711,106.286 200.674,105.712C201.753,104.964 202.99,104.476 204.288,104.284C205.587,104.093 206.912,104.204 208.16,104.609C208.88,104.856 209.534,105.265 210.073,105.803C210.611,106.341 211.019,106.995 211.267,107.715C211.497,108.437 211.518,109.21 211.329,109.943C211.139,110.677 210.746,111.342 210.195,111.862C209.408,110.432 208.249,109.24 206.84,108.414C203.734,106.659 199.074,107.514 197.521,110.713L172.033,101.953C170.435,100.61 168.524,99.691 166.477,99.281C164.431,98.871 162.314,98.983 160.322,99.608L159.794,99.514C158.322,99.376 156.839,99.623 155.491,100.229C153.799,101.178 152.324,102.469 151.158,104.019C150.459,104.823 149.636,105.51 148.719,106.053C148.557,106.125 148.391,106.187 148.222,106.24C147.093,106.367 145.956,106.409 144.821,106.364C142.677,105.867 140.456,104.64 137.816,104.376C136.34,104.176 134.838,104.282 133.405,104.687C131.882,105.135 130.515,106.002 129.459,107.187C128.35,108.43 127.741,110.041 127.751,111.707C127.771,112.903 127.96,114.09 128.31,115.233C127.737,116.771 127.484,118.409 127.565,120.048C127.673,122.207 128.295,124.474 128.326,126.587C127.701,127.074 126.99,127.438 126.229,127.658C124.893,128.078 123.449,128.28 122.082,128.808C120.802,129.329 119.649,130.119 118.701,131.123C117.752,132.128 117.03,133.325 116.583,134.632C116.156,135.677 115.995,136.811 116.114,137.934C116.234,139.056 116.63,140.131 117.267,141.063C116.941,142.48 116.933,143.952 117.245,145.373C117.556,146.794 118.179,148.128 119.069,149.279C120.483,150.623 121.815,152.049 123.06,153.55C124.738,156.144 124.489,159.484 124.924,162.543C125.359,165.603 127.114,169.082 130.205,169.284C132.69,169.44 134.865,167.358 137.412,167.56C140.891,167.84 142.32,172.018 144.339,174.876C145.643,176.671 147.404,178.085 149.439,178.97C151.473,179.855 153.708,180.179 155.911,179.908C159.017,179.489 162.217,177.811 165.307,178.588C169.206,179.582 171.52,184.148 175.543,184.723C178.494,185.143 181.243,183.17 183.449,181.151C185.654,179.132 187.875,176.802 190.827,176.274C194.368,175.637 197.785,177.827 201.357,178.262C203.676,178.54 206.025,178.13 208.113,177.083C210.201,176.036 211.935,174.399 213.099,172.375C215.057,168.818 215.041,164.454 216.889,160.835C218.303,158.53 219.86,156.315 221.549,154.203C223.009,152.013 224.143,149.201 223.242,146.592ZM121.041,135.129C120.754,135.068 120.458,135.068 120.171,135.129C120.171,135.129 120.435,135.129 120.87,135.3L120.389,135.657C118.934,136.869 117.884,138.494 117.376,140.317C116.991,139.491 116.778,138.596 116.752,137.685C116.725,136.774 116.884,135.868 117.22,135.021C117.647,133.83 118.322,132.743 119.2,131.833C120.078,130.922 121.14,130.209 122.315,129.74C123.557,129.274 124.971,129.072 126.415,128.637C127.041,128.461 127.637,128.194 128.186,127.845C128.12,128.691 127.871,129.512 127.456,130.252C126.12,132.567 123.293,133.545 121.041,135.129L121.041,135.129ZM138.437,106.551C136.372,106.941 134.428,107.81 132.761,109.089C131.094,110.367 129.75,112.02 128.838,113.913C128.68,113.214 128.597,112.501 128.59,111.785C128.582,110.334 129.107,108.93 130.065,107.84C131.025,106.828 132.217,106.066 133.538,105.62C134.859,105.173 136.268,105.056 137.645,105.277C139.076,105.465 140.478,105.825 141.823,106.349C140.691,106.33 139.559,106.398 138.437,106.551L138.437,106.551ZM151.22,105.479C150.909,105.619 150.583,105.712 150.272,105.821C150.725,105.409 151.156,104.974 151.562,104.516C152.661,103.011 154.043,101.734 155.631,100.757C156.803,100.181 158.1,99.904 159.405,99.949C158.731,100.196 158.086,100.513 157.479,100.897C155.305,102.295 153.581,104.392 151.22,105.479Z" fill="#263238"/>
<path d="M206.468,158.829C207.679,151.187 207.306,138.637 206.654,128.371C206.517,126.182 205.939,124.045 204.955,122.086C203.97,120.127 202.599,118.388 200.924,116.973C199.25,115.558 197.306,114.497 195.21,113.853C193.115,113.209 190.91,112.996 188.73,113.227L162.03,116.054C160.684,116.194 159.439,116.836 158.544,117.852C157.649,118.867 157.169,120.183 157.2,121.536L159.949,187.128L153.736,187.128L153.736,199.01C153.736,205.535 156.328,211.793 160.942,216.407C165.556,221.021 171.814,223.613 178.339,223.613C184.864,223.613 191.122,221.021 195.736,216.407C200.35,211.793 202.942,205.535 202.942,199.01L202.942,188.728C202.942,188.728 196.543,186.631 192.66,186.849L191.712,186.849C191.712,180.838 192.209,176.132 192.209,176.132C192.209,176.132 204.029,174.221 206.468,158.829Z" fill="#FFBE9D"/>
<path d="M202.662,138.327C202.662,138.841 202.464,139.335 202.107,139.706C201.751,140.076 201.265,140.295 200.751,140.315C200.5,140.336 200.246,140.306 200.006,140.227C199.766,140.148 199.544,140.021 199.354,139.854C199.164,139.688 199.01,139.484 198.9,139.256C198.791,139.029 198.728,138.781 198.717,138.529C198.716,138.015 198.915,137.52 199.271,137.15C199.628,136.779 200.114,136.561 200.627,136.541C200.879,136.522 201.131,136.553 201.371,136.633C201.61,136.713 201.83,136.84 202.02,137.006C202.209,137.172 202.364,137.375 202.474,137.602C202.584,137.828 202.648,138.075 202.662,138.327Z" fill="#263238"/>
<path d="M203.935,134.91C203.686,135.158 202.195,134.055 200.068,134.055C197.94,134.055 196.386,135.127 196.153,134.863C195.92,134.599 196.293,134.288 196.977,133.791C197.892,133.165 198.974,132.83 200.083,132.828C201.198,132.82 202.286,133.169 203.189,133.822C203.826,134.319 204.059,134.785 203.935,134.91Z" fill="#263238"/>
<path d="M181.896,138.327C181.9,138.839 181.705,139.334 181.351,139.705C180.997,140.076 180.513,140.295 180.001,140.315C179.749,140.336 179.495,140.306 179.255,140.227C179.015,140.148 178.794,140.021 178.604,139.854C178.414,139.688 178.259,139.484 178.15,139.256C178.04,139.029 177.978,138.781 177.966,138.529C177.958,138.015 178.152,137.518 178.506,137.146C178.861,136.774 179.347,136.557 179.861,136.541C180.112,136.522 180.365,136.553 180.604,136.633C180.843,136.713 181.064,136.84 181.254,137.006C181.443,137.172 181.598,137.375 181.708,137.602C181.818,137.828 181.882,138.075 181.896,138.327L181.896,138.327Z" fill="#263238"/>
<path d="M183.061,135.297C182.812,135.561 181.321,134.458 179.193,134.458C177.066,134.458 175.512,135.53 175.279,135.266C175.046,135.002 175.419,134.691 176.103,134.194C177.011,133.554 178.098,133.217 179.209,133.231C180.325,133.215 181.416,133.564 182.315,134.225C182.952,134.722 183.185,135.219 183.061,135.297Z" fill="#263238"/>
<path d="M190.764,151.051C191.883,150.701 193.041,150.492 194.212,150.429C194.756,150.429 195.268,150.274 195.361,149.901C195.395,149.36 195.271,148.821 195.004,148.348C194.492,147.043 193.964,145.661 193.451,144.217C191.23,138.346 189.615,133.515 189.863,133.422C191.618,136.796 193.109,140.301 194.321,143.906C194.849,145.366 195.361,146.733 195.874,148.069C196.217,148.722 196.316,149.476 196.154,150.196C196.073,150.388 195.95,150.558 195.794,150.695C195.638,150.832 195.453,150.933 195.253,150.989C194.954,151.071 194.646,151.112 194.336,151.113C193.148,151.245 191.947,151.224 190.764,151.051L190.764,151.051Z" fill="#263238"/>
<path d="M192.24,176.182C184.993,176.293 177.858,174.389 171.629,170.684C171.629,170.684 176.63,181.261 192.023,179.816L192.24,176.182Z" fill="#EB996E"/>
<path d="M189.863,156.175C189.459,155.666 188.932,155.267 188.332,155.017C187.731,154.767 187.077,154.674 186.431,154.746C185.962,154.791 185.508,154.929 185.094,155.153C184.68,155.377 184.316,155.683 184.023,156.051C183.738,156.404 183.568,156.837 183.537,157.29C183.507,157.743 183.617,158.195 183.852,158.583C184.197,158.958 184.644,159.224 185.138,159.348C185.632,159.473 186.152,159.449 186.633,159.282C187.63,158.943 188.553,158.416 189.351,157.729C189.591,157.556 189.796,157.34 189.956,157.092C190.037,156.975 190.08,156.837 190.08,156.696C190.08,156.554 190.037,156.416 189.956,156.3Z" fill="#EB996E"/>
<path d="M184.52,152.528C184.862,152.528 184.862,154.811 186.834,156.442C188.807,158.073 191.261,157.824 191.277,158.15C191.292,158.476 190.733,158.601 189.723,158.632C188.375,158.649 187.065,158.186 186.027,157.327C185.019,156.514 184.371,155.337 184.225,154.05C184.178,153.087 184.365,152.512 184.52,152.528Z" fill="#263238"/>
<path d="M184.008,131.588C183.806,132.163 181.678,131.883 179.193,132.194C176.708,132.505 174.689,133.172 174.363,132.644C174.207,132.411 174.565,131.868 175.372,131.309C176.448,130.604 177.68,130.172 178.96,130.051C180.235,129.898 181.528,130.046 182.734,130.485C183.651,130.858 184.179,131.309 184.008,131.588Z" fill="#263238"/>
<path d="M203.159,130.561C202.786,131.043 201.311,130.561 199.556,130.561C197.801,130.561 196.309,130.887 195.968,130.375C195.812,130.126 195.968,129.645 196.698,129.194C197.568,128.639 198.586,128.362 199.618,128.402C200.652,128.418 201.656,128.755 202.491,129.365C203.112,129.831 203.314,130.328 203.159,130.561Z" fill="#263238"/>
<path d="M212.385,114.642C211.329,110.542 208.223,106.752 204.06,105.976C201.342,105.478 198.562,106.271 195.813,106.1C193.53,105.96 192.706,104.143 190.547,103.428C186.944,102.248 184.179,98.241 176.398,99.079C174.316,99.312 171.645,101.72 169.734,104.453C166.752,103.164 162.823,104.547 160.679,105.494C156.222,107.436 153.441,112.452 152.556,117.547C151.671,122.641 152.401,127.876 153.115,133.001C153.441,135.331 153.767,137.661 154.109,140.022C154.236,141.576 154.652,143.093 155.336,144.495L151.795,177.423C153.568,177.99 155.437,178.19 157.29,178.01C159.142,177.83 160.938,177.275 162.569,176.379C164.2,175.482 165.631,174.262 166.775,172.794C167.918,171.326 168.751,169.64 169.222,167.84C170.589,161.363 166.985,154.777 167.56,148.176C167.902,144.246 170.123,140.596 170.107,136.651C170.082,135.354 169.894,134.065 169.548,132.815L169.548,132.815C175.761,127.736 177.407,123.651 177.143,118.836C179.061,120.177 181.328,120.927 183.667,120.995C186.96,120.995 190.392,119.752 193.467,120.995C195.584,122.078 197.452,123.591 198.95,125.437C200.643,127.115 202.833,128.652 205.163,128.326C206.277,128.063 207.36,127.683 208.394,127.192C208.913,126.946 209.481,126.819 210.056,126.819C210.63,126.819 211.198,126.946 211.718,127.192C212.975,123.129 213.205,118.816 212.385,114.642L212.385,114.642Z" fill="#263238"/>
<path d="M120.373,148.36C121.966,149.515 123.679,150.494 125.483,151.28C127.599,152.171 129.866,152.651 132.162,152.693C135.205,152.775 138.194,151.876 140.689,150.131C142.185,149.098 143.447,147.762 144.395,146.21C145.342,144.658 145.952,142.925 146.187,141.122C146.429,139.121 146.02,137.095 145.022,135.344C144.506,134.447 143.774,133.693 142.893,133.15C142.011,132.608 141.008,132.294 139.974,132.238C138.919,132.21 137.887,132.551 137.054,133.201C136.21,133.906 135.585,134.839 135.253,135.888C134.886,136.969 134.802,138.126 135.009,139.249C135.215,140.371 135.706,141.423 136.433,142.302C138.015,144.141 140.152,145.417 142.522,145.937C144.969,146.514 147.512,146.557 149.977,146.061C152.451,145.569 154.775,144.505 156.765,142.955C158.69,141.464 160.151,139.454 160.974,137.161C161.782,134.956 161.975,132.572 161.533,130.265C161.322,129.174 160.933,128.125 160.383,127.159C159.881,126.191 159.164,125.352 158.287,124.705C157.474,124.06 156.48,123.686 155.444,123.633C154.964,123.617 154.488,123.733 154.069,123.968C153.65,124.204 153.304,124.55 153.068,124.969C152.616,125.823 152.51,126.819 152.773,127.749C153.072,128.673 153.607,129.503 154.326,130.156C156.882,132.319 160.155,133.447 163.501,133.317C166.847,133.188 170.024,131.811 172.405,129.457C174.004,127.809 175.172,125.793 175.807,123.586C176.33,121.697 176.494,119.727 176.288,117.777C176.432,118.284 176.515,118.805 176.537,119.331C176.647,120.808 176.511,122.294 176.133,123.726C175.517,126.006 174.355,128.101 172.747,129.83C170.558,132.116 167.631,133.552 164.484,133.884C162.586,134.129 160.658,133.973 158.825,133.424C156.992,132.876 155.295,131.947 153.845,130.7C153.04,129.965 152.449,129.026 152.136,127.982C151.82,126.864 151.948,125.668 152.493,124.643C152.793,124.11 153.232,123.668 153.762,123.365C154.293,123.061 154.895,122.907 155.506,122.918C156.708,122.968 157.865,123.392 158.815,124.13C159.78,124.838 160.572,125.757 161.129,126.817C161.728,127.876 162.153,129.025 162.387,130.219C162.87,132.669 162.672,135.205 161.812,137.55C160.943,140 159.397,142.154 157.355,143.762C155.256,145.379 152.81,146.485 150.21,146.993C147.641,147.505 144.993,147.458 142.444,146.853C139.9,146.287 137.606,144.914 135.905,142.939C135.103,141.935 134.568,140.743 134.352,139.476C134.16,138.227 134.261,136.951 134.647,135.748C135.023,134.535 135.74,133.457 136.713,132.642C137.699,131.883 138.917,131.488 140.161,131.523C141.326,131.586 142.456,131.943 143.446,132.563C144.435,133.182 145.25,134.043 145.814,135.064C146.871,136.953 147.301,139.129 147.041,141.277C146.783,143.17 146.127,144.987 145.118,146.609C144.109,148.23 142.769,149.621 141.186,150.69C138.592,152.481 135.483,153.376 132.333,153.237C129.985,153.17 127.674,152.643 125.53,151.684C124.171,151.101 122.888,150.355 121.709,149.463C121.305,149.168 121.025,148.904 120.823,148.748L120.373,148.36Z" fill="#455A64"/>
<path d="M213.285,121.601C213.065,121.81 212.813,121.983 212.54,122.114C211.778,122.539 210.956,122.842 210.101,123.015C208.738,123.292 207.333,123.292 205.97,123.015C204.167,122.589 202.497,121.724 201.108,120.498C199.435,119.009 198.127,117.154 197.287,115.078C197.008,114.48 196.853,113.832 196.832,113.172C196.811,112.513 196.923,111.856 197.163,111.241C197.46,110.578 197.968,110.032 198.608,109.688C198.953,109.508 199.336,109.415 199.726,109.415C200.115,109.415 200.499,109.508 200.844,109.688C201.509,110.075 202.025,110.675 202.307,111.391C202.588,112.107 202.62,112.897 202.397,113.633C202.127,114.355 201.712,115.014 201.178,115.57C200.644,116.125 200.002,116.566 199.291,116.864C196.43,118.099 193.196,118.149 190.298,117.004C188.85,116.481 187.46,115.81 186.151,115C184.843,114.243 183.655,113.295 182.625,112.189C182.073,111.603 181.738,110.848 181.673,110.046C181.608,109.244 181.818,108.444 182.268,107.778C182.533,107.455 182.882,107.21 183.276,107.071C183.67,106.931 184.095,106.902 184.505,106.986C185.256,107.152 185.926,107.575 186.399,108.182C186.872,108.778 187.089,109.537 187.005,110.294C186.908,111.002 186.605,111.666 186.135,112.204C185.272,113.201 184.049,113.816 182.734,113.913C181.551,113.998 180.362,113.844 179.239,113.462C178.227,113.141 177.237,112.757 176.273,112.313C174.564,111.6 173.071,110.454 171.939,108.989C171.113,107.835 170.718,106.428 170.821,105.013C170.875,104.129 171.188,103.281 171.722,102.575C171.908,102.33 172.14,102.124 172.405,101.969C171.622,102.817 171.175,103.921 171.147,105.075C171.107,106.394 171.517,107.687 172.312,108.741C173.421,110.125 174.872,111.196 176.521,111.847C178.447,112.82 180.576,113.321 182.734,113.307C183.299,113.254 183.848,113.089 184.349,112.822C184.85,112.556 185.294,112.193 185.654,111.754C186.055,111.347 186.297,110.811 186.337,110.241C186.377,109.671 186.212,109.106 185.871,108.648C185.172,107.731 183.681,107.327 182.982,108.275C182.804,108.512 182.675,108.783 182.603,109.071C182.531,109.359 182.517,109.659 182.563,109.952C182.654,110.584 182.923,111.177 183.34,111.661C184.317,112.685 185.436,113.564 186.663,114.27C187.921,115.049 189.26,115.69 190.655,116.181C191.979,116.732 193.399,117.015 194.833,117.015C196.267,117.015 197.687,116.732 199.011,116.181C199.611,115.929 200.152,115.559 200.604,115.092C201.055,114.624 201.406,114.07 201.636,113.462C201.827,112.886 201.812,112.262 201.594,111.695C201.376,111.129 200.968,110.656 200.44,110.356C200.193,110.244 199.925,110.185 199.654,110.183C199.382,110.181 199.114,110.236 198.865,110.345C198.616,110.453 198.393,110.612 198.209,110.812C198.026,111.012 197.886,111.248 197.8,111.505C197.602,112.03 197.51,112.587 197.529,113.147C197.548,113.707 197.677,114.257 197.909,114.767C198.689,116.755 199.91,118.539 201.481,119.986C202.776,121.183 204.344,122.046 206.047,122.502C207.341,122.831 208.687,122.9 210.008,122.704C211.145,122.484 212.247,122.113 213.285,121.601L213.285,121.601Z" fill="#455A64"/>
<path d="M168.43,157.729C168.245,157.942 168.024,158.121 167.777,158.257C167.089,158.704 166.318,159.011 165.51,159.158C164.232,159.422 162.907,159.336 161.673,158.909C160.823,158.663 160.036,158.237 159.363,157.661C158.691,157.085 158.149,156.372 157.775,155.57C157.522,155.059 157.443,154.479 157.55,153.918C157.656,153.358 157.943,152.847 158.365,152.464C158.843,152.095 159.431,151.895 160.035,151.895C160.639,151.895 161.226,152.095 161.704,152.464C162.667,153.249 163.398,154.28 163.819,155.448C164.241,156.617 164.336,157.877 164.096,159.096C163.938,160.445 163.444,161.734 162.66,162.843C161.876,163.953 160.827,164.848 159.608,165.448C158.265,166.016 156.808,166.255 155.355,166.147C153.901,166.039 152.495,165.587 151.251,164.827C149.965,164.105 148.869,163.089 148.052,161.861C147.637,161.246 147.355,160.551 147.224,159.821C147.093,159.091 147.115,158.341 147.291,157.62C147.477,156.899 147.859,156.244 148.394,155.725C148.666,155.46 148.99,155.253 149.345,155.116C149.7,154.98 150.079,154.918 150.459,154.933C151.158,154.986 151.83,155.218 152.413,155.608C152.995,155.997 153.467,156.529 153.783,157.154C154.359,158.281 154.672,159.524 154.7,160.789C154.745,161.954 154.63,163.119 154.358,164.253C153.869,166.313 152.79,168.186 151.251,169.642C150.151,170.707 148.76,171.422 147.254,171.699C145.748,171.975 144.193,171.8 142.787,171.195C142.035,170.868 141.351,170.404 140.767,169.829C140.557,169.642 140.378,169.421 140.239,169.176C141.036,169.881 141.937,170.457 142.911,170.885C144.067,171.332 145.315,171.486 146.545,171.335C148.163,171.139 149.671,170.413 150.832,169.269C152.236,167.87 153.206,166.096 153.628,164.159C153.879,163.086 153.973,161.982 153.907,160.882C153.874,159.739 153.582,158.619 153.053,157.605C152.803,157.097 152.425,156.663 151.957,156.344C151.489,156.026 150.946,155.834 150.382,155.788C149.811,155.823 149.27,156.051 148.846,156.435C148.423,156.819 148.143,157.336 148.052,157.9C147.905,158.509 147.889,159.142 148.004,159.758C148.119,160.373 148.363,160.958 148.72,161.472C149.466,162.586 150.46,163.511 151.624,164.175C152.772,164.873 154.069,165.287 155.409,165.384C156.748,165.482 158.092,165.259 159.328,164.734C160.427,164.189 161.374,163.381 162.084,162.38C162.794,161.38 163.245,160.22 163.397,159.003C163.617,157.923 163.546,156.805 163.191,155.763C162.836,154.72 162.211,153.791 161.378,153.069C161.017,152.786 160.571,152.632 160.112,152.632C159.653,152.632 159.208,152.786 158.847,153.069C158.533,153.359 158.32,153.741 158.239,154.161C158.158,154.58 158.213,155.014 158.396,155.399C158.723,156.129 159.198,156.782 159.792,157.317C160.386,157.852 161.085,158.257 161.844,158.506C163.005,158.935 164.255,159.064 165.479,158.878C166.521,158.666 167.519,158.278 168.43,157.729L168.43,157.729Z" fill="#455A64"/>
<path d="M104.267,535.298C104.267,535.298 114.658,555.49 141.745,545.674C141.745,545.674 168.274,560.088 193.653,543.95C193.653,543.95 226.504,548.344 244.381,539.694L221.456,341.443L218.536,311L145.986,311C145.986,311 124.458,320.801 120.995,368.655C117.531,416.509 110.122,482.241 110.122,482.241L104.267,535.298Z" fill="#263238"/>
<path d="M192.1,544.552C192.1,544.552 192.1,544.35 192.1,543.946C192.1,543.542 192.007,542.936 191.944,542.192C191.82,540.638 191.649,538.324 191.416,535.42C190.982,529.548 190.407,521.036 189.786,510.568C188.527,489.538 187.192,460.431 186.493,428.249C185.794,396.066 185.871,366.944 186.213,345.929C186.384,335.382 186.57,326.855 186.772,320.969C186.866,318.049 186.943,315.781 187.005,314.181C187.005,313.436 187.005,312.845 187.005,312.411C186.985,312.214 186.985,312.017 187.005,311.82C187.029,312.016 187.029,312.215 187.005,312.411L187.005,314.181C187.005,315.734 187.005,318.064 186.928,320.969C186.928,326.902 186.757,335.429 186.633,345.929C186.446,367.006 186.446,396.128 187.145,428.249C187.844,460.369 189.102,489.491 190.252,510.568C190.826,521.068 191.292,529.564 191.634,535.42C191.789,538.324 191.913,540.606 192.007,542.192C192.007,542.936 192.007,543.526 192.084,543.962C192.106,544.158 192.111,544.356 192.1,544.552Z" fill="#455A64"/>
<path d="M198.468,487.798C198.468,487.798 198.624,487.581 199.027,487.472C199.625,487.342 200.249,487.419 200.798,487.689C201.214,487.893 201.579,488.187 201.866,488.55C202.154,488.912 202.357,489.335 202.46,489.786C202.519,490.367 202.409,490.952 202.142,491.471C201.876,491.99 201.464,492.42 200.957,492.709C200.451,492.999 199.871,493.135 199.289,493.101C198.706,493.068 198.146,492.866 197.676,492.52C197.34,492.198 197.08,491.805 196.916,491.37C196.752,490.934 196.688,490.467 196.729,490.004C196.773,489.394 197.025,488.819 197.443,488.373C197.738,488.078 197.987,488.016 198.002,488.047C197.588,488.631 197.345,489.32 197.303,490.035C197.304,490.395 197.381,490.751 197.528,491.08C197.675,491.41 197.89,491.704 198.158,491.945C198.515,492.17 198.926,492.295 199.348,492.304C199.77,492.314 200.187,492.208 200.554,491.999C200.921,491.79 201.224,491.486 201.431,491.118C201.638,490.75 201.742,490.332 201.73,489.91C201.665,489.555 201.522,489.217 201.313,488.922C201.104,488.627 200.833,488.381 200.518,488.202C199.892,487.861 199.177,487.72 198.468,487.798L198.468,487.798Z" fill="#455A64"/>
<path d="M196.853,428.933C196.853,428.933 197.008,428.731 197.412,428.622C198.009,428.483 198.637,428.56 199.183,428.84C199.605,429.034 199.976,429.325 200.265,429.689C200.554,430.053 200.752,430.481 200.845,430.937C200.898,431.513 200.784,432.093 200.517,432.607C200.249,433.12 199.839,433.546 199.336,433.832C198.833,434.119 198.258,434.255 197.68,434.223C197.102,434.192 196.545,433.994 196.076,433.655C195.734,433.341 195.469,432.952 195.305,432.517C195.14,432.083 195.08,431.616 195.129,431.154C195.179,430.572 195.426,430.024 195.828,429.601C196.138,429.29 196.371,429.244 196.387,429.275C195.974,429.854 195.732,430.537 195.688,431.247C195.688,431.608 195.764,431.964 195.911,432.294C196.058,432.623 196.273,432.917 196.542,433.158C196.897,433.388 197.308,433.516 197.731,433.529C198.154,433.542 198.572,433.439 198.94,433.231C199.309,433.023 199.613,432.718 199.82,432.349C200.027,431.98 200.129,431.561 200.115,431.138C200.047,430.783 199.906,430.446 199.7,430.149C199.494,429.852 199.228,429.602 198.919,429.414C198.288,429.065 197.573,428.898 196.853,428.933L196.853,428.933Z" fill="#455A64"/>
<path d="M195.905,376.87C195.905,376.87 196.061,376.668 196.48,376.559C197.072,376.421 197.694,376.498 198.235,376.777C198.659,376.972 199.031,377.263 199.322,377.627C199.613,377.991 199.815,378.418 199.913,378.873C199.969,379.453 199.856,380.035 199.588,380.552C199.32,381.068 198.908,381.496 198.402,381.783C197.896,382.071 197.318,382.206 196.737,382.172C196.156,382.138 195.598,381.936 195.129,381.591C194.789,381.276 194.527,380.886 194.362,380.452C194.198,380.018 194.136,379.552 194.181,379.091C194.224,378.484 194.47,377.909 194.88,377.46C195.191,377.165 195.424,377.103 195.455,377.134C195.033,377.709 194.785,378.394 194.74,379.106C194.738,379.469 194.815,379.827 194.965,380.157C195.115,380.487 195.336,380.78 195.61,381.017C195.965,381.243 196.374,381.368 196.795,381.379C197.215,381.389 197.631,381.285 197.996,381.078C198.362,380.87 198.664,380.567 198.871,380.2C199.077,379.834 199.179,379.418 199.167,378.998C199.1,378.643 198.958,378.305 198.752,378.008C198.546,377.711 198.28,377.461 197.971,377.274C197.333,376.95 196.618,376.81 195.905,376.87L195.905,376.87Z" fill="#455A64"/>
<path d="M194.057,321.172C194.057,321.172 194.212,320.955 194.616,320.846C195.215,320.715 195.842,320.797 196.387,321.079C196.807,321.276 197.176,321.568 197.465,321.932C197.753,322.296 197.953,322.722 198.049,323.176C198.128,323.762 198.021,324.358 197.742,324.88C197.463,325.401 197.027,325.821 196.495,326.081C195.996,326.39 195.414,326.538 194.827,326.505C194.241,326.471 193.679,326.258 193.218,325.894C192.882,325.573 192.622,325.179 192.458,324.744C192.294,324.308 192.23,323.842 192.271,323.378C192.332,322.796 192.583,322.25 192.985,321.825C193.296,321.53 193.529,321.468 193.544,321.499C193.13,322.083 192.887,322.772 192.845,323.487C192.846,323.847 192.923,324.203 193.07,324.533C193.217,324.862 193.432,325.156 193.7,325.397C194.057,325.623 194.468,325.747 194.89,325.756C195.312,325.766 195.729,325.66 196.096,325.451C196.463,325.242 196.766,324.938 196.973,324.57C197.18,324.202 197.284,323.785 197.272,323.363C197.207,323.007 197.064,322.669 196.855,322.374C196.646,322.079 196.375,321.833 196.06,321.654C195.456,321.296 194.758,321.128 194.057,321.172L194.057,321.172Z" fill="#455A64"/>
<path d="M288.615,260.879L654.969,258.223L665.173,507.295L285.819,503.785L288.615,260.879Z" fill="#01008A"/>
<path d="M288.6,260.878L461.999,120.578C465.562,117.698 470.008,116.136 474.589,116.152C479.17,116.169 483.604,117.765 487.146,120.671L654.97,258.222Z" fill="#01008A"/>
<g opacity="0.3">
<g opacity="0.3">
<path d="M288.601,260.878L462,120.578C465.563,117.698 470.009,116.136 474.59,116.152C479.171,116.169 483.605,117.765 487.147,120.671L654.971,258.222Z" fill="#000000"/>
</g>
</g>
<path d="M285.82,503.786C285.369,503.351 314.694,471.324 351.334,432.261C387.974,393.198 418.028,361.87 418.494,362.289C418.96,362.709 389.62,394.736 352.98,433.814C316.34,472.893 286.286,504.206 285.82,503.786Z" fill="#7C7BFF"/>
<path d="M665.173,507.293C664.707,507.712 636.144,476.338 601.383,437.228C566.622,398.118 538.82,366.06 539.255,365.641C539.69,365.222 568.284,396.596 603.045,435.721C637.806,474.847 665.67,506.874 665.173,507.293Z" fill="#7C7BFF"/>
<g opacity="0.5">
<g opacity="0.5">
<path d="M654.969,258.223L470.992,405.187L288.615,260.879Z" fill="#000000"/>
</g>
</g>
<path d="M307.052,274.488L306.493,160.079L627.277,156.273L630.895,276.662L470.977,403.263L307.052,274.488Z" fill="#FAFAFA"/>
<path d="M307.051,274.485C307.051,274.485 308.092,275.262 310.065,276.8L318.763,283.572L351.924,309.463L471.225,402.997L470.821,402.997L630.693,276.349L630.537,276.675C629.855,253.719 629.125,229.613 628.379,205.104C627.897,188.593 627.401,172.285 626.919,156.287L627.323,156.675L306.539,160.325L306.787,160.076C306.912,196.064 307.02,224.659 307.083,244.26C307.083,254.061 307.083,261.609 307.083,266.719L307.083,272.513C307.083,273.818 307.083,274.485 307.083,274.485C307.083,274.485 307.083,273.833 307.083,272.544C307.083,271.255 307.083,269.313 307.083,266.781C307.083,261.671 306.974,254.138 306.896,244.353C306.772,224.721 306.586,196.111 306.353,160.076L306.353,159.812L306.601,159.812L627.401,155.883L627.789,155.883L627.789,156.287C628.269,172.269 628.751,188.578 629.249,205.088C629.993,229.613 630.709,253.704 631.407,276.675L631.407,276.877L631.251,277.002L471.272,403.541L471.07,403.697L470.868,403.541L351.644,309.696L318.685,283.68L309.987,276.846C308.03,275.293 307.051,274.485 307.051,274.485Z" fill="#263238"/>
<path d="M576.579,213.892C576.579,214.109 527.513,214.591 467.016,214.948C406.519,215.305 357.438,215.445 357.438,215.212C357.438,214.979 406.488,214.513 467.016,214.14C527.544,213.768 576.579,213.659 576.579,213.892Z" fill="#263238"/>
<path d="M576.579,246.201C576.579,246.434 527.513,246.915 467.016,247.273C406.519,247.63 357.438,247.754 357.438,247.537C357.438,247.319 406.488,246.838 467.016,246.465C527.544,246.092 576.579,245.984 576.579,246.201Z" fill="#263238"/>
<path d="M576.579,283.462C576.579,283.68 527.513,284.161 467.016,284.534C406.519,284.907 357.438,285.015 357.438,284.782C357.438,284.549 406.488,284.083 467.016,283.726C527.544,283.369 576.579,283.229 576.579,283.462Z" fill="#263238"/>
<path d="M576.579,320.71C576.579,320.943 529.782,321.393 472.049,321.751C414.317,322.108 367.518,322.201 367.503,321.984C367.487,321.766 414.301,321.3 472.049,320.943C529.797,320.586 576.579,320.493 576.579,320.71Z" fill="#263238"/>
<path d="M535.544,353.402C535.123,353.473 534.697,353.504 534.27,353.495L530.573,353.604L517.029,353.821L472.313,354.458C454.855,354.753 439.028,354.846 427.581,354.862L414.037,354.862L410.34,354.862C409.914,354.87 409.488,354.844 409.066,354.784C409.487,354.713 409.913,354.682 410.34,354.691L414.037,354.598L427.581,354.365L472.297,353.728C489.755,353.433 505.582,353.34 517.014,353.324L530.573,353.324L534.27,353.324C534.696,353.323 535.121,353.349 535.544,353.402L535.544,353.402Z" fill="#263238"/>
<path d="M494.243,384.837C494.243,385.055 483.79,385.241 470.945,385.241C458.101,385.241 447.647,385.055 447.647,384.837C447.647,384.62 458.116,384.434 470.945,384.434C483.775,384.434 494.243,384.604 494.243,384.837Z" fill="#263238"/>
<path d="M602.222,359.462C623.625,359.462 640.975,342.112 640.975,320.709C640.975,299.307 623.625,281.957 602.222,281.957C580.82,281.957 563.47,299.307 563.47,320.709C563.47,342.112 580.82,359.462 602.222,359.462Z" fill="#D62F61"/>
<path d="M592.752,359.505C614.155,359.505 631.505,342.155 631.505,320.752C631.505,299.35 614.155,282 592.752,282C571.35,282 554,299.35 554,320.752C554,342.155 571.35,359.505 592.752,359.505Z" fill="#FF3874"/>
<path d="M591.977,336C600.191,336 606,329.384 606,319.978C606,310.616 600.191,304 591.977,304C583.763,304 578,310.616 578,319.978C578,329.384 583.763,336 591.977,336ZM591.977,329.969C587.802,329.969 584.853,325.783 584.853,319.978C584.853,314.172 587.802,310.031 591.977,310.031C596.198,310.031 599.102,314.172 599.102,319.978C599.102,325.783 596.198,329.969 591.977,329.969Z" fill="#FFFFFF"/>
<path d="M322.413,106.075C322.452,106.847 322.655,107.601 323.007,108.289C323.359,108.977 323.853,109.582 324.456,110.065C325.059,110.548 325.758,110.898 326.506,111.091C327.254,111.284 328.035,111.317 328.796,111.186C329.558,111.056 330.283,110.766 330.924,110.334C331.566,109.903 332.108,109.341 332.516,108.685C332.924,108.029 333.188,107.293 333.292,106.528C333.395,105.762 333.335,104.983 333.115,104.242Z" fill="#FF3874"/>
<path d="M329.262,70.832L325.783,70.832L325.783,78.225L329.262,78.225L329.262,70.832Z" fill="#01008A"/>
<path d="M378.965,83.569C378.86,83.265 378.777,82.954 378.717,82.638C378.561,81.97 378.36,81.084 378.095,79.904C377.771,78.418 377.351,76.955 376.837,75.524C376.527,74.685 376.309,73.738 375.89,72.79L374.57,69.777C372.18,64.687 369.01,60.002 365.173,55.891C360.133,50.579 354.031,46.388 347.264,43.59C343.41,41.968 339.374,40.82 335.243,40.173C330.787,39.524 326.266,39.451 321.792,39.956C319.438,40.203 317.103,40.608 314.802,41.167C313.638,41.416 312.504,41.866 311.323,42.223C310.138,42.552 308.98,42.973 307.86,43.481C303.101,45.406 298.673,48.063 294.735,51.356C285.997,58.561 279.837,68.412 277.184,79.422C275.787,85.322 275.445,91.421 276.174,97.44C276.814,103.665 278.621,109.714 281.502,115.27L282.403,116.963L282.511,117.181L282.511,117.414C279.638,126.733 276.842,136.052 274.109,144.952L273.379,144.284L295.574,132.713L295.838,132.573L296.086,132.759C305.366,139.915 316.803,143.702 328.519,143.499C340.235,143.296 351.534,139.114 360.56,131.641C365.188,127.772 369.131,123.151 372.224,117.973C374.697,113.648 376.603,109.023 377.894,104.212C378.765,100.557 379.285,96.828 379.447,93.075C379.447,91.522 379.447,90.186 379.447,88.99C379.447,87.794 379.26,86.847 379.198,86.024C379.136,85.2 379.074,84.657 379.043,84.206C379.019,84 379.019,83.791 379.043,83.585C379.098,83.783 379.134,83.986 379.152,84.191C379.152,84.646 379.229,85.252 379.385,86.008C379.478,86.831 379.587,87.81 379.726,88.99C379.866,90.171 379.726,91.553 379.726,93.091C379.64,96.876 379.171,100.644 378.328,104.336C377.088,109.221 375.208,113.922 372.737,118.315C369.643,123.606 365.672,128.333 360.995,132.293C355.267,137.074 348.587,140.581 341.399,142.578C334.211,144.576 326.68,145.02 319.307,143.88C310.629,142.502 302.427,138.996 295.434,133.676L295.962,133.676L273.798,145.278L272.68,145.868L273.052,144.61L281.44,117.072L281.44,117.522L280.523,115.798C277.585,110.12 275.741,103.939 275.087,97.579C274.327,91.42 274.685,85.175 276.143,79.143C278.86,67.917 285.157,57.88 294.083,50.548C298.112,47.215 302.634,44.527 307.487,42.581C308.627,42.064 309.806,41.638 311.013,41.307C312.209,40.965 313.358,40.515 314.554,40.266C316.888,39.692 319.26,39.287 321.652,39.055C326.201,38.554 330.796,38.648 335.32,39.334C339.505,40.028 343.593,41.217 347.497,42.876C354.338,45.756 360.489,50.054 365.546,55.488C369.383,59.674 372.529,64.445 374.865,69.622C375.315,70.709 375.75,71.719 376.138,72.728C376.527,73.738 376.76,74.654 377.055,75.508C377.559,76.951 377.948,78.431 378.22,79.935C378.437,81.1 378.624,82.016 378.748,82.7C378.839,82.984 378.912,83.275 378.965,83.569Z" fill="#263238"/>
<path d="M309.568,107.815L345.012,107.815L340.213,102.316L340.213,89.13C340.213,85.702 338.852,82.415 336.428,79.992C334.005,77.569 330.718,76.207 327.29,76.207L327.29,76.207C325.594,76.207 323.914,76.541 322.347,77.191C320.78,77.841 319.357,78.793 318.158,79.993C316.959,81.193 316.009,82.618 315.361,84.186C314.714,85.753 314.381,87.433 314.383,89.13L314.383,101.664L309.568,107.815Z" fill="#01008A"/>
<path d="M807.496,452.402C812.575,469.565 808.723,491.636 802.572,508.442C796.322,525.413 784.819,539.946 769.737,549.928C768.06,551.03 765.901,552.102 764.13,551.155C763.475,550.634 762.942,549.977 762.569,549.228C762.196,548.479 761.992,547.658 761.971,546.821C758.339,528.264 760.817,509.028 769.035,491.998C777.254,474.967 790.77,461.059 807.558,452.355Z" fill="#A3F6A1"/>
<g opacity="0.2">
<g opacity="0.2">
<path d="M807.496,452.402C812.575,469.565 808.723,491.636 802.572,508.442C796.322,525.413 784.819,539.946 769.737,549.928C768.06,551.03 765.901,552.102 764.13,551.155C763.475,550.634 762.942,549.977 762.569,549.228C762.196,548.479 761.992,547.658 761.971,546.821C758.339,528.264 760.817,509.028 769.035,491.998C777.254,474.967 790.77,461.059 807.558,452.355Z" fill="#72CF70"/>
</g>
</g>
<path d="M731.202,370.937C741.888,370.642 748.94,382.524 750.012,393.179C751.083,403.834 748.722,414.924 751.844,425.113C755.758,438.098 767.967,447.417 771.632,460.51C775.981,475.934 767.516,491.947 767.112,507.961C766.91,515.727 768.665,523.633 767.19,531.259C765.961,537.782 762.508,543.678 757.419,547.94C752.33,552.203 745.921,554.568 739.283,554.634C732.645,554.7 726.19,552.462 721.018,548.302C715.845,544.141 712.276,538.316 710.917,531.818C708.417,519.827 713.713,507.076 710.545,495.225C708.199,486.48 701.396,479.04 700.837,470.001C700.185,459.237 708.51,449.933 710.063,439.263C711.616,428.592 706.211,418.17 705.404,407.406C703.959,388.116 711.943,372.972 731.187,370.906Z" fill="#CBFFCA"/>
<path d="M754.624,590.637C754.77,590.292 754.879,589.933 754.95,589.565C755.137,588.757 755.37,587.717 755.649,586.459C756.224,583.772 757.202,579.873 758.29,575.074C764.358,550.069 773.015,525.765 784.119,502.555C786.247,498.097 788.018,494.525 789.276,492.055L790.689,489.213C790.87,488.887 791.016,488.544 791.124,488.188C790.887,488.468 790.684,488.776 790.518,489.104L788.965,491.869C787.598,494.276 785.719,497.817 783.514,502.244C772.023,525.347 763.331,549.739 757.622,574.903C756.55,579.733 755.758,583.663 755.292,586.397C755.09,587.655 754.919,588.695 754.779,589.503C754.687,589.874 754.635,590.254 754.624,590.637L754.624,590.637Z" fill="#263238"/>
<path d="M731.638,423.559C731.644,424.131 731.696,424.703 731.793,425.267C731.933,426.463 732.135,428.094 732.383,430.144L734.76,448.084C736.763,463.227 739.528,484.133 742.432,507.261C745.337,530.388 747.838,551.341 749.624,566.515C750.525,574.017 751.255,580.137 751.783,584.47C752.047,586.521 752.249,588.152 752.404,589.347C752.458,589.918 752.552,590.483 752.684,591.04C752.732,590.472 752.732,589.9 752.684,589.332C752.575,588.12 752.435,586.49 752.249,584.424C751.798,580.075 751.177,573.955 750.416,566.422C748.863,551.232 746.424,530.264 743.52,507.136C740.615,484.009 737.742,463.103 735.536,447.975C734.418,440.504 733.502,434.415 732.865,430.098C732.523,428.047 732.259,426.432 732.073,425.236C731.981,424.664 731.835,424.103 731.638,423.559L731.638,423.559Z" fill="#263238"/>
<path d="M791.933,569.656L710.763,569.656L710.763,579.131L791.933,579.131L791.933,569.656Z" fill="#263238"/>
<path d="M718.295,579.129L727.816,636.629L778.171,636.629L784.757,579.129L718.295,579.129Z" fill="#263238"/>
<path d="M785.021,578.739C785.021,578.972 770.033,579.329 751.534,579.562C733.035,579.795 718.047,579.795 718.047,579.562C718.047,579.329 733.035,578.972 751.534,578.739C770.033,578.506 785.021,578.522 785.021,578.739Z" fill="#455A64"/>
<path d="M782.256,607.52L781.806,607.52L780.455,607.52C778.723,607.583 776.989,607.515 775.267,607.318C772.5,607.045 769.854,606.049 767.594,604.429C766.177,603.405 765.031,602.051 764.255,600.484C763.354,598.693 763.182,596.622 763.773,594.706C764.113,593.633 764.788,592.698 765.7,592.038C766.612,591.378 767.711,591.028 768.837,591.041C770.034,591.139 771.146,591.695 771.943,592.594C772.721,593.537 773.255,594.657 773.496,595.856C774.475,600.764 771.027,606.231 765.73,607.94C760.434,609.648 753.973,606.697 751.332,601.338C750.643,599.986 750.241,598.505 750.152,596.989C750.046,595.409 750.461,593.838 751.332,592.516C751.791,591.846 752.39,591.282 753.087,590.864C753.784,590.446 754.563,590.183 755.37,590.093C756.204,590.048 757.035,590.218 757.784,590.588C758.532,590.958 759.172,591.515 759.642,592.206C760.582,593.533 761.067,595.13 761.024,596.756C760.993,598.328 760.594,599.871 759.859,601.261C758.43,603.95 756.161,606.099 753.398,607.38C750.786,608.612 747.989,609.404 745.119,609.726C742.357,610.125 739.54,609.88 736.887,609.011C734.324,608.152 732.132,606.442 730.674,604.165C729.998,603.083 729.573,601.861 729.434,600.592C729.294,599.323 729.442,598.038 729.867,596.834C730.226,595.684 730.891,594.652 731.791,593.851C732.691,593.049 733.792,592.507 734.977,592.283C736.072,592.116 737.191,592.23 738.23,592.616C739.268,593.002 740.191,593.647 740.91,594.489C741.503,595.306 741.866,596.268 741.958,597.274C742.051,598.28 741.872,599.292 741.438,600.205C740.717,601.814 739.526,603.167 738.021,604.088C736.76,604.892 735.41,605.549 733.998,606.045C732.709,606.542 731.513,606.93 730.426,607.241C728.768,607.725 727.082,608.109 725.378,608.39L724.042,608.592L723.592,608.592C723.592,608.592 723.732,608.592 724.027,608.468L725.347,608.204C726.496,607.955 728.205,607.567 730.348,606.899C731.404,606.573 732.585,606.153 733.859,605.656C735.234,605.15 736.547,604.488 737.773,603.684C739.149,602.777 740.229,601.486 740.879,599.972C741.271,599.148 741.433,598.233 741.345,597.324C741.257,596.416 740.925,595.549 740.382,594.815C739.723,594.059 738.883,593.482 737.94,593.14C736.997,592.798 735.983,592.701 734.992,592.858C733.927,593.077 732.94,593.579 732.137,594.311C731.333,595.044 730.742,595.98 730.426,597.021C730.037,598.13 729.905,599.313 730.039,600.48C730.174,601.648 730.571,602.77 731.203,603.761C732.579,605.881 734.632,607.474 737.027,608.281C739.574,609.094 742.272,609.317 744.917,608.934C747.694,608.609 750.401,607.838 752.932,606.65C755.541,605.432 757.683,603.399 759.036,600.857C759.763,599.607 760.132,598.181 760.105,596.735C760.078,595.289 759.654,593.878 758.881,592.656C758.496,592.073 757.965,591.601 757.341,591.288C756.717,590.975 756.021,590.83 755.324,590.87C754.636,590.951 753.974,591.179 753.382,591.538C752.79,591.897 752.281,592.379 751.891,592.951C751.114,594.125 750.748,595.523 750.851,596.927C750.933,598.332 751.297,599.705 751.922,600.966C754.392,605.982 760.465,608.871 765.389,607.178C770.312,605.485 773.574,600.453 772.673,595.949C772.475,594.854 771.993,593.831 771.275,592.982C770.944,592.586 770.537,592.26 770.078,592.023C769.62,591.786 769.118,591.642 768.604,591.6C767.61,591.587 766.639,591.893 765.832,592.471C765.024,593.049 764.423,593.871 764.115,594.815C763.548,596.591 763.693,598.518 764.519,600.189C765.233,601.689 766.299,602.994 767.625,603.994C769.813,605.593 772.375,606.604 775.065,606.93C776.77,607.151 778.487,607.266 780.206,607.272L781.557,607.272L782.256,607.52Z" fill="#455A64"/>
</svg>
