<svg width="784" height="672" viewBox="0 0 784 672" fill="none" xmlns="http://www.w3.org/2000/svg" xmlns:xlink="http://www.w3.org/1999/xlink">
<g opacity="0.8">
<g opacity="0.8">
<path d="M625.03,326.836C622.6,333.518 619.62,339.85 616.152,345.785C607.83,360.031 596.729,372.008 583.818,381.27C553.82,402.794 514.058,409.622 476.739,396.056C432.345,379.918 403.829,339.445 400.794,295.17C400.389,289.334 400.428,283.434 400.941,277.515C401.783,267.576 403.944,257.58 407.512,247.764C410.4,239.823 414.066,232.386 418.393,225.517C418.44,225.438 418.492,225.362 418.54,225.283C430.553,206.309 447.615,191.662 467.24,182.482C472.806,179.875 478.582,177.71 484.51,176.014C487.334,175.204 490.202,174.5 493.087,173.912C513.335,169.745 534.95,170.957 555.811,178.541C558.576,179.546 561.281,180.646 563.919,181.838C567.645,183.51 571.24,185.366 574.701,187.384C589.276,195.881 601.472,207.287 610.824,220.563L610.828,220.563C616.656,228.83 621.372,237.816 624.864,247.287C626.7,252.261 628.196,257.362 629.336,262.562C630.048,265.8 630.62,269.065 631.054,272.371C632.094,280.304 632.308,288.396 631.656,296.532C630.838,306.647 628.666,316.833 625.03,326.836Z" fill="#FFFFFF"/>
</g>
<g opacity="0.8">
<g opacity="0.8">
<path d="M497.019,225.188C490.182,230.484 491.994,244.654 480.155,236.669C468.317,228.684 460.888,224.338 457.535,231.31C454.178,238.282 464.67,242.096 461.909,249.691C459.148,257.287 453.531,258.09 447.611,251.853C441.684,245.615 441.513,239.613 431.923,239.811C422.329,240.01 418.238,236.065 418.706,228.863C418.786,227.595 418.659,226.499 418.393,225.522C418.44,225.442 418.492,225.367 418.54,225.287C430.553,206.314 447.615,191.667 467.24,182.486C472.806,179.88 478.582,177.715 484.509,176.019C487.334,175.208 490.202,174.505 493.086,173.917C496.431,175.276 500.019,178.033 501.918,183.563C506.093,195.731 512.866,192.867 507.114,203.06C501.357,213.25 503.729,215.753 510.006,217.624C516.287,219.495 523.521,222.125 522.536,227.091C521.547,232.057 503.856,219.893 497.019,225.188Z" fill="#B8B8FF"/>
</g>
<g opacity="0.8">
<path d="M625.03,326.836C622.599,333.518 619.619,339.851 616.151,345.786C607.829,360.032 596.729,372.009 583.818,381.27C580.6,381.17 577.672,380.078 575.205,377.877C563.613,367.52 578.975,356.524 587.063,351.169C595.152,345.818 580.135,344.042 572.563,333.614C564.991,323.186 582.721,309.051 571.328,308.288C559.934,307.525 546.078,306.786 543.758,294.582C541.437,282.378 553.423,284.889 551.325,274.608C549.228,264.327 559.14,262.4 569.743,265.336C580.346,268.268 581.653,260.453 594.794,264.001C607.936,267.549 601.75,283.725 616.251,287.769C630.751,291.814 628.931,294.837 628.931,294.837C629.956,295.178 630.866,295.75 631.652,296.525C630.838,306.647 628.665,316.833 625.03,326.836Z" fill="#B8B8FF"/>
</g>
<g opacity="0.8">
<path d="M631.052,272.367C617.248,273.809 618.181,256.576 606.462,257.6C594.643,258.629 599.7,250.227 593.853,241.551C587.997,232.875 568.273,237.578 572.281,228.795C576.289,220.019 587.306,226.884 592.466,220.575C597.627,214.263 608.543,220.277 608.543,220.277C609.29,220.266 610.053,220.361 610.824,220.563C610.824,220.563 610.824,220.56 610.828,220.563C616.656,228.831 621.371,237.817 624.863,247.287C626.698,252.261 628.196,257.362 629.336,262.562C630.043,265.796 630.619,269.066 631.052,272.367Z" fill="#B8B8FF"/>
</g>
<g opacity="0.8">
<path d="M543.575,205.257C543.575,205.257 552.947,198.623 544.135,192.453C535.32,186.288 534.255,189.78 526.958,186.208C519.656,182.637 514.535,187.432 517.9,195.921C521.261,204.411 521.396,218.406 528.936,213.715C536.472,209.023 537.287,203.688 543.575,205.257Z" fill="#B8B8FF"/>
</g>
</g>
</g>
<path d="M2.52,668.754L42.882,668.754C45.043,666.919 41.384,662.751 37.563,662.473C35.902,662.346 33.8,662.696 31.401,663.2C30.845,655.823 27.675,622.659 15.721,623.994C2.281,625.488 15.721,638.598 19.519,646.36C22.335,652.109 25.303,660.356 26.658,664.249C25.565,664.483 24.437,664.718 23.281,664.928C21.501,659.458 14.871,641.061 6.441,642.133C-3.455,643.389 0.522,650.766 7.537,655.144C12.682,658.366 19.002,662.942 22.006,665.151C19.463,665.568 16.805,665.846 14.112,665.783C7.204,665.624 3.827,667.662 2.52,668.754Z" fill="#A8D29F"/>
<path d="M644.858,668.755L607.368,668.755C605.358,667.051 608.758,663.181 612.31,662.919C613.851,662.804 615.802,663.126 618.031,663.594C618.547,656.741 621.491,625.938 632.594,627.177C645.08,628.563 632.594,640.744 629.067,647.954C626.453,653.293 623.696,660.952 622.432,664.568C623.445,664.786 624.494,665.001 625.567,665.199C627.223,660.118 633.377,643.028 641.207,644.025C650.4,645.193 646.705,652.042 640.19,656.11C635.411,659.101 629.539,663.352 626.751,665.406C629.114,665.791 631.581,666.053 634.084,665.994C640.508,665.847 643.642,667.738 644.858,668.755Z" fill="#A8D29F"/>
<path d="M671.629,423.013C671.629,423.013 672.523,414.138 667.883,414.444C663.243,414.746 662.012,416.876 662.532,418.584C663.048,420.288 667.565,425.933 667.565,425.933L671.629,423.013Z" fill="#FFB27D"/>
<path d="M743.944,440.799C743.944,440.799 738.807,446.838 727.759,453.802C726.714,454.461 725.618,455.128 724.466,455.8C720.175,458.299 715.142,460.861 709.33,463.249C708.69,463.511 707.939,463.801 707.093,464.107C700.471,466.498 688.291,469.887 680.743,470.193C680.087,470.221 679.463,470.221 678.883,470.197C667.395,469.732 665.992,425.139 665.992,425.139C665.992,425.139 667.271,420.678 673.175,421.802C673.175,421.802 682.141,446.988 685.351,449.042C688.203,450.866 704.606,426.005 718.725,424.265C728.228,423.081 743.944,440.799 743.944,440.799Z" fill="#739AF0"/>
<path d="M713.076,658.269C713.076,658.269 713.926,668.086 711.848,669.107L685.291,669.051C685.291,669.051 685.291,665.984 689.558,665.305C693.824,664.625 701.317,662.127 702.584,656.565C703.851,651.003 713.076,658.269 713.076,658.269Z" fill="#1C3154"/>
<path d="M693.579,539.451C693.71,545.871 694.02,552.494 694.623,558.445C697.492,586.682 698.501,620.799 698.914,627.378C699.629,638.795 701.885,657.038 701.885,657.038C701.885,657.038 706.359,661.285 715.079,659.259C715.079,659.259 722.305,632.987 723.918,605.322C723.942,604.869 723.965,604.412 723.989,603.955C724.176,600.297 724.371,596.117 724.573,591.608C725.9,561.404 727.346,516.533 727.346,516.533L694.02,508.707C694.02,508.703 693.253,523.45 693.579,539.451Z" fill="#2A4E96"/>
<path d="M693.579,539.452C702.025,554.023 718.122,580.87 724.573,591.601C725.9,561.396 727.346,516.525 727.346,516.525L694.02,508.699C694.02,508.703 693.253,523.45 693.579,539.452Z" fill="#233862"/>
<path d="M707.094,464.103C700.471,466.494 688.291,469.883 680.743,470.189C681.899,469.974 690.305,468.306 693.412,464.555C696.749,460.519 702.37,449.563 706.844,454.036C708.949,456.137 708.329,460.297 707.094,464.103Z" fill="#6385DB"/>
<path d="M763.092,534.704C763.092,534.704 765.162,542.816 764.82,544.62C764.483,546.424 762.461,552.525 761.201,554.043C759.942,555.557 759.89,547.46 759.052,546.185C758.214,544.914 758.667,549.208 757.995,549.562C757.324,549.911 756.204,546.308 755.707,545.029C755.211,543.75 757.495,539.301 757.709,536.11C757.924,532.92 763.092,534.704 763.092,534.704Z" fill="#FFB27D"/>
<path d="M779.233,647.11C779.233,647.11 783.96,651.425 783.039,654.488C782.117,657.554 777.85,659.596 777.274,663.343C776.698,667.089 774.394,669.131 772.316,669.131C770.243,669.131 762.425,669.131 762.425,669.131C762.425,669.131 760.895,666.493 764.586,665.698C768.276,664.904 769.667,660.502 769.436,656.414C769.206,652.326 769.782,646.88 769.782,646.88L777.62,645.064L779.233,647.11Z" fill="#1C3154"/>
<path d="M699.271,517.209C699.271,517.209 730.469,583.957 747.07,613.244C763.672,642.53 768.86,650.706 768.86,650.706C768.86,650.706 778.371,646.959 779.237,644.405C779.237,644.405 772.889,587.862 761.769,574.081C755.488,566.295 748.107,542.92 747.762,534.748C747.416,526.576 740.126,507.066 740.126,507.066L699.271,517.209Z" fill="#2A4E96"/>
<path d="M693.455,513.737C693.455,513.737 703.613,524.67 720.875,527.971C728.45,529.421 743.829,530.823 747.642,525.428C748.536,524.161 748.544,522.286 748.345,519.358C747.833,511.751 745.918,497.04 754.559,467.479C755.365,464.73 755.905,462.092 756.219,459.578C758.106,444.454 757.9,433.04 744.782,426.942C725.121,417.805 717.053,425.322 717.053,425.322C717.053,425.322 706.597,430.208 701.818,444.446C692.267,472.93 693.455,513.737 693.455,513.737Z" fill="#739AF0"/>
<path d="M732.983,424.435C729.674,426.787 723.85,428.173 718.3,425.396C717.871,425.182 717.927,422.246 718.034,419.362C718.142,416.533 718.408,413.752 718.408,413.752L725.404,409.16L732.078,404.782C731.271,419.843 734.477,423.366 732.983,424.435Z" fill="#FFB27D"/>
<path d="M730.898,410.999C730.898,410.999 726.357,417.813 718.03,419.362C718.138,416.533 718.439,413.415 718.439,413.415L725.4,409.164L730.898,410.999Z" fill="#ED985F"/>
<path d="M712.139,411.985C712.139,411.985 729.062,418.301 732.828,407.873C736.594,397.445 741.314,391.24 730.667,386.766C720.02,382.293 716.473,385.519 714.355,388.693C712.238,391.867 707.832,410.07 712.139,411.985Z" fill="#FFB27D"/>
<path d="M743.371,387.935C743.566,387.784 743.959,387.708 744.786,387.827C744.786,387.827 744.214,387.291 743.348,387.097C743.399,385.929 743.193,383.803 741.341,382.933C741.341,382.933 742.279,383.7 742.18,384.931C740.38,382.166 735.871,379.521 722.261,377.932C704.32,375.838 707.907,388.296 709.93,390.096C711.952,391.895 718.435,389.337 722.63,390.517C726.825,391.697 726.42,398.013 727.695,399.142C728.975,400.274 728.7,398.665 730.83,398.168C732.959,397.672 732.506,400.949 731.525,402.944C730.544,404.938 732.681,408.251 732.681,408.251C732.681,408.251 732.681,408.251 735.974,405.863C739.268,403.476 744.273,391.594 743.562,388.709C743.495,388.455 743.435,388.197 743.371,387.935Z" fill="#2C3A64"/>
<path d="M748.35,519.362C747.837,511.754 745.922,497.044 754.563,467.483C755.369,464.734 755.91,462.096 756.223,459.582C749.804,457.464 738.108,462.172 738.108,462.172C738.108,462.172 735.355,501.247 748.35,519.362Z" fill="#6385DB"/>
<path d="M748.321,428.921C748.321,428.921 756.219,431.793 761.26,452.709C764.589,466.526 770.719,486.838 771.41,493.222C772.101,499.606 764.402,536.973 764.402,536.973C764.402,536.973 763.318,537.763 760.656,537.231C758.11,536.723 756.926,534.999 756.926,534.999C756.926,534.999 755.086,510.094 755.559,498.335C755.758,493.449 732.943,462.553 720.628,458.573C715.793,457.007 748.321,428.921 748.321,428.921Z" fill="#739AF0"/>
<path d="M637.834,401.847C637.834,401.847 660.665,401.199 687.011,406.05L689.765,399.114L692.784,391.514C692.784,391.514 666.334,380.128 650.435,364.27L637.834,401.847Z" fill="#AEC3FF"/>
<path d="M650.793,363.9L637.684,402.594C635.765,402.026 634.72,399.968 635.387,398.085L646.924,365.573C647.484,364 649.264,363.229 650.793,363.9Z" fill="#F99746"/>
<path d="M663.307,430.648C665.857,431.157 668.356,429.488 668.868,426.942L673.381,404.357C673.89,401.807 672.221,399.308 669.675,398.795C667.124,398.287 664.625,399.955 664.113,402.502L659.6,425.087C659.092,427.637 660.76,430.14 663.307,430.648Z" fill="#F99746"/>
<path d="M637.834,401.846C637.834,401.846 660.665,401.199 687.011,406.049L689.765,399.113C665.007,394.056 637.834,401.846 637.834,401.846Z" fill="#739AF0"/>
<path d="M679.726,404.656L686.861,405.911C686.753,405.915 693.487,407.222 695.696,401.251C695.898,400.842 696.029,400.441 696.121,399.964C697.837,392.523 693.753,391.153 693.753,391.153L684.572,387.573L681.656,397.898C681.656,397.898 681.656,397.898 681.656,397.934L679.726,404.656Z" fill="#F99746"/>
<path d="M679.726,404.655L686.861,405.91C686.753,405.914 693.487,407.221 695.696,401.25C691.659,398.315 681.652,397.894 681.652,397.894C681.652,397.894 681.652,397.894 681.652,397.929L679.726,404.655Z" fill="#ED7D2B"/>
<path d="M663.915,408.779C663.915,408.779 667.407,410.169 666.763,411.706C666.124,413.244 661.686,415.357 660.987,414.146C660.288,412.934 661.722,407.484 663.915,408.779Z" fill="#FFB27D"/>
<path d="M671.697,421.615C671.697,421.615 672.356,418.044 672.396,416.403C672.436,414.762 672.631,413.424 672.245,413.376C671.86,413.328 671.578,413.63 671.423,414.159C671.264,414.687 670.66,417.956 670.66,417.956L670.966,421.115L671.697,421.615Z" fill="#FFB27D"/>
<path d="M326.506,419.288L306.735,654.389C306.735,654.389 304.665,668.639 315.264,668.667C332.692,668.707 402.019,668.667 402.019,668.667C402.019,668.667 388.901,665.699 389.06,659.025C389.246,651.159 412.169,417.063 412.169,417.063L326.506,419.288Z" fill="#6665D1"/>
<path d="M408.542,664.496C405.113,664.508 337.999,664.618 321.024,664.4C313.627,664.308 312.328,657.822 312.268,653.626C312.237,651.616 312.495,650.126 312.495,650.126L313.007,644.016L314.318,628.444L315.474,614.682L316.964,597L318.215,582.075L332.267,415.017L417.929,412.792C417.929,412.792 408.275,510.762 401.446,582.071C400.684,590.016 399.961,597.636 399.289,604.747C399.071,607.019 398.864,609.236 398.658,611.397C398.026,618.142 397.446,624.34 396.941,629.81C396.675,632.694 396.429,635.372 396.21,637.826C395.34,647.444 394.828,653.586 394.82,654.754C394.816,655.434 394.876,656.07 394.987,656.658C396.393,664.154 407.254,664.496 408.542,664.496Z" fill="#D6D6FF"/>
<path d="M118.475,291.353L166.635,484.813L173.23,511.311L195.663,601.419L612.415,601.419L529.731,291.353L118.475,291.353Z" fill="#D6D6FF"/>
<path d="M118.474,291.353L111.796,293.577L186.788,608.149L195.662,601.419L118.474,291.353Z" fill="#8584FF"/>
<path d="M186.788,608.148L600.972,608.148L612.41,601.418L195.663,601.418L186.788,608.148Z" fill="#8584FF"/>
<path d="M421.915,664.492L332.236,664.492L332.236,668.755L421.915,668.755L421.915,664.492Z" transform="rotate(-360 377.076 666.624)" fill="#D6D6FF"/>
<g opacity="0.5">
<path d="M399.119,608.144L398.658,611.405L314.318,628.44L315.474,614.683L316.027,608.144L399.119,608.144Z" fill="#8584FF"/>
</g>
<g opacity="0.4">
<path d="M408.542,664.495C405.113,664.507 337.999,664.619 321.024,664.4C313.627,664.309 312.328,657.821 312.269,653.626L396.207,637.835C395.337,647.453 394.824,653.594 394.816,654.762C394.812,655.442 394.872,656.077 394.983,656.665C396.393,664.154 407.255,664.495 408.542,664.495Z" fill="#8584FF"/>
</g>
<path d="M118.475,291.353L529.731,291.353L596.461,540.545L180.512,540.545L118.475,291.353Z" fill="#A6A6FF"/>
<path d="M577.061,529.746L191.996,529.746L178.239,474.932L172.915,453.722L170.742,445.074L156.6,388.742L155.869,385.806L148.392,356.031L145.047,342.707L142.195,331.341L135.505,304.7L515.021,304.7L522.365,331.341L525.497,342.707L529.171,356.031L553.369,443.803L553.369,443.807L555.419,451.243L556.371,454.696L573.077,515.294L577.061,529.746Z" fill="#8584FF"/>
<path d="M522.365,331.345L142.195,331.345L135.509,304.7L515.021,304.7L522.365,331.345Z" fill="#607CF4"/>
<path d="M151.209,316.741C150.752,314.902 151.868,313.412 153.708,313.412C155.547,313.412 157.41,314.902 157.867,316.741C158.324,318.581 157.207,320.07 155.368,320.07C153.529,320.07 151.666,318.581 151.209,316.741Z" fill="#E9F3FE"/>
<path d="M162.277,316.741C161.82,314.902 162.937,313.412 164.776,313.412C166.615,313.412 168.478,314.902 168.935,316.741C169.392,318.581 168.276,320.07 166.436,320.07C164.597,320.07 162.734,318.581 162.277,316.741Z" fill="#E9F3FE"/>
<path d="M174.191,316.741C173.734,314.902 174.851,313.412 176.69,313.412C178.529,313.412 180.392,314.902 180.849,316.741C181.306,318.581 180.19,320.07 178.351,320.07C176.515,320.07 174.652,318.581 174.191,316.741Z" fill="#E9F3FE"/>
<path d="M439.527,149.803C455.092,131.528 479.091,94.821 495.248,76.026C498.573,72.157 495.808,66.186 490.707,66.186L461.305,66.186L489.038,3.474C490.222,0.796 486.575,-1.337 484.819,1.007L417.761,90.757C415.806,93.375 417.944,97.062 421.189,96.66L454.476,92.561L434.673,146.962C433.584,149.961 437.461,152.23 439.527,149.803Z" fill="#FF3874"/>
<path d="M301.097,261.104C304.597,243.144 306.809,209.79 310.508,191.261C311.271,187.447 307.199,184.516 303.81,186.422L284.28,197.419L279.243,145.393C279.029,143.172 275.807,143.12 275.521,145.333L264.552,230.026C264.234,232.497 267.031,234.146 269.037,232.664L289.612,217.492L296.806,261.033C297.207,263.432 300.632,263.488 301.097,261.104Z" fill="#B8B8FF"/>
<path d="M593.879,535.051L259.291,563.241C233.886,565.383 215.501,539.481 225.901,516.205L367.653,198.961C378.407,174.895 411.464,172.11 426.091,194.039L618.927,483.093C633.077,504.299 619.285,532.911 593.879,535.051Z" fill="#D8DCFF"/>
<path d="M594.949,547.708L260.361,575.898C243.906,577.284 228.373,570.074 218.815,556.606C209.257,543.14 207.572,526.1 214.31,511.024L356.062,193.78C363.026,178.192 377.343,168.03 394.358,166.595C411.373,165.161 427.187,172.785 436.663,186.991L629.499,476.046C638.665,489.782 639.855,506.866 632.685,521.738C625.507,536.612 611.403,546.322 594.949,547.708ZM396.488,191.905C388.828,192.549 382.385,197.125 379.25,204.141L237.498,521.386C234.467,528.17 235.226,535.842 239.528,541.9C243.831,547.962 250.822,551.208 258.227,550.584L592.815,522.394C600.221,521.77 606.573,517.4 609.799,510.706C613.025,504.012 612.493,496.322 608.365,490.14L415.529,201.086C411.265,194.69 404.147,191.258 396.488,191.905Z" fill="#FFFFFF"/>
<path d="M388.649,486.517C388.288,482.207 388.717,478.155 389.952,474.365C391.184,470.579 393.091,467.225 395.677,464.309C398.263,461.397 401.465,459.018 405.291,457.183C409.112,455.352 413.502,454.22 418.456,453.802C423.406,453.385 427.959,453.763 432.098,454.923C436.242,456.087 439.833,457.894 442.868,460.333C445.907,462.777 448.346,465.763 450.194,469.287C452.041,472.819 453.145,476.737 453.511,481.051C453.872,485.361 453.435,489.381 452.2,493.103C450.964,496.829 449.053,500.147 446.467,503.063C443.881,505.979 440.643,508.359 436.754,510.197C432.865,512.037 428.443,513.169 423.489,513.587C418.535,514.003 414.019,513.627 409.947,512.459C405.871,511.291 402.315,509.483 399.276,507.039C396.241,504.601 393.798,501.649 391.958,498.181C390.115,494.717 389.011,490.827 388.649,486.517ZM440.377,425.986L392.181,430.046L371.479,265.947L433.33,260.735L440.377,425.986Z" fill="#FFFFFF"/>
<path d="M180.88,436.048C180.88,436.048 181.929,433.688 182.608,432.572C183.287,431.455 186.191,428.182 186.684,428.921C187.177,429.664 189.155,434.649 188.106,436.048C187.057,437.446 188.174,439.874 182.954,441.347L180.88,436.048Z" fill="#FFB27D"/>
<path d="M122.852,421.15C122.852,421.15 149.584,443.465 160.004,441.399C168.156,439.782 181.039,435.698 181.039,435.698C181.039,435.698 184.44,438.932 183.478,442.809C183.478,442.809 167.063,458.255 155.368,458.354C137.086,458.509 128.465,449.297 128.465,449.297L122.852,421.15Z" fill="#D13463"/>
<path d="M75.97,656.507C75.97,656.507 76.744,669.024 79.168,669.203C79.49,669.227 91.451,669.227 91.451,669.227L106.722,669.14C106.722,669.14 106.623,665.461 102.158,664.682C97.696,663.904 90.224,660.769 87.518,654.87C84.678,648.664 75.97,656.507 75.97,656.507Z" fill="#113C68"/>
<path d="M75.092,657.377C75.092,657.377 79.732,658.93 83.359,658.93C87.403,658.93 91.074,657.83 91.074,657.83C91.074,657.83 91.948,649.38 96.755,630.76C99.278,620.999 102.877,608.45 107.997,592.857C122.16,549.762 126.466,524.551 126.86,522.164C126.879,522.037 126.887,521.977 126.887,521.977L126.84,521.957L83.296,502.841C83.296,502.841 88.678,562.236 81.81,585.035C80.848,588.221 80.026,591.935 79.319,595.956C74.993,620.713 75.092,657.377 75.092,657.377Z" fill="#2A4E96"/>
<path d="M96.755,630.756C99.278,620.996 102.877,608.446 107.998,592.853C122.16,549.758 126.467,524.548 126.86,522.16C126.856,522.088 126.852,522.021 126.844,521.949L83.3,502.833C83.3,502.833 88.683,562.228 81.814,585.027C80.857,588.213 96.755,630.756 96.755,630.756Z" fill="#233862"/>
<path d="M109.979,656.507C109.979,656.507 110.754,669.024 113.177,669.203C113.499,669.227 125.461,669.227 125.461,669.227L140.732,669.14C140.732,669.14 140.632,665.461 136.167,664.682C131.706,663.904 124.233,660.769 121.528,654.87C118.684,648.664 109.979,656.507 109.979,656.507Z" fill="#15447C"/>
<path d="M134.666,504.234C134.666,504.234 135.23,542.721 128.572,589.98C121.914,637.239 124.171,657.297 124.171,657.297C124.171,657.297 119.594,658.779 117.751,658.93C113.047,659.311 108.224,657.825 108.224,657.825C108.224,657.825 98.694,610.551 101.427,586.897C104.16,563.244 88.377,505.732 88.377,505.732L134.666,504.234Z" fill="#2A4E96"/>
<path d="M103.791,414.167L112.289,419.74L120.031,417.551C121.445,415.533 121.823,411.64 121.843,408.271C121.863,404.926 121.537,402.09 121.537,402.09L110.068,397.029L105.789,395.142C105.801,395.209 106.123,398.653 106.167,399.158C106.973,408.092 103.791,414.167 103.791,414.167Z" fill="#FFB27D"/>
<path d="M134.861,514.933C124.281,525.147 84.245,523.431 81.778,512.176C79.315,500.922 84.467,416.376 102.539,411.064C106.289,409.964 126.339,416.443 126.339,416.443C126.339,416.443 129.486,424.675 131.547,435.15C131.949,437.188 133.117,458.796 133.991,479.009C134.4,488.463 134.745,497.612 134.92,504.314C135.083,510.587 135.091,514.711 134.861,514.933Z" fill="#FF3874"/>
<path d="M107.032,399.317C109.36,403.25 117.52,406.694 121.846,408.272C121.866,404.927 121.54,402.09 121.54,402.09L110.071,397.029C107.537,396.993 105.995,397.561 107.032,399.317Z" fill="#FCA56B"/>
<path d="M125.866,401.391C125.866,401.391 107.389,407.156 103.977,395.595C100.564,384.035 95.881,376.991 107.532,372.824C119.184,368.657 122.791,372.387 124.869,375.97C126.947,379.546 130.586,399.592 125.866,401.391Z" fill="#FFB27D"/>
<path d="M124.143,374.85C124.143,374.85 122.963,388.305 120.182,387.721C117.401,387.137 114.338,385.886 114.743,389.942C115.153,393.998 112.038,400.95 108.026,400.934C99.421,400.898 90.073,378.818 92.429,374.631C99.226,362.55 133.967,360.111 124.143,374.85Z" fill="#163560"/>
<path d="M121.425,411.354C121.187,411.255 107.672,405.193 106.091,405.713C104.509,406.234 102.539,411.064 102.539,411.064L126.339,416.443C126.339,416.443 124.464,412.638 121.425,411.354Z" fill="#ED7D2B"/>
<path d="M205.574,476.834L129.808,548.171C128.322,549.57 126.451,550.015 125.645,549.161L123.086,546.443C122.284,545.589 122.84,543.746 124.326,542.347L200.092,471.01C201.578,469.612 203.449,469.167 204.255,470.021L206.814,472.739C207.616,473.593 207.06,475.436 205.574,476.834Z" fill="#1F4D84"/>
<path d="M163.055,516.867L129.808,548.171C128.322,549.57 126.451,550.015 125.645,549.161L123.086,546.443C122.284,545.589 122.84,543.746 124.326,542.347L157.573,511.043L163.055,516.867Z" fill="#739AF0"/>
<path d="M188.158,449.9C191.066,459.486 196.453,468.465 204.275,475.822C228.163,498.295 265.748,497.147 288.221,473.263C310.397,449.69 309.574,412.784 286.588,390.219C286.283,389.917 285.973,389.615 285.655,389.321C261.771,366.848 224.19,367.988 201.717,391.876C186.601,407.945 182.167,430.208 188.158,449.9ZM205.133,395.09C218.211,381.189 236.847,375.647 254.346,378.679C264.544,380.442 274.349,385.114 282.449,392.734C304.45,413.431 305.502,448.045 284.805,470.05C277.185,478.15 267.683,483.406 257.616,485.793C240.331,489.885 221.389,485.491 207.489,472.413C185.488,451.712 184.428,417.098 205.133,395.09Z" fill="#1F4D84"/>
<g opacity="0.5">
<g opacity="0.5">
<path d="M284.805,470.05C277.185,478.15 267.679,483.406 257.616,485.794C240.331,489.881 221.393,485.492 207.489,472.41C185.489,451.712 184.432,417.095 205.133,395.09C218.211,381.19 236.847,375.648 254.347,378.679C264.544,380.443 274.353,385.115 282.449,392.734C304.45,413.432 305.506,448.049 284.805,470.05Z" fill="#B3CFF9"/>
</g>
</g>
<path d="M134.92,504.314C93.172,474.567 96.644,434.868 96.644,434.868C111.903,443.473 127.043,462.502 133.991,479.008C134.4,488.459 134.746,497.612 134.92,504.314Z" fill="#D13463"/>
<path d="M176.125,490.764C179.068,490.085 181.047,487.86 181.456,487.471C181.456,487.471 182.711,487.558 181.249,490.236C181.126,490.458 180.856,491.034 180.65,491.443C180.566,491.61 180.681,491.805 180.868,491.817C182.568,491.948 184.277,491.273 187.546,491.956C187.999,492.051 188.13,493.132 188.11,493.593C188.082,494.371 188.138,495.249 187.232,496.445C186.704,497.14 185.234,497.887 181.957,499.206C180.709,499.706 177.138,499.329 173.793,498.181L171.119,496.942L171.949,491.976L172.621,492.115C173.693,492.341 175.012,491.038 176.125,490.764Z" fill="#FFB27D"/>
<path d="M109.602,416.443C109.602,416.443 72.093,423.586 120.639,477.908C128.401,486.596 170.352,497.907 170.352,497.907C170.352,497.907 174.607,494.288 172.462,491.356C172.462,491.356 143.577,470.38 137.224,467.047C134.364,465.545 126.129,433.569 121.469,425.87C116.805,418.171 109.602,416.443 109.602,416.443Z" fill="#FF3874"/>
<path d="M181.896,436.707C181.896,436.707 183.124,434.363 183.362,433.124C183.601,431.889 185.146,428.281 185.782,427.646C186.036,427.391 186.878,427.721 186.978,428.814C187.021,429.29 186.787,430.156 186.374,431.185C185.702,432.866 185.814,435.142 185.579,435.901C185.003,437.792 181.896,436.707 181.896,436.707Z" fill="#FFB27D"/>
<path d="M196.826,343.636C196.186,344.367 196.107,345.181 196.421,346.055C196.421,346.059 196.425,346.063 196.429,346.067C197.013,347.68 198.939,349.484 201.18,351.283C201.466,351.514 201.72,351.724 201.943,351.919C202.002,351.971 202.058,352.022 202.113,352.074C202.157,352.114 202.201,352.153 202.244,352.193C204.334,354.12 203.548,354.561 207.298,358.47C211.576,362.923 214.52,363.007 215.358,362.598C216.069,362.252 214.627,359.892 213.03,357.235C212.955,357.107 212.875,356.976 212.8,356.849C212.585,356.496 212.375,356.138 212.164,355.784C210.293,352.59 210.774,351.093 211.219,346.338C211.58,342.476 217.237,324.758 217.237,324.758L209.038,323.344C209.038,323.344 206.563,337.451 203.841,339.624C202.387,340.78 200.759,340.796 199.36,341.654C199.261,341.713 199.166,341.773 199.07,341.836C198.276,342.361 197.465,342.905 196.826,343.636Z" fill="#FFB27D"/>
<path d="M196.826,343.636C196.186,344.367 196.107,345.181 196.421,346.055C196.421,346.059 196.425,346.063 196.429,346.067C197.144,347.68 199.023,349.472 201.188,351.267C201.47,351.502 201.72,351.716 201.943,351.919C202.002,351.97 202.058,352.022 202.113,352.074C202.157,352.113 202.201,352.153 202.244,352.193C204.334,354.12 203.548,354.56 207.298,358.47C211.576,362.923 214.52,363.006 215.358,362.597C216.069,362.252 214.627,359.892 213.03,357.234C212.196,356.928 208.327,355.355 205.403,351.609C202.92,348.439 201.235,344.402 199.547,341.919C199.36,341.884 199.249,341.864 199.066,341.828C198.276,342.36 197.465,342.905 196.826,343.636Z" fill="#233862"/>
<path d="M262.954,338.535C263.459,341.065 267.07,340.644 271.098,339.663C275.13,338.678 274.173,339.85 279.91,339.218C285.646,338.586 287.386,336.445 287.561,335.595C287.716,334.836 284.883,334.57 281.844,334.22C281.463,334.177 281.078,334.129 280.692,334.081C277.26,333.648 274.745,331.432 271.627,329.612C268.675,327.888 264.269,320.864 264.269,320.864L256.399,321.484C256.399,321.484 260.527,327.757 262.124,330.482C263.062,332.087 263.014,334.208 262.895,335.845C262.831,336.735 262.772,337.645 262.954,338.535Z" fill="#FFB27D"/>
<path d="M271.098,339.663C275.13,338.678 274.173,339.85 279.909,339.218C285.646,338.587 287.386,336.445 287.561,335.595C287.716,334.836 284.883,334.57 281.844,334.221L281.816,334.28C281.816,334.28 278.376,336.72 273.601,336.831C269.708,336.926 265.588,335.806 262.898,335.85C262.839,336.739 262.779,337.649 262.958,338.543C263.459,341.07 267.066,340.648 271.098,339.663Z" fill="#233862"/>
<path d="M232.818,288.217L225.456,308.005L215.846,333.843C215.846,333.843 213.24,334.093 210.746,333.374C208.449,332.711 205.812,330.971 205.812,330.971C205.812,330.971 208.489,303.222 213.467,287.296C214.742,283.208 216.172,279.902 217.749,278.039C225.46,268.934 232.818,288.217 232.818,288.217Z" fill="#233862"/>
<path d="M225.349,256.781C221.162,255.431 210.237,256.754 198.386,258.895C195.113,259.487 191.812,257.989 190.087,255.145L160.269,252.805C160.269,252.805 150.42,274.622 155.803,288.531C156.594,290.577 158.33,291.852 161.016,291.896C161.016,291.896 179.036,291.927 184.8,291.927C199.63,291.931 216.188,281.745 218.329,281.316C221.833,280.617 223.235,287.629 226.739,294.99C230.243,302.352 259.68,327.602 259.68,327.602C259.68,327.602 264.205,327.649 266.076,326.946C268.087,326.191 268.821,325.214 268.821,325.214C268.821,325.214 236.214,260.289 225.349,256.781Z" fill="#2A4E96"/>
<path d="M186.954,167.576C184.741,166.257 182.58,166.054 181.257,166.09C180.336,166.118 179.418,166.054 178.508,165.923C167.126,164.251 160.27,180.781 159.864,185.774C159.125,194.943 154.271,196.342 147.442,202.082C133.744,213.595 137.757,226.975 145.241,231.952C149.734,234.936 157.652,231.956 157.652,231.956C157.763,232.036 179.311,219.923 189.929,214.079C205.852,211.819 193.35,171.385 186.954,167.576Z" fill="#233862"/>
<path d="M181.031,209.097C181.078,209.129 175.806,210.925 172.283,209.364C168.966,207.898 166.459,202.439 166.507,202.439C168.016,202.372 169.673,201.053 170.948,192.4L171.592,192.631L182.389,196.52C182.389,196.52 181.607,199.984 181.098,203.285C180.673,206.05 180.443,208.704 181.031,209.097Z" fill="#FFB27D"/>
<path d="M182.388,196.516C182.388,196.516 181.955,198.387 181.328,201.879C175.126,200.759 172.465,195.98 171.591,192.627L182.388,196.516Z" fill="#ED975D"/>
<path d="M183.997,199.956C183.997,199.956 169.223,197.966 170.602,188.785C171.98,179.604 171.003,173.161 180.497,174.043C189.988,174.925 191.291,178.702 191.577,181.881C191.859,185.059 187.875,200.238 183.997,199.956Z" fill="#FFB27D"/>
<path d="M191.037,176.848C191.037,176.848 181.574,184.996 175.142,185.651C168.707,186.307 166.271,184.241 166.271,184.241C166.271,184.241 170.065,181.095 172.35,176.014C173.021,174.516 174.443,173.487 176.08,173.348C180.676,172.951 189.384,172.772 191.037,176.848Z" fill="#233862"/>
<path d="M185.126,176.117C185.126,176.117 188.288,179.176 189.285,181.448C190.247,183.637 190.533,188.877 189.766,190.955C189.766,190.955 194.7,181.369 191.911,176.709C188.952,171.771 185.126,176.117 185.126,176.117Z" fill="#233862"/>
<path d="M193.465,230.868C193.008,260.778 193.334,254.529 190.06,257.365C189.27,258.049 187.057,258.454 184.137,258.648C174.964,259.252 158.843,257.739 158.231,256.042C156.118,250.175 157.611,248.355 155.852,239.377C155.669,238.424 155.442,237.387 155.172,236.262C153.702,230.097 152.272,227.995 157.496,218.092C162.236,209.117 167.154,201.835 167.599,202.098C180.089,209.519 181.098,203.286 181.098,203.286C181.098,203.286 193.691,216.28 193.465,230.868Z" fill="#FF3874"/>
<path d="M225.456,308.005L215.846,333.843C215.846,333.843 213.24,334.094 210.746,333.375C208.449,332.711 205.812,330.971 205.812,330.971C205.812,330.971 208.489,303.222 213.467,287.296L225.456,308.005Z" fill="#2A4E96"/>
<path d="M181.098,203.282C181.098,203.282 193.949,205.467 195.459,211.001C196.964,216.535 201.922,250.128 201.922,250.128C201.922,250.128 198.295,253.667 195.28,250.648C192.261,247.629 185.789,219.217 185.789,219.217L181.098,203.282Z" fill="#FF3874"/>
<path d="M184.141,258.648C174.968,259.252 158.847,257.739 158.235,256.042C156.122,250.175 157.615,248.355 155.855,239.377L160.285,226.923C160.285,226.923 159.55,240.795 163.638,244.442C167.722,248.093 180.383,251.49 182.373,254.541C183.326,256.003 183.958,257.469 184.141,258.648Z" fill="#D13463"/>
<path d="M173.633,252.809C173.633,252.809 182.683,250.799 184.14,251.601C185.598,252.404 189.166,255.332 189.615,256.349C190.06,257.366 186.365,255.574 185.161,255.252C184.383,255.042 182.333,255.753 181.316,256.094C177.045,257.517 174.427,256.782 174.427,256.782L173.633,252.809Z" fill="#FFB27D"/>
<path d="M167.591,202.09C167.591,202.09 155.442,202.833 151.231,208.7C145.308,216.956 133.549,252.145 140.279,256.841C147.859,262.129 174.777,258.235 174.777,258.235C174.777,258.235 175.675,254.048 174.428,252.022C173.18,249.996 152.928,246.719 151.994,245.781C151.061,244.847 163.686,227.554 163.686,224.75C163.694,221.945 167.591,202.09 167.591,202.09Z" fill="#FF3874"/>
<path d="M184.582,254.12C184.582,254.12 186.477,256.567 187.097,256.857C187.716,257.151 188.122,257.076 188.122,257.076L186.846,254.776L184.582,254.12Z" fill="#FFB27D"/>
<path d="M184.145,251.602L189.655,254.279C189.655,254.279 189.42,254.664 188.741,254.633C188.062,254.601 186.349,253.973 186.349,253.973L184.145,251.602Z" fill="#FFB27D"/>
<path d="M231.212,257.91L173.633,257.89L173.633,259.161L230.7,259.181L231.212,257.91Z" fill="#233862"/>
<path d="M187.097,259.165L230.7,259.181L243.826,226.57L200.29,226.554L187.097,259.165Z" fill="#233862"/>
<path d="M219.7,242.87C220.03,241.722 219.366,240.792 218.218,240.792C217.07,240.792 215.874,241.722 215.545,242.866C215.215,244.014 215.878,244.943 217.026,244.943C218.17,244.943 219.37,244.014 219.7,242.87Z" fill="#FFFFFF"/>
<path d="M514.794,382.166C508.918,380.216 504.854,382.679 504.854,382.679C487.943,383.374 487.315,400.711 489.297,407.162C492.086,416.224 482.218,423.367 493.163,427.034C505.859,431.288 516.514,426.239 515.787,428.432C555.935,431.594 528.154,386.604 514.794,382.166Z" fill="#163560"/>
<path d="M497.251,466.483C497.251,466.483 495.646,469.665 492.73,473.32C489.218,477.721 470.777,467.277 472.366,466.483C473.955,465.688 483.22,438.992 485.428,435.639C487.637,432.286 495.154,430.542 495.154,430.542L497.251,466.483Z" fill="#FF3874"/>
<path d="M559.479,646.527C559.479,646.527 564.568,651.171 563.575,654.472C562.581,657.773 557.989,659.974 557.369,664.007C556.75,668.039 554.267,670.24 552.03,670.24C549.798,670.24 541.376,670.24 541.376,670.24C541.376,670.24 539.731,667.399 543.704,666.545C547.676,665.691 549.174,660.952 548.924,656.55C548.677,652.148 549.297,646.285 549.297,646.285L557.739,644.33L559.479,646.527Z" fill="#1F447F"/>
<path d="M516.403,648.497C516.403,648.497 518.234,668.174 516.001,669.274L487.406,669.214C487.406,669.214 487.406,665.913 491.999,665.182C496.591,664.447 504.659,661.758 506.026,655.771C507.393,649.784 516.403,648.497 516.403,648.497Z" fill="#1C3154"/>
<path d="M538.4,453.21C538.4,453.21 538.825,459.216 538.4,466.427C538.118,471.206 533.283,477.606 532.596,479.191C530.875,483.163 528.933,483.807 528.933,483.807L513.92,487.486L508.641,488.777L491.991,483.803C491.991,483.803 484.407,462.641 487.454,450.727C490.497,438.813 495.149,430.538 495.149,430.538C495.149,430.538 506.464,427.995 526.422,429.41L538.4,453.21Z" fill="#FF3874"/>
<path d="M539.83,466.593C539.548,471.372 533.283,477.605 532.596,479.191C530.876,483.163 528.933,483.807 528.933,483.807L513.92,487.485L511.211,479.715C511.211,479.715 533.148,473.951 529.62,453.646L539.83,466.593Z" fill="#D13463"/>
<path d="M493.052,487.021C493.052,487.021 484.809,512.68 484.276,521.42C483.748,530.156 500.036,645.533 500.691,649.558C501.307,653.352 506.022,655.771 506.022,655.771C506.022,655.771 508.192,657.05 511.282,656.176C515.573,654.964 516.931,653.514 516.931,653.514C516.931,653.514 523.347,571.229 519.379,541.835C515.406,512.442 515.362,487.021 515.362,487.021L493.052,487.021L493.052,487.021Z" fill="#233862"/>
<path d="M527.983,486.254C527.983,486.254 540.56,503.126 541.732,514.535C542.904,525.941 543.572,566.005 546.07,577.124C548.569,588.244 557.746,609.645 557.746,644.326C557.746,644.326 556.793,646.312 553.849,647.373C552.907,647.711 551.644,648.04 550.42,648.322C547.993,648.878 545.498,647.691 544.39,645.462C538.185,632.972 518.425,592.681 517.408,584.319C516.693,578.4 510.452,539.229 496.837,516.248C493.568,510.73 498.843,488.784 498.843,488.784L527.983,486.254Z" fill="#2A4E96"/>
<path d="M491.737,483.06C491.737,483.06 495.046,485.678 501.621,485.809C509.474,485.968 528.933,483.806 528.933,483.806C528.933,483.806 529.799,486.222 529.763,488.772C529.763,488.772 505.994,494.767 492.225,489.646C492.225,489.65 490.449,486.309 491.737,483.06Z" fill="#233862"/>
<path d="M499.738,492.578C497.763,492.578 496.154,490.758 496.154,488.522C496.154,486.285 497.763,484.466 499.738,484.466C501.712,484.466 503.321,486.285 503.321,488.522C503.321,490.758 501.712,492.578 499.738,492.578ZM499.738,485.654C498.415,485.654 497.342,486.941 497.342,488.522C497.342,490.103 498.419,491.39 499.738,491.39C501.057,491.39 502.133,490.103 502.133,488.522C502.133,486.941 501.057,485.654 499.738,485.654Z" fill="#FFFFFF"/>
<path d="M516.907,499.955L481.185,500.289L463.606,458.977L499.328,458.644L516.907,499.955Z" fill="#B5453C"/>
<path d="M512.236,481.288L509.618,478.07C509.618,478.07 507.846,476.489 506.559,476.223C505.272,475.953 502.558,474.388 502.296,474.829C502.034,475.27 504.382,478.416 504.382,478.416L504.501,478.432C501.804,480.462 494.995,478.67 494.156,479.497C493.139,480.498 495.559,482.667 496.858,483.886C498.157,485.106 501.871,487.132 504.767,486.234C506.885,485.575 510.214,484.903 510.214,484.903L512.236,481.288Z" fill="#FFB27D"/>
<path d="M466.292,466.248C466.292,466.248 468.536,463.697 469.966,464.921C471.397,466.145 469.593,472.167 468.23,471.555C466.868,470.944 465.513,466.995 466.292,466.248Z" fill="#FFB27D"/>
<path d="M526.426,429.417C526.426,429.417 536.652,430.545 543.989,443.877C549.778,454.393 559.669,473.776 555.935,479.25C554.298,481.653 538.587,490.207 508.287,485.32C508.287,485.32 508.764,481.495 511.207,479.719C511.207,479.719 536.708,471.531 536.664,469.902C536.58,466.823 533.22,464.162 518.974,449.912C515.104,446.039 526.426,429.417 526.426,429.417Z" fill="#FF3874"/>
<path d="M518.556,429.958C518.906,429.485 518.457,427.983 517.893,425.186C517.384,422.652 516.522,418.731 516.538,414.321L515.783,414.448L503.11,416.582C503.11,416.582 503.4,419.97 503.408,423.164C503.408,423.192 503.408,423.216 503.408,423.244C503.424,426.017 502.661,430.208 503.595,430.752C508.398,433.565 517.201,431.769 518.556,429.958Z" fill="#FFB27D"/>
<path d="M503.11,416.578C503.11,416.578 503.361,421.357 503.373,424.547C510.464,424.376 514.25,417.491 515.787,414.444L503.11,416.578Z" fill="#E8945B"/>
<path d="M502.348,422.278C502.348,422.278 518.962,419.911 517.329,409.586C515.696,399.261 516.741,392.003 506.062,393.079C495.384,394.152 493.954,398.419 493.66,401.998C493.366,405.573 497.982,422.628 502.348,422.278Z" fill="#FFB27D"/>
<path d="M498.475,394.029C498.475,394.029 504.942,405.414 512.188,406.098C519.438,406.777 522.16,404.433 522.16,404.433C522.16,404.433 516.141,401.04 513.853,393.81C513.857,393.81 500.981,387.72 498.475,394.029Z" fill="#163560"/>
<path d="M499.757,394.831C499.757,394.831 496.595,396.627 495.598,399.301C494.625,401.915 493.977,405.279 494.867,409.133C494.867,409.133 490.136,401.446 493.238,396.178C496.524,390.593 499.757,394.831 499.757,394.831Z" fill="#163560"/>
</svg>
