<svg width="1842" height="1294" viewBox="0 0 1842 1294" fill="none" xmlns="http://www.w3.org/2000/svg" xmlns:xlink="http://www.w3.org/1999/xlink">
<path d="M120.311,1282C120.311,1282 -130.399,1001.848 131.052,757.946C421.64,486.88 147.087,183.597 436.618,75.622C844.896,-76.632 918.076,224.511 1375.288,149.858C1757.082,87.522 1748.974,574.584 1636.14,748.402C1542.584,892.522 1903.152,963.95 1718.596,1281.346L120.311,1282Z" fill="#ECEEFF"/>
<path d="M897.58,35.465C900.504,21.168 915.39,12.763 929.138,17.663C1020.304,50.172 1334.726,157.548 1605.864,193.299C1618.232,194.931 1626.848,206.374 1624.928,218.7L1467.19,1230.72C1465.03,1244.596 1452.078,1254.124 1438.188,1252.042C1324.566,1235.03 856.999,1163.302 695.793,1111.294C685.981,1108.128 680.147,1098.076 682.215,1087.976L897.58,35.465Z" transform="rotate(1.987 1153.498 634.293)" fill="#B9C4FE"/>
<g opacity="0.6">
<path d="M903.264,62.804C906.082,49.047 920.408,40.954 933.632,45.675C1021.366,76.957 1323.95,180.29 1584.876,214.697C1596.776,216.267 1605.068,227.279 1603.222,239.138L1451.426,1213.046C1449.342,1226.398 1436.878,1235.568 1423.516,1233.566C1314.174,1217.196 864.214,1148.168 709.078,1098.114C699.636,1095.066 694.023,1085.394 696.008,1075.674L903.264,62.804Z" transform="rotate(1.987 1149.545 639.081)" fill="#FFFFFF"/>
</g>
<g opacity="0.78">
<path d="M994.886,142.001C986.793,140 978.716,145.332 977.377,153.558L943.453,362.06C942.324,368.994 946.722,375.624 953.552,377.266C991.566,386.404 1110.114,414.422 1178.136,425.096C1185.828,426.302 1193.152,421.418 1195.008,413.854C1204.45,375.402 1231.016,263.284 1232.12,214.309C1232.3,206.397 1226.932,199.443 1219.25,197.54L994.886,142.001Z" transform="rotate(1.987 1087.7 283.429)" fill="#FFFFFF"/>
</g>
<path d="M1092.38,300.231C1117.433,300.231 1137.742,279.922 1137.742,254.869C1137.742,229.816 1117.433,209.506 1092.38,209.506C1067.327,209.506 1047.017,229.816 1047.017,254.869C1047.017,279.922 1067.327,300.231 1092.38,300.231Z" transform="rotate(1.987 1092.38 254.869)" fill="url(#pf_0_212_10)"/>
<path d="M995.647,370.58L1137.061,400.384C1145.733,402.211 1152.943,393.734 1149.813,385.441C1141.761,364.115 1122.451,331.206 1078.664,323.278C1036.463,315.638 1006.341,335.337 990.074,350.593C983.167,357.069 986.385,368.625 995.647,370.58Z" transform="rotate(1.987 1068.458 361.106)" fill="url(#pf_0_212_11)"/>
<g opacity="0.6">
<g opacity="0.6">
<path d="M1539.519,296.446C1543.947,297.38 1548.135,295.009 1548.827,291.176C1549.521,287.343 1546.477,283.376 1542.065,282.365L1295.137,225.708C1290.724,224.697 1287.599,227.54 1288.189,232.025L1288.666,235.643C1289.256,240.128 1293.362,244.566 1297.795,245.5L1539.519,296.446Z" transform="rotate(1.987 1418.522 261.077)" fill="#FFFFFF"/>
</g>
</g>
<g opacity="0.6">
<g opacity="0.6">
<path d="M1286.364,264.053C1281.951,263.042 1278.825,265.885 1279.416,270.37L1279.893,273.988C1280.483,278.472 1284.588,282.911 1289.022,283.845L1530.746,334.791C1535.174,335.725 1539.362,333.354 1540.054,329.521C1540.748,325.687 1537.704,321.721 1533.292,320.71L1286.364,264.053Z" transform="rotate(1.987 1409.749 299.421)" fill="#FFFFFF"/>
</g>
</g>
<g opacity="0.6">
<g opacity="0.6">
<path d="M1277.455,302.96C1273.042,301.949 1269.917,304.792 1270.507,309.277L1270.985,312.894C1271.575,317.379 1275.68,321.818 1280.114,322.752L1521.838,373.697C1526.266,374.631 1530.454,372.26 1531.146,368.427C1531.84,364.594 1528.796,360.627 1524.384,359.616L1277.455,302.96Z" transform="rotate(1.987 1400.84 338.328)" fill="#FFFFFF"/>
</g>
</g>
<g opacity="0.6">
<g opacity="0.6">
<path d="M1503.5,563.933C1507.928,564.867 1512.002,562.471 1512.558,558.607C1513.112,554.743 1509.94,550.792 1505.522,549.822L925.817,422.863C921.393,421.893 919.438,424.413 921.465,428.462L924.955,435.42C926.982,439.464 932.267,443.538 936.695,444.472L1503.5,563.933Z" transform="rotate(1.987 1216.642 493.395)" fill="#FFFFFF"/>
</g>
</g>
<g opacity="0.6">
<g opacity="0.6">
<path d="M917.039,461.213C912.616,460.244 910.661,462.763 912.688,466.812L916.177,473.77C918.204,477.814 923.49,481.888 927.918,482.822L1494.723,602.283C1499.151,603.217 1503.225,600.821 1503.781,596.957C1504.329,593.093 1501.163,589.142 1496.745,588.172L917.039,461.213Z" transform="rotate(1.987 1207.865 531.745)" fill="#FFFFFF"/>
</g>
</g>
<g opacity="0.6">
<path d="M900.29,520.028C914.478,521.901 940.726,526.915 955.161,529.748C961.278,530.948 965.758,536.208 965.937,542.438C966.286,554.538 965.906,575.341 960.96,596.421C959.477,602.733 953.211,606.705 946.884,605.299L893.896,593.532C887.379,592.085 883.007,585.948 883.772,579.318L889.632,528.372C890.232,523.102 895.03,519.336 900.29,520.028Z" transform="rotate(1.987 924.859 562.764)" fill="#FFFFFF"/>
</g>
<g opacity="0.6">
<g opacity="0.6">
<path d="M993.734,563.56C989.347,562.441 985.544,565.222 985.277,569.743L984.759,578.58C984.492,583.101 987.899,587.56 992.328,588.494L1121.313,615.68C1125.742,616.614 1130.083,613.746 1130.961,609.307L1131.392,607.121C1132.269,602.682 1129.401,598.136 1125.013,597.017L993.734,563.56Z" transform="rotate(1.987 1058.147 589.585)" fill="#FFFFFF"/>
</g>
</g>
<g opacity="0.6">
<path d="M1188.527,586.014C1202.716,587.887 1228.963,592.901 1243.398,595.733C1249.515,596.934 1253.995,602.194 1254.174,608.424C1254.523,620.524 1254.144,641.327 1249.197,662.407C1247.714,668.719 1241.453,672.69 1235.121,671.284L1182.133,659.518C1175.616,658.071 1171.249,651.934 1172.009,645.304L1177.869,594.358C1178.469,589.093 1183.267,585.321 1188.527,586.014Z" transform="rotate(1.987 1213.097 628.75)" fill="#FFFFFF"/>
</g>
<g opacity="0.6">
<g opacity="0.6">
<path d="M1281.974,629.546C1277.587,628.427 1273.784,631.208 1273.518,635.729L1272.999,644.566C1272.732,649.086 1276.14,653.546 1280.568,654.48L1409.554,681.666C1413.982,682.6 1418.323,679.732 1419.201,675.293L1419.632,673.107C1420.509,668.668 1417.641,664.122 1413.253,663.003L1281.974,629.546Z" transform="rotate(1.987 1346.387 655.57)" fill="#FFFFFF"/>
</g>
</g>
<path d="M931.133,733.857C931.087,733.847 931.046,733.837 930.999,733.827L882.091,723.03C875.102,721.485 870.34,715.451 871.007,708.99L875.364,666.963C875.62,664.495 876.872,662.268 878.889,660.687C881.147,658.922 884.164,658.147 887.166,658.568C891.353,659.158 897.275,659.887 903.541,660.662C916.734,662.288 933.155,664.315 942.258,666.116C948.852,667.471 953.614,672.546 953.958,678.607C954.522,688.582 950.53,706.404 946.035,725.334C944.572,731.487 937.906,735.284 931.133,733.857ZM886.632,662.376C884.657,662.098 882.702,662.586 881.26,663.715C880.069,664.644 879.335,665.937 879.187,667.358L874.83,709.385C874.363,713.901 877.837,718.15 882.917,719.274L931.826,730.07C931.856,730.075 931.892,730.086 931.923,730.091C936.67,731.091 941.309,728.577 942.289,724.446C946.717,705.803 950.648,688.285 950.114,678.822C949.873,674.583 946.291,670.909 941.509,669.888C932.544,668.118 916.2,666.101 903.069,664.479C896.788,663.705 890.856,662.971 886.632,662.376Z" transform="rotate(1.987 912.478 696.306)" fill="#FFFFFF"/>
<g opacity="0.6">
<path d="M891.006,667.715C901.449,669.182 924.304,671.625 934.947,673.729C939.458,674.622 942.829,678.168 943.06,682.288C943.512,690.294 940.058,705.334 936.769,719.189C935.783,723.34 931.247,725.86 926.578,724.834L887.491,716.202C882.683,715.14 879.378,711.014 879.83,706.642L883.314,673.057C883.678,669.588 887.137,667.171 891.006,667.715Z" transform="rotate(1.987 911.444 696.35)" fill="#FFFFFF"/>
</g>
<g opacity="0.6">
<g opacity="0.6">
<path d="M978.761,720.907C979.049,726.588 983.149,731.35 988.721,732.474L1442.977,824.174C1448.113,825.21 1453.111,821.844 1454.081,816.692C1455.027,811.683 1451.803,806.834 1446.821,805.762L993.802,708.125C985.807,706.401 978.351,712.738 978.761,720.907Z" transform="rotate(1.987 1216.495 766.101)" fill="#FFFFFF"/>
</g>
</g>
<path d="M891.926,674.737C896.015,673.367 900.428,675.63 901.706,679.745L907.72,699.112C908.321,701.051 910.876,701.472 912.072,699.835L947.294,651.512C949.049,649.1 952.826,650.839 952.169,653.744C948.485,670.021 937.611,700.143 906.047,720.623C906.047,720.623 892.849,712.007 886.63,684.143C885.737,680.12 888.015,676.045 891.926,674.737Z" transform="rotate(1.987 919.341 685.498)" fill="url(#pf_0_212_33)"/>
<path d="M907.176,838.495C907.13,838.484 907.089,838.474 907.042,838.464L858.134,827.667C851.145,826.123 846.383,820.088 847.05,813.627L851.407,771.6C851.663,769.132 852.915,766.905 854.932,765.325C857.19,763.559 860.207,762.784 863.209,763.205C867.396,763.795 873.318,764.524 879.584,765.299C892.777,766.926 909.198,768.952 918.301,770.754C918.368,770.769 918.434,770.779 918.501,770.795C924.946,772.154 929.662,777.245 930.006,783.244C930.57,793.219 926.578,811.041 922.083,829.971C920.615,836.119 913.949,839.921 907.176,838.495ZM862.675,767.013C860.7,766.736 858.745,767.223 857.303,768.352C856.112,769.281 855.378,770.574 855.23,771.995L850.873,814.022C850.406,818.538 853.88,822.787 858.96,823.911L907.869,834.708C907.899,834.713 907.935,834.723 907.966,834.728C912.713,835.729 917.352,833.214 918.332,829.083C922.76,810.436 926.691,792.922 926.157,783.459C925.916,779.221 922.293,775.444 917.552,774.525C908.587,772.755 892.243,770.738 879.112,769.117C872.831,768.337 866.899,767.608 862.675,767.013Z" transform="rotate(1.987 888.524 800.944)" fill="#FFFFFF"/>
<g opacity="0.6">
<path d="M867.057,772.352C877.499,773.82 900.355,776.262 910.998,778.366C915.508,779.259 918.88,782.805 919.111,786.926C919.562,794.931 916.109,809.971 912.82,823.826C911.834,827.978 907.298,830.497 902.628,829.471L863.542,820.84C858.734,819.778 855.429,815.652 855.88,811.28L859.365,777.694C859.724,774.22 863.183,771.808 867.057,772.352Z" transform="rotate(1.987 887.495 800.988)" fill="#FFFFFF"/>
</g>
<g opacity="0.6">
<g opacity="0.6">
<path d="M954.808,825.545C955.095,831.226 959.195,835.988 964.768,837.112L1419.024,928.811C1424.16,929.848 1429.158,926.482 1430.128,921.33C1431.072,916.321 1427.85,911.472 1422.868,910.4L969.848,812.762C961.854,811.038 954.398,817.376 954.808,825.545Z" transform="rotate(1.987 1192.542 870.738)" fill="#FFFFFF"/>
</g>
</g>
<path d="M867.968,779.374C872.058,778.004 876.471,780.267 877.749,784.382L883.763,803.749C884.364,805.688 886.919,806.109 888.115,804.472L923.337,756.149C925.092,753.737 928.869,755.477 928.212,758.381C924.528,774.658 913.654,804.78 882.09,825.26C882.09,825.26 868.892,816.644 862.673,788.78C861.78,784.752 864.058,780.683 867.968,779.374Z" transform="rotate(1.987 895.384 790.135)" fill="url(#pf_0_212_38)"/>
<path d="M883.219,943.127C883.173,943.116 883.132,943.106 883.085,943.096L834.177,932.299C827.188,930.76 822.426,924.725 823.093,918.265L827.45,876.238C827.706,873.769 828.958,871.542 830.975,869.962C833.233,868.196 836.25,867.422 839.252,867.842C843.439,868.433 849.361,869.161 855.627,869.936C868.82,871.563 885.241,873.59 894.344,875.391C894.411,875.406 894.477,875.417 894.544,875.432C900.989,876.792 905.705,881.882 906.049,887.881C906.613,897.857 902.621,915.678 898.126,934.608C896.658,940.756 889.992,944.558 883.219,943.127ZM838.718,871.65C836.743,871.373 834.788,871.86 833.346,872.989C832.155,873.918 831.421,875.211 831.273,876.633L826.916,918.66C826.449,923.175 829.923,927.424 835.003,928.543L883.912,939.345C883.942,939.35 883.978,939.36 884.009,939.365C888.756,940.366 893.395,937.846 894.375,933.721C898.803,915.078 902.734,897.559 902.2,888.096C901.959,883.858 898.336,880.071 893.595,879.163C884.63,877.392 868.286,875.375 855.155,873.754C848.874,872.974 842.942,872.24 838.718,871.65Z" transform="rotate(1.987 864.567 905.579)" fill="#FFFFFF"/>
<g opacity="0.6">
<path d="M843.1,876.989C853.542,878.457 876.398,880.9 887.041,883.004C891.551,883.896 894.923,887.442 895.154,891.563C895.605,899.568 892.152,914.608 888.863,928.464C887.877,932.615 883.341,935.134 878.671,934.108L839.585,925.477C834.776,924.415 831.472,920.289 831.923,915.917L835.408,882.331C835.767,878.857 839.225,876.445 843.1,876.989Z" transform="rotate(1.987 863.538 905.625)" fill="#FFFFFF"/>
</g>
<g opacity="0.6">
<g opacity="0.6">
<path d="M930.855,930.181C931.142,935.862 935.242,940.624 940.815,941.748L1395.071,1033.448C1400.207,1034.484 1405.205,1031.118 1406.175,1025.966C1407.119,1020.957 1403.897,1016.108 1398.915,1015.036L945.895,917.399C937.9,915.675 930.449,922.012 930.855,930.181Z" transform="rotate(1.987 1168.589 975.375)" fill="#FFFFFF"/>
</g>
</g>
<path d="M844.013,884.011C848.103,882.641 852.516,884.904 853.794,889.02L859.808,908.386C860.409,910.326 862.964,910.746 864.16,909.11L899.382,860.786C901.137,858.374 904.914,860.114 904.257,863.018C900.573,879.295 889.699,909.417 858.135,929.897C858.135,929.897 844.937,921.281 838.718,893.417C837.825,889.389 840.103,885.32 844.013,884.011Z" transform="rotate(1.987 871.429 894.772)" fill="url(#pf_0_212_43)"/>
<path d="M859.264,1047.763C859.218,1047.753 859.177,1047.743 859.13,1047.737L810.222,1036.941C803.233,1035.401 798.471,1029.367 799.138,1022.906L803.495,980.879C803.751,978.411 805.003,976.184 807.02,974.603C809.278,972.838 812.295,972.063 815.297,972.484C819.484,973.074 825.406,973.803 831.672,974.578C844.865,976.204 861.286,978.231 870.389,980.032C870.456,980.048 870.522,980.058 870.589,980.073C877.034,981.433 881.75,986.524 882.094,992.522C882.658,1002.498 878.666,1020.32 874.171,1039.25C872.708,1045.392 866.037,1049.195 859.264,1047.763ZM814.763,976.286C812.788,976.009 810.833,976.497 809.391,977.626C808.2,978.555 807.466,979.848 807.318,981.269L802.961,1023.296C802.494,1027.812 805.968,1032.061 811.048,1033.179L859.957,1043.981C859.987,1043.986 860.023,1043.997 860.054,1044.002C864.801,1045.002 869.44,1042.488 870.425,1038.357C874.853,1019.714 878.784,1002.195 878.25,992.733C878.009,988.494 874.391,984.692 869.645,983.799C860.68,982.029 844.336,980.012 831.205,978.39C824.919,977.61 818.987,976.877 814.763,976.286Z" transform="rotate(1.987 840.612 1010.218)" fill="#FFFFFF"/>
<g opacity="0.6">
<path d="M819.147,981.626C829.589,983.094 852.445,985.536 863.088,987.64C867.598,988.533 870.97,992.079 871.201,996.2C871.652,1004.205 868.199,1019.245 864.909,1033.1C863.924,1037.252 859.388,1039.771 854.718,1038.745L815.632,1030.114C810.823,1029.051 807.519,1024.926 807.97,1020.554L811.455,986.968C811.814,983.494 815.272,981.082 819.147,981.626Z" transform="rotate(1.987 839.585 1010.262)" fill="#FFFFFF"/>
</g>
<g opacity="0.6">
<g opacity="0.6">
<path d="M906.896,1034.819C907.183,1040.499 911.283,1045.261 916.856,1046.385L1371.112,1138.085C1376.248,1139.121 1381.246,1135.755 1382.216,1130.603C1383.156,1125.595 1379.938,1120.746 1374.956,1119.673L921.936,1022.036C913.941,1020.312 906.49,1026.644 906.896,1034.819Z" transform="rotate(1.987 1144.629 1080.012)" fill="#FFFFFF"/>
</g>
</g>
<path d="M820.058,988.647C824.148,987.277 828.561,989.54 829.839,993.656L835.853,1013.022C836.454,1014.962 839.009,1015.383 840.205,1013.746L875.427,965.422C877.182,963.011 880.959,964.75 880.302,967.655C876.618,983.932 865.744,1014.054 834.18,1034.533C834.18,1034.533 820.982,1025.918 814.763,998.054C813.87,994.025 816.148,989.956 820.058,988.647Z" transform="rotate(1.987 847.474 999.408)" fill="url(#pf_0_212_48)"/>
<path d="M214.209,164.333C211.222,150.047 221.547,136.428 236.11,135.469C332.69,129.126 663.908,102.899 926.968,28.107C938.966,24.695 951.414,31.781 954.546,43.856L1211.398,1035.364C1214.918,1048.958 1206.81,1062.844 1193.236,1066.446C1082.196,1095.926 624.558,1215.644 455.954,1231.886C445.69,1232.876 436.346,1225.964 434.236,1215.87L214.209,164.333Z" transform="rotate(1.987 712.956 629.615)" fill="#B9C4FE"/>
<g opacity="0.6">
<path d="M230.29,187.158C227.411,173.411 237.356,160.3 251.37,159.381C344.312,153.275 663.06,128.038 916.212,56.064C927.758,52.779 939.74,59.599 942.748,71.217L1189.926,1025.389C1193.314,1038.475 1185.514,1051.831 1172.448,1055.301C1065.59,1083.667 625.184,1198.885 462.926,1214.511C453.054,1215.459 444.058,1208.809 442.026,1199.101L230.29,187.158Z" transform="rotate(1.987 710.254 634.919)" fill="#FFFFFF"/>
</g>
<g opacity="0.78">
<path d="M334.554,240.582L386.162,445.425C387.881,452.241 394.547,456.577 401.469,455.375C439.986,448.679 559.919,427.347 626.593,410.153C634.137,408.207 638.913,400.813 637.615,393.135C631.021,354.09 610.911,240.643 592.489,195.25C589.513,187.917 581.825,183.663 574.021,184.966L346.039,223.027C337.813,224.402 332.517,232.5 334.554,240.582Z" transform="rotate(1.987 485.972 320.154)" fill="#FFFFFF"/>
</g>
<path d="M480.389,333.321C505.442,333.321 525.751,313.011 525.751,287.958C525.751,262.905 505.442,242.596 480.389,242.596C455.336,242.596 435.027,262.905 435.027,287.958C435.027,313.011 455.336,333.321 480.389,333.321Z" transform="rotate(-170.215 480.389 287.958)" fill="#8584FF"/>
<path d="M437.548,432.65L579.177,403.882C587.86,402.117 591.113,391.474 584.955,385.106C569.104,368.726 538.315,346.184 494.98,356.288C453.209,366.022 433.386,396.062 424.504,416.516C420.727,425.199 428.27,434.533 437.548,432.65Z" transform="rotate(1.987 505.821 393.334)" fill="#8584FF"/>
<g opacity="0.6">
<g opacity="0.6">
<path d="M907.273,148.659C911.707,147.756 914.611,143.917 913.729,140.125C912.841,136.333 908.473,133.901 904.025,134.722L654.89,180.715C650.441,181.536 648.696,185.385 651.021,189.269L652.894,192.4C655.218,196.284 660.745,198.727 665.184,197.824L907.273,148.659Z" transform="rotate(1.987 781.938 166.287)" fill="#FFFFFF"/>
</g>
</g>
<g opacity="0.6">
<g opacity="0.6">
<path d="M662.044,219.403C657.595,220.224 655.851,224.073 658.175,227.958L660.048,231.088C662.373,234.972 667.899,237.415 672.338,236.512L914.433,187.342C918.865,186.439 921.771,182.6 920.887,178.808C919.999,175.016 915.633,172.584 911.183,173.405L662.044,219.403Z" transform="rotate(1.987 789.095 204.972)" fill="#FFFFFF"/>
</g>
</g>
<g opacity="0.6">
<g opacity="0.6">
<path d="M669.31,258.648C664.861,259.469 663.116,263.317 665.441,267.202L667.314,270.332C669.638,274.217 675.165,276.659 679.604,275.756L921.698,226.586C926.13,225.683 929.036,221.845 928.152,218.053C927.264,214.26 922.898,211.828 918.448,212.649L669.31,258.648Z" transform="rotate(1.987 796.361 244.217)" fill="#FFFFFF"/>
</g>
</g>
<g opacity="0.6">
<g opacity="0.6">
<path d="M980.369,408.471C984.803,407.568 987.593,403.755 986.567,399.989C985.541,396.222 981.067,393.851 976.623,394.719L394.142,508.253C389.698,509.12 388.902,512.209 392.371,515.114L398.334,520.117C401.803,523.027 408.269,524.669 412.702,523.765L980.369,408.471Z" transform="rotate(1.987 688.496 459.277)" fill="#FFFFFF"/>
</g>
</g>
<g opacity="0.6">
<g opacity="0.6">
<path d="M401.304,546.936C396.86,547.804 396.064,550.893 399.533,553.797L405.496,558.801C408.965,561.71 415.431,563.352 419.864,562.449L987.532,447.149C991.966,446.246 994.756,442.433 993.73,438.667C992.704,434.9 988.23,432.53 983.786,433.397L401.304,546.936Z" transform="rotate(1.987 695.658 497.957)" fill="#FFFFFF"/>
</g>
</g>
<g opacity="0.6">
<path d="M409.319,607.577C423.081,603.667 449.17,597.853 463.538,594.723C469.629,593.399 475.823,596.447 478.466,602.091C483.592,613.057 491.494,632.306 495.323,653.622C496.467,660.005 492.295,666.133 485.927,667.359L432.621,677.591C426.068,678.848 419.618,674.954 417.688,668.565L402.848,619.477C401.308,614.392 404.218,609.029 409.319,607.577Z" transform="rotate(1.987 448.974 636.121)" fill="#FFFFFF"/>
</g>
<g opacity="0.6">
<g opacity="0.6">
<path d="M512.304,610.443C507.835,611.156 505.448,615.22 506.998,619.474L510.026,627.787C511.575,632.041 516.471,634.781 520.91,633.883L650.09,607.646C654.524,606.743 657.372,602.386 656.417,597.963L655.945,595.787C654.991,591.364 650.552,588.331 646.082,589.044L512.304,610.443Z" transform="rotate(1.987 581.563 611.497)" fill="#FFFFFF"/>
</g>
</g>
<g opacity="0.6">
<path d="M700.072,553.758C713.834,549.847 739.923,544.034 754.296,540.903C760.387,539.579 766.581,542.627 769.224,548.272C774.35,559.238 782.253,578.486 786.081,599.803C787.225,606.186 783.053,612.313 776.685,613.54L723.379,623.772C716.826,625.029 710.376,621.134 708.446,614.746L693.606,565.658C692.061,560.572 694.971,555.205 700.072,553.758Z" transform="rotate(1.987 739.731 582.302)" fill="#FFFFFF"/>
</g>
<g opacity="0.6">
<g opacity="0.6">
<path d="M803.056,556.623C798.587,557.336 796.2,561.4 797.75,565.654L800.778,573.967C802.327,578.221 807.223,580.961 811.662,580.063L940.842,553.826C945.276,552.923 948.124,548.566 947.169,544.143L946.697,541.967C945.743,537.544 941.304,534.506 936.834,535.224L803.056,556.623Z" transform="rotate(1.987 872.315 557.676)" fill="#FFFFFF"/>
</g>
</g>
<path d="M522.495,791.577C522.449,791.587 522.408,791.597 522.362,791.602L473.186,801.101C466.161,802.455 459.393,798.807 457.443,792.613L444.763,752.31C444.019,749.945 444.286,747.405 445.507,745.152C446.877,742.632 449.34,740.729 452.265,739.918C456.345,738.794 462.066,737.116 468.122,735.341C480.879,731.6 496.755,726.94 505.823,724.98C512.412,723.61 518.8,726.376 521.52,731.8C525.995,740.734 529.407,758.673 532.794,777.834C533.897,784.064 529.284,790.196 522.495,791.577ZM453.286,743.628C451.362,744.156 449.761,745.383 448.884,746.989C448.16,748.313 448.001,749.796 448.427,751.156L461.107,791.459C462.467,795.79 467.347,798.309 472.453,797.324L521.628,787.826C521.659,787.82 521.694,787.81 521.725,787.805C526.482,786.84 529.741,782.689 529.002,778.507C525.666,759.633 522.32,741.996 518.077,733.524C516.173,729.727 511.426,727.782 506.633,728.741C497.7,730.671 481.9,735.31 469.204,739.03C463.134,740.811 457.397,742.494 453.286,743.628Z" transform="rotate(1.987 488.653 763.007)" fill="#FFFFFF"/>
<g opacity="0.6">
<path d="M459.416,746.794C469.582,743.998 491.534,737.168 502.136,734.879C506.626,733.909 511.131,735.828 512.979,739.518C516.571,746.687 519.367,761.86 521.846,775.885C522.59,780.087 519.429,784.203 514.734,785.106L475.437,792.696C470.603,793.63 465.933,791.151 464.614,786.964L454.48,754.753C453.433,751.423 455.65,747.831 459.416,746.794Z" transform="rotate(1.987 488.087 763.761)" fill="#FFFFFF"/>
</g>
<g opacity="0.6">
<g opacity="0.6">
<path d="M561.016,760.821C563.531,765.922 569.186,768.662 574.748,767.487L1028.091,671.379C1033.217,670.292 1036.471,665.222 1035.311,660.105C1034.187,655.133 1029.307,651.962 1024.309,652.952L569.745,743.123C561.724,744.714 557.398,753.488 561.016,760.821Z" transform="rotate(1.987 797.635 710.264)" fill="#FFFFFF"/>
</g>
</g>
<path d="M542.037,897.127C541.991,897.137 541.95,897.148 541.903,897.153L492.723,906.651C485.698,908.006 478.93,904.357 476.98,898.164L464.3,857.856C463.556,855.49 463.822,852.95 465.049,850.697C466.419,848.178 468.882,846.274 471.807,845.463C475.887,844.339 481.608,842.661 487.663,840.886C500.42,837.145 516.297,832.486 525.365,830.525C525.431,830.51 525.498,830.495 525.56,830.484C532.015,829.176 538.368,831.978 541.057,837.35C545.531,846.284 548.944,864.224 552.331,883.385C553.434,889.615 548.826,895.747 542.037,897.127ZM472.828,849.178C470.904,849.707 469.303,850.933 468.425,852.54C467.702,853.863 467.543,855.346 467.969,856.706L480.649,897.009C482.008,901.34 486.889,903.86 491.994,902.874L541.17,893.376C541.2,893.371 541.236,893.361 541.267,893.355C546.024,892.391 549.283,888.239 548.544,884.057C545.208,865.184 541.862,847.546 537.619,839.074C535.715,835.282 530.891,833.255 526.175,834.292C517.247,836.221 501.442,840.86 488.746,844.58C482.676,846.361 476.933,848.044 472.828,849.178Z" transform="rotate(1.987 508.19 868.549)" fill="#FFFFFF"/>
<g opacity="0.6">
<path d="M478.957,852.345C489.122,849.548 511.075,842.718 521.677,840.429C526.167,839.459 530.672,841.379 532.519,845.068C536.112,852.237 538.908,867.411 541.387,881.435C542.131,885.638 538.97,889.753 534.274,890.656L494.977,898.246C490.144,899.18 485.474,896.707 484.155,892.514L474.02,860.304C472.969,856.973 475.19,853.381 478.957,852.345Z" transform="rotate(1.987 507.627 869.311)" fill="#FFFFFF"/>
</g>
<g opacity="0.6">
<g opacity="0.6">
<path d="M580.555,866.372C583.07,871.472 588.725,874.213 594.287,873.037L1047.63,776.93C1052.756,775.842 1056.01,770.772 1054.85,765.656C1053.726,760.683 1048.846,757.512 1043.848,758.502L589.284,848.673C581.263,850.264 576.938,859.039 580.555,866.372Z" transform="rotate(1.987 817.174 815.814)" fill="#FFFFFF"/>
</g>
</g>
<path d="M561.576,1002.672C561.53,1002.682 561.489,1002.693 561.443,1002.698L512.268,1012.196C505.243,1013.556 498.475,1009.908 496.525,1003.709L483.845,963.406C483.101,961.04 483.367,958.495 484.594,956.242C485.964,953.723 488.427,951.819 491.352,951.013C495.432,949.89 501.153,948.212 507.208,946.436C519.965,942.695 535.842,938.036 544.909,936.076C544.976,936.06 545.043,936.045 545.104,936.035C551.56,934.726 557.913,937.528 560.601,942.9C565.076,951.834 568.489,969.774 571.875,988.935C572.974,995.165 568.36,1001.297 561.576,1002.672ZM492.368,954.723C490.444,955.252 488.843,956.478 487.965,958.085C487.242,959.408 487.083,960.891 487.509,962.251L500.188,1002.554C501.548,1006.885 506.428,1009.405 511.534,1008.419L560.714,998.921C560.745,998.916 560.781,998.906 560.812,998.901C565.569,997.936 568.827,993.784 568.088,989.602C564.753,970.729 561.407,953.092 557.163,944.62C555.26,940.827 550.431,938.785 545.72,939.837C536.791,941.766 520.986,946.405 508.291,950.126C502.21,951.911 496.473,953.595 492.368,954.723Z" transform="rotate(1.987 527.734 974.098)" fill="#FFFFFF"/>
<g opacity="0.6">
<path d="M498.498,957.895C508.664,955.098 530.616,948.268 541.218,945.98C545.708,945.01 550.213,946.929 552.061,950.619C555.653,957.787 558.45,972.961 560.928,986.985C561.672,991.188 558.511,995.304 553.816,996.207L514.519,1003.796C509.685,1004.73 505.015,1002.252 503.697,998.064L493.562,965.854C492.51,962.518 494.727,958.932 498.498,957.895Z" transform="rotate(1.987 527.168 974.861)" fill="#FFFFFF"/>
</g>
<g opacity="0.6">
<g opacity="0.6">
<path d="M600.094,971.922C602.609,977.023 608.264,979.768 613.826,978.588L1067.169,882.48C1072.295,881.392 1075.549,876.322 1074.389,871.206C1073.265,866.234 1068.385,863.062 1063.387,864.053L608.823,954.223C600.803,955.814 596.472,964.589 600.094,971.922Z" transform="rotate(1.987 836.712 921.366)" fill="#FFFFFF"/>
</g>
</g>
<path d="M581.118,1108.224C581.071,1108.234 581.03,1108.244 580.984,1108.249L531.809,1117.748C524.784,1119.108 518.016,1115.459 516.066,1109.26L503.386,1068.952C502.642,1066.587 502.908,1064.041 504.135,1061.789C505.505,1059.269 507.968,1057.365 510.893,1056.56C514.973,1055.436 520.694,1053.758 526.749,1051.982C539.506,1048.242 555.383,1043.582 564.45,1041.622C564.517,1041.606 564.584,1041.591 564.645,1041.581C571.101,1040.272 577.454,1043.074 580.143,1048.447C584.617,1057.381 588.03,1075.32 591.416,1094.481C592.515,1100.716 587.901,1106.848 581.118,1108.224ZM511.904,1060.275C509.98,1060.803 508.379,1062.03 507.501,1063.636C506.778,1064.96 506.618,1066.443 507.044,1067.803L519.724,1108.106C521.084,1112.437 525.964,1114.956 531.07,1113.971L580.25,1104.473C580.281,1104.467 580.317,1104.457 580.348,1104.452C585.105,1103.487 588.363,1099.336 587.624,1095.154C584.289,1076.28 580.943,1058.643 576.699,1050.171C574.796,1046.374 569.967,1044.321 565.256,1045.388C556.327,1047.318 540.522,1051.957 527.827,1055.677C521.751,1057.463 516.014,1059.146 511.904,1060.275Z" transform="rotate(1.987 547.275 1079.647)" fill="#FFFFFF"/>
<g opacity="0.6">
<path d="M518.037,1063.445C528.203,1060.649 550.155,1053.819 560.757,1051.53C565.247,1050.56 569.753,1052.479 571.6,1056.169C575.192,1063.338 577.989,1078.511 580.467,1092.536C581.211,1096.738 578.05,1100.854 573.355,1101.757L534.058,1109.347C529.224,1110.28 524.554,1107.802 523.236,1103.615L513.101,1071.404C512.049,1068.069 514.266,1064.482 518.037,1063.445Z" transform="rotate(1.987 546.708 1080.411)" fill="#FFFFFF"/>
</g>
<g opacity="0.6">
<g opacity="0.6">
<path d="M619.629,1077.472C622.143,1082.573 627.798,1085.313 633.361,1084.138L1086.702,988.03C1091.828,986.942 1095.082,981.872 1093.922,976.756C1092.798,971.784 1087.918,968.613 1082.92,969.603L628.357,1059.774C620.342,1061.364 616.011,1070.139 619.629,1077.472Z" transform="rotate(1.987 856.248 1026.915)" fill="#FFFFFF"/>
</g>
</g>
<path d="M521.702,1069.446C524.909,1066.567 529.861,1066.89 532.668,1070.164L545.877,1085.553C547.201,1087.093 549.71,1086.467 550.156,1084.491L563.308,1026.156C563.965,1023.247 568.117,1023.339 568.671,1026.274C571.745,1042.674 573.72,1074.639 552.881,1105.961C552.881,1105.961 537.348,1103.288 520.578,1080.181C518.156,1076.84 518.634,1072.196 521.702,1069.446Z" transform="rotate(1.987 544.806 1064.992)" fill="url(#pf_0_212_88)"/>
<path d="M503.874,1016.478C508.374,1063.714 518.944,1126.168 531.646,1179.982L539.62,1179.982C523.194,1115.038 508.082,1026.1 512.53,923.576C517.02,820.188 542.34,694.656 495.124,634.695C455.828,584.786 289.075,577.324 234.244,576.226C227.394,576.088 223.468,583.98 227.733,589.348C248.756,615.8 292.774,677.055 296.608,730.551C301.662,801.058 356.461,856.396 410.907,879.43C465.362,902.466 494.684,920.036 503.874,1016.478Z" transform="rotate(1.987 382.79 878.104)" fill="#8584FF"/>
<g opacity="0.5">
<path d="M304.406,620.174C338.135,628.733 370.038,644.122 397.948,665.197C411.931,675.691 424.601,688.027 435.531,701.795C446.343,715.64 455.421,730.978 461.722,747.45L464.057,753.634C464.822,755.702 465.391,757.831 466.063,759.93C466.684,762.034 467.387,764.158 467.942,766.247L469.609,772.512C471.852,780.861 474.048,789.226 476.162,797.605C480.416,814.365 484.403,831.196 488.124,848.078C495.59,881.85 502.01,915.846 506.341,950.222C506.443,951.048 505.859,951.796 505.037,951.904C504.241,952.008 503.513,951.464 503.369,950.684L503.359,950.638C500.28,933.718 496.873,916.794 493.148,899.974C489.499,883.132 485.645,866.332 481.612,849.578L475.48,824.468L469.065,799.427C466.931,791.078 464.714,782.755 462.456,774.437L460.778,768.197C460.219,766.113 459.552,764.143 458.946,762.111C458.31,760.099 457.776,758.047 457.053,756.066L454.846,750.124C448.924,734.278 440.196,719.601 430.02,706.08C424.781,699.43 419.305,692.928 413.224,686.991L410.987,684.723L408.662,682.542C407.108,681.095 405.589,679.607 403.998,678.19C400.786,675.404 397.604,672.571 394.238,669.954C380.973,659.24 366.405,650.152 351.262,642.177C336.119,634.224 320.185,627.501 303.836,622.529L303.759,622.503C303.123,622.308 302.759,621.636 302.954,620.995C303.138,620.374 303.785,620.015 304.406,620.174Z" transform="rotate(1.987 404.627 786.027)" fill="#FFFFFF"/>
</g>
<path d="M502.585,1080.173C531.105,1122.04 527.441,1145.472 528.319,1165.314C528.473,1168.84 528.669,1173.818 529.079,1179.704L536.869,1179.704C535.277,1171.626 534.149,1163.482 533.749,1155.494C530.977,1100.689 518.611,1007.152 471.349,951.203C424.089,895.249 372.337,890.143 307.126,941.012C252.784,983.398 218.885,1004.791 199.005,1008.768C194.084,1009.753 191.57,1015.311 193.966,1019.724C206.718,1043.206 242.767,1097.143 303.293,1093.345C380.496,1088.496 474.069,1038.305 502.585,1080.173Z" transform="rotate(1.987 364.959 1042.774)" fill="#01008A"/>
<g opacity="0.5">
<path d="M329.36,1009.482C333.629,1005.418 338.155,1001.754 342.825,998.219C347.495,994.693 352.303,991.337 357.311,988.274C367.292,982.111 377.945,976.851 389.285,973.228C394.956,971.437 400.8,970.057 406.779,969.298C412.752,968.574 418.863,968.477 424.919,969.226C426.427,969.472 427.951,969.616 429.444,969.949C430.928,970.298 432.462,970.586 433.899,970.996L442.407,973.634L450.735,976.872L458.807,980.751C469.388,986.329 478.958,993.862 486.922,1002.734C494.948,1011.586 501.229,1021.783 506.396,1032.348L508.336,1036.315C509.003,1037.629 509.486,1039.019 510.066,1040.369C511.164,1043.094 512.344,1045.783 513.37,1048.528L516.234,1056.836C517.25,1059.586 517.896,1062.445 518.717,1065.246C521.955,1076.479 524.182,1087.928 526.107,1099.391C526.214,1100.033 525.783,1100.638 525.142,1100.746C524.531,1100.849 523.951,1100.459 523.808,1099.869L523.797,1099.833C521.078,1088.6 518.461,1077.352 514.725,1066.468C513.026,1060.972 510.876,1055.651 508.88,1050.283C507.803,1047.63 506.571,1045.049 505.432,1042.432C504.826,1041.139 504.318,1039.799 503.636,1038.547L501.645,1034.765C496.38,1024.672 489.986,1015.209 482.35,1006.937C474.709,998.665 465.642,991.835 455.713,986.611L448.098,983.004L440.21,979.987L432.108,977.518C430.763,977.139 429.444,976.882 428.11,976.559C426.781,976.246 425.411,976.117 424.062,975.881C418.622,975.168 413.06,975.209 407.533,975.84C402.001,976.43 396.495,977.595 391.087,979.176C380.254,982.332 369.806,987.037 359.769,992.518C354.771,995.299 349.819,998.203 345.011,1001.349C340.218,1004.5 335.482,1007.825 330.971,1011.319L330.94,1011.34C330.407,1011.75 329.642,1011.658 329.226,1011.124C328.852,1010.616 328.913,1009.908 329.36,1009.482Z" transform="rotate(1.987 427.552 1034.735)" fill="#FFFFFF"/>
</g>
<path d="M509.585,269.859C509.585,226.954 544.366,192.178 587.265,192.178L1247.875,192.178C1284.319,192.178 1314.373,220.74 1316.225,257.138L1364.991,1214.896C1366.443,1243.382 1344.019,1267.406 1315.503,1267.926L558.36,1281.688C531.568,1282.176 509.585,1260.588 509.585,1233.79L509.585,269.859L509.585,269.859Z" transform="rotate(1.987 937.321 736.937)" fill="#01008A"/>
<path d="M564.121,206.997C564.039,193.27 576.113,182.648 589.712,184.49C679.924,196.724 990.139,234.558 1246.621,214.874C1258.315,213.976 1268.471,222.838 1269.091,234.553L1320.223,1196.58C1320.925,1209.774 1310.853,1221.054 1297.665,1221.834C1189.789,1228.216 745.54,1252.894 587.084,1236.298C577.442,1235.288 570.12,1227.17 570.063,1217.472L564.121,206.997Z" transform="rotate(1.987 942.188 713.111)" fill="#B9C4FE"/>
<g opacity="0.6">
<path d="M574.656,231.041C574.579,217.833 586.197,207.606 599.287,209.381C686.102,221.153 984.637,257.566 1231.461,238.621C1242.721,237.759 1252.485,246.287 1253.085,257.561L1302.291,1183.367C1302.965,1196.061 1293.271,1206.915 1280.581,1207.669C1176.771,1213.811 749.25,1237.559 596.757,1221.591C587.474,1220.621 580.434,1212.805 580.377,1203.471L574.656,231.041Z" transform="rotate(1.987 938.49 718.1)" fill="#EEEDFF"/>
</g>
<g opacity="0.78">
<path d="M660.537,299.739L669.758,498.221C670.066,504.819 675.398,510.069 682.002,510.259C718.759,511.295 833.304,514.087 897.982,510.717C905.3,510.337 911.088,504.415 911.328,497.091C912.56,459.868 915.26,351.526 906.776,306.241C905.406,298.923 899.12,293.566 891.68,293.304L674.407,285.705C666.571,285.438 660.172,291.908 660.537,299.739Z" transform="rotate(1.987 786.626 399.013)" fill="#FFFFFF"/>
</g>
<path d="M786.053,413.356C809.618,413.356 828.721,394.253 828.721,370.688C828.721,347.123 809.618,328.02 786.053,328.02C762.488,328.02 743.385,347.123 743.385,370.688C743.385,394.253 762.488,413.356 786.053,413.356Z" transform="rotate(1.987 786.053 370.688)" fill="#FF3874"/>
<path d="M719.586,495.994L855.52,495.994C863.853,495.994 868.846,486.794 864.361,479.769C852.815,461.701 828.656,435.16 786.819,436.356C746.496,437.511 722.598,461.485 710.58,478.681C705.48,485.983 710.683,495.994 719.586,495.994Z" transform="rotate(1.987 787.309 466.156)" fill="#FF3874"/>
<g opacity="0.6">
<g opacity="0.6">
<path d="M1205.651,322.218C1209.911,322.218 1213.303,319.221 1213.201,315.557C1213.093,311.893 1209.521,308.835 1205.267,308.763L967.011,304.519C962.757,304.442 960.428,307.665 961.844,311.683L962.983,314.921C964.4,318.939 969.038,322.223 973.292,322.223L1205.651,322.223L1205.651,322.218Z" transform="rotate(1.987 1087.316 313.371)" fill="#FFFFFF"/>
</g>
</g>
<g opacity="0.6">
<g opacity="0.6">
<path d="M966.365,341.512C962.111,341.435 959.781,344.657 961.197,348.675L962.337,351.913C963.753,355.931 968.392,359.215 972.646,359.215L1205.005,359.215C1209.265,359.215 1212.657,356.218 1212.555,352.555C1212.447,348.891 1208.875,345.832 1204.621,345.76L966.365,341.512Z" transform="rotate(1.987 1086.669 350.363)" fill="#FFFFFF"/>
</g>
</g>
<g opacity="0.6">
<g opacity="0.6">
<path d="M965.715,379.049C961.461,378.972 959.131,382.194 960.547,386.212L961.686,389.45C963.103,393.468 967.741,396.752 971.996,396.752L1204.354,396.752C1208.614,396.752 1212.006,393.756 1211.904,390.092C1211.796,386.428 1208.224,383.369 1203.97,383.298L965.715,379.049Z" transform="rotate(1.987 1086.019 387.9)" fill="#FFFFFF"/>
</g>
</g>
<g opacity="0.6">
<g opacity="0.6">
<path d="M1224.379,575.391C1228.637,575.391 1231.921,572.394 1231.681,568.731C1231.439,565.067 1227.761,562.044 1223.501,562.013L665.333,557.616C661.074,557.58 659.76,560.279 662.413,563.609L666.975,569.336C669.628,572.666 675.278,575.391 679.537,575.391L1224.379,575.391L1224.379,575.391Z" transform="rotate(1.987 946.367 566.503)" fill="#FFFFFF"/>
</g>
</g>
<g opacity="0.6">
<g opacity="0.6">
<path d="M664.692,594.609C660.433,594.573 659.119,597.272 661.772,600.603L666.334,606.329C668.987,609.66 674.637,612.384 678.896,612.384L1223.743,612.384C1228.003,612.384 1231.287,609.388 1231.045,605.724C1230.805,602.06 1227.125,599.037 1222.867,599.007L664.692,594.609Z" transform="rotate(1.987 945.729 603.497)" fill="#FFFFFF"/>
</g>
</g>
<path d="M660.706,651.998C674.125,650.972 699.259,650.494 713.093,650.299C718.954,650.217 724.095,654.189 725.471,659.885C728.139,670.954 731.823,690.176 731.362,710.538C731.223,716.634 726.225,721.504 720.129,721.437L669.075,720.888C662.8,720.822 657.586,716.024 657.001,709.768L652.511,661.743C652.044,656.78 655.728,652.383 660.706,651.998Z" transform="rotate(1.987 691.936 685.868)" fill="#8584FF"/>
<g opacity="0.6">
<g opacity="0.6">
<path d="M755.14,673.934C750.886,673.754 747.925,677.054 748.556,681.267L749.793,689.498C750.424,693.705 754.427,697.154 758.681,697.154L882.668,697.154C886.927,697.154 890.365,693.67 890.314,689.416L890.288,687.322C890.237,683.063 886.712,679.435 882.458,679.26L755.14,673.934Z" transform="rotate(1.987 819.393 685.54)" fill="#FFFFFF"/>
</g>
</g>
<path d="M938.787,656.821C952.206,655.795 977.34,655.318 991.175,655.123C997.035,655.041 1002.177,659.012 1003.552,664.708C1006.22,675.777 1009.905,694.999 1009.443,715.361C1009.304,721.457 1004.306,726.327 998.21,726.261L947.157,725.712C940.881,725.645 935.667,720.847 935.082,714.592L930.592,666.566C930.13,661.604 933.815,657.206 938.787,656.821Z" transform="rotate(1.987 970.018 690.691)" fill="#8584FF"/>
<g opacity="0.6">
<g opacity="0.6">
<path d="M1033.22,678.757C1028.966,678.577 1026.005,681.876 1026.636,686.089L1027.873,694.32C1028.504,698.528 1032.507,701.977 1036.761,701.977L1160.748,701.977C1165.007,701.977 1168.445,698.492 1168.394,694.238L1168.368,692.145C1168.317,687.885 1164.792,684.257 1160.538,684.083L1033.22,678.757Z" transform="rotate(1.987 1097.473 690.363)" fill="#FFFFFF"/>
</g>
</g>
<path d="M730.576,842.79C730.535,842.79 730.489,842.79 730.448,842.79L683.341,842.338C676.608,842.272 671.056,837.643 670.415,831.567L666.274,792.04C666.032,789.72 666.751,787.426 668.301,785.579C670.035,783.516 672.662,782.218 675.51,782.023C679.477,781.751 685.07,781.274 690.987,780.771C703.446,779.709 718.954,778.39 727.677,778.282C734.009,778.251 739.377,781.997 740.87,787.508C743.323,796.581 743.107,813.756 742.64,832.055C742.487,837.997 737.088,842.79 730.576,842.79ZM675.757,785.635C673.884,785.764 672.18,786.595 671.072,787.909C670.158,788.997 669.732,790.331 669.871,791.66L674.012,831.188C674.458,835.431 678.481,838.669 683.372,838.721L730.479,839.172C730.51,839.172 730.54,839.172 730.571,839.172C735.138,839.172 738.915,835.955 739.018,831.963C739.48,813.941 739.695,797.058 737.37,788.453C736.329,784.599 732.316,781.915 727.718,781.9C719.123,782.007 703.687,783.321 691.29,784.378C685.358,784.881 679.754,785.358 675.757,785.635Z" transform="rotate(1.987 704.581 810.536)" fill="#FFFFFF"/>
<g opacity="0.6">
<path d="M680.817,789.704C690.716,789.027 712.222,786.846 722.424,786.718C726.744,786.661 730.537,789.273 731.553,793.024C733.523,800.306 733.261,814.813 732.918,828.206C732.815,832.219 729.131,835.421 724.635,835.374L686.991,835.015C682.362,834.969 678.519,831.813 678.088,827.703L674.778,796.118C674.429,792.845 677.148,789.956 680.817,789.704Z" transform="rotate(1.987 703.952 811.046)" fill="#FFFFFF"/>
</g>
<g opacity="0.6">
<g opacity="0.6">
<path d="M771.855,821.66C773.22,826.833 777.915,830.42 783.267,830.374L1219.136,826.658C1224.068,826.617 1228.014,822.548 1227.906,817.622C1227.804,812.829 1223.898,808.991 1219.106,808.97L783.221,806.984C775.524,806.948 769.894,814.22 771.855,821.66Z" transform="rotate(1.987 999.685 818.679)" fill="#FFFFFF"/>
</g>
</g>
<path d="M683.035,795.951C686.535,793.898 691.035,795.125 693.01,798.665L702.304,815.322C703.232,816.99 705.665,816.882 706.45,815.143L729.495,763.833C730.645,761.272 734.458,762.139 734.417,764.946C734.181,780.638 730.019,810.473 704.941,835.443C704.941,835.443 691.122,830.07 679.992,805.634C678.381,802.098 679.689,797.911 683.035,795.951Z" transform="rotate(1.987 706.861 798.876)" fill="#8584FF"/>
<path d="M728.825,943.741C728.783,943.741 728.737,943.741 728.696,943.741L681.589,943.289C674.857,943.223 669.304,938.594 668.663,932.518L664.522,892.991C664.28,890.671 664.999,888.377 666.549,886.53C668.283,884.467 670.91,883.169 673.758,882.974C677.725,882.702 683.318,882.225 689.235,881.722C701.694,880.66 717.202,879.341 725.925,879.233C725.987,879.233 726.054,879.233 726.115,879.233C732.309,879.233 737.64,883.005 739.118,888.459C741.571,897.532 741.356,914.707 740.889,933.006C740.735,938.948 735.336,943.741 728.825,943.741ZM674.005,886.586C672.132,886.715 670.428,887.546 669.32,888.86C668.406,889.948 667.98,891.282 668.119,892.611L672.26,932.139C672.706,936.382 676.73,939.62 681.62,939.672L728.727,940.123C728.758,940.123 728.789,940.123 728.819,940.123C733.386,940.123 737.163,936.906 737.266,932.914C737.728,914.892 737.943,898.009 735.619,889.404C734.577,885.55 730.508,882.779 725.966,882.851C717.371,882.958 701.941,884.272 689.538,885.329C683.606,885.832 678.002,886.309 674.005,886.586Z" transform="rotate(1.987 702.829 911.487)" fill="#FFFFFF"/>
<g opacity="0.6">
<path d="M679.066,890.655C688.964,889.978 710.47,887.797 720.672,887.669C724.992,887.617 728.785,890.224 729.801,893.975C731.771,901.257 731.509,915.763 731.166,929.157C731.063,933.17 727.379,936.372 722.883,936.325L685.239,935.966C680.61,935.92 676.767,932.764 676.336,928.654L673.026,897.069C672.677,893.796 675.397,890.901 679.066,890.655Z" transform="rotate(1.987 702.2 911.997)" fill="#FFFFFF"/>
</g>
<g opacity="0.6">
<g opacity="0.6">
<path d="M770.103,922.612C771.468,927.785 776.163,931.372 781.515,931.325L1217.384,927.61C1222.316,927.569 1226.262,923.5 1226.154,918.574C1226.052,913.781 1222.146,909.942 1217.354,909.922L781.469,907.936C773.772,907.895 768.142,915.171 770.103,922.612Z" transform="rotate(1.987 997.933 919.631)" fill="#FFFFFF"/>
</g>
</g>
<path d="M681.285,896.898C684.785,894.846 689.285,896.072 691.26,899.613L700.554,916.27C701.482,917.937 703.915,917.83 704.7,916.09L727.745,864.78C728.895,862.219 732.708,863.087 732.667,865.894C732.431,881.586 728.269,911.42 703.191,936.39C703.191,936.39 689.372,931.017 678.242,906.581C676.631,903.051 677.939,898.863 681.285,896.898Z" transform="rotate(1.987 705.111 899.823)" fill="#8584FF"/>
<path d="M727.075,1044.689C727.033,1044.689 726.987,1044.689 726.946,1044.689L679.839,1044.238C673.107,1044.176 667.554,1039.542 666.913,1033.467L662.772,993.939C662.53,991.619 663.249,989.326 664.799,987.478C666.533,985.415 669.16,984.117 672.008,983.922C675.975,983.65 681.568,983.173 687.485,982.67C699.944,981.608 715.452,980.289 724.175,980.181C724.237,980.181 724.304,980.181 724.365,980.181C730.559,980.181 735.89,983.953 737.368,989.408C739.821,998.48 739.606,1015.655 739.139,1033.954C738.985,1039.902 733.586,1044.689 727.075,1044.689ZM672.255,987.535C670.382,987.663 668.678,988.494 667.57,989.808C666.656,990.896 666.23,992.23 666.369,993.564L670.51,1033.092C670.956,1037.336 674.98,1040.574 679.87,1040.62L726.977,1041.072C727.008,1041.072 727.039,1041.072 727.069,1041.072C731.636,1041.072 735.413,1037.854 735.516,1033.862C735.978,1015.84 736.193,998.957 733.869,990.352C732.827,986.498 728.758,983.712 724.216,983.799C715.621,983.907 700.191,985.22 687.788,986.277C681.856,986.785 676.252,987.263 672.255,987.535Z" transform="rotate(1.987 701.079 1012.435)" fill="#FFFFFF"/>
<g opacity="0.6">
<path d="M677.316,991.603C687.214,990.926 708.72,988.745 718.922,988.617C723.242,988.565 727.035,991.172 728.051,994.923C730.021,1002.205 729.759,1016.712 729.416,1030.105C729.313,1034.118 725.629,1037.32 721.133,1037.274L683.489,1036.914C678.86,1036.868 675.017,1033.712 674.586,1029.602L671.276,998.018C670.927,994.749 673.647,991.855 677.316,991.603Z" transform="rotate(1.987 700.45 1012.945)" fill="#FFFFFF"/>
</g>
<g opacity="0.6">
<g opacity="0.6">
<path d="M768.353,1023.564C769.718,1028.737 774.413,1032.324 779.765,1032.278L1215.634,1028.562C1220.566,1028.521 1224.512,1024.452 1224.404,1019.526C1224.302,1014.733 1220.396,1010.895 1215.604,1010.874L779.719,1008.888C772.022,1008.847 766.392,1016.124 768.353,1023.564Z" transform="rotate(1.987 996.183 1020.583)" fill="#FFFFFF"/>
</g>
</g>
<path d="M679.533,997.85C683.033,995.798 687.533,997.024 689.508,1000.565L698.802,1017.222C699.73,1018.889 702.163,1018.782 702.948,1017.042L725.993,965.732C727.143,963.172 730.956,964.039 730.915,966.846C730.679,982.538 726.517,1012.372 701.439,1037.342C701.439,1037.342 687.62,1031.969 676.49,1007.533C674.879,1004.003 676.187,999.815 679.533,997.85Z" transform="rotate(1.987 703.359 1000.775)" fill="#8584FF"/>
<path d="M725.325,1145.64C725.283,1145.64 725.237,1145.64 725.196,1145.64L678.089,1145.189C671.357,1145.127 665.804,1140.494 665.163,1134.418L661.022,1094.89C660.78,1092.571 661.499,1090.277 663.049,1088.429C664.783,1086.367 667.41,1085.068 670.258,1084.873C674.225,1084.601 679.818,1084.124 685.735,1083.621C698.194,1082.559 713.702,1081.24 722.425,1081.132C722.487,1081.132 722.554,1081.132 722.615,1081.132C728.809,1081.132 734.14,1084.904 735.618,1090.359C738.071,1099.431 737.856,1116.606 737.389,1134.905C737.235,1140.853 731.836,1145.64 725.325,1145.64ZM670.505,1088.486C668.632,1088.614 666.928,1089.445 665.82,1090.759C664.906,1091.847 664.48,1093.181 664.619,1094.515L668.76,1134.043C669.206,1138.287 673.23,1141.525 678.12,1141.571L725.227,1142.023C725.258,1142.023 725.289,1142.023 725.319,1142.023C729.886,1142.023 733.663,1138.805 733.766,1134.813C734.228,1116.791 734.443,1099.909 732.119,1091.303C731.077,1087.449 727.008,1084.653 722.466,1084.75C713.871,1084.858 698.441,1086.171 686.038,1087.229C680.106,1087.737 674.502,1088.214 670.505,1088.486Z" transform="rotate(1.987 699.329 1113.386)" fill="#FFFFFF"/>
<g opacity="0.6">
<path d="M675.564,1092.555C685.462,1091.877 706.968,1089.696 717.17,1089.568C721.49,1089.517 725.283,1092.123 726.299,1095.875C728.269,1103.156 728.007,1117.663 727.664,1131.056C727.561,1135.069 723.877,1138.271 719.381,1138.225L681.737,1137.866C677.108,1137.819 673.265,1134.664 672.834,1130.553L669.524,1098.969C669.175,1095.7 671.895,1092.806 675.564,1092.555Z" transform="rotate(1.987 698.698 1113.896)" fill="#FFFFFF"/>
</g>
<g opacity="0.6">
<g opacity="0.6">
<path d="M766.601,1124.517C767.966,1129.689 772.661,1133.276 778.013,1133.23L1213.882,1129.515C1218.814,1129.474 1222.76,1125.405 1222.652,1120.478C1222.55,1115.686 1218.644,1111.847 1213.852,1111.827L777.967,1109.841C770.27,1109.8 764.641,1117.076 766.601,1124.517Z" transform="rotate(1.987 994.431 1121.536)" fill="#FFFFFF"/>
</g>
</g>
<path d="M677.783,1098.802C681.283,1096.75 685.783,1097.976 687.758,1101.517L697.052,1118.174C697.98,1119.841 700.413,1119.734 701.198,1117.994L724.243,1066.684C725.393,1064.124 729.206,1064.991 729.165,1067.798C728.929,1083.49 724.767,1113.324 699.689,1138.294C699.689,1138.294 685.87,1132.922 674.74,1108.485C673.129,1104.955 674.437,1100.768 677.783,1098.802Z" transform="rotate(1.987 701.609 1101.728)" fill="#8584FF"/>
<path d="M969.561,61.545C945.699,44.944 924.952,45.273 910.343,49.583C897.022,53.514 888.385,66.379 889.653,80.213L895.949,148.965L970.905,155.615C970.905,155.615 1016.36,94.099 969.561,61.545ZM936.601,117.011C926.281,117.011 917.912,108.642 917.912,98.322C917.912,87.998 926.281,79.633 936.601,79.633C946.926,79.633 955.29,88.003 955.29,98.322C955.29,108.642 946.926,117.011 936.601,117.011Z" transform="rotate(1.987 940.122 101.345)" fill="url(#pf_0_212_141)"/>
<path d="M903.667,119.746C902.743,119.746 901.953,119.043 901.866,118.104L900.86,107.153C900.767,106.157 901.501,105.28 902.497,105.188C903.513,105.09 904.375,105.829 904.462,106.824L905.463,117.775C905.555,118.771 904.821,119.648 903.826,119.74C903.774,119.746 903.723,119.746 903.667,119.746ZM901.701,98.291C900.778,98.291 899.987,97.588 899.9,96.649L899.136,88.336C897.93,75.158 906.222,62.889 918.851,59.158C927.795,56.515 937.016,56.141 946.243,58.034C947.223,58.234 947.854,59.189 947.649,60.169C947.449,61.144 946.499,61.77 945.514,61.575C936.867,59.805 928.241,60.159 919.872,62.627C908.891,65.87 901.686,76.544 902.733,88.007L903.492,96.32C903.585,97.316 902.851,98.193 901.855,98.286C901.809,98.291 901.753,98.291 901.701,98.291Z" transform="rotate(1.987 923.353 88.297)" fill="#FFFFFF"/>
<path d="M792.5,193.288L792.5,158.722C792.5,146.791 802.388,137.231 814.314,137.642L1052.636,145.806C1063.212,146.17 1071.776,154.514 1072.412,165.08L1074.404,198.291L792.5,193.288Z" transform="rotate(1.987 933.452 167.96)" fill="url(#pf_0_212_143)"/>
<path d="M881.705,149.676L871.458,149.676C870.457,149.676 869.651,148.866 869.651,147.87C869.651,146.869 870.462,146.064 871.458,146.064L881.705,146.064C882.706,146.064 883.511,146.875 883.511,147.87C883.511,148.866 882.701,149.676 881.705,149.676Z" transform="rotate(1.987 876.581 147.87)" fill="#FFFFFF"/>
<path d="M805.47,180.695C804.469,180.695 803.663,179.885 803.663,178.889L803.663,164.906C803.663,154.099 812.454,145.314 823.255,145.314L860.936,145.314C861.937,145.314 862.742,146.125 862.742,147.12C862.742,148.121 861.932,148.926 860.936,148.926L823.255,148.926C814.445,148.926 807.276,156.095 807.276,164.901L807.276,178.884C807.281,179.885 806.47,180.695 805.47,180.695Z" transform="rotate(1.987 833.203 163.005)" fill="#FFFFFF"/>
<path d="M1134.844,421.641L1078.741,375.894L1022.638,421.641C1027.113,378.614 1029.196,330.603 1026.831,278.508C1026.076,261.918 1024.911,245.846 1023.418,230.329C1023.228,228.332 1023.885,226.352 1025.235,224.869C1026.584,223.386 1028.493,222.544 1030.495,222.544C1063.033,222.544 1095.577,222.544 1128.116,222.544C1131.893,222.544 1135.008,225.5 1135.208,229.266C1136.455,253.102 1137.266,277.764 1137.532,303.211C1137.979,344.725 1136.942,384.269 1134.844,421.641Z" transform="rotate(1.987 1080.136 322.093)" fill="#FF3874"/>
<path d="M694.668,201.951C695.243,189.98 705.116,180.573 717.098,180.573L1133.849,180.563C1148.833,180.563 1161.645,191.345 1164.201,206.113L1164.555,208.15C1167.357,224.325 1154.903,239.114 1138.487,239.114L710.925,239.114C701.103,239.114 693.273,230.898 693.745,221.087L694.668,201.951Z" transform="rotate(1.987 929.337 209.838)" fill="#8584FF"/>
<path d="M518.639,462.402L510.557,472.64L510.526,472.676C509.936,473.42 508.854,473.548 508.11,472.958C507.365,472.368 507.237,471.285 507.827,470.541C507.832,470.531 507.848,470.515 507.853,470.51L516.238,460.396C516.787,459.729 517.772,459.637 518.439,460.191C519.091,460.735 519.194,461.699 518.67,462.361L518.639,462.402Z" transform="rotate(1.987 513.23 466.579)" fill="#FFFFFF"/>
<path d="M490.573,499.132L476.872,520.993L476.806,521.095C476.113,522.204 474.65,522.537 473.542,521.844C472.434,521.152 472.1,519.689 472.793,518.581C472.798,518.57 472.813,518.55 472.818,518.54L487.069,496.751C487.71,495.771 489.019,495.499 489.999,496.141C490.963,496.772 491.246,498.06 490.635,499.035L490.573,499.132Z" transform="rotate(1.987 481.694 508.999)" fill="#FFFFFF"/>
<path d="M460.064,549.563L449.072,572.871L449.005,573.009C448.323,574.456 446.599,575.072 445.152,574.395C443.705,573.712 443.089,571.988 443.766,570.541C443.771,570.531 443.782,570.505 443.787,570.495L455.317,547.116C455.969,545.797 457.565,545.253 458.884,545.905C460.187,546.546 460.731,548.116 460.115,549.425L460.064,549.563Z" transform="rotate(1.987 451.93 560.149)" fill="#FFFFFF"/>
<path d="M435.886,603.234L427.907,627.701L427.845,627.885C427.26,629.681 425.331,630.661 423.535,630.076C421.739,629.491 420.759,627.562 421.344,625.766C421.349,625.751 421.359,625.72 421.364,625.71L429.898,601.037C430.472,599.375 432.289,598.492 433.952,599.067C435.599,599.636 436.476,601.417 435.943,603.064L435.886,603.234Z" transform="rotate(1.987 428.636 614.568)" fill="#FFFFFF"/>
<path d="M418.702,659.441L413.945,684.693L413.904,684.914C413.514,686.982 411.523,688.336 409.46,687.952C407.392,687.562 406.037,685.571 406.427,683.508L406.432,683.467L411.554,657.835C411.949,655.849 413.883,654.561 415.864,654.961C417.834,655.356 419.117,657.26 418.748,659.231L418.702,659.441Z" transform="rotate(1.987 412.586 671.453)" fill="#FFFFFF"/>
<path d="M409.037,717.348L407.78,742.985L407.764,743.237C407.652,745.515 405.717,747.27 403.439,747.157C401.16,747.044 399.405,745.11 399.518,742.831L399.523,742.785L401.088,716.671C401.222,714.474 403.11,712.802 405.306,712.93C407.487,713.058 409.155,714.921 409.052,717.102L409.037,717.348Z" transform="rotate(1.987 404.285 730.043)" fill="#FFFFFF"/>
<path d="M407.411,775.984L409.684,801.539L409.71,801.805C409.925,804.253 408.119,806.414 405.671,806.634C403.223,806.85 401.063,805.043 400.842,802.596L400.837,802.549L398.8,776.446C398.615,774.075 400.386,772.002 402.756,771.817C405.112,771.632 407.175,773.382 407.38,775.727L407.411,775.984Z" transform="rotate(1.987 404.257 789.228)" fill="#FFFFFF"/>
<path d="M413.846,834.25L419.588,859.24L419.649,859.517C420.239,862.083 418.638,864.644 416.067,865.234C413.497,865.824 410.941,864.223 410.346,861.652L410.336,861.601L404.742,836.005C404.198,833.506 405.779,831.043 408.278,830.494C410.756,829.95 413.209,831.51 413.774,833.978L413.846,834.25Z" transform="rotate(1.987 412.203 847.871)" fill="#FFFFFF"/>
<path d="M428.133,891.066L437.092,915.081L437.195,915.353C438.165,917.95 436.846,920.839 434.25,921.804C431.658,922.773 428.769,921.455 427.799,918.858L427.789,918.832L418.752,894.232C417.808,891.666 419.127,888.823 421.693,887.879C424.259,886.935 427.101,888.254 428.046,890.82L428.133,891.066Z" transform="rotate(1.987 427.98 904.848)" fill="#FFFFFF"/>
<path d="M449.642,945.557L461.619,968.222L461.753,968.474C463.071,970.973 462.117,974.072 459.613,975.396C457.114,976.72 454.014,975.76 452.696,973.261L452.685,973.246L440.529,950.031C439.231,947.548 440.185,944.484 442.669,943.181C445.152,941.882 448.221,942.837 449.519,945.32L449.642,945.557Z" transform="rotate(1.987 451.147 959.296)" fill="#FFFFFF"/>
<path d="M477.943,996.854L492.675,1017.837L492.84,1018.073C494.497,1020.433 493.927,1023.697 491.567,1025.354C489.201,1027.012 485.943,1026.442 484.28,1024.082L484.27,1024.066L469.291,1002.565C467.654,1000.215 468.234,996.987 470.579,995.35C472.924,993.713 476.157,994.293 477.794,996.638L477.943,996.854Z" transform="rotate(1.987 481.074 1010.361)" fill="#FFFFFF"/>
<path d="M512.444,1044.199L529.675,1063.165L529.875,1063.386C531.856,1065.567 531.697,1068.938 529.516,1070.919C527.335,1072.9 523.964,1072.741 521.983,1070.56L521.968,1070.544L504.408,1051.081C502.452,1048.915 502.622,1045.569 504.792,1043.614C506.963,1041.659 510.304,1041.829 512.259,1043.999L512.444,1044.199Z" transform="rotate(1.987 517.154 1057.279)" fill="#FFFFFF"/>
<path d="M552.618,1086.793L572.159,1103.331L572.41,1103.542C574.704,1105.481 574.986,1108.914 573.046,1111.208C571.107,1113.502 567.674,1113.789 565.38,1111.845L565.365,1111.834L545.393,1094.808C543.13,1092.873 542.853,1089.471 544.787,1087.203C546.722,1084.935 550.124,1084.663 552.392,1086.598L552.618,1086.793Z" transform="rotate(1.987 558.917 1099.221)" fill="#FFFFFF"/>
<path d="M598.066,1123.56L608.898,1130.313L614.312,1133.689C616.129,1134.798 617.894,1135.988 619.757,1137.015C622.44,1138.498 623.415,1141.869 621.932,1144.553C620.449,1147.236 617.078,1148.211 614.394,1146.728L614.374,1146.718L614.225,1146.636C612.306,1145.569 610.489,1144.337 608.621,1143.188L603.054,1139.688L591.923,1132.684C589.352,1131.067 588.578,1127.67 590.194,1125.099C591.81,1122.528 595.202,1121.754 597.778,1123.37L598.066,1123.56Z" transform="rotate(1.987 605.988 1134.974)" fill="#FFFFFF"/>
<path d="M648.472,1152.855C656.205,1156.39 664.067,1159.67 672.031,1162.666C674.915,1163.754 676.372,1166.972 675.289,1169.856C674.202,1172.739 670.994,1174.202 668.11,1173.114C659.905,1170.04 651.792,1166.7 643.813,1163.056C640.996,1161.768 639.754,1158.443 641.042,1155.626C642.325,1152.809 645.655,1151.572 648.472,1152.855Z" transform="rotate(1.987 658.09 1162.911)" fill="#FFFFFF"/>
<path d="M702.903,1173.886L727.714,1180.038L728.048,1180.121C730.998,1180.854 732.8,1183.836 732.066,1186.786C731.337,1189.737 728.361,1191.538 725.415,1190.809L699.907,1184.554C696.935,1183.826 695.119,1180.829 695.848,1177.858C696.576,1174.886 699.573,1173.07 702.544,1173.799L702.56,1173.804L702.903,1173.886Z" transform="rotate(1.987 713.958 1182.305)" fill="#FFFFFF"/>
<path d="M759.929,1186.697L785.392,1189.407L785.7,1189.438C788.676,1189.756 790.831,1192.424 790.518,1195.4C790.2,1198.377 787.552,1200.537 784.571,1200.219L758.482,1197.53C755.48,1197.222 753.299,1194.538 753.607,1191.536C753.915,1188.534 756.599,1186.354 759.601,1186.661L759.621,1186.661L759.929,1186.697Z" transform="rotate(1.987 772.063 1193.441)" fill="#FFFFFF"/>
<path d="M818.253,1191.894L843.895,1191.478L844.162,1191.473C847.03,1191.427 849.396,1193.716 849.442,1196.584C849.488,1199.442 847.22,1201.793 844.372,1201.864L818.191,1202.485C815.266,1202.557 812.844,1200.243 812.773,1197.318C812.701,1194.393 815.015,1191.966 817.94,1191.899L817.981,1191.899L818.253,1191.894Z" transform="rotate(1.987 831.107 1196.98)" fill="#FFFFFF"/>
<path d="M876.869,1190.07L902.341,1186.771L902.572,1186.74C905.292,1186.386 907.786,1188.305 908.14,1191.03C908.489,1193.739 906.59,1196.218 903.891,1196.593L877.982,1200.159C875.206,1200.539 872.65,1198.599 872.266,1195.828C871.886,1193.052 873.826,1190.496 876.597,1190.111L876.638,1190.106L876.869,1190.07Z" transform="rotate(1.987 890.2 1193.452)" fill="#FFFFFF"/>
<path d="M935.033,1181.925L960.075,1176.09L960.265,1176.044C962.702,1175.474 965.139,1176.993 965.709,1179.431C966.274,1181.848 964.785,1184.259 962.389,1184.86L937.044,1191.161C934.51,1191.793 931.949,1190.248 931.318,1187.718C930.687,1185.188 932.231,1182.622 934.761,1181.991C934.776,1181.986 934.792,1181.986 934.802,1181.981L935.033,1181.925Z" transform="rotate(1.987 948.503 1183.613)" fill="#FFFFFF"/>
<path d="M992.17,1168.012L1016.57,1159.791L1016.729,1159.74C1018.874,1159.016 1021.199,1160.171 1021.922,1162.316C1022.636,1164.44 1021.512,1166.744 1019.403,1167.488L994.807,1176.181C992.575,1176.971 990.122,1175.802 989.332,1173.564C988.542,1171.332 989.712,1168.879 991.949,1168.089C991.959,1168.084 991.975,1168.079 991.985,1168.073L992.17,1168.012Z" transform="rotate(1.987 1005.611 1167.976)" fill="#FFFFFF"/>
<path d="M1047.812,1148.756L1071.401,1138.364L1071.53,1138.308C1073.377,1137.492 1075.543,1138.333 1076.359,1140.181C1077.164,1142.013 1076.348,1144.153 1074.532,1144.984L1050.839,1155.842C1048.905,1156.73 1046.616,1155.878 1045.729,1153.943C1044.841,1152.009 1045.693,1149.72 1047.627,1148.832C1047.637,1148.827 1047.648,1148.822 1047.658,1148.817L1047.812,1148.756Z" transform="rotate(1.987 1061.023 1147.095)" fill="#FFFFFF"/>
<path d="M1101.642,1124.717L1124.344,1112.448L1124.442,1112.396C1125.899,1111.611 1127.715,1112.15 1128.501,1113.607C1129.275,1115.039 1128.757,1116.83 1127.351,1117.63L1104.752,1130.557C1103.166,1131.465 1101.145,1130.916 1100.236,1129.325C1099.328,1127.739 1099.877,1125.718 1101.468,1124.809C1101.483,1124.799 1101.504,1124.789 1101.524,1124.779L1101.642,1124.717Z" transform="rotate(1.987 1114.329 1121.515)" fill="#FFFFFF"/>
<path d="M1153.402,1096.354L1175.057,1082.263L1175.124,1082.222C1176.181,1081.534 1177.597,1081.832 1178.285,1082.889C1178.962,1083.93 1178.68,1085.321 1177.664,1086.019L1156.214,1100.726C1155.034,1101.537 1153.418,1101.234 1152.602,1100.054C1151.791,1098.873 1152.094,1097.257 1153.274,1096.446C1153.289,1096.436 1153.3,1096.426 1153.315,1096.421L1153.402,1096.354Z" transform="rotate(1.987 1165.4 1091.516)" fill="#FFFFFF"/>
<path d="M1202.851,1063.822L1213.315,1055.986L1213.335,1055.971C1214.028,1055.452 1215.008,1055.591 1215.521,1056.284C1216.029,1056.961 1215.901,1057.915 1215.249,1058.444L1204.996,1066.649C1204.232,1067.26 1203.113,1067.137 1202.497,1066.372C1201.887,1065.608 1202.01,1064.489 1202.774,1063.873C1202.785,1063.863 1202.8,1063.853 1202.816,1063.842L1202.851,1063.822Z" transform="rotate(1.987 1208.971 1061.347)" fill="#FFFFFF"/>
<path d="M1839.802,1282L2.207,1282C0.997,1282 0,1281.27 0,1280.384L0,1279.616C0,1278.73 0.997,1278 2.207,1278L1839.794,1278C1841.004,1278 1842,1278.73 1842,1279.616L1842,1280.384C1842.008,1281.27 1841.012,1282 1839.802,1282Z" fill="#01008A"/>
<defs>
<linearGradient id="pf_0_212_10" x1="1163.398" y1="188.135" x2="716.044" y2="608.484" gradientUnits="userSpaceOnUse">
<stop stop-color="#FDF53F"/>
<stop offset="1" stop-color="#D93C65"/>
</linearGradient>
<linearGradient id="pf_0_212_11" x1="1211.61" y1="239.452" x2="764.264" y2="659.793" gradientUnits="userSpaceOnUse">
<stop stop-color="#FDF53F"/>
<stop offset="1" stop-color="#D93C65"/>
</linearGradient>
<linearGradient id="pf_0_212_33" x1="1081.811" y1="504.639" x2="735.11" y2="873.069" gradientUnits="userSpaceOnUse">
<stop stop-color="#A737D5"/>
<stop offset="1" stop-color="#EF497A"/>
</linearGradient>
<linearGradient id="pf_0_212_38" x1="1121.326" y1="541.826" x2="774.624" y2="910.256" gradientUnits="userSpaceOnUse">
<stop stop-color="#A737D5"/>
<stop offset="1" stop-color="#EF497A"/>
</linearGradient>
<linearGradient id="pf_0_212_43" x1="1135.688" y1="655.5" x2="702.966" y2="1037.775" gradientUnits="userSpaceOnUse">
<stop stop-color="#A737D5"/>
<stop offset="1" stop-color="#EF497A"/>
</linearGradient>
<linearGradient id="pf_0_212_48" x1="1200.359" y1="616.2" x2="853.658" y2="984.63" gradientUnits="userSpaceOnUse">
<stop stop-color="#A737D5"/>
<stop offset="1" stop-color="#EF497A"/>
</linearGradient>
<linearGradient id="pf_0_212_88" x1="722.933" y1="576.781" x2="550.89" y2="1052.531" gradientUnits="userSpaceOnUse">
<stop stop-color="#A737D5"/>
<stop offset="1" stop-color="#EF497A"/>
</linearGradient>
<linearGradient id="pf_0_212_141" x1="1045.651" y1="-35.255" x2="734.909" y2="359.132" gradientUnits="userSpaceOnUse">
<stop stop-color="#2B3582"/>
<stop offset="1" stop-color="#150E42"/>
</linearGradient>
<linearGradient id="pf_0_212_143" x1="1078.541" y1="-9.344" x2="767.798" y2="385.043" gradientUnits="userSpaceOnUse">
<stop stop-color="#2B3582"/>
<stop offset="1" stop-color="#150E42"/>
</linearGradient>
</defs>
</svg>
