<svg width="700" height="350" viewBox="0 0 700 350" fill="none" xmlns="http://www.w3.org/2000/svg" xmlns:xlink="http://www.w3.org/1999/xlink">
<path d="M63.009,347.92C63.009,347.92 -57.981,197.382 37.013,105.11C178.408,-32.229 274.639,162.952 329.105,82.176C419.201,-51.44 713.955,-17.149 623.773,149.006C576.461,236.178 734.757,223.152 670.225,348.094L63.009,347.92Z" fill="#F8F8FF"/>
<path d="M467.916,160.659L472.283,150.427L472.387,150.183C472.91,148.933 472.42,147.495 471.248,146.837L463.148,142.284C463.013,142.209 462.89,142.124 462.774,142.033C461.983,141.374 461.616,140.3 461.915,139.297C463.597,133.354 464.084,127.15 463.331,121.024C463.305,120.771 463.314,120.518 463.351,120.279C463.503,119.367 464.142,118.573 465.027,118.23L472.285,115.501C473.238,115.135 473.882,114.249 473.984,113.277C474.006,112.98 473.993,112.662 473.914,112.348L471.074,101.348C470.729,99.997 469.383,99.119 467.993,99.36L457.823,101.085C456.819,101.251 455.815,100.832 455.234,99.992C454.38,98.798 453.487,97.637 452.517,96.508C450.698,94.389 448.731,92.486 446.644,90.787L446.635,90.777C445.764,90.068 445.421,88.92 445.771,87.855L449.045,77.905L449.204,77.403C449.636,76.129 449.006,74.708 447.749,74.175L437.29,69.706C436.014,69.171 434.527,69.665 433.849,70.877L428.78,79.888C428.218,80.892 427.077,81.423 425.964,81.199C421.238,80.328 416.402,80.178 411.632,80.788C410.416,80.931 409.265,80.236 408.828,79.083L405.574,70.488C405.074,69.18 403.689,68.478 402.355,68.826L391.307,71.67C390.001,72.011 389.176,73.294 389.403,74.609L391.415,86.567C391.591,87.58 391.169,88.603 390.337,89.212C389.309,89.955 388.305,90.749 387.328,91.591C385.48,93.178 383.793,94.872 382.266,96.653C381.578,97.468 380.471,97.796 379.46,97.449L367.504,93.502C366.182,93.074 364.771,93.716 364.228,94.981L359.738,105.474C359.269,106.586 359.622,107.884 360.555,108.608C360.652,108.68 360.758,108.762 360.876,108.818L370.873,114.447C371.804,114.966 372.344,115.977 372.229,117.034C372.221,117.125 372.214,117.219 372.19,117.311C372.132,117.586 372.074,117.844 372.043,118.131C371.425,121.372 371.165,124.687 371.251,128C371.3,129.105 370.605,130.118 369.55,130.504L360.473,133.947C359.185,134.43 358.473,135.822 358.821,137.156L359.448,139.603L361.661,148.137C361.998,149.479 363.316,150.325 364.686,150.103L374.704,148.405C375.773,148.214 376.827,148.733 377.373,149.672C378.794,152.133 380.48,154.519 382.413,156.768C383.846,158.435 385.393,159.991 387.005,161.4L386.315,163.487L383.501,172.053C383.142,173.11 383.511,174.268 384.367,174.919C384.544,175.064 384.741,175.172 384.959,175.262L395.478,179.783C396.728,180.307 398.166,179.8 398.835,178.635L402.287,172.47C402.871,171.43 404.116,170.899 405.267,171.211C410.045,172.506 414.981,173.037 419.886,172.781C421.049,172.719 422.099,173.397 422.478,174.461L426.589,185.326C427.057,186.537 428.353,187.215 429.617,186.889L440.781,183.996C442.106,183.656 442.941,182.365 442.704,181.04L440.608,168.6C440.417,167.531 440.909,166.465 441.84,165.89C443.829,164.667 445.737,163.253 447.576,161.673C448.565,160.824 449.508,159.94 450.408,159.028C451.115,158.317 452.162,158.058 453.12,158.365L464.584,162.143C465.92,162.582 467.351,161.943 467.916,160.659ZM438.115,112.657C443.278,120.228 443.911,128.796 441.071,135.368C431.077,158.391 400.077,156.331 393.051,132.601C391.328,126.504 392.059,119.707 396.458,113.086C406.758,97.755 428.235,98.192 438.115,112.657Z" fill="#E7E7FF"/>
<path d="M325.645,300.566L335.675,283.367L335.911,282.957C337.12,280.856 336.57,278.194 334.632,276.763L321.265,266.881C321.043,266.717 320.841,266.54 320.66,266.35C319.403,265.006 318.988,263.018 319.745,261.302C324.052,251.123 326.294,240.219 326.32,229.173C326.328,228.715 326.4,228.271 326.521,227.854C326.996,226.266 328.306,225.002 329.954,224.587L343.445,221.351C345.219,220.912 346.561,219.484 346.959,217.778C347.065,217.254 347.111,216.687 347.041,216.11L344.443,195.947C344.129,193.469 341.937,191.613 339.415,191.731L320.974,192.535C319.157,192.61 317.465,191.637 316.621,190.021C315.371,187.709 314.044,185.451 312.572,183.234C309.812,179.069 306.743,175.252 303.418,171.773L303.406,171.753C302.016,170.299 301.664,168.187 302.523,166.373L310.545,149.433L310.939,148.576C311.991,146.409 311.185,143.748 309.071,142.52L291.494,132.261C289.347,131.028 286.601,131.576 285.124,133.571L274.119,148.446C272.898,150.103 270.753,150.791 268.828,150.144C260.632,147.548 252.078,146.207 243.472,146.233C241.283,146.214 239.389,144.728 238.873,142.58L235.003,126.598C234.407,124.166 232.105,122.61 229.659,122.93L209.41,125.527C207.017,125.84 205.268,127.935 205.379,130.321L206.293,151.997C206.38,153.834 205.403,155.556 203.791,156.456C201.8,157.549 199.844,158.734 197.918,160.01C194.284,162.421 190.911,165.053 187.809,167.874C186.407,169.172 184.365,169.505 182.65,168.665L162.3,159.002C160.049,157.95 157.4,158.775 156.153,160.901L145.848,178.536C144.771,180.408 145.104,182.79 146.605,184.283C146.762,184.433 146.931,184.604 147.126,184.73L163.625,196.946C165.164,198.072 165.898,199.99 165.456,201.839C165.423,202.003 165.391,202.164 165.324,202.321C165.16,202.799 165,203.243 164.882,203.745C163.065,209.362 161.866,215.189 161.285,221.088C161.123,223.062 159.668,224.705 157.706,225.158L140.826,229.253C138.433,229.822 136.86,232.139 137.178,234.583L137.748,239.068L139.782,254.713C140.083,257.171 142.236,258.967 144.718,258.875L162.884,258.084C164.827,257.985 166.581,259.138 167.341,260.926C169.317,265.611 171.783,270.225 174.712,274.643C176.886,277.922 179.284,281.027 181.832,283.888L180.143,287.44L173.245,302.025C172.371,303.821 172.772,305.958 174.147,307.31C174.427,307.604 174.753,307.84 175.12,308.05L192.793,318.413C194.895,319.622 197.563,319.041 199.006,317.122L206.508,306.945C207.774,305.23 210.103,304.561 212.081,305.37C220.275,308.731 228.925,310.772 237.688,311.406C239.766,311.556 241.481,312.992 241.916,314.965L246.802,335.169C247.364,337.425 249.511,338.913 251.832,338.619L272.295,335.961C274.72,335.655 276.491,333.547 276.366,331.141L275.408,308.588C275.309,306.646 276.416,304.865 278.197,304.052C282,302.322 285.703,300.235 289.318,297.837C291.262,296.548 293.135,295.192 294.935,293.771C296.348,292.664 298.264,292.439 299.898,293.195L319.41,302.453C321.676,303.536 324.359,302.72 325.645,300.566ZM283.399,208.718C285.911,213.613 287.674,219.172 288.509,225.378C288.702,226.693 288.758,228.182 288.746,229.745C288.606,236.484 286.579,244.642 283.599,249.699C260.74,288.355 206.158,277.808 198.958,234.117C198.85,233.398 198.739,232.679 198.649,231.946C197.771,225.12 199.933,214.61 203.366,208.657C205.171,205.538 207.186,202.731 209.34,200.227C231.036,175.293 269.069,180.838 283.399,208.718Z" fill="#E7E7FF"/>
<path d="M90.479,346.624C90.479,346.624 89.946,342.472 88.71,340.003C87.475,337.535 79.619,339.106 79.619,339.106C79.619,339.106 78.048,340.452 77.71,346.738L90.479,346.624Z" fill="#233862"/>
<path d="M117.246,346.569C115.4,345.442 116.45,337.036 116.45,337.036C116.45,337.036 125.052,330.154 126.234,335.424C127.416,340.694 134.406,343.058 138.385,343.702C141.131,344.149 141.982,345.669 142.245,346.569L117.246,346.569Z" fill="#233862"/>
<path d="M99.43,285.433C99.78,287.364 100.002,288.944 100.062,290.08C100.861,305.677 113.193,341.34 115.398,342.173C118.81,343.461 124.183,340.723 126.996,339.828C128.162,339.456 128.948,338.281 128.688,337.089C122.581,309.019 120.337,268.597 119.522,244.667C119.109,232.612 117.041,224.286 117.041,224.286C117.041,224.286 86.968,216.263 86.79,226.411C86.628,235.392 96.747,270.616 99.43,285.433Z" fill="#01008A"/>
<path d="M99.43,285.433L119.519,244.667C119.107,232.612 117.039,224.286 117.039,224.286C117.039,224.286 86.966,216.263 86.787,226.411C86.628,235.392 96.747,270.616 99.43,285.433Z" fill="#05055C"/>
<path d="M106.121,226.447L90.223,341.666C90.223,341.666 83.243,343.35 77.812,342.003C77.812,342.003 73.157,280.725 73.546,265.908C73.934,251.094 70.206,226.266 74.397,223.53C78.586,220.791 106.121,226.447 106.121,226.447Z" fill="#01008A"/>
<path d="M71.297,224.526C71.22,225.569 71.886,226.515 72.889,226.806C75.107,227.451 77.664,227.897 82.594,228.92C87.224,229.883 93.456,230.735 101.112,230.78C113.289,230.858 117.9,226.662 117.9,226.662C118.424,226.671 117.623,224.123 116.901,212.004C116.658,207.9 116.421,202.695 116.25,196.12C116.095,190.204 115.992,183.173 115.982,174.835C115.97,164.802 100.441,154.01 100.154,154.01L100.152,154.015C100.152,155.46 97.874,158.124 94.368,158.355C90.206,158.628 85.1,156.555 85.1,154.159C85.1,154.135 77.577,166.194 74.906,179.045C74.566,180.674 74.303,182.392 74.096,184.201C73.461,189.647 74.074,185.76 71.297,224.526Z" fill="#F99746"/>
<path d="M100.156,154.01C100.156,154.01 114.595,153.887 118.072,158.761C121.546,163.635 129.166,189.852 125.189,198.577C121.213,207.302 113.774,194.967 109.644,189.625C105.515,184.279 100.156,154.01 100.156,154.01Z" fill="#F99746"/>
<path d="M100.304,151.804L100.296,153.298C100.296,153.298 100.702,157.966 94.955,158.647C89.207,159.33 84.927,157.788 85.084,154.186C85.603,151.396 86.095,148.518 86.133,146.211C86.148,145.355 86.09,144.443 85.928,143.417L97.066,143.195L100.347,143.731L100.304,151.804Z" fill="#FFB27D"/>
<path d="M100.347,143.731L100.304,151.804C99.121,152.354 97.785,152.69 96.289,152.69C91.169,152.69 87.861,148.935 86.131,146.211C86.145,145.355 86.087,144.443 85.926,143.417L97.063,143.195L100.347,143.731Z" fill="#E2915A"/>
<path d="M85.074,141.624C86.367,148.58 95.34,148.351 99.218,147.914C100.308,147.794 100.996,147.654 100.996,147.654C102.227,147.326 102.914,145.386 103.233,142.847C103.865,137.822 103.066,130.446 102.217,128.561C100.938,125.721 98.533,122.652 89.497,124.867C80.458,127.082 83.416,132.714 85.074,141.624Z" fill="#FFB27D"/>
<path d="M114.923,173.546C114.923,173.546 120.506,185.878 120.344,189.577C120.344,189.577 117.579,189.482 114.923,190.274C110.556,191.574 114.923,173.546 114.923,173.546Z" fill="#ED7D2B"/>
<path d="M104.992,121.939C104.992,121.939 101.013,121.632 96.323,119.593C92.515,117.938 87.709,119.762 86.15,120.583C86.191,120.332 86.292,119.989 86.531,119.644C86.531,119.644 85.832,120.141 85.728,120.834C85.656,120.887 85.624,120.923 85.641,120.935C85.641,120.935 84.847,120.79 84.338,121.019C84.338,121.019 84.695,120.969 84.823,121.198C84.838,121.222 84.857,121.244 84.881,121.261C78.941,124.132 78.393,133.52 80.304,135.692C82.603,138.305 86.01,144.12 86.01,144.12C86.01,144.12 86.367,142.8 85.95,140.5C85.532,138.201 87.518,138.201 90.028,137.154C92.537,136.109 90.445,133.182 92.641,131.404C94.836,129.626 102.885,130.673 102.782,129.312C105.766,128.229 104.992,122.245 104.992,121.939Z" fill="#01008A"/>
<path d="M83.255,196.649C85.612,206.117 111.108,211.008 116.904,212.002C116.66,207.897 116.424,202.693 116.252,196.118L83.255,196.649Z" fill="#ED7D2B"/>
<path d="M88.85,199.728C88.606,199.728 83.182,198.917 82.21,198.432C81.238,197.947 76.796,191.631 79.705,190.012C82.615,188.393 90.428,194.869 90.428,194.869L88.85,199.728Z" fill="#FFB27D"/>
<path d="M121.845,201.602C121.845,201.602 100.863,202.741 86.785,199.725C86.785,199.725 86.43,195.657 90.855,193.85C90.855,193.85 112.799,189.198 118.071,190.494C123.343,191.792 121.845,201.602 121.845,201.602Z" fill="#F99746"/>
<path d="M73.664,185.138C78.019,190.388 83.711,194.673 89.984,195.679L89.986,195.677C90.037,195.597 91.885,192.793 91.54,188.67C91.381,186.761 90.749,184.571 89.255,182.237C88.794,181.521 88.387,180.681 88.022,179.75C84.596,171.006 85.105,154.157 85.105,154.157C85.105,154.157 70.554,155.682 66.02,162.158C63.241,166.125 66.783,176.838 73.664,185.138Z" fill="#F99746"/>
<path d="M99.218,147.916C100.308,147.795 100.996,147.655 100.996,147.655C102.227,147.327 102.914,145.387 103.233,142.849C100.926,143.418 99.867,145.201 99.428,145.959C99.23,146.301 99.189,147.066 99.218,147.916Z" fill="#E2915A"/>
<path d="M105.081,151.849C105.081,151.849 110.107,143.556 106.198,143.194C102.29,142.832 100.719,145.479 100.157,146.449C99.592,147.421 100.304,151.803 100.304,151.803L105.081,151.849Z" fill="#FFB27D"/>
<path d="M85.928,188.393C86.083,189.445 86.396,190.41 86.785,191.272C88.013,193.996 89.984,195.68 89.984,195.68L89.987,195.677C103.037,189.785 105.679,169.556 106.121,158.441C106.299,153.972 106.121,150.978 106.121,150.978C100.234,149.028 98.579,152.416 98.579,152.416C98.579,152.416 91.627,168.948 88.02,179.753C86.64,183.886 85.752,187.182 85.928,188.393Z" fill="#F99746"/>
<path d="M73.664,185.137C78.019,190.387 83.711,194.672 89.984,195.679L89.986,195.676C103.037,189.784 105.679,169.555 106.121,158.439C106.121,158.439 99.944,180.84 91.538,188.669C90.018,190.086 88.425,191.027 86.785,191.27C86.785,191.27 76.185,188.274 73.961,185.453C73.801,185.25 73.705,185.152 73.664,185.137Z" fill="#ED7D2B"/>
<path d="M617.531,306.354C617.531,306.354 611.147,298.905 617.138,294.176C617.138,294.176 621.512,291.527 625.081,291.742C625.081,291.742 620.026,300.218 621.662,301.062C623.298,301.904 626.613,291.211 626.613,291.211C626.613,291.211 636.568,290.246 639.772,291.785C639.772,291.785 631.26,298.751 633.052,299.166C634.845,299.581 644.038,292.743 644.038,292.743C644.038,292.743 653.305,294.321 652.811,299.972C652.316,305.625 649.124,307.369 647.72,307.22C646.316,307.07 638.107,303.936 637.929,305.087C637.75,306.238 642.692,309.994 646.152,310.171C646.152,310.171 639.618,317.375 635.277,315.296C630.934,313.216 630.565,309.92 627.858,308.684C625.151,307.449 622.842,307.451 623.959,308.711C625.076,309.973 629.974,311.196 631.523,313.935C633.069,316.673 634.459,318.519 629.966,317.843C625.474,317.168 618.173,313.879 617.852,310.115C617.531,306.354 617.531,306.354 617.531,306.354Z" fill="#BBECB4"/>
<path d="M595.213,296.988C595.213,296.988 605.366,291.301 600.629,283.584C600.629,283.584 596.839,278.846 592.776,277.627C592.776,277.627 594.942,289.136 592.776,289.406C590.609,289.677 591.287,276.409 591.287,276.409C591.287,276.409 580.591,271.265 576.395,271.67C576.395,271.67 583.03,282.906 580.864,282.636C578.697,282.366 571.251,270.992 571.251,270.992C571.251,270.992 560.285,268.96 558.524,275.46C556.765,281.958 559.607,285.208 561.231,285.616C562.855,286.021 573.28,285.886 573.01,287.24C572.74,288.593 565.699,290.76 561.774,289.542C561.774,289.542 566.107,300.238 571.792,299.697C577.479,299.154 579.238,295.636 582.758,295.364C586.278,295.093 588.85,296.042 587.091,296.988C585.33,297.936 579.375,297.299 576.53,299.714C573.688,302.132 571.386,303.62 576.665,304.704C581.945,305.787 591.422,305.109 593.319,301.048C595.213,296.988 595.213,296.988 595.213,296.988Z" fill="#BBECB4"/>
<path d="M648.403,300.225C648.403,300.225 623.235,299.255 617.676,306.453C617.676,306.453 616.447,310.135 612.664,313.486L612.075,315.093C612.075,315.093 616.438,310.494 617.996,310.217C617.996,310.219 615.557,301.301 648.403,300.225Z" fill="#ABE3A2"/>
<path d="M612.664,313.489C612.664,313.489 607.262,317.485 606.885,324.622L607.865,324.709C607.865,324.709 609.59,317.328 612.71,314.442C615.83,311.556 612.664,313.489 612.664,313.489Z" fill="#ABE3A2"/>
<path d="M563.677,277.592C563.677,277.592 592.11,286.799 595.36,297.087C595.36,297.087 595.225,301.691 598.067,306.97L598.067,309.002C598.067,309.002 595.087,302.096 593.463,301.148C593.463,301.148 599.826,292.213 563.677,277.592Z" fill="#ABE3A2"/>
<path d="M598.067,306.972C598.067,306.972 602.451,313.631 599.951,321.736L598.822,321.434C598.822,321.434 599.918,312.507 597.623,308.017C595.328,303.527 598.067,306.972 598.067,306.972Z" fill="#ABE3A2"/>
<path d="M611.513,289.247C611.513,289.247 598.127,281.75 604.374,271.578C604.374,271.578 609.371,265.331 614.725,263.724C614.725,263.724 611.871,278.893 614.725,279.25C617.582,279.608 616.689,262.117 616.689,262.117C616.689,262.117 630.789,255.335 636.32,255.87C636.32,255.87 627.576,270.683 630.43,270.326C633.287,269.968 643.102,254.978 643.102,254.978C643.102,254.978 657.56,252.302 659.878,260.867C662.197,269.433 658.45,273.718 656.31,274.254C654.167,274.789 640.426,274.611 640.783,276.396C641.14,278.182 650.42,281.036 655.595,279.431C655.595,279.431 649.884,293.529 642.388,292.818C634.891,292.103 632.572,287.464 627.933,287.107C623.293,286.749 619.9,287.999 622.222,289.249C624.543,290.499 632.394,289.659 636.143,292.844C639.891,296.031 642.926,297.993 635.965,299.421C629.004,300.85 616.513,299.957 614.013,294.603C611.514,289.247 611.513,289.247 611.513,289.247Z" fill="#C9F5C2"/>
<path d="M653.275,263.547C653.275,263.547 615.797,275.683 611.514,289.246C611.514,289.246 611.692,295.314 607.945,302.275L607.945,304.953C607.945,304.953 611.871,295.852 614.013,294.602C614.011,294.602 605.624,282.823 653.275,263.547Z" fill="#BFEEB7"/>
<path d="M607.943,302.275C607.943,302.275 602.162,311.053 605.458,321.737L606.944,321.337C606.944,321.337 605.501,309.569 608.524,303.651C611.55,297.732 607.943,302.275 607.943,302.275Z" fill="#BDE9B6"/>
<path d="M611.063,344.906C625.544,344.906 637.282,333.167 637.282,318.686L584.843,318.686C584.843,333.165 596.581,344.906 611.063,344.906Z" fill="#E7E7FF"/>
<path d="M637.644,346.239L584.48,346.239C584.48,344.454 585.928,343.004 587.716,343.004L634.411,343.004C636.194,343.004 637.644,344.452 637.644,346.239Z" fill="#E0E0FF"/>
<path d="M637.876,318.686L583.979,318.686L583.979,319.489L637.876,319.489L637.876,318.686Z" fill="#D5D5FB"/>
<path d="M519.873,143.84C516.013,141.837 512.922,143.097 512.922,143.097C501.114,141.71 497.668,155.482 497.827,160.221C497.987,164.959 498.527,170.048 493.255,176.205C478.021,193.988 509.925,194.772 509.925,194.772C510.195,180.565 527.227,185.748 526.479,187.188C548.31,192.427 528.649,148.393 519.873,143.84Z" fill="#01008A"/>
<path d="M474.319,203.07C474.319,203.07 472.242,199.91 470.57,199.847C468.895,199.784 465.797,198.918 466.046,199.538C466.294,200.158 468.215,200.221 468.401,200.592C468.586,200.964 465.549,201.521 464.68,201.584C463.811,201.647 461.765,201.584 461.828,202.018C461.891,202.453 465.515,204.25 468.072,204.002C470.63,203.753 473.791,204.745 473.791,204.745L474.319,203.07Z" fill="#FFB27D"/>
<path d="M504.354,204.093C504.354,204.093 503.224,206.327 501.178,208.897C498.71,211.987 494.905,215.558 490.128,216.263C487.845,216.598 485.613,216.109 483.563,215.196C483.558,215.194 483.555,215.194 483.555,215.194C477.753,212.62 473.39,206.696 473.39,206.696C472.367,203.907 474.042,202.015 474.042,202.015C474.042,202.015 485.758,204.65 486.873,204.093C487.988,203.535 494.497,184.783 496.046,182.428C497.598,180.071 502.879,178.848 502.879,178.848L504.354,204.093Z" fill="#F9DDBF"/>
<path d="M501.176,208.897C498.708,211.988 494.903,215.559 490.126,216.263C487.843,216.599 485.611,216.109 483.561,215.197C483.787,215.226 489.583,215.942 491.892,211.809C494.247,207.594 496.795,200.899 500.296,203.13C501.809,204.096 501.741,206.489 501.176,208.897Z" fill="#F2CCAA"/>
<path d="M548.064,330.559C548.064,330.559 551.64,333.821 550.942,336.14C550.245,338.459 547.019,340.003 546.582,342.838C546.146,345.671 544.404,347.217 542.833,347.217C541.265,347.217 535.351,347.217 535.351,347.217C535.351,347.217 534.195,345.224 536.987,344.624C539.776,344.023 540.828,340.693 540.654,337.602C540.48,334.512 540.915,330.39 540.915,330.39L546.843,329.018L548.064,330.559Z" fill="#233862"/>
<path d="M517.805,331.947C517.805,331.947 519.091,345.768 517.523,346.542L497.436,346.501C497.436,346.501 497.436,344.183 500.662,343.669C503.888,343.155 509.556,341.265 510.516,337.058C511.474,332.847 517.805,331.947 517.805,331.947Z" fill="#233862"/>
<path d="M532.118,232.791C527.985,223.521 525.456,220.859 525.939,217.983C526.298,215.841 524.843,178.059 524.843,178.059C524.354,177.907 523.369,177.772 522.833,177.651C521.137,177.275 519.735,176.083 519.152,174.449C518.447,172.478 517.89,169.571 517.902,165.925L517.373,166.029L508.47,167.792C508.47,167.792 508.673,170.594 508.678,173.233C508.678,173.255 508.678,173.277 508.678,173.298C508.687,175.59 507.184,177.615 504.981,178.249C503.857,178.575 502.877,178.853 502.877,178.853C502.877,178.853 499.608,188.185 498.983,197.774C498.358,207.362 504.928,211.527 498.932,230.687C492.816,250.252 534.403,237.911 532.118,232.791Z" fill="#FFB27D"/>
<path d="M508.47,167.79C508.47,167.79 508.673,170.591 508.677,173.231C513.66,173.091 516.292,168.545 517.371,166.026L508.47,167.79Z" fill="#E8945B"/>
<path d="M506.805,170.286C506.805,170.286 518.592,170.482 518.601,163.139C518.609,155.797 520.136,150.878 512.61,150.443C505.085,150.009 503.62,152.808 503.022,155.259C502.421,157.708 503.738,170.047 506.805,170.286Z" fill="#FFB27D"/>
<path d="M507.242,150.263C507.242,150.263 510.47,158.877 515.421,160.151C520.375,161.425 522.522,160.098 522.522,160.098C522.522,160.098 518.722,157.08 517.935,151.812C517.935,151.812 509.676,146.164 507.242,150.263Z" fill="#01008A"/>
<path d="M508.041,150.963C508.041,150.963 505.647,151.858 504.663,153.602C503.7,155.308 502.88,157.569 503.07,160.344C503.07,160.344 500.638,154.488 503.372,151.178C506.27,147.665 508.041,150.963 508.041,150.963Z" fill="#163560"/>
<path d="M509.37,165.734C509.37,165.734 508.557,166.806 506.931,166.728C505.62,166.666 505.114,165.529 505.114,165.529C505.114,165.529 507.522,164.948 509.37,165.734Z" fill="#EBF3FA"/>
<path d="M533.257,194.772C533.257,194.772 533.556,198.992 533.257,204.057C533.056,207.413 529.662,211.91 529.181,213.023C527.973,215.812 526.609,216.265 526.609,216.265L516.063,218.849L512.355,219.757L500.662,216.265C500.662,216.265 495.335,201.4 497.475,193.03C499.613,184.662 502.882,178.85 502.882,178.85C502.882,178.85 512.425,188.192 524.848,178.059L533.257,194.772Z" fill="#F9DDBF"/>
<path d="M530.168,205.425C529.971,208.781 529.662,211.908 529.179,213.02C527.97,215.809 526.607,216.263 526.607,216.263L516.061,218.847L511.481,217.501C511.481,217.501 526.771,215.184 525.077,202.027L530.168,205.425Z" fill="#F2CCAA"/>
<path d="M501.403,218.52C501.403,218.52 495.612,236.546 495.241,242.681C494.869,248.817 506.31,329.861 506.771,332.689C507.206,335.355 510.516,337.053 510.516,337.053C510.516,337.053 512.039,337.951 514.21,337.338C517.224,336.486 518.177,335.468 518.177,335.468C518.177,335.468 522.684,277.669 519.894,257.021C517.105,236.374 517.071,218.52 517.071,218.52L501.403,218.52L501.403,218.52Z" fill="#ED7D2B"/>
<path d="M525.939,217.982C525.939,217.982 534.772,229.834 535.595,237.847C536.417,245.86 536.885,274.003 538.64,281.813C540.394,289.623 546.841,304.655 546.841,329.017C546.841,329.017 546.17,330.414 544.102,331.157C543.441,331.396 542.553,331.625 541.694,331.823C539.988,332.214 538.237,331.382 537.46,329.813C533.102,321.038 519.219,292.738 518.507,286.866C518.003,282.708 513.621,255.195 504.059,239.049C501.765,235.174 505.468,219.758 505.468,219.758L525.939,217.982Z" fill="#F99746"/>
<path d="M509.107,165.928C509.107,165.928 508.904,166.795 506.75,166.66C506.75,166.66 504.943,166.549 504.998,165.598C505,165.598 506.752,164.922 509.107,165.928Z" fill="#FFFFFF"/>
<path d="M500.479,215.736C500.479,215.736 502.805,217.575 507.423,217.669C512.938,217.78 526.609,216.262 526.609,216.262C526.609,216.262 527.217,217.959 527.191,219.751C527.191,219.751 510.497,223.962 500.824,220.366C500.821,220.366 499.574,218.019 500.479,215.736Z" fill="#233862"/>
<path d="M506.098,222.424C504.711,222.424 503.582,221.145 503.582,219.574C503.582,218.003 504.711,216.725 506.098,216.725C507.485,216.725 508.615,218.003 508.615,219.574C508.615,221.145 507.485,222.424 506.098,222.424ZM506.098,217.559C505.169,217.559 504.416,218.464 504.416,219.574C504.416,220.684 505.172,221.589 506.098,221.589C507.025,221.589 507.78,220.684 507.78,219.574C507.78,218.464 507.027,217.559 506.098,217.559Z" fill="#FFFFFF"/>
<path d="M537.197,199.214L514.517,199.214L514.517,230.26L537.197,230.26L537.197,199.214Z" transform="rotate(-82.094 525.857 214.737)" fill="#84E532"/>
<path d="M522.749,219.051C522.749,219.051 516.483,219.784 516.502,221.271C516.522,222.759 518.063,225.814 518.838,225.949C519.612,226.084 523.938,221.816 523.938,221.816L522.749,219.051Z" fill="#FFB27D"/>
<path d="M524.846,178.057C524.846,178.057 533.213,178.643 536.42,186.441C539.626,194.237 545.711,207.329 545.711,209.532C545.711,211.734 542.312,218.522 524.057,222.426C524.057,222.426 522.167,220.44 522.283,218.869C522.283,218.869 533.679,209.08 533.647,207.937C533.59,205.772 531.78,202.916 521.774,192.907C519.055,190.183 524.846,178.057 524.846,178.057Z" fill="#F9DDBF"/>
<path d="M591.632,131.376L596.621,148.816C596.694,149.072 596.72,149.332 596.704,149.586C596.643,150.503 596.016,151.325 595.082,151.593L564.794,160.26C563.856,160.528 562.886,160.156 562.352,159.403C562.208,159.201 562.094,158.972 562.022,158.718L557.035,141.286C556.692,140.094 557.382,138.851 558.572,138.511L588.86,129.844C590.047,129.504 591.287,130.187 591.632,131.376Z" fill="#E0E0FF"/>
<path d="M596.701,149.585C596.641,150.501 596.013,151.324 595.08,151.592L564.792,160.259C563.853,160.527 562.883,160.155 562.35,159.402L577.775,145.348L596.701,149.585Z" fill="#D5D5FB"/>
<path d="M591.63,131.376L578.07,148.212L557.286,142.175L557.03,141.283C556.687,140.091 557.377,138.848 558.567,138.508L588.855,129.841C590.044,129.503 591.285,130.186 591.63,131.376Z" fill="#E7E7FF"/>
<path d="M351.462,346.736L351.375,346.736C350.866,346.736 350.458,346.316 350.468,345.81L351.843,286.252L355.892,285.779L352.442,345.812C352.41,346.331 351.981,346.736 351.462,346.736Z" fill="#D0D0FF"/>
<path d="M327.874,346.736L327.788,346.736C327.278,346.736 326.871,346.316 326.88,345.81L328.256,286.252L332.304,285.779L328.852,345.812C328.823,346.331 328.393,346.736 327.874,346.736Z" fill="#D0D0FF"/>
<path d="M392.962,346.736L393.049,346.736C393.558,346.736 393.966,346.316 393.956,345.81L392.581,286.252L388.532,285.779L391.982,345.812C392.014,346.331 392.443,346.736 392.962,346.736Z" fill="#B0D4FF"/>
<path d="M325.193,282.559L325.193,241.749C325.193,234.568 331.015,228.746 338.196,228.746L367.598,228.746C374.779,228.746 380.601,234.568 380.601,241.749L380.601,284.12L325.193,282.559Z" fill="#D0D0FF"/>
<path d="M385.868,289.003L329.097,289.003C326.94,289.003 325.193,287.256 325.193,285.099L325.193,282.561L385.868,282.561L385.868,289.003Z" fill="#D0D0FF"/>
<path d="M392.672,289.004L349.722,289.004C348.127,289.004 346.836,287.711 346.836,286.119L346.836,285.45C346.836,283.855 348.13,282.564 349.722,282.564L392.672,282.564C394.267,282.564 395.558,283.858 395.558,285.45L395.558,286.119C395.558,287.711 394.267,289.004 392.672,289.004Z" fill="#9F9FF5"/>
<path d="M391.005,272.393C386.792,279.723 381.494,282.553 381.494,282.553L359.453,282.553C359.453,282.553 394.216,266.8 391.005,272.393Z" fill="#233862"/>
<path d="M374.077,329.114C373.502,329.773 373.43,330.509 373.712,331.293C373.712,331.295 373.715,331.3 373.717,331.303C374.243,332.755 375.98,334.377 377.997,335.998C378.256,336.205 378.485,336.396 378.685,336.57C378.738,336.616 378.791,336.661 378.839,336.707C378.88,336.743 378.919,336.78 378.958,336.813C380.84,338.548 380.13,338.944 383.511,342.464C387.364,346.474 390.018,346.547 390.773,346.18C391.413,345.869 390.114,343.743 388.676,341.352C388.606,341.236 388.539,341.12 388.467,341.005C388.276,340.686 388.085,340.365 387.895,340.044C386.211,337.168 386.642,335.817 387.043,331.537C387.366,328.057 392.455,312.102 392.455,312.102L385.069,310.83C385.069,310.83 382.845,323.536 380.396,325.493C379.086,326.535 377.619,326.549 376.359,327.322C376.27,327.375 376.183,327.43 376.096,327.488C375.382,327.963 374.651,328.453 374.077,329.114Z" fill="#FFB27D"/>
<path d="M374.077,329.115C373.502,329.774 373.43,330.51 373.712,331.294C373.712,331.296 373.715,331.301 373.717,331.303C374.361,332.753 376.053,334.368 378.005,335.984C378.26,336.197 378.485,336.39 378.685,336.571C378.738,336.616 378.791,336.662 378.839,336.708C378.88,336.744 378.919,336.78 378.958,336.814C380.84,338.549 380.13,338.945 383.511,342.465C387.364,346.475 390.018,346.547 390.773,346.181C391.413,345.869 390.114,343.744 388.676,341.353C387.926,341.078 384.442,339.661 381.807,336.291C379.486,333.33 377.939,329.525 376.359,327.322C376.27,327.375 376.183,327.431 376.096,327.489C375.382,327.964 374.651,328.454 374.077,329.115Z" fill="#233862"/>
<path d="M433.625,324.501C434.081,326.781 437.331,326.4 440.96,325.515C444.591,324.627 443.727,325.681 448.893,325.109C454.059,324.537 455.625,322.612 455.782,321.842C455.921,321.16 453.369,320.921 450.63,320.605C450.285,320.566 449.94,320.523 449.595,320.482C446.504,320.093 444.239,318.098 441.43,316.459C438.771,314.908 434.8,308.584 434.8,308.584L427.713,309.146C427.713,309.146 431.431,314.795 432.87,317.248C433.716,318.694 433.671,320.602 433.564,322.076C433.516,322.88 433.463,323.698 433.625,324.501Z" fill="#FFB27D"/>
<path d="M440.962,325.514C444.593,324.626 443.73,325.68 448.895,325.108C454.061,324.536 455.627,322.611 455.784,321.841C455.924,321.158 453.371,320.92 450.633,320.604L450.606,320.657C450.606,320.657 447.508,322.855 443.206,322.956C439.7,323.04 435.987,322.037 433.567,322.075C433.511,322.876 433.461,323.697 433.622,324.5C434.081,326.78 437.331,326.399 440.962,325.514Z" fill="#233862"/>
<path d="M406.471,279.194L399.848,297.018L391.2,320.291C391.2,320.291 388.853,320.518 386.607,319.872C384.536,319.273 382.162,317.71 382.162,317.71C382.162,317.71 384.563,292.72 389.043,278.376C390.192,274.694 391.478,271.717 392.897,270.04C399.841,261.832 406.471,279.194 406.471,279.194Z" fill="#05055C"/>
<path d="M399.737,250.887C395.396,249.488 383.021,251.286 370.588,253.718L367.985,249.423L341.13,247.326C341.13,247.326 332.268,266.978 337.12,279.501C337.834,281.342 339.25,282.522 341.666,282.56C341.666,282.56 342.056,282.56 342.059,282.56C342.059,282.56 358.044,282.551 363.234,282.551C376.589,282.551 391.497,273.37 393.428,272.984C396.583,272.352 397.848,278.666 401.004,285.296C404.16,291.927 430.679,314.655 430.679,314.655C430.679,314.655 434.754,314.696 436.438,314.064C438.248,313.386 438.911,312.503 438.911,312.503C438.911,312.503 409.523,254.043 399.737,250.887Z" fill="#01008A"/>
<path d="M366.928,171.225C363.487,169.418 358.254,169.174 357.402,169.061C347.225,167.693 341.102,182.481 340.742,186.961C340.079,195.22 335.709,196.48 329.559,201.65C317.229,212.021 320.844,224.072 327.587,228.551C331.634,231.236 338.764,228.551 338.764,228.551C338.865,228.621 358.264,217.705 367.828,212.44C382.163,210.402 375.694,175.829 366.928,171.225Z" fill="#01008A"/>
<path d="M359.81,207.958C359.851,207.985 355.105,209.606 351.93,208.2C348.943,206.88 346.682,201.967 346.725,201.965C348.084,201.902 349.575,200.715 350.723,192.922L351.302,193.129L361.028,196.628C361.028,196.628 360.324,199.748 359.868,202.72C359.484,205.215 359.279,207.606 359.81,207.958Z" fill="#FFB27D"/>
<path d="M361.028,196.629C361.028,196.629 360.324,199.749 359.868,202.722C354.282,201.716 352.089,196.149 351.302,193.131L361.028,196.629Z" fill="#ED975D"/>
<path d="M362.478,199.726C362.478,199.726 349.172,197.94 350.412,189.669C351.652,181.401 350.769,175.6 359.318,176.389C367.866,177.181 369.041,180.583 369.297,183.444C369.553,186.306 365.972,199.979 362.478,199.726Z" fill="#FFB27D"/>
<path d="M368.812,178.913C368.812,178.913 360.295,186.253 354.499,186.846C348.706,187.437 346.51,185.577 346.51,185.577C346.51,185.577 349.927,182.742 351.98,178.165C352.586,176.816 353.865,175.89 355.339,175.764C359.477,175.407 367.321,175.243 368.812,178.913Z" fill="#01008A"/>
<path d="M363.487,178.254C363.487,178.254 366.337,181.009 367.234,183.053C368.1,185.024 368.361,189.741 367.671,191.616C367.671,191.616 372.11,182.983 369.596,178.787C366.93,174.34 363.487,178.254 363.487,178.254Z" fill="#01008A"/>
<path d="M371.015,227.561C370.612,254.498 370.904,248.869 367.958,251.426C367.249,252.042 365.251,252.408 362.626,252.582C354.367,253.13 339.846,251.769 339.294,250.244C337.388,244.963 338.734,243.322 337.144,235.237C336.978,234.378 336.772,233.446 336.534,232.433C335.209,226.879 333.918,224.989 338.621,216.067C342.884,207.984 347.314,201.426 347.712,201.662C358.961,208.341 359.868,202.727 359.868,202.727C359.868,202.727 371.213,214.421 371.015,227.561Z" fill="#FFFFFF"/>
<path d="M399.848,297.018L391.2,320.292C391.2,320.292 388.853,320.519 386.607,319.872C384.536,319.274 382.162,317.711 382.162,317.711C382.162,317.711 384.563,292.721 389.043,278.377L399.848,297.018Z" fill="#01008A"/>
<path d="M359.868,202.722C359.868,202.722 371.445,204.683 372.803,209.668C374.161,214.653 382.162,243.952 382.162,243.952C382.162,243.952 376.277,245.008 373.558,242.289C370.839,239.57 364.1,217.068 364.1,217.068L359.868,202.722Z" fill="#FFFFFF"/>
<path d="M362.625,252.58C354.366,253.128 339.846,251.767 339.294,250.242C337.388,244.961 338.734,243.32 337.144,235.235L341.127,224.018C341.127,224.018 340.469,236.509 344.153,239.795C347.833,243.081 359.235,246.138 361.028,248.884C361.892,250.199 362.459,251.519 362.625,252.58Z" fill="#EBF3FF"/>
<path d="M353.163,247.328C353.163,247.328 361.311,245.513 362.626,246.237C363.941,246.961 367.154,249.593 367.557,250.51C367.96,251.427 364.631,249.815 363.547,249.523C362.845,249.335 360.999,249.977 360.085,250.281C356.239,251.562 353.882,250.903 353.882,250.903L353.163,247.328Z" fill="#FFB27D"/>
<path d="M347.705,201.65C347.705,201.65 336.763,202.324 332.975,207.608C327.642,215.044 317.065,246.738 323.128,250.963C329.954,255.724 354.198,252.208 354.198,252.208C354.198,252.208 355.003,248.437 353.881,246.613C352.76,244.789 334.519,241.843 333.677,241.001C332.835,240.159 344.201,224.584 344.201,222.058C344.199,219.534 347.705,201.65 347.705,201.65Z" fill="#FFFFFF"/>
<path d="M363.019,248.502C363.019,248.502 364.727,250.705 365.287,250.968C365.847,251.231 366.209,251.166 366.209,251.166L365.058,249.095L363.019,248.502Z" fill="#FFB27D"/>
<path d="M362.626,246.234L367.589,248.645C367.589,248.645 367.377,248.99 366.766,248.963C366.156,248.934 364.614,248.372 364.614,248.372L362.626,246.234Z" fill="#FFB27D"/>
<path d="M365.287,254.342L404.555,254.342L416.366,224.969L377.16,224.969L365.287,254.342Z" fill="#84E532"/>
<path d="M405.014,253.199L353.163,253.199L353.163,254.343L404.555,254.343L405.014,253.199Z" fill="#034906"/>
<path d="M394.641,239.655C394.938,238.622 394.339,237.785 393.307,237.785C392.274,237.785 391.198,238.622 390.901,239.655C390.604,240.688 391.203,241.525 392.235,241.525C393.268,241.525 394.347,240.688 394.641,239.655Z" fill="#FFFFFF"/>
<path d="M183.683,287.607L183.557,287.607C182.097,287.607 180.915,286.425 180.915,284.965L180.915,229.181C180.915,227.721 182.097,226.539 183.557,226.539L183.683,226.539C185.142,226.539 186.325,227.721 186.325,229.181L186.325,284.965C186.325,286.422 185.142,287.607 183.683,287.607Z" fill="#9F9FF5"/>
<path d="M183.596,346.736L183.509,346.736C183,346.736 182.592,346.316 182.602,345.81L183.977,286.252L188.026,285.779L184.573,345.812C184.544,346.331 184.117,346.736 183.596,346.736Z" fill="#9F9FF5"/>
<path d="M248.684,346.736L248.77,346.736C249.28,346.736 249.687,346.316 249.678,345.81L248.302,286.252L244.254,285.779L247.706,345.812C247.735,346.331 248.165,346.736 248.684,346.736Z" fill="#D0D0FF"/>
<path d="M248.394,282.559L241.59,282.559L205.444,282.559L180.915,282.559L180.915,285.097C180.915,287.254 182.662,289.001 184.819,289.001L205.444,289.001L241.59,289.001L248.394,289.001C249.989,289.001 251.28,287.708 251.28,286.115L251.28,285.447C251.28,283.852 249.989,282.559 248.394,282.559Z" fill="#D0D0FF"/>
<path d="M282.176,334.003C282.176,334.003 281.181,346.352 283.392,346.516C283.686,346.538 294.606,346.538 294.606,346.538L308.547,346.458C308.547,346.458 308.456,343.1 304.381,342.388C300.305,341.678 292.239,338.247 289.771,332.862C287.177,327.197 282.176,334.003 282.176,334.003Z" fill="#163560"/>
<path d="M198.307,266.354C198.307,266.354 198.77,278.491 200.91,282.559L250.216,282.559C250.216,282.559 262.062,283.785 263.143,284.583C264.507,285.592 258.397,295.59 281.295,334.671L292.51,334.386C292.51,334.386 280.781,271.009 278.699,269.404C275.581,267.006 239.105,258.653 232.86,258.472C226.616,258.288 198.307,266.354 198.307,266.354Z" fill="#01008A"/>
<path d="M225.948,194.446C229.753,196.803 229.967,201.496 229.967,201.496C220.688,203.897 207.183,193.594 207.183,193.594C207.183,193.594 213.157,189.582 215.37,180.761C215.481,180.317 215.585,179.858 215.674,179.392C215.964,177.906 216.145,176.299 216.176,174.564L220.439,178.384L227.528,184.734C227.528,184.734 227.366,187.369 226.481,191.903C226.329,192.694 226.15,193.544 225.948,194.446Z" fill="#FFB27D"/>
<path d="M231.191,243.165C230.875,245.236 231.517,246.903 231.823,248.442C231.944,249.031 232.014,249.6 231.963,250.167C231.456,255.895 233.498,256.622 232.858,258.47C232.858,258.47 230.677,259.746 226.681,261.259C224.944,261.915 222.862,262.62 220.466,263.281C220.341,263.315 220.215,263.348 220.087,263.385C210.81,265.892 201.057,266.427 198.302,266.355C193.04,266.215 191.976,252.872 193.93,236.069C196.973,209.893 201.084,197.201 211.922,188.03C212.605,187.454 212.144,189.418 215.788,191.174C219.153,192.793 223.214,193.174 226.365,192.475L228.843,195.015C233.765,202.792 234.282,212.021 233.864,219.715C233.336,229.444 232.108,237.206 231.191,243.165Z" fill="#B0D4FF"/>
<path d="M227.531,184.734C227.531,184.734 227.907,184.336 227.022,188.869C219.17,186.599 216.613,182.598 215.563,179.944C215.264,179.194 218.483,178.796 220.442,178.381L227.531,184.734Z" fill="#ED975D"/>
<path d="M231.179,184.756C231.179,184.756 216.029,186.925 214.822,177.469C213.616,168.014 210.848,161.926 220.471,160.141C230.093,158.355 232.436,161.723 233.606,164.783C234.776,167.842 235.09,183.948 231.179,184.756Z" fill="#FFB27D"/>
<path d="M294.12,223.964L292.906,223.964L292.906,255.753L294.12,255.753L294.12,223.964Z" transform="rotate(-325.265 293.513 239.858)" fill="#84E532"/>
<path d="M289.383,253.038L256.023,253.038L256.023,255.034L289.383,255.034L289.383,253.038Z" transform="rotate(-358.808 272.703 254.036)" fill="#034906"/>
<path d="M209.992,160.334C209.871,160.191 209.589,160.075 208.959,160.037C208.959,160.037 209.466,159.726 210.139,159.716C210.276,158.843 210.757,157.296 212.265,156.932C212.265,156.932 211.451,157.356 211.338,158.288C213.097,156.509 216.846,155.233 227.195,156.133C240.832,157.318 236.267,166.018 234.491,167.046C232.715,168.074 228.293,165.183 224.999,165.417C221.706,165.654 221.042,170.405 219.92,171.049C218.798,171.693 219.247,170.542 217.742,169.847C216.236,169.152 216.072,171.655 216.497,173.286C216.921,174.917 214.827,177.047 214.827,177.047C214.827,177.047 214.827,177.047 212.747,174.772C210.667,172.497 208.766,162.911 209.736,160.879C209.82,160.698 209.905,160.515 209.992,160.334Z" fill="#01008A"/>
<path d="M232.86,258.47C232.86,258.47 230.679,259.747 226.684,261.26C209.398,248.648 209.492,218.794 209.398,218.285L231.109,237.402L231.825,248.44C231.946,249.029 232.016,249.599 231.965,250.166C231.456,255.896 233.5,256.622 232.86,258.47Z" fill="#91B8EF"/>
<path d="M264.155,244.425C264.155,244.425 265.544,244.652 267.011,243.962C268.478,243.274 273.538,241.1 274.489,241.397C275.439,241.694 278.542,243.445 279.273,243.778C280.004,244.111 281.295,245.819 281.295,245.819C280.759,246.36 278.875,245.12 278.033,245.144C277.191,245.168 270.973,248.565 269.125,248.638C267.277,248.712 264.396,248.334 264.396,248.334L264.155,244.425Z" fill="#FFB27D"/>
<path d="M275.425,244.698C275.441,244.799 277.697,247.313 279.418,246.517L277.533,244.654L275.425,244.698Z" fill="#FFB27D"/>
<path d="M267.011,243.964C267.011,243.964 269.036,242.089 269.706,241.189C269.706,241.189 270.109,241.375 270.126,241.715C270.153,242.285 269.595,243.332 269.595,243.332L267.011,243.964Z" fill="#FFB27D"/>
<path d="M227.19,199.421C216.063,192.645 202.93,204.483 208.453,216.284C214.856,229.967 225.514,246.653 233.982,247.64C240.019,248.342 257.271,250.555 264.577,249.192C264.577,249.192 268.116,249.365 266.196,243.666C266.196,243.666 242.586,237.087 238.666,231.984C236.564,229.25 232.984,223.713 227.446,199.582C227.427,199.481 227.277,199.474 227.19,199.421Z" fill="#B0D4FF"/>
<path d="M526.363,346.736L526.484,346.736C527.186,346.736 527.751,346.157 527.736,345.455L525.837,263.181L520.247,262.529L525.015,345.462C525.053,346.176 525.647,346.736 526.363,346.736Z" fill="#ABABF2"/>
<path d="M251.446,346.736L251.328,346.736C250.626,346.736 250.061,346.157 250.076,345.455L251.975,263.181L257.565,262.529L252.797,345.462C252.756,346.176 252.163,346.736 251.446,346.736Z" fill="#ABABF2"/>
<path d="M531.236,264.694L245.863,264.694C243.786,264.694 242.102,263.01 242.102,260.935L242.102,258.527C242.102,256.45 243.786,254.766 245.863,254.766L531.236,254.766C533.312,254.766 534.994,256.45 534.994,258.527L534.994,260.935C534.996,263.01 533.312,264.694 531.236,264.694Z" fill="#ABABF2"/>
<path d="M484.221,54.34C484.221,61.231 486.663,67.55 490.726,72.485C494.242,76.75 496.194,82.09 496.194,87.615L496.194,95.585C496.194,100.652 500.339,104.797 505.406,104.797L520.148,104.797C525.215,104.797 529.36,100.652 529.36,95.585L529.36,87.603C529.36,82.066 531.341,76.731 534.854,72.451C538.934,67.48 541.371,61.111 541.33,54.169C541.236,38.421 528.525,25.787 512.777,25.787C511.027,25.787 509.314,25.946 507.65,26.248C507.28,26.316 506.916,26.388 506.552,26.47C493.776,29.307 484.221,40.708 484.221,54.34Z" fill="#84E532"/>
<path d="M520.095,104.795L520.064,105.041L519.658,108.147L519.552,108.965L519.552,108.972L519.443,109.795L519.041,112.898L518.934,113.716L518.932,113.723L518.826,114.548L518.765,115.002C518.56,116.577 516.76,117.779 514.606,117.779L509.754,117.779C509.24,117.779 508.75,117.711 508.294,117.586L508.292,117.586C507.881,117.472 507.502,117.313 507.162,117.115L507.136,117.101C506.861,116.939 506.612,116.751 506.402,116.541C505.968,116.111 505.681,115.597 505.599,115.03L505.428,113.827L505.319,113.069L505.319,113.066L505.317,113.05L505.317,113.047L505.21,112.306L504.798,109.428L504.689,108.673L504.687,108.656L504.581,107.91L504.134,104.793L520.095,104.793L520.095,104.795Z" fill="#01008A"/>
<path d="M518.17,104.796L518.136,104.796L515.426,104.796C511.001,106.075 506.612,107.339 504.581,107.913L504.687,108.659L504.689,108.676L504.798,109.431C506.446,108.975 510.398,107.843 520.061,105.042L520.093,104.796L518.17,104.796Z" fill="#4A4AA0"/>
<path d="M505.316,113.05L505.319,113.067L505.319,113.069L505.427,113.827C507.331,113.291 511.262,112.164 519.443,109.792L519.552,108.97L519.552,108.962L519.658,108.145C514.487,109.64 508.229,111.45 505.21,112.307L505.316,113.05Z" fill="#4A4AA0"/>
<path d="M507.138,117.101L507.165,117.116C507.505,117.313 507.884,117.473 508.294,117.586L508.296,117.586C510.54,116.942 513.872,115.981 518.826,114.546L518.932,113.721L518.934,113.713L519.04,112.896C514.615,114.177 509.539,115.644 506.405,116.539C506.614,116.751 506.863,116.939 507.138,117.101Z" fill="#4A4AA0"/>
<path d="M505.23,68.024L503.939,68.024L503.939,105.075L505.23,105.075L505.23,68.024Z" transform="rotate(-19.226 504.584 86.55)" fill="#FFFFFF"/>
<path d="M538.904,86.163L502.352,86.163L502.352,87.454L538.904,87.454L538.904,86.163Z" transform="rotate(-159.261 520.628 86.808)" fill="#FFFFFF"/>
<path d="M516.184,74.891C516.017,74.891 515.834,74.87 515.626,74.824C515.281,74.744 515.062,74.505 514.994,74.131C514.847,73.325 515.479,71.844 516.369,70.589C515.906,69.779 515.286,69.108 514.637,68.912C513.679,68.62 512.207,69.506 511.182,70.638C511.37,70.903 511.539,71.18 511.686,71.458C512.21,72.45 512.589,73.716 512.072,74.303C511.882,74.52 511.491,74.718 510.716,74.426C509.749,74.061 509.401,73.241 509.761,72.177C509.937,71.656 510.263,71.113 510.678,70.609C509.884,69.573 508.825,68.787 507.78,68.92C507.222,68.99 506.742,69.185 506.344,69.46C507.013,70.703 507.167,72.281 506.704,73.128C506.388,73.704 505.835,73.888 505.15,73.644C504.658,73.468 504.399,72.79 504.494,71.916C504.59,71.021 505.036,70.042 505.833,69.361C505.625,69.038 505.377,68.751 505.09,68.529C503.29,67.132 501.801,68.63 501.738,68.695L501.458,68.423C501.475,68.403 503.258,66.611 505.331,68.22C505.644,68.464 505.917,68.775 506.144,69.125C506.585,68.823 507.114,68.611 507.732,68.534C508.902,68.386 510.072,69.214 510.938,70.312C512.053,69.101 513.641,68.205 514.748,68.541C515.448,68.753 516.109,69.429 516.613,70.261C517.084,69.651 517.607,69.12 518.116,68.784C518.932,68.244 519.463,68.367 519.764,68.567C520.075,68.77 520.338,69.045 520.556,69.359C520.802,69.163 521.057,68.997 521.313,68.871C522.259,68.401 523.125,68.435 523.757,68.968L523.504,69.267C522.824,68.69 521.948,68.992 521.487,69.221C521.234,69.347 520.987,69.508 520.761,69.692C521.39,70.826 521.511,72.305 521.152,73.021C520.925,73.473 520.519,73.629 520.046,73.456C519.192,73.142 518.985,72.556 518.961,72.117C518.915,71.279 519.496,70.324 520.254,69.622C520.059,69.33 519.822,69.076 519.549,68.898C519.18,68.654 518.683,68.881 518.331,69.115C517.822,69.45 517.291,70.005 516.821,70.633C517.407,71.747 517.711,73.048 517.489,73.885C517.38,74.283 517.071,74.891 516.184,74.891ZM516.572,70.97C515.798,72.1 515.255,73.376 515.378,74.059C515.416,74.276 515.525,74.397 515.713,74.44C516.478,74.614 516.948,74.389 517.112,73.777C517.298,73.067 517.052,71.957 516.572,70.97ZM510.919,70.944C510.562,71.39 510.279,71.861 510.13,72.302C509.833,73.176 510.077,73.767 510.851,74.059C511.163,74.177 511.578,74.269 511.775,74.044C512.082,73.697 511.903,72.708 511.336,71.641C511.213,71.405 511.073,71.171 510.919,70.944ZM506.033,69.706C505.35,70.314 504.966,71.173 504.882,71.96C504.81,72.626 504.974,73.169 505.28,73.277C505.777,73.453 506.142,73.342 506.359,72.942C506.757,72.215 506.612,70.821 506.033,69.706ZM520.457,69.955C519.779,70.606 519.315,71.443 519.352,72.088C519.378,72.556 519.656,72.889 520.182,73.082C520.471,73.188 520.667,73.111 520.804,72.84C521.106,72.24 520.978,70.954 520.457,69.955Z" fill="#FFFFFF"/>
<path d="M178.305,127.848L173.539,127.848L173.539,145.379L178.305,145.379L178.305,127.848Z" fill="#CBFF9F"/>
<path d="M177.709,126.113L174.353,126.113C174.024,126.113 173.757,125.845 173.757,125.517C173.757,125.189 174.024,124.921 174.353,124.921L177.709,124.921C178.037,124.921 178.305,125.189 178.305,125.517C178.305,125.845 178.037,126.113 177.709,126.113Z" fill="#84E532"/>
<path d="M170.089,114.08L165.324,114.08L165.324,145.379L170.089,145.379L170.089,114.08Z" fill="#84E532"/>
<path d="M169.384,112.782L166.028,112.782C165.7,112.782 165.432,112.514 165.432,112.186C165.432,111.858 165.7,111.59 166.028,111.59L169.384,111.59C169.712,111.59 169.98,111.858 169.98,112.186C169.98,112.514 169.712,112.782 169.384,112.782Z" fill="#84E532"/>
<path d="M162.216,92.285L157.451,92.285L157.451,145.379L162.216,145.379L162.216,92.285Z" fill="#CBFF9F"/>
<path d="M161.511,90.838L158.155,90.838C157.827,90.838 157.559,90.571 157.559,90.242C157.559,89.914 157.827,89.646 158.155,89.646L161.511,89.646C161.839,89.646 162.107,89.914 162.107,90.242C162.107,90.571 161.839,90.838 161.511,90.838Z" fill="#84E532"/>
<path d="M154.136,101.919L149.37,101.919L149.37,145.381L154.136,145.381L154.136,101.919Z" fill="#84E532"/>
<path d="M153.431,100.756L150.075,100.756C149.747,100.756 149.479,100.489 149.479,100.16C149.479,99.832 149.747,99.564 150.075,99.564L153.431,99.564C153.759,99.564 154.027,99.832 154.027,100.16C154.027,100.489 153.759,100.756 153.431,100.756Z" fill="#84E532"/>
<path d="M146.263,77.801L141.497,77.801L141.497,145.381L146.263,145.381L146.263,77.801Z" fill="#CBFF9F"/>
<path d="M145.558,76.505L142.202,76.505C141.874,76.505 141.606,76.238 141.606,75.909C141.606,75.581 141.874,75.313 142.202,75.313L145.558,75.313C145.886,75.313 146.154,75.581 146.154,75.909C146.154,76.238 145.886,76.505 145.558,76.505Z" fill="#84E532"/>
<path d="M138.595,88.354L133.829,88.354L133.829,145.381L138.595,145.381L138.595,88.354Z" fill="#84E532"/>
<path d="M137.893,87.143L134.536,87.143C134.208,87.143 133.94,86.875 133.94,86.547C133.94,86.219 134.208,85.951 134.536,85.951L137.893,85.951C138.221,85.951 138.489,86.219 138.489,86.547C138.489,86.873 138.221,87.143 137.893,87.143Z" fill="#84E532"/>
<path d="M488.849,254.766L449.583,254.766L437.77,225.393L476.976,225.393L488.849,254.766Z" fill="#84E532"/>
<path d="M449.122,253.623L500.976,253.623L500.976,254.767L449.583,254.767L449.122,253.623Z" fill="#034906"/>
<path d="M459.495,240.079C459.198,239.046 459.796,238.209 460.829,238.209C461.862,238.209 462.938,239.046 463.235,240.079C463.531,241.112 462.933,241.949 461.9,241.949C460.868,241.949 459.792,241.112 459.495,240.079Z" fill="#FFFFFF"/>
<path d="M699.282,346.757L699.282,347.042C699.282,347.496 698.934,347.87 698.512,347.87L21.646,347.87C21.224,347.87 20.876,347.496 20.876,347.042L20.876,346.757C20.876,346.304 21.224,345.93 21.646,345.93L698.514,345.93C698.934,345.93 699.282,346.301 699.282,346.757Z" fill="#01008A"/>
</svg>
