<svg width="948" height="644" viewBox="0 0 948 644" fill="none" xmlns="http://www.w3.org/2000/svg" xmlns:xlink="http://www.w3.org/1999/xlink">
<path d="M192.591,202.067L10.938,202.067C7.065,202.067 3.922,198.924 3.922,195.051C3.922,191.177 7.065,188.034 10.938,188.034L192.591,188.034C196.464,188.034 199.607,191.177 199.607,195.051C199.607,198.924 196.464,202.067 192.591,202.067Z" fill="#FFB9C7"/>
<path d="M527.307,14.382L408.962,14.382C404.993,14.382 401.771,11.16 401.771,7.191C401.771,3.223 404.993,0 408.962,0L527.307,0C531.275,0 534.498,3.223 534.498,7.191C534.482,11.176 531.275,14.382 527.307,14.382Z" fill="#FFB9C7"/>
<path d="M91.819,294.696L70.944,294.696C65.452,294.696 61.007,290.251 61.007,284.758L61.007,265.153C61.007,259.661 65.452,255.216 70.944,255.216L91.819,255.216C97.312,255.216 101.757,259.661 101.757,265.153L101.757,284.758C101.757,290.251 97.312,294.696 91.819,294.696Z" fill="#01008A"/>
<path d="M699.244,642.776L687.846,642.776C684.845,642.776 682.433,640.347 682.433,637.363L682.433,626.663C682.433,623.663 684.861,621.25 687.846,621.25L699.244,621.25C702.244,621.25 704.657,623.679 704.657,626.663L704.657,637.363C704.673,640.347 702.244,642.776 699.244,642.776Z" fill="#F04365"/>
<path d="M903.582,186.065L892.184,186.065C889.183,186.065 886.771,183.636 886.771,180.652L886.771,169.952C886.771,166.952 889.199,164.539 892.184,164.539L903.582,164.539C906.582,164.539 908.995,166.968 908.995,169.952L908.995,180.652C908.995,183.636 906.566,186.065 903.582,186.065Z" fill="#01008A"/>
<path d="M106.948,516.51L49.418,546.322L65.991,554.339L45.418,578.944L61.467,592.104L81.358,565.673L94.677,579.96L106.948,516.51Z" fill="#FEFEF4"/>
<path d="M307.269,640.506L240.056,640.506C235.071,640.506 231.039,636.474 231.039,631.489C231.039,626.505 235.071,622.473 240.056,622.473L307.269,622.473C312.253,622.473 316.285,626.505 316.285,631.489C316.27,636.474 312.237,640.506 307.269,640.506Z" fill="#FFB9C7"/>
<path d="M738.643,576.644L197.305,576.644C191.035,576.644 185.955,571.564 185.955,565.294L185.955,114.425C185.955,108.154 191.035,103.074 197.305,103.074L738.643,103.074C744.913,103.074 749.993,108.154 749.993,114.425L749.993,565.294C749.993,571.564 744.913,576.644 738.643,576.644Z" fill="#D8DCFF"/>
<line x1="185.955" y1="158.507" x2="749.994" y2="158.507" stroke="#FEFEF4" stroke-width="1.541" stroke-miterlimit="10"/>
<path d="M738.643,575.104L197.305,575.104L197.305,578.184L738.643,578.184L738.643,575.104ZM197.305,575.104C191.886,575.104 187.496,570.712 187.496,565.294L184.414,565.294C184.414,572.414 190.184,578.184 197.305,578.184L197.305,575.104ZM187.496,565.294L187.496,114.425L184.414,114.425L184.414,565.294L187.496,565.294ZM187.496,114.425C187.496,109.005 191.886,104.615 197.305,104.615L197.305,101.534C190.184,101.534 184.414,107.303 184.414,114.425L187.496,114.425ZM197.305,104.615L738.643,104.615L738.643,101.534L197.305,101.534L197.305,104.615ZM738.643,104.615C744.063,104.615 748.453,109.005 748.453,114.425L751.535,114.425C751.535,107.303 745.765,101.534 738.643,101.534L738.643,104.615ZM748.453,114.425L748.453,565.294L751.535,565.294L751.535,114.425L748.453,114.425ZM748.453,565.294C748.453,570.712 744.063,575.104 738.643,575.104L738.643,578.184C745.765,578.184 751.535,572.414 751.535,565.294L748.453,565.294Z" fill="#FEFEF4"/>
<path d="M240.055,132.141C240.055,135.682 237.184,138.553 233.643,138.553L233.643,141.635C238.886,141.635 243.136,137.384 243.136,132.141L240.055,132.141ZM233.643,138.553C230.101,138.553 227.23,135.682 227.23,132.141L224.149,132.141C224.149,137.384 228.399,141.635 233.643,141.635L233.643,138.553ZM227.23,132.141C227.23,128.599 230.101,125.728 233.643,125.728L233.643,122.647C228.399,122.647 224.149,126.897 224.149,132.141L227.23,132.141ZM233.643,125.728C237.184,125.728 240.055,128.599 240.055,132.141L243.136,132.141C243.136,126.897 238.886,122.647 233.643,122.647L233.643,125.728Z" fill="#FEFEF4"/>
<path d="M270.963,132.14C270.963,135.681 268.092,138.552 264.551,138.552L264.551,141.634C269.794,141.634 274.045,137.383 274.045,132.14L270.963,132.14ZM264.551,138.552C261.009,138.552 258.138,135.681 258.138,132.14L255.057,132.14C255.057,137.383 259.307,141.634 264.551,141.634L264.551,138.552ZM258.138,132.14C258.138,128.598 261.009,125.727 264.551,125.727L264.551,122.646C259.307,122.646 255.057,126.896 255.057,132.14L258.138,132.14ZM264.551,125.727C268.092,125.727 270.963,128.598 270.963,132.14L274.045,132.14C274.045,126.896 269.794,122.646 264.551,122.646L264.551,125.727Z" fill="#FEFEF4"/>
<path d="M301.855,132.14C301.855,135.681 298.984,138.552 295.442,138.552L295.442,141.634C300.686,141.634 304.936,137.383 304.936,132.14L301.855,132.14ZM295.442,138.552C291.901,138.552 289.03,135.681 289.03,132.14L285.949,132.14C285.949,137.383 290.199,141.634 295.442,141.634L295.442,138.552ZM289.03,132.14C289.03,128.598 291.901,125.727 295.442,125.727L295.442,122.646C290.199,122.646 285.949,126.896 285.949,132.14L289.03,132.14ZM295.442,125.727C298.984,125.727 301.855,128.598 301.855,132.14L304.936,132.14C304.936,126.896 300.686,122.646 295.442,122.646L295.442,125.727Z" fill="#FEFEF4"/>
<path d="M303.062,491.3L16.43,491.3C7.366,491.3 0,483.935 0,474.854L0,368.606C0,359.526 7.366,352.176 16.43,352.176L303.046,352.176C312.126,352.176 319.476,359.542 319.476,368.606L319.476,474.854C319.492,483.935 312.126,491.3 303.062,491.3Z" fill="#F04365"/>
<path d="M37.579,378.005C37.579,380.692 35.389,382.881 32.702,382.881L32.702,385.226C36.684,385.226 39.923,381.986 39.923,378.005L37.579,378.005ZM32.702,382.881C30.016,382.881 27.826,380.692 27.826,378.005L25.482,378.005C25.482,381.986 28.721,385.226 32.702,385.226L32.702,382.881ZM27.826,378.005C27.826,375.319 30.016,373.129 32.702,373.129L32.702,370.785C28.721,370.785 25.482,374.024 25.482,378.005L27.826,378.005ZM32.702,373.129C35.389,373.129 37.579,375.319 37.579,378.005L39.923,378.005C39.923,374.024 36.684,370.785 32.702,370.785L32.702,373.129Z" fill="#FEFEF4"/>
<path d="M61.088,378.004C61.088,380.697 58.905,382.88 56.212,382.88L56.212,385.225C60.2,385.225 63.433,381.992 63.433,378.004L61.088,378.004ZM56.212,382.88C53.519,382.88 51.336,380.697 51.336,378.004L48.992,378.004C48.992,381.992 52.225,385.225 56.212,385.225L56.212,382.88ZM51.336,378.004C51.336,375.311 53.519,373.128 56.212,373.128L56.212,370.784C52.225,370.784 48.992,374.017 48.992,378.004L51.336,378.004ZM56.212,373.128C58.905,373.128 61.088,375.311 61.088,378.004L63.433,378.004C63.433,374.017 60.2,370.784 56.212,370.784L56.212,373.128Z" fill="#FEFEF4"/>
<path d="M84.598,378.004C84.598,380.697 82.415,382.88 79.722,382.88L79.722,385.225C83.71,385.225 86.942,381.992 86.942,378.004L84.598,378.004ZM79.722,382.88C77.029,382.88 74.846,380.697 74.846,378.004L72.502,378.004C72.502,381.992 75.734,385.225 79.722,385.225L79.722,382.88ZM74.846,378.004C74.846,375.311 77.029,373.128 79.722,373.128L79.722,370.784C75.734,370.784 72.502,374.017 72.502,378.004L74.846,378.004ZM79.722,373.128C82.415,373.128 84.598,375.311 84.598,378.004L86.942,378.004C86.942,374.017 83.71,370.784 79.722,370.784L79.722,373.128Z" fill="#FEFEF4"/>
<line x1="0" y1="399.739" x2="319.491" y2="399.739" stroke="#FEFEF4" stroke-width="1.172" stroke-miterlimit="10"/>
<path d="M818.158,175.587L689.574,175.587C678.843,175.587 670.144,166.888 670.144,156.157L670.144,52.432C670.144,41.701 678.843,33.002 689.574,33.002L818.158,33.002C828.889,33.002 837.588,41.701 837.588,52.432L837.588,156.157C837.588,166.872 828.889,175.587 818.158,175.587Z" fill="#F04365"/>
<path d="M743.308,120.504C727.355,120.504 714.369,107.518 714.369,91.564C714.369,75.61 727.355,62.625 743.308,62.625C759.262,62.625 772.248,75.61 772.248,91.564C772.232,107.534 759.262,120.504 743.308,120.504ZM743.308,69.197C730.974,69.197 720.925,79.23 720.925,91.58C720.925,103.915 730.958,113.963 743.308,113.963C755.643,113.963 765.692,103.931 765.692,91.58C765.676,79.23 755.643,69.197 743.308,69.197Z" fill="#FEFEF4"/>
<path d="M768.956,107.981L762.4,107.981L762.4,120.062L768.956,120.062L768.956,107.981Z" transform="rotate(-90 765.678 114.021)" fill="#FEFEF4"/>
<path d="M776.661,114.741L793.567,131.647C795.361,133.441 795.361,136.346 793.567,138.14L789.805,141.902C788.011,143.696 785.106,143.696 783.312,141.902L766.406,124.996C764.612,123.202 764.612,120.297 766.406,118.503L770.168,114.741C771.962,112.947 774.867,112.947 776.661,114.741Z" fill="#FEFEF4"/>
<path d="M136.871,130.885L62.975,130.885C50.593,130.885 40.544,120.836 40.544,108.454L40.544,45.781C40.544,33.383 50.593,23.351 62.975,23.351L136.871,23.351C149.269,23.351 159.302,33.399 159.302,45.781L159.302,108.438C159.317,120.836 149.269,130.885 136.871,130.885Z" fill="#01008A"/>
<path d="M99.932,100.278C86.057,100.278 74.771,88.992 74.771,75.117C74.771,61.243 86.057,49.956 99.932,49.956C113.806,49.956 125.093,61.243 125.093,75.117C125.093,88.992 113.806,100.278 99.932,100.278ZM99.932,57.512C90.232,57.512 82.327,65.402 82.327,75.117C82.327,84.817 90.216,92.722 99.932,92.722C109.647,92.722 117.537,84.832 117.537,75.117C117.537,65.418 109.631,57.512 99.932,57.512Z" fill="#FEFEF4"/>
<path d="M111.981,55.238L83.137,90.448L88.69,94.997L117.534,59.787L111.981,55.238Z" fill="#FEFEF4"/>
<path d="M927.205,509.192L659.497,509.192C648.052,509.192 638.781,499.922 638.781,488.476L638.781,288.726C638.781,277.28 648.052,268.01 659.497,268.01L927.205,268.01C938.651,268.01 947.923,277.28 947.923,288.726L947.923,488.492C947.923,499.922 938.651,509.192 927.205,509.192Z" fill="#01008A"/>
<path d="M675.503,290.792C675.503,293.4 673.389,295.515 670.781,295.515L670.781,297.785C674.643,297.785 677.774,294.654 677.774,290.792L675.503,290.792ZM670.781,295.515C668.172,295.515 666.058,293.4 666.058,290.792L663.788,290.792C663.788,294.654 666.918,297.785 670.781,297.785L670.781,295.515ZM666.058,290.792C666.058,288.184 668.172,286.07 670.781,286.07L670.781,283.799C666.918,283.799 663.788,286.93 663.788,290.792L666.058,290.792ZM670.781,286.07C673.389,286.07 675.503,288.184 675.503,290.792L677.774,290.792C677.774,286.93 674.643,283.799 670.781,283.799L670.781,286.07Z" fill="#FEFEF4"/>
<path d="M698.267,290.791C698.267,293.399 696.152,295.514 693.544,295.514L693.544,297.784C697.406,297.784 700.537,294.653 700.537,290.791L698.267,290.791ZM693.544,295.514C690.936,295.514 688.822,293.399 688.822,290.791L686.551,290.791C686.551,294.653 689.682,297.784 693.544,297.784L693.544,295.514ZM688.822,290.791C688.822,288.183 690.936,286.069 693.544,286.069L693.544,283.798C689.682,283.798 686.551,286.929 686.551,290.791L688.822,290.791ZM693.544,286.069C696.152,286.069 698.267,288.183 698.267,290.791L700.537,290.791C700.537,286.929 697.406,283.798 693.544,283.798L693.544,286.069Z" fill="#FEFEF4"/>
<path d="M721.047,290.791C721.047,293.399 718.933,295.514 716.325,295.514L716.325,297.784C720.187,297.784 723.318,294.653 723.318,290.791L721.047,290.791ZM716.325,295.514C713.716,295.514 711.602,293.399 711.602,290.791L709.331,290.791C709.331,294.653 712.462,297.784 716.325,297.784L716.325,295.514ZM711.602,290.791C711.602,288.183 713.716,286.069 716.325,286.069L716.325,283.798C712.462,283.798 709.331,286.929 709.331,290.791L711.602,290.791ZM716.325,286.069C718.933,286.069 721.047,288.183 721.047,290.791L723.318,290.791C723.318,286.929 720.187,283.798 716.325,283.798L716.325,286.069Z" fill="#FEFEF4"/>
<line x1="638.777" y1="314.086" x2="947.918" y2="314.086" stroke="#FEFEF4" stroke-width="1.135" stroke-miterlimit="10"/>
<path d="M497.445,408.246L496.27,392.324L396.975,397.198L396.975,412.564C396.975,412.564 374.639,433.804 365.829,575.167L544.561,575.167C544.561,575.183 564.166,450.076 497.445,408.246Z" fill="#01008A"/>
<path d="M397.045,413.809L497.499,409.476L497.393,407.015L396.939,411.348L397.045,413.809Z" fill="#000000"/>
<path d="M438.091,486.125L439.313,485.974L439.225,485.257L438.556,484.984L438.091,486.125ZM417.053,478.884L437.626,487.265L438.556,484.984L417.982,476.603L417.053,478.884ZM436.869,486.276L447.886,575.332L450.33,575.03L439.313,485.974L436.869,486.276Z" fill="#000000"/>
<path d="M288.442,377.464L315.873,286.916L376.212,309.537L347.257,396.26C341.32,414.166 320.857,422.628 304.014,414.103C290.585,407.309 284.013,391.847 288.442,377.464Z" fill="#F89A6E"/>
<path d="M330.748,238.563C336.177,220.91 355.131,211.243 372.609,217.211C389.595,223.022 398.754,241.42 393.103,258.47L376.197,309.522L315.857,286.901L330.748,238.563Z" fill="#FEFEF4"/>
<path d="M335.017,370.671L266.106,240.007C266.106,240.007 267.677,216.402 228.467,214.989L228.483,215.021C227.943,214.989 227.419,214.941 226.879,214.941L213.767,214.941C211.338,214.941 209.116,216.656 208.783,219.069C208.402,221.863 210.354,224.26 212.973,224.593L226.197,226.466L208.211,231.26L204.846,232.499L180.351,216.307C178.399,214.91 175.668,215.561 174.541,217.672C173.652,219.339 174.049,221.386 175.494,222.593C177.002,223.847 179.446,225.942 182.097,228.228L176.684,224.99C174.62,223.752 171.953,224.609 171.001,226.816C170.255,228.546 170.811,230.546 172.35,231.641C173.668,232.578 175.367,233.769 177.176,235.039L175.303,234.308C173.239,233.499 170.811,234.086 169.541,235.912C167.826,238.388 168.858,241.754 171.573,242.881L198.337,254.088C202.957,256.025 207.37,257.231 212.815,255.945L236.674,250.326L290.06,399.769L335.017,370.671Z" fill="#F89A6E"/>
<path d="M305.691,317.601L318.438,341.778L320.545,340.667L307.797,316.491L305.691,317.601Z" fill="#DB5749"/>
<path d="M384.387,215.767L358.765,217.687C358.765,217.687 321.682,267.994 396.975,397.213L496.271,392.339L503.748,253.119L491.492,213.592L447.012,213.592L384.387,215.767Z" fill="#FEFEF4"/>
<path d="M355.322,301.711C356.434,301.183 356.434,301.183 356.435,301.184C356.435,301.184 356.435,301.184 356.435,301.185C356.435,301.185 356.435,301.185 356.435,301.185C356.435,301.185 356.434,301.183 356.433,301.181C356.431,301.177 356.427,301.169 356.422,301.157C356.411,301.133 356.394,301.094 356.37,301.039C356.323,300.93 356.251,300.76 356.161,300.527C355.979,300.063 355.719,299.349 355.419,298.381C354.819,296.444 354.058,293.485 353.441,289.452C352.208,281.388 351.549,269.018 353.906,251.922L351.466,251.586C349.078,268.906 349.736,281.515 351.007,289.825C351.642,293.979 352.43,297.057 353.066,299.11C353.384,300.136 353.663,300.905 353.867,301.425C353.968,301.685 354.051,301.882 354.11,302.017C354.139,302.085 354.162,302.138 354.179,302.175C354.187,302.193 354.194,302.208 354.199,302.219C354.202,302.224 354.204,302.228 354.206,302.232C354.206,302.234 354.207,302.235 354.208,302.236C354.208,302.237 354.208,302.238 354.208,302.238C354.209,302.239 354.209,302.24 355.322,301.711Z" fill="#FCE7E4"/>
<path d="M585.802,359.289L544.56,274.138L488.491,305.903L530.622,387.037C539.274,403.801 560.816,408.96 576.119,397.911C588.326,389.101 592.406,372.798 585.802,359.289Z" fill="#F89A6E"/>
<path d="M522.304,228.689C514.176,212.1 493.952,205.512 477.617,214.148C461.742,222.529 455.583,242.15 463.822,258.104L488.491,305.903L544.56,274.138L522.304,228.689Z" fill="#FEFEF4"/>
<path d="M489.601,305.337L469.218,265.873L467.03,267.004L487.413,306.468L489.601,305.337Z" fill="#FCE7E4"/>
<path d="M671.874,213.608C670.62,211.782 668.176,211.211 666.112,212.005L654.142,216.672L665.397,207.147C667.255,205.575 667.779,202.782 666.382,200.797C664.762,198.511 661.667,198.162 659.619,199.829L649.158,208.258L658.079,196.59C659.556,194.654 659.476,191.812 657.667,190.177C655.603,188.288 652.507,188.621 650.84,190.669L633.22,208.957L615.234,204.163L628.457,202.289C631.077,201.956 633.045,199.559 632.648,196.765C632.315,194.352 630.092,192.638 627.664,192.638L614.551,192.638C606.804,192.638 599.248,195.336 593.518,200.48C593.422,200.559 593.327,200.607 593.232,200.686C585.183,207.036 588.12,220.037 588.12,220.037L538.734,359.86L587.676,381.577L615.885,231.419L633.902,231.451C635.014,231.562 636.141,231.546 637.268,231.451L637.411,231.451L637.395,231.451C639.331,231.276 641.252,230.816 643.078,230.054L669.842,220.577C672.557,219.434 673.573,216.084 671.874,213.608Z" fill="#F89A6E"/>
<path d="M556.765,301.384L546.098,338.61L548.387,339.266L559.054,302.04L556.765,301.384Z" fill="#DB5749"/>
<path d="M382.401,100.439C379.321,102.55 358.621,107.931 358.208,111.694C358.208,111.694 365.018,138.315 358.05,143.284C339.191,156.714 333.158,183.05 333.158,183.05C333.158,183.05 382.909,220.307 515.144,181.192C515.144,181.192 516.732,165.35 492.682,153.857C485.824,150.57 479.712,145.633 475.855,138.903C472.87,133.696 472.41,131.489 471.616,126.822C469.394,113.742 433.358,65.467 382.401,100.439Z" fill="#000000"/>
<path d="M384.354,140.332C384.957,149.063 378.369,156.651 369.638,157.255C360.907,157.858 353.319,151.27 352.716,142.539C352.113,133.808 358.701,126.22 367.432,125.616C376.179,125.013 383.751,131.601 384.354,140.332Z" fill="#D87B50"/>
<path d="M391.513,179.175L393.703,213.671C394.449,225.783 399.402,234.038 411.324,233.212C421.5,232.498 433.596,224.354 434.152,214.179L428.088,160.063L391.513,179.175Z" fill="#F89A6E"/>
<path d="M384.386,215.767L446.995,213.592C446.995,213.592 445.471,244.373 408.261,241.499C382.401,239.483 384.386,215.767 384.386,215.767Z" fill="#F89A6E"/>
<path d="M393.323,207.591L433.343,168.46L391.228,175.651L393.323,207.591Z" fill="#D87B50"/>
<path d="M402.022,184.749C381.64,184.813 364.812,168.764 364.209,152.127L363.003,112.853C362.241,91.994 378.163,74.294 398.975,72.849C420.294,71.373 442.503,87.184 443.979,108.488L444.598,140.078C445.09,164.525 426.39,183.051 402.022,184.749Z" fill="#F89A6E"/>
<path d="M386.552,138.418C386.618,137.879 386.234,137.389 385.695,137.323C385.156,137.257 384.666,137.641 384.601,138.18L386.552,138.418ZM384.386,148.062L383.41,147.943C383.377,148.216 383.46,148.491 383.639,148.701C383.818,148.91 384.076,149.035 384.352,149.044L384.386,148.062ZM389.4,149.219C389.942,149.238 390.398,148.813 390.416,148.27C390.435,147.728 390.01,147.273 389.468,147.254L389.4,149.219ZM384.601,138.18L383.41,147.943L385.362,148.181L386.552,138.418L384.601,138.18ZM384.352,149.044L389.4,149.219L389.468,147.254L384.42,147.079L384.352,149.044Z" fill="#000000"/>
<path d="M405.705,114.503C405.705,114.503 394.45,113.582 394.339,118.154C394.339,118.154 394.355,121.249 404.165,121.868C413.992,122.488 416.547,121.757 417.436,118.852C418.325,115.947 410.975,114.534 405.705,114.503Z" fill="#000000"/>
<path d="M373.066,121.202C373.066,121.202 381.591,120.519 382.401,124.63C382.401,124.63 382.877,127.424 375.416,127.853C367.955,128.282 365.637,127.361 365.494,124.996C365.32,122.186 369.003,121.154 373.066,121.202Z" fill="#000000"/>
<path d="M378.019,134.584C378.083,136.568 376.527,138.235 374.543,138.299C372.558,138.362 370.892,136.806 370.828,134.822C370.765,132.838 372.32,131.171 374.305,131.107C376.289,131.044 377.956,132.6 378.019,134.584Z" fill="#000000"/>
<path d="M408.26,133.599C408.324,135.583 406.768,137.25 404.784,137.313C402.8,137.377 401.133,135.821 401.069,133.837C401.006,131.852 402.561,130.186 404.546,130.122C406.53,130.043 408.197,131.598 408.26,133.599Z" fill="#000000"/>
<path d="M397.327,155.909C397.821,156.135 398.404,155.917 398.63,155.423C398.855,154.929 398.638,154.346 398.144,154.121L397.327,155.909ZM385.331,157.398C384.92,157.752 384.874,158.373 385.228,158.784C385.583,159.195 386.203,159.241 386.615,158.887L385.331,157.398ZM397.736,155.015C398.144,154.121 398.143,154.12 398.143,154.12C398.143,154.12 398.142,154.12 398.142,154.119C398.141,154.119 398.14,154.119 398.138,154.118C398.136,154.117 398.134,154.116 398.131,154.115C398.125,154.112 398.118,154.109 398.11,154.105C398.093,154.098 398.071,154.089 398.044,154.078C397.99,154.056 397.915,154.027 397.821,153.994C397.632,153.928 397.366,153.844 397.029,153.765C396.356,153.607 395.4,153.465 394.231,153.513C391.875,153.609 388.722,154.474 385.331,157.398L386.615,158.887C389.668,156.254 392.397,155.555 394.311,155.477C395.277,155.438 396.054,155.556 396.579,155.679C396.842,155.741 397.041,155.804 397.169,155.849C397.232,155.871 397.278,155.889 397.305,155.9C397.318,155.905 397.327,155.909 397.331,155.911C397.333,155.911 397.333,155.912 397.333,155.911C397.333,155.911 397.332,155.911 397.331,155.911C397.331,155.91 397.33,155.91 397.329,155.91C397.329,155.91 397.329,155.91 397.328,155.909C397.328,155.909 397.327,155.909 397.736,155.015Z" fill="#000000"/>
<path d="M411.578,66.102C406.498,65.832 401.371,66.387 396.466,67.705C384.258,70.959 362.351,79.992 358.589,103.439C357.335,109.614 358.208,111.693 358.208,111.693C358.208,111.693 399.133,113.297 423.341,101.867C426.818,116.614 430.04,125.742 444.613,140.093L457.535,120.662L472.092,133.711C472.187,134.203 472.171,69.324 411.578,66.102Z" fill="#000000"/>
<path d="M465.838,140.49C466.441,149.221 459.853,156.809 451.122,157.413C442.391,158.016 434.803,151.428 434.199,142.697C433.596,133.966 440.184,126.378 448.915,125.775C457.662,125.171 465.234,131.759 465.838,140.49Z" fill="#F89A6E"/>
<path d="M442.982,146.194C443.019,146.736 443.489,147.144 444.031,147.107C444.572,147.069 444.981,146.6 444.943,146.058L442.982,146.194ZM454.158,136.675C454.699,136.726 455.178,136.328 455.228,135.788C455.278,135.247 454.881,134.768 454.34,134.718L454.158,136.675ZM443.963,146.126C444.943,146.058 444.943,146.059 444.943,146.059C444.943,146.059 444.943,146.059 444.943,146.06C444.943,146.06 444.943,146.06 444.943,146.06C444.943,146.06 444.943,146.059 444.943,146.057C444.943,146.054 444.943,146.049 444.942,146.041C444.941,146.024 444.94,145.997 444.939,145.961C444.936,145.889 444.933,145.778 444.933,145.635C444.933,145.35 444.944,144.937 444.991,144.443C445.083,143.448 445.314,142.157 445.853,140.916C446.389,139.679 447.215,138.522 448.489,137.724C449.757,136.93 451.56,136.433 454.158,136.675L454.34,134.718C451.398,134.444 449.145,134.993 447.446,136.058C445.752,137.119 444.699,138.633 444.049,140.133C443.401,141.628 443.138,143.139 443.033,144.26C442.98,144.824 442.967,145.299 442.967,145.636C442.967,145.805 442.971,145.939 442.974,146.034C442.976,146.082 442.978,146.119 442.979,146.146C442.98,146.159 442.98,146.17 442.981,146.178C442.981,146.182 442.981,146.186 442.982,146.188C442.982,146.19 442.982,146.191 442.982,146.192C442.982,146.192 442.982,146.193 442.982,146.193C442.982,146.194 442.982,146.194 443.963,146.126Z" fill="#000000"/>
</svg>
