<svg width="40" height="46" viewBox="0 0 40 46" fill="none" xmlns="http://www.w3.org/2000/svg" xmlns:xlink="http://www.w3.org/1999/xlink">
<path d="M9.722,-0.197L24.988,-0.197C25.457,-0.197 25.905,-0.005 26.23,0.333L37.852,12.439C38.16,12.76 38.331,13.187 38.331,13.631L38.331,34.664C38.331,40.398 33.683,45.359 28.054,45.359L9.722,45.359C3.803,45.359 -0.797,40.631 -0.797,34.664L-0.797,10.081C-0.797,4.434 4.014,-0.197 9.722,-0.197ZM34.888,14.323L24.252,3.245L9.722,3.247C5.886,3.247 2.645,6.366 2.645,10.082L2.645,34.665C2.645,38.752 5.725,41.918 9.722,41.918L28.054,41.918C31.73,41.918 34.889,38.547 34.889,34.665L34.888,14.323Z" clip-rule="evenodd" fill-rule="evenodd" fill="#EE9311"/>
<path d="M24.385,-0.222C25.256,-0.222 25.976,0.425 26.09,1.265L26.106,1.499L26.106,8.174C26.106,10.483 27.974,12.357 30.282,12.362L36.486,12.361C37.435,12.298 38.254,13.016 38.317,13.965C38.379,14.913 37.661,15.733 36.713,15.795L32.879,15.808C32.113,15.808 31.242,15.806 30.274,15.804C26.214,15.795 22.9,12.612 22.676,8.606L22.664,8.174L22.664,1.499C22.664,0.548 23.435,-0.222 24.385,-0.222Z" fill="#EE9311"/>
<g opacity="0.4">
<path d="M23.949,29.167C24.9,29.167 25.67,29.937 25.67,30.888C25.67,31.759 25.023,32.479 24.183,32.593L23.949,32.609L11.565,32.609C10.614,32.609 9.844,31.838 9.844,30.888C9.844,30.016 10.491,29.296 11.331,29.182L11.565,29.167L23.949,29.167Z" fill="#EE9311"/>
</g>
<g opacity="0.4">
<path d="M19.265,17.803C20.215,17.803 20.986,18.574 20.986,19.524C20.986,20.395 20.338,21.116 19.498,21.23L19.265,21.245L11.564,21.245C10.613,21.245 9.843,20.475 9.843,19.524C9.843,18.653 10.49,17.933 11.33,17.819L11.564,17.803L19.265,17.803Z" fill="#EE9311"/>
</g>
</svg>
