<svg width="32" height="18" viewBox="0 0 32 18" fill="none" xmlns="http://www.w3.org/2000/svg" xmlns:xlink="http://www.w3.org/1999/xlink">
<path d="M31.194,7.322C30.91,7.012 24.108,-0.414 15.588,-0.414C7.068,-0.414 0.264,7.012 -0.018,7.322C-0.171,7.492 -0.255,7.713 -0.255,7.941C-0.255,8.17 -0.171,8.39 -0.018,8.561C0.264,8.869 7.068,16.295 15.588,16.295C24.108,16.295 30.912,8.869 31.194,8.561C31.347,8.39 31.431,8.17 31.431,7.941C31.431,7.713 31.347,7.492 31.194,7.322L31.194,7.322ZM15.588,14.438C14.303,14.438 13.046,14.057 11.978,13.343C10.909,12.629 10.076,11.614 9.585,10.427C9.093,9.24 8.964,7.933 9.215,6.673C9.466,5.412 10.084,4.254 10.993,3.346C11.902,2.437 13.06,1.818 14.32,1.567C15.581,1.317 16.887,1.445 18.075,1.937C19.262,2.429 20.277,3.262 20.991,4.33C21.705,5.399 22.086,6.655 22.086,7.94C22.086,9.664 21.401,11.317 20.183,12.535C18.964,13.754 17.311,14.438 15.588,14.438L15.588,14.438Z" fill="#B5B5B5"/>
<path d="M16.517,6.085C16.518,5.642 16.625,5.206 16.828,4.813C17.031,4.419 17.326,4.08 17.686,3.823C17.039,3.484 16.32,3.304 15.589,3.3C14.703,3.297 13.836,3.548 13.089,4.022C12.341,4.496 11.745,5.174 11.37,5.976C10.995,6.778 10.858,7.67 10.973,8.548C11.089,9.425 11.453,10.252 12.023,10.929C12.593,11.606 13.344,12.107 14.189,12.371C15.034,12.635 15.937,12.652 16.791,12.42C17.645,12.189 18.415,11.717 19.01,11.062C19.606,10.407 20.001,9.595 20.15,8.723C19.734,8.86 19.291,8.896 18.857,8.828C18.424,8.761 18.013,8.591 17.658,8.333C17.304,8.076 17.015,7.737 16.817,7.347C16.618,6.956 16.515,6.523 16.517,6.085L16.517,6.085Z" fill="#B5B5B5"/>
</svg>
