<svg width="792" height="586" viewBox="0 0 792 586" fill="none" xmlns="http://www.w3.org/2000/svg" xmlns:xlink="http://www.w3.org/1999/xlink">
<path d="M766.728,258.973C763.567,251.178 760.468,243.845 757.492,236.879C754.515,252.007 750.986,267.043 747.12,281.926C736.012,324.517 722.817,367.078 704.774,407.277C698.728,420.778 692.07,433.912 684.92,446.707C733.127,511.515 748.531,585.621 748.531,585.621C748.531,585.621 829.265,412.524 766.728,258.973Z" fill="#008B22"/>
<g opacity="0.6">
<path d="M684.889,446.709L718.367,453.429L698.452,420.779L684.889,446.709Z" fill="#A5B2C2"/>
</g>
<path d="M779.984,485.157C793.148,422.067 798.886,337.927 766.727,258.973C763.567,251.178 760.468,243.845 757.491,236.879C754.515,252.007 750.986,267.043 747.119,281.926C739.202,312.243 730.211,342.499 719.195,371.957C743.161,407.583 762.861,445.757 779.984,485.157Z" fill="#FF8E00"/>
<path d="M743.835,340.561C724.196,354.124 710.879,388.093 694.677,406.197C694.493,406.381 694.309,406.596 694.155,406.78C759.853,471.128 765.346,562.633 765.346,562.633L791.644,489.724C791.644,489.724 782.131,418.441 743.835,340.561Z" fill="#FFFFFF"/>
<g opacity="0.6">
<path d="M732.299,446.431C749.575,403.993 768.078,362.015 784.28,319.147C784.219,318.748 784.127,318.38 784.065,317.981C783.82,316.662 783.544,315.312 783.268,313.992C783.022,312.857 782.807,311.721 782.562,310.586C782.286,309.267 781.979,307.916 781.672,306.597C781.426,305.462 781.15,304.326 780.905,303.191C780.567,301.841 780.23,300.49 779.892,299.14C779.616,298.036 779.34,296.9 779.033,295.796C778.665,294.415 778.266,293.065 777.898,291.684C777.591,290.579 777.284,289.505 776.977,288.4C776.578,286.989 776.118,285.577 775.688,284.166C775.351,283.122 775.044,282.048 774.706,281.005C774.246,279.532 773.724,278.059 773.233,276.586C772.896,275.604 772.589,274.622 772.251,273.64C771.668,271.983 771.055,270.326 770.441,268.669C770.165,267.872 769.889,267.104 769.582,266.307C768.661,263.852 767.71,261.428 766.728,258.973C763.567,251.178 760.468,243.845 757.492,236.879C754.515,252.007 750.986,267.043 747.12,281.926C745.923,286.528 744.696,291.131 743.438,295.703C742.977,297.391 742.486,299.11 742.026,300.797C741.228,303.651 740.43,306.474 739.633,309.297C739.019,311.445 738.405,313.563 737.791,315.68C737.178,317.736 736.564,319.761 735.95,321.817C734.477,326.727 732.974,331.606 731.409,336.454C731.071,337.497 730.734,338.571 730.396,339.615C726.898,350.447 723.185,361.217 719.196,371.896C714.746,383.833 709.99,395.616 704.774,407.215C698.728,420.717 692.07,433.85 684.92,446.647C696.335,461.989 705.878,477.853 713.857,493.135C719.81,477.547 725.977,461.959 732.299,446.431Z" fill="#A5B2C2"/>
</g>
<path d="M737.668,152.555L790.478,289.689L718.367,453.429L669.27,372.971L737.668,152.555Z" fill="#008B22"/>
<g opacity="0.6">
<path d="M669.27,372.969L693.603,380.855L677.647,338.447L669.27,372.969Z" fill="#A5B2C2"/>
</g>
<path d="M758.073,360.543C758.564,361.249 759.055,362.015 759.577,362.783L790.477,289.689L737.698,152.555L697.224,282.969C718.182,308.284 739.785,333.355 758.073,360.543Z" fill="#FF8E00"/>
<path d="M710.328,245.225C698.636,267.594 678.813,287.172 664.268,306.657C664.115,306.872 663.961,307.087 663.777,307.302C734.876,365.605 742.271,411.234 742.271,411.234L782.224,363.058C782.224,363.058 767.955,289.964 710.328,245.225Z" fill="#FFFFFF"/>
<g opacity="0.6">
<path d="M718.091,371.067C729.261,342.591 740.829,314.237 751.999,285.761C757.829,270.847 765.286,255.167 771.085,239.272L737.699,152.523L669.301,372.939L698.82,421.329C705.019,404.545 711.555,387.821 718.091,371.067Z" fill="#A5B2C2"/>
</g>
<path d="M693.604,380.853C698.882,371.127 703.884,361.215 708.548,351.089C727.052,310.829 740.154,267.839 751.324,225.032C757.001,203.276 761.88,181.274 765.347,159.058C717.017,54.941 694.954,63.196 694.954,63.196L604.432,313.897C641.5,328.933 670.743,353.483 693.604,380.853Z" fill="#008B22"/>
<path d="M736.687,276.494C742.026,259.433 746.844,242.249 751.324,225.065C757.001,203.309 761.88,181.307 765.347,159.091C717.017,54.974 694.954,63.229 694.954,63.229L648.22,192.661C681.452,215.921 711.218,244.551 736.687,276.494Z" fill="#FF8E00"/>
<path d="M652.516,137.148C645.459,166.545 628.152,195.083 616.921,221.933C616.798,222.24 616.675,222.516 616.553,222.823C716.159,269.803 738.037,320.679 738.037,320.679L770.411,253.079C770.411,253.079 732.483,172.345 652.516,137.148Z" fill="#FFFFFF"/>
<g opacity="0.6">
<path d="M730.334,94.681C706.246,59.055 694.953,63.259 694.953,63.259L648.219,192.66L604.431,313.961C619.927,320.221 634.012,328.167 646.869,337.281C667.367,286.773 721.619,122.758 730.334,94.681Z" fill="#A5B2C2"/>
</g>
<path d="M709.169,46.428C710.603,42.458 708.547,38.077 704.577,36.644C700.607,35.21 696.226,37.266 694.793,41.236L709.169,46.428ZM504.756,567.496C503.322,571.466 505.379,575.846 509.349,577.28C513.319,578.714 517.699,576.658 519.133,572.688L504.756,567.496ZM694.793,41.236L504.756,567.496L519.133,572.688L709.169,46.428L694.793,41.236Z" fill="#A5B2C2"/>
<g opacity="0.6">
<path d="M709.285,43.064C709.684,47.084 706.769,50.705 702.749,51.104C698.729,51.503 695.108,48.587 694.709,44.568C694.31,40.548 697.226,36.927 701.245,36.528C705.265,36.098 708.855,39.044 709.285,43.064Z" fill="#A5B2C2"/>
</g>
<path d="M708.466,41.949C710.306,42.586 712.315,41.612 712.953,39.771C713.59,37.931 712.616,35.923 710.775,35.285L708.466,41.949ZM699.974,31.541C698.134,30.903 696.125,31.878 695.488,33.718C694.85,35.558 695.824,37.567 697.665,38.205L699.974,31.541ZM710.775,35.285L699.974,31.541L697.665,38.205L708.466,41.949L710.775,35.285Z" fill="#A5B2C2"/>
<g opacity="0.6">
<path d="M716.71,0.689L700.784,32.541L709.438,35.579L716.71,0.689Z" fill="#A5B2C2"/>
</g>
<path d="M25.239,258.973C28.4,251.178 31.499,243.845 34.475,236.879C37.452,252.007 40.981,267.043 44.847,281.926C55.955,324.517 69.15,367.078 87.193,407.277C93.238,420.778 99.897,433.912 107.047,446.707C58.84,511.515 43.436,585.621 43.436,585.621C43.436,585.621 -37.299,412.524 25.239,258.973Z" fill="#008B22"/>
<g opacity="0.6">
<path d="M107.077,446.709L73.63,453.429L93.545,420.779L107.077,446.709Z" fill="#A5B2C2"/>
</g>
<path d="M11.982,485.157C-1.182,422.067 -6.92,337.927 25.239,258.973C28.399,251.178 31.498,243.845 34.475,236.879C37.451,252.007 40.98,267.043 44.847,281.926C52.764,312.243 61.754,342.499 72.771,371.957C48.836,407.583 29.105,445.757 11.982,485.157Z" fill="#FF8E00"/>
<path d="M48.129,340.561C67.768,354.124 81.086,388.093 97.288,406.197C97.472,406.381 97.656,406.596 97.81,406.78C32.112,471.128 26.619,562.633 26.619,562.633L0.321,489.724C0.352,489.724 9.834,418.441 48.129,340.561Z" fill="#FFFFFF"/>
<g opacity="0.6">
<path d="M59.698,446.431C42.422,403.993 23.919,362.015 7.717,319.147C7.778,318.748 7.87,318.38 7.932,317.981C8.177,316.662 8.453,315.312 8.729,313.992C8.975,312.857 9.19,311.721 9.435,310.586C9.711,309.267 10.018,307.916 10.325,306.597C10.571,305.462 10.847,304.326 11.092,303.191C11.43,301.841 11.767,300.49 12.105,299.14C12.381,298.036 12.657,296.9 12.964,295.796C13.332,294.415 13.731,293.065 14.099,291.684C14.406,290.579 14.713,289.505 15.02,288.4C15.419,286.989 15.879,285.577 16.309,284.166C16.646,283.122 16.953,282.048 17.291,281.005C17.751,279.532 18.273,278.059 18.764,276.586C19.101,275.604 19.408,274.622 19.746,273.64C20.329,271.983 20.942,270.326 21.556,268.669C21.832,267.872 22.108,267.104 22.415,266.307C23.336,263.852 24.287,261.428 25.269,258.973C28.43,251.178 31.529,243.845 34.505,236.879C37.482,252.007 41.011,267.043 44.877,281.926C46.074,286.528 47.301,291.131 48.559,295.703C49.02,297.391 49.511,299.11 49.971,300.797C50.769,303.651 51.567,306.474 52.364,309.297C52.978,311.445 53.592,313.563 54.206,315.68C54.819,317.736 55.433,319.761 56.047,321.817C57.52,326.727 59.023,331.606 60.588,336.454C60.926,337.497 61.263,338.571 61.601,339.615C65.099,350.447 68.812,361.217 72.801,371.896C77.251,383.833 82.007,395.616 87.223,407.215C93.268,420.717 99.927,433.85 107.077,446.647C95.662,461.989 86.119,477.853 78.14,493.135C72.187,477.547 66.02,461.959 59.698,446.431Z" fill="#A5B2C2"/>
</g>
<path d="M54.297,152.555L1.487,289.689L73.629,453.429L122.696,372.971L54.297,152.555Z" fill="#008B22"/>
<g opacity="0.6">
<path d="M122.696,372.969L98.393,380.855L114.349,338.447L122.696,372.969Z" fill="#A5B2C2"/>
</g>
<path d="M33.923,360.543C33.432,361.249 32.941,362.015 32.419,362.783L1.519,289.689L54.298,152.555L94.772,282.969C73.814,308.284 52.181,333.355 33.923,360.543Z" fill="#FF8E00"/>
<path d="M81.638,245.225C93.329,267.594 113.152,287.172 127.697,306.657C127.85,306.872 128.004,307.087 128.188,307.302C57.089,365.605 49.694,411.234 49.694,411.234L9.741,363.058C9.741,363.058 24.041,289.964 81.638,245.225Z" fill="#FFFFFF"/>
<g opacity="0.6">
<path d="M73.874,371.067C62.704,342.591 51.136,314.237 39.966,285.761C34.136,270.847 26.679,255.167 20.88,239.272L54.266,152.523L122.664,372.939L93.145,421.329C86.946,404.545 80.441,387.821 73.874,371.067Z" fill="#A5B2C2"/>
</g>
<path d="M98.394,380.853C93.116,371.127 88.114,361.215 83.45,351.089C64.946,310.829 51.843,267.839 40.674,225.032C34.997,203.276 30.118,181.274 26.65,159.058C74.98,54.941 97.043,63.196 97.043,63.196L187.566,313.897C150.498,328.933 121.254,353.483 98.394,380.853Z" fill="#008B22"/>
<path d="M55.311,276.494C49.972,259.433 45.154,242.249 40.674,225.065C34.997,203.309 30.118,181.307 26.65,159.091C74.98,54.974 97.043,63.229 97.043,63.229L143.747,192.661C110.514,215.921 80.78,244.551 55.311,276.494Z" fill="#FF8E00"/>
<path d="M139.451,137.148C146.508,166.545 163.815,195.083 175.046,221.933C175.169,222.24 175.292,222.516 175.414,222.823C75.809,269.803 53.93,320.679 53.93,320.679L21.587,253.079C21.587,253.079 59.484,172.345 139.451,137.148Z" fill="#FFFFFF"/>
<g opacity="0.6">
<path d="M61.663,94.681C85.721,59.055 97.013,63.259 97.013,63.259L143.747,192.66L187.536,313.961C172.039,320.221 157.955,328.167 145.097,337.281C124.599,286.773 70.347,122.758 61.663,94.681Z" fill="#A5B2C2"/>
</g>
<path d="M97.204,41.237C95.771,37.267 91.39,35.21 87.42,36.644C83.45,38.077 81.394,42.457 82.827,46.427L97.204,41.237ZM272.833,572.686C274.266,576.656 278.647,578.714 282.617,577.28C286.587,575.846 288.643,571.466 287.21,567.496L272.833,572.686ZM82.827,46.427L272.833,572.686L287.21,567.496L97.204,41.237L82.827,46.427Z" fill="#A5B2C2"/>
<g opacity="0.6">
<path d="M82.711,43.064C82.312,47.084 85.228,50.705 89.247,51.104C93.267,51.503 96.888,48.587 97.287,44.568C97.686,40.548 94.771,36.927 90.751,36.528C86.731,36.098 83.11,39.044 82.711,43.064Z" fill="#A5B2C2"/>
</g>
<path d="M81.193,35.284C79.352,35.92 78.376,37.928 79.012,39.769C79.648,41.609 81.656,42.586 83.497,41.95L81.193,35.284ZM94.329,38.206C96.169,37.57 97.146,35.562 96.51,33.721C95.873,31.881 93.866,30.904 92.025,31.54L94.329,38.206ZM83.497,41.95L94.329,38.206L92.025,31.54L81.193,35.284L83.497,41.95Z" fill="#A5B2C2"/>
<g opacity="0.6">
<path d="M75.256,0.689L91.212,32.541L82.528,35.579L75.256,0.689Z" fill="#A5B2C2"/>
</g>
<path d="M567.149,63.506L597.804,21.988C600.351,18.551 605.2,17.814 608.667,20.361C612.104,22.908 612.84,27.757 610.293,31.224C609.833,31.838 609.25,32.421 608.667,32.85L567.149,63.506Z" fill="#008B22"/>
<path d="M542.754,67.89L500.101,36.069C496.664,33.522 495.959,28.643 498.536,25.206C501.083,21.769 505.962,21.064 509.399,23.611C510.013,24.071 510.534,24.623 510.995,25.206L542.754,67.89Z" fill="#008B22"/>
<path d="M541.035,90.479L510.411,131.935C507.864,135.372 503.016,136.108 499.548,133.561C496.111,131.014 495.375,126.166 497.922,122.699C498.382,122.054 498.965,121.502 499.548,121.072L541.035,90.479Z" fill="#008B22"/>
<path d="M565.124,91.488L606.059,121.591C609.526,124.138 610.263,128.986 607.716,132.454C605.169,135.921 600.321,136.658 596.853,134.111C596.209,133.65 595.656,133.067 595.196,132.454L565.124,91.488Z" fill="#008B22"/>
<path d="M585.346,78.694L617.566,71.023C621.8,70.01 626.066,72.619 627.078,76.853C628.091,81.088 625.483,85.353 621.248,86.366C620.021,86.673 618.762,86.642 617.596,86.366L585.346,78.694Z" fill="#008B22"/>
<path d="M552.818,52.213L545.147,13.733C544.288,9.499 547.049,5.387 551.284,4.528C555.519,3.669 559.631,6.43 560.49,10.665C560.705,11.708 560.674,12.752 560.49,13.733L552.818,52.213Z" fill="#008B22"/>
<path d="M536.095,78.695L488.87,86.367C484.636,87.042 480.646,84.188 479.941,79.953C479.266,75.719 482.119,71.729 486.354,71.024C487.182,70.901 488.042,70.901 488.839,71.024L536.095,78.695Z" fill="#008B22"/>
<path d="M552.819,108.645L560.49,140.865C561.503,145.099 558.895,149.364 554.66,150.377C550.425,151.39 546.16,148.781 545.147,144.547C544.841,143.319 544.871,142.061 545.147,140.895L552.819,108.645Z" fill="#008B22"/>
<path d="M260.046,80.506L290.701,38.988C293.248,35.551 298.096,34.814 301.564,37.361C305,39.908 305.737,44.757 303.19,48.224C302.73,48.838 302.147,49.421 301.564,49.85L260.046,80.506Z" fill="#008B22"/>
<path d="M235.621,84.895L192.968,53.074C189.532,50.527 188.826,45.648 191.403,42.212C193.95,38.775 198.829,38.069 202.266,40.647C202.88,41.107 203.402,41.659 203.831,42.212L235.621,84.895Z" fill="#008B22"/>
<path d="M233.934,107.479L203.309,148.935C200.763,152.372 195.914,153.108 192.447,150.561C189.01,148.014 188.273,143.166 190.82,139.699C191.281,139.054 191.864,138.502 192.447,138.072L233.934,107.479Z" fill="#008B22"/>
<path d="M257.991,108.486L298.926,138.589C302.393,141.136 303.13,145.984 300.583,149.452C298.036,152.919 293.188,153.656 289.72,151.109C289.076,150.649 288.523,150.065 288.063,149.452L257.991,108.486Z" fill="#008B22"/>
<path d="M278.212,95.694L310.432,88.023C314.667,87.01 318.932,89.619 319.945,93.853C320.957,98.088 318.349,102.353 314.114,103.366C312.887,103.673 311.629,103.642 310.463,103.366L278.212,95.694Z" fill="#008B22"/>
<path d="M245.716,69.213L238.044,30.734C237.185,26.499 239.947,22.387 244.182,21.528C248.416,20.669 252.528,23.43 253.387,27.665C253.602,28.708 253.571,29.752 253.387,30.734L245.716,69.213Z" fill="#008B22"/>
<path d="M228.994,95.695L181.769,103.367C177.534,104.042 173.545,101.188 172.839,96.953C172.164,92.719 175.018,88.729 179.252,88.024C180.081,87.901 180.94,87.901 181.738,88.024L228.994,95.695Z" fill="#008B22"/>
</svg>
