<svg width="2154" height="1186" viewBox="0 0 2154 1186" fill="none" xmlns="http://www.w3.org/2000/svg" xmlns:xlink="http://www.w3.org/1999/xlink">
<path d="M549.604,1179.53C549.604,1179.53 197.115,860.812 395.623,430.018C490.858,223.334 744.496,174.83 821.374,217.128C922.746,272.896 1057.208,122.238 1347.834,18.793C1566.266,-58.954 2060.712,99.57 1899.692,587.174C1802.022,882.948 2178.004,805.14 2119.688,1183.144L549.604,1179.53Z" fill="#EDEFFF"/>
<path d="M674.298,797.197L394.488,797.197L394.488,1179.291L674.298,1179.291L674.298,797.197Z" fill="#F9DDBF"/>
<path d="M891.663,797.197L674.299,797.197L674.299,1179.307L891.663,1179.307L891.663,797.197Z" fill="#FFF3E9"/>
<path d="M745.427,634.207L653.747,822.956L375.219,822.956L520.429,634.896L745.427,634.207Z" fill="#ED9F4A"/>
<path d="M756.419,634.207L664.739,822.955L386.211,822.955L531.421,634.895L756.419,634.207Z" fill="#F9DDBF"/>
<path d="M533.924,728.582L528.072,728.582C508.2,728.582 492.09,744.692 492.09,764.564L492.09,856.003L568.736,856.003L568.736,763.402C568.736,744.167 553.15,728.582 533.924,728.582Z" fill="#EFCDAF"/>
<path d="M921.947,833.428L669.117,833.428L519.689,634.206L603.814,634.223L768.155,634.249L921.947,833.428Z" fill="#ED9F4A"/>
<path d="M921.946,833.429L875.62,833.429L603.814,634.224L768.156,634.25L921.946,833.429Z" fill="#E58638"/>
<path d="M501.056,875.677L435.788,1010.061L237.486,1010.061L340.871,876.167L501.056,875.677Z" fill="#ED9F4A"/>
<path d="M507.002,875.675L441.724,1010.059L243.432,1010.059L346.808,876.165L507.002,875.675Z" fill="#F9DDBF"/>
<path d="M441.293,1010.06L441.293,1153.979L375.646,1153.979C373.452,1153.652 372.333,1153.437 372.333,1153.437C372.333,1153.437 338.829,1153.437 299.198,1139.839C281.022,1133.6 261.555,1124.503 243.439,1111.241L243.439,1010.068L441.293,1010.068L441.293,1010.06Z" fill="#F9DDBF"/>
<path d="M608.847,1010.06L608.847,1127.042C596.876,1130.528 585.309,1133.634 574.147,1136.388C535.755,1145.846 502.243,1151.165 474.127,1153.979L441.295,1153.979L441.295,1010.06L608.847,1010.06Z" fill="#FFF3E9"/>
<path d="M627.253,1018.002L447.266,1018.002L340.869,876.166L394.485,876.174L517.767,876.2L627.253,1018.002Z" fill="#ED9F4A"/>
<path d="M382.548,1039.887L382.548,1153.97L375.637,1153.97C373.443,1153.642 372.324,1153.427 372.324,1153.427C372.324,1153.427 338.82,1153.427 299.189,1139.83L299.189,1041.264C299.189,1028.915 304.474,1017.796 312.908,1010.059C320.446,1003.122 330.507,998.896 341.557,998.896C352.435,998.896 362.332,1003.139 369.665,1010.059C377.599,1017.529 382.548,1028.131 382.548,1039.887Z" fill="#EFCDAF"/>
<path d="M340.868,960.127C346.035,960.127 350.223,955.938 350.223,950.772C350.223,945.605 346.035,941.417 340.868,941.417C335.702,941.417 331.514,945.605 331.514,950.772C331.514,955.938 335.702,960.127 340.868,960.127Z" fill="#EFCDAF"/>
<path d="M627.254,1018.003L593.098,1018.003L394.486,876.175L517.769,876.201L627.254,1018.003Z" fill="#E58638"/>
<path d="M1525.867,1179.306C1382.249,1136.732 1208.157,1097.591 1065.141,1131.844C922.125,1166.096 867.183,1212.31 710.123,1105.982C695.871,1096.335 682.721,1089.183 670.405,1084.071C698.135,1079.045 735.193,1070.267 718.763,1061.386C701.637,1052.125 672.987,1067.952 656.421,1079.019C652.273,1077.754 648.219,1076.722 644.251,1075.913C682.093,1048.821 749.195,997.571 717.979,995.85C687.187,994.155 649.957,1045.576 631.781,1074.028C628.665,1073.727 625.593,1073.546 622.565,1073.494C620.955,1058.709 615.033,1032.529 593.303,1030.894C571.091,1029.225 597.323,1058.098 613.029,1073.744C528.473,1079.372 471.235,1175.364 293.683,1114.778C266.41,1105.474 238.251,1106.034 211.719,1111.774C195.023,1074.888 145.443,974.576 104.444,985.015C63.487,995.437 164.927,1082.307 203.431,1113.745C198.844,1114.933 194.326,1116.258 189.868,1117.712C166.563,1100.526 122.844,1072.746 97.869,1084.94C73.453,1096.86 134.651,1113.926 174.489,1123.263C121.363,1144.339 81.775,1179.194 81.775,1179.194L1525.867,1179.306Z" fill="#A8D29F"/>
<path d="M2052.44,1179.35L1885.396,1179.35C1876.368,1171.776 1891.515,1154.495 1907.376,1153.325C1914.261,1152.809 1922.944,1154.229 1932.867,1156.337C1935.174,1125.794 1948.307,988.587 1997.757,994.087C2053.378,1000.274 1997.757,1054.527 1982.034,1086.645C1970.39,1110.432 1958.092,1144.564 1952.489,1160.683C1957.007,1161.664 1961.672,1162.637 1966.457,1163.515C1973.806,1140.872 2001.243,1064.717 2036.14,1069.149C2077.114,1074.338 2060.633,1104.873 2031.614,1122.997C2010.296,1136.319 1984.125,1155.27 1971.698,1164.418C1982.232,1166.139 1993.239,1167.284 2004.393,1167.026C2033.094,1166.355 2047.062,1174.823 2052.44,1179.35Z" fill="#A8D29F"/>
<path d="M1173.371,241.011C1173.371,241.011 1213.123,259.815 1222.159,257.448C1231.187,255.082 1265.508,249.023 1270.327,251.157C1270.327,251.157 1275.792,259.875 1271.67,265.607C1267.547,271.339 1234.165,286.855 1222.099,287.415C1210.033,287.974 1164.257,279.687 1154.541,272.096L1173.371,241.011Z" fill="#E8945B"/>
<path d="M1269.122,251.321C1269.122,251.321 1284.45,244.961 1289.467,252.07C1294.484,259.179 1297.333,266.382 1296.705,270.022C1296.085,273.663 1285.732,275.272 1281.593,272.441C1277.453,269.609 1267.203,265.65 1267.203,265.65L1269.122,251.321Z" fill="#E8945B"/>
<path d="M1342.396,1143.618C1342.396,1143.618 1333.936,1157.31 1333.747,1173.197C1333.704,1176.734 1336.595,1179.608 1340.124,1179.608L1392.879,1179.608C1397.991,1179.608 1401.76,1174.806 1400.495,1169.849C1398.042,1160.193 1392.784,1145.588 1382.242,1136.733C1365.443,1122.601 1342.396,1143.618 1342.396,1143.618Z" fill="#163560"/>
<path d="M1258.924,1129.606C1258.924,1129.606 1255.895,1178.514 1246.428,1179.22C1245.172,1179.315 1198.432,1179.315 1198.432,1179.315L1138.146,1179.315C1138.146,1179.315 1139.162,1164.598 1156.598,1161.552C1174.034,1158.514 1203.226,1146.259 1213.794,1123.203C1224.904,1098.951 1258.924,1129.606 1258.924,1129.606Z" fill="#163560"/>
<path d="M1284.174,827.439C1282.066,854.609 1281.79,876.063 1284.579,886.227C1297.023,931.719 1262.16,1137.129 1262.16,1137.129C1236.453,1149.427 1199.955,1136.999 1199.955,1136.999C1202.175,1108.547 1188.647,853.825 1176.056,698.425C1170.789,633.182 1166.83,587.535 1166.83,587.535L1320.802,569.609C1320.802,569.617 1291.472,733.064 1284.174,827.439Z" fill="#01008A"/>
<path d="M1320.802,569.62C1320.802,569.62 1291.464,733.066 1284.175,827.442L1176.048,698.435C1170.781,633.193 1166.822,587.546 1166.822,587.546L1320.802,569.62Z" fill="#020153"/>
<path d="M1245.277,604.472C1245.277,604.472 1323.223,1058.313 1336.631,1146.199C1336.631,1146.199 1365.814,1154.349 1395.626,1141.725C1395.626,1141.725 1399.481,930.833 1389.274,867.301C1379.076,803.771 1394.713,607.381 1378.267,589.11C1361.821,570.839 1245.277,604.472 1245.277,604.472Z" fill="#01008A"/>
<path d="M1253.304,217.465C1253.304,217.465 1247.323,257.801 1249.939,269.841C1252.556,281.89 1292.626,288.439 1309.39,278.482C1326.155,268.533 1321.112,264.833 1321.112,264.833C1321.112,264.833 1318.556,218.661 1316.198,215.365C1313.848,212.077 1253.304,217.465 1253.304,217.465Z" fill="#FFB27D"/>
<path d="M1382.25,463.598C1387.55,412.926 1386.192,374.801 1381.2,346.108C1366.56,261.924 1320.698,259.118 1320.698,259.66C1320.698,270.994 1296.326,281.451 1276.67,280.16C1260.104,279.076 1249.354,266.476 1249.354,259.66C1249.354,259.6 1249.044,259.609 1248.485,259.669C1244.199,259.712 1224.543,260.065 1205.954,263.283C1192.477,265.607 1179.576,269.437 1173.517,275.745C1170.393,278.998 1159.24,288.112 1144.919,300.505C1108.438,332.055 1051.397,384.862 1053.919,416.325C1053.919,416.325 1124.428,468.1 1169.111,435.646C1166.676,519.908 1151.383,609.154 1155.135,609.094C1155.135,609.094 1180.041,630.66 1255.714,630.66C1297.092,630.66 1327.008,627.114 1347.766,623.018C1376.054,617.442 1387.31,610.85 1387.31,610.85C1393.61,610.746 1380.416,481.086 1382.25,463.598Z" fill="#F99746"/>
<path d="M1387.31,610.839C1387.31,610.839 1376.053,617.433 1347.765,623.009C1308.668,605.693 1231.067,560.933 1228.029,485.777C1224.01,385.8 1346.061,326.271 1346.061,326.271C1346.061,326.271 1362.439,335.368 1381.2,346.1C1386.2,374.784 1387.56,412.917 1382.25,463.59C1380.417,481.086 1393.61,610.745 1387.31,610.839Z" fill="#ED7D2B"/>
<path d="M1252.668,222.009C1252.668,222.009 1268.21,243.92 1284.648,244.109C1301.077,244.307 1317.859,222.344 1317.859,222.344L1252.668,222.009Z" fill="#E8945B"/>
<path d="M1251.172,220.916C1255.475,224.298 1265.088,228.98 1272.954,232.07C1278.918,234.419 1285.519,234.557 1291.586,232.465C1300.657,229.341 1314.384,224.453 1317.869,222.353C1326.097,217.362 1325.572,207.267 1325.993,193.23C1326.501,176.612 1328.171,163.565 1326.32,153.978C1324.117,142.515 1316.845,136 1296.509,134.227C1259.167,130.982 1243.607,140.337 1242.953,152.859C1242.781,156.224 1242.626,159.426 1242.523,162.464C1241.008,201.509 1244.098,215.348 1251.172,220.916Z" fill="#FFB27D"/>
<path d="M1242.711,157.472C1242.711,157.472 1248.821,148.452 1260.319,151.989C1271.808,155.527 1272.987,165.346 1292.635,163.771C1312.274,162.196 1316.99,152.902 1320.527,157.549C1324.064,162.196 1326.104,189.658 1326.104,189.658C1326.104,189.658 1365.597,99.604 1285.552,99.604C1285.552,99.604 1203.062,94.621 1242.711,186.156L1242.711,157.472L1242.711,157.472Z" fill="#01008A"/>
<path d="M1097.27,242.758L1097.374,242.819C1097.287,242.863 1097.27,242.758 1097.27,242.758Z" fill="#FFB27D"/>
<path d="M1281.497,519.701C1281.497,519.701 1271.023,527.954 1255.704,527.954C1255.704,527.954 1240.076,510.734 1226.908,494.072C1218.38,483.28 1210.892,472.729 1209.343,467.247C1205.419,453.305 1131.897,449.381 1122.895,439.561C1113.885,429.742 1159.419,405.103 1159.419,405.103C1159.419,405.103 1234.051,416.514 1245.274,431.179C1249.74,437.014 1256.384,452.23 1262.77,468.426C1272.435,492.928 1281.497,519.701 1281.497,519.701Z" fill="#E8945B"/>
<path d="M1177.039,315.092C1177.039,315.092 1191.187,287.63 1198.175,288.43C1205.164,289.231 1182.117,345.273 1180.017,372.512C1177.917,399.75 1177.039,315.092 1177.039,315.092Z" fill="#ED7D2B"/>
<path d="M1221.298,504.15C1211.487,527.912 1198.776,549.573 1197.141,552.31C1197.029,552.499 1196.969,552.603 1196.969,552.603C1196.969,552.603 1196.891,552.603 1196.736,552.603C1194.352,552.577 1173.861,552.129 1171.865,543.902C1171.865,543.902 1171.202,515.424 1172.338,492.808C1172.846,482.695 1173.715,473.762 1175.152,469.046C1175.152,469.046 1064.013,468.297 1065.967,436.868C1067.912,405.43 1126.02,388.794 1159.42,405.103C1159.42,405.103 1203.707,421.196 1227.021,442.453C1238.476,452.893 1231.436,479.64 1221.298,504.15Z" fill="#FFB27D"/>
<path d="M1069.28,392.78C1069.28,392.78 1054.486,414.527 1057.954,434.821C1061.423,455.114 1103.644,465.957 1133.189,467.248C1133.189,467.248 1217.683,447.885 1204.585,414.2C1201.607,406.558 1069.28,392.78 1069.28,392.78Z" fill="#01008A"/>
<path d="M1099.962,125.517C1099.962,125.517 1086.545,98.047 1054.126,114.846C1021.706,131.645 1053.265,194.925 1036.259,210.743C1019.245,226.561 1042.421,236.915 1038.97,248.257C1035.519,259.6 1045.382,272.501 1068.068,270.977C1090.753,269.463 1114.644,270.685 1124.885,250.839C1135.135,230.994 1132.803,187.326 1128.844,181.19C1124.885,175.054 1099.962,125.517 1099.962,125.517Z" fill="#AA443E"/>
<path d="M1152.493,276.08L1097.371,242.818C1097.681,242.697 1098.791,241.028 1102.913,229.108C1104.669,224.022 1105.598,219.616 1106.055,216.122C1106.098,215.769 1106.149,215.433 1106.175,215.098C1106.743,210.012 1106.33,207.085 1106.33,207.085L1118.404,211.449L1140.737,219.538C1140.479,225.201 1141.271,229.186 1142.476,231.914C1145.393,238.558 1150.823,238.601 1150.978,238.601L1152.493,276.08Z" fill="#FFB27D"/>
<path d="M1142.486,231.914C1120.901,233.747 1108.75,219.668 1106.064,216.114C1105.669,215.597 1105.471,215.305 1105.471,215.305C1105.471,215.305 1105.729,215.227 1106.185,215.089C1107.941,214.573 1112.7,213.136 1118.414,211.44L1140.747,219.53C1140.48,225.202 1141.281,229.186 1142.486,231.914Z" fill="#ED985F"/>
<path d="M1143.561,224.169C1143.561,224.169 1095.608,229.436 1094.627,197.008C1093.646,164.58 1086.555,149.743 1119.731,146.86C1152.908,143.969 1160.748,155.922 1162.701,166.895C1168.812,201.156 1157.073,222.714 1143.561,224.169Z" fill="#FFB27D"/>
<path d="M1122.31,162.695C1105.339,158.401 1111.828,188.462 1107.542,186.405C1102.749,184.099 1094.504,184.133 1095.804,189.925C1097.103,195.717 1098.979,197.791 1099.96,201.406C1100.941,205.02 1099.952,212.18 1096.01,210.743C1092.069,209.297 1055.372,167.394 1081.277,134.76C1107.189,102.126 1184.446,122.23 1160.117,156.37C1155.84,162.368 1134.393,165.751 1122.31,162.695Z" fill="#AA443E"/>
<path d="M1183.896,405.077C1183.896,405.077 1169.49,412.72 1146.804,412.358C1132.355,412.143 1101.657,405.861 1081.932,398.735C1070.683,394.69 1062.998,390.361 1063.928,386.729C1065.262,381.497 1074.892,341.306 1083.79,304.111C1091.932,270.1 1099.454,238.601 1099.454,238.601C1099.454,238.601 1121.907,254.557 1134.997,248.929C1148.086,243.292 1146.408,236.932 1146.408,236.932C1146.408,236.932 1161.83,235.038 1166.013,235.529C1172.691,236.312 1196.272,244.91 1196.272,244.91C1196.272,244.91 1199.37,253.619 1191.151,267.217C1184.344,278.482 1177.717,280.659 1177.717,280.659C1177.717,280.659 1196.986,341.435 1183.896,405.077Z" fill="#8584FF"/>
<path d="M1111.735,350.824C1111.735,350.824 1125.582,348.242 1131.004,351.788C1136.426,355.334 1138.026,360.885 1134.119,363.148C1121.899,370.257 1109.506,362.399 1109.506,362.399L1111.735,350.824Z" fill="#FFB27D"/>
<path d="M1081.932,398.735C1070.683,394.69 1062.998,390.361 1063.928,386.729C1065.262,381.497 1074.892,341.306 1083.79,304.111C1086.415,299.291 1088.085,296.408 1088.085,296.408C1088.085,296.408 1104.961,373.605 1081.932,398.735Z" fill="#6D6CD8"/>
<path d="M1100.006,242.938C1100.006,242.938 1057.346,251.966 1040.529,318.285C1038.886,324.774 1040.581,331.702 1045.073,336.667C1052.81,345.239 1069.859,357.778 1109.516,362.391C1113.844,362.89 1114.43,351.909 1114.43,351.909C1113.999,352.786 1087.493,334.783 1076.21,325.109C1074.17,323.362 1074.256,319.687 1075.728,317.441C1079.541,311.624 1085.935,301.563 1088.086,296.399C1091.219,288.878 1111.925,246.355 1100.006,242.938Z" fill="#FFB27D"/>
<path d="M1099.454,238.601C1099.454,238.601 1074.376,240.383 1053.928,267.655C1053.928,267.655 1060.847,292.733 1093.335,299.429C1093.327,299.429 1113.353,254.273 1099.454,238.601Z" fill="#8584FF"/>
<path d="M1221.299,504.15C1211.488,527.912 1198.777,549.573 1197.142,552.31C1197.004,552.405 1196.875,552.499 1196.737,552.603C1194.354,552.577 1173.863,552.129 1171.866,543.902C1171.866,543.902 1171.203,515.424 1172.339,492.808C1175.601,495.932 1188.192,505.269 1221.299,504.15Z" fill="#EBF2F9"/>
<path d="M1281.499,519.702C1281.499,519.702 1271.025,527.955 1255.706,527.955C1255.706,527.955 1240.077,510.734 1226.91,494.073C1241.73,487.67 1257.376,473.547 1262.78,468.427C1272.436,492.928 1281.499,519.702 1281.499,519.702Z" fill="#EBF2F9"/>
<path d="M1228.597,583.335C1228.132,585.926 1225.576,587.595 1223.003,587.07C1216.858,585.814 1205.756,583.447 1201.152,581.769C1194.62,579.394 1182.098,571.992 1175.566,569.617C1173.32,568.8 1167.924,566.622 1164.438,565.202C1162.588,564.445 1161.607,562.422 1162.166,560.503C1163.328,556.519 1165.566,549.737 1168.759,544.066C1169.344,543.016 1170.291,542.224 1171.487,541.647C1174.878,544.367 1180.222,547.353 1187.365,547.388C1193.217,547.414 1198.08,545.976 1201.686,544.376C1202.133,545.288 1211.04,563.249 1217.349,565.547C1223.003,567.603 1230.43,573.025 1228.597,583.335Z" fill="#AA443E"/>
<path d="M1321.827,519.908C1323.066,522.232 1322.094,525.124 1319.744,526.311C1314.151,529.134 1303.961,534.143 1299.305,535.683C1292.704,537.861 1278.289,539.814 1271.688,541.991C1269.416,542.74 1263.839,544.375 1260.216,545.417C1258.297,545.967 1256.275,544.995 1255.517,543.136C1253.96,539.289 1251.516,532.576 1250.509,526.148C1250.319,524.96 1250.577,523.747 1251.154,522.559C1255.5,522.593 1261.542,521.629 1267.17,517.232C1271.783,513.626 1274.709,509.486 1276.542,505.992C1277.454,506.431 1295.57,515.02 1301.947,512.911C1307.696,511.035 1316.887,510.682 1321.827,519.908Z" fill="#AA443E"/>
<path d="M1231.909,483.986C1231.909,483.986 1228.707,502.523 1216.659,511.052C1216.659,511.052 1167.716,504.322 1122.156,492.79C1088.661,484.321 1056.982,473.263 1047.92,460.388C1026.516,430.017 1059.116,393.037 1059.116,393.037C1059.116,393.037 1121.949,423.356 1189.971,460.508C1203.913,468.116 1218.044,476.016 1231.909,483.986Z" fill="#F99746"/>
<path d="M1158.276,511.053C1158.276,511.053 1143.74,512.232 1138.241,517.732C1132.742,523.231 1124.411,539.23 1130.341,545.572C1136.279,551.915 1164.558,538.016 1165.341,535.735C1166.133,533.446 1158.276,511.053 1158.276,511.053Z" fill="#FFB27D"/>
<path d="M1231.91,483.987C1231.91,483.987 1228.708,502.524 1216.66,511.053C1216.66,511.053 1167.717,504.323 1122.156,492.791C1143.577,474.167 1171.564,464.898 1189.981,460.509C1203.914,468.117 1218.045,476.017 1231.91,483.987Z" fill="#ED7D2B"/>
<path d="M1397.964,284.084C1388.18,260.848 1323.832,259.961 1323.832,259.961C1291.095,345.867 1283.229,402.211 1274.571,438.417C1273.168,438.279 1271.86,438.279 1270.655,438.426C1270.655,438.426 1224.664,456.369 1156.306,506.009C1156.306,506.009 1149.154,525.613 1161.995,541.655C1161.995,541.655 1279.778,515.657 1312.679,496.379C1312.713,496.387 1312.73,496.387 1312.73,496.387C1313.057,496.181 1313.385,495.965 1313.712,495.759C1314.211,495.449 1314.684,495.149 1315.14,494.839C1422.13,425.319 1411.958,317.33 1397.964,284.084Z" fill="#F99746"/>
<path d="M1124.214,696.273C1124.214,696.273 1157.244,707.685 1152.596,745.724C1152.596,745.724 1149.55,761.163 1140.04,754.313C1130.53,747.462 1134.988,748.727 1121.417,739.364C1107.845,730.001 1098.981,715.241 1100.521,703.52L1124.214,696.273Z" fill="#FFB27D"/>
<path d="M1125.728,698.718L1106.166,722.454C1105.254,723.564 1103.816,724.072 1102.405,723.806C1084.065,720.44 1020.966,679.76 1000.294,663.166C998.048,661.368 996.318,659.854 995.182,658.7C987.471,650.852 960.895,612.098 942.031,577.596C931.17,557.724 922.865,539.256 922.211,528.911C919.861,491.974 939.294,440.312 939.294,440.312C996.774,460.312 1002.824,506.208 1002.824,506.208L1034.684,624.8L1124.944,692.264C1127.002,693.796 1127.354,696.748 1125.728,698.718Z" fill="#9C9BFF"/>
<path d="M1000.292,663.165C998.046,661.367 996.316,659.852 995.18,658.699C987.469,650.85 960.894,612.097 942.029,577.595C939.585,556.743 941.263,537.181 949.861,523.506C949.861,523.497 998.726,609.481 1000.292,663.165Z" fill="#8C8BF6"/>
<path d="M967.177,1004.853L957.409,1045.603L951.359,1070.828L931.23,1154.78C931.23,1154.78 914,1160.09 896.091,1154.78C896.091,1154.78 889.456,1126.999 889.266,1092.351C889.163,1074.227 890.824,1054.218 896.125,1035.327C898.277,1027.642 901.039,1020.146 904.516,1013.029C932.908,955.015 967.177,1004.853 967.177,1004.853Z" fill="#FFB27D"/>
<path d="M983.863,1179.307L889.256,1179.307C889.256,1179.307 887.759,1164.995 891.924,1151.294C892.535,1149.263 893.284,1147.241 894.17,1145.278C894.17,1145.278 915.29,1150.063 933.509,1145.278C933.509,1145.278 950.635,1159.866 960.988,1164.332C971.324,1168.816 982.761,1166.38 983.863,1179.307Z" fill="#2B478B"/>
<path d="M957.41,1045.603L951.36,1070.828C941.076,1077.386 918.881,1089.279 889.258,1092.352C889.155,1074.227 890.816,1054.218 896.117,1035.328C904.818,1030.913 913.674,1028.606 921.222,1029.914C939.991,1033.193 951.153,1040.052 957.41,1045.603Z" fill="#E8945B"/>
<path d="M934.722,1179.308L889.256,1179.308C889.256,1179.308 887.759,1164.996 891.924,1151.295C903.336,1154.858 926.564,1163.765 934.722,1179.308Z" fill="#1F396D"/>
<path d="M891.762,1004.853L881.985,1045.603L875.935,1070.828L855.806,1154.78C855.806,1154.78 838.576,1160.09 820.667,1154.78C820.667,1154.78 814.032,1126.999 813.842,1092.351C813.739,1074.227 815.4,1054.218 820.701,1035.327C822.853,1027.642 825.616,1020.146 829.092,1013.029C857.492,955.015 891.762,1004.853 891.762,1004.853Z" fill="#FFB27D"/>
<path d="M818.756,1145.278C818.756,1145.278 839.875,1150.072 858.094,1145.278C858.094,1145.278 875.22,1159.866 885.573,1164.341C895.926,1168.816 907.364,1166.38 908.448,1179.307L813.833,1179.307C813.833,1179.307 811.862,1160.425 818.756,1145.278Z" fill="#2B478B"/>
<path d="M881.985,1045.603L875.935,1070.828C865.651,1077.386 843.456,1089.279 813.842,1092.352C813.739,1074.227 815.4,1054.218 820.701,1035.328C829.402,1030.913 838.258,1028.606 845.805,1029.914C864.575,1033.193 875.737,1040.052 881.985,1045.603Z" fill="#E8945B"/>
<path d="M986.92,1042.909C984.648,1051.319 977.015,1057.153 968.305,1057.153L816.606,1057.153C805.186,1057.153 796.184,1047.437 797.061,1036.059C798.653,1015.397 804.342,981.651 806.829,958.863C807.862,949.397 808.335,941.823 807.733,937.865C792.423,836.544 779.565,717.204 781.132,694.398C781.355,691.187 781.51,689.526 781.51,689.526C781.51,689.526 792.56,688.597 809.368,687.943C858.216,686.015 955.74,686.351 971.937,718.297C988.444,750.836 998.41,966.919 998.41,966.919C1000.82,987.099 992.29,1023.013 986.92,1042.909Z" fill="#FF3874"/>
<path d="M806.829,958.854C807.862,949.386 808.335,941.814 807.733,937.854C792.423,836.535 779.565,717.195 781.132,694.389C781.355,691.179 781.51,689.518 781.51,689.518C781.51,689.518 792.56,688.588 809.368,687.934C834.636,702.823 851.09,728.185 851.09,728.185C851.09,728.185 845.987,917.786 806.829,958.854Z" fill="#CA2556"/>
<path d="M901.022,272.183C888.905,269.153 881.865,278.698 881.865,289.946C881.865,301.194 890.979,310.308 902.227,310.308C913.475,310.308 922.589,297.278 922.589,286.039C922.581,274.79 911.935,274.911 901.022,272.183Z" fill="#B2443B"/>
<path d="M894.765,388.77C894.765,388.77 831.64,331.918 888.784,291.667C888.784,291.667 905.841,287.123 914.508,288.75C914.508,288.75 945.576,279.662 963.752,300.764C981.928,321.866 989.828,337.116 974.251,355.946C958.666,374.759 894.765,388.77 894.765,388.77Z" fill="#C65447"/>
<path d="M822.327,732.144C822.327,732.144 837.913,763.419 807.955,787.318C807.955,787.318 794.968,796.199 792.972,784.659C790.984,773.109 793.282,777.137 790.14,760.94C787.008,744.752 791.018,728.005 800.33,720.715L822.327,732.144Z" fill="#FFB27D"/>
<path d="M946.48,388.236C946.48,388.236 945.706,396.747 944.26,408.253C943.554,413.873 942.702,420.216 941.687,426.619C940.964,431.214 940.164,435.862 939.294,440.294L919.75,506.302L873.854,432.032C873.854,432.032 884.637,423.107 899.259,374.75C899.396,374.233 899.5,373.958 899.5,373.958L946.48,388.236Z" fill="#FFB27D"/>
<path d="M973.228,713.9C973.822,721.318 971.946,722.668 971.946,722.668C971.946,722.668 943.727,732.902 872.752,729.364C865.076,728.978 857.838,728.59 851.082,728.186C805.341,725.492 780.882,722.668 780.882,722.668C780.882,722.668 743.42,636.204 813.801,529.66C821.761,517.62 831.099,505.313 842.02,492.852C853.414,479.848 855.936,462.455 860.248,445.931C861.478,441.189 857.907,440.148 859.688,435.673C859.688,435.673 872.529,432.05 873.845,432.05C881.135,438.47 890.748,450.957 914.621,453.427C930.757,455.114 937.074,446.017 939.372,440.57C945.525,442.79 951.894,446.637 957.118,449.142C1000.364,469.908 1004.34,510.167 1004.34,510.167C1004.34,510.167 964.596,640.85 962.126,657.168C961.025,664.414 970.147,675.696 973.228,713.9Z" fill="#8584FF"/>
<path d="M944.257,408.262C943.551,413.882 941.176,429.27 940.161,435.673C891.562,416.722 897.922,379.802 899.247,374.759C899.385,374.243 899.488,373.967 899.488,373.967C899.488,373.967 925.203,392.221 944.257,408.262Z" fill="#E8945B"/>
<path d="M954.672,414.786C954.672,414.786 898.543,416.584 897.958,381.618C897.373,346.643 889.739,323.32 925.549,320.696C961.359,318.071 968.553,331.298 971.583,342.925C974.621,354.543 969.259,413.417 954.672,414.786Z" fill="#FFB27D"/>
<path d="M959.576,315.454C959.576,315.454 956.057,373.846 887.621,367.581C887.621,367.581 889.076,286.718 959.576,315.454Z" fill="#C65447"/>
<path d="M946.479,321.263C946.479,321.263 965.653,344.999 974.354,352.564C974.354,352.564 995.688,321.96 946.479,321.263Z" fill="#C65447"/>
<path d="M946.479,321.263C946.479,321.263 963.708,350.36 972.4,357.925C972.409,357.925 995.688,321.96 946.479,321.263Z" fill="#C65447"/>
<path d="M851.082,728.185C805.341,725.492 780.882,722.669 780.882,722.669C780.882,722.669 743.42,636.204 813.801,529.66C828.052,562.871 861.65,651.634 851.082,728.185Z" fill="#6D6CD8"/>
<path d="M873.853,432.041C873.853,432.041 819.548,443.185 795.356,471.198C776.819,492.662 756.543,597.613 756.543,614.954C756.543,631.521 775.588,719.631 787.482,736.525C788.308,737.695 789.685,738.349 791.114,738.193L821.691,734.949C824.238,734.683 826.054,732.333 825.658,729.795L808.472,618.423L868.784,511.449C868.792,511.449 904.353,469.305 873.853,432.041Z" fill="#8584FF"/>
<path d="M1106.814,1149.16C1106.814,1149.16 1111.418,1158.136 1121.608,1160.356C1128.028,1161.75 1133.527,1165.098 1136.944,1169.78C1139.835,1173.738 1137.039,1179.307 1132.133,1179.307L1080.402,1179.307C1075.996,1179.307 1072.562,1175.503 1073.001,1171.122C1073.388,1167.293 1073.792,1162.826 1073.965,1159.401C1074.343,1151.931 1081.831,1145.915 1081.831,1145.915L1106.814,1149.16Z" fill="#2C3A64"/>
<path d="M1118.527,1018.682C1120.687,1058.022 1115.317,1147.438 1115.317,1147.438C1115.317,1147.438 1111.711,1157.404 1088.931,1159.788C1076.728,1161.062 1065.746,1157.894 1065.746,1157.894C1061.151,1136.724 1056.899,1116.508 1052.983,1097.29C1024.867,959.326 1013.895,874.109 1013.895,874.109L1124.896,848.308C1124.896,848.308 1120.034,926.193 1118.605,979.309C1118.166,995.893 1118.063,1010.059 1118.527,1018.682Z" fill="#01008A"/>
<path d="M1124.913,848.316C1124.913,848.316 1120.051,926.201 1118.622,979.318L1053.001,1097.298C1024.885,959.335 1013.912,874.117 1013.912,874.117L1124.913,848.316Z" fill="#020153"/>
<path d="M1013.31,669.929C1013.31,669.929 970.357,650.376 937.86,667.485C905.363,684.594 925.235,825.76 971.699,839.443C971.699,839.443 1058.758,867.275 1013.31,669.929Z" fill="#35488B"/>
<path d="M1137.557,881.226C1137.427,881.036 1137.29,880.856 1137.135,880.674C1136.111,879.118 1134.381,875.228 1133.116,872.214C1141.756,829.916 1135.939,805.458 1135.939,805.458C1136.963,793.142 1144.321,707.116 1127.384,667.253C1119.217,648.027 1105.533,647.992 1105.533,647.992C1105.533,647.992 1108.743,678.716 1106.626,695.231C1104.681,710.395 1119.139,852.456 1121.523,875.684C1121.489,875.674 1121.454,875.674 1121.446,875.692L1122.126,899.298L1129.054,897.664C1129.346,897.586 1129.639,897.482 1129.923,897.354C1130.766,896.966 1131.506,896.346 1132.04,895.504L1137.634,886.638C1138.71,884.934 1138.606,882.81 1137.557,881.226ZM1124.381,877.388L1124.673,877.216L1124.527,877.404C1124.51,877.43 1124.449,877.422 1124.381,877.388Z" fill="#E8945B"/>
<path d="M1016.752,1149.16C1016.752,1149.16 1021.356,1158.136 1031.545,1160.356C1037.966,1161.75 1043.465,1165.098 1046.881,1169.78C1049.773,1173.738 1046.976,1179.307 1042.071,1179.307L990.339,1179.307C985.933,1179.307 982.499,1175.503 982.938,1171.122C983.326,1167.293 983.73,1162.826 983.902,1159.401C984.281,1151.931 991.768,1145.915 991.768,1145.915L1016.752,1149.16Z" fill="#2C3A64"/>
<path d="M1052.743,490.312C1041.675,490.312 1027.776,495.079 1020.324,502.326C1012.406,510.028 1004.161,510.415 998.292,519.503C992.173,528.979 988.386,538.824 991.459,552.146C994.815,566.708 994.135,580.796 1003.275,591.485C1007.802,596.777 1015.177,597.371 1020.324,602.234C1029.764,611.158 1040.496,613.981 1052.743,613.981C1075.824,613.981 1090.188,600.306 1102.004,583.266C1111.471,569.617 1109.595,560.408 1111.815,548.738C1118.803,511.99 1088.148,490.312 1052.743,490.312Z" fill="#35488B"/>
<path d="M1085.237,638.474L1041.114,661.022L1032.275,630.41C1032.275,630.41 1037.895,619.816 1040.443,602.466C1041.51,595.168 1042.035,586.674 1041.355,577.268L1077.303,595.676C1077.303,595.676 1076.442,598.998 1075.874,603.903C1075.263,609.205 1074.987,616.348 1076.493,623.138C1077.793,628.973 1080.401,634.541 1085.237,638.474Z" fill="#FFB27D"/>
<path d="M983.015,860.288C983.015,860.288 974.624,971.478 976.492,1148.695C976.492,1148.695 986.613,1154.013 998.816,1155.227C1021.605,1157.499 1027.156,1148.463 1027.156,1148.463C1027.156,1148.463 1050.461,1061.971 1056.288,1023.003C1061.658,987.073 1096.934,857.431 1096.934,857.431L983.015,860.288Z" fill="#01008A"/>
<path d="M1114.405,641.564C1110.481,639.722 1098.148,634.748 1079.636,631.701C1079.834,638.044 1078.165,644.017 1067.037,645.471C1052.226,647.399 1038.981,637.295 1032.277,630.428C1032.277,630.428 1021.838,631.547 1009.66,634.214C1003.567,635.548 997.044,637.278 991.174,639.447C984.057,642.063 977.912,645.325 974.634,649.344L974.625,649.344L974.625,649.353C963.23,663.338 944.486,705.447 944.486,705.447C944.486,705.447 975.692,717.014 983.567,723.769L983.747,725.275L988.636,765.836L974.091,846.622C973.971,847.328 973.893,848.042 973.893,848.73C973.893,854.134 977.585,858.988 983.016,860.296C983.016,860.296 984.264,860.504 986.57,860.822C1001.992,862.99 1064.593,870.452 1113.674,857.13C1124.707,854.134 1131.979,843.592 1131.066,832.19L1123.063,731.773C1127.331,731.042 1132.263,730.267 1136.273,729.82C1139.604,729.458 1142.28,729.338 1143.39,729.665C1143.39,729.656 1137.839,651.237 1114.405,641.564Z" fill="#F99746"/>
<path d="M1021.786,790.578C1021.167,818.763 1002.698,851.888 986.562,860.812C984.255,860.494 983.007,860.287 983.007,860.287C977.577,858.979 973.885,854.126 973.885,848.721C973.885,848.024 973.954,847.318 974.083,846.612L988.627,765.827L983.739,725.267C983.971,724.561 984.1,724.182 984.1,724.182C984.1,724.182 1022.879,740.783 1021.786,790.578Z" fill="#ED7D2B"/>
<path d="M1136.265,729.81C1132.16,730.266 1123.037,731.772 1123.037,731.772L1118.416,689.714C1118.416,689.706 1133.855,719.354 1136.265,729.81Z" fill="#ED7D2B"/>
<path d="M976.682,832.188L980.46,811.207C1044.437,718.639 1049.283,702.03 1020.512,660.471C1012.268,648.569 997.285,641.125 991.174,639.446C997.044,637.269 1003.567,635.548 1009.66,634.214C1015.736,637.071 1021.321,639.868 1025.65,643.62C1113.458,719.638 976.682,832.188 976.682,832.188Z" fill="#35488B"/>
<path d="M1051.401,713.381C1026.348,715.111 1022.88,740.783 1022.88,740.783C1022.88,740.783 980.839,744.596 974.626,747.358C974.626,747.358 978.034,738.133 984.101,724.182C978.619,718.795 960.606,710.774 948.678,707.09C939.582,730.301 936.088,753.279 941.191,775.423C941.733,777.764 943.79,779.433 946.183,779.545C959.565,780.165 1003.775,779.95 1036.151,753.142L1036.719,752.987C1044.464,752.522 1051.745,744.828 1054.533,734.707C1057.33,724.587 1057.554,727.685 1059.688,720.559C1061.831,713.45 1051.401,713.381 1051.401,713.381Z" fill="#FFB27D"/>
<path d="M1076.496,623.146C1056.057,622.604 1040.445,602.466 1040.445,602.466L1075.877,603.903C1075.257,609.213 1074.982,616.356 1076.496,623.146Z" fill="#E8945B"/>
<path d="M1078.44,610.797C1078.44,610.797 1033.275,616.305 1032.311,584.48C1031.347,552.655 1050.177,532.043 1062.742,532.284C1087.803,532.757 1091.934,542.878 1094.834,553.42C1097.734,563.963 1099.232,608.56 1078.44,610.797Z" fill="#FFB27D"/>
<path d="M1066.357,592.457C1066.357,592.457 1067.339,596.425 1077.236,595.693C1077.236,595.693 1085.54,595.082 1085.231,590.71C1085.231,590.71 1077.141,587.698 1066.357,592.457Z" fill="#FFFFFF"/>
<path d="M1073.914,532.576C1073.914,532.576 1035.316,532.55 1044.189,559.057C1049.783,575.761 1031.194,578.352 1031.194,578.352L1022.252,551.578L1027.855,530.726L1073.914,532.576Z" fill="#35488B"/>
<path d="M1598.393,515.803C1588.781,499.83 1582.807,428.528 1575.863,409.431C1571.473,397.357 1559.727,382.933 1560.965,382.038C1548.469,374.671 1514.647,371.126 1514.647,371.126C1514.647,371.151 1514.639,371.177 1514.639,371.194C1513.323,370.919 1512.005,370.644 1510.741,370.394C1506.687,369.577 1502.857,367.21 1502.401,363.105C1502.385,362.898 1502.367,362.683 1502.341,362.485C1501.825,357.433 1501.713,352.27 1501.773,347.795C1501.765,347.734 1501.765,347.665 1501.773,347.605C1501.885,340.29 1502.445,334.86 1502.445,334.86L1502.307,334.842L1458.467,327.794C1457.873,341.478 1457.073,351.667 1456.238,359.266C1455.601,365.084 1450.868,369.602 1445.033,369.964C1444.163,370.007 1443.277,370.067 1442.391,370.127L1442.391,370.119C1442.391,370.119 1414.128,369.017 1403.319,372.322C1402.467,372.58 1401.555,372.967 1400.574,373.458C1401.228,374.146 1296.492,479.123 1299.194,491.275C1301.896,503.436 1347.853,572.466 1364.514,585.194L1381.193,585.194C1381.193,585.194 1344.23,500.888 1343.748,494.055C1343.042,484.046 1436.702,428.055 1436.702,417.839C1436.702,414.13 1462.813,413.003 1479.887,413.132C1497.969,413.27 1532.023,403.829 1532.023,403.829C1532.023,403.829 1546.749,515.381 1565.347,548.472C1580.019,574.564 1644.823,641.416 1644.823,641.416L1658.489,629.29C1658.499,629.29 1621.681,554.486 1598.393,515.803Z" fill="#FFB27D"/>
<path d="M1465.696,945.134C1473.605,1023.054 1464.027,1125.088 1464.027,1125.088L1437.176,1125.088C1396.632,1018.458 1395.419,951.562 1393.104,926.442C1391.847,912.758 1373.37,858.05 1356.778,805.423C1342.913,761.489 1330.391,719.001 1330.305,703.088C1330.125,666.607 1366.468,608.094 1366.468,608.094C1366.468,608.094 1418.69,628.241 1450.92,648.147C1461.677,654.791 1469.913,661.288 1472.727,666.796C1480.197,681.452 1485.74,786.042 1465.851,849.934C1453.88,888.402 1460.016,908.128 1460.016,908.128C1462.503,919.358 1464.354,931.898 1465.696,945.134Z" fill="#FF3874"/>
<path d="M1465.859,849.934C1453.888,888.402 1460.024,908.128 1460.024,908.128C1462.511,919.358 1464.353,931.89 1465.696,945.126L1356.786,805.423C1342.921,761.489 1330.399,719.001 1330.313,703.088C1330.132,666.607 1366.476,608.094 1366.476,608.094C1366.476,608.094 1418.698,628.241 1450.928,648.147C1461.685,654.791 1469.921,661.288 1472.735,666.796C1480.205,681.452 1485.748,786.042 1465.859,849.934Z" fill="#CA2556"/>
<path d="M1437.176,1125.087C1437.176,1125.087 1435.652,1142.6 1433.406,1146.198C1431.151,1149.804 1421.693,1161.964 1410.884,1166.018C1400.075,1170.071 1369.153,1167.971 1366.752,1179.211L1475.739,1179.211C1475.739,1179.211 1477.237,1162.369 1473.037,1151.284C1468.837,1140.199 1464.027,1125.087 1464.027,1125.087L1437.176,1125.087L1437.176,1125.087Z" fill="#2B478B"/>
<path d="M1619.366,1121.137C1619.366,1121.137 1631.552,1137.79 1634.556,1144.399C1637.559,1151 1657.37,1178.97 1654.969,1179.202C1652.568,1179.435 1599.727,1179.202 1599.727,1179.202C1599.727,1179.202 1594.322,1166.009 1594.924,1157.007C1595.527,1147.997 1587.721,1130.905 1589.219,1121.137C1590.725,1111.369 1619.366,1121.137 1619.366,1121.137Z" fill="#2B478B"/>
<path d="M1619.366,1121.137L1589.218,1121.137C1589.218,1121.137 1471.668,951.201 1467.623,907.991C1462.571,853.961 1424.816,640.677 1424.816,640.677L1545.405,603.137C1545.405,603.137 1555.947,630.238 1564.777,657.571C1568.624,669.49 1572.144,681.444 1574.33,691.22C1579.158,712.796 1565.569,794.304 1556.292,852.257C1551.705,880.803 1548.176,903.635 1548.408,910.771C1549.114,932.389 1588.745,935.185 1619.366,1121.137Z" fill="#FF3874"/>
<path d="M1457.873,339.61C1457.804,340.703 1457.743,341.762 1457.666,342.786C1457.735,341.762 1457.804,340.703 1457.873,339.61Z" fill="#2B478B"/>
<path d="M1458.131,335.118C1458.071,336.279 1458.01,337.415 1457.941,338.526C1458.002,337.415 1458.062,336.279 1458.131,335.118Z" fill="#2B478B"/>
<path d="M1458.484,327.785C1458.449,328.637 1458.406,329.481 1458.363,330.307C1458.406,329.481 1458.441,328.637 1458.484,327.785Z" fill="#2B478B"/>
<path d="M1562.238,631.547C1566.164,643.363 1509.432,650.265 1446.461,649.429C1428.673,649.197 1412.132,647.029 1398.5,643.499C1369.678,636.047 1353.817,622.483 1366.476,608.103C1370.074,604.015 1409.989,546.897 1409.989,546.897C1412.347,541.785 1409.791,525.029 1397.605,485.2C1392.613,468.917 1399.119,458.788 1401.443,452.324C1401.443,452.324 1401.443,452.316 1401.451,452.307C1402.252,450.061 1402.553,448.262 1401.701,446.791C1396.253,437.367 1388.379,428.288 1381.253,421.041C1372.096,411.712 1364.153,405.456 1364.153,405.456C1364.153,405.456 1387.527,379.982 1400.591,373.441C1414.051,387.555 1443.243,412.831 1479.913,413.115C1511.541,413.356 1542.273,395.533 1560.991,382.021C1562.394,382.847 1563.538,383.725 1564.322,384.646C1576.008,398.364 1579.348,423.107 1579.348,423.107C1579.348,423.107 1541.722,443.865 1542.402,450.629C1544.269,469.253 1546.034,474.7 1545.208,481.353L1545.199,481.422C1544.906,483.754 1544.295,486.25 1543.254,489.52C1536.834,509.675 1522.944,540.804 1526.412,551.286C1527.298,554.005 1556.602,614.583 1562.238,631.547Z" fill="#01008A"/>
<path d="M1403.336,372.305C1403.947,372.124 1404.601,371.943 1405.307,371.797C1404.601,371.952 1403.938,372.133 1403.336,372.305Z" fill="#FFB27D"/>
<path d="M1504.432,367.245C1505.344,368.183 1506.514,368.923 1507.805,369.474C1506.514,368.923 1505.352,368.191 1504.432,367.245Z" fill="#FFB27D"/>
<path d="M1507.807,369.473C1508.271,369.671 1508.753,369.843 1509.252,369.998C1508.753,369.852 1508.271,369.68 1507.807,369.473Z" fill="#FFB27D"/>
<path d="M1658.498,629.291C1658.498,629.291 1681.545,635.255 1684.695,638.474C1687.844,641.692 1696.881,666.676 1693.705,666.908C1677.19,668.113 1668.481,659.249 1668.481,659.249C1658.498,648.259 1643.583,646.512 1644.323,638.465C1645.064,630.427 1658.498,629.291 1658.498,629.291Z" fill="#FFB27D"/>
<path d="M1364.523,585.185C1364.523,585.185 1347.836,606.261 1347.836,610.091C1347.836,613.921 1351.21,629.902 1355.263,630.135C1359.316,630.358 1360.668,617.079 1363.817,614.601C1366.967,612.122 1378.233,607.466 1379.808,603.155C1381.383,598.843 1381.193,585.194 1381.193,585.194L1364.523,585.194L1364.523,585.185Z" fill="#FFB27D"/>
<path d="M1456.4,357.907C1477.115,355.247 1502.322,334.834 1502.322,334.834C1487.606,326.847 1474.835,326.081 1464.92,328.827C1462.554,329.481 1460.351,330.324 1458.311,331.331L1456.4,357.907Z" fill="#E8945B"/>
<path d="M1448.894,337.828C1448.894,337.828 1500.117,354.92 1510.273,322.862C1520.428,290.796 1533.879,271.406 1501.598,259.134C1469.325,246.862 1459.058,257.077 1453.068,266.957C1447.078,276.828 1435.83,332.553 1448.894,337.828Z" fill="#FFB27D"/>
<path d="M1467.276,323.723C1467.276,323.723 1465.383,327.441 1455.718,324.446C1455.718,324.446 1447.594,321.933 1448.902,317.656C1448.902,317.647 1457.646,316.502 1467.276,323.723Z" fill="#FFFFFF"/>
<path d="M1586.354,262.551C1580.614,255.184 1599.452,239.978 1561.19,221.707C1532.161,207.842 1523.168,228.841 1520.517,239.797C1503.262,229.943 1475.086,201.577 1457.125,220.054C1435.618,242.181 1458.949,261.665 1458.949,261.665C1467.108,267.603 1471.067,265.968 1482.995,268.584C1494.923,271.2 1487.307,285.005 1488.236,289.66C1489.165,294.316 1497.307,303.723 1508.34,298.972C1519.373,294.222 1518.099,312.389 1507.617,316.124C1504.631,317.191 1501.524,333.896 1505.853,334.601C1509.493,335.195 1522.643,335.316 1523.977,324.593C1524.769,318.224 1532.859,314.902 1541.439,308.327C1547.377,313.973 1555.716,316.856 1560.321,316.193C1567.102,315.221 1567.171,309.782 1581.689,300.1C1596.191,290.401 1592.086,269.918 1586.354,262.551Z" fill="#C65447"/>
<path d="M1398.5,643.5C1369.678,636.047 1353.817,622.484 1366.476,608.095C1370.074,604.007 1409.989,546.888 1409.989,546.888C1409.989,546.888 1420.686,611.391 1398.5,643.5Z" fill="#020153"/>
<path d="M1585.344,1179.265L1581.033,717.117C1581.033,717.117 1577.306,683.829 1548.269,683.829C1517.287,683.829 1515.506,717.117 1515.506,717.117C1515.506,717.117 1515.953,719.991 1519.129,719.991C1522.46,719.991 1523.01,717.117 1523.01,717.117C1523.01,717.117 1524.379,691.454 1548.269,691.454C1570.654,691.454 1573.528,717.117 1573.528,717.117L1573.528,1179.265L1585.344,1179.265Z" fill="#233862"/>
<path d="M1569.553,1179.264L1588.822,1179.264L1587.101,1159.108C1587.101,1159.108 1587.264,1156.312 1583.374,1156.148C1579.759,1156.002 1572.608,1155.485 1571.937,1157.671C1571.334,1159.608 1569.553,1179.264 1569.553,1179.264Z" fill="#233862"/>
<path d="M1548.038,659.344L1546.721,665.954C1546.721,665.954 1514.044,665.833 1506.41,700.843C1506.41,700.843 1504.336,715.413 1514.844,712.306C1525.352,709.191 1523.717,701.764 1538.589,697.684C1553.46,693.614 1563.159,690.49 1565.414,679.663L1567.849,667.615L1548.038,659.344Z" fill="#FFB27D"/>
<path d="M1663.574,372.805C1663.574,372.805 1654.934,406.808 1647.472,437.902C1644.469,450.423 1641.663,462.472 1639.684,471.629C1637.661,481.044 1636.517,487.412 1636.956,488.118C1643.436,498.643 1631.594,562.793 1622.231,586.089C1621.404,588.155 1620.268,590.573 1618.9,593.267C1605.802,618.947 1570.93,669.337 1570.93,669.337C1570.93,669.337 1561.093,670.369 1554.656,667.943C1549.285,665.911 1545.619,659.345 1545.619,659.345C1548.735,654.327 1561.36,595.031 1577.591,561.795C1584.536,547.578 1594.769,415.629 1608.22,397.866C1619.451,383.038 1663.574,372.805 1663.574,372.805Z" fill="#F99746"/>
<path d="M1636.964,488.118C1643.444,498.644 1631.602,562.793 1622.239,586.09C1621.413,588.155 1620.277,590.574 1618.908,593.267C1606.395,537.896 1627.136,459.46 1627.136,459.46C1632.308,461.508 1636.517,487.413 1636.964,488.118Z" fill="#ED7D2B"/>
<path d="M1727.656,1128.36C1727.656,1128.36 1730.987,1178.473 1721.52,1179.17C1720.263,1179.265 1673.524,1179.265 1673.524,1179.265L1613.238,1179.265C1613.238,1179.265 1614.254,1164.548 1631.69,1161.502C1649.126,1158.464 1678.317,1146.209 1688.886,1123.153C1699.996,1098.91 1727.656,1128.36 1727.656,1128.36Z" fill="#0F2949"/>
<path d="M1818.33,1128.36C1818.33,1128.36 1821.661,1178.473 1812.194,1179.17C1810.937,1179.265 1764.198,1179.265 1764.198,1179.265L1703.912,1179.265C1703.912,1179.265 1704.928,1164.548 1722.364,1161.502C1739.8,1158.464 1768.991,1146.209 1779.56,1123.153C1790.679,1098.91 1818.33,1128.36 1818.33,1128.36Z" fill="#163560"/>
<path d="M1730.503,1007.573C1731.992,1028.761 1735.012,1056.009 1733.937,1080.571C1732.431,1114.917 1731.338,1143.877 1731.338,1143.877C1708.695,1151.579 1667.145,1142.233 1667.145,1142.233C1667.145,1142.233 1652.411,1055.441 1640.268,986.161C1634.82,955.119 1630.302,928.259 1628.615,915.583C1623.151,874.591 1634.433,656.651 1634.433,656.651C1634.433,656.651 1695.7,617.382 1721.019,637.632C1746.329,657.873 1761.906,677.659 1721.122,899.421C1718.024,916.245 1727.181,960.111 1730.503,1007.573Z" fill="#01008A"/>
<path d="M1730.504,1007.573C1731.993,1028.761 1734.721,1062.677 1733.645,1087.239C1712.345,1064.701 1670.365,1017.135 1640.278,986.161C1634.83,955.119 1630.312,928.259 1628.625,915.583C1623.16,874.591 1634.443,656.651 1634.443,656.651C1634.443,656.651 1695.71,617.382 1721.029,637.632C1746.339,657.873 1761.916,677.659 1721.132,899.421C1718.025,916.245 1727.182,960.111 1730.504,1007.573Z" fill="#020153"/>
<path d="M1689.807,661.092C1689.807,661.092 1695.306,879.257 1703.903,919.705C1712.501,960.153 1757.373,1145.321 1757.373,1145.321C1757.373,1145.321 1799.439,1149.151 1821.419,1139.737C1821.419,1139.737 1820.017,1053.977 1812.564,1003.597C1805.593,956.531 1793.097,913.491 1794.896,896.485C1818.519,672.245 1801.462,653.716 1774.671,635.48C1747.881,617.227 1689.807,661.092 1689.807,661.092Z" fill="#01008A"/>
<path d="M1772.958,680.189C1772.958,680.189 1758.387,709.432 1786.4,731.782C1786.4,731.782 1798.544,740.087 1800.411,729.295C1802.27,718.494 1800.127,722.264 1803.053,707.117C1805.988,691.979 1802.236,676.316 1793.526,669.5L1772.958,680.189Z" fill="#FFB27D"/>
<path d="M1650.105,323.372C1650.105,323.372 1666.93,348.94 1663.574,372.805L1688.463,432.781L1733.369,364.122C1733.369,364.122 1709.642,338.295 1700.787,303.096L1650.105,323.372Z" fill="#FFB27D"/>
<path d="M1642.731,345.188C1642.731,345.188 1703.989,347.839 1705.1,311.065C1706.21,274.291 1722.768,249.824 1676.949,246.597C1639.272,243.938 1626.75,259.652 1623.385,271.839C1620.037,284.016 1620.029,343.217 1642.731,345.188Z" fill="#FFB27D"/>
<path d="M1792.691,671.601C1779.532,672.823 1761.408,674.345 1739.428,675.723C1735.039,675.997 1730.495,676.273 1725.804,676.531C1659.426,680.249 1633.04,669.501 1633.04,669.501C1633.04,669.501 1631.284,668.081 1631.835,660.283C1634.718,620.145 1643.246,608.285 1642.214,600.661C1639.907,583.517 1598.305,443.607 1598.305,443.607C1598.305,443.607 1597.505,399.415 1646.654,378.666C1651.723,376.523 1657.309,374.638 1663.479,373.072C1665.631,378.795 1671.535,388.348 1686.63,386.584C1708.945,383.985 1724.832,370.834 1731.639,364.079C1732.87,364.079 1733.361,364.122 1733.361,364.122C1735.03,368.821 1736.321,373.726 1737.474,378.7C1741.502,396.076 1743.86,414.347 1754.523,428.013C1765.04,441.499 1774.05,454.804 1781.736,467.816C1788.13,478.643 1793.612,489.271 1798.302,499.633C1841.841,595.807 1808.183,670.145 1792.691,671.601Z" fill="#F99746"/>
<path d="M1792.692,671.599C1779.533,672.821 1761.409,674.345 1739.429,675.721C1733.018,567.681 1777.038,463.909 1777.038,463.909C1778.699,465.071 1780.265,466.379 1781.754,467.816C1789.422,475.269 1794.766,486.319 1798.321,499.632C1811.445,548.618 1800.463,628.216 1792.692,671.599Z" fill="#ED7D2B"/>
<path d="M1622.989,310.11C1622.989,310.11 1611.061,357.418 1631.302,364.079C1651.535,370.74 1705.263,365.404 1705.246,307.399C1705.246,307.399 1677.052,324.215 1663.584,323.785C1650.115,323.355 1641.423,315.592 1628.979,321.659C1628.97,321.668 1624.418,321.367 1622.989,310.11Z" fill="#C8D9E8"/>
<path d="M1733.379,364.112C1733.379,364.112 1776.194,365.076 1798.82,394.509C1816.153,417.066 1834.484,538.093 1834.484,556.312C1834.484,574.53 1814.965,675.102 1804.035,686.032C1804.035,686.032 1796.961,687.856 1787.529,686.032C1777.511,684.094 1771.608,678.302 1771.608,678.302C1771.608,678.302 1777.047,566.338 1777.047,555.83C1777.047,540.623 1729.506,447.548 1729.506,447.548C1729.506,447.548 1704.85,403.27 1733.379,364.112Z" fill="#F99746"/>
<path d="M1702.225,258.034C1701.192,254.282 1696.57,252.311 1696.57,252.311C1662.069,237.285 1636.861,253.722 1636.861,253.722C1658.007,225.34 1709.041,231.295 1719.79,256.898C1737.337,298.698 1705.237,307.407 1705.237,307.407C1705.237,307.407 1673.179,293.939 1691.742,277.045C1697.896,271.451 1700.865,266.477 1701.855,262.148C1702.182,260.702 1702.294,259.334 1702.225,258.034Z" fill="#C8D9E8"/>
<path d="M1647.558,332.615C1647.558,332.615 1646.431,336.634 1636.361,335.584C1636.361,335.584 1627.902,334.706 1628.349,330.256C1628.349,330.248 1636.706,327.425 1647.558,332.615Z" fill="#FFFFFF"/>
<path d="M2151.46,1185.443L2.53,1185.443C1.136,1185.443 0,1184.307 0,1182.913L0,1181.837C0,1180.443 1.136,1179.307 2.53,1179.307L2151.46,1179.307C2152.86,1179.307 2154,1180.443 2154,1181.837L2154,1182.913C2154,1184.298 2152.86,1185.443 2151.46,1185.443Z" fill="#2E3552"/>
</svg>
