<svg width="38" height="34" viewBox="0 0 38 34" fill="none" xmlns="http://www.w3.org/2000/svg" xmlns:xlink="http://www.w3.org/1999/xlink">
<path d="M31.46,3.213C25.464,-1.926 20.396,2.499 18.611,5.355C17.54,5.355 12.187,-2.141 5.762,2.142C-1.365,6.894 0.765,13.563 2.55,16.062L18.611,32.123L31.46,19.274C34.672,16.062 38.955,9.638 31.46,3.213Z" transform="rotate(360 18.213 16.472)" fill="#D17655"/>
<path d="M17.946,33.77L18.087,33.628L18.228,33.77L33.529,18.469C37.753,14.244 37.753,7.394 33.529,3.169C31.416,1.056 28.647,0 25.878,0C23.109,0 20.34,1.056 18.227,3.169L18.086,3.31L17.945,3.169C15.832,1.056 13.063,0 10.294,0C7.525,0 4.756,1.056 2.644,3.169C-1.581,7.394 -1.581,14.244 2.644,18.469L17.946,33.77ZM16.013,5.101L16.154,5.243L18.087,7.175L20.019,5.243L20.162,5.1C21.689,3.573 23.719,2.732 25.879,2.732C28.038,2.732 30.069,3.573 31.596,5.1C33.123,6.627 33.964,8.658 33.964,10.818C33.964,12.977 33.123,15.008 31.596,16.535L18.229,29.904L18.088,29.763L17.946,29.905L4.578,16.537C1.425,13.384 1.425,8.255 4.578,5.102C6.105,3.575 8.136,2.734 10.295,2.734C12.455,2.733 14.485,3.574 16.013,5.101Z" transform="rotate(360 18.086 16.885)" fill="#6E2D16" stroke="#6E2D16" stroke-width="0.6" stroke-miterlimit="3.999327"/>
</svg>
