<svg width="152" height="318" viewBox="0 0 152 318" fill="none" xmlns="http://www.w3.org/2000/svg" xmlns:xlink="http://www.w3.org/1999/xlink">
<path d="M61.354,282.78C61.354,282.78 34.4,268.874 39.338,234.742C44.276,200.598 23.404,189.815 18.105,179.653C12.806,169.503 24.685,153.121 23.329,138.78C21.974,124.438 5.443,120.607 13.192,100.929C20.941,81.264 14.386,73.788 4.186,52.717C-6.013,31.646 9.1,-0.557 16.289,-0.383C23.479,-0.209 14.709,7.329 21.028,21.335C27.347,35.34 53.99,39.607 62.324,51.324C70.658,63.041 56.005,78.552 65.521,94.361C75.036,110.171 103.371,105.27 110.872,120.607C118.372,135.944 100.498,154.34 105.698,170.423C110.897,186.506 130.04,195.624 138.088,208.548C146.148,221.47 161.236,246.224 136.52,275.778C111.817,305.32 61.354,282.78 61.354,282.78Z" clip-rule="evenodd" fill-rule="evenodd" fill="#84E532"/>
<path d="M13.329,28.835C12.98,27.927 13.428,26.919 14.336,26.571C15.244,26.223 16.252,26.671 16.6,27.579L128.124,317.285L123.932,316.141L13.329,28.835Z" clip-rule="evenodd" fill-rule="evenodd" fill="#A3F65C"/>
<path d="M39.002,248.151C38.865,246.807 38.778,245.413 38.741,243.983L111.991,285.143L105.511,268.313C105.474,268.239 105.449,268.163 105.424,268.101L102.103,259.469L40.084,224.617C40.084,223.199 40.022,221.83 39.935,220.5L100.137,254.333L94.279,239.107L36.974,206.904C36.241,204.964 35.407,203.173 34.499,201.481L92.301,233.957L89.39,226.395C89.353,226.321 89.328,226.246 89.303,226.159L76.566,193.11L19.212,160.881C19.548,159.75 19.896,158.593 20.244,157.436L74.589,187.973L68.232,171.467L23.043,146.067C23.23,144.786 23.367,143.517 23.416,142.249L66.255,166.317L61.478,153.903C61.453,153.841 61.429,153.792 61.404,153.729L47.51,117.645L13.975,98.801C14.398,97.619 14.759,96.487 15.082,95.392L45.545,112.508L33.417,81.001C33.392,80.939 33.367,80.877 33.342,80.814L13.329,28.821C12.98,27.913 13.428,26.906 14.336,26.558C15.244,26.209 16.252,26.657 16.6,27.565L34.785,74.819L45.184,39.307C46.254,39.842 47.323,40.389 48.368,40.936L36.862,80.217L50.532,115.717C50.557,115.767 50.57,115.817 50.582,115.854L63.22,148.692L83.171,105.903C84.291,106.264 85.423,106.612 86.567,106.935L64.974,153.244L69.787,165.757L96.082,109.821C97.214,110.207 98.321,110.617 99.379,111.065L71.914,169.501L72.337,169.738C73.183,170.21 73.482,171.28 73.009,172.126C72.872,172.375 72.685,172.574 72.462,172.723L79.564,191.169C79.589,191.219 79.614,191.269 79.626,191.331L91.119,221.184L110.598,179.751C111.369,180.796 112.178,181.816 113.036,182.811L92.861,225.724L95.821,233.397L117.427,187.45C118.31,188.309 119.206,189.167 120.114,190L97.575,237.937L105.113,257.517C105.138,257.567 105.15,257.615 105.175,257.665L107.265,263.089L134.94,204.23C135.811,205.262 136.607,206.307 137.341,207.377L109.019,267.629L116.992,288.339C117.017,288.389 117.029,288.439 117.041,288.489L117.066,288.551C115.686,288.985 114.292,289.347 112.887,289.657L39.002,248.151Z" clip-rule="evenodd" fill-rule="evenodd" fill="#A3F65C"/>
</svg>
