<svg width="136" height="262" viewBox="0 0 136 262" fill="none" xmlns="http://www.w3.org/2000/svg" xmlns:xlink="http://www.w3.org/1999/xlink">
<path d="M114.757,95.256C134.882,84.559 139.982,107.832 132.158,127.099C124.335,146.366 84.195,211.184 82.093,236.882C81.285,246.845 79.419,245.75 77.839,238.772C69.916,203.932 87.056,109.983 114.757,95.256Z" clip-rule="evenodd" fill-rule="evenodd" fill="#08661D"/>
<path d="M72.155,6.968C49.081,-13.805 34.653,15.277 38.645,43.326C42.638,71.375 74.319,170.298 68.622,204.964C66.408,218.398 69.219,217.578 73.635,208.87C95.601,165.423 103.91,35.564 72.155,6.968Z" clip-rule="evenodd" fill-rule="evenodd" fill="#63C015"/>
<path d="M68.137,214.605C68.635,215.899 69.73,215.253 71.197,213.113C95.241,133.008 57.789,13.324 57.664,12.939C57.465,12.28 56.756,11.906 56.097,12.118C55.438,12.317 55.064,13.026 55.276,13.685C55.388,14.058 93.363,135.372 68.137,214.605Z" clip-rule="evenodd" fill-rule="evenodd" fill="#1B7154"/>
<path d="M21.754,73.526C-0.611,63.787 -4.118,89.049 5.845,108.951C15.796,128.853 64.02,194.653 68.398,221.893C70.09,232.454 71.981,231.135 73.1,223.56C78.66,185.722 52.527,86.922 21.754,73.526Z" clip-rule="evenodd" fill-rule="evenodd" fill="#85AE3E"/>
<path d="M70.438,229.195C71.122,230.028 71.781,229.282 72.341,227.316C70.314,161.666 12.624,81.835 12.437,81.574C12.126,81.138 11.504,81.039 11.069,81.35C10.634,81.661 10.534,82.283 10.845,82.718C11.032,82.979 69.518,163.892 70.438,229.195Z" clip-rule="evenodd" fill-rule="evenodd" fill="#5F9850"/>
<path d="M53.236,214.655L96.187,214.655L107.406,224.78L98.239,260.068L74.718,260.068L51.184,260.068L42.017,224.78L53.236,214.655Z" clip-rule="evenodd" fill-rule="evenodd" fill="#3B405F"/>
<path d="M42.016,201.52L107.393,201.52C109.346,201.52 110.951,203.124 110.951,205.077L110.951,221.222C110.951,223.175 109.346,224.78 107.393,224.78L42.016,224.78C40.063,224.78 38.459,223.175 38.459,221.222L38.459,205.077C38.471,203.124 40.063,201.52 42.016,201.52Z" clip-rule="evenodd" fill-rule="evenodd" fill="#3B405F"/>
<path d="M107.406,224.779L105.515,232.031L43.907,232.031L42.017,224.779L107.406,224.779Z" clip-rule="evenodd" fill-rule="evenodd" fill="#101537"/>
</svg>
