<svg width="924" height="654" viewBox="0 0 924 654" fill="none" xmlns="http://www.w3.org/2000/svg" xmlns:xlink="http://www.w3.org/1999/xlink">
<path d="M923.34,569.884L0.66,569.884L0.66,570.345L923.34,570.345L923.34,569.884Z" fill="#EBEBEB"/>
<path d="M830.886,599.575L769.768,599.575L769.768,600.037L830.886,600.037L830.886,599.575Z" fill="#EBEBEB"/>
<path d="M611.88,604.595L595.844,604.595L595.844,605.056L611.88,605.056L611.88,604.595Z" fill="#EBEBEB"/>
<path d="M767.923,582.451L732.511,582.451L732.511,582.913L767.923,582.913L767.923,582.451Z" fill="#EBEBEB"/>
<path d="M177.168,585.551L97.467,585.551L97.467,586.012L177.168,586.012L177.168,585.551Z" fill="#EBEBEB"/>
<path d="M205.292,585.551L193.611,585.551L193.611,586.012L205.292,586.012L205.292,585.551Z" fill="#EBEBEB"/>
<path d="M416.143,593.338L243.27,593.338L243.27,593.799L416.143,593.799L416.143,593.338Z" fill="#EBEBEB"/>
<path d="M619.576,214.542C661.922,214.542 696.251,180.213 696.251,137.867C696.251,95.521 661.922,61.192 619.576,61.192C577.23,61.192 542.901,95.521 542.901,137.867C542.901,180.213 577.23,214.542 619.576,214.542Z" fill="#DADAFF"/>
<path d="M756.426,122.753C756.426,115.852 750.835,110.26 743.933,110.26C742.678,110.26 741.479,110.445 740.353,110.795C740.538,109.54 740.63,108.267 740.63,106.957C740.63,92.36 728.783,80.513 714.186,80.513C712.525,80.513 710.901,80.679 709.314,80.974C705.254,74.331 697.947,69.865 689.569,69.865C676.91,69.865 666.631,80.033 666.447,92.655C666.317,92.655 666.188,92.637 666.059,92.637C654.286,92.637 644.764,102.177 644.764,113.932C644.764,125.706 654.304,135.228 666.059,135.228L744.284,135.228L744.265,135.209C751.019,135.025 756.426,129.526 756.426,122.753Z" fill="#ECECFF"/>
<path d="M559.084,191.475C559.084,184.573 553.493,178.982 546.591,178.982C545.337,178.982 544.137,179.166 543.011,179.517C543.196,178.262 543.288,176.989 543.288,175.679C543.288,161.082 531.441,149.235 516.844,149.235C515.183,149.235 513.559,149.401 511.972,149.696C507.913,143.053 500.605,138.587 492.227,138.587C479.568,138.587 469.289,148.755 469.105,161.377C468.976,161.377 468.846,161.359 468.717,161.359C456.944,161.359 447.422,170.899 447.422,182.654C447.422,194.428 456.962,203.95 468.717,203.95L546.942,203.95L546.924,203.931C553.696,203.747 559.084,198.247 559.084,191.475Z" fill="#ECECFF"/>
<path d="M214.629,215.094C214.629,208.192 209.038,202.601 202.136,202.601C200.882,202.601 199.682,202.785 198.556,203.136C198.741,201.881 198.833,200.608 198.833,199.298C198.833,184.701 186.986,172.854 172.389,172.854C170.728,172.854 169.104,173.02 167.517,173.315C163.458,166.672 156.15,162.206 147.772,162.206C135.113,162.206 124.834,172.374 124.65,184.996C124.521,184.996 124.391,184.978 124.262,184.978C112.489,184.978 102.967,194.518 102.967,206.273C102.967,218.028 112.507,227.569 124.262,227.569L202.487,227.569L202.469,227.55C209.241,227.384 214.629,221.885 214.629,215.094Z" fill="#ECECFF"/>
<path d="M749.212,274.682C749.212,270.512 745.835,267.135 741.665,267.135C740.908,267.135 740.189,267.245 739.506,267.448C739.617,266.692 739.672,265.917 739.672,265.123C739.672,256.302 732.512,249.142 723.691,249.142C722.676,249.142 721.698,249.235 720.738,249.419C718.284,245.396 713.874,242.702 708.817,242.702C701.159,242.702 694.959,248.847 694.848,256.469C694.774,256.469 694.7,256.45 694.608,256.45C687.503,256.45 681.728,262.208 681.728,269.331C681.728,276.454 687.485,282.211 694.608,282.211L741.886,282.211L741.868,282.193C745.946,282.119 749.212,278.779 749.212,274.682Z" fill="#ECECFF"/>
<path d="M293.021,31.98C293.021,27.81 289.644,24.433 285.473,24.433C284.717,24.433 283.997,24.543 283.314,24.746C283.425,23.99 283.48,23.215 283.48,22.421C283.48,13.6 276.32,6.44 267.5,6.44C266.485,6.44 265.507,6.533 264.547,6.717C262.093,2.694 257.682,0 252.626,0C244.968,0 238.767,6.145 238.657,13.766C238.583,13.766 238.509,13.748 238.417,13.748C231.312,13.748 225.536,19.505 225.536,26.629C225.536,33.733 231.294,39.509 238.417,39.509L285.695,39.509L285.676,39.491C289.755,39.398 293.021,36.077 293.021,31.98Z" fill="#ECECFF"/>
<path d="M166.485,313.86L216.458,540.839L225.537,536.595L173.055,312.587L166.485,313.86Z" fill="#ECECFF"/>
<path d="M740.244,539.75C740.244,539.75 709.353,326.464 778.904,105.869L767.998,97.454C767.998,97.454 686.507,264.275 698.373,545.728L740.244,539.75Z" fill="#B4B4FF"/>
<path d="M797.818,47.98C823.321,31.28 861.059,57.871 866.226,99.41C866.226,99.41 861.834,96.698 854.526,93.856C852.552,83.411 850.651,74.147 850.651,74.147L851.998,92.915C849.765,92.103 847.311,91.328 844.654,90.608L842.882,80.514L842.052,89.944C838.656,89.113 834.965,88.449 831.09,88.006L826.329,58.536L823.856,87.489C820.203,87.397 816.42,87.526 812.544,87.988L809.629,67.947L809.61,88.393C806.473,88.892 803.281,89.63 800.051,90.608L796.563,60.695C796.563,60.695 796.674,77.506 796.471,91.771C788.296,94.705 779.974,99.3 771.854,106.257L771.596,102.566C771.596,102.547 774.548,63.223 797.818,47.98Z" fill="#CCD1FF"/>
<path d="M762.589,34.619C742.345,11.829 698.961,27.625 683.109,66.378C683.109,66.378 688.073,64.901 695.861,64.071C700.493,54.494 704.755,46.06 704.755,46.06L698.537,63.813C700.917,63.628 703.482,63.499 706.232,63.499L710.568,54.217L708.907,63.536C712.414,63.628 716.141,63.942 719.998,64.532L732.288,37.332L727.103,65.916C730.646,66.765 734.263,67.909 737.898,69.367L745.962,50.784L740.648,70.53C743.545,71.84 746.442,73.372 749.302,75.162L760.485,47.204C760.485,47.204 755.983,63.407 752.44,77.21C759.563,82.174 766.39,88.799 772.425,97.638L773.643,94.15C773.643,94.15 781.061,55.416 762.589,34.619Z" fill="#CCD1FF"/>
<path d="M743.085,88.668C763.384,68.849 778.626,86.103 778.626,86.103C771.005,88.078 764.214,92.968 758.272,99.187L755.522,95.607L755.965,101.715C754.544,103.339 753.197,105.036 751.887,106.79L747.237,96.216L749.211,110.536C747.347,113.285 745.613,116.09 744.007,118.895L741.959,108.395L742.107,122.309C740.409,125.446 738.896,128.528 737.549,131.425L735.334,112.178L735.039,137.053C731.791,144.73 730.112,150.119 730.112,150.119C730.112,150.119 722.786,108.487 743.085,88.668Z" fill="#CCD1FF"/>
<path d="M797.873,135.469L793.684,137.886C793.075,134.657 792.374,131.28 791.562,127.847L794.422,122.625L790.842,124.839C790.547,123.695 790.252,122.57 789.957,121.425L793.611,111.202L788.148,115.28C785.196,106.072 781.431,97.952 776.707,94.077C776.707,94.077 823.265,108.951 796.951,159.126C796.951,159.126 796.102,151.173 794.238,140.746L797.873,135.469Z" fill="#CCD1FF"/>
<path d="M752.09,94.427L744.654,80.402L747.717,94.999C746.979,95.128 746.222,95.257 745.466,95.405L735.814,83.392L738.195,97.214C735.095,98.136 731.865,99.317 728.507,100.794C725.093,102.288 721.734,104.004 718.45,105.868L713.744,93.597L715.94,107.326C712.747,109.227 709.647,111.257 706.658,113.36L704.314,102.547L704.536,114.874C700.882,117.512 697.431,120.225 694.238,122.846L694.534,103.248L691.692,125.005C688.425,127.791 685.51,130.448 683.019,132.792L682.649,119.192L679.217,136.446C675.619,140.007 673.57,142.277 673.57,142.277C675.434,94.685 693.869,75.789 724.392,70.677C754.914,65.584 776.91,97.269 776.91,97.269C776.91,97.269 767.555,92.877 752.09,94.427Z" fill="#CCD1FF"/>
<path d="M841.111,152.593L838.325,166.783C836.996,163.259 835.151,158.738 832.863,153.7L835.354,132.94L830.777,149.308C827.419,142.425 823.267,134.914 818.377,127.902L822.713,113.508L815.664,124.193C814.261,122.347 812.804,120.539 811.272,118.804L813.745,109.743L809.925,117.309C808.891,116.184 807.821,115.095 806.732,114.043L809.722,101.956L804.961,112.401C801.879,109.633 798.613,107.234 795.18,105.351L800.034,90.57C800.034,90.57 796.62,96.586 792.431,103.967C787.651,101.771 782.54,100.59 777.133,100.775C777.133,100.775 786.304,86.03 803.318,80.937C820.333,75.844 856.834,106.569 840.964,174.312C840.964,174.312 840.484,172.762 839.543,170.142L841.111,152.593Z" fill="#CCD1FF"/>
<path d="M813.134,20.963L816.032,29.563C815.09,29.618 814.02,29.747 812.857,30.005L809.37,18.823L811.695,30.319C809.813,30.873 807.69,31.758 805.421,33.179L800.604,18.066L803.428,34.545C802.671,35.117 801.878,35.744 801.103,36.427L795.677,22.236L799.774,37.645C796.489,40.819 793.038,45.193 789.606,51.19L788.111,30.393L785.712,58.793C782.354,66.045 779.087,75.088 776.116,86.307C776.116,86.307 773.164,10.721 791.378,2.159C809.591,-6.403 820.423,29.987 820.423,29.987C820.423,29.987 819.519,29.673 817.932,29.581L813.134,20.963Z" fill="#CCD1FF"/>
<path d="M787.116,105.112L785.492,119.451L780.029,105.629L772.611,116.461L769.714,106.386L761.17,113.546C761.17,113.546 762.222,95.258 767.666,86.899C773.128,78.539 789.422,84.408 787.116,105.112Z" fill="#CCD1FF"/>
<path d="M559.822,335.671L559.822,235.689C559.822,235.689 539.542,257.225 526.089,254.309C512.636,251.393 495.124,261.561 495.124,261.561C495.124,261.561 512.729,258.996 519.261,266.138C525.794,273.279 554.95,274.036 554.95,274.036L554.95,339.325L559.822,335.671Z" fill="#ECECFF"/>
<path d="M649.303,305.038L644.69,305.038L644.69,311.312L629.484,311.312L629.484,305.038L614.536,305.038L614.536,311.312L599.331,311.312L599.331,305.038L584.402,305.038L584.402,311.312L569.177,311.312L569.177,305.038L554.249,305.038L554.249,311.312L539.043,311.312L539.043,305.038L524.095,305.038L524.095,311.312L508.89,311.312L508.89,305.038L493.942,305.038L493.942,311.312L478.737,311.312L478.737,305.038L473.625,305.038L458.807,423.51L664.619,422.643L649.303,305.038Z" fill="#CCD1FF"/>
<path d="M682.041,391.031L675.729,391.031L675.729,399.668L654.821,399.668L654.821,391.031L634.301,391.031L634.301,399.668L613.393,399.668L613.393,391.031L592.873,391.031L592.873,399.668L571.983,399.668L571.983,391.031L551.463,391.031L551.463,399.668L530.555,399.668L530.555,391.031L510.035,391.031L510.035,399.668L489.127,399.668L489.127,391.031L468.606,391.031L468.606,399.668L447.717,399.668L447.717,391.031L440.686,391.031L420.313,553.792L703.115,552.629L682.041,391.031Z" fill="#ECECFF"/>
<path d="M786.506,534.637C782.152,529.71 778.018,524.673 773.46,519.93C773.054,519.524 772.87,519.284 772.796,519.155C771.3,518.158 769.714,517.346 768.09,516.553C767.794,516.461 766.854,516.073 765.856,515.704C764.03,515.021 762.204,514.302 760.394,513.582C748.916,508.969 738.62,503.617 729.984,494.519C725.24,489.537 721.458,483.706 716.548,478.889C716.438,479.055 715.46,478.538 714.998,478.151C713.542,477.985 711.566,477.69 711.29,477.69C709.316,477.653 707.322,477.727 705.348,477.819C702.524,477.948 699.7,478.169 696.878,478.428C685.88,494.519 671.984,516.498 665.838,519.395C656.334,523.897 568.754,547.02 562.296,545.654C555.836,544.289 522.03,547.02 513.542,546.706C505.052,546.392 489.68,542.628 467.426,532.386C445.17,522.163 433.01,522.089 406.196,513.545C379.384,505.001 361.41,501.753 345.724,514.892C330.038,528.031 286.949,500.295 273.515,496.346C260.081,492.397 234.375,469.644 216.844,480.255C199.313,490.865 184.735,495.922 162.83,514.892C140.926,533.881 97.468,570.53 97.468,570.53L837.384,570.53L828.894,555.675C812.508,554.77 797.56,547.149 786.506,534.637Z" fill="#DADAFF"/>
<path d="M80.343,353.239C80.343,353.239 101.878,314.541 160.247,281.048C160.247,281.048 207.746,277.007 261.354,300.369C261.354,300.369 272.223,318.435 259.878,325.54C247.532,332.663 237.272,318.343 237.272,318.343C237.272,318.343 234.984,340.155 218.874,340.782C202.764,341.41 198.021,325.54 198.021,325.54C198.021,325.54 196.434,345.562 177.206,350.618C160.505,355.01 150.116,340.782 150.116,340.782C150.116,340.782 146.794,357.225 131.828,361.986C119.797,365.806 111.548,355.453 111.548,355.453C111.548,355.453 108.097,373.298 95.327,373.298C84.347,373.316 80.343,353.239 80.343,353.239Z" fill="#CCD1FF"/>
<path d="M462,654C685.122,654 866,644.598 866,633C866,621.402 685.122,612 462,612C238.877,612 58,621.402 58,633C58,644.598 238.877,654 462,654Z" fill="#F0F0FF"/>
<path d="M709.26,541.279C709.26,541.279 717.287,529.524 724.595,526.239C731.902,522.954 733.102,510.48 737.051,509.779C741,509.077 745.392,520.629 752.33,523.969C759.269,527.328 769.769,541.205 769.769,541.205L709.26,541.279Z" fill="#4645C5"/>
<g opacity="0.8">
<path d="M709.26,541.279C709.26,541.279 717.287,529.524 724.595,526.239C731.902,522.954 733.102,510.48 737.051,509.779C741,509.077 745.392,520.629 752.33,523.969C759.269,527.328 769.769,541.205 769.769,541.205L709.26,541.279Z" fill="#FFFFFF"/>
</g>
<path d="M767.628,625.926L709.241,625.926L701.859,541.224L775.009,541.224L767.628,625.926Z" fill="#4645C5"/>
<path d="M778.534,536.833L698.316,536.833L698.316,545.746L778.534,545.746L778.534,536.833Z" fill="#4645C5"/>
<g opacity="0.2">
<path d="M778.534,536.833L698.316,536.833L698.316,545.746L778.534,545.746L778.534,536.833Z" fill="#FFFFFF"/>
</g>
<path d="M734.983,543.087C740.316,551.428 763.051,585.844 777.15,588.354L778.884,584.183C778.884,584.183 766.243,585.696 738.342,540.983C737.788,540.097 736.626,539.765 735.703,540.264C734.688,540.817 734.356,542.127 734.983,543.087Z" fill="#263238"/>
<path d="M651.905,516.386C654.433,515.593 657.109,517.032 657.829,519.579L667.812,554.438L680.785,549.252C680.785,549.252 688.591,578.317 673.846,582.911C659.434,587.396 648.288,560.564 648.288,560.564L661.464,556.91L648.879,522.476C647.974,519.966 649.34,517.18 651.905,516.386Z" fill="#4645C5"/>
<g opacity="0.4">
<path d="M673.846,582.911C659.434,587.396 648.307,560.564 648.307,560.564L661.483,556.929C661.483,556.929 663.752,560.804 666.299,559.844C668.864,558.866 667.812,554.437 667.812,554.437L680.785,549.252C680.785,549.252 688.591,578.316 673.846,582.911Z" fill="#FFFFFF"/>
</g>
<path d="M784.329,633.085C777.075,629.486 769.657,626.091 767.295,625.925C762.183,625.593 759.269,623.323 755.614,618.968C751.96,614.631 750.502,609.612 743.933,602.636C737.363,595.661 744.671,592.856 730.794,591.066C716.917,589.276 722.268,590.402 713.761,584.275C705.236,578.13 706.952,578.13 696.969,573.757C686.985,569.383 692.816,567.704 681.135,566.707C673.071,566.024 660.301,570.269 653.695,574.993C650.761,577.097 649.248,580.566 646.369,582.411C643.103,584.478 638.028,580.64 638.563,587.578C638.711,589.405 639.227,591.251 638.803,593.022C637.862,596.971 621.604,596.971 617.47,598.189C616.511,598.466 615.478,598.835 614.998,599.702C614.057,601.382 615.477,604.353 613.651,604.962C613.079,605.146 612.451,604.943 611.861,605.054C609.665,605.478 610.237,609.427 608.188,610.332C606.232,611.199 603.741,609.39 601.453,610.258C599.681,610.922 599.109,613.284 597.578,614.225C594.902,615.849 592.134,617.049 589.495,618.783C584.918,621.791 580.951,625.464 576.042,628.102L562.903,631.701L558.973,633.085L784.329,633.085L784.329,633.085Z" fill="#4645C5"/>
<g opacity="0.8">
<path d="M784.329,633.085C777.075,629.486 769.657,626.091 767.295,625.925C762.183,625.593 759.269,623.323 755.614,618.968C751.96,614.631 750.502,609.612 743.933,602.636C737.363,595.661 744.671,592.856 730.794,591.066C716.917,589.276 722.268,590.402 713.761,584.275C705.236,578.13 706.952,578.13 696.969,573.757C686.985,569.383 692.816,567.704 681.135,566.707C673.071,566.024 660.301,570.269 653.695,574.993C650.761,577.097 649.248,580.566 646.369,582.411C643.103,584.478 638.028,580.64 638.563,587.578C638.711,589.405 639.227,591.251 638.803,593.022C637.862,596.971 621.604,596.971 617.47,598.189C616.511,598.466 615.478,598.835 614.998,599.702C614.057,601.382 615.477,604.353 613.651,604.962C613.079,605.146 612.451,604.943 611.861,605.054C609.665,605.478 610.237,609.427 608.188,610.332C606.232,611.199 603.741,609.39 601.453,610.258C599.681,610.922 599.109,613.284 597.578,614.225C594.902,615.849 592.134,617.049 589.495,618.783C584.918,621.791 580.951,625.464 576.042,628.102L562.903,631.701L558.973,633.085L784.329,633.085L784.329,633.085Z" fill="#FFFFFF"/>
</g>
<path d="M629.467,599.501C629.467,599.649 629.467,599.76 629.448,599.907L629.448,599.926C629.375,606.403 627.474,612.456 624.208,617.549C623.931,617.973 623.654,618.398 623.34,618.822C621.403,621.572 619.059,624.026 616.402,626.075C615.793,626.554 615.165,627.016 614.52,627.422L614.501,627.422C614.353,627.532 614.187,627.643 614.04,627.717C613.837,627.865 613.634,627.975 613.431,628.104C613.117,628.326 612.785,628.51 612.453,628.695C611.936,628.99 611.401,629.285 610.866,629.544L610.847,629.544C606.345,631.814 601.27,633.087 595.881,633.087C586.322,633.087 577.686,629.082 571.596,622.679C569.345,620.354 567.444,617.697 565.968,614.799C563.606,610.204 562.277,605.001 562.277,599.501L562.277,599.391C562.277,598.45 562.314,597.508 562.407,596.586C562.776,592.138 564.03,587.949 565.968,584.185C566.466,583.207 567.001,582.266 567.592,581.362C569.53,578.354 571.929,575.678 574.678,573.427C575.564,572.707 576.468,572.043 577.428,571.434C577.76,571.194 578.111,570.972 578.461,570.769C581.082,569.164 583.923,567.927 586.95,567.097C587.208,567.023 587.467,566.949 587.725,566.894C590.327,566.248 593.058,565.897 595.881,565.897C596.749,565.897 597.598,565.934 598.428,566.008C598.649,566.008 598.852,566.027 599.074,566.045L599.092,566.045C602.912,566.414 606.529,567.411 609.869,568.961C609.998,569.016 610.146,569.09 610.294,569.164C613.172,570.529 615.811,572.282 618.173,574.368C624.042,579.59 628.083,586.861 629.172,595.054L629.172,595.109C629.375,596.549 629.467,598.007 629.467,599.501Z" fill="#4645C5"/>
<g opacity="0.6">
<path d="M629.467,599.5C629.467,612.657 621.901,624.062 610.866,629.542C610.847,629.561 610.847,629.542 610.847,629.542C609.519,628.435 609.002,627.273 609.002,627.273C615.202,609.188 609.002,599.5 609.002,599.5L609.02,599.315L609.463,596.418L609.556,595.883C610.515,590.513 612.933,580.456 618.173,574.366C625.093,580.511 629.467,589.498 629.467,599.5Z" fill="#FFFFFF"/>
</g>
<g opacity="0.6">
<path d="M570.119,593.688C570.119,593.688 564.232,599.575 565.967,614.799C563.605,610.204 562.276,605 562.276,599.501C562.276,588.982 567.111,579.589 574.677,573.426C571.429,579.682 569.713,587.211 570.119,593.688Z" fill="#FFFFFF"/>
</g>
<g opacity="0.2">
<path d="M618.172,574.367C610.791,582.929 609.001,599.5 609.001,599.5C588.739,604.464 570.119,593.687 570.119,593.687C569.713,587.21 571.448,579.681 574.677,573.426C580.471,568.72 587.834,565.896 595.88,565.896C604.443,565.896 612.23,569.107 618.172,574.367Z" fill="#FFFFFF"/>
</g>
<g opacity="0.2">
<path d="M610.847,629.543C606.344,631.813 601.269,633.087 595.881,633.087C586.322,633.087 577.685,629.082 571.596,622.679C577.888,626.425 590.751,631.666 609.001,627.274C609.001,627.274 609.518,628.436 610.847,629.543Z" fill="#FFFFFF"/>
</g>
<g opacity="0.2">
<g opacity="0.2">
<path d="M610.294,569.162C609.409,570.398 608.615,571.672 607.877,573C606.511,575.547 605.33,578.186 604.352,580.898C603.319,583.611 602.525,586.398 601.769,589.184C601.049,591.989 600.403,594.831 599.868,597.691C600.034,594.776 600.496,591.897 601.086,589.036C601.695,586.176 602.526,583.353 603.485,580.585C604.555,577.854 605.736,575.159 607.25,572.65C608.062,571.376 608.929,570.122 609.87,568.959C609.999,569.014 610.147,569.088 610.294,569.162Z" fill="#000000"/>
</g>
<g opacity="0.2">
<path d="M599.073,566.044C598.612,566.874 598.188,567.723 597.782,568.572C596.416,571.414 595.327,574.403 594.442,577.448C593.464,580.474 592.725,583.575 592.024,586.675C591.341,589.775 590.732,592.912 590.197,596.049C590.363,592.857 590.788,589.683 591.341,586.527C591.877,583.372 592.652,580.253 593.556,577.19C594.534,574.126 595.623,571.082 597.154,568.24C597.56,567.483 597.985,566.727 598.428,566.007C598.649,566.007 598.852,566.025 599.073,566.044Z" fill="#000000"/>
</g>
<g opacity="0.2">
<path d="M587.724,566.893C587.54,567.391 587.337,567.889 587.152,568.387C586.137,571.118 585.307,573.923 584.661,576.784C583.941,579.626 583.388,582.504 582.853,585.402C582.336,588.299 581.875,591.196 581.45,594.112C581.487,591.159 581.782,588.225 582.17,585.291C582.539,582.357 583.111,579.459 583.775,576.581C584.477,573.702 585.325,570.86 586.488,568.111C586.636,567.778 586.783,567.428 586.949,567.096C587.208,567.022 587.466,566.948 587.724,566.893Z" fill="#000000"/>
</g>
<g opacity="0.2">
<path d="M578.461,570.768C577.833,572.834 577.243,574.901 576.819,577.005C576.283,579.348 575.896,581.729 575.527,584.11C575.176,586.49 574.899,588.889 574.678,591.306C574.53,588.889 574.623,586.453 574.826,584.036C575.047,581.618 575.435,579.201 575.914,576.82C576.339,574.993 576.819,573.203 577.427,571.432C577.76,571.192 578.11,570.971 578.461,570.768Z" fill="#000000"/>
</g>
<g opacity="0.2">
<path d="M618.45,610.702C618.486,614.153 618.154,617.659 617.102,620.981C616.696,622.66 615.958,624.247 615.312,625.834C615.073,626.369 614.796,626.905 614.519,627.421L614.501,627.421C614.353,627.532 614.187,627.643 614.039,627.717C615.017,625.465 615.885,623.177 616.42,620.796C617.305,617.512 617.638,614.098 617.527,610.721C617.508,607.325 616.918,603.948 615.977,600.7C615.017,597.434 613.67,594.26 611.917,591.308C614.002,594.057 615.534,597.213 616.641,600.479C617.767,603.764 618.357,607.233 618.45,610.702Z" fill="#000000"/>
</g>
<g opacity="0.2">
<path d="M625.075,609.759L624.983,612.546L624.595,615.314C624.521,616.071 624.374,616.809 624.208,617.547C623.931,617.971 623.654,618.396 623.34,618.82C623.58,617.621 623.839,616.44 623.894,615.222L624.171,612.491L624.226,609.759C624.281,608.837 624.226,607.933 624.152,607.01C624.06,606.106 624.06,605.201 623.894,604.297C623.525,600.662 622.51,597.119 621.181,593.723C619.834,590.328 618.044,587.08 615.756,584.201C618.339,586.84 620.314,590.051 621.827,593.446C623.322,596.86 624.355,600.477 624.817,604.186C624.964,605.109 624.946,606.032 625.02,606.973C625.093,607.896 625.13,608.837 625.075,609.759Z" fill="#000000"/>
</g>
<g opacity="0.2">
<path d="M629.467,599.499C629.467,599.647 629.467,599.758 629.449,599.905C629.412,599.702 629.375,599.481 629.338,599.278C628.563,595.44 627.29,591.73 625.629,588.187C623.95,584.663 621.901,581.267 619.244,578.352C622.141,581.046 624.448,584.349 626.257,587.874C627.438,590.18 628.397,592.579 629.172,595.052L629.172,595.107C629.375,596.547 629.467,598.005 629.467,599.499Z" fill="#000000"/>
</g>
<g opacity="0.2">
<path d="M568.478,588.372C566.965,590.033 565.747,591.897 564.695,593.834C563.735,595.624 562.923,597.47 562.277,599.389C562.277,598.448 562.314,597.507 562.407,596.584C562.905,595.514 563.458,594.48 564.086,593.484C565.285,591.565 566.706,589.756 568.478,588.372Z" fill="#000000"/>
</g>
<g opacity="0.2">
<path d="M570.064,579.441C568.662,581.028 567.296,582.597 565.968,584.184C566.466,583.206 567.001,582.265 567.592,581.361C568.385,580.678 569.197,580.032 570.064,579.441Z" fill="#000000"/>
</g>
<g opacity="0.2">
<path d="M570.065,600.811C573.129,601.992 576.247,603.025 579.384,603.948C582.522,604.833 585.677,605.701 588.907,606.217C595.291,607.399 601.916,607.731 608.283,605.978C605.219,607.214 601.916,607.768 598.613,607.915C595.291,608.044 592.007,607.638 588.74,607.122C585.493,606.513 582.3,605.664 579.182,604.612C576.044,603.542 572.981,602.324 570.065,600.811Z" fill="#000000"/>
</g>
<g opacity="0.2">
<path d="M570.065,608.82C573.166,610.057 576.321,611.072 579.532,611.921C582.743,612.751 585.991,613.415 589.276,613.784C592.542,614.264 595.863,614.356 599.167,614.246L601.64,614.135L604.112,613.84C605.773,613.729 607.379,613.249 609.021,613.009C605.847,613.987 602.562,614.762 599.204,614.965C595.864,615.205 592.487,615.113 589.165,614.707C585.843,614.246 582.559,613.581 579.348,612.603C576.137,611.625 573,610.426 570.065,608.82Z" fill="#000000"/>
</g>
<g opacity="0.2">
<path d="M570.857,615.757C573.773,617.141 576.781,618.248 579.863,619.115C582.926,620.001 586.063,620.665 589.237,620.998C590.806,621.256 592.411,621.293 593.998,621.404C595.585,621.385 597.191,621.441 598.778,621.311C601.97,621.219 605.126,620.573 608.281,619.946C605.236,620.961 602.081,621.773 598.833,622.031C595.604,622.382 592.337,622.289 589.127,621.92C585.916,621.496 582.723,620.832 579.66,619.798C576.578,618.765 573.589,617.473 570.857,615.757Z" fill="#000000"/>
</g>
<g opacity="0.2">
<path d="M572.262,620.998C575.011,622.271 577.853,623.323 580.732,624.154C583.629,624.984 586.563,625.63 589.553,625.962C592.524,626.405 595.532,626.442 598.521,626.257L600.773,626.091L603.005,625.722C604.519,625.556 605.94,625.058 607.434,624.763C604.611,625.814 601.64,626.7 598.595,626.959C595.569,627.309 592.487,627.254 589.442,626.885C586.416,626.46 583.426,625.814 580.529,624.836C577.632,623.84 574.827,622.604 572.262,620.998Z" fill="#000000"/>
</g>
</g>
<path d="M210.645,546.686C210.645,546.686 217.214,536.832 228.895,536.094C240.576,535.356 250.431,550.266 250.431,550.266L246.721,550.266C246.721,550.266 237.292,540.117 230.537,540.117C223.783,540.117 217.214,548.513 217.214,548.513L210.645,546.686Z" fill="#525293"/>
<path d="M111.53,624.615C115.572,617.88 160.838,622.253 171.061,618.23L176.542,627.734C176.542,627.734 168.736,632.071 155.782,630.539C142.827,629.007 123.248,628.601 118.137,633.104L111.53,624.615Z" fill="#525293"/>
<g opacity="0.3">
<path d="M111.53,624.615C115.572,617.88 160.838,622.253 171.061,618.23L176.542,627.734C176.542,627.734 168.736,632.071 155.782,630.539C142.827,629.007 123.248,628.601 118.137,633.104L111.53,624.615Z" fill="#000000"/>
</g>
<path d="M302.193,604.077C301.823,605.682 301.417,607.251 300.956,608.783C297.321,621.349 291.582,631.517 287.448,633.086L170.102,633.086C166.78,633.086 163.717,631.536 161.742,628.989C161.724,628.952 161.687,628.915 161.65,628.86C161.226,628.306 160.856,627.716 160.561,627.07C152.46,610.148 144.285,576.304 155.782,560.877C156.981,559.272 158.365,557.814 159.915,556.522C160.026,556.43 160.137,556.338 160.248,556.264C162.591,554.308 165.304,552.702 168.256,551.374C168.275,551.374 168.275,551.355 168.293,551.355C168.312,551.355 168.33,551.337 168.349,551.337C176.431,547.683 186.359,546.003 196.103,545.284C198.926,545.062 201.731,544.933 204.481,544.878C211.678,544.675 218.395,544.859 223.746,545.007C242.606,545.487 257.443,551.097 267.555,550.119C271.56,549.731 275.213,550.045 278.701,551.004C279.735,551.3 280.749,551.632 281.764,552.038C285.99,553.699 290.069,556.319 294.46,559.844C305.865,568.997 306.031,587.801 302.193,604.077Z" fill="#525293"/>
<g opacity="0.1">
<path d="M302.193,604.077C301.823,605.682 301.417,607.251 300.956,608.783C297.321,621.349 291.582,631.517 287.448,633.086L170.102,633.086C166.78,633.086 163.717,631.536 161.742,628.989C161.724,628.952 161.687,628.915 161.65,628.86C161.226,628.306 160.856,627.716 160.561,627.07C152.46,610.148 144.285,576.304 155.782,560.877C156.981,559.272 158.365,557.814 159.915,556.522C160.026,556.43 160.137,556.338 160.248,556.264C162.591,554.308 165.304,552.702 168.256,551.374C168.275,551.374 168.275,551.355 168.293,551.355C168.312,551.355 168.33,551.337 168.349,551.337C176.431,547.683 186.359,546.003 196.103,545.284C198.926,545.062 201.731,544.933 204.481,544.878C211.678,544.675 218.395,544.859 223.746,545.007C242.606,545.487 257.443,551.097 267.555,550.119C271.56,549.731 275.213,550.045 278.701,551.004C279.735,551.3 280.749,551.632 281.764,552.038C285.99,553.699 290.069,556.319 294.46,559.844C305.865,568.997 306.031,587.801 302.193,604.077Z" fill="#FFFFFF"/>
</g>
<g opacity="0.2">
<path d="M284.219,602.914C275.822,602.914 259.03,606.919 234.209,601.457C218.081,597.895 205.699,599.574 198.982,601.198C198.723,597.452 198.41,593.392 198.077,588.927C195.881,558.94 178.775,546.354 168.349,551.337C168.33,551.337 168.312,551.355 168.293,551.355C168.275,551.355 168.275,551.374 168.256,551.374C165.212,552.85 162.554,554.492 160.248,556.264C160.137,556.338 160.026,556.43 159.915,556.522C158.365,557.814 156.981,559.272 155.782,560.877C144.285,576.304 152.46,610.148 160.561,627.07C160.856,627.716 161.226,628.307 161.65,628.86C161.687,628.916 161.724,628.953 161.742,628.989C163.754,631.259 166.632,632.588 169.714,632.588L190.77,632.588C199.351,632.588 200.366,624.727 199.406,607.842C200.864,607.011 202.635,605.922 204.647,604.631C209.869,601.235 230.187,602.914 238.952,606.199C247.718,609.484 270.711,610.942 281.838,609.133C289.57,607.878 297.081,608.358 300.956,608.783C301.417,607.251 301.823,605.683 302.193,604.077C298.354,603.671 290.364,602.914 284.219,602.914Z" fill="#000000"/>
</g>
<g opacity="0.2">
<path d="M207.93,560.563C213.042,579.183 216.548,585.753 217.895,587.58C219.242,589.407 256.408,593.817 263.383,593.798C270.34,593.78 282.28,592.728 287.447,591.436C292.189,590.237 293.721,566.358 281.763,552.038C280.748,551.632 279.733,551.3 278.7,551.005C285.214,565.62 285.362,583.52 284.587,586.011C283.479,589.554 272.536,589.037 267.425,588.927C262.313,588.834 230.554,586.841 227.27,585.55C223.967,584.24 222.158,582.468 219.611,579.183C217.046,575.898 216.696,564.586 212.064,554.824C210.385,551.318 207.487,547.867 204.479,544.878C201.73,544.933 198.925,545.062 196.102,545.284C200.918,547.997 205.753,552.628 207.93,560.563Z" fill="#000000"/>
</g>
<path d="M171.061,577.707L160.838,580.272C160.838,580.272 153.586,601.069 157.923,609.835C162.259,618.6 128.323,630.669 111.53,624.598L118.137,633.068C118.137,633.068 158.292,630.54 165.95,615.26C173.608,599.98 162.665,597.618 161.927,593.319C161.207,589.038 171.061,577.707 171.061,577.707Z" fill="#525293"/>
<g opacity="0.1">
<path d="M171.061,577.707L160.838,580.272C160.838,580.272 153.586,601.069 157.923,609.835C162.259,618.6 128.323,630.669 111.53,624.598L118.137,633.068C118.137,633.068 158.292,630.54 165.95,615.26C173.608,599.98 162.665,597.618 161.927,593.319C161.207,589.038 171.061,577.707 171.061,577.707Z" fill="#FFFFFF"/>
</g>
<path d="M261.353,148.423C261.353,148.423 221.863,126.315 213.688,120.595C205.513,114.874 161.778,71.97 159.342,70.733C159.342,70.733 160.984,65.824 157.293,62.964C153.621,60.104 139.32,50.711 137.271,50.711C135.223,50.711 129.908,70.733 130.739,75.642C131.551,80.55 151.573,81.768 151.573,81.768C151.573,81.768 193.259,130.301 199.792,137.092C206.325,143.883 250.872,172.892 250.872,172.892L261.353,148.423Z" fill="#FFB27D"/>
<path d="M277.555,152.483C277.555,152.483 286.21,169.977 265.191,197.713L218.854,163.647L237.345,130.154L277.555,152.483Z" fill="#0D0CDB"/>
<g opacity="0.6">
<path d="M265.191,197.713L243.305,181.621L240.445,179.518L228.1,170.457L218.854,163.647L225.664,151.339L229.521,144.345L237.363,130.154L244.929,134.362L251.462,137.979L277.555,152.483C277.555,152.483 278.662,154.716 279.124,158.85C279.954,166.286 278.699,179.868 265.191,197.713Z" fill="#FFFFFF"/>
</g>
<g opacity="0.2">
<path d="M265.192,197.714L243.306,181.622C250.816,166.084 270.248,160.604 279.124,158.851C279.954,166.287 278.7,179.869 265.192,197.714Z" fill="#010089"/>
</g>
<g opacity="0.2">
<g opacity="0.2">
<path d="M251.462,137.977L244.93,141.779L244.93,134.36L251.462,137.977Z" fill="#FFFFFF"/>
</g>
<g opacity="0.2">
<path d="M237.253,146.633L229.06,158.13L225.664,151.339L229.521,144.345L237.253,146.633Z" fill="#FFFFFF"/>
</g>
<g opacity="0.2">
<path d="M243.304,163.923L240.444,179.516L228.099,170.455L243.304,163.923Z" fill="#FFFFFF"/>
</g>
<g opacity="0.2">
<path d="M248.97,155.029L253.528,166.71L262.994,153.829L248.97,155.029Z" fill="#FFFFFF"/>
</g>
</g>
<path d="M363.679,144.197C363.679,144.197 403.169,122.09 411.344,116.369C419.519,110.649 463.254,67.744 465.69,66.508C465.69,66.508 464.048,61.599 467.739,58.739C471.411,55.878 485.712,46.485 487.761,46.485C489.809,46.485 495.124,66.508 494.293,71.416C493.481,76.325 473.459,77.543 473.459,77.543C473.459,77.543 431.773,126.076 425.24,132.867C418.707,139.658 374.16,168.667 374.16,168.667L363.679,144.197Z" fill="#FFB27D"/>
<path d="M316.492,378.06C316.492,378.06 315.643,392.029 314.296,410.63C313.447,422.219 312.395,435.598 311.251,448.534C309.701,465.917 307.948,482.488 306.195,492.786C304.589,502.252 283.275,619.82 283.275,619.82L268.992,619.82C273.495,510.187 280.47,467.67 280.729,461.285C280.821,459.2 280.895,456.303 280.987,452.852C281.264,440.34 281.504,420.577 281.651,406.201C281.762,395.83 281.817,388.283 281.817,388.283L316.492,378.06Z" fill="#FFB27D"/>
<path d="M371.614,466.767C371.116,476.344 365.414,619.341 365.414,619.341L349.71,619.341C341.682,505.445 344.727,465.899 343.288,458.001C343.288,457.964 343.269,457.946 343.269,457.909C340.815,444.475 338.508,426.815 336.921,413.713C335.648,403.176 334.854,395.591 334.854,395.591L366.871,381.751C366.871,381.751 368.809,398.285 370.267,418.252C370.986,428.217 371.614,439.049 371.798,449.125C371.928,455.436 371.891,461.452 371.614,466.767Z" fill="#FFB27D"/>
<g opacity="0.2">
<path d="M281.652,406.201L314.296,410.63C313.447,422.219 312.395,435.598 311.251,448.534L280.987,452.852C281.264,440.34 281.504,420.577 281.652,406.201Z" fill="#000000"/>
</g>
<g opacity="0.2">
<path d="M371.798,449.124L343.269,457.908C340.815,444.474 338.508,426.814 336.921,413.712L370.266,418.251C370.986,428.216 371.614,439.049 371.798,449.124Z" fill="#000000"/>
</g>
<path d="M286.653,615.428L267.812,615.428C267.184,615.428 266.631,615.871 266.483,616.499L263.42,630.302C263.162,631.538 263.955,632.756 265.191,633.015C265.358,633.052 265.524,633.07 265.69,633.07C271.779,632.978 276.227,632.59 283.885,632.59C288.59,632.59 302.818,633.089 309.332,633.089C315.846,633.089 316.695,626.667 314.02,626.058C302.062,623.456 293.075,619.839 289.236,616.406C288.554,615.761 287.612,615.41 286.653,615.428Z" fill="#01008A"/>
<path d="M366.557,614.93L347.716,614.93C347.089,614.93 346.535,615.373 346.387,616.001L343.324,629.804C343.066,631.04 343.859,632.258 345.096,632.517C345.262,632.554 345.428,632.572 345.594,632.572C351.684,632.48 356.131,632.092 363.789,632.092C368.495,632.092 382.723,632.59 389.237,632.59C395.751,632.59 396.6,626.169 393.924,625.56C381.966,622.958 372.979,619.341 369.141,615.908C368.439,615.263 367.517,614.912 366.557,614.93Z" fill="#01008A"/>
<path d="M317.785,440.469C317.932,439.214 318.08,437.885 318.228,436.428C320.147,417.531 322.103,394.852 323.838,372.984C330.222,390.128 332.954,414.21 336.275,440.469L375.046,440.469C371.854,372.486 363.439,317.217 358.973,293.634L276.67,293.634C276.578,302.086 275.637,384.056 273.515,440.469L317.785,440.469Z" fill="#525293"/>
<g opacity="0.2">
<path d="M317.785,440.469C317.932,439.214 318.08,437.885 318.228,436.428C320.147,417.531 322.103,394.852 323.838,372.984C330.222,390.128 332.954,414.21 336.275,440.469L375.046,440.469C371.854,372.486 363.439,317.217 358.973,293.634L276.67,293.634C276.578,302.086 275.637,384.056 273.515,440.469L317.785,440.469Z" fill="#FFFFFF"/>
</g>
<path d="M329.079,125.318C328.895,126.075 328.673,126.813 328.415,127.514C326.902,131.777 324.152,135.283 320.738,137.737C319.853,138.383 318.912,138.974 317.933,139.472C312.785,142.129 306.658,142.628 301.141,140.21C298.871,139.251 296.693,137.774 294.719,135.781C286.95,127.938 287.153,118.878 286.285,103.543C286.046,100.24 286.562,96.937 287.854,93.892C292.301,83.17 304.61,78.114 315.313,82.561C330.334,88.688 332.401,111.515 329.079,125.318Z" fill="#FFB27D"/>
<g opacity="0.2">
<path d="M320.739,137.738C319.854,138.384 318.912,138.974 317.934,139.472C312.786,142.13 306.659,142.628 301.142,140.21C302.212,137.239 303.891,135.007 303.891,135.007C303.891,135.007 313.026,133.604 320.739,137.738Z" fill="#000000"/>
</g>
<path d="M289.865,157.631C297.413,164.496 315.94,161.949 315.94,161.949C315.94,161.949 327.492,158.794 325.075,155.177C318.265,154.051 314.981,150.877 313.615,146.817C312.821,144.455 312.711,141.78 312.932,139.048C313.024,137.609 313.246,136.151 313.504,134.712L290.622,117.771C293.593,128.954 297.265,149.53 289.865,157.631Z" fill="#FFB27D"/>
<path d="M320.738,111.35L324.042,112.605L322.381,105.833C322.381,105.833 327.234,98.543 322.381,92.048C322.381,92.048 335.741,87.988 328.194,80.939C325.389,78.318 321.901,80.939 312.674,76.916C307.673,74.738 292.025,74.572 291.249,80.939C291.249,80.939 279.974,80.865 278.756,100.112C277.538,119.359 290.696,130.45 290.696,130.45C290.696,130.45 304.296,133.679 310.921,128.217C317.546,122.754 320.738,111.35 320.738,111.35Z" fill="#263238"/>
<path d="M312.027,112.456C312.95,115.796 314.777,118.251 317.139,119.266C320.258,120.594 322.306,116.184 321.863,111.571C321.439,107.492 319.316,101.735 315.976,102.491C312.618,103.266 310.938,108.323 312.027,112.456Z" fill="#FFB27D"/>
<g opacity="0.2">
<path d="M323.838,372.892C322.103,394.741 320.147,417.476 318.228,436.372C315.423,409.098 311.99,389.629 311.99,389.629C311.99,389.629 308.78,386.99 299.94,372.873C291.101,358.756 299.94,332.441 299.94,332.441C299.663,356.929 323.838,372.892 323.838,372.892Z" fill="#000000"/>
</g>
<path d="M377.814,437.259L376.117,443.681L334.854,443.681L334.854,437.757L377.814,437.259Z" fill="#01008A"/>
<path d="M319.776,438.163L318.559,444.068L271.816,444.068L268.992,438.163L319.776,438.163Z" fill="#01008A"/>
<path d="M325.535,153.184C325.535,153.184 318.818,142.573 301.896,141.798C284.974,141.041 283.683,152.704 283.683,152.704L325.535,153.184Z" fill="#01008A"/>
<g opacity="0.5">
<path d="M325.535,153.184C325.535,153.184 318.818,142.573 301.896,141.798C284.974,141.041 283.683,152.704 283.683,152.704L325.535,153.184Z" fill="#FFFFFF"/>
</g>
<path d="M264.768,146.634C264.768,146.634 273.496,225.449 262.996,319.23L362.147,313.177C361.021,211.978 347.477,148.258 347.477,148.258C347.477,148.258 321.9,153.609 301.121,152.834C281.56,152.115 264.768,146.634 264.768,146.634Z" fill="#01008A"/>
<path d="M347.475,148.257C347.475,148.257 360.725,179.222 362.146,210.556C363.585,241.909 308.317,284.868 308.317,284.868C308.317,284.868 265.744,255.564 232.897,258.221C200.049,260.879 189.826,272.56 189.826,272.56C189.826,272.56 215.384,217.919 259.858,198.875C259.858,198.875 250.631,167.411 264.766,146.614C264.766,146.633 295.51,156.616 347.475,148.257Z" fill="#0D0CDB"/>
<g opacity="0.6">
<path d="M362.144,210.555C362.181,211.422 362.181,212.308 362.126,213.212C362.052,214.559 361.886,215.925 361.627,217.291C361.092,220.335 360.114,223.454 358.804,226.591L358.804,226.61C355.409,234.711 349.799,242.96 343.524,250.618C340.387,254.456 337.066,258.147 333.781,261.579C320.845,275.161 308.333,284.886 308.333,284.886C308.333,284.886 292.574,274.035 272.847,266.156C269.064,264.642 265.134,263.222 261.129,262.022L261.111,262.022C251.699,259.199 241.937,257.501 232.914,258.239C221.38,259.18 212.633,261.21 206.137,263.48C204.643,263.997 203.259,264.55 201.985,265.085C201.598,265.251 201.21,265.418 200.841,265.584C197.28,267.171 194.696,268.739 192.943,269.994C192.666,270.179 192.408,270.382 192.168,270.566C191.688,270.917 191.301,271.23 190.969,271.526C190.802,271.655 190.655,271.784 190.526,271.913C190.396,272.005 190.304,272.116 190.212,272.208C190.12,272.301 190.046,272.375 189.991,272.43L189.861,272.559C189.898,272.467 190.083,272.079 190.415,271.415C190.563,271.138 190.729,270.788 190.932,270.4C191.448,269.367 192.168,267.983 193.109,266.303C193.238,266.063 193.368,265.824 193.515,265.565C193.737,265.159 193.976,264.735 194.235,264.292C194.475,263.849 194.733,263.388 195.01,262.926C196.08,261.044 197.335,258.94 198.756,256.671C204.79,247.001 213.814,234.342 225.514,222.827L225.532,222.808C229.131,219.247 232.951,215.833 237.047,212.64C243.967,207.215 251.589,202.435 259.856,198.892C259.856,198.892 256.571,187.691 256.94,174.22C256.996,171.655 257.199,168.998 257.586,166.34C258.546,159.549 260.686,152.648 264.765,146.632C264.765,146.632 269.581,148.2 278.605,149.566C283.55,150.323 289.751,151.005 297.114,151.356C307.355,151.854 319.848,151.67 334.353,150.046C338.56,149.584 342.934,148.994 347.474,148.256C347.474,148.256 347.621,148.606 347.898,149.289C349.042,152.113 352.345,160.564 355.482,171.821C356.294,174.755 357.106,177.892 357.881,181.177C358.583,184.222 359.247,187.396 359.837,190.662L359.837,190.681C360.982,197.084 361.83,203.801 362.144,210.555Z" fill="#FFFFFF"/>
</g>
<g opacity="0.2">
<g opacity="0.2">
<path d="M349.358,235.708L343.526,250.619C340.389,254.457 337.067,258.148 333.783,261.58L321.917,239.362L349.358,235.708Z" fill="#FFFFFF"/>
</g>
<g opacity="0.2">
<path d="M248.97,221.462L225.534,222.81C229.133,219.248 232.953,215.834 237.049,212.642L248.97,221.462Z" fill="#FFFFFF"/>
</g>
<g opacity="0.2">
<path d="M276.004,162.429L273.494,186.788L256.941,174.221C256.997,171.656 257.2,168.998 257.587,166.341L276.004,162.429Z" fill="#FFFFFF"/>
</g>
<g opacity="0.2">
<path d="M283.681,226.592L276.004,203.212L299.348,198.894L283.681,226.592Z" fill="#FFFFFF"/>
</g>
<g opacity="0.2">
<path d="M323.836,204.301L323.836,221.832L340.592,215.797L323.836,204.301Z" fill="#FFFFFF"/>
</g>
<g opacity="0.2">
<path d="M280.728,255.048L272.848,266.157C269.065,264.644 265.135,263.223 261.13,262.023L261.112,262.023L255.17,248.479L280.728,255.048Z" fill="#FFFFFF"/>
</g>
<g opacity="0.2">
<path d="M220.864,238.255L232.914,243.367L220.864,251.578L220.864,238.255Z" fill="#FFFFFF"/>
</g>
<g opacity="0.2">
<path d="M206.139,263.481C194.144,267.67 189.845,272.579 189.845,272.579C189.845,272.579 192.908,266.028 198.758,256.672L206.139,263.481Z" fill="#FFFFFF"/>
</g>
<g opacity="0.2">
<path d="M304.607,240.801L294.236,251.578L309.922,254.309L304.607,240.801Z" fill="#FFFFFF"/>
</g>
<g opacity="0.2">
<path d="M304.608,173.28L316.806,189.704L325.535,171.084L304.608,173.28Z" fill="#FFFFFF"/>
</g>
<g opacity="0.2">
<path d="M359.838,190.662L344.245,180.402L355.483,171.821C357.07,177.505 358.62,183.908 359.838,190.662Z" fill="#FFFFFF"/>
</g>
<g opacity="0.2">
<path d="M362.127,213.214C361.905,217.532 360.706,222.035 358.805,226.593L352.272,210.52L362.127,213.214Z" fill="#FFFFFF"/>
</g>
<g opacity="0.2">
<path d="M347.899,149.29L338.027,159.421L334.354,150.047C338.562,149.585 342.935,148.995 347.475,148.257C347.475,148.257 347.623,148.607 347.899,149.29Z" fill="#FFFFFF"/>
</g>
<g opacity="0.2">
<path d="M297.116,151.356L289.864,166.71L278.607,149.566C283.553,150.323 289.753,151.006 297.116,151.356Z" fill="#FFFFFF"/>
</g>
</g>
<g opacity="0.2">
<path d="M362.146,210.556C362.183,211.423 362.183,212.309 362.128,213.213C362.054,214.56 361.888,215.926 361.629,217.291C348.749,196.808 351.775,178.28 351.775,178.28L357.883,181.177C358.584,184.222 359.249,187.396 359.839,190.663L359.839,190.681C360.983,197.084 361.832,203.802 362.146,210.556Z" fill="#010089"/>
</g>
<path d="M309.813,66.691C331.717,59.143 337.217,88.318 315.46,108.045C293.703,127.772 268.717,130.134 265.894,120.188C263.052,110.26 276.375,78.206 309.813,66.691Z" fill="#01008A"/>
<path d="M287.853,65.233C299.091,65.197 315.053,76.675 315.053,76.675C315.053,76.675 317.342,88.836 306.14,99.557C294.939,110.26 284.863,111.976 278.589,107.824C272.315,103.691 270.617,87.562 270.617,87.562C270.617,87.562 272.223,81.288 278.589,79.35C278.608,79.35 280.453,65.27 287.853,65.233Z" fill="#01008A"/>
<g opacity="0.2">
<path d="M306.159,99.557C294.958,110.26 284.882,111.958 278.608,107.824C277.574,107.142 276.67,106.145 275.877,104.946C271.817,98.838 270.636,87.562 270.636,87.562C281.339,100.406 293.74,87.138 295.456,78.133C296.415,73.021 295.105,68.463 292.596,65.787C299.959,67.374 308.06,72.098 312.23,74.774C314.002,75.9 315.072,76.675 315.072,76.675C315.072,76.675 317.36,88.854 306.159,99.557Z" fill="#000000"/>
</g>
<g opacity="0.6">
<path d="M306.158,99.556C294.957,110.259 284.881,111.956 278.607,107.823C277.574,107.14 276.669,106.143 275.876,104.944C287.096,108.284 300.456,102.73 307.635,92.746C312.34,86.195 312.857,79.644 312.23,74.772C314.001,75.898 315.071,76.673 315.071,76.673C315.071,76.673 317.36,88.853 306.158,99.556Z" fill="#FFFFFF"/>
</g>
<path d="M347.475,148.257C347.475,148.257 338.82,165.751 359.839,193.486L406.176,159.421L387.686,125.928L347.475,148.257Z" fill="#0D0CDB"/>
<g opacity="0.6">
<path d="M406.177,159.42L394.09,168.296L376.209,181.454L359.84,193.485C358.77,192.083 357.792,190.699 356.869,189.352C354.839,186.362 353.16,183.502 351.776,180.789C347.052,171.563 345.742,163.997 345.705,158.497C345.668,151.891 347.476,148.256 347.476,148.256L357.773,142.535L375.507,132.699L383.295,128.363L387.687,125.927L406.177,159.42Z" fill="#FFFFFF"/>
</g>
<g opacity="0.2">
<g opacity="0.2">
<path d="M394.09,168.296L376.209,181.454L368.329,163.923L394.09,168.296Z" fill="#FFFFFF"/>
</g>
<g opacity="0.2">
<path d="M392.43,140.1L375.932,146.632L375.508,132.7L383.295,128.363L392.43,140.1Z" fill="#FFFFFF"/>
</g>
<g opacity="0.2">
<path d="M363.679,153.831L345.706,158.499C345.669,151.893 347.477,148.258 347.477,148.258L357.774,142.537L363.679,153.831Z" fill="#FFFFFF"/>
</g>
<g opacity="0.2">
<path d="M359.842,176.215L356.871,189.354C354.841,186.364 353.161,183.504 351.777,180.791L359.842,176.215Z" fill="#FFFFFF"/>
</g>
</g>
<path d="M452.752,344.547L452.752,341.779L449.984,341.779L449.984,344.547L452.752,344.547ZM475.875,344.547L478.643,344.547L478.643,341.779L475.875,341.779L475.875,344.547ZM475.875,459.531L475.875,462.299L478.643,462.299L478.643,459.531L475.875,459.531ZM452.752,459.531L449.984,459.531L449.984,462.299L452.752,462.299L452.752,459.531ZM452.752,347.315L475.875,347.315L475.875,341.779L452.752,341.779L452.752,347.315ZM473.107,344.547L473.107,459.531L478.643,459.531L478.643,344.547L473.107,344.547ZM475.875,456.763L452.752,456.763L452.752,462.299L475.875,462.299L475.875,456.763ZM455.52,459.531L455.52,344.547L449.984,344.547L449.984,459.531L455.52,459.531Z" transform="rotate(-351.041 464.313 402.039)" fill="#525293"/>
<path d="M454.195,618.121C454.823,618.177 457.222,618.361 457.868,618.416C461.983,618.73 465.083,622.199 464.751,626.333C464.437,630.448 460.839,633.401 456.723,633.069C456.096,633.013 453.697,632.829 453.051,632.773C448.936,632.46 445.836,628.99 446.168,624.857C446.482,620.742 450.08,617.789 454.195,618.121Z" fill="#525293"/>
<g opacity="0.1">
<path d="M446.168,624.727C445.854,628.842 448.917,632.441 453.051,632.773C457.166,633.086 460.764,630.023 461.097,625.889C461.429,621.774 458.347,618.176 454.213,617.844C450.08,617.512 446.5,620.612 446.168,624.727Z" fill="#FFFFFF"/>
</g>
<path d="M434.044,616.536C434.671,616.591 437.07,616.776 437.716,616.831C441.831,617.145 444.932,620.614 444.599,624.747C444.286,628.863 440.687,631.815 436.572,631.483C435.945,631.428 433.546,631.243 432.9,631.188C428.785,630.874 425.684,627.405 426.017,623.271C426.33,619.156 429.929,616.222 434.044,616.536Z" fill="#525293"/>
<g opacity="0.2">
<path d="M426.017,623.141C425.703,627.256 428.767,630.854 432.9,631.186C437.016,631.5 440.614,628.437 440.946,624.303C441.26,620.188 438.197,616.589 434.063,616.257C429.948,615.944 426.349,619.025 426.017,623.141Z" fill="#FFFFFF"/>
</g>
<path d="M430.685,618.749L459.233,620.982C461.964,621.203 464.363,619.155 464.584,616.405L478.185,442.886C478.406,440.155 476.358,437.756 473.608,437.534L445.06,435.302C442.329,435.08 439.93,437.128 439.709,439.878L426.109,613.397C425.906,616.147 427.954,618.546 430.685,618.749Z" fill="#525293"/>
<g opacity="0.2">
<path d="M444.932,619.875L459.234,621C461.965,621.222 464.364,619.173 464.585,616.424L478.186,442.905C478.407,440.174 476.359,437.775 473.609,437.553L459.308,436.428C456.576,436.206 454.178,438.254 453.956,441.004L440.356,614.523C440.153,617.273 442.183,619.653 444.932,619.875Z" fill="#FFFFFF"/>
</g>
<path d="M456.705,347.222L480.713,349.105C482.743,349.271 484.515,347.739 484.681,345.709L484.865,343.458C485.031,341.428 483.5,339.656 481.47,339.49L457.462,337.608C455.432,337.442 453.66,338.974 453.494,341.003L453.31,343.255C453.162,345.285 454.675,347.056 456.705,347.222Z" fill="#525293"/>
<g opacity="0.2">
<path d="M456.705,347.222L480.713,349.105C482.743,349.271 484.515,347.739 484.681,345.709L484.865,343.458C485.031,341.428 483.5,339.656 481.47,339.49L457.462,337.608C455.432,337.442 453.66,338.974 453.494,341.003L453.31,343.255C453.162,345.285 454.675,347.056 456.705,347.222Z" fill="#FFFFFF"/>
</g>
<g opacity="0.2">
<path d="M456.705,347.222L458.717,347.388C460.747,347.555 462.518,346.023 462.684,343.993L462.869,341.742C463.035,339.712 461.503,337.94 459.473,337.774L457.462,337.608C455.432,337.442 453.66,338.974 453.494,341.003L453.31,343.255C453.162,345.285 454.675,347.056 456.705,347.222Z" fill="#000000"/>
</g>
<path d="M531.276,455.915L518.986,612.696C518.543,618.454 513.486,622.772 507.729,622.329L450.449,617.845C446.408,617.531 443.381,613.97 443.713,609.928L456.483,446.946C456.797,442.886 460.34,439.86 464.381,440.174L521.661,444.658C527.4,445.101 531.719,450.157 531.276,455.915Z" fill="#01008A"/>
<g opacity="0.2">
<path d="M531.276,455.915L518.986,612.696C518.543,618.454 513.486,622.772 507.729,622.329L450.449,617.845C446.408,617.531 443.381,613.97 443.713,609.928L456.483,446.946C456.797,442.886 460.34,439.86 464.381,440.174L521.661,444.658C527.4,445.101 531.719,450.157 531.276,455.915Z" fill="#FFFFFF"/>
</g>
<g opacity="0.2">
<path d="M491.934,442.333L491.915,442.554L489.867,442.388C485.826,442.075 482.301,445.101 481.969,449.161L469.199,612.18C468.941,615.612 471.1,618.675 474.237,619.709L450.45,617.845C446.427,617.531 443.382,613.97 443.696,609.947L456.466,446.946C456.798,442.868 460.323,439.86 464.364,440.174L491.934,442.333Z" fill="#000000"/>
</g>
<g opacity="0.2">
<path d="M478.628,611.864L477.779,611.79C476.672,611.698 475.841,610.738 475.934,609.631L488.445,449.805C488.538,448.697 489.497,447.867 490.604,447.959L491.453,448.033C492.56,448.125 493.391,449.085 493.299,450.192L480.787,610.019C480.695,611.126 479.735,611.956 478.628,611.864Z" fill="#000000"/>
</g>
<g opacity="0.2">
<path d="M490.069,613.562L489.221,613.488C488.113,613.396 487.283,612.437 487.375,611.329L499.887,451.503C499.979,450.396 500.939,449.565 502.046,449.657L502.895,449.731C504.002,449.823 504.832,450.783 504.74,451.89L492.228,611.717C492.136,612.824 491.177,613.654 490.069,613.562Z" fill="#000000"/>
</g>
<g opacity="0.2">
<path d="M501.511,614.245L500.662,614.171C499.555,614.079 498.724,613.119 498.817,612.012L511.328,452.185C511.42,451.078 512.38,450.248 513.487,450.34L514.336,450.414C515.443,450.506 516.274,451.466 516.181,452.573L503.67,612.399C503.596,613.507 502.618,614.319 501.511,614.245Z" fill="#000000"/>
</g>
<g opacity="0.2">
<path d="M512.97,614.91L512.121,614.836C511.014,614.744 510.183,613.784 510.276,612.677L522.787,452.85C522.879,451.743 523.839,450.913 524.946,451.005L525.795,451.079C526.902,451.171 527.733,452.131 527.64,453.238L515.129,613.064C515.037,614.172 514.077,615.002 512.97,614.91Z" fill="#000000"/>
</g>
</svg>
