<svg width="68" height="78" viewBox="0 0 68 78" fill="none" xmlns="http://www.w3.org/2000/svg" xmlns:xlink="http://www.w3.org/1999/xlink">
<path d="M34.166,67.439C52.682,67.439 67.692,52.428 67.692,33.913C67.692,15.397 52.682,0.387 34.166,0.387C15.651,0.387 0.641,15.397 0.641,33.913C0.641,52.428 15.651,67.439 34.166,67.439Z" fill="#F6EBFF"/>
<path d="M10.557,70.371C10.138,68.695 9.999,67.018 10.138,65.342C10.418,63.805 13.351,56.262 13.91,55.145C14.469,54.027 15.866,48.858 17.263,48.439C18.659,48.02 18.939,48.579 18.799,49.417C18.659,50.255 17.961,60.173 17.961,60.173L31.092,56.262C31.092,56.262 41.848,53.608 42.128,54.865C45.061,57.659 34.584,61.151 31.651,61.012C31.651,61.012 33.187,61.85 32.908,62.828C32.629,63.805 31.791,64.504 31.511,64.504C31.232,64.504 32.21,65.202 32.349,66.46C33.606,68.974 28.438,69.672 28.438,69.672C30.254,69.393 33.048,72.606 28.578,73.444C27.181,73.863 21.872,75.4 21.872,75.4C21.872,75.4 17.263,77.076 14.608,75.26C12.932,74.142 11.396,72.466 10.557,70.371Z" fill="#F6EBFF"/>
<path d="M23.848,44.124C23.084,44.347 22.646,45.147 22.868,45.911C23.091,46.675 23.891,47.114 24.655,46.891L23.848,44.124ZM43.101,49.607C43.744,50.075 44.646,49.932 45.114,49.289C45.582,48.645 45.44,47.744 44.796,47.276L43.101,49.607ZM24.655,46.891C25.253,46.717 26.507,46.625 28.267,46.68C29.97,46.732 31.986,46.914 34.005,47.197C36.026,47.479 38.019,47.858 39.678,48.296C41.398,48.75 42.57,49.22 43.101,49.607L44.796,47.276C43.791,46.544 42.151,45.967 40.413,45.509C38.616,45.034 36.505,44.636 34.405,44.342C32.303,44.048 30.181,43.855 28.356,43.799C26.59,43.744 24.927,43.81 23.848,44.124L24.655,46.891Z" fill="#B047FF"/>
<path d="M14.35,13.59C13.695,14.043 13.532,14.941 13.985,15.595C14.438,16.25 15.336,16.413 15.99,15.96L14.35,13.59ZM21.316,13.238L21.138,14.668C21.197,14.676 21.257,14.68 21.316,14.68L21.316,13.238ZM26.164,16.632C26.727,17.195 27.64,17.195 28.202,16.632C28.765,16.069 28.765,15.157 28.202,14.594L26.164,16.632ZM15.99,15.96C17.529,14.895 19.271,14.435 21.138,14.668L21.495,11.808C18.891,11.483 16.443,12.141 14.35,13.59L15.99,15.96ZM21.316,14.68C23.188,14.68 24.911,15.379 26.164,16.632L28.202,14.594C26.382,12.774 23.914,11.797 21.316,11.797L21.316,14.68Z" fill="#B047FF"/>
<path d="M54.898,21.758C55.668,21.958 56.455,21.496 56.654,20.725C56.854,19.955 56.391,19.168 55.621,18.968L54.898,21.758ZM43.542,18.527C42.76,18.672 42.243,19.424 42.388,20.207C42.533,20.989 43.284,21.506 44.067,21.361L43.542,18.527ZM55.621,18.968C51.647,17.938 47.523,17.79 43.542,18.527L44.067,21.361C47.63,20.702 51.328,20.833 54.898,21.758L55.621,18.968Z" fill="#B047FF"/>
<path d="M42.176,63.538C41.407,63.744 40.951,64.534 41.158,65.303C41.364,66.072 42.154,66.528 42.923,66.322L42.176,63.538ZM25.786,2.907L25.413,1.515L25.411,1.516L25.786,2.907ZM6.437,52.892C6.887,53.549 7.784,53.717 8.441,53.267C9.097,52.818 9.266,51.921 8.816,51.264L6.437,52.892ZM42.923,66.322C60.88,61.504 71.386,43.107 66.571,25.163L63.787,25.91C68.193,42.33 58.583,59.136 42.176,63.538L42.923,66.322ZM66.571,25.163C61.753,7.206 43.357,-3.299 25.413,1.515L26.16,4.299C42.58,-0.107 59.386,9.504 63.787,25.91L66.571,25.163ZM25.411,1.516C10.814,5.457 0.598,18.738 0.598,33.918L3.48,33.918C3.48,20.043 12.82,7.9 26.162,4.298L25.411,1.516ZM0.598,33.918C0.598,40.63 2.639,47.34 6.437,52.892L8.816,51.264C5.351,46.2 3.48,40.058 3.48,33.918L0.598,33.918Z" fill="#B047FF"/>
<path d="M27.184,26.23C27.184,28.605 25.368,30.421 22.993,30.421C20.619,30.421 18.803,28.605 18.803,26.23C18.803,23.855 20.619,22.039 22.993,22.039C25.368,22.039 27.184,23.855 27.184,26.23Z" fill="#B047FF"/>
<path d="M50.928,30.421C50.928,32.796 49.112,34.612 46.738,34.612C44.363,34.612 42.547,32.796 42.547,30.421C42.547,28.046 44.363,26.23 46.738,26.23C49.112,26.23 50.928,28.046 50.928,30.421Z" fill="#B047FF"/>
<path d="M11.396,62.549L12.619,63.313C12.66,63.247 12.696,63.177 12.726,63.104L11.396,62.549ZM10.698,70.232L12.065,69.776C12.058,69.754 12.05,69.732 12.041,69.71L10.698,70.232ZM20.756,76.099L20.36,74.714C20.349,74.717 20.337,74.72 20.326,74.724L20.756,76.099ZM27.601,74.144L27.997,75.529L28.015,75.524L27.601,74.144ZM28.998,73.724L28.648,72.326C28.626,72.332 28.605,72.338 28.583,72.344L28.998,73.724ZM30.534,71.21L31.92,70.814C31.906,70.767 31.891,70.72 31.872,70.675L30.534,71.21ZM28.858,69.813L28.508,68.415C27.846,68.581 27.391,69.188 27.418,69.871C27.445,70.553 27.947,71.122 28.621,71.235L28.858,69.813ZM30.534,69.394L30.185,67.996L30.185,67.996L30.534,69.394ZM32.071,66.88L33.457,66.484C33.443,66.436 33.427,66.39 33.409,66.344L32.071,66.88ZM30.395,65.343L29.939,63.976C29.311,64.185 28.906,64.796 28.958,65.456C29.01,66.116 29.504,66.656 30.158,66.765L30.395,65.343ZM32.071,64.784L31.721,63.386C31.686,63.395 31.65,63.405 31.615,63.417L32.071,64.784ZM33.607,62.27L32.194,62.552C32.202,62.591 32.211,62.628 32.222,62.666L33.607,62.27ZM32.211,60.873L31.8,59.491C31.165,59.68 30.741,60.277 30.771,60.939C30.801,61.6 31.278,62.156 31.928,62.286L32.211,60.873ZM41.151,58.219L40.801,56.821C40.781,56.826 40.761,56.831 40.741,56.837L41.151,58.219ZM40.173,54.168L39.777,52.782L39.766,52.785L40.173,54.168ZM25.924,58.358L26.331,59.741L26.331,59.741L25.924,58.358ZM18.8,60.454L17.363,60.343C17.327,60.816 17.525,61.276 17.893,61.574C18.261,61.872 18.752,61.97 19.207,61.836L18.8,60.454ZM19.638,49.558L18.206,49.399C18.204,49.415 18.203,49.431 18.201,49.447L19.638,49.558ZM16.705,49.837L15.38,49.27L15.375,49.282L16.705,49.837ZM10.174,61.785C8.534,64.41 8.214,67.82 9.355,70.755L12.041,69.71C11.227,67.615 11.465,65.159 12.619,63.313L10.174,61.785ZM9.331,70.688C11.054,75.857 15.792,79.16 21.186,77.475L20.326,74.724C16.779,75.832 13.415,73.827 12.065,69.776L9.331,70.688ZM21.152,77.485L27.997,75.529L27.205,72.758L20.36,74.714L21.152,77.485ZM28.015,75.524L29.412,75.105L28.583,72.344L27.187,72.763L28.015,75.524ZM29.347,75.123C30.334,74.876 31.085,74.214 31.53,73.464C31.968,72.723 32.189,71.757 31.92,70.814L29.149,71.606C29.158,71.641 29.17,71.792 29.05,71.994C28.936,72.187 28.778,72.294 28.648,72.326L29.347,75.123ZM31.872,70.675C31.441,69.596 30.516,68.628 29.095,68.392L28.621,71.235C28.876,71.277 29.069,71.427 29.196,71.745L31.872,70.675ZM29.207,71.211L30.884,70.792L30.185,67.996L28.508,68.415L29.207,71.211ZM30.884,70.792C31.871,70.545 32.622,69.884 33.066,69.133C33.505,68.393 33.726,67.427 33.457,66.484L30.685,67.276C30.695,67.31 30.707,67.462 30.587,67.664C30.473,67.857 30.315,67.963 30.185,67.996L30.884,70.792ZM33.409,66.344C33.039,65.419 32.178,64.179 30.631,63.921L30.158,66.765C30.228,66.776 30.315,66.813 30.423,66.921C30.539,67.036 30.651,67.209 30.733,67.415L33.409,66.344ZM30.85,66.71L32.527,66.151L31.615,63.417L29.939,63.976L30.85,66.71ZM32.42,66.182C33.408,65.936 34.158,65.274 34.603,64.524C35.042,63.783 35.263,62.817 34.993,61.874L32.222,62.666C32.232,62.7 32.243,62.852 32.123,63.054C32.009,63.247 31.852,63.354 31.721,63.386L32.42,66.182ZM35.021,61.987C34.767,60.718 33.762,59.714 32.493,59.46L31.928,62.286C32.056,62.312 32.169,62.424 32.194,62.552L35.021,61.987ZM32.621,62.254L41.561,59.6L40.741,56.837L31.8,59.491L32.621,62.254ZM41.5,59.617C42.488,59.37 43.238,58.709 43.683,57.958C44.122,57.218 44.343,56.252 44.073,55.308L41.302,56.1C41.312,56.135 41.323,56.286 41.203,56.489C41.089,56.681 40.932,56.788 40.801,56.821L41.5,59.617ZM44.073,55.308C43.815,54.403 43.159,53.685 42.46,53.245C41.766,52.808 40.782,52.495 39.777,52.782L40.569,55.553C40.542,55.561 40.675,55.527 40.924,55.684C41.032,55.752 41.127,55.837 41.197,55.922C41.268,56.01 41.294,56.074 41.302,56.1L44.073,55.308ZM39.766,52.785L25.518,56.976L26.331,59.741L40.58,55.55L39.766,52.785ZM25.518,56.976L18.393,59.071L19.207,61.836L26.331,59.741L25.518,56.976ZM20.237,60.564L21.075,49.668L18.201,49.447L17.363,60.343L20.237,60.564ZM21.071,49.717C21.158,48.927 20.858,48.216 20.329,47.732C19.829,47.276 19.186,47.069 18.577,47.052C17.302,47.018 16.016,47.786 15.38,49.27L18.029,50.405C18.138,50.152 18.261,50.041 18.334,49.992C18.413,49.939 18.475,49.933 18.499,49.933C18.536,49.934 18.478,49.946 18.384,49.86C18.334,49.814 18.279,49.743 18.242,49.648C18.205,49.55 18.199,49.461 18.206,49.399L21.071,49.717ZM15.375,49.282L10.067,61.994L12.726,63.104L18.035,50.393L15.375,49.282Z" fill="#B047FF"/>
</svg>
