<svg width="126" height="86" viewBox="0 0 126 86" fill="none" xmlns="http://www.w3.org/2000/svg" xmlns:xlink="http://www.w3.org/1999/xlink">
<path d="M63.354,55.901C62.733,55.901 62.111,55.682 61.6,55.28L1.849,5.944C0.679,4.994 0.533,3.24 1.483,2.07C2.47,0.901 4.187,0.755 5.357,1.705L63.317,49.579L119.779,0.462C120.912,-0.524 122.666,-0.415 123.653,0.718C124.64,1.851 124.53,3.605 123.397,4.592L65.181,55.243C64.633,55.645 63.975,55.901 63.354,55.901Z" fill="#DADAFF"/>
<path d="M3.601,85.246C2.906,85.246 2.248,84.991 1.7,84.479C0.604,83.419 0.567,81.702 1.591,80.605L43.361,36.678C44.385,35.582 46.139,35.545 47.235,36.569C48.332,37.628 48.368,39.346 47.345,40.442L5.574,84.369C5.062,84.954 4.331,85.246 3.601,85.246Z" fill="#DADAFF"/>
<path d="M121.573,83.639C120.879,83.639 120.185,83.383 119.636,82.835L78.012,41.101C76.952,40.041 76.952,38.287 78.012,37.227C79.071,36.167 80.826,36.167 81.885,37.227L123.51,78.961C124.57,80.021 124.57,81.775 123.51,82.835C122.962,83.383 122.268,83.639 121.573,83.639Z" fill="#DADAFF"/>
</svg>
