<svg width="34" height="18" viewBox="0 0 34 18" fill="none" xmlns="http://www.w3.org/2000/svg" xmlns:xlink="http://www.w3.org/1999/xlink">
<path d="M33.202,8.334C32.896,8 25.568,0 16.39,0C7.212,0 -0.118,8 -0.422,8.334C-0.586,8.517 -0.677,8.755 -0.677,9.001C-0.677,9.247 -0.586,9.485 -0.422,9.668C-0.118,10 7.212,18 16.39,18C25.568,18 32.898,10 33.202,9.668C33.366,9.485 33.457,9.247 33.457,9.001C33.457,8.755 33.366,8.517 33.202,8.334L33.202,8.334ZM16.39,16C15.006,16 13.652,15.589 12.501,14.82C11.35,14.051 10.453,12.958 9.923,11.679C9.393,10.4 9.255,8.992 9.525,7.634C9.795,6.276 10.461,5.029 11.44,4.05C12.419,3.071 13.667,2.405 15.025,2.135C16.382,1.864 17.79,2.003 19.069,2.533C20.348,3.063 21.441,3.96 22.21,5.111C22.98,6.262 23.39,7.616 23.39,9C23.39,10.857 22.653,12.637 21.34,13.95C20.027,15.263 18.247,16 16.39,16L16.39,16Z" fill="#B5B5B5"/>
<path d="M17.391,7C17.392,6.523 17.507,6.053 17.726,5.63C17.945,5.206 18.262,4.841 18.651,4.564C17.953,4.198 17.178,4.005 16.391,4C15.437,3.997 14.503,4.267 13.697,4.778C12.892,5.289 12.25,6.019 11.846,6.883C11.443,7.747 11.294,8.708 11.419,9.654C11.543,10.599 11.936,11.489 12.55,12.219C13.163,12.948 13.973,13.487 14.883,13.772C15.793,14.057 16.766,14.075 17.686,13.825C18.606,13.576 19.436,13.068 20.077,12.362C20.718,11.656 21.144,10.782 21.305,9.842C20.856,9.99 20.379,10.029 19.912,9.956C19.445,9.883 19.003,9.7 18.62,9.422C18.238,9.145 17.927,8.781 17.714,8.359C17.5,7.938 17.389,7.472 17.391,7L17.391,7Z" fill="#B5B5B5"/>
</svg>
