<svg width="40" height="40" viewBox="0 0 40 40" fill="none" xmlns="http://www.w3.org/2000/svg" xmlns:xlink="http://www.w3.org/1999/xlink">
<path d="M15.173,21.117C14.696,21.594 14.696,22.368 15.173,22.845C15.65,23.323 16.424,23.323 16.901,22.845L15.173,21.117ZM34.824,4.923C35.301,4.445 35.301,3.672 34.824,3.195C34.347,2.717 33.573,2.717 33.096,3.195L34.824,4.923ZM16.901,22.845L34.824,4.923L33.096,3.195L15.173,21.117L16.901,22.845Z" fill="#707070"/>
<path d="M33.96,4.059L35.11,4.474C35.271,4.028 35.159,3.53 34.824,3.195C34.489,2.859 33.991,2.748 33.545,2.909L33.96,4.059ZM23.37,33.387L24.481,33.896C24.495,33.865 24.507,33.834 24.519,33.802L23.37,33.387ZM22.555,33.91L22.555,35.132L22.555,33.91ZM21.74,33.387L22.851,32.878C22.845,32.865 22.839,32.853 22.833,32.84L21.74,33.387ZM16.038,21.981L17.131,21.435C17.012,21.198 16.821,21.007 16.584,20.888L16.038,21.981ZM4.632,16.279L5.179,15.186C5.166,15.179 5.154,15.173 5.141,15.168L4.632,16.279ZM4.109,15.464L5.331,15.464L4.109,15.464ZM4.632,14.649L4.217,13.5C4.185,13.511 4.154,13.524 4.123,13.538L4.632,14.649ZM32.811,3.644L22.22,32.972L24.519,33.802L35.11,4.474L32.811,3.644ZM22.259,32.878C22.285,32.821 22.326,32.773 22.379,32.739L23.699,34.796C24.04,34.577 24.312,34.265 24.481,33.896L22.259,32.878ZM22.379,32.739C22.431,32.705 22.493,32.688 22.555,32.688L22.555,35.132C22.961,35.132 23.358,35.015 23.699,34.796L22.379,32.739ZM22.555,32.688C22.617,32.688 22.678,32.705 22.731,32.739L21.411,34.796C21.752,35.015 22.149,35.132 22.555,35.132L22.555,32.688ZM22.731,32.739C22.783,32.773 22.825,32.821 22.851,32.878L20.629,33.896C20.798,34.265 21.07,34.577 21.411,34.796L22.731,32.739ZM22.833,32.84L17.131,21.435L14.945,22.528L20.647,33.933L22.833,32.84ZM16.584,20.888L5.179,15.186L4.086,17.372L15.491,23.074L16.584,20.888ZM5.141,15.168C5.198,15.194 5.246,15.235 5.28,15.288L3.223,16.608C3.442,16.949 3.754,17.221 4.123,17.39L5.141,15.168ZM5.28,15.288C5.313,15.34 5.331,15.402 5.331,15.464L2.887,15.464C2.887,15.87 3.004,16.267 3.223,16.608L5.28,15.288ZM5.331,15.464C5.331,15.526 5.313,15.587 5.28,15.64L3.223,14.32C3.004,14.661 2.887,15.058 2.887,15.464L5.331,15.464ZM5.28,15.64C5.246,15.692 5.198,15.734 5.141,15.76L4.123,13.538C3.754,13.707 3.442,13.979 3.223,14.32L5.28,15.64ZM5.047,15.799L34.375,5.208L33.545,2.909L4.217,13.5L5.047,15.799Z" fill="#707070"/>
</svg>
