<svg width="200" height="164" viewBox="0 0 200 164" fill="none" xmlns="http://www.w3.org/2000/svg" xmlns:xlink="http://www.w3.org/1999/xlink">
<path d="M181.586,116.98L18.522,116.98C8.436,116.98 0.25,108.794 0.25,98.708L0.25,17.286C0.25,7.199 8.436,-0.987 18.522,-0.987L181.586,-0.987C191.672,-0.987 199.859,7.199 199.859,17.286L199.859,98.708C199.859,108.794 191.709,116.98 181.586,116.98Z" fill="#8584FF"/>
<path d="M100.052,163.1L125.926,101.851L74.215,101.851L100.052,163.1Z" fill="#8584FF"/>
<path d="M99.984,40.368L140.257,40.368L140.257,46.265L159.999,34.849L140.257,23.464L140.257,29.361L99.984,29.361L99.984,40.368Z" fill="#D5D5FF"/>
<path d="M160.001,63.518L119.729,63.518L119.729,57.62L99.986,69.005L119.729,80.39L119.729,74.492L160.001,74.492L160.001,63.518Z" fill="#FFFFFF"/>
<path d="M75.26,73.893L73.336,74.587C73.336,74.587 67.344,67.775 64.254,60.332C61.163,52.889 61.037,43.838 61.037,43.838L62.425,43.239L53.91,22.866C52.396,24.065 50.945,25.578 49.778,27.565C44.953,35.702 45.426,48.222 50.283,60.427C55.14,72.632 60.312,83.544 69.773,90.387C75.355,94.424 80.148,95.149 83.87,94.55L75.26,73.893Z" fill="#FFFFFF"/>
<path d="M81.344,71.496L78.695,72.474L87.4,93.351C88.377,93.036 89.26,92.626 90.049,92.216C92.288,90.986 93.297,88.274 92.351,85.877L87.809,74.397C86.8,71.811 83.93,70.55 81.344,71.496Z" fill="#FFFFFF"/>
<path d="M60.594,19.271C59.521,19.649 58.354,20.185 57.188,20.879L65.892,41.694L68.825,40.464C71.379,39.391 72.578,36.522 71.6,33.936L67.027,22.204C65.986,19.649 63.148,18.356 60.594,19.271Z" fill="#FFFFFF"/>
</svg>
