<svg width="1124" height="672" viewBox="0 0 1124 672" fill="none" xmlns="http://www.w3.org/2000/svg" xmlns:xlink="http://www.w3.org/1999/xlink">
<mask id="mask_0_157_309" style="mask-type:alpha" maskUnits="userSpaceOnUse" x="113.204102" y="513.043945" width="103.744881" height="31.468044">
<path d="M304.259,575.98L129.64,575.98C120.558,575.98 113.204,568.628 113.204,559.551L113.204,529.473C113.204,520.396 120.558,513.044 129.64,513.044L304.259,513.044C313.34,513.044 320.694,520.396 320.694,529.473L320.694,559.551C320.694,568.628 313.34,575.98 304.259,575.98Z" fill="#F2A62F"/>
</mask>
<path d="M626.412,617.82L481.371,617.82L481.371,653.3L626.412,653.3L626.412,617.82Z" fill="#010054"/>
<path d="M653.784,671.805L454,671.805C448.884,671.805 444.728,667.65 444.728,662.536C444.728,657.422 448.884,653.267 454,653.267L653.784,653.267C658.9,653.267 663.058,657.422 663.058,662.536C663.058,667.682 658.9,671.805 653.784,671.805Z" fill="#0D0CBE"/>
<path d="M880.171,209.614C880.171,198.075 870.803,188.71 859.259,188.71L248.525,188.71C236.982,188.71 227.613,198.075 227.613,209.614L227.613,562.97L880.203,562.97L880.203,209.614L880.171,209.614Z" fill="#010054"/>
<path d="M852.162,218.629L255.592,218.629L255.592,535.707L852.162,535.707L852.162,218.629Z" fill="#D8DCFF"/>
<path d="M248.524,621.464L859.258,621.464C870.802,621.464 880.17,612.099 880.17,600.56L880.17,563.003L227.612,563.003L227.612,600.56C227.612,612.099 236.981,621.464 248.524,621.464Z" fill="#FFFFFF"/>
<path d="M566.298,592.218C566.298,599.058 560.735,604.62 553.892,604.62C547.049,604.62 541.485,599.058 541.485,592.218C541.485,585.378 547.049,579.816 553.892,579.816C560.735,579.816 566.298,585.378 566.298,592.218Z" fill="#010054"/>
<g opacity="0.57">
<g opacity="0.57">
<path d="M421.256,218.63L285.072,535.74L333.259,535.74L470.978,218.63L421.256,218.63Z" fill="#EDEFFF"/>
</g>
<g opacity="0.57">
<path d="M768.735,218.628L632.551,535.738L680.738,535.738L818.425,218.628L768.735,218.628Z" fill="#EDEFFF"/>
</g>
<g opacity="0.57">
<path d="M532.436,218.628L396.22,535.738L538.895,535.738L676.582,218.628L532.436,218.628Z" fill="#EDEFFF"/>
</g>
</g>
<path d="M551.269,284.825L298.087,284.825L298.087,464.108L551.269,464.108L551.269,284.825Z" fill="#FFFFFF"/>
<path d="M298.087,284.825L298.087,281.646C296.331,281.646 294.908,283.069 294.908,284.825L298.087,284.825ZM551.269,284.825L554.449,284.825C554.449,283.069 553.025,281.646 551.269,281.646L551.269,284.825ZM551.269,464.108L551.269,467.287C553.025,467.287 554.449,465.864 554.449,464.108L551.269,464.108ZM298.087,464.108L294.908,464.108C294.908,465.864 296.331,467.287 298.087,467.287L298.087,464.108ZM298.087,288.004L551.269,288.004L551.269,281.646L298.087,281.646L298.087,288.004ZM548.091,284.825L548.091,464.108L554.449,464.108L554.449,284.825L548.091,284.825ZM551.269,460.929L298.087,460.929L298.087,467.287L551.269,467.287L551.269,460.929ZM301.266,464.108L301.266,284.825L294.908,284.825L294.908,464.108L301.266,464.108Z" fill="#01008A"/>
<line x1="580.304" y1="295.386" x2="811.743" y2="295.386" stroke="#FFFFFF" stroke-width="2.959" stroke-miterlimit="10"/>
<line x1="580.303" y1="349.467" x2="722.594" y2="349.467" stroke="#FFFFFF" stroke-width="2.959" stroke-miterlimit="10"/>
<line x1="580.303" y1="322.14" x2="621.104" y2="322.14" stroke="#FFFFFF" stroke-width="2.959" stroke-miterlimit="10"/>
<line x1="580.304" y1="384.629" x2="811.743" y2="384.629" stroke="#FFFFFF" stroke-width="2.959" stroke-miterlimit="10"/>
<line x1="580.303" y1="438.744" x2="811.742" y2="438.744" stroke="#FFFFFF" stroke-width="2.959" stroke-miterlimit="10"/>
<line x1="580.303" y1="411.415" x2="716.839" y2="411.415" stroke="#FFFFFF" stroke-width="2.959" stroke-miterlimit="10"/>
<path d="M419.66,429.075C450.376,429.075 475.277,404.165 475.277,373.438C475.277,342.71 450.376,317.801 419.66,317.801C388.943,317.801 364.042,342.71 364.042,373.438C364.042,404.165 388.943,429.075 419.66,429.075Z" transform="rotate(-159.427 419.659 373.438)" fill="#F04365"/>
<line x1="391.488" y1="368.956" x2="446.135" y2="368.956" stroke="#FFFFFF" stroke-width="4.439" stroke-miterlimit="10" stroke-linecap="round" stroke-linejoin="round"/>
<path d="M919.182,480.186L931.205,656.912L950.198,656.88L954.131,480.122L919.182,480.186Z" fill="#010076"/>
<path d="M915.473,671.391L950.102,671.391L950.102,655.346L931.524,655.346C922.635,655.346 915.473,662.537 915.473,671.391Z" fill="#243051"/>
<path d="M956.434,671.39L992.534,671.39L991.063,655.345L972.485,655.345C963.628,655.345 956.434,662.537 956.434,671.39Z" fill="#243051"/>
<path d="M978.976,480.313L991.063,655.345L972.485,655.953L941.469,480.313L978.976,480.313Z" fill="#0D0CBE"/>
<path d="M946.554,389.313L995.828,433.294C999.921,436.938 1006.06,437.066 1010.281,433.614C1015.109,429.651 1015.749,422.523 1011.72,417.76C1011.72,417.76 987.93,385.829 974.564,375.217L946.554,389.313Z" fill="#F04365"/>
<path d="M1022.623,496.358C1022.623,502.878 1017.315,508.184 1010.792,508.184C1004.269,508.184 998.961,502.878 998.961,496.358C998.961,489.837 1004.269,484.531 1010.792,484.531C1017.347,484.531 1022.623,489.805 1022.623,496.358Z" fill="#F89A6E"/>
<path d="M995.54,428.34L1002.031,487.217L1018.914,487.217L1015.077,426.422C1014.661,420.669 1009.418,416.514 1003.758,417.409C998.514,418.24 994.901,423.066 995.54,428.34Z" fill="#F04365"/>
<path d="M941.501,366.97C941.501,366.97 917.327,367.738 916.048,391.902C914.737,416.226 918.862,480.313 918.862,480.313L978.976,480.313L980.511,401.811C984.252,380.843 973.637,367.482 952.085,366.683C948.823,366.555 945.306,366.651 941.501,366.97Z" fill="#F04365"/>
<path d="M980.16,419.264L969.8,410.059L979.776,438.41L980.16,419.264Z" fill="#D72E57"/>
<path d="M859.643,346.163C859.643,352.715 854.335,357.989 847.812,357.989C841.289,357.989 835.981,352.683 835.981,346.163C835.981,339.642 841.289,334.336 847.812,334.336C854.335,334.304 859.643,339.61 859.643,346.163Z" fill="#F89A6E"/>
<path d="M885.128,410.44L859.643,352.555L843.399,357.669L866.39,416.226C867.957,421.756 873.936,424.792 879.308,422.746C884.264,420.924 886.854,415.459 885.128,410.44Z" fill="#F04365"/>
<path d="M932.1,369.079C900.253,382.312 871.57,402.609 871.57,402.609C866.774,405.23 864.6,410.983 866.454,416.129C868.565,422.011 875.088,425.015 880.939,422.778L929.51,399.157L932.1,369.079Z" fill="#F04365"/>
<path d="M915.793,405.804L916.049,391.899L905.018,411.046L915.793,405.804Z" fill="#D72E57"/>
<path d="M934.498,353.228L935.265,369.465C935.425,373.013 937.664,376.114 940.925,377.424C947.16,379.917 953.843,374.931 953.204,368.219L952.213,352.077L934.498,353.228Z" fill="#F89A6E"/>
<path d="M935.042,364.831C935.042,364.831 950.103,366.909 952.245,352.077C954.388,337.278 937.92,343.383 937.92,343.383L934.595,355.53L935.042,364.831Z" fill="#E88057"/>
<path d="M923.914,314.807C913.97,325.515 914.609,342.264 925.321,352.204C936.033,362.145 952.788,361.506 962.733,350.798C972.677,340.09 972.037,323.341 961.326,313.401C950.614,303.46 933.859,304.099 923.914,314.807Z" fill="#F89A6E"/>
<path d="M951.062,340.762C951.062,340.762 940.606,359.684 955.315,364.894C970.023,370.104 974.244,329.191 974.244,329.191L958.352,298.027L919.566,295.342L917.392,308.766C917.392,308.766 921.101,321.84 953.62,334.145L951.062,340.762Z" fill="#243051"/>
<path d="M943.164,325.899L947.737,341.338L959.44,334.498L943.164,325.899Z" fill="#243051"/>
<path d="M948.504,335.488C945.85,338.365 946.01,342.84 948.887,345.493C951.765,348.146 956.242,347.986 958.896,345.109C961.55,342.232 961.39,337.758 958.512,335.105C955.634,332.452 951.158,332.611 948.504,335.488Z" fill="#F89A6E"/>
<path d="M916.24,324.268C916.24,324.268 914.929,305.346 930.885,295.469C944.027,287.35 961.773,291.793 969.032,305.41C972.453,311.802 974.372,318.067 972.133,330.469L916.24,324.268Z" fill="#FDD63B"/>
<path d="M971.334,333.218C971.238,333.218 971.142,333.218 971.015,333.218L907.479,326.41C905.976,326.25 904.889,324.876 905.049,323.374C905.209,321.871 906.552,320.784 908.087,320.944L971.622,327.753C973.125,327.912 974.212,329.287 974.052,330.789C973.892,332.195 972.709,333.218 971.334,333.218Z" fill="#F2A62F"/>
<path d="M906.274,138.27C933.601,138.27 955.754,116.109 955.754,88.773C955.754,61.436 933.601,39.276 906.274,39.276C878.946,39.276 856.793,61.436 856.793,88.773C856.793,116.109 878.946,138.27 906.274,138.27Z" transform="rotate(-153.513 906.274 88.773)" fill="#01008A"/>
<path d="M913.521,110.177C913.521,119.734 899.036,119.734 899.036,110.177C899.036,100.556 913.521,100.556 913.521,110.177ZM912.658,61.433L912.338,97.136L900.155,97.136C900.155,83.647 899.899,75.017 899.899,61.433L912.658,61.433Z" fill="#FFFFFF"/>
<path d="M590.088,0.605L594.149,11.185C596.643,17.706 601.792,22.82 608.315,25.345L618.898,29.404L608.315,33.464C601.792,35.957 596.675,41.103 594.149,47.624L590.088,58.204L586.028,47.624C583.533,41.103 578.385,35.989 571.862,33.464L561.278,29.404L571.862,25.345C578.385,22.852 583.501,17.706 586.028,11.185L590.088,0.605Z" fill="#E8E8E8"/>
<path d="M703.634,91.732L706.352,98.828C708.014,103.175 711.468,106.627 715.848,108.321L722.947,111.038L715.848,113.755C711.5,115.417 708.046,118.869 706.352,123.248L703.634,130.344L700.916,123.248C699.253,118.901 695.8,115.449 691.419,113.755L684.32,111.038L691.419,108.321C695.768,106.659 699.221,103.207 700.916,98.828L703.634,91.732Z" fill="#E8E8E8"/>
<path d="M15.647,152.304L17.853,158.057C19.228,161.605 22.01,164.386 25.559,165.76L31.315,167.966L25.559,170.171C22.01,171.546 19.228,174.327 17.853,177.875L15.647,183.628L13.44,177.875C12.065,174.327 9.283,171.546 5.734,170.171L-0.021,167.966L5.734,165.76C9.283,164.386 12.065,161.605 13.44,158.057L15.647,152.304Z" fill="#E8E8E8"/>
<path d="M1065.374,181.486L1067.58,187.24C1068.955,190.788 1071.737,193.569 1075.287,194.943L1081.042,197.148L1075.287,199.354C1071.737,200.728 1068.955,203.509 1067.58,207.057L1065.374,212.811L1063.168,207.057C1061.793,203.509 1059.011,200.728 1055.462,199.354L1049.706,197.148L1055.462,194.943C1059.011,193.569 1061.793,190.788 1063.168,187.24L1065.374,181.486Z" fill="#E8E8E8"/>
<path d="M265.664,63.928L277.079,75.53C279.574,78.056 283.283,78.887 286.608,77.672C292.907,75.339 294.538,67.188 289.614,62.617L278.103,51.238L265.664,63.928Z" fill="#F89A6E"/>
<path d="M273.818,72.173C273.818,72.173 280.948,57.47 278.134,51.205C271.995,37.557 261.667,54.306 261.667,54.306L267.327,65.589L273.818,72.173Z" fill="#E88057"/>
<path d="M232.122,42.35C231.866,56.957 243.506,69.007 258.119,69.263C272.731,69.519 284.786,57.884 285.042,43.277C285.298,28.67 273.659,16.619 259.046,16.364C244.433,16.076 232.378,27.743 232.122,42.35Z" fill="#F89A6E"/>
<path d="M269.693,43.566C269.693,43.566 274.521,64.63 288.942,58.685C303.363,52.772 279.222,19.466 279.222,19.466L246.575,6.872L215.878,30.749L219.299,51.429C219.299,51.429 230.235,43.63 262.69,31.1L269.693,43.566Z" fill="#243051"/>
<path d="M253.865,37.78L267.583,46.218L271.74,33.337L253.865,37.78Z" fill="#243051"/>
<path d="M271.196,48.554C271.196,48.554 294.026,110.755 322.453,82.371C347.681,57.184 309.535,41.905 299.206,39.188C291.308,37.111 288.271,34.426 278.326,25.188L258.565,28.033L271.196,48.554Z" fill="#243051"/>
<path d="M264.258,41.361C264.194,45.26 267.295,48.488 271.228,48.552C275.13,48.616 278.359,45.516 278.423,41.584C278.487,37.685 275.385,34.456 271.452,34.393C267.551,34.329 264.322,37.461 264.258,41.361Z" fill="#F89A6E"/>
<path d="M229.532,46.442C229.532,46.442 219.108,30.589 228.125,14.159C235.575,0.639 253.194,-4.22 266.24,4.091C272.347,7.99 277.112,12.497 281.236,24.388L229.532,46.442Z" fill="#FDD63B"/>
<path d="M281.908,27.169C281.812,27.233 281.716,27.265 281.62,27.297L222.912,52.548C221.506,53.155 219.907,52.484 219.299,51.077C218.692,49.671 219.331,48.105 220.77,47.466L279.477,22.214C280.884,21.607 282.483,22.278 283.091,23.685C283.634,24.995 283.091,26.498 281.908,27.169Z" fill="#F2A62F"/>
<path d="M228.412,194.338L169.928,254.27L154.964,247.653L205.581,175.895C210.537,167.681 222.272,167.105 227.964,174.84C231.354,179.379 231.545,189.607 228.412,194.338Z" fill="#010076"/>
<path d="M132.422,247.333L161.999,268.046L169.993,254.046L154.773,243.402C147.514,238.32 137.506,240.078 132.422,247.333Z" fill="#243051"/>
<path d="M268.828,158.603L209.642,169.119L221.824,192.196L301.188,192.196C301.188,192.196 325.042,191.621 314.042,165.475L268.828,158.603Z" fill="#0D0CBE"/>
<path d="M231.513,176.663L259.684,269.836L243.792,278.946L199.25,188.937C194.71,180.466 200.209,170.11 209.77,169.151C215.398,168.576 229.051,171.58 231.513,176.663Z" fill="#0D0CBE"/>
<path d="M236.534,300.168L266.048,284.633L259.685,269.866L243.249,278.528C235.415,282.62 232.409,292.337 236.534,300.168Z" fill="#243051"/>
<path d="M265.439,88.443C265.439,88.443 267.837,77.991 270.843,74.763C272.985,72.462 280.755,65.142 285.04,63.576C286.319,63.096 287.726,63.256 288.877,63.959C293.993,67.092 308.03,77.224 314.905,97.905C321.524,117.818 322.963,174.489 322.963,174.489C304.129,186.731 268.86,158.571 268.86,158.571C269.755,123.284 261.026,121.494 265.439,88.443Z" fill="#F04365"/>
<path d="M261.665,159.881L289.452,161.159C298.885,161.703 303.073,154.639 303.521,148.693L304.768,100.78L261.665,159.881Z" fill="#D72E57"/>
<path d="M236.629,153.073L220.193,147.192C218.85,146.713 217.379,146.968 216.292,147.863L208.97,153.808C206.827,155.566 207.307,158.955 209.865,160.041C211.176,160.585 212.679,160.361 213.734,159.434L217.251,156.366C217.251,156.366 229.274,163.238 234.998,161.352L236.629,153.073Z" fill="#F97D7D"/>
<path d="M278.517,80.1L275.639,133.894L231.864,145.241L233.687,161.606L287.182,156.013C291.019,155.757 294.536,153.999 297.062,151.186C298.437,149.652 299.173,147.606 299.429,145.561L306.08,89.753L278.517,80.1Z" fill="#F04365"/>
<path d="M204.908,174.521L267.004,163.653C268.923,163.334 270.17,161.512 269.85,159.594C269.53,157.676 267.708,156.43 265.789,156.749L203.693,167.617C201.774,167.936 200.527,169.758 200.847,171.676C201.199,173.594 203.021,174.84 204.908,174.521Z" fill="#010069"/>
<path d="M205.356,171.197C205.005,171.197 204.621,171.037 204.365,170.749L167.017,128.398C166.538,127.854 166.602,127.023 167.145,126.544C167.689,126.064 168.52,126.128 169,126.672L206.38,169.023C206.859,169.567 206.795,170.398 206.252,170.877C205.996,171.069 205.676,171.197 205.356,171.197Z" fill="#243051"/>
<path d="M278.039,62.998C278.039,62.998 295.754,105.573 319.959,84.35C344.165,63.126 293.547,50.884 293.547,50.884L278.039,62.998Z" fill="#243051"/>
<path d="M760.551,664.39L792.143,582.756C793.646,578.856 799.145,578.856 800.648,582.756L832.24,664.39L760.551,664.39Z" fill="#F2A62F"/>
<path d="M823.99,600.304L767.873,600.304L767.873,615.998L823.99,615.998L823.99,600.304Z" fill="#FAFAFA"/>
<path d="M828.275,629.998L764.835,629.998L764.835,645.692L828.275,645.692L828.275,629.998Z" fill="#FAFAFA"/>
<path d="M837.228,671.263L756.01,671.263C752.876,671.263 750.318,668.706 750.318,665.573C750.318,662.441 752.876,659.884 756.01,659.884L837.228,659.884C840.362,659.884 842.92,662.441 842.92,665.573C842.92,668.706 840.362,671.263 837.228,671.263Z" fill="#EB9924"/>
<path d="M163.757,570.321L139.04,570.321L139.04,640.129L163.757,640.129L163.757,570.321Z" fill="#0D0CBE"/>
<path d="M294.026,570.321L269.309,570.321L269.309,640.129L294.026,640.129L294.026,570.321Z" fill="#0D0CBE"/>
<path d="M307.648,671.422L123.98,671.422C118.032,671.422 113.204,666.596 113.204,660.65L113.204,647.002C113.204,641.057 118.032,636.23 123.98,636.23L307.648,636.23C313.596,636.23 318.424,641.057 318.424,647.002L318.424,660.65C318.424,666.596 313.596,671.422 307.648,671.422Z" fill="#01008A"/>
<path d="M304.259,575.98L129.64,575.98C120.558,575.98 113.204,568.628 113.204,559.551L113.204,529.473C113.204,520.396 120.558,513.044 129.64,513.044L304.259,513.044C313.34,513.044 320.694,520.396 320.694,529.473L320.694,559.551C320.694,568.628 313.34,575.98 304.259,575.98Z" fill="#F2A62F"/>
<g mask="url(#mask_0_157_309)">
<path d="M110.582,598.066L73.202,598.066L160.336,501.44L197.715,501.44L110.582,598.066Z" fill="#FFFFFF"/>
<path d="M262.498,598.066L225.087,598.066L312.221,501.44L349.632,501.44L262.498,598.066Z" fill="#FFFFFF"/>
<path d="M184.989,598.066L147.577,598.066L234.711,501.44L272.122,501.44L184.989,598.066Z" fill="#FFFFFF"/>
</g>
</svg>
