<svg width="32" height="32" viewBox="0 0 32 32" fill="none" xmlns="http://www.w3.org/2000/svg" xmlns:xlink="http://www.w3.org/1999/xlink">
<path d="M15.456,32C24.293,32 31.456,24.837 31.456,16C31.456,7.163 24.293,0 15.456,0C6.619,0 -0.544,7.163 -0.544,16C-0.544,24.837 6.619,32 15.456,32Z" fill="#FF0000"/>
<path d="M9.864,10.415C10.037,10.242 10.27,10.146 10.513,10.146C10.757,10.146 10.99,10.242 11.162,10.415L16.018,15.272L20.876,10.415C20.961,10.327 21.062,10.256 21.174,10.208C21.287,10.16 21.407,10.134 21.529,10.133C21.651,10.132 21.772,10.155 21.885,10.201C21.998,10.247 22.101,10.315 22.187,10.402C22.274,10.488 22.342,10.591 22.388,10.704C22.434,10.817 22.457,10.938 22.456,11.06C22.455,11.182 22.429,11.302 22.381,11.415C22.333,11.527 22.262,11.628 22.174,11.713L17.316,16.568L22.174,21.426C22.341,21.6 22.433,21.831 22.431,22.072C22.428,22.312 22.332,22.542 22.162,22.712C21.992,22.882 21.762,22.978 21.522,22.981C21.281,22.983 21.05,22.891 20.876,22.724L16.018,17.866L11.16,22.724C10.987,22.891 10.756,22.983 10.515,22.981C10.275,22.978 10.045,22.882 9.875,22.712C9.705,22.542 9.609,22.312 9.606,22.072C9.604,21.831 9.696,21.6 9.862,21.426L14.72,16.568L9.864,11.713C9.692,11.54 9.596,11.307 9.596,11.064C9.596,10.82 9.692,10.587 9.864,10.415L9.864,10.415Z" clip-rule="evenodd" fill-rule="evenodd" fill="#FFFFFF" stroke="#FFFFFF" stroke-width="0.4" stroke-miterlimit="3.999327"/>
</svg>
