<svg width="74" height="62" viewBox="0 0 74 62" fill="none" xmlns="http://www.w3.org/2000/svg" xmlns:xlink="http://www.w3.org/1999/xlink">
<path d="M4.123,45.999C0.923,41.199 2.123,33.999 3.123,30.999C3.658,28.997 5.124,15 4.123,10C3.123,5.001 6.124,5 9.124,5C11.524,5 13.457,8.334 14.124,10C15.124,6.001 15.124,6.999 19.124,6.999C22.229,6.999 24.33,11.396 25.061,13.788C25.246,13.384 26.217,12.326 29.124,10C34.124,6 37.124,1 41.124,2C44.324,2.8 44.457,5 44.124,6C50.124,1 49.124,3 52.124,4C54.524,4.8 55.124,6.999 55.124,7.999C57.124,6.999 59.124,3.999 63.124,6.999C66.324,9.399 64.457,13.332 63.124,14.999C63.79,14.999 65.524,15.199 67.124,15.999C69.124,16.999 69.124,19.999 67.124,21.999C65.124,23.999 66.124,24.999 67.124,24.999C71.124,24.999 73.124,30.999 71.124,31.999C69.124,32.999 62.124,41.999 51.124,51.999C40.124,61.999 27.124,56.999 23.124,55.999C13.124,55.999 8.123,51.999 4.123,45.999Z" transform="rotate(360 36.978 30.002)" fill="#7CAC5B"/>
<path d="M69.562,23.427C71.555,20.865 71.46,17.07 69.088,14.698C68.329,13.939 67.285,13.369 66.242,13.085C66.621,12.231 66.811,11.282 66.811,10.333C66.811,8.531 66.147,6.918 64.913,5.684C62.541,3.312 58.936,3.122 56.374,5.02C56.089,4.261 55.71,3.502 55.141,2.838C53.907,1.509 52.199,0.655 50.397,0.655C48.689,0.561 46.981,1.225 45.747,2.458C45.558,2.174 45.368,1.794 45.083,1.604C43.85,0.276 42.142,-0.578 40.339,-0.578C38.442,-0.673 36.734,0.086 35.5,1.32L26.012,10.713C24.969,6.728 21.174,3.976 16.999,4.451C15.86,4.546 14.817,5.115 14.058,5.874C12.35,3.976 9.693,2.838 6.942,3.122C4.38,3.407 2.387,5.589 2.387,8.246L2.482,22.003C2.482,25.609 2.008,29.309 1.154,32.535L1.154,32.63C-0.744,39.272 1.154,46.388 5.993,51.226C11.022,56.255 17.758,59.007 24.779,59.007C25.348,59.007 26.012,59.007 26.582,58.912C29.238,59.766 32.085,60.24 34.836,60.24C41.668,60.24 48.499,57.678 53.623,52.46L71.934,34.053C73.168,32.82 73.832,31.112 73.832,29.404C73.832,27.601 73.168,25.988 71.934,24.755C71.27,24.186 70.416,23.711 69.562,23.427ZM38.252,4.071C38.821,3.502 39.58,3.312 40.244,3.312C41.003,3.312 41.668,3.692 42.142,4.166C42.427,4.546 42.616,5.02 42.616,5.494L26.961,21.529L26.487,15.741L38.252,4.071ZM8.744,48.57C4.854,44.68 3.431,39.082 4.854,33.863C5.898,30.068 6.372,26.083 6.372,22.098L6.278,8.341C6.278,7.771 6.752,7.202 7.321,7.202C9.788,6.918 11.97,8.72 12.255,11.092L12.445,13.369L12.54,23.332C12.54,26.937 12.065,30.543 11.306,33.768C11.306,33.863 11.211,33.863 11.211,33.958C9.314,40.6 11.211,47.716 16.05,52.555C16.525,53.029 17.094,53.504 17.568,53.978C14.247,52.839 11.211,51.037 8.744,48.57ZM69.183,31.397L50.871,49.803C42.047,58.627 27.625,58.627 18.802,49.803C15.006,46.008 13.488,40.41 14.912,35.192L14.912,35.097C15.955,31.207 16.43,27.317 16.43,23.332L16.43,13.369L16.43,13.085L16.43,9.574C16.43,9.005 16.904,8.436 17.473,8.436C19.94,8.151 22.122,9.954 22.407,12.326L23.071,21.909C23.261,23.332 24.21,24.565 25.538,25.04C26.961,25.514 28.384,25.134 29.428,24.186L48.214,5.399C48.784,4.83 49.258,4.546 50.207,4.64C50.966,4.64 51.63,5.02 52.104,5.494C52.958,6.443 52.863,8.341 51.82,9.384L37.872,23.427C37.113,24.186 37.113,25.419 37.872,26.178C38.252,26.558 38.726,26.747 39.296,26.747C39.77,26.747 40.339,26.558 40.719,26.178L54.761,12.136L58.461,8.436C59.505,7.392 61.213,7.392 62.257,8.436C62.731,8.91 63.016,9.574 63.016,10.333C63.016,11.092 62.731,11.756 62.257,12.231L44.419,29.973C43.66,30.732 43.66,31.966 44.419,32.725C44.799,33.104 45.273,33.294 45.842,33.294C46.412,33.294 46.886,33.104 47.266,32.725L57.228,22.762L62.541,17.449C63.585,16.406 65.293,16.406 66.336,17.449C67.38,18.493 67.38,20.201 66.336,21.244L62.731,24.85L60.074,27.412L50.966,36.52C50.207,37.279 50.207,38.512 50.966,39.272C51.345,39.651 51.82,39.841 52.389,39.841C52.958,39.841 53.433,39.651 53.812,39.272L65.483,27.601C66.526,26.558 68.234,26.558 69.278,27.601C69.752,28.076 70.037,28.74 70.037,29.499C70.037,30.258 69.752,30.922 69.183,31.397Z" transform="rotate(360 37.13 29.827)" fill="#285117"/>
</svg>
