<svg width="158" height="510" viewBox="0 0 158 510" fill="none" xmlns="http://www.w3.org/2000/svg" xmlns:xlink="http://www.w3.org/1999/xlink">
<path d="M56.458,81.679C56.458,81.679 34.897,95.232 32.158,170.097C32.158,170.097 40.063,178.265 54.685,159.147C69.308,140.028 75.379,77.529 75.379,77.529L56.458,81.679Z" fill="#FFB27D"/>
<path d="M28.531,494.048L37.907,497.538C37.907,497.538 78.619,441.078 83.631,391.396C84.526,382.525 84.229,373.935 82.291,365.998C82.291,365.998 82.687,363.725 83.384,359.707C83.708,357.83 84.103,355.574 84.553,352.989C85.876,345.403 87.698,335.028 89.779,323.216C94.571,296.028 100.773,261.271 105.598,235.719L103.073,234.907L75.748,226.092L70.1,208.153L49.752,202.796C49.752,202.796 45.207,211.688 41.145,253.691C40.393,259.202 39.713,265.278 39.202,271.865C37.616,291.977 37.5,316.92 41.14,345.441C42.073,352.742 43.253,360.278 44.713,368.023C45.783,373.699 45.943,381.439 45.493,390.32C43.44,430.94 28.531,494.048 28.531,494.048Z" fill="#01008A"/>
<path d="M39.195,271.871L83.377,359.713C83.701,357.836 84.096,355.58 84.546,352.995C85.869,345.409 87.692,335.034 89.772,323.222C94.564,296.034 100.767,261.277 105.592,235.725L103.067,234.913L75.742,226.098L70.094,208.159L49.745,202.802C49.745,202.802 45.2,211.694 41.138,253.697C40.392,259.208 39.711,265.284 39.195,271.871Z" fill="#02015C"/>
<path d="M58.633,214.076L59.654,205.304C76.791,209.855 122.575,192.586 122.575,192.586C122.575,192.586 139.174,207.176 136.995,242.158C135.93,259.229 133.987,331.779 131.956,353.247C131.221,361.025 130.579,366.563 130.315,368.775C130.31,368.786 130.31,368.792 130.31,368.797C130.227,369.472 130.463,370.109 130.809,370.696C133.795,375.768 136.271,381.049 138.302,386.45C158.222,439.536 135.233,504.91 135.233,504.91L129.267,502.506C129.267,502.506 116.186,429.754 105.554,397.61C103.748,392.159 102.019,387.872 100.432,385.314C95.81,377.854 91.524,365.668 87.626,351.172C80.271,323.765 74.348,288.113 70.407,260.59C69.875,260.618 58.633,214.076 58.633,214.076Z" fill="#01008A"/>
<path d="M126.012,81.487C125.99,81.547 125.968,81.608 125.946,81.668C121.495,94.068 112.591,110.403 96.135,113.099C91.123,113.922 85.415,113.483 78.916,111.276C71.461,108.751 65.66,105.37 61.147,101.522C67.422,88.09 75.035,77.99 75.386,77.524C75.403,77.507 75.403,77.502 75.403,77.502C75.403,77.502 76.484,77.364 78.279,77.156C79.41,76.02 79.854,70.948 79.992,65.607C80.167,58.784 79.849,51.511 79.849,51.511L103.013,47.597L104.39,47.372C104.16,54.431 104.802,60.453 105.84,65.19C106.575,68.549 107.514,71.261 108.491,73.253C109.199,74.719 109.94,75.789 110.632,76.437C112.542,77.557 114.501,77.622 116.62,77.535C118.755,77.447 122.285,78.852 125.935,81.426C125.957,81.448 125.985,81.47 126.012,81.487Z" fill="#FFB27D"/>
<path d="M125.935,81.433C122.285,78.853 118.75,77.689 116.62,77.541C114.655,77.404 112.531,77.113 110.632,76.443C110.539,76.355 110.445,76.262 110.352,76.158C110.303,76.108 110.259,76.053 110.209,75.998C110.16,75.943 110.11,75.883 110.061,75.823C110.012,75.762 109.962,75.696 109.913,75.636C109.863,75.57 109.814,75.504 109.765,75.438C109.721,75.373 109.671,75.307 109.622,75.241C109.567,75.159 109.512,75.076 109.457,74.994C109.413,74.928 109.369,74.862 109.325,74.796C109.265,74.697 109.205,74.599 109.144,74.494C109.106,74.428 109.067,74.363 109.024,74.291C108.985,74.22 108.941,74.143 108.903,74.072C108.76,73.814 108.617,73.545 108.48,73.259C107.503,71.267 106.57,68.555 105.834,65.196C97.667,62.665 87.583,61.205 82.264,62.874C82.264,62.874 89.411,64.449 89.713,71.217C90.026,78.183 85.305,101.803 72.329,102.149C63.706,102.374 80.381,111.271 96.135,113.105C112.591,110.404 121.495,94.069 125.946,81.674C125.941,81.592 125.941,81.509 125.935,81.433Z" fill="#ED985F"/>
<path d="M139.878,207.724C139.905,211.226 139.301,214.361 137.803,216.831C134.646,227.26 42.265,216.364 47.375,205.364C47.375,205.364 51.953,137.53 49.088,120.047C48.989,119.41 48.907,118.79 48.852,118.159C47.375,101.571 62.459,88.463 56.465,81.673C56.465,81.673 61.921,78.884 75.397,77.501C75.397,77.501 75.397,77.512 75.381,77.523C74.991,78.176 64.606,95.445 65.374,99.968C66.159,104.568 95.136,103.744 97.952,101.307C100.202,99.342 113.662,87.623 116.082,79.526C116.445,78.297 116.609,77.534 116.609,77.534C116.609,77.534 130.667,79.477 137.418,84.681C137.418,84.681 132.588,90.373 129.476,97.267C129.179,97.926 128.899,98.585 128.647,99.249C128.098,100.66 127.648,102.103 127.329,103.536C126.918,105.441 127.423,107.373 128.51,109.42C129.498,111.303 130.985,113.295 132.703,115.469C133.263,116.177 133.576,116.292 133.905,116.43C134.235,116.567 134.575,116.737 135.195,117.528C132.961,126.041 129.558,142.256 126.973,157.571C126.319,161.451 126.566,165.42 127.648,169.164C128.07,170.657 128.636,172.117 129.322,173.527C133.505,182.035 139.817,196.68 139.878,207.724Z" fill="#F04365"/>
<path d="M128.866,7.802C129.596,6.753 137.874,-4.285 155.895,6.457C155.895,6.457 146.563,1.912 142.611,4.761C142.611,4.761 151.547,3.849 155.379,8.46C159.21,13.071 156.614,23.308 154.857,26.097C153.101,28.885 144.686,36.092 141.146,34.89C139.806,34.435 138.522,33.502 137.446,32.519C137.44,34.308 137.336,36.219 137.095,38.272C134.833,57.236 118.498,66.683 113.546,61.287C110.368,57.829 105.093,63.653 105.093,63.653L87.319,9.734C87.319,9.723 119.101,-9.709 128.866,7.802Z" fill="#2C3A64"/>
<path d="M116.977,34.238C115.841,39.529 112.959,45.809 110.379,53.367C106.141,65.784 91.14,64.719 82.258,62.869C82.253,62.869 82.253,62.869 82.247,62.869C78.268,62.04 75.518,61.052 75.518,61.052C68.201,57.907 75.26,26.575 78.773,21.069C82.286,15.564 88.209,9.927 106.284,17.265C116.768,21.52 118.541,26.937 116.977,34.238Z" fill="#FFB27D"/>
<path d="M100.559,509.785L147.765,509.785C147.765,509.785 148.896,502.589 146.431,497.133C144.071,491.896 140.366,489.514 141.255,483.18C138.258,486.27 133.367,489.728 126.544,488.812C125.71,490.167 121.148,497.424 118.354,499.427C115.264,501.64 101.508,500.849 100.559,509.785Z" fill="#233862"/>
<path d="M-0.803,509.786L46.403,509.786C46.403,509.786 48.165,502.255 45.07,497.134C42.325,492.6 43.379,490.02 45.41,486.266C43.269,487.138 40.503,487.94 37.462,487.764C35.107,487.627 32.62,486.562 30.441,485.294C28.41,487.61 19.71,497.469 16.993,499.423C13.903,501.64 0.147,500.85 -0.803,509.786Z" fill="#233862"/>
<path d="M115.133,35.839C114.222,41.13 111.916,47.41 109.847,54.968C106.449,67.385 94.433,66.32 87.319,64.47C101.8,61.769 97.441,27.523 97.441,27.523C103.117,25.744 109.731,29.378 115.133,35.839Z" fill="#ED985F"/>
<path d="M139.878,207.726C109.04,209.653 89.812,146.803 89.812,146.803C89.812,146.803 120.759,117.151 132.709,115.477C133.269,116.185 133.582,116.3 133.911,116.437C134.24,116.574 134.581,116.745 135.201,117.535C132.967,126.049 129.564,142.263 126.978,157.578C126.325,161.459 126.572,165.427 127.653,169.171C128.076,170.664 128.642,172.124 129.328,173.535C133.505,182.037 139.817,196.682 139.878,207.726Z" fill="#C0314D"/>
<path d="M115.441,180.187C112.493,180.33 107.827,180.368 105.088,179.479C105.088,179.479 113.673,178.908 111.703,176.29C111.346,175.812 107.092,176.411 102.327,176.663C100.373,176.767 95.521,180.643 95.773,180.753C92.293,180.478 89.28,179.029 88.253,178.864C87.984,178.826 87.874,178.776 87.874,178.776L85.289,187.822C85.289,187.822 85.942,187.949 87.073,188.102C89.949,188.651 95.861,189.842 101.487,191.692C109.353,194.338 114.826,190.249 117.258,187.433C118.8,185.649 119.964,183.321 119.793,181.686C119.601,179.896 117.241,180.105 115.441,180.187Z" fill="#FFB27D"/>
<path d="M102.925,74.68C102.925,74.68 114.436,62.994 114.436,58.52C114.436,54.047 112.251,41.114 110.017,42.201C107.788,43.288 100.455,59.525 100.131,58.641C99.807,57.757 101.679,54.393 101.377,52.839C101.251,52.186 99.972,49.535 98.687,52.427C97.551,54.991 95.064,58.378 94.905,61.139C94.746,63.9 96.848,67.138 94.631,72.348L102.925,74.68Z" fill="#FFB27D"/>
<path d="M83.037,11.359C89.344,7.468 92.314,9.8 93.647,12.073C112.387,8.763 118.195,25.06 118.195,25.06C115.736,38.629 122.526,49.19 122.526,49.19C122.526,49.19 116.153,50.65 105.081,43.399C101.7,41.182 99.285,37.422 97.556,33.272C99.669,43.174 104.335,51.38 104.335,51.38C92.116,39.743 93.153,17.6 93.302,15.273C91.002,16.256 86.352,18.512 84.146,21.525C81.149,25.615 77.29,34.831 74.65,33.574C74.655,33.568 73.579,17.194 83.037,11.359Z" fill="#2C3A64"/>
<path d="M32.165,170.097C32.165,170.097 36.326,182.788 92.391,189.21L95.773,180.752C95.773,180.752 61.927,167.292 43.879,153.575C40.036,150.655 32.165,170.097 32.165,170.097Z" fill="#FFB27D"/>
<path d="M142.699,104.734C136.205,118.6 122.181,135.286 108.079,148.142C104.039,151.831 99.988,155.201 96.113,158.099C84.525,166.755 74.458,171.207 70.577,167.288C66.817,163.495 87.045,127.025 100.065,107.177C101.712,104.668 103.243,102.423 104.593,100.546C108.085,95.694 111.433,92.054 114.435,89.332C121.796,82.646 127.038,81.46 127.038,81.46C150.098,80.209 142.699,104.734 142.699,104.734Z" fill="#FFB27D"/>
<path d="M95.773,144.951C92.836,136.58 95.718,120.486 100.06,107.18C101.707,104.672 103.238,102.426 104.589,100.549C108.08,95.697 111.428,92.058 114.431,89.335C117.938,107.702 95.773,144.951 95.773,144.951Z" fill="#F8A871"/>
<path d="M102.94,74.119C102.94,74.119 102.27,92.92 100.646,111.967C99.12,129.735 99.438,155.441 95.771,158.344C77.558,172.759 70.571,167.286 70.571,167.286C64.461,140.823 95.338,70.7 95.338,70.7C99.773,67.906 102.94,74.119 102.94,74.119Z" fill="#FFB27D"/>
<path d="M110.68,93.058C110.68,93.058 116.399,123.111 129.293,130.362C129.293,130.362 156.854,97.647 138.8,83.139C138.8,83.139 129.776,77.535 116.613,77.54L110.68,93.058Z" fill="#F04365"/>
<path d="M56.459,81.678C56.459,81.678 47.874,85.959 41.44,100.225C41.44,100.225 45.162,108.207 52.413,109.173C59.67,110.133 60.504,84.164 56.459,81.678Z" fill="#F04365"/>
<path d="M49.725,157.671C49.725,157.671 46.558,155.832 42.452,155.108C38.341,154.383 49.088,138.668 49.725,133.47C50.367,128.272 49.725,157.671 49.725,157.671Z" fill="#F8A871"/>
</svg>
