<svg width="504" height="872" viewBox="0 0 504 872" fill="none" xmlns="http://www.w3.org/2000/svg" xmlns:xlink="http://www.w3.org/1999/xlink">
<path d="M452.31,871.631L50.756,871.631C22.403,871.631 -0.672,848.565 -0.672,820.203L-0.672,52.039C-0.672,23.686 22.396,0.611 50.756,0.611L452.318,0.611C480.67,0.611 503.738,23.678 503.738,52.039L503.738,820.203C503.738,848.557 480.67,871.631 452.31,871.631ZM50.756,12.082C28.729,12.082 10.8,30.004 10.8,52.039L10.8,820.203C10.8,842.239 28.721,860.159 50.756,860.159L452.318,860.159C474.344,860.159 492.274,842.239 492.274,820.203L492.274,52.039C492.274,30.012 474.352,12.082 452.318,12.082L50.756,12.082L50.756,12.082Z" fill="#2B478B"/>
<g opacity="0.9">
<g opacity="0.9">
<path d="M413.64,248.527L89.424,248.527L89.424,572.743L413.64,572.743L413.64,248.527Z" fill="#FFFFFF"/>
</g>
</g>
<path d="M134.804,538.717L121.92,538.717L121.92,551.601L134.804,551.601L134.804,538.717Z" fill="#01008A"/>
<path d="M147.689,538.717L134.805,538.717L134.805,551.601L147.689,551.601L147.689,538.717Z" fill="#01008A"/>
<path d="M160.578,538.717L147.693,538.717L147.693,551.601L160.578,551.601L160.578,538.717Z" fill="#01008A"/>
<path d="M173.458,538.717L160.574,538.717L160.574,551.601L173.458,551.601L173.458,538.717Z" fill="#01008A"/>
<path d="M186.351,538.717L173.467,538.717L173.467,551.601L186.351,551.601L186.351,538.717Z" fill="#01008A"/>
<path d="M212.119,538.717L199.234,538.717L199.234,551.601L212.119,551.601L212.119,538.717Z" fill="#01008A"/>
<path d="M225.001,538.717L212.117,538.717L212.117,551.601L225.001,551.601L225.001,538.717Z" fill="#01008A"/>
<path d="M263.656,538.717L250.771,538.717L250.771,551.601L263.656,551.601L263.656,538.717Z" fill="#01008A"/>
<path d="M290.184,538.717L276.539,538.717L276.539,551.601L290.184,551.601L290.184,538.717Z" fill="#01008A"/>
<path d="M303.068,538.717L290.184,538.717L290.184,551.601L303.068,551.601L303.068,538.717Z" fill="#01008A"/>
<path d="M328.837,538.717L315.953,538.717L315.953,551.601L328.837,551.601L328.837,538.717Z" fill="#01008A"/>
<path d="M341.722,538.717L328.838,538.717L328.838,551.601L341.722,551.601L341.722,538.717Z" fill="#01008A"/>
<path d="M354.607,538.717L341.723,538.717L341.723,551.601L354.607,551.601L354.607,538.717Z" fill="#01008A"/>
<path d="M367.498,538.717L354.613,538.717L354.613,551.601L367.498,551.601L367.498,538.717Z" fill="#01008A"/>
<path d="M380.382,538.717L367.498,538.717L367.498,551.601L380.382,551.601L380.382,538.717Z" fill="#01008A"/>
<path d="M394.026,538.717L380.381,538.717L380.381,551.601L394.026,551.601L394.026,538.717Z" fill="#01008A"/>
<path d="M121.921,538.717L109.037,538.717L109.037,551.601L121.921,551.601L121.921,538.717Z" fill="#01008A"/>
<path d="M186.351,525.833L173.467,525.833L173.467,538.717L186.351,538.717L186.351,525.833Z" fill="#01008A"/>
<path d="M225.001,525.833L212.117,525.833L212.117,538.717L225.001,538.717L225.001,525.833Z" fill="#01008A"/>
<path d="M250.775,525.833L237.891,525.833L237.891,538.717L250.775,538.717L250.775,525.833Z" fill="#01008A"/>
<path d="M263.656,525.833L250.771,525.833L250.771,538.717L263.656,538.717L263.656,525.833Z" fill="#01008A"/>
<path d="M276.54,525.833L263.656,525.833L263.656,538.717L276.54,538.717L276.54,525.833Z" fill="#01008A"/>
<path d="M290.184,525.833L276.539,525.833L276.539,538.717L290.184,538.717L290.184,525.833Z" fill="#01008A"/>
<path d="M328.837,525.833L315.953,525.833L315.953,538.717L328.837,538.717L328.837,525.833Z" fill="#01008A"/>
<path d="M394.026,525.833L380.381,525.833L380.381,538.717L394.026,538.717L394.026,525.833Z" fill="#01008A"/>
<path d="M121.921,525.833L109.037,525.833L109.037,538.717L121.921,538.717L121.921,525.833Z" fill="#01008A"/>
<path d="M147.689,512.949L134.805,512.949L134.805,525.833L147.689,525.833L147.689,512.949Z" fill="#01008A"/>
<path d="M160.578,512.949L147.693,512.949L147.693,525.833L160.578,525.833L160.578,512.949Z" fill="#01008A"/>
<path d="M186.351,512.949L173.467,512.949L173.467,525.833L186.351,525.833L186.351,512.949Z" fill="#01008A"/>
<path d="M212.119,512.949L199.234,512.949L199.234,525.833L212.119,525.833L212.119,512.949Z" fill="#01008A"/>
<path d="M225.001,512.949L212.117,512.949L212.117,525.833L225.001,525.833L225.001,512.949Z" fill="#01008A"/>
<path d="M237.886,512.949L225.002,512.949L225.002,525.833L237.886,525.833L237.886,512.949Z" fill="#01008A"/>
<path d="M263.656,512.949L250.771,512.949L250.771,525.833L263.656,525.833L263.656,512.949Z" fill="#01008A"/>
<path d="M276.54,512.949L263.656,512.949L263.656,525.833L276.54,525.833L276.54,512.949Z" fill="#01008A"/>
<path d="M290.184,512.949L276.539,512.949L276.539,525.833L290.184,525.833L290.184,512.949Z" fill="#01008A"/>
<path d="M303.068,512.949L290.184,512.949L290.184,525.833L303.068,525.833L303.068,512.949Z" fill="#01008A"/>
<path d="M328.837,512.949L315.953,512.949L315.953,525.833L328.837,525.833L328.837,512.949Z" fill="#01008A"/>
<path d="M354.607,512.949L341.723,512.949L341.723,525.833L354.607,525.833L354.607,512.949Z" fill="#01008A"/>
<path d="M367.498,512.949L354.613,512.949L354.613,525.833L367.498,525.833L367.498,512.949Z" fill="#01008A"/>
<path d="M394.026,512.949L380.381,512.949L380.381,525.833L394.026,525.833L394.026,512.949Z" fill="#01008A"/>
<path d="M121.921,512.949L109.037,512.949L109.037,525.833L121.921,525.833L121.921,512.949Z" fill="#01008A"/>
<path d="M147.689,500.064L134.805,500.064L134.805,512.948L147.689,512.948L147.689,500.064Z" fill="#01008A"/>
<path d="M160.578,500.064L147.693,500.064L147.693,512.948L160.578,512.948L160.578,500.064Z" fill="#01008A"/>
<path d="M186.351,500.064L173.467,500.064L173.467,512.948L186.351,512.948L186.351,500.064Z" fill="#01008A"/>
<path d="M212.119,500.064L199.234,500.064L199.234,512.948L212.119,512.948L212.119,500.064Z" fill="#01008A"/>
<path d="M237.886,500.064L225.002,500.064L225.002,512.948L237.886,512.948L237.886,500.064Z" fill="#01008A"/>
<path d="M263.656,500.064L250.771,500.064L250.771,512.948L263.656,512.948L263.656,500.064Z" fill="#01008A"/>
<path d="M328.837,500.064L315.953,500.064L315.953,512.948L328.837,512.948L328.837,500.064Z" fill="#01008A"/>
<path d="M354.607,500.064L341.723,500.064L341.723,512.948L354.607,512.948L354.607,500.064Z" fill="#01008A"/>
<path d="M367.498,500.064L354.613,500.064L354.613,512.948L367.498,512.948L367.498,500.064Z" fill="#01008A"/>
<path d="M394.026,500.064L380.381,500.064L380.381,512.948L394.026,512.948L394.026,500.064Z" fill="#01008A"/>
<path d="M121.921,500.064L109.037,500.064L109.037,512.948L121.921,512.948L121.921,500.064Z" fill="#01008A"/>
<path d="M186.351,487.18L173.467,487.18L173.467,500.064L186.351,500.064L186.351,487.18Z" fill="#01008A"/>
<path d="M212.119,487.18L199.234,487.18L199.234,500.064L212.119,500.064L212.119,487.18Z" fill="#01008A"/>
<path d="M225.001,487.18L212.117,487.18L212.117,500.064L225.001,500.064L225.001,487.18Z" fill="#01008A"/>
<path d="M237.886,487.18L225.002,487.18L225.002,500.064L237.886,500.064L237.886,487.18Z" fill="#01008A"/>
<path d="M263.656,487.18L250.771,487.18L250.771,500.064L263.656,500.064L263.656,487.18Z" fill="#01008A"/>
<path d="M276.54,487.18L263.656,487.18L263.656,500.064L276.54,500.064L276.54,487.18Z" fill="#01008A"/>
<path d="M303.068,487.18L290.184,487.18L290.184,500.064L303.068,500.064L303.068,487.18Z" fill="#01008A"/>
<path d="M328.837,487.18L315.953,487.18L315.953,500.064L328.837,500.064L328.837,487.18Z" fill="#01008A"/>
<path d="M394.026,487.18L380.381,487.18L380.381,500.064L394.026,500.064L394.026,487.18Z" fill="#01008A"/>
<path d="M121.921,487.18L109.037,487.18L109.037,500.064L121.921,500.064L121.921,487.18Z" fill="#01008A"/>
<path d="M134.804,474.296L121.92,474.296L121.92,487.18L134.804,487.18L134.804,474.296Z" fill="#01008A"/>
<path d="M147.689,474.296L134.805,474.296L134.805,487.18L147.689,487.18L147.689,474.296Z" fill="#01008A"/>
<path d="M160.578,474.296L147.693,474.296L147.693,487.18L160.578,487.18L160.578,474.296Z" fill="#01008A"/>
<path d="M173.458,474.296L160.574,474.296L160.574,487.18L173.458,487.18L173.458,474.296Z" fill="#01008A"/>
<path d="M186.351,474.296L173.467,474.296L173.467,487.18L186.351,487.18L186.351,474.296Z" fill="#01008A"/>
<path d="M212.119,474.296L199.234,474.296L199.234,487.18L212.119,487.18L212.119,474.296Z" fill="#01008A"/>
<path d="M237.886,474.296L225.002,474.296L225.002,487.18L237.886,487.18L237.886,474.296Z" fill="#01008A"/>
<path d="M250.775,474.296L237.891,474.296L237.891,487.18L250.775,487.18L250.775,474.296Z" fill="#01008A"/>
<path d="M276.54,474.296L263.656,474.296L263.656,487.18L276.54,487.18L276.54,474.296Z" fill="#01008A"/>
<path d="M328.837,474.296L315.953,474.296L315.953,487.18L328.837,487.18L328.837,474.296Z" fill="#01008A"/>
<path d="M341.722,474.296L328.838,474.296L328.838,487.18L341.722,487.18L341.722,474.296Z" fill="#01008A"/>
<path d="M354.607,474.296L341.723,474.296L341.723,487.18L354.607,487.18L354.607,474.296Z" fill="#01008A"/>
<path d="M367.498,474.296L354.613,474.296L354.613,487.18L367.498,487.18L367.498,474.296Z" fill="#01008A"/>
<path d="M380.382,474.296L367.498,474.296L367.498,487.18L380.382,487.18L380.382,474.296Z" fill="#01008A"/>
<path d="M394.026,474.296L380.381,474.296L380.381,487.18L394.026,487.18L394.026,474.296Z" fill="#01008A"/>
<path d="M121.921,474.296L109.037,474.296L109.037,487.18L121.921,487.18L121.921,474.296Z" fill="#01008A"/>
<path d="M250.775,461.412L237.891,461.412L237.891,474.296L250.775,474.296L250.775,461.412Z" fill="#01008A"/>
<path d="M263.656,461.412L250.771,461.412L250.771,474.296L263.656,474.296L263.656,461.412Z" fill="#01008A"/>
<path d="M276.54,461.412L263.656,461.412L263.656,474.296L276.54,474.296L276.54,461.412Z" fill="#01008A"/>
<path d="M303.068,461.412L290.184,461.412L290.184,474.296L303.068,474.296L303.068,461.412Z" fill="#01008A"/>
<path d="M134.804,448.528L121.92,448.528L121.92,461.412L134.804,461.412L134.804,448.528Z" fill="#01008A"/>
<path d="M147.689,448.528L134.805,448.528L134.805,461.412L147.689,461.412L147.689,448.528Z" fill="#01008A"/>
<path d="M160.578,448.528L147.693,448.528L147.693,461.412L160.578,461.412L160.578,448.528Z" fill="#01008A"/>
<path d="M173.458,448.528L160.574,448.528L160.574,461.412L173.458,461.412L173.458,448.528Z" fill="#01008A"/>
<path d="M212.119,448.528L199.234,448.528L199.234,461.412L212.119,461.412L212.119,448.528Z" fill="#01008A"/>
<path d="M225.001,448.528L212.117,448.528L212.117,461.412L225.001,461.412L225.001,448.528Z" fill="#01008A"/>
<path d="M237.886,448.528L225.002,448.528L225.002,461.412L237.886,461.412L237.886,448.528Z" fill="#01008A"/>
<path d="M263.656,448.528L250.771,448.528L250.771,461.412L263.656,461.412L263.656,448.528Z" fill="#01008A"/>
<path d="M276.54,448.528L263.656,448.528L263.656,461.412L276.54,461.412L276.54,448.528Z" fill="#01008A"/>
<path d="M290.184,448.528L276.539,448.528L276.539,461.412L290.184,461.412L290.184,448.528Z" fill="#01008A"/>
<path d="M303.068,448.528L290.184,448.528L290.184,461.412L303.068,461.412L303.068,448.528Z" fill="#01008A"/>
<path d="M315.953,448.528L303.068,448.528L303.068,461.412L315.953,461.412L315.953,448.528Z" fill="#01008A"/>
<path d="M328.837,448.528L315.953,448.528L315.953,461.412L328.837,461.412L328.837,448.528Z" fill="#01008A"/>
<path d="M341.722,448.528L328.838,448.528L328.838,461.412L341.722,461.412L341.722,448.528Z" fill="#01008A"/>
<path d="M354.607,448.528L341.723,448.528L341.723,461.412L354.607,461.412L354.607,448.528Z" fill="#01008A"/>
<path d="M380.382,448.528L367.498,448.528L367.498,461.412L380.382,461.412L380.382,448.528Z" fill="#01008A"/>
<path d="M394.026,448.528L380.381,448.528L380.381,461.412L394.026,461.412L394.026,448.528Z" fill="#01008A"/>
<path d="M147.689,435.643L134.805,435.643L134.805,448.527L147.689,448.527L147.689,435.643Z" fill="#01008A"/>
<path d="M160.578,435.643L147.693,435.643L147.693,448.527L160.578,448.527L160.578,435.643Z" fill="#01008A"/>
<path d="M199.234,435.643L186.35,435.643L186.35,448.527L199.234,448.527L199.234,435.643Z" fill="#01008A"/>
<path d="M212.119,435.643L199.234,435.643L199.234,448.527L212.119,448.527L212.119,435.643Z" fill="#01008A"/>
<path d="M237.886,435.643L225.002,435.643L225.002,448.527L237.886,448.527L237.886,435.643Z" fill="#01008A"/>
<path d="M276.54,435.643L263.656,435.643L263.656,448.527L276.54,448.527L276.54,435.643Z" fill="#01008A"/>
<path d="M303.068,435.643L290.184,435.643L290.184,448.527L303.068,448.527L303.068,435.643Z" fill="#01008A"/>
<path d="M315.953,435.643L303.068,435.643L303.068,448.527L315.953,448.527L315.953,435.643Z" fill="#01008A"/>
<path d="M341.722,435.643L328.838,435.643L328.838,448.527L341.722,448.527L341.722,435.643Z" fill="#01008A"/>
<path d="M354.607,435.643L341.723,435.643L341.723,448.527L354.607,448.527L354.607,435.643Z" fill="#01008A"/>
<path d="M134.804,422.759L121.92,422.759L121.92,435.643L134.804,435.643L134.804,422.759Z" fill="#01008A"/>
<path d="M160.578,422.759L147.693,422.759L147.693,435.643L160.578,435.643L160.578,422.759Z" fill="#01008A"/>
<path d="M173.458,422.759L160.574,422.759L160.574,435.643L173.458,435.643L173.458,422.759Z" fill="#01008A"/>
<path d="M186.351,422.759L173.467,422.759L173.467,435.643L186.351,435.643L186.351,422.759Z" fill="#01008A"/>
<path d="M199.234,422.759L186.35,422.759L186.35,435.643L199.234,435.643L199.234,422.759Z" fill="#01008A"/>
<path d="M225.001,422.759L212.117,422.759L212.117,435.643L225.001,435.643L225.001,422.759Z" fill="#01008A"/>
<path d="M237.886,422.759L225.002,422.759L225.002,435.643L237.886,435.643L237.886,422.759Z" fill="#01008A"/>
<path d="M250.775,422.759L237.891,422.759L237.891,435.643L250.775,435.643L250.775,422.759Z" fill="#01008A"/>
<path d="M263.656,422.759L250.771,422.759L250.771,435.643L263.656,435.643L263.656,422.759Z" fill="#01008A"/>
<path d="M276.54,422.759L263.656,422.759L263.656,435.643L276.54,435.643L276.54,422.759Z" fill="#01008A"/>
<path d="M290.184,422.759L276.539,422.759L276.539,435.643L290.184,435.643L290.184,422.759Z" fill="#01008A"/>
<path d="M354.607,422.759L341.723,422.759L341.723,435.643L354.607,435.643L354.607,422.759Z" fill="#01008A"/>
<path d="M367.498,422.759L354.613,422.759L354.613,435.643L367.498,435.643L367.498,422.759Z" fill="#01008A"/>
<path d="M394.026,422.759L380.381,422.759L380.381,435.643L394.026,435.643L394.026,422.759Z" fill="#01008A"/>
<path d="M121.921,422.759L109.037,422.759L109.037,435.643L121.921,435.643L121.921,422.759Z" fill="#01008A"/>
<path d="M134.804,409.875L121.92,409.875L121.92,422.759L134.804,422.759L134.804,409.875Z" fill="#01008A"/>
<path d="M147.689,409.875L134.805,409.875L134.805,422.759L147.689,422.759L147.689,409.875Z" fill="#01008A"/>
<path d="M160.578,409.875L147.693,409.875L147.693,422.759L160.578,422.759L160.578,409.875Z" fill="#01008A"/>
<path d="M212.119,409.875L199.234,409.875L199.234,422.759L212.119,422.759L212.119,409.875Z" fill="#01008A"/>
<path d="M225.001,409.875L212.117,409.875L212.117,422.759L225.001,422.759L225.001,409.875Z" fill="#01008A"/>
<path d="M276.54,409.875L263.656,409.875L263.656,422.759L276.54,422.759L276.54,409.875Z" fill="#01008A"/>
<path d="M315.953,409.875L303.068,409.875L303.068,422.759L315.953,422.759L315.953,409.875Z" fill="#01008A"/>
<path d="M328.837,409.875L315.953,409.875L315.953,422.759L328.837,422.759L328.837,409.875Z" fill="#01008A"/>
<path d="M354.607,409.875L341.723,409.875L341.723,422.759L354.607,422.759L354.607,409.875Z" fill="#01008A"/>
<path d="M367.498,409.875L354.613,409.875L354.613,422.759L367.498,422.759L367.498,409.875Z" fill="#01008A"/>
<path d="M380.382,409.875L367.498,409.875L367.498,422.759L380.382,422.759L380.382,409.875Z" fill="#01008A"/>
<path d="M394.026,409.875L380.381,409.875L380.381,422.759L394.026,422.759L394.026,409.875Z" fill="#01008A"/>
<path d="M121.921,409.875L109.037,409.875L109.037,422.759L121.921,422.759L121.921,409.875Z" fill="#01008A"/>
<path d="M160.578,396.99L147.693,396.99L147.693,409.874L160.578,409.874L160.578,396.99Z" fill="#01008A"/>
<path d="M173.458,396.99L160.574,396.99L160.574,409.874L173.458,409.874L173.458,396.99Z" fill="#01008A"/>
<path d="M186.351,396.99L173.467,396.99L173.467,409.874L186.351,409.874L186.351,396.99Z" fill="#01008A"/>
<path d="M199.234,396.99L186.35,396.99L186.35,409.874L199.234,409.874L199.234,396.99Z" fill="#01008A"/>
<path d="M212.119,396.99L199.234,396.99L199.234,409.874L212.119,409.874L212.119,396.99Z" fill="#01008A"/>
<path d="M225.001,396.99L212.117,396.99L212.117,409.874L225.001,409.874L225.001,396.99Z" fill="#01008A"/>
<path d="M263.656,396.99L250.771,396.99L250.771,409.874L263.656,409.874L263.656,396.99Z" fill="#01008A"/>
<path d="M303.068,396.99L290.184,396.99L290.184,409.874L303.068,409.874L303.068,396.99Z" fill="#01008A"/>
<path d="M315.953,396.99L303.068,396.99L303.068,409.874L315.953,409.874L315.953,396.99Z" fill="#01008A"/>
<path d="M367.498,396.99L354.613,396.99L354.613,409.874L367.498,409.874L367.498,396.99Z" fill="#01008A"/>
<path d="M121.921,396.99L109.037,396.99L109.037,409.874L121.921,409.874L121.921,396.99Z" fill="#01008A"/>
<path d="M134.804,384.106L121.92,384.106L121.92,396.991L134.804,396.991L134.804,384.106Z" fill="#01008A"/>
<path d="M147.689,384.106L134.805,384.106L134.805,396.991L147.689,396.991L147.689,384.106Z" fill="#01008A"/>
<path d="M160.578,384.106L147.693,384.106L147.693,396.991L160.578,396.991L160.578,384.106Z" fill="#01008A"/>
<path d="M173.458,384.106L160.574,384.106L160.574,396.991L173.458,396.991L173.458,384.106Z" fill="#01008A"/>
<path d="M199.234,384.106L186.35,384.106L186.35,396.991L199.234,396.991L199.234,384.106Z" fill="#01008A"/>
<path d="M225.001,384.106L212.117,384.106L212.117,396.991L225.001,396.991L225.001,384.106Z" fill="#01008A"/>
<path d="M237.886,384.106L225.002,384.106L225.002,396.991L237.886,396.991L237.886,384.106Z" fill="#01008A"/>
<path d="M263.656,384.106L250.771,384.106L250.771,396.991L263.656,396.991L263.656,384.106Z" fill="#01008A"/>
<path d="M276.54,384.106L263.656,384.106L263.656,396.991L276.54,396.991L276.54,384.106Z" fill="#01008A"/>
<path d="M290.184,384.106L276.539,384.106L276.539,396.991L290.184,396.991L290.184,384.106Z" fill="#01008A"/>
<path d="M303.068,384.106L290.184,384.106L290.184,396.991L303.068,396.991L303.068,384.106Z" fill="#01008A"/>
<path d="M328.837,384.106L315.953,384.106L315.953,396.991L328.837,396.991L328.837,384.106Z" fill="#01008A"/>
<path d="M341.722,384.106L328.838,384.106L328.838,396.991L341.722,396.991L341.722,384.106Z" fill="#01008A"/>
<path d="M354.607,384.106L341.723,384.106L341.723,396.991L354.607,396.991L354.607,384.106Z" fill="#01008A"/>
<path d="M367.498,384.106L354.613,384.106L354.613,396.991L367.498,396.991L367.498,384.106Z" fill="#01008A"/>
<path d="M394.026,384.106L380.381,384.106L380.381,396.991L394.026,396.991L394.026,384.106Z" fill="#01008A"/>
<path d="M134.804,371.214L121.92,371.214L121.92,384.099L134.804,384.099L134.804,371.214Z" fill="#01008A"/>
<path d="M160.578,371.214L147.693,371.214L147.693,384.099L160.578,384.099L160.578,371.214Z" fill="#01008A"/>
<path d="M186.351,371.214L173.467,371.214L173.467,384.099L186.351,384.099L186.351,371.214Z" fill="#01008A"/>
<path d="M199.234,371.214L186.35,371.214L186.35,384.099L199.234,384.099L199.234,371.214Z" fill="#01008A"/>
<path d="M237.886,371.214L225.002,371.214L225.002,384.099L237.886,384.099L237.886,371.214Z" fill="#01008A"/>
<path d="M250.775,371.214L237.891,371.214L237.891,384.099L250.775,384.099L250.775,371.214Z" fill="#01008A"/>
<path d="M263.656,371.214L250.771,371.214L250.771,384.099L263.656,384.099L263.656,371.214Z" fill="#01008A"/>
<path d="M290.184,371.214L276.539,371.214L276.539,384.099L290.184,384.099L290.184,371.214Z" fill="#01008A"/>
<path d="M303.068,371.214L290.184,371.214L290.184,384.099L303.068,384.099L303.068,371.214Z" fill="#01008A"/>
<path d="M315.953,371.214L303.068,371.214L303.068,384.099L315.953,384.099L315.953,371.214Z" fill="#01008A"/>
<path d="M341.722,371.214L328.838,371.214L328.838,384.099L341.722,384.099L341.722,371.214Z" fill="#01008A"/>
<path d="M367.498,371.214L354.613,371.214L354.613,384.099L367.498,384.099L367.498,371.214Z" fill="#01008A"/>
<path d="M380.382,371.214L367.498,371.214L367.498,384.099L380.382,384.099L380.382,371.214Z" fill="#01008A"/>
<path d="M394.026,371.214L380.381,371.214L380.381,384.099L394.026,384.099L394.026,371.214Z" fill="#01008A"/>
<path d="M121.921,371.214L109.037,371.214L109.037,384.099L121.921,384.099L121.921,371.214Z" fill="#01008A"/>
<path d="M134.804,358.331L121.92,358.331L121.92,371.215L134.804,371.215L134.804,358.331Z" fill="#01008A"/>
<path d="M186.351,358.331L173.467,358.331L173.467,371.215L186.351,371.215L186.351,358.331Z" fill="#01008A"/>
<path d="M199.234,358.331L186.35,358.331L186.35,371.215L199.234,371.215L199.234,358.331Z" fill="#01008A"/>
<path d="M225.001,358.331L212.117,358.331L212.117,371.215L225.001,371.215L225.001,358.331Z" fill="#01008A"/>
<path d="M237.886,358.331L225.002,358.331L225.002,371.215L237.886,371.215L237.886,358.331Z" fill="#01008A"/>
<path d="M263.656,358.331L250.771,358.331L250.771,371.215L263.656,371.215L263.656,358.331Z" fill="#01008A"/>
<path d="M276.54,358.331L263.656,358.331L263.656,371.215L276.54,371.215L276.54,358.331Z" fill="#01008A"/>
<path d="M303.068,358.331L290.184,358.331L290.184,371.215L303.068,371.215L303.068,358.331Z" fill="#01008A"/>
<path d="M315.953,358.331L303.068,358.331L303.068,371.215L315.953,371.215L315.953,358.331Z" fill="#01008A"/>
<path d="M328.837,358.331L315.953,358.331L315.953,371.215L328.837,371.215L328.837,358.331Z" fill="#01008A"/>
<path d="M341.722,358.331L328.838,358.331L328.838,371.215L341.722,371.215L341.722,358.331Z" fill="#01008A"/>
<path d="M354.607,358.331L341.723,358.331L341.723,371.215L354.607,371.215L354.607,358.331Z" fill="#01008A"/>
<path d="M367.498,358.331L354.613,358.331L354.613,371.215L367.498,371.215L367.498,358.331Z" fill="#01008A"/>
<path d="M121.921,358.331L109.037,358.331L109.037,371.215L121.921,371.215L121.921,358.331Z" fill="#01008A"/>
<path d="M225.001,345.445L212.117,345.445L212.117,358.33L225.001,358.33L225.001,345.445Z" fill="#01008A"/>
<path d="M250.775,345.445L237.891,345.445L237.891,358.33L250.775,358.33L250.775,345.445Z" fill="#01008A"/>
<path d="M263.656,345.445L250.771,345.445L250.771,358.33L263.656,358.33L263.656,345.445Z" fill="#01008A"/>
<path d="M290.184,345.445L276.539,345.445L276.539,358.33L290.184,358.33L290.184,345.445Z" fill="#01008A"/>
<path d="M303.068,345.445L290.184,345.445L290.184,358.33L303.068,358.33L303.068,345.445Z" fill="#01008A"/>
<path d="M315.953,345.445L303.068,345.445L303.068,358.33L315.953,358.33L315.953,345.445Z" fill="#01008A"/>
<path d="M134.804,332.562L121.92,332.562L121.92,345.446L134.804,345.446L134.804,332.562Z" fill="#01008A"/>
<path d="M147.689,332.562L134.805,332.562L134.805,345.446L147.689,345.446L147.689,332.562Z" fill="#01008A"/>
<path d="M160.578,332.562L147.693,332.562L147.693,345.446L160.578,345.446L160.578,332.562Z" fill="#01008A"/>
<path d="M173.458,332.562L160.574,332.562L160.574,345.446L173.458,345.446L173.458,332.562Z" fill="#01008A"/>
<path d="M186.351,332.562L173.467,332.562L173.467,345.446L186.351,345.446L186.351,332.562Z" fill="#01008A"/>
<path d="M212.119,332.562L199.234,332.562L199.234,345.446L212.119,345.446L212.119,332.562Z" fill="#01008A"/>
<path d="M225.001,332.562L212.117,332.562L212.117,345.446L225.001,345.446L225.001,332.562Z" fill="#01008A"/>
<path d="M263.656,332.562L250.771,332.562L250.771,345.446L263.656,345.446L263.656,332.562Z" fill="#01008A"/>
<path d="M315.953,332.562L303.068,332.562L303.068,345.446L315.953,345.446L315.953,332.562Z" fill="#01008A"/>
<path d="M328.837,332.562L315.953,332.562L315.953,345.446L328.837,345.446L328.837,332.562Z" fill="#01008A"/>
<path d="M354.607,332.562L341.723,332.562L341.723,345.446L354.607,345.446L354.607,332.562Z" fill="#01008A"/>
<path d="M394.026,332.562L380.381,332.562L380.381,345.446L394.026,345.446L394.026,332.562Z" fill="#01008A"/>
<path d="M121.921,332.562L109.037,332.562L109.037,345.446L121.921,345.446L121.921,332.562Z" fill="#01008A"/>
<path d="M186.351,319.677L173.467,319.677L173.467,332.561L186.351,332.561L186.351,319.677Z" fill="#01008A"/>
<path d="M290.184,319.677L276.539,319.677L276.539,332.561L290.184,332.561L290.184,319.677Z" fill="#01008A"/>
<path d="M303.068,319.677L290.184,319.677L290.184,332.561L303.068,332.561L303.068,319.677Z" fill="#01008A"/>
<path d="M328.837,319.677L315.953,319.677L315.953,332.561L328.837,332.561L328.837,319.677Z" fill="#01008A"/>
<path d="M341.722,319.677L328.838,319.677L328.838,332.561L341.722,332.561L341.722,319.677Z" fill="#01008A"/>
<path d="M367.498,319.677L354.613,319.677L354.613,332.561L367.498,332.561L367.498,319.677Z" fill="#01008A"/>
<path d="M380.382,319.677L367.498,319.677L367.498,332.561L380.382,332.561L380.382,319.677Z" fill="#01008A"/>
<path d="M394.026,319.677L380.381,319.677L380.381,332.561L394.026,332.561L394.026,319.677Z" fill="#01008A"/>
<path d="M121.921,319.677L109.037,319.677L109.037,332.561L121.921,332.561L121.921,319.677Z" fill="#01008A"/>
<path d="M147.689,306.792L134.805,306.792L134.805,319.677L147.689,319.677L147.689,306.792Z" fill="#01008A"/>
<path d="M160.578,306.792L147.693,306.792L147.693,319.677L160.578,319.677L160.578,306.792Z" fill="#01008A"/>
<path d="M186.351,306.792L173.467,306.792L173.467,319.677L186.351,319.677L186.351,306.792Z" fill="#01008A"/>
<path d="M212.119,306.792L199.234,306.792L199.234,319.677L212.119,319.677L212.119,306.792Z" fill="#01008A"/>
<path d="M225.001,306.792L212.117,306.792L212.117,319.677L225.001,319.677L225.001,306.792Z" fill="#01008A"/>
<path d="M250.775,306.792L237.891,306.792L237.891,319.677L250.775,319.677L250.775,306.792Z" fill="#01008A"/>
<path d="M263.656,306.792L250.771,306.792L250.771,319.677L263.656,319.677L263.656,306.792Z" fill="#01008A"/>
<path d="M290.184,306.792L276.539,306.792L276.539,319.677L290.184,319.677L290.184,306.792Z" fill="#01008A"/>
<path d="M341.722,306.792L328.838,306.792L328.838,319.677L341.722,319.677L341.722,306.792Z" fill="#01008A"/>
<path d="M354.607,306.792L341.723,306.792L341.723,319.677L354.607,319.677L354.607,306.792Z" fill="#01008A"/>
<path d="M367.498,306.792L354.613,306.792L354.613,319.677L367.498,319.677L367.498,306.792Z" fill="#01008A"/>
<path d="M121.921,306.792L109.037,306.792L109.037,319.677L121.921,319.677L121.921,306.792Z" fill="#01008A"/>
<path d="M147.689,293.909L134.805,293.909L134.805,306.793L147.689,306.793L147.689,293.909Z" fill="#01008A"/>
<path d="M160.578,293.909L147.693,293.909L147.693,306.793L160.578,306.793L160.578,293.909Z" fill="#01008A"/>
<path d="M186.351,293.909L173.467,293.909L173.467,306.793L186.351,306.793L186.351,293.909Z" fill="#01008A"/>
<path d="M212.119,293.909L199.234,293.909L199.234,306.793L212.119,306.793L212.119,293.909Z" fill="#01008A"/>
<path d="M237.886,293.909L225.002,293.909L225.002,306.793L237.886,306.793L237.886,293.909Z" fill="#01008A"/>
<path d="M250.775,293.909L237.891,293.909L237.891,306.793L250.775,306.793L250.775,293.909Z" fill="#01008A"/>
<path d="M263.656,293.909L250.771,293.909L250.771,306.793L263.656,306.793L263.656,293.909Z" fill="#01008A"/>
<path d="M276.54,293.909L263.656,293.909L263.656,306.793L276.54,306.793L276.54,293.909Z" fill="#01008A"/>
<path d="M290.184,293.909L276.539,293.909L276.539,306.793L290.184,306.793L290.184,293.909Z" fill="#01008A"/>
<path d="M315.953,293.909L303.068,293.909L303.068,306.793L315.953,306.793L315.953,293.909Z" fill="#01008A"/>
<path d="M328.837,293.909L315.953,293.909L315.953,306.793L328.837,306.793L328.837,293.909Z" fill="#01008A"/>
<path d="M341.722,293.909L328.838,293.909L328.838,306.793L341.722,306.793L341.722,293.909Z" fill="#01008A"/>
<path d="M367.498,293.909L354.613,293.909L354.613,306.793L367.498,306.793L367.498,293.909Z" fill="#01008A"/>
<path d="M380.382,293.909L367.498,293.909L367.498,306.793L380.382,306.793L380.382,293.909Z" fill="#01008A"/>
<path d="M394.026,293.909L380.381,293.909L380.381,306.793L394.026,306.793L394.026,293.909Z" fill="#01008A"/>
<path d="M121.921,293.909L109.037,293.909L109.037,306.793L121.921,306.793L121.921,293.909Z" fill="#01008A"/>
<path d="M186.351,281.024L173.467,281.024L173.467,293.909L186.351,293.909L186.351,281.024Z" fill="#01008A"/>
<path d="M237.886,281.024L225.002,281.024L225.002,293.909L237.886,293.909L237.886,281.024Z" fill="#01008A"/>
<path d="M250.775,281.024L237.891,281.024L237.891,293.909L250.775,293.909L250.775,281.024Z" fill="#01008A"/>
<path d="M276.54,281.024L263.656,281.024L263.656,293.909L276.54,293.909L276.54,281.024Z" fill="#01008A"/>
<path d="M290.184,281.024L276.539,281.024L276.539,293.909L290.184,293.909L290.184,281.024Z" fill="#01008A"/>
<path d="M303.068,281.024L290.184,281.024L290.184,293.909L303.068,293.909L303.068,281.024Z" fill="#01008A"/>
<path d="M315.953,281.024L303.068,281.024L303.068,293.909L315.953,293.909L315.953,281.024Z" fill="#01008A"/>
<path d="M380.382,281.024L367.498,281.024L367.498,293.909L380.382,293.909L380.382,281.024Z" fill="#01008A"/>
<path d="M121.921,281.024L109.037,281.024L109.037,293.909L121.921,293.909L121.921,281.024Z" fill="#01008A"/>
<path d="M134.804,268.14L121.92,268.14L121.92,281.024L134.804,281.024L134.804,268.14Z" fill="#01008A"/>
<path d="M147.689,268.14L134.805,268.14L134.805,281.024L147.689,281.024L147.689,268.14Z" fill="#01008A"/>
<path d="M160.578,268.14L147.693,268.14L147.693,281.024L160.578,281.024L160.578,268.14Z" fill="#01008A"/>
<path d="M173.458,268.14L160.574,268.14L160.574,281.024L173.458,281.024L173.458,268.14Z" fill="#01008A"/>
<path d="M186.351,268.14L173.467,268.14L173.467,281.024L186.351,281.024L186.351,268.14Z" fill="#01008A"/>
<path d="M212.119,268.14L199.234,268.14L199.234,281.024L212.119,281.024L212.119,268.14Z" fill="#01008A"/>
<path d="M225.001,268.14L212.117,268.14L212.117,281.024L225.001,281.024L225.001,268.14Z" fill="#01008A"/>
<path d="M290.184,268.14L276.539,268.14L276.539,281.024L290.184,281.024L290.184,268.14Z" fill="#01008A"/>
<path d="M315.953,268.14L303.068,268.14L303.068,281.024L315.953,281.024L315.953,268.14Z" fill="#01008A"/>
<path d="M341.722,268.14L328.838,268.14L328.838,281.024L341.722,281.024L341.722,268.14Z" fill="#01008A"/>
<path d="M354.607,268.14L341.723,268.14L341.723,281.024L354.607,281.024L354.607,268.14Z" fill="#01008A"/>
<path d="M394.026,268.14L380.381,268.14L380.381,281.024L394.026,281.024L394.026,268.14Z" fill="#01008A"/>
<path d="M121.921,268.14L109.037,268.14L109.037,281.024L121.921,281.024L121.921,268.14Z" fill="#01008A"/>
<g opacity="0.8">
<g opacity="0.8">
<g opacity="0.8">
<g opacity="0.8">
<path d="M65.976,293.513C63.446,293.513 61.396,291.464 61.396,288.934L61.396,226.446C61.396,223.915 63.446,221.866 65.976,221.866L129.031,221.866C131.561,221.866 133.61,223.915 133.61,226.446C133.61,228.976 131.561,231.025 129.031,231.025L70.563,231.025L70.563,288.934C70.555,291.464 68.506,293.513 65.976,293.513Z" fill="#FFFFFF"/>
</g>
</g>
</g>
<g opacity="0.8">
<g opacity="0.8">
<g opacity="0.8">
<path d="M437.087,293.793C434.557,293.793 432.508,291.744 432.508,289.214L432.508,230.746L374.599,230.746C372.069,230.746 370.02,228.696 370.02,226.166C370.02,223.636 372.069,221.587 374.599,221.587L437.087,221.587C439.618,221.587 441.667,223.636 441.667,226.166L441.667,289.221C441.674,291.744 439.618,293.793 437.087,293.793Z" fill="#FFFFFF"/>
</g>
</g>
</g>
</g>
<g opacity="0.8">
<g opacity="0.8">
<g opacity="0.8">
<g opacity="0.8">
<path d="M437.089,607.827L374.034,607.827C371.504,607.827 369.455,605.778 369.455,603.248C369.455,600.718 371.504,598.661 374.034,598.661L432.502,598.661L432.502,540.752C432.502,538.221 434.551,536.172 437.082,536.172C439.612,536.172 441.661,538.221 441.661,540.752L441.661,603.24C441.677,605.778 439.62,607.827 437.089,607.827Z" fill="#FFFFFF"/>
</g>
</g>
</g>
<g opacity="0.8">
<g opacity="0.8">
<g opacity="0.8">
<path d="M128.464,608.106L65.976,608.106C63.446,608.106 61.396,606.057 61.396,603.526L61.396,540.471C61.396,537.941 63.446,535.892 65.976,535.892C68.506,535.892 70.555,537.941 70.555,540.471L70.555,598.939L128.464,598.939C130.995,598.939 133.044,600.988 133.044,603.519C133.044,606.049 130.995,608.106 128.464,608.106Z" fill="#FFFFFF"/>
</g>
</g>
</g>
</g>
<path d="M413.644,694.773L413.644,703.535C413.644,708.317 409.732,712.221 404.958,712.221L98.119,712.221C93.338,712.221 89.434,708.309 89.434,703.535L89.434,694.773C89.434,689.991 93.345,686.087 98.119,686.087L404.958,686.087C409.732,686.087 413.644,689.991 413.644,694.773Z" fill="#FFFFFF"/>
<path d="M315.956,686.087L315.956,712.221L98.119,712.221C93.338,712.221 89.434,708.309 89.434,703.535L89.434,694.773C89.434,689.991 93.345,686.087 98.119,686.087L315.956,686.087Z" fill="#ED7D2B"/>
<path d="M270.566,686.087L246.466,712.221L201.363,712.221L225.471,686.087L270.566,686.087Z" fill="#F99746"/>
<path d="M315.954,686.087L315.954,712.221L274.158,712.221L298.258,686.087L315.954,686.087Z" fill="#F99746"/>
<path d="M197.956,686.087L173.849,712.221L128.754,712.221L152.861,686.087L197.956,686.087Z" fill="#F99746"/>
<path d="M125.347,686.087L101.24,712.221L97.933,712.221C93.152,712.221 89.248,708.309 89.248,703.535L89.248,694.773C89.248,689.991 93.16,686.087 97.933,686.087L125.347,686.087Z" fill="#F99746"/>
<path d="M218.285,671.171L220,669.137C221.553,670.48 223.105,671.241 225.115,671.241C226.877,671.241 227.987,670.434 227.987,669.161C227.987,668.004 227.335,667.376 224.331,666.661C220.885,665.854 218.937,664.83 218.937,661.803C218.937,659.024 221.25,657.099 224.471,657.099C226.831,657.099 228.709,657.813 230.354,659.133L228.825,661.283C227.366,660.196 225.907,659.614 224.424,659.614C222.756,659.614 221.786,660.468 221.786,661.585C221.786,662.835 222.531,663.394 225.628,664.131C229.058,664.962 230.836,666.196 230.836,668.92C230.836,671.955 228.453,673.756 225.045,673.756C222.57,673.763 220.226,672.909 218.285,671.171Z" fill="#FFFFFF"/>
<path d="M233.477,665.426C233.477,660.816 236.93,657.043 241.836,657.043C244.824,657.043 246.625,658.084 248.177,659.566L246.345,661.669C245.049,660.466 243.66,659.651 241.805,659.651C238.7,659.651 236.457,662.197 236.457,665.418C236.457,668.593 238.7,671.185 241.805,671.185C243.799,671.185 245.072,670.378 246.462,669.082L248.293,670.937C246.601,672.699 244.754,673.808 241.719,673.808C236.993,673.808 233.477,670.13 233.477,665.426Z" fill="#FFFFFF"/>
<path d="M257.023,657.207L259.662,657.207L266.795,673.53L263.784,673.53L262.138,669.618L254.478,669.618L252.809,673.53L249.891,673.53L257.023,657.207ZM261.098,667.095L258.296,660.614L255.518,667.095L261.098,667.095Z" fill="#FFFFFF"/>
<path d="M269.574,657.323L272.213,657.323L280.898,668.531L280.898,657.323L283.7,657.323L283.7,673.529L281.317,673.529L272.384,661.995L272.384,673.529L269.582,673.529L269.582,657.323L269.574,657.323Z" fill="#FFFFFF"/>
</svg>
