<svg width="28" height="28" viewBox="0 0 28 28" fill="none" xmlns="http://www.w3.org/2000/svg" xmlns:xlink="http://www.w3.org/1999/xlink">
<path d="M12.961,26.291C20.447,26.291 26.515,20.223 26.515,12.738C26.515,5.253 20.447,-0.815 12.961,-0.815C5.476,-0.815 -0.592,5.253 -0.592,12.738C-0.592,20.223 5.476,26.291 12.961,26.291Z" fill="#FF0000"/>
<path d="M8.224,8.006C8.37,7.86 8.568,7.779 8.774,7.779C8.98,7.779 9.178,7.86 9.324,8.006L13.437,12.121L17.552,8.006C17.624,7.932 17.71,7.872 17.805,7.831C17.9,7.79 18.002,7.769 18.105,7.768C18.209,7.767 18.311,7.786 18.407,7.825C18.503,7.864 18.589,7.922 18.663,7.995C18.736,8.068 18.794,8.155 18.833,8.251C18.872,8.347 18.891,8.449 18.89,8.553C18.889,8.656 18.868,8.758 18.827,8.853C18.786,8.948 18.726,9.034 18.652,9.106L14.537,13.219L18.652,17.334C18.793,17.481 18.871,17.677 18.869,17.881C18.867,18.085 18.785,18.279 18.641,18.423C18.497,18.567 18.302,18.649 18.099,18.651C17.895,18.653 17.699,18.575 17.552,18.434L13.437,14.319L9.322,18.434C9.175,18.575 8.979,18.653 8.775,18.651C8.572,18.649 8.377,18.567 8.233,18.423C8.089,18.279 8.007,18.085 8.005,17.881C8.003,17.677 8.081,17.481 8.222,17.334L12.338,13.219L8.224,9.106C8.078,8.96 7.996,8.762 7.996,8.556C7.996,8.35 8.078,8.152 8.224,8.006L8.224,8.006Z" clip-rule="evenodd" fill-rule="evenodd" fill="#FFFFFF" stroke="#FFFFFF" stroke-width="0.339" stroke-miterlimit="3.999327"/>
</svg>
