<svg width="582" height="586" viewBox="0 0 582 586" fill="none" xmlns="http://www.w3.org/2000/svg" xmlns:xlink="http://www.w3.org/1999/xlink">
<path d="M510.501,492.128C498.795,504.45 487.721,512.398 478.971,518.676C376.115,592.476 254.409,570.964 228.543,565.71C190.345,557.952 116.514,542.958 63.135,480.184C-17.622,385.212 -5.046,235.59 57.595,136.823C69.054,118.758 129.579,18.485 252.595,2.403C327.045,-7.329 413.827,12.298 476.675,64.952C608.591,175.474 599.201,398.748 510.501,492.128Z" fill="#EDEFFF"/>
<path d="M522.734,67.748C522.539,67.916 522.267,67.987 521.999,67.916C520.969,67.637 519.931,67.38 518.912,67.15C518.479,67.051 518.207,66.622 518.305,66.189C518.404,65.756 518.833,65.484 519.266,65.582C520.306,65.817 521.367,66.08 522.418,66.365C522.847,66.48 523.1,66.922 522.983,67.351C522.941,67.51 522.851,67.646 522.734,67.748Z" fill="#B9B9FF"/>
<path d="M552.789,200.377C551.366,201.601 549.882,202.786 548.379,203.897C548.023,204.161 547.519,204.085 547.255,203.73C546.992,203.374 547.059,202.874 547.423,202.606C549.153,201.325 550.849,199.95 552.473,198.521C552.475,198.518 552.477,198.516 552.481,198.514C552.814,198.228 553.316,198.261 553.609,198.592C553.902,198.924 553.871,199.433 553.538,199.726C553.289,199.944 553.04,200.161 552.789,200.377ZM561.012,192.137C560.717,192.393 560.271,192.399 559.965,192.137C559.628,191.849 559.588,191.342 559.877,191.003C561.28,189.366 562.629,187.646 563.889,185.894C564.147,185.53 564.651,185.453 565.011,185.71C565.371,185.97 565.453,186.472 565.193,186.832C563.906,188.621 562.527,190.377 561.097,192.047C561.07,192.083 561.041,192.112 561.012,192.137ZM570.683,177.914C570.44,178.124 570.084,178.176 569.783,178.015C569.389,177.808 569.241,177.32 569.448,176.929C570.459,175.018 571.396,173.044 572.238,171.064C572.409,170.656 572.882,170.466 573.293,170.637C573.701,170.811 573.891,171.282 573.717,171.692C572.859,173.714 571.901,175.729 570.869,177.68C570.821,177.772 570.758,177.851 570.683,177.914ZM576.972,161.91C576.777,162.078 576.505,162.149 576.239,162.078C575.81,161.962 575.557,161.521 575.67,161.092C576.227,159.012 576.702,156.881 577.079,154.755C577.156,154.317 577.572,154.024 578.01,154.104C578.447,154.181 578.738,154.598 578.661,155.035C578.276,157.205 577.792,159.384 577.223,161.508C577.179,161.672 577.091,161.81 576.972,161.91ZM579.523,144.91C579.374,145.038 579.18,145.111 578.97,145.102C578.527,145.086 578.179,144.713 578.196,144.269C578.276,142.118 578.261,139.933 578.158,137.775C578.138,137.332 578.481,136.955 578.922,136.932C579.366,136.911 579.743,137.252 579.764,137.696C579.87,139.897 579.883,142.128 579.803,144.326C579.795,144.565 579.688,144.77 579.523,144.91ZM578.234,127.763C578.131,127.851 578.004,127.916 577.859,127.943C577.424,128.025 577.003,127.738 576.919,127.303C576.518,125.18 576.022,123.052 575.446,120.978C575.327,120.551 575.578,120.107 576.005,119.988C576.432,119.869 576.876,120.12 576.995,120.547C577.583,122.665 578.091,124.837 578.5,127.005C578.554,127.296 578.443,127.581 578.234,127.763ZM573.184,111.322C573.123,111.374 573.056,111.416 572.979,111.449C572.571,111.625 572.098,111.439 571.922,111.033C571.062,109.053 570.107,107.088 569.084,105.189C568.872,104.798 569.019,104.313 569.41,104.101C569.802,103.89 570.287,104.036 570.499,104.428C571.545,106.366 572.52,108.373 573.397,110.392C573.542,110.723 573.445,111.098 573.184,111.322ZM564.611,96.41C564.597,96.423 564.58,96.435 564.563,96.448C564.205,96.711 563.703,96.634 563.439,96.276C562.309,94.742 561.108,93.233 559.869,91.791C559.704,91.598 559.536,91.406 559.369,91.215C559.076,90.883 559.109,90.374 559.442,90.081C559.444,90.079 559.446,90.077 559.448,90.075C559.781,89.788 560.285,89.822 560.576,90.154C560.748,90.349 560.917,90.546 561.087,90.742C562.353,92.216 563.58,93.756 564.733,95.324C564.984,95.665 564.927,96.138 564.611,96.41ZM552.923,83.794C552.626,84.05 552.18,84.056 551.874,83.794C550.244,82.39 548.528,81.036 546.776,79.768C546.416,79.508 546.334,79.004 546.596,78.646C546.86,78.288 547.358,78.204 547.718,78.466C549.507,79.759 551.259,81.143 552.923,82.576C553.26,82.867 553.297,83.374 553.009,83.711C552.981,83.738 552.952,83.767 552.923,83.794ZM538.725,74.079C538.482,74.288 538.124,74.341 537.823,74.18C535.912,73.163 533.943,72.219 531.965,71.373C531.557,71.199 531.366,70.726 531.542,70.318C531.718,69.91 532.189,69.72 532.597,69.896C534.616,70.758 536.63,71.723 538.578,72.761C538.97,72.97 539.118,73.456 538.911,73.849C538.863,73.939 538.798,74.016 538.725,74.079Z" fill="#B9B9FF"/>
<path d="M539.395,209.608C539.353,209.646 539.305,209.677 539.253,209.707C538.292,210.226 537.321,210.728 536.367,211.195C535.967,211.389 535.486,211.224 535.291,210.826C535.094,210.427 535.264,209.947 535.66,209.751C536.595,209.292 537.545,208.803 538.487,208.292C538.876,208.081 539.366,208.227 539.577,208.616C539.762,208.955 539.676,209.368 539.395,209.608Z" fill="#B9B9FF"/>
<path d="M479.397,215.364C479.192,215.539 478.905,215.609 478.629,215.521C477.608,215.196 476.574,214.845 475.555,214.472C475.138,214.321 474.923,213.859 475.073,213.442C475.226,213.024 475.687,212.81 476.103,212.963C477.101,213.327 478.114,213.673 479.115,213.989C479.538,214.123 479.772,214.575 479.638,214.997C479.592,215.144 479.508,215.27 479.397,215.364Z" fill="#B9B9FF"/>
<path d="M466.769,210.065C466.526,210.274 466.17,210.324 465.869,210.165C463.958,209.157 462.062,208.05 460.233,206.878C459.858,206.637 459.749,206.141 459.99,205.766C460.23,205.396 460.726,205.283 461.101,205.523C462.893,206.67 464.751,207.754 466.622,208.744C467.015,208.952 467.164,209.437 466.957,209.831C466.905,209.925 466.842,210.002 466.769,210.065ZM452.753,200.576C452.458,200.829 452.014,200.838 451.708,200.578C450.055,199.172 448.443,197.681 446.918,196.147C446.606,195.833 446.606,195.323 446.922,195.011C447.24,194.693 447.747,194.699 448.058,195.015C449.551,196.518 451.129,197.979 452.748,199.354C453.085,199.64 453.127,200.149 452.841,200.488C452.813,200.519 452.784,200.551 452.753,200.576ZM441.146,188.255C441.133,188.268 441.119,188.278 441.104,188.289C440.75,188.555 440.246,188.483 439.978,188.13C438.676,186.399 437.433,184.591 436.282,182.753C436.045,182.376 436.161,181.88 436.537,181.644C436.914,181.407 437.41,181.523 437.644,181.897C438.772,183.697 439.99,185.468 441.263,187.163C441.52,187.504 441.464,187.981 441.146,188.255ZM432.536,173.687C432.479,173.735 432.414,173.779 432.341,173.81C431.937,173.992 431.46,173.812 431.278,173.409C430.388,171.435 429.57,169.396 428.85,167.352C428.702,166.933 428.921,166.473 429.34,166.326C429.758,166.178 430.217,166.397 430.365,166.816C431.073,168.819 431.872,170.813 432.743,172.747C432.894,173.08 432.797,173.461 432.536,173.687ZM427.316,157.589C427.216,157.674 427.094,157.737 426.956,157.764C426.521,157.854 426.096,157.576 426.006,157.141C425.566,155.019 425.213,152.852 424.953,150.701C424.899,150.259 425.213,149.86 425.654,149.807C426.096,149.755 426.496,150.069 426.55,150.508C426.805,152.616 427.151,154.736 427.582,156.814C427.641,157.111 427.53,157.404 427.316,157.589ZM425.723,140.743C425.579,140.867 425.391,140.94 425.188,140.938C424.744,140.932 424.39,140.565 424.397,140.122C424.43,137.953 424.558,135.762 424.773,133.609C424.819,133.167 425.213,132.845 425.652,132.889C426.094,132.933 426.416,133.326 426.372,133.768C426.161,135.875 426.037,138.022 426.004,140.145C426,140.385 425.893,140.599 425.723,140.743ZM427.854,123.963C427.664,124.126 427.402,124.197 427.14,124.134C426.709,124.03 426.443,123.596 426.548,123.163C427.057,121.056 427.661,118.944 428.346,116.891C428.488,116.47 428.942,116.242 429.363,116.382C429.784,116.522 430.012,116.979 429.871,117.399C429.202,119.411 428.609,121.478 428.111,123.542C428.07,123.711 427.977,123.856 427.854,123.963ZM433.622,108.057C433.385,108.26 433.04,108.316 432.741,108.168C432.343,107.971 432.18,107.49 432.377,107.09C433.333,105.154 434.386,103.227 435.505,101.366C435.731,100.983 436.23,100.864 436.608,101.092C436.989,101.32 437.111,101.814 436.883,102.195C435.786,104.018 434.754,105.905 433.817,107.802C433.768,107.902 433.701,107.988 433.622,108.057ZM442.717,93.788C442.429,94.035 441.998,94.051 441.69,93.805C441.345,93.526 441.288,93.02 441.566,92.674C442.927,90.979 444.373,89.328 445.863,87.762C446.175,87.444 446.679,87.428 446.999,87.735C447.322,88.041 447.334,88.551 447.027,88.872C445.568,90.404 444.153,92.021 442.82,93.683C442.791,93.721 442.755,93.756 442.717,93.788ZM459.923,78.033C459.898,78.054 459.873,78.075 459.843,78.093C458.077,79.272 456.34,80.54 454.682,81.861C454.335,82.137 453.83,82.08 453.552,81.733C453.276,81.385 453.322,80.879 453.68,80.603C455.373,79.253 457.146,77.959 458.952,76.756C459.32,76.509 459.82,76.61 460.067,76.978C460.295,77.319 460.226,77.771 459.923,78.033Z" fill="#B9B9FF"/>
<path d="M471.986,71.463C471.925,71.515 471.858,71.557 471.781,71.591C470.803,72.013 469.832,72.461 468.891,72.917C468.491,73.11 468.01,72.943 467.817,72.545C467.624,72.145 467.788,71.664 468.19,71.471C469.15,71.007 470.144,70.55 471.14,70.117C471.549,69.941 472.022,70.128 472.197,70.534C472.344,70.866 472.245,71.241 471.986,71.463Z" fill="#B9B9FF"/>
<path d="M485.588,84.677C485.201,84.747 484.899,85.054 484.839,85.443L483.099,96.544C478.28,98.62 473.757,101.479 469.741,105.089L458.939,102.021C458.561,101.914 458.155,102.059 457.931,102.381L450.223,113.438C449.997,113.76 450.003,114.191 450.233,114.509L456.849,123.582C454.852,128.6 453.735,133.832 453.454,139.073L443.641,144.546C443.297,144.738 443.113,145.128 443.182,145.515L445.551,158.784C445.62,159.171 445.928,159.472 446.317,159.533L457.418,161.272C459.494,166.092 462.353,170.614 465.963,174.631L462.895,185.434C462.788,185.813 462.933,186.219 463.255,186.443L474.312,194.151C474.634,194.377 475.065,194.371 475.383,194.14L484.456,187.525C489.474,189.521 494.706,190.639 499.947,190.919L505.42,200.733C505.612,201.076 506.002,201.26 506.389,201.191L519.658,198.822C520.045,198.753 520.346,198.445 520.407,198.056L522.146,186.956C526.966,184.879 531.488,182.021 535.505,178.41L546.306,181.479C546.685,181.585 547.091,181.441 547.315,181.119L555.023,170.062C555.249,169.74 555.242,169.309 555.01,168.99L548.395,159.918C550.391,154.899 551.509,149.667 551.789,144.427L561.603,138.954C561.946,138.761 562.13,138.372 562.061,137.985L559.692,124.716C559.623,124.329 559.315,124.027 558.926,123.967L547.825,122.228C545.749,117.408 542.89,112.885 539.28,108.869L542.348,98.065C542.455,97.687 542.311,97.281 541.988,97.057L530.932,89.349C530.609,89.123 530.178,89.129 529.86,89.359L520.788,95.975C515.769,93.978 510.537,92.861 505.296,92.58L499.824,82.767C499.631,82.423 499.244,82.239 498.855,82.308L485.588,84.677Z" fill="#B9B9FF"/>
<path d="M511.232,151.73C510.284,152.545 509.214,153.229 508.044,153.756C504.838,155.205 501.259,155.315 497.967,154.07C494.675,152.827 492.065,150.374 490.619,147.168C489.171,143.96 489.06,140.381 490.303,137.091C491.546,133.799 493.999,131.189 497.205,129.741C500.411,128.292 503.992,128.182 507.282,129.427C510.574,130.67 513.184,133.123 514.63,136.329C516.079,139.537 516.19,143.116 514.946,146.406C514.155,148.499 512.879,150.314 511.232,151.73ZM495.592,133.596C494.246,134.753 493.202,136.237 492.557,137.945C491.54,140.634 491.632,143.556 492.814,146.178C493.997,148.798 496.129,150.801 498.817,151.818C501.506,152.835 504.43,152.743 507.05,151.561C509.67,150.378 511.673,148.248 512.69,145.556C513.707,142.867 513.615,139.943 512.433,137.323C511.25,134.703 509.118,132.7 506.431,131.683C503.741,130.666 500.817,130.758 498.197,131.94C497.241,132.374 496.366,132.93 495.592,133.596ZM491.429,137.518L491.435,137.514L491.429,137.518Z" fill="#FFFFFF"/>
<path d="M524.697,167.599C513.308,177.393 496.291,178.676 483.412,169.698C481.034,168.04 478.937,166.131 477.129,164.03C467.332,152.641 466.049,135.622 475.028,122.74C475.189,122.51 475.354,122.28 475.521,122.052C476.647,120.518 477.899,119.082 479.253,117.772C479.412,117.619 479.571,117.466 479.732,117.315L481.375,119.08C479.757,120.587 478.286,122.282 477.005,124.119C476.993,124.136 476.98,124.153 476.97,124.172C467.14,138.334 470.641,157.856 484.791,167.718C498.957,177.592 518.513,174.099 528.389,159.934C536.725,147.976 535.534,132.173 526.439,121.597C524.76,119.647 522.814,117.874 520.606,116.336C515.949,113.09 510.51,111.169 504.876,110.782L505.041,108.375C511.108,108.791 516.968,110.859 521.983,114.356C524.36,116.014 526.457,117.922 528.266,120.024C538.062,131.413 539.345,148.432 530.367,161.314C528.709,163.691 526.799,165.79 524.697,167.599Z" fill="#FFFFFF"/>
<path d="M459.244,9.048C459.127,9.148 458.964,9.192 458.803,9.148C458.183,8.981 457.559,8.826 456.948,8.688C456.689,8.629 456.526,8.37 456.584,8.11C456.643,7.851 456.902,7.686 457.162,7.746C457.788,7.886 458.426,8.045 459.056,8.217C459.313,8.286 459.466,8.552 459.395,8.809C459.37,8.906 459.315,8.987 459.244,9.048Z" fill="#B9B9FF"/>
<path d="M477.307,88.763C476.451,89.5 475.56,90.211 474.658,90.879C474.444,91.038 474.141,90.992 473.982,90.778C473.823,90.565 473.865,90.264 474.082,90.102C475.122,89.332 476.142,88.506 477.117,87.648C477.119,87.645 477.119,87.645 477.121,87.643C477.322,87.472 477.623,87.491 477.799,87.689C477.975,87.89 477.956,88.194 477.755,88.372C477.609,88.504 477.458,88.633 477.307,88.763ZM482.249,83.811C482.071,83.964 481.803,83.968 481.621,83.811C481.418,83.638 481.395,83.332 481.568,83.129C482.412,82.145 483.222,81.112 483.979,80.059C484.134,79.839 484.438,79.793 484.653,79.948C484.869,80.103 484.919,80.406 484.764,80.622C483.99,81.698 483.163,82.752 482.303,83.757C482.286,83.778 482.267,83.795 482.249,83.811ZM488.063,75.262C487.916,75.388 487.703,75.419 487.52,75.323C487.284,75.199 487.194,74.906 487.32,74.67C487.926,73.521 488.492,72.336 488.996,71.145C489.098,70.9 489.383,70.785 489.63,70.89C489.875,70.995 489.99,71.277 489.885,71.524C489.371,72.74 488.793,73.95 488.173,75.122C488.146,75.176 488.106,75.224 488.063,75.262ZM491.842,65.643C491.725,65.744 491.562,65.788 491.403,65.744C491.145,65.675 490.993,65.409 491.062,65.151C491.396,63.902 491.681,62.621 491.909,61.342C491.955,61.079 492.206,60.905 492.47,60.951C492.734,60.997 492.907,61.248 492.861,61.512C492.629,62.818 492.338,64.126 491.997,65.403C491.968,65.499 491.913,65.583 491.842,65.643ZM493.376,55.426C493.288,55.503 493.171,55.547 493.044,55.543C492.778,55.533 492.568,55.309 492.579,55.043C492.627,53.749 492.619,52.435 492.556,51.14C492.543,50.874 492.751,50.648 493.014,50.633C493.28,50.621 493.508,50.826 493.521,51.092C493.586,52.416 493.592,53.756 493.544,55.076C493.54,55.217 493.475,55.34 493.376,55.426ZM492.6,45.119C492.537,45.173 492.462,45.211 492.374,45.227C492.112,45.278 491.859,45.104 491.809,44.842C491.568,43.566 491.269,42.287 490.923,41.04C490.852,40.782 491.003,40.516 491.258,40.445C491.516,40.374 491.782,40.525 491.853,40.78C492.206,42.053 492.512,43.358 492.757,44.662C492.794,44.838 492.728,45.01 492.6,45.119ZM489.565,35.238C489.53,35.27 489.488,35.295 489.442,35.316C489.197,35.422 488.912,35.309 488.806,35.064C488.289,33.876 487.715,32.693 487.1,31.553C486.972,31.318 487.06,31.025 487.297,30.898C487.531,30.77 487.824,30.858 487.952,31.092C488.579,32.256 489.165,33.463 489.693,34.677C489.781,34.878 489.722,35.102 489.565,35.238ZM484.413,26.274C484.404,26.283 484.394,26.289 484.383,26.297C484.168,26.457 483.866,26.411 483.707,26.195C483.029,25.272 482.307,24.366 481.562,23.499C481.464,23.384 481.363,23.269 481.263,23.154C481.087,22.953 481.106,22.648 481.307,22.472C481.309,22.47 481.309,22.47 481.311,22.468C481.512,22.296 481.813,22.315 481.989,22.516C482.092,22.633 482.194,22.75 482.297,22.869C483.059,23.755 483.795,24.68 484.488,25.624C484.639,25.827 484.603,26.111 484.413,26.274ZM477.387,18.692C477.209,18.845 476.941,18.849 476.757,18.692C475.778,17.849 474.746,17.034 473.693,16.273C473.477,16.116 473.427,15.814 473.584,15.599C473.743,15.383 474.043,15.333 474.258,15.49C475.334,16.269 476.387,17.099 477.387,17.96C477.59,18.133 477.613,18.439 477.437,18.642C477.422,18.659 477.406,18.677 477.387,18.692ZM468.854,12.855C468.708,12.981 468.494,13.012 468.312,12.916C467.165,12.305 465.981,11.737 464.792,11.229C464.547,11.124 464.432,10.84 464.537,10.595C464.641,10.35 464.926,10.235 465.171,10.342C466.385,10.861 467.594,11.44 468.766,12.064C469.003,12.19 469.091,12.483 468.965,12.717C468.938,12.769 468.898,12.815 468.854,12.855Z" fill="#B9B9FF"/>
<path d="M469.259,94.311C469.234,94.334 469.204,94.353 469.173,94.37C468.595,94.682 468.011,94.983 467.438,95.264C467.197,95.381 466.908,95.282 466.791,95.042C466.674,94.801 466.774,94.514 467.013,94.395C467.576,94.121 468.147,93.826 468.712,93.518C468.947,93.39 469.24,93.478 469.368,93.713C469.478,93.918 469.428,94.167 469.259,94.311Z" fill="#B9B9FF"/>
<path d="M433.201,97.768C433.078,97.875 432.906,97.915 432.739,97.862C432.125,97.668 431.504,97.456 430.891,97.232C430.64,97.14 430.51,96.864 430.602,96.613C430.694,96.362 430.97,96.232 431.221,96.324C431.822,96.542 432.431,96.751 433.032,96.941C433.285,97.023 433.427,97.293 433.346,97.548C433.318,97.638 433.266,97.712 433.201,97.768Z" fill="#B9B9FF"/>
<path d="M425.611,94.585C425.464,94.711 425.251,94.742 425.069,94.646C423.92,94.039 422.781,93.373 421.68,92.67C421.456,92.526 421.389,92.226 421.534,92.003C421.678,91.779 421.977,91.712 422.201,91.856C423.279,92.547 424.395,93.198 425.521,93.792C425.757,93.915 425.847,94.208 425.722,94.445C425.692,94.499 425.655,94.547 425.611,94.585ZM417.187,88.882C417.009,89.035 416.743,89.039 416.559,88.884C415.565,88.039 414.596,87.143 413.679,86.22C413.491,86.032 413.493,85.724 413.681,85.538C413.874,85.347 414.177,85.349 414.366,85.54C415.263,86.444 416.211,87.321 417.185,88.148C417.388,88.319 417.413,88.625 417.239,88.828C417.222,88.849 417.206,88.865 417.187,88.882ZM410.211,81.478C410.203,81.484 410.194,81.492 410.186,81.498C409.973,81.66 409.669,81.616 409.51,81.402C408.727,80.362 407.98,79.274 407.288,78.171C407.145,77.945 407.214,77.646 407.44,77.505C407.666,77.363 407.964,77.432 408.106,77.658C408.784,78.74 409.516,79.803 410.28,80.822C410.435,81.026 410.402,81.312 410.211,81.478ZM405.036,72.721C405.002,72.75 404.962,72.775 404.918,72.796C404.676,72.905 404.389,72.798 404.28,72.554C403.744,71.367 403.255,70.143 402.821,68.914C402.733,68.663 402.863,68.387 403.116,68.297C403.368,68.207 403.644,68.339 403.734,68.592C404.159,69.795 404.64,70.994 405.163,72.158C405.251,72.355 405.193,72.585 405.036,72.721ZM401.898,63.046C401.838,63.098 401.764,63.136 401.681,63.152C401.419,63.207 401.164,63.039 401.109,62.778C400.846,61.503 400.632,60.202 400.477,58.908C400.446,58.642 400.634,58.404 400.898,58.37C401.164,58.339 401.405,58.527 401.436,58.793C401.589,60.059 401.798,61.334 402.055,62.583C402.093,62.759 402.028,62.935 401.898,63.046ZM400.942,52.921C400.856,52.994 400.743,53.04 400.62,53.038C400.352,53.034 400.14,52.814 400.145,52.546C400.166,51.242 400.241,49.926 400.371,48.632C400.398,48.366 400.634,48.174 400.9,48.199C401.166,48.226 401.358,48.463 401.333,48.729C401.206,49.997 401.132,51.286 401.111,52.563C401.107,52.705 401.042,52.833 400.942,52.921ZM402.221,42.835C402.108,42.933 401.949,42.977 401.792,42.94C401.532,42.877 401.373,42.615 401.436,42.356C401.741,41.09 402.106,39.819 402.516,38.584C402.602,38.331 402.874,38.195 403.127,38.279C403.38,38.363 403.516,38.637 403.432,38.89C403.031,40.1 402.675,41.341 402.373,42.582C402.35,42.684 402.296,42.77 402.221,42.835ZM405.689,33.275C405.546,33.398 405.339,33.43 405.159,33.342C404.921,33.222 404.822,32.934 404.939,32.695C405.515,31.531 406.147,30.374 406.821,29.254C406.957,29.024 407.256,28.953 407.484,29.089C407.712,29.227 407.786,29.524 407.65,29.752C406.99,30.849 406.371,31.981 405.808,33.122C405.776,33.183 405.737,33.233 405.689,33.275ZM411.155,24.698C410.981,24.847 410.722,24.857 410.538,24.709C410.331,24.541 410.297,24.238 410.464,24.029C411.283,23.009 412.151,22.017 413.047,21.076C413.233,20.885 413.537,20.875 413.729,21.059C413.922,21.243 413.93,21.548 413.746,21.741C412.869,22.662 412.019,23.635 411.218,24.633C411.199,24.658 411.178,24.679 411.155,24.698ZM421.496,15.228C421.481,15.241 421.465,15.253 421.448,15.264C420.387,15.971 419.342,16.733 418.346,17.528C418.137,17.693 417.833,17.66 417.668,17.451C417.501,17.241 417.53,16.938 417.746,16.773C418.763,15.961 419.83,15.184 420.914,14.46C421.136,14.311 421.435,14.372 421.584,14.594C421.72,14.801 421.678,15.071 421.496,15.228Z" fill="#B9B9FF"/>
<path d="M428.747,11.281C428.712,11.312 428.67,11.337 428.624,11.358C428.038,11.614 427.452,11.882 426.887,12.156C426.646,12.273 426.357,12.173 426.242,11.932C426.125,11.691 426.226,11.402 426.466,11.285C427.044,11.005 427.64,10.733 428.241,10.471C428.486,10.364 428.77,10.477 428.877,10.722C428.961,10.921 428.902,11.147 428.747,11.281Z" fill="#B9B9FF"/>
<path d="M436.923,19.223C436.691,19.265 436.509,19.449 436.473,19.684L435.429,26.356C432.533,27.603 429.814,29.321 427.399,31.492L420.907,29.648C420.679,29.583 420.436,29.671 420.3,29.864L415.668,36.508C415.532,36.703 415.536,36.96 415.675,37.153L419.651,42.607C418.452,45.623 417.78,48.768 417.61,51.918L411.713,55.208C411.506,55.323 411.395,55.558 411.436,55.79L412.86,63.764C412.901,63.996 413.086,64.178 413.32,64.214L419.992,65.258C421.239,68.155 422.958,70.873 425.128,73.288L423.284,79.78C423.219,80.009 423.307,80.251 423.5,80.387L430.145,85.019C430.339,85.155 430.597,85.151 430.789,85.013L436.243,81.036C439.259,82.235 442.405,82.907 445.554,83.077L448.844,88.974C448.959,89.182 449.194,89.292 449.426,89.251L457.4,87.827C457.632,87.786 457.814,87.601 457.85,87.367L458.894,80.695C461.791,79.448 464.509,77.729 466.925,75.559L473.417,77.403C473.645,77.468 473.887,77.38 474.023,77.187L478.655,70.543C478.791,70.348 478.787,70.09 478.649,69.898L474.672,64.444C475.872,61.428 476.543,58.283 476.713,55.133L482.611,51.843C482.818,51.728 482.929,51.493 482.887,51.261L481.464,43.287C481.422,43.055 481.238,42.873 481.003,42.837L474.331,41.793C473.084,38.896 471.366,36.178 469.195,33.763L471.039,27.27C471.104,27.042 471.016,26.8 470.824,26.664L464.179,22.032C463.984,21.896 463.727,21.9 463.534,22.038L458.08,26.015C455.064,24.816 451.919,24.144 448.769,23.974L445.479,18.077C445.364,17.869 445.129,17.758 444.897,17.8L436.923,19.223Z" fill="#B9B9FF"/>
<path d="M452.333,59.524C451.764,60.013 451.122,60.423 450.416,60.742C448.489,61.612 446.337,61.679 444.36,60.93C442.382,60.183 440.812,58.709 439.944,56.782C439.073,54.854 439.006,52.703 439.755,50.725C440.502,48.747 441.976,47.178 443.903,46.307C445.831,45.436 447.982,45.369 449.96,46.119C451.938,46.866 453.508,48.339 454.376,50.267C455.247,52.194 455.314,54.346 454.564,56.324C454.091,57.581 453.323,58.672 452.333,59.524ZM442.932,48.626C442.122,49.323 441.497,50.212 441.107,51.24C440.496,52.856 440.551,54.614 441.262,56.187C441.974,57.761 443.255,58.967 444.87,59.576C446.486,60.187 448.244,60.133 449.818,59.421C451.394,58.711 452.597,57.429 453.208,55.813C453.819,54.197 453.765,52.439 453.053,50.865C452.344,49.292 451.061,48.086 449.445,47.477C447.83,46.866 446.072,46.92 444.498,47.632C443.924,47.889 443.399,48.224 442.932,48.626ZM440.431,50.983L440.436,50.98L440.431,50.983Z" fill="#FFFFFF"/>
<path d="M460.432,69.06C453.586,74.947 443.358,75.718 435.617,70.322C434.188,69.326 432.928,68.179 431.841,66.915C425.952,60.069 425.182,49.842 430.577,42.098C430.674,41.96 430.774,41.822 430.875,41.684C431.553,40.763 432.304,39.898 433.118,39.111C433.212,39.019 433.309,38.927 433.407,38.837L434.395,39.898C433.422,40.805 432.538,41.824 431.768,42.927C431.76,42.937 431.754,42.948 431.747,42.958C425.839,51.47 427.945,63.204 436.448,69.131C444.962,75.065 456.715,72.968 462.653,64.454C467.663,57.267 466.947,47.768 461.481,41.414C460.472,40.242 459.302,39.176 457.975,38.251C455.177,36.301 451.906,35.146 448.522,34.913L448.62,33.467C452.268,33.718 455.788,34.961 458.802,37.063C460.231,38.059 461.491,39.206 462.577,40.47C468.467,47.315 469.237,57.543 463.841,65.287C462.843,66.712 461.694,67.974 460.432,69.06Z" fill="#FFFFFF"/>
<path d="M39.97,498.408C39.97,503.414 44.07,507.51 49.082,507.51L541.791,507.51C546.801,507.51 550.903,503.414 550.903,498.408L555.003,215.261C555.003,210.255 549.105,200.481 538.295,201.216L56.763,188.757C50.476,188.594 44.396,191.015 39.943,195.452C35.489,199.891 33.053,205.958 33.202,212.241L39.97,498.408Z" fill="url(#pf_0_310_600)"/>
<path d="M48.967,489.674C48.967,494.414 52.845,498.294 57.588,498.294L529.91,498.294C534.652,498.294 538.532,494.416 538.532,489.674L542.402,232.632C541.944,217.164 528.384,211.605 520.164,211.934L58.659,199.552C54.241,199.433 49.972,201.137 46.843,204.257C43.714,207.377 41.994,211.649 42.105,216.067L48.967,489.674Z" fill="#B9B9FF"/>
<path d="M533.426,367.563C533.42,367.563 533.414,367.563 533.414,367.563C532.711,367.552 532.152,366.979 532.162,366.28L532.468,345.435C532.478,344.744 533.041,344.19 533.73,344.19C533.736,344.19 533.742,344.19 533.749,344.19C534.446,344.2 535.004,344.774 534.994,345.473L534.688,366.317C534.678,367.008 534.115,367.563 533.426,367.563Z" fill="#BDD0FB"/>
<path d="M534.173,316.478C534.167,316.478 534.16,316.478 534.154,316.478C533.457,316.468 532.898,315.892 532.909,315.195L534.081,235.355C534.058,230.612 532.62,226.826 529.801,224.126C524.542,219.087 516.191,219.344 515.839,219.361L368.332,215.405C367.636,215.389 367.085,214.807 367.104,214.11C367.123,213.413 367.659,212.819 368.402,212.882L515.821,216.837C516.737,216.783 525.628,216.63 531.548,222.301C534.878,225.493 536.582,229.89 536.607,235.367L535.435,315.233C535.424,315.926 534.861,316.478 534.173,316.478Z" fill="#BDD0FB"/>
<path d="M1.182,531.015L579.702,531.015C580.352,531.015 580.884,530.484 580.884,529.833L580.884,507.322C580.884,506.671 580.352,506.139 579.702,506.139L1.182,506.139C0.532,506.139 0,506.671 0,507.322L0,529.833C0,530.484 0.532,531.015 1.182,531.015Z" fill="url(#pf_0_310_605)"/>
<path d="M144.59,93.603C144.59,76.268 158.643,62.212 175.981,62.212L442.922,62.212C457.65,62.212 469.794,73.752 470.542,88.461L490.246,475.476C490.832,486.986 481.772,496.694 470.25,496.904L164.3,502.464C153.474,502.66 144.59,493.938 144.59,483.11L144.59,93.603L144.59,93.603Z" fill="#8584FF"/>
<path d="M209.014,495.886L209.004,495.886L174.771,495.445C163.323,495.296 154.012,485.862 154.012,474.416L154.012,422.728C154.012,422.325 154.338,421.998 154.742,421.998C155.146,421.998 155.473,422.325 155.473,422.728L155.473,474.416C155.473,485.068 164.137,493.846 174.79,493.984L209.023,494.426C209.427,494.43 209.749,494.763 209.745,495.166C209.74,495.564 209.414,495.886 209.014,495.886Z" fill="#B9B9FF"/>
<path d="M154.742,407.446C154.338,407.446 154.012,407.12 154.012,406.716L154.012,398.345C154.012,397.941 154.338,397.614 154.742,397.614C155.146,397.614 155.473,397.941 155.473,398.345L155.473,406.716C155.473,407.12 155.146,407.446 154.742,407.446Z" fill="#B9B9FF"/>
<path d="M166.463,68.171C166.43,62.625 171.308,58.332 176.804,59.077C213.257,64.021 338.611,79.309 442.251,71.354C446.977,70.992 451.079,74.573 451.331,79.307L471.991,468.047C472.273,473.377 468.205,477.935 462.877,478.249C419.287,480.831 239.774,490.801 175.743,484.095C171.846,483.687 168.889,480.405 168.866,476.487L166.463,68.171Z" fill="#AAAAFF"/>
<path d="M170.756,77.911C170.725,72.574 175.419,68.443 180.708,69.158C215.788,73.916 336.42,88.628 436.16,80.973C440.708,80.623 444.654,84.07 444.898,88.624L464.78,462.728C465.052,467.856 461.136,472.244 456.006,472.546C414.06,475.03 241.304,484.624 179.684,478.172C175.934,477.78 173.087,474.624 173.064,470.852L170.756,77.911Z" fill="#B5B5FF"/>
<g opacity="0.78">
<path d="M203.231,106.755L206.956,186.959C207.079,189.628 209.235,191.748 211.903,191.823C226.756,192.242 273.042,193.372 299.176,192.009C302.133,191.854 304.471,189.464 304.569,186.505C305.067,171.464 306.157,127.685 302.729,109.385C302.175,106.428 299.634,104.262 296.629,104.157L208.837,101.085C205.671,100.974 203.084,103.59 203.231,106.755Z" fill="#FFFFFF"/>
</g>
<g opacity="0.6">
<g opacity="0.6">
<path d="M422.882,113.736C424.602,113.736 425.975,112.525 425.931,111.045C425.887,109.565 424.445,108.329 422.725,108.299L326.449,106.583C324.729,106.552 323.789,107.856 324.361,109.477L324.821,110.786C325.392,112.407 327.268,113.736 328.988,113.736L422.882,113.736Z" fill="#FFFFFF"/>
</g>
</g>
<g opacity="0.6">
<g opacity="0.6">
<path d="M326.449,121.534C324.729,121.503 323.789,122.807 324.361,124.429L324.821,125.737C325.392,127.359 327.268,128.688 328.988,128.688L422.88,128.688C424.6,128.688 425.973,127.476 425.929,125.996C425.885,124.517 424.443,123.28 422.723,123.251L326.449,121.534Z" fill="#FFFFFF"/>
</g>
</g>
<g opacity="0.6">
<g opacity="0.6">
<path d="M326.449,136.703C324.729,136.672 323.789,137.976 324.361,139.598L324.821,140.906C325.392,142.528 327.268,143.857 328.988,143.857L422.88,143.857C424.6,143.857 425.973,142.645 425.929,141.165C425.885,139.686 424.443,138.449 422.723,138.42L326.449,136.703Z" fill="#FFFFFF"/>
</g>
</g>
<g opacity="0.6">
<g opacity="0.6">
<path d="M432.238,217.011C433.958,217.011 435.284,215.799 435.188,214.32C435.09,212.84 433.604,211.618 431.884,211.605L206.336,209.828C204.615,209.816 204.084,210.904 205.155,212.25L206.999,214.564C208.071,215.91 210.354,217.011 212.074,217.011L432.238,217.011L432.238,217.011Z" fill="#FFFFFF"/>
</g>
</g>
<g opacity="0.6">
<g opacity="0.6">
<path d="M206.334,229.007C204.613,228.994 204.082,230.083 205.153,231.428L206.997,233.743C208.069,235.089 210.352,236.19 212.072,236.19L432.236,236.19C433.956,236.19 435.282,234.978 435.186,233.498C435.088,232.019 433.602,230.796 431.882,230.784L206.334,229.007Z" fill="#FFFFFF"/>
</g>
</g>
<path d="M234.424,326.742C234.407,326.742 234.388,326.742 234.371,326.742L215.335,326.56C212.614,326.532 210.37,324.661 210.113,322.206L208.439,306.234C208.34,305.296 208.631,304.369 209.259,303.624C209.96,302.789 211.021,302.266 212.172,302.186C213.775,302.077 216.034,301.885 218.426,301.682C223.461,301.253 229.727,300.719 233.252,300.675C235.809,300.663 237.979,302.176 238.582,304.405C239.574,308.071 239.486,315.011 239.298,322.405C239.237,324.806 237.054,326.742 234.424,326.742ZM212.273,303.647C211.517,303.699 210.827,304.034 210.379,304.566C210.01,305.005 209.837,305.543 209.893,306.083L211.568,322.056C211.747,323.772 213.374,325.08 215.349,325.099L234.386,325.281C234.399,325.281 234.411,325.281 234.424,325.281C236.267,325.281 237.795,323.981 237.837,322.368C238.023,315.087 238.111,308.264 237.172,304.786C236.751,303.228 235.129,302.142 233.271,302.138C229.798,302.182 223.562,302.714 218.549,303.138C216.153,303.344 213.888,303.536 212.273,303.647Z" fill="#FFFFFF"/>
<g opacity="0.6">
<path d="M214.319,305.294C218.319,305.02 227.01,304.139 231.131,304.086C232.879,304.066 234.41,305.12 234.819,306.636C235.614,309.578 235.509,315.44 235.371,320.852C235.329,322.472 233.841,323.768 232.023,323.749L216.81,323.602C214.939,323.584 213.386,322.309 213.212,320.647L211.875,307.883C211.739,306.564 212.837,305.397 214.319,305.294Z" fill="#FFFFFF"/>
</g>
<g opacity="0.6">
<g opacity="0.6">
<path d="M251.143,316.137C251.694,318.228 253.592,319.676 255.754,319.657L431.883,318.154C433.875,318.138 435.47,316.495 435.426,314.502C435.384,312.567 433.806,311.016 431.868,311.007L255.735,310.204C252.625,310.189 250.35,313.13 251.143,316.137Z" fill="#FFFFFF"/>
</g>
</g>
<path d="M234.424,367.54C234.407,367.54 234.388,367.54 234.371,367.54L215.335,367.358C212.614,367.33 210.37,365.459 210.113,363.005L208.439,347.032C208.34,346.094 208.631,345.167 209.259,344.422C209.96,343.587 211.021,343.064 212.172,342.984C213.775,342.875 216.034,342.683 218.426,342.48C223.461,342.051 229.727,341.517 233.252,341.473C233.277,341.473 233.304,341.473 233.329,341.473C235.832,341.473 237.986,342.997 238.582,345.203C239.574,348.869 239.486,355.809 239.298,363.203C239.237,365.604 237.054,367.54 234.424,367.54ZM212.273,344.445C211.517,344.497 210.827,344.832 210.379,345.364C210.01,345.803 209.837,346.341 209.893,346.881L211.568,362.854C211.747,364.57 213.374,365.878 215.349,365.897L234.386,366.079C234.399,366.079 234.411,366.079 234.424,366.079C236.267,366.079 237.795,364.779 237.837,363.166C238.023,355.885 238.111,349.062 237.172,345.584C236.749,344.026 235.106,342.907 233.271,342.936C229.798,342.98 223.562,343.51 218.549,343.936C216.153,344.142 213.888,344.334 212.273,344.445Z" fill="#FFFFFF"/>
<g opacity="0.6">
<path d="M214.319,346.094C218.319,345.82 227.01,344.939 231.131,344.887C232.879,344.866 234.41,345.92 234.819,347.436C235.614,350.378 235.509,356.24 235.371,361.652C235.329,363.272 233.841,364.568 232.023,364.549L216.81,364.402C214.939,364.384 213.386,363.109 213.212,361.447L211.875,348.683C211.739,347.364 212.837,346.195 214.319,346.094Z" fill="#FFFFFF"/>
</g>
<g opacity="0.6">
<g opacity="0.6">
<path d="M251.143,356.935C251.694,359.026 253.592,360.475 255.754,360.456L431.883,358.953C433.875,358.936 435.47,357.293 435.426,355.301C435.384,353.365 433.806,351.814 431.868,351.806L255.735,351.002C252.625,350.99 250.35,353.928 251.143,356.935Z" fill="#FFFFFF"/>
</g>
</g>
<path d="M234.424,408.34C234.407,408.34 234.388,408.34 234.371,408.34L215.335,408.158C212.614,408.133 210.37,406.262 210.113,403.807L208.439,387.834C208.34,386.897 208.631,385.97 209.259,385.224C209.96,384.389 211.021,383.866 212.172,383.787C213.775,383.678 216.034,383.485 218.426,383.282C223.461,382.853 229.727,382.32 233.252,382.276C233.277,382.276 233.304,382.276 233.329,382.276C235.832,382.276 237.986,383.799 238.582,386.005C239.574,389.672 239.486,396.612 239.298,404.006C239.237,406.404 237.054,408.34 234.424,408.34ZM212.273,385.243C211.517,385.296 210.827,385.63 210.379,386.162C210.01,386.602 209.837,387.139 209.893,387.679L211.568,403.652C211.747,405.368 213.374,406.676 215.349,406.695L234.386,406.877C234.399,406.877 234.411,406.877 234.424,406.877C236.267,406.877 237.795,405.577 237.837,403.964C238.023,396.683 238.111,389.86 237.172,386.382C236.749,384.825 235.106,383.699 233.271,383.734C229.798,383.778 223.562,384.31 218.549,384.735C216.153,384.94 213.888,385.132 212.273,385.243Z" fill="#FFFFFF"/>
<g opacity="0.6">
<path d="M214.319,386.892C218.319,386.618 227.01,385.737 231.131,385.685C232.879,385.664 234.41,386.719 234.819,388.234C235.614,391.177 235.509,397.039 235.371,402.451C235.329,404.071 233.841,405.366 232.023,405.347L216.81,405.201C214.939,405.182 213.386,403.907 213.212,402.246L211.875,389.481C211.739,388.163 212.837,386.993 214.319,386.892Z" fill="#FFFFFF"/>
</g>
<g opacity="0.6">
<g opacity="0.6">
<path d="M251.143,397.733C251.694,399.824 253.592,401.272 255.754,401.254L431.883,399.751C433.875,399.734 435.47,398.091 435.426,396.099C435.384,394.163 433.806,392.612 431.868,392.604L255.735,391.8C252.625,391.788 250.35,394.728 251.143,397.733Z" fill="#FFFFFF"/>
</g>
</g>
<path d="M234.424,449.138C234.407,449.138 234.388,449.138 234.371,449.138L215.335,448.956C212.614,448.931 210.37,447.06 210.113,444.605L208.439,428.632C208.34,427.695 208.631,426.768 209.259,426.023C209.96,425.188 211.021,424.664 212.172,424.585C213.775,424.476 216.034,424.283 218.426,424.08C223.461,423.651 229.727,423.118 233.252,423.074C233.277,423.074 233.304,423.074 233.329,423.074C235.832,423.074 237.986,424.597 238.582,426.803C239.574,430.47 239.486,437.41 239.298,444.804C239.237,447.202 237.054,449.138 234.424,449.138ZM212.273,426.041C211.517,426.094 210.827,426.429 210.379,426.96C210.01,427.4 209.837,427.938 209.893,428.477L211.568,444.45C211.747,446.166 213.374,447.474 215.349,447.493L234.386,447.675C234.399,447.675 234.411,447.675 234.424,447.675C236.267,447.675 237.795,446.376 237.837,444.762C238.023,437.481 238.111,430.658 237.172,427.18C236.749,425.623 235.106,424.493 233.271,424.532C229.798,424.576 223.562,425.108 218.549,425.533C216.153,425.74 213.888,425.933 212.273,426.041Z" fill="#FFFFFF"/>
<g opacity="0.6">
<path d="M214.319,427.691C218.319,427.416 227.01,426.535 231.131,426.483C232.879,426.462 234.41,427.517 234.819,429.032C235.614,431.975 235.509,437.837 235.371,443.249C235.329,444.869 233.841,446.164 232.023,446.145L216.81,445.999C214.939,445.98 213.386,444.705 213.212,443.044L211.875,430.279C211.739,428.961 212.837,427.793 214.319,427.691Z" fill="#FFFFFF"/>
</g>
<g opacity="0.6">
<g opacity="0.6">
<path d="M251.143,438.534C251.694,440.625 253.592,442.073 255.754,442.054L431.883,440.551C433.875,440.535 435.47,438.892 435.426,436.899C435.384,434.963 433.806,433.413 431.868,433.404L255.735,432.601C252.625,432.586 250.35,435.526 251.143,438.534Z" fill="#FFFFFF"/>
</g>
</g>
<path d="M232.742,291.242C232.725,291.242 232.706,291.242 232.69,291.242L213.653,291.06C210.934,291.035 208.689,289.164 208.431,286.709L206.757,270.736C206.659,269.799 206.95,268.872 207.577,268.127C208.279,267.292 209.34,266.768 210.491,266.689C212.094,266.58 214.352,266.387 216.744,266.184C221.78,265.755 228.046,265.222 231.57,265.178C231.595,265.178 231.622,265.178 231.647,265.178C234.15,265.178 236.304,266.701 236.9,268.907C237.892,272.574 237.805,279.514 237.616,286.908C237.555,289.306 235.375,291.242 232.742,291.242ZM210.591,268.145C209.836,268.198 209.145,268.533 208.697,269.064C208.329,269.504 208.155,270.042 208.212,270.581L209.886,286.554C210.066,288.27 211.692,289.578 213.668,289.597L232.704,289.779C232.717,289.779 232.729,289.779 232.742,289.779C234.586,289.779 236.113,288.48 236.155,286.866C236.342,279.585 236.43,272.762 235.49,269.284C235.067,267.727 233.424,266.597 231.589,266.636C228.117,266.68 221.88,267.212 216.868,267.637C214.471,267.842 212.207,268.037 210.591,268.145Z" fill="#FFFFFF"/>
<g opacity="0.6">
<path d="M212.639,269.795C216.639,269.521 225.331,268.64 229.451,268.587C231.199,268.566 232.731,269.621 233.139,271.136C233.934,274.079 233.83,279.941 233.692,285.353C233.65,286.973 232.162,288.268 230.343,288.25L215.13,288.103C213.259,288.084 211.706,286.81 211.532,285.148L210.195,272.384C210.059,271.065 211.156,269.897 212.639,269.795Z" fill="#FFFFFF"/>
</g>
<g opacity="0.6">
<g opacity="0.6">
<path d="M249.462,280.636C250.012,282.727 251.91,284.175 254.072,284.156L430.201,282.653C432.193,282.637 433.788,280.994 433.744,279.001C433.702,277.066 432.124,275.515 430.186,275.506L254.053,274.703C250.945,274.69 248.668,277.631 249.462,280.636Z" fill="#FFFFFF"/>
</g>
</g>
<path d="M326.008,9.445C316.367,2.738 307.983,2.87 302.081,4.611C296.696,6.199 293.207,11.398 293.72,16.988L296.265,44.769L326.553,47.456C326.553,47.458 344.917,22.601 326.008,9.445ZM312.689,31.858C308.518,31.858 305.136,28.476 305.136,24.305C305.136,20.134 308.518,16.752 312.689,16.752C316.861,16.752 320.243,20.134 320.243,24.305C320.243,28.476 316.861,31.858 312.689,31.858Z" fill="#1B1092"/>
<path d="M299.286,33.084C298.912,33.084 298.593,32.8 298.56,32.419L298.154,27.995C298.116,27.593 298.413,27.237 298.815,27.199C299.226,27.161 299.573,27.459 299.611,27.861L300.017,32.285C300.054,32.687 299.757,33.043 299.355,33.08C299.332,33.082 299.309,33.084 299.286,33.084ZM298.493,24.414C298.118,24.414 297.8,24.129 297.767,23.748L297.459,20.389C296.971,15.065 300.322,10.105 305.427,8.6C309.041,7.533 312.766,7.38 316.496,8.146C316.891,8.227 317.147,8.612 317.065,9.008C316.983,9.404 316.6,9.655 316.203,9.577C312.71,8.862 309.223,9.004 305.841,10.002C301.404,11.312 298.491,15.626 298.916,20.257L299.223,23.616C299.261,24.018 298.964,24.374 298.562,24.411C298.537,24.414 298.514,24.414 298.493,24.414Z" fill="#B9B9FF"/>
<path d="M254.924,62.723L254.924,48.756C254.924,43.934 258.919,40.072 263.739,40.238L360.04,43.538C364.313,43.685 367.775,47.058 368.03,51.326L368.836,64.747L254.924,62.723Z" fill="#1B1092"/>
<path d="M290.835,45.501L286.693,45.501C286.289,45.501 285.963,45.174 285.963,44.771C285.963,44.367 286.289,44.04 286.693,44.04L290.835,44.04C291.239,44.04 291.565,44.367 291.565,44.771C291.565,45.174 291.237,45.501 290.835,45.501Z" fill="#B9B9FF"/>
<path d="M260.139,58.339C259.735,58.339 259.408,58.012 259.408,57.608L259.408,51.957C259.408,47.592 262.96,44.04 267.325,44.04L282.551,44.04C282.955,44.04 283.281,44.367 283.281,44.771C283.281,45.174 282.955,45.501 282.551,45.501L267.325,45.501C263.766,45.501 260.869,48.398 260.869,51.957L260.869,57.608C260.869,58.012 260.54,58.339 260.139,58.339Z" fill="#B9B9FF"/>
<path d="M215.687,66.252C215.92,61.415 219.909,57.613 224.752,57.613L393.153,57.608C399.208,57.608 404.386,61.966 405.418,67.932L405.56,68.755C406.692,75.291 401.659,81.268 395.027,81.268L222.257,81.268C218.287,81.268 215.124,77.949 215.315,73.985L215.687,66.252Z" fill="#8584FF"/>
<path d="M236.074,161.096L236.074,157.676C236.074,154.55 236.554,151.821 237.516,149.491C238.477,147.162 240.229,144.663 242.769,141.99C245.18,139.351 246.719,137.284 247.386,135.785C248.054,134.287 248.389,132.382 248.389,130.067C248.389,127.949 247.901,126.225 246.924,124.888C245.946,123.552 244.398,122.885 242.282,122.885C238.764,122.885 235.066,124.138 231.19,126.648L226.596,116.874C231.709,113.389 237.378,111.646 243.6,111.646C248.975,111.646 253.217,113.136 256.329,116.116C259.439,119.097 260.996,123.243 260.996,128.552C260.996,132.265 260.458,135.417 259.385,138.008C258.309,140.597 256.078,143.717 252.69,147.365C250.507,149.742 249.115,151.576 248.512,152.863C247.909,154.15 247.608,155.902 247.608,158.116L247.608,161.096L236.074,161.096L236.074,161.096ZM233.776,177.416C233.776,174.844 234.467,172.864 235.852,171.479C237.236,170.095 239.249,169.403 241.886,169.403C244.557,169.403 246.576,170.112 247.945,171.529C249.314,172.946 249.998,174.909 249.998,177.416C249.998,179.892 249.297,181.847 247.897,183.28C246.495,184.714 244.492,185.43 241.886,185.43C239.278,185.43 237.276,184.729 235.875,183.329C234.477,181.928 233.776,179.957 233.776,177.416Z" fill="url(#pf_0_310_652)"/>
<path d="M129.945,567.502C129.945,567.502 128.842,573.749 128.3,579.936C128.088,582.353 129.951,584.452 132.376,584.553C140.614,584.896 158.232,585.564 164.554,585.281C165.504,585.239 166.126,584.266 165.774,583.381C165.479,582.64 164.912,582.041 164.186,581.708L135.083,568.333L129.945,567.502Z" fill="url(#pf_0_310_654)"/>
<path d="M129.041,563.831L129.928,571.305C129.928,571.305 135.027,573.678 138.507,571.006L136.395,562.676L129.041,563.831Z" fill="url(#pf_0_310_655)"/>
<path d="M129.708,423.323C129.325,425.276 127.653,520.718 137.854,563.49C138.021,564.187 137.665,564.907 137.002,565.179C135.436,565.817 132.37,566.745 128.693,566.868C127.555,566.906 126.533,566.167 126.213,565.074C123.298,555.15 109.324,505.43 107.499,457.935C105.462,404.862 107.499,456.129 107.499,456.129L108.694,423.323L129.708,423.323Z" fill="url(#pf_0_310_656)"/>
<path d="M96.466,570.761C96.466,570.761 94.71,573.915 93.008,582.297C92.701,583.81 93.76,585.26 95.296,585.411C98.017,585.679 102.202,586.022 105.557,585.999C107.104,585.988 108.309,584.643 108.123,583.107C107.753,580.047 106.593,575.028 103.018,571.114L96.466,570.761Z" fill="url(#pf_0_310_657)"/>
<path d="M94.924,561.149L96.996,572.45C96.996,572.45 99.045,573.974 103.096,572.869L102.107,560.709L94.924,561.149Z" fill="url(#pf_0_310_658)"/>
<path d="M89.327,426.251C80.983,476.607 91.138,550.711 94.562,565.217C94.771,566.104 95.489,566.784 96.389,566.935C97.916,567.188 100.434,567.395 102.914,566.675C103.768,566.426 104.369,565.656 104.404,564.767C104.865,553.04 104.036,481.054 111.811,452.604C112.204,451.162 113.085,449.904 114.304,449.04L129.393,438.312L130.55,420.97L89.327,426.251Z" fill="url(#pf_0_310_659)"/>
<path d="M142.492,330.836C117.487,330.424 89.897,337.401 89.897,337.401C82.444,380.893 88.593,431.057 88.593,431.057C107.952,436.134 129.789,427.953 129.789,427.953C133.005,409.775 148.018,358.615 148.018,358.615C160.236,357.099 170.3,353.573 178.588,348.912C172.265,341.583 169.285,332.259 167.992,326.747C159.152,329.495 150.205,330.964 142.492,330.836Z" fill="#FF3874"/>
<path d="M216.354,294.004C213.897,291.036 210.789,292.44 210.789,292.44C207.11,307.984 187.816,320.587 167.992,326.749C169.288,332.261 172.268,341.585 178.588,348.914C211.486,330.417 216.354,294.004 216.354,294.004Z" fill="url(#pf_0_310_662)"/>
<path d="M215.76,294.757C216.018,295.573 213.042,296.818 211.288,293.476C211.227,291.875 210.252,285.012 211.211,283.708C216.307,276.76 226.189,268.048 226.189,268.048C227.859,269.695 226.484,271.315 226.484,271.315L221.69,276.308C222.692,278.121 223.916,279.65 224.488,281.842C224.921,283.501 224.657,285.276 223.818,286.787C222.977,288.302 221.828,290.274 220.744,291.816C218.69,294.736 215.76,294.757 215.76,294.757Z" fill="url(#pf_0_310_664)"/>
<path d="M219.596,279.55L215.226,283.254L213.855,286.942L217.75,291.264C217.75,291.264 219.06,283.947 220.034,282.365C221.007,280.778 220.502,280.012 219.596,279.55Z" fill="url(#pf_0_310_665)"/>
<path d="M99.489,361.613L89.898,337.401C89.898,337.401 66.542,353.271 62.701,373.392C67.115,373.716 75.145,374.865 83.006,378.833C84.733,369.332 99.489,361.613 99.489,361.613Z" fill="#FF3874"/>
<path d="M119.9,384.396C119.9,384.396 93.677,399.216 84.828,386.562C82.99,383.934 82.551,381.324 83.005,378.833C75.144,374.865 67.114,373.716 62.7,373.392C61.543,379.457 62.154,385.909 65.718,392.431C81.218,420.783 123.37,390.863 123.37,390.863L119.9,384.396Z" fill="url(#pf_0_310_667)"/>
<path d="M116.751,403.146L131.062,353.166C131.225,352.599 131.708,352.185 132.294,352.118C134.887,351.816 142.401,350.967 151.076,350.232C161.525,349.349 173.66,348.631 180.911,349.242C181.943,349.328 182.565,350.418 182.106,351.348C177.984,359.69 161.021,393.628 152.526,404.745C152.243,405.113 151.81,405.329 151.346,405.325L118.14,405.015C117.178,405.002 116.485,404.075 116.751,403.146Z" fill="url(#pf_0_310_669)"/>
<path d="M152.561,345.898L162.938,344.169C163.49,344.077 163.942,344.604 163.767,345.138L162.739,348.25C162.649,348.52 162.413,348.717 162.13,348.754L152.145,350.088C151.628,350.157 151.203,349.688 151.32,349.179L151.957,346.463C152.026,346.17 152.264,345.946 152.561,345.898Z" fill="#B9B9FF"/>
<path d="M144.792,354.681L145.646,350.228C145.732,349.782 146.1,349.443 146.552,349.397L167.51,347.271C168.215,347.199 168.781,347.846 168.615,348.535L167.282,354.083C167.175,354.526 166.788,354.847 166.334,354.87L145.853,355.901C145.188,355.937 144.667,355.336 144.792,354.681Z" fill="#B9B9FF"/>
<path d="M120.211,391.07C120.211,391.07 118.216,382.872 119.022,379.963C119.825,377.054 121.385,373.316 126.577,374.147C131.771,374.978 137.897,377.165 137.897,377.165C137.897,377.165 137.588,380.953 133.64,379.731L136.089,381.625C136.089,381.625 135.74,384.658 132.406,383.038L134.683,385.549C134.683,385.549 133.251,388.04 130.798,386.443C128.341,384.846 127.167,392.058 120.211,391.07Z" fill="url(#pf_0_310_672)"/>
<path d="M117.165,310.535L109.208,333.544C109.077,333.925 109.234,334.348 109.587,334.542C111.755,335.741 119.57,339.207 128.986,333.236C129.968,332.615 130.635,331.6 130.784,330.448L133.36,310.535L117.165,310.535Z" fill="url(#pf_0_310_673)"/>
<path d="M134.477,289.228C134.477,289.228 143.215,305.673 142.095,312.318C140.975,318.961 130.147,318.484 120.691,313.088L114.084,295.33L134.477,289.228Z" fill="url(#pf_0_310_675)"/>
<path d="M121.111,304.367C121.496,304.197 121.636,303.726 121.406,303.375C120.707,302.305 119.395,300.125 118.976,298.214C118.976,298.214 117.406,297.207 122.973,295.876C128.543,294.543 136.845,292.475 138.59,287.735C140.292,283.114 135.822,271.492 128.687,280.753C128.415,281.105 127.883,281.113 127.613,280.762C126.443,279.24 123.369,276.08 119.102,277.995C115.106,279.786 114.659,282.714 114.713,284.19C114.73,284.623 114.34,284.962 113.913,284.88C111.894,284.495 107.049,284.165 104.787,289.135C102.924,293.231 104.134,295.548 105.236,296.682C105.594,297.05 105.437,297.655 104.948,297.804C103.621,298.21 101.907,299.336 102.078,302.446C102.315,306.744 107.122,306.366 108.491,306.169C108.715,306.137 108.941,306.213 109.094,306.382C110.268,307.68 115.554,313.195 121.274,313.858C121.77,313.915 122.153,313.427 121.992,312.954L119.516,305.757C119.401,305.422 119.56,305.055 119.884,304.913L121.111,304.367Z" fill="url(#pf_0_310_676)"/>
<path d="M122.105,305.389C122.105,305.389 115.885,301.121 115.428,304.715C114.974,308.308 121.031,309.922 124.03,308.58L122.105,305.389Z" fill="url(#pf_0_310_677)"/>
<path d="M418.148,300.575C418.558,299.792 419.716,299.915 419.952,300.767C420.827,303.919 422.947,309.419 427.394,311.372C427.618,311.47 427.83,311.571 428.035,311.669C428.236,311.064 428.24,310.363 427.756,309.624C426.373,307.51 428.87,304.626 428.87,304.626C428.87,304.626 429.035,307.167 430.967,308.768C432.631,310.147 433.43,313.213 432.292,315.731C429.885,325.08 426.281,337.444 440.32,346.477C454.359,355.51 474.128,329.431 474.128,329.431L464.314,360.537C464.314,360.537 449.168,371.713 431.553,355.998C413.935,340.282 425.613,317.414 425.613,317.414C425.613,317.414 412.179,311.989 418.148,300.575Z" fill="url(#pf_0_310_679)"/>
<path d="M476.591,283.723C476.591,283.723 472.525,265.479 493.422,270.308C493.422,270.308 503.566,268.65 504.083,278.225C504.083,278.225 510.621,282.534 505.835,290.82C505.835,290.82 525.267,283.313 533.735,300.346C542.202,317.38 534.419,326.752 526.259,329.192C526.259,329.192 532.868,332.512 529.739,340.006C526.61,347.501 510.765,352.783 501.404,343.669C501.404,343.669 474.77,347.189 475.302,328.376C475.302,328.376 462.914,320.377 475.926,304.829C488.939,289.281 476.591,283.723 476.591,283.723Z" fill="url(#pf_0_310_680)"/>
<path d="M475.439,326.009C479.64,324.749 491.866,322.426 503.496,333.158C505.468,334.979 506.275,337.744 505.572,340.335C502.448,351.835 494.206,385.813 501.433,400.513C501.433,400.513 488.698,414.552 474.803,403.236C474.803,403.236 468.568,376.068 460.404,364.141C454.768,355.908 469.393,333.221 473.093,327.74C473.656,326.911 474.481,326.298 475.439,326.009Z" fill="#FF3874"/>
<path d="M487.037,303.161C487.037,303.161 493.249,320.729 493.716,328.479C493.716,328.479 486.851,331.599 480.384,326.331C480.384,326.331 479.706,308.785 478.725,305.643L487.037,303.161Z" fill="url(#pf_0_310_682)"/>
<path d="M478.408,279.208C478.408,279.208 462.163,301.941 471.874,308.544C481.585,315.147 493.148,298.992 493.148,298.992C493.148,298.992 496.917,286.55 492.976,282.329C489.033,278.11 478.408,279.208 478.408,279.208Z" fill="url(#pf_0_310_683)"/>
<path d="M485.929,273.777C485.929,273.777 478.466,275.546 477.422,278.922C476.375,282.297 488.005,285.428 491.262,285.583L493.886,299.208C493.886,299.208 501.647,286.391 498.572,278.989C495.5,271.584 485.929,273.777 485.929,273.777Z" fill="url(#pf_0_310_684)"/>
<path d="M490.002,297.32C490.002,297.32 496.324,289.997 498.84,294.771C501.356,299.545 493.15,303.128 490.308,300.786L490.002,297.32Z" fill="url(#pf_0_310_685)"/>
<path d="M458.586,460.281C458.634,461.513 456.468,471.297 455.29,476.515C454.815,478.614 455.146,480.812 456.215,482.68L497.03,551.374C497.524,552.205 497.884,553.105 498.102,554.047C498.849,557.27 500.402,565.171 499.592,572.357L497.48,576.742L506.611,574.668L508.597,550.146L506.013,548.57C503.78,547.207 502.04,545.173 501.044,542.754C497.354,533.788 488.188,510.97 485.827,499.848C483.142,487.209 469.107,476.944 469.107,476.944L471.572,471.115L458.586,460.281Z" fill="url(#pf_0_310_686)"/>
<path d="M516.76,566.232C516.76,566.232 511.829,558.413 511.25,555.37C510.67,552.327 509.054,546.952 506.013,548.57C506.013,548.57 504.58,563.354 505.074,569.13C505.568,574.907 498.544,574.72 498.544,574.72C498.544,574.72 496.608,574.992 495.191,576.409C494.212,577.389 494.913,579.086 496.294,579.174C498.592,579.323 502.244,579.36 506.076,578.619C507.416,578.36 508.41,577.221 508.489,575.859L509.502,558.844L515.722,566.698L516.76,566.232Z" fill="url(#pf_0_310_687)"/>
<path d="M482.969,471.224C482.969,471.224 484.409,532.671 484.604,541.396C484.799,550.123 483.227,569.463 474.477,575.244L478.283,578.063C478.283,578.063 483.041,574.019 487.689,566.238C492.91,557.496 494.488,555.899 494.488,555.899L492.756,552.352C491.998,550.799 491.774,549.041 492.124,547.348C494.011,538.198 500.319,507.764 502.04,501.209C504.07,493.472 504.214,483.141 497.151,474.491C490.085,465.841 482.969,471.224 482.969,471.224Z" fill="url(#pf_0_310_688)"/>
<path d="M491.047,580.831C491.319,580.833 491.549,580.639 491.587,580.371C491.878,578.322 493.089,570.11 494.081,567.983C495.218,565.547 498.928,555.296 494.079,554.428C494.079,554.428 482.024,572.041 479.71,574.415C477.395,576.79 474.475,575.243 474.475,575.243C474.475,575.243 472.221,575.909 470.52,578.083C469.71,579.117 470.466,580.637 471.778,580.647L479.898,580.725C482.257,580.748 484.377,579.314 485.254,577.125C486.683,573.554 489.138,568.318 491.999,565.995L490.513,580.233C490.482,580.551 490.729,580.827 491.047,580.831Z" fill="url(#pf_0_310_689)"/>
<path d="M472.881,396.614C472.881,396.614 474.71,402.446 471.9,412.053L454.462,472.946C454.188,473.903 454.705,474.905 455.64,475.24C460.856,477.113 478.002,482.404 501.409,480.79C502.587,480.709 503.575,479.874 503.832,478.721C505.375,471.779 510.636,448.092 511.72,443.226C515.85,424.681 520.458,404.684 500.18,392.591C490.836,396.595 482.119,398.953 472.881,396.614Z" fill="url(#pf_0_310_690)"/>
<path d="M505.163,335.454C505.163,335.454 525.003,351.942 529.928,374.473C534.852,397.005 500.935,399.399 500.935,399.399C500.935,399.399 496.331,394.257 490.865,396.092C485.398,397.926 490.442,387.118 496.838,387.148C503.233,387.177 500.27,392.233 509.317,388.135C518.13,384.142 523.578,371.796 501.092,353.082C499.789,351.998 498.748,350.615 498.123,349.039C493.753,338.039 497.216,330.831 505.163,335.454Z" fill="url(#pf_0_310_691)"/>
<defs>
<linearGradient id="pf_0_310_600" x1="202.588" y1="502.998" x2="423.871" y2="132.314" gradientUnits="userSpaceOnUse">
<stop stop-color="#09005D"/>
<stop offset="1" stop-color="#1A0F91"/>
</linearGradient>
<linearGradient id="pf_0_310_605" x1="313.087" y1="348.982" x2="290.853" y2="515.495" gradientUnits="userSpaceOnUse">
<stop stop-color="#09005D"/>
<stop offset="1" stop-color="#1A0F91"/>
</linearGradient>
<linearGradient id="pf_0_310_652" x1="252.601" y1="119.287" x2="113.052" y2="402.614" gradientUnits="userSpaceOnUse">
<stop stop-color="#FE7062"/>
<stop offset="1" stop-color="#FF928E"/>
</linearGradient>
<linearGradient id="pf_0_310_654" x1="163.633" y1="558.867" x2="57.06" y2="674.789" gradientUnits="userSpaceOnUse">
<stop stop-color="#09005D"/>
<stop offset="1" stop-color="#1A0F91"/>
</linearGradient>
<linearGradient id="pf_0_310_655" x1="129.041" y1="567.476" x2="138.508" y2="567.476" gradientUnits="userSpaceOnUse">
<stop stop-color="#FEBBBA"/>
<stop offset="1" stop-color="#FF928E"/>
</linearGradient>
<linearGradient id="pf_0_310_656" x1="172.025" y1="427.771" x2="81.341" y2="550.681" gradientUnits="userSpaceOnUse">
<stop stop-color="#4042E2"/>
<stop offset="1" stop-color="#4F52FF"/>
</linearGradient>
<linearGradient id="pf_0_310_657" x1="139.724" y1="536.887" x2="33.15" y2="652.809" gradientUnits="userSpaceOnUse">
<stop stop-color="#09005D"/>
<stop offset="1" stop-color="#1A0F91"/>
</linearGradient>
<linearGradient id="pf_0_310_658" x1="94.923" y1="566.991" x2="103.096" y2="566.991" gradientUnits="userSpaceOnUse">
<stop stop-color="#FEBBBA"/>
<stop offset="1" stop-color="#FF928E"/>
</linearGradient>
<linearGradient id="pf_0_310_659" x1="155.864" y1="415.846" x2="65.18" y2="538.757" gradientUnits="userSpaceOnUse">
<stop stop-color="#4042E2"/>
<stop offset="1" stop-color="#4F52FF"/>
</linearGradient>
<linearGradient id="pf_0_310_662" x1="208.897" y1="264.164" x2="192.195" y2="311.884" gradientUnits="userSpaceOnUse">
<stop stop-color="#FEBBBA"/>
<stop offset="1" stop-color="#FF928E"/>
</linearGradient>
<linearGradient id="pf_0_310_664" x1="223.175" y1="269.16" x2="206.473" y2="316.88" gradientUnits="userSpaceOnUse">
<stop stop-color="#FEBBBA"/>
<stop offset="1" stop-color="#FF928E"/>
</linearGradient>
<linearGradient id="pf_0_310_665" x1="210.346" y1="299.648" x2="222.927" y2="274.269" gradientUnits="userSpaceOnUse">
<stop stop-color="#FEBBBA"/>
<stop offset="1" stop-color="#FF928E"/>
</linearGradient>
<linearGradient id="pf_0_310_667" x1="62.168" y1="389.014" x2="123.371" y2="389.014" gradientUnits="userSpaceOnUse">
<stop stop-color="#FEBBBA"/>
<stop offset="1" stop-color="#FF928E"/>
</linearGradient>
<linearGradient id="pf_0_310_669" x1="143.458" y1="352.037" x2="177.111" y2="492.258" gradientUnits="userSpaceOnUse">
<stop stop-color="#09005D"/>
<stop offset="1" stop-color="#1A0F91"/>
</linearGradient>
<linearGradient id="pf_0_310_672" x1="118.829" y1="382.597" x2="137.896" y2="382.597" gradientUnits="userSpaceOnUse">
<stop stop-color="#FEBBBA"/>
<stop offset="1" stop-color="#FF928E"/>
</linearGradient>
<linearGradient id="pf_0_310_673" x1="109.164" y1="323.585" x2="133.361" y2="323.585" gradientUnits="userSpaceOnUse">
<stop stop-color="#FEBBBA"/>
<stop offset="1" stop-color="#FF928E"/>
</linearGradient>
<linearGradient id="pf_0_310_675" x1="139.116" y1="308.191" x2="112.51" y2="291.963" gradientUnits="userSpaceOnUse">
<stop stop-color="#FEBBBA"/>
<stop offset="1" stop-color="#FF928E"/>
</linearGradient>
<linearGradient id="pf_0_310_676" x1="98.428" y1="274.858" x2="132.799" y2="302.005" gradientUnits="userSpaceOnUse">
<stop stop-color="#09005D"/>
<stop offset="1" stop-color="#1A0F91"/>
</linearGradient>
<linearGradient id="pf_0_310_677" x1="132.128" y1="314.242" x2="108.191" y2="299.642" gradientUnits="userSpaceOnUse">
<stop stop-color="#FEBBBA"/>
<stop offset="1" stop-color="#FF928E"/>
</linearGradient>
<linearGradient id="pf_0_310_679" x1="412.154" y1="278.675" x2="464.932" y2="363.26" gradientUnits="userSpaceOnUse">
<stop stop-color="#FEBBBA"/>
<stop offset="1" stop-color="#FF928E"/>
</linearGradient>
<linearGradient id="pf_0_310_680" x1="558.669" y1="270.89" x2="505.359" y2="306.433" gradientUnits="userSpaceOnUse">
<stop stop-color="#09005D"/>
<stop offset="1" stop-color="#1A0F91"/>
</linearGradient>
<linearGradient id="pf_0_310_682" x1="477.157" y1="337.186" x2="487.052" y2="315.211" gradientUnits="userSpaceOnUse">
<stop stop-color="#FEBBBA"/>
<stop offset="1" stop-color="#FF928E"/>
</linearGradient>
<linearGradient id="pf_0_310_683" x1="476.645" y1="283.782" x2="496.726" y2="327.258" gradientUnits="userSpaceOnUse">
<stop stop-color="#FEBBBA"/>
<stop offset="1" stop-color="#FF928E"/>
</linearGradient>
<linearGradient id="pf_0_310_684" x1="544.342" y1="249.402" x2="491.031" y2="284.946" gradientUnits="userSpaceOnUse">
<stop stop-color="#09005D"/>
<stop offset="1" stop-color="#1A0F91"/>
</linearGradient>
<linearGradient id="pf_0_310_685" x1="486.096" y1="279.417" x2="506.177" y2="322.893" gradientUnits="userSpaceOnUse">
<stop stop-color="#FEBBBA"/>
<stop offset="1" stop-color="#FF928E"/>
</linearGradient>
<linearGradient id="pf_0_310_686" x1="532.682" y1="610.85" x2="458.96" y2="477.783" gradientUnits="userSpaceOnUse">
<stop stop-color="#FEBBBA"/>
<stop offset="1" stop-color="#FF928E"/>
</linearGradient>
<linearGradient id="pf_0_310_687" x1="516.782" y1="563.9" x2="494.866" y2="563.692" gradientUnits="userSpaceOnUse">
<stop stop-color="#09005D"/>
<stop offset="1" stop-color="#1A0F91"/>
</linearGradient>
<linearGradient id="pf_0_310_688" x1="517.664" y1="505.898" x2="590.25" y2="469.253" gradientUnits="userSpaceOnUse">
<stop stop-color="#FEBBBA"/>
<stop offset="1" stop-color="#FF928E"/>
</linearGradient>
<linearGradient id="pf_0_310_689" x1="496.424" y1="567.665" x2="470.298" y2="567.417" gradientUnits="userSpaceOnUse">
<stop stop-color="#09005D"/>
<stop offset="1" stop-color="#1A0F91"/>
</linearGradient>
<linearGradient id="pf_0_310_690" x1="462.417" y1="391.613" x2="523.683" y2="531.735" gradientUnits="userSpaceOnUse">
<stop stop-color="#09005D"/>
<stop offset="1" stop-color="#1A0F91"/>
</linearGradient>
<linearGradient id="pf_0_310_691" x1="525.602" y1="405.555" x2="419.932" y2="248.88" gradientUnits="userSpaceOnUse">
<stop stop-color="#FEBBBA"/>
<stop offset="1" stop-color="#FF928E"/>
</linearGradient>
</defs>
</svg>
