<svg width="92" height="64" viewBox="0 0 92 64" fill="none" xmlns="http://www.w3.org/2000/svg" xmlns:xlink="http://www.w3.org/1999/xlink">
<path d="M86,0L6,0C2.686,0 0,2.686 0,6L0,58C0,61.314 2.686,64 6,64L86,64C89.314,64 92,61.314 92,58L92,6C92,2.686 89.314,0 86,0Z" fill="#FFFFFF"/>
<path d="M6,2L86,2L86,0L6,0L6,2ZM86,2C88.209,2 90,3.791 90,6L92,6C92,2.686 89.314,0 86,0L86,2ZM90,6L90,58L92,58L92,6L90,6ZM90,58C90,60.209 88.209,62 86,62L86,64C89.314,64 92,61.314 92,58L90,58ZM86,62L6,62L6,64L86,64L86,62ZM6,62C3.791,62 2,60.209 2,58L0,58C0,61.314 2.686,64 6,64L6,62ZM2,58L2,6L0,6L0,58L2,58ZM2,6C2,3.791 3.791,2 6,2L6,0C2.686,0 0,2.686 0,6L2,6Z" fill="#939393"/>
<path d="M52.363,32L54.484,34.122L56.605,32L54.484,29.879L52.363,32ZM35.515,19.396L50.241,34.122L54.484,29.879L39.758,15.153L35.515,19.396ZM50.241,29.879L35.515,44.605L39.758,48.848L54.484,34.122L50.241,29.879Z" fill="#179E8A"/>
</svg>
