<svg width="222" height="540" viewBox="0 0 222 540" fill="none" xmlns="http://www.w3.org/2000/svg" xmlns:xlink="http://www.w3.org/1999/xlink">
<path d="M193.748,245.22C193.748,245.22 199.468,258.366 200.994,260.167C202.52,261.967 210.171,266.545 210.775,266.243C211.374,265.936 211.582,265.299 210.819,264.097C210.051,262.895 206.79,259.486 207.427,259.387C208.058,259.288 218.191,268.57 220.463,267.083C222.736,265.595 222.412,256.659 218.987,251.433C215.556,246.208 202.443,240.631 201.746,239.84C195.812,233.116 193.748,245.22 193.748,245.22Z" fill="#FFB27D"/>
<path d="M145.381,78.999C145.381,78.999 153.439,142.266 161.387,171.967C161.387,171.967 209.027,240.005 208.901,243.474C208.901,243.474 203.598,253.354 191.182,248.381C191.182,248.381 134.458,206.038 127.229,193.556C119.999,181.074 102.506,116.681 102.917,109.073C103.323,101.471 130.714,61.4 145.381,78.999Z" fill="#02015C"/>
<path d="M7.845,495.901C7.845,495.901 -1.431,504.497 0.38,510.607C2.191,516.716 10.557,520.784 11.688,528.249C12.818,535.714 17.341,539.787 21.414,539.787C25.487,539.787 40.824,539.787 40.824,539.787C40.824,539.787 43.821,534.534 36.581,532.953C29.341,531.372 26.613,522.595 27.063,514.455C27.513,506.309 26.382,495.451 26.382,495.451L11.001,491.834L7.845,495.901Z" fill="#2C3A64"/>
<path d="M123.435,539.475C123.512,539.513 123.594,539.546 123.698,539.585L175.944,539.585C175.455,537.724 173.748,534.337 167.77,533.365C159.663,532.048 145.611,527.338 142.477,516.964C142.378,516.635 142.29,516.289 142.208,515.943C139.721,504.861 121.624,519.335 121.624,519.335C121.624,519.335 121.569,519.774 121.492,520.526C121.075,524.599 119.999,537.757 123.435,539.475Z" fill="#2C3A64"/>
<path d="M165.619,243.002C165.619,243.002 162.869,277.292 159.641,318.51C155.25,374.504 149.969,443.276 149.448,456.308C148.548,478.934 144.919,515.124 144.919,515.124C144.919,515.124 136.329,523.72 119.132,520.096C119.132,520.096 103.806,468.434 99.431,413.773C99.365,412.878 99.294,411.973 99.228,411.072C95.155,355.424 88.826,238.248 88.826,238.248L165.619,243.002Z" fill="#F04365"/>
<path d="M165.619,243.001C165.619,243.001 162.869,277.292 159.641,318.509L99.437,413.778C99.371,412.883 99.3,411.978 99.234,411.077C95.161,355.429 88.832,238.253 88.832,238.253L165.619,243.001Z" fill="#C0314D"/>
<path d="M153.071,247.075C153.071,247.075 103.532,371.261 70.959,429.626C38.387,487.986 28.205,504.272 28.205,504.272C28.205,504.272 9.542,496.808 7.846,491.72C7.846,491.72 20.3,379.05 42.114,351.582C54.443,336.064 68.918,289.489 69.598,273.203C70.279,256.917 74.011,224.68 74.011,224.68L153.071,247.075Z" fill="#F04365"/>
<path d="M124.418,64.486C124.418,64.486 126.625,86.245 145.392,90.598C145.392,90.598 153.851,85.065 157.781,79.411C158.264,78.714 158.736,78.044 159.186,77.407C163.638,71.062 166.311,67.615 166.311,67.615C166.311,67.615 166.305,67.609 166.3,67.598C165.817,66.857 150.003,42.809 149.509,43.572C138.047,61.143 124.418,64.486 124.418,64.486Z" fill="#FFB27D"/>
<path d="M148.888,49.21C148.322,54.589 150.342,67.247 159.185,77.402C163.637,71.057 166.31,67.61 166.31,67.61C166.31,67.61 166.305,67.604 166.299,67.593C165.8,67.017 149.047,47.618 148.888,49.21Z" fill="#ED975D"/>
<path d="M171.366,70.09C171.366,70.09 142.669,59.013 149.843,41.25C157.017,23.487 158.148,10.094 176.767,16.417C195.391,22.741 196.193,30.947 195.238,37.457C194.288,43.967 179.012,72.516 171.366,70.09Z" fill="#FFB27D"/>
<path d="M75.328,246.976C89.555,259.129 172.051,258.761 168.445,248.705C166.738,243.968 163.647,234.686 162.132,221.188C160.771,209.074 160.667,193.55 163.977,174.843C164.784,170.255 165.799,165.474 167.051,160.506C168.736,153.793 169.998,146.926 170.811,140.196C171.074,137.984 171.294,135.789 171.464,133.615C172.765,116.736 171.041,101.366 165.81,92.397C157.856,78.757 133.051,60.341 133.051,60.341C133.051,60.341 81.53,72.593 69.597,167.581C69.603,167.581 62.95,236.398 75.328,246.976Z" fill="#01008A"/>
<path d="M187.135,50.236C185.977,47.969 183.485,46.723 180.971,47.129C176.805,47.804 170.673,49.539 167.934,54.007C164.619,59.408 167.589,68.427 166.019,75.09C164.663,80.848 171.255,86.661 171.255,86.661C171.255,86.661 174.401,81.03 180.021,77.215C184.627,74.091 190.753,63.997 190.385,59.326C190.176,56.663 188.524,52.947 187.135,50.236Z" fill="#739AF0"/>
<path d="M147.817,46.037C147.334,46.021 140.895,44.023 144.534,17.071C145.105,12.839 148.684,5.286 156.484,1.784C164.284,-1.718 180.592,2.476 192.86,7.833C205.128,13.191 203.559,21.084 201.923,28.972C200.205,37.255 204.327,47.86 204.327,47.86C191.389,46.696 185.219,31.502 180.471,30.064C175.723,28.626 170.135,33.84 168.494,35.613C166.853,37.386 165.283,38.72 161.572,33.599C157.862,28.478 154.596,39.044 154.239,41.251C154.233,41.256 151.868,46.158 147.817,46.037Z" fill="#A9453D"/>
<path d="M163.971,174.844C164.778,170.255 165.794,165.474 167.045,160.506C168.73,153.793 169.993,146.926 170.805,140.197C157.11,121.704 136.734,103.442 124.411,104.117C124.417,104.122 123.764,159.628 163.971,174.844Z" fill="#02015C"/>
<path d="M114.526,77.792C114.526,77.792 135.428,72.424 152.06,92.662C168.687,112.906 198.13,167.918 198.13,167.918C198.13,167.918 192.295,177.996 175.065,172.551C166.31,169.79 74.258,95.16 114.526,77.792Z" fill="#3232AA"/>
<path d="M193.854,85.114C193.854,85.114 192.411,79.131 194.03,73.46C195.353,68.822 192.636,57.196 190.962,54.891C189.287,52.585 181.745,48.057 181.026,49.341C180.302,50.626 183.035,57.646 183.255,58.87C183.804,61.889 183.491,65.606 182.997,65.304C182.503,65.002 178.452,60.808 178.452,60.808C178.452,60.808 177.563,61.988 178.452,64.508C179.347,67.027 181.69,72.538 183.277,74.004C184.863,75.475 184.836,86.656 184.836,86.656L193.854,85.114Z" fill="#FFB27D"/>
<path d="M196.862,73.708C196.862,73.708 209.295,130.976 198.102,168.077C198.102,168.077 181.981,171.173 175.745,161.77C169.51,152.372 180.735,76.387 180.735,76.387C180.735,76.387 187.712,67.912 196.862,73.708Z" fill="#3232AA"/>
</svg>
