<svg width="204" height="176" viewBox="0 0 204 176" fill="none" xmlns="http://www.w3.org/2000/svg" xmlns:xlink="http://www.w3.org/1999/xlink">
<path d="M84.816,174.351C77.402,168.58 69.777,165.968 65.735,162.224C57.7,154.786 63.11,136.24 57.289,123.764C51.455,111.3 35.348,113.166 35.982,92.978C36.629,72.791 28.32,68.176 12.361,52.503C-3.598,36.831 -0.364,2.998 6.167,0.834C12.684,-1.318 7.224,8.284 17.423,18.845C27.611,29.417 52.961,24.678 64.23,32.527C75.499,40.376 67.315,59.058 80.96,70.216C94.605,81.386 118.524,67.84 130.204,79.234C141.884,90.627 131.722,112.917 141.573,125.717C151.424,138.516 171.575,140.556 182.981,149.586C189.399,154.661 199.014,162.398 203.939,174.327L84.816,174.327L84.816,174.351Z" clip-rule="evenodd" fill-rule="evenodd" fill="#C6E2AE"/>
<path d="M138.874,174.352L122.666,155.532L60.697,144.984C60.635,143.852 60.585,142.708 60.523,141.551L119.233,151.539L108.2,138.74L59.379,130.431C59.142,129.225 58.844,128.031 58.483,126.874L104.767,134.747L96.47,125.108C96.433,125.058 96.383,125.02 96.346,124.971L72.24,96.984L36.007,90.814C36.007,89.62 35.969,88.476 35.907,87.394L68.82,92.991L47.773,68.549C47.724,68.5 47.686,68.45 47.649,68.4L12.908,28.062C12.299,27.365 12.386,26.308 13.082,25.699C13.779,25.089 14.836,25.176 15.446,25.873L47.015,62.529L44.937,27.241C46.082,27.378 47.214,27.527 48.321,27.676L50.609,66.721L74.33,94.26C74.367,94.297 74.392,94.335 74.429,94.372L96.371,119.846L100.563,74.93C101.682,74.893 102.814,74.831 103.946,74.769L99.418,123.379L107.777,133.081L113.437,74.296C114.581,74.284 115.7,74.296 116.807,74.346L110.899,135.755L111.347,135.83C112.255,135.979 112.877,136.85 112.728,137.758C112.678,138.019 112.578,138.268 112.429,138.467L124.756,152.771C124.793,152.808 124.83,152.858 124.868,152.895L143.302,174.302L138.874,174.302L138.874,174.352ZM144.981,174.352L148.998,132.571C150.031,133.267 151.088,133.927 152.183,134.536L148.352,174.352L144.981,174.352ZM154.061,174.352L157.631,137.31C158.701,137.807 159.783,138.28 160.865,138.74L157.432,174.352L154.061,174.352L154.061,174.352ZM176.115,174.352L178.764,146.776C179.871,147.422 180.941,148.106 181.936,148.828L179.473,174.352L176.115,174.352L176.115,174.352Z" clip-rule="evenodd" fill-rule="evenodd" fill="#E1E8F6"/>
</svg>
