<svg width="698" height="488" viewBox="0 0 698 488" fill="none" xmlns="http://www.w3.org/2000/svg" xmlns:xlink="http://www.w3.org/1999/xlink">
<g opacity="0.1">
<path d="M59.816,484.006L670.19,484.006C720.78,441.804 694.746,314.812 652.488,289.068C607.002,261.356 679.23,165.52 609.16,134.413C563.408,114.103 490.644,136.24 500.432,81.9C514.006,6.547 355.372,-12.757 238.5,7.552C112.149,29.513 227.534,137.479 88.584,159.232C17.134,170.419 30.941,266.118 37.604,285.894C43.406,303.118 81.795,330.44 28.443,368.062C-49.79,423.228 57.972,482.99 59.816,484.006Z" fill="#9BC1F9"/>
</g>
<path d="M601.986,161.682C601.986,161.682 591.995,183.436 585.27,192.623C578.546,201.813 572.141,210.598 566.775,236.101C561.41,261.605 562.329,264.167 560.863,270.754C559.394,277.342 549.837,304.03 549.784,308.924C549.727,313.817 530.471,341.676 525.537,354.715C520.603,367.754 511.866,386.38 512.357,395.864L514.552,395.308C514.552,395.308 516.342,373.196 531.565,350.85C546.787,328.504 544.611,324.286 561.898,312.804C579.187,301.326 590.352,269.613 590.352,269.613C590.352,269.613 607.938,235.169 607.118,217.263C606.298,199.358 610.969,183.21 601.986,161.682Z" fill="#256653"/>
<path d="M578.586,128.225C578.586,128.225 578.004,142.515 573.394,151.002C568.785,159.49 564.815,164.646 563.979,173.831C563.143,183.016 560.249,206.691 547.395,218.25C534.542,229.809 532.901,264.443 523.119,274.922C513.337,285.399 512.059,292.93 513.865,310.899C515.671,328.869 521.809,353.773 507.618,386.279L504.41,378.193C504.41,378.193 514.562,351.451 512.104,335.793C509.647,320.132 501.095,296.473 504.225,285.125C507.355,273.778 495.716,271.562 502.724,254.399C509.732,237.236 506.854,231.273 516.398,216.433C516.398,216.433 517.376,215.739 519.884,203.183C522.393,190.627 542.619,167.616 551.94,159.763C561.256,151.914 574.689,139.328 578.586,128.225Z" fill="#256653"/>
<path d="M540.622,198.977C540.622,198.977 529.46,218.085 529.302,230.387C529.144,242.686 530.476,252.69 524.829,269.534C519.182,286.378 530.39,297.026 527.16,306.326C523.931,315.626 523.679,326.635 523.778,334.984C523.877,343.332 510.994,370.966 509.032,384.956C507.071,398.946 509.576,398.995 509.576,398.995C509.576,398.995 511.713,380.523 514.677,374.415C517.641,368.308 526.654,347.25 528.76,339.103C530.867,330.956 536.573,325.727 541.496,311.927C546.419,298.13 553.419,286.507 552.883,266.929C552.35,247.346 560.229,226.68 540.622,198.977Z" fill="#3C8F7C"/>
<path d="M516.99,386.168C516.99,386.168 522.195,361.917 544.144,359.494C566.094,357.071 578.985,361.413 594.492,343.692C609.999,325.972 619.004,297.855 623.956,293.015C623.956,293.015 616.165,289.009 603.213,301.117C590.26,313.226 581.164,322.41 573.665,329.461C566.166,336.512 560.077,331.914 552.16,336.563C545.527,340.46 536.946,351.716 533.167,357.612C531.939,359.529 530.484,361.284 528.812,362.828C527.292,364.232 525.481,365.95 524.317,367.218C521.994,369.75 515.291,386.254 515.291,386.254L516.99,386.168Z" fill="#3C8F7C"/>
<path d="M509.256,381.891C509.256,381.891 516.991,352.231 511.81,337.718C506.63,323.203 490.41,312.464 491.061,303.347C491.712,294.229 502.127,269.586 493.637,251.241C493.637,251.241 490.41,267.606 487.229,271.248C484.045,274.887 462.205,289.569 466.078,308.956C469.95,328.344 491.182,332.876 496.413,338.584C501.642,344.293 508.701,344.284 508.747,348.079C508.792,351.874 510.17,365.674 507.825,379.291L509.256,381.891Z" fill="#3C8F7C"/>
<path d="M517.715,362.04L528.583,330.737C528.583,330.737 534.966,305.561 538.668,284.565C542.369,263.57 540.624,198.973 540.624,198.973C540.624,198.973 529.462,218.081 529.304,230.383C529.145,242.682 530.477,252.686 524.83,269.53C519.184,286.374 530.392,297.022 527.162,306.322C523.933,315.622 523.681,326.631 523.78,334.98C523.879,343.328 510.993,370.962 509.034,384.952C507.96,392.617 508.228,396.09 508.689,397.671C506.941,385.434 517.715,362.04 517.715,362.04Z" fill="#327F6B"/>
<path d="M571.24,343.395C561.546,345.33 552.879,344.67 541.371,353.236C529.863,361.801 523.096,370.948 523.096,370.948C523.096,370.948 517.923,380.192 515.785,385.067C515.476,385.812 515.297,386.257 515.297,386.257L516.993,386.171C516.993,386.171 522.198,361.919 544.148,359.496C566.097,357.073 578.988,361.415 594.495,343.695C610.002,325.974 619.007,297.858 623.959,293.018C623.959,293.018 607.466,305.847 597.277,317.202C587.085,328.555 580.934,341.457 571.24,343.395Z" fill="#327F6B"/>
<path d="M487.229,271.242C484.045,274.881 462.205,289.563 466.078,308.95C469.95,328.338 491.182,332.87 496.413,338.578C501.642,344.287 508.701,344.279 508.747,348.074C508.792,351.869 510.17,365.668 507.825,379.285L508.452,380.422C509.596,375.107 511.188,367.016 511.708,360.871C512.552,350.89 510.934,346.76 507.728,338.675C504.52,330.589 484.589,314.123 479.596,305.466C474.603,296.81 489.225,282.337 492.474,275.35C495.719,268.364 493.645,251.235 493.645,251.235C493.645,251.235 490.41,267.602 487.229,271.242Z" fill="#327F6B"/>
<path d="M539.039,367.562L542.45,359.316C545.098,353.251 551.871,350.356 557.582,352.846C571.968,359.125 578.224,376.608 571.553,391.889L566.675,403.062C564.539,407.956 565.282,413.343 568.163,417.138C570.778,420.587 571.207,425.382 569.393,429.538L566.823,435.429C564.038,441.808 558.622,446.53 552.198,448.478C548.44,449.617 545.122,452.437 543.367,456.457L539.725,464.797C535.699,474.019 525.4,478.423 516.719,474.633L511.766,472.47C503.086,468.681 499.312,458.135 503.338,448.913C509.847,437.887 509.327,429.659 507.02,424.077C503.63,415.87 503.667,406.428 507.336,398.024L507.851,396.845C511.723,387.974 519.201,381.351 528.107,378.516C532.041,377.267 536.139,374.209 539.039,367.562Z" fill="#50BFA5"/>
<path d="M477.606,484.007C484.588,474.954 522.872,426.461 547.834,418.378C575.388,409.459 549.418,444.887 549.418,444.887C549.418,444.887 598.3,391.436 616.237,396.255C632.679,400.671 616.237,433.802 616.237,433.802C616.237,433.802 634.757,415.457 657.215,415.457C679.074,415.457 641.944,480.523 639.942,484.007L477.606,484.007L477.606,484.007Z" fill="#96D9C9"/>
<path d="M624.921,379.098C604.949,410.289 590.373,444.939 582.04,481.75L580.671,481.382C588.971,445.341 603.449,410.752 623.388,379.597C628.022,372.355 633.026,363.766 641.701,360.941C641.867,360.887 641.931,361.142 641.773,361.201C633.846,364.186 629.255,372.328 624.921,379.098Z" fill="#3C8F7C"/>
<path d="M586.854,483.043C609.171,452.695 636.304,424.642 668.566,400.251C668.888,400.007 669.322,400.57 668.998,400.82C638.4,424.34 611.329,452.113 588.551,483.502L586.854,483.043Z" fill="#3C8F7C"/>
<path d="M626.746,359.757C627.26,360.513 629.227,362.485 629.806,365.077C630.584,367.534 629.97,370.611 629.903,370.504C629.755,370.565 632.181,368.515 632.937,365.254C633.917,362.126 633.231,357.784 632.009,356.348C629.903,353.097 626.22,352.767 625.505,354.343C624.749,355.906 625.711,358.036 626.746,359.757Z" fill="#3C8F7C"/>
<path d="M631.524,387.599C630.779,387.071 628.844,385.064 626.266,384.434C623.824,383.608 620.737,384.16 620.841,384.23C620.777,384.378 622.876,381.992 626.151,381.298C629.297,380.379 633.623,381.151 635.038,382.4C638.246,384.57 638.503,388.258 636.914,388.942C635.332,389.671 633.223,388.668 631.524,387.599Z" fill="#3C8F7C"/>
<path d="M624.313,399.8C623.568,399.272 621.636,397.265 619.055,396.635C616.613,395.81 613.526,396.362 613.631,396.431C613.566,396.579 615.665,394.193 618.94,393.499C622.086,392.58 626.412,393.352 627.827,394.601C631.035,396.772 631.292,400.459 629.703,401.143C628.124,401.872 626.012,400.869 624.313,399.8Z" fill="#3C8F7C"/>
<path d="M650.033,428.103C649.288,427.575 647.356,425.568 644.775,424.938C642.333,424.112 639.246,424.664 639.35,424.734C639.286,424.881 641.384,422.496 644.659,421.802C647.806,420.883 652.131,421.655 653.546,422.904C656.754,425.074 657.012,428.762 655.422,429.446C653.841,430.177 651.732,429.172 650.033,428.103Z" fill="#3C8F7C"/>
<path d="M663.173,416.529C662.427,416.001 660.493,413.993 657.914,413.363C655.473,412.538 652.385,413.09 652.49,413.16C652.426,413.307 654.524,410.922 657.799,410.228C660.945,409.309 665.271,410.08 666.686,411.329C669.894,413.5 670.151,417.188 668.562,417.871C666.981,418.6 664.872,417.595 663.173,416.529Z" fill="#3C8F7C"/>
<path d="M616.655,373.566C617.282,374.231 619.536,375.869 620.517,378.337C621.672,380.642 621.551,383.777 621.468,383.681C621.331,383.764 623.403,381.357 623.636,378.018C624.111,374.775 622.749,370.597 621.318,369.369C618.724,366.491 615.036,366.748 614.578,368.415C614.077,370.08 615.363,372.031 616.655,373.566Z" fill="#3C8F7C"/>
<path d="M606.053,387.402C606.945,387.876 610.062,388.734 611.63,391.065C613.404,393.142 613.629,396.691 613.511,396.621C613.345,396.774 615.733,393.196 615.631,389.366C615.851,385.542 613.581,381.465 611.579,380.71C607.872,378.614 603.129,380.482 602.74,382.543C602.292,384.62 604.193,386.244 606.053,387.402Z" fill="#3C8F7C"/>
<path d="M594.895,408.361C595.854,408.677 599.07,408.999 601.008,411.036C603.106,412.783 603.927,416.246 603.798,416.195C603.659,416.374 605.411,412.445 604.666,408.688C604.24,404.88 601.316,401.245 599.215,400.838C595.208,399.396 590.848,402.036 590.81,404.132C590.719,406.249 592.869,407.533 594.895,408.361Z" fill="#3C8F7C"/>
<path d="M627.917,422.965C628.616,423.402 631.103,424.276 632.245,426.264C633.569,428.054 633.553,430.954 633.459,430.89C633.314,431.005 635.461,428.231 635.595,425.109C635.992,422.011 634.378,418.564 632.792,417.838C629.895,415.922 625.931,417.173 625.497,418.824C625.014,420.486 626.469,421.917 627.917,422.965Z" fill="#3C8F7C"/>
<path d="M645.106,364.664C644.688,364.318 643.632,363.047 642.134,362.562C640.724,361.967 638.875,362.16 638.934,362.203C638.888,362.286 640.234,360.968 642.204,360.702C644.106,360.298 646.631,360.944 647.411,361.742C649.215,363.168 649.204,365.36 648.234,365.695C647.269,366.054 646.066,365.368 645.106,364.664Z" fill="#3C8F7C"/>
<path d="M641.104,355.755C641.123,356.297 641.485,357.91 640.954,359.392C640.566,360.872 639.285,362.22 639.285,362.145C639.191,362.129 641.056,361.869 642.469,360.472C643.951,359.213 644.982,356.819 644.824,355.713C644.797,353.416 643.053,352.084 642.195,352.649C641.324,353.193 641.131,354.565 641.104,355.755Z" fill="#3C8F7C"/>
<path d="M672.634,404.736C672.216,404.39 671.16,403.12 669.662,402.635C668.253,402.04 666.403,402.233 666.462,402.275C666.417,402.359 667.765,401.04 669.732,400.775C671.635,400.37 674.159,401.016 674.939,401.815C676.743,403.24 676.732,405.433 675.762,405.768C674.797,406.129 673.594,405.443 672.634,404.736Z" fill="#3C8F7C"/>
<path d="M667.804,395.752C667.866,396.29 668.362,397.866 667.954,399.388C667.689,400.895 666.521,402.345 666.515,402.27C666.421,402.261 668.26,401.849 669.552,400.343C670.927,398.968 671.757,396.497 671.511,395.406C671.294,393.117 669.45,391.935 668.64,392.568C667.812,393.181 667.732,394.564 667.804,395.752Z" fill="#3C8F7C"/>
<path d="M664.445,453.808C644.053,456.043 625.059,465.045 606.773,473.822C594.442,479.743 595.064,481.428 592.553,482.31C592.146,482.452 591.738,482.01 591.937,481.619C592.904,479.705 595.437,478.411 597.197,477.309C599.25,476.028 601.392,474.894 603.568,473.838C608.223,471.579 612.996,469.545 617.74,467.484C627.391,463.29 637.197,459.347 647.395,456.675C652.985,455.212 658.672,454.156 664.429,453.639C664.539,453.631 664.55,453.794 664.445,453.808Z" fill="#3C8F7C"/>
<path d="M646.064,447.483C646.198,448.319 647.069,450.75 646.531,453.148C646.212,455.515 644.483,457.852 644.472,457.737C644.325,457.729 647.166,456.967 649.087,454.531C651.143,452.296 652.279,448.389 651.824,446.703C651.339,443.146 648.383,441.418 647.163,442.458C645.912,443.471 645.877,445.634 646.064,447.483Z" fill="#3C8F7C"/>
<path d="M628.098,453.917C628.232,454.753 629.103,457.184 628.565,459.583C628.246,461.949 626.517,464.286 626.506,464.171C626.359,464.163 629.2,463.402 631.122,460.966C633.177,458.73 634.314,454.823 633.858,453.135C633.373,449.578 630.417,447.849 629.197,448.889C627.943,449.902 627.911,452.068 628.098,453.917Z" fill="#3C8F7C"/>
<path d="M609.844,462.054C609.978,462.89 610.849,465.321 610.31,467.719C609.991,470.086 608.262,472.423 608.252,472.308C608.104,472.3 610.945,471.539 612.867,469.102C614.922,466.867 616.059,462.96 615.603,461.271C615.118,457.715 612.162,455.986 610.942,457.026C609.688,458.039 609.653,460.205 609.844,462.054Z" fill="#3C8F7C"/>
<path d="M651.428,464.269C651.059,463.578 650.346,461.302 648.612,459.834C647.057,458.269 644.479,457.51 644.535,457.604C644.431,457.692 646.95,456.669 649.724,457.39C652.487,457.888 655.505,460.134 656.111,461.632C657.737,464.521 656.523,467.445 655.044,467.362C653.554,467.314 652.321,465.735 651.428,464.269Z" fill="#3C8F7C"/>
<path d="M632.742,470.886C632.372,470.195 631.659,467.92 629.922,466.451C628.368,464.886 625.79,464.127 625.846,464.221C625.741,464.31 628.261,463.286 631.035,464.007C633.798,464.505 636.815,466.751 637.421,468.249C639.048,471.141 637.834,474.062 636.354,473.979C634.87,473.931 633.634,472.352 632.742,470.886Z" fill="#3C8F7C"/>
<path d="M665.659,457.46C665.334,457.074 664.587,455.739 663.303,455.048C662.118,454.271 660.4,454.134 660.449,454.185C660.395,454.254 661.842,453.279 663.678,453.365C665.479,453.314 667.671,454.324 668.25,455.184C669.655,456.784 669.279,458.781 668.339,458.923C667.395,459.089 666.414,458.264 665.659,457.46Z" fill="#3C8F7C"/>
<path d="M663.503,448.675C663.428,449.17 663.489,450.701 662.758,451.963C662.155,453.244 660.761,454.26 660.774,454.193C660.691,454.163 662.436,454.238 663.956,453.201C665.518,452.303 666.855,450.293 666.898,449.259C667.257,447.16 665.893,445.657 665.017,446.027C664.132,446.375 663.728,447.595 663.503,448.675Z" fill="#3C8F7C"/>
<path d="M138.268,329.122C114.306,307.754 101.983,277.07 95.867,255.089C89.226,231.228 88.259,212.184 88.251,211.993L86.948,211.913C86.956,212.103 87.929,231.287 94.611,255.308C100.783,277.505 113.234,308.507 137.494,330.138L138.268,329.122Z" fill="#3C8F7C"/>
<path d="M90.981,206.468C92.163,211.962 91.174,217.154 88.655,220.9C84.707,217.993 81.601,213.337 80.419,207.843C79.237,202.349 80.226,197.161 82.746,193.411C86.696,196.316 89.799,200.974 90.981,206.468Z" fill="#3C8F7C"/>
<path d="M83.629,222.114C87.759,225.955 90.172,231.001 90.641,235.86C86.109,236.066 81.121,234.228 76.994,230.385C72.866,226.544 70.452,221.498 69.985,216.639C74.515,216.432 79.502,218.273 83.629,222.114Z" fill="#3C8F7C"/>
<path d="M81.695,238.552C86.825,240.162 91.032,243.735 93.525,248.074C89.802,250.464 84.812,251.153 79.682,249.542C74.553,247.932 70.345,244.359 67.853,240.02C71.575,237.63 76.563,236.941 81.695,238.552Z" fill="#3C8F7C"/>
<path d="M89.597,258.326C93.66,259.607 96.911,262.887 98.752,267.028C95.67,269.617 91.637,270.598 87.571,269.317C83.508,268.035 80.257,264.755 78.416,260.614C81.498,258.025 85.532,257.045 89.597,258.326Z" fill="#3C8F7C"/>
<path d="M96.535,230.103C99.732,226.884 103.97,225.51 108.07,225.952C108.298,230.291 106.8,234.691 103.602,237.91C100.405,241.129 96.168,242.504 92.067,242.062C91.84,237.723 93.338,233.322 96.535,230.103Z" fill="#3C8F7C"/>
<path d="M100.244,244.274C103.441,241.055 107.679,239.68 111.779,240.123C112.007,244.462 110.509,248.862 107.311,252.081C104.114,255.3 99.877,256.675 95.776,256.232C95.549,251.891 97.044,247.493 100.244,244.274Z" fill="#3C8F7C"/>
<path d="M123.83,358.099C101.7,354.872 82.763,341.764 70.773,331.333C57.756,320.01 49.887,309.311 49.809,309.204L49.021,309.657C49.099,309.764 57.027,320.543 70.127,331.944C82.233,342.48 101.365,355.722 123.771,358.986L123.83,358.099Z" fill="#50BFA5"/>
<path d="M49.276,304.948C52.071,307.689 53.486,311.085 53.462,314.229C50.051,314.054 46.459,312.538 43.664,309.799C40.869,307.057 39.454,303.661 39.478,300.518C42.89,300.692 46.481,302.206 49.276,304.948Z" fill="#50BFA5"/>
<path d="M51.009,316.862C54.884,317.511 58.221,319.518 60.357,322.163C57.8,324.023 54.198,324.867 50.323,324.219C46.447,323.57 43.111,321.563 40.975,318.918C43.529,317.058 47.133,316.211 51.009,316.862Z" fill="#50BFA5"/>
<path d="M56.188,327.158C59.787,326.127 63.606,326.588 66.718,328.155C65.471,330.975 62.834,333.288 59.235,334.322C55.636,335.354 51.817,334.893 48.705,333.325C49.951,330.506 52.588,328.193 56.188,327.158Z" fill="#50BFA5"/>
<path d="M68.369,335.623C71.223,334.808 74.37,335.467 77.028,337.169C76.23,339.857 74.263,341.975 71.408,342.789C68.554,343.604 65.408,342.945 62.749,341.243C63.548,338.555 65.515,336.438 68.369,335.623Z" fill="#50BFA5"/>
<path d="M61.575,316.554C62.199,313.456 64.134,311.031 66.686,309.715C68.484,312.151 69.302,315.281 68.677,318.379C68.053,321.478 66.118,323.903 63.564,325.219C61.768,322.785 60.951,319.652 61.575,316.554Z" fill="#50BFA5"/>
<path d="M69.168,323.369C69.792,320.271 71.727,317.845 74.281,316.529C76.08,318.965 76.897,322.096 76.273,325.194C75.648,328.292 73.713,330.717 71.159,332.033C69.361,329.597 68.543,326.467 69.168,323.369Z" fill="#50BFA5"/>
<path d="M137.155,424.329C111.63,434.02 83.53,428.901 64.453,422.901C43.745,416.388 28.895,407.456 28.747,407.367L28.182,408.447C28.329,408.538 43.289,417.538 64.134,424.099C83.399,430.161 111.786,435.328 137.629,425.519L137.155,424.329Z" fill="#96D9C9"/>
<path d="M25.603,402.182C30.237,403.98 33.799,407.493 35.673,411.586C31.934,413.497 27.19,413.784 22.556,411.985C17.922,410.184 14.361,406.673 12.487,402.581C16.226,400.67 20.97,400.383 25.603,402.182Z" fill="#96D9C9"/>
<path d="M34.646,416.535C39.165,414.949 43.935,415.455 47.81,417.543C46.21,421.555 42.882,424.908 38.361,426.495C33.842,428.081 29.072,427.575 25.196,425.487C26.799,421.478 30.128,418.125 34.646,416.535Z" fill="#96D9C9"/>
<path d="M46.389,426.634C49.6,423.04 53.947,421.247 58.211,421.325C58.586,425.76 57.176,430.41 53.963,434.004C50.752,437.601 46.405,439.394 42.141,439.313C41.769,434.88 43.179,430.228 46.389,426.634Z" fill="#96D9C9"/>
<path d="M62.82,431.847C66.031,428.25 70.378,426.457 74.642,426.538C75.017,430.973 73.607,435.623 70.394,439.217C67.183,442.814 62.836,444.607 58.572,444.526C58.2,440.093 59.609,435.444 62.82,431.847Z" fill="#96D9C9"/>
<path d="M47.362,415.001C44.535,411.322 43.275,406.886 43.576,402.863C47.298,403.297 51.104,405.46 53.929,409.14C56.756,412.82 58.016,417.255 57.715,421.278C53.993,420.844 50.187,418.681 47.362,415.001Z" fill="#96D9C9"/>
<path d="M64.432,420.344C61.554,416.708 60.225,412.285 60.458,408.252C64.178,408.622 68.01,410.72 70.891,414.357C73.77,417.994 75.099,422.416 74.866,426.449C71.143,426.082 67.311,423.984 64.432,420.344Z" fill="#96D9C9"/>
<path d="M84.413,433.276C85.169,431.36 86.667,430.028 88.425,429.479C89.27,431.25 89.414,433.354 88.661,435.27C87.905,437.186 86.407,438.518 84.649,439.068C83.805,437.296 83.66,435.192 84.413,433.276Z" fill="#96D9C9"/>
<path d="M191.941,482.134C191.941,482.134 224.463,353.511 213.679,340.585C198.775,322.723 186.479,381.976 185.273,376.943C173.88,329.415 170.846,268.602 134.092,262.164C113.201,258.506 138.919,307.385 137.369,320.605C135.823,333.826 98.174,289.932 75.294,266.937C52.415,243.942 40.598,258.501 55.054,287.416C69.034,315.377 114.254,345.932 104.933,349.558C95.612,353.184 39.022,317.076 32.092,332.51C23.596,351.437 108.481,377.192 100.489,381.445C92.495,385.696 51.924,371.695 53.034,386.167C54.143,400.64 108.68,400.101 107.75,406.466C106.241,416.774 70.167,393.444 68.583,407.704C66.962,422.292 116.039,419.631 115.189,431.01C114.702,437.549 104.169,427.687 102.617,436.743C99.08,457.396 163.776,482.55 163.776,482.55L191.941,482.134Z" fill="#3C8F7C"/>
<path d="M216.74,482.919C216.74,482.919 185.788,435.463 170.895,426.504C155.027,416.957 167.108,445.54 167.108,445.54C167.108,445.54 134.674,406.95 125.661,414.789C116.646,422.631 124.828,431.711 124.828,431.711C124.828,431.711 95.712,423.084 90.48,433.769C82.44,450.19 130.373,463.807 130.373,463.807C130.373,463.807 109.795,463.59 113.582,474.677C119.291,491.398 216.74,482.919 216.74,482.919Z" fill="#50BFA5"/>
<path d="M90.48,433.771C95.715,423.083 124.828,431.713 124.828,431.713C124.828,431.713 116.646,422.633 125.661,414.791C134.677,406.949 160.62,430.421 160.62,430.421C160.62,430.421 157.9,411.066 177.437,428.116C191.39,440.294 216.743,482.921 216.743,482.921L90.48,433.771Z" fill="#96D9C9"/>
<path d="M179.168,363.771L180.556,362.823C155.355,324.656 147.664,279.347 145.648,248.055C143.461,214.099 147.299,188.858 147.339,188.609L145.619,188.107C145.579,188.359 141.711,213.769 143.906,247.926C145.935,279.486 153.699,325.2 179.168,363.771Z" fill="#96D9C9"/>
<path d="M152.301,182.663C152.357,190.33 149.696,196.669 145.45,200.472C141.138,194.988 138.38,187.586 138.324,179.918C138.27,172.251 140.929,165.912 145.174,162.109C149.486,167.593 152.247,174.995 152.301,182.663Z" fill="#96D9C9"/>
<path d="M138.651,199.895C142.947,206.673 144.71,214.284 144.013,220.816C138.117,219.138 132.181,214.601 127.888,207.823C123.591,201.045 121.828,193.434 122.525,186.902C128.421,188.577 134.355,193.115 138.651,199.895Z" fill="#96D9C9"/>
<path d="M131.766,220.484C137.948,224.786 142.416,231.247 144.466,237.974C139.029,239.491 132.417,238.248 126.234,233.946C120.051,229.645 115.583,223.183 113.533,216.456C118.971,214.939 125.583,216.183 131.766,220.484Z" fill="#96D9C9"/>
<path d="M139.829,256.429C142.525,258.037 144.573,260.618 145.626,263.392C143.412,264.217 140.628,263.912 137.932,262.304C135.236,260.696 133.188,258.115 132.135,255.341C134.348,254.516 137.13,254.818 139.829,256.429Z" fill="#96D9C9"/>
<path d="M142.02,269.743C144.716,271.351 146.763,273.932 147.817,276.705C145.603,277.531 142.818,277.225 140.122,275.617C137.426,274.009 135.378,271.428 134.325,268.655C136.539,267.832 139.323,268.135 142.02,269.743Z" fill="#96D9C9"/>
<path d="M153.15,215.848C158.132,213.026 163.958,213.055 169.125,215.389C168.26,221.144 165.156,226.233 160.174,229.055C155.192,231.877 149.365,231.848 144.198,229.513C145.064,223.759 148.167,218.67 153.15,215.848Z" fill="#96D9C9"/>
<path d="M154.144,235.905C159.126,233.083 164.952,233.113 170.12,235.447C169.254,241.201 166.15,246.291 161.168,249.113C156.186,251.935 150.36,251.905 145.192,249.571C146.058,243.82 149.162,238.727 154.144,235.905Z" fill="#96D9C9"/>
<path d="M153.156,264.614C156.398,262.776 160.191,262.797 163.554,264.317C162.991,268.061 160.971,271.373 157.728,273.212C154.485,275.05 150.693,275.029 147.329,273.509C147.892,269.765 149.913,266.453 153.156,264.614Z" fill="#96D9C9"/>
<path d="M508.745,377.788C511.675,378.262 511.501,378.739 511.878,378.79C512.323,378.849 517.608,376.196 517.608,376.196C517.608,376.196 533.241,368.48 534.069,368.032L545.352,353.836L554.046,357.845C554.046,357.845 541.356,372.937 540.555,373.601C539.751,374.266 517.338,382.127 515.389,382.882C515.389,382.882 513.425,384.678 512.152,385.763C510.879,386.849 509.18,387.278 508.775,387.524C508.716,387.562 507.312,388.301 505.331,388.733C503.624,389.105 505.047,387.945 505.047,387.945C505.047,387.945 508.067,386.669 507.92,386.439C507.805,386.262 506.199,387.058 504.315,387.489C503.83,387.599 503.353,387.709 502.911,387.803C501.753,388.052 501.247,387.39 502.407,386.929C502.817,386.766 503.506,386.514 504.026,386.407C504.586,386.289 505.058,385.997 505.511,385.822C506.411,385.479 507.073,385.241 507.038,385.211C506.993,385.171 507.119,384.973 506.601,385.072C505.977,385.193 504.72,385.755 503.787,385.86C503.259,385.919 502.163,386.115 502.163,386.115C502.163,386.115 500.223,386.299 500.21,386.029C500.18,385.434 501.375,385.101 502.107,385.118C502.568,384.882 503.728,384.71 503.728,384.71C503.728,384.71 505.977,383.823 505.848,383.491C505.797,383.357 504.433,383.563 502.989,383.662C501.461,383.767 500.354,383.767 500.274,383.472C500.145,383.003 501.359,382.823 501.359,382.823C501.359,382.823 502.431,382.668 502.782,382.588C503.195,382.494 504.401,382.116 504.401,382.116C504.401,382.116 508.539,380.596 508.389,380.291C508.239,379.985 507.556,379.347 507.263,379.347C506.971,379.35 506.451,379.64 506.159,379.642C505.867,379.645 505.24,379.589 505.197,379.221C505.154,378.854 506.773,378.093 506.773,378.093C506.773,378.093 507.901,377.651 508.745,377.788Z" fill="#F8A492"/>
<path d="M537.5,362.631C537.5,362.631 540.314,365.188 541.485,366.029C542.458,366.729 547.202,369.012 547.202,369.012C547.202,369.012 551.921,361.787 553.985,358.163C556.488,353.768 558.222,347.229 557.63,347.052C555.968,346.553 553.685,346.25 551.576,347.218C544.272,350.571 537.5,362.631 537.5,362.631Z" fill="#355389"/>
<path d="M511.482,381.564C510.23,381.763 508.949,381.524 508.394,380.377C508.268,381.738 510.329,382.414 511.482,381.564Z" fill="#FE875E"/>
<path d="M161.618,330.879C161.792,326.672 161.176,322.515 159.3,318.599C157.686,315.228 153.696,313.317 150.056,313.312C138.5,313.295 137.031,328.631 129.674,334.546C127.426,336.352 124.915,337.826 122.787,339.774C114.931,346.97 118.469,360.296 125.681,366.604C130.685,370.984 138.551,373.471 144.72,370.048C147.939,368.261 150.383,365.291 152.125,362.038C154.596,357.42 156.191,352.089 157.946,347.169C159.82,341.926 161.387,336.473 161.618,330.879Z" fill="#13375B"/>
<path d="M163.509,351.255C159.899,340.304 155.134,340.476 155.134,340.476L158.985,363.792C161.215,363.184 164.117,361.825 166.344,361.198C165.605,357.735 164.396,353.951 163.509,351.255Z" fill="#F7CC7F"/>
<path d="M181.75,388.603L168.554,378.536C168.554,378.536 167.227,369.146 165.448,360.811C163.221,361.44 161.211,363.185 158.983,363.796L162.339,382.46L179.636,391.382L184.522,397.661L185.634,391.216L181.75,388.603Z" fill="#F48C7F"/>
<path d="M302.042,372.879C306.14,372.879 309.985,373.959 313.309,375.848C313.729,376.087 314.185,376.307 314.67,376.505C324.811,380.67 335.907,372.957 335.907,361.993L335.907,308.078L281.995,308.078C271.031,308.078 263.318,296.983 267.482,286.841C267.681,286.356 267.901,285.901 268.139,285.48C270.029,282.154 271.109,278.311 271.109,274.213C271.109,261.228 260.281,250.77 247.162,251.379C235.29,251.928 225.73,261.681 225.398,273.562C225.28,277.788 226.309,281.763 228.198,285.198C228.434,285.627 228.649,286.091 228.847,286.584C232.977,296.891 225.14,308.081 214.037,308.081L160.586,308.081L160.586,430.931C160.586,459.912 184.079,483.404 213.059,483.404L335.91,483.404L335.91,429.669C335.91,418.651 324.777,410.89 314.574,415.041C314.086,415.24 313.628,415.457 313.207,415.693C309.573,417.732 305.322,418.807 300.804,418.568C289.164,417.952 279.76,408.494 279.21,396.849C278.589,383.717 289.052,372.879 302.042,372.879Z" fill="#F47458"/>
<path d="M418.897,342.971C419.088,338.878 420.347,335.086 422.389,331.854C422.647,331.446 422.888,330.999 423.108,330.524C427.741,320.589 420.554,309.146 409.603,308.634L355.745,306.117L353.228,359.973C352.716,370.923 341.272,378.111 331.337,373.478C330.863,373.255 330.416,373.017 330.008,372.759C326.776,370.717 322.986,369.46 318.891,369.267C305.92,368.662 294.969,378.988 294.964,392.12C294.959,404.003 304.253,414.011 316.104,414.895C320.32,415.211 324.337,414.367 327.859,412.641C328.298,412.427 328.77,412.231 329.274,412.057C339.761,408.412 350.575,416.763 350.055,427.853L347.56,481.245L470.277,486.983C499.224,488.336 523.79,465.966 525.142,437.019L530.88,314.302L477.202,311.794C466.198,311.279 457.924,322.037 461.593,332.425C461.767,332.92 461.963,333.389 462.18,333.821C464.048,337.546 464.924,341.842 464.474,346.345C463.316,357.944 453.427,366.895 441.772,366.901C428.629,366.903 418.289,355.947 418.897,342.971Z" fill="#F7CC7F"/>
<path d="M268.828,258.173C269.035,262.265 268.15,266.159 266.43,269.574C266.213,270.005 266.017,270.471 265.843,270.967C262.193,281.304 270.453,292 281.403,291.448L335.251,288.741L332.544,234.894C331.995,223.946 342.688,215.683 353.025,219.333C353.521,219.508 353.986,219.703 354.418,219.92C357.832,221.641 361.726,222.525 365.82,222.319C378.788,221.668 388.688,210.328 387.424,197.255C386.278,185.425 376.058,176.367 364.176,176.632C359.95,176.726 356.032,177.956 352.695,180.014C352.28,180.272 351.827,180.51 351.344,180.733C341.259,185.377 329.687,178.112 329.13,167.022L326.444,113.638L203.749,119.807C174.807,121.262 152.522,145.905 153.978,174.847L160.147,297.543L213.815,294.844C224.817,294.292 232.01,282.784 227.352,272.8C227.13,272.323 226.891,271.876 226.631,271.468C224.409,267.941 223.123,263.75 223.136,259.226C223.166,247.57 232.141,237.702 243.743,236.569C256.825,235.293 268.175,245.196 268.828,258.173Z" fill="#50BFA5"/>
<path d="M379.039,228.453C374.941,228.453 371.095,227.373 367.772,225.484C367.351,225.245 366.896,225.025 366.411,224.827C356.269,220.662 345.174,228.375 345.174,239.34L345.174,293.254L399.088,293.254C410.052,293.254 417.766,304.349 413.601,314.491C413.403,314.976 413.183,315.432 412.944,315.852C411.055,319.179 409.975,323.021 409.975,327.119C409.975,340.105 420.802,350.561 433.921,349.953C445.794,349.405 455.353,339.651 455.686,327.771C455.804,323.545 454.772,319.569 452.885,316.134C452.649,315.705 452.435,315.241 452.236,314.748C448.104,304.441 455.943,293.251 467.046,293.251L520.497,293.251L520.497,170.403C520.497,141.424 497.004,117.931 468.025,117.931L345.174,117.931L345.174,171.666C345.174,182.683 356.307,190.445 366.51,186.293C366.997,186.095 367.456,185.878 367.877,185.642C371.511,183.603 375.761,182.525 380.28,182.766C391.919,183.383 401.324,192.841 401.873,204.485C402.492,217.615 392.032,228.453 379.039,228.453Z" fill="#184655"/>
<path d="M125.494,466.354C125.494,466.354 124.68,472.014 123.281,473.842C122.812,474.455 121.951,475.23 121.388,476.339C120.512,478.063 120.997,480.633 121.643,482.045C121.975,482.772 121.619,482.769 122.377,483.002C124.618,483.693 127,482.528 127.955,480.378C128.488,479.178 128.954,477.575 129.048,475.554C129.287,470.414 130.881,467.801 130.881,467.801L125.494,466.354Z" fill="#F7A491"/>
<path d="M150,468.939C150,468.939 150.504,475.323 150.094,477.395C149.874,478.505 148.657,480.793 149.217,481.839C149.775,482.884 150.413,483.146 150.413,483.146L164.877,483.38C165.665,483.393 165.145,482.884 164.51,482.415C163.47,481.648 162.631,481.142 159.308,479.531C159.091,479.426 158.303,478.923 158.019,478.748C157.298,478.306 156.574,477.612 155.95,476.918C154.91,475.758 154.821,470.137 154.821,470.137L150,468.939Z" fill="#F7A491"/>
<path d="M161.305,384.101C161.305,384.101 163.127,394.465 161.929,401.259C160.731,408.053 154.993,471.026 154.993,471.026L148.615,471.388C148.615,471.388 147.277,445.083 147.516,441.425C147.754,437.767 149.649,431.645 149.649,431.645L149.014,410.406L157.065,382.504L161.305,384.101Z" fill="#355389"/>
<path d="M142.558,381.921C142.558,381.921 137.536,389.497 136.338,395.769C135.142,402.04 137.217,421.312 134.915,429.532C133.668,433.981 128.949,440.85 128.231,446.598C127.512,452.347 124.698,467.406 124.698,467.406L131.074,468.674L145.892,431.068L157.515,397.076L160.493,379.57L142.558,381.921Z" fill="#466EB6"/>
<path d="M146.623,338.806C146.623,338.806 139.971,338.383 137.342,341.256C134.71,344.129 143.179,366.869 143.656,370.525C144.133,374.183 141.217,383.909 141.217,383.909C141.217,383.909 156.839,387.06 161.307,384.099C161.307,384.099 161.787,357.794 161.307,355.181C160.83,352.568 156.842,341.942 155.885,340.897C154.926,339.851 146.623,338.806 146.623,338.806Z" fill="#F7CC7F"/>
<path d="M148.837,329.9C148.837,329.9 148.803,330.096 148.741,330.431C148.443,332.034 147.302,337.351 146.53,338.811C145.597,340.578 149.722,346.211 153.691,345.522C154.873,345.319 152.691,340.347 152.799,339.819C153,338.811 153.27,337.437 153.549,336.027C153.707,335.231 153.865,334.424 154.015,333.668C154.439,331.514 154.787,329.753 154.787,329.753L148.837,329.9Z" fill="#F7A491"/>
<path d="M148.741,330.429C148.802,330.094 148.837,329.898 148.837,329.898L154.784,329.751C154.784,329.751 154.438,331.512 154.012,333.667C153.865,334.42 153.707,335.221 153.549,336.014C152.629,335.878 151.67,335.433 150.708,334.586C149.66,333.667 148.971,332.56 148.556,331.38C148.633,331.003 148.695,330.678 148.741,330.429Z" fill="#F47458"/>
<path d="M152.841,316.35C152.841,316.35 150.038,316.026 148.28,318.304C146.522,320.582 144.63,327.625 148.993,331.455C153.359,335.284 157.671,330.948 158.311,326.352C158.952,321.756 159.198,316.184 152.841,316.35Z" fill="#F7A491"/>
<path d="M159.604,326.285C159.084,327.3 158.208,327.861 157.65,327.539C157.093,327.217 157.063,326.135 157.583,325.119C158.103,324.103 158.98,323.54 159.537,323.862C160.094,324.186 160.124,325.269 159.604,326.285Z" fill="#F7A491"/>
<path d="M153.154,315.598C153.154,315.598 149.41,322.298 146.73,322.607C144.05,322.915 143.699,326.477 143.699,326.477C143.699,326.477 144.656,318.276 147.309,316.694C149.96,315.11 153.154,315.598 153.154,315.598Z" fill="#13375B"/>
<path d="M128.388,479.243C124.912,479.878 122.601,477.841 121.398,476.316C120.514,478.045 120.085,480.623 120.733,482.041C121.304,483.293 122.977,483.255 124.295,483.303C125.686,483.354 126.763,482.58 127.455,481.366C127.774,480.8 128.109,480.093 128.388,479.243Z" fill="#F47458"/>
<path d="M158.018,478.75C154.194,479.734 151.364,479.064 149.782,478.426C149.375,479.584 148.834,481.039 149.12,481.878C149.472,482.904 149.973,483.137 150.412,483.148C153.907,483.239 163.212,483.365 165.876,483.4C166.249,483.405 166.452,482.968 166.214,482.682C165.555,481.891 158.302,478.924 158.018,478.75Z" fill="#F47458"/>
<path d="M147.433,324.288C147.65,325.478 147.213,326.569 146.454,326.724C145.696,326.88 144.905,326.044 144.686,324.854C144.468,323.664 144.905,322.573 145.664,322.418C146.422,322.259 147.213,323.098 147.433,324.288Z" fill="#F7A491"/>
<path d="M151.806,328.407L155.188,328.56C155.188,328.56 155.051,329.841 153.564,329.817C151.747,329.787 151.806,328.407 151.806,328.407Z" fill="#FFFFFF"/>
<path d="M440.167,58.762C440.588,58.778 441.743,59.166 443.429,62.353C445.584,66.427 448.733,78.728 448.733,78.728L439.331,82.228L438.122,79.661L436.134,59.893C436.136,59.893 440.052,58.756 440.167,58.762Z" fill="#DD513A"/>
<path d="M427.741,56.987C430.429,56.99 437.081,57.775 440.168,58.762C440.168,58.762 442.436,78.254 438.126,93.066C437.161,96.382 438.925,106.812 438.925,106.812L411.068,106.445C411.068,106.445 414.367,81.231 413.124,77.16C411.88,73.086 411.851,58.896 411.851,58.896C411.851,58.896 412.041,58.866 418.109,57.818C420.942,57.325 424.871,56.982 427.741,56.987Z" fill="#F47458"/>
<path d="M424.496,142.991C424.496,142.991 425.112,150.104 426.246,152.074C427.379,154.044 426.187,157.391 426.125,157.852C426.066,158.31 423.74,158.967 420.041,158.573C416.343,158.179 416.405,157.327 416.702,155.947C417,154.569 418.969,152.795 419.087,151.482C419.208,150.168 417.954,145.441 417.954,145.441L424.496,142.991Z" fill="#F7A491"/>
<path d="M435.78,100.942C435.78,100.942 455.01,99.875 459.303,102.475C463.596,105.074 456.253,117.84 456.253,117.84C456.253,117.84 442.872,117.223 416.663,118.735C410.456,119.094 409.923,102.553 411.084,101.183C412.244,99.814 435.78,100.942 435.78,100.942Z" fill="#E0973F"/>
<path d="M419.583,159.123C415.774,158.718 416.246,156.848 416.554,155.427C416.747,154.538 417.838,153.49 418.489,152.498C418.829,152.769 419.384,153.248 421.035,153.736C422.753,154.243 425.106,153.24 426.604,152.611C427.14,154.599 427.164,157.137 427.114,157.523C427.052,157.998 423.388,159.53 419.583,159.123Z" fill="#DD513A"/>
<path d="M421.683,114.698C422.452,120.511 426.255,149.453 426.255,149.453L417.43,150.546C417.43,150.546 406.576,112.771 407.133,106.995C407.691,101.217 411.753,100.732 411.753,100.732C411.753,100.732 419.649,99.309 421.683,114.698Z" fill="#F7CC7F"/>
<path d="M411.548,61.059C414.153,60.081 415.426,83.55 415.777,93.209C420.389,93.654 428.429,93.211 430.431,93.061C431.372,92.992 433.543,92.196 434.481,92.072C435.44,91.946 436.311,91.882 436.78,91.963C436.955,91.992 441.76,93.959 442.173,94.391C442.682,94.927 444.062,96.275 443.829,96.856C443.596,97.441 441.178,95.232 441.178,95.232L439.997,94.568C441.468,96.004 444.277,97.899 443.872,98.588C443.478,99.26 440.945,97.339 439.142,96.028C440.691,97.427 442.612,99.928 442.17,100.319C441.771,100.67 439.584,97.773 437.247,96.939C436.381,96.631 435.516,97.486 434.835,97.591C434.334,97.666 433.562,97.829 433.069,97.69L430.536,96.972C429.673,97.049 429.652,97.558 428.781,97.746C427.77,97.96 426.111,98.188 424.825,98.502C417.412,100.314 414.938,101.155 412.668,101.152C405.791,101.15 405.395,63.369 411.548,61.059Z" fill="#F7A491"/>
<path d="M406.606,83.091C406.118,73.196 406.191,61.002 411.736,58.922C413.925,58.102 417.782,63.036 417.088,83.292C414.129,83.536 409.782,83.734 406.606,83.091Z" fill="#DD513A"/>
<path d="M450.305,149.074C450.305,149.074 449.535,151.543 450.913,153.177C452.293,154.81 458.023,156.412 458.774,157.297C459.527,158.181 459.468,158.934 459.468,158.934L443.385,158.492L443.559,153.636L444.299,150.146L450.305,149.074Z" fill="#F7A491"/>
<path d="M451.916,153.99C451.916,153.99 447.783,155.662 445.786,154.671C443.79,153.682 443.851,153.406 443.273,153.775C442.694,154.145 442.487,158.699 442.487,158.699L460.572,159.229C461.832,159.2 462.467,158.273 461.443,157.479C460.741,156.935 459.932,156.571 459.471,156.308C458.058,155.499 451.916,153.99 451.916,153.99Z" fill="#DD513A"/>
<path d="M449.696,105.5C450.94,102.884 453.767,99.478 458.742,101.531C463.485,103.487 464.758,108.295 463.263,113.218C461.767,118.142 451.913,147.086 451.57,151.066L443.701,151.117C443.701,151.117 445.13,128.2 445.481,122.66C445.816,117.327 447.544,110.026 449.696,105.5Z" fill="#F7CC7F"/>
<path d="M462.471,78.842L436.172,78.842C435.475,78.842 434.851,79.263 434.586,79.908L426.486,99.727L411.987,99.727C411.583,99.727 411.253,100.057 411.253,100.464C411.253,100.872 411.583,101.201 411.987,101.201L453.255,101.201C454.388,101.201 455.418,100.534 455.884,99.494L464.039,81.267C464.543,80.128 463.715,78.842 462.471,78.842Z" fill="#000000"/>
<path d="M448.307,90.381C448.131,91.271 447.356,91.866 446.579,91.711C445.802,91.555 445.317,90.706 445.493,89.816C445.67,88.926 446.445,88.331 447.222,88.487C447.999,88.642 448.484,89.492 448.307,90.381Z" fill="#FFFFFF"/>
<path d="M433.99,33.181C433.197,32.913 432.417,32.613 431.664,32.249C430.812,31.839 429.708,31.356 429.011,31.249C427.542,31.021 425.023,31.174 423.629,32.683C421.895,34.564 418.813,33.023 419.432,42.878C420.135,54.035 426.339,52.81 426.489,52.62C426.639,52.432 432.021,45.483 432.021,45.483C432.021,45.483 433.902,49.599 433.902,49.447C433.905,49.304 443.513,36.387 433.99,33.181Z" fill="#0E2E35"/>
<path d="M429.282,53.446L429.818,57.432C429.818,57.432 431.018,63.175 429.475,64.282C427.931,65.389 422.911,57.268 422.911,57.268L423.442,47.167L429.282,53.446Z" fill="#F7A491"/>
<path d="M423.269,50.442C424.544,53.889 427.581,56.006 429.736,56.826L429.283,53.446L423.44,47.167L423.269,50.442Z" fill="#F47458"/>
<path d="M428.965,36.176C432.235,35.648 435.169,38.277 435.086,41.552C435.051,42.975 434.933,44.752 434.639,46.666C433.928,51.268 430.787,55.32 428.713,54.958C426.639,54.596 421.413,50.627 422.335,44.077C422.9,40.033 425.532,36.728 428.965,36.176Z" fill="#F7A491"/>
<path d="M423.774,44.857C423.6,45.871 422.788,46.573 421.965,46.431C421.139,46.286 420.614,45.351 420.788,44.338C420.962,43.324 421.774,42.622 422.597,42.764C423.423,42.909 423.948,43.847 423.774,44.857Z" fill="#F7A491"/>
<path d="M422.597,42.764C422.597,42.764 425.108,43.388 426.038,41.772C426.971,40.159 430.299,36.675 434.534,38.119C438.768,39.564 430.809,34.609 430.468,34.609C430.131,34.609 426.065,34.579 426.065,34.579C426.065,34.579 422.932,37.157 422.819,37.439C422.707,37.723 421.804,40.81 421.804,40.81L422.597,42.764Z" fill="#0E2E35"/>
<path d="M427.189,49.503L431.756,50.377C431.756,50.377 431.319,52.097 429.301,51.77C426.84,51.374 427.189,49.503 427.189,49.503Z" fill="#FFFFFF"/>
<path d="M349.933,367.483C350.107,368.086 350.209,368.285 350.428,368.689C351.86,371.297 355.183,375.017 355.183,375.017L357.753,369.225C357.753,369.225 357.335,367.406 356.606,364.809C354.127,365.454 351.763,365.83 349.933,367.483Z" fill="#F8A492"/>
<path d="M364.671,362.462C364.671,362.462 350.332,368.637 349.869,368.519C349.571,368.444 343.989,359.098 343.927,350.313C343.9,346.256 348.113,341.372 352.817,342.337C355.183,342.822 355.148,343.482 358.651,348.571C362.157,353.661 364.671,362.462 364.671,362.462Z" fill="#13375B"/>
<path d="M376.91,473.152C376.91,473.152 376.569,478.783 376.567,478.794C376.441,479.509 375.95,481.276 375.95,481.924C375.95,484.366 387.544,479.852 384.944,478.77C384.709,478.671 383.476,477.931 383.401,477.1C383.283,475.819 382.98,473.23 382.98,473.23L376.91,473.152Z" fill="#F7A491"/>
<path d="M384.917,478.751C384.917,478.751 382.194,479.498 380.8,479.683C379.407,479.871 377.568,478.298 376.582,478.724C375.496,479.19 375.539,483.398 375.539,483.398C375.539,483.398 390.135,484.596 394.241,483.358C395.865,482.865 390.481,480.49 384.917,478.751Z" fill="#DD513A"/>
<path d="M353.193,473.152C353.193,473.152 352.852,478.783 352.85,478.794C352.724,479.509 352.233,481.276 352.233,481.924C352.233,484.366 363.827,479.852 361.228,478.77C360.992,478.671 359.394,477.379 359.317,476.548C359.199,475.267 359.26,473.23 359.26,473.23L353.193,473.152Z" fill="#F7A491"/>
<path d="M361.199,478.751C361.199,478.751 358.476,479.498 357.082,479.683C355.688,479.871 353.85,478.298 352.864,478.724C351.778,479.19 351.735,483.398 351.735,483.398C351.735,483.398 366.398,484.794 370.522,483.358C372.125,482.798 366.765,480.49 361.199,478.751Z" fill="#DD513A"/>
<path d="M356.735,370.605L366.946,356.301C366.989,356.175 367.083,355.921 367.225,355.529C367.74,354.109 368.809,351.156 369.742,348.218L369.752,348.186C370.044,347.16 370.666,345.367 371.267,343.635C371.934,341.708 372.762,339.318 372.792,338.91C372.765,338.841 372.716,338.715 372.655,338.549C372.28,337.576 371.773,335.263 371.596,334.255C371.484,333.615 371.368,332.057 372.13,332.057C373.328,332.057 372.757,333.612 373.309,334.585C373.512,333.936 373.923,332.647 374.14,331.345L374.341,328.303C374.378,328.072 374.134,326.395 374.976,326.395L375.016,326.395C375.772,326.451 375.753,328.233 376.067,331.251C376.166,330.902 376.265,330.484 376.34,330.101C376.332,329.895 376.482,328.989 376.595,328.509C376.442,327.668 376.53,326.344 377.425,326.467C377.873,326.529 377.838,328.38 377.838,328.38C377.833,328.635 377.806,330.591 377.822,330.977C377.913,330.321 378.272,327.52 378.974,327.52C379.556,327.52 379.604,328.273 379.591,328.871C379.583,329.225 379.218,332.256 379.197,332.61C379.47,332.149 379.797,329.477 380.068,329.477C381.204,329.477 380.794,333.277 380.376,334.269C380.336,334.37 380.296,334.569 380.248,334.799C380.105,335.477 379.867,336.611 379.275,337.627C378.562,338.846 377.578,340.786 377.428,341.084C377.318,341.69 376.978,343.868 376.546,346.61C376.361,347.784 376.16,349.068 375.951,350.4L375.941,350.397C375.903,350.687 375.689,351.603 374.882,355.042C373.778,359.748 373.663,359.952 373.612,360.037C373.132,360.887 362.122,375.839 361.653,376.474L361.377,376.849L356.735,370.605Z" fill="#F7A491"/>
<path d="M375.728,337.244C375.728,337.244 374.9,335.125 373.423,335.122C373.423,335.122 374.248,334.824 374.953,335.385C375.663,335.942 375.728,337.244 375.728,337.244Z" fill="#F47458"/>
<path d="M354.268,333.15L352.955,341.463C352.955,341.463 357.964,345.486 360.883,344.636C363.332,343.923 361.652,340.721 361.652,340.721C361.652,340.721 360.347,336.283 360.746,333.956C361.148,331.63 354.268,333.15 354.268,333.15Z" fill="#F7A491"/>
<path d="M355.215,335.659C356.469,336.251 358.951,337.061 360.883,337.257C360.698,336.093 360.594,334.863 360.749,333.955C360.934,332.883 359.567,332.628 358.045,332.666C356.051,332.837 354.271,333.148 354.271,333.148L354.02,334.745C354.397,335.145 354.794,335.464 355.215,335.659Z" fill="#FE875E"/>
<path d="M347.949,323.559C347.743,323.559 349.93,332.845 353.312,334.443C356.697,336.04 361.743,335.207 362.689,332.706C363.737,329.94 359.915,320.466 355.156,319.263C350.399,318.06 347.949,323.559 347.949,323.559Z" fill="#F7A491"/>
<path d="M351.865,315.028C349.164,316.587 347.923,318.898 347.505,319.846C346.237,320.449 344.701,321.749 343.964,325.26C343.058,329.572 346.28,332.898 349.694,333.898C353.109,334.897 353.637,337.157 353.637,337.157L354.025,334.726C354.025,334.726 353.267,332.609 352.122,331.55C350.981,330.491 352.664,328.945 352.811,327.685C352.926,326.715 352.211,324.831 352.366,323.239C352.366,323.239 354.264,320.364 356.134,319.653C359.321,318.442 355.333,313.028 351.865,315.028Z" fill="#13375B"/>
<path d="M353.304,329.3C353.746,330.372 353.567,331.439 352.899,331.68C352.235,331.921 351.337,331.246 350.895,330.174C350.452,329.102 350.632,328.035 351.299,327.797C351.964,327.553 352.862,328.228 353.304,329.3Z" fill="#F7A491"/>
<path d="M365.908,370.835L385.604,367.624C385.604,367.624 383.363,361.982 382.562,361.982C381.761,361.982 367.669,368.133 367.669,368.133L366.549,370.384L365.908,370.835Z" fill="#F8A492"/>
<path d="M355.817,384.335C355.817,384.335 353.853,393.833 354.654,401.037C355.456,408.239 355.517,433.825 355.517,433.825L352.462,474.76L359.711,474.918C359.711,474.918 368.309,434.002 368.148,435.053C367.987,436.103 371.029,406.245 371.029,406.245L360.781,383.438L355.817,384.335Z" fill="#184655"/>
<path d="M357.739,383.889C357.739,383.889 356.458,392.441 358.06,396.193C359.66,399.945 371.796,436.751 371.956,439.75C372.117,442.751 376.151,475.919 376.151,475.919L384.58,475.684L386.402,438.806L382.583,392.457L378.876,380.74L357.739,383.889Z" fill="#13375B"/>
<path d="M352.955,341.459C352.955,341.459 355.035,342.824 356.972,342.665C358.91,342.507 361.652,340.72 361.652,340.72L361.271,339.428C361.271,339.428 356.257,338.696 356.128,338.777C356.002,338.854 352.955,341.459 352.955,341.459Z" fill="#F7A491"/>
<path d="M375.111,361.703C375.111,361.703 382.562,368.733 385.925,367.532C389.289,366.332 390.68,362.229 382.473,356.225C375.13,350.854 375.111,361.703 375.111,361.703Z" fill="#F8A492"/>
<path d="M380.156,370.384C379.049,364.362 371.028,345.626 370.387,342.176C370.076,340.499 365.748,340.461 361.629,340.681C357.277,340.911 352.951,341.463 352.951,341.463C352.951,341.463 349.097,342.096 347.403,343.685C345.707,345.275 345.257,349.667 347.695,358.007C349.62,364.59 352.005,368.205 353.184,373.002C353.423,374.61 353.629,376.197 353.9,378.052C354.334,385.221 353.894,394.695 353.894,394.695C353.894,394.695 374.871,399.047 382.718,392.443C382.718,392.441 381.292,376.553 380.156,370.384Z" fill="#355389"/>
<path d="M385.508,357.439C385.508,357.439 377.277,364.233 376.798,364.233C376.49,364.233 365.051,355.82 362.411,348.908C360.951,345.087 364.014,340.812 367.509,340.825C369.931,340.836 371.009,341.46 375.814,345.51C380.619,349.559 385.508,357.439 385.508,357.439Z" fill="#466EB6"/>
<path d="M240.708,54.146C242.057,50.901 243.429,47.647 246.929,46.004C249.762,44.675 252.72,45.173 255.237,47.068C262.369,52.431 256.154,58.338 264.271,68.506C266.793,71.666 269.846,74.217 271.357,77.918C273.472,83.101 270.953,85.588 266.917,88.07C247.596,99.945 237.468,75.562 237.833,69.985C238.101,65.836 239.84,56.237 240.708,54.146Z" fill="#13375B"/>
<path d="M220.657,117.347C221.472,117.219 223.45,115.801 224.15,115.672C224.691,115.573 225.862,115.396 226.361,115.321C226.972,113.041 230.075,100.6 230.424,96.952C230.801,93.002 233.594,75.911 233.594,75.911L240.827,77.227C240.827,77.227 237.823,90.375 236.992,96.749C236.279,102.224 230.271,114.536 229.507,115.836C229.507,115.868 229.507,115.898 229.504,115.93C229.389,117.862 228.456,117.219 228.456,117.219L226.945,117.605C226.945,117.605 221.593,118.119 221.242,118.248C220.891,118.377 219.843,117.476 220.657,117.347Z" fill="#F7A491"/>
<path d="M239.896,65.921C234.783,67.655 231.875,81.556 231.875,81.556C231.875,81.556 239.899,83.797 241.955,82.62C241.955,82.62 244.289,72.278 245.125,72.64L239.896,65.921Z" fill="#6A97CE"/>
<path d="M200.342,141.365C198.777,145.493 197.965,149.467 197.892,149.947C197.857,150.177 198.184,151.3 198.152,151.539C195.011,155.824 190.498,156.759 186.628,157.033C188.6,155.109 191.495,153.283 191.634,152.675C191.857,151.705 193.047,147.382 193.634,141.395C196.04,142.51 197.675,141.625 200.342,141.365Z" fill="#F7A491"/>
<path d="M244.847,95.197L251.759,114.66C251.759,114.66 240.653,116.75 236.502,117.511C232.35,118.272 209.152,119.285 208.565,119.698C208.128,120.004 203.336,135.502 201.197,144.049C198.769,144.582 194.612,143.942 192.401,143.181C193.597,130.952 197.912,111.58 199.294,109.471C201.54,106.038 244.847,95.197 244.847,95.197Z" fill="#256653"/>
<path d="M217.848,149.898C217.084,154.245 217.03,158.303 217.049,158.788C217.057,159.021 217.588,160.061 217.604,160.305C215.32,165.102 211.062,166.869 207.313,167.863C208.888,165.604 211.392,163.267 211.413,162.642C211.448,161.648 211.81,157.18 211.263,151.185C213.838,151.825 215.278,150.654 217.848,149.898Z" fill="#F7A491"/>
<path d="M252.915,96.209L255.595,100.787C259.677,107.757 256.546,116.725 249.018,119.646C248.978,119.662 248.938,119.678 248.897,119.692C244.963,121.217 222.365,126.561 221.866,127.075C221.494,127.458 219.693,143.579 219.192,152.375C216.906,153.356 212.703,153.503 210.388,153.168C209.27,140.934 209.879,121.096 210.841,118.764C212.406,114.972 252.915,96.209 252.915,96.209Z" fill="#327F6B"/>
<path d="M216.703,158.921C217.303,158.256 219.514,161.915 220.066,162.695C220.688,163.571 220.511,164.233 220.436,164.372C220.241,164.734 208.593,171.587 205.752,172.075C205.484,172.12 205.018,171.952 204.903,171.847C203.793,170.863 208.901,163.609 211.198,162.654C212.68,162.038 213.996,161.909 216.703,158.921Z" fill="#13375B"/>
<path d="M197.52,150.076C198.236,149.535 199.72,153.542 200.117,154.413C200.562,155.391 200.264,156.007 200.165,156.128C199.905,156.447 187.18,160.995 184.297,160.941C184.023,160.936 183.6,160.681 183.503,160.558C182.598,159.384 188.976,153.215 191.41,152.708C192.983,152.384 194.301,152.507 197.52,150.076Z" fill="#13375B"/>
<path d="M244.747,65.88C244.616,65.88 244.426,65.835 244.233,65.773C243.284,65.604 241.207,65.355 239.591,66.036C237.626,66.864 234.582,74.612 234.762,82.561C234.834,83.778 234.909,84.866 234.971,85.624C235.466,91.63 237.19,102.9 237.283,102.959C239.628,104.468 253.771,98.617 254.741,97.334C255.714,96.05 256.288,80.438 256.759,79.659L257.689,66.081C256.047,65.596 247.261,65.862 244.747,65.88Z" fill="#9BC1F9"/>
<path d="M250.48,60.879C250.48,60.879 249.569,65.588 249.751,67.448C249.933,69.305 249.057,75.292 245.125,75.313C241.194,75.332 244.378,67.702 244.75,65.88C245.12,64.06 245.208,58.424 245.208,58.424L250.48,60.879Z" fill="#F7A491"/>
<path d="M245.126,61.251C245.188,59.71 245.206,58.424 245.206,58.424L250.481,60.881C250.481,60.881 250.296,61.844 250.108,63.071C247.798,63.532 246.126,62.68 245.126,61.251Z" fill="#F47458"/>
<path d="M252.408,47.883C252.408,47.883 254.439,49.011 255.181,51.453C255.924,53.897 255.08,60.201 249.829,61.723C244.579,63.245 242.307,58.252 243.387,54.347C244.469,50.445 246.82,45.503 252.408,47.883Z" fill="#F7A491"/>
<path d="M242.732,52.834C242.834,53.882 243.413,54.683 244.024,54.624C244.635,54.565 245.045,53.664 244.943,52.617C244.841,51.569 244.262,50.767 243.651,50.826C243.04,50.888 242.627,51.786 242.732,52.834Z" fill="#F7A491"/>
<path d="M251.791,47.563C251.791,47.563 252.742,54.595 255.018,55.865C257.29,57.136 256.339,60.255 256.339,60.255C256.339,60.255 258.403,53.011 256.604,50.685C254.806,48.356 251.791,47.563 251.791,47.563Z" fill="#13375B"/>
<path d="M253.67,56.876C253.053,57.792 253.056,58.872 253.675,59.29C254.294,59.709 255.296,59.301 255.913,58.385C256.529,57.468 256.527,56.388 255.907,55.97C255.288,55.554 254.286,55.959 253.67,56.876Z" fill="#F7A491"/>
<path d="M246.022,57.267L249.721,58.197C249.721,58.197 249.276,59.601 247.638,59.239C245.642,58.8 246.022,57.267 246.022,57.267Z" fill="#FFFFFF"/>
<path d="M264.391,116.759C264.568,116.751 280.34,115.958 280.34,115.958C280.34,115.958 273.795,120.661 273.661,120.661C273.527,120.661 268.448,118.657 268.226,118.657C268.003,118.657 264.391,116.759 264.391,116.759Z" fill="#50BFA5"/>
<path d="M583.706,473.385C583.706,473.385 584.017,478.916 584.02,478.927C584.135,479.629 584.585,481.366 584.585,482.004C584.585,484.402 573.943,479.967 576.328,478.906C576.545,478.809 577.676,478.083 577.746,477.266C577.856,476.009 578.132,473.462 578.132,473.462L583.706,473.385Z" fill="#F7A491"/>
<path d="M576.224,478.929C576.224,478.929 578.722,479.663 580.003,479.846C581.284,480.028 582.97,478.484 583.876,478.902C584.873,479.361 584.833,483.496 584.833,483.496C584.833,483.496 571.435,484.672 567.667,483.456C566.174,482.971 571.116,480.636 576.224,478.929Z" fill="#F7CC7F"/>
<path d="M601.425,473.098C601.425,473.098 601.739,478.629 601.739,478.64C601.854,479.342 602.307,481.079 602.307,481.717C602.307,484.115 591.664,479.68 594.05,478.619C594.264,478.522 595.733,477.252 595.802,476.434C595.912,475.177 595.853,473.175 595.853,473.175L601.425,473.098Z" fill="#F7A491"/>
<path d="M594.076,478.595C594.076,478.595 596.574,479.329 597.855,479.512C599.133,479.694 600.822,478.15 601.728,478.568C602.725,479.027 602.765,483.162 602.765,483.162C602.765,483.162 589.461,483.709 585.519,483.122C583.967,482.891 588.968,480.305 594.076,478.595Z" fill="#F7CC7F"/>
<path d="M598.268,385.231C598.268,385.231 600.072,394.563 599.338,401.638C598.604,408.714 598.545,433.85 598.545,433.85L601.935,474.053L594.693,474.222C594.693,474.222 586.803,434.024 586.948,435.056C587.095,436.088 584.303,406.752 584.303,406.752L593.71,384.344L598.268,385.231Z" fill="#355389"/>
<path d="M595.746,379.203C595.746,379.203 603.918,387.809 600.878,397.208C599.659,400.984 588.271,437.055 588.124,440.003C587.977,442.951 584.273,475.538 584.273,475.538L576.535,475.304L574.86,439.073L577.071,390.256L581.77,382.023L595.746,379.203Z" fill="#466EB6"/>
<path d="M546.14,351.195C548.815,348.209 554.639,343.961 554.639,343.961C554.639,343.961 558.107,340.997 559.522,340.509C561.604,339.791 565.169,337.877 570.325,345.693C574.015,351.286 597.3,380.244 601.124,381.219L576.162,393.161C575.479,387.458 563.142,376.682 561.366,374.672C557.399,370.18 543.608,354.022 546.14,351.195Z" fill="#F47458"/>
<path d="M547.305,339.062L555.079,343.615C555.079,343.615 555.299,350.253 552.756,351.977C550.623,353.424 549.001,349.951 549.001,349.951C549.001,349.951 546.109,345.944 543.914,344.695C541.717,343.446 547.305,339.062 547.305,339.062Z" fill="#F7A491"/>
<path d="M548.609,341.983C548.317,343.368 547.639,345.37 546.591,347.019C545.733,346.091 544.771,345.183 543.914,344.695C542.901,344.119 543.544,342.875 544.533,341.701C545.929,340.249 547.304,339.062 547.304,339.062L548.799,339.935C548.896,340.503 548.706,341.522 548.609,341.983Z" fill="#F47458"/>
<path d="M543.255,327.654C543.386,327.493 549.778,335.448 548.99,339.181C548.202,342.914 544.338,346.318 541.652,345.383C538.683,344.348 533.159,334.981 535.14,330.433C537.12,325.885 543.255,327.654 543.255,327.654Z" fill="#F7A491"/>
<path d="M536.258,325.143C539.045,323.594 543.59,323.149 546.986,324.926C551.161,327.113 552.113,332.613 550.805,335.968C549.497,339.324 550.995,341.221 550.995,341.221L548.781,339.927C548.781,339.927 547.487,337.906 547.318,336.298C547.149,334.687 544.802,334.974 543.655,334.242C542.773,333.679 541.644,331.854 540.219,330.905C540.219,330.905 536.622,330.463 534.856,331.458C531.838,333.149 532.267,327.362 536.258,325.143Z" fill="#13375B"/>
<path d="M545.449,335.585C545.427,336.778 545.993,337.756 546.708,337.767C547.424,337.777 548.022,336.821 548.043,335.628C548.065,334.435 547.499,333.457 546.783,333.446C546.065,333.433 545.468,334.39 545.449,335.585Z" fill="#F7A491"/>
<path d="M538.901,341.918L542.286,339.388C542.286,339.388 543.181,340.755 541.726,341.912C539.949,343.322 538.901,341.918 538.901,341.918Z" fill="#FFFFFF"/>
<path d="M530.404,392.255C531.251,391.017 531.621,389.229 532.795,387.865C533.189,387.407 533.816,386.892 534.529,386.378C540.167,383.078 554.854,374.575 555.425,373.915C556.103,373.133 566.126,356.479 566.126,356.479L557.124,354.439L548.325,369.976C547.591,370.56 533.625,380.881 533.625,380.881C533.625,380.881 530.849,383.052 529.329,384.067C528.563,384.515 527.818,384.804 527.167,385.032C526.346,385.316 524.787,386.096 524.47,386.372C524.103,386.694 523.369,387.385 522.932,387.806C522.495,388.227 521.967,388.704 521.761,388.953C521.638,389.106 521.252,389.315 520.968,389.457C520.544,389.669 520.6,390.293 521.053,390.422C521.482,390.542 522.058,390.274 522.418,390.105C523.428,389.631 524.663,388.347 524.728,388.506C524.792,388.664 523.538,391.411 523.414,391.735C523.291,392.059 521.852,395.262 521.777,395.975C521.702,396.688 522.133,396.854 522.452,396.591C522.728,396.366 525.044,392.091 525.044,392.091C525.044,392.091 525.341,391.547 525.457,391.858C525.572,392.169 523.476,396.058 523.272,396.696C523.069,397.334 523.23,397.856 523.822,397.634C524.54,397.363 526.521,393.075 526.521,393.075C526.521,393.075 526.778,392.542 526.955,392.727C527.132,392.912 525.293,396.189 525.272,396.567C525.25,396.945 525.593,397.317 526.089,397.001C526.673,396.629 528.41,392.788 528.41,392.788C528.41,392.788 528.624,392.534 528.691,392.713C528.758,392.893 527.392,395.798 527.494,396.221C527.579,396.578 527.901,396.505 527.901,396.505C528.616,396.503 529.554,393.493 530.404,392.255Z" fill="#F8A492"/>
<path d="M563.657,365.278C563.657,365.278 560.725,364.345 558.844,363.485C557.584,362.909 552.09,360.175 552.09,360.175C552.09,360.175 554.459,350.184 556.059,346.59C561.936,333.404 568.612,342.498 569.518,344.618C571.547,349.356 563.657,365.278 563.657,365.278Z" fill="#355389"/>
<path d="M358.869,330.754L361.659,328.669C361.659,328.669 362.396,329.797 361.195,330.749C359.732,331.912 358.869,330.754 358.869,330.754Z" fill="#FFFFFF"/>
<path d="M686.412,483.199L38.19,483.199C37.381,483.199 36.722,484.038 36.722,485.073C36.722,486.107 37.378,486.946 38.19,486.946L686.412,486.946C687.222,486.946 687.878,486.107 687.878,485.073C687.878,484.038 687.222,483.199 686.412,483.199Z" fill="#184655"/>
<path d="M280.701,115.942C280.634,115.773 280.486,115.77 280.336,115.765C278.873,115.72 277.41,115.655 275.96,115.438C275.719,115.403 275.48,115.347 275.258,115.259C274.853,115.098 274.456,115.1 274.046,115.213C273.826,115.275 273.601,115.285 273.373,115.285C272.636,115.283 270.538,114.567 269.458,114.38C269.211,114.337 269.016,114.149 268.954,113.908C267.893,109.711 265.617,100.293 265.323,97.198C264.945,93.239 262.211,75.385 262.211,75.385L254.895,77.424C254.895,77.424 257.907,90.602 258.738,96.991C259.381,101.925 264.312,112.396 265.859,115.406C266.614,117.647 268.308,117.708 268.702,117.756C268.927,117.783 269.134,117.896 269.281,118.067C269.549,118.378 269.855,118.649 270.203,118.871C270.463,119.035 270.661,119.249 270.833,119.498C271.144,119.951 271.422,120.426 271.696,120.903C271.878,121.219 272.068,121.318 272.339,121.243C272.628,121.163 272.768,120.948 272.762,120.595C272.754,120.072 272.588,119.6 272.326,119.153C272.079,118.735 272.098,118.493 272.385,118.107C272.548,117.888 272.72,117.673 272.934,117.496C273.154,117.317 273.384,117.183 273.682,117.223C274.207,117.354 274.738,117.462 275.276,117.521L275.719,117.612C275.735,117.614 275.96,117.663 275.96,117.663C275.997,117.673 276.775,117.756 277.043,117.759C277.257,117.759 277.603,117.772 277.897,117.789C278.165,117.802 278.728,117.663 278.747,117.663C279.007,117.657 279.237,117.563 279.43,117.389C279.511,117.317 279.586,117.239 279.546,117.116C279.508,117.006 279.422,116.958 279.307,116.936C279.13,116.904 278.222,116.794 278.232,116.757C278.503,116.757 279.347,116.738 279.618,116.73C279.983,116.719 280.296,116.591 280.548,116.32C280.653,116.218 280.765,116.111 280.701,115.942Z" fill="#F7A491"/>
<path d="M257.778,66.056C261.388,65.399 264.368,81.554 264.368,81.554C264.368,81.554 256.344,83.795 254.289,82.618C254.289,82.618 251.954,72.276 251.118,72.638L257.778,66.056Z" fill="#9BC1F9"/>
<path d="M170.466,356.453C170.704,355.767 167.376,355.215 167.196,354.524C167.019,353.83 171.401,353.776 171.557,353.168C171.846,352.047 166.754,352.932 166.853,352.406C166.952,351.881 172.16,350.71 171.597,349.812C171.034,348.912 166.325,351.589 166.183,350.981C166.041,350.37 170.785,348.885 170.702,347.548C170.656,346.832 162.914,351.115 162.016,350.726C161.118,350.337 162.981,346.977 162.268,346.475C161.552,345.977 159.502,353.307 159.006,353.553C158.513,353.797 148.053,359.769 144.33,360.717C143.877,359.471 142.902,357.788 142.502,356.609C140.415,358.096 138.863,358.841 136.708,360.195C138.27,364.108 140.492,368.393 141.58,368.883C144.893,370.382 157.704,359.755 160.263,357.935C162.822,356.116 164.288,356.705 166.017,356.132C167.748,355.558 170.227,357.137 170.466,356.453Z" fill="#F7A491"/>
<path d="M136.261,362.075C136.261,362.075 133.394,349.412 133.892,345.737C134.391,342.063 138.756,338.64 141.782,339.911C144.808,341.181 146.18,358.861 146.18,358.861L136.261,362.075Z" fill="#F7CC7F"/>
</svg>
