<svg width="42" height="34" viewBox="0 0 42 34" fill="none" xmlns="http://www.w3.org/2000/svg" xmlns:xlink="http://www.w3.org/1999/xlink">
<path d="M0,3.379C0,1.513 1.513,0 3.379,0L36.742,0C38.608,0 40.121,1.513 40.121,3.379L40.121,28.718C40.121,30.584 38.608,32.097 36.742,32.097L3.379,32.097C1.513,32.097 0,30.584 0,28.718L0,3.379ZM2.957,4.222C2.957,3.523 3.524,2.955 4.224,2.955L35.898,2.955C36.598,2.955 37.165,3.523 37.165,4.222L37.165,24.962L29.457,17.736L25.403,21.537L12.733,8.867L2.957,18.644L2.957,4.222Z" clip-rule="evenodd" fill-rule="evenodd" fill="#3E82D8"/>
<circle cx="30.408" cy="9.715" r="3.379" fill="#3E82D8"/>
</svg>
