<svg width="68" height="66" viewBox="0 0 68 66" fill="none" xmlns="http://www.w3.org/2000/svg" xmlns:xlink="http://www.w3.org/1999/xlink">
<path d="M33.047,66C51.243,66 66.047,51.196 66.047,33C66.047,14.804 51.243,0 33.047,0C14.851,0 0.047,14.804 0.047,33C0.047,51.196 14.851,66 33.047,66ZM33.047,2.2C50.03,2.2 63.847,16.017 63.847,33C63.847,49.983 50.03,63.8 33.047,63.8C16.064,63.8 2.247,49.983 2.247,33C2.247,16.017 16.064,2.2 33.047,2.2Z" fill="#4E3A50" stroke="#4E3A50" stroke-width="0.275" stroke-miterlimit="3.999327"/>
<path d="M26.447,24.751C26.447,22.022 24.226,19.801 21.497,19.801C18.768,19.801 16.547,22.022 16.547,24.751C16.547,27.48 18.768,29.701 21.497,29.701C24.226,29.701 26.447,27.48 26.447,24.751ZM18.747,24.751C18.747,23.234 19.981,22.001 21.497,22.001C23.013,22.001 24.247,23.234 24.247,24.751C24.247,26.268 23.013,27.501 21.497,27.501C19.981,27.501 18.747,26.268 18.747,24.751Z" fill="#4E3A50" stroke="#4E3A50" stroke-width="0.275" stroke-miterlimit="3.999327"/>
<path d="M44.596,25.301C41.867,25.301 39.646,27.522 39.646,30.251C39.646,32.98 41.867,35.201 44.596,35.201C47.326,35.201 49.546,32.98 49.546,30.251C49.546,27.522 47.326,25.301 44.596,25.301ZM44.596,33.001C43.081,33.001 41.846,31.768 41.846,30.251C41.846,28.734 43.081,27.501 44.596,27.501C46.112,27.501 47.346,28.734 47.346,30.251C47.346,31.768 46.112,33.001 44.596,33.001Z" fill="#4E3A50" stroke="#4E3A50" stroke-width="0.275" stroke-miterlimit="3.999327"/>
<path d="M53.205,20.901L39.292,20.901L39.292,23.1L53.205,23.1L53.205,20.901Z" transform="rotate(36.866 46.249 22.001)" fill="#4E3A50" stroke="#4E3A50" stroke-width="0.275" stroke-miterlimit="3.999327"/>
<path d="M22.045,9.542L19.846,9.542L19.846,23.456L22.045,23.456L22.045,9.542Z" transform="rotate(143.097 20.946 16.499)" fill="#4E3A50" stroke="#4E3A50" stroke-width="0.275" stroke-miterlimit="3.999327"/>
<path d="M26.592,49.029C26.259,48.719 25.884,48.371 25.421,48L24.047,49.718C24.46,50.049 24.796,50.362 25.094,50.639C25.969,51.452 26.802,52.227 28.37,52.227C28.658,52.227 28.972,52.201 29.315,52.144L28.954,49.973C27.814,50.164 27.556,49.925 26.592,49.029Z" fill="#4E3A50" stroke="#4E3A50" stroke-width="0.275" stroke-miterlimit="3.999327"/>
</svg>
