<svg width="526" height="512" viewBox="0 0 526 512" fill="none" xmlns="http://www.w3.org/2000/svg" xmlns:xlink="http://www.w3.org/1999/xlink">
<path d="M499.93,80.848L301.6,80.848L301.6,89.548L499.93,89.548L499.93,80.848Z" fill="#DEE1FF"/>
<path d="M321.429,89.551L312.729,89.551L312.729,118.319L321.429,118.319L321.429,89.551Z" fill="#DEE1FF"/>
<path d="M321.429,89.551L312.729,89.551L312.729,98.442L321.429,98.442L321.429,89.551Z" fill="#D9DCFF"/>
<path d="M488.826,89.551L480.125,89.551L480.125,118.319L488.826,118.319L488.826,89.551Z" fill="#DEE1FF"/>
<path d="M488.826,89.551L480.125,89.551L480.125,98.442L488.826,98.442L488.826,89.551Z" fill="#D9DCFF"/>
<path d="M378.086,46.152L322.656,46.152L322.656,60.114L378.086,60.114L378.086,46.152Z" transform="rotate(180 350.371 53.133)" fill="#BDC3FF"/>
<path d="M353.406,18.519L347.312,18.519L347.312,32.481L353.406,32.481L353.406,18.519Z" transform="rotate(180 350.359 25.5)" fill="#D9DCFF"/>
<path d="M351.502,30.494L349.24,30.494L349.24,44.455L351.502,44.455L351.502,30.494Z" transform="rotate(180 350.371 37.474)" fill="#D9DCFF"/>
<path d="M354.287,62.678L348.193,62.678L348.193,78.377L354.287,78.377L354.287,62.678Z" transform="rotate(180 351.24 70.527)" fill="#D9DCFF"/>
<path d="M394.551,43.633L329.885,43.633L329.885,53.393L394.551,53.393L394.551,43.633Z" transform="rotate(180 362.218 48.513)" fill="#D9DCFF"/>
<path d="M374.617,31.766L349.753,31.766L349.753,37.622L374.617,37.622L374.617,31.766Z" transform="rotate(180 362.185 34.694)" fill="#DEE1FF"/>
<path d="M442.389,49.806L377.723,49.806L377.723,59.566L442.389,59.566L442.389,49.806Z" transform="rotate(89.34 410.056 54.686)" fill="#BDC3FF"/>
<path d="M425.871,55.051L401.007,55.051L401.007,60.907L425.871,60.907L425.871,55.051Z" transform="rotate(89.34 413.439 57.979)" fill="#D9DCFF"/>
<path d="M399.927,48.009L350.817,48.009L350.817,64.577L399.927,64.577L399.927,48.009Z" transform="rotate(180 375.372 56.293)" fill="#8891EE"/>
<path d="M377.675,65.085L373.093,65.085L373.093,81.653L377.675,81.653L377.675,65.085Z" transform="rotate(180 375.384 73.369)" fill="#BDC3FF"/>
<path d="M376.271,58.892L374.497,58.892L374.497,75.46L376.271,75.46L376.271,58.892Z" transform="rotate(180 375.384 67.176)" fill="#BDC3FF"/>
<path d="M360.75,52.063L314.593,52.063L314.593,63.501L360.75,63.501L360.75,52.063Z" transform="rotate(180 337.672 57.782)" fill="#8891EE"/>
<path d="M339.82,68.089L335.523,68.089L335.523,79.528L339.82,79.528L339.82,68.089Z" transform="rotate(180 337.672 73.809)" fill="#BDC3FF"/>
<path d="M339.82,40.64L335.523,40.64L335.523,52.078L339.82,52.078L339.82,40.64Z" transform="rotate(180 337.672 46.359)" fill="#BDC3FF"/>
<path d="M338.505,46.575L336.838,46.575L336.838,58.013L338.505,58.013L338.505,46.575Z" transform="rotate(180 337.672 52.294)" fill="#BDC3FF"/>
<path d="M464.594,21.717C454.834,31.239 453.192,46.07 455.251,59.02C455.31,59.317 455.763,59.234 455.763,58.96C455.763,56.008 455.667,53.092 455.679,50.176C455.679,50.045 455.774,49.914 455.834,49.783C458.464,48.051 460.64,45.712 462.178,42.963C463.809,39.762 464.451,36.143 465.689,32.799C465.808,32.477 465.463,32.572 465.249,32.727C459.298,37.107 457.417,41.821 455.727,48.129C455.765,44.834 456.111,41.551 456.762,38.321C457.9,32.227 460.711,26.568 464.88,21.979C465.011,21.813 464.761,21.551 464.594,21.717Z" fill="#8891EE"/>
<path d="M466.424,22.836C468.115,22.836 469.162,25.573 470.471,26.406C470.608,26.519 470.767,26.601 470.938,26.648C471.109,26.695 471.288,26.705 471.463,26.678C471.639,26.651 471.806,26.588 471.955,26.492C472.104,26.396 472.231,26.269 472.328,26.121C473.625,24.3 471.84,22.074 470.174,20.824C471.273,21.476 472.438,22.01 473.649,22.419C473.814,22.477 473.99,22.498 474.164,22.481C474.338,22.463 474.505,22.407 474.655,22.318C474.805,22.228 474.934,22.106 475.031,21.961C475.129,21.816 475.194,21.652 475.22,21.479C475.792,19.015 472.697,17.908 470.567,17.908C471.602,17.194 474.554,15.254 472.947,14.337C471.34,13.421 467.888,16.158 466.77,17.087C465.103,18.432 463.127,20.443 463.044,22.55C462.985,24.919 465.139,23.348 466.424,22.836Z" fill="#9CF69A"/>
<path d="M465.949,23.254C468.092,22.278 472.222,23.682 472.567,22.873C473.281,21.218 469.984,20.076 468.199,19.861C469.841,19.409 472.96,18.671 472.888,17.124C472.769,15.196 468.068,16.85 465.687,18.683C462.7,20.98 462.712,23.194 463.211,23.634C463.711,24.075 465.592,23.408 465.949,23.254Z" fill="#CBFFCA"/>
<path d="M442.36,20.774C452.477,29.951 454.679,44.663 453.072,57.672C453.072,57.97 452.572,57.91 452.561,57.672C452.453,54.72 452.43,51.804 452.311,48.888L452.144,48.507C449.452,46.876 447.19,44.623 445.55,41.937C443.788,38.795 443.015,35.2 441.646,31.903C441.515,31.582 441.86,31.665 442.086,31.82C448.192,35.974 450.263,40.616 452.203,46.841C452.041,43.551 451.571,40.283 450.799,37.081C449.429,31.034 446.404,25.487 442.063,21.06C442.025,21.021 442.004,20.968 442.005,20.913C442.006,20.858 442.029,20.806 442.069,20.768C442.108,20.731 442.161,20.71 442.216,20.711C442.27,20.712 442.322,20.735 442.36,20.774L442.36,20.774Z" fill="#8891EE"/>
<path d="M440.538,21.956C438.86,22.075 437.908,24.8 436.634,25.633C436.501,25.75 436.344,25.837 436.175,25.889C436.006,25.942 435.828,25.959 435.653,25.938C435.477,25.918 435.307,25.862 435.154,25.772C435.002,25.683 434.869,25.563 434.765,25.419C433.397,23.658 435.099,21.36 436.717,20.039C435.671,20.728 434.559,21.31 433.397,21.777C433.234,21.841 433.059,21.869 432.884,21.858C432.71,21.847 432.54,21.798 432.386,21.714C432.233,21.63 432.1,21.513 431.997,21.372C431.894,21.23 431.823,21.068 431.79,20.896C431.135,18.444 434.17,17.23 436.301,17.099C435.242,16.421 432.218,14.6 433.754,13.529C435.289,12.457 438.872,15.159 440.038,16.028C441.752,17.314 443.799,19.254 443.954,21.349C444.109,23.86 441.883,22.42 440.538,21.956Z" fill="#9CF69A"/>
<path d="M441.072,22.348C438.882,21.455 434.823,23.026 434.443,22.217C433.669,20.598 436.918,19.337 438.68,19.051C437.025,18.67 433.859,18.075 433.919,16.492C433.919,14.564 438.68,16.04 441.155,17.777C444.238,19.956 444.31,22.169 443.834,22.634C443.357,23.098 441.429,22.538 441.072,22.348Z" fill="#CBFFCA"/>
<path d="M452.715,45.018C453.391,49.928 454.441,54.778 455.857,59.527C455.876,59.62 455.931,59.702 456.01,59.755C456.09,59.807 456.186,59.826 456.279,59.807C456.373,59.788 456.454,59.733 456.507,59.654C456.559,59.574 456.578,59.478 456.559,59.385C455.893,54.909 454.679,50.529 454.024,46.054C453.293,41.53 453.03,36.943 453.238,32.366C453.667,24.82 455.714,16.809 460.63,10.942C460.737,10.799 460.511,10.608 460.404,10.739C450.548,22.213 452.072,36.294 452.131,37.555C450.739,32.794 449.299,27.355 444.026,22.511C443.8,22.308 443.621,22.404 443.657,22.761C444.597,31.58 447.049,36.175 452.167,40.888C452.31,42.257 452.441,43.638 452.715,45.018Z" fill="#8891EE"/>
<path d="M460.773,12.231C462.546,11.445 464.986,13.695 466.724,13.85C466.919,13.898 467.123,13.906 467.321,13.871C467.519,13.836 467.708,13.76 467.875,13.648C468.042,13.536 468.184,13.39 468.291,13.22C468.398,13.049 468.468,12.859 468.497,12.659C468.938,10.124 465.962,8.696 463.605,8.244C465.093,8.16 466.557,8.553 468.021,8.16C468.222,8.135 468.415,8.067 468.587,7.961C468.76,7.854 468.907,7.712 469.02,7.544C469.133,7.376 469.208,7.186 469.241,6.986C469.274,6.787 469.264,6.582 469.212,6.387C468.557,3.542 464.796,4.006 462.558,4.982C463.272,3.721 465.355,0.221 463.248,0.007C461.142,-0.207 458.916,4.447 458.214,5.958C457.166,8.196 456.119,11.279 457.107,13.505C458.166,16.075 459.642,13.421 460.773,12.231Z" fill="#9CF69A"/>
<path d="M460.426,12.909C462.164,10.814 467.151,10.195 467.103,9.172C467.008,7.101 463.021,7.577 461.057,8.243C462.533,6.958 465.437,4.673 464.544,3.054C463.449,1.114 459.414,5.196 457.855,8.291C455.903,12.183 457.046,14.468 457.784,14.683C458.795,14.968 460.14,13.254 460.426,12.909Z" fill="#CBFFCA"/>
<path d="M446.227,47.676L441.883,80.86L468.318,80.86C467.771,77.92 462.855,47.641 462.855,47.641L446.227,47.676Z" fill="#D9DCFF"/>
<path d="M30.928,12.672L227.175,12.672L227.175,269.17L30.928,269.17L30.928,12.672ZM221.998,17.849L36.105,17.849L36.105,263.992L221.998,263.992L221.998,17.849Z" fill="#DEE1FF"/>
<path d="M133.656,19.195L128.479,19.195L128.479,266.575L133.656,266.575L133.656,19.195Z" fill="#DEE1FF"/>
<path d="M231.863,23.135L26.225,23.135L26.225,30.336L231.863,30.336L231.863,23.135Z" transform="rotate(360 129.044 26.735)" fill="#DEE1FF"/>
<path d="M231.863,31.24L26.225,31.24L26.225,38.441L231.863,38.441L231.863,31.24Z" transform="rotate(360 129.044 34.841)" fill="#DEE1FF"/>
<path d="M231.863,39.354L26.225,39.354L26.225,46.555L231.863,46.555L231.863,39.354Z" transform="rotate(360 129.044 42.954)" fill="#DEE1FF"/>
<path d="M231.863,47.463L26.225,47.463L26.225,54.664L231.863,54.664L231.863,47.463Z" transform="rotate(360 129.044 51.064)" fill="#DEE1FF"/>
<path d="M231.863,55.569L26.225,55.569L26.225,62.77L231.863,62.77L231.863,55.569Z" transform="rotate(360 129.044 59.169)" fill="#DEE1FF"/>
<path d="M231.863,63.674L26.225,63.674L26.225,70.875L231.863,70.875L231.863,63.674Z" transform="rotate(360 129.044 67.275)" fill="#DEE1FF"/>
<path d="M231.863,71.768L26.225,71.768L26.225,78.969L231.863,78.969L231.863,71.768Z" transform="rotate(360 129.044 75.368)" fill="#DEE1FF"/>
<path d="M231.863,79.885L26.225,79.885L26.225,87.086L231.863,87.086L231.863,79.885Z" transform="rotate(360 129.044 83.485)" fill="#DEE1FF"/>
<path d="M231.863,87.99L26.225,87.99L26.225,95.191L231.863,95.191L231.863,87.99Z" transform="rotate(360 129.044 91.591)" fill="#DEE1FF"/>
<path d="M42.901,21.668L41.604,21.668L41.604,187.767L42.901,187.767L42.901,21.668Z" fill="#263238"/>
<path d="M39.949,193.793L44.544,193.793L43.389,187.199L41.104,187.199L39.949,193.793Z" fill="#263238"/>
<path d="M38.235,21.668L36.938,21.668L36.938,261.954L38.235,261.954L38.235,21.668Z" fill="#263238"/>
<path d="M35.295,266.813L39.877,266.813L38.735,260.207L36.438,260.207L35.295,266.813Z" fill="#263238"/>
<path d="M239.898,11.646L18.204,11.646L18.204,26.727L239.898,26.727L239.898,11.646Z" transform="rotate(360 129.051 19.186)" fill="#D9DCFF"/>
<path d="M451.227,281.035L327.406,281.035L327.406,452.395L451.227,452.395L451.227,281.035Z" fill="#D9DCFF"/>
<path d="M457.225,274.68L321.406,274.68L321.406,281.036L457.225,281.036L457.225,274.68Z" fill="#DEE1FF"/>
<path d="M499.94,274.68L457.223,274.68L457.223,281.036L499.94,281.036L499.94,274.68Z" fill="#D9DCFF"/>
<path d="M493.183,281.035L451.227,281.035L451.227,452.395L493.183,452.395L493.183,281.035Z" fill="#DEE1FF"/>
<path d="M437.882,360.34L340.734,360.34L340.734,305.434L437.882,305.434L437.882,360.34ZM341.032,360.042L437.585,360.042L437.585,305.731L341.032,305.731L341.032,360.042Z" fill="#8891EE"/>
<path d="M394.667,321.48L375.754,321.48L375.754,332.347L394.667,332.347L394.667,321.48Z" fill="#8891EE"/>
<path d="M400.402,331.678L381.191,331.678L381.191,322.156L400.402,322.156L400.402,331.678ZM381.489,331.381L400.069,331.381L400.069,322.478L381.489,322.478L381.489,331.381Z" fill="#8891EE"/>
<path d="M437.882,429.328L340.734,429.328L340.734,374.422L437.882,374.422L437.882,429.328ZM341.032,429.03L437.585,429.03L437.585,374.719L341.032,374.719L341.032,429.03Z" fill="#8891EE"/>
<path d="M394.667,390.465L375.754,390.465L375.754,401.332L394.667,401.332L394.667,390.465Z" fill="#8891EE"/>
<path d="M400.402,400.666L381.191,400.666L381.191,391.145L400.402,391.145L400.402,400.666ZM381.489,400.369L400.069,400.369L400.069,391.43L381.489,391.43L381.489,400.369Z" fill="#8891EE"/>
<path d="M262,511.997C375.636,511.997 467.756,506.945 467.756,500.713C467.756,494.482 375.636,489.43 262,489.43C148.363,489.43 56.242,494.482 56.242,500.713C56.242,506.945 148.363,511.997 262,511.997Z" fill="#DEE1FF"/>
<path d="M-0.068,451.966L65.443,451.68L130.966,451.573L262,451.383L393.034,451.573L458.544,451.68L524.068,451.966L458.544,452.264L393.034,452.371L262,452.561L130.966,452.371L65.443,452.264L-0.068,451.966Z" fill="#263238"/>
<path d="M447.926,363.662C447.926,363.662 471.993,358.211 485.18,346.059C498.368,333.906 505.736,312.137 505.736,312.137C496.591,313.906 487.576,316.292 478.753,319.278C476.599,321.575 472.492,326.324 470.588,330.812C470.362,328.068 470.338,325.311 470.517,322.563C467.442,323.882 464.563,325.617 461.959,327.717C451.02,337.287 447.926,363.662 447.926,363.662Z" fill="#C8FFD4"/>
<path d="M490.716,322.713C493.99,320.44 497.334,318.25 500.595,315.964C500.634,315.936 500.66,315.894 500.669,315.847C500.678,315.799 500.669,315.751 500.643,315.71C500.617,315.669 500.578,315.64 500.531,315.628C500.485,315.615 500.436,315.621 500.393,315.643C494.204,319.345 488.086,323.308 482.17,327.45C480.111,328.89 478.088,330.402 476.088,331.938C476.219,331.699 476.362,331.461 476.505,331.223C477.231,330.033 477.993,328.843 478.743,327.653C480.255,325.24 481.967,322.959 483.861,320.833C483.932,320.761 483.861,320.642 483.742,320.725C481.861,322.88 479.992,325.022 478.278,327.307C477.469,328.402 476.719,329.533 475.993,330.688C475.624,331.283 475.267,331.878 474.922,332.497L474.553,333.128C471.446,335.568 468.411,338.115 465.519,340.805C463.734,342.471 462.02,344.197 460.353,345.97C461.282,343.054 462.103,340.114 463.174,337.246C463.174,337.151 463.055,337.103 463.019,337.246C461.972,340.245 460.829,343.269 460.008,346.363C458.175,348.351 456.437,350.422 454.747,352.564C454.747,352.433 454.807,352.303 454.831,352.172C455.104,350.981 455.39,349.91 455.699,348.779C456.283,346.601 456.89,344.447 457.651,342.304C459.039,337.876 461.23,333.74 464.114,330.105C464.186,330.021 464.114,329.902 463.995,329.986C459.294,335.556 456.544,342.221 454.783,349.232C454.521,350.255 454.283,351.279 454.045,352.314C453.926,352.862 453.783,353.421 453.688,353.981C452.962,354.957 452.248,355.957 451.569,356.968C447.464,363.24 444.049,369.936 441.381,376.941C438.371,384.803 435.796,392.826 433.668,400.972C433.676,400.998 433.693,401.021 433.715,401.038C433.738,401.055 433.765,401.063 433.793,401.063C433.821,401.063 433.848,401.055 433.871,401.038C433.893,401.021 433.91,400.998 433.918,400.972C438.619,386.903 443.44,372.62 451.486,360.027C453.188,357.373 455.057,354.814 456.985,352.338C460.973,352.066 464.908,351.266 468.685,349.958C472.816,348.57 476.755,346.667 480.409,344.292C482.491,342.883 484.497,341.365 486.42,339.745C486.515,339.674 486.42,339.543 486.312,339.626C482.955,342.334 479.248,344.576 475.291,346.292C471.402,348.101 467.333,349.494 463.15,350.446C461.377,350.827 459.58,351.112 457.77,351.362C460.011,348.616 462.395,345.99 464.912,343.495C465.721,342.685 466.566,341.912 467.4,341.114C470.206,339.156 473.182,337.451 476.291,336.02C480.23,334.116 484.122,332.092 488.015,330.069C490.216,328.95 492.407,327.795 494.632,326.712C494.728,326.712 494.632,326.534 494.537,326.581C490.585,328.486 486.574,330.271 482.575,332.104C478.826,333.818 475.017,335.544 471.411,337.579L470.958,337.841C474.22,335.008 477.588,332.306 481.04,329.7C484.194,327.343 487.419,324.987 490.716,322.713Z" fill="#263238"/>
<path d="M489.336,335.119C487.372,335.976 485.384,336.737 483.444,337.642C481.504,338.546 479.564,339.665 477.671,340.784C477.588,340.784 477.671,340.951 477.755,340.915C479.671,339.999 481.611,339.13 483.515,338.178C485.42,337.225 487.384,336.154 489.383,335.273C489.49,335.238 489.443,335.083 489.336,335.119Z" fill="#263238"/>
<path d="M369.762,242.41C374.19,248.152 376.689,255.147 376.903,262.394C376.975,264.549 376.641,267.548 376.391,271.095C385.354,275.856 392.091,284.509 392.091,284.509C386.996,281.45 379.998,280.212 376.225,280.712C376.347,283.113 376.653,285.5 377.141,287.854C378.808,287.759 382.021,287.985 387.342,289.877C384.181,289.838 381.048,290.458 378.141,291.698C382.426,305.35 395.185,319.359 430.381,325.323C434.119,308.583 431.914,291.064 424.144,275.773C413.658,255.074 369.762,242.41 369.762,242.41Z" fill="#CBFFCA"/>
<path d="M442.631,383.753C442.024,377.921 441.25,372.113 440.358,366.316C438.556,354.718 436.173,343.218 433.216,331.859C431.84,326.528 430.143,321.285 428.134,316.159C428.231,315.222 428.275,314.28 428.265,313.338C428.265,312.208 428.265,311.077 428.265,309.958C428.265,307.697 428.134,305.447 427.932,303.198C427.584,298.745 426.863,294.33 425.777,289.998C425.134,287.498 424.385,285.023 423.647,282.547C423.652,282.534 423.654,282.52 423.652,282.507C423.651,282.493 423.646,282.48 423.638,282.469C423.631,282.458 423.62,282.449 423.608,282.442C423.596,282.436 423.583,282.433 423.569,282.433C423.556,282.433 423.542,282.436 423.53,282.442C423.518,282.449 423.508,282.458 423.5,282.469C423.493,282.48 423.488,282.493 423.486,282.507C423.485,282.52 423.487,282.534 423.492,282.547C424.662,286.873 425.529,291.276 426.087,295.723C426.722,300.102 427.119,304.512 427.277,308.934C427.277,310.125 427.348,311.315 427.348,312.505C427.348,313.017 427.348,313.529 427.348,314.053C425.614,309.846 423.626,305.748 421.397,301.781C417.827,295.485 413.801,289.458 409.352,283.749C409.341,283.085 409.245,282.425 409.066,281.785C408.9,280.999 408.721,280.214 408.554,279.405C408.185,277.798 407.781,276.191 407.364,274.644C406.483,271.454 405.329,268.371 404.329,265.217C404.329,265.122 404.15,265.157 404.174,265.217C405.103,268.335 405.722,271.561 406.436,274.739C406.793,276.31 407.138,277.881 407.483,279.5L407.983,281.88L407.983,282.059C406.555,280.258 405.099,278.488 403.615,276.75C396.902,268.871 389.522,261.599 382.107,254.374C381.191,253.481 380.262,252.624 379.334,251.743C379.262,251.672 379.155,251.743 379.227,251.862C386.368,259.266 393.295,266.74 399.901,274.572C401.472,276.429 403.02,278.321 404.543,280.226C403.746,279.678 402.936,279.155 402.163,278.631C400.116,277.298 398.044,275.989 395.902,274.786C393.76,273.584 391.617,272.406 389.427,271.335C387.237,270.264 384.749,269.311 382.571,268.038C382.476,268.038 382.393,268.145 382.488,268.181C384.711,269.22 386.858,270.413 388.915,271.751C391.058,273.025 393.2,274.31 395.307,275.643C397.414,276.976 399.449,278.25 401.508,279.583C403.222,280.69 404.912,281.904 406.686,282.94C410.767,288.181 414.531,293.662 417.957,299.353C420.091,302.936 422.037,306.627 423.789,310.41L422.528,309.863L419.302,308.435C417.231,307.506 415.148,306.614 413.077,305.709C409.126,303.995 405.115,302.412 401.246,300.531C399.063,299.504 396.951,298.331 394.926,297.02C394.843,296.961 394.759,297.103 394.843,297.163C402.068,302.138 410.161,305.649 418.148,309.184L421.611,310.72C422.564,311.136 423.516,311.613 424.492,311.982C426.855,317.271 428.844,322.72 430.443,328.288C433.61,339.52 436.185,350.91 438.156,362.412C440.179,373.91 441.536,385.479 442.595,397.108C442.726,398.56 442.857,400 443.024,401.452C443.041,401.561 443.097,401.66 443.181,401.732C443.265,401.803 443.372,401.842 443.482,401.842C443.592,401.842 443.699,401.803 443.783,401.732C443.867,401.66 443.923,401.561 443.94,401.452C443.857,395.537 443.25,389.621 442.631,383.753Z" fill="#263238"/>
<path d="M421.216,286.532C420.561,282.961 419.609,279.45 418.645,275.95C418.645,275.843 418.467,275.891 418.49,275.95C419.383,279.39 420.026,282.89 420.669,286.389C421.311,289.888 421.859,293.53 422.406,297.101C422.406,297.101 422.513,297.101 422.502,297.101C422.275,293.556 421.845,290.027 421.216,286.532L421.216,286.532Z" fill="#263238"/>
<path d="M406.018,296.292C403.568,294.683 401.011,293.243 398.365,291.983C397.079,291.329 395.782,290.698 394.484,290.067C393.187,289.436 391.747,288.877 390.414,288.21C390.404,288.201 390.393,288.195 390.38,288.191C390.368,288.187 390.355,288.187 390.342,288.189C390.329,288.191 390.317,288.196 390.307,288.204C390.296,288.212 390.288,288.222 390.282,288.234C390.276,288.245 390.273,288.258 390.273,288.271C390.273,288.284 390.276,288.297 390.282,288.308C390.288,288.32 390.297,288.33 390.307,288.338C390.317,288.345 390.33,288.351 390.342,288.353C391.628,288.996 392.842,289.781 394.115,290.471C395.389,291.162 396.71,291.9 398.019,292.602C400.59,293.983 403.126,295.518 405.827,296.637C405.871,296.649 405.918,296.647 405.96,296.629C406.003,296.611 406.038,296.58 406.06,296.54C406.082,296.5 406.09,296.454 406.082,296.409C406.074,296.364 406.052,296.322 406.018,296.292Z" fill="#263238"/>
<g opacity="0.1">
<path d="M448.367,321.98C448.367,321.98 470.637,316.671 480.861,301.746C490.621,287.463 493.775,263.158 494.025,261.027C493.62,262.991 489.026,284.237 473.874,294.14C462.269,301.71 451.057,307.947 448.367,321.98Z" fill="#263238"/>
</g>
<path d="M468.924,283.509C464.962,287.148 462.114,291.837 460.711,297.03C460.711,297.03 460.77,297.102 460.782,297.03C462.413,291.961 465.242,287.359 469.031,283.616C469.102,283.569 468.995,283.438 468.924,283.509Z" fill="#263238"/>
<path d="M448.365,321.978C448.365,321.978 470.634,316.67 480.858,301.744C490.618,287.461 493.773,263.156 494.022,261.026C494.027,260.974 494.027,260.923 494.022,260.871C494.022,260.871 483.31,276.047 472.122,279.915C460.934,283.783 445.151,297.173 448.365,321.978Z" fill="#B0FFAE"/>
<path d="M490.108,269.239C488.107,273.325 485.803,277.255 483.217,280.999C480.622,284.553 477.541,287.727 474.064,290.425C471.041,292.806 467.839,295.008 464.78,297.365L464.851,297.245C465.423,296.4 466.042,295.567 466.672,294.758C467.946,293.127 469.339,291.592 470.743,290.068C473.504,287.069 476.337,284.117 478.813,280.88C480.191,279.086 481.387,277.161 482.384,275.131C482.384,275.035 482.277,274.976 482.229,275.071C478.658,282.594 471.41,287.414 466.256,293.77C465.522,294.671 464.835,295.608 464.197,296.579C463.689,297.283 463.262,298.042 462.923,298.84C460.1,301.098 457.548,303.674 455.318,306.517C455.519,305.059 455.817,303.616 456.21,302.197C456.737,300.218 457.538,298.323 458.591,296.567C458.591,296.472 458.507,296.377 458.448,296.472C457.371,298.235 456.5,300.116 455.853,302.078C455.388,303.625 455.116,305.225 455.044,306.839L455.044,306.839C453.944,308.334 452.938,309.896 452.033,311.517L452.318,310.088C452.759,307.874 453.247,305.661 453.818,303.47C454.867,299.011 456.679,294.767 459.174,290.925C459.233,290.842 459.102,290.747 459.043,290.83C456.482,294.615 454.478,298.747 453.092,303.101C452.378,305.292 451.818,307.517 451.318,309.755C451.068,310.85 450.854,311.945 450.64,313.052C450.533,313.623 450.414,314.242 450.319,314.79C448.108,319.638 446.386,324.693 445.177,329.882C442.996,339.155 441.406,348.557 440.416,358.031C439.273,367.959 438.76,377.949 438.88,387.942C438.88,389.132 438.976,390.442 439.047,391.691C439.047,392.013 439.547,392.06 439.559,391.691C439.785,386.752 439.916,381.8 440.202,376.861C440.487,371.921 440.928,366.994 441.392,362.078C442.408,352.403 443.957,342.791 446.034,333.286C447.843,325.145 450.176,316.956 454.627,309.826C456.846,306.291 459.55,303.086 462.661,300.304C465.78,297.507 469.196,295.044 472.493,292.449C475.824,289.922 478.848,287.014 481.503,283.784C484.222,280.188 486.594,276.342 488.585,272.298C489.109,271.286 489.644,270.286 490.18,269.275C490.287,269.227 490.156,269.144 490.108,269.239Z" fill="#263238"/>
<path d="M486.264,272.485C484.801,275.482 483.143,278.381 481.301,281.162C481.301,281.221 481.36,281.292 481.408,281.221C483.316,278.468 484.992,275.562 486.419,272.532C486.466,272.485 486.3,272.401 486.264,272.485Z" fill="#263238"/>
<path d="M366.668,312.137C366.668,312.137 366.311,343.773 385.224,352.915C404.137,362.056 414.29,354.438 427.145,357.497C426.645,356.735 417.468,343.547 402.876,339.917C387.843,336.168 371.215,325.325 366.668,312.137Z" fill="#B0FFAE"/>
<g opacity="0.1">
<path d="M366.668,312.137C366.668,312.137 366.311,343.773 385.224,352.915C404.137,362.056 414.29,354.438 427.145,357.497C420.356,354.259 413.096,352.118 405.637,351.153C393.687,349.701 370.894,341.929 366.668,312.137Z" fill="#B0FFAE"/>
</g>
<path d="M428.395,358.051C426.138,356.01 423.606,354.295 420.873,352.956C420.468,352.766 420.04,352.611 419.683,352.433C419.48,352.183 419.266,351.945 419.04,351.707C418.478,351.113 417.886,350.549 417.267,350.017C416.082,348.988 414.807,348.068 413.458,347.267C410.327,345.422 406.888,344.137 403.686,342.423C403.591,342.423 403.507,342.518 403.603,342.566C405.186,343.387 406.721,344.303 408.268,345.196C409.816,346.089 411.292,346.91 412.756,347.85C414.07,348.697 415.323,349.636 416.505,350.659C416.838,350.945 417.148,351.266 417.469,351.588C415.377,350.883 413.242,350.314 411.077,349.886C407.614,349.183 404.114,348.695 400.651,347.957C398.959,347.589 397.286,347.136 395.64,346.601C394.069,345.339 392.498,344.077 391.01,342.708C389.208,341.061 387.57,339.244 386.118,337.281C386.058,337.198 385.916,337.281 385.987,337.376C388.279,340.479 390.874,343.346 393.735,345.934C392.926,345.625 392.117,345.291 391.355,344.934C384.862,342.013 379.29,337.375 375.239,331.52C375.18,331.425 375.037,331.52 375.096,331.604C378.549,336.636 383.007,340.9 388.189,344.125C390.773,345.74 393.537,347.047 396.425,348.017C399.778,349.048 403.198,349.843 406.662,350.397C410.058,350.951 413.412,351.747 416.695,352.778C419.713,353.799 422.55,355.294 425.098,357.206C429.871,360.967 433.709,365.782 436.31,371.274C439.881,378.416 441.595,386.486 442.547,394.413C442.547,394.746 443.107,394.746 443.083,394.413C442.202,381.13 438.643,367.287 428.395,358.051Z" fill="#263238"/>
<path d="M406.433,347.75C405.448,346.259 404.111,345.033 402.541,344.179C400.747,343.249 399.172,341.947 397.923,340.359C397.863,340.275 397.72,340.359 397.78,340.442C398.912,341.893 400.295,343.131 401.862,344.096C403.583,345.008 405.099,346.264 406.314,347.786C406.373,347.893 406.481,347.822 406.433,347.75Z" fill="#263238"/>
<path d="M416.48,381.406L417.337,398.808L419.98,451.964L459.662,451.964L462.305,398.808L463.162,381.406L416.48,381.406Z" fill="#37474F"/>
<path d="M416.48,381.406L417.337,398.808L462.305,398.808L463.162,381.406L416.48,381.406Z" fill="#263238"/>
<path d="M465.933,374.146L413.682,374.146L413.682,390.75L465.933,390.75L465.933,374.146Z" transform="rotate(360 439.808 382.448)" fill="#37474F"/>
<path d="M244.371,492.259C241.597,493.151 162.458,492.14 159.47,490.188C158.28,489.473 157.804,477.928 157.566,464.002L157.566,463.562C157.51,460.681 157.479,457.734 157.471,454.718C157.471,454.302 157.471,453.897 157.471,453.528L161.303,412.477L214.245,412.988L209.032,453.659L209.032,455.278L208.711,463.693L208.711,464.562C208.711,464.562 238.717,478.404 241.764,480.904C244.811,483.403 247.156,491.366 244.371,492.259Z" fill="#FFB573"/>
<path d="M244.371,492.258C241.597,493.151 162.458,492.139 159.47,490.187C158.28,489.473 157.804,477.927 157.566,464.001L157.566,463.561C157.51,460.681 157.479,457.733 157.471,454.718C157.471,454.301 157.471,453.896 157.471,453.527L209.032,453.658L209.032,455.277L208.711,463.692L208.711,464.561C208.711,464.561 238.717,478.403 241.764,480.903C244.811,483.403 247.156,491.365 244.371,492.258Z" fill="#DEE1FF"/>
<path d="M244.383,492.244C242.955,492.708 221.459,492.661 200.439,492.244C196.214,492.161 192.012,492.066 188.001,491.959C173.016,491.554 160.626,490.935 159.435,490.185C158.245,489.435 157.769,478.283 157.543,464.547C157.543,464.345 157.543,464.154 157.543,463.964C157.543,463.774 157.543,463.655 157.543,463.512L157.602,463.512L208.604,463.595L208.604,464.476C208.604,464.476 238.73,478.402 241.765,480.889C244.8,483.377 247.156,491.364 244.383,492.244Z" fill="#FF3874"/>
<path d="M243.514,489.178C230.184,488.678 176.349,487.928 163.125,488.451C163.018,488.451 163.018,488.535 163.125,488.535C176.337,489.32 230.172,489.63 243.514,489.392C243.8,489.392 243.8,489.189 243.514,489.178Z" fill="#263238"/>
<path d="M214.305,463.82C209.068,462.773 202.641,463.499 198.582,467.188C198.427,467.331 198.582,467.557 198.796,467.498C203.833,465.949 209.02,464.939 214.27,464.486C214.358,464.491 214.445,464.461 214.511,464.401C214.576,464.342 214.616,464.259 214.621,464.171C214.625,464.083 214.595,463.996 214.536,463.93C214.477,463.864 214.394,463.825 214.305,463.82Z" fill="#263238"/>
<path d="M218.067,466.156C212.83,465.108 206.403,465.835 202.344,469.524C202.189,469.667 202.344,469.893 202.558,469.834C207.595,468.285 212.782,467.275 218.031,466.822C218.12,466.827 218.206,466.797 218.272,466.737C218.338,466.678 218.378,466.595 218.382,466.507C218.387,466.419 218.357,466.332 218.297,466.266C218.238,466.2 218.155,466.161 218.067,466.156L218.067,466.156Z" fill="#263238"/>
<path d="M221.829,468.488C216.592,467.44 210.164,468.167 206.106,471.856C205.951,471.999 206.106,472.225 206.32,472.166C211.356,470.617 216.543,469.607 221.793,469.154C221.881,469.159 221.968,469.129 222.034,469.069C222.1,469.01 222.139,468.927 222.144,468.839C222.149,468.751 222.118,468.664 222.059,468.598C222,468.532 221.917,468.493 221.829,468.488L221.829,468.488Z" fill="#263238"/>
<path d="M200.439,492.244C196.214,492.161 192.012,492.066 188.001,491.959C173.016,491.554 160.626,490.935 159.435,490.185C158.245,489.435 157.769,478.283 157.543,464.547C157.543,464.345 157.543,464.154 157.543,463.964C157.543,463.774 157.543,463.655 157.543,463.512L157.602,463.512C164.613,468.416 189.239,484.805 200.439,492.244Z" fill="#D62F61"/>
<path d="M211.675,463.784L154.674,463.784C154.674,463.784 166.124,330.655 165.684,328.335C165.113,325.359 161.744,311.885 157.257,294.282C155.853,288.771 154.341,282.867 152.758,276.737C148.509,260.181 143.819,242.078 139.737,226.331C133.607,202.74 128.822,184.41 128.822,184.41L177.122,184.41C177.122,184.41 182.752,202.264 189.858,225.474C201.427,263.204 216.888,315.135 218.424,327.763C220.888,348.152 211.675,463.784 211.675,463.784Z" fill="#263238"/>
<path d="M209.152,454.066C200.44,453.887 202.951,453.816 194.239,453.733C189.977,453.733 161.983,453.447 158.007,454.114C157.989,454.12 157.973,454.133 157.962,454.149C157.951,454.164 157.945,454.183 157.945,454.203C157.945,454.222 157.951,454.241 157.962,454.257C157.973,454.273 157.989,454.285 158.007,454.292C161.983,454.947 189.977,454.697 194.239,454.661C202.951,454.566 200.452,454.495 209.152,454.316C209.179,454.308 209.202,454.291 209.219,454.269C209.235,454.246 209.244,454.219 209.244,454.191C209.244,454.163 209.235,454.136 209.219,454.113C209.202,454.091 209.179,454.074 209.152,454.066L209.152,454.066Z" fill="#263238"/>
<path d="M176.397,320.208C174.529,311.972 171.732,303.902 169.256,295.808C164.312,279.383 159.341,262.962 154.342,246.544C151.843,238.331 149.331,230.127 146.808,221.93C145.538,217.788 144.257,213.65 142.963,209.516C141.702,205.469 140.25,201.458 139.107,197.375C138.643,195.721 138.393,196.637 138.988,198.744C140.178,202.993 141.369,207.242 142.618,211.491C145.07,219.887 147.542,228.278 150.034,236.665C154.969,253.329 159.956,269.992 164.995,286.655C167.51,295.027 170.026,303.386 172.541,311.734C173.817,315.714 174.846,319.768 175.624,323.874C176.299,328.164 176.471,332.518 176.136,336.848C175.588,345.572 174.588,354.285 173.755,362.974C172.922,371.663 172.148,380.411 171.375,389.159C169.788,406.513 168.201,423.863 166.614,441.209C166.415,443.415 166.229,445.615 166.054,447.813C166.054,448.551 167.113,448.493 167.244,447.813C169.125,430.651 170.553,413.439 172.16,396.253C173.767,379.066 175.362,362.057 176.921,344.965C177.326,340.669 177.778,336.372 177.778,332.051C177.764,328.064 177.301,324.092 176.397,320.208L176.397,320.208Z" fill="#263238"/>
<path d="M171.635,184.41C168.291,210.358 161.911,259.003 157.257,294.294C146.355,251.54 128.822,184.41 128.822,184.41L171.635,184.41Z" fill="#263238"/>
<path d="M182.966,493.031C180.193,493.936 101.053,493.222 98.054,491.27C96.864,490.555 96.34,479.022 96.054,465.084L96.054,464.644C95.983,461.763 95.935,458.8 95.923,455.8C95.923,455.384 95.923,454.979 95.923,454.61C95.733,434.459 97.185,413.559 97.185,413.559L148.913,413.88L147.485,454.551L147.425,456.169L147.14,464.584L147.14,465.453C147.14,465.453 177.3,479.272 180.371,481.76C183.442,484.247 185.739,492.139 182.966,493.031Z" fill="#FFB573"/>
<path d="M182.966,493.031C180.193,493.936 101.054,493.222 98.054,491.27C96.864,490.556 96.34,479.022 96.055,465.084L96.055,464.644C95.983,461.764 95.936,458.8 95.924,455.801C95.924,455.384 95.924,454.979 95.924,454.61L147.485,454.551L147.426,456.17L147.14,464.585L147.14,465.453C147.14,465.453 177.301,479.272 180.372,481.76C183.442,484.247 185.74,492.139 182.966,493.031Z" fill="#DEE1FF"/>
<path d="M182.966,493.033C180.193,493.938 101.054,493.224 98.054,491.272C96.864,490.558 96.34,479.024 96.055,465.087L96.055,464.646L147.116,464.539L147.116,465.408C147.116,465.408 177.277,479.227 180.348,481.714C183.418,484.202 185.739,492.141 182.966,493.033Z" fill="#FF3874"/>
<path d="M182.097,489.949C168.766,489.508 114.92,488.949 101.708,489.52C101.601,489.52 101.589,489.603 101.708,489.603C114.908,490.341 168.754,490.46 182.097,490.175C182.383,490.163 182.383,489.96 182.097,489.949Z" fill="#263238"/>
<path d="M152.793,464.714C147.556,463.679 141.129,464.429 137.082,468.13C136.927,468.273 137.082,468.499 137.296,468.452C142.329,466.873 147.516,465.84 152.77,465.369C152.846,465.358 152.917,465.319 152.969,465.262C153.02,465.204 153.05,465.129 153.053,465.052C153.056,464.974 153.031,464.898 152.984,464.836C152.937,464.775 152.869,464.732 152.793,464.714L152.793,464.714Z" fill="#263238"/>
<path d="M156.566,467.024C151.329,466 144.89,466.75 140.855,470.452C140.688,470.594 140.855,470.821 141.069,470.761C146.104,469.192 151.29,468.163 156.542,467.69C156.631,467.693 156.717,467.661 156.782,467.601C156.846,467.541 156.884,467.457 156.888,467.369C156.891,467.28 156.859,467.194 156.798,467.13C156.738,467.065 156.655,467.027 156.566,467.024L156.566,467.024Z" fill="#263238"/>
<path d="M160.34,469.348C155.091,468.324 148.664,469.074 144.617,472.776C144.462,472.919 144.617,473.133 144.843,473.085C149.876,471.509 155.063,470.479 160.316,470.014C160.405,470.018 160.491,469.986 160.556,469.925C160.62,469.865 160.658,469.781 160.662,469.693C160.665,469.605 160.633,469.519 160.572,469.454C160.512,469.389 160.429,469.351 160.34,469.348Z" fill="#263238"/>
<path d="M175.563,184.412C175.563,184.412 174.456,207.526 169.171,225.832C168.743,227.344 168.279,228.832 167.791,230.26C162.941,232.211 158.28,234.601 153.865,237.401C153.865,237.401 153.317,255.993 152.758,276.679C152.151,299.865 151.508,325.729 151.651,331.204C152.139,351.724 149.116,464.512 149.116,464.512L92.127,464.75C92.127,464.75 102.399,338.751 102.327,331.228C102.22,319.147 105.077,265.765 107.279,226.808C108.636,202.813 109.743,184.316 109.743,184.316L175.563,184.412Z" fill="#263238"/>
<path d="M147.153,454.489C138.452,454.346 140.951,454.275 132.251,454.227C127.99,454.227 99.983,454.085 96.008,454.763C95.924,454.763 95.924,454.93 96.008,454.942C99.995,455.584 127.99,455.215 132.251,455.156C140.951,455.025 138.452,454.965 147.153,454.751C147.187,454.751 147.221,454.737 147.245,454.713C147.27,454.688 147.284,454.655 147.284,454.62C147.284,454.585 147.27,454.552 147.245,454.528C147.221,454.503 147.187,454.489 147.153,454.489Z" fill="#263238"/>
<path d="M114.527,192.744C113.492,224.535 112.385,256.338 110.956,288.106C109.528,319.874 107.624,351.879 105.005,383.683C103.517,401.452 102.125,426.46 100.244,444.182C100.244,444.302 100.411,444.35 100.435,444.182C104.577,412.64 106.874,373.649 108.909,341.905C110.944,310.161 112.313,278.394 113.396,246.614C114.003,228.641 114.468,210.657 115.003,192.672C114.932,192.41 114.539,192.434 114.527,192.744Z" fill="#263238"/>
<path d="M170.158,228.893C164.489,231.258 159.037,234.114 153.864,237.427C153.826,237.454 153.799,237.493 153.788,237.539C153.778,237.584 153.784,237.632 153.806,237.673C153.828,237.714 153.864,237.745 153.908,237.761C153.951,237.777 153.999,237.777 154.043,237.76C159.53,235.082 165.148,232.511 170.492,229.548C170.569,229.498 170.625,229.422 170.65,229.333C170.674,229.245 170.664,229.151 170.623,229.069C170.581,228.987 170.51,228.924 170.425,228.891C170.339,228.859 170.244,228.859 170.158,228.893L170.158,228.893Z" fill="#263238"/>
<path d="M170.469,209.278C170.1,211.302 169.601,213.313 169.172,215.325C168.744,217.336 168.458,219.146 167.982,221.002C167.574,222.809 166.657,224.461 165.339,225.763C164.59,226.454 163.78,227.061 162.959,227.691C162.542,228.025 162.078,228.358 161.638,228.703C161.638,228.429 161.745,228.156 161.793,227.882L162.185,225.585C162.471,223.871 162.745,222.169 163.007,220.455C163.518,217.098 163.983,213.694 164.685,210.373C164.685,210.231 164.506,210.183 164.482,210.373C163.637,213.67 162.721,216.944 161.983,220.264C161.626,221.895 160.352,229.941 160.305,230.512C160.257,231.084 160.198,231.703 160.174,232.286C160.091,232.886 160.091,233.495 160.174,234.095C160.174,234.238 160.388,234.214 160.448,234.095C160.686,233.534 160.858,232.947 160.959,232.345C161.102,231.774 161.233,231.155 161.328,230.608C161.328,230.393 161.4,230.179 161.435,229.965C162.221,229.477 162.959,228.846 163.697,228.31C164.435,227.775 165.316,227.12 166.077,226.525C167.477,225.349 168.485,223.776 168.97,222.014C169.458,220.118 169.777,218.182 169.922,216.229C170.172,213.932 170.362,211.635 170.684,209.362C170.696,209.195 170.493,209.147 170.469,209.278Z" fill="#263238"/>
<path d="M155.781,123.988C158.947,132.808 170.064,152.554 187.144,168.122C193.75,174.133 242.895,170.181 247.763,168.289C251.167,166.956 257.523,142.187 253.94,139.949C247.227,135.748 203.295,145.436 201.427,144.448C198.57,142.925 179.645,130.249 167.469,118.263C158.578,109.431 150.544,109.336 155.781,123.988Z" fill="#FFB573"/>
<path d="M168.421,150.028L196.296,138.959C196.296,138.959 171.301,117.451 162.136,113.202C151.841,108.441 151.65,114.725 155.268,124.878C158.887,135.031 168.421,150.028 168.421,150.028Z" fill="#01008A"/>
<g opacity="0.1">
<path d="M168.421,150.028L196.296,138.959C196.296,138.959 171.301,117.451 162.136,113.202C151.841,108.441 151.65,114.725 155.268,124.878C158.887,135.031 168.421,150.028 168.421,150.028Z" fill="#000000"/>
</g>
<path d="M190.405,135.613C189.382,135.839 180.645,139.184 178.753,139.922C176.86,140.66 169.136,143.719 167.255,144.683C167.236,144.683 167.218,144.69 167.205,144.704C167.191,144.717 167.184,144.735 167.184,144.754C167.184,144.773 167.191,144.791 167.205,144.805C167.218,144.818 167.236,144.826 167.255,144.826C169.278,144.243 177.086,141.255 179.015,140.469C180.943,139.684 189.536,136.256 190.429,135.709C190.584,135.613 190.477,135.613 190.405,135.613Z" fill="#263238"/>
<path d="M179.17,145.753L168.458,150.026C168.458,150.026 158.936,135.041 155.365,124.889C152.723,117.461 152.116,112.082 155.996,111.605L179.17,145.753Z" fill="#0A0A5A"/>
<path d="M103.375,209.575C103.554,209.778 182.396,210.289 183.122,209.492C184.133,208.302 166.625,122.878 158.567,112.297C156.853,110.035 145.974,106.952 139.666,112.094C126.264,123.009 114.671,160.478 111.933,171.785C107.458,190.365 102.721,208.837 103.375,209.575Z" fill="#01008A"/>
<g opacity="0.4">
<path d="M159.007,112.997L138.654,112.997C138.988,112.688 139.321,112.402 139.654,112.128C139.856,111.963 140.067,111.808 140.285,111.664L157.817,111.664C158.094,111.85 158.343,112.074 158.555,112.331C158.72,112.543 158.871,112.766 159.007,112.997Z" fill="#C9C9FF"/>
</g>
<g opacity="0.4">
<path d="M160.911,116.794L135.143,116.794C135.512,116.33 135.881,115.878 136.261,115.449L160.328,115.449C160.519,115.866 160.709,116.318 160.911,116.794Z" fill="#C9C9FF"/>
</g>
<g opacity="0.4">
<path d="M162.387,120.63L132.381,120.63C132.69,120.166 132.988,119.726 133.297,119.285L161.863,119.285L162.387,120.63Z" fill="#C9C9FF"/>
</g>
<g opacity="0.4">
<path d="M163.685,124.447L130.037,124.447C130.299,123.994 130.561,123.542 130.835,123.102L163.209,123.102C163.4,123.542 163.543,123.994 163.685,124.447Z" fill="#C9C9FF"/>
</g>
<g opacity="0.4">
<path d="M164.9,128.282L128.002,128.282C128.24,127.83 128.466,127.378 128.716,126.938L164.542,126.938C164.614,127.378 164.757,127.83 164.9,128.282Z" fill="#C9C9FF"/>
</g>
<g opacity="0.4">
<path d="M166.029,132.115L126.025,132.115C126.24,131.662 126.454,131.21 126.68,130.77L165.589,130.77L166.029,132.115Z" fill="#C9C9FF"/>
</g>
<g opacity="0.4">
<path d="M167.112,135.935L124.264,135.935L124.871,134.59L166.779,134.59C166.862,135.03 166.981,135.483 167.112,135.935Z" fill="#C9C9FF"/>
</g>
<g opacity="0.4">
<path d="M168.148,139.771L122.609,139.771L123.181,138.426L167.791,138.426L168.148,139.771Z" fill="#C9C9FF"/>
</g>
<g opacity="0.4">
<path d="M169.16,143.599L121.063,143.599C121.229,143.147 121.408,142.706 121.598,142.254L168.815,142.254C168.922,142.754 169.041,143.147 169.16,143.599Z" fill="#C9C9FF"/>
</g>
<g opacity="0.4">
<path d="M170.136,147.423L119.586,147.423C119.753,146.971 119.919,146.53 120.098,146.078L169.802,146.078C169.909,146.53 170.029,146.971 170.136,147.423Z" fill="#C9C9FF"/>
</g>
<g opacity="0.4">
<path d="M171.1,151.255L118.193,151.255C118.348,150.803 118.515,150.362 118.681,149.91L170.766,149.91C170.874,150.362 170.981,150.803 171.1,151.255Z" fill="#C9C9FF"/>
</g>
<g opacity="0.4">
<path d="M172.029,155.071L116.873,155.071C117.016,154.631 117.171,154.179 117.337,153.738L171.708,153.738L172.029,155.071Z" fill="#C9C9FF"/>
</g>
<g opacity="0.4">
<path d="M172.946,158.907L115.6,158.907L116.028,157.563L172.612,157.563L172.946,158.907Z" fill="#C9C9FF"/>
</g>
<g opacity="0.4">
<path d="M173.837,162.739L114.408,162.739C114.539,162.299 114.67,161.847 114.813,161.395L173.528,161.395C173.635,161.799 173.742,162.299 173.837,162.739Z" fill="#C9C9FF"/>
</g>
<g opacity="0.4">
<path d="M174.729,166.56L113.301,166.56L113.682,165.227L174.384,165.227C174.515,165.679 174.622,166.119 174.729,166.56Z" fill="#C9C9FF"/>
</g>
<g opacity="0.4">
<path d="M175.587,170.396L112.266,170.396C112.373,169.979 112.492,169.527 112.611,169.051L175.289,169.051C175.384,169.503 175.491,169.943 175.587,170.396Z" fill="#C9C9FF"/>
</g>
<g opacity="0.4">
<path d="M176.444,174.224L111.338,174.224L111.659,172.879L176.147,172.879C176.301,173.331 176.301,173.783 176.444,174.224Z" fill="#C9C9FF"/>
</g>
<g opacity="0.4">
<path d="M177.276,178.044L110.408,178.044L110.73,176.711L176.99,176.711L177.276,178.044Z" fill="#C9C9FF"/>
</g>
<g opacity="0.4">
<path d="M178.086,181.88L109.48,181.88L109.802,180.535L177.8,180.535C177.908,180.987 178.003,181.428 178.086,181.88Z" fill="#C9C9FF"/>
</g>
<g opacity="0.4">
<path d="M178.896,185.708L108.553,185.708L108.874,184.363L178.682,184.363C178.682,184.816 178.813,185.268 178.896,185.708Z" fill="#C9C9FF"/>
</g>
<g opacity="0.4">
<path d="M179.68,189.532L107.623,189.532L107.944,188.188L179.359,188.188C179.502,188.64 179.597,189.092 179.68,189.532Z" fill="#C9C9FF"/>
</g>
<g opacity="0.4">
<path d="M180.455,193.365L106.66,193.365C106.779,192.924 106.886,192.472 106.993,192.02L180.158,192.02C180.277,192.472 180.372,192.924 180.455,193.365Z" fill="#C9C9FF"/>
</g>
<g opacity="0.4">
<path d="M181.205,197.197L105.779,197.197C105.886,196.756 105.982,196.316 106.101,195.852L180.943,195.852C181.062,196.316 181.122,196.756 181.205,197.197Z" fill="#C9C9FF"/>
</g>
<g opacity="0.4">
<path d="M181.919,201.079L104.887,201.079C104.982,200.639 105.089,200.199 105.196,199.734L181.669,199.734C181.753,200.139 181.836,200.579 181.919,201.079Z" fill="#C9C9FF"/>
</g>
<g opacity="0.4">
<path d="M182.585,204.849L104.029,204.849C104.113,204.432 104.208,203.98 104.327,203.504L182.347,203.504C182.442,203.98 182.514,204.42 182.585,204.849Z" fill="#C9C9FF"/>
</g>
<g opacity="0.4">
<path d="M183.133,208.685L103.387,208.685C103.387,208.328 103.494,207.875 103.589,207.34L182.967,207.34C183.05,207.887 183.097,208.34 183.133,208.685Z" fill="#C9C9FF"/>
</g>
<path d="M155.114,123.712C152.401,124.116 144.402,119.153 141.415,113.797C141.212,113.428 142.605,98.609 142.533,95.646C142.533,95.039 161.173,99.943 161.173,99.943C160.159,103.662 159.603,107.491 159.518,111.345C159.529,111.745 159.577,112.144 159.661,112.535C159.661,112.595 159.661,112.654 159.661,112.738C160.09,115.118 159.09,123.164 155.114,123.712Z" fill="#FFB573"/>
<path d="M143.736,95.777C144.486,100.265 147.498,112.822 157.781,112.941C158.418,112.948 159.055,112.904 159.686,112.81L159.686,112.607C159.611,112.215 159.567,111.817 159.555,111.417C159.639,107.563 160.195,103.734 161.209,100.015C161.209,100.015 147.866,96.491 143.736,95.777Z" fill="#CC915C"/>
<path d="M144.343,70.65C141.011,76.673 140.475,96.026 144.188,101.144C149.556,108.571 160.328,111.452 167.136,104.548C173.73,97.847 173.98,72.614 169.66,67.758C163.292,60.628 149.271,61.735 144.343,70.65Z" fill="#FFB573"/>
<path d="M160.139,86.039C160.139,86.039 160.043,86.099 160.043,86.158C160.043,87.455 159.817,88.955 158.627,89.348L158.627,89.419C160.079,89.265 160.353,87.277 160.139,86.039Z" fill="#263238"/>
<path d="M159.019,84.649C156.936,84.423 156.638,88.613 158.567,88.827C160.495,89.041 160.828,84.84 159.019,84.649Z" fill="#263238"/>
<path d="M167.316,86.469C167.316,86.469 167.411,86.528 167.411,86.588C167.268,87.885 167.34,89.397 168.482,89.909C168.482,89.909 168.482,89.992 168.482,89.98C167.042,89.671 166.982,87.671 167.316,86.469Z" fill="#263238"/>
<path d="M168.577,85.195C170.672,85.195 170.541,89.385 168.577,89.397C166.613,89.409 166.78,85.195 168.577,85.195Z" fill="#263238"/>
<path d="M157.257,83.244C157.821,83.127 158.377,82.976 158.923,82.792C159.53,82.711 160.094,82.436 160.53,82.006C160.641,81.844 160.694,81.649 160.681,81.453C160.668,81.256 160.59,81.07 160.458,80.923C160.161,80.666 159.799,80.494 159.411,80.425C159.024,80.356 158.625,80.392 158.256,80.531C157.467,80.699 156.768,81.152 156.293,81.804C156.197,81.96 156.147,82.139 156.151,82.322C156.154,82.505 156.21,82.683 156.311,82.834C156.413,82.986 156.556,83.106 156.724,83.178C156.891,83.251 157.076,83.274 157.257,83.244Z" fill="#263238"/>
<path d="M170.349,82.267C169.796,82.115 169.251,81.932 168.718,81.719C168.114,81.601 167.563,81.292 167.147,80.838C167.05,80.668 167.01,80.47 167.034,80.275C167.058,80.08 167.143,79.898 167.278,79.755C167.593,79.519 167.965,79.37 168.356,79.324C168.747,79.278 169.143,79.336 169.504,79.493C170.278,79.709 170.947,80.2 171.384,80.874C171.479,81.034 171.525,81.218 171.515,81.403C171.505,81.588 171.441,81.766 171.331,81.915C171.22,82.064 171.068,82.177 170.893,82.24C170.718,82.302 170.529,82.312 170.349,82.267L170.349,82.267Z" fill="#263238"/>
<path d="M163.209,95.719C162.611,96.394 161.848,96.903 160.995,97.195C160.527,97.35 160.022,97.35 159.555,97.195C158.531,96.85 158.579,95.898 158.829,95.1C158.964,94.684 159.148,94.284 159.376,93.91C160.429,94.905 161.771,95.539 163.209,95.719L163.209,95.719Z" fill="#263238"/>
<path d="M161.007,97.192C160.539,97.347 160.034,97.347 159.566,97.192C158.543,96.847 158.59,95.895 158.84,95.098C159.388,95.143 159.902,95.377 160.297,95.759C160.692,96.14 160.943,96.647 161.007,97.192Z" fill="#FF9CBD"/>
<path d="M142.069,88.29C145.639,87.826 149.067,76.661 149.067,76.661C149.067,76.661 148.305,81.506 149.234,81.518C150.162,81.53 154.876,75.566 155.994,70.805C158.413,72.981 161.106,74.829 164.005,76.304C168.123,78.244 172.944,78.685 173.063,77.935C173.384,75.745 172.253,69.746 169.575,67.223C167.653,65.262 165.248,63.844 162.602,63.11C159.956,62.377 157.164,62.354 154.507,63.045C147.056,64.699 144.532,68.996 142.961,72.305C141.39,75.614 140.759,88.457 142.069,88.29Z" fill="#263238"/>
<path d="M156.591,92.966C155.521,92.802 154.519,92.339 153.7,91.632C152.881,90.924 152.278,90 151.959,88.965C151.641,87.931 151.621,86.827 151.901,85.782C152.181,84.736 152.75,83.791 153.543,83.054C154.336,82.317 155.32,81.818 156.383,81.614C157.446,81.411 158.545,81.511 159.554,81.903C160.563,82.296 161.441,82.964 162.087,83.833C162.733,84.701 163.122,85.734 163.208,86.813C163.284,87.686 163.16,88.565 162.846,89.383C162.531,90.202 162.034,90.938 161.393,91.535C160.752,92.133 159.983,92.577 159.145,92.833C158.306,93.089 157.421,93.151 156.555,93.014L156.591,92.966ZM158.316,82.349C157.921,82.306 157.522,82.306 157.126,82.349C155.861,82.501 154.701,83.13 153.885,84.108C153.068,85.086 152.655,86.339 152.731,87.611C152.807,88.883 153.366,90.078 154.293,90.952C155.221,91.825 156.447,92.312 157.721,92.312C158.995,92.312 160.222,91.825 161.149,90.952C162.077,90.078 162.635,88.883 162.711,87.611C162.787,86.339 162.375,85.086 161.558,84.108C160.741,83.13 159.582,82.501 158.316,82.349L158.316,82.349Z" fill="#FF3874"/>
<path d="M169.802,93.481C167.624,93.124 166.005,90.576 166.136,87.529C166.179,86.09 166.67,84.701 167.541,83.554C167.881,83.037 168.349,82.617 168.9,82.336C169.451,82.055 170.065,81.921 170.683,81.949C171.301,81.976 171.902,82.164 172.425,82.494C172.949,82.823 173.378,83.283 173.671,83.828C174.435,85.042 174.797,86.466 174.706,87.898C174.575,91.076 172.54,93.576 170.171,93.469C170.049,93.485 169.925,93.489 169.802,93.481L169.802,93.481ZM170.993,82.768L170.707,82.768C170.213,82.766 169.727,82.884 169.289,83.112C168.851,83.34 168.476,83.672 168.195,84.078C167.434,85.114 167.018,86.363 167.005,87.648C166.886,90.398 168.362,92.695 170.302,92.778C172.242,92.862 173.873,90.707 174.04,88.017C174.113,86.761 173.793,85.512 173.123,84.447C172.903,84.027 172.593,83.662 172.214,83.377C171.835,83.093 171.397,82.897 170.933,82.804L170.993,82.768Z" fill="#FF3874"/>
<path d="M163.029,87.432L162.553,86.813C163.457,86.123 165.528,85.23 166.861,86.813L166.278,87.313C165.076,85.884 163.112,87.36 163.029,87.432Z" fill="#FF3874"/>
<path d="M138.452,88.005L137.785,87.624C137.964,87.315 139.582,84.577 141.356,84.375C143.129,84.173 152.068,85.339 152.556,85.411L152.449,86.172C148.805,85.621 145.134,85.275 141.451,85.137C140.261,85.303 138.88,87.291 138.452,88.005Z" fill="#FF3874"/>
<path d="M145.117,86.672C145.117,86.672 142.046,79.816 139.011,80.804C135.975,81.792 137.487,91.16 140.475,92.969C140.842,93.236 141.261,93.425 141.705,93.523C142.148,93.622 142.607,93.629 143.054,93.543C143.5,93.457 143.924,93.28 144.299,93.024C144.675,92.767 144.993,92.437 145.236,92.052L145.117,86.672Z" fill="#FFB573"/>
<path d="M139.51,83.473L139.51,83.556C141.593,84.901 142.378,87.234 142.807,89.507C142.718,89.255 142.576,89.026 142.391,88.834C142.205,88.642 141.98,88.493 141.731,88.397C141.482,88.301 141.215,88.26 140.949,88.277C140.682,88.294 140.423,88.369 140.188,88.495C140.176,88.503 140.166,88.513 140.159,88.526C140.152,88.538 140.148,88.553 140.148,88.567C140.148,88.581 140.152,88.595 140.159,88.608C140.166,88.62 140.176,88.631 140.188,88.638C140.609,88.585 141.035,88.664 141.409,88.864C141.782,89.065 142.084,89.377 142.271,89.757C142.585,90.395 142.829,91.066 142.997,91.757C143.069,91.983 143.449,91.935 143.414,91.757C144.009,88.817 142.545,84.353 139.51,83.473Z" fill="#CC915C"/>
<path d="M163.707,63.319C161.48,61.853 159.05,60.722 156.494,59.962C153.626,59.165 144.306,58.522 141.83,60.045C139.355,61.569 137.498,70.162 137.248,71.424C136.998,72.686 136.45,80.446 138.95,82.708C141.449,84.969 143.64,71.995 148.662,68.282C153.685,64.568 163.707,63.319 163.707,63.319Z" fill="#FF3874"/>
<path d="M163.708,63.318C163.708,63.318 153.686,64.603 148.663,68.281C143.64,71.959 141.462,84.945 138.95,82.707C137.844,81.707 137.427,80.41 137.225,78.303C138.415,74.578 140.795,68.888 144.545,65.21C148.115,61.806 153.495,60.628 159.054,60.806C160.673,61.511 162.23,62.351 163.708,63.318L163.708,63.318Z" fill="#D62F61"/>
<path d="M138.582,90.561C139.344,87.121 144.236,78.337 148.723,73.54C153.21,68.743 164.565,67.244 166.077,67.589C169.743,68.339 170.838,69.648 171.468,69.398C172.099,69.148 168.695,65.827 167.755,65.042C166.815,64.256 164.184,62.387 162.601,62.185C161.018,61.983 150.937,61.519 146.711,65.22C142.486,68.922 135.654,80.027 136.142,83.193C136.261,83.955 137.154,84.562 137.332,85.645C137.546,87.061 137.594,88.668 137.868,89.668C138.058,90.453 138.511,90.858 138.582,90.561Z" fill="#FF3874"/>
<path d="M139.058,87.088C138.999,86.815 138.868,86.577 138.784,86.315C138.682,86.022 138.614,85.719 138.582,85.41C138.596,84.823 138.544,84.236 138.427,83.66C138.264,83.212 138.048,82.785 137.785,82.387C137.458,81.952 137.29,81.419 137.308,80.875C137.308,80.804 137.201,80.78 137.189,80.875C137.201,81.881 137.467,82.868 137.963,83.744C138.101,84.362 138.184,84.991 138.213,85.624C138.269,86.214 138.515,86.77 138.915,87.207C138.933,87.214 138.952,87.216 138.971,87.213C138.989,87.209 139.007,87.201 139.021,87.189C139.036,87.177 139.047,87.162 139.053,87.144C139.06,87.126 139.061,87.107 139.058,87.088L139.058,87.088Z" fill="#FFB6CC"/>
<path d="M140.807,83.504C140.196,82.678 139.733,81.752 139.438,80.767C139.284,80.302 139.177,79.814 139.034,79.338C138.891,78.862 138.617,78.231 138.474,77.66L138.367,77.66C138.51,78.255 138.558,78.85 138.689,79.469C138.809,79.982 138.96,80.487 139.141,80.981C139.311,81.456 139.527,81.915 139.784,82.35C140.025,82.808 140.357,83.213 140.76,83.54L140.807,83.504Z" fill="#FFB6CC"/>
<path d="M142.569,80.291C141.928,79.579 141.395,78.777 140.986,77.911C140.593,77.054 140.26,76.173 139.926,75.292C139.926,75.233 139.796,75.292 139.807,75.292C139.966,76.262 140.242,77.209 140.629,78.113C140.827,78.535 141.07,78.934 141.355,79.303C141.686,79.694 142.062,80.046 142.474,80.351C142.474,80.351 142.616,80.351 142.569,80.291Z" fill="#FFB6CC"/>
<path d="M144.415,77.289C144.09,76.983 143.824,76.62 143.629,76.218C143.391,75.789 143.153,75.349 142.939,74.897C142.725,74.444 142.499,74.052 142.296,73.623C142.056,73.202 141.906,72.736 141.856,72.254C141.856,72.254 141.749,72.183 141.737,72.254C141.708,72.735 141.777,73.217 141.939,73.671C142.092,74.18 142.291,74.674 142.534,75.147C142.766,75.612 143.028,76.061 143.32,76.492C143.551,76.9 143.905,77.224 144.332,77.42C144.415,77.408 144.498,77.289 144.415,77.289Z" fill="#FFB6CC"/>
<path d="M146.009,73.257C145.735,72.9 145.461,72.531 145.223,72.151C144.985,71.77 144.747,71.377 144.521,70.96C144.295,70.544 144.057,70.139 143.842,69.77C143.842,69.699 143.723,69.77 143.735,69.77C143.854,70.234 144.009,70.687 144.199,71.127C144.396,71.538 144.618,71.935 144.866,72.317C145.109,72.731 145.379,73.129 145.675,73.507C145.952,73.887 146.294,74.214 146.687,74.471C146.758,74.471 146.83,74.471 146.806,74.364C146.577,73.97 146.31,73.599 146.009,73.257L146.009,73.257Z" fill="#FFB6CC"/>
<path d="M152.877,69.697C152.613,69.217 152.323,68.753 152.008,68.304C151.674,67.85 151.316,67.413 150.937,66.995C150.222,66.177 149.424,65.435 148.557,64.781C148.497,64.781 148.414,64.781 148.461,64.865C149.902,66.507 151.413,68.102 152.83,69.756L152.877,69.697Z" fill="#FFB6CC"/>
<path d="M155.411,67.033C155.129,66.56 154.789,66.125 154.4,65.735C153.57,64.935 152.651,64.233 151.662,63.641C151.603,63.641 151.531,63.641 151.591,63.736C152.4,64.462 153.233,65.188 153.971,65.962C154.353,66.339 154.715,66.736 155.054,67.152C155.4,67.568 155.638,68.056 155.947,68.497L156.03,68.497C155.923,67.973 155.712,67.475 155.411,67.033L155.411,67.033Z" fill="#FFB6CC"/>
<path d="M158.508,66.091C158.248,65.635 157.94,65.208 157.591,64.817C156.922,64.091 156.138,63.48 155.27,63.008C155.211,63.008 155.151,63.008 155.199,63.103C155.976,63.734 156.693,64.435 157.341,65.198C157.675,65.579 157.972,65.972 158.294,66.388C158.615,66.805 158.841,67.245 159.186,67.578C159.011,67.061 158.783,66.562 158.508,66.091L158.508,66.091Z" fill="#FFB6CC"/>
<path d="M160.828,64.662C160.507,64.316 160.174,63.983 159.828,63.65C159.505,63.309 159.132,63.02 158.722,62.793C158.662,62.793 158.614,62.793 158.662,62.888C159.293,63.567 159.852,64.245 160.519,64.924C161.036,65.596 161.486,66.318 161.864,67.078L161.935,67.078C161.816,66.18 161.43,65.338 160.828,64.662L160.828,64.662Z" fill="#FFB6CC"/>
<path d="M163.54,64.485C162.959,63.76 162.244,63.154 161.434,62.699C161.434,62.699 161.315,62.759 161.434,62.794C162.15,63.334 162.784,63.976 163.314,64.699C163.85,65.412 164.306,66.182 164.671,66.996C164.671,66.996 164.755,66.996 164.755,66.996C164.555,66.074 164.138,65.214 163.54,64.485L163.54,64.485Z" fill="#FFB6CC"/>
<path d="M166.779,66.58C166.719,66.386 166.647,66.195 166.565,66.009C166.384,65.637 166.169,65.283 165.923,64.95C165.398,64.292 164.812,63.687 164.173,63.141C164.173,63.141 164.042,63.141 164.101,63.236C164.715,63.778 165.258,64.393 165.72,65.069C165.948,65.394 166.151,65.737 166.327,66.092C166.411,66.271 166.494,66.45 166.565,66.628C166.622,66.812 166.694,66.991 166.779,67.164L166.887,67.164C166.883,66.965 166.847,66.768 166.779,66.58L166.779,66.58Z" fill="#FFB6CC"/>
<path d="M168.79,67.034C168.636,66.735 168.465,66.445 168.278,66.165C168.084,65.887 167.874,65.621 167.648,65.368C167.421,65.106 167.183,64.856 166.957,64.582C166.957,64.582 166.814,64.582 166.874,64.665C167.107,64.925 167.319,65.203 167.505,65.499L168.052,66.32L168.588,67.141C168.778,67.427 168.921,67.736 169.135,67.998L169.219,67.998C169.113,67.661 168.97,67.338 168.79,67.034Z" fill="#FFB6CC"/>
<path d="M132,121.012C121.431,138.866 102.875,183.048 110.028,192.427C119.646,204.96 150.497,220.517 160.447,222.04C164.744,222.707 175.361,190.225 171.159,188.309C166.089,186.012 137.916,173.419 137.832,171.729C137.749,170.039 141.677,149.519 142.593,131.963C143.534,111.526 137.809,111.229 132,121.012Z" fill="#FFB573"/>
<path d="M164.113,188.558C164.113,188.558 177.206,186.379 185.74,185.356C190.501,184.784 198.832,184.535 202.558,185.725C208.116,187.498 230.219,198.496 227.66,203.912C225.351,208.816 207.569,196.961 207.569,196.961C207.569,196.961 226.613,207.328 222.709,212.72C218.805,218.111 200.534,202.007 200.534,202.007C200.534,202.007 219.816,213.112 214.96,218.04C211.282,221.765 193.869,208.149 193.869,208.149C193.869,208.149 210.378,217.802 206.771,221.801C202.772,226.217 185.918,214.66 185.918,214.66C175.016,223.265 166.303,222.908 160.138,221.908C158.65,221.694 164.113,188.558 164.113,188.558Z" fill="#FFB573"/>
<path d="M201.225,192.95C203.499,194.141 205.82,195.224 207.986,196.521C210.152,197.818 212.271,199.271 214.306,200.806C217.001,202.757 219.465,205.009 221.65,207.519C217.448,203.341 209.747,198.437 207.593,197.104C205.439,195.771 203.332,194.331 201.178,192.986C201.118,192.998 201.166,192.915 201.225,192.95Z" fill="#263238"/>
<path d="M196.263,200.681C199.107,202.264 201.988,203.728 204.761,205.442C207.534,207.156 209.998,209.013 212.629,210.87C212.831,211.013 212.628,211.072 212.474,210.941C209.772,209.168 207.13,207.728 204.392,205.99C201.654,204.252 199,202.419 196.215,200.753C196.167,200.717 196.215,200.657 196.263,200.681Z" fill="#263238"/>
<path d="M190.799,206.564C195.22,208.879 199.392,211.643 203.249,214.812C203.439,214.967 203.249,215.026 203.034,214.883C198.952,212.063 195.762,209.813 190.727,206.718C190.644,206.671 190.703,206.516 190.799,206.564Z" fill="#263238"/>
<path d="M141.129,153.381L111.135,153.381C111.135,153.381 126.394,124.124 133.309,116.792C141.081,108.532 143.605,114.317 144.021,125.124C144.438,135.932 141.129,153.381 141.129,153.381Z" fill="#01008A"/>
<g opacity="0.1">
<path d="M141.129,153.381L111.135,153.381C111.135,153.381 126.394,124.124 133.309,116.792C141.081,108.532 143.605,114.317 144.021,125.124C144.438,135.932 141.129,153.381 141.129,153.381Z" fill="#000000"/>
</g>
<path d="M140.379,148.302C139.332,148.147 129.988,148.088 127.953,148.123C125.917,148.159 117.61,148.195 115.515,148.409C115.496,148.409 115.478,148.417 115.464,148.43C115.451,148.443 115.443,148.461 115.443,148.48C115.443,148.499 115.451,148.518 115.464,148.531C115.478,148.544 115.496,148.552 115.515,148.552C117.61,148.742 125.989,148.718 128.06,148.73C130.131,148.742 139.379,148.599 140.403,148.433C140.474,148.421 140.45,148.314 140.379,148.302Z" fill="#263238"/>
<path d="M260.998,140.375C262.188,145.445 266.318,152.373 265.926,156.205C265.864,157.156 265.498,158.061 264.88,158.786C264.262,159.511 263.426,160.017 262.498,160.228C262.498,160.228 265.806,162.93 264.878,166.358C264.402,168.12 261.153,168.905 261.153,168.905C261.153,168.905 263.712,171.19 262.7,174.178C261.879,176.558 258.76,176.987 258.76,176.987C258.76,176.987 260.189,180.32 258.582,182.486C255.32,186.878 234.217,182.105 232.718,173.595C232.015,169.631 237.11,171.071 237.11,171.071C237.11,171.071 230.29,167.227 231.159,162.847C232.027,158.467 238.526,160.752 238.526,160.752C238.526,160.752 231.956,156.967 233.313,152.515C234.67,148.064 240.847,151.325 240.847,151.325C240.847,151.325 236.872,147.088 238.705,143.922C241.716,138.697 250.762,148.147 255.654,148.1L257.749,140.661L260.998,140.375Z" fill="#FFB573"/>
<path d="M263.284,147.898C262.617,142.994 266.319,141.792 267.009,137.079C267.783,131.83 261.379,131.794 257.821,140.387L255.654,148.088L263.284,147.898Z" fill="#FFB573"/>
<path d="M258.261,177.162C258.276,177.162 258.292,177.168 258.303,177.179C258.314,177.19 258.32,177.205 258.32,177.221C258.32,177.237 258.314,177.252 258.303,177.263C258.292,177.274 258.276,177.281 258.261,177.281C250.654,177.424 243.182,175.253 236.836,171.056C236.634,170.925 236.777,170.532 237.027,170.651C243.752,173.837 250.905,176.03 258.261,177.162L258.261,177.162Z" fill="#263238"/>
<path d="M261.237,169C261.32,169 261.309,169.154 261.237,169.154C253.691,169.238 244.645,166.607 238.265,160.918C238.039,160.727 238.039,160.335 238.265,160.537C242.824,164 254.31,168.047 261.237,169Z" fill="#263238"/>
<path d="M240.575,150.752C246.907,155.977 254.286,158.631 262.249,160.274C262.344,160.274 262.308,160.44 262.249,160.44C258.131,160.702 253.167,159.119 249.406,157.56C245.892,156.18 242.799,153.907 240.432,150.966C240.241,150.859 240.384,150.645 240.575,150.752Z" fill="#263238"/>
<path d="M230.779,113.094L284.34,112.166C287.065,112.132 289.767,112.667 292.274,113.737C294.78,114.807 297.036,116.388 298.897,118.379C306.895,126.877 314.144,140.838 321.047,161.061L267.486,161.989C260.583,141.755 253.334,127.817 245.336,119.319C243.476,117.326 241.22,115.743 238.714,114.672C236.208,113.6 233.505,113.062 230.779,113.094L230.779,113.094Z" fill="#DEE1FF"/>
<path d="M270.234,153.469C276.519,153.231 282.815,153.148 289.1,152.993C295.384,152.838 301.669,152.791 307.953,152.803C301.669,153.041 295.384,153.124 289.1,153.291C282.815,153.457 276.531,153.469 270.234,153.469Z" fill="#8891EE"/>
<path d="M310.798,153.801C310.513,153.063 310.215,152.302 309.941,151.516L309.941,151.373L310.084,151.373L312.667,151.23L312.786,151.23L312.786,151.338L313.512,153.718L313.512,153.873L313.357,153.873C312.429,153.849 311.56,153.825 310.798,153.801ZM310.798,153.801C311.691,153.73 312.536,153.659 313.381,153.623L313.262,153.766L312.489,151.385L312.631,151.48C311.774,151.48 310.917,151.48 310.049,151.552L310.156,151.409C310.322,152.195 310.513,152.98 310.798,153.801Z" fill="#8891EE"/>
<path d="M312.25,152.862C311.947,152.64 311.657,152.402 311.381,152.148L311.571,152.148C311.311,152.965 310.947,153.745 310.488,154.469C310.684,153.644 310.976,152.845 311.357,152.089L311.44,151.922L311.548,152.053C311.798,152.279 311.988,152.553 312.25,152.862Z" fill="#01008A"/>
<path d="M268.283,148.17C274.568,147.932 280.864,147.861 287.149,147.694C293.433,147.528 299.718,147.516 306.038,147.516C299.753,147.754 293.469,147.837 287.184,147.992C280.9,148.146 274.58,148.194 268.283,148.17Z" fill="#8891EE"/>
<path d="M308.787,148.551C308.501,147.825 308.203,147.063 307.93,146.266L307.93,146.135L308.073,146.135L310.655,145.992L310.774,145.992L310.774,146.111L311.5,148.492L311.5,148.646L311.346,148.646C310.489,148.611 309.608,148.587 308.787,148.551ZM308.787,148.551L311.37,148.373L311.25,148.527L310.477,146.147L310.62,146.254C309.763,146.254 308.906,146.254 308.037,146.325L308.144,146.183C308.418,146.956 308.561,147.742 308.787,148.551Z" fill="#8891EE"/>
<path d="M310.299,147.612C309.994,147.398 309.703,147.163 309.43,146.91L309.62,146.91C309.357,147.726 308.993,148.505 308.537,149.231C308.731,148.405 309.023,147.606 309.406,146.85L309.489,146.684L309.596,146.815C309.846,147.017 310.073,147.314 310.299,147.612Z" fill="#01008A"/>
<path d="M266.33,142.935C272.615,142.697 278.911,142.625 285.195,142.459C291.48,142.292 297.764,142.256 304.049,142.28C297.764,142.518 291.48,142.59 285.195,142.756C278.911,142.923 272.626,142.959 266.33,142.935Z" fill="#8891EE"/>
<path d="M306.835,143.313C306.55,142.587 306.252,141.813 305.979,141.028L305.979,140.897L306.038,140.897C306.907,140.825 307.764,140.802 308.621,140.754L308.74,140.754L308.74,140.861L309.466,143.242L309.466,143.396L309.311,143.396C308.526,143.372 307.657,143.337 306.835,143.313ZM306.835,143.313C307.728,143.242 308.573,143.17 309.418,143.134L309.299,143.289L308.526,140.909L308.668,141.016C307.811,141.016 306.955,141.075 306.086,141.075L306.193,140.932C306.419,141.718 306.609,142.492 306.835,143.313Z" fill="#8891EE"/>
<path d="M308.348,142.373C308.045,142.151 307.755,141.913 307.479,141.659L307.669,141.659C307.41,142.495 307.046,143.295 306.586,144.039C306.78,143.214 307.071,142.415 307.455,141.659L307.538,141.492L307.645,141.623C307.895,141.778 308.121,142.075 308.348,142.373Z" fill="#01008A"/>
<path d="M263.879,137.696C270.163,137.458 276.448,137.374 282.732,137.22C289.017,137.065 295.313,137.017 301.598,137.029C295.313,137.267 289.029,137.35 282.744,137.517C276.46,137.684 270.175,137.708 263.879,137.696Z" fill="#8891EE"/>
<path d="M304.382,138.075C304.097,137.337 303.799,136.575 303.525,135.79L303.525,135.647L303.656,135.647C304.513,135.587 305.382,135.552 306.239,135.504L306.346,135.504L306.346,135.611L307.072,137.992L307.072,138.134L306.918,138.134C306.037,138.122 305.204,138.099 304.382,138.075ZM304.382,138.075C305.275,138.003 306.12,137.932 306.953,137.896L306.846,138.039L306.061,135.659L306.215,135.754C305.358,135.754 304.489,135.825 303.633,135.825L303.728,135.682C303.954,136.468 304.156,137.254 304.382,138.075Z" fill="#8891EE"/>
<path d="M305.894,137.136C305.592,136.914 305.302,136.675 305.025,136.421L305.216,136.421C304.945,137.234 304.582,138.013 304.133,138.742C304.328,137.918 304.62,137.119 305.002,136.362L305.085,136.195L305.192,136.326C305.442,136.54 305.668,136.802 305.894,137.136Z" fill="#01008A"/>
<path d="M261.141,132.446C267.425,132.208 273.71,132.137 279.994,131.97C286.279,131.804 292.563,131.78 298.859,131.792C292.575,132.03 286.279,132.113 279.994,132.268C273.71,132.423 267.425,132.47 261.141,132.446Z" fill="#8891EE"/>
<path d="M301.634,132.829C301.361,132.103 301.051,131.341 300.777,130.543L300.777,130.412L300.932,130.412C301.789,130.353 302.646,130.317 303.503,130.27L303.622,130.27L303.622,130.389L304.336,132.769L304.336,132.924L304.181,132.924C303.336,132.888 302.467,132.864 301.634,132.829ZM301.634,132.829L304.217,132.65L304.11,132.805L303.324,130.424L303.467,130.531C302.61,130.531 301.753,130.591 300.884,130.603L300.992,130.46C301.277,131.234 301.42,132.043 301.634,132.829Z" fill="#8891EE"/>
<path d="M303.144,131.901C302.851,131.679 302.565,131.441 302.287,131.187L302.478,131.187C302.208,132.002 301.84,132.782 301.383,133.508C301.577,132.683 301.868,131.884 302.252,131.128L302.335,130.961L302.454,131.092C302.698,131.35 302.928,131.62 303.144,131.901L303.144,131.901Z" fill="#01008A"/>
<path d="M257.605,126.939C263.89,126.701 270.174,126.629 276.471,126.463C282.767,126.296 289.04,126.26 295.324,126.284C289.04,126.522 282.755,126.593 276.471,126.76C270.186,126.927 263.902,126.962 257.605,126.939Z" fill="#8891EE"/>
<path d="M298.111,127.282C297.825,126.556 297.528,125.782 297.254,124.996L297.254,124.865L297.397,124.865C298.254,124.794 299.123,124.77 299.98,124.723L300.099,124.723L300.099,124.83L300.825,127.21L300.825,127.365L300.67,127.365C299.801,127.377 298.896,127.341 298.111,127.282ZM298.111,127.282C299.004,127.21 299.849,127.139 300.682,127.103L300.575,127.258L299.801,124.877L299.944,124.973C299.087,124.973 298.218,125.044 297.361,125.044L297.468,124.901C297.706,125.722 297.885,126.496 298.111,127.282Z" fill="#8891EE"/>
<path d="M299.623,126.378C299.32,126.156 299.03,125.917 298.754,125.664L298.944,125.664C298.684,126.48 298.32,127.26 297.861,127.985C298.054,127.159 298.346,126.36 298.73,125.604L298.814,125.438L298.921,125.568C299.169,125.826 299.403,126.096 299.623,126.378L299.623,126.378Z" fill="#01008A"/>
<path d="M253.441,121.427C259.726,121.189 266.01,121.106 272.295,120.939C278.579,120.772 284.876,120.749 291.16,120.76C284.876,120.998 278.591,121.082 272.307,121.237C266.022,121.391 259.726,121.439 253.441,121.427Z" fill="#8891EE"/>
<path d="M293.945,121.797C293.659,121.071 293.362,120.309 293.088,119.524L293.088,119.381L293.231,119.381C294.088,119.381 294.957,119.286 295.814,119.238L295.921,119.238L295.921,119.345L296.647,121.726L296.647,121.881L296.516,121.881C295.635,121.857 294.766,121.833 293.945,121.797ZM293.945,121.797C294.838,121.797 295.683,121.666 296.516,121.631L296.409,121.773L295.623,119.393L295.778,119.5L293.195,119.572L293.29,119.429C293.516,120.202 293.719,120.988 293.945,121.797Z" fill="#8891EE"/>
<path d="M295.445,120.869C295.151,120.639 294.866,120.401 294.588,120.155L294.778,120.155C294.512,120.988 294.149,121.787 293.695,122.535C293.891,121.711 294.182,120.912 294.564,120.155L294.647,119.988L294.755,120.119C294.998,120.357 295.228,120.607 295.445,120.869L295.445,120.869Z" fill="#01008A"/>
<path d="M246.979,115.9C253.263,115.662 259.547,115.59 265.832,115.423C272.117,115.257 278.413,115.221 284.697,115.245C278.413,115.483 272.128,115.554 265.844,115.721C259.559,115.888 253.263,115.923 246.979,115.9Z" fill="#8891EE"/>
<path d="M287.482,116.282C287.196,115.556 286.899,114.794 286.625,113.996L286.625,113.865L286.768,113.865C287.625,113.806 288.494,113.77 289.351,113.723L289.374,113.723L289.374,113.83L290.101,116.21L290.101,116.365L289.946,116.365C289.172,116.341 288.303,116.305 287.482,116.282ZM287.482,116.282C288.375,116.21 289.22,116.139 290.053,116.103L289.946,116.258L289.16,113.877L289.315,113.985L286.732,114.056L286.827,113.901C287.053,114.687 287.256,115.46 287.482,116.282Z" fill="#8891EE"/>
<path d="M288.98,115.381C288.687,115.159 288.401,114.921 288.123,114.667L288.314,114.667C288.044,115.499 287.681,116.297 287.23,117.047C287.424,116.222 287.716,115.423 288.099,114.667L288.183,114.5L288.29,114.631C288.533,114.868 288.763,115.119 288.98,115.381L288.98,115.381Z" fill="#01008A"/>
<path d="M231.326,113.092L284.887,112.164C277.853,112.283 270.866,116.556 266.32,122.876C254.703,139.028 244.764,189.197 244.288,219.976C244.121,230.486 248.347,248.697 252.834,267.979C258.785,293.379 265.415,322.158 264.165,341.678C263.225,356.378 258.857,374.018 254.239,392.68C250.227,408.832 246.097,425.544 243.752,441.898C240.979,461.322 243.348,484.306 248.609,489.162C249.998,490.538 251.646,491.626 253.458,492.362C255.271,493.096 257.211,493.466 259.166,493.446L205.605,494.388C203.652,494.404 201.714,494.034 199.904,493.298C198.094,492.562 196.448,491.476 195.06,490.102C189.787,485.246 187.418,462.262 190.192,442.826C192.572,426.484 196.678,409.772 200.678,393.62C205.296,374.946 209.664,357.318 210.616,342.62C211.806,323.1 205.177,294.307 199.273,268.907C194.786,249.637 190.561,231.415 190.727,220.917C191.203,190.137 201.142,139.98 212.759,123.805C217.305,117.484 224.292,113.223 231.326,113.092Z" fill="#D9DCFF"/>
<path d="M287.565,429.971L341.126,429.043C329.616,429.245 316.131,444.314 301.848,460.275C287.279,476.534 272.33,493.233 259.202,493.459L205.641,494.399C218.733,494.161 233.718,477.474 248.287,461.203C262.558,445.254 276.055,430.174 287.565,429.971Z" fill="#BDC3FF"/>
<path d="M220.697,491.497C226.982,491.259 233.266,491.176 239.551,491.009C245.835,490.843 252.12,490.807 258.404,490.831C252.12,491.069 245.835,491.14 239.551,491.307C233.266,491.474 226.982,491.497 220.697,491.497Z" fill="#8891EE"/>
<path d="M260,491.901C260.309,491.151 260.607,490.342 260.952,489.52L260.952,489.461L261.024,489.461C261.952,489.461 262.88,489.461 263.809,489.461L264.047,489.461L263.94,489.675L262.821,492.056L262.821,492.127L262.738,492.127L260,491.901ZM260,491.901L262.761,491.901L262.654,491.972L263.714,489.592L263.844,489.806C262.916,489.806 261.988,489.806 261.059,489.806L261.166,489.747L260,491.901Z" fill="#8891EE"/>
<path d="M262.476,490.867C262.333,490.658 262.206,490.439 262.095,490.212L262.285,490.212C261.592,491.01 260.827,491.743 260,492.402C260.629,491.543 261.338,490.746 262.119,490.022L262.261,489.891L262.261,490.069C262.356,490.328 262.428,490.595 262.476,490.867L262.476,490.867Z" fill="#01008A"/>
<path d="M226.529,487.103C232.814,486.865 239.098,486.782 245.383,486.615C251.667,486.448 257.952,486.413 264.248,486.436C257.964,486.674 251.679,486.746 245.395,486.912C239.11,487.079 232.814,487.115 226.529,487.103Z" fill="#8891EE"/>
<path d="M265.844,487.471C266.141,486.721 266.439,485.912 266.796,485.091L266.796,485.031L266.867,485.031C267.796,485.031 268.724,485.031 269.653,485.031L269.891,485.031L269.795,485.245L268.677,487.626L268.677,487.697L268.605,487.697L265.844,487.471ZM265.844,487.471L268.593,487.471L268.486,487.543L269.545,485.162L269.676,485.376C268.748,485.376 267.82,485.376 266.891,485.376L266.998,485.317L265.844,487.471Z" fill="#8891EE"/>
<path d="M268.308,486.437C268.169,486.226 268.042,486.007 267.927,485.782L268.129,485.782C267.436,486.581 266.671,487.314 265.844,487.972C266.468,487.113 267.174,486.316 267.95,485.592L268.093,485.461L268.093,485.639C268.188,485.899 268.259,486.165 268.308,486.437Z" fill="#01008A"/>
<path d="M232.361,482.677C238.646,482.439 244.93,482.356 251.215,482.189C257.499,482.022 263.796,481.987 270.08,482.011C263.796,482.249 257.511,482.32 251.227,482.487C244.942,482.653 238.658,482.689 232.361,482.677Z" fill="#8891EE"/>
<path d="M271.676,483.045C271.985,482.296 272.271,481.486 272.628,480.665L272.628,480.605L272.711,480.605C273.64,480.605 274.568,480.605 275.496,480.605L275.735,480.605L275.627,480.82L274.509,483.2L274.509,483.272L274.437,483.272L271.676,483.045ZM271.676,483.045L274.425,483.045L274.318,483.117L275.377,480.736L275.52,480.951C274.592,480.951 273.663,480.951 272.735,480.951L272.83,480.891L271.676,483.045Z" fill="#8891EE"/>
<path d="M237.563,478.247C243.835,478.009 250.131,477.926 256.416,477.759C262.7,477.593 268.985,477.557 275.269,477.581C268.985,477.819 262.7,477.89 256.416,478.057C250.131,478.224 243.847,478.259 237.563,478.247Z" fill="#8891EE"/>
<path d="M276.865,478.62C277.175,477.87 277.472,477.06 277.817,476.239L277.817,476.18L277.889,476.18C278.817,476.18 279.746,476.18 280.674,476.18L280.912,476.18L280.805,476.394L279.686,478.774L279.686,478.846L279.603,478.846L276.865,478.62ZM276.865,478.62L279.627,478.62L279.519,478.691L280.579,476.311L280.71,476.525C279.781,476.525 278.853,476.525 277.925,476.525L278.02,476.465L276.865,478.62Z" fill="#8891EE"/>
<path d="M242.301,473.821C248.585,473.583 254.882,473.5 261.166,473.333C267.451,473.167 273.735,473.131 280.02,473.143C273.735,473.393 267.451,473.464 261.166,473.631C254.882,473.797 248.597,473.833 242.301,473.821Z" fill="#8891EE"/>
<path d="M281.613,474.19C281.923,473.44 282.22,472.631 282.565,471.809L282.565,471.75L282.649,471.75C283.577,471.75 284.506,471.75 285.434,471.75L285.672,471.75L285.565,471.964L284.446,474.345L284.446,474.416L284.375,474.416L281.613,474.19ZM281.613,474.19L284.375,474.19L284.268,474.261L285.327,471.881L285.458,472.095C284.529,472.095 283.601,472.095 282.673,472.095L282.768,472.036L281.613,474.19Z" fill="#8891EE"/>
<path d="M246.18,469.391C252.464,469.153 258.749,469.07 265.033,468.903C271.318,468.737 277.614,468.701 283.898,468.713C277.614,468.963 271.329,469.034 265.045,469.201C258.761,469.368 252.476,469.403 246.18,469.391Z" fill="#8891EE"/>
<path d="M285.494,469.76C285.804,469.01 286.089,468.201 286.446,467.38L286.446,467.32L286.53,467.32C287.458,467.32 288.386,467.32 289.315,467.32L289.553,467.32L289.446,467.523L288.327,469.903L288.327,469.975L288.256,469.975L285.494,469.76ZM285.494,469.76L288.244,469.76L288.136,469.832L289.196,467.451L289.339,467.665C288.41,467.665 287.482,467.665 286.553,467.665L286.649,467.606L285.494,469.76Z" fill="#8891EE"/>
<path d="M250.549,464.966C256.833,464.728 263.118,464.644 269.402,464.478C275.687,464.311 281.983,464.275 288.268,464.287C281.983,464.537 275.699,464.609 269.414,464.775C263.13,464.942 256.845,464.978 250.549,464.966Z" fill="#8891EE"/>
<path d="M289.861,465.31C290.171,464.56 290.456,463.751 290.814,462.93L290.897,462.93C291.825,462.93 292.754,462.93 293.682,462.93L293.92,462.93L293.813,463.132L292.694,465.513L292.694,465.584L292.623,465.584L289.861,465.31ZM289.861,465.31L292.611,465.31L292.504,465.382L293.563,463.001L293.706,463.215C292.777,463.215 291.849,463.215 290.921,463.215L291.016,463.156L289.861,465.31Z" fill="#8891EE"/>
<path d="M254.619,460.552C260.904,460.314 267.188,460.23 273.473,460.064C279.757,459.897 286.054,459.861 292.338,459.873C286.054,460.123 279.769,460.195 273.485,460.361C267.2,460.528 260.904,460.552 254.619,460.552Z" fill="#8891EE"/>
<path d="M293.934,460.905C294.231,460.155 294.529,459.346 294.886,458.524L294.886,458.465L294.957,458.465C295.886,458.465 296.826,458.465 297.754,458.465L297.98,458.465L297.885,458.667L296.766,461.048L296.766,461.119L296.695,461.119L293.934,460.905ZM293.934,460.905L296.683,460.905L296.576,460.976L297.635,458.596L297.778,458.81C296.838,458.81 295.909,458.81 294.981,458.81L295.088,458.75L293.934,460.905Z" fill="#8891EE"/>
<path d="M258.428,456.11C264.7,455.872 270.997,455.789 277.281,455.622C283.566,455.456 289.85,455.42 296.135,455.432C289.85,455.682 283.566,455.753 277.281,455.92C270.997,456.086 264.7,456.122 258.428,456.11Z" fill="#8891EE"/>
<path d="M297.707,456.478C298.016,455.728 298.314,454.919 298.659,454.098L298.731,454.098C299.659,454.098 300.587,454.098 301.516,454.098L301.754,454.098L301.647,454.3L300.528,456.68L300.528,456.752L300.445,456.752L297.707,456.478ZM297.707,456.478L300.468,456.478L300.361,456.478L301.421,454.098L301.552,454.312C300.623,454.312 299.695,454.312 298.766,454.312L298.862,454.252L297.707,456.478Z" fill="#8891EE"/>
<path d="M262.605,451.684C268.89,451.446 275.174,451.363 281.459,451.196C287.743,451.03 294.028,450.994 300.324,451.006C294.04,451.256 287.743,451.327 281.459,451.494C275.174,451.661 268.89,451.696 262.605,451.684Z" fill="#8891EE"/>
<path d="M301.906,452.053C302.216,451.304 302.513,450.494 302.858,449.673L302.858,449.602L302.93,449.602C303.858,449.602 304.787,449.602 305.715,449.602L305.953,449.602L305.858,449.804L304.739,452.184L304.739,452.256L304.656,452.256L301.906,452.053ZM301.906,452.053L304.668,452.053L304.561,452.113L305.62,449.733L305.751,449.947C304.822,449.947 303.894,449.947 302.966,449.947L303.073,449.887L301.906,452.053Z" fill="#8891EE"/>
<path d="M266.07,447.255C272.355,447.017 278.639,446.933 284.924,446.767C291.208,446.6 297.505,446.564 303.789,446.576C297.505,446.826 291.22,446.898 284.936,447.064C278.651,447.231 272.367,447.267 266.07,447.255Z" fill="#8891EE"/>
<path d="M305.383,447.612C305.692,446.874 305.978,446.065 306.335,445.232L306.335,445.16L306.418,445.16C307.347,445.16 308.275,445.16 309.203,445.16L309.442,445.16L309.334,445.362L308.216,447.743L308.216,447.814L308.144,447.814L305.383,447.612ZM305.383,447.612L308.132,447.612L308.025,447.612L309.084,445.232L309.227,445.446C308.299,445.446 307.371,445.446 306.442,445.446L306.537,445.446L305.383,447.612Z" fill="#8891EE"/>
<path d="M270.33,442.829C276.615,442.591 282.911,442.508 289.195,442.341C295.48,442.174 301.764,442.139 308.049,442.151C301.764,442.4 295.48,442.472 289.195,442.639C282.911,442.805 276.65,442.841 270.33,442.829Z" fill="#8891EE"/>
<path d="M309.668,443.186C309.977,442.448 310.275,441.639 310.62,440.806L310.62,440.734L310.692,440.734C311.62,440.734 312.548,440.734 313.477,440.734L313.715,440.734L313.608,440.937L312.489,443.317L312.489,443.389L312.417,443.389L309.668,443.186ZM309.668,443.186L312.429,443.186L312.322,443.246L313.382,440.865L313.512,441.08C312.584,441.08 311.656,441.08 310.727,441.08L310.823,441.02L309.668,443.186Z" fill="#8891EE"/>
<path d="M275.52,438.399C281.804,438.161 288.089,438.078 294.373,437.911C300.658,437.745 306.942,437.709 313.238,437.721C306.954,437.971 300.658,438.042 294.373,438.209C288.089,438.375 281.804,438.411 275.52,438.399Z" fill="#8891EE"/>
<path d="M314.822,438.757C315.132,438.019 315.429,437.209 315.774,436.376L315.774,436.305L315.846,436.305C316.774,436.305 317.703,436.305 318.631,436.305L318.869,436.305L318.774,436.507L317.655,438.887L317.655,438.959L317.572,438.959L314.822,438.757ZM314.822,438.757L317.584,438.757L317.476,438.757L318.536,436.376L318.667,436.59C317.738,436.59 316.81,436.59 315.882,436.59L315.989,436.59L314.822,438.757Z" fill="#8891EE"/>
<path d="M280.34,433.97C286.624,433.732 292.909,433.648 299.193,433.482C305.478,433.315 311.762,433.279 318.047,433.291C311.774,433.541 305.478,433.613 299.193,433.779C292.909,433.946 286.624,433.982 280.34,433.97Z" fill="#8891EE"/>
<path d="M319.643,434.366C319.952,433.628 320.25,432.819 320.595,431.985L320.595,431.914L320.666,431.914C321.595,431.914 322.523,431.914 323.451,431.914L323.689,431.914L323.594,432.128L322.475,434.509L322.475,434.58L322.392,434.58L319.643,434.366ZM319.643,434.366L322.404,434.366L322.297,434.425L323.356,432.045L323.487,432.259C322.559,432.259 321.63,432.259 320.702,432.259L320.809,432.2L319.643,434.366Z" fill="#8891EE"/>
<path d="M287.541,429.998L341.102,429.07C356.349,428.796 365.859,446.078 375.06,462.777C383.129,477.429 390.759,491.284 401.435,491.093L347.874,492.034C337.162,492.212 329.569,478.37 321.499,463.718C312.298,447.007 302.788,429.736 287.541,429.998Z" fill="#DEE1FF"/>
<path d="M394.235,479.214L447.796,478.273C436.143,478.476 429.085,481.844 422.265,485.141C416.064,488.129 410.196,490.938 401.459,491.092L347.898,492.033C356.647,491.878 362.503,489.069 368.704,486.081C375.524,482.808 382.582,479.416 394.235,479.214Z" fill="#BDC3FF"/>
<path d="M366.738,489.603C372.225,489.365 377.724,489.282 383.211,489.115C388.698,488.948 394.197,488.913 399.696,488.936C394.209,489.174 388.71,489.246 383.223,489.412C377.736,489.579 372.225,489.615 366.738,489.603Z" fill="#8891EE"/>
<path d="M401.258,489.971C401.555,489.221 401.853,488.412 402.21,487.591L402.21,487.531L402.281,487.531C403.21,487.531 404.138,487.531 405.067,487.531L405.305,487.531L405.209,487.745L404.091,490.126L404.091,490.197L404.019,490.197L401.258,489.971ZM401.258,489.971L404.007,489.971L403.9,490.043L404.959,487.662L405.09,487.876C404.162,487.876 403.234,487.876 402.305,487.876L402.412,487.817L401.258,489.971Z" fill="#8891EE"/>
<path d="M375.453,486.009C381.142,485.77 386.832,485.699 392.521,485.532C398.211,485.366 403.9,485.33 409.601,485.342C403.912,485.58 398.211,485.663 392.521,485.83C386.832,485.997 381.142,486.032 375.453,486.009Z" fill="#8891EE"/>
<path d="M411.184,486.378C411.493,485.64 411.791,484.83 412.136,483.997L412.136,483.926L412.207,483.926C413.136,483.926 414.064,483.926 414.992,483.926L415.23,483.926L415.135,484.14L414.016,486.521L414.016,486.604L413.933,486.604L411.184,486.378ZM411.184,486.378L413.945,486.378L413.838,486.437L414.897,484.057L415.028,484.259L412.243,484.259L412.35,484.188L411.184,486.378Z" fill="#8891EE"/>
<path d="M385.129,482.677C390.818,482.439 396.508,482.356 402.197,482.189C407.886,482.022 413.576,481.987 419.277,482.011C413.588,482.249 407.898,482.32 402.209,482.487C396.52,482.653 390.818,482.689 385.129,482.677Z" fill="#8891EE"/>
<path d="M420.871,483.045C421.169,482.296 421.466,481.486 421.823,480.665L421.823,480.605L421.895,480.605C422.823,480.605 423.751,480.605 424.68,480.605L424.918,480.605L424.823,480.82L423.704,483.2L423.704,483.272L423.632,483.272L420.871,483.045ZM420.871,483.045L423.621,483.045L423.513,483.117L424.573,480.736L424.704,480.951C423.775,480.951 422.847,480.951 421.918,480.951L422.026,480.891L420.871,483.045Z" fill="#8891EE"/>
<path d="M394.223,479.214L447.784,478.274C453.425,478.179 482.122,490.998 483.336,491.545L429.775,492.474C428.561,491.926 399.876,479.119 394.223,479.214Z" fill="#DEE1FF"/>
<path d="M251.609,69.834C251.094,74.797 249.209,79.519 246.165,83.472C243.121,87.425 239.038,90.454 234.372,92.221C229.706,93.988 224.641,94.423 219.742,93.478C214.843,92.532 210.303,90.243 206.63,86.867L193.156,88.843L199.893,77.202C198.351,73.412 197.692,69.321 197.968,65.239C198.243,61.156 199.446,57.19 201.484,53.642C203.522,50.095 206.341,47.058 209.729,44.763C213.116,42.468 216.982,40.975 221.033,40.398C225.083,39.821 229.212,40.175 233.106,41.432C236.999,42.69 240.555,44.819 243.502,47.656C246.45,50.494 248.712,53.966 250.117,57.809C251.522,61.652 252.032,65.765 251.609,69.834L251.609,69.834Z" fill="#FFFFFF"/>
<path d="M251.609,69.838C251.08,74.801 249.199,79.524 246.169,83.49C245.433,84.474 244.638,85.412 243.789,86.299C242.893,87.153 241.943,87.948 240.944,88.68C238.96,90.168 236.776,91.37 234.457,92.25C232.132,93.156 229.693,93.737 227.209,93.976C225.966,94.089 224.717,94.113 223.471,94.048C222.221,94.016 220.976,93.889 219.746,93.667C214.78,92.754 210.168,90.475 206.427,87.085L206.736,87.18L193.287,89.251L192.311,89.394L192.799,88.537L199.5,76.873L199.5,77.337C197.915,73.478 197.24,69.307 197.527,65.146C197.814,60.985 199.055,56.946 201.154,53.341C203.252,49.751 206.132,46.679 209.581,44.355C213.874,41.502 218.889,39.928 224.042,39.815C229.195,39.703 234.274,41.057 238.687,43.72C243.1,46.383 246.666,50.245 248.968,54.857C251.271,59.468 252.215,64.639 251.692,69.767L251.609,69.838ZM251.609,69.838C252.039,65.784 251.532,61.686 250.128,57.858C248.724,54.031 246.46,50.577 243.51,47.763C240.561,44.949 237.004,42.85 233.115,41.628C229.226,40.405 225.108,40.092 221.079,40.713C217.078,41.32 213.27,42.839 209.95,45.153C206.666,47.466 203.921,50.462 201.904,53.937C199.92,57.424 198.753,61.316 198.489,65.319C198.225,69.322 198.872,73.333 200.38,77.051L200.476,77.289L200.345,77.515L193.572,89.132L193.084,88.43L206.57,86.537L206.76,86.537L206.891,86.656C210.487,90.025 214.951,92.325 219.781,93.298C220.986,93.54 222.208,93.688 223.435,93.738C224.66,93.828 225.889,93.828 227.113,93.738C229.555,93.542 231.958,93.009 234.255,92.155C236.58,91.312 238.769,90.133 240.754,88.656C241.747,87.919 242.697,87.124 243.598,86.275C244.448,85.4 245.242,84.474 245.979,83.502C249.083,79.556 251.032,74.826 251.609,69.838L251.609,69.838Z" fill="#263238"/>
<path d="M221.674,82.393L210.176,70.752L214.044,66.944L220.757,73.74L234.707,51.863L239.289,54.779L221.674,82.393Z" fill="#01008A"/>
</svg>
