<svg width="30" height="36" viewBox="0 0 30 36" fill="none" xmlns="http://www.w3.org/2000/svg" xmlns:xlink="http://www.w3.org/1999/xlink">
<path d="M7.903,0.02L19.374,0.02C19.726,0.02 20.063,0.163 20.307,0.417L29.04,9.514C29.271,9.754 29.4,10.075 29.4,10.409L29.4,26.213C29.4,30.521 25.907,34.249 21.678,34.249L7.903,34.249C3.456,34.249 0,30.696 0,26.213L0,7.742C0,3.499 3.615,0.02 7.903,0.02ZM26.813,10.929L18.821,2.605L7.903,2.607C5.022,2.607 2.586,4.951 2.586,7.743L2.586,26.214C2.586,29.285 4.901,31.664 7.903,31.664L21.678,31.664C24.44,31.664 26.814,29.13 26.814,26.214L26.813,10.929Z" clip-rule="evenodd" fill-rule="evenodd" fill="#01008A"/>
<path d="M18.921,0C19.576,0 20.117,0.486 20.202,1.118L20.214,1.293L20.214,6.309C20.214,8.044 21.618,9.452 23.352,9.455L28.014,9.455C28.726,9.408 29.342,9.947 29.389,10.66C29.436,11.372 28.896,11.988 28.184,12.035L25.303,12.045C24.728,12.044 24.073,12.043 23.346,12.041C20.295,12.035 17.805,9.644 17.637,6.633L17.628,6.309L17.628,1.293C17.628,0.579 18.207,0 18.921,0Z" fill="#01008A"/>
<path d="M18.593,22.082C19.308,22.082 19.886,22.661 19.886,23.375C19.886,24.03 19.4,24.571 18.769,24.656L18.593,24.668L9.288,24.668C8.574,24.668 7.995,24.089 7.995,23.375C7.995,22.72 8.482,22.179 9.113,22.094L9.288,22.082L18.593,22.082Z" fill="#9999D0"/>
<path d="M15.073,13.543C15.788,13.543 16.367,14.122 16.367,14.836C16.367,15.491 15.88,16.032 15.249,16.117L15.073,16.129L9.287,16.129C8.573,16.129 7.994,15.55 7.994,14.836C7.994,14.181 8.481,13.64 9.112,13.555L9.287,13.543L15.073,13.543Z" fill="#9999D0"/>
</svg>
