<svg width="712" height="608" viewBox="0 0 712 608" fill="none" xmlns="http://www.w3.org/2000/svg" xmlns:xlink="http://www.w3.org/1999/xlink">
<path d="M702.897,590.054C702.897,599.231 560.995,606.692 385.957,606.692C210.919,606.692 69.017,599.247 69.017,590.054C69.017,580.877 210.919,573.417 385.957,573.417C560.995,573.432 702.897,580.877 702.897,590.054Z" fill="#E9E8FF"/>
<path d="M324.934,151.205C301.194,65.098 194.237,37.364 132.931,101.713C132.057,102.634 131.168,103.571 130.294,104.538C42.408,200.071 83.924,435.478 267.327,495.144C450.73,554.812 641.498,445.856 652.222,348.45C662.944,251.045 578.32,220.439 447.014,247.674C372.832,263.063 339.714,204.8 324.934,151.205Z" fill="#E6E5FF"/>
<path d="M535.009,485.593C513.392,497.861 514.563,520.617 537.677,528.498C545.325,531.105 555.173,531.963 567.862,529.528C616.167,520.226 632.867,491.134 604.945,471.781C587.73,459.841 556.438,473.435 535.009,485.593Z" fill="#EAEAFF"/>
<path d="M608.534,444.296C601.573,454.129 606.989,465.803 618.944,466.256C622.893,466.396 627.466,465.288 632.57,462.01C652.032,449.493 653.187,431.67 636.628,426.004C626.405,422.492 615.433,434.557 608.534,444.296Z" fill="#D3E8EE"/>
<path d="M454.725,69.967L456.66,60.135L447.452,58.324C447.452,55.905 447.03,53.486 446.234,51.129L453.819,46.026L448.232,37.707L440.974,42.592C438.805,40.392 436.277,38.706 433.514,37.582L435.325,28.374L425.492,26.438L423.635,35.928C421.621,36.037 419.608,36.427 417.657,37.098L412.553,29.513L404.235,35.101L409.12,42.358C406.919,44.527 405.234,47.056 404.11,49.818L396.056,48.242L394.121,58.075L402.455,59.713C402.596,62.289 403.173,64.848 404.219,67.299L396.962,72.184L402.549,80.502L410.134,75.399C412.304,77.303 414.801,78.723 417.454,79.66L415.628,88.931L425.461,90.866L427.427,80.815C429.581,80.581 431.735,80.019 433.795,79.129L438.68,86.386L446.999,80.799L441.895,73.214C443.253,71.653 444.361,69.936 445.235,68.11L454.725,69.967ZM430.049,66.034C425.851,68.859 420.139,67.736 417.314,63.537C414.489,59.339 415.612,53.627 419.811,50.802C424.009,47.977 429.722,49.1 432.546,53.299C435.371,57.497 434.248,63.209 430.049,66.034Z" fill="#EAEAFF"/>
<path d="M385.021,23.786L386.083,18.417L381.057,17.433C381.057,16.107 380.823,14.78 380.386,13.5L384.538,10.722L381.478,6.18L377.514,8.849C376.328,7.647 374.939,6.727 373.441,6.102L374.424,1.077L369.055,0L368.04,5.181C366.932,5.244 365.84,5.447 364.778,5.821L362,1.67L357.459,4.729L360.127,8.693C358.926,9.879 358.005,11.268 357.381,12.767L352.979,11.908L351.918,17.277L356.475,18.167C356.553,19.571 356.866,20.976 357.443,22.318L353.479,24.987L356.538,29.529L360.689,26.751C361.876,27.781 363.233,28.561 364.685,29.076L363.655,34.133L369.024,35.195L370.101,29.701C371.287,29.576 372.457,29.264 373.581,28.78L376.25,32.744L380.792,29.685L378.014,25.534C378.763,24.675 379.371,23.739 379.84,22.755L385.021,23.786ZM371.537,21.632C369.242,23.177 366.121,22.568 364.576,20.258C363.03,17.964 363.639,14.842 365.949,13.297C368.243,11.752 371.365,12.361 372.91,14.671C374.44,16.965 373.831,20.087 371.537,21.632Z" fill="#EAEAFF"/>
<path d="M140.25,506.055L139.923,496.051L130.542,496.363C129.996,494.006 129.044,491.743 127.733,489.62L133.976,482.94L126.656,476.089L120.679,482.472C118.072,480.818 115.216,479.741 112.282,479.257L111.97,469.877L101.965,470.205L102.293,479.866C100.358,480.428 98.485,481.255 96.721,482.347L90.041,476.104L83.19,483.424L89.573,489.402C87.919,492.008 86.842,494.865 86.358,497.799L78.164,498.064L78.492,508.068L86.982,507.787C87.7,510.269 88.84,512.626 90.416,514.78L84.438,521.163L91.758,528.015L98.001,521.335C100.545,522.693 103.292,523.52 106.086,523.832L106.398,533.274L116.402,532.947L116.059,522.724C118.103,522.006 120.07,520.976 121.88,519.665L128.264,525.642L135.115,518.322L128.435,512.079C129.403,510.253 130.105,508.334 130.542,506.367L140.25,506.055ZM115.31,507.772C111.845,511.471 106.023,511.658 102.34,508.209C98.641,504.744 98.454,498.922 101.903,495.239C105.368,491.54 111.189,491.353 114.873,494.802C118.572,498.251 118.759,504.073 115.31,507.772Z" fill="#EAEAFF"/>
<path d="M261.224,528.327L261.036,522.849L255.917,523.02C255.62,521.725 255.105,520.492 254.387,519.337L257.805,515.685L253.81,511.939L250.548,515.435C249.128,514.53 247.567,513.952 245.959,513.687L245.788,508.568L240.31,508.755L240.481,514.046C239.42,514.358 238.405,514.811 237.438,515.404L233.786,511.986L230.04,515.981L233.536,519.243C232.631,520.664 232.053,522.224 231.788,523.832L227.309,523.972L227.496,529.451L232.131,529.294C232.521,530.652 233.146,531.948 234.004,533.118L230.742,536.614L234.738,540.36L238.156,536.708C239.545,537.457 241.043,537.91 242.573,538.066L242.744,543.216L248.223,543.029L248.035,537.442C249.159,537.051 250.236,536.489 251.219,535.772L254.715,539.033L258.461,535.038L254.809,531.62C255.34,530.621 255.73,529.575 255.964,528.499L261.224,528.327ZM247.598,529.279C245.71,531.292 242.526,531.401 240.512,529.513C238.499,527.625 238.39,524.441 240.278,522.427C242.167,520.414 245.351,520.305 247.364,522.193C249.378,524.066 249.487,527.25 247.598,529.279Z" fill="#EAEAFF"/>
<path d="M287.851,34.789C287.663,34.836 287.46,34.836 287.258,34.789C285.15,34.243 283.918,34.009 283.902,34.009C283.262,33.899 282.841,33.275 282.95,32.635C283.059,31.995 283.683,31.574 284.323,31.683C284.37,31.699 285.634,31.917 287.851,32.51C288.475,32.682 288.849,33.322 288.693,33.946C288.584,34.368 288.256,34.68 287.851,34.789Z" fill="#EAEAFF"/>
<path d="M356.258,88.76C357.35,90.757 358.412,92.833 359.395,94.924C359.645,95.439 360.207,95.705 360.753,95.564C360.831,95.549 360.893,95.518 360.971,95.486C361.564,95.205 361.814,94.503 361.533,93.926C360.519,91.787 359.442,89.68 358.334,87.636C358.022,87.058 357.304,86.855 356.742,87.168C356.149,87.464 355.946,88.182 356.258,88.76Z" fill="#EAEAFF"/>
<path d="M362.157,101.261C363,103.368 363.812,105.553 364.561,107.754C364.764,108.347 365.372,108.674 365.966,108.518C365.997,108.518 366.028,108.503 366.059,108.487C366.668,108.284 367.011,107.613 366.793,106.989C366.028,104.757 365.216,102.525 364.342,100.371C364.093,99.763 363.406,99.482 362.813,99.716C362.22,99.965 361.923,100.652 362.157,101.261Z" fill="#EAEAFF"/>
<path d="M372.147,135.753C372.709,135.613 373.099,135.066 373.021,134.458C372.724,132.117 372.365,129.776 371.959,127.497C371.85,126.857 371.242,126.436 370.602,126.545C369.946,126.654 369.54,127.263 369.65,127.903C370.04,130.15 370.399,132.46 370.695,134.77C370.773,135.41 371.366,135.878 372.006,135.784C372.053,135.769 372.1,135.769 372.147,135.753Z" fill="#EAEAFF"/>
<path d="M367.418,112.92C366.793,113.091 366.419,113.747 366.606,114.371C366.887,115.401 367.168,116.447 367.433,117.477C367.73,118.663 368.026,119.881 368.292,121.082C368.432,121.722 369.072,122.112 369.696,121.972C369.712,121.972 369.712,121.972 369.727,121.972C370.352,121.816 370.726,121.192 370.586,120.567C370.305,119.334 370.008,118.101 369.712,116.9C369.447,115.854 369.166,114.793 368.869,113.731C368.697,113.107 368.057,112.748 367.449,112.904C367.433,112.92 367.433,112.92 367.418,112.92Z" fill="#EAEAFF"/>
<path d="M352.746,82.797C353.027,83.234 353.542,83.437 354.026,83.312C354.151,83.281 354.26,83.234 354.369,83.172C354.916,82.828 355.087,82.095 354.728,81.549C353.48,79.566 352.137,77.6 350.764,75.696C350.389,75.165 349.64,75.056 349.125,75.43C348.595,75.805 348.485,76.554 348.86,77.069C350.202,78.927 351.513,80.846 352.746,82.797Z" fill="#EAEAFF"/>
<path d="M293.875,36.787C296.029,37.52 298.199,38.347 300.353,39.237C300.602,39.331 300.852,39.346 301.086,39.284C301.429,39.19 301.742,38.956 301.882,38.597C302.132,37.988 301.851,37.302 301.242,37.052C299.042,36.147 296.825,35.304 294.625,34.555C294.016,34.352 293.345,34.68 293.126,35.288C292.923,35.913 293.251,36.584 293.875,36.787Z" fill="#EAEAFF"/>
<path d="M312.822,45.261C313.103,45.418 313.399,45.449 313.68,45.371C313.977,45.293 314.258,45.09 314.414,44.809C314.726,44.247 314.523,43.529 313.961,43.201C311.917,42.062 309.81,40.954 307.687,39.939C307.094,39.658 306.392,39.908 306.111,40.486C305.83,41.079 306.08,41.781 306.657,42.062C308.748,43.061 310.809,44.138 312.822,45.261Z" fill="#EAEAFF"/>
<path d="M335.156,61.524C335.469,61.805 335.874,61.899 336.249,61.805C336.467,61.759 336.655,61.634 336.811,61.462C337.248,60.994 337.232,60.245 336.748,59.792C335.047,58.184 333.252,56.624 331.442,55.125C330.942,54.704 330.193,54.782 329.787,55.281C329.366,55.781 329.444,56.53 329.944,56.936C331.738,58.419 333.486,59.964 335.156,61.524Z" fill="#EAEAFF"/>
<path d="M324.481,52.722C324.777,52.94 325.136,52.987 325.464,52.909C325.729,52.847 325.963,52.691 326.119,52.456C326.494,51.926 326.385,51.192 325.854,50.818C323.966,49.444 321.999,48.102 320.017,46.838C319.471,46.494 318.737,46.65 318.394,47.197C318.05,47.743 318.206,48.477 318.753,48.82C320.704,50.053 322.639,51.38 324.481,52.722Z" fill="#EAEAFF"/>
<path d="M344.631,71.607C344.927,71.966 345.396,72.106 345.833,71.997C346.004,71.95 346.16,71.872 346.301,71.763C346.8,71.341 346.878,70.608 346.457,70.108C344.959,68.298 343.382,66.519 341.775,64.802C341.322,64.334 340.589,64.303 340.105,64.755C339.636,65.208 339.605,65.941 340.058,66.425C341.619,68.095 343.164,69.828 344.631,71.607Z" fill="#EAEAFF"/>
<path d="M286.678,26.814L289.05,7.195L226.636,16.731L286.678,26.814Z" fill="#01008A"/>
<path d="M226.622,16.716L284.307,31.808L284.447,31.855L287.35,35.398L286.679,26.814L226.622,16.716Z" fill="#0056C7"/>
<path d="M287.351,35.398L282.169,35.32L284.448,31.855L287.351,35.398Z" fill="#0036AF"/>
<path d="M277.19,29.951L284.447,31.855L272.648,49.756L226.638,16.731L277.19,29.951Z" fill="#01008A"/>
<path d="M571.422,52.644L515.781,52.644L515.781,91.085L571.422,91.085L571.422,52.644Z" fill="#FF3874"/>
<path d="M515.781,52.644L543.594,71.872L571.422,52.644L515.781,52.644Z" fill="#FF8DAF"/>
<path d="M506.776,61.462L488.828,61.462C488.172,61.462 487.642,60.932 487.642,60.276C487.642,59.62 488.172,59.09 488.828,59.09L506.761,59.09C507.416,59.09 507.947,59.62 507.947,60.276C507.947,60.932 507.416,61.462 506.776,61.462Z" fill="#EAEAFF"/>
<path d="M506.775,73.043L488.827,73.043C488.171,73.043 487.641,72.512 487.641,71.857C487.641,71.201 488.171,70.671 488.827,70.671L506.76,70.671C507.415,70.671 507.946,71.201 507.946,71.857C507.946,72.512 507.415,73.043 506.775,73.043Z" fill="#EAEAFF"/>
<path d="M506.775,84.639L488.827,84.639C488.171,84.639 487.641,84.109 487.641,83.453C487.641,82.798 488.171,82.267 488.827,82.267L506.76,82.267C507.415,82.267 507.946,82.798 507.946,83.453C507.946,84.109 507.415,84.639 506.775,84.639Z" fill="#EAEAFF"/>
<path d="M696.076,274.847C676.941,287.036 660.975,272.303 649.753,285.944C638.532,299.584 621.379,302.441 611.983,290.001C602.588,277.562 596.36,267.886 579.598,276.595C562.836,285.304 540.33,277.406 542.78,261.175C543.389,257.132 544.06,252.762 544.715,248.47C544.903,247.3 545.074,246.129 545.246,244.99C545.293,244.724 545.324,244.459 545.371,244.194C548.024,226.947 563.148,214.196 580.566,215.023C587.62,215.367 594.238,217.848 598.467,224.466C611.734,245.146 620.848,221.672 638.017,223.295C657.807,225.168 659.711,244.131 674.538,243.96C695.171,243.71 715.211,262.657 696.076,274.847Z" fill="#8584FF"/>
<path d="M668.669,263.531L544.699,248.486C544.887,247.315 545.058,246.145 545.23,245.005L669.075,260.035C670.042,260.16 670.729,261.034 670.62,262.002C670.511,262.954 669.637,263.656 668.669,263.531Z" fill="#01008A"/>
<path d="M16.826,443.204C33.432,454.41 47.853,441.768 57.436,454.067C67.019,466.365 82.096,469.284 90.665,458.53C99.249,447.777 104.961,439.38 119.554,447.449C134.131,455.518 154.187,449.072 152.392,434.698C151.955,431.124 151.471,427.253 150.987,423.445C150.862,422.415 150.722,421.369 150.597,420.354C150.566,420.12 150.535,419.886 150.504,419.652C148.568,404.388 135.52,392.761 120.131,393.088C113.904,393.229 108.004,395.273 104.118,401.001C91.929,418.934 84.437,398.02 69.251,399.05C51.755,400.236 49.617,416.921 36.554,416.421C18.355,415.75 0.22,432.013 16.826,443.204Z" fill="#8584FF"/>
<path d="M41.266,433.855L150.987,423.46C150.862,422.43 150.721,421.385 150.596,420.37L40.97,430.765C40.111,430.843 39.487,431.607 39.565,432.466C39.643,433.309 40.408,433.933 41.266,433.855Z" fill="#01008A"/>
<path d="M121.395,161.474L117.805,161.552L115.901,161.583L110.501,161.693C110.501,161.693 55.625,80.097 85.186,50.646C94.285,41.578 111.5,47.618 110.126,86.871C108.831,123.252 121.395,161.474 121.395,161.474Z" fill="#8584FF"/>
<path d="M117.79,161.552L115.886,161.583C105.959,141.606 100.263,119.865 97.157,104.538C93.474,86.34 92.553,73.027 92.553,72.902C92.521,72.434 92.88,72.013 93.349,71.981C93.817,71.95 94.238,72.309 94.269,72.777C94.285,72.918 95.19,86.137 98.858,104.226C101.98,119.631 107.739,141.559 117.79,161.552Z" fill="#01008A"/>
<path d="M138.907,165.86L134.568,168.747L132.274,170.277L125.766,174.616C125.766,174.616 -4.79,117.82 8.336,58.855C12.378,40.704 38.083,34.648 66.988,83.609C93.786,129.011 138.907,165.86 138.907,165.86Z" fill="#01008A"/>
<path d="M134.583,168.747L132.289,170.277C104.602,153.655 80.691,131.555 64.959,115.276C46.277,95.954 34.79,80.425 34.68,80.269C34.274,79.707 34.384,78.927 34.946,78.521C35.507,78.115 36.288,78.224 36.694,78.786C36.803,78.942 48.228,94.362 66.785,113.575C82.595,129.932 106.724,152.188 134.583,168.747Z" fill="#8584FF"/>
<path d="M0.969,339.087C7.43,360.828 29.156,360.157 28.687,377.809C28.219,395.461 39.316,408.867 54.564,405.621C69.813,402.39 80.863,399.144 87.808,416.702C94.769,434.261 116.947,443.048 125.719,429.173C127.904,425.723 130.276,421.978 132.586,418.31C133.21,417.311 133.85,416.312 134.459,415.329C134.599,415.095 134.755,414.876 134.896,414.642C144.198,399.878 141.123,380.321 127.42,369.537C121.879,365.167 115.23,362.716 107.708,364.933C84.141,371.862 92.631,348.155 78.584,338.135C62.415,326.585 48.54,339.664 37.459,329.816C22.054,316.159 -5.509,317.346 0.969,339.087Z" fill="#01008A"/>
<path d="M29.078,348.483L132.586,418.326C133.21,417.327 133.85,416.328 134.459,415.345L31.06,345.564C30.248,345.018 29.156,345.236 28.609,346.032C28.063,346.844 28.282,347.952 29.078,348.483Z" fill="#8584FF"/>
<path d="M705.067,156.496C700.166,178.643 678.456,179.517 680.173,197.091C681.89,214.664 671.776,228.82 656.34,226.682C640.904,224.544 629.652,222.094 623.97,240.105C618.289,258.115 596.782,268.448 587.043,255.244C584.609,251.966 581.986,248.392 579.427,244.896C578.725,243.944 578.022,242.992 577.335,242.055C577.179,241.837 577.008,241.618 576.852,241.4C566.535,227.338 568.19,207.61 581.097,195.873C586.325,191.128 592.771,188.194 600.434,189.88C624.439,195.108 614.278,172.072 627.56,161.069C642.871,148.395 657.636,160.444 667.983,149.847C682.405,135.129 709.983,134.349 705.067,156.496Z" fill="#01008A"/>
<path d="M677.693,167.889L579.428,244.943C578.726,243.991 578.024,243.039 577.337,242.102L675.523,165.127C676.288,164.533 677.396,164.658 678.005,165.423C678.614,166.188 678.457,167.28 677.693,167.889Z" fill="#8584FF"/>
<path d="M170.7,193.61C170.7,193.61 172.682,199.666 178.847,199.791C185.028,199.915 178.847,192.127 178.847,192.127C178.847,192.127 183.373,197.652 186.058,196.825C188.758,195.982 180.517,188.491 176.678,188.366C172.87,188.241 170.7,193.61 170.7,193.61Z" fill="#FC5F2D"/>
<path d="M616.525,117.071L616.525,444.827C616.525,450.305 612.077,454.753 606.599,454.753L109.065,454.753C103.587,454.753 99.139,450.305 99.139,444.827L99.139,117.071C99.139,111.593 103.587,107.145 109.065,107.145L606.599,107.145C612.093,107.145 616.525,111.593 616.525,117.071Z" fill="#0C375A"/>
<path d="M602.806,131.118L602.806,430.779C602.806,436.351 598.296,440.863 592.724,440.863L122.925,440.863C121.692,440.863 120.522,440.643 119.429,440.223C115.59,438.817 112.858,435.119 112.858,430.779L112.858,131.118C112.858,125.546 117.369,121.035 122.925,121.035L592.724,121.035C594.066,121.035 595.362,121.301 596.532,121.785C600.216,123.283 602.806,126.904 602.806,131.118Z" fill="#FFFFFF"/>
<path d="M602.806,131.118L602.806,146.038L112.858,146.038L112.858,131.118C112.858,125.546 117.369,121.035 122.941,121.035L592.74,121.035C598.296,121.035 602.806,125.546 602.806,131.118Z" fill="#E6E5FF"/>
<path d="M564.365,133.537C564.365,136.237 562.18,138.438 559.464,138.438C556.764,138.438 554.563,136.253 554.563,133.537C554.563,130.837 556.748,128.636 559.464,128.636C562.18,128.636 564.365,130.821 564.365,133.537Z" fill="#FFAA95"/>
<path d="M546.26,133.537C546.26,136.238 544.075,138.438 541.36,138.438C538.66,138.438 536.459,136.253 536.459,133.537C536.459,130.837 538.644,128.637 541.36,128.637C544.06,128.637 546.26,130.822 546.26,133.537Z" fill="#01008A"/>
<path d="M582.485,133.537C582.485,136.237 580.3,138.438 577.584,138.438C574.884,138.438 572.684,136.253 572.684,133.537C572.684,130.837 574.869,128.636 577.584,128.636C580.284,128.636 582.485,130.821 582.485,133.537Z" fill="#FC5F2D"/>
<path d="M399.691,454.753L322.544,454.753L322.544,564.629L399.691,564.629L399.691,454.753Z" fill="#001030"/>
<path d="M449.4,584.42L282.011,584.42L282.011,582.079C282.011,570.357 291.516,560.837 303.252,560.837L428.159,560.837C439.88,560.837 449.4,570.342 449.4,582.079L449.4,584.42L449.4,584.42Z" fill="#0C375A"/>
<path d="M519.461,460.746L499.297,460.746C496.316,460.746 493.896,458.327 493.896,455.346L493.896,454.753L524.846,454.753L524.846,455.346C524.861,458.327 522.442,460.746 519.461,460.746Z" fill="#001030"/>
<path d="M566.94,460.746L546.775,460.746C543.794,460.746 541.375,458.327 541.375,455.346L541.375,454.753L572.325,454.753L572.325,455.346C572.34,458.327 569.921,460.746 566.94,460.746Z" fill="#001030"/>
<path d="M471.984,460.747L451.819,460.747C448.838,460.747 446.419,458.328 446.419,455.347L446.419,454.753L477.368,454.753L477.368,455.347C477.384,458.328 474.965,460.747 471.984,460.747Z" fill="#001030"/>
<path d="M526.378,201.305C526.378,210.498 518.934,217.943 509.74,217.943L221.222,217.943C212.029,217.943 204.584,210.498 204.584,201.305C204.584,192.113 212.029,184.668 221.222,184.668L509.74,184.668C518.934,184.668 526.378,192.113 526.378,201.305Z" fill="#E6E5FF"/>
<path d="M509.74,184.667L464.01,184.667L464.01,217.958L509.74,217.958C518.932,217.958 526.377,210.513 526.377,201.32C526.377,192.112 518.932,184.667 509.74,184.667Z" fill="#01008A"/>
<path d="M498.112,204.597C494.928,201.663 494.74,196.7 497.675,193.516C500.609,190.348 505.572,190.145 508.756,193.079C511.94,196.013 512.127,200.977 509.193,204.16C506.259,207.329 501.28,207.532 498.112,204.597ZM506.992,194.983C504.87,193.017 501.53,193.157 499.563,195.28C497.596,197.402 497.737,200.742 499.86,202.709C501.982,204.675 505.322,204.535 507.289,202.412C509.255,200.274 509.115,196.934 506.992,194.983Z" fill="#FFFFFF"/>
<path d="M489.45,213.977C488.919,213.493 488.888,212.682 489.372,212.151L498.034,202.771C498.518,202.24 499.329,202.209 499.86,202.693C500.391,203.177 500.422,203.989 499.938,204.519L491.276,213.899C490.792,214.43 489.981,214.461 489.45,213.977Z" fill="#FFFFFF"/>
<path d="M204.584,257.741C204.584,261.612 207.721,264.749 211.592,264.749L519.386,264.749C523.256,264.749 526.394,261.612 526.394,257.741C526.394,253.87 523.256,250.733 519.386,250.733L211.592,250.733C207.721,250.733 204.584,253.87 204.584,257.741Z" fill="#E6E5FF"/>
<path d="M204.583,288.066C204.583,291.936 207.72,295.074 211.591,295.074L519.385,295.074C523.255,295.074 526.393,291.936 526.393,288.066C526.393,284.195 523.255,281.058 519.385,281.058L211.591,281.058C207.72,281.058 204.583,284.195 204.583,288.066Z" fill="#E6E5FF"/>
<path d="M204.583,318.392C204.583,322.262 207.72,325.399 211.591,325.399L519.385,325.399C523.255,325.399 526.393,322.262 526.393,318.392C526.393,314.521 523.255,311.384 519.385,311.384L211.591,311.384C207.72,311.384 204.583,314.521 204.583,318.392Z" fill="#E6E5FF"/>
<path d="M513.906,407.354L485.017,407.354C478.134,407.354 472.547,401.767 472.547,394.884L472.547,365.994C472.547,359.111 478.134,353.524 485.017,353.524L513.906,353.524C520.789,353.524 526.377,359.111 526.377,365.994L526.377,394.884C526.377,401.767 520.789,407.354 513.906,407.354Z" fill="#E6E5FF"/>
<path d="M449.447,407.354L420.558,407.354C413.675,407.354 408.088,401.767 408.088,394.884L408.088,365.994C408.088,359.111 413.675,353.524 420.558,353.524L449.447,353.524C456.33,353.524 461.918,359.111 461.918,365.994L461.918,394.884C461.902,401.767 456.33,407.354 449.447,407.354Z" fill="#E6E5FF"/>
<path d="M310.776,407.354L281.886,407.354C275.003,407.354 269.416,401.767 269.416,394.884L269.416,365.994C269.416,359.111 275.003,353.524 281.886,353.524L310.776,353.524C317.659,353.524 323.246,359.111 323.246,365.994L323.246,394.884C323.23,401.767 317.659,407.354 310.776,407.354Z" fill="#E6E5FF"/>
<path d="M246.301,407.354L217.412,407.354C210.529,407.354 204.941,401.767 204.941,394.884L204.941,365.994C204.941,359.111 210.529,353.524 217.412,353.524L246.301,353.524C253.184,353.524 258.771,359.111 258.771,365.994L258.771,394.884C258.771,401.767 253.184,407.354 246.301,407.354Z" fill="#E6E5FF"/>
<g opacity="0.3">
<path d="M602.807,131.118L602.807,430.78C602.807,436.352 598.295,440.862 592.723,440.862L122.925,440.862C121.692,440.862 120.521,440.644 119.429,440.222L596.533,121.784C600.215,123.283 602.807,126.904 602.807,131.118Z" fill="#FFFFFF"/>
</g>
<path d="M63.243,254.089C58.607,254.089 54.846,250.312 54.846,245.692C54.846,241.072 58.623,237.295 63.243,237.295C67.878,237.295 71.639,241.072 71.639,245.692C71.639,250.312 67.878,254.089 63.243,254.089ZM63.243,239.917C60.059,239.917 57.468,242.508 57.468,245.692C57.468,248.876 60.059,251.466 63.243,251.466C66.426,251.466 69.017,248.876 69.017,245.692C69.002,242.492 66.426,239.917 63.243,239.917Z" fill="#FF3874"/>
<path d="M47.104,212.464C42.468,212.464 38.707,208.687 38.707,204.067C38.707,199.431 42.484,195.67 47.104,195.67C51.724,195.67 55.501,199.447 55.501,204.067C55.516,208.687 51.739,212.464 47.104,212.464ZM47.104,198.292C43.92,198.292 41.329,200.883 41.329,204.067C41.329,207.251 43.92,209.841 47.104,209.841C50.288,209.841 52.879,207.251 52.879,204.067C52.879,200.867 50.288,198.292 47.104,198.292Z" fill="#01008A"/>
<path d="M69.689,294.121C68.955,294.121 68.378,293.528 68.378,292.81L68.378,287.004C68.378,286.271 68.971,285.693 69.689,285.693C70.407,285.693 71,286.286 71,287.004L71,292.81C71,293.528 70.407,294.121 69.689,294.121Z" fill="#01008A"/>
<path d="M69.688,304.297C68.954,304.297 68.377,303.704 68.377,302.986L68.377,297.18C68.377,296.447 68.97,295.869 69.688,295.869C70.406,295.869 70.999,296.462 70.999,297.18L70.999,302.986C70.999,303.704 70.406,304.297 69.688,304.297Z" fill="#01008A"/>
<path d="M77.85,296.291L72.622,296.291C71.888,296.291 71.311,295.698 71.311,294.98C71.311,294.262 71.904,293.669 72.622,293.669L77.85,293.669C78.584,293.669 79.161,294.262 79.161,294.98C79.161,295.698 78.568,296.291 77.85,296.291Z" fill="#01008A"/>
<path d="M66.738,296.291L61.509,296.291C60.776,296.291 60.198,295.698 60.198,294.98C60.198,294.262 60.791,293.669 61.509,293.669L66.738,293.669C67.471,293.669 68.049,294.262 68.049,294.98C68.049,295.698 67.471,296.291 66.738,296.291Z" fill="#01008A"/>
<path d="M19.557,247.455C18.824,247.455 18.246,246.862 18.246,246.144L18.246,240.338C18.246,239.605 18.839,239.027 19.557,239.027C20.275,239.027 20.868,239.62 20.868,240.338L20.868,246.144C20.868,246.862 20.275,247.455 19.557,247.455Z" fill="#FF3874"/>
<path d="M19.557,257.615C18.824,257.615 18.246,257.022 18.246,256.304L18.246,250.499C18.246,249.765 18.839,249.188 19.557,249.188C20.275,249.188 20.868,249.781 20.868,250.499L20.868,256.304C20.868,257.038 20.275,257.615 19.557,257.615Z" fill="#FF3874"/>
<path d="M27.719,249.625L22.491,249.625C21.757,249.625 21.18,249.031 21.18,248.313C21.18,247.58 21.773,247.002 22.491,247.002L27.719,247.002C28.453,247.002 29.03,247.596 29.03,248.313C29.03,249.031 28.437,249.625 27.719,249.625Z" fill="#FF3874"/>
<path d="M16.623,249.625L11.394,249.625C10.66,249.625 10.083,249.032 10.083,248.314C10.083,247.581 10.676,247.003 11.394,247.003L16.623,247.003C17.356,247.003 17.934,247.597 17.934,248.314C17.934,249.032 17.34,249.625 16.623,249.625Z" fill="#FF3874"/>
<path d="M647.377,16.794C642.742,16.794 638.98,13.017 638.98,8.397C638.98,3.777 642.757,0 647.377,0C651.997,0 655.774,3.777 655.774,8.397C655.774,13.017 651.997,16.794 647.377,16.794ZM647.377,2.622C644.193,2.622 641.603,5.213 641.603,8.397C641.603,11.581 644.193,14.172 647.377,14.172C650.561,14.172 653.152,11.581 653.152,8.397C653.136,5.213 650.546,2.622 647.377,2.622Z" fill="#01008A"/>
<path d="M661.83,57.154C657.195,57.154 653.434,53.377 653.434,48.758C653.434,44.138 657.211,40.361 661.83,40.361C666.45,40.361 670.227,44.138 670.227,48.758C670.227,53.377 666.466,57.154 661.83,57.154ZM661.83,42.983C658.646,42.983 656.056,45.574 656.056,48.758C656.056,51.942 658.646,54.532 661.83,54.532C665.014,54.532 667.605,51.942 667.605,48.758C667.605,45.574 665.014,42.983 661.83,42.983Z" fill="#01008A"/>
<path d="M667.604,88.697C666.87,88.697 666.293,88.104 666.293,87.386L666.293,81.58C666.293,80.847 666.886,80.269 667.604,80.269C668.322,80.269 668.915,80.862 668.915,81.58L668.915,87.386C668.915,88.104 668.338,88.697 667.604,88.697Z" fill="#FF3874"/>
<path d="M667.604,98.873C666.87,98.873 666.293,98.28 666.293,97.562L666.293,91.756C666.293,91.023 666.886,90.445 667.604,90.445C668.322,90.445 668.915,91.038 668.915,91.756L668.915,97.562C668.915,98.28 668.338,98.873 667.604,98.873Z" fill="#FF3874"/>
<path d="M675.768,90.882L670.54,90.882C669.806,90.882 669.229,90.289 669.229,89.571C669.229,88.837 669.822,88.26 670.54,88.26L675.768,88.26C676.502,88.26 677.079,88.853 677.079,89.571C677.079,90.289 676.486,90.882 675.768,90.882Z" fill="#FF3874"/>
<path d="M664.67,90.882L659.442,90.882C658.708,90.882 658.131,90.289 658.131,89.571C658.131,88.837 658.724,88.26 659.442,88.26L664.67,88.26C665.404,88.26 665.981,88.853 665.981,89.571C665.981,90.289 665.388,90.882 664.67,90.882Z" fill="#FF3874"/>
<path d="M617.471,42.031C616.738,42.031 616.16,41.437 616.16,40.72L616.16,34.914C616.16,34.18 616.753,33.603 617.471,33.603C618.189,33.603 618.782,34.196 618.782,34.914L618.782,40.72C618.782,41.437 618.205,42.031 617.471,42.031Z" fill="#FF3874"/>
<path d="M617.471,52.207C616.738,52.207 616.16,51.613 616.16,50.896L616.16,45.09C616.16,44.356 616.753,43.779 617.471,43.779C618.189,43.779 618.782,44.372 618.782,45.09L618.782,50.896C618.782,51.613 618.205,52.207 617.471,52.207Z" fill="#FF3874"/>
<path d="M625.637,44.216L620.409,44.216C619.675,44.216 619.098,43.623 619.098,42.905C619.098,42.187 619.691,41.594 620.409,41.594L625.637,41.594C626.371,41.594 626.948,42.187 626.948,42.905C626.948,43.623 626.355,44.216 625.637,44.216Z" fill="#FF3874"/>
<path d="M614.54,44.217L609.311,44.217C608.577,44.217 608,43.624 608,42.906C608,42.188 608.593,41.595 609.311,41.595L614.54,41.595C615.273,41.595 615.851,42.188 615.851,42.906C615.851,43.624 615.257,44.217 614.54,44.217Z" fill="#FF3874"/>
<path d="M675.319,593.769L638.236,593.769C633.194,593.769 628.731,589.914 627.17,584.217L611.453,526.719C610.813,524.363 612.187,521.928 614.263,521.725C642.887,519.087 671.245,519.087 699.307,521.725C701.383,521.912 702.757,524.363 702.117,526.719L686.384,584.233C684.839,589.914 680.36,593.769 675.319,593.769Z" fill="#FF3874"/>
<path d="M698.824,525.892C698.824,527.421 680.111,528.654 657.043,528.654C633.959,528.654 615.262,527.421 615.262,525.892C615.262,524.362 633.975,523.129 657.043,523.129C680.111,523.129 698.824,524.362 698.824,525.892Z" fill="#0C375A"/>
<path d="M704.364,448.183C689.334,444.218 666.345,475.433 659.368,505.867L659.368,461.527C662.88,455.3 669.56,445.951 681.702,436.056C700.587,420.683 717.958,400.939 702.897,396.975C688.773,393.26 667.671,420.542 659.368,449.072L659.368,392.137C661.803,388.36 665.783,383.412 672.151,378.215C684.044,368.522 695,356.083 685.511,353.586C677.27,351.417 665.252,365.994 659.368,382.444L659.368,363.996C660.336,358.284 661.725,350.137 665.502,341.803C674.258,322.496 678.987,302.597 667.437,304.064C655.888,305.546 648.396,339.945 654.717,366.353L654.717,375.842C650.456,356.52 635.817,336.512 626.265,339.024C616.776,341.522 627.732,353.961 639.625,363.653C648.677,371.035 652.922,377.934 654.717,381.648L654.717,426.504C647.881,395.929 624.735,364.355 609.612,368.335C594.551,372.299 611.922,392.043 630.807,407.416C645.072,419.044 651.814,429.922 654.702,435.853L654.702,489.636C647.382,459.607 624.845,429.313 610.018,433.215C594.956,437.18 607.879,451.601 629.09,469.05C643.511,480.912 651.237,493.413 654.702,500.218L654.702,525.549C656.387,526.017 657.964,526.017 659.353,525.549L659.353,515.465C662.302,509.489 669.045,498.735 683.138,487.248C702.039,471.89 719.426,452.163 704.364,448.183Z" fill="#01008A"/>
</svg>
