<svg width="1048" height="524" viewBox="0 0 1048 524" fill="none" xmlns="http://www.w3.org/2000/svg" xmlns:xlink="http://www.w3.org/1999/xlink">
<path d="M93.626,521.832C93.626,521.832 -87.842,296.048 54.636,157.65C266.71,-48.34 411.042,244.406 492.734,123.253C627.868,-77.153 1069.956,-25.722 934.698,223.488C863.734,354.236 1101.158,334.696 1004.368,522.094L93.626,521.832Z" fill="#F8F8FF"/>
<path d="M700.932,240.967L707.483,225.62L707.638,225.254C708.424,223.38 707.689,221.223 705.93,220.235L693.782,213.406C693.579,213.294 693.394,213.167 693.221,213.03C692.034,212.042 691.484,210.431 691.932,208.926C694.455,200.012 695.186,190.708 694.057,181.52C694.017,181.14 694.031,180.76 694.086,180.402C694.314,179.034 695.273,177.843 696.601,177.329L707.486,173.236C708.916,172.686 709.882,171.358 710.034,169.9C710.067,169.455 710.048,168.977 709.929,168.507L705.67,152.008C705.152,149.981 703.133,148.664 701.048,149.026L685.795,151.614C684.289,151.863 682.784,151.234 681.912,149.974C680.631,148.183 679.292,146.442 677.837,144.749C675.108,141.571 672.159,138.716 669.028,136.168L669.014,136.154C667.708,135.09 667.194,133.367 667.718,131.771L672.629,116.847L672.868,116.094C673.516,114.184 672.571,112.052 670.686,111.252L654.998,104.55C653.084,103.747 650.854,104.489 649.838,106.305L642.234,119.822C641.391,121.327 639.679,122.123 638.011,121.787C630.922,120.48 623.669,120.256 616.515,121.172C614.691,121.385 612.965,120.343 612.31,118.613L607.428,105.723C606.679,103.761 604.602,102.708 602.6,103.229L586.029,107.496C584.072,108.006 582.834,109.931 583.174,111.904L586.192,129.839C586.456,131.359 585.823,132.893 584.575,133.805C583.033,134.92 581.528,136.11 580.062,137.373C577.29,139.755 574.76,142.295 572.469,144.966C571.438,146.189 569.777,146.681 568.261,146.16L550.329,140.239C548.346,139.599 546.229,140.562 545.415,142.458L538.68,158.196C537.978,159.865 538.506,161.812 539.907,162.897C540.051,163.006 540.211,163.129 540.388,163.212L555.381,171.655C556.778,172.433 557.589,173.949 557.415,175.534C557.404,175.672 557.393,175.813 557.357,175.951C557.27,176.363 557.183,176.75 557.136,177.181C556.21,182.041 555.819,187.013 555.949,191.982C556.022,193.64 554.979,195.16 553.398,195.739L539.784,200.903C537.851,201.627 536.784,203.715 537.305,205.716L538.246,209.385L541.564,222.185C542.071,224.197 544.047,225.468 546.102,225.135L561.128,222.587C562.731,222.301 564.312,223.079 565.13,224.487C567.262,228.178 569.791,231.757 572.69,235.13C574.84,237.631 577.16,239.965 579.577,242.078L578.542,245.209L574.322,258.056C573.783,259.641 574.337,261.378 575.621,262.355C575.886,262.572 576.182,262.735 576.508,262.869L592.286,269.651C594.161,270.436 596.318,269.676 597.32,267.928L602.499,258.682C603.375,257.122 605.242,256.326 606.968,256.793C614.134,258.736 621.538,259.532 628.895,259.149C630.639,259.055 632.214,260.071 632.782,261.667L638.948,277.963C639.65,279.78 641.594,280.797 643.49,280.308L660.235,275.969C662.221,275.459 663.473,273.523 663.119,271.536L659.974,252.877C659.688,251.274 660.426,249.674 661.823,248.813C664.805,246.978 667.668,244.858 670.425,242.487C671.909,241.213 673.324,239.889 674.674,238.521C675.734,237.453 677.305,237.066 678.742,237.526L695.935,243.193C697.94,243.852 700.086,242.893 700.932,240.967ZM656.236,168.97C663.98,180.326 664.928,193.176 660.669,203.034C645.679,237.566 599.184,234.475 588.646,198.883C586.062,189.738 587.158,179.544 593.756,169.614C609.205,146.62 641.416,147.275 656.236,168.97Z" fill="#E7E7FF"/>
<path d="M487.545,450.808L502.589,425.012L502.943,424.398C504.757,421.246 503.931,417.254 501.025,415.108L480.977,400.284C480.643,400.038 480.339,399.774 480.069,399.488C478.183,397.472 477.561,394.49 478.697,391.918C485.157,376.65 488.519,360.296 488.557,343.729C488.569,343.042 488.677,342.376 488.859,341.75C489.571,339.368 491.537,337.472 494.007,336.85L514.245,331.997C516.905,331.338 518.917,329.196 519.513,326.637C519.673,325.852 519.741,325.002 519.637,324.137L515.739,293.894C515.269,290.177 511.983,287.394 508.197,287.571L480.539,288.777C477.813,288.889 475.277,287.43 474.011,285.006C472.135,281.539 470.145,278.151 467.937,274.826C463.797,268.58 459.195,262.854 454.207,257.636L454.189,257.607C452.105,255.425 451.577,252.258 452.865,249.537L464.897,224.129L465.487,222.844C467.065,219.594 465.857,215.603 462.687,213.761L436.323,198.373C433.103,196.524 428.983,197.346 426.769,200.338L410.263,222.649C408.433,225.135 405.215,226.166 402.328,225.196C390.034,221.303 377.205,219.29 364.297,219.33C361.015,219.301 358.174,217.072 357.399,213.851L351.595,189.88C350.701,186.232 347.248,183.898 343.579,184.379L313.209,188.273C309.619,188.743 306.996,191.885 307.162,195.464L308.534,227.976C308.664,230.73 307.198,233.314 304.781,234.663C301.795,236.303 298.86,238.08 295.972,239.994C290.522,243.609 285.463,247.557 280.809,251.788C278.707,253.735 275.645,254.234 273.072,252.975L242.55,238.481C239.174,236.904 235.201,238.141 233.33,241.329L217.873,267.78C216.259,270.588 216.759,274.16 219.01,276.4C219.245,276.624 219.498,276.881 219.791,277.069L244.537,295.392C246.846,297.082 247.946,299.959 247.284,302.731C247.233,302.977 247.186,303.219 247.085,303.455C246.839,304.171 246.6,304.837 246.423,305.59C243.698,314.015 241.899,322.754 241.027,331.602C240.784,334.563 238.602,337.027 235.66,337.707L210.342,343.849C206.753,344.703 204.393,348.177 204.871,351.843L205.725,358.57L208.775,382.035C209.228,385.722 212.456,388.414 216.18,388.278L243.426,387.09C246.339,386.942 248.97,388.672 250.11,391.354C253.074,398.382 256.773,405.3 261.166,411.926C264.427,416.844 268.024,421.502 271.845,425.794L269.312,431.122L258.966,452.998C257.656,455.69 258.256,458.896 260.319,460.922C260.739,461.364 261.228,461.718 261.778,462.034L288.286,477.576C291.438,479.39 295.44,478.518 297.605,475.64L308.856,460.376C310.756,457.804 314.248,456.8 317.215,458.014C329.505,463.054 342.479,466.116 355.622,467.068C358.738,467.292 361.311,469.446 361.963,472.406L369.291,502.706C370.134,506.09 373.355,508.322 376.836,507.882L407.527,503.896C411.165,503.438 413.821,500.274 413.633,496.666L412.195,462.84C412.047,459.928 413.709,457.256 416.379,456.038C422.083,453.442 427.637,450.312 433.059,446.714C435.975,444.782 438.783,442.748 441.483,440.618C443.605,438.956 446.477,438.62 448.927,439.752L478.193,453.638C481.591,455.262 485.615,454.04 487.545,450.808ZM424.181,313.048C427.949,320.391 430.595,328.729 431.847,338.037C432.137,340.009 432.219,342.242 432.201,344.587C431.991,354.694 428.951,366.93 424.483,374.515C390.197,432.492 308.331,416.674 297.532,351.144C297.369,350.066 297.203,348.987 297.069,347.887C295.752,337.65 298.994,321.886 304.144,312.958C306.851,308.279 309.873,304.07 313.104,300.314C345.645,262.916 402.69,271.232 424.181,313.048Z" fill="#E7E7FF"/>
<path d="M134.827,519.889C134.827,519.889 134.028,513.661 132.175,509.959C130.322,506.257 118.539,508.613 118.539,508.613C118.539,508.613 116.183,510.632 115.676,520.059L134.827,519.889Z" fill="#233862"/>
<path d="M174.975,519.806C172.207,518.116 173.781,505.508 173.781,505.508C173.781,505.508 186.682,495.187 188.455,503.091C190.229,510.995 200.713,514.541 206.68,515.507C210.798,516.177 212.076,518.457 212.47,519.806L174.975,519.806Z" fill="#233862"/>
<path d="M148.254,428.112C148.778,431.007 149.111,433.378 149.202,435.082C150.4,458.475 168.896,511.965 172.203,513.214C177.32,515.146 185.38,511.039 189.599,509.696C191.347,509.139 192.527,507.377 192.136,505.589C182.977,463.487 179.611,402.86 178.388,366.968C177.769,348.888 174.668,336.399 174.668,336.399C174.668,336.399 129.562,324.366 129.294,339.587C129.052,353.057 144.229,405.889 148.254,428.112Z" fill="#01008A"/>
<path d="M148.254,428.112L178.384,366.968C177.765,348.888 174.664,336.399 174.664,336.399C174.664,336.399 129.558,324.366 129.291,339.587C129.052,353.057 144.229,405.889 148.254,428.112Z" fill="#05055C"/>
<path d="M158.289,339.641L134.444,512.453C134.444,512.453 123.975,514.979 115.828,512.96C115.828,512.96 108.848,421.051 109.43,398.827C110.013,376.608 104.422,339.369 110.708,335.265C116.99,331.158 158.289,339.641 158.289,339.641Z" fill="#01008A"/>
<path d="M106.057,336.76C105.941,338.323 106.94,339.742 108.446,340.179C111.771,341.146 115.607,341.815 123.001,343.35C129.946,344.794 139.293,346.071 150.776,346.14C169.04,346.256 175.956,339.962 175.956,339.962C176.741,339.977 175.54,336.155 174.458,317.978C174.092,311.822 173.738,304.016 173.481,294.155C173.249,285.281 173.093,274.736 173.079,262.229C173.061,247.181 149.77,230.994 149.339,230.994L149.335,231.001C149.335,233.169 145.919,237.164 140.661,237.512C134.418,237.921 126.761,234.812 126.761,231.219C126.761,231.182 115.477,249.269 111.471,268.544C110.961,270.986 110.566,273.563 110.255,276.277C109.303,284.445 110.223,278.615 106.057,336.76Z" fill="#F99746"/>
<path d="M149.343,230.995C149.343,230.995 170.998,230.81 176.213,238.12C181.424,245.43 192.853,284.753 186.889,297.839C180.925,310.925 169.768,292.425 163.572,284.413C157.38,276.393 149.343,230.995 149.343,230.995Z" fill="#F99746"/>
<path d="M149.563,227.687L149.552,229.927C149.552,229.927 150.16,236.929 141.54,237.95C132.92,238.974 126.5,236.661 126.735,231.258C127.514,227.075 128.252,222.758 128.31,219.298C128.331,218.013 128.245,216.645 128.002,215.107L144.707,214.774L149.628,215.578L149.563,227.687Z" fill="#FFB27D"/>
<path d="M149.629,215.578L149.564,227.687C147.79,228.512 145.785,229.015 143.542,229.015C135.862,229.015 130.901,223.384 128.306,219.298C128.328,218.013 128.241,216.645 127.999,215.107L144.703,214.774L149.629,215.578Z" fill="#E2915A"/>
<path d="M126.721,212.418C128.661,222.851 142.119,222.508 147.935,221.853C149.571,221.672 150.602,221.462 150.602,221.462C152.448,220.97 153.479,218.06 153.957,214.253C154.905,206.715 153.707,195.652 152.433,192.826C150.515,188.566 146.907,183.963 133.354,187.285C119.798,190.607 124.235,199.054 126.721,212.418Z" fill="#FFB27D"/>
<path d="M171.49,260.296C171.49,260.296 179.864,278.792 179.622,284.34C179.622,284.34 175.475,284.198 171.49,285.385C164.94,287.336 171.49,260.296 171.49,260.296Z" fill="#ED7D2B"/>
<path d="M156.595,182.892C156.595,182.892 150.627,182.432 143.592,179.374C137.882,176.892 130.673,179.628 128.335,180.858C128.397,180.482 128.549,179.968 128.907,179.45C128.907,179.45 127.857,180.196 127.702,181.235C127.593,181.314 127.546,181.368 127.572,181.387C127.572,181.387 126.381,181.169 125.617,181.513C125.617,181.513 126.153,181.437 126.345,181.781C126.366,181.817 126.395,181.85 126.432,181.875C117.522,186.182 116.7,200.263 119.567,203.52C123.015,207.439 128.125,216.16 128.125,216.16C128.125,216.16 128.661,214.181 128.035,210.732C127.409,207.283 130.387,207.283 134.151,205.713C137.914,204.146 134.777,199.756 138.07,197.089C141.363,194.422 153.436,195.992 153.28,193.951C157.757,192.326 156.595,183.352 156.595,182.892Z" fill="#01008A"/>
<path d="M123.993,294.948C127.528,309.148 165.769,316.484 174.462,317.974C174.096,311.819 173.741,304.013 173.484,294.151L123.993,294.948Z" fill="#ED7D2B"/>
<path d="M132.385,299.565C132.019,299.565 123.884,298.35 122.426,297.622C120.967,296.895 114.305,287.421 118.669,284.992C123.034,282.564 134.751,292.277 134.751,292.277L132.385,299.565Z" fill="#FFB27D"/>
<path d="M181.873,302.376C181.873,302.376 150.403,304.084 129.287,299.561C129.287,299.561 128.755,293.459 135.392,290.749C135.392,290.749 168.306,283.772 176.213,285.715C184.12,287.662 181.873,302.376 181.873,302.376Z" fill="#F99746"/>
<path d="M109.607,277.681C116.14,285.556 124.676,291.983 134.086,293.492L134.089,293.488C134.165,293.369 136.937,289.164 136.42,282.979C136.181,280.117 135.233,276.831 132.993,273.331C132.301,272.257 131.69,270.997 131.143,269.6C126.005,256.485 126.768,231.215 126.768,231.215C126.768,231.215 104.943,233.502 98.143,243.215C93.974,249.165 99.286,265.232 109.607,277.681Z" fill="#F99746"/>
<path d="M147.935,221.854C149.571,221.673 150.602,221.463 150.602,221.463C152.448,220.971 153.479,218.061 153.957,214.254C150.497,215.108 148.908,217.782 148.25,218.919C147.953,219.433 147.891,220.58 147.935,221.854Z" fill="#E2915A"/>
<path d="M156.729,227.752C156.729,227.752 164.267,215.314 158.405,214.771C152.542,214.228 150.186,218.198 149.343,219.653C148.496,221.112 149.564,227.684 149.564,227.684L156.729,227.752Z" fill="#FFB27D"/>
<path d="M128.002,282.564C128.234,284.142 128.704,285.589 129.287,286.881C131.129,290.967 134.086,293.493 134.086,293.493L134.089,293.489C153.664,284.652 157.626,254.311 158.289,237.639C158.557,230.937 158.289,226.446 158.289,226.446C149.459,223.522 146.976,228.603 146.976,228.603C146.976,228.603 136.55,253.399 131.14,269.605C129.07,275.804 127.738,280.747 128.002,282.564Z" fill="#F99746"/>
<path d="M109.607,277.681C116.139,285.555 124.676,291.982 134.085,293.491L134.089,293.488C153.663,284.65 157.626,254.31 158.288,237.638C158.288,237.638 149.024,271.235 136.416,282.979C134.136,285.103 131.748,286.514 129.287,286.88C129.287,286.88 113.389,282.385 110.052,278.155C109.814,277.851 109.669,277.702 109.607,277.681Z" fill="#ED7D2B"/>
<path d="M925.335,459.488C925.335,459.488 915.76,448.317 924.745,441.224C924.745,441.224 931.306,437.25 936.659,437.572C936.659,437.572 929.077,450.285 931.531,451.552C933.984,452.815 938.957,436.776 938.957,436.776C938.957,436.776 953.888,435.329 958.694,437.637C958.694,437.637 945.927,448.085 948.616,448.708C951.304,449.33 965.092,439.074 965.092,439.074C965.092,439.074 978.992,441.441 978.251,449.916C977.509,458.395 972.721,461.012 970.615,460.787C968.509,460.563 956.197,455.862 955.929,457.588C955.662,459.315 963.073,464.949 968.262,465.213C968.262,465.213 958.463,476.019 951.952,472.9C945.438,469.78 944.884,464.837 940.824,462.984C936.764,461.131 933.3,461.135 934.976,463.024C936.652,464.917 943.998,466.751 946.321,470.859C948.641,474.966 950.725,477.735 943.987,476.721C937.249,475.708 926.298,470.776 925.817,465.13C925.335,459.488 925.335,459.488 925.335,459.488Z" fill="#BBECB4"/>
<path d="M891.861,445.44C891.861,445.44 907.089,436.91 899.985,425.337C899.985,425.337 894.3,418.229 888.206,416.402C888.206,416.402 891.455,433.664 888.206,434.069C884.956,434.474 885.973,414.574 885.973,414.574C885.973,414.574 869.93,406.859 863.637,407.467C863.637,407.467 873.589,424.32 870.339,423.915C867.089,423.509 855.922,406.45 855.922,406.45C855.922,406.45 839.474,403.403 836.832,413.152C834.194,422.898 838.457,427.772 840.892,428.384C843.328,428.992 858.965,428.789 858.56,430.819C858.154,432.85 847.595,436.099 841.707,434.272C841.707,434.272 848.206,450.314 856.732,449.504C865.262,448.689 867.9,443.413 873.18,443.004C878.46,442.599 882.318,444.021 879.679,445.44C877.038,446.862 868.106,445.906 863.84,449.529C859.577,453.155 856.124,455.388 864.042,457.013C871.96,458.638 886.175,457.621 889.02,451.53C891.861,445.44 891.861,445.44 891.861,445.44Z" fill="#BBECB4"/>
<path d="M971.639,450.297C971.639,450.297 933.89,448.842 925.552,459.637C925.552,459.637 923.71,465.16 918.036,470.186L917.153,472.597C917.153,472.597 923.696,465.699 926.033,465.283C926.033,465.286 922.375,451.911 971.639,450.297Z" fill="#ABE3A2"/>
<path d="M918.036,470.19C918.036,470.19 909.933,476.182 909.369,486.887L910.838,487.017C910.838,487.017 913.425,475.947 918.105,471.619C922.784,467.291 918.036,470.19 918.036,470.19Z" fill="#ABE3A2"/>
<path d="M844.562,416.351C844.562,416.351 887.206,430.16 892.081,445.591C892.081,445.591 891.878,452.496 896.142,460.414L896.142,463.461C896.142,463.461 891.672,453.104 889.237,451.682C889.237,451.682 898.78,438.281 844.562,416.351Z" fill="#ABE3A2"/>
<path d="M896.142,460.415C896.142,460.415 902.717,470.403 898.968,482.559L897.274,482.107C897.274,482.107 898.917,468.717 895.476,461.982C892.034,455.247 896.142,460.415 896.142,460.415Z" fill="#ABE3A2"/>
<path d="M916.31,433.831C916.31,433.831 896.232,422.587 905.602,407.33C905.602,407.33 913.096,397.961 921.127,395.551C921.127,395.551 916.845,418.303 921.127,418.838C925.411,419.374 924.072,393.141 924.072,393.141C924.072,393.141 945.221,382.968 953.515,383.771C953.515,383.771 940.401,405.988 944.682,405.452C948.967,404.916 963.688,382.432 963.688,382.432C963.688,382.432 985.373,378.419 988.85,391.266C992.328,404.113 986.708,410.54 983.498,411.343C980.284,412.147 959.675,411.879 960.21,414.557C960.746,417.235 974.664,421.516 982.427,419.11C982.427,419.11 973.861,440.255 962.617,439.187C951.373,438.116 947.895,431.157 940.936,430.621C933.977,430.086 928.889,431.96 932.37,433.835C935.852,435.709 947.628,434.45 953.251,439.227C958.871,444.007 963.424,446.95 952.984,449.092C942.543,451.234 923.808,449.895 920.059,441.865C916.31,433.831 916.31,433.831 916.31,433.831Z" fill="#C9F5C2"/>
<path d="M978.945,395.283C978.945,395.283 922.733,413.486 916.31,433.828C916.31,433.828 916.578,442.929 910.958,453.37L910.958,457.387C910.958,457.387 916.846,443.736 920.059,441.862C920.055,441.862 907.476,424.194 978.945,395.283Z" fill="#BFEEB7"/>
<path d="M910.954,453.37C910.954,453.37 902.283,466.535 907.227,482.56L909.456,481.959C909.456,481.959 907.292,464.31 911.826,455.433C916.364,446.556 910.954,453.37 910.954,453.37Z" fill="#BDE9B6"/>
<path d="M915.633,517.312C937.354,517.312 954.959,499.706 954.959,477.985L876.307,477.985C876.307,499.702 893.913,517.312 915.633,517.312Z" fill="#E7E7FF"/>
<path d="M955.502,519.313L875.764,519.313C875.764,516.635 877.935,514.46 880.617,514.46L950.653,514.46C953.327,514.46 955.502,516.631 955.502,519.313Z" fill="#E0E0FF"/>
<path d="M955.85,477.985L875.011,477.985L875.011,479.19L955.85,479.19L955.85,477.985Z" fill="#D5D5FB"/>
<path d="M778.861,215.741C773.071,212.737 768.435,214.626 768.435,214.626C750.725,212.545 745.557,233.202 745.796,240.309C746.034,247.417 746.845,255.049 738.938,264.285C716.088,290.956 763.941,292.132 763.941,292.132C764.346,270.824 789.892,278.597 788.77,280.758C821.513,288.614 792.023,222.57 778.861,215.741Z" fill="#01008A"/>
<path d="M710.537,304.578C710.537,304.578 707.421,299.837 704.913,299.743C702.401,299.649 697.755,298.35 698.128,299.28C698.5,300.21 701.381,300.304 701.66,300.861C701.938,301.419 697.382,302.255 696.079,302.349C694.777,302.443 691.708,302.349 691.802,303C691.896,303.652 697.331,306.348 701.167,305.975C705.003,305.602 709.744,307.09 709.744,307.09L710.537,304.578Z" fill="#FFB27D"/>
<path d="M755.584,306.112C755.584,306.112 753.891,309.463 750.822,313.318C747.12,317.953 741.413,323.309 734.248,324.366C730.824,324.869 727.477,324.134 724.4,322.766C724.393,322.763 724.39,322.763 724.39,322.763C715.686,318.901 709.143,310.017 709.143,310.017C707.609,305.834 710.12,302.996 710.12,302.996C710.12,302.996 727.694,306.948 729.366,306.112C731.038,305.276 740.801,277.151 743.125,273.618C745.452,270.083 753.373,268.248 753.373,268.248L755.584,306.112Z" fill="#F9DDBF"/>
<path d="M750.819,313.317C747.117,317.953 741.41,323.309 734.244,324.365C730.821,324.868 727.473,324.134 724.397,322.766C724.737,322.809 733.43,323.884 736.893,317.685C740.425,311.363 744.247,301.32 749.498,304.668C751.767,306.115 751.666,309.705 750.819,313.317Z" fill="#F2CCAA"/>
<path d="M821.144,495.795C821.144,495.795 826.507,500.688 825.461,504.165C824.416,507.643 819.577,509.959 818.922,514.211C818.267,518.46 815.654,520.78 813.298,520.78C810.946,520.78 802.076,520.78 802.076,520.78C802.076,520.78 800.343,517.79 804.53,516.889C808.713,515.988 810.291,510.994 810.03,506.358C809.77,501.723 810.421,495.542 810.421,495.542L819.313,493.482L821.144,495.795Z" fill="#233862"/>
<path d="M775.76,497.876C775.76,497.876 777.689,518.605 775.336,519.767L745.209,519.705C745.209,519.705 745.209,516.227 750.048,515.456C754.886,514.686 763.387,511.852 764.827,505.541C766.264,499.226 775.76,497.876 775.76,497.876Z" fill="#233862"/>
<path d="M797.227,349.154C791.028,335.25 787.235,331.259 787.959,326.945C788.498,323.732 786.316,267.064 786.316,267.064C785.581,266.836 784.105,266.633 783.302,266.452C780.758,265.887 778.655,264.1 777.779,261.65C776.723,258.693 775.886,254.332 775.905,248.864L775.112,249.02L761.758,251.665C761.758,251.665 762.062,255.867 762.07,259.826C762.07,259.858 762.07,259.891 762.07,259.924C762.084,263.361 759.83,266.398 756.526,267.349C754.839,267.838 753.37,268.254 753.37,268.254C753.37,268.254 748.466,282.252 747.529,296.633C746.592,311.015 756.446,317.261 747.453,345.999C738.279,375.344 800.654,356.833 797.227,349.154Z" fill="#FFB27D"/>
<path d="M761.758,251.662C761.758,251.662 762.062,255.864 762.07,259.823C769.543,259.613 773.491,252.795 775.108,249.017L761.758,251.662Z" fill="#E8945B"/>
<path d="M759.261,255.407C759.261,255.407 776.94,255.7 776.954,244.688C776.965,233.676 779.256,226.297 767.968,225.645C756.681,224.994 754.484,229.192 753.587,232.869C752.686,236.542 754.662,255.049 759.261,255.407Z" fill="#FFB27D"/>
<path d="M759.916,225.374C759.916,225.374 764.758,238.294 772.184,240.205C779.614,242.115 782.835,240.125 782.835,240.125C782.835,240.125 777.135,235.598 775.955,227.698C775.955,227.698 763.568,219.226 759.916,225.374Z" fill="#01008A"/>
<path d="M761.114,226.424C761.114,226.424 757.524,227.766 756.048,230.383C754.604,232.941 753.374,236.332 753.659,240.494C753.659,240.494 750.012,231.711 754.112,226.746C758.458,221.477 761.114,226.424 761.114,226.424Z" fill="#163560"/>
<path d="M763.108,248.579C763.108,248.579 761.889,250.186 759.45,250.07C757.484,249.976 756.724,248.271 756.724,248.271C756.724,248.271 760.336,247.399 763.108,248.579Z" fill="#EBF3FA"/>
<path d="M798.935,292.131C798.935,292.131 799.384,298.461 798.935,306.057C798.635,311.091 793.543,317.836 792.823,319.505C791.01,323.688 788.965,324.368 788.965,324.368L773.147,328.244L767.585,329.605L750.048,324.368C750.048,324.368 742.057,302.072 745.267,289.519C748.473,276.968 753.377,268.25 753.377,268.25C753.377,268.25 767.69,282.263 786.323,267.063L798.935,292.131Z" fill="#F9DDBF"/>
<path d="M794.303,308.109C794.006,313.143 793.543,317.833 792.819,319.501C791.006,323.685 788.962,324.365 788.962,324.365L773.143,328.241L766.275,326.221C766.275,326.221 789.208,322.747 786.667,303.014L794.303,308.109Z" fill="#F2CCAA"/>
<path d="M751.159,327.749C751.159,327.749 742.473,354.786 741.916,363.988C741.359,373.191 758.519,494.746 759.211,498.987C759.862,502.986 764.827,505.534 764.827,505.534C764.827,505.534 767.111,506.88 770.368,505.961C774.888,504.683 776.317,503.156 776.317,503.156C776.317,503.156 783.077,416.466 778.894,385.495C774.71,354.529 774.66,327.749 774.66,327.749L751.159,327.749L751.159,327.749Z" fill="#ED7D2B"/>
<path d="M787.959,326.945C787.959,326.945 801.208,344.721 802.442,356.74C803.676,368.758 804.378,410.969 807.009,422.683C809.64,434.397 819.309,456.943 819.309,493.483C819.309,493.483 818.303,495.578 815.202,496.693C814.21,497.051 812.878,497.395 811.59,497.691C809.032,498.278 806.404,497.029 805.239,494.677C798.703,481.515 777.88,439.069 776.813,430.261C776.056,424.026 769.485,382.759 755.143,358.542C751.701,352.73 757.256,329.609 757.256,329.609L787.959,326.945Z" fill="#F99746"/>
<path d="M762.714,248.871C762.714,248.871 762.41,250.17 759.178,249.967C759.178,249.967 756.468,249.801 756.551,248.375C756.555,248.375 759.182,247.362 762.714,248.871Z" fill="#FFFFFF"/>
<path d="M749.773,323.575C749.773,323.575 753.261,326.333 760.188,326.474C768.46,326.64 788.965,324.364 788.965,324.364C788.965,324.364 789.877,326.908 789.837,329.597C789.837,329.597 764.798,335.912 750.29,330.52C750.286,330.52 748.415,326.999 749.773,323.575Z" fill="#233862"/>
<path d="M758.201,333.604C756.12,333.604 754.426,331.686 754.426,329.331C754.426,326.975 756.12,325.057 758.201,325.057C760.282,325.057 761.975,326.975 761.975,329.331C761.975,331.686 760.282,333.604 758.201,333.604ZM758.201,326.309C756.808,326.309 755.679,327.666 755.679,329.331C755.679,330.995 756.811,332.352 758.201,332.352C759.591,332.352 760.723,330.995 760.723,329.331C760.723,327.666 759.594,326.309 758.201,326.309Z" fill="#FFFFFF"/>
<path d="M804.845,298.795L770.827,298.795L770.827,345.359L804.845,345.359L804.845,298.795Z" transform="rotate(-82.094 787.836 322.077)" fill="#84E532"/>
<path d="M783.175,328.548C783.175,328.548 773.777,329.648 773.806,331.877C773.835,334.11 776.147,338.692 777.309,338.894C778.47,339.097 784.959,332.695 784.959,332.695L783.175,328.548Z" fill="#FFB27D"/>
<path d="M786.32,267.061C786.32,267.061 798.87,267.94 803.679,279.636C808.489,291.329 817.616,310.965 817.616,314.269C817.616,317.573 812.517,327.753 785.136,333.608C785.136,333.608 782.303,330.63 782.476,328.274C782.476,328.274 799.568,313.592 799.521,311.877C799.434,308.631 796.72,304.346 781.713,289.335C777.634,285.249 786.32,267.061 786.32,267.061Z" fill="#F9DDBF"/>
<path d="M886.488,197.045L893.971,223.203C894.08,223.586 894.12,223.977 894.095,224.357C894.004,225.732 893.063,226.966 891.663,227.368L846.235,240.367C844.827,240.769 843.372,240.211 842.572,239.082C842.355,238.778 842.185,238.434 842.077,238.054L834.596,211.908C834.083,210.12 835.118,208.257 836.902,207.746L882.33,194.747C884.11,194.237 885.97,195.261 886.488,197.045Z" fill="#E0E0FF"/>
<path d="M894.093,224.357C894.003,225.732 893.062,226.966 891.662,227.368L846.234,240.367C844.826,240.768 843.371,240.211 842.571,239.082L865.707,218.002L894.093,224.357Z" fill="#D5D5FB"/>
<path d="M886.487,197.045L866.149,222.298L834.975,213.243L834.592,211.904C834.078,210.117 835.113,208.253 836.897,207.743L882.325,194.744C884.109,194.237 885.969,195.261 886.487,197.045Z" fill="#E7E7FF"/>
<path d="M526.267,520.058L526.137,520.058C525.374,520.058 524.762,519.428 524.776,518.669L526.839,429.34L532.912,428.631L527.737,518.672C527.69,519.45 527.045,520.058 526.267,520.058Z" fill="#D0D0FF"/>
<path d="M490.889,520.058L490.759,520.058C489.995,520.058 489.384,519.428 489.398,518.669L491.461,429.34L497.533,428.631L492.355,518.672C492.311,519.45 491.667,520.058 490.889,520.058Z" fill="#D0D0FF"/>
<path d="M588.512,520.058L588.642,520.058C589.406,520.058 590.017,519.428 590.003,518.669L587.94,429.34L581.868,428.631L587.043,518.672C587.09,519.45 587.734,520.058 588.512,520.058Z" fill="#B0D4FF"/>
<path d="M486.868,423.8L486.868,362.59C486.868,351.82 495.601,343.088 506.37,343.088L550.47,343.088C561.24,343.088 569.972,351.82 569.972,362.59L569.972,426.141L486.868,423.8Z" fill="#D0D0FF"/>
<path d="M577.872,433.466L492.724,433.466C489.488,433.466 486.868,430.846 486.868,427.611L486.868,423.804L577.872,423.804L577.872,433.466Z" fill="#D0D0FF"/>
<path d="M588.077,433.467L523.658,433.467C521.266,433.467 519.33,431.528 519.33,429.139L519.33,428.137C519.33,425.745 521.269,423.809 523.658,423.809L588.077,423.809C590.47,423.809 592.406,425.748 592.406,428.137L592.406,429.139C592.406,431.528 590.47,433.467 588.077,433.467Z" fill="#9F9FF5"/>
<path d="M585.577,408.552C579.258,419.546 571.311,423.791 571.311,423.791L538.253,423.791C538.253,423.791 590.394,400.163 585.577,408.552Z" fill="#233862"/>
<path d="M560.187,493.628C559.325,494.616 559.217,495.72 559.64,496.896C559.64,496.9 559.644,496.907 559.647,496.91C560.436,499.089 563.042,501.521 566.067,503.953C566.454,504.264 566.798,504.55 567.099,504.81C567.178,504.879 567.258,504.948 567.33,505.017C567.392,505.071 567.45,505.125 567.508,505.176C570.33,507.778 569.266,508.371 574.336,513.651C580.116,519.666 584.097,519.774 585.229,519.224C586.188,518.758 584.241,515.569 582.084,511.983C581.979,511.809 581.878,511.636 581.77,511.462C581.484,510.984 581.198,510.503 580.912,510.022C578.386,505.708 579.034,503.681 579.634,497.261C580.119,492.043 587.752,468.111 587.752,468.111L576.674,466.204C576.674,466.204 573.338,485.261 569.664,488.196C567.699,489.759 565.499,489.781 563.61,490.939C563.476,491.019 563.346,491.102 563.216,491.189C562.144,491.902 561.048,492.637 560.187,493.628Z" fill="#FFB27D"/>
<path d="M560.187,493.627C559.325,494.615 559.217,495.719 559.64,496.895C559.64,496.899 559.644,496.906 559.647,496.91C560.614,499.085 563.15,501.506 566.078,503.93C566.462,504.249 566.798,504.538 567.099,504.81C567.178,504.878 567.258,504.947 567.33,505.016C567.392,505.07 567.45,505.124 567.508,505.175C570.33,507.777 569.266,508.371 574.336,513.65C580.116,519.665 584.097,519.774 585.229,519.224C586.188,518.757 584.241,515.569 582.084,511.982C580.959,511.57 575.733,509.445 571.781,504.39C568.3,499.949 565.98,494.243 563.61,490.938C563.476,491.018 563.346,491.101 563.216,491.188C562.144,491.901 561.048,492.636 560.187,493.627Z" fill="#233862"/>
<path d="M649.501,486.708C650.185,490.128 655.059,489.556 660.502,488.228C665.949,486.896 664.653,488.477 672.401,487.62C680.149,486.762 682.498,483.874 682.733,482.72C682.943,481.696 679.114,481.337 675.007,480.863C674.489,480.805 673.972,480.74 673.454,480.679C668.818,480.096 665.42,477.103 661.208,474.646C657.22,472.319 651.263,462.834 651.263,462.834L640.635,463.677C640.635,463.677 646.211,472.149 648.368,475.829C649.638,477.997 649.57,480.86 649.41,483.071C649.338,484.276 649.258,485.503 649.501,486.708Z" fill="#FFB27D"/>
<path d="M660.506,488.228C665.952,486.896 664.657,488.477 672.405,487.62C680.153,486.762 682.501,483.874 682.737,482.72C682.946,481.696 679.118,481.337 675.01,480.863L674.97,480.943C674.97,480.943 670.324,484.24 663.871,484.392C658.613,484.518 653.044,483.013 649.414,483.071C649.331,484.272 649.255,485.503 649.497,486.708C650.185,490.128 655.059,489.556 660.506,488.228Z" fill="#233862"/>
<path d="M608.774,418.753L598.84,445.485L585.87,480.393C585.87,480.393 582.349,480.733 578.98,479.763C575.875,478.866 572.314,476.521 572.314,476.521C572.314,476.521 575.914,439.04 582.635,417.526C584.357,412.003 586.286,407.538 588.414,405.022C598.829,392.711 608.774,418.753 608.774,418.753Z" fill="#05055C"/>
<path d="M598.673,376.297C592.163,374.198 573.602,376.894 554.954,380.541L551.049,374.1L510.771,370.955C510.771,370.955 497.479,400.431 504.756,419.213C505.827,421.974 507.952,423.744 511.574,423.801C511.574,423.801 512.161,423.801 512.164,423.801C512.164,423.801 536.139,423.787 543.923,423.787C563.954,423.787 586.315,410.017 589.21,409.438C593.944,408.49 595.84,417.961 600.573,427.905C605.307,437.85 645.082,471.94 645.082,471.94C645.082,471.94 651.194,472.001 653.72,471.053C656.434,470.036 657.43,468.712 657.43,468.712C657.43,468.712 613.352,381.03 598.673,376.297Z" fill="#01008A"/>
<path d="M549.463,256.815C544.303,254.105 536.453,253.739 535.176,253.569C519.911,251.517 510.727,273.697 510.187,280.418C509.192,292.805 502.638,294.694 493.414,302.449C474.921,318.003 480.342,336.08 490.457,342.796C496.526,346.824 507.22,342.796 507.22,342.796C507.372,342.901 536.468,326.529 550.813,318.633C572.313,315.575 562.611,263.72 549.463,256.815Z" fill="#01008A"/>
<path d="M538.788,311.909C538.85,311.949 531.731,314.381 526.969,312.271C522.489,310.292 519.098,302.924 519.163,302.92C521.2,302.826 523.437,301.045 525.16,289.356L526.028,289.668L540.616,294.915C540.616,294.915 539.559,299.594 538.875,304.053C538.3,307.795 537.992,311.381 538.788,311.909Z" fill="#FFB27D"/>
<path d="M540.616,294.918C540.616,294.918 539.559,299.597 538.875,304.056C530.497,302.547 527.208,294.198 526.028,289.671L540.616,294.918Z" fill="#ED975D"/>
<path d="M542.791,299.562C542.791,299.562 522.833,296.884 524.693,284.478C526.553,272.076 525.228,263.376 538.05,264.56C550.872,265.747 552.634,270.849 553.018,275.141C553.401,279.433 548.031,299.942 542.791,299.562Z" fill="#FFB27D"/>
<path d="M552.291,268.345C552.291,268.345 539.516,279.354 530.823,280.244C522.134,281.131 518.841,278.341 518.841,278.341C518.841,278.341 523.965,274.088 527.045,267.223C527.953,265.2 529.872,263.811 532.083,263.623C538.289,263.087 550.054,262.841 552.291,268.345Z" fill="#01008A"/>
<path d="M544.304,267.357C544.304,267.357 548.577,271.49 549.924,274.555C551.223,277.511 551.614,284.586 550.579,287.398C550.579,287.398 557.237,274.45 553.467,268.157C549.468,261.487 544.304,267.357 544.304,267.357Z" fill="#01008A"/>
<path d="M555.594,341.312C554.99,381.714 555.428,373.271 551.009,377.107C549.945,378.03 546.949,378.58 543.012,378.84C530.624,379.662 508.846,377.621 508.017,375.333C505.158,367.412 507.177,364.951 504.793,352.824C504.543,351.536 504.235,350.139 503.877,348.619C501.89,340.288 499.954,337.455 507.007,324.072C513.402,311.949 520.046,302.113 520.643,302.467C537.514,312.484 538.875,304.063 538.875,304.063C538.875,304.063 555.891,321.604 555.594,341.312Z" fill="#FFFFFF"/>
<path d="M598.84,445.486L585.87,480.394C585.87,480.394 582.349,480.734 578.98,479.764C575.875,478.866 572.314,476.521 572.314,476.521C572.314,476.521 575.914,439.041 582.635,417.526L598.84,445.486Z" fill="#01008A"/>
<path d="M538.875,304.056C538.875,304.056 556.239,306.998 558.276,314.474C560.313,321.951 572.314,365.895 572.314,365.895C572.314,365.895 563.487,367.48 559.409,363.402C555.33,359.323 545.223,325.573 545.223,325.573L538.875,304.056Z" fill="#FFFFFF"/>
<path d="M543.011,378.836C530.624,379.658 508.845,377.617 508.017,375.33C505.158,367.408 507.177,364.947 504.792,352.82L510.767,335.996C510.767,335.996 509.779,354.731 515.305,359.66C520.824,364.589 537.927,369.174 540.615,373.292C541.911,375.264 542.761,377.244 543.011,378.836Z" fill="#EBF3FF"/>
<path d="M528.818,370.958C528.818,370.958 541.039,368.237 543.011,369.322C544.984,370.408 549.804,374.356 550.408,375.731C551.013,377.106 546.019,374.689 544.394,374.251C543.341,373.969 540.572,374.931 539.201,375.387C533.432,377.309 529.897,376.321 529.897,376.321L528.818,370.958Z" fill="#FFB27D"/>
<path d="M520.632,302.448C520.632,302.448 504.22,303.458 498.539,311.383C490.541,322.537 474.676,370.074 483.77,376.411C494.008,383.551 530.371,378.278 530.371,378.278C530.371,378.278 531.579,372.622 529.896,369.886C528.214,367.15 500.855,362.732 499.592,361.469C498.329,360.206 515.377,336.846 515.377,333.057C515.374,329.271 520.632,302.448 520.632,302.448Z" fill="#FFFFFF"/>
<path d="M543.601,372.721C543.601,372.721 546.164,376.025 547.003,376.419C547.843,376.814 548.386,376.716 548.386,376.716L546.659,373.611L543.601,372.721Z" fill="#FFB27D"/>
<path d="M543.012,369.319L550.456,372.935C550.456,372.935 550.137,373.452 549.222,373.412C548.306,373.369 545.994,372.526 545.994,372.526L543.012,369.319Z" fill="#FFB27D"/>
<path d="M547.003,381.479L605.9,381.479L623.614,337.423L564.811,337.423L547.003,381.479Z" fill="#84E532"/>
<path d="M606.588,379.764L528.818,379.764L528.818,381.479L605.9,381.479L606.588,379.764Z" fill="#034906"/>
<path d="M591.03,359.451C591.476,357.902 590.578,356.646 589.029,356.646C587.48,356.646 585.866,357.902 585.421,359.451C584.976,361 585.873,362.256 587.422,362.256C588.971,362.256 590.589,361 591.03,359.451Z" fill="#FFFFFF"/>
<path d="M274.621,431.371L274.433,431.371C272.243,431.371 270.47,429.598 270.47,427.409L270.47,343.74C270.47,341.551 272.243,339.777 274.433,339.777L274.621,339.777C276.81,339.777 278.584,341.551 278.584,343.74L278.584,427.409C278.584,429.594 276.81,431.371 274.621,431.371Z" fill="#9F9FF5"/>
<path d="M274.491,520.058L274.36,520.058C273.597,520.058 272.985,519.428 273,518.669L275.063,429.34L281.135,428.631L275.956,518.672C275.913,519.45 275.272,520.058 274.491,520.058Z" fill="#9F9FF5"/>
<path d="M372.114,520.058L372.244,520.058C373.008,520.058 373.619,519.428 373.605,518.669L371.542,429.34L365.469,428.631L370.648,518.672C370.691,519.45 371.336,520.058 372.114,520.058Z" fill="#D0D0FF"/>
<path d="M371.679,423.801L361.474,423.801L307.26,423.801L270.47,423.801L270.47,427.608C270.47,430.843 273.09,433.463 276.326,433.463L307.26,433.463L361.474,433.463L371.679,433.463C374.072,433.463 376.008,431.523 376.008,429.135L376.008,428.133C376.008,425.741 374.072,423.801 371.679,423.801Z" fill="#D0D0FF"/>
<path d="M422.347,500.962C422.347,500.962 420.856,519.484 424.171,519.73C424.613,519.762 440.992,519.762 440.992,519.762L461.902,519.643C461.902,519.643 461.764,514.606 455.652,513.538C449.54,512.474 437.442,507.328 433.74,499.251C429.849,490.754 422.347,500.962 422.347,500.962Z" fill="#163560"/>
<path d="M296.555,399.495C296.555,399.495 297.25,417.698 300.46,423.8L374.412,423.8C374.412,423.8 392.18,425.638 393.802,426.836C395.846,428.349 386.683,443.345 421.027,501.96L437.847,501.533C437.847,501.533 420.256,406.476 417.133,404.07C412.457,400.473 357.747,387.944 348.381,387.673C339.016,387.398 296.555,399.495 296.555,399.495Z" fill="#01008A"/>
<path d="M338.013,291.643C343.72,295.178 344.042,302.217 344.042,302.217C330.124,305.818 309.869,290.365 309.869,290.365C309.869,290.365 318.829,284.347 322.148,271.117C322.314,270.451 322.47,269.763 322.604,269.065C323.038,266.835 323.31,264.425 323.357,261.823L329.751,267.552L340.383,277.077C340.383,277.077 340.141,281.029 338.813,287.828C338.585,289.015 338.317,290.289 338.013,291.643Z" fill="#FFB27D"/>
<path d="M345.877,364.715C345.403,367.82 346.366,370.321 346.825,372.63C347.006,373.513 347.111,374.367 347.035,375.217C346.275,383.808 349.337,384.898 348.378,387.67C348.378,387.67 345.106,389.584 339.113,391.853C336.508,392.837 333.385,393.894 329.791,394.886C329.603,394.936 329.415,394.987 329.223,395.041C315.308,398.801 300.681,399.605 296.548,399.496C288.655,399.286 287.059,379.274 289.991,354.072C294.554,314.811 300.721,295.775 316.977,282.02C318.001,281.155 317.31,284.101 322.774,286.736C327.822,289.164 333.913,289.736 338.639,288.686L342.356,292.497C349.738,304.16 350.513,318.003 349.887,329.543C349.094,344.135 347.252,355.776 345.877,364.715Z" fill="#B0D4FF"/>
<path d="M340.387,277.076C340.387,277.076 340.952,276.479 339.624,283.279C327.848,279.874 324.012,273.874 322.437,269.893C321.989,268.767 326.816,268.17 329.755,267.548L340.387,277.076Z" fill="#ED975D"/>
<path d="M345.859,277.109C345.859,277.109 323.136,280.362 321.326,266.18C319.517,251.997 315.366,242.867 329.798,240.189C344.23,237.511 347.744,242.563 349.499,247.152C351.254,251.74 351.725,275.897 345.859,277.109Z" fill="#FFB27D"/>
<path d="M440.262,335.915L438.442,335.915L438.442,383.594L440.262,383.594L440.262,335.915Z" transform="rotate(-325.265 439.352 359.754)" fill="#84E532"/>
<path d="M433.157,379.522L383.122,379.522L383.122,382.514L433.157,382.514L433.157,379.522Z" transform="rotate(-358.808 408.14 381.018)" fill="#034906"/>
<path d="M314.081,240.479C313.9,240.265 313.477,240.092 312.532,240.034C312.532,240.034 313.292,239.567 314.302,239.552C314.508,238.242 315.229,235.923 317.49,235.376C317.49,235.376 316.271,236.013 316.101,237.41C318.739,234.743 324.363,232.829 339.884,234.178C360.338,235.955 353.491,249.005 350.827,250.547C348.164,252.088 341.531,247.753 336.591,248.104C331.651,248.458 330.656,255.584 328.973,256.55C327.29,257.517 327.963,255.79 325.705,254.748C323.447,253.706 323.201,257.459 323.838,259.905C324.475,262.351 321.334,265.547 321.334,265.547C321.334,265.547 321.334,265.547 318.214,262.134C315.095,258.722 312.243,244.344 313.698,241.297C313.824,241.025 313.951,240.75 314.081,240.479Z" fill="#01008A"/>
<path d="M348.381,387.67C348.381,387.67 345.11,389.584 339.117,391.853C313.191,372.937 313.332,328.161 313.191,327.397L345.754,356.07L346.828,372.626C347.009,373.509 347.114,374.363 347.038,375.214C346.275,383.808 349.34,384.898 348.381,387.67Z" fill="#91B8EF"/>
<path d="M395.318,366.604C395.318,366.604 397.402,366.944 399.603,365.909C401.803,364.877 409.392,361.617 410.818,362.062C412.243,362.507 416.897,365.134 417.994,365.634C419.09,366.133 421.027,368.695 421.027,368.695C420.223,369.506 417.397,367.646 416.134,367.682C414.871,367.718 405.545,372.814 402.773,372.922C400.001,373.034 395.68,372.466 395.68,372.466L395.318,366.604Z" fill="#FFB27D"/>
<path d="M412.222,367.011C412.247,367.163 415.631,370.934 418.211,369.74L415.385,366.946L412.222,367.011Z" fill="#FFB27D"/>
<path d="M399.603,365.912C399.603,365.912 402.639,363.1 403.645,361.75C403.645,361.75 404.249,362.029 404.275,362.539C404.314,363.393 403.478,364.964 403.478,364.964L399.603,365.912Z" fill="#FFB27D"/>
<path d="M339.877,299.104C323.186,288.942 303.489,306.697 311.773,324.397C321.377,344.919 337.362,369.947 350.064,371.427C359.118,372.481 384.993,375.799 395.951,373.754C395.951,373.754 401.26,374.015 398.38,365.467C398.38,365.467 362.969,355.598 357.088,347.945C353.936,343.844 348.566,335.539 340.26,299.347C340.231,299.195 340.007,299.184 339.877,299.104Z" fill="#B0D4FF"/>
<path d="M788.596,520.06L788.777,520.06C789.83,520.06 790.677,519.191 790.655,518.138L787.807,394.738L779.422,393.761L786.573,518.149C786.631,519.22 787.521,520.06 788.596,520.06Z" fill="#ABABF2"/>
<path d="M376.257,520.06L376.08,520.06C375.027,520.06 374.18,519.191 374.202,518.138L377.05,394.738L385.435,393.761L378.284,518.149C378.222,519.22 377.332,520.06 376.257,520.06Z" fill="#ABABF2"/>
<path d="M795.903,397.007L367.883,397.007C364.767,397.007 362.241,394.481 362.241,391.369L362.241,387.757C362.241,384.641 364.767,382.115 367.883,382.115L795.903,382.115C799.019,382.115 801.541,384.641 801.541,387.757L801.541,391.369C801.545,394.481 799.019,397.007 795.903,397.007Z" fill="#ABABF2"/>
<path d="M725.389,81.503C725.389,91.838 729.051,101.316 735.145,108.717C740.418,115.115 743.345,123.123 743.345,131.411L743.345,143.364C743.345,150.963 749.563,157.181 757.162,157.181L779.274,157.181C786.873,157.181 793.091,150.963 793.091,143.364L793.091,131.393C793.091,123.087 796.062,115.086 801.331,108.666C807.45,101.211 811.105,91.657 811.044,81.246C810.903,57.625 791.838,38.677 768.218,38.677C765.594,38.677 763.025,38.916 760.528,39.368C759.974,39.469 759.428,39.578 758.881,39.701C739.719,43.957 725.389,61.056 725.389,81.503Z" fill="#84E532"/>
<path d="M779.194,157.179L779.147,157.549L778.539,162.206L778.38,163.433L778.38,163.444L778.217,164.678L777.613,169.332L777.454,170.558L777.45,170.569L777.291,171.807L777.2,172.487C776.893,174.85 774.193,176.653 770.961,176.653L763.684,176.653C762.913,176.653 762.178,176.551 761.494,176.363L761.491,176.363C760.876,176.193 760.307,175.954 759.797,175.657L759.757,175.636C759.345,175.393 758.972,175.111 758.657,174.796C758.006,174.152 757.575,173.381 757.452,172.531L757.195,170.725L757.032,169.589L757.032,169.585L757.029,169.56L757.029,169.556L756.87,168.445L756.251,164.128L756.088,162.995L756.084,162.97L755.925,161.851L755.256,157.176L779.194,157.176L779.194,157.179Z" fill="#01008A"/>
<path d="M776.306,157.18L776.256,157.18L772.192,157.18C765.555,159.098 758.972,160.994 755.925,161.855L756.084,162.974L756.088,162.999L756.251,164.132C758.722,163.448 764.65,161.75 779.144,157.549L779.191,157.18L776.306,157.18Z" fill="#4A4AA0"/>
<path d="M757.028,169.559L757.032,169.585L757.032,169.588L757.195,170.725C760.05,169.921 765.945,168.231 778.217,164.674L778.38,163.44L778.38,163.429L778.539,162.202C770.784,164.446 761.396,167.16 756.869,168.445L757.028,169.559Z" fill="#4A4AA0"/>
<path d="M759.761,175.636L759.8,175.658C760.311,175.954 760.879,176.193 761.494,176.363L761.498,176.363C764.863,175.397 769.861,173.957 777.29,171.803L777.45,170.566L777.453,170.555L777.612,169.328C770.975,171.25 763.361,173.45 758.66,174.793C758.975,175.111 759.348,175.393 759.761,175.636Z" fill="#4A4AA0"/>
<path d="M756.899,102.025L754.962,102.025L754.962,157.596L756.899,157.596L756.899,102.025Z" transform="rotate(-19.226 755.931 129.81)" fill="#FFFFFF"/>
<path d="M807.405,129.231L752.583,129.231L752.583,131.167L807.405,131.167L807.405,129.231Z" transform="rotate(-159.261 779.994 130.199)" fill="#FFFFFF"/>
<path d="M773.328,112.327C773.078,112.327 772.803,112.294 772.492,112.225C771.974,112.106 771.645,111.748 771.544,111.187C771.323,109.978 772.271,107.756 773.606,105.874C772.912,104.658 771.982,103.652 771.008,103.359C769.571,102.921 767.364,104.249 765.826,105.947C766.108,106.345 766.361,106.761 766.582,107.177C767.368,108.664 767.936,110.564 767.161,111.444C766.875,111.769 766.289,112.066 765.127,111.628C763.676,111.082 763.155,109.851 763.694,108.255C763.959,107.474 764.447,106.659 765.07,105.903C763.879,104.351 762.29,103.171 760.723,103.37C759.887,103.475 759.167,103.768 758.57,104.181C759.572,106.044 759.804,108.411 759.109,109.681C758.635,110.546 757.806,110.821 756.779,110.456C756.04,110.191 755.653,109.175 755.794,107.865C755.939,106.522 756.609,105.053 757.803,104.032C757.492,103.547 757.119,103.117 756.688,102.784C753.989,100.688 751.756,102.936 751.662,103.033L751.242,102.624C751.267,102.595 753.942,99.907 757.05,102.32C757.521,102.686 757.929,103.153 758.27,103.678C758.932,103.225 759.724,102.907 760.651,102.791C762.406,102.57 764.161,103.811 765.46,105.458C767.132,103.641 769.514,102.299 771.175,102.802C772.224,103.12 773.216,104.133 773.972,105.382C774.678,104.466 775.463,103.67 776.227,103.167C777.45,102.357 778.246,102.541 778.698,102.842C779.165,103.146 779.559,103.558 779.885,104.029C780.254,103.735 780.638,103.486 781.022,103.298C782.44,102.592 783.739,102.643 784.687,103.442L784.307,103.891C783.287,103.026 781.973,103.478 781.282,103.822C780.902,104.01 780.533,104.253 780.193,104.528C781.137,106.229 781.318,108.447 780.779,109.522C780.439,110.199 779.831,110.434 779.122,110.173C777.841,109.703 777.529,108.824 777.493,108.165C777.424,106.909 778.297,105.476 779.433,104.423C779.14,103.985 778.785,103.605 778.376,103.337C777.822,102.972 777.077,103.312 776.549,103.663C775.785,104.166 774.989,104.998 774.283,105.939C775.163,107.611 775.619,109.562 775.286,110.818C775.123,111.415 774.66,112.327 773.328,112.327ZM773.91,106.446C772.749,108.14 771.935,110.054 772.119,111.078C772.177,111.404 772.34,111.585 772.622,111.65C773.769,111.91 774.475,111.574 774.721,110.655C775,109.591 774.631,107.926 773.91,106.446ZM765.431,106.406C764.896,107.076 764.472,107.781 764.248,108.444C763.803,109.754 764.168,110.64 765.33,111.078C765.797,111.255 766.419,111.393 766.716,111.056C767.176,110.535 766.908,109.052 766.057,107.452C765.873,107.097 765.663,106.746 765.431,106.406ZM758.103,104.55C757.079,105.462 756.504,106.75 756.377,107.93C756.268,108.929 756.515,109.743 756.974,109.906C757.72,110.17 758.266,110.003 758.592,109.403C759.189,108.313 758.972,106.222 758.103,104.55ZM779.737,104.922C778.72,105.9 778.025,107.155 778.079,108.121C778.119,108.824 778.535,109.323 779.324,109.612C779.759,109.772 780.052,109.656 780.258,109.251C780.71,108.349 780.519,106.421 779.737,104.922Z" fill="#FFFFFF"/>
<path d="M266.555,191.754L259.407,191.754L259.407,218.049L266.555,218.049L266.555,191.754Z" fill="#CBFF9F"/>
<path d="M265.661,189.152L260.627,189.152C260.135,189.152 259.733,188.75 259.733,188.258C259.733,187.766 260.135,187.364 260.627,187.364L265.661,187.364C266.153,187.364 266.555,187.766 266.555,188.258C266.555,188.75 266.153,189.152 265.661,189.152Z" fill="#84E532"/>
<path d="M254.233,171.104L247.085,171.104L247.085,218.049L254.233,218.049L254.233,171.104Z" fill="#84E532"/>
<path d="M253.176,169.158L248.142,169.158C247.65,169.158 247.248,168.756 247.248,168.264C247.248,167.772 247.65,167.37 248.142,167.37L253.176,167.37C253.668,167.37 254.069,167.772 254.069,168.264C254.069,168.756 253.668,169.158 253.176,169.158Z" fill="#84E532"/>
<path d="M242.424,138.415L235.277,138.415L235.277,218.048L242.424,218.048L242.424,138.415Z" fill="#CBFF9F"/>
<path d="M241.367,136.245L236.333,136.245C235.841,136.245 235.439,135.843 235.439,135.351C235.439,134.859 235.841,134.457 236.333,134.457L241.367,134.457C241.859,134.457 242.261,134.859 242.261,135.351C242.261,135.843 241.859,136.245 241.367,136.245Z" fill="#84E532"/>
<path d="M230.304,152.864L223.157,152.864L223.157,218.051L230.304,218.051L230.304,152.864Z" fill="#84E532"/>
<path d="M229.248,151.121L224.214,151.121C223.722,151.121 223.32,150.719 223.32,150.227C223.32,149.735 223.722,149.333 224.214,149.333L229.248,149.333C229.74,149.333 230.142,149.735 230.142,150.227C230.142,150.719 229.74,151.121 229.248,151.121Z" fill="#84E532"/>
<path d="M218.496,116.691L211.349,116.691L211.349,218.053L218.496,218.053L218.496,116.691Z" fill="#CBFF9F"/>
<path d="M217.439,114.748L212.405,114.748C211.913,114.748 211.511,114.346 211.511,113.854C211.511,113.362 211.913,112.96 212.405,112.96L217.439,112.96C217.931,112.96 218.333,113.362 218.333,113.854C218.333,114.346 217.931,114.748 217.439,114.748Z" fill="#84E532"/>
<path d="M206.995,132.521L199.848,132.521L199.848,218.053L206.995,218.053L206.995,132.521Z" fill="#84E532"/>
<path d="M205.942,130.703L200.908,130.703C200.416,130.703 200.014,130.301 200.014,129.809C200.014,129.317 200.416,128.915 200.908,128.915L205.942,128.915C206.434,128.915 206.836,129.317 206.836,129.809C206.836,130.297 206.434,130.703 205.942,130.703Z" fill="#84E532"/>
<path d="M732.33,382.115L673.436,382.115L655.718,338.059L714.521,338.059L732.33,382.115Z" fill="#84E532"/>
<path d="M672.745,380.4L750.518,380.4L750.518,382.116L673.436,382.116L672.745,380.4Z" fill="#034906"/>
<path d="M688.302,360.087C687.857,358.538 688.755,357.282 690.304,357.282C691.852,357.282 693.466,358.538 693.912,360.087C694.357,361.636 693.459,362.891 691.91,362.891C690.361,362.891 688.747,361.636 688.302,360.087Z" fill="#FFFFFF"/>
<path d="M1047.949,520.088L1047.949,520.515C1047.949,521.195 1047.429,521.756 1046.795,521.756L31.588,521.756C30.954,521.756 30.433,521.195 30.433,520.515L30.433,520.088C30.433,519.408 30.954,518.847 31.588,518.847L1046.799,518.847C1047.429,518.847 1047.949,519.404 1047.949,520.088Z" fill="#01008A"/>
</svg>
