<svg width="886" height="354" viewBox="0 0 886 354" fill="none" xmlns="http://www.w3.org/2000/svg" xmlns:xlink="http://www.w3.org/1999/xlink">
<path d="M834.447,257.93C826.281,217.374 811.357,169.58 814.329,155.225C823.917,108.933 805.693,33.421 665.291,12.163C473.471,-16.88 252.169,12.294 192.588,35.134C155.242,49.45 134.406,76.071 120.521,102.684C106.636,129.296 109.584,187.255 77.458,206.138C68.848,211.2 59.033,215.404 51.052,220.88C24.78,238.904 16.774,279.464 23.858,296.406C33.406,319.24 56.769,343.742 81.153,349.632C82.322,349.914 119.683,350.354 120.866,350.682L211.421,350.682C228.541,348.642 265.853,350.824 279.633,349.958C333.519,346.572 669.661,355.424 779.733,351.104C892.631,346.678 836.667,268.96 834.447,257.93Z" fill="#CBEFEF"/>
<g opacity="0.4">
<path d="M167.145,281.567C171.421,278.96 175.532,276.106 177.906,272.622C180.752,268.45 180.88,263.719 180.394,259.165C179.695,252.623 177.683,245.908 171.87,240.549C163.553,232.88 149.134,229.323 137.064,224.177C124.994,219.031 114.009,209.828 118.758,200.968C122.049,194.827 132.107,190.784 134.217,184.426C136.481,177.602 128.365,170.93 118.817,167.733C114.064,166.142 109.009,165.118 103.795,164.449C98.818,181.926 91.473,197.842 77.313,206.166C74.003,208.111 70.517,209.93 67.025,211.744C67.298,211.87 67.574,211.992 67.845,212.118C71.021,213.591 74.279,215.247 75.689,217.611C77.71,220.997 75.492,225.114 78.229,228.279C82.924,233.712 96.261,231.307 104.342,234.658C107.548,235.986 109.692,238.155 111.437,240.349C114.517,244.221 116.675,248.862 114.103,252.888C108.861,261.092 89.572,260.461 80.593,267.157C70.628,274.586 78.172,286.476 73.102,295.766C69.951,301.54 44.565,314.486 36.43,317.638C45.131,328.71 57.509,340.821 73.749,347.272C75.195,345.689 90.683,332.482 91.608,330.765C95.699,323.164 95.684,314.322 103.556,308.105C109.66,303.285 119.236,301.101 127.994,298.538C142.365,294.333 155.652,288.573 167.145,281.567Z" fill="#FFFFFF"/>
</g>
<g opacity="0.4">
<path d="M740.768,32.981C739.92,33.156 739.01,33.287 738.014,33.363C731.3,33.705 717.012,34.413 710.46,35.357C694.142,37.708 679.676,43.79 663.718,47.021C635.948,52.645 606.018,49.296 576.947,49.952C549.601,50.57 520.362,54.544 496.189,46.212C492.847,45.059 489.522,43.57 487.965,41.33C485.645,37.99 488.1,33.879 492.374,31.487C496.647,29.095 502.323,28.084 507.86,27.392C531.892,24.39 556.629,26.163 581.095,26.508C605.56,26.855 631.206,25.534 652.044,17.192C655.87,15.66 659.53,13.85 662.748,11.786C641.026,8.558 618.938,6.071 596.76,4.232C596.378,4.347 595.996,4.462 595.615,4.573C573.342,11.117 549.288,15.096 524.912,16.27C504.57,17.249 484.119,16.292 463.741,16.847C443.362,17.403 422.536,19.604 404.949,26.319C402.162,27.383 399.377,28.618 397.749,30.432C395.935,32.453 395.798,34.921 396.06,37.254C396.794,43.809 400.349,50.221 406.218,55.571C407.191,56.459 408.224,57.305 409.303,58.124L444.252,53.44L450.436,72.937C456.142,73.758 461.959,74.268 467.715,74.489C491.132,75.398 514.435,72.379 537.817,71.155C588.231,68.518 638.664,74.239 689.066,76.97C698.562,77.484 708.118,77.667 717.598,77.183C758.888,75.075 783.794,73.471 794.158,71.895C782.404,57.418 765.204,43.915 740.768,32.981Z" fill="#FFFFFF"/>
</g>
<g opacity="0.4">
<path d="M787.504,224.988C778.724,222.546 770.592,219.186 761.736,216.862C736.224,210.166 706.582,212.486 681.456,205.198C676.883,203.871 672.344,202.135 669.64,199.394C666.935,196.652 666.618,192.695 670.078,190.341C673.265,188.17 678.398,187.966 683.012,187.901C700.448,187.658 717.968,187.415 735.249,188.938C742.972,189.618 750.758,190.651 758.492,190.03C769.344,189.158 778.958,185.12 787.516,180.697C789.804,179.514 792.118,178.27 794.892,177.671C797.334,177.144 799.962,177.153 802.536,177.168C806.692,177.192 810.844,177.218 814.998,177.242C813.844,171.043 811.752,164.924 808.368,158.91C805.666,154.106 802.204,149.531 798.418,145.051C790.764,144.035 783.12,142.989 775.466,141.984C769.666,141.222 763.594,140.465 757.914,141.539C749.364,143.156 743.934,148.402 737.602,152.47C725.2,160.44 707.823,164.392 690.544,165.929C673.265,167.466 655.731,166.821 638.291,166.908C613.435,167.034 588.596,168.655 564.195,171.744C556.79,172.681 549.026,173.888 543.567,177.274C535.102,182.525 535.013,191.767 540.83,198.363C546.647,204.961 557.054,209.306 567.735,212.41C610.142,224.738 660.94,221.242 701.937,235.443C715.53,240.151 727.568,246.671 741.582,250.826C761.712,256.792 783.676,257.374 806.032,257.17C806.812,247.95 808.682,238.682 810.604,229.44C802.686,228.433 794.922,227.052 787.504,224.988Z" fill="#FFFFFF"/>
</g>
<g opacity="0.8">
<path d="M377.682,244.215C376.046,239.586 369.671,236.132 362.052,236.132C360.653,236.132 359.298,236.25 358.005,236.469C354.243,231.242 346.082,227.62 336.619,227.62C334.173,227.62 331.813,227.863 329.593,228.31C324.499,222.827 315.242,219.159 304.669,219.159C292.089,219.159 281.373,224.349 277.314,231.613C274.441,230.572 271.133,229.977 267.608,229.977C256.582,229.977 247.642,235.787 247.642,242.954C247.642,243.38 247.676,243.799 247.737,244.213L377.682,244.213L377.682,244.215Z" fill="#FFFFFF"/>
</g>
<path d="M882.194,352.39L3.182,352.39C0.892,352.39 0,351.315 0,349.991C0,348.667 0.892,347.593 3.182,347.593L882.194,347.593C884.484,347.593 885.106,348.667 885.106,349.991C885.108,351.315 884.484,352.39 882.194,352.39Z" fill="#7678A8"/>
<g opacity="0.8">
<path d="M686.09,100.086C685.016,97.049 680.836,94.781 675.835,94.781C674.917,94.781 674.027,94.857 673.178,95.001C670.71,91.571 665.356,89.194 659.146,89.194C657.54,89.194 655.992,89.353 654.536,89.648C651.193,86.049 645.12,83.645 638.183,83.645C629.929,83.645 622.899,87.05 620.235,91.816C618.349,91.133 616.179,90.742 613.867,90.742C606.633,90.742 600.766,94.553 600.766,99.257C600.766,99.535 600.788,99.81 600.829,100.084L686.09,100.084L686.09,100.086Z" fill="#FFFFFF"/>
</g>
<g opacity="0.8">
<path d="M298.18,77.472C296.697,73.278 290.926,70.15 284.024,70.15C282.756,70.15 281.528,70.257 280.356,70.454C276.95,65.721 269.558,62.441 260.986,62.441C258.77,62.441 256.632,62.66 254.622,63.068C250.008,58.102 241.626,54.781 232.047,54.781C220.652,54.781 210.948,59.483 207.271,66.061C204.669,65.117 201.671,64.579 198.481,64.579C188.494,64.579 180.396,69.842 180.396,76.334C180.396,76.718 180.426,77.098 180.483,77.474L298.18,77.474L298.18,77.472Z" fill="#FFFFFF"/>
</g>
<path d="M265.214,174.762C264.91,174.669 262.412,179.572 261.626,182.624C261.105,183.854 262.134,188.117 261.257,193.756L223.137,186.222C223.137,186.222 213.155,157.012 205.979,143.748C203.902,143.757 191.142,159.87 198.858,175.285C204.217,185.84 211.022,196.569 216.508,199.352C221.995,202.134 262.043,202.382 262.043,202.382C262.043,202.382 266.705,202.423 267.343,201.045C268.919,197.63 265.831,174.951 265.214,174.762Z" fill="#F0A8A3"/>
<path d="M260.76,193.111L223.137,186.22C223.137,186.22 213.155,157.009 205.979,143.745C203.902,143.754 191.142,159.868 198.858,175.282C204.217,185.838 211.022,196.566 216.508,199.349C221.995,202.131 262.538,203.125 262.538,203.125C262.538,203.125 262.11,196.304 260.76,193.111Z" fill="#E03268"/>
<path d="M217.93,269.13C227.152,276.996 240.442,277.268 251.293,273.471C262.143,269.673 270.833,272.219 268.381,290.831C268.381,301.657 264.24,317.036 263.894,332.47C263.918,332.476 263.944,332.486 263.973,332.5C271.654,332.124 304.765,338.418 327.533,338.174C328.178,338.068 328.783,337.984 329.32,337.934C335.219,337.39 333.999,327.83 330.947,315.692C328.814,307.21 328.777,294.536 340.712,286.399C352.648,278.262 365.667,280.975 373.804,290.197C381.941,299.42 379.77,314.066 377.059,322.746C374.346,331.426 379.23,338.478 392.249,338.478C405.176,338.478 441.087,332.064 450.093,332.502C450.099,332.5 450.103,332.498 450.109,332.496C449.619,317.4 445.681,301.223 445.681,290.835C443.229,272.223 451.919,269.68 462.771,273.476C473.621,277.272 486.911,277.001 496.133,269.135C505.355,261.269 506.897,245.014 496.947,233.738C487.791,223.364 474.163,225.193 461.171,227.906C448.177,230.619 445.411,225.193 445.681,212.175C445.953,199.156 451.377,166.879 450.295,155.214L450.293,155.214C450.263,155.149 450.187,155.16 450.093,155.208C441.087,154.767 405.176,161.181 392.249,161.181C379.23,161.181 374.346,154.129 377.059,145.449C379.773,136.77 381.941,122.123 373.804,112.901C365.667,103.678 352.648,100.967 340.712,109.105C328.777,117.242 328.816,129.915 330.947,138.398C333.999,150.537 335.219,160.098 329.32,160.639C328.781,160.688 328.176,160.773 327.533,160.879C304.765,161.123 271.652,154.83 263.973,155.206C263.877,155.158 263.801,155.147 263.773,155.212L263.771,155.212C262.685,166.876 268.112,199.154 268.383,212.172C268.654,225.191 264.454,231.904 252.894,227.904C240.353,223.563 228.785,224.531 216.893,233.736C206.29,241.939 208.708,261.265 217.93,269.13Z" fill="#02CCC0"/>
<path d="M136.611,237.474C136.611,237.474 111.031,270.726 107.235,273.495C103.439,276.265 44.393,306.324 44.599,310.569C44.805,314.813 44,319.84 48.148,322.147C48.148,322.147 115.579,299.825 130.388,291.708C145.199,283.59 162.526,261.301 175.089,253.577L155.472,234.177L136.611,237.474Z" fill="#F7B5B2"/>
<path d="M190.652,240.631L189.935,207.757C189.935,207.757 175.534,192.651 157.99,202.939C140.448,213.227 114.263,264.39 111.138,268.325C107.4,271.743 66.756,293.433 52.91,301.766C56.066,312.562 61.371,322.144 61.371,322.144C110.81,305.175 131.456,293.62 135.246,291.347C137.088,290.242 145.673,281.675 154.007,273.169C169.57,259.465 190.652,240.631 190.652,240.631Z" fill="#F4A640"/>
<path d="M150.039,210.175C150.039,210.175 132.048,247.792 180.144,254.65L221.275,259.015L188.049,327.455L193.582,337.159C193.582,337.159 256.719,269.364 249.532,250.585C242.346,231.806 178.8,211.621 178.8,211.621L163.223,206.038L150.039,210.175Z" fill="#FFC0BB"/>
<path d="M218.848,347.999L184.561,343.328C183.502,343.185 182.759,342.208 182.902,341.149C183.046,340.09 184.022,339.347 185.082,339.493L219.369,344.164C220.428,344.309 221.17,345.284 221.027,346.343C220.884,347.4 219.907,348.142 218.848,347.999Z" fill="#FFFFFF"/>
<path d="M186.499,327.809L183.781,338.31C183.447,339.603 184.02,340.899 184.986,341.032L218.581,345.607C219.453,345.726 220.391,345.299 220.988,344.337C221.6,343.352 221.91,341.783 220.695,339.451C218.292,334.837 208.725,332.456 204.321,328.25C204.232,328.163 204.119,328.108 203.995,328.091L188.535,325.986C187.664,325.866 186.801,326.639 186.499,327.809Z" fill="#C1275F"/>
<path d="M200.97,333.991C200.749,333.808 200.714,333.387 200.898,333.094C201.758,331.722 204.304,328.443 208.4,329.745C208.636,329.821 208.758,330.164 208.671,330.492L208.669,330.503C208.584,330.819 208.339,331 208.109,330.928C204.436,329.776 202.257,332.673 201.556,333.826C201.402,334.071 201.154,334.143 200.97,333.991Z" fill="#FFFFFF"/>
<path d="M204.271,335.84C204.049,335.658 204.015,335.237 204.199,334.944C205.059,333.572 207.605,330.292 211.7,331.595C211.937,331.671 212.058,332.014 211.972,332.341L211.969,332.352C211.885,332.669 211.64,332.849 211.409,332.778C207.737,331.623 205.558,334.523 204.857,335.675C204.705,335.921 204.455,335.992 204.271,335.84Z" fill="#FFFFFF"/>
<path d="M207.343,337.563C207.119,337.381 207.087,336.959 207.271,336.666C208.131,335.295 210.677,332.015 214.772,333.317C215.009,333.393 215.128,333.736 215.044,334.064L215.041,334.075C214.957,334.392 214.711,334.572 214.481,334.5C210.809,333.346 208.63,336.245 207.929,337.398C207.775,337.643 207.527,337.715 207.343,337.563Z" fill="#FFFFFF"/>
<path d="M44.643,342.517L33.788,309.658C33.452,308.642 34.003,307.548 35.019,307.212C36.035,306.876 37.129,307.427 37.465,308.443L48.322,341.302C48.658,342.317 48.107,343.411 47.091,343.748C46.073,344.082 44.979,343.531 44.643,342.517Z" fill="#FFFFFF"/>
<path d="M48.58,304.585L37.954,306.754C36.643,307.021 35.731,308.104 36.037,309.03L46.675,341.225C46.95,342.061 47.745,342.717 48.871,342.832C50.026,342.949 51.571,342.539 53.132,340.424C56.223,336.24 54.163,326.598 56.008,320.794C56.045,320.677 56.045,320.551 56.006,320.432L51.111,305.616C50.838,304.781 49.765,304.342 48.58,304.585Z" fill="#C1275F"/>
<path d="M49.378,320.302C49.445,320.022 49.808,319.807 50.151,319.842C51.761,320.011 55.825,320.86 56.452,325.112C56.489,325.357 56.233,325.617 55.9,325.682L55.89,325.685C55.568,325.747 55.299,325.606 55.262,325.368C54.687,321.561 51.125,320.875 49.782,320.751C49.495,320.725 49.324,320.534 49.378,320.302Z" fill="#FFFFFF"/>
<path d="M49.169,324.078C49.236,323.798 49.599,323.583 49.942,323.62C51.552,323.79 55.615,324.638 56.242,328.89C56.279,329.136 56.021,329.396 55.691,329.461L55.68,329.463C55.359,329.526 55.088,329.385 55.053,329.146C54.478,325.339 50.916,324.653 49.573,324.53C49.286,324.504 49.112,324.313 49.169,324.078Z" fill="#FFFFFF"/>
<path d="M48.966,327.595C49.033,327.315 49.396,327.1 49.739,327.137C51.349,327.306 55.412,328.155 56.04,332.407C56.077,332.652 55.82,332.913 55.488,332.978L55.478,332.98C55.156,333.043 54.887,332.902 54.85,332.663C54.275,328.856 50.713,328.17 49.37,328.046C49.083,328.02 48.912,327.827 48.966,327.595Z" fill="#FFFFFF"/>
<path d="M200.986,125.194L189.489,143.023L201.17,142.589L205.253,142.782L211.094,132.635L200.986,125.194Z" fill="#FFC0BB"/>
<path d="M207.295,139.233L211.093,132.635L200.985,125.196L198.858,128.495C200.037,131.402 202.479,135.771 207.295,139.233Z" fill="#F99893"/>
<path d="M192.037,131.239L196.905,131.543L205.978,143.746L206.128,146.875C206.128,146.875 200.955,148.972 200.536,147.837C200.12,146.702 189.968,133.883 189.968,133.883L192.037,131.239Z" fill="#FFC0BB"/>
<path d="M251.549,252.613C251.169,247.592 244.92,240.775 237.957,237.506C216.507,222.022 178.801,211.619 178.801,211.619L163.223,206.036L150.003,209.081C150.003,209.081 132.046,247.792 180.142,254.653L216.739,259.706C217.249,259.782 218.981,260.027 219.584,259.908C219.584,259.908 203.625,290.403 189.799,319.954C189.799,319.954 200.786,325.068 208.697,325.977C208.697,325.977 224.841,303.665 236.397,286.807C247.95,269.944 251.929,257.633 251.549,252.613Z" fill="#FEB546"/>
<path d="M187.672,130.793C189.219,130.837 190.745,130.965 192.039,131.238C192.039,131.238 192.675,141.657 205.98,143.745C205.98,143.745 211.328,154.884 206.366,169.476C201.405,184.068 192.056,216.237 192.056,216.237C192.056,216.237 156.304,218.355 150.007,209.081C154.88,178.638 158.635,157.08 165.049,144.333C169.329,135.82 178.148,130.533 187.672,130.793Z" fill="#FF5B7E"/>
<path d="M207.531,165.335C199.648,155.156 183.832,140.192 183.832,140.192C176.255,152.506 171.295,161.574 171.295,161.574C185.915,175.756 200.827,184.038 201.567,184.453C203.366,173.694 207.531,165.335 207.531,165.335Z" fill="#FFFFFF"/>
<path d="M204.142,106.664C204.142,106.664 208.353,98.555 209.225,98.321C210.098,98.089 219.96,99.33 220.529,99.365C221.1,99.4 223.336,105.898 223.336,105.898C223.336,105.898 224.744,110.274 224.477,110.4C224.21,110.526 217.99,113.388 217.762,113.362C217.534,113.339 208.416,112.794 208.416,112.794C208.416,112.794 201.596,113.247 202.004,112.403C202.414,111.565 204.142,106.664 204.142,106.664Z" fill="#FFC0BB"/>
<path d="M229.387,106.477C229.387,106.477 230.053,112.587 229.007,117.315C228.631,119.014 228.69,120.783 229.115,122.469L230.183,126.698C230.389,127.511 229.734,128.286 228.898,128.219L225.972,127.987C225.972,127.987 219.231,138.616 215.771,139.158C212.311,139.701 205.498,137.526 199.395,122.478C199.395,122.478 193.83,122.172 194.498,115.691C195.167,109.21 201.949,111.788 202.703,114.026C202.705,114.026 216.557,99.879 229.387,106.477Z" fill="#FFC0BB"/>
<path d="M225.308,119.324C225.063,120.266 224.258,120.87 223.511,120.672C222.764,120.475 222.358,119.548 222.606,118.606C222.851,117.664 223.656,117.061 224.403,117.258C225.15,117.456 225.555,118.382 225.308,119.324Z" fill="#333333"/>
<path d="M227.989,115.613C227.414,115.213 226.804,114.892 226.172,114.647C225.538,114.408 224.876,114.26 224.212,114.23C222.838,114.152 221.566,114.645 220.353,115.296C221.371,114.282 222.814,113.685 224.23,113.757C224.963,113.789 225.686,113.985 226.328,114.31C226.927,114.61 227.589,115.098 227.989,115.613Z" fill="#333333"/>
<path d="M220.069,128.193C219.4,130.069 220.197,132.289 222.061,133.509C222.834,132.521 223.55,131.54 224.156,130.681L220.069,128.193Z" fill="#FFFFFF"/>
<path d="M237.515,96.359C234.778,93.757 229.297,90.696 223.352,89.203C224.963,88.569 225.987,88.005 225.696,87.664C223.326,84.894 212.793,88.181 209.409,89.329C209.02,88.454 207.607,85.715 205.344,86.305C202.659,87.004 206.748,89.999 206.748,89.999C206.748,89.999 203.423,89.615 202.272,91.163C201.422,92.307 203.457,92.53 204.577,92.569C204.215,92.6 203.688,92.739 203.088,93.042C203.088,93.042 197.753,95.675 197.682,97.898C197.664,98.434 198.096,98.582 198.758,98.497C197.714,100.576 195.859,104.544 196.518,105.271C196.896,105.688 197.387,105.542 197.829,105.232C197.645,108.733 197.957,111.587 197.957,111.587C201.992,111.847 204.282,116.788 204.282,116.788C204.593,111.37 210.703,102.395 210.703,102.395C210.703,102.395 224.12,112.019 222.675,107.088C222.675,107.088 238.737,116.961 236.994,107.734C236.994,107.734 243.726,108.794 237.423,100.442C237.426,100.442 242.413,101.017 237.515,96.359Z" fill="#07085B"/>
<path d="M267.6,172.394C267.435,172.715 267.689,173.095 268.049,173.056C270.832,172.758 279.596,171.879 279.833,172.57C280.115,173.392 272.303,174.369 272.13,175.155C271.956,175.943 279.553,174.796 279.711,175.723C279.87,176.65 272.911,177.462 272.842,177.876C272.772,178.291 279.525,178.226 279.946,178.714C280.367,179.203 273.167,180.149 272.942,180.629C272.716,181.108 277.901,182.107 277.866,182.56C277.832,183.014 277.38,183.561 265.063,184.657L255.582,185.178L256.624,182.682L255.582,176.667C255.582,176.667 268.809,166.594 269.445,166.755C270.048,166.913 270.142,167.445 267.6,172.394Z" fill="#FFC0BB"/>
<path d="M184.192,139.708C184.192,139.708 211.814,172.148 217.075,173.064C222.336,173.98 256.048,175.803 256.048,175.803C257.203,179.142 257.941,183.096 257.47,186.554C257.47,186.554 221.368,188.803 211.093,187.947C200.82,187.092 170.763,161.6 170.763,161.6C158.279,147.398 172.752,129.963 184.192,139.708Z" fill="#FF5B7E"/>
<path d="M717.785,153.902C718.808,157.062 716.811,158.1 717.853,161.295L712.724,161.082C706.316,164.253 698.963,168.299 700.015,166.912C701.263,164.889 705.472,162.065 700.881,163.795C692.128,167.02 699.994,162.831 701.793,161.093C696.671,162.393 690.886,164.581 700.743,159.083C703.173,157.062 692.621,161.429 693.945,159.942C702.956,153.906 706.388,156.209 700.562,152.485C693.662,147.788 714.111,154.748 717.785,153.902Z" fill="#F7B2AD"/>
<path d="M811.01,145.846C811.01,145.846 814.431,134.255 788.93,136.608C779.746,137.455 763.034,148.973 758.426,149.683C726.231,151.094 712.424,151.73 712.424,151.73C712.424,151.73 711.122,157.432 712.819,162.715C712.819,162.715 752.237,166.413 761.827,166.005C787.215,164.927 810.502,156.147 811.01,145.846Z" fill="#00ABA1"/>
<path d="M855.878,334.763C856.872,337.762 859.844,341.812 857.539,342.216C842.395,348.304 837.444,352.969 848.056,338.086C848.054,338.088 852.304,338.954 855.878,334.763Z" fill="#07085B"/>
<path d="M725.319,336.37C723.448,338.916 721.864,343.682 720.199,342.035C706.473,333.205 699.803,331.866 718.081,331.909C718.081,331.911 719.832,335.879 725.319,336.37Z" fill="#07085B"/>
<path d="M779.757,199.66C723.276,281.125 740.475,252.831 717.713,331.919C717.713,331.919 720.086,337.044 725.317,336.369C725.317,336.369 753.288,278.375 756.131,273.018C758.974,267.662 799.432,236.943 799.432,236.943L779.757,199.66Z" fill="#E03268"/>
<path d="M775.861,211.271C809.636,304.469 796.506,274.072 847.849,338.39C847.849,338.39 853.402,339.419 855.878,334.761C855.878,334.761 824.758,278.395 822.031,272.978C819.307,267.558 817.656,216.788 817.656,216.788L775.861,211.271Z" fill="#FF5B7E"/>
<path d="M796.565,126.383C796.565,126.383 779.064,123.728 774.027,132.222C768.989,140.715 770.923,217.385 770.923,217.385L782.887,217.255C797.824,130.127 797.8,136.187 796.565,126.383Z" fill="#07085B"/>
<path d="M836.726,169.867L807.787,131.842L815.067,147.2L834.658,172.654L836.726,169.867Z" fill="#4F2305"/>
<path d="M776.669,129.367C776.669,129.367 772.334,129.369 769.365,134.216C766.396,139.061 765.408,199.839 765.836,217.945C765.836,217.945 769.556,220.615 773.218,220.352C773.218,220.352 770.554,142.82 776.669,129.367Z" fill="#00ABA1"/>
<path d="M781.638,114.208L773.011,119.979L777.812,132.295C777.812,132.295 787.047,134.63 789.674,126.734L781.638,114.208Z" fill="#FFC0BB"/>
<path d="M775.293,125.837L773.009,119.981L781.637,114.21L784.42,118.549C783.562,121.314 781.288,124.915 775.293,125.837Z" fill="#F99893"/>
<path d="M800.117,126.498C786.987,122.552 780.628,139.35 780.163,160.312C779.935,183.296 780.341,219.406 780.339,219.434C780.339,219.434 806.719,221.952 819.254,217.337C819.065,213.368 825.687,134.182 800.117,126.498Z" fill="#02CCC0"/>
<path d="M780.63,152.552C780.454,154.31 780.323,156.118 780.243,157.965C784.413,157.616 795.207,155.706 800.739,152.86C800.739,152.862 792.279,152.296 780.63,152.552Z" fill="#FFFFFF"/>
<path d="M771.19,131.922C771.19,131.922 759.636,152.745 789.837,202.803L786.488,205.894C786.488,205.894 762.065,165.912 766.022,139.621C766.298,137.797 767.185,132.823 771.19,131.922Z" fill="#4F2305"/>
<path d="M761.265,109.091C762.756,113.325 758.081,114.853 756.418,111.072C754.929,106.84 759.604,105.312 761.265,109.091Z" fill="#F99893"/>
<path d="M761.247,117.362C748.037,87.63 785.148,82.449 786.353,104.918C793.815,102.272 790.74,115.46 785.101,111.823C783.51,125.097 767.383,127.96 761.247,117.362Z" fill="#FFC0BB"/>
<path d="M769.236,104.801C769.529,108.638 765.418,112.35 770.727,112.322C766.006,110.85 771.077,110.071 769.236,104.801Z" fill="#F99893"/>
<path d="M767.003,104.15C765.065,102.336 761.431,102.907 760.409,105.828C762.061,104.422 764.472,103.523 767.003,104.15Z" fill="#F46C0F"/>
<path d="M856.66,209.972C801.05,247.17 817.762,248.995 789.754,211.274L841.707,174.94C857.751,198.688 864.734,203.035 856.66,209.972Z" fill="#4F2305"/>
<path d="M845.74,182.398C845.729,182.403 802.66,212.531 796.183,217.057C792.465,219.472 792.463,218.296 786.996,210.521C780.988,202.679 783.121,206.86 831.996,171.45C837.125,168.053 837.994,165.564 842.25,172.527C845.427,177.454 848.731,179.831 845.74,182.398Z" fill="#632D07"/>
<path d="M833.032,197.234L809.907,197.234L809.907,201.586L833.032,201.586L833.032,197.234Z" transform="rotate(-69.932 821.469 199.41)" fill="#FEB546"/>
<path d="M793.635,91.407C794.199,91.173 794.714,90.841 795.128,90.409C793.513,91.071 791.684,91.449 789.693,90.745C789.483,89.022 788.239,81.532 782.615,82.135C782.615,82.135 772.983,72.98 764.743,82.172C763.22,81.111 762.02,79.188 762.18,76.974C761.509,78.923 762.204,81.273 764.023,82.769C762.799,82.4 755.107,80.425 754.651,89.128C753.611,89.519 747.256,93.647 757.288,100.239C755.161,100.391 752.632,99.666 750.499,98.39C752.107,100.541 755.07,101.661 757.939,101.036C756.376,101.867 754.423,102.238 752.37,102.303C754.677,103.213 757.6,102.802 759.721,101.01C761.512,101.311 763.89,101.159 766.436,99.46C766.436,99.46 769.293,102.325 775.34,99.043C775.34,99.043 776.911,101.405 783.128,98.774L784.137,107.004C784.137,107.004 786.514,103.775 789.179,104.673C789.179,104.673 792.098,96.156 790.509,92.273C791.265,92.671 792.489,92.974 793.674,92.671C792.663,92.49 791.419,92.219 790.338,91.457C791.161,91.748 792.465,91.887 793.635,91.407Z" fill="#F46C0F"/>
<path d="M773.464,106.405C773.484,107.046 774.02,107.549 774.663,107.53C775.305,107.51 775.811,106.976 775.791,106.336C775.772,105.696 775.236,105.192 774.593,105.211C773.951,105.231 773.445,105.765 773.464,106.405Z" fill="#333333"/>
<path d="M763.491,107.352C763.511,107.992 764.047,108.495 764.689,108.476C765.332,108.456 765.838,107.922 765.818,107.282C765.799,106.642 765.262,106.138 764.62,106.158C763.977,106.177 763.472,106.711 763.491,107.352Z" fill="#333333"/>
<path d="M772.047,103.762C772.642,103.59 773.202,103.46 773.756,103.384C774.307,103.308 774.847,103.304 775.373,103.378C775.893,103.456 776.419,103.577 776.92,103.816C777.187,103.903 777.419,104.066 777.688,104.185C777.949,104.32 778.188,104.489 778.479,104.621C778.337,104.35 778.17,104.083 777.975,103.84C777.758,103.619 777.554,103.367 777.28,103.195C776.775,102.798 776.137,102.566 775.488,102.473C774.836,102.384 774.168,102.466 773.571,102.692C772.981,102.924 772.436,103.274 772.047,103.762Z" fill="#F46C0F"/>
<path d="M766.821,116.04C767.544,117.913 769.649,119.076 771.889,118.712C774.129,118.347 775.753,116.576 775.838,114.568L766.821,116.04Z" fill="#FFFFFF"/>
<path d="M544.869,311.744C542.44,300.256 548.357,288.814 556.609,281.336C564.861,273.858 566.715,265.28 549.737,258.758C540.521,253.749 525.514,250.159 512.216,243.313C512.222,243.289 512.225,243.263 512.227,243.233C516.101,236.867 526.064,205.77 536.805,186.5C537.194,186.001 537.548,185.526 537.838,185.09C541.029,180.319 548.604,185.78 557.525,193.995C563.758,199.736 574.531,205.631 586.978,199.237C599.426,192.842 603.142,180.505 599.055,169.31C594.97,158.117 581.498,153.188 572.853,151.479C564.21,149.773 560.464,142.355 566.489,131.272C572.469,120.268 594.545,92.666 598.337,84.795C598.343,84.791 598.345,84.787 598.352,84.785C610.975,92.188 622.924,103.021 631.766,107.829C646.474,118.527 652.662,112.306 654.448,101.313C656.234,90.321 662.616,79.133 673.579,74.922C684.542,70.711 699.091,76.919 704.087,90.606C708.684,103.199 700.818,113.954 692.499,123.758C684.179,133.562 687.518,138.428 698.724,144.221C709.932,150.014 739.918,160.329 749.344,166.649L749.344,166.651C749.388,166.705 749.342,166.764 749.258,166.825C745.466,174.693 723.392,202.297 717.41,213.302C711.387,224.384 715.13,231.803 723.774,233.509C732.416,235.215 745.888,240.144 749.976,251.339C754.06,262.533 750.346,274.87 737.9,281.266C725.452,287.662 714.68,281.766 708.445,276.024C699.525,267.811 691.95,262.348 688.759,267.119C688.468,267.553 688.115,268.03 687.726,268.53C676.984,287.8 667.022,318.896 663.147,325.262C663.143,325.366 663.119,325.436 663.05,325.428C663.05,325.428 663.05,325.428 663.05,325.432C652.618,320.958 627.653,301.406 616.695,295.152C605.738,288.898 598.078,289.368 596.138,301.058C594.03,313.742 587.855,323.144 574.518,329.008C562.63,334.232 547.297,323.232 544.869,311.744Z" fill="#FEB546"/>
<path d="M710.413,145.641C711.164,148.878 709.086,149.741 709.855,153.012L704.763,152.368C698.112,154.987 690.442,158.399 691.607,157.104C693.023,155.194 697.453,152.732 692.732,154.071C683.737,156.548 691.929,153.036 693.869,151.456C688.656,152.32 682.706,154.011 692.992,149.364C695.584,147.556 684.701,151.018 686.147,149.648C695.634,144.393 698.859,146.978 693.37,142.774C686.891,137.515 706.679,146.173 710.413,145.641Z" fill="#FFC0BB"/>
<path d="M808.343,146.904C808.343,146.904 808.063,127.389 790.949,130.791C780.066,132.955 759.008,138.832 759.008,138.832L705.883,143.531C705.883,143.531 704.133,149.711 705.9,154.037C705.9,154.037 797.464,166.467 808.343,146.904Z" fill="#02CCC0"/>
</svg>
