<svg width="878" height="642" viewBox="0 0 878 642" fill="none" xmlns="http://www.w3.org/2000/svg" xmlns:xlink="http://www.w3.org/1999/xlink">
<path d="M36.648,482.491C36.648,492.71 28.362,501.025 18.113,501.025C7.895,501.025 -0.421,492.74 -0.421,482.491C-0.421,472.273 7.864,463.957 18.113,463.957C28.332,463.957 36.648,472.242 36.648,482.491Z" fill="#008B22"/>
<path d="M877.405,480.007C877.405,490.225 869.12,498.541 858.871,498.541C848.653,498.541 840.337,490.256 840.337,480.007C840.337,469.788 848.622,461.473 858.871,461.473C869.12,461.473 877.405,469.788 877.405,480.007Z" fill="#008B22"/>
<path d="M785.102,622.908C785.102,628.032 780.96,632.175 775.835,632.175C770.711,632.175 766.568,628.032 766.568,622.908C766.568,617.783 770.711,613.641 775.835,613.641C780.96,613.641 785.102,617.783 785.102,622.908Z" fill="#008B22"/>
<path d="M53.955,18.091C53.955,23.216 49.812,27.358 44.688,27.358C39.563,27.358 35.421,23.216 35.421,18.091C35.421,12.967 39.563,8.824 44.688,8.824C49.812,8.824 53.955,12.967 53.955,18.091Z" fill="#FF8E00"/>
<path d="M848.161,8.826C848.161,13.95 844.019,18.093 838.894,18.093C833.769,18.093 829.627,13.95 829.627,8.826C829.627,3.701 833.769,-0.441 838.894,-0.441C844.019,-0.441 848.161,3.701 848.161,8.826Z" fill="#FF8E00"/>
<path d="M166.479,632.173C166.479,637.298 162.337,641.44 157.212,641.44C152.088,641.44 147.945,637.298 147.945,632.173C147.945,627.049 152.088,622.906 157.212,622.906C162.337,622.906 166.479,627.049 166.479,632.173Z" fill="#FF8E00"/>
</svg>
