<svg width="34" height="34" viewBox="0 0 34 34" fill="none" xmlns="http://www.w3.org/2000/svg" xmlns:xlink="http://www.w3.org/1999/xlink">
<path d="M28.948,11.344C29.427,10.934 29.483,10.212 29.072,9.733C28.661,9.253 27.939,9.198 27.46,9.609L28.948,11.344ZM14.679,28.573C14.679,29.204 15.191,29.716 15.822,29.716C16.453,29.716 16.965,29.204 16.965,28.573L14.679,28.573ZM27.46,9.609C25.251,11.503 20.116,15.995 18.824,17.288L20.44,18.904C21.656,17.688 26.713,13.26 28.948,11.344L27.46,9.609ZM18.824,17.288C16.691,19.421 14.679,23.528 14.679,28.573L16.965,28.573C16.965,24.093 18.764,20.581 20.44,18.904L18.824,17.288Z" fill="#828282"/>
<path d="M10.067,17.412C9.688,16.907 8.972,16.805 8.467,17.183C7.962,17.562 7.859,18.278 8.238,18.783L10.067,17.412ZM13.403,22.93C13.968,23.212 14.655,22.983 14.937,22.419C15.219,21.854 14.99,21.167 14.426,20.885L13.403,22.93ZM8.238,18.783C9.311,20.213 11.361,21.909 13.403,22.93L14.426,20.885C12.658,20.001 10.899,18.522 10.067,17.412L8.238,18.783Z" fill="#828282"/>
<circle cx="20.588" cy="9.526" r="1.905" fill="#828282"/>
<circle cx="9.159" cy="11.428" r="1.905" fill="#828282"/>
<path d="M1.777,10.843C1.309,7.722 3.461,4.813 6.582,4.345L21.276,2.146C24.398,1.678 27.307,3.83 27.774,6.951L28,8.458C29.557,18.863 22.386,28.56 11.981,30.118L10.474,30.343C7.353,30.81 4.444,28.659 3.976,25.538Z" stroke="#828282" stroke-width="1.143" stroke-miterlimit="3.999327"/>
</svg>
