<svg width="936" height="556" viewBox="0 0 936 556" fill="none" xmlns="http://www.w3.org/2000/svg" xmlns:xlink="http://www.w3.org/1999/xlink">
<path d="M919.918,449.458C903.822,392.682 935.16,332.876 903.026,279.078C892.822,261.992 876.876,246.95 863.478,230.98C843.248,206.868 828.702,180.357 820.776,153.156C815.59,135.361 813.196,117.242 805.878,99.744C785.574,51.201 724.922,11.231 658.162,2.395C604.358,-4.727 548.686,4.39 504.684,25.022C307.044,117.703 204.076,73.863 135.081,105.838C91.836,125.88 70.534,163.148 57.694,200.406C44.85,237.662 39.707,303.096 21.041,345.236C-40.941,485.168 49.817,534.96 90.285,549.604C91.73,550.126 97.836,550.854 99.324,551.312L202.442,552.824C222.956,549.966 269.782,550.992 286.446,551.456C351.882,553.278 406.098,549.82 463.154,550.422C605.3,551.918 738.408,552.456 872.308,551.646C891.9,551.53 903.256,546.506 917.806,537.576C933.314,528.058 937.22,511.128 934.698,495.564C932.178,480.004 924.294,464.9 919.918,449.458Z" fill="#F8F8FF"/>
<g opacity="0.5">
<g opacity="0.5">
<path d="M474.64,137.591L574.989,137.591L621.082,41.916L520.733,41.916L474.64,137.591Z" fill="#E4E4FF"/>
</g>
<g opacity="0.5">
<path d="M636.384,41.916L590.291,137.591L690.64,137.591L736.733,41.916L636.384,41.916Z" fill="#E4E4FF"/>
</g>
<g opacity="0.5">
<path d="M423.93,242.854L524.279,242.854L570.372,147.177L470.023,147.177L423.93,242.854Z" fill="#E4E4FF"/>
</g>
<g opacity="0.5">
<path d="M539.581,242.854L639.93,242.854L686.023,147.177L585.671,147.177L539.581,242.854Z" fill="#E4E4FF"/>
</g>
</g>
<path d="M507.096,372.974C506.85,373.217 506.97,373.638 507.308,373.709C509.933,374.265 518.179,376.065 518.191,376.766C518.202,377.599 510.794,376.168 510.402,376.835C510.01,377.502 517.272,378.713 517.143,379.603C517.014,380.496 510.428,379.168 510.242,379.526C510.056,379.883 516.227,381.827 516.467,382.399C516.705,382.969 509.864,381.695 509.515,382.065C509.166,382.434 513.594,384.884 513.428,385.288C513.262,385.691 513.219,385.989 501.666,383.33L497.164,382.09L494.035,379.093L495.981,374.262C495.981,374.262 509.915,368.053 510.448,368.388C510.954,368.706 510.883,369.218 507.096,372.974Z" fill="#FFC0BB"/>
<path d="M449.76,310.977L462.589,361.912L497.819,372.947C497.819,372.947 497.026,383.071 497.123,383.008C497.221,382.945 450.324,383.412 445.2,379.353C440.076,375.294 438.654,320.171 438.654,320.171L449.76,310.977Z" fill="#7683C4"/>
<path d="M389.518,539.061L396.832,539.033C397.421,539.03 397.934,538.56 398.057,537.902C398.137,537.47 398.489,537.178 398.867,537.226L398.964,537.221C399.714,537.318 398.97,537.636 398.964,538.497L401.343,541.102L402.785,542.407C404.417,543.881 406.412,544.74 408.493,544.863L410.666,544.989C411.321,545.026 411.934,545.361 412.369,545.919L412.578,546.186C413.402,547.239 413.854,548.607 413.843,550.018L396.935,550.227C396.359,550.224 395.798,550.033 395.317,549.678L392.99,548.009L392.973,550.204L388.245,550.17L388.313,541.228C388.316,540.026 388.468,539.064 389.518,539.061Z" fill="#3C2340"/>
<path d="M392.993,550.143L388.259,550.143L388.259,550.721L392.993,550.721L392.993,550.143Z" transform="rotate(-1.015 390.626 550.432)" fill="#07085B"/>
<path d="M413.843,550.491L396.262,550.649C396.193,550.649 396.139,550.594 396.139,550.529L396.136,550.073L413.84,549.916L413.843,550.491Z" fill="#07085B"/>
<path d="M437.99,539.061L445.303,539.033C445.893,539.03 446.402,538.56 446.528,537.902C446.608,537.47 446.96,537.178 447.338,537.226L447.436,537.221C448.186,537.318 447.441,537.636 447.436,538.497L449.814,541.102L451.257,542.407C452.888,543.881 454.884,544.74 456.964,544.863L459.137,544.989C459.792,545.026 460.405,545.361 460.84,545.919L461.049,546.186C461.873,547.239 462.326,548.607 462.314,550.018L445.406,550.227C444.831,550.224 444.27,550.033 443.789,549.678L441.462,548.009L441.445,550.204L436.716,550.17L436.785,541.228C436.788,540.026 436.939,539.064 437.99,539.061Z" fill="#3C2340"/>
<path d="M441.467,550.143L436.732,550.143L436.732,550.721L441.467,550.721L441.467,550.143Z" transform="rotate(-1.015 439.099 550.432)" fill="#07085B"/>
<path d="M462.314,550.491L444.733,550.649C444.664,550.649 444.61,550.594 444.61,550.529L444.607,550.073L462.311,549.916L462.314,550.491Z" fill="#07085B"/>
<path d="M412.423,282.076C412.423,282.076 409.022,267.807 416.911,262.391C424.797,256.978 433.192,257.508 438.923,260.674C444.653,263.839 448.137,274.997 445.609,281.406L426.609,275.446L412.423,282.076Z" fill="#06055E"/>
<path d="M421.565,294.796L420.907,310.925L435.058,309.632L432.806,295.471L421.565,294.796Z" fill="#FFC0BB"/>
<path d="M433.876,302.207L432.806,295.471L421.565,294.796L421.339,300.38C423.658,302.504 427.759,304.628 433.876,302.207Z" fill="#F99893"/>
<path d="M441.756,283.072C440.981,284.872 441.519,286.836 442.959,287.457C444.398,288.078 446.196,287.122 446.972,285.322C447.747,283.521 447.209,281.558 445.769,280.937C444.33,280.315 442.532,281.271 441.756,283.072Z" fill="#F99893"/>
<path d="M441.024,293.679C441.49,292.907 441.891,292.082 442.212,291.221C443.128,288.902 443.614,286.432 443.869,284.274C443.923,283.81 444.003,283.352 444.095,282.894C444.456,281.045 444.49,279.081 444.095,277.049C442.824,270.517 437.306,265.505 430.679,264.881C421.754,264.039 414.223,270.949 414.049,279.674C413.11,279.127 412.048,278.984 411.1,279.385C409.286,280.152 408.59,282.616 409.552,284.883C410.511,287.153 412.761,288.37 414.578,287.603C414.83,287.497 415.059,287.354 415.265,287.188C415.875,294.627 421.843,300.478 429.142,300.503C432.711,300.515 435.972,299.129 438.448,296.842C438.614,296.711 438.788,296.553 438.971,296.373C439.773,295.574 440.448,294.661 441.024,293.679Z" fill="#FFC0BB"/>
<path d="M432.614,279.895C432.68,280.762 432.726,281.609 432.806,282.436C432.895,283.246 433.021,284.111 433.373,284.666L433.441,284.755C433.467,284.789 433.473,284.806 433.527,284.864C433.61,284.97 433.708,285.055 433.77,285.181C433.911,285.41 434.014,285.682 434.031,285.968C434.077,286.541 433.796,287.068 433.43,287.4C432.683,288.084 431.684,288.19 430.845,288.021C431.687,287.835 432.485,287.508 432.935,286.933C433.141,286.65 433.272,286.335 433.209,286.049C433.187,285.908 433.132,285.771 433.043,285.642C433.012,285.573 432.94,285.519 432.895,285.456L432.78,285.316L432.651,285.153C432.359,284.7 432.253,284.237 432.182,283.784C432.119,283.329 432.107,282.889 432.13,282.448C432.173,281.578 432.322,280.719 432.614,279.895Z" fill="#F99893"/>
<path d="M427.636,281.26C427.633,281.99 427.038,282.582 426.308,282.579C425.578,282.576 424.986,281.981 424.989,281.251C424.991,280.521 425.587,279.929 426.317,279.932C427.049,279.935 427.639,280.53 427.636,281.26Z" fill="#333333"/>
<path d="M439.003,282.045C439,282.775 438.404,283.367 437.675,283.364C436.945,283.362 436.352,282.766 436.355,282.036C436.358,281.306 436.953,280.714 437.683,280.717C438.416,280.72 439.006,281.315 439.003,282.045Z" fill="#333333"/>
<path d="M429.168,278.202C428.487,278.025 427.846,277.893 427.213,277.821C426.583,277.753 425.968,277.761 425.375,277.861C424.786,277.967 424.193,278.122 423.629,278.408C423.329,278.517 423.071,278.709 422.768,278.852C422.476,279.012 422.21,279.213 421.883,279.376C422.038,279.061 422.218,278.752 422.433,278.468C422.67,278.208 422.899,277.916 423.203,277.713C423.764,277.246 424.485,276.96 425.218,276.834C425.956,276.714 426.718,276.788 427.405,277.029C428.08,277.272 428.71,277.653 429.168,278.202Z" fill="#07085B"/>
<path d="M435.021,278.603C435.533,278.108 436.203,277.796 436.907,277.627C437.614,277.461 438.381,277.47 439.103,277.67C439.818,277.874 440.502,278.234 441.012,278.761C441.292,278.996 441.484,279.31 441.693,279.594C441.876,279.9 442.022,280.226 442.14,280.556C441.833,280.361 441.587,280.132 441.315,279.94C441.029,279.766 440.794,279.545 440.505,279.408C439.976,279.061 439.403,278.847 438.828,278.678C438.247,278.515 437.637,278.437 437.005,278.44C436.372,278.44 435.719,278.5 435.021,278.603Z" fill="#07085B"/>
<path d="M414.995,280.572C414.122,279.822 413.452,279.882 413.452,279.882L413.827,275.259L415.25,272.469C415.25,272.469 420.843,264.952 421.04,264.766C421.238,264.58 425.52,262.138 425.783,262.012C426.047,261.886 432.066,262.768 432.066,262.768C432.066,262.768 442.634,260.561 440.874,266.097C439.113,271.636 431.405,274.57 431.007,274.326C432.255,273.081 432.37,269.56 432.37,269.56C426.922,275.511 416.604,279.908 414.995,280.572Z" fill="#06055E"/>
<path d="M435.949,289.933C435.651,291.593 434.111,292.881 432.222,292.932C430.333,292.981 428.73,291.776 428.346,290.133L435.949,289.933Z" fill="#FFFFFF"/>
<path d="M417.309,307.113L437.234,307.059L439.756,318.832L428.824,347.421C428.824,347.421 417.893,335.648 417.893,333.968C417.893,332.285 412.847,319.673 413.688,317.99C414.527,316.307 417.309,307.113 417.309,307.113Z" fill="#FFC0BB"/>
<path d="M453.564,388.471C445.131,401.157 428.28,419.459 428.28,419.459L436.049,542.395C436.049,542.395 447.298,543.611 451.165,540.623C451.165,540.623 454.113,424.076 453.564,388.471Z" fill="#010066"/>
<path d="M450.862,392.579C450.834,390.781 454.12,396.082 454.057,394.648C452.769,364.788 411.84,389.825 411.84,389.825L403.244,388.019L387.452,541.293C387.452,541.293 397.725,543.56 403.61,541.293L428.771,420.353C428.771,420.353 437.773,416.491 450.862,392.579Z" fill="#01008A"/>
<path d="M398.191,414.772C397.962,414.511 397.536,414.606 397.444,414.941C396.732,417.525 394.433,425.649 393.732,425.617C392.902,425.58 394.777,418.272 394.135,417.84C393.494,417.408 391.843,424.584 390.961,424.401C390.079,424.218 391.803,417.726 391.459,417.517C391.116,417.311 388.797,423.353 388.213,423.556C387.629,423.76 389.318,417.007 388.972,416.638C388.625,416.269 385.909,420.539 385.517,420.35C385.125,420.159 384.83,420.099 388.185,408.729L389.696,404.31L392.879,401.367L397.585,403.603C397.585,403.603 402.934,417.889 402.568,418.398C402.216,418.885 401.709,418.779 398.191,414.772Z" fill="#FFC0BB"/>
<path d="M419.075,308.964C419.075,308.964 429.019,314.986 436.902,308.964C436.902,308.964 441.384,320.8 440.961,321.226C440.534,321.653 435.857,334.407 435.857,334.831C435.857,335.258 430.33,340.358 427.78,336.531C425.229,332.704 423.529,333.131 420.126,325.05C416.725,316.973 414.172,314.42 415.022,313.569C415.875,312.722 419.075,308.964 419.075,308.964Z" fill="#3C2340"/>
<path d="M417.89,307.059C417.89,307.059 397.708,308.742 393.503,315.468C389.298,322.195 379.208,360.877 380.05,372.65C380.891,384.423 388.459,407.127 388.459,407.127C388.459,407.127 395.186,407.969 397.711,403.764C397.711,403.764 392.664,371.808 393.506,369.287C394.347,366.765 403.595,340.697 403.595,340.697L401.912,391.991C401.912,391.991 422.095,404.605 454.048,394.513C454.048,394.513 458.252,311.263 447.321,308.742L437.231,307.059L433.026,331.446L417.89,307.059Z" fill="#838CCF"/>
<path d="M570.651,295.015L570.62,297.599L570.325,304.025L582.974,302.36L584.353,300.485L584.462,295.604L584.877,291.03L576.47,291.03L570.651,295.015Z" fill="#FFC0BB"/>
<path d="M590.038,261.794C590.038,261.794 594.833,258.33 600.603,261.316C606.374,264.301 606.869,275.23 604.771,277.946C602.675,280.663 605.163,284.098 600.886,287.713C596.61,291.328 589.615,292.899 585.407,289.095C581.199,285.288 583.75,276.257 583.75,276.257L590.038,261.794Z" fill="#06055E"/>
<path d="M562.992,276.168C563.784,278.06 563.203,280.11 561.695,280.745C560.184,281.38 558.317,280.364 557.524,278.472C556.732,276.58 557.313,274.531 558.821,273.895C560.33,273.26 562.199,274.276 562.992,276.168Z" fill="#F99893"/>
<path d="M585.015,289.873C585.015,289.873 584.68,292.466 584.462,295.604C581.634,297.893 577.982,299.067 574.172,298.575C572.918,298.411 571.73,298.077 570.62,297.601C570.708,295.555 570.677,293.66 570.362,292.75C569.492,290.251 585.015,289.873 585.015,289.873Z" fill="#F99893"/>
<path d="M563.656,287.278C563.175,286.465 562.766,285.598 562.436,284.693C561.503,282.26 561.017,279.67 560.77,277.408C560.719,276.925 560.639,276.444 560.547,275.963C560.186,274.025 560.172,271.97 560.602,269.849C561.99,263.025 567.798,257.833 574.722,257.243C584.05,256.447 591.85,263.749 591.95,272.88C592.935,272.316 594.045,272.179 595.03,272.605C596.919,273.427 597.62,276.009 596.596,278.376C595.571,280.74 593.212,281.994 591.323,281.172C591.06,281.058 590.825,280.906 590.611,280.732C589.906,288.509 583.618,294.577 575.998,294.531C572.271,294.511 568.879,293.028 566.315,290.613C566.143,290.472 565.963,290.306 565.774,290.114C564.947,289.27 564.248,288.308 563.656,287.278Z" fill="#FFC0BB"/>
<path d="M577.389,275.718C577.384,276.542 578.048,277.212 578.869,277.218C579.691,277.224 580.36,276.56 580.366,275.735C580.372,274.911 579.708,274.241 578.886,274.235C578.065,274.232 577.395,274.897 577.389,275.718Z" fill="#333333"/>
<path d="M565.19,276.271C565.184,277.095 565.848,277.765 566.67,277.771C567.491,277.776 568.161,277.112 568.167,276.288C568.172,275.464 567.508,274.794 566.687,274.788C565.865,274.785 565.195,275.449 565.19,276.271Z" fill="#333333"/>
<path d="M572.723,273.085C572.755,273.566 572.781,274.044 572.783,274.525C572.792,275.003 572.786,275.481 572.761,275.959C572.732,276.434 572.689,276.909 572.595,277.37C572.503,277.831 572.368,278.289 572.117,278.661C572.082,278.704 572.054,278.755 572.016,278.793C571.979,278.835 571.948,278.873 571.902,278.921C571.859,278.967 571.816,279.013 571.776,279.064C571.736,279.113 571.696,279.165 571.664,279.222C571.524,279.437 571.427,279.688 571.401,279.949C571.347,280.476 571.581,280.988 571.931,281.343C572.28,281.706 572.729,281.947 573.193,282.09C573.659,282.23 574.149,282.282 574.627,282.256C574.386,282.239 574.149,282.207 573.917,282.164C573.682,282.119 573.456,282.05 573.236,281.964C572.798,281.795 572.389,281.543 572.082,281.2C571.779,280.859 571.59,280.413 571.65,279.975C571.676,279.757 571.756,279.548 571.879,279.362C571.908,279.316 571.942,279.271 571.976,279.228C572.011,279.182 572.048,279.142 572.088,279.102L572.214,278.964C572.26,278.918 572.294,278.864 572.331,278.81C572.474,278.598 572.577,278.366 572.658,278.131C572.738,277.897 572.795,277.656 572.838,277.416C572.921,276.932 572.958,276.448 572.964,275.965C572.981,274.997 572.889,274.032 572.723,273.085Z" fill="#F99893"/>
<path d="M576.027,273.291C576.685,272.902 577.375,272.601 578.082,272.392C578.792,272.189 579.519,272.092 580.24,272.129C580.601,272.143 580.962,272.201 581.314,272.284C581.491,272.321 581.663,272.378 581.84,272.43C581.929,272.455 582.012,272.493 582.098,272.521C582.184,272.553 582.273,272.581 582.356,272.621C583.034,272.908 583.678,273.297 584.311,273.732C583.83,273.134 583.223,272.624 582.536,272.246C582.192,272.057 581.826,271.9 581.442,271.794C581.062,271.685 580.667,271.614 580.269,271.597C579.473,271.559 578.672,271.703 577.948,272.003C577.584,272.149 577.238,272.335 576.914,272.55C576.594,272.764 576.284,273.005 576.027,273.291Z" fill="#07085B"/>
<path d="M570.039,273.564C569.755,273.301 569.429,273.089 569.088,272.903C568.745,272.72 568.384,272.565 568.009,272.453C567.259,272.222 566.449,272.15 565.662,272.259C565.267,272.31 564.881,272.416 564.509,272.559C564.136,272.7 563.787,272.888 563.461,273.109C562.808,273.55 562.253,274.108 561.826,274.749C562.416,274.26 563.023,273.813 563.673,273.467C563.753,273.421 563.836,273.384 563.919,273.346C564.002,273.309 564.082,273.263 564.168,273.232C564.337,273.163 564.506,273.092 564.677,273.04C565.021,272.926 565.373,272.837 565.731,272.791C566.446,272.691 567.182,272.72 567.906,272.86C568.633,273 569.346,273.235 570.039,273.564Z" fill="#07085B"/>
<path d="M560.805,261.676C563.275,251.469 576.614,250.51 576.614,250.51C597.334,251.011 594.901,269.313 594.357,272.347C593.754,272.235 592.932,272.29 591.956,272.879C591.547,273.125 591.217,273.383 590.951,273.638C588.484,273.005 587.565,268.989 586.217,267.097C584.388,264.527 576.92,266.236 573.977,264.487C571.035,262.738 570.611,259.85 570.611,259.85C559.674,262.1 560.373,273.758 560.373,273.758C559.892,273.672 559.305,273.752 559.305,273.752C559.305,273.752 558.601,270.793 560.805,261.676Z" fill="#06055E"/>
<path d="M569.169,284.263C569.615,285.795 571.467,286.9 573.648,286.825C575.826,286.751 577.601,285.52 577.942,283.963L569.169,284.263Z" fill="#FFFFFF"/>
<path d="M513.298,342.29L499.495,335.889L502.418,328.696C502.418,328.696 509.007,330.978 515.76,333.219L513.298,342.29Z" fill="#FFC0BB"/>
<path d="M544.2,545.354L556.099,537.921L566.435,544.112L562.846,546.697L550.354,548.523C550.354,548.523 545.474,547.919 545.256,547.776C545.044,547.63 544.2,545.354 544.2,545.354Z" fill="#FFC0BB"/>
<path d="M572.907,437.497C572.907,437.497 571.204,478.695 571.046,485.808C570.889,492.921 567.262,545.709 565.685,550.291L556.852,549.659C556.852,549.659 550.827,447.455 552.721,437.497C554.613,427.542 572.907,437.497 572.907,437.497Z" fill="#FFC0BB"/>
<path d="M544.2,545.354L541.186,547.318C539.789,548.211 540.419,550.378 542.076,550.378L564.975,550.378C565.782,550.378 566.438,549.722 566.438,548.912L566.438,544.109C551.187,548.975 545.918,547.496 544.2,545.354Z" fill="#838CCF"/>
<path d="M600.337,545.714L611.094,536.703L622.188,541.403L618.991,544.46L606.872,547.998C606.872,547.998 601.954,548.078 601.719,547.964C601.488,547.852 600.337,545.714 600.337,545.714Z" fill="#FFC0BB"/>
<path d="M613.836,434.924C613.836,434.924 617.852,475.962 618.679,483.026C619.506,490.09 623.224,542.872 622.294,547.63L613.458,548.225C613.458,548.225 593.341,447.839 593.839,437.714C594.337,427.596 613.836,434.924 613.836,434.924Z" fill="#FFC0BB"/>
<path d="M600.337,545.715L597.623,548.076C596.364,549.153 597.289,551.214 598.929,550.985L621.607,547.813C622.406,547.701 622.964,546.96 622.852,546.159L622.188,541.401C607.756,548.337 602.335,547.598 600.337,545.715Z" fill="#07085B"/>
<path d="M610.232,375.446L619.169,365.559L612.697,358.827L601.765,372.987C601.765,372.987 608.137,390.11 608.518,390.871C608.898,391.633 610.184,390.871 610.184,390.871C609.8,387.94 609.98,379.677 610.101,375.489C610.184,375.46 610.232,375.446 610.232,375.446Z" fill="#FFC0BB"/>
<path d="M558.95,363.225C558.95,363.225 547.148,376.432 546.144,418.8C545.139,461.169 547.349,476.429 547.349,476.429C547.349,476.429 579.745,484.326 624.856,469.401C624.856,469.401 613.744,389.284 597.414,361.977C597.414,361.974 578.382,350.619 558.95,363.225Z" fill="#01008A"/>
<path d="M504.353,330.291C504.298,329.632 502.53,328.768 502.53,328.768C501.03,328.132 497.978,327.36 495.213,327.468C494.346,327.503 493.762,328.37 494.071,329.18L495.625,329.246C495.58,329.292 495.522,329.329 495.451,329.343C495.03,329.438 494.429,329.572 493.736,329.732L494.38,336.717C495.746,336.422 497.523,337.759 500.122,337.132L503.58,336.141C503.334,335.721 503.105,335.291 502.922,334.842C502.647,334.143 502.429,333.422 502.269,332.692C502.117,331.965 504.416,331.035 504.353,330.291Z" fill="#FFC0BB"/>
<path d="M490.373,338.273L492.225,337.835C493.149,337.618 494.025,337.171 494.801,336.53L495.222,336.181C496.166,335.397 496.813,334.194 497.014,332.838L497.117,332.139C497.223,331.432 497.097,330.702 496.768,330.098C496.37,329.368 495.711,328.902 494.984,328.833L492.88,328.63L490.373,338.273ZM491.418,336.613L493.127,330.05L494.558,330.187C495.053,330.236 495.499,330.553 495.771,331.049C495.995,331.458 496.081,331.956 496.009,332.437L495.937,332.912C495.8,333.834 495.362,334.655 494.718,335.188L494.432,335.425C493.905,335.863 493.307,336.164 492.677,336.313L491.418,336.613Z" fill="#84E532"/>
<path d="M474.052,327.012L474.155,326.998L483.626,327.276L493.201,326.995L493.218,327.007C493.218,327.007 493.247,327.024 493.247,327.081C493.252,328.071 492.815,337.7 488.827,341.765C488.827,341.765 486.097,342.183 483.623,342.131C481.15,342.186 478.039,341.296 478.039,341.296C474.066,337.245 473.994,328.137 474,327.092C474.006,327.029 474.052,327.012 474.052,327.012Z" fill="#84E532"/>
<path d="M474.006,327.092C474.006,327.03 474.052,327.012 474.052,327.012L474.155,326.998L483.626,327.276L484.202,327.259C482.178,328.515 480.297,330.364 480.2,332.92C480.045,337.068 482.458,341.115 485.993,341.963C485.218,342.071 484.39,342.146 483.623,342.129C481.15,342.183 478.039,341.293 478.039,341.293C474.069,337.248 474,328.137 474.006,327.092Z" fill="#64C513"/>
<path d="M474.004,327.092C474.004,328.512 478.326,329.665 483.633,329.665C488.943,329.665 493.245,328.514 493.245,327.092C493.245,325.672 488.943,324.519 483.633,324.519C478.323,324.521 474.004,325.672 474.004,327.092Z" fill="#64C513"/>
<path d="M492.062,328.306L489.088,329.108L486.732,329.46L483.532,329.54L480.397,329.38L478.377,329.122L476.596,328.704L475.337,328.175C475.337,328.175 475.01,327.877 474.776,327.671C476.15,326.698 479.884,326 484,326C488.176,326 491.521,326.718 492.846,327.714L492.062,328.306Z" fill="#294F0A"/>
<g opacity="0.5">
<path d="M475.941,327.368C475.964,327.308 476.004,327.271 476.05,327.257C478.646,326.555 481.162,326.301 483.423,326.295C483.429,326.295 483.435,326.295 483.443,326.295C483.449,326.295 483.455,326.295 483.463,326.295C485.725,326.301 488.241,326.553 490.837,327.257C490.883,327.268 490.925,327.308 490.946,327.368C490.983,327.471 490.968,327.646 490.613,327.846C489.646,328.181 488.636,328.238 487.648,328.015C486.612,327.78 485.175,327.546 483.446,327.494C481.717,327.546 480.283,327.78 479.244,328.015C478.254,328.238 477.246,328.181 476.279,327.846C475.918,327.646 475.904,327.471 475.941,327.368Z" fill="#559C19"/>
</g>
<path d="M491.667,327.171C491.34,327.031 491.005,326.925 490.671,326.824C490.336,326.727 489.995,326.641 489.657,326.564C489.317,326.487 488.976,326.424 488.633,326.364C488.461,326.332 488.289,326.306 488.117,326.281C487.946,326.255 487.774,326.232 487.602,326.209C486.915,326.117 486.222,326.06 485.533,326.02C484.84,325.98 484.15,325.963 483.457,325.963C482.075,325.969 480.689,326.049 479.316,326.246C478.629,326.346 477.945,326.472 477.266,326.638C476.928,326.721 476.591,326.816 476.256,326.925C475.921,327.033 475.589,327.151 475.268,327.305C475.348,327.268 475.431,327.234 475.511,327.202C475.594,327.171 475.677,327.139 475.758,327.111C475.924,327.051 476.09,326.996 476.259,326.945C476.593,326.842 476.931,326.753 477.269,326.676C477.947,326.515 478.631,326.398 479.318,326.306C480.005,326.218 480.695,326.149 481.385,326.106C482.075,326.063 482.768,326.046 483.457,326.043C484.84,326.037 486.222,326.103 487.596,326.269C487.768,326.289 487.94,326.312 488.112,326.335C488.283,326.361 488.455,326.384 488.627,326.412C488.97,326.467 489.311,326.53 489.652,326.601C489.992,326.673 490.33,326.75 490.668,326.842C490.837,326.887 491.003,326.936 491.172,326.99C491.34,327.045 491.504,327.105 491.667,327.171Z" fill="#FFFFFF"/>
<path d="M474.004,327.092C474.004,328.512 478.326,329.665 483.633,329.665C488.943,329.665 493.245,328.514 493.245,327.092C493.245,325.672 488.943,324.519 483.633,324.519C478.323,324.521 474.004,325.672 474.004,327.092ZM474.405,327.092C474.405,325.775 478.546,324.71 483.633,324.71C488.719,324.71 492.844,325.778 492.844,327.095C492.844,328.411 488.719,329.479 483.633,329.479C478.546,329.479 474.405,328.409 474.405,327.092Z" fill="#84E532"/>
<path d="M497.764,330.343C497.764,330.904 496.708,331.362 495.402,331.362C494.097,331.362 493.041,330.907 493.041,330.343C493.041,329.782 494.097,329.324 495.402,329.324C496.708,329.327 497.764,329.782 497.764,330.343Z" fill="#FCB7B4"/>
<path d="M497.581,331.956C497.581,332.518 496.524,332.976 495.219,332.976C493.914,332.976 492.858,332.52 492.858,331.956C492.858,331.393 493.914,330.938 495.219,330.938C496.522,330.938 497.581,331.393 497.581,331.956Z" fill="#FCB7B4"/>
<path d="M497.406,333.741C497.406,334.302 496.35,334.76 495.045,334.76C493.739,334.76 492.683,334.305 492.683,333.741C492.683,333.177 493.739,332.722 495.045,332.722C496.347,332.722 497.406,333.177 497.406,333.741Z" fill="#FCB7B4"/>
<path d="M497.289,335.528C497.289,336.089 496.232,336.547 494.927,336.547C493.622,336.547 492.566,336.092 492.566,335.528C492.566,334.964 493.622,334.509 494.927,334.509C496.232,334.509 497.289,334.964 497.289,335.528Z" fill="#FCB7B4"/>
<path d="M636.5,338.324C633.377,327.793 609.37,300.306 600.981,298.88C592.591,297.452 585.541,300.039 585.541,300.039C585.541,300.039 576.974,305.484 569.566,301.645C569.566,301.645 567.588,301.313 564.709,301.777C564.709,301.777 548.943,315.619 556.448,332.791C556.448,332.791 558.769,349.925 558.947,363.221C558.947,363.221 562.25,370.271 578.757,369.824C595.268,369.378 597.409,361.97 597.409,361.97C597.409,361.97 599.372,329.485 602.137,324.221C602.137,324.221 619.718,338.321 620.076,339.927C620.434,341.532 610.885,359.202 607.67,363.129C607.67,363.129 609.9,368.078 617.485,369.841C617.494,369.847 639.626,348.854 636.5,338.324Z" fill="#FF5B7E"/>
<path d="M564.712,301.777C560.43,302.464 554.15,304.906 549.401,312.803C541.458,326.01 533.249,334.4 533.249,334.4L514.062,332.259C514.062,332.259 511.741,339.578 512.903,342.878C512.903,342.878 526.914,351.268 535.035,348.589C543.155,345.912 556.454,332.794 556.454,332.794C548.946,315.62 564.712,301.777 564.712,301.777Z" fill="#F24C78"/>
<path d="M781.311,453.738L788.244,552.828L784.778,552.828L773.8,454.812L781.311,453.738Z" fill="#FFFFFF"/>
<path d="M708.493,453.738L701.56,552.828L705.026,552.828L716.003,454.812L708.493,453.738Z" fill="#FFFFFF"/>
<path d="M811.567,352.093C811.567,352.093 756.149,350.449 752.562,350.707C748.975,350.962 745.658,362.494 745.658,362.494C745.658,362.494 729.468,422.555 729.792,424.207C730.115,425.859 714.69,464.561 714.69,464.561C714.69,464.561 727.997,464.206 728.584,464.561C729.173,464.916 780.041,460.196 780.748,459.723C781.455,459.251 784.045,450.401 784.163,449.931C784.28,449.459 788.167,415.004 788.167,415.004L790.168,396.007C790.168,396.007 797.822,379.709 797.939,379.657C798.057,379.606 805.121,365.328 805.593,364.621C806.065,363.914 813.364,356.008 813.599,355.298C813.837,354.588 811.567,352.093 811.567,352.093Z" fill="#FEE4CB"/>
<g opacity="0.5">
<path d="M811.567,352.092C811.567,352.092 792.461,351.525 775.959,351.11C782.374,354.883 785.969,365.439 783.301,384.217C781.034,400.174 778.512,417.492 768.465,438.258C763.29,448.955 741.007,442.964 722.742,444.02C718.806,454.233 714.693,464.558 714.693,464.558C714.693,464.558 728,464.203 728.587,464.558C729.176,464.913 780.044,460.193 780.751,459.72C781.458,459.248 784.048,450.397 784.165,449.928C784.283,449.456 788.17,415.001 788.17,415.001L790.171,396.004C790.171,396.004 797.825,379.705 797.942,379.654C798.059,379.602 805.124,365.325 805.596,364.618C806.068,363.911 813.367,356.005 813.602,355.295C813.837,354.588 811.567,352.092 811.567,352.092Z" fill="#FEE4CB"/>
</g>
<path d="M704.566,466.674C704.448,464.777 705.877,463.145 707.766,463.016C713.688,462.616 726.494,461.697 739.667,460.449C764.916,458.053 774.044,456.092 777.313,455.068C778.441,454.713 779.308,453.797 779.594,452.649C780.482,449.12 781,441.795 781.435,435.666C783.083,412.413 785.803,374.068 809.695,353.016C811.186,351.702 813.482,351.936 814.693,353.514C815.795,354.951 815.606,357 814.246,358.196C792.481,377.308 789.982,412.553 788.307,436.159C787.351,449.615 786.764,456.218 783.825,459.292C782.408,460.775 779.769,463.532 741.379,467.221C727.76,468.529 714.352,469.491 708.23,469.906C706.326,470.032 704.683,468.584 704.566,466.674Z" fill="#E8B891"/>
<path d="M204.096,453.738L197.164,552.828L200.63,552.828L211.607,454.812L204.096,453.738Z" fill="#FFFFFF"/>
<path d="M276.918,453.738L283.85,552.828L280.384,552.828L269.407,454.812L276.918,453.738Z" fill="#FFFFFF"/>
<path d="M173.841,352.093C173.841,352.093 229.259,350.449 232.846,350.707C236.432,350.962 239.75,362.494 239.75,362.494C239.75,362.494 255.939,422.555 255.616,424.207C255.293,425.859 270.718,464.561 270.718,464.561C270.718,464.561 257.414,464.206 256.824,464.561C256.234,464.916 205.367,460.196 204.66,459.723C203.953,459.251 201.363,450.401 201.245,449.931C201.128,449.459 197.241,415.004 197.241,415.004L195.24,396.007C195.24,396.007 187.586,379.709 187.469,379.657C187.351,379.606 180.287,365.328 179.815,364.621C179.342,363.914 172.043,356.008 171.809,355.298C171.574,354.588 173.841,352.093 173.841,352.093Z" fill="#FEE4CB"/>
<g opacity="0.5">
<path d="M173.841,352.092C173.841,352.092 192.947,351.525 209.449,351.11C203.034,354.883 199.439,365.439 202.107,384.217C204.374,400.174 206.895,417.492 216.942,438.258C222.118,448.955 244.401,442.964 262.663,444.02C266.599,454.233 270.715,464.558 270.715,464.558C270.715,464.558 257.408,464.203 256.821,464.558C256.231,464.913 205.364,460.193 204.657,459.72C203.95,459.248 201.36,450.397 201.242,449.928C201.125,449.456 197.238,415.001 197.238,415.001L195.237,396.004C195.237,396.004 187.583,379.705 187.466,379.654C187.348,379.602 180.284,365.325 179.812,364.618C179.339,363.911 172.04,356.005 171.806,355.295C171.574,354.588 173.841,352.092 173.841,352.092Z" fill="#FEE4CB"/>
</g>
<path d="M277.178,469.905C271.055,469.49 257.648,468.529 244.029,467.22C205.639,463.531 203,460.774 201.583,459.292C198.643,456.217 198.053,449.614 197.1,436.158C195.426,412.552 192.927,377.31 171.162,358.195C169.802,357.002 169.613,354.95 170.715,353.513C171.926,351.935 174.221,351.701 175.71,353.015C199.602,374.067 202.321,412.412 203.97,435.666C204.405,441.794 204.923,449.119 205.811,452.648C206.1,453.796 206.967,454.712 208.095,455.067C211.361,456.092 220.492,458.052 245.741,460.448C258.913,461.699 271.719,462.615 277.642,463.016C279.531,463.144 280.959,464.779 280.842,466.671L280.842,466.674C280.725,468.586 279.082,470.034 277.178,469.905Z" fill="#E8B891"/>
<path d="M857.207,476.897C856.789,473.213 856.294,469.446 854.579,466.157C852.496,462.158 848.835,459.276 845.637,456.099C839.661,450.162 835.064,442.849 832.304,434.891C830.169,428.737 829.107,422.182 826.165,416.372C824.37,412.822 821.92,409.651 819.882,406.236C816.003,399.747 813.547,392.308 809.334,386.131C808.183,384.442 805.516,385.327 805.607,387.367C805.888,393.802 808.326,400.148 812.528,405.04C814.137,406.915 816.006,408.603 817.231,410.747C819.458,414.64 819.255,419.392 819.515,423.868C820.005,432.284 822.381,440.582 826.419,447.981C830.707,455.841 836.899,462.84 839.191,471.495C840.909,477.981 840.399,485.258 844.063,490.879C844.461,491.489 844.913,492.102 845.01,492.82C845.065,493.226 845.002,493.636 844.939,494.039C844.856,494.563 844.776,495.084 844.693,495.605C843.86,500.915 842.998,507.667 847.569,511.64C850.738,514.394 854.814,514.454 857.09,510.799C859.38,507.115 859.176,501.725 859.008,497.58C858.727,490.679 857.986,483.758 857.207,476.897Z" fill="#84E532"/>
<path d="M865.442,472.626C863.665,466.48 860.903,460.629 859.52,454.381C858.178,448.321 858.169,442.058 858.163,435.853C858.157,429.052 858.155,422.254 858.149,415.455C858.146,411.222 858.14,406.966 857.439,402.792C855.931,393.81 851.253,385.504 850.461,376.43C850.117,372.506 850.515,368.541 850.083,364.625C849.837,362.39 849.261,360.106 848.222,358.122C847.106,355.99 844.023,356.081 843.013,358.268C840.74,363.18 839.3,368.493 840.216,373.756C840.766,376.914 842.137,379.859 843.161,382.896C847.718,396.424 845.3,411.397 848.823,425.228C849.888,429.401 851.497,433.497 851.683,437.802C852.132,448.104 844.421,457.515 845.128,467.803C845.709,476.238 851.783,483.216 854.336,491.277C855.765,495.788 856.071,500.605 857.599,505.085C858.787,508.566 861.552,512.79 865.846,511.734C869.922,510.732 868.691,507.412 868.508,504.241C867.895,493.512 868.473,483.105 865.442,472.626Z" fill="#A4FC59"/>
<path d="M874.771,478.26C874.59,475.065 874.052,471.857 874.499,468.688C874.877,466.015 875.944,463.493 876.706,460.902C878.134,456.048 878.486,450.95 878.833,445.901C879.462,436.721 880.089,427.544 880.719,418.365C881.695,404.096 882.677,389.79 885.35,375.738C886.091,371.837 886.924,367.612 885.17,364.051C884.801,363.301 884.071,362.506 883.272,362.755C882.702,362.932 882.425,363.559 882.219,364.117C876.374,379.966 874.167,397.026 867.643,412.606C866.081,416.338 864.263,420.011 863.456,423.975C862.485,428.735 863.018,433.653 863.144,438.51C863.324,445.477 862.643,452.496 860.716,459.191C859.709,462.694 858.358,466.118 857.805,469.721C857.116,474.215 857.694,478.792 858.126,483.318C858.956,492.016 859.237,500.77 858.968,509.505C858.81,514.641 863.152,514.506 866.032,511.352C868.044,509.145 868.027,506.723 868.714,503.975C870.972,494.959 875.32,488.035 874.771,478.26Z" fill="#84E532"/>
<path d="M847.63,492.185C843.789,486.025 836.135,482.525 833.682,475.692C833.058,473.955 832.811,472.086 832.05,470.403C830.355,466.667 826.5,464.555 822.713,462.837C822.186,462.6 821.588,462.981 821.579,463.556C821.568,464.475 822.003,465.351 822.764,465.863C825.684,467.824 827.902,470.821 828.89,474.198C830.061,478.203 829.554,482.591 831.008,486.501C832.23,489.781 834.743,492.466 835.926,495.76C837.005,498.774 836.893,502.066 837.4,505.226C837.906,508.386 839.315,511.741 842.223,513.078C852.742,517.918 850.112,496.164 847.63,492.185Z" fill="#A4FC59"/>
<path d="M891.392,490.149C891.229,493.126 891.684,496.249 890.517,498.994C889.77,500.748 888.427,502.168 887.322,503.725C883.449,509.192 882.044,516.938 876.093,520.018C875.701,520.221 875.263,520.401 874.828,520.321C874.218,520.207 873.818,519.62 873.574,519.05C872.114,515.658 873.752,511.834 874.722,508.273C874.891,507.649 875.034,506.954 874.736,506.381C874.41,505.752 873.663,505.477 873.151,504.982C872.134,503.994 872.229,502.363 872.432,500.96C872.936,497.457 873.646,493.982 874.556,490.558C875.071,488.618 875.667,486.66 876.786,484.994C878.019,483.159 879.811,481.791 881.486,480.351C888.897,473.988 894.573,465.627 897.753,456.39C898.44,454.392 899.052,452.28 900.475,450.714C901.894,449.148 904.428,448.341 906.159,449.558C907.39,450.422 902.347,458.517 901.76,459.487C900.08,462.261 900.057,464.674 899.107,467.757C896.782,475.308 891.839,482.063 891.392,490.149Z" fill="#84E532"/>
<path d="M885.528,493.596C886.63,490.757 887.737,487.877 888.101,484.852C888.505,481.488 887.969,478.051 888.545,474.713C889.283,470.423 891.791,466.65 893.033,462.474C893.929,459.46 894.149,456.294 894.687,453.197C896.227,444.338 900.401,435.682 899.201,426.771C898.941,424.834 898.065,422.575 896.136,422.243C894.39,421.945 892.801,423.537 892.349,425.249C891.896,426.96 892.234,428.764 892.357,430.53C892.704,435.456 891.295,440.485 888.444,444.515C885.702,448.385 881.726,451.302 879.259,455.352C876.234,460.321 875.821,466.389 874.276,472C871.204,483.157 863.502,492.889 862.099,504.373C861.541,508.944 862.614,514.5 866.842,516.324C879.067,521.605 882.76,500.741 885.528,493.596Z" fill="#A4FC59"/>
<path d="M864.157,501.988L862.202,501.988L836.103,501.988C834.185,501.988 832.768,503.78 833.212,505.646L843.439,548.682C843.757,550.022 844.953,550.966 846.33,550.966L862.202,550.966L864.157,550.966L880.029,550.966C881.406,550.966 882.599,550.022 882.92,548.682L893.147,505.646C893.591,503.78 892.177,501.988 890.256,501.988L864.157,501.988Z" fill="#FFFFFF"/>
<g opacity="0.3">
<path d="M838.536,501.988L836.1,501.988C834.182,501.988 832.766,503.78 833.209,505.646L843.436,548.682C843.754,550.022 844.951,550.966 846.327,550.966L862.199,550.966L864.154,550.966L880.026,550.966C881.403,550.966 882.597,550.022 882.917,548.682L883.295,547.088C864.149,536.371 845.469,521.45 838.536,501.988Z" fill="#C9EAFD"/>
</g>
<path d="M723.308,21.563L723.308,60.915C720.658,61.33 718.539,64.84 718.396,69.188C709.984,72.869 703.698,85.182 703.523,99.878L743.29,100.353C743.465,85.655 737.477,73.198 729.153,69.316C729.142,67.98 728.938,66.72 728.589,65.598C727.776,63.26 726.302,61.848 726.302,61.848C726.065,61.648 725.813,61.479 725.555,61.336L725.555,22.643C724.811,22.279 724.061,21.918 723.308,21.563Z" fill="#84E532"/>
<path d="M398.987,65.364L398.987,136.059C396.663,136.912 394.885,140.184 394.754,144.154C386.341,147.835 380.055,160.149 379.881,174.844L419.648,175.319C419.822,160.621 413.834,148.164 405.51,144.283C405.499,142.946 405.296,141.684 404.947,140.565C404.134,138.226 402.66,136.815 402.66,136.815C402.219,136.443 401.741,136.168 401.234,136.008L401.234,64.706C400.487,64.926 399.734,65.15 398.987,65.364Z" fill="#4F8F19"/>
<path d="M519.533,78.4C519.522,77.063 519.318,75.801 518.969,74.681C518.156,72.343 516.682,70.932 516.682,70.932C516.141,70.477 515.543,70.165 514.91,70.03L514.91,20.522C514.157,20.832 513.408,21.146 512.66,21.464L512.66,70.322C510.508,71.361 508.899,74.501 508.773,78.271C500.361,81.952 494.075,94.266 493.9,108.961L533.667,109.436C533.845,94.741 527.857,82.281 519.533,78.4Z" fill="#84E532"/>
<path d="M657.537,162.268C657.711,147.57 651.723,135.113 643.4,131.232C643.388,129.895 643.185,128.633 642.836,127.514C642.023,125.175 640.549,123.764 640.549,123.764C640.008,123.309 639.409,122.997 638.777,122.862L638.777,0.533C638.027,0.487 637.277,0.444 636.527,0.404L636.527,123.151C634.374,124.19 632.766,127.33 632.64,131.1C624.227,134.781 617.942,147.095 617.767,161.79L657.537,162.268Z" fill="#4F8F19"/>
<path d="M728.744,330.839L728.744,344.595C728.744,345.36 728.36,346.055 727.756,346.382C725.916,347.366 721.803,348.981 717.964,346.407C717.446,346.061 717.14,345.408 717.14,344.721L717.14,332.296L728.744,330.839Z" fill="#FFC0BB"/>
<path d="M728.744,340.099L728.744,333.642L717.14,334.918L717.14,340.397C719.315,341.058 723.368,341.719 728.744,340.099Z" fill="#F99893"/>
<path d="M713.353,344.106C713.771,344.381 731.858,344.106 731.858,344.106C731.858,344.106 733.853,346.079 733.518,346.411C733.186,346.743 726.299,351.48 726.299,351.48L717.137,350.235L713.353,344.106Z" fill="#FFC0BB"/>
<path d="M661.2,351.211C661.2,351.211 654.056,397.756 664.263,407.288C674.47,416.823 693.726,391.494 693.726,391.494L697.839,374.949L679.857,380.579L673.351,388.597L669.988,345.418L661.2,351.211Z" fill="#FFC0BB"/>
<path d="M667.919,336.018L668.013,336.101L673.3,340.698C673.875,341.199 673.907,342.081 673.371,342.622L661.578,354.498C661.186,354.893 660.588,355.001 660.084,354.761C658.931,354.217 656.787,353.075 654.723,351.283C652.662,349.491 651.234,347.525 650.535,346.457C650.229,345.991 650.252,345.384 650.59,344.94L660.717,331.616C661.178,331.009 662.056,330.92 662.632,331.418L667.919,336.018Z" fill="#84E532"/>
<path d="M662.806,328.613C663.384,328.227 664.031,328.198 664.423,328.539L670.117,333.49L670.211,333.573L675.904,338.525C676.299,338.869 676.36,339.51 676.056,340.137L675.049,342.226C674.765,342.813 674.001,342.971 673.511,342.541L667.191,337.043L667.097,336.96L660.777,331.461C660.284,331.035 660.336,330.256 660.877,329.895L662.806,328.613Z" fill="#24410C"/>
<path d="M665.228,327.631C665.434,327.397 665.789,327.371 666.026,327.577L671.284,332.151L671.379,332.234L676.637,336.808C676.872,337.014 676.898,337.369 676.692,337.607L675.578,338.886L670.16,333.539L664.114,328.914L665.228,327.631Z" fill="#1B3406"/>
<path d="M671.645,345.172L666.184,350.481C666.092,350.573 665.952,350.596 665.835,350.539C665.059,350.164 662.096,348.652 659.203,346.136C656.309,343.617 654.402,340.895 653.922,340.18C653.85,340.071 653.853,339.931 653.93,339.828L658.43,333.682C658.55,333.516 658.799,333.513 658.922,333.676C661.218,336.713 668.253,342.833 671.58,344.685C671.763,344.782 671.794,345.028 671.645,345.172Z" fill="#489506"/>
<path d="M660.74,340.798C659.426,341.826 659.191,343.724 660.219,345.04C661.246,346.354 663.144,346.589 664.461,345.561C665.775,344.534 666.009,342.636 664.982,341.319C663.954,340.003 662.056,339.771 660.74,340.798Z" fill="#F3FDFF"/>
<path d="M664.189,524.376L662.343,539.215L652.416,539.984L652.571,526.228L664.189,524.376Z" fill="#FFC0BB"/>
<path d="M637.328,550.847L664.452,551.03C665.045,551.033 665.523,550.567 665.517,549.986L665.511,549.204C665.505,548.623 665.022,548.151 664.429,548.145L637.305,547.962C636.713,547.959 636.235,548.426 636.24,549.007L636.246,549.788C636.252,550.369 636.736,550.841 637.328,550.847Z" fill="#FFFFFF"/>
<path d="M664.083,539.377L665.122,547.409C665.251,548.4 664.693,549.293 663.951,549.29L638.158,549.115C637.489,549.11 636.822,548.697 636.464,547.924C636.098,547.132 636.014,545.944 637.154,544.352C639.435,541.169 647.015,540.442 650.701,537.737L662.715,537.817C663.39,537.82 663.968,538.482 664.083,539.377Z" fill="#EA426E"/>
<path d="M652.57,542.405C652.756,542.294 652.822,541.987 652.711,541.753C652.195,540.651 650.587,537.963 647.372,538.49C647.186,538.521 647.063,538.761 647.098,539.01L647.098,539.019C647.132,539.259 647.301,539.42 647.478,539.391C650.361,538.927 651.726,541.298 652.144,542.222C652.233,542.42 652.416,542.5 652.57,542.405Z" fill="#FFFFFF"/>
<path d="M649.9,543.421C650.086,543.309 650.152,543.003 650.04,542.768C649.525,541.666 647.916,538.978 644.702,539.505C644.516,539.537 644.392,539.777 644.427,540.026L644.427,540.035C644.458,540.275 644.63,540.435 644.808,540.407C647.69,539.943 649.055,542.313 649.473,543.238C649.565,543.435 649.745,543.512 649.9,543.421Z" fill="#FFFFFF"/>
<path d="M647.415,544.368C647.601,544.257 647.667,543.95 647.556,543.716C647.04,542.614 645.432,539.926 642.217,540.452C642.031,540.484 641.908,540.724 641.942,540.973L641.942,540.982C641.974,541.225 642.146,541.383 642.323,541.354C645.206,540.89 646.571,543.26 646.989,544.185C647.08,544.38 647.264,544.46 647.415,544.368Z" fill="#FFFFFF"/>
<g opacity="0.3">
<path d="M657.067,549.241C659.042,542.772 662.54,542.08 664.455,542.243L665.125,547.407C665.253,548.397 664.695,549.29 663.954,549.287L657.067,549.241Z" fill="#E87B50"/>
</g>
<path d="M679.428,524.693L675.04,539.011L664.936,539.08L666.696,528.629L679.428,524.693Z" fill="#FFC0BB"/>
<path d="M650.424,551.11L677.547,551.293C678.14,551.296 678.618,550.829 678.612,550.248L678.606,549.467C678.601,548.886 678.117,548.414 677.524,548.408L650.401,548.225C649.808,548.222 649.33,548.688 649.336,549.269L649.342,550.051C649.344,550.632 649.831,551.107 650.424,551.11Z" fill="#FFFFFF"/>
<path d="M677.178,539.64L678.217,547.672C678.346,548.662 677.788,549.555 677.047,549.553L651.254,549.378C650.584,549.372 649.917,548.96 649.559,548.187C649.19,547.394 649.11,546.206 650.249,544.615C652.531,541.432 660.11,540.705 663.797,538L675.813,538.08C676.483,538.086 677.061,538.747 677.178,539.64Z" fill="#F76390"/>
<path d="M665.663,542.671C665.849,542.559 665.915,542.253 665.803,542.018C665.288,540.916 663.679,538.228 660.465,538.755C660.279,538.787 660.156,539.027 660.19,539.276L660.19,539.285C660.221,539.525 660.39,539.685 660.571,539.657C663.453,539.193 664.818,541.563 665.236,542.488C665.328,542.685 665.508,542.762 665.663,542.671Z" fill="#FFFFFF"/>
<path d="M662.992,543.687C663.178,543.576 663.244,543.27 663.133,543.035C662.617,541.933 661.012,539.245 657.794,539.772C657.608,539.803 657.485,540.044 657.519,540.293L657.519,540.301C657.551,540.545 657.72,540.702 657.9,540.673C660.783,540.21 662.148,542.58 662.566,543.504C662.657,543.699 662.838,543.779 662.992,543.687Z" fill="#FFFFFF"/>
<path d="M660.511,544.633C660.697,544.521 660.763,544.215 660.651,543.98C660.136,542.878 658.527,540.19 655.313,540.717C655.127,540.749 655.004,540.989 655.038,541.238L655.038,541.247C655.072,541.487 655.241,541.647 655.419,541.619C658.301,541.155 659.666,543.525 660.084,544.45C660.176,544.647 660.356,544.727 660.511,544.633Z" fill="#FFFFFF"/>
<g opacity="0.3">
<path d="M670.162,549.507C672.137,543.038 675.635,542.345 677.547,542.509L678.217,547.672C678.346,548.663 677.788,549.556 677.046,549.553L670.162,549.507Z" fill="#E87B50"/>
</g>
<path d="M711.346,429.114C711.346,429.114 661.072,434.65 651.486,443.724C641.9,452.797 648.329,521.091 649.926,527.351C649.926,527.351 658.676,531.521 665.6,529.386C672.524,527.251 669.862,497.362 669.862,497.362C669.862,497.362 669.063,468.807 670.128,464.805C671.193,460.804 685.84,457.867 685.84,457.867C685.84,457.867 721.058,439.382 719.725,439.382C718.394,439.382 711.346,429.114 711.346,429.114Z" fill="#010066"/>
<path d="M766.999,441.001C767.211,428.074 763.487,416.957 763.487,416.957L740.92,436.441L740.723,434.701C740.723,434.701 684.24,427.977 676.517,453.595C668.794,479.214 662.935,529.918 662.935,529.918C662.935,529.918 670.391,534.455 680.51,529.918C680.51,529.918 694.822,475.478 700.183,470.14C703.601,466.736 724.837,462.821 737.256,462.635C750.091,462.446 766.75,456.317 766.999,441.001Z" fill="#01008A"/>
<path d="M713.353,344.106C713.353,344.106 700.704,346.411 694.224,353.641C687.743,360.868 678.896,378.813 678.896,378.813C678.896,378.813 685.554,392.134 692.641,393.268L708.43,377.94L713.353,344.106Z" fill="#29589B"/>
<path d="M713.353,344.107C713.353,344.107 701.577,353.828 699.894,362.613C698.211,371.397 701.202,431.776 701.202,431.776C701.202,431.776 710.176,441.497 737.09,438.319C737.09,438.319 762.325,415.14 762.886,414.579C763.447,414.018 751.482,391.531 751.482,391.531C751.482,391.531 765.127,388.033 768.493,383.548C768.493,383.548 764.38,342.049 731.855,344.107C731.855,344.107 723.82,351.212 713.353,344.107Z" fill="#3660AC"/>
<path d="M768.496,383.551C768.496,383.551 766.252,387.18 751.485,391.534C751.485,391.534 756.159,407.291 755.785,410.844C755.424,414.27 726.869,445.369 724.868,447.545L724.671,447.448C724.671,447.448 709.377,452.294 709.194,452.929C709.019,453.533 709.434,453.885 715.036,454.191C715.399,454.211 715.6,454.626 715.382,454.918C713.705,457.185 708.478,464.35 708.956,464.905C709.529,465.566 714.357,459.278 715.13,459.527C715.903,459.776 711.04,465.79 711.764,466.399C712.488,467.009 716.742,461.376 717.137,461.525C717.532,461.676 714.037,467.507 714.249,468.12C714.46,468.732 718.952,462.962 719.481,463.007C720.013,463.053 718.242,468.065 718.654,468.266C719.066,468.466 719.309,468.669 726.537,458.528L729.21,454.415L729.236,454.114C732.098,452.574 768.293,432.841 772.424,417.759C776.72,402.056 768.496,383.551 768.496,383.551Z" fill="#FFC0BB"/>
<path d="M660.445,332.136C661.839,333.501 662.311,335.276 661.501,336.103C660.691,336.93 658.905,336.495 657.511,335.133C656.117,333.767 655.645,331.993 656.455,331.165C657.265,330.338 659.051,330.773 660.445,332.136Z" fill="#FFC0BB"/>
<path d="M658.326,334.3C659.72,335.665 660.193,337.44 659.383,338.267C658.573,339.094 656.787,338.659 655.393,337.297C653.999,335.931 653.526,334.157 654.336,333.329C655.146,332.502 656.933,332.937 658.326,334.3Z" fill="#FFC0BB"/>
<path d="M656.209,336.467C657.603,337.832 658.075,339.607 657.265,340.434C656.455,341.261 654.669,340.826 653.275,339.464C651.881,338.098 651.408,336.324 652.218,335.496C653.028,334.666 654.815,335.101 656.209,336.467Z" fill="#FFC0BB"/>
<path d="M654.088,338.631C655.482,339.996 655.954,341.771 655.144,342.598C654.334,343.425 652.548,342.99 651.154,341.628C649.76,340.262 649.287,338.488 650.097,337.66C650.907,336.83 652.696,337.265 654.088,338.631Z" fill="#FFC0BB"/>
<path d="M714.492,328.43C714.738,330.201 716.315,331.63 718.311,331.761C720.306,331.893 722.052,330.68 722.524,328.956L714.492,328.43Z" fill="#FFFFFF"/>
<path d="M739.698,321.073C739.698,321.073 743.883,306.088 735.762,300.023C727.645,293.957 718.746,294.175 712.552,297.292C706.357,300.409 702.216,312.093 704.626,318.992L724.968,313.462L739.698,321.073Z" fill="#06055E"/>
<path d="M708.633,320.919C709.38,322.859 708.727,324.917 707.179,325.516C705.63,326.114 703.77,325.026 703.023,323.085C702.276,321.145 702.928,319.087 704.477,318.488C706.025,317.89 707.886,318.978 708.633,320.919Z" fill="#F99893"/>
<path d="M708.971,332.193C708.507,331.355 708.121,330.464 707.814,329.537C706.941,327.044 706.526,324.405 706.349,322.106C706.312,321.614 706.243,321.125 706.168,320.635C705.862,318.663 705.908,316.576 706.412,314.441C708.026,307.568 714.069,302.485 721.104,302.098C730.582,301.577 738.261,309.211 738.084,318.465C739.097,317.924 740.228,317.819 741.212,318.282C743.102,319.172 743.734,321.809 742.624,324.176C741.516,326.54 739.086,327.739 737.197,326.849C736.933,326.726 736.699,326.566 736.487,326.38C735.536,334.24 728.982,340.194 721.262,339.919C717.486,339.784 714.094,338.181 711.57,335.654C711.401,335.505 711.223,335.333 711.037,335.133C710.216,334.251 709.537,333.255 708.971,332.193Z" fill="#FFC0BB"/>
<path d="M718.434,317.931C718.328,318.847 718.248,319.743 718.127,320.616C717.999,321.469 717.83,322.382 717.438,322.957L717.36,323.049C717.332,323.083 717.323,323.1 717.266,323.163C717.174,323.272 717.068,323.361 716.997,323.489C716.836,323.727 716.716,324.01 716.688,324.311C716.616,324.918 716.891,325.487 717.263,325.854C718.024,326.609 719.078,326.764 719.971,326.618C719.089,326.386 718.256,326.005 717.807,325.379C717.601,325.069 717.472,324.732 717.552,324.431C717.581,324.282 717.644,324.139 717.744,324.007C717.781,323.936 717.858,323.882 717.91,323.816L718.036,323.673L718.179,323.507C718.505,323.04 718.64,322.551 718.734,322.075C718.817,321.597 718.852,321.128 718.846,320.661C718.832,319.731 718.708,318.812 718.434,317.931Z" fill="#F99893"/>
<path d="M723.643,319.581C723.614,320.357 724.221,321.007 724.994,321.035C725.767,321.064 726.417,320.457 726.445,319.681C726.474,318.906 725.867,318.256 725.094,318.227C724.319,318.202 723.669,318.806 723.643,319.581Z" fill="#333333"/>
<path d="M711.587,319.942C711.558,320.717 712.165,321.367 712.938,321.396C713.711,321.424 714.36,320.817 714.389,320.042C714.418,319.266 713.811,318.616 713.038,318.588C712.265,318.562 711.615,319.169 711.587,319.942Z" fill="#333333"/>
<path d="M722.149,316.274C722.879,316.114 723.56,316 724.233,315.954C724.903,315.905 725.552,315.942 726.176,316.071C726.798,316.209 727.416,316.395 728.003,316.721C728.318,316.847 728.581,317.062 728.896,317.225C729.196,317.408 729.471,317.631 729.812,317.814C729.663,317.474 729.482,317.142 729.268,316.83C729.027,316.544 728.798,316.226 728.486,315.997C727.911,315.479 727.161,315.147 726.391,314.984C725.615,314.823 724.805,314.872 724.07,315.101C723.337,315.336 722.656,315.713 722.149,316.274Z" fill="#07085B"/>
<path d="M715.94,316.462C715.417,315.915 714.724,315.557 713.985,315.349C713.244,315.145 712.434,315.122 711.664,315.303C710.9,315.489 710.161,315.844 709.6,316.379C709.294,316.617 709.076,316.943 708.845,317.235C708.639,317.553 708.47,317.893 708.332,318.237C708.667,318.042 708.933,317.81 709.228,317.618C709.537,317.447 709.795,317.223 710.107,317.086C710.682,316.743 711.295,316.536 711.91,316.379C712.531,316.23 713.178,316.176 713.848,316.202C714.521,316.23 715.205,316.322 715.94,316.462Z" fill="#07085B"/>
<path d="M737.84,318.669C738.796,317.91 739.501,318.002 739.501,318.002L739.295,313.087L737.903,310.07C737.903,310.07 732.299,301.873 732.098,301.666C731.898,301.46 727.47,298.695 727.195,298.552C726.92,298.409 720.52,299.093 720.52,299.093C720.52,299.093 709.434,296.317 711.069,302.259C712.703,308.201 720.735,311.63 721.167,311.387C719.896,310.016 719.922,306.278 719.922,306.278C725.432,312.815 736.166,317.902 737.84,318.669Z" fill="#06055E"/>
<path d="M715.608,328.94C716.078,330.666 717.821,331.885 719.819,331.762C721.814,331.639 723.394,330.216 723.643,328.444L715.608,328.94Z" fill="#FFFFFF"/>
<path d="M325.532,525.895L327.232,539.577L336.389,540.289L336.246,527.598L325.532,525.895Z" fill="#FFC0BB"/>
<path d="M350.303,550.305L325.289,550.474C324.743,550.476 324.302,550.047 324.307,549.512L324.313,548.79C324.319,548.255 324.765,547.817 325.312,547.814L350.326,547.646C350.873,547.643 351.314,548.072 351.308,548.607L351.303,549.329C351.297,549.864 350.85,550.302 350.303,550.305Z" fill="#FFFFFF"/>
<path d="M325.627,539.729L324.668,547.137C324.551,548.05 325.063,548.874 325.747,548.872L349.536,548.711C350.155,548.708 350.767,548.325 351.099,547.612C351.437,546.882 351.514,545.783 350.464,544.317C348.36,541.384 341.37,540.711 337.967,538.218L326.886,538.292C326.268,538.292 325.736,538.902 325.627,539.729Z" fill="#F9A435"/>
<path d="M336.247,542.524C336.075,542.421 336.015,542.137 336.118,541.923C336.593,540.906 338.076,538.428 341.041,538.914C341.213,538.943 341.327,539.166 341.296,539.395L341.296,539.404C341.264,539.627 341.11,539.773 340.944,539.747C338.285,539.321 337.025,541.505 336.639,542.358C336.556,542.535 336.39,542.609 336.247,542.524Z" fill="#FFFFFF"/>
<path d="M338.711,543.459C338.539,543.356 338.479,543.073 338.582,542.858C339.057,541.842 340.54,539.363 343.506,539.85C343.677,539.878 343.792,540.102 343.76,540.331L343.76,540.339C343.729,540.562 343.574,540.708 343.408,540.683C340.749,540.256 339.49,542.44 339.103,543.293C339.02,543.471 338.851,543.545 338.711,543.459Z" fill="#FFFFFF"/>
<path d="M341.001,544.332C340.829,544.229 340.769,543.946 340.872,543.731C341.347,542.715 342.83,540.236 345.795,540.723C345.967,540.751 346.082,540.975 346.05,541.204L346.05,541.212C346.019,541.435 345.864,541.581 345.698,541.556C343.039,541.129 341.78,543.313 341.393,544.166C341.31,544.344 341.141,544.418 341.001,544.332Z" fill="#FFFFFF"/>
<g opacity="0.3">
<path d="M332.099,548.826C330.278,542.86 327.052,542.222 325.286,542.371L324.668,547.134C324.551,548.047 325.063,548.871 325.747,548.868L332.099,548.826Z" fill="#E87B50"/>
</g>
<path d="M311.475,526.185L315.523,539.392L324.842,539.455L323.219,529.814L311.475,526.185Z" fill="#FFC0BB"/>
<path d="M338.227,550.551L313.212,550.72C312.666,550.723 312.225,550.293 312.231,549.758L312.236,549.037C312.242,548.501 312.689,548.063 313.235,548.06L338.25,547.892C338.796,547.889 339.237,548.318 339.231,548.853L339.226,549.575C339.22,550.11 338.773,550.545 338.227,550.551Z" fill="#FFFFFF"/>
<path d="M313.55,539.971L312.591,547.379C312.474,548.292 312.986,549.117 313.67,549.114L337.459,548.953C338.078,548.951 338.69,548.567 339.022,547.854C339.363,547.124 339.437,546.025 338.387,544.56C336.283,541.626 329.29,540.953 325.89,538.46L314.81,538.534C314.191,538.537 313.659,539.147 313.55,539.971Z" fill="#FEB546"/>
<path d="M324.173,542.769C324.001,542.666 323.941,542.382 324.044,542.168C324.519,541.151 326.002,538.673 328.967,539.159C329.139,539.188 329.253,539.411 329.222,539.64L329.222,539.649C329.19,539.872 329.036,540.018 328.87,539.992C326.211,539.566 324.951,541.75 324.565,542.603C324.482,542.78 324.313,542.852 324.173,542.769Z" fill="#FFFFFF"/>
<path d="M326.634,543.701C326.463,543.598 326.402,543.315 326.505,543.1C326.981,542.084 328.463,539.605 331.429,540.092C331.6,540.121 331.715,540.344 331.683,540.573L331.683,540.581C331.652,540.805 331.497,540.951 331.331,540.925C328.672,540.498 327.413,542.682 327.026,543.535C326.943,543.716 326.775,543.787 326.634,543.701Z" fill="#FFFFFF"/>
<path d="M328.924,544.577C328.752,544.474 328.692,544.191 328.795,543.976C329.271,542.96 330.753,540.481 333.719,540.968C333.89,540.996 334.005,541.22 333.973,541.449L333.973,541.457C333.942,541.681 333.787,541.827 333.621,541.801C330.962,541.374 329.703,543.558 329.316,544.411C329.233,544.589 329.064,544.66 328.924,544.577Z" fill="#FFFFFF"/>
<g opacity="0.3">
<path d="M320.022,549.07C318.201,543.104 314.976,542.466 313.209,542.615L312.591,547.378C312.474,548.291 312.986,549.115 313.67,549.113L320.022,549.07Z" fill="#E87B50"/>
</g>
<path d="M282.039,430.759C282.039,430.759 328.406,435.862 337.248,444.232C346.09,452.599 339.203,524.968 337.729,530.744C337.729,530.744 329.66,534.588 323.274,532.619C316.888,530.65 320.303,493.702 320.303,493.702C320.303,493.702 321.039,467.369 320.057,463.676C319.075,459.984 305.565,457.276 305.565,457.276C305.565,457.276 261.078,435.991 262.308,435.991C263.534,435.991 282.039,430.759 282.039,430.759Z" fill="#010066"/>
<path d="M230.71,441.722C230.925,429.8 233.951,419.547 233.951,419.547L254.763,437.517L254.946,435.911C254.946,435.911 307.039,429.711 314.163,453.337C321.285,476.963 325.962,532.911 325.962,532.911C325.962,532.911 320.741,539.775 311.409,535.593C311.409,535.593 297.278,473.52 292.337,468.599C289.18,465.459 230.215,469.146 230.71,441.722Z" fill="#01008A"/>
<path d="M301.712,349.495C301.91,349.684 302.236,349.578 302.284,349.312C302.659,347.237 303.876,340.716 304.426,340.691C305.078,340.662 304.131,346.515 304.663,346.81C305.195,347.102 305.974,341.369 306.678,341.452C307.382,341.535 306.495,346.739 306.781,346.876C307.065,347.014 308.447,342.119 308.891,341.921C309.334,341.721 308.493,347.128 308.791,347.391C309.088,347.658 310.909,344.123 311.229,344.243C311.55,344.363 311.785,344.392 309.97,353.528L309.103,357.095L306.821,359.619L302.98,358.197C302.98,358.197 297.773,347.383 298.025,346.959C298.271,346.556 298.675,346.601 301.712,349.495Z" fill="#FFC0BB"/>
<path d="M285.851,385.725C285.851,385.725 292.953,402.541 305.098,402.73C317.243,402.916 310.144,355.827 310.144,355.827L300.988,355.827C300.988,355.827 299.688,380.867 299.03,381.053C298.371,381.239 292.578,367.225 292.578,367.225L285.851,385.725Z" fill="#EF972E"/>
<path d="M258.876,331.219L258.324,339.328L266.23,344.2L269.376,342.651L269.553,332.61L258.876,331.219Z" fill="#FFC0BB"/>
<path d="M269.438,339.139L269.553,332.61L258.876,331.219L258.647,334.579C260.74,336.271 264.386,338.538 269.438,339.139Z" fill="#F99893"/>
<path d="M247.89,318.98C247.89,318.98 242.704,306.048 250.114,299.951C257.525,293.854 266.167,293.264 272.404,295.486C278.641,297.707 283.538,307.714 281.724,314.048L261.59,310.928L247.89,318.98Z" fill="#06055E"/>
<path d="M279.523,316.753C279.073,318.648 279.983,320.448 281.552,320.777C283.12,321.107 284.758,319.839 285.204,317.946C285.654,316.052 284.743,314.251 283.175,313.922C281.606,313.59 279.972,314.858 279.523,316.753Z" fill="#F99893"/>
<path d="M280.759,327.183C281.088,326.345 281.337,325.472 281.501,324.573C281.993,322.151 282.027,319.661 281.878,317.52C281.847,317.059 281.844,316.601 281.85,316.14C281.87,314.28 281.538,312.365 280.759,310.47C278.26,304.373 271.757,300.555 264.95,301.205C255.782,302.078 249.468,310.207 250.916,318.705C249.868,318.353 248.766,318.416 247.888,318.983C246.199,320.07 245.956,322.592 247.347,324.61C248.738,326.631 251.237,327.384 252.926,326.296C253.16,326.144 253.363,325.964 253.541,325.764C255.542,332.865 262.655,337.414 270.028,336.054C273.635,335.39 276.666,333.429 278.741,330.741C278.884,330.581 279.03,330.398 279.182,330.186C279.849,329.256 280.361,328.242 280.759,327.183Z" fill="#FFC0BB"/>
<path d="M265.503,318.822C265.646,319.587 265.119,320.325 264.324,320.471C263.528,320.617 262.766,320.116 262.623,319.352C262.48,318.588 263.007,317.849 263.803,317.703C264.598,317.56 265.36,318.058 265.503,318.822Z" fill="#333333"/>
<path d="M277.41,317.228C277.553,317.993 277.027,318.731 276.231,318.877C275.435,319.023 274.674,318.522 274.531,317.758C274.387,316.994 274.914,316.255 275.71,316.109C276.506,315.963 277.267,316.464 277.41,317.228Z" fill="#333333"/>
<path d="M266.413,316.334C265.709,316.085 264.99,315.928 264.269,315.856C263.548,315.791 262.826,315.825 262.134,315.985C261.787,316.06 261.45,316.174 261.12,316.312C260.954,316.377 260.797,316.46 260.637,316.538C260.556,316.578 260.482,316.626 260.402,316.669C260.325,316.712 260.244,316.755 260.17,316.807C259.56,317.19 259.002,317.663 258.464,318.175C258.83,317.537 259.328,316.958 259.932,316.489C260.233,316.254 260.562,316.045 260.914,315.879C261.263,315.71 261.636,315.579 262.019,315.493C262.783,315.321 263.582,315.315 264.335,315.467C264.713,315.539 265.079,315.653 265.428,315.796C265.777,315.939 266.115,316.111 266.413,316.334Z" fill="#333333"/>
<path d="M272.258,315.55C272.487,315.258 272.767,315.004 273.065,314.772C273.366,314.543 273.689,314.337 274.033,314.168C274.719,313.822 275.492,313.615 276.274,313.581C276.666,313.561 277.058,313.593 277.442,313.661C277.825,313.727 278.197,313.842 278.549,313.99C279.256,314.285 279.889,314.712 280.41,315.23C279.754,314.875 279.093,314.569 278.403,314.357C278.318,314.328 278.232,314.308 278.143,314.285C278.057,314.265 277.971,314.237 277.882,314.219C277.708,314.185 277.533,314.148 277.356,314.128C277.004,314.082 276.646,314.059 276.291,314.079C275.581,314.108 274.874,314.265 274.199,314.517C273.523,314.783 272.87,315.127 272.258,315.55Z" fill="#333333"/>
<path d="M251.743,317.998C251.743,317.998 261.701,312.508 266.455,305.552C266.455,305.552 266.787,308.97 265.768,310.324C266.172,310.513 273.059,306.763 274.024,301.199C274.988,295.634 265.328,299.02 265.328,299.02C265.328,299.02 259.56,298.883 259.325,299.035C259.093,299.186 255.369,302.055 255.209,302.261C255.046,302.464 250.724,310.396 250.724,310.396L249.733,313.264L248.714,318.278L251.743,317.998Z" fill="#06055E"/>
<g opacity="0.3">
<path d="M268.085,326.746C268.085,326.746 269.708,325.933 271.445,326.726C271.445,326.726 273.036,325.452 274.533,326.265C274.533,326.265 274.233,328.83 271.365,329.042C268.5,329.257 268.085,326.746 268.085,326.746Z" fill="#F99893"/>
</g>
<path d="M266.476,326.058C266.831,326.264 267.197,326.45 267.578,326.605C267.953,326.765 268.339,326.905 268.734,327.011C269.522,327.226 270.337,327.341 271.147,327.298C271.96,327.26 272.759,327.054 273.503,326.722C274.244,326.382 274.926,325.912 275.553,325.377C275.281,325.686 274.983,325.975 274.659,326.239C274.336,326.502 273.978,326.725 273.609,326.931C273.234,327.126 272.836,327.283 272.424,327.398C272.012,327.507 271.585,327.572 271.159,327.601C270.303,327.638 269.45,327.507 268.654,327.232C267.864,326.96 267.111,326.573 266.476,326.058Z" fill="#F99893"/>
<path d="M270.781,317.462C271.273,318.04 271.711,318.658 272.118,319.294C272.524,319.929 272.893,320.59 273.208,321.286C273.357,321.638 273.497,321.996 273.577,322.391C273.595,322.491 273.606,322.594 273.609,322.703C273.609,322.757 273.603,322.817 273.597,322.875C273.58,322.938 273.575,323.001 273.537,323.066C273.517,323.101 273.497,323.132 273.477,323.164L273.423,323.221C273.386,323.258 273.351,323.298 273.314,323.336C273.237,323.404 273.162,323.473 273.079,323.533C272.762,323.782 272.418,323.974 272.066,324.148C271.711,324.317 271.353,324.469 270.978,324.583C271.631,324.171 272.292,323.762 272.833,323.267C272.902,323.207 272.959,323.138 273.022,323.075L273.105,322.975L273.145,322.926C273.148,322.918 273.151,322.909 273.154,322.9C273.191,322.823 273.171,322.634 273.131,322.477C273.051,322.142 272.916,321.801 272.764,321.466C272.472,320.794 272.126,320.133 271.788,319.468C271.451,318.804 271.107,318.143 270.781,317.462Z" fill="#F99893"/>
<path d="M258.324,298.212C258.324,298.212 249.161,280.583 233.85,282.092C218.542,283.6 215.179,296.008 215.875,302.157C216.57,308.305 220.747,315.146 216.802,323.728C212.858,332.309 213.788,345.187 225.847,344.199C237.909,343.212 235.242,330.881 235.359,326.493C235.476,322.105 243.94,322.563 241.854,314.562C239.767,306.562 234.2,298.327 241.968,297.168C249.74,296.008 254.379,299.604 254.379,299.604L258.324,298.212Z" fill="#06055E"/>
<path d="M289.303,338.37L289.303,351.354C289.303,353.919 291.384,355.999 293.949,355.999L300.183,355.999C302.307,355.999 304.096,354.574 304.651,352.63C307.814,352.579 310.373,349.988 310.373,346.811C310.373,343.694 307.912,341.141 304.829,340.998L304.829,338.37L289.303,338.37ZM304.829,350.633L304.829,342.993C306.812,343.136 308.384,344.793 308.384,346.814C308.384,348.835 306.812,350.489 304.829,350.633Z" fill="#70C0FD"/>
<g opacity="0.3">
<path d="M301.568,338.37L304.829,338.37L304.829,351.354C304.829,353.919 302.748,355.999 300.183,355.999L293.949,355.999C292.423,355.999 291.069,355.264 290.222,354.127C303.289,354.511 301.568,338.37 301.568,338.37Z" fill="#4188E4"/>
</g>
<path d="M289.303,338.52C289.303,339.324 292.787,339.974 297.086,339.974C301.385,339.974 304.869,339.324 304.869,338.52C304.869,337.715 301.385,337.065 297.086,337.065C292.787,337.065 289.303,337.715 289.303,338.52Z" fill="#E6F7FF"/>
<path d="M289.93,338.519C289.93,339.137 293.133,339.638 297.083,339.638C301.033,339.638 304.236,339.137 304.236,338.519C304.236,337.9 301.033,337.399 297.083,337.399C293.133,337.399 289.93,337.9 289.93,338.519Z" fill="#70C0FD"/>
<path d="M297.086,339.638C300.899,339.638 303.99,339.269 303.99,338.814C303.99,338.358 300.899,337.989 297.086,337.989C293.273,337.989 290.182,338.358 290.182,338.814C290.182,339.269 293.273,339.638 297.086,339.638Z" fill="#4C2816"/>
<g opacity="0.3">
<path d="M308.97,346.811C308.97,348.829 307.399,350.49 305.415,350.633L305.415,350.544C307.113,350.152 308.381,348.626 308.381,346.811C308.381,344.997 307.113,343.474 305.415,343.079L305.415,342.99C307.402,343.133 308.97,344.794 308.97,346.811Z" fill="#4188E4"/>
</g>
<g opacity="0.2">
<path d="M291.018,350.323C291.367,350.323 291.65,350.039 291.65,349.69L291.65,341.498C291.65,341.149 291.367,340.865 291.018,340.865C290.669,340.865 290.385,341.149 290.385,341.498L290.385,349.69C290.382,350.039 290.666,350.323 291.018,350.323Z" fill="#FFFFFF"/>
</g>
<path d="M290.311,350.75C290.451,350.981 290.795,350.97 290.912,350.724C291.819,348.82 294.708,342.847 295.246,342.97C295.884,343.113 293.431,348.514 293.869,348.935C294.307,349.358 296.565,344.032 297.221,344.295C297.879,344.558 295.655,349.347 295.893,349.556C296.13,349.765 298.749,345.406 299.23,345.328C299.708,345.251 297.478,350.246 297.696,350.581C297.913,350.916 300.598,347.982 300.876,348.185C301.154,348.388 301.374,348.474 297.221,356.815L295.446,360.029L292.581,361.867L289.249,359.486C289.249,359.486 287.068,347.684 287.423,347.34C287.763,347.011 288.141,347.163 290.311,350.75Z" fill="#FFC0BB"/>
<path d="M257.259,337.511C257.259,337.511 239.882,341.621 237.638,352.647C235.396,363.673 225.679,422.16 229.603,441.22C229.603,441.22 240.254,457.665 265.48,440.287C265.48,440.287 275.384,431.691 282.485,430.758L276.131,402.355L288.276,365.17C288.276,365.17 289.77,343.493 273.515,340.505C273.517,340.502 264.922,343.493 257.259,337.511Z" fill="#FEB546"/>
<path d="M242.592,349.19C245.292,346.648 249.705,347.484 251.463,350.75C255.794,358.787 268.142,381.592 269.221,382.362C270.529,383.295 287.721,357.087 287.721,357.087C287.721,357.087 293.886,357.322 296.691,359.566C296.691,359.566 287.348,410.018 270.529,406.097C257.663,403.094 245.893,380.518 241.07,370.074C238.88,365.334 238.296,359.975 239.604,354.92C240.176,352.696 241.104,350.589 242.592,349.19Z" fill="#F9A435"/>
<path d="M281.187,411.59L274,411.59L274,550.389L281.187,550.389L281.187,411.59Z" fill="#02014B"/>
<path d="M349.011,411.59L341.823,411.59L341.823,550.389L349.011,550.389L349.011,411.59Z" fill="#02014B"/>
<path d="M637.689,411.59L630.501,411.59L630.501,550.389L637.689,550.389L637.689,411.59Z" fill="#02014B"/>
<path d="M705.516,411.59L698.328,411.59L698.328,550.389L705.516,550.389L705.516,411.59Z" fill="#02014B"/>
<path d="M725.11,414L246.89,414C246.401,414 246,413.638 246,413.188L246,404.812C246,404.365 246.397,404 246.89,404L725.11,404C725.6,404 726,404.362 726,404.812L726,413.188C726,413.638 725.6,414 725.11,414Z" fill="#FFFFFF"/>
<g opacity="0.2">
<path d="M725.037,413.228L628.704,413.228C628.309,413.228 627.985,412.908 627.985,412.51L627.985,405.096C627.985,404.701 628.306,404.378 628.704,404.378L725.037,404.378C725.432,404.378 725.755,404.699 725.755,405.096L725.755,412.51C725.755,412.908 725.432,413.228 725.037,413.228Z" fill="#E0A689"/>
</g>
<path d="M898.3,550.337L61.694,550.337L61.694,554.184L898.3,554.184L898.3,550.337Z" fill="#07085B"/>
<path d="M370.575,367.913L321.193,367.913L307.19,402.064L283.401,402.064C282.737,402.064 282.196,402.602 282.196,403.266C282.196,403.93 282.734,404.468 283.401,404.468L354.162,404.468L370.575,367.913Z" fill="#84E532"/>
<path d="M342.087,387.399C341.795,388.853 340.527,389.829 339.25,389.572C337.977,389.317 337.178,387.932 337.47,386.475C337.762,385.02 339.03,384.044 340.306,384.302C341.58,384.557 342.379,385.942 342.087,387.399Z" fill="#DAEEF7"/>
<path d="M738.717,242.041L731.083,242.041L731.083,272.926L738.717,272.926L738.717,242.041Z" fill="#FFFFFF"/>
<path d="M793.331,254.089L787.263,254.089L787.263,284.974L793.331,284.974L793.331,254.089Z" transform="rotate(180 790.297 269.531)" fill="#69CA17"/>
<path d="M797.438,248L791.37,248L791.37,278.885L797.438,278.885L797.438,248Z" transform="rotate(180 794.404 263.442)" fill="#FFFFFF"/>
<path d="M791.047,242.063L784.979,242.063L784.979,272.948L791.047,272.948L791.047,242.063Z" transform="rotate(180 788.013 257.506)" fill="#01008A"/>
<path d="M747.544,229.601L739.738,229.601L739.738,272.47L747.544,272.47L747.544,229.601Z" fill="#84E532"/>
<path d="M730.175,234.327L722.985,234.327L722.985,272.471L730.175,272.471L730.175,234.327Z" fill="#01008A"/>
<path d="M762.717,234.308L755.526,234.308L755.526,272.452L762.717,272.452L762.717,234.308Z" transform="rotate(-52.044 759.122 253.38)" fill="#01008A"/>
<path d="M830.61,230.91C828.715,230.91 827.181,232.444 827.181,234.339L827.181,238.157C827.181,238.859 826.614,239.426 825.913,239.426L824.344,239.426L824.344,232.467C824.344,229.928 822.286,227.87 819.747,227.87C817.208,227.87 815.15,229.928 815.15,232.467L815.15,247.111L814.266,247.111C813.147,247.111 812.242,246.204 812.242,245.087L812.242,242.022C812.242,240.127 810.708,238.593 808.813,238.593C806.918,238.593 805.384,240.127 805.384,242.022L805.384,247.111C805.384,250.898 808.452,253.969 812.242,253.969L815.15,253.969L815.15,262.717L824.344,262.717L824.344,246.284L827.181,246.284C830.968,246.284 834.039,243.212 834.039,239.426L834.039,234.336C834.039,232.444 832.505,230.91 830.61,230.91Z" fill="#84E532"/>
<path d="M819.679,262.717L819.679,227.876C817.174,227.913 815.153,229.954 815.153,232.47L815.153,247.114L814.269,247.114C813.15,247.114 812.245,246.207 812.245,245.09L812.245,242.025C812.245,240.13 810.711,238.596 808.816,238.596C806.921,238.596 805.387,240.13 805.387,242.025L805.387,247.114C805.387,250.901 808.455,253.972 812.245,253.972L815.153,253.972L815.153,262.72L819.679,262.72L819.679,262.717Z" fill="#69CA17"/>
<path d="M822.561,272.253L816.794,272.253C814.114,272.253 811.942,270.081 811.942,267.402L811.942,256.782L827.416,256.782L827.416,267.402C827.416,270.081 825.24,272.253 822.561,272.253Z" fill="#01008A"/>
<path d="M840.774,272.254L717.277,272.254L717.277,275.743L840.774,275.743L840.774,272.254Z" fill="#01008A"/>
<path d="M164.528,197.235C183.759,197.235 199.348,181.612 199.348,162.34C199.348,143.067 183.759,127.444 164.528,127.444C145.297,127.444 129.707,143.067 129.707,162.34C129.707,181.612 145.297,197.235 164.528,197.235Z" fill="#01008A"/>
<path d="M164.527,192.217C180.995,192.217 194.345,178.84 194.345,162.339C194.345,145.838 180.995,132.462 164.527,132.462C148.06,132.462 134.71,145.838 134.71,162.339C134.71,178.84 148.06,192.217 164.527,192.217Z" fill="#FFFFFF"/>
<path d="M138.381,156.68L137.534,156.68L137.534,167.672L138.381,167.672L138.381,156.68Z" transform="rotate(-180 137.958 162.176)" fill="#01008A"/>
<path d="M191.589,156.678L190.742,156.678L190.742,167.67L191.589,167.67L191.589,156.678Z" transform="rotate(-180 191.166 162.174)" fill="#01008A"/>
<path d="M164.902,130.432L164.058,130.432L164.058,141.446L164.902,141.446L164.902,130.432Z" fill="#01008A"/>
<path d="M164.902,183.537L164.058,183.537L164.058,194.552L164.902,194.552L164.902,183.537Z" fill="#01008A"/>
<path d="M165.438,162.338C165.438,162.842 165.031,163.251 164.527,163.251C164.024,163.251 163.617,162.842 163.617,162.338C163.617,161.834 164.024,161.425 164.527,161.425C165.028,161.428 165.438,161.834 165.438,162.338Z" fill="#01008A"/>
<path d="M164.527,162.749C164.424,162.749 164.318,162.709 164.241,162.629L147.891,146.244C147.731,146.084 147.731,145.826 147.891,145.669C148.049,145.509 148.309,145.509 148.467,145.669L164.817,162.053C164.977,162.214 164.977,162.471 164.817,162.629C164.734,162.709 164.63,162.749 164.527,162.749Z" fill="#01008A"/>
<path d="M169.783,178.897C169.714,178.862 169.66,178.802 169.634,178.725L164.35,162.73C164.299,162.575 164.382,162.407 164.539,162.355C164.694,162.304 164.863,162.387 164.914,162.544L170.198,178.539C170.25,178.694 170.167,178.862 170.009,178.914C169.932,178.937 169.852,178.931 169.783,178.897Z" fill="#01008A"/>
<path d="M115.334,238.953L107.024,238.953L107.024,272.64L115.334,272.64L115.334,238.953Z" fill="#01008A"/>
<path d="M174.788,252.128L168.17,252.128L168.17,285.746L174.788,285.746L174.788,252.128Z" transform="rotate(180 171.479 268.937)" fill="#84E532"/>
<path d="M179.261,245.487L172.643,245.487L172.643,279.106L179.261,279.106L179.261,245.487Z" transform="rotate(180 175.952 262.296)" fill="#01008A"/>
<path d="M172.301,239.011L165.684,239.011L165.684,272.63L172.301,272.63L172.301,239.011Z" transform="rotate(180 168.992 255.821)" fill="#FFFFFF"/>
<path d="M124.946,225.383L116.447,225.383L116.447,272.142L124.946,272.142L124.946,225.383Z" fill="#FFFFFF"/>
<path d="M106.037,230.538L98.212,230.538L98.212,272.145L106.037,272.145L106.037,230.538Z" fill="#84E532"/>
<path d="M150.198,268.313L143.165,271.757L124.949,234.365L131.985,230.925L150.198,268.313Z" fill="#84E532"/>
<path d="M195.02,271.908L92,271.908L92,275.715L195.02,275.715L195.02,271.908Z" fill="#01008A"/>
<path d="M106.037,233.813L98.212,233.813L98.212,236.513L106.037,236.513L106.037,233.813Z" fill="#FFFFFF"/>
<path d="M113.511,241.805L108.851,241.805L108.851,254.657L113.511,254.657L113.511,241.805Z" fill="#84E532"/>
<path d="M124.946,230.538L116.447,230.538L116.447,232.568L124.946,232.568L124.946,230.538Z" fill="#84E532"/>
<path d="M124.946,265.604L116.447,265.604L116.447,268.267L124.946,268.267L124.946,265.604Z" fill="#84E532"/>
<path d="M344.943,159.96L286.605,159.96L286.605,218.298L344.943,218.298L344.943,159.96Z" fill="#FFFFFF"/>
<path d="M338.963,165.937L292.581,165.937L292.581,212.318L338.963,212.318L338.963,165.937Z" fill="#CACAFD"/>
<path d="M802.221,137.173L755.939,137.173L755.939,183.454L802.221,183.454L802.221,137.173Z" fill="#FFFFFF"/>
<path d="M797.478,141.916L760.68,141.916L760.68,178.715L797.478,178.715L797.478,141.916Z" fill="#CACAFD"/>
<path d="M268.517,127.179L228.524,127.179L228.524,167.172L268.517,167.172L268.517,127.179Z" fill="#FFFFFF"/>
<path d="M264.421,131.276L232.623,131.276L232.623,163.074L264.421,163.074L264.421,131.276Z" fill="#E8E8FF"/>
<path d="M739.243,167.927L708.02,167.927L708.02,199.147L739.243,199.147L739.243,167.927Z" fill="#FFFFFF"/>
<path d="M736.043,171.128L711.22,171.128L711.22,195.95L736.043,195.95L736.043,171.128Z" fill="#E8E8FF"/>
</svg>
