<svg width="28" height="28" viewBox="0 0 28 28" fill="none" xmlns="http://www.w3.org/2000/svg" xmlns:xlink="http://www.w3.org/1999/xlink">
<path d="M12.962,26.291C20.447,26.291 26.515,20.223 26.515,12.738C26.515,5.253 20.447,-0.815 12.962,-0.815C5.476,-0.815 -0.592,5.253 -0.592,12.738C-0.592,20.223 5.476,26.291 12.962,26.291Z" fill="#FF0000"/>
<path d="M8.225,8.006C8.371,7.86 8.568,7.779 8.774,7.779C8.981,7.779 9.178,7.86 9.324,8.006L13.438,12.121L17.553,8.006C17.625,7.932 17.71,7.872 17.805,7.831C17.9,7.79 18.002,7.769 18.106,7.768C18.209,7.767 18.312,7.786 18.407,7.825C18.503,7.864 18.59,7.922 18.663,7.995C18.736,8.068 18.794,8.155 18.833,8.251C18.872,8.347 18.892,8.449 18.891,8.553C18.89,8.656 18.868,8.758 18.827,8.853C18.786,8.948 18.727,9.034 18.652,9.106L14.537,13.219L18.652,17.334C18.794,17.481 18.871,17.677 18.869,17.881C18.867,18.085 18.786,18.279 18.642,18.423C18.498,18.567 18.303,18.649 18.099,18.651C17.896,18.653 17.7,18.575 17.553,18.434L13.438,14.319L9.323,18.434C9.176,18.575 8.98,18.653 8.776,18.651C8.572,18.649 8.378,18.567 8.234,18.423C8.09,18.279 8.008,18.085 8.006,17.881C8.004,17.677 8.082,17.481 8.223,17.334L12.338,13.219L8.225,9.106C8.079,8.96 7.997,8.762 7.997,8.556C7.997,8.35 8.079,8.152 8.225,8.006L8.225,8.006Z" clip-rule="evenodd" fill-rule="evenodd" fill="#FFFFFF" stroke="#FFFFFF" stroke-width="0.339" stroke-miterlimit="3.999327"/>
</svg>
