<svg width="244" height="64" viewBox="0 0 244 64" fill="none" xmlns="http://www.w3.org/2000/svg" xmlns:xlink="http://www.w3.org/1999/xlink">
<path d="M228.783,63.422L14.557,63.422C6.481,63.422 -0.061,56.881 -0.061,48.804L-0.061,15.293C-0.061,7.216 6.481,0.675 14.557,0.675L228.783,0.675C236.859,0.675 243.401,7.216 243.401,15.293L243.401,48.804C243.401,56.881 236.859,63.422 228.783,63.422Z" fill="#01008A"/>
<path d="M30.009,48.512C29.059,48.512 28.292,48.183 27.707,47.489C27.123,46.795 26.867,45.954 26.94,44.931L27.853,36.818C27.926,36.598 27.89,36.489 27.744,36.416C27.598,36.343 27.451,36.379 27.232,36.525L20.544,41.349C19.704,41.971 18.863,42.19 17.986,42.007C17.109,41.824 16.378,41.313 15.83,40.399C15.209,39.303 15.099,38.353 15.465,37.512C15.83,36.672 16.488,36.123 17.365,35.758L24.857,32.359C25.076,32.286 25.149,32.177 25.149,32.067C25.149,31.921 25.039,31.811 24.857,31.775L17.365,28.376C16.415,27.974 15.793,27.316 15.501,26.439C15.245,25.562 15.318,24.648 15.794,23.771C16.342,22.894 17.073,22.346 17.95,22.163C18.827,21.98 19.704,22.163 20.508,22.711L27.196,27.645C27.415,27.791 27.561,27.828 27.707,27.755C27.853,27.681 27.89,27.535 27.817,27.353L26.903,19.24C26.83,18.216 27.122,17.339 27.744,16.681C28.365,15.987 29.169,15.658 30.229,15.658C31.179,15.658 31.983,15.987 32.604,16.681C33.226,17.376 33.445,18.216 33.335,19.24L32.421,27.353C32.348,27.572 32.385,27.681 32.531,27.755C32.677,27.828 32.823,27.791 33.043,27.645L39.73,22.821C40.534,22.2 41.411,21.98 42.362,22.163C43.275,22.346 44.006,22.858 44.481,23.771C45.103,24.868 45.212,25.818 44.847,26.658C44.481,27.462 43.823,28.047 42.946,28.412L35.455,31.811C35.235,31.884 35.162,31.994 35.162,32.103C35.162,32.25 35.272,32.359 35.455,32.396L42.946,35.794C43.897,36.196 44.554,36.854 44.847,37.731C45.139,38.608 45.029,39.522 44.481,40.399C44.006,41.276 43.312,41.824 42.362,42.007C41.448,42.19 40.571,42.007 39.73,41.459L33.043,36.525C32.823,36.379 32.677,36.343 32.531,36.416C32.385,36.489 32.348,36.635 32.421,36.818L33.335,44.931C33.481,45.954 33.225,46.831 32.568,47.489C31.873,48.147 31.033,48.512 30.009,48.512Z" fill="#FFFFFF"/>
<path d="M74.305,48.512C73.354,48.512 72.587,48.183 72.002,47.489C71.417,46.795 71.162,45.954 71.235,44.931L72.148,36.818C72.221,36.598 72.185,36.489 72.039,36.416C71.892,36.343 71.746,36.379 71.527,36.525L64.839,41.349C63.999,41.971 63.158,42.19 62.281,42.007C61.404,41.824 60.673,41.313 60.125,40.399C59.504,39.303 59.394,38.353 59.76,37.512C60.125,36.672 60.783,36.123 61.66,35.758L69.152,32.359C69.371,32.286 69.444,32.177 69.444,32.067C69.444,31.921 69.334,31.811 69.152,31.775L61.66,28.376C60.71,27.974 60.089,27.316 59.796,26.439C59.54,25.562 59.613,24.648 60.088,23.771C60.637,22.894 61.368,22.346 62.245,22.163C63.122,21.98 63.999,22.163 64.803,22.711L71.49,27.645C71.71,27.791 71.856,27.828 72.002,27.755C72.148,27.681 72.185,27.535 72.112,27.353L71.198,19.24C71.125,18.216 71.417,17.339 72.039,16.681C72.66,15.987 73.464,15.658 74.524,15.658C75.474,15.658 76.278,15.987 76.899,16.681C77.52,17.376 77.74,18.216 77.63,19.24L76.716,27.353C76.643,27.572 76.68,27.681 76.826,27.755C76.972,27.828 77.118,27.791 77.338,27.645L84.025,22.821C84.829,22.2 85.706,21.98 86.657,22.163C87.57,22.346 88.265,22.858 88.776,23.771C89.398,24.868 89.507,25.818 89.142,26.658C88.776,27.462 88.118,28.047 87.241,28.412L79.75,31.811C79.53,31.884 79.457,31.994 79.457,32.103C79.457,32.25 79.567,32.359 79.75,32.396L87.241,35.794C88.192,36.196 88.849,36.854 89.142,37.731C89.434,38.608 89.324,39.522 88.776,40.399C88.301,41.276 87.607,41.824 86.657,42.007C85.743,42.19 84.866,42.007 84.025,41.459L77.338,36.525C77.118,36.379 76.972,36.343 76.826,36.416C76.68,36.489 76.643,36.635 76.716,36.818L77.63,44.931C77.776,45.954 77.52,46.831 76.863,47.489C76.205,48.147 75.364,48.512 74.305,48.512Z" fill="#FFFFFF"/>
<path d="M118.633,48.512C117.682,48.512 116.915,48.183 116.33,47.489C115.746,46.795 115.49,45.954 115.563,44.931L116.476,36.818C116.549,36.598 116.513,36.489 116.367,36.416C116.221,36.343 116.074,36.379 115.855,36.525L109.167,41.349C108.327,41.971 107.486,42.19 106.609,42.007C105.732,41.824 105.001,41.313 104.453,40.399C103.832,39.303 103.722,38.353 104.088,37.512C104.453,36.672 105.111,36.123 105.988,35.758L113.48,32.359C113.699,32.286 113.772,32.177 113.772,32.067C113.772,31.921 113.663,31.811 113.48,31.775L105.988,28.376C105.038,27.974 104.417,27.316 104.124,26.439C103.868,25.562 103.942,24.648 104.417,23.771C104.965,22.894 105.696,22.346 106.573,22.163C107.45,21.98 108.327,22.163 109.131,22.711L115.819,27.645C116.038,27.791 116.184,27.828 116.33,27.755C116.476,27.681 116.513,27.535 116.44,27.353L115.526,19.24C115.453,18.216 115.745,17.339 116.367,16.681C116.988,15.987 117.792,15.658 118.852,15.658C119.802,15.658 120.606,15.987 121.227,16.681C121.849,17.376 122.068,18.216 121.958,19.24L121.045,27.353C120.971,27.572 121.008,27.681 121.154,27.755C121.3,27.828 121.447,27.791 121.666,27.645L128.354,22.821C129.158,22.2 130.035,21.98 130.985,22.163C131.898,22.346 132.629,22.858 133.104,23.771C133.726,24.868 133.835,25.818 133.47,26.658C133.104,27.462 132.447,28.047 131.57,28.412L124.078,31.811C123.859,31.884 123.785,31.994 123.785,32.103C123.785,32.25 123.895,32.359 124.078,32.396L131.57,35.794C132.52,36.196 133.177,36.854 133.47,37.731C133.762,38.608 133.653,39.522 133.104,40.399C132.629,41.276 131.935,41.824 130.985,42.007C130.071,42.19 129.194,42.007 128.354,41.459L121.666,36.525C121.447,36.379 121.3,36.343 121.154,36.416C121.008,36.489 120.971,36.635 121.045,36.818L121.958,44.931C122.104,45.954 121.849,46.831 121.191,47.489C120.496,48.147 119.656,48.512 118.633,48.512Z" fill="#FFFFFF"/>
<path d="M162.922,48.512C161.972,48.512 161.204,48.183 160.619,47.489C160.035,46.795 159.779,45.954 159.852,44.931L160.765,36.818C160.839,36.598 160.802,36.489 160.656,36.416C160.51,36.343 160.364,36.379 160.144,36.525L153.456,41.349C152.616,41.971 151.775,42.19 150.898,42.007C150.021,41.824 149.29,41.313 148.742,40.399C148.121,39.303 148.011,38.353 148.377,37.512C148.742,36.672 149.4,36.123 150.277,35.758L157.769,32.359C157.988,32.286 158.061,32.177 158.061,32.067C158.061,31.921 157.952,31.811 157.769,31.775L150.277,28.376C149.327,27.974 148.706,27.316 148.413,26.439C148.158,25.562 148.231,24.648 148.706,23.771C149.254,22.894 149.985,22.346 150.862,22.163C151.739,21.98 152.616,22.163 153.42,22.711L160.108,27.645C160.327,27.791 160.473,27.828 160.619,27.755C160.766,27.681 160.802,27.535 160.729,27.353L159.815,19.24C159.742,18.216 160.035,17.339 160.656,16.681C161.277,15.987 162.081,15.658 163.141,15.658C164.091,15.658 164.895,15.987 165.516,16.681C166.138,17.376 166.357,18.216 166.247,19.24L165.334,27.353C165.26,27.572 165.297,27.681 165.443,27.755C165.589,27.828 165.736,27.791 165.955,27.645L172.643,22.821C173.447,22.2 174.324,21.98 175.274,22.163C176.187,22.346 176.918,22.858 177.393,23.771C178.015,24.868 178.124,25.818 177.759,26.658C177.394,27.462 176.736,28.047 175.859,28.412L168.367,31.811C168.148,31.884 168.074,31.994 168.074,32.103C168.074,32.25 168.184,32.359 168.367,32.396L175.859,35.794C176.809,36.196 177.467,36.854 177.759,37.731C178.051,38.608 177.942,39.522 177.393,40.399C176.918,41.276 176.224,41.824 175.274,42.007C174.36,42.19 173.483,42.007 172.643,41.459L165.955,36.525C165.736,36.379 165.589,36.343 165.443,36.416C165.297,36.489 165.26,36.635 165.334,36.818L166.247,44.931C166.393,45.954 166.138,46.831 165.48,47.489C164.785,48.147 163.945,48.512 162.922,48.512Z" fill="#FFFFFF"/>
<path d="M207.254,48.512C206.303,48.512 205.536,48.183 204.951,47.489C204.367,46.795 204.111,45.954 204.184,44.931L205.097,36.818C205.171,36.598 205.134,36.489 204.988,36.416C204.842,36.343 204.696,36.379 204.476,36.525L197.788,41.349C196.948,41.971 196.107,42.19 195.23,42.007C194.353,41.824 193.622,41.313 193.074,40.399C192.453,39.303 192.343,38.353 192.709,37.512C193.074,36.672 193.732,36.123 194.609,35.758L202.101,32.359C202.32,32.286 202.393,32.177 202.393,32.067C202.393,31.921 202.284,31.811 202.101,31.775L194.609,28.376C193.659,27.974 193.038,27.316 192.745,26.439C192.489,25.562 192.563,24.648 193.038,23.771C193.586,22.894 194.317,22.346 195.194,22.163C196.071,21.98 196.948,22.163 197.752,22.711L204.44,27.645C204.659,27.791 204.805,27.828 204.951,27.755C205.098,27.681 205.134,27.535 205.061,27.353L204.147,19.24C204.074,18.216 204.367,17.339 204.988,16.681C205.609,15.987 206.413,15.658 207.473,15.658C208.423,15.658 209.227,15.987 209.848,16.681C210.47,17.376 210.689,18.216 210.579,19.24L209.666,27.353C209.592,27.572 209.629,27.681 209.775,27.755C209.921,27.828 210.068,27.791 210.287,27.645L216.975,22.821C217.779,22.2 218.656,21.98 219.606,22.163C220.519,22.346 221.25,22.858 221.725,23.771C222.347,24.868 222.456,25.818 222.091,26.658C221.725,27.462 221.068,28.047 220.191,28.412L212.699,31.811C212.48,31.884 212.406,31.994 212.406,32.103C212.406,32.25 212.516,32.359 212.699,32.396L220.191,35.794C221.141,36.196 221.798,36.854 222.091,37.731C222.383,38.608 222.274,39.522 221.725,40.399C221.25,41.276 220.556,41.824 219.606,42.007C218.692,42.19 217.815,42.007 216.975,41.459L210.287,36.525C210.068,36.379 209.921,36.343 209.775,36.416C209.629,36.489 209.592,36.635 209.666,36.818L210.579,44.931C210.725,45.954 210.47,46.831 209.812,47.489C209.117,48.147 208.277,48.512 207.254,48.512Z" fill="#8584FF"/>
</svg>
