<svg width="44" height="44" viewBox="0 0 44 44" fill="none" xmlns="http://www.w3.org/2000/svg" xmlns:xlink="http://www.w3.org/1999/xlink">
<path d="M43.271,4.782L38.989,0.494C38.672,0.178 38.243,0 37.796,0C37.348,0 36.919,0.178 36.603,0.494L20.631,16.454C20.46,16.625 20.328,16.83 20.243,17.056L17.665,23.922C17.552,24.225 17.528,24.555 17.597,24.871C17.666,25.188 17.824,25.477 18.053,25.706C18.282,25.935 18.572,26.094 18.888,26.162C19.205,26.231 19.534,26.207 19.838,26.094L26.703,23.522C26.93,23.437 27.135,23.305 27.306,23.134L43.271,7.168C43.588,6.852 43.765,6.423 43.765,5.975C43.765,5.528 43.588,5.099 43.271,4.782L43.271,4.782ZM25.184,20.483L22.139,21.609L23.265,18.564L37.79,4.067L39.692,5.97L25.184,20.483Z" fill="#01008A"/>
<path d="M39.281,38.701L39.281,24.131C39.281,23.683 39.104,23.254 38.787,22.937C38.47,22.62 38.041,22.442 37.593,22.442C37.145,22.442 36.716,22.62 36.399,22.937C36.083,23.254 35.905,23.683 35.905,24.131L35.905,38.707C35.905,39.154 35.727,39.584 35.41,39.9C35.094,40.217 34.664,40.395 34.216,40.395L5.065,40.395C4.617,40.395 4.188,40.217 3.871,39.9C3.554,39.584 3.377,39.154 3.377,38.707L3.377,9.549C3.377,9.102 3.554,8.672 3.871,8.355C4.188,8.039 4.617,7.861 5.065,7.861L19.635,7.861C20.083,7.861 20.512,7.683 20.829,7.367C21.146,7.05 21.323,6.62 21.323,6.173C21.323,5.725 21.146,5.295 20.829,4.979C20.512,4.662 20.083,4.484 19.635,4.484L5.065,4.484C3.722,4.484 2.433,5.018 1.483,5.968C0.534,6.918 0,8.206 0,9.549L0,38.701C0,40.044 0.534,41.332 1.483,42.282C2.433,43.232 3.722,43.766 5.065,43.766L34.216,43.766C35.56,43.766 36.848,43.232 37.798,42.282C38.748,41.332 39.281,40.044 39.281,38.701L39.281,38.701Z" fill="#01008A"/>
</svg>
