<svg width="248" height="526" viewBox="0 0 248 526" fill="none" xmlns="http://www.w3.org/2000/svg" xmlns:xlink="http://www.w3.org/1999/xlink">
<path d="M100.08,467.306C100.08,467.306 55.577,444.346 63.73,387.994C71.883,331.62 37.423,313.816 28.674,297.036C19.925,280.28 39.538,253.232 37.3,229.554C35.061,205.874 7.768,199.549 20.562,167.06C33.357,134.592 22.534,122.249 5.694,87.46C-11.146,52.671 13.806,-0.498 25.676,-0.211C37.546,0.077 23.068,12.522 33.5,35.646C43.933,58.77 87.922,65.815 101.682,85.16C115.442,104.506 91.249,130.115 106.96,156.217C122.671,182.319 169.453,174.228 181.837,199.549C194.22,224.872 164.709,255.244 173.293,281.798C181.878,308.352 213.484,323.406 226.772,344.744C240.078,366.082 264.99,406.95 224.184,455.744C183.397,504.518 100.08,467.306 100.08,467.306Z" clip-rule="evenodd" fill-rule="evenodd" fill="#84E532"/>
<path d="M20.788,48.031C20.213,46.532 20.952,44.869 22.451,44.294C23.951,43.719 25.614,44.458 26.189,45.957L210.321,524.277L203.4,522.387L20.788,48.031Z" clip-rule="evenodd" fill-rule="evenodd" fill="#A3F65C"/>
<path d="M63.176,410.132C62.95,407.914 62.806,405.614 62.744,403.252L183.685,471.208L172.985,443.422C172.924,443.298 172.883,443.176 172.841,443.072L167.358,428.82L64.962,371.276C64.962,368.936 64.86,366.676 64.716,364.478L164.113,420.338L154.441,395.202L59.828,342.032C58.616,338.828 57.241,335.872 55.741,333.078L151.175,386.7L146.37,374.214C146.308,374.09 146.267,373.966 146.226,373.822L125.196,319.258L30.502,266.046C31.056,264.178 31.631,262.268 32.206,260.358L121.931,310.776L111.437,283.524L36.827,241.587C37.135,239.472 37.361,237.377 37.443,235.283L108.171,275.02L100.285,254.526C100.244,254.422 100.203,254.34 100.162,254.238L77.223,194.661L21.856,163.548C22.554,161.597 23.15,159.728 23.684,157.921L73.978,186.18L53.955,134.16C53.914,134.057 53.872,133.955 53.831,133.852L20.788,48.009C20.213,46.51 20.952,44.846 22.451,44.271C23.951,43.696 25.614,44.435 26.189,45.935L56.214,123.953L73.382,65.321C75.148,66.204 76.915,67.108 78.64,68.012L59.643,132.866L82.213,191.478C82.254,191.56 82.275,191.642 82.295,191.704L103.161,245.92L136.101,175.275C137.95,175.87 139.818,176.445 141.708,176.979L106.056,253.436L114.004,274.096L157.418,181.744C159.287,182.38 161.115,183.058 162.861,183.797L117.516,280.278L118.214,280.668C119.61,281.448 120.103,283.216 119.323,284.612C119.097,285.022 118.789,285.35 118.419,285.598L130.146,316.054C130.187,316.136 130.228,316.218 130.248,316.32L149.224,365.608L181.385,297.2C182.658,298.926 183.993,300.61 185.41,302.252L152.099,373.104L156.987,385.776L192.659,309.912C194.117,311.33 195.596,312.746 197.095,314.122L159.883,393.272L172.328,425.596C172.369,425.678 172.39,425.76 172.431,425.842L175.881,434.796L221.575,337.616C223.013,339.322 224.327,341.046 225.539,342.812L178.777,442.292L191.941,476.486C191.982,476.568 192.002,476.65 192.023,476.732L192.064,476.834C189.784,477.554 187.484,478.15 185.163,478.662L63.176,410.132Z" clip-rule="evenodd" fill-rule="evenodd" fill="#A3F65C"/>
</svg>
