<svg width="36" height="36" viewBox="0 0 36 36" fill="none" xmlns="http://www.w3.org/2000/svg" xmlns:xlink="http://www.w3.org/1999/xlink">
<path d="M14.205,20.204C13.765,20.644 13.765,21.356 14.205,21.796C14.644,22.235 15.356,22.235 15.795,21.796L14.205,20.204ZM32.296,5.295C32.735,4.856 32.735,4.144 32.296,3.705C31.856,3.265 31.144,3.265 30.704,3.705L32.296,5.295ZM15.795,21.796L32.296,5.295L30.704,3.705L14.205,20.204L15.795,21.796Z" fill="#707070"/>
<path d="M31.5,4.5L32.558,4.882C32.706,4.472 32.604,4.013 32.295,3.705C31.987,3.396 31.528,3.294 31.118,3.442L31.5,4.5ZM21.75,31.5L22.773,31.969C22.786,31.94 22.797,31.911 22.808,31.882L21.75,31.5ZM21,31.981L21,33.106L21,31.981ZM20.25,31.5L21.273,31.031C21.267,31.02 21.262,31.008 21.256,30.997L20.25,31.5ZM15,21L16.006,20.497C15.897,20.279 15.721,20.103 15.503,19.994L15,21ZM4.5,15.75L5.003,14.744C4.992,14.738 4.98,14.733 4.969,14.727L4.5,15.75ZM4.019,15L5.144,15L4.019,15ZM4.5,14.25L4.118,13.192C4.088,13.202 4.06,13.214 4.031,13.227L4.5,14.25ZM30.442,4.118L20.692,31.118L22.808,31.882L32.558,4.882L30.442,4.118ZM20.727,31.031C20.751,30.979 20.789,30.935 20.838,30.904L22.053,32.797C22.367,32.596 22.617,32.308 22.773,31.969L20.727,31.031ZM20.838,30.904C20.886,30.873 20.942,30.856 21,30.856L21,33.106C21.373,33.106 21.739,32.999 22.053,32.797L20.838,30.904ZM21,30.856C21.057,30.856 21.114,30.873 21.162,30.904L19.947,32.797C20.261,32.999 20.626,33.106 21,33.106L21,30.856ZM21.162,30.904C21.21,30.935 21.249,30.979 21.273,31.031L19.227,31.969C19.383,32.308 19.632,32.596 19.947,32.797L21.162,30.904ZM21.256,30.997L16.006,20.497L13.994,21.503L19.244,32.003L21.256,30.997ZM15.503,19.994L5.003,14.744L3.997,16.756L14.497,22.006L15.503,19.994ZM4.969,14.727C5.021,14.751 5.065,14.79 5.096,14.838L3.202,16.053C3.404,16.367 3.692,16.617 4.031,16.773L4.969,14.727ZM5.096,14.838C5.127,14.886 5.144,14.943 5.144,15L2.894,15C2.894,15.373 3.001,15.739 3.202,16.053L5.096,14.838ZM5.144,15C5.144,15.057 5.127,15.114 5.096,15.162L3.202,13.947C3.001,14.261 2.894,14.627 2.894,15L5.144,15ZM5.096,15.162C5.065,15.21 5.021,15.249 4.969,15.273L4.031,13.227C3.692,13.383 3.404,13.633 3.202,13.947L5.096,15.162ZM4.882,15.308L31.882,5.558L31.118,3.442L4.118,13.192L4.882,15.308Z" fill="#707070"/>
</svg>
