<svg width="338" height="288" viewBox="0 0 338 288" fill="none" xmlns="http://www.w3.org/2000/svg" xmlns:xlink="http://www.w3.org/1999/xlink">
<path d="M139.379,287.473C127.139,277.945 114.55,273.633 107.875,267.451C94.609,255.169 103.542,224.549 93.931,203.951C84.299,183.374 57.704,186.455 58.752,153.123C59.82,119.792 46.101,112.173 19.753,86.297C-6.596,60.421 -1.256,4.561 9.525,0.988C20.287,-2.565 11.271,13.289 28.111,30.725C44.931,48.181 86.784,40.357 105.39,53.315C123.997,66.274 110.484,97.12 133.012,115.541C155.541,133.983 195.033,111.619 214.318,130.43C233.602,149.242 216.822,186.044 233.088,207.175C249.352,228.307 282.622,231.675 301.454,246.585C312.052,254.965 327.926,267.739 336.058,287.433L139.379,287.433L139.379,287.473Z" clip-rule="evenodd" fill-rule="evenodd" fill="#C6E2AE"/>
<path d="M228.631,287.474L201.872,256.402L99.558,238.988C99.455,237.119 99.373,235.23 99.27,233.32L196.203,249.81L177.987,228.678L97.381,214.96C96.991,212.968 96.498,210.996 95.902,209.086L172.319,222.086L158.621,206.17C158.56,206.088 158.478,206.026 158.416,205.944L118.616,159.737L58.793,149.551C58.793,147.579 58.731,145.69 58.628,143.903L112.968,153.145L78.22,112.79C78.138,112.708 78.076,112.626 78.015,112.544L20.656,45.943C19.65,44.793 19.793,43.047 20.943,42.041C22.093,41.035 23.839,41.179 24.845,42.329L76.967,102.85L73.538,44.588C75.427,44.814 77.296,45.06 79.124,45.306L82.903,109.771L122.066,155.239C122.128,155.301 122.169,155.362 122.23,155.424L158.457,197.483L165.378,123.325C167.226,123.264 169.095,123.161 170.964,123.058L163.489,203.316L177.289,219.334L186.633,122.278C188.523,122.257 190.371,122.278 192.199,122.36L182.444,223.75L183.183,223.873C184.682,224.119 185.709,225.557 185.463,227.056C185.381,227.487 185.216,227.898 184.97,228.227L205.322,251.844C205.383,251.906 205.445,251.988 205.507,252.048L235.941,287.392L228.631,287.392L228.631,287.474ZM238.715,287.474L245.347,218.492C247.053,219.642 248.797,220.731 250.605,221.737L244.279,287.474L238.715,287.474ZM253.707,287.474L259.601,226.317C261.367,227.138 263.153,227.919 264.939,228.678L259.271,287.474L253.707,287.474L253.707,287.474ZM290.117,287.474L294.491,241.944C296.319,243.012 298.085,244.142 299.729,245.334L295.663,287.474L290.117,287.474L290.117,287.474Z" clip-rule="evenodd" fill-rule="evenodd" fill="#E1E8F6"/>
</svg>
