<svg width="1912" height="1356" viewBox="0 0 1912 1356" fill="none" xmlns="http://www.w3.org/2000/svg" xmlns:xlink="http://www.w3.org/1999/xlink">
<path d="M279.116,1325.154C279.116,1325.154 -145.638,1037.976 52.812,610.006C148.019,404.678 401.584,356.494 478.44,398.514C579.782,453.916 714.204,304.247 1004.746,201.48C1384,67.336 1927.46,181.975 1766.488,666.38C1724.026,794.154 2058,1202.154 1679.266,1325.154L279.116,1325.154Z" fill="#EDEFFF"/>
<path d="M1579.547,701.044C1579.473,696.625 1577.625,692.421 1574.423,689.373C1571.219,686.325 1566.931,684.688 1562.511,684.829L1204.954,696.249C1195.856,696.539 1188.704,704.142 1188.974,713.245L1206.616,1305.416C1206.886,1314.404 1214.293,1321.52 1223.281,1321.436L1573.653,1318.028C1578.051,1317.982 1582.255,1316.186 1585.323,1313.032C1588.391,1309.88 1590.077,1305.63 1589.997,1301.226L1579.547,701.044Z" fill="#96A7FE"/>
<g opacity="0.43">
<g opacity="0.43">
<path d="M1542.247,730.006L1223.841,730.006C1220.744,730.006 1218.261,731.657 1218.291,734.595L1218.597,762.396C1218.627,765.344 1221.184,768.527 1224.287,768.532L1543.599,768.787C1546.761,768.792 1549.209,765.359 1549.103,762.381L1548.133,734.665C1548.037,731.702 1545.401,730.006 1542.247,730.006Z" fill="#FFFFFF"/>
</g>
<g opacity="0.43">
<path d="M1544.315,789.912L1224.523,789.381C1221.41,789.376 1218.922,792.344 1218.957,795.307L1219.263,823.718C1219.293,826.691 1221.855,829.514 1224.973,829.524L1545.681,830.41C1548.855,830.42 1551.331,827.587 1551.231,824.584L1550.255,795.917C1550.151,792.925 1547.483,789.917 1544.315,789.912Z" fill="#FFFFFF"/>
</g>
<g opacity="0.43">
<path d="M1546.473,853.951L1225.234,852.86C1222.111,852.85 1219.593,854.292 1219.623,857.279L1219.934,885.936C1219.964,888.939 1222.531,891.206 1225.664,891.221L1547.779,892.652C1550.967,892.667 1553.473,890.4 1553.373,887.373L1552.387,858.451C1552.283,855.438 1549.655,853.961 1546.473,853.951Z" fill="#FFFFFF"/>
</g>
<g opacity="0.43">
<path d="M1548.579,916.409L1225.928,914.768C1222.79,914.753 1220.268,916.784 1220.303,919.802L1220.613,948.709C1220.648,951.737 1223.216,953.444 1226.359,953.464L1549.895,955.456C1553.097,955.476 1555.635,953.784 1555.531,950.731L1554.535,921.554C1554.429,918.506 1551.771,916.424 1548.579,916.409Z" fill="#FFFFFF"/>
</g>
<g opacity="0.43">
<path d="M1550.701,979.413L1226.624,977.206C1223.471,977.186 1220.949,979.823 1220.979,982.861L1221.294,1012.023C1221.329,1015.076 1223.927,1018.384 1227.084,1018.409L1552.097,1020.986C1555.315,1021.011 1557.813,1017.713 1557.707,1014.631L1556.701,985.193C1556.601,982.13 1553.909,979.438 1550.701,979.413Z" fill="#FFFFFF"/>
</g>
<g opacity="0.43">
<path d="M1552.842,1042.977L1227.33,1040.199C1224.167,1040.174 1221.634,1043.422 1221.664,1046.49L1221.985,1075.913C1222.02,1078.995 1224.622,1081.738 1227.795,1081.768L1554.254,1084.921C1557.486,1084.951 1560.014,1082.228 1559.908,1079.121L1558.898,1049.423C1558.788,1046.325 1556.066,1043.002 1552.842,1042.977Z" fill="#FFFFFF"/>
</g>
<g opacity="0.43">
<path d="M1555.073,1109.324L1228.065,1105.945C1224.887,1105.91 1222.325,1107.582 1222.36,1110.68L1222.68,1140.362C1222.715,1143.47 1225.322,1145.642 1228.51,1145.682L1556.425,1149.426C1559.673,1149.461 1562.231,1147.329 1562.125,1144.191L1561.105,1114.223C1560.995,1111.095 1558.311,1109.354 1555.073,1109.324Z" fill="#FFFFFF"/>
</g>
<g opacity="0.43">
<path d="M1557.257,1174.039L1228.786,1170.07C1225.593,1170.03 1223.026,1172.317 1223.061,1175.44L1223.386,1205.388C1223.421,1208.526 1226.034,1210.113 1229.237,1210.158L1558.623,1214.497C1561.887,1214.542 1564.473,1213.005 1564.369,1209.837L1563.337,1179.599C1563.223,1176.446 1560.511,1174.074 1557.257,1174.039Z" fill="#FFFFFF"/>
</g>
<g opacity="0.43">
<path d="M1559.454,1239.329L1229.507,1234.76C1226.299,1234.715 1223.732,1237.628 1223.762,1240.776L1224.087,1270.994C1224.122,1274.157 1226.765,1277.41 1229.983,1277.455L1560.906,1282.425C1564.184,1282.475 1566.732,1279.272 1566.622,1276.079L1565.58,1245.565C1565.474,1242.387 1562.722,1239.375 1559.454,1239.329Z" fill="#FFFFFF"/>
</g>
</g>
<path d="M775.785,1249.73C775.785,1249.73 893.919,524.806 591.453,5.388C587.509,-1.383 577.911,-1.879 573.367,4.507C501.605,105.366 76.265,761.472 775.785,1249.73Z" fill="#01008A"/>
<g opacity="0.52">
<path d="M564.389,216.634C564.389,216.634 563.954,220.618 563.343,228.12C562.718,235.622 561.927,246.637 561.131,260.67C560.28,274.703 559.62,291.759 559.054,311.327C558.889,321.116 558.569,331.526 558.559,342.511C558.514,348.001 558.469,353.632 558.419,359.397C558.439,365.162 558.459,371.058 558.484,377.083C558.474,383.109 558.564,389.255 558.694,395.521C558.809,401.786 558.924,408.167 559.039,414.658C559.254,421.149 559.47,427.751 559.69,434.447C559.8,437.799 559.91,441.173 560.025,444.575C560.185,447.973 560.351,451.397 560.511,454.845C560.846,461.737 561.186,468.723 561.532,475.795C561.922,482.867 562.442,490.013 562.898,497.245C563.739,511.713 565,526.461 566.186,541.465C566.716,548.973 567.587,556.515 568.293,564.127C569.064,571.735 569.734,579.401 570.595,587.099C571.501,594.791 572.407,602.527 573.323,610.309C573.778,614.199 574.238,618.097 574.694,622.005C575.229,625.905 575.77,629.807 576.305,633.721C577.386,641.549 578.472,649.407 579.558,657.293C580.644,665.175 582.026,673.039 583.252,680.935C584.548,688.823 585.699,696.755 587.12,704.647C588.557,712.535 589.993,720.433 591.434,728.329L593.566,740.175C594.287,744.125 595.148,748.037 595.934,751.971C597.54,759.829 599.142,767.677 600.743,775.509C602.255,783.361 604.156,791.109 605.923,798.865C607.71,806.617 609.491,814.345 611.263,822.041C615.041,837.381 619.09,852.525 622.924,867.529C627.223,882.407 631.467,897.101 635.646,911.559C640.225,925.893 644.724,939.987 649.128,953.785C653.928,967.447 658.622,980.819 663.191,993.831C668.006,1006.753 672.99,1019.215 677.645,1031.331C678.831,1034.355 679.957,1037.367 681.163,1040.319C682.419,1043.253 683.66,1046.155 684.896,1049.033C687.359,1054.793 689.781,1060.439 692.148,1065.973C694.515,1071.509 696.837,1076.929 699.105,1082.223C701.552,1087.439 703.944,1092.533 706.271,1097.503C710.931,1107.443 715.35,1116.871 719.504,1125.729C723.983,1134.427 728.172,1142.569 732.05,1150.101C733.987,1153.865 735.849,1157.479 737.625,1160.931C739.407,1164.381 741.054,1167.699 742.835,1170.727C756.633,1195.219 764.515,1209.217 764.515,1209.217L764.535,1209.257C764.831,1209.783 764.645,1210.447 764.119,1210.743C763.599,1211.033 762.943,1210.859 762.643,1210.347C762.643,1210.347 754.465,1196.479 740.163,1172.207C738.326,1169.199 736.624,1165.897 734.788,1162.469C732.951,1159.035 731.034,1155.447 729.032,1151.699C725.029,1144.207 720.7,1136.109 716.07,1127.451C711.766,1118.627 707.187,1109.243 702.358,1099.349C699.96,1094.391 697.498,1089.311 694.981,1084.105C692.654,1078.811 690.276,1073.395 687.844,1067.865C685.412,1062.335 682.935,1056.689 680.402,1050.935C679.136,1048.057 677.86,1045.155 676.574,1042.221C675.337,1039.269 674.176,1036.255 672.955,1033.233C668.166,1021.121 663.046,1008.661 658.086,995.729C653.377,982.707 648.538,969.333 643.588,955.655C639.089,941.829 634.494,927.705 629.825,913.337C625.586,898.839 621.277,884.095 616.918,869.175C613.02,854.127 608.911,838.933 605.067,823.549C603.26,815.825 601.449,808.073 599.632,800.301C597.835,792.519 595.904,784.747 594.362,776.869C592.731,769.013 591.099,761.141 589.463,753.257C588.662,749.315 587.786,745.385 587.05,741.427L584.873,729.541C583.442,721.613 582.011,713.687 580.579,705.763C579.178,697.841 578.047,689.879 576.771,681.957C575.57,674.025 574.203,666.131 573.142,658.219C572.076,650.307 571.01,642.419 569.954,634.563C569.429,630.633 568.898,626.711 568.373,622.801C567.928,618.877 567.477,614.965 567.032,611.065C566.141,603.259 565.255,595.491 564.369,587.769C563.528,580.041 562.878,572.345 562.132,564.717C561.447,557.081 560.596,549.513 560.09,541.977C558.979,526.917 557.678,512.123 556.992,497.605C556.607,490.349 556.157,483.177 555.831,476.085C555.556,468.989 555.281,461.981 555.011,455.065C554.88,451.607 554.75,448.175 554.62,444.765C554.54,441.357 554.46,437.969 554.385,434.611C554.23,427.891 554.075,421.275 553.925,414.763C553.869,408.252 553.814,401.851 553.764,395.571C553.694,389.29 553.664,383.124 553.729,377.088C553.714,352.936 554.42,330.8 555.166,311.197C556.041,291.594 556.977,274.513 558.053,260.47C559.044,246.417 560.135,235.402 560.906,227.89C561.677,220.383 562.202,216.379 562.202,216.379L562.202,216.369C562.282,215.773 562.828,215.353 563.423,215.428C564.039,215.508 564.454,216.044 564.389,216.634Z" fill="#FFFFFF"/>
</g>
<path d="M668.715,1320.592C668.715,1320.592 666.103,474.634 266.881,225.728C259.795,221.309 250.441,224.687 247.769,232.599C216.69,324.63 84.327,824.29 668.715,1320.592Z" fill="#A8A8F6"/>
<g opacity="0.52">
<path d="M300.258,374.241C300.258,374.241 303.731,389.23 310.617,415.299C314.05,428.331 318.329,444.131 323.439,462.198C328.489,480.28 334.494,500.594 341.196,522.709C347.972,544.8 355.409,568.707 363.661,593.866C367.715,606.466 372.114,619.338 376.483,632.536C381.023,645.674 385.522,659.146 390.351,672.754C395.146,686.376 400.01,700.23 405.13,714.188C410.145,728.18 415.415,742.268 420.735,756.472C422.061,760.02 423.392,763.584 424.723,767.146C426.09,770.7 427.456,774.252 428.827,777.816C431.57,784.942 434.317,792.084 437.07,799.252C442.64,813.55 448.38,827.842 454.131,842.132C460.036,856.354 465.806,870.638 471.802,884.76C474.815,891.812 477.823,898.854 480.82,905.876C482.327,909.384 483.828,912.886 485.325,916.386C486.861,919.864 488.398,923.336 489.929,926.804C496.105,940.652 502.059,954.46 508.301,967.948C514.501,981.45 520.453,994.868 526.687,1007.89C529.761,1014.422 532.813,1020.892 535.831,1027.308C537.327,1030.522 538.819,1033.72 540.301,1036.898C541.821,1040.06 543.339,1043.202 544.849,1046.336C550.915,1058.838 556.705,1071.134 562.601,1082.976C565.555,1088.896 568.471,1094.73 571.339,1100.482C574.177,1106.246 576.969,1111.926 579.717,1117.518C585.367,1128.608 590.823,1139.328 596.063,1149.616C601.243,1159.942 606.497,1169.68 611.407,1178.99C616.317,1188.298 620.831,1197.206 625.289,1205.464C634.237,1221.964 642.035,1236.348 648.457,1248.194C654.997,1259.98 660.131,1269.238 663.635,1275.55C667.109,1281.88 668.961,1285.264 668.961,1285.264L668.971,1285.284C669.301,1285.888 669.081,1286.65 668.475,1286.984C667.885,1287.31 667.149,1287.104 666.803,1286.54C666.803,1286.54 664.797,1283.246 661.037,1277.07C657.309,1270.874 651.845,1261.792 644.883,1250.226C641.345,1244.476 637.717,1237.944 633.673,1230.888C629.643,1223.82 625.285,1216.178 620.631,1208.012C611.491,1191.586 601.217,1173.018 590.537,1152.49C585.197,1142.226 579.637,1131.536 573.877,1120.47C571.075,1114.894 568.231,1109.23 565.339,1103.474C562.481,1097.704 559.583,1091.844 556.641,1085.902C545.101,1062.036 532.923,1036.862 521.083,1010.472C509.137,984.134 497.166,956.748 485.39,928.762C479.379,914.824 473.769,900.586 467.818,886.422C461.953,872.224 456.318,857.87 450.542,843.578C444.937,829.214 439.337,814.846 433.757,800.542C431.024,793.366 428.297,786.204 425.579,779.062C424.218,775.494 422.862,771.926 421.505,768.368C420.184,764.794 418.863,761.23 417.547,757.672C412.272,743.44 407.047,729.322 402.072,715.304C396.997,701.32 392.173,687.438 387.424,673.79C382.639,660.152 378.175,646.654 373.681,633.492C369.357,620.27 364.993,607.378 360.984,594.75C352.811,569.548 345.445,545.601 338.738,523.465C332.132,501.304 326.157,480.965 321.067,462.879C315.942,444.802 311.648,428.992 308.21,415.945C301.309,389.866 297.815,374.827 297.815,374.827C297.655,374.151 298.076,373.481 298.746,373.32C299.427,373.145 300.097,373.561 300.258,374.241Z" fill="#FFFFFF"/>
</g>
<path d="M1361.009,507.152C1360.925,503.354 1359.267,499.76 1356.441,497.223C1353.607,494.686 1349.855,493.434 1346.071,493.76L963.604,526.89C956.493,527.506 950.813,533.457 950.813,540.598L950.813,1309.439C950.813,1317.035 957.414,1322.621 965.011,1322.621L1365.513,1322.621C1369.216,1322.621 1372.765,1321.415 1375.353,1318.767C1377.941,1316.119 1379.351,1312.681 1379.267,1308.983L1361.009,507.152Z" fill="#96A7FE"/>
<g opacity="0.68">
<g opacity="0.68">
<path d="M1026.565,564.811L997.373,566.788C994.175,566.998 992.533,569.951 992.533,573.389L992.533,1274.706C992.533,1278.214 993.249,1282.384 996.482,1282.384L1026.95,1282.384C1030.203,1282.384 1032.876,1278.866 1032.876,1275.346L1032.44,571.007C1032.435,567.548 1029.783,564.596 1026.565,564.811Z" fill="#D9DDFF"/>
</g>
<g opacity="0.7">
<path d="M1097.386,560.167L1066.847,562.169C1063.604,562.379 1060.481,565.392 1060.486,568.845L1061.217,1275.322C1061.222,1278.856 1064.385,1282.378 1067.663,1282.378L1098.532,1282.378C1101.83,1282.378 1104.022,1278.84 1104.012,1275.296L1102.831,566.422C1102.821,562.954 1100.644,559.951 1097.386,560.167Z" fill="#D9DDFF"/>
</g>
<g opacity="0.68">
<path d="M1169.127,555.462L1138.193,557.489C1134.91,557.704 1133.018,560.652 1133.023,564.13L1134.525,1275.281C1134.535,1278.835 1136.457,1282.379 1139.775,1282.379L1171.049,1282.379C1174.387,1282.379 1177.9,1278.825 1177.89,1275.257L1175.928,561.673C1175.918,558.18 1172.43,555.242 1169.127,555.462Z" fill="#D9DDFF"/>
</g>
<g opacity="0.68">
<path d="M1241.81,550.693L1210.466,552.75C1207.138,552.97 1204.711,555.968 1204.721,559.471L1206.993,1275.242C1207.003,1278.82 1209.48,1282.384 1212.843,1282.384L1244.533,1282.384C1247.916,1282.384 1250.949,1278.81 1250.934,1275.218L1248.186,556.979C1248.176,553.461 1245.158,550.473 1241.81,550.693Z" fill="#D9DDFF"/>
</g>
<g opacity="0.68">
<path d="M1315.453,545.863L1283.693,547.945C1280.325,548.165 1277.342,551.218 1277.357,554.747L1280.425,1275.196C1280.44,1278.8 1283.483,1282.378 1286.891,1282.378L1319.006,1282.378C1322.434,1282.378 1324.972,1278.784 1324.952,1275.166L1321.398,552.214C1321.383,548.676 1318.846,545.643 1315.453,545.863Z" fill="#D9DDFF"/>
</g>
</g>
<path d="M1061.569,666.996C1061.515,662.977 1059.837,659.153 1056.921,656.391C1054.003,653.628 1050.093,652.162 1046.081,652.322L741.011,664.553C735.776,664.764 731.673,669.133 731.798,674.372L747.282,1326.544L1055.753,1322.78C1059.707,1322.73 1063.481,1321.114 1066.239,1318.282C1068.997,1315.448 1070.517,1311.634 1070.463,1307.682L1061.569,666.996Z" fill="#C6CFFF"/>
<g opacity="0.6">
<g opacity="0.5">
<g opacity="0.5">
<path d="M815.876,787.199L766.786,787.214L766.205,703.311L815.406,703.311L815.876,787.199Z" fill="#504FFF"/>
</g>
<g opacity="0.5">
<path d="M886.346,787.042L837.435,787.058L837.01,703.31L886.025,703.31L886.346,787.042Z" fill="#504FFF"/>
</g>
<g opacity="0.5">
<path d="M960.445,786.877L911.73,786.892L911.465,703.31L960.29,703.31L960.445,786.877Z" fill="#504FFF"/>
</g>
<g opacity="0.5">
<path d="M1034.374,786.912L984.813,786.827L983.682,703.31L1034.374,703.31L1034.374,786.912Z" fill="#504FFF"/>
</g>
</g>
<g opacity="0.5">
<g opacity="0.5">
<path d="M816.547,906.328L767.612,906.588L767.031,823.306L816.082,823.15L816.547,906.328Z" fill="#504FFF"/>
</g>
<g opacity="0.5">
<path d="M886.798,905.952L838.043,906.213L837.617,823.08L886.483,822.925L886.798,905.952Z" fill="#504FFF"/>
</g>
<g opacity="0.5">
<path d="M960.665,905.557L912.1,905.817L911.84,822.845L960.51,822.695L960.665,905.557Z" fill="#504FFF"/>
</g>
<g opacity="0.5">
<path d="M1034.376,905.172L984.965,905.432L985.375,822.62L1034.376,822.465L1034.376,905.172Z" fill="#504FFF"/>
</g>
</g>
<g opacity="0.5">
<g opacity="0.5">
<path d="M817.237,1028.457L768.456,1028.878L767.881,946.126L816.771,945.811L817.237,1028.457Z" fill="#504FFF"/>
</g>
<g opacity="0.5">
<path d="M887.261,1027.857L838.661,1028.277L838.24,945.675L886.946,945.36L887.261,1027.857Z" fill="#504FFF"/>
</g>
<g opacity="0.5">
<path d="M960.895,1027.226L912.485,1027.642L912.225,945.2L960.74,944.89L960.895,1027.226Z" fill="#504FFF"/>
</g>
<g opacity="0.5">
<path d="M1034.373,1026.61L985.117,1027.026L985.528,944.739L1034.373,944.434L1034.373,1026.61Z" fill="#504FFF"/>
</g>
</g>
<g opacity="0.5">
<g opacity="0.5">
<path d="M817.912,1147.858L769.282,1148.428L768.727,1068.159L817.457,1067.688L817.912,1147.858Z" fill="#504FFF"/>
</g>
<g opacity="0.5">
<path d="M887.712,1147.042L839.267,1147.608L838.861,1067.483L887.411,1067.018L887.712,1147.042Z" fill="#504FFF"/>
</g>
<g opacity="0.5">
<path d="M961.115,1146.181L912.856,1146.747L912.605,1066.772L960.965,1066.307L961.115,1146.181Z" fill="#504FFF"/>
</g>
<g opacity="0.5">
<path d="M1034.373,1145.34L985.268,1145.906L985.678,1066.086L1034.373,1065.621L1034.373,1145.34Z" fill="#504FFF"/>
</g>
</g>
<g opacity="0.5">
<g opacity="0.5">
<path d="M818.589,1268.455L770.119,1269.181L769.568,1189.417L818.144,1188.791L818.589,1268.455Z" fill="#504FFF"/>
</g>
<g opacity="0.5">
<path d="M888.173,1267.414L839.878,1268.14L839.473,1188.521L887.868,1187.9L888.173,1267.414Z" fill="#504FFF"/>
</g>
<g opacity="0.5">
<path d="M961.341,1266.323L913.237,1267.044L912.986,1187.575L961.196,1186.959L961.341,1266.323Z" fill="#504FFF"/>
</g>
<g opacity="0.5">
<path d="M1034.375,1265.267L985.42,1265.983L985.835,1186.664L1034.375,1186.048L1034.375,1265.267Z" fill="#504FFF"/>
</g>
</g>
</g>
<path d="M814.796,910.49L354.273,910.49C348.282,910.49 343.428,905.636 343.428,899.644L343.428,581.589C343.428,575.599 348.282,570.744 354.273,570.744L814.796,570.744C820.786,570.744 825.642,575.599 825.642,581.589L825.642,899.644C825.636,905.636 820.782,910.49 814.796,910.49Z" fill="#A9274E"/>
<path d="M833.534,910.489L373.011,910.489C367.021,910.489 362.166,905.635 362.166,899.643L362.166,581.588C362.166,575.598 367.021,570.743 373.011,570.743L833.534,570.743C839.524,570.743 844.38,575.598 844.38,581.588L844.38,899.643C844.38,905.635 839.524,910.489 833.534,910.489Z" fill="#FF3874"/>
<path d="M499.808,865.753C496.1,865.753 492.967,865.707 490.484,865.657C486.245,865.571 482.772,862.453 482.232,858.241C481.686,853.997 484.284,850.083 488.397,848.921C510.433,842.745 534.46,832.251 552.152,823.753C467.778,816.877 450.933,773.542 447.68,753.718C439.467,703.732 482.852,647.169 544.389,627.631C607.188,607.708 670.802,614.884 706.476,645.928C725.434,662.428 745.992,694.018 736.298,750.866C718.166,857.229 552.287,865.753 499.808,865.753ZM492.556,863.655L492.561,863.655L492.556,863.655ZM490.8,850.343L490.82,850.343C490.82,850.343 490.81,850.343 490.8,850.343ZM612.708,808.749L585.978,823.653C584.572,824.433 561.04,837.485 532.428,849.451C597.569,845.523 707.772,827.121 721.21,748.288C728.026,708.276 719.692,677.718 696.432,657.474C660.342,626.065 596.403,627.191 549.029,642.215C495.374,659.25 455.882,709.167 462.794,751.226C469.064,789.406 512.545,810.761 582.115,809.305L612.708,808.749Z" fill="#FFFFFF"/>
<path d="M820.675,511.013L360.152,511.013C354.161,511.013 349.307,506.159 349.307,500.167L349.307,182.112C349.307,176.122 354.161,171.267 360.152,171.267L820.675,171.267C826.665,171.267 831.521,176.122 831.521,182.112L831.521,500.167C831.521,506.159 826.665,511.013 820.675,511.013Z" fill="#01008A"/>
<path d="M839.347,512.684L378.824,512.684C372.833,512.684 367.979,507.83 367.979,501.838L367.979,183.784C367.979,177.793 372.833,172.938 378.824,172.938L839.347,172.938C845.337,172.938 850.193,177.793 850.193,183.784L850.193,501.838C850.193,507.83 845.337,512.684 839.347,512.684Z" fill="#8584FF"/>
<path d="M714.917,462.878L487.636,462.878C469.013,462.878 453.859,447.728 453.859,429.102L453.859,253.578C453.859,234.956 469.008,219.802 487.636,219.802L714.917,219.802C733.539,219.802 748.693,234.951 748.693,253.578L748.693,429.102C748.693,447.724 733.545,462.878 714.917,462.878ZM487.636,231.518C475.475,231.518 465.575,241.412 465.575,253.578L465.575,429.102C465.575,441.262 475.47,451.162 487.636,451.162L714.917,451.162C727.079,451.162 736.977,441.268 736.977,429.102L736.977,253.578C736.977,241.417 727.083,231.518 714.917,231.518L487.636,231.518Z" fill="url(#pf_0_212_1046)"/>
<path d="M600.745,341.975L463.742,239.195L470.774,229.821L600.94,327.472L734.404,232.804L741.18,242.357L600.745,341.975Z" fill="url(#pf_0_212_1047)"/>
<path d="M732.693,451.967L647.459,300.917L657.663,295.162L742.893,446.207L732.693,451.967Z" fill="url(#pf_0_212_1048)"/>
<path d="M470.479,450.611L460.225,444.951L543.987,293.089L554.247,298.75L470.479,450.611Z" fill="url(#pf_0_212_1049)"/>
<path d="M814.796,1319.294L354.273,1319.294C348.282,1319.294 343.428,1314.44 343.428,1308.448L343.428,990.393C343.428,984.403 348.282,979.548 354.273,979.548L814.796,979.548C820.786,979.548 825.642,984.403 825.642,990.393L825.642,1308.448C825.636,1314.44 820.782,1319.294 814.796,1319.294Z" fill="#01008A"/>
<path d="M833.534,1319.294L373.011,1319.294C367.021,1319.294 362.166,1314.44 362.166,1308.448L362.166,990.393C362.166,984.403 367.021,979.548 373.011,979.548L833.534,979.548C839.524,979.548 844.38,984.403 844.38,990.393L844.38,1308.448C844.38,1314.44 839.524,1319.294 833.534,1319.294Z" fill="#8584FF"/>
<path d="M678.736,1270.578C659.928,1270.578 637.823,1261.76 612.829,1244.264C596.304,1232.694 524.182,1160.571 512.611,1144.046C491.762,1114.258 483.239,1088.569 487.278,1067.69C489.89,1054.192 497.903,1042.732 510.449,1034.544L521.419,1027.382C529.552,1022.088 540.552,1024.335 545.937,1032.412L576.235,1077.864C582.466,1087.198 580.179,1099.615 571.036,1106.131L570.825,1106.271L565.6,1109.659C560.866,1112.737 557.863,1117.731 557.373,1123.362C556.882,1128.987 558.974,1134.422 563.108,1138.271L563.258,1138.416L618.6,1193.762C622.448,1197.896 627.888,1199.983 633.509,1199.502C639.139,1199.012 644.139,1196.014 647.216,1191.275L650.745,1185.85C657.256,1176.696 669.677,1174.409 679.016,1180.645L724.463,1210.938C732.541,1216.328 734.799,1227.328 729.493,1235.456L722.331,1246.432C714.143,1258.978 702.683,1266.99 689.185,1269.604C685.832,1270.254 682.344,1270.578 678.736,1270.578ZM619.546,1234.666C646.636,1253.628 669.327,1261.516 686.963,1258.098C697.423,1256.076 706.021,1249.994 712.523,1240.026L719.683,1229.05C721.495,1226.272 720.725,1222.519 717.967,1220.677L672.52,1190.384C668.506,1187.707 663.191,1188.662 660.359,1192.541L657.046,1197.646C651.981,1205.433 643.773,1210.358 634.525,1211.163C625.316,1211.959 616.423,1208.556 610.102,1201.815L555.046,1146.758C548.309,1140.438 544.901,1131.544 545.702,1122.336C546.508,1113.087 551.432,1104.879 559.22,1099.82L564.324,1096.507C568.203,1093.669 569.159,1088.354 566.486,1084.345L536.188,1038.898C534.351,1036.146 530.588,1035.375 527.815,1037.182L516.845,1044.343C506.876,1050.844 500.795,1059.447 498.773,1069.902C495.36,1087.548 503.242,1110.229 522.2,1137.315C533.07,1152.839 604.031,1223.8 619.546,1234.666Z" fill="url(#pf_0_212_1053)"/>
<path d="M1166.577,932.386C1166.397,932.396 1166.215,932.401 1166.031,932.401L929.516,932.161C923.671,932.156 918.936,927.326 918.941,921.376C918.946,915.42 923.711,910.501 929.541,910.611L1166.061,910.851C1171.907,910.856 1176.641,915.685 1176.635,921.636C1176.625,927.396 1172.171,932.106 1166.577,932.386Z" fill="#01008A"/>
<path d="M837.921,696.151C838.006,696.316 838.086,696.481 838.161,696.647L937.679,915.479C940.141,920.889 937.844,927.301 932.549,929.809C927.254,932.315 920.873,929.983 918.506,924.543L818.988,705.71C816.526,700.3 818.823,693.884 824.118,691.382C829.248,688.959 835.309,691.096 837.921,696.151Z" fill="#01008A"/>
<path d="M1189.322,1284.117C1189.322,1284.117 1191.394,1295.613 1192.21,1309.261C1192.56,1315.076 1188.251,1320.126 1182.451,1320.691C1162.262,1322.648 1116.304,1326.266 1086.962,1322.033C1082.853,1321.437 1081.217,1316.392 1084.26,1313.56C1096.361,1302.289 1125.578,1280.359 1173.673,1275.564L1189.322,1284.117Z" fill="url(#pf_0_212_1062)"/>
<path d="M1199.357,1258.209L1189.147,1283.227C1187.746,1286.655 1184.268,1288.787 1180.589,1288.402C1178.092,1288.141 1175.129,1287.661 1172.252,1286.785C1166.491,1285.039 1163.243,1278.933 1164.965,1273.163L1172.667,1247.394L1199.357,1258.209Z" fill="url(#pf_0_212_1063)"/>
<path d="M1373.874,1304.046C1373.874,1304.046 1353.435,1321.147 1345.467,1343.087C1343.275,1349.123 1347.905,1355.479 1354.326,1355.479L1396.39,1355.479C1402.545,1355.479 1407.265,1349.939 1406.194,1343.878C1403.516,1328.724 1395.789,1304.106 1373.874,1304.046Z" fill="url(#pf_0_212_1064)"/>
<path d="M1399.198,1281.785C1399.198,1281.785 1395.07,1300.062 1391.897,1312.139C1391.321,1314.331 1388.984,1315.532 1386.847,1314.771C1380.481,1312.494 1375.301,1311.488 1371.538,1311.993C1369.796,1312.229 1368.28,1310.777 1368.255,1309.021L1367.859,1278.667L1399.198,1281.785Z" fill="url(#pf_0_212_1065)"/>
<path d="M1290.487,870.573L1166.156,1249.87C1166.156,1249.87 1190.003,1265.49 1201.364,1264.84L1349.036,960.016C1349.036,960.016 1374.876,1147.84 1362.359,1282.682L1404.658,1285.91C1404.658,1285.91 1473.436,941.319 1421.344,823.294L1290.487,870.573Z" fill="#01008A"/>
<path d="M1348.241,956.733C1348.291,956.733 1348.34,956.728 1348.391,956.723C1349.051,956.638 1349.517,956.038 1349.437,955.377L1344.612,917.081C1344.532,916.421 1343.931,915.965 1343.266,916.035C1342.605,916.121 1342.14,916.721 1342.22,917.382L1347.044,955.677C1347.124,956.288 1347.64,956.733 1348.241,956.733Z" fill="url(#pf_0_212_1067)"/>
<path d="M1267.175,536.813C1267.175,536.813 1367.905,545.756 1353.655,617.528C1353.655,617.528 1409.337,722.315 1435.367,845.751C1436.213,849.769 1433.525,853.683 1429.477,854.379L1261.725,883.099C1257.096,883.891 1252.637,881.009 1251.461,876.459L1211.378,721.555L1195.759,793.577L1146.133,780.645L1187.912,569.013C1187.917,569.018 1193.747,538.139 1267.175,536.813Z" fill="#FF3874"/>
<path d="M1210.531,714.629C1210.616,714.629 1210.707,714.619 1210.797,714.599C1211.472,714.454 1211.898,713.788 1211.753,713.112L1197.769,648.908C1197.624,648.232 1196.964,647.812 1196.283,647.952C1195.607,648.097 1195.182,648.762 1195.327,649.438L1209.31,713.643C1209.44,714.228 1209.956,714.629 1210.531,714.629Z" fill="#FF95B5"/>
<path d="M1220.657,905.686C1225.941,902.778 1232.127,901.977 1237.978,903.434L1249.649,906.337C1252.131,906.952 1254.588,905.246 1254.873,902.703L1266.95,795.203C1282.054,802.375 1303.839,801.519 1311.026,800.994L1283.225,927.731L1185.949,927.731L1220.657,905.686Z" fill="url(#pf_0_212_1070)"/>
<path d="M962.191,672.505L965.134,662.73C966.826,657.105 970.985,652.556 976.43,650.369L1029.609,628.984C1029.609,628.984 1030.41,622.163 1018.374,617.529C1006.337,612.894 1009.15,599.412 1009.15,599.412C1009.15,599.412 1025.595,606.914 1049.673,618.815C1063.446,625.621 1071.168,637.637 1075.267,646.681L1195.763,793.577L1181.615,803.296C1163.013,816.078 1137.424,809.798 1126.855,789.859L1061.574,664.682C1028.803,674.526 995.638,676.408 962.191,672.505Z" fill="url(#pf_0_212_1071)"/>
<path d="M1234.544,468.285L1265.528,554.996C1265.528,554.996 1238.092,576.445 1218.074,569.194L1202.459,519.488C1202.459,519.488 1214.38,458.736 1234.544,468.285Z" fill="url(#pf_0_212_1073)"/>
<path d="M1142.078,437.145C1142.078,438.482 1171.921,521.629 1171.921,521.629L1219.035,503.577L1202.459,420.57C1202.459,420.57 1142.078,414.775 1142.078,437.145Z" fill="url(#pf_0_212_1075)"/>
<path d="M1194.197,440.794L1206.343,483.809C1206.498,484.359 1206.578,484.915 1206.578,485.49C1206.583,488.999 1205.713,501.07 1193.416,499.428C1182.261,497.937 1172.051,496.746 1165.565,499.799C1162.653,501.17 1161.256,504.523 1162.347,507.556C1165.06,515.108 1171.491,532.019 1179.318,545.856C1180.904,548.664 1184.393,549.755 1187.325,548.419C1196.174,544.395 1214.601,535.382 1227.723,524.657C1229.5,523.205 1230.355,520.918 1229.93,518.661C1227.863,507.656 1221.712,474.19 1221.442,464.601C1221.187,455.598 1231.291,448.726 1235.736,446.144C1237.192,445.298 1238.233,443.902 1238.623,442.265C1240.02,436.47 1241.206,423.358 1224.475,420.465C1220.972,419.859 1218.69,416.511 1219.4,413.028C1220.817,406.097 1220.361,395.902 1207.204,392.144C1193.827,388.325 1185.414,396.378 1181.13,402.553C1179.398,405.051 1176.16,405.861 1173.388,404.62C1171.806,403.915 1169.899,403.885 1167.852,405.611C1165.09,407.938 1160.886,407.233 1158.854,404.245C1154.955,398.505 1147.869,392.774 1135.873,396.653C1114.588,403.539 1115.604,428.082 1123.406,441.424C1131.208,454.767 1153.859,445.989 1164.584,437.145C1172.737,430.424 1185.153,434.443 1190.634,436.76C1192.39,437.491 1193.681,438.977 1194.197,440.794Z" fill="#01008A"/>
<path d="M1225.715,480.306C1225.715,480.306 1213.118,456.474 1221.446,448.992C1229.779,441.51 1243.892,442.731 1243.511,461.368C1243.036,484.55 1225.715,480.306 1225.715,480.306Z" fill="url(#pf_0_212_1077)"/>
<path d="M1301.251,802.61C1308.127,802.61 1313.032,802.09 1313.562,802.03L1314.458,801.93L1351.137,630.921C1351.282,630.245 1350.852,629.579 1350.176,629.439C1349.496,629.289 1348.84,629.725 1348.695,630.4L1312.396,799.638C1306.936,800.118 1277.789,802.055 1262.4,791.15L1294.174,642.577L1287.543,630.08C1287.218,629.469 1286.462,629.239 1285.852,629.559C1285.241,629.885 1285.011,630.64 1285.331,631.251L1291.537,642.947L1259.617,792.206L1260.253,792.686C1271.378,801.029 1289.29,802.61 1301.251,802.61Z" fill="#FF95B5"/>
<path d="M1100.559,952.45C1101.52,955.703 1193.115,1237.104 1216.337,1308.446C1219.014,1316.668 1211.537,1324.742 1201.268,1324.742C1194.106,1324.742 1187.86,1320.698 1186.129,1314.938L1084.449,977.243L1100.559,952.45Z" fill="#7D97F4"/>
<path d="M1050.398,952.45C1049.437,955.703 957.841,1237.104 934.62,1308.446C931.942,1316.668 939.419,1324.742 949.689,1324.742C956.851,1324.742 963.096,1320.698 964.828,1314.938L1066.508,977.243L1050.398,952.45Z" fill="#7D97F4"/>
<path d="M1046.584,941.219L1103.632,941.219L1103.632,987.032C1103.632,993.618 1098.357,998.953 1091.851,998.953L1084.024,998.953L1084.024,1101.854C1084.024,1106.838 1080.03,1110.877 1075.106,1110.877C1070.181,1110.877 1066.187,1106.838 1066.187,1101.854L1066.187,998.953L1062.219,998.953C1053.585,998.953 1046.584,991.866 1046.584,983.128L1046.584,941.219Z" fill="#7D97F4"/>
<path d="M1277.915,930.214L878.754,930.214C873.174,930.214 868.304,933.262 866.908,937.626L861.332,955.067C859.326,961.343 865.221,967.453 873.249,967.413L1282.829,965.512C1290.768,965.477 1296.561,959.436 1294.62,953.22L1289.771,937.681C1288.41,933.292 1283.519,930.214 1277.915,930.214Z" fill="#7D97F4"/>
<path d="M1909.802,1319.155L72.207,1319.155C70.997,1319.155 70,1318.425 70,1317.539L70,1316.772C70,1315.885 70.997,1315.155 72.207,1315.155L1909.794,1315.155C1911.004,1315.155 1912,1315.885 1912,1316.772L1912,1317.539C1912.008,1318.425 1911.012,1319.155 1909.802,1319.155Z" fill="#01008A"/>
<defs>
<linearGradient id="pf_0_212_1046" x1="453.862" y1="341.339" x2="748.694" y2="341.339" gradientUnits="userSpaceOnUse">
<stop stop-color="#DAE3FE"/>
<stop offset="1" stop-color="#E9EFFD"/>
</linearGradient>
<linearGradient id="pf_0_212_1047" x1="463.741" y1="285.898" x2="741.181" y2="285.898" gradientUnits="userSpaceOnUse">
<stop stop-color="#DAE3FE"/>
<stop offset="1" stop-color="#E9EFFD"/>
</linearGradient>
<linearGradient id="pf_0_212_1048" x1="647.46" y1="373.563" x2="742.893" y2="373.563" gradientUnits="userSpaceOnUse">
<stop stop-color="#DAE3FE"/>
<stop offset="1" stop-color="#E9EFFD"/>
</linearGradient>
<linearGradient id="pf_0_212_1049" x1="460.223" y1="371.85" x2="554.247" y2="371.85" gradientUnits="userSpaceOnUse">
<stop stop-color="#DAE3FE"/>
<stop offset="1" stop-color="#E9EFFD"/>
</linearGradient>
<linearGradient id="pf_0_212_1053" x1="486.301" y1="1147.544" x2="732.371" y2="1147.544" gradientUnits="userSpaceOnUse">
<stop stop-color="#DAE3FE"/>
<stop offset="1" stop-color="#E9EFFD"/>
</linearGradient>
<linearGradient id="pf_0_212_1062" x1="1135.773" y1="1492.273" x2="1134.108" y2="1668.77" gradientUnits="userSpaceOnUse">
<stop stop-color="#09005D"/>
<stop offset="1" stop-color="#1A0F91"/>
</linearGradient>
<linearGradient id="pf_0_212_1063" x1="1178.318" y1="1295.171" x2="1187.476" y2="1223.573" gradientUnits="userSpaceOnUse">
<stop stop-color="#FEBBBA"/>
<stop offset="1" stop-color="#FF928E"/>
</linearGradient>
<linearGradient id="pf_0_212_1064" x1="1374.232" y1="1494.522" x2="1372.567" y2="1671.019" gradientUnits="userSpaceOnUse">
<stop stop-color="#09005D"/>
<stop offset="1" stop-color="#1A0F91"/>
</linearGradient>
<linearGradient id="pf_0_212_1065" x1="1378.476" y1="1319.71" x2="1387.4" y2="1249.939" gradientUnits="userSpaceOnUse">
<stop stop-color="#FEBBBA"/>
<stop offset="1" stop-color="#FF928E"/>
</linearGradient>
<linearGradient id="pf_0_212_1067" x1="1740.895" y1="382.473" x2="1497.398" y2="723.872" gradientUnits="userSpaceOnUse">
<stop stop-color="#09005D"/>
<stop offset="1" stop-color="#1A0F91"/>
</linearGradient>
<linearGradient id="pf_0_212_1070" x1="1311.027" y1="861.469" x2="1185.951" y2="861.469" gradientUnits="userSpaceOnUse">
<stop stop-color="#FEBBBA"/>
<stop offset="1" stop-color="#FF928E"/>
</linearGradient>
<linearGradient id="pf_0_212_1071" x1="1195.766" y1="704.68" x2="962.193" y2="704.68" gradientUnits="userSpaceOnUse">
<stop stop-color="#FEBBBA"/>
<stop offset="1" stop-color="#FF928E"/>
</linearGradient>
<linearGradient id="pf_0_212_1073" x1="1279.856" y1="573.677" x2="1198.567" y2="490.277" gradientUnits="userSpaceOnUse">
<stop stop-color="#FEBBBA"/>
<stop offset="1" stop-color="#FF928E"/>
</linearGradient>
<linearGradient id="pf_0_212_1075" x1="1161.967" y1="437.729" x2="1263.314" y2="571.803" gradientUnits="userSpaceOnUse">
<stop stop-color="#FEBBBA"/>
<stop offset="1" stop-color="#FF928E"/>
</linearGradient>
<linearGradient id="pf_0_212_1077" x1="1310.399" y1="543.906" x2="1229.111" y2="460.506" gradientUnits="userSpaceOnUse">
<stop stop-color="#FEBBBA"/>
<stop offset="1" stop-color="#FF928E"/>
</linearGradient>
</defs>
</svg>
