<svg width="200" height="274" viewBox="0 0 200 274" fill="none" xmlns="http://www.w3.org/2000/svg" xmlns:xlink="http://www.w3.org/1999/xlink">
<path d="M55.236,105.358C57.026,101.033 57.77,96.804 57.432,92.791C56.654,83.477 58.392,77.501 59.984,74.128C61.705,70.487 63.633,69.016 63.651,68.999L62.985,68.091C62.898,68.152 60.857,69.7 59.015,73.557C57.337,77.068 55.512,83.261 56.317,92.886C56.914,100.065 53.774,106.88 50.341,112.043C50.168,112.302 50.237,112.648 50.496,112.821C50.756,112.994 51.11,112.925 51.283,112.666C52.918,110.209 54.241,107.771 55.236,105.358Z" fill="#01008A"/>
<path d="M64.35,68.506C64.514,68.273 64.791,68.152 65.076,68.177C65.621,68.229 66.157,68.247 66.694,68.247C66.754,68.143 66.806,68.03 66.867,67.927C66.849,67.918 66.832,67.909 66.815,67.901C64.056,66.725 61.755,64.796 60.051,62.383C58.166,59.702 57.016,56.424 56.808,52.939C56.687,50.898 56.886,48.787 57.44,46.677C57.552,46.236 57.69,45.812 57.837,45.389C58.633,43.027 59.835,40.917 61.323,39.127C63.122,36.974 65.336,35.278 67.783,34.18C69.556,33.384 71.45,32.917 73.379,32.796C72.938,32.641 72.488,32.494 72.03,32.372C71.001,32.096 69.963,31.949 68.934,31.897C66.365,31.758 63.822,32.251 61.487,33.298C59.04,34.396 56.826,36.083 55.027,38.245C53.539,40.035 52.337,42.145 51.541,44.506C51.394,44.93 51.265,45.354 51.143,45.795C50.581,47.905 50.382,50.016 50.512,52.057C50.72,55.542 51.87,58.82 53.755,61.501C55.364,63.784 57.517,65.626 60.077,66.82C60.077,66.82 61.522,67.425 61.28,68.861C61.219,69.207 61.392,69.561 61.712,69.7C61.911,69.786 62.127,69.899 62.335,70.046C62.698,70.296 63.191,70.21 63.442,69.855L64.35,68.506Z" fill="#E28902"/>
<path d="M73.761,66.56C76.624,65.142 79.149,62.902 81,60.048C82.098,58.353 82.963,56.433 83.525,54.348C83.629,53.942 83.724,53.544 83.802,53.138C84.286,50.725 84.312,48.329 83.932,46.054C83.465,43.296 82.409,40.727 80.861,38.556C79.011,35.953 76.451,33.912 73.38,32.796C71.443,32.917 69.558,33.393 67.785,34.18C65.337,35.278 63.123,36.965 61.324,39.127C59.837,40.917 58.635,43.027 57.839,45.389C57.692,45.812 57.562,46.236 57.441,46.677C56.879,48.787 56.68,50.898 56.81,52.939C57.017,56.424 58.168,59.702 60.053,62.383C61.757,64.796 64.057,66.724 66.816,67.901C66.833,67.909 66.851,67.918 66.868,67.927C66.807,68.039 66.756,68.143 66.695,68.247C69.151,68.238 71.556,67.65 73.761,66.56Z" fill="#F29305"/>
<g opacity="0.32">
<g opacity="0.32">
<path d="M74.496,37.103C74.782,36.922 75.162,36.93 75.439,37.155C78.734,39.802 80.896,43.469 81.51,47.49C82.133,51.538 81.121,55.447 78.673,58.508C78.388,58.863 77.878,58.915 77.532,58.638C77.186,58.361 77.125,57.843 77.411,57.497C79.573,54.798 80.464,51.33 79.91,47.741C79.357,44.126 77.402,40.813 74.427,38.426C74.072,38.15 74.021,37.631 74.306,37.285C74.349,37.216 74.418,37.155 74.496,37.103Z" fill="#FFFFFF"/>
</g>
</g>
<path d="M52.866,98.543C51.56,92.134 49.104,86.66 45.575,82.275C37.385,72.095 34.722,63.819 33.934,58.664C33.078,53.103 34.159,49.894 34.168,49.86L32.689,49.332C32.637,49.471 31.478,52.852 32.36,58.768C33.165,64.139 35.898,72.744 44.356,83.261C50.661,91.096 52.356,101.449 52.416,110.106C52.416,110.538 52.771,110.884 53.203,110.884C53.636,110.884 53.999,110.521 53.999,110.08C53.964,105.98 53.593,102.114 52.866,98.543Z" fill="#01008A"/>
<path d="M34.6,48.753C34.609,48.355 34.834,48 35.18,47.802C35.846,47.438 36.486,47.04 37.108,46.617C37.091,46.452 37.074,46.279 37.057,46.106C37.031,46.115 37.005,46.115 36.97,46.124C32.862,46.911 28.685,46.496 24.827,45.025C20.538,43.399 16.655,40.502 13.68,36.628C11.941,34.362 10.514,31.759 9.52,28.879C9.312,28.282 9.13,27.676 8.966,27.08C8.041,23.724 7.781,20.342 8.11,17.108C8.508,13.207 9.753,9.514 11.725,6.332C13.152,4.023 14.977,1.999 17.122,0.347C16.49,0.503 15.859,0.693 15.236,0.909C13.827,1.402 12.512,2.033 11.275,2.777C8.188,4.628 5.636,7.179 3.751,10.215C1.779,13.398 0.534,17.091 0.136,20.991C-0.193,24.226 0.067,27.607 0.992,30.963C1.157,31.568 1.338,32.165 1.546,32.762C2.549,35.642 3.976,38.245 5.706,40.511C8.672,44.385 12.564,47.283 16.854,48.909C20.503,50.301 24.438,50.751 28.33,50.128C28.33,50.128 30.475,49.696 31.314,51.555C31.513,52.005 31.988,52.273 32.473,52.186C32.767,52.134 33.113,52.091 33.459,52.1C34.073,52.109 34.574,51.624 34.583,51.01L34.6,48.753Z" fill="#00DCEA"/>
<path d="M43.967,39.136C46.181,35.253 47.348,30.686 47.262,25.938C47.21,23.11 46.708,20.213 45.722,17.367C45.532,16.814 45.316,16.278 45.1,15.75C43.776,12.576 41.926,9.783 39.712,7.456C37.013,4.628 33.787,2.483 30.293,1.177C26.107,-0.388 21.558,-0.751 17.122,0.356C14.977,2.007 13.161,4.031 11.725,6.34C9.753,9.523 8.508,13.216 8.11,17.116C7.781,20.351 8.041,23.733 8.966,27.088C9.13,27.685 9.312,28.29 9.52,28.887C10.523,31.767 11.941,34.37 13.679,36.636C16.646,40.511 20.538,43.408 24.827,45.034C28.685,46.504 32.862,46.919 36.97,46.132C36.996,46.124 37.022,46.124 37.057,46.115C37.074,46.288 37.091,46.452 37.108,46.625C39.937,44.679 42.263,42.119 43.967,39.136Z" fill="#13E7F5"/>
<g opacity="0.2">
<g opacity="0.2">
<path d="M21.775,4.464C21.965,4.031 22.414,3.746 22.907,3.789C28.797,4.273 34.168,6.833 38.025,11.011C41.908,15.205 43.802,20.533 43.353,25.99C43.301,26.613 42.756,27.08 42.125,27.028C41.502,26.976 41.035,26.431 41.087,25.8C41.485,20.982 39.798,16.278 36.356,12.55C32.888,8.797 28.045,6.487 22.717,6.055C22.094,6.003 21.627,5.458 21.679,4.827C21.697,4.697 21.731,4.576 21.775,4.464Z" fill="#FDE2DE"/>
</g>
</g>
<path d="M156.087,143.757L149.871,187.718C149.373,191.238 146.059,193.875 142.123,193.875C137.813,193.875 134.318,190.719 134.318,186.827L135.17,130.516L144.489,132.661C151.365,132.229 156.958,137.582 156.087,143.757Z" fill="#01008A"/>
<path d="M144.268,254.917L150.522,267.846L150.522,185.495C150.522,181.456 146.892,178.178 142.42,178.178C137.947,178.178 134.318,181.456 134.318,185.495L144.268,254.917Z" fill="#01008A"/>
<path d="M156.183,149.491C167.787,149.491 177.195,140.996 177.195,130.516C177.195,120.037 167.787,111.541 156.183,111.541C144.578,111.541 135.17,120.037 135.17,130.516C135.17,140.996 144.578,149.491 156.183,149.491Z" fill="#002E8A"/>
<path d="M165.204,54.634L166.918,71.94L148.549,71.94L151.097,55.231L165.204,54.634Z" fill="#DC85E6"/>
<path d="M153.721,60.022L158.002,60.022C162.034,60.022 165.338,57.038 165.338,53.397L165.338,48.243C165.338,44.602 162.034,41.618 158.002,41.618L153.721,41.618C149.689,41.618 146.385,44.602 146.385,48.243L146.385,53.397C146.385,57.038 149.689,60.022 153.721,60.022Z" fill="#F493FE"/>
<path d="M164.879,55.698C164.879,55.698 163.595,59.468 158.855,59.97C154.114,60.472 150.484,59.33 150.484,59.33L149.795,63.845C149.785,63.853 164.122,65.877 164.879,55.698Z" fill="#D97EB0"/>
<path d="M156.594,47.802C156.594,48.173 156.929,48.468 157.332,48.468C157.734,48.468 158.069,48.165 158.069,47.802C158.069,47.438 157.734,47.136 157.332,47.136C156.929,47.136 156.594,47.438 156.594,47.802Z" fill="#4A4185"/>
<path d="M151.336,46.426C151.336,46.798 151.672,47.092 152.074,47.092C152.486,47.092 152.811,46.79 152.811,46.426C152.811,46.063 152.476,45.761 152.074,45.761C151.662,45.761 151.336,46.055 151.336,46.426Z" fill="#4A4185"/>
<path d="M163.739,54.625C165.495,54.625 166.919,53.34 166.919,51.754C166.919,50.168 165.495,48.883 163.739,48.883C161.983,48.883 160.559,50.168 160.559,51.754C160.559,53.34 161.983,54.625 163.739,54.625Z" fill="#D97EB0"/>
<path d="M161.45,49.756C161.45,49.756 159.946,48.502 160.55,46.132C161.162,43.763 162.982,43.391 162.982,43.391L165.329,44.377L165.329,49.272C165.338,49.272 163.748,48.424 161.45,49.756Z" fill="#141370"/>
<path d="M148.549,71.94L142.64,71.94C131.981,71.94 124.003,80.77 126.139,90.197L135.275,130.516L176.888,130.516L186.188,90.257C188.371,80.813 180.384,71.94 169.705,71.94L148.549,71.94Z" fill="#13E7F5"/>
<path d="M166.621,68.956L166.918,71.94L157.332,77.665L148.549,71.94L149.124,68.16L166.621,68.956Z" fill="#DC85E6"/>
<path d="M107.961,115.796C111.639,118.313 116.878,117.656 119.665,114.335L141.491,88.32C144.278,84.999 143.55,80.268 139.873,77.751C136.195,75.235 130.956,75.892 128.169,79.213L106.343,105.228C103.566,108.549 104.293,113.28 107.961,115.796Z" fill="#13E7F5"/>
<path d="M155.435,50.82C155.435,51.633 156.163,52.282 157.054,52.282C157.954,52.282 158.673,51.624 158.673,50.82C158.673,50.007 157.945,49.358 157.054,49.358C156.163,49.35 155.435,50.007 155.435,50.82Z" fill="#D97EB0"/>
<path d="M148.166,48.468C148.166,49.28 148.894,49.929 149.785,49.929C150.685,49.929 151.403,49.272 151.403,48.468C151.403,47.663 150.676,47.006 149.785,47.006C148.894,47.006 148.166,47.663 148.166,48.468Z" fill="#D97EB0"/>
<path d="M111.304,102.91L65.199,107.814L63.571,115.278L111.783,117.846C116.811,118.114 120.948,114.309 120.555,109.777C120.191,105.531 115.987,102.417 111.304,102.91Z" fill="#13E7F5"/>
<path d="M73.062,106.984L71.769,115.719L63.571,115.278L65.199,107.814L73.062,106.984Z" fill="#7E07F3"/>
<path d="M61.177,107.624C61.177,107.624 61.732,111.965 58.926,113.029C56.742,113.859 51.427,114.274 48.564,113.479C47.759,113.254 47.778,112.225 48.592,112.017L53.314,110.824L45.02,106.551C44.302,106.179 44.541,105.185 45.374,105.133C47.309,105.003 49.924,104.925 51.944,105.219C55.574,105.755 61.177,107.624 61.177,107.624Z" fill="#DC85E6"/>
<path d="M58.045,113.306L63.676,114.793L65.199,107.814L59.137,106.984L58.045,113.306Z" fill="#DC85E6"/>
<path d="M193.85,45.778C198.217,47.136 200.534,51.425 199.031,55.36L187.28,86.227C185.776,90.171 181.026,92.264 176.668,90.906C172.301,89.548 169.983,85.258 171.487,81.323L183.238,50.457C184.732,46.522 189.482,44.429 193.85,45.778Z" fill="#13E7F5"/>
<path d="M177.185,132.142L169.284,188.029C168.786,191.549 165.472,194.187 161.536,194.187C157.226,194.187 153.731,191.03 153.731,187.138L153.731,143.904L177.185,132.142Z" fill="#01008A"/>
<path d="M164.122,258.887L169.935,268.166L169.935,185.815C169.935,181.776 166.306,178.498 161.833,178.498C157.36,178.498 153.731,181.776 153.731,185.815L164.122,258.887Z" fill="#01008A"/>
<path d="M184.608,56.433L159.333,21.277L164.649,15.37L197.642,47.222C201.08,50.543 200.487,55.845 196.368,58.474C192.518,60.93 187.174,60.005 184.608,56.433Z" fill="#13E7F5"/>
<path d="M163.643,27.27L170.261,20.784L164.649,15.37L159.333,21.268L163.643,27.27Z" fill="#7E07F3"/>
<path d="M160.463,13.605C160.463,13.605 159.075,17.791 156.029,17.765C153.664,17.748 148.597,16.234 146.318,14.47C145.676,13.977 146.145,13.034 146.979,13.138L151.844,13.735L146.098,6.842C145.6,6.245 146.26,5.415 147.046,5.666C148.875,6.237 151.317,7.102 153.041,8.096C156.134,9.878 160.463,13.605 160.463,13.605Z" fill="#DC85E6"/>
<path d="M159.429,12.792L164.304,15.75L159.333,21.268L154.746,17.592L159.429,12.792Z" fill="#DC85E6"/>
<path d="M188.716,82.456L176.534,102.4L183.726,100.964L188.716,82.456Z" fill="#00DCEA"/>
<path d="M135.17,136.83L135.17,129.254L177.185,129.254L176.505,136.83L135.17,136.83Z" fill="#004145"/>
<path d="M150.532,134.365L150.939,134.369L150.939,134.365L150.532,134.365ZM152.668,136.7L155.598,136.7L155.598,135.886L152.668,135.886L152.668,136.7ZM155.598,136.7C156.961,136.7 158.141,135.691 158.141,134.365L157.327,134.365C157.327,135.166 156.592,135.886 155.598,135.886L155.598,136.7ZM158.141,134.365L158.141,131.909L157.327,131.909L157.327,134.365L158.141,134.365ZM158.141,131.909C158.141,130.582 156.961,129.573 155.598,129.573L155.598,130.387C156.592,130.387 157.327,131.108 157.327,131.909L158.141,131.909ZM155.598,129.573L152.668,129.573L152.668,130.387L155.598,130.387L155.598,129.573ZM152.668,129.573C151.305,129.573 150.125,130.582 150.125,131.909L150.939,131.909C150.939,131.108 151.674,130.387 152.668,130.387L152.668,129.573ZM150.125,131.909L150.125,134.365L150.939,134.365L150.939,131.909L150.125,131.909ZM150.125,134.361C150.113,135.693 151.298,136.7 152.668,136.7L152.668,135.886C151.662,135.886 150.932,135.165 150.939,134.369L150.125,134.361Z" fill="#FF9A17"/>
<path d="M154.504,47.118C154.566,47.024 154.54,46.898 154.446,46.836C154.352,46.774 154.226,46.8 154.164,46.894L154.504,47.118ZM150.312,53.129L150.142,53.017C150.106,53.071 150.098,53.138 150.12,53.198C150.142,53.258 150.191,53.305 150.252,53.324L150.312,53.129ZM152.369,53.972C152.476,54.005 152.59,53.945 152.623,53.837C152.656,53.73 152.595,53.616 152.488,53.583L152.369,53.972ZM154.164,46.894L150.142,53.017L150.482,53.241L154.504,47.118L154.164,46.894ZM150.252,53.324L152.369,53.972L152.488,53.583L150.371,52.935L150.252,53.324Z" fill="#C53CCF"/>
<path d="M162.446,44.74C162.446,44.74 156.048,43.65 155.11,41.618L164.61,41.618C164.61,41.618 165.338,43.443 165.338,44.377C165.338,45.311 164.879,45.761 164.879,45.761L162.446,44.74Z" fill="#141370"/>
<path d="M160.549,47.802L158.682,55.698C158.682,55.698 151.997,52.714 146.394,53.778C146.394,53.778 146.509,59.546 153.721,60.013C160.933,60.48 162.111,58.984 162.101,56.597C162.091,54.21 162.273,49.35 162.273,49.35L160.549,47.802Z" fill="#141370"/>
<path d="M154.794,55.49C154.526,56.502 153.52,57.254 152.313,57.254C151.106,57.254 150.101,56.502 149.833,55.49L154.794,55.49Z" fill="#F493FE"/>
<path d="M159.768,47.802C159.768,49.002 158.687,49.992 157.332,49.992L157.332,50.195C158.779,50.195 159.971,49.133 159.971,47.802L159.768,47.802ZM157.332,49.992C155.976,49.992 154.895,49.002 154.895,47.802L154.692,47.802C154.692,49.133 155.884,50.195 157.332,50.195L157.332,49.992ZM154.895,47.802C154.895,46.602 155.976,45.611 157.332,45.611L157.332,45.408C155.884,45.408 154.692,46.47 154.692,47.802L154.895,47.802ZM157.332,45.611C158.687,45.611 159.768,46.602 159.768,47.802L159.971,47.802C159.971,46.47 158.779,45.408 157.332,45.408L157.332,45.611Z" fill="#4A4185"/>
<path d="M154.232,46.184C154.232,47.384 153.152,48.374 151.796,48.374L151.796,48.578C153.244,48.578 154.436,47.516 154.436,46.184L154.232,46.184ZM151.796,48.374C150.441,48.374 149.36,47.384 149.36,46.184L149.156,46.184C149.156,47.516 150.348,48.578 151.796,48.578L151.796,48.374ZM149.36,46.184C149.36,44.984 150.441,43.994 151.796,43.994L151.796,43.791C150.348,43.791 149.156,44.853 149.156,46.184L149.36,46.184ZM151.796,43.994C153.152,43.994 154.232,44.984 154.232,46.184L154.436,46.184C154.436,44.853 153.244,43.791 151.796,43.791L151.796,43.994Z" fill="#4A4185"/>
<path d="M155.142,46.996L154.271,46.702L154.206,46.895L155.077,47.189L155.142,46.996Z" fill="#4A4185"/>
<path d="M157.332,77.665L166.918,71.94L168.7,76.385L157.332,77.665Z" fill="#7E07F3"/>
<path d="M157.332,77.665L146.394,76.03L148.549,71.94L157.332,77.665Z" fill="#7E07F3"/>
<path d="M150.647,265.416L150.685,268.339L125.392,268.642C125.392,268.642 125.478,268.339 125.938,265.719L150.647,265.416Z" fill="#01008A"/>
<path d="M125.976,265.546C126.464,262.761 134.844,262.052 139.959,261.542C145.073,261.031 144.268,254.917 144.268,254.917L150.493,254.839L150.647,265.416L125.947,265.71C125.957,265.658 125.966,265.607 125.976,265.546Z" fill="#BEBEFF"/>
<path d="M139.078,265.555C139.156,265.517 139.156,265.517 139.156,265.517C139.156,265.517 139.156,265.517 139.156,265.517C139.155,265.517 139.155,265.517 139.155,265.517C139.155,265.516 139.155,265.516 139.155,265.515C139.154,265.514 139.153,265.512 139.152,265.51C139.15,265.506 139.147,265.499 139.142,265.491C139.134,265.475 139.121,265.451 139.104,265.421C139.069,265.362 139.017,265.277 138.945,265.176C138.802,264.973 138.579,264.703 138.26,264.43C137.622,263.882 136.602,263.324 135.077,263.271L135.071,263.444C136.553,263.495 137.536,264.036 138.147,264.561C138.454,264.824 138.667,265.083 138.804,265.276C138.873,265.373 138.922,265.452 138.954,265.508C138.97,265.535 138.981,265.557 138.989,265.571C138.993,265.578 138.995,265.584 138.997,265.587C138.998,265.589 138.999,265.59 138.999,265.591C138.999,265.591 138.999,265.592 138.999,265.592C138.999,265.592 138.999,265.592 138.999,265.592C138.999,265.592 138.999,265.592 138.999,265.592C138.999,265.592 138.999,265.592 139.078,265.555ZM135.077,263.271C133.571,263.219 131.757,263.241 130.32,263.276C129.601,263.293 128.976,263.314 128.531,263.33C128.309,263.338 128.131,263.345 128.009,263.35C127.948,263.352 127.901,263.354 127.869,263.356C127.853,263.357 127.841,263.357 127.833,263.357C127.829,263.358 127.826,263.358 127.824,263.358C127.823,263.358 127.822,263.358 127.821,263.358C127.821,263.358 127.821,263.358 127.821,263.358C127.821,263.358 127.821,263.358 127.821,263.358C127.82,263.358 127.82,263.358 127.824,263.444C127.828,263.531 127.828,263.531 127.828,263.531C127.828,263.531 127.828,263.531 127.828,263.531C127.829,263.531 127.829,263.531 127.829,263.531C127.829,263.531 127.83,263.531 127.831,263.531C127.833,263.531 127.836,263.53 127.84,263.53C127.848,263.53 127.861,263.529 127.876,263.529C127.908,263.527 127.955,263.525 128.016,263.523C128.138,263.518 128.315,263.511 128.537,263.503C128.982,263.486 129.606,263.466 130.324,263.449C131.76,263.414 133.57,263.393 135.071,263.444L135.077,263.271Z" fill="#01008A"/>
<path d="M144.967,261.957L144.94,261.875L144.94,261.875L144.967,261.957ZM147.343,254.882C147.256,254.885 147.256,254.885 147.256,254.885C147.256,254.885 147.256,254.885 147.256,254.885C147.256,254.885 147.256,254.885 147.256,254.886C147.256,254.886 147.256,254.887 147.256,254.889C147.256,254.892 147.256,254.896 147.257,254.902C147.257,254.914 147.257,254.931 147.257,254.954C147.258,254.999 147.258,255.066 147.258,255.152C147.258,255.323 147.254,255.569 147.242,255.866C147.218,256.462 147.159,257.264 147.021,258.091C146.884,258.919 146.668,259.768 146.331,260.46C145.995,261.153 145.543,261.676 144.94,261.875L144.995,262.039C145.661,261.819 146.141,261.247 146.487,260.535C146.834,259.822 147.053,258.955 147.192,258.119C147.331,257.283 147.39,256.473 147.415,255.873C147.427,255.573 147.431,255.325 147.431,255.152C147.431,255.066 147.431,254.998 147.43,254.951C147.43,254.928 147.43,254.911 147.429,254.899C147.429,254.893 147.429,254.888 147.429,254.885C147.429,254.883 147.429,254.882 147.429,254.881C147.429,254.881 147.429,254.881 147.429,254.88C147.429,254.88 147.429,254.88 147.429,254.88C147.429,254.88 147.429,254.88 147.343,254.882ZM144.94,261.875C143.691,262.292 142.221,262.214 141.056,262.029C140.474,261.937 139.972,261.818 139.615,261.722C139.436,261.675 139.294,261.633 139.197,261.603C139.148,261.588 139.111,261.576 139.086,261.568C139.073,261.563 139.064,261.56 139.057,261.558C139.054,261.557 139.052,261.556 139.05,261.556C139.049,261.556 139.049,261.555 139.049,261.555C139.048,261.555 139.048,261.555 139.048,261.555C139.048,261.555 139.048,261.555 139.048,261.555C139.048,261.555 139.048,261.555 139.02,261.637C138.992,261.719 138.992,261.719 138.992,261.719C138.992,261.719 138.992,261.719 138.992,261.719C138.992,261.719 138.993,261.719 138.993,261.719C138.993,261.719 138.994,261.719 138.995,261.72C138.997,261.72 138.999,261.721 139.002,261.722C139.009,261.724 139.019,261.728 139.032,261.732C139.058,261.74 139.096,261.753 139.146,261.768C139.245,261.799 139.389,261.841 139.57,261.89C139.932,261.986 140.44,262.107 141.028,262.2C142.203,262.387 143.706,262.469 144.995,262.039L144.94,261.875Z" fill="#01008A"/>
<path d="M146.999,258.467L143.178,259.73L143.232,259.894L147.054,258.631L146.999,258.467Z" fill="#01008A"/>
<path d="M143.813,258.658L146.504,260.25L146.592,260.101L143.901,258.509L143.813,258.658Z" fill="#01008A"/>
<path d="M170.5,269.395L170.539,272.318L145.245,272.62C145.245,272.62 145.332,272.318 145.791,269.697L170.5,269.395Z" fill="#01008A"/>
<path d="M145.83,269.524C146.318,266.739 154.698,266.03 159.812,265.52C164.927,265.01 164.122,258.895 164.122,258.895L170.347,258.817L170.501,269.395L145.801,269.689C145.81,269.628 145.82,269.576 145.83,269.524Z" fill="#CECEFF"/>
<path d="M158.931,269.533C159.009,269.496 159.009,269.496 159.009,269.496C159.009,269.496 159.009,269.496 159.009,269.496C159.009,269.495 159.009,269.495 159.009,269.495C159.009,269.495 159.008,269.494 159.008,269.494C159.008,269.492 159.007,269.491 159.006,269.488C159.003,269.484 159,269.478 158.996,269.469C158.987,269.453 158.975,269.429 158.957,269.4C158.923,269.34 158.871,269.256 158.799,269.154C158.655,268.952 158.432,268.681 158.114,268.408C157.475,267.86 156.456,267.302 154.931,267.25L154.925,267.423C156.407,267.474 157.389,268.014 158.001,268.539C158.307,268.802 158.521,269.061 158.658,269.254C158.726,269.351 158.776,269.431 158.808,269.486C158.824,269.514 158.835,269.535 158.843,269.549C158.846,269.557 158.849,269.562 158.851,269.566C158.852,269.567 158.852,269.569 158.853,269.569C158.853,269.57 158.853,269.57 158.853,269.57C158.853,269.57 158.853,269.57 158.853,269.57C158.853,269.57 158.853,269.57 158.853,269.57C158.853,269.57 158.853,269.57 158.931,269.533ZM154.931,267.25C153.425,267.198 151.61,267.219 150.173,267.254C149.454,267.271 148.83,267.292 148.385,267.308C148.162,267.316 147.985,267.323 147.863,267.328C147.802,267.331 147.755,267.333 147.723,267.334C147.707,267.335 147.695,267.335 147.686,267.336C147.682,267.336 147.679,267.336 147.677,267.336C147.676,267.336 147.675,267.336 147.675,267.336C147.675,267.336 147.674,267.336 147.674,267.336C147.674,267.336 147.674,267.336 147.674,267.336C147.674,267.336 147.674,267.336 147.678,267.423C147.682,267.509 147.682,267.509 147.682,267.509C147.682,267.509 147.682,267.509 147.682,267.509C147.682,267.509 147.682,267.509 147.683,267.509C147.683,267.509 147.684,267.509 147.685,267.509C147.687,267.509 147.69,267.509 147.694,267.509C147.702,267.508 147.714,267.508 147.73,267.507C147.762,267.506 147.809,267.504 147.87,267.501C147.991,267.496 148.169,267.489 148.391,267.481C148.836,267.465 149.459,267.444 150.177,267.427C151.613,267.392 153.424,267.371 154.925,267.423L154.931,267.25Z" fill="#01008A"/>
<path d="M164.821,265.926L164.794,265.844L164.794,265.844L164.821,265.926ZM167.196,258.852C167.11,258.854 167.11,258.854 167.11,258.854C167.11,258.854 167.11,258.854 167.11,258.854C167.11,258.855 167.11,258.855 167.11,258.855C167.11,258.856 167.11,258.857 167.11,258.858C167.11,258.861 167.11,258.866 167.11,258.872C167.11,258.883 167.111,258.901 167.111,258.923C167.112,258.969 167.112,259.036 167.112,259.121C167.111,259.293 167.108,259.538 167.096,259.836C167.071,260.431 167.013,261.233 166.875,262.06C166.737,262.889 166.522,263.737 166.185,264.429C165.848,265.122 165.397,265.645 164.794,265.844L164.848,266.009C165.515,265.788 165.994,265.217 166.341,264.505C166.688,263.792 166.907,262.925 167.046,262.089C167.185,261.252 167.244,260.443 167.268,259.843C167.281,259.543 167.284,259.295 167.285,259.122C167.285,259.035 167.284,258.967 167.284,258.921C167.284,258.898 167.283,258.88 167.283,258.868C167.283,258.862 167.283,258.858 167.283,258.855C167.283,258.853 167.283,258.852 167.283,258.851C167.283,258.851 167.283,258.85 167.283,258.85C167.283,258.85 167.283,258.85 167.283,258.85C167.283,258.85 167.283,258.85 167.196,258.852ZM164.794,265.844C163.545,266.262 162.074,266.184 160.909,265.999C160.328,265.907 159.826,265.788 159.468,265.692C159.29,265.644 159.148,265.602 159.051,265.572C159.002,265.557 158.965,265.545 158.939,265.537C158.927,265.533 158.917,265.53 158.911,265.528C158.908,265.527 158.905,265.526 158.904,265.525C158.903,265.525 158.903,265.525 158.902,265.525C158.902,265.525 158.902,265.525 158.902,265.525C158.902,265.525 158.902,265.525 158.902,265.525C158.902,265.525 158.902,265.525 158.874,265.606C158.846,265.688 158.846,265.688 158.846,265.688C158.846,265.688 158.846,265.688 158.846,265.688C158.846,265.688 158.846,265.689 158.846,265.689C158.847,265.689 158.848,265.689 158.848,265.689C158.85,265.69 158.853,265.691 158.856,265.692C158.863,265.694 158.873,265.697 158.886,265.702C158.912,265.71 158.95,265.722 159,265.738C159.099,265.768 159.243,265.811 159.424,265.859C159.785,265.956 160.294,266.076 160.882,266.17C162.056,266.356 163.56,266.439 164.848,266.009L164.794,265.844Z" fill="#01008A"/>
<path d="M166.853,262.437L163.032,263.708L163.086,263.872L166.908,262.601L166.853,262.437Z" fill="#01008A"/>
<path d="M163.666,262.637L166.357,264.228L166.446,264.079L163.754,262.488L163.666,262.637Z" fill="#01008A"/>
</svg>
