<svg width="160" height="518" viewBox="0 0 160 518" fill="none" xmlns="http://www.w3.org/2000/svg" xmlns:xlink="http://www.w3.org/1999/xlink">
<path d="M118.844,120.143C118.844,120.143 116.56,184.421 119.052,188.933C121.545,193.445 119.931,237.286 120.578,240.185C121.221,243.088 123.905,252.431 117.889,258.881C111.873,265.33 108.288,239.12 108.31,228.372C108.332,217.625 95.713,117.695 95.713,117.695L118.844,120.143Z" fill="#FFB27D"/>
<path d="M129.717,502.168L120.342,505.658C120.342,505.658 79.629,449.192 74.618,399.516C73.723,390.646 74.019,382.055 75.957,374.118C75.957,374.118 75.556,371.846 74.865,367.827C74.541,365.95 74.146,363.694 73.696,361.109C72.373,353.523 70.55,343.148 68.47,331.336C63.678,304.148 57.475,269.391 52.65,243.84L55.175,243.027L82.5,234.212L88.148,216.273L108.497,210.916C108.497,210.916 113.041,219.808 117.103,261.811C117.855,267.322 118.536,273.398 119.047,279.985C120.633,300.097 120.743,325.04 117.109,353.561C116.176,360.862 114.996,368.398 113.536,376.143C112.465,381.819 112.3,389.559 112.756,398.44C114.814,439.054 129.717,502.168 129.717,502.168Z" fill="#F99746"/>
<path d="M119.054,279.985L74.873,367.827C74.549,365.95 74.154,363.694 73.703,361.109C72.381,353.523 70.558,343.148 68.478,331.336C63.686,304.148 57.483,269.391 52.658,243.84L55.183,243.027L82.508,234.212L88.156,216.273L108.504,210.916C108.504,210.916 113.049,219.808 117.111,261.811C117.858,267.322 118.544,273.398 119.054,279.985Z" fill="#E58638"/>
<path d="M99.616,222.192L98.595,213.42C81.458,217.971 35.674,200.702 35.674,200.702C35.674,200.702 19.075,215.292 21.254,250.274C22.319,267.345 24.262,339.895 26.293,361.363C27.028,369.141 27.671,374.679 27.934,376.891C27.94,376.902 27.94,376.908 27.94,376.913C28.022,377.588 27.786,378.225 27.44,378.813C24.454,383.884 21.978,389.165 19.947,394.566C0.028,447.652 23.016,513.026 23.016,513.026L28.983,510.622C28.983,510.622 42.063,437.87 52.695,405.726C54.501,400.275 56.23,395.988 57.817,393.43C62.439,385.97 66.726,373.785 70.623,359.288C77.978,331.881 83.907,296.229 87.848,268.707C88.375,268.74 99.616,222.192 99.616,222.192Z" fill="#F99746"/>
<path d="M57.691,517.906L10.485,517.906C10.485,517.906 9.354,510.71 11.818,505.254C14.179,500.018 17.884,497.635 16.995,491.301C19.997,494.391 24.882,497.849 31.711,496.927C32.545,498.283 37.107,505.54 39.901,507.543C42.985,509.761 56.741,508.97 57.691,517.906Z" fill="#233862"/>
<path d="M159.053,517.905L111.847,517.905C111.847,517.905 110.085,510.374 113.181,505.253C115.925,500.719 114.871,498.139 112.841,494.385C114.981,495.257 117.748,496.053 120.794,495.883C123.144,495.746 125.636,494.681 127.815,493.413C129.846,495.729 138.546,505.588 141.263,507.542C144.348,509.76 158.104,508.969 159.053,517.905Z" fill="#233862"/>
<path d="M113.785,51.048C113.79,50.965 113.796,50.872 113.801,50.79C113.801,50.784 113.801,50.784 113.801,50.784C113.922,48.896 113.993,47.013 114.026,45.147L114.026,45.141C114.131,39.433 113.867,33.889 113.274,28.877L113.274,28.872C112.934,26.001 112.495,23.311 111.952,20.863C111.869,20.49 111.781,20.117 111.694,19.76C110.349,14.183 108.477,10.028 106.188,8.216C102.016,4.906 96.577,3.781 92.707,3.413C93.848,2.552 95.847,2.475 95.847,2.475C93.525,1.756 87.854,3.293 87.854,3.293C56.742,-14.547 44.04,33.351 42.992,44.779C42.421,50.965 41.592,57.629 38.085,63.64C38.024,63.744 37.958,63.854 37.893,63.958C34.906,68.92 30.06,73.443 21.936,76.841C-19.974,94.362 8.411,130.887 8.411,130.887C8.647,131.079 31.053,162.734 31.053,162.734C31.196,160.445 82.7,102.684 84.138,101.822C84.759,101.449 85.368,101.086 85.972,100.735C87.761,99.698 89.479,98.748 91.109,97.914C91.642,97.645 92.163,97.387 92.674,97.14C92.795,97.079 92.904,97.024 93.025,96.97L93.031,96.97C93.376,96.799 93.722,96.64 94.063,96.486C95.171,95.295 96.203,93.923 97.164,92.446C97.515,91.898 97.866,91.338 98.201,90.767C98.459,90.328 98.712,89.883 98.953,89.433C99.266,88.868 99.568,88.291 99.859,87.72C99.859,87.72 99.859,87.72 99.865,87.715C100.595,86.266 101.259,84.811 101.846,83.433C101.923,83.258 102,83.071 102.071,82.895C103.021,80.623 103.751,78.57 104.245,77.083C104.618,75.968 104.86,75.167 104.964,74.821C104.777,75.611 104.585,76.369 104.393,77.104C103.844,79.201 103.29,81.095 102.741,82.808C102.686,82.967 102.631,83.131 102.576,83.291C101.709,85.909 100.847,88.077 100.013,89.878C99.815,90.306 99.617,90.717 99.42,91.102C99.409,91.129 99.392,91.157 99.381,91.184C98.882,92.167 98.404,93.017 97.943,93.764C97.718,94.115 97.504,94.445 97.296,94.746C97.576,94.56 97.85,94.362 98.119,94.159C98.432,93.923 98.745,93.671 99.047,93.418C99.716,92.847 100.359,92.227 100.979,91.563C101.259,91.266 101.528,90.953 101.802,90.635C102.175,90.19 102.543,89.729 102.9,89.246C104.415,87.204 105.76,84.85 106.945,82.259C109.575,76.501 111.414,69.573 112.561,62.284C113.148,58.601 113.549,54.819 113.785,51.048Z" fill="#B5453C"/>
<path d="M59.711,82.718C59.711,82.718 69.081,82.641 78.292,84.327C84.555,85.474 90.637,87.971 94.067,89.766C102.542,94.202 100.27,109.692 82.074,105.207C63.866,100.734 58.015,87.225 59.711,82.718Z" fill="#FFB27D"/>
<path d="M92.651,97.008C92.755,97.073 94.122,110.626 82.09,109.051C74.191,108.013 57.916,96.936 60.013,90.278C61.012,87.111 67.725,79.256 70.585,60.247L71.996,60.758L95.703,69.37C95.703,69.37 93.963,76.983 92.827,84.229C91.877,90.316 91.361,96.146 92.651,97.008Z" fill="#FFB27D"/>
<path d="M95.71,69.369C95.71,69.369 93.97,76.983 92.834,84.228C79.21,81.736 73.897,68.134 72.003,60.757L95.71,69.369Z" fill="#F4A269"/>
<path d="M69.882,57.706C69.882,57.706 64.459,45.268 64.228,35.316C64.064,28.207 71.54,3.111 96.74,10.774C96.74,10.774 104.112,12.662 110.414,18.503C115.425,23.141 122.243,32.544 109.766,53.529L106.258,60.725L69.882,57.706Z" fill="#B5453C"/>
<path d="M112.122,56.662C108.861,67.014 103.992,77.301 99.222,76.944C99.222,76.944 97.532,76.714 94.952,76.115C86.246,74.09 67.462,67.882 69.845,52.314C71.826,39.377 71.662,28.914 76.799,23.595C79.67,20.62 84.193,19.259 91.675,19.973C112.528,21.96 115.371,30.276 115.981,37.263C116.25,40.332 114.685,48.511 112.122,56.662Z" fill="#F4A269"/>
<path d="M94.956,76.11C86.25,74.084 67.466,67.876 69.849,52.309C71.83,39.371 71.666,28.909 76.803,23.59C82.007,22.937 82.973,37.307 82.973,37.307C82.973,37.307 76.567,64.95 94.956,76.11Z" fill="#E5925A"/>
<path d="M106.5,21.746C106.5,21.746 93.99,44.043 79.845,45.443C65.699,46.843 60.358,42.292 60.358,42.292C60.358,42.292 72.072,35.612 76.469,21.472C76.469,21.472 101.549,9.456 106.5,21.746Z" fill="#B5453C"/>
<path d="M104.008,23.332C104.008,23.332 109.815,29.633 110.639,35.018C111.462,40.403 110.556,51.085 113.696,51.206C113.696,51.206 122.852,36.149 116.748,25.895C110.271,15.021 104.008,23.332 104.008,23.332Z" fill="#B5453C"/>
<path d="M19.36,240.51C27.983,247.877 66.874,238.918 79.224,233.034C84.664,230.443 92.069,229.642 99.095,229.093C108.025,228.407 116.347,228.149 119.256,225.223C120.266,224.208 116.363,212.96 112.433,200.978C108.937,190.324 105.413,179.082 105.292,173.944C105.275,173.236 105.325,172.643 105.446,172.182C107.778,163.421 109.897,155.358 110.078,151.532C110.534,141.915 108.58,127.243 108.58,127.243C121.918,125.86 122.039,120.53 122.039,120.53C120.755,116.22 113.751,100.225 110.775,96.41C107.8,92.595 94.056,89.763 94.056,89.763C94.056,89.763 96.465,103.058 81.255,101.746C66.034,100.428 59.699,82.715 59.699,82.715C59.699,82.715 29.723,74.91 26.776,99.923C23.773,125.322 34.104,173.209 33.154,188.271C31.101,199.677 11.818,234.061 19.36,240.51Z" fill="#01008A"/>
<path d="M55.716,144.45C55.716,144.45 70.794,194.835 112.429,200.983C108.933,190.328 105.409,179.087 105.288,173.949C86.268,158.585 60.25,142.82 55.716,144.45Z" fill="#02015C"/>
<path d="M32.343,110.468C32.343,110.468 68.796,178.988 95.759,179.115C95.759,179.115 100.501,179.274 98.415,167.362C97.806,163.882 94.051,155.698 88.859,145.823C83.26,135.18 75.998,122.571 69.186,111.747C60.678,98.227 52.867,87.491 49.892,86.837C42.322,85.169 32.074,97.442 32.343,110.468Z" fill="#FFB27D"/>
<path d="M67.726,104.417C67.726,104.417 61.133,122.855 35.351,119.808C35.351,119.808 19.317,102.682 36.526,87C53.734,71.312 67.726,104.417 67.726,104.417Z" fill="#2A4E96"/>
<path d="M112.461,81.539C112.461,81.539 117.423,63.205 114.843,62.409C112.264,61.613 96.669,64.127 96.927,69.446C97.19,74.765 100.435,83.119 100.435,83.119L112.461,81.539Z" fill="#FFB27D"/>
<path d="M69.181,111.746C71.371,129.13 87.783,155.571 87.783,155.571C88.909,152.837 89.183,149.484 88.859,145.822C83.255,135.184 75.993,122.571 69.181,111.746Z" fill="#F4A269"/>
<path d="M95.753,179.114C98.733,180.821 108.641,174.344 108.641,174.344C118.933,164.485 112.456,81.545 112.456,81.545L100.429,83.126C97.405,109.227 91.482,129.503 88.353,144.878C84.89,161.845 84.813,172.845 95.753,179.114Z" fill="#FFB27D"/>
<path d="M95.752,179.114C98.733,180.821 108.64,174.344 108.64,174.344C118.932,164.485 112.455,81.545 112.455,81.545C112.455,81.545 109.634,164.672 97.931,177.588C97.24,178.356 96.509,178.872 95.752,179.114Z" fill="#F4A269"/>
</svg>
