<svg width="40" height="20" viewBox="0 0 40 20" fill="none" xmlns="http://www.w3.org/2000/svg" xmlns:xlink="http://www.w3.org/1999/xlink">
<path d="M38.079,9.184C37.744,8.818 29.714,0.051 19.656,0.051C9.598,0.051 1.566,8.818 1.233,9.184C1.053,9.385 0.953,9.645 0.953,9.915C0.953,10.184 1.053,10.444 1.233,10.645C1.566,11.009 9.598,19.776 19.656,19.776C29.714,19.776 37.746,11.009 38.079,10.645C38.259,10.444 38.359,10.184 38.359,9.915C38.359,9.645 38.259,9.385 38.079,9.184L38.079,9.184ZM19.656,17.584C18.139,17.584 16.656,17.134 15.394,16.292C14.133,15.449 13.149,14.251 12.569,12.849C11.988,11.447 11.836,9.905 12.132,8.417C12.428,6.929 13.159,5.562 14.232,4.489C15.305,3.416 16.671,2.686 18.159,2.39C19.647,2.094 21.19,2.246 22.591,2.826C23.993,3.407 25.191,4.39 26.034,5.652C26.877,6.913 27.327,8.396 27.327,9.913C27.327,11.948 26.519,13.899 25.08,15.338C23.642,16.776 21.69,17.584 19.656,17.584L19.656,17.584Z" fill="#B5B5B5"/>
<path d="M20.752,7.722C20.754,7.199 20.88,6.685 21.12,6.22C21.36,5.756 21.707,5.356 22.133,5.053C21.369,4.652 20.519,4.44 19.656,4.435C18.611,4.432 17.587,4.727 16.705,5.287C15.823,5.847 15.119,6.647 14.676,7.594C14.234,8.541 14.072,9.594 14.208,10.63C14.345,11.666 14.775,12.641 15.447,13.441C16.12,14.24 17.007,14.831 18.004,15.143C19.002,15.455 20.067,15.475 21.076,15.202C22.084,14.928 22.993,14.372 23.696,13.598C24.399,12.825 24.865,11.867 25.041,10.837C24.55,10.998 24.027,11.041 23.515,10.961C23.004,10.881 22.519,10.681 22.1,10.377C21.681,10.073 21.341,9.673 21.106,9.212C20.872,8.75 20.751,8.24 20.752,7.722L20.752,7.722Z" fill="#B5B5B5"/>
</svg>
