<svg width="516" height="368" viewBox="0 0 516 368" fill="none" xmlns="http://www.w3.org/2000/svg" xmlns:xlink="http://www.w3.org/1999/xlink">
<g opacity="0.35">
<path d="M476.684,259.342C468.454,229.808 494.62,228.674 495.198,190.619C495.432,175.051 486.904,159.205 466.398,151.932C456.312,148.362 446.27,145.905 437.296,140.222C416.856,127.278 417.224,102.636 411.642,81.641C399.386,35.502 303.44,-1.172 255.724,0.029C221.328,0.885 205.46,17.465 174.1,46.656C152.649,66.628 114.84,64.827 125.861,116.436C135.669,162.407 112.527,158.993 91.332,175.963C70.181,192.899 54.691,213.104 63.109,236.034C72.394,261.322 15.57,275.834 5.439,308.606C-1.444,330.836 34.663,332.704 59.239,332.704C83.815,332.704 294.056,330.812 382.972,333.448C406.904,334.16 483.266,340.676 494.076,310.84C501.426,290.536 482.432,279.97 476.684,259.342Z" fill="#DCE0FF"/>
</g>
<path d="M503.263,249.843C485.573,291.013 451.479,324.635 410.605,342.851L411.235,344.266C452.451,325.897 486.836,291.997 504.686,250.454L503.263,249.843Z" fill="#B2B1FF"/>
<path d="M498.762,261.141C504.967,255.971 509.215,248.509 510.483,240.536C510.794,238.578 510.861,236.354 509.548,234.875C509.193,234.464 508.714,234.13 508.17,234.075C507.302,233.986 506.535,234.631 505.945,235.287C502.854,238.756 501.786,243.549 501.253,248.164C500.73,252.779 499.718,256.171 498.762,261.141Z" fill="#B2B1FF"/>
<path d="M490.319,275.23C493.966,268.024 494.912,259.494 492.91,251.666C492.421,249.753 491.598,247.685 489.807,246.839C489.318,246.606 488.74,246.495 488.228,246.65C487.394,246.917 486.938,247.807 486.672,248.641C485.215,253.045 486.138,257.882 487.472,262.33C488.807,266.778 489.229,270.281 490.319,275.23Z" fill="#B2B1FF"/>
<path d="M477.898,292.569C482.402,285.863 484.37,277.512 483.347,269.494C483.091,267.526 482.535,265.38 480.856,264.323C480.4,264.034 479.844,263.845 479.31,263.945C478.454,264.101 477.898,264.935 477.52,265.724C475.529,269.917 475.852,274.832 476.641,279.402C477.442,283.995 477.42,287.52 477.898,292.569Z" fill="#B2B1FF"/>
<path d="M463.632,307.76C468.136,301.055 470.115,292.703 469.081,284.685C468.825,282.717 468.269,280.571 466.59,279.515C466.134,279.225 465.578,279.036 465.045,279.136C464.188,279.292 463.632,280.126 463.254,280.916C461.264,285.108 461.586,290.023 462.376,294.594C463.165,299.175 463.154,302.711 463.632,307.76Z" fill="#B2B1FF"/>
<path d="M442.259,325.282C447.43,319.077 450.266,310.971 450.077,302.897C450.032,300.918 449.688,298.716 448.131,297.504C447.697,297.17 447.174,296.926 446.629,296.97C445.751,297.037 445.117,297.815 444.661,298.56C442.248,302.53 442.059,307.445 442.37,312.071C442.682,316.697 442.304,320.211 442.259,325.282Z" fill="#B2B1FF"/>
<path d="M425.512,336.467C430.605,330.952 433.885,323.245 434.575,315.217C434.742,313.248 434.686,311.024 433.485,309.623C433.151,309.234 432.729,308.934 432.262,308.911C431.506,308.878 430.883,309.556 430.405,310.246C427.925,313.893 427.235,318.742 427.013,323.379C426.791,328.016 426.09,331.452 425.512,336.467Z" fill="#B2B1FF"/>
<path d="M486.096,281.434C494.28,282.78 503.121,281.09 510.483,276.753C512.284,275.685 514.152,274.251 514.541,272.249C514.642,271.704 514.619,271.104 514.319,270.648C513.841,269.914 512.818,269.747 511.917,269.736C507.102,269.669 502.476,272.038 498.35,274.707C494.214,277.386 490.8,278.854 486.096,281.434Z" fill="#B2B1FF"/>
<path d="M476.066,294.559C483.695,297.828 492.68,298.284 500.865,295.838C502.866,295.237 505.035,294.292 505.88,292.435C506.113,291.924 506.225,291.345 506.047,290.834C505.758,290.011 504.812,289.611 503.934,289.377C499.274,288.154 494.215,289.355 489.578,290.956C484.918,292.557 481.237,293.169 476.066,294.559Z" fill="#B2B1FF"/>
<path d="M461.074,309.85C467.902,314.576 476.609,316.822 485.116,316.066C487.207,315.877 489.509,315.388 490.71,313.742C491.043,313.286 491.266,312.741 491.199,312.207C491.077,311.34 490.232,310.75 489.42,310.35C485.105,308.226 479.901,308.382 475.03,309.027C470.148,309.661 466.423,309.527 461.074,309.85Z" fill="#B2B1FF"/>
<path d="M440.102,327.505C447.808,330.596 456.793,330.863 464.922,328.228C466.913,327.583 469.048,326.593 469.86,324.714C470.082,324.202 470.182,323.613 469.993,323.101C469.682,322.278 468.725,321.9 467.847,321.689C463.165,320.577 458.139,321.889 453.524,323.59C448.909,325.314 445.25,326.015 440.102,327.505Z" fill="#B2B1FF"/>
<path d="M423.154,337.637C428.637,343.864 436.554,348.157 444.994,349.458C447.063,349.78 449.42,349.858 450.988,348.546C451.422,348.19 451.778,347.712 451.833,347.167C451.922,346.299 451.244,345.521 450.555,344.943C446.874,341.84 441.792,340.75 436.91,340.194C432.006,339.638 428.414,338.615 423.154,337.637Z" fill="#B2B1FF"/>
<path d="M403.489,163.132C403.266,163.121 403.089,162.943 403.077,162.721L402.922,160.508C402.899,160.263 403.089,160.052 403.333,160.041C403.567,160.019 403.789,160.208 403.8,160.452L403.956,162.665C403.978,162.91 403.789,163.121 403.544,163.132C403.522,163.132 403.5,163.132 403.489,163.132Z" fill="#DCDCFF"/>
<path d="M413.422,263.65L407.584,264.062L401.078,169.806L404.003,169.606L406.916,169.395L413.422,263.65Z" fill="#B2B1FF"/>
<path d="M404.049,161.777L402.859,161.855L401.08,169.806L406.918,169.395L404.049,161.777Z" fill="#B2B1FF"/>
<path d="M117.25,185.382C127.693,242.445 167.458,293.299 220.322,317.19L220.96,315.778C168.559,292.096 129.125,241.666 118.774,185.103L117.25,185.382Z" fill="#B2B1FF"/>
<path d="M120.649,197.124C115.756,190.708 113.276,182.479 113.81,174.428C113.943,172.448 114.377,170.269 115.989,169.123C116.434,168.812 116.968,168.59 117.513,168.656C118.38,168.768 118.992,169.557 119.403,170.324C121.638,174.394 121.616,179.31 121.105,183.925C120.593,188.539 120.815,192.065 120.649,197.124Z" fill="#B2B1FF"/>
<path d="M125.729,212.747C123.783,204.907 124.762,196.378 128.454,189.194C129.354,187.437 130.622,185.602 132.557,185.18C133.091,185.069 133.669,185.08 134.147,185.347C134.903,185.791 135.137,186.759 135.226,187.637C135.66,192.263 133.691,196.767 131.389,200.793C129.087,204.84 127.898,208.165 125.729,212.747Z" fill="#B2B1FF"/>
<path d="M133.969,232.412C131.078,224.872 131.011,216.287 133.802,208.703C134.481,206.846 135.515,204.867 137.383,204.222C137.895,204.044 138.473,203.977 138.973,204.199C139.774,204.544 140.13,205.478 140.319,206.335C141.32,210.872 139.907,215.575 138.117,219.868C136.338,224.16 135.559,227.608 133.969,232.412Z" fill="#B2B1FF"/>
<path d="M144.488,250.392C141.597,242.852 141.53,234.268 144.31,226.684C144.989,224.827 146.023,222.847 147.891,222.202C148.403,222.024 148.981,221.957 149.481,222.18C150.282,222.525 150.638,223.459 150.827,224.315C151.828,228.852 150.415,233.556 148.625,237.848C146.857,242.141 146.09,245.588 144.488,250.392Z" fill="#B2B1FF"/>
<path d="M161.426,272.254C157.767,265.059 156.811,256.519 158.801,248.69C159.291,246.766 160.113,244.698 161.904,243.864C162.393,243.63 162.971,243.508 163.483,243.675C164.317,243.942 164.773,244.831 165.051,245.665C166.519,250.069 165.607,254.906 164.261,259.354C162.916,263.791 162.515,267.294 161.426,272.254Z" fill="#B2B1FF"/>
<path d="M175.249,286.9C171.523,280.383 170.033,272.143 171.145,264.159C171.423,262.201 171.968,260.044 173.458,258.943C173.87,258.643 174.348,258.432 174.815,258.521C175.56,258.654 176.016,259.466 176.327,260.233C177.94,264.336 177.517,269.218 176.705,273.789C175.894,278.359 175.816,281.873 175.249,286.9Z" fill="#B2B1FF"/>
<path d="M128.465,219.729C120.18,219.217 111.94,215.592 105.735,209.732C104.211,208.297 102.71,206.473 102.788,204.438C102.81,203.882 102.966,203.304 103.355,202.926C103.989,202.314 105.012,202.381 105.902,202.57C110.606,203.571 114.587,206.918 118.023,210.432C121.448,213.968 124.462,216.17 128.465,219.729Z" fill="#B2B1FF"/>
<path d="M135.329,234.752C127.167,236.231 118.304,234.685 110.864,230.471C109.04,229.436 107.15,228.035 106.739,226.034C106.627,225.489 106.639,224.888 106.939,224.432C107.406,223.687 108.418,223.509 109.33,223.487C114.145,223.342 118.804,225.633 122.974,228.235C127.133,230.826 130.58,232.25 135.329,234.752Z" fill="#B2B1FF"/>
<path d="M146.526,253.013C138.82,256.105 129.823,256.349 121.706,253.714C119.715,253.069 117.58,252.068 116.768,250.2C116.546,249.688 116.446,249.099 116.635,248.587C116.946,247.765 117.902,247.386 118.781,247.175C123.463,246.063 128.489,247.386 133.104,249.099C137.719,250.8 141.377,251.501 146.526,253.013Z" fill="#B2B1FF"/>
<path d="M163.027,274.902C154.831,276.203 146.002,274.457 138.662,270.075C136.861,269.008 135.004,267.551 134.637,265.55C134.537,264.994 134.57,264.404 134.87,263.948C135.359,263.214 136.371,263.059 137.283,263.047C142.098,263.003 146.713,265.405 150.817,268.096C154.931,270.798 158.345,272.3 163.027,274.902Z" fill="#B2B1FF"/>
<path d="M177.293,288.558C170.554,293.407 161.892,295.82 153.373,295.219C151.283,295.075 148.97,294.619 147.735,292.995C147.402,292.55 147.157,292.005 147.224,291.461C147.324,290.593 148.169,289.993 148.97,289.57C153.251,287.368 158.444,287.435 163.326,287.98C168.219,288.536 171.933,288.336 177.293,288.558Z" fill="#B2B1FF"/>
<path d="M15.608,265.348C73.046,262.724 131.05,289.832 165.903,335.568L167.135,334.629C131.974,288.489 73.483,261.153 15.537,263.8L15.608,265.348Z" fill="#B2B1FF"/>
<path d="M27.749,264.459C20.398,261.123 11.824,260.567 4.096,262.903C2.205,263.47 0.17,264.393 -0.586,266.216C-0.797,266.717 -0.886,267.295 -0.697,267.807C-0.397,268.629 0.515,269.041 1.36,269.274C5.83,270.542 10.612,269.408 14.994,267.873C19.364,266.339 22.856,265.772 27.749,264.459Z" fill="#B2B1FF"/>
<path d="M44.107,265.9C36.034,265.755 27.938,268.635 21.778,273.851C20.265,275.13 18.764,276.775 18.797,278.755C18.809,279.3 18.942,279.867 19.32,280.256C19.921,280.89 20.921,280.912 21.789,280.79C26.393,280.178 30.34,277.242 33.754,274.095C37.157,270.948 40.137,269.047 44.107,265.9Z" fill="#B2B1FF"/>
<path d="M65.124,269.515C57.128,268.391 48.744,270.26 41.982,274.674C40.325,275.753 38.635,277.21 38.424,279.178C38.368,279.723 38.435,280.301 38.757,280.735C39.28,281.436 40.27,281.58 41.148,281.569C45.797,281.525 50.067,279.1 53.837,276.387C57.606,273.674 60.787,272.15 65.124,269.515Z" fill="#B2B1FF"/>
<path d="M85.008,275.733C77.013,274.61 68.628,276.478 61.867,280.893C60.21,281.972 58.52,283.429 58.309,285.397C58.253,285.942 58.32,286.52 58.642,286.954C59.165,287.654 60.155,287.799 61.033,287.788C65.681,287.743 69.952,285.319 73.721,282.606C77.502,279.892 80.683,278.369 85.008,275.733Z" fill="#B2B1FF"/>
<path d="M110.106,287.316C102.266,285.37 93.737,286.36 86.553,290.052C84.796,290.952 82.961,292.22 82.539,294.155C82.427,294.689 82.438,295.267 82.716,295.734C83.161,296.49 84.129,296.724 85.007,296.813C89.633,297.246 94.137,295.278 98.163,292.976C102.199,290.674 105.524,289.484 110.106,287.316Z" fill="#B2B1FF"/>
<path d="M127.487,297.509C120.303,295.34 111.941,295.74 104.401,298.621C102.555,299.321 100.576,300.344 99.842,302.046C99.642,302.513 99.553,303.035 99.731,303.469C100.031,304.17 100.92,304.436 101.743,304.559C106.102,305.204 110.773,303.703 115.043,301.879C119.313,300.055 122.716,299.188 127.487,297.509Z" fill="#B2B1FF"/>
<path d="M51.534,267.003C49.177,259.04 43.795,251.834 36.689,247.097C34.943,245.941 32.841,244.884 30.873,245.407C30.328,245.551 29.805,245.841 29.527,246.308C29.083,247.064 29.372,248.042 29.761,248.865C31.796,253.224 35.944,256.36 40.147,258.907C44.34,261.465 47.164,263.9 51.534,267.003Z" fill="#B2B1FF"/>
<path d="M67.715,270.306C67.326,262.011 63.823,253.726 58.052,247.432C56.64,245.886 54.838,244.363 52.803,244.407C52.247,244.418 51.669,244.574 51.291,244.952C50.679,245.575 50.724,246.598 50.902,247.499C51.836,252.225 55.116,256.25 58.597,259.731C62.055,263.212 64.212,266.247 67.715,270.306Z" fill="#B2B1FF"/>
<path d="M88.007,277.126C89.286,268.919 87.507,260.101 83.114,252.784C82.036,250.994 80.579,249.136 78.577,248.769C78.021,248.669 77.432,248.703 76.976,249.003C76.253,249.492 76.097,250.504 76.086,251.416C76.053,256.231 78.466,260.835 81.179,264.938C83.882,269.042 85.394,272.456 88.007,277.126Z" fill="#B2B1FF"/>
<path d="M113.055,288.292C112.476,280.007 108.796,271.801 102.88,265.64C101.434,264.128 99.599,262.637 97.564,262.726C97.008,262.749 96.43,262.916 96.063,263.305C95.462,263.939 95.54,264.962 95.729,265.851C96.774,270.555 100.144,274.503 103.691,277.906C107.239,281.32 109.463,284.311 113.055,288.292Z" fill="#B2B1FF"/>
<path d="M129.556,299.132C132.77,291.481 133.17,282.496 130.668,274.323C130.056,272.321 129.089,270.164 127.232,269.33C126.72,269.096 126.142,268.985 125.63,269.174C124.807,269.474 124.407,270.419 124.185,271.298C122.995,275.968 124.229,281.017 125.864,285.654C127.499,290.28 128.144,293.961 129.556,299.132Z" fill="#B2B1FF"/>
<path d="M197.89,288.976C189.538,281.158 177.729,277.177 166.341,278.323C158.635,279.101 150.228,283.216 148.527,290.777C147.715,294.38 148.004,299.151 144.59,300.574C141.254,301.965 138.029,298.528 134.604,297.372C128.899,295.459 122.394,301.976 124.318,307.669C125.196,310.26 127.387,312.518 127.198,315.242C126.953,318.956 122.361,320.891 118.68,320.313C114.999,319.735 111.752,317.589 108.149,316.666C104.546,315.743 99.864,316.666 98.597,320.168C97.462,323.304 99.42,327.519 96.951,329.776C95.894,330.744 94.371,330.944 92.948,331.077C61.711,334.047 27.304,339.651 30.796,345.2C31.753,346.713 34.199,346.234 35.989,346.201C102.489,345.156 162.894,344.166 229.36,346.212Z" fill="#B2B1FF"/>
<path d="M384.873,184.531L404.578,261.828L400.83,262.785L376.443,186.677Z" fill="#A09FFF"/>
<path d="M366.626,186.287C356.562,188.856 345.842,181.049 342.739,168.884C339.637,156.718 345.308,144.741 355.372,142.173C365.436,139.604 376.156,147.41 379.258,159.576C382.361,171.742 376.69,183.729 366.626,186.287ZM357.107,148.934C350.768,150.546 347.365,158.731 349.512,167.16C351.658,175.589 358.564,181.138 364.902,179.526C371.241,177.913 374.644,169.729 372.497,161.3C370.34,152.87 363.434,147.321 357.107,148.934Z" fill="#C6C8FF"/>
<path d="M376.992,164.804C377.314,166.083 382.986,188.313 382.986,188.313C383.286,189.491 382.574,190.692 381.396,191.004C380.217,191.304 379.016,190.592 378.704,189.413L378.026,186.756C378.026,186.756 374.879,180.039 366.172,182.808C366.172,182.808 376.547,181.507 376.903,181.54C377.27,181.551 376.669,163.514 376.992,164.804Z" fill="#AEADFF"/>
<path d="M382.251,194.376C379.205,195.155 376.102,193.309 375.324,190.262C375.324,190.262 374.968,188.416 374.245,187.393C373.122,185.792 370.82,185.191 366.616,186.259L365.549,180.32C367.762,179.609 369.352,178.541 371.131,178.675C372.088,178.563 372.877,178.463 373.533,178.386C373.522,176.562 373.489,174.16 373.466,172.325C373.444,170.368 375.98,168.166 375.969,166.765C375.957,164.241 373.377,161.705 376.502,161.283L379.583,160.871L386.377,187.449C387.144,190.495 385.298,193.598 382.251,194.376Z" fill="#C6C8FF"/>
<path d="M387.775,183.828L387.831,263.604L391.701,263.593L396.471,183.816Z" fill="#A09FFF"/>
<path d="M387.02,158.263C387.008,145.708 395.46,135.488 405.846,135.488C416.233,135.477 424.695,145.686 424.706,158.24C424.717,170.795 416.266,181.015 405.88,181.015C395.493,181.026 387.031,170.817 387.02,158.263ZM394.003,158.263C394.014,166.97 399.341,174.042 405.88,174.042C412.418,174.042 417.734,166.948 417.734,158.251C417.723,149.544 412.396,142.472 405.857,142.472C399.319,142.472 394.003,149.555 394.003,158.263Z" fill="#C6C8FF"/>
<path d="M390.522,162.77C390.522,164.093 390.544,187.024 390.544,187.024C390.544,188.247 391.533,189.236 392.757,189.236C393.98,189.236 394.97,188.247 394.97,187.024L394.97,184.288C394.97,184.288 396.36,177.004 405.467,177.527C405.467,177.527 395.092,178.839 394.758,178.95C394.402,179.073 390.51,161.447 390.522,162.77Z" fill="#AEADFF"/>
<path d="M392.747,192.728C395.894,192.728 398.441,190.17 398.441,187.023C398.441,187.023 398.329,185.144 398.774,183.976C399.475,182.141 401.543,180.996 405.891,180.996L405.446,174.98C403.133,174.846 401.321,174.201 399.631,174.769C398.674,174.891 397.885,174.991 397.229,175.08C396.784,173.312 396.228,170.977 395.794,169.186C395.338,167.285 392.336,165.783 391.991,164.427C391.379,161.98 393.248,158.878 390.112,159.245L387.031,159.612L387.042,187.045C387.054,190.181 389.611,192.728 392.747,192.728Z" fill="#C6C8FF"/>
<path d="M421.363,249.483L411.332,247.67L426.912,161.377C427.034,160.665 427.712,160.198 428.424,160.331L435.897,161.677C436.608,161.799 437.075,162.478 436.942,163.189L421.363,249.483Z" fill="#A09FFF"/>
<path d="M435.441,171.493L425.41,169.68L426.911,161.384C427.034,160.673 427.712,160.206 428.424,160.339L435.897,161.685C436.608,161.807 437.075,162.485 436.942,163.197L435.441,171.493Z" fill="#FF3874"/>
<g opacity="0.5">
<g opacity="0.5">
<g opacity="0.5">
<path d="M431.689,166.978L428.631,166.978L428.631,177.176L431.689,177.176L431.689,166.978Z" transform="rotate(-159.529 430.16 172.077)" fill="#DCDCFF"/>
</g>
</g>
</g>
<path d="M447.271,174.144L429.668,174.144L429.668,269.356L447.271,269.356L447.271,174.144Z" transform="rotate(43.026 438.469 221.75)" fill="#B2B1FF"/>
<path d="M457.32,182.158L462.713,184.282L463.281,182.841L457.887,180.717L457.32,182.158Z" fill="#E8EAFF"/>
<path d="M455.494,186.76L460.899,188.884L461.465,187.442L456.061,185.318L455.494,186.76Z" fill="#E8EAFF"/>
<path d="M453.68,191.353L459.085,193.488L459.654,192.048L454.249,189.912L453.68,191.353Z" fill="#E8EAFF"/>
<path d="M449.232,194.912L457.272,198.081L457.84,196.64L449.8,193.471L449.232,194.912Z" fill="#E8EAFF"/>
<path d="M450.06,200.564L455.453,202.688L456.021,201.247L450.628,199.123L450.06,200.564Z" fill="#E8EAFF"/>
<path d="M448.245,205.166L453.639,207.29L454.206,205.849L448.813,203.725L448.245,205.166Z" fill="#E8EAFF"/>
<path d="M446.43,209.755L451.823,211.89L452.393,210.45L447,208.315L446.43,209.755Z" fill="#E8EAFF"/>
<path d="M441.984,213.33L450.013,216.488L450.58,215.047L442.551,211.889L441.984,213.33Z" fill="#E8EAFF"/>
<path d="M442.806,218.971L448.199,221.095L448.767,219.653L443.374,217.529L442.806,218.971Z" fill="#E8EAFF"/>
<path d="M440.994,223.568L446.387,225.692L446.955,224.251L441.561,222.127L440.994,223.568Z" fill="#E8EAFF"/>
<path d="M439.182,228.162L444.575,230.297L445.145,228.856L439.752,226.721L439.182,228.162Z" fill="#E8EAFF"/>
<path d="M434.721,231.729L442.761,234.887L443.327,233.445L435.287,230.287L434.721,231.729Z" fill="#E8EAFF"/>
<path d="M435.556,237.373L440.949,239.497L441.517,238.056L436.124,235.932L435.556,237.373Z" fill="#E8EAFF"/>
<path d="M433.734,241.975L439.139,244.099L439.705,242.657L434.301,240.533L433.734,241.975Z" fill="#E8EAFF"/>
<path d="M431.919,246.568L437.323,248.703L437.892,247.262L432.488,245.127L431.919,246.568Z" fill="#E8EAFF"/>
<path d="M427.473,250.135L435.513,253.293L436.079,251.851L428.039,248.693L427.473,250.135Z" fill="#E8EAFF"/>
<path d="M428.296,255.775L433.69,257.899L434.257,256.458L428.864,254.334L428.296,255.775Z" fill="#E8EAFF"/>
<path d="M426.482,260.377L431.875,262.501L432.443,261.06L427.049,258.936L426.482,260.377Z" fill="#E8EAFF"/>
<path d="M424.668,264.974L430.061,267.109L430.632,265.669L425.238,263.534L424.668,264.974Z" fill="#E8EAFF"/>
<path d="M441.178,350.144L359.533,350.144L345.822,226.642C345.644,225.074 346.878,223.695 348.457,223.695L452.254,223.695C453.833,223.695 455.067,225.063 454.89,226.642L441.178,350.144Z" fill="#C6C8FF"/>
<path d="M338.807,355.521C387.981,356.188 437.155,356.856 486.329,357.534C487.975,357.556 493.179,355.944 484.216,350.172C476.621,345.279 452.634,349.683 452.634,349.683C452.634,349.683 458.217,347.448 458.195,344.557C458.172,341.665 455.982,339.13 453.346,337.929C450.722,336.728 447.719,336.639 444.839,336.806C438.967,337.139 433.152,338.44 427.703,340.642C430.016,339.219 430.727,335.727 429.148,333.514C427.569,331.301 424.044,330.834 421.942,332.569C425.623,327.576 431.328,305.458 413.813,295.705C391.862,283.484 375.193,293.537 371.634,300.898C369.833,293.681 361.548,288.21 356.088,286.865C343.644,283.773 335.549,284.696 323.928,290.112C319.825,292.036 314.32,298.585 311.585,302.199C307.303,307.871 306.636,315.41 306.403,322.505C306.225,327.832 306.202,333.169 306.336,338.496Z" fill="#E8EAFF"/>
<g opacity="0.2">
<path d="M367.541,363.384C367.541,365.931 318.011,367.999 256.916,367.999C195.821,367.999 146.291,365.931 146.291,363.384C146.291,360.838 195.821,358.77 256.916,358.77C318.011,358.77 367.541,360.838 367.541,363.384Z" fill="#8C8BFF"/>
</g>
<path d="M259.018,41.387C252.891,41.387 247.92,46.357 247.92,52.485L247.92,66.719L270.127,66.719C270.127,66.719 270.127,55.421 270.127,52.496C270.127,46.357 265.156,41.387 259.018,41.387ZM259.018,58.868C255.582,58.868 252.791,56.077 252.791,52.64C252.791,49.204 255.582,46.413 259.018,46.413C262.454,46.413 265.245,49.204 265.245,52.64C265.245,56.077 262.465,58.868 259.018,58.868Z" fill="#FF3874"/>
<g opacity="0.45">
<g opacity="0.45">
<g opacity="0.45">
<path d="M265.245,52.644C265.245,49.208 262.454,46.417 259.018,46.417C258.695,46.417 258.395,46.461 258.084,46.506C259.018,46.15 259.062,45.905 260.608,45.905C264.044,45.905 266.836,48.697 266.836,52.133C266.836,55.258 265.245,56.948 262.843,57.559C264.178,56.414 265.245,54.535 265.245,52.644ZM251.312,65.31L251.312,51.076C251.312,47.218 252.991,43.815 255.982,41.824C251.334,43.148 247.92,47.418 247.92,52.489L247.92,66.723L270.127,66.723C270.127,66.723 270.127,66.167 270.127,65.299L251.312,65.299L251.312,65.31Z" fill="#FF3874"/>
</g>
</g>
</g>
<path d="M350.705,363.333L163.116,363.333C157.134,363.333 152.285,358.483 152.285,352.501L152.285,78.308C152.285,72.325 157.134,67.477 163.116,67.477L350.705,67.477C356.687,67.477 361.535,72.325 361.535,78.308L361.535,352.513C361.547,358.483 356.687,363.333 350.705,363.333Z" fill="#D3D2FF"/>
<path d="M349.415,79.074L164.418,79.074L164.418,351.732L349.415,351.732L349.415,79.074Z" fill="#B2B1FF"/>
<path d="M342.31,87.398L171.535,87.398L171.535,343.398L342.31,343.398L342.31,87.398Z" fill="#FFFFFF"/>
<path d="M324.217,72.369L324.217,83.489L189.605,83.489L189.605,72.369C189.605,71.557 189.728,70.779 189.961,70.045C190.951,66.864 193.92,64.563 197.412,64.563L316.41,64.563C320.725,64.563 324.217,68.054 324.217,72.369Z" fill="#FF3874"/>
<g opacity="0.45">
<path d="M324.217,80.709L324.217,83.489L189.605,83.489L189.605,75.438C189.605,73.281 189.728,71.502 189.961,70.045C190.951,66.864 193.92,64.563 197.412,64.563L198.368,64.563C196.311,66.542 194.81,69.567 194.81,72.658L194.81,80.709L324.217,80.709Z" fill="#FF3874"/>
</g>
<g opacity="0.15">
<line x1="218.883" y1="112.87" x2="246.628" y2="112.87" stroke="#6D6CF1" stroke-width="1.736" stroke-miterlimit="10" stroke-linecap="round" stroke-linejoin="round"/>
<line x1="308.881" y1="121.721" x2="329.965" y2="121.721" stroke="#6D6CF1" stroke-width="1.736" stroke-miterlimit="10" stroke-linecap="round" stroke-linejoin="round"/>
<line x1="218.883" y1="121.721" x2="299.738" y2="121.721" stroke="#6D6CF1" stroke-width="1.736" stroke-miterlimit="10" stroke-linecap="round" stroke-linejoin="round"/>
<line x1="218.883" y1="130.565" x2="329.963" y2="130.565" stroke="#6D6CF1" stroke-width="1.736" stroke-miterlimit="10" stroke-linecap="round" stroke-linejoin="round"/>
<line x1="294.656" y1="139.409" x2="329.963" y2="139.409" stroke="#6D6CF1" stroke-width="1.736" stroke-miterlimit="10" stroke-linecap="round" stroke-linejoin="round"/>
<line x1="218.883" y1="139.409" x2="285.871" y2="139.409" stroke="#6D6CF1" stroke-width="1.736" stroke-miterlimit="10" stroke-linecap="round" stroke-linejoin="round"/>
<line x1="255.725" y1="112.87" x2="329.964" y2="112.87" stroke="#6D6CF1" stroke-width="1.736" stroke-miterlimit="10" stroke-linecap="round" stroke-linejoin="round"/>
</g>
<g opacity="0.15">
<line x1="218.887" y1="176.452" x2="246.632" y2="176.452" stroke="#6D6CF1" stroke-width="1.736" stroke-miterlimit="10" stroke-linecap="round" stroke-linejoin="round"/>
<line x1="308.883" y1="185.315" x2="329.967" y2="185.315" stroke="#6D6CF1" stroke-width="1.736" stroke-miterlimit="10" stroke-linecap="round" stroke-linejoin="round"/>
<line x1="218.885" y1="185.315" x2="299.74" y2="185.315" stroke="#6D6CF1" stroke-width="1.736" stroke-miterlimit="10" stroke-linecap="round" stroke-linejoin="round"/>
<line x1="218.885" y1="194.147" x2="329.965" y2="194.147" stroke="#6D6CF1" stroke-width="1.736" stroke-miterlimit="10" stroke-linecap="round" stroke-linejoin="round"/>
<line x1="294.658" y1="202.991" x2="329.965" y2="202.991" stroke="#6D6CF1" stroke-width="1.736" stroke-miterlimit="10" stroke-linecap="round" stroke-linejoin="round"/>
<line x1="218.885" y1="202.991" x2="285.873" y2="202.991" stroke="#6D6CF1" stroke-width="1.736" stroke-miterlimit="10" stroke-linecap="round" stroke-linejoin="round"/>
<line x1="255.727" y1="176.452" x2="329.966" y2="176.452" stroke="#6D6CF1" stroke-width="1.736" stroke-miterlimit="10" stroke-linecap="round" stroke-linejoin="round"/>
</g>
<g opacity="0.15">
<line x1="218.885" y1="237.792" x2="246.63" y2="237.792" stroke="#6D6CF1" stroke-width="1.736" stroke-miterlimit="10" stroke-linecap="round" stroke-linejoin="round"/>
<line x1="308.883" y1="246.643" x2="329.967" y2="246.643" stroke="#6D6CF1" stroke-width="1.736" stroke-miterlimit="10" stroke-linecap="round" stroke-linejoin="round"/>
<line x1="218.885" y1="246.643" x2="299.74" y2="246.643" stroke="#6D6CF1" stroke-width="1.736" stroke-miterlimit="10" stroke-linecap="round" stroke-linejoin="round"/>
<line x1="218.885" y1="255.487" x2="329.965" y2="255.487" stroke="#6D6CF1" stroke-width="1.736" stroke-miterlimit="10" stroke-linecap="round" stroke-linejoin="round"/>
<line x1="294.658" y1="264.327" x2="329.965" y2="264.327" stroke="#6D6CF1" stroke-width="1.736" stroke-miterlimit="10" stroke-linecap="round" stroke-linejoin="round"/>
<line x1="218.885" y1="264.327" x2="285.873" y2="264.327" stroke="#6D6CF1" stroke-width="1.736" stroke-miterlimit="10" stroke-linecap="round" stroke-linejoin="round"/>
<line x1="255.727" y1="237.792" x2="329.966" y2="237.792" stroke="#6D6CF1" stroke-width="1.736" stroke-miterlimit="10" stroke-linecap="round" stroke-linejoin="round"/>
</g>
<g opacity="0.15">
<line x1="218.885" y1="300.257" x2="246.63" y2="300.257" stroke="#6D6CF1" stroke-width="1.736" stroke-miterlimit="10" stroke-linecap="round" stroke-linejoin="round"/>
<line x1="308.883" y1="309.096" x2="329.967" y2="309.096" stroke="#6D6CF1" stroke-width="1.736" stroke-miterlimit="10" stroke-linecap="round" stroke-linejoin="round"/>
<line x1="218.885" y1="309.096" x2="299.74" y2="309.096" stroke="#6D6CF1" stroke-width="1.736" stroke-miterlimit="10" stroke-linecap="round" stroke-linejoin="round"/>
<line x1="218.885" y1="317.952" x2="329.965" y2="317.952" stroke="#6D6CF1" stroke-width="1.736" stroke-miterlimit="10" stroke-linecap="round" stroke-linejoin="round"/>
<line x1="294.658" y1="326.792" x2="329.965" y2="326.792" stroke="#6D6CF1" stroke-width="1.736" stroke-miterlimit="10" stroke-linecap="round" stroke-linejoin="round"/>
<line x1="218.885" y1="326.792" x2="285.873" y2="326.792" stroke="#6D6CF1" stroke-width="1.736" stroke-miterlimit="10" stroke-linecap="round" stroke-linejoin="round"/>
<line x1="255.727" y1="300.257" x2="329.966" y2="300.257" stroke="#6D6CF1" stroke-width="1.736" stroke-miterlimit="10" stroke-linecap="round" stroke-linejoin="round"/>
</g>
<path d="M207.187,135.854L186.437,135.854L186.437,138.887L207.187,138.887L207.187,135.854ZM186.437,135.854C185.984,135.854 185.618,135.487 185.618,135.035L182.585,135.035C182.585,137.162 184.309,138.887 186.437,138.887L186.437,135.854ZM185.618,135.035L185.618,114.284L182.585,114.284L182.585,135.035L185.618,135.035ZM185.618,114.284C185.618,113.832 185.984,113.466 186.437,113.466L186.437,110.433C184.309,110.433 182.585,112.157 182.585,114.284L185.618,114.284ZM186.437,113.466L207.187,113.466L207.187,110.433L186.437,110.433L186.437,113.466ZM207.187,113.466C207.64,113.466 208.006,113.832 208.006,114.284L211.039,114.284C211.039,112.157 209.315,110.433 207.187,110.433L207.187,113.466ZM208.006,114.284L208.006,135.035L211.039,135.035L211.039,114.284L208.006,114.284ZM208.006,135.035C208.006,135.487 207.64,135.854 207.187,135.854L207.187,138.887C209.315,138.887 211.039,137.162 211.039,135.035L208.006,135.035Z" fill="#B2B1FF"/>
<path d="M207.187,199.225L186.437,199.225L186.437,202.258L207.187,202.258L207.187,199.225ZM186.437,199.225C185.984,199.225 185.618,198.859 185.618,198.406L182.585,198.406C182.585,200.534 184.309,202.258 186.437,202.258L186.437,199.225ZM185.618,198.406L185.618,177.656L182.585,177.656L182.585,198.406L185.618,198.406ZM185.618,177.656C185.618,177.203 185.984,176.837 186.437,176.837L186.437,173.804C184.309,173.804 182.585,175.528 182.585,177.656L185.618,177.656ZM186.437,176.837L207.187,176.837L207.187,173.804L186.437,173.804L186.437,176.837ZM207.187,176.837C207.64,176.837 208.006,177.203 208.006,177.656L211.039,177.656C211.039,175.528 209.315,173.804 207.187,173.804L207.187,176.837ZM208.006,177.656L208.006,198.406L211.039,198.406L211.039,177.656L208.006,177.656ZM208.006,198.406C208.006,198.852 207.635,199.225 207.187,199.225L207.187,202.258C209.319,202.258 211.039,200.518 211.039,198.406L208.006,198.406Z" fill="#B2B1FF"/>
<path d="M207.187,262.596L186.437,262.596L186.437,265.629L207.187,265.629L207.187,262.596ZM186.437,262.596C185.984,262.596 185.618,262.23 185.618,261.777L182.585,261.777C182.585,263.905 184.309,265.629 186.437,265.629L186.437,262.596ZM185.618,261.777L185.618,241.027L182.585,241.027L182.585,261.777L185.618,261.777ZM185.618,241.027C185.618,240.574 185.984,240.208 186.437,240.208L186.437,237.175C184.309,237.175 182.585,238.899 182.585,241.027L185.618,241.027ZM186.437,240.208L207.187,240.208L207.187,237.175L186.437,237.175L186.437,240.208ZM207.187,240.208C207.64,240.208 208.006,240.574 208.006,241.027L211.039,241.027C211.039,238.899 209.315,237.175 207.187,237.175L207.187,240.208ZM208.006,241.027L208.006,261.777L211.039,261.777L211.039,241.027L208.006,241.027ZM208.006,261.777C208.006,262.23 207.64,262.596 207.187,262.596L207.187,265.629C209.315,265.629 211.039,263.905 211.039,261.777L208.006,261.777Z" fill="#B2B1FF"/>
<path d="M207.187,325.959L186.437,325.959L186.437,328.992L207.187,328.992L207.187,325.959ZM186.437,325.959C185.984,325.959 185.618,325.593 185.618,325.14L182.585,325.14C182.585,327.268 184.309,328.992 186.437,328.992L186.437,325.959ZM185.618,325.14L185.618,304.39L182.585,304.39L182.585,325.14L185.618,325.14ZM185.618,304.39C185.618,303.938 185.984,303.571 186.437,303.571L186.437,300.538C184.309,300.538 182.585,302.262 182.585,304.39L185.618,304.39ZM186.437,303.571L207.187,303.571L207.187,300.538L186.437,300.538L186.437,303.571ZM207.187,303.571C207.64,303.571 208.006,303.938 208.006,304.39L211.039,304.39C211.039,302.262 209.315,300.538 207.187,300.538L207.187,303.571ZM208.006,304.39L208.006,325.14L211.039,325.14L211.039,304.39L208.006,304.39ZM208.006,325.14C208.006,325.593 207.64,325.959 207.187,325.959L207.187,328.992C209.315,328.992 211.039,327.268 211.039,325.14L208.006,325.14Z" fill="#B2B1FF"/>
<path d="M188.767,118.902C188.063,118.052 186.802,117.933 185.951,118.637C185.1,119.342 184.982,120.603 185.686,121.453L188.767,118.902ZM196.812,131.754L195.272,133.03C195.68,133.523 196.3,133.791 196.939,133.75C197.578,133.71 198.159,133.365 198.502,132.825L196.812,131.754ZM216.939,103.723C217.53,102.79 217.253,101.554 216.32,100.963C215.387,100.372 214.151,100.649 213.56,101.582L216.939,103.723ZM185.686,121.453L195.272,133.03L198.353,130.479L188.767,118.902L185.686,121.453ZM198.502,132.825L216.939,103.723L213.56,101.582L195.123,130.684L198.502,132.825Z" fill="#FFA829"/>
<path d="M188.767,181.746C188.063,180.895 186.802,180.777 185.951,181.481C185.1,182.186 184.982,183.446 185.686,184.297L188.767,181.746ZM196.812,194.598L195.272,195.873C195.68,196.367 196.3,196.634 196.939,196.594C197.578,196.553 198.159,196.209 198.502,195.668L196.812,194.598ZM216.939,166.566C217.53,165.633 217.253,164.398 216.32,163.807C215.387,163.215 214.151,163.493 213.56,164.426L216.939,166.566ZM185.686,184.297L195.272,195.873L198.353,193.322L188.767,181.746L185.686,184.297ZM198.502,195.668L216.939,166.566L213.56,164.426L195.123,193.527L198.502,195.668Z" fill="#FFA829"/>
<path d="M116.543,201.473C116.543,201.473 117.021,204.642 117.321,204.92C117.321,204.92 117.021,205.454 116.109,205.498Z" fill="#FFB392"/>
<g opacity="0.4">
<path d="M140.315,363.637C140.315,364.96 128.439,366.028 113.793,366.028C99.148,366.028 87.271,364.96 87.271,363.637C87.271,362.314 99.148,361.246 113.793,361.246C128.439,361.246 140.315,362.314 140.315,363.637Z" fill="#8C8BFF"/>
</g>
<path d="M125.918,216.304L120.057,242.059C119.902,242.759 120.369,243.449 121.08,243.549L139.329,246.173C139.963,246.262 140.563,245.851 140.708,245.228L146.568,219.473C146.724,218.773 146.257,218.083 145.545,217.983L127.297,215.359C126.652,215.259 126.051,215.67 125.918,216.304Z" fill="#C0BFFF"/>
<path d="M127.052,217.121L121.447,241.775L139.562,244.377L145.178,219.723L127.052,217.121Z" fill="#E8E8FF"/>
<path d="M143.21,221.865C143.384,221.89 143.546,221.769 143.571,221.594C143.596,221.42 143.475,221.258 143.301,221.233L143.21,221.865ZM127.899,219.02C127.724,218.995 127.563,219.116 127.537,219.291C127.512,219.465 127.634,219.627 127.808,219.652L127.899,219.02ZM143.301,221.233L127.899,219.02L127.808,219.652L143.21,221.865L143.301,221.233Z" fill="#2321BF"/>
<path d="M142.685,224.193C142.859,224.218 143.021,224.097 143.046,223.922C143.071,223.748 142.95,223.586 142.776,223.561L142.685,224.193ZM127.385,221.348C127.211,221.323 127.049,221.444 127.024,221.619C126.999,221.793 127.12,221.955 127.294,221.98L127.385,221.348ZM142.776,223.561L127.385,221.348L127.294,221.98L142.685,224.193L142.776,223.561Z" fill="#2321BF"/>
<path d="M136.285,226.129C136.459,226.154 136.621,226.032 136.646,225.858C136.671,225.683 136.55,225.521 136.375,225.496L136.285,226.129ZM126.756,224.118C126.582,224.093 126.42,224.214 126.395,224.388C126.37,224.563 126.491,224.725 126.666,224.75L126.756,224.118ZM136.375,225.496L126.756,224.118L126.666,224.75L136.285,226.129L136.375,225.496Z" fill="#2321BF"/>
<path d="M135.593,228.129C135.768,228.154 135.93,228.032 135.955,227.858C135.98,227.683 135.858,227.522 135.684,227.496L135.593,228.129ZM126.065,226.118C125.89,226.093 125.729,226.214 125.703,226.388C125.678,226.563 125.8,226.725 125.974,226.75L126.065,226.118ZM135.684,227.496L126.065,226.118L125.974,226.75L135.593,228.129L135.684,227.496Z" fill="#2321BF"/>
<path d="M134.914,230.132C135.088,230.157 135.25,230.036 135.275,229.862C135.3,229.687 135.179,229.525 135.004,229.5L134.914,230.132ZM125.385,228.121C125.211,228.096 125.049,228.218 125.024,228.392C124.999,228.567 125.12,228.729 125.295,228.754L125.385,228.121ZM135.004,229.5L125.385,228.121L125.295,228.754L134.914,230.132L135.004,229.5Z" fill="#2321BF"/>
<path d="M138.441,241.202C138.615,241.227 138.777,241.106 138.802,240.932C138.827,240.757 138.706,240.595 138.532,240.57L138.441,241.202ZM128.913,239.18C128.738,239.155 128.576,239.276 128.551,239.45C128.526,239.625 128.647,239.787 128.822,239.812L128.913,239.18ZM138.532,240.57L128.913,239.18L128.822,239.812L138.441,241.202L138.532,240.57Z" fill="#2321BF"/>
<path d="M118.886,242.352C119.92,241.863 120.688,240.962 121.422,240.095C122.144,239.228 122.867,238.371 123.601,237.504C123.89,237.159 124.191,236.792 124.224,236.347C123.012,236.247 122.222,237.826 121.01,237.915C121.577,235.914 122.389,233.979 123.423,232.177C123.679,231.732 123.946,231.221 123.768,230.754C122.456,231.254 121.344,232.188 120.387,233.223C119.72,233.945 119.097,234.724 118.553,235.547C116.951,237.971 115.95,240.762 115.283,243.587Z" fill="#F2A181"/>
<path d="M113.661,263.1L100.628,252.113C100.628,252.113 94.567,260.342 96.847,268.271C97.97,272.174 99.382,274.109 99.994,275.955C100.561,277.69 104.486,302.166 104.197,303.956C103.908,305.746 101.795,310.75 100.995,316.022C100.027,322.36 100.194,342.988 99.438,348.459C98.693,353.931 103.741,354.854 104.019,353.008C106.399,337.183 112.671,312.53 113.549,304.623C114.428,296.706 114.072,282.227 113.661,263.1Z" fill="#FFBE9D"/>
<path d="M113.695,278.686L108.023,291.685C110.414,295.722 111.793,300.482 111.971,305.308C112.071,307.821 111.849,310.334 111.916,312.836C111.916,313.014 111.949,313.203 111.993,313.381C112.75,309.667 113.317,306.598 113.539,304.596C114.162,299.003 114.162,290.128 113.962,278.652C113.884,278.675 113.795,278.675 113.695,278.686Z" fill="#F2A181"/>
<path d="M104.898,347.927C104.898,347.927 103.685,353.665 104.008,354.399C104.33,355.133 105.509,357.257 106.71,358.024C107.967,358.836 110.769,359.792 110.991,360.137C111.214,360.482 111.225,360.993 110.836,361.305C109.802,362.116 108.022,362.506 106.855,362.317C103.063,361.694 102.673,360.015 100.472,359.748C100.094,359.703 99.382,360.259 98.337,359.726C97.28,359.192 96.769,358.213 96.858,357.29C97.013,355.711 97.903,354.41 98.537,353.231C99.171,352.064 99.615,346.715 99.615,346.715Z" fill="#FFBE9D"/>
<path d="M111.127,361.59C111.405,361.123 111.472,360.4 111.216,360.233C110.861,359.988 109.593,359.154 108.859,358.81C108.125,358.476 106.957,358.176 107.369,358.398C107.78,358.621 107.024,359.444 106.335,359.41C103.966,359.266 102.209,357.686 100.852,357.353C98.895,356.864 98.083,354.562 97.994,354.184C97.627,354.417 96.771,356.274 96.593,356.852C96.438,357.375 96.16,358.343 96.304,358.899C96.404,359.277 96.638,360.044 96.515,360.845C96.515,360.845 96.905,361.145 97.917,361.356C98.561,361.49 99.429,361.378 99.429,361.378L99.596,360.155C99.596,360.155 100.129,360.133 100.808,360.278C101.486,360.422 102.587,361.056 102.654,361.134C102.921,361.456 103.143,362.046 103.499,362.224C104.444,362.702 105.4,362.924 106.613,363.002C109.17,363.135 110.66,362.39 111.127,361.59Z" fill="#01008A"/>
<path d="M131.452,361.341C131.174,361.03 128.149,360.54 126.737,359.951C125.391,359.384 123.756,357.571 123.434,356.804C123.111,356.037 123.189,352.144 123.234,350.499C123.512,339.234 125.602,311.7 125.903,305.106C126.425,293.641 124.935,281.82 120.532,263.416L104.118,250.816C104.118,250.816 99.525,259.368 101.06,267.541C101.95,272.279 105.886,273.012 106.553,274.858C107.221,276.704 117.151,306.418 117.151,306.418C117.151,306.418 115.216,312.845 115.105,319.873C115.005,325.878 117.729,344.004 118.241,350.91C118.296,352.256 118.53,355.492 118.13,356.515C117.64,357.771 116.406,359.25 116.461,360.841C116.495,361.764 117.162,362.642 118.33,362.998C119.497,363.354 120.142,362.687 120.543,362.675C122.856,362.575 123.501,364.177 127.493,364.166C128.727,364.166 130.517,363.487 131.463,362.52C131.819,362.153 131.73,361.652 131.452,361.341Z" fill="#FFBE9D"/>
<path d="M131.796,362.752C132.018,362.241 131.985,361.518 131.696,361.396C131.295,361.218 129.872,360.595 129.06,360.373C128.259,360.161 127.014,360.05 127.47,360.206C127.926,360.362 127.259,361.296 126.547,361.373C124.078,361.618 122.043,360.339 120.609,360.228C118.529,360.061 117.762,357.926 117.617,357.57C117.273,357.859 116.238,359.839 116.149,360.439C116.06,360.984 115.905,361.985 116.138,362.508C116.294,362.864 116.639,363.586 116.639,364.398C116.639,364.398 117.072,364.632 118.162,364.665C118.852,364.687 119.719,364.443 119.719,364.443L119.719,363.208C119.719,363.208 120.264,363.097 120.987,363.13C121.698,363.153 122.588,363.52 123.022,363.853C123.366,364.109 123.722,364.543 124.123,364.643C125.279,364.932 126.113,365.021 127.37,364.887C129.994,364.598 131.418,363.631 131.796,362.752Z" fill="#01008A"/>
<path d="M100.971,250.71C99.859,251.934 95.889,258.55 95.845,263.932C95.8,269.315 97.524,272.817 97.891,273.896C98.903,276.843 100.793,279.467 100.793,280.012C100.793,280.546 103.751,280.924 110.034,280.524C121.644,279.79 125.903,277.621 125.903,277.621C125.903,277.621 126.281,272.795 125.091,262.32C124.524,257.349 120.287,249.465 120.287,249.465Z" fill="#01008A"/>
<path d="M90.385,229.196C90.385,229.196 92.253,238.482 92.742,240.139C93.232,241.796 95.656,252.282 97.958,252.104C100.26,251.926 112.848,241.418 112.848,241.418L111.069,237.848L99.993,243.13C99.993,243.13 98.992,231.131 98.113,228.273Z" fill="#FFBE9D"/>
<path d="M94.668,234.91C95.836,239.058 98.249,243.428 98.96,246.642C99.105,247.287 106.778,244.496 106.789,241.616Z" fill="#F2A181"/>
<path d="M97.893,216.332C97.893,216.332 94.224,216.721 92.355,218.145C87.607,221.781 91.277,234.97 91.277,234.97C91.277,234.97 91.043,235.67 94.235,235.492C97.426,235.314 99.984,234.403 99.984,234.403L99.061,223.594Z" fill="#FF3874"/>
<path d="M93.688,223.789C93.688,223.789 93.287,231.54 94.689,235.454C96.079,235.432 97.291,235.11 97.291,235.11L93.688,223.789Z" fill="#B03D44"/>
<path d="M115.452,191.987C117.665,194.856 117.231,198.892 116.686,202.473C116.408,204.286 116.13,206.098 115.863,207.911C115.73,208.767 115.552,209.712 114.885,210.268C114.206,210.824 113.239,210.824 112.361,210.78C112.372,212.281 112.383,213.782 112.383,215.284C109.814,215.35 107.256,215.361 104.688,215.317C104.688,214.272 104.454,213.215 104.02,212.259C102.764,212.237 101.93,210.98 101.44,209.824C100.873,208.489 100.462,207.099 100.061,205.709C99.528,203.863 99.027,201.984 98.972,200.06C98.927,198.136 99.383,196.146 100.595,194.656C101.429,193.644 102.564,192.921 103.72,192.32C105.31,191.486 107.223,190.83 108.869,191.564Z" fill="#FFBE9D"/>
<path d="M112.794,205.655C112.493,204.142 112.516,203.297 113.005,202.296C113.172,201.963 113.383,201.651 113.683,201.44C114.083,201.162 114.617,201.107 115.051,201.296C115.34,201.418 115.574,201.651 115.74,201.941C116.263,199.917 116.374,197.759 116.219,195.658C115.974,192.322 113.972,189.742 111.037,188.541C105.599,186.305 97.792,188.518 95.59,193.845C93.922,197.871 94.768,203.686 97.959,207.067C100.784,210.058 104.854,210.492 108.601,209.88C110.525,209.569 113.483,209.758 114.473,207.145C114.551,206.945 114.373,206.745 114.172,206.756C113.394,206.822 112.849,205.944 112.794,205.655Z" fill="#020153"/>
<path d="M113.216,198.573C113.416,198.885 113.372,199.318 113.561,199.641C113.883,200.186 114.306,200.386 114.873,200.642C115.796,201.064 115.585,202.41 115.551,203.01C116.252,202.543 116.363,201.287 116.53,200.653C116.719,199.93 116.841,199.196 117.053,198.484C117.253,197.795 117.609,197.139 117.675,196.405C117.898,193.881 116.319,190.923 114.406,189.51C113.016,188.476 110.892,188.521 109.324,189.566C108.657,190.011 108.167,190.678 107.867,191.412C107.745,191.734 107.656,192.101 107.812,192.402Z" fill="#020153"/>
<path d="M100.861,216.372C100.995,215.494 101.228,214.471 102.051,214.126C102.274,214.026 102.529,214.004 102.774,213.97C105.276,213.692 107.8,213.57 110.314,213.614C111.359,213.626 112.438,213.681 113.361,214.148C114.817,214.882 115.629,216.45 116.33,217.929Z" fill="#B03D44"/>
<path d="M122.07,248.557C121.726,248.034 120.914,247.423 120.625,246.856C119.924,245.488 119.324,239.728 119.557,238.26C119.813,236.681 121.214,235.836 121.837,232.333C122.649,227.818 120.791,224.304 119.757,222.791C118.289,220.667 119.157,220.678 118.656,218.065C118.567,217.598 118.456,217.098 118.134,216.764C117.822,216.442 115.632,215.441 115.209,215.374C111.139,214.74 108.748,215.241 104.634,215.419C102.599,215.508 100.564,215.741 98.562,216.186C96.349,216.675 94.425,217.265 93.969,220.267C93.269,224.904 93.858,229.608 95.27,234.001C96.204,236.914 101.787,247.011 100.408,248.969C100.097,249.413 99.296,250.259 99.207,250.825C98.862,252.872 103.466,253.584 105.445,253.75C108.448,253.995 111.906,253.828 114.92,253.695C117.2,253.584 122.193,252.794 122.548,249.969C122.615,249.413 122.348,248.969 122.07,248.557Z" fill="#FF3874"/>
<path d="M121.197,233.199C121.197,234.022 120.741,235.122 120.586,235.556C120.008,235.845 117.739,236.335 116.438,235.745C116.149,233.032 114.559,227.816 114.559,227.816C114.559,227.816 121.197,232.442 121.197,233.199Z" fill="#B03D44"/>
<path d="M118.287,231.311C118.287,231.311 125.804,249.482 129.063,249.482C131.431,249.482 137.258,232.712 137.258,232.712L133.578,230.966L129.474,237.994L125.326,224.895Z" fill="#FFBE9D"/>
<path d="M132.854,232.216C132.854,232.216 134.077,230.293 133.988,228.936C133.954,228.413 133.643,225.945 133.899,225.466C134.155,224.977 134.777,223.387 135.133,223.087C135.489,222.775 136.79,222.286 137.113,222.497C137.435,222.72 137.824,221.708 138.358,221.786C138.892,221.874 139.326,222.319 139.326,222.797C139.326,223.287 140.037,223.376 140.115,223.72C140.204,224.076 140.16,224.388 140.293,224.643C140.426,224.91 140.816,224.777 140.96,225.433C141.083,226.033 140.916,226.1 140.96,226.4C141.005,226.712 141.272,226.678 141.183,227.268C141.094,227.857 140.693,228.625 140.337,229.281C139.982,229.948 139.259,230.771 138.291,231.36C137.813,231.649 137.546,232.15 137.09,233.006Z" fill="#FFBE9D"/>
<path d="M134.867,218.178C134.778,218.034 134.523,217.789 134.222,218C133.922,218.212 134.011,218.579 134.078,218.723C134.145,218.868 136.302,223.75 136.302,223.75C136.302,223.75 136.48,223.961 136.825,223.65C137.203,223.316 137.08,223.16 137.08,223.16C137.08,223.16 134.967,218.323 134.867,218.178Z" fill="#01008A"/>
<path d="M137.212,222.836C136.79,223.592 136.3,223.836 135.855,224.248C135.511,224.57 135.555,224.782 135.166,225.115C135.833,225.071 135.722,224.671 136.589,224.048C136.99,223.759 137.401,223.447 137.49,222.947C137.512,222.791 137.312,222.691 137.212,222.836Z" fill="#F2A181"/>
<path d="M111.367,215.114C113.324,215.214 119.029,214.213 122.198,217.527C124.856,220.307 126.368,227.58 127.436,230.527C124.778,233.24 122.221,235.42 118.184,234.541C118.028,234.43 116.038,228.136 114.581,227.58Z" fill="#FF3874"/>
<path d="M125.913,272.8C125.913,272.8 127.203,303.881 126.969,306.15C126.735,308.418 124.211,351.331 124.211,351.331C124.211,351.331 119.029,352.243 115.927,351.331C115.927,351.331 111.923,317.904 115.927,307.495L114.147,297.52C114.147,297.52 114.414,304.949 114.147,306.45C113.88,307.962 105.874,350.275 105.874,350.275C105.874,350.275 100.581,350.13 98.156,348.018C98.156,348.018 97.4,318.615 102.916,306.25L97.867,273.901L100.77,265.672L125.913,272.8Z" fill="#01008A"/>
<path d="M114.161,297.518C113.427,292.737 108.856,275.778 108.667,275.378C106.176,273.443 103.897,271.741 103.063,270.129C104.43,274.221 107.044,274.432 108.033,276.545C110.457,281.772 108.6,280.615 114.272,298.119Z" fill="#4947FF"/>
<path d="M91.886,214.894C91.764,216.551 92.108,218.197 92.131,219.854C92.153,221.511 91.797,223.301 90.585,224.424C89.362,225.547 87.104,225.592 86.248,224.18C87.127,226.003 89.006,227.238 91.008,227.605C92.998,227.972 95.078,227.538 96.924,226.693C101.816,224.447 105.086,219.32 104.93,213.916C104.808,209.479 101.438,205.186 96.723,207.521C93.966,208.889 92.097,211.847 91.886,214.894Z" fill="#020153"/>
</svg>
