<svg width="32" height="16" viewBox="0 0 32 16" fill="none" xmlns="http://www.w3.org/2000/svg" xmlns:xlink="http://www.w3.org/1999/xlink">
<path d="M31.194,6.905C30.91,6.595 24.108,-0.831 15.588,-0.831C7.068,-0.831 0.264,6.595 -0.018,6.905C-0.171,7.075 -0.255,7.296 -0.255,7.524C-0.255,7.753 -0.171,7.973 -0.018,8.144C0.264,8.452 7.068,15.878 15.588,15.878C24.108,15.878 30.912,8.452 31.194,8.144C31.347,7.973 31.431,7.753 31.431,7.524C31.431,7.296 31.347,7.075 31.194,6.905L31.194,6.905ZM15.588,14.021C14.303,14.021 13.046,13.64 11.978,12.926C10.909,12.212 10.076,11.197 9.585,10.01C9.093,8.823 8.964,7.516 9.215,6.256C9.466,4.995 10.084,3.837 10.993,2.929C11.902,2.02 13.06,1.401 14.32,1.15C15.581,0.9 16.887,1.028 18.075,1.52C19.262,2.012 20.277,2.845 20.991,3.913C21.705,4.982 22.086,6.238 22.086,7.523C22.086,9.247 21.401,10.9 20.183,12.118C18.964,13.337 17.311,14.021 15.588,14.021L15.588,14.021Z" fill="#B5B5B5"/>
<path d="M16.517,5.668C16.518,5.225 16.625,4.789 16.828,4.396C17.031,4.002 17.326,3.663 17.686,3.406C17.039,3.067 16.32,2.887 15.589,2.883C14.703,2.88 13.836,3.131 13.089,3.605C12.341,4.079 11.745,4.757 11.37,5.559C10.995,6.361 10.858,7.253 10.973,8.131C11.089,9.008 11.453,9.835 12.023,10.512C12.593,11.189 13.344,11.69 14.189,11.954C15.034,12.218 15.937,12.235 16.791,12.003C17.645,11.772 18.415,11.3 19.01,10.645C19.606,9.99 20.001,9.178 20.15,8.306C19.734,8.443 19.291,8.479 18.857,8.411C18.424,8.344 18.013,8.174 17.658,7.916C17.304,7.659 17.015,7.32 16.817,6.93C16.618,6.539 16.515,6.106 16.517,5.668L16.517,5.668Z" fill="#B5B5B5"/>
</svg>
