<svg width="32" height="32" viewBox="0 0 32 32" fill="none" xmlns="http://www.w3.org/2000/svg" xmlns:xlink="http://www.w3.org/1999/xlink">
<path d="M16,32C24.837,32 32,24.837 32,16C32,7.163 24.837,0 16,0C7.163,0 0,7.163 0,16C0,24.837 7.163,32 16,32Z" fill="#FF0000"/>
<path d="M10.408,10.415C10.581,10.242 10.814,10.146 11.057,10.146C11.301,10.146 11.534,10.242 11.706,10.415L16.562,15.272L21.42,10.415C21.505,10.327 21.606,10.256 21.718,10.208C21.83,10.16 21.951,10.134 22.073,10.133C22.195,10.132 22.316,10.155 22.429,10.201C22.542,10.247 22.645,10.315 22.731,10.402C22.818,10.488 22.886,10.591 22.932,10.704C22.978,10.817 23.001,10.938 23,11.06C22.999,11.182 22.973,11.302 22.925,11.415C22.877,11.527 22.806,11.628 22.718,11.713L17.86,16.568L22.718,21.426C22.885,21.6 22.977,21.831 22.975,22.072C22.972,22.312 22.876,22.542 22.706,22.712C22.536,22.882 22.306,22.978 22.066,22.981C21.825,22.983 21.594,22.891 21.42,22.724L16.562,17.866L11.704,22.724C11.531,22.891 11.299,22.983 11.059,22.981C10.819,22.978 10.589,22.882 10.419,22.712C10.249,22.542 10.152,22.312 10.15,22.072C10.148,21.831 10.24,21.6 10.406,21.426L15.264,16.568L10.408,11.713C10.236,11.54 10.14,11.307 10.14,11.064C10.14,10.82 10.236,10.587 10.408,10.415L10.408,10.415Z" clip-rule="evenodd" fill-rule="evenodd" fill="#FFFFFF" stroke="#FFFFFF" stroke-width="0.4" stroke-miterlimit="3.999327"/>
</svg>
