<svg width="70" height="88" viewBox="0 0 70 88" fill="none" xmlns="http://www.w3.org/2000/svg" xmlns:xlink="http://www.w3.org/1999/xlink">
<path d="M34.078,86.566C51.026,86.566 64.765,82.839 64.765,78.242C64.765,73.645 51.026,69.918 34.078,69.918C17.13,69.918 3.391,73.645 3.391,78.242C3.391,82.839 17.13,86.566 34.078,86.566Z" fill="url(#pf_0_363_399)"/>
<path d="M61.298,77.87C60.72,81.041 48.058,84.629 33.868,84.629C19.677,84.629 8.031,81.038 7.456,77.87C7.307,77.048 1.606,53.08 1.831,48.872C2.858,43.449 20.698,46.26 33.769,46.26C47.332,46.26 65.767,42.051 66.915,49.138C67.394,52.087 61.432,77.141 61.298,77.87Z" fill="url(#pf_0_363_402)"/>
<path d="M33.807,72.08C35.406,72.01 37.005,71.928 38.618,71.934C40.495,71.939 42.406,71.976 44.28,71.589C45.601,71.317 46.962,70.772 48.295,70.61C49.229,70.497 50.203,70.612 51.134,70.388C51.72,70.245 52.2,69.995 52.801,69.928C54.534,69.731 56.232,69.28 57.968,68.859C59.643,68.452 61.871,67.768 63.364,66.519C63.894,66.076 64.014,65.812 64.214,65.167C64.273,64.976 64.601,62.922 64.629,62.911C59.166,65.175 48.472,67.058 33.79,67.058C19.226,67.058 7.288,66.146 3.961,62.535C4.216,62.81 4.477,64.875 4.688,65.299C5.016,65.955 5.754,66.325 6.343,66.718C8.119,67.905 10.024,68.62 11.929,69.081C13.295,69.412 14.577,69.984 15.901,70.447C17.304,70.935 18.651,70.988 20.062,71.103C21.431,71.216 22.744,71.594 24.094,71.838C25.491,72.091 26.897,72.071 28.294,72.139C30.148,72.226 31.978,72.161 33.807,72.08Z" fill="url(#pf_0_363_403)"/>
<path d="M33.792,69.45C36.729,69.473 39.658,69.815 42.599,69.579C45.157,69.375 47.775,68.698 50.334,68.005C51.689,67.638 53.077,67.77 54.43,67.43C56.323,66.956 58.245,66.53 60.136,65.8C61.093,65.433 64.23,64.173 64.631,62.916C65.369,60.587 65.571,59.014 65.826,57.016C64.701,58.242 63.553,58.542 62.311,59.266C60.981,60.04 59.959,61.106 58.523,61.567C55.154,62.647 51.512,63.298 48.176,63.704C46.072,63.96 43.996,64.198 41.925,64.392C40.517,64.524 39.198,64.914 37.798,65.079C37.049,65.169 36.314,64.931 35.571,64.902C33.152,64.807 30.748,64.863 28.324,64.729C26.301,64.619 24.331,64.044 22.3,63.845C20.653,63.685 19.048,62.795 17.432,62.756C16.33,62.731 15.196,62.891 14.083,62.585C12.887,62.257 11.852,61.502 10.713,60.893C9.509,60.248 8.283,60.063 7.049,59.737C6.527,59.6 2.933,57.42 2.902,56.648C2.972,58.422 3.194,61.892 4.51,63.351C5.739,64.712 7.624,65.147 9.08,65.761C10.929,66.538 12.691,67.175 14.548,67.716C16.86,68.39 18.953,68.494 21.256,68.645C24.093,68.83 26.868,69.425 29.699,69.428C31.07,69.425 32.434,69.442 33.792,69.45Z" fill="url(#pf_0_363_404)"/>
<path d="M33.884,81.705C35.374,81.643 36.866,81.573 38.367,81.579C40.115,81.584 41.897,81.615 43.642,81.279C44.873,81.04 46.136,80.563 47.379,80.423C48.249,80.325 49.155,80.426 50.022,80.229C50.566,80.106 51.012,79.887 51.57,79.825C53.184,79.654 54.76,79.259 56.371,78.891C57.925,78.538 59.99,77.94 61.365,76.851C61.407,76.818 62.077,75.056 61.937,75.499C61.884,75.665 62.386,73.434 62.411,73.426C57.353,75.401 47.519,77.323 33.867,77.323C20.322,77.323 9.565,77.09 6.535,73.976C6.765,74.214 6.633,75.423 6.824,75.791C7.122,76.363 7.803,76.683 8.348,77.028C9.986,78.061 11.751,78.686 13.521,79.087C14.789,79.376 15.979,79.879 17.208,80.28C18.509,80.706 19.763,80.754 21.079,80.855C22.353,80.953 23.576,81.284 24.833,81.497C26.135,81.719 27.445,81.702 28.747,81.761C30.472,81.834 32.178,81.775 33.884,81.705Z" fill="url(#pf_0_363_405)"/>
<path d="M33.87,79.402C36.605,79.421 39.332,79.719 42.07,79.514C44.452,79.334 46.885,78.745 49.261,78.139C50.521,77.819 51.811,77.934 53.068,77.637C54.824,77.225 56.609,76.852 58.359,76.217C59.243,75.898 62.06,74.517 62.416,73.42C63.073,71.392 63.202,70.256 63.412,68.527C62.385,69.588 61.451,69.919 60.307,70.547C59.081,71.218 58.143,72.141 56.816,72.539C53.697,73.476 50.322,74.043 47.227,74.394C45.274,74.615 43.347,74.823 41.425,74.991C40.118,75.106 38.892,75.446 37.593,75.589C36.897,75.665 36.212,75.46 35.522,75.435C33.275,75.353 31.042,75.401 28.791,75.283C26.912,75.188 25.085,74.688 23.2,74.514C21.671,74.374 20.187,73.603 18.689,73.569C17.665,73.547 16.612,73.687 15.58,73.42C14.475,73.137 13.521,72.48 12.469,71.953C11.358,71.395 10.224,71.232 9.082,70.951C8.6,70.834 5.441,69.38 5.424,68.721C5.463,70.244 5.48,72.82 6.686,74.088C7.811,75.272 9.559,75.651 10.906,76.184C12.617,76.86 14.25,77.415 15.973,77.887C18.116,78.476 20.066,78.566 22.207,78.698C24.847,78.857 27.428,79.377 30.06,79.379C31.336,79.382 32.604,79.393 33.87,79.402Z" fill="url(#pf_0_363_406)"/>
<g opacity="0.2">
<g opacity="0.2">
<path d="M64.078,62.859C64.289,62.895 64.732,62.64 64.797,62.37C65.22,60.597 65.661,56.462 65.972,55.034C66.183,54.074 66.404,53.106 66.587,52.124C66.671,51.678 67.26,49.518 66.993,49.229C66.769,48.985 66.396,48.951 66.143,48.721C65.268,47.933 63.45,47.779 62.241,47.405C57.191,45.851 51.933,45.461 46.44,44.948C45.433,44.852 44.428,44.777 43.421,44.715C40.223,44.906 37.019,45.071 34.025,45.071C30.905,45.071 27.533,44.942 24.183,44.807C21.01,45.012 17.856,45.304 14.723,45.672C12.391,45.946 10.234,46.457 8.09,47.128C6.808,47.529 3.523,48.098 2.849,49.063C2.611,49.406 2.485,49.807 2.426,50.242C2.681,52.315 4.46,64.093 4.917,65.897C5.111,66.654 5.142,67.58 5.467,68.296C5.818,69.067 6.457,68.899 6.659,68.268C6.906,67.502 6.701,66.135 6.564,65.283C6.494,64.853 4.609,52.991 5.29,52.865C5.778,52.775 6.415,54.638 6.957,54.922C7.835,55.382 8.256,55.275 9.128,55.817C10.781,56.841 11.109,68.169 14.737,66.596C15.716,66.169 15.977,64.744 16.173,63.731C16.322,62.957 16.274,56.305 17.318,56.625C17.938,56.815 17.935,57.416 18.451,57.761C20.213,58.931 21.86,57.261 22.758,55.912C23.128,55.354 23.406,54.596 24.158,54.59C25.662,54.579 26.355,56.212 27.017,57.365C27.825,58.771 28.131,62.954 28.217,64.461C28.302,65.945 28.476,67.777 29.713,68.745C30.787,69.586 32.914,69.867 33.837,68.691C34.999,67.207 34.376,64.598 34.39,62.777C34.395,62.039 34.235,61.142 35.052,60.774C35.767,60.451 36.435,60.996 36.746,61.649C36.982,62.146 37.013,62.774 37.611,62.929C39.594,63.445 39.793,56.773 42.248,58.659C43.101,59.312 43.519,59.669 44.568,58.992C45.433,58.434 46.342,54.731 47.396,54.526C50.331,53.951 48.564,64.876 51.032,65.027C52.186,65.1 53.322,63.145 54.102,64.424C54.694,65.395 55.078,66.604 55.785,67.507C56.464,68.377 57.44,68.697 58.436,68.352C60.369,67.678 60.65,65.047 60.501,63.484C60.423,62.651 60.605,60.774 60.804,59.887C61.149,58.333 61.823,54.969 62.488,55.337C63.453,55.87 63.949,54.84 64.424,54.038C65.015,53.042 65.302,53.847 65.083,54.68C64.805,55.738 63.907,59.803 63.694,60.869C63.585,61.405 63.301,62.724 64.078,62.859Z" fill="url(#pf_0_363_413)"/>
</g>
</g>
<path d="M69.429,42.334C70.562,44.315 69.866,47.216 68.59,50.235C68.138,51.999 65.776,57.215 66.006,58.842C66.09,59.44 66.547,60.388 66.056,61.014C65.635,61.55 64.928,61.491 64.589,61.056C63.806,60.054 66.682,51.306 65.083,51.276C64.263,51.261 64.331,52.294 64.191,52.827C64.053,53.354 63.831,54.345 63.119,54.364C62.387,54.387 62.583,53.486 62.445,52.936C61.845,50.549 60.549,58.747 60.383,59.847C60.12,61.589 60.526,63.676 59.685,65.267C58.894,66.759 57.51,67.388 56.217,66.529C55.614,66.128 55.241,65.55 55.03,64.84C54.862,64.274 54.865,63.098 54.318,62.745C53.611,62.287 52.836,63.022 52.135,63.3C49.139,64.493 50.101,61.258 49.98,59.482C49.86,57.726 48.547,51.761 47.051,52.504C45.469,53.293 44.411,58.396 42.442,57.905C41.782,57.74 41.151,56.915 40.385,57.142C38.884,57.585 39.762,60.497 37.894,60.525C36.48,60.545 35.863,56.095 34.407,58.769C33.823,59.844 34.207,61.249 34.286,62.372C34.384,63.78 34.457,65.497 33.904,66.776C32.844,69.223 30.111,68.367 28.891,66.518C27.331,64.159 29.138,57.972 27.095,55.417C26.122,54.199 24.955,52.605 23.296,53.029C22.115,53.332 21.512,54.578 20.474,55.111C19.108,55.812 18.145,54.83 16.804,54.923C15.901,54.984 15.556,61.911 15.466,62.666C15.303,64.027 15.104,66.869 12.843,65.455C11.123,64.378 11.802,55.372 9.852,54.35C8.977,53.893 8.006,54.701 7.133,53.983C6.317,53.31 6.477,51.837 5.551,51.205C3.674,49.92 5.599,63.62 5.694,64.422C5.792,65.239 6.525,69.464 4.586,67.699C3.868,67.046 4.157,66.134 4.28,65.41C4.858,62.088 -2.448,45.474 0.866,41.748C2.659,39.789 5.719,40.373 7.032,39.795C9.232,38.827 11.454,38.089 13.872,37.694C20.564,36.597 27.348,35.957 34.224,35.957C38.503,35.957 42.717,36.092 46.942,36.644C52.654,37.391 58.122,37.955 63.304,40.196C64.541,40.732 66.418,40.951 67.282,42.082C67.602,42.488 69.283,41.658 69.429,42.334Z" fill="url(#pf_0_363_414)"/>
<path d="M65.429,60.154C65.18,59.983 64.952,59.786 64.913,59.517C64.823,58.9 65.283,55.017 65.469,54.386C65.786,53.314 66.591,51.28 65.783,50.452C64.299,48.929 64.116,53.238 63.3,52.733C62.596,52.298 62.394,49.423 61.05,51.493C60.135,52.904 59.709,60.103 59.669,61.523C59.639,62.6 59.403,64.449 58.171,64.923C57.518,65.176 56.555,65.01 56.073,64.595C55.124,63.781 55.43,62.351 55.105,61.212C54.6,59.45 53.545,62.264 52.529,62.513C51.028,62.881 50.91,61.248 50.697,60.238C50.4,58.838 49.505,49.953 47.485,50.612C45.512,51.255 44.331,58.42 42.025,56.675C40.903,55.828 39.949,55.878 39.27,57.315C38.919,58.055 38.139,60.353 37.059,59.155C36.333,58.35 36.916,56.566 36.06,55.887C33.564,53.909 33.923,62.014 33.9,62.631C33.864,63.706 33.768,65.325 32.655,65.793C31.036,66.475 29.683,64.915 29.293,63.487C28.701,61.327 28.163,56.355 27.773,53.996C27.602,52.96 27.198,52.161 26.39,51.501C25.009,50.379 23.402,51.384 22.51,52.545C21.657,53.659 20.874,54.711 19.395,54.742C18.31,54.764 17.496,53.785 16.985,52.854C16.685,52.307 16.494,51.701 15.916,52.082C15.49,52.363 15.692,53.227 15.574,53.718C15.305,54.849 15.165,62.185 14.671,63.125C13.975,64.446 12.533,64.225 11.961,62.715C11.658,61.913 11.458,55.115 11.122,54.271C10.325,52.256 8.571,54.425 7.489,53.35C6.891,52.758 6.776,51.768 6.422,51.022C6.075,50.287 5.393,49.366 4.568,49.599C2.927,50.062 5.777,64.668 5.606,65.799C5.55,66.175 5.505,66.935 5.306,67.235C5.196,67.395 4.568,67.749 4.352,67.423C4.419,67.521 4.498,67.62 4.588,67.701C6.526,69.463 5.791,65.238 5.693,64.424C5.598,63.622 3.673,49.922 5.55,51.207C6.473,51.838 6.313,53.311 7.132,53.984C8.005,54.705 8.973,53.895 9.851,54.352C11.801,55.37 11.122,64.379 12.842,65.456C15.103,66.87 15.302,64.028 15.465,62.668C15.555,61.916 15.897,54.989 16.803,54.924C18.144,54.832 19.106,55.814 20.473,55.112C21.511,54.579 22.114,53.334 23.295,53.031C24.953,52.607 26.118,54.2 27.094,55.418C29.139,57.974 27.33,64.16 28.889,66.52C30.11,68.369 32.842,69.224 33.903,66.778C34.456,65.501 34.383,63.781 34.285,62.373C34.206,61.251 33.822,59.845 34.405,58.771C35.858,56.097 36.476,60.549 37.893,60.527C39.761,60.502 38.883,57.587 40.384,57.143C41.15,56.916 41.781,57.744 42.44,57.907C44.407,58.398 45.465,53.291 47.05,52.506C48.545,51.762 49.858,57.727 49.979,59.483C50.105,61.338 49.151,64.486 52.134,63.302C52.835,63.024 53.609,62.289 54.316,62.746C54.861,63.1 54.861,64.275 55.029,64.842C55.239,65.552 55.613,66.13 56.216,66.531C57.509,67.389 58.892,66.761 59.683,65.268C60.525,63.68 60.121,61.59 60.382,59.848C60.548,58.748 61.844,50.55 62.444,52.938C62.582,53.488 62.385,54.388 63.118,54.366C63.83,54.344 64.052,53.356 64.189,52.829C64.33,52.295 64.262,51.263 65.081,51.277C66.681,51.308 63.864,59.688 64.484,61.012C64.705,61.484 65.856,61.689 66.148,60.942C66.223,60.614 65.8,60.409 65.429,60.154Z" fill="url(#pf_0_363_415)"/>
<path d="M69.485,42.705C69.485,46.327 53.336,48.658 34.252,48.658C15.169,48.658 0.375,46.327 0.375,42.705C0.375,39.083 15.166,35.539 34.25,35.539C53.333,35.539 69.485,39.083 69.485,42.705Z" fill="url(#pf_0_363_416)"/>
<path d="M39.589,47.942C20.797,47.892 4.325,45.1 4.334,41.691C4.339,40.123 9.409,38.656 14.563,37.449C6.112,38.712 0.712,40.74 0.706,42.813C0.698,46.222 15.253,48.453 34.048,48.503C46.187,48.534 57.115,47.647 63.341,46.096C57.081,46.988 48.639,47.965 39.589,47.942Z" fill="url(#pf_0_363_417)"/>
<path d="M57.839,64.725C59.34,64.357 59.556,62.023 59.626,61.15C59.963,56.824 59.073,59.254 57.794,59.097C56.577,58.948 55.55,57.133 55.017,56.246C55.508,58.269 54.273,65.597 57.839,64.725Z" fill="url(#pf_0_363_418)"/>
<path d="M52.457,62.526C53.459,62.321 54.418,60.236 55.271,59.628C57.639,57.933 53.366,58.758 52.53,58.595C51.733,58.441 50.432,55.694 50.101,55.074C50.695,57.936 50.269,62.972 52.457,62.526Z" fill="url(#pf_0_363_419)"/>
<path d="M13.078,63.848C12.012,63.584 11.872,61.924 11.83,61.304C11.622,58.259 12.234,59.965 13.137,59.853C13.998,59.746 14.728,58.476 15.107,57.855C14.756,59.272 15.617,64.474 13.078,63.848Z" fill="url(#pf_0_363_420)"/>
<path d="M32.313,65.865C33.96,65.573 33.873,63.009 33.826,62.047C33.59,57.266 32.928,59.898 31.452,59.62C30.046,59.356 28.534,54.494 27.785,53.434C28.652,55.793 28.4,66.555 32.313,65.865Z" fill="url(#pf_0_363_421)"/>
<path d="M23.619,51.173C21.888,52.222 21.619,54.273 20.137,54.553C18.176,54.924 17.13,53.12 16.445,50.836L23.619,51.173Z" fill="url(#pf_0_363_422)"/>
<path d="M45.74,35.661C45.962,35.93 46.217,36.298 46.206,36.421C46.198,36.516 45.634,36.561 45.451,36.646C46.083,36.525 47.323,36.04 47.547,36.399C47.718,36.674 48.207,36.811 48.187,36.937C48.167,37.064 48.041,37.372 47.514,37.532C45.968,38.001 43.33,37.79 42.57,37.468C42.183,37.243 42.048,36.895 42.09,36.533C42.116,36.314 42.612,35.871 42.921,35.725C43.92,35.192 45.415,35.262 45.74,35.661Z" fill="#B4349D"/>
<path d="M45.757,35.434C45.965,35.701 46.206,36.065 46.192,36.192C46.184,36.287 45.648,36.338 45.477,36.422C46.074,36.295 47.533,35.771 47.744,36.13C47.904,36.402 48.069,36.747 48.05,36.873C48.03,37 47.744,37.21 47.435,37.311C46.133,37.732 42.915,37.527 42.652,37.339C42.461,37.157 42.253,36.699 42.298,36.338C42.323,36.119 42.52,35.967 42.534,35.793C43.482,35.252 45.452,35.039 45.757,35.434Z" fill="#E51A4F"/>
<path d="M42.564,35.718C42.69,35.648 43.08,35.735 43.243,35.676L42.654,37.334C42.398,37.143 42.255,36.694 42.3,36.332C42.325,36.113 42.426,35.9 42.564,35.718Z" fill="#D3114D"/>
<path d="M46.734,36.25C47.183,36.154 47.643,35.958 47.747,36.132C47.907,36.404 48.073,36.749 48.053,36.875C48.033,37.002 47.747,37.212 47.439,37.313C47.11,36.407 46.734,36.25 46.734,36.25Z" fill="#D3114D"/>
<path d="M45.413,35.233C45.893,35.396 45.924,35.651 45.528,35.848C46.126,35.721 46.9,35.735 47.383,35.898C47.941,36.086 47.893,36.4 47.276,36.6C45.974,37.02 43.463,36.698 42.874,36.703C42.902,36.51 41.816,35.727 43.289,35.253C43.904,35.054 44.855,35.045 45.413,35.233Z" fill="#FF3E6A"/>
<path d="M43.451,35.48C44.068,35.281 45.019,35.272 45.577,35.46C45.67,35.491 45.74,35.528 45.799,35.564C45.805,35.444 45.681,35.323 45.415,35.233C44.856,35.045 43.905,35.054 43.288,35.253C41.818,35.727 42.904,36.51 42.873,36.703C42.884,36.703 42.904,36.703 42.915,36.703C42.693,36.384 42.329,35.842 43.451,35.48Z" fill="#FF80A1"/>
<path d="M57.373,37.64C57.225,37.705 57.056,37.747 56.868,37.753C55.682,37.786 54.587,37.896 53.395,37.697C52.851,37.604 52.309,37.492 51.771,37.371L50.208,37.371C49.992,37.61 49.526,37.374 49.563,37.719C49.504,38.726 52.71,39.43 53.732,39.285C54.829,39.13 56.114,39.582 56.7,39.672C56.599,39.363 56.324,38.76 56.299,38.732C56.84,38.715 57.831,38.378 57.867,38.319C58.069,37.842 57.769,37.716 57.373,37.64Z" fill="#DD76CF"/>
<path d="M50.395,36.244C51.099,35.817 50.681,35.175 51.032,35.04C52.076,35.309 55.594,33.637 56.141,34.249C56.141,34.249 57.505,35.842 54.744,37.251C53.683,36.101 49.635,36.85 50.395,36.244Z" fill="#E2ACE1"/>
<path d="M56.433,37.968C53.161,39.671 53.117,36.669 53.846,36.046C55.083,35.92 55.698,35.435 57.249,35.488C57.496,35.497 57.774,35.457 57.852,35.309C56.932,36.436 57.291,37.438 56.433,37.968Z" fill="#FCDEFA"/>
<path d="M51.939,32.908C52.643,32.481 52.581,32.254 53.347,32.45C54.391,32.72 55.182,32.495 55.729,33.107C55.729,33.107 55.03,34.372 54.309,34.602C53.249,33.452 51.181,33.514 51.939,32.908Z" fill="#E2ACE1"/>
<path d="M51.88,32.939C51.596,33.093 50.971,33.306 50.923,33.581C51.195,33.421 51.546,33.124 52.918,34.176C54.343,35.267 56.554,34.271 55.964,33.413C55.173,32.26 55.142,33.323 54.985,33.388C52.578,34.381 52.458,32.622 51.88,32.939Z" fill="#FFF5FE"/>
<path d="M53.998,30.48C53.016,32.074 54.921,31.953 54.977,33.311C56.023,31.196 53.181,32.153 53.998,30.48Z" fill="#FFF5FE"/>
<path d="M53.998,30.48C53.173,31.847 55.041,32.088 54.977,33.311C53.386,32.593 52.875,31.777 53.998,30.48Z" fill="#FCDEFA"/>
<path d="M53.993,30.48C52.262,31.659 51.746,32.719 53.493,33.171C54.537,33.44 54.686,33.112 54.972,33.311C54.972,33.311 55.112,32.919 54.47,32.618C53.729,32.273 53.028,31.698 53.993,30.48Z" fill="#FFF5FE"/>
<path d="M53.911,30.555C53.563,30.942 51.731,31.972 54.278,32.937C53.083,32.129 53.086,31.601 53.911,30.555Z" fill="#FFFAFE"/>
<path d="M52.421,32.25C52.41,32.632 52.741,32.94 53.507,33.137C54.55,33.406 54.646,33.083 54.974,33.311C54.974,33.311 54.744,33.355 54.023,33.585C53.257,33.832 52.168,33.221 52.421,32.25Z" fill="#FCDEFA"/>
<path d="M53.998,30.48C53.585,31.586 54.898,31.258 55.17,32.256C54.89,31.499 53.336,31.813 53.998,30.48Z" fill="#FFFAFE"/>
<path d="M51.035,34.988C51.226,34.533 50.841,33.624 50.92,33.579C51.192,33.42 51.54,33.038 52.912,34.09C54.337,35.181 56.548,34.27 55.959,33.411C56.469,34.003 55.558,34.817 55.426,34.929C53.246,36.778 50.897,35.319 51.035,34.988Z" fill="#FCDEFA"/>
<path d="M51.007,35.037C50.053,35.006 49.537,35.469 49.273,36.035C49.006,36.602 50.847,37.744 52.965,37.671C55.083,37.598 56.029,39.194 56.478,39.427C56.152,38.431 55.1,36.543 54.18,36.249C53.257,35.951 50.948,36.041 51.007,35.037Z" fill="#FFF5FE"/>
<path d="M50.919,33.578C51.191,33.418 51.539,33.143 52.911,34.195C54.336,35.287 56.642,34.26 55.958,33.41C56.303,34.136 54.692,34.257 53.624,33.945C52.482,33.609 51.371,33.011 50.919,33.578Z" fill="#FFFAFE"/>
<path d="M55.846,38.521C55.667,38.297 54.239,37.171 52.261,37.068C50.39,36.969 48.299,35.581 50.698,35.109C50.036,35.69 50.855,36.361 51.983,36.462C53.26,36.574 54.326,36.035 55.846,38.521Z" fill="#FFFAFE"/>
<path d="M49.694,37.477C49.646,37.019 49.295,37.126 49.259,36.242C49.419,36.84 51.125,37.592 53.004,37.527C55.122,37.454 56.026,39.194 56.475,39.427C55.888,39.334 54.808,38.879 53.711,39.034C52.69,39.177 49.635,38.484 49.694,37.477Z" fill="#FCDEFA"/>
<path d="M56.138,34.246C56.017,34.987 54.466,35.871 53.843,36.042C55.383,36.356 55.694,35.43 57.246,35.483C58.074,35.511 58.141,34.313 56.138,34.246Z" fill="#FFF5FE"/>
<path d="M56.138,34.246C57.328,34.476 57.631,34.852 57.269,35.124C56.991,35.335 56.13,35.441 56.124,35.638C56.124,35.638 56.926,35.52 57.384,35.537C58.211,35.565 58.141,34.313 56.138,34.246Z" fill="#FFFAFE"/>
<path d="M55.468,37.449C55.647,37.721 56.077,38.445 56.082,38.495C56.624,38.478 57.636,38.175 57.673,38.119C57.939,37.488 58.386,37.328 58.47,36.573C58.545,35.909 56.857,37.6 55.468,37.449Z" fill="#FCDEFA"/>
<path d="M55.482,37.474C56.621,37.171 57.062,36.792 57.225,36.436C57.298,36.088 57.446,35.922 57.483,35.863C57.915,35.891 58.571,35.911 58.47,36.576C58.369,37.244 56.347,37.415 55.482,37.474Z" fill="#FFF5FE"/>
<path d="M55.482,37.473C56.621,37.17 57.062,36.792 57.224,36.435C57.297,36.087 57.446,35.922 57.483,35.863L57.561,35.723C56.823,35.877 57.233,36.932 55.255,37.162L55.482,37.473Z" fill="#E2ACE1"/>
<path d="M49.693,37.477C49.668,37.247 49.57,37.16 49.472,37.02C51.601,37.948 49.749,38.372 53.601,38.737C55.686,38.933 56.026,39.197 56.474,39.427C55.888,39.334 54.808,38.88 53.711,39.034C52.69,39.177 49.634,38.484 49.693,37.477Z" fill="#E2ACE1"/>
<path d="M58.897,39.203C58.414,39.422 58.902,39.736 59.994,39.958C58.697,39.829 57.443,39.615 56.961,39.834C56.4,40.087 56.419,40.662 58.871,41.077C61.986,41.602 65.941,41.428 66.135,40.903C66.351,40.544 65.453,39.562 62.586,39.138C61.107,38.92 59.455,38.951 58.897,39.203Z" fill="#B4349D"/>
<path d="M59.09,38.542C58.633,38.75 59.365,39.193 60.397,39.401C59.171,39.277 58.021,38.301 57.746,38.719C57.662,38.848 57.261,39.998 57.238,40.043C57.118,40.271 57.802,40.551 58.972,40.725C61.929,41.16 64.67,41.008 65.896,40.694C66.18,40.15 65.93,39.333 65.846,39.261C64.864,38.385 59.413,37.953 59.413,37.953C59.211,38.197 59.129,38.528 59.09,38.542Z" fill="#D3114D"/>
<path d="M59.564,37.838C59.157,38.023 59.569,38.287 60.487,38.472C59.396,38.363 58.307,38.408 57.9,38.59C57.429,38.803 58.054,39.126 59.3,39.308C61.932,39.695 64.987,39.275 65.851,39.261C65.714,39.07 65.085,38.141 62.672,37.782C61.427,37.6 60.035,37.625 59.564,37.838Z" fill="#FF3E6A"/>
<path d="M62.732,37.948C61.584,37.776 60.302,37.802 59.867,37.998C59.668,38.088 59.688,38.2 59.873,38.309C59.413,38.15 59.267,37.973 59.567,37.838C60.038,37.625 61.43,37.6 62.673,37.782C65.086,38.138 65.714,39.07 65.852,39.261C65.79,39.261 65.717,39.266 65.636,39.269C65.459,39.03 64.819,38.256 62.732,37.948Z" fill="#FF80A1"/>
<path d="M57.9,38.594C58.271,38.426 59.205,38.378 60.192,38.451C60.338,38.499 60.515,38.544 60.717,38.586C59.71,38.485 58.705,38.527 58.329,38.695C57.909,38.886 58.439,39.166 59.511,39.338C59.44,39.329 59.368,39.321 59.297,39.31C58.054,39.127 57.429,38.807 57.9,38.594Z" fill="#FF80A1"/>
<path d="M68.291,42.231C68.131,42.302 67.954,42.344 67.755,42.349C66.492,42.383 65.331,42.501 64.065,42.29C63.487,42.192 62.912,42.074 62.34,41.945L60.682,41.945C60.452,42.201 59.958,41.948 59.997,42.316C59.936,43.385 63.339,44.134 64.427,43.979C65.594,43.814 66.955,44.294 67.581,44.392C67.474,44.064 67.182,43.424 67.154,43.393C67.73,43.373 68.782,43.017 68.821,42.955C69.034,42.448 68.714,42.313 68.291,42.231Z" fill="#DD76CF"/>
<path d="M60.883,40.747C61.632,40.295 61.188,39.611 61.559,39.468C62.667,39.754 66.404,37.978 66.985,38.629C66.985,38.629 68.432,40.323 65.501,41.819C64.376,40.596 60.075,41.39 60.883,40.747Z" fill="#E2ACE1"/>
<path d="M67.295,42.578C63.822,44.388 63.774,41.198 64.545,40.536C65.861,40.401 66.512,39.887 68.159,39.941C68.423,39.949 68.717,39.907 68.799,39.75C67.825,40.951 68.207,42.017 67.295,42.578Z" fill="#FCDEFA"/>
<path d="M62.522,37.21C63.271,36.759 63.204,36.514 64.018,36.725C65.126,37.011 65.965,36.773 66.548,37.423C66.548,37.423 65.808,38.767 65.039,39.011C63.911,37.785 61.714,37.853 62.522,37.21Z" fill="#E2ACE1"/>
<path d="M62.458,37.241C62.155,37.407 61.49,37.631 61.439,37.923C61.728,37.755 62.099,37.438 63.558,38.554C65.073,39.713 67.421,38.658 66.792,37.744C65.951,36.518 65.92,37.648 65.752,37.718C63.199,38.773 63.072,36.905 62.458,37.241Z" fill="#FFF5FE"/>
<path d="M64.711,34.633C63.667,36.325 65.69,36.198 65.752,37.64C66.863,35.393 63.844,36.412 64.711,34.633Z" fill="#FFF5FE"/>
<path d="M64.709,34.633C63.834,36.086 65.818,36.339 65.75,37.64C64.061,36.877 63.52,36.013 64.709,34.633Z" fill="#FCDEFA"/>
<path d="M64.704,34.633C62.867,35.884 62.317,37.012 64.174,37.492C65.282,37.778 65.442,37.43 65.742,37.64C65.742,37.64 65.891,37.225 65.209,36.905C64.427,36.541 63.68,35.929 64.704,34.633Z" fill="#FFF5FE"/>
<path d="M64.616,34.707C64.246,35.117 62.299,36.211 65.006,37.238C63.738,36.379 63.741,35.818 64.616,34.707Z" fill="#FFFAFE"/>
<path d="M63.035,36.516C63.021,36.922 63.377,37.248 64.188,37.458C65.296,37.744 65.397,37.402 65.748,37.643C65.748,37.643 65.504,37.691 64.738,37.935C63.921,38.196 62.766,37.545 63.035,36.516Z" fill="#FCDEFA"/>
<path d="M64.709,34.633C64.272,35.806 65.666,35.458 65.955,36.518C65.658,35.719 64.005,36.05 64.709,34.633Z" fill="#FFFAFE"/>
<path d="M61.564,39.415C61.766,38.932 61.359,37.967 61.441,37.92C61.73,37.751 62.1,37.344 63.559,38.461C65.074,39.62 67.422,38.652 66.794,37.74C67.335,38.371 66.37,39.233 66.227,39.353C63.91,41.317 61.415,39.768 61.564,39.415Z" fill="#FCDEFA"/>
<path d="M61.53,39.47C60.517,39.437 59.97,39.928 59.687,40.531C59.403,41.134 61.359,42.346 63.606,42.268C65.856,42.189 66.86,43.886 67.337,44.133C66.992,43.076 65.873,41.07 64.897,40.755C63.923,40.444 61.468,40.539 61.53,39.47Z" fill="#FFF5FE"/>
<path d="M61.439,37.922C61.728,37.753 62.099,37.461 63.558,38.575C65.073,39.734 67.522,38.645 66.795,37.742C67.163,38.514 65.451,38.643 64.315,38.309C63.098,37.952 61.919,37.318 61.439,37.922Z" fill="#FFFAFE"/>
<path d="M66.673,43.171C66.482,42.932 64.964,41.737 62.866,41.625C60.879,41.521 58.66,40.045 61.205,39.543C60.503,40.16 61.37,40.87 62.571,40.979C63.926,41.103 65.057,40.528 66.673,43.171Z" fill="#FFFAFE"/>
<path d="M60.138,42.059C60.087,41.574 59.714,41.689 59.675,40.746C59.843,41.38 61.656,42.18 63.656,42.112C65.906,42.034 66.866,43.883 67.342,44.13C66.72,44.031 65.575,43.549 64.408,43.714C63.319,43.869 60.073,43.131 60.138,42.059Z" fill="#FCDEFA"/>
<path d="M66.984,38.629C66.855,39.414 65.208,40.354 64.546,40.537C66.182,40.871 66.513,39.889 68.159,39.942C69.04,39.973 69.111,38.699 66.984,38.629Z" fill="#FFF5FE"/>
<path d="M66.984,38.629C68.246,38.873 68.569,39.271 68.185,39.56C67.89,39.782 66.973,39.897 66.97,40.107C66.97,40.107 67.823,39.984 68.308,39.998C69.186,40.029 69.11,38.699 66.984,38.629Z" fill="#FFFAFE"/>
<path d="M66.269,42.032C66.459,42.321 66.914,43.092 66.922,43.143C67.497,43.123 68.572,42.803 68.611,42.744C68.895,42.074 69.369,41.903 69.458,41.103C69.54,40.396 67.744,42.192 66.269,42.032Z" fill="#FCDEFA"/>
<path d="M66.286,42.06C67.495,41.738 67.964,41.336 68.138,40.958C68.216,40.59 68.373,40.41 68.413,40.352C68.873,40.382 69.569,40.402 69.462,41.109C69.353,41.816 67.204,41.996 66.286,42.06Z" fill="#FFF5FE"/>
<path d="M66.285,42.057C67.494,41.734 67.963,41.333 68.137,40.954C68.215,40.586 68.373,40.407 68.412,40.348L68.493,40.199C67.71,40.362 68.145,41.484 66.044,41.728L66.285,42.057Z" fill="#E2ACE1"/>
<path d="M60.138,42.06C60.113,41.815 60.006,41.723 59.902,41.574C62.166,42.562 60.197,43.011 64.287,43.398C66.501,43.605 66.863,43.886 67.34,44.13C66.717,44.032 65.572,43.549 64.405,43.715C63.32,43.869 60.073,43.131 60.138,42.06Z" fill="#E2ACE1"/>
<path d="M56.388,42.891C56.01,43.323 55.564,43.915 55.566,44.12C55.566,44.277 56.436,44.387 56.706,44.535C55.743,44.297 53.889,43.421 53.493,44.002C53.19,44.443 52.419,44.645 52.43,44.855C52.444,45.066 52.595,45.582 53.389,45.876C55.718,46.743 59.834,46.55 61.054,46.064C61.683,45.714 61.941,45.15 61.924,44.549C61.913,44.187 61.206,43.427 60.748,43.166C59.273,42.229 56.947,42.252 56.388,42.891Z" fill="#B4349D"/>
<path d="M56.395,42.525C56.039,42.954 55.615,43.544 55.618,43.748C55.618,43.905 56.44,44.02 56.695,44.169C55.786,43.925 53.598,42.974 53.222,43.549C52.936,43.99 52.636,44.548 52.647,44.758C52.658,44.969 53.073,45.333 53.539,45.516C55.5,46.287 60.508,46.139 60.943,45.847C61.263,45.558 61.644,44.814 61.627,44.214C61.616,43.852 61.336,43.588 61.336,43.299C59.941,42.36 56.922,41.891 56.395,42.525Z" fill="#E51A4F"/>
<path d="M61.298,43.184C61.112,43.057 60.495,43.178 60.254,43.074L60.938,45.849C61.362,45.549 61.64,44.816 61.623,44.216C61.615,43.854 61.488,43.495 61.298,43.184Z" fill="#D3114D"/>
<path d="M54.77,43.805C54.088,43.623 53.4,43.269 53.218,43.55C52.932,43.99 52.632,44.549 52.643,44.759C52.654,44.969 53.069,45.334 53.535,45.516C54.169,44.044 54.77,43.805 54.77,43.805Z" fill="#D3114D"/>
<path d="M56.956,42.209C56.19,42.447 56.109,42.868 56.695,43.216C55.786,42.972 54.585,42.952 53.816,43.191C52.927,43.468 52.958,43.99 53.884,44.355C55.845,45.127 59.776,44.745 60.687,44.79C60.668,44.467 62.458,43.241 60.244,42.369C59.315,42.001 57.845,41.931 56.956,42.209Z" fill="#FF3E6A"/>
<path d="M54.672,44.317C53.746,43.952 53.715,43.431 54.605,43.153C54.796,43.094 55.017,43.049 55.25,43.021C54.723,43.01 54.212,43.063 53.816,43.187C52.927,43.464 52.958,43.986 53.884,44.351C55.845,45.122 59.776,44.741 60.687,44.786C60.687,44.777 60.693,44.769 60.693,44.76C59.178,44.811 56.271,44.948 54.672,44.317Z" fill="#FF80A1"/>
<path d="M26.521,35.394C26.3,35.663 26.044,36.031 26.056,36.154C26.064,36.25 26.628,36.295 26.81,36.379C26.179,36.258 24.939,35.773 24.714,36.132C24.543,36.407 24.055,36.544 24.075,36.671C24.094,36.797 24.221,37.106 24.748,37.265C26.294,37.734 28.931,37.524 29.692,37.201C30.079,36.976 30.213,36.629 30.171,36.267C30.146,36.048 29.649,35.605 29.341,35.459C28.345,34.928 26.85,34.996 26.521,35.394Z" fill="#B4349D"/>
<path d="M26.508,35.169C26.3,35.435 26.059,35.8 26.073,35.926C26.081,36.021 26.617,36.072 26.788,36.156C26.191,36.03 24.732,35.505 24.521,35.864C24.361,36.136 24.196,36.482 24.215,36.608C24.235,36.734 24.521,36.944 24.83,37.045C26.132,37.466 29.35,37.261 29.613,37.074C29.804,36.891 30.012,36.434 29.967,36.072C29.942,35.853 29.745,35.702 29.731,35.528C28.78,34.986 26.813,34.773 26.508,35.169Z" fill="#E51A4F"/>
<path d="M29.701,35.456C29.575,35.386 29.185,35.473 29.022,35.414L29.612,37.072C29.867,36.881 30.01,36.432 29.968,36.071C29.94,35.855 29.839,35.641 29.701,35.456Z" fill="#D3114D"/>
<path d="M25.531,35.984C25.082,35.889 24.622,35.692 24.518,35.866C24.358,36.138 24.193,36.483 24.213,36.61C24.232,36.736 24.518,36.946 24.827,37.047C25.155,36.141 25.531,35.984 25.531,35.984Z" fill="#D3114D"/>
<path d="M26.848,34.969C26.366,35.131 26.338,35.387 26.733,35.583C26.136,35.457 25.361,35.471 24.879,35.634C24.32,35.822 24.368,36.136 24.985,36.335C26.287,36.756 28.798,36.433 29.387,36.439C29.359,36.245 30.445,35.462 28.972,34.988C28.358,34.789 27.406,34.778 26.848,34.969Z" fill="#FF3E6A"/>
<path d="M25.49,36.297C24.873,36.098 24.828,35.783 25.384,35.595C25.504,35.556 25.642,35.522 25.793,35.5C25.454,35.506 25.128,35.55 24.879,35.635C24.32,35.823 24.368,36.137 24.985,36.336C26.287,36.757 28.798,36.434 29.387,36.44C29.387,36.434 29.39,36.429 29.39,36.423C28.419,36.49 26.554,36.642 25.49,36.297Z" fill="#FF80A1"/>
<path d="M38.402,37.22C38.904,37.203 39.825,36.891 39.858,36.838C40.046,36.395 39.766,36.277 39.398,36.21C39.261,36.271 39.104,36.308 38.93,36.313C37.83,36.344 36.814,36.448 35.709,36.26C35.204,36.176 34.702,36.072 34.202,35.957C34.202,35.957 32.76,35.957 32.755,35.957C32.295,35.974 32.37,36.692 32.569,36.947C32.788,37.228 33.139,37.332 33.453,37.464C34.62,37.955 35.588,37.68 36.786,37.727C37.462,37.755 38.102,37.971 38.767,38.084C38.7,37.837 38.579,37.416 38.402,37.22Z" fill="#DD76CF"/>
<path d="M33.18,35.183C33.792,34.812 33.43,34.254 33.733,34.139C34.637,34.372 37.689,32.921 38.163,33.455C38.163,33.455 39.344,34.838 36.951,36.058C36.034,35.059 32.521,35.707 33.18,35.183Z" fill="#E2ACE1"/>
<path d="M38.417,36.677C35.58,38.156 35.541,35.552 36.172,35.011C37.247,34.901 37.777,34.481 39.124,34.525C39.337,34.534 39.578,34.497 39.646,34.371C38.849,35.35 39.16,36.22 38.417,36.677Z" fill="#FCDEFA"/>
<path d="M34.52,32.294C35.132,31.924 35.079,31.727 35.741,31.898C36.644,32.131 37.332,31.938 37.806,32.468C37.806,32.468 37.2,33.565 36.574,33.764C35.654,32.765 33.861,32.819 34.52,32.294Z" fill="#E2ACE1"/>
<path d="M34.467,32.317C34.22,32.452 33.679,32.637 33.637,32.876C33.872,32.738 34.175,32.48 35.365,33.392C36.602,34.34 38.518,33.476 38.005,32.73C37.318,31.728 37.292,32.651 37.155,32.707C35.073,33.569 34.969,32.042 34.467,32.317Z" fill="#FFF5FE"/>
<path d="M36.306,30.188C35.453,31.568 37.105,31.464 37.156,32.642C38.062,30.808 35.599,31.641 36.306,30.188Z" fill="#FFF5FE"/>
<path d="M36.305,30.188C35.59,31.374 37.209,31.582 37.155,32.642C35.775,32.022 35.332,31.313 36.305,30.188Z" fill="#FCDEFA"/>
<path d="M36.306,30.188C34.805,31.209 34.357,32.129 35.874,32.522C36.778,32.755 36.91,32.471 37.156,32.645C37.156,32.645 37.28,32.306 36.722,32.045C36.079,31.745 35.47,31.245 36.306,30.188Z" fill="#FFF5FE"/>
<path d="M36.231,30.25C35.928,30.584 34.34,31.479 36.551,32.318C35.512,31.616 35.515,31.159 36.231,30.25Z" fill="#FFFAFE"/>
<path d="M34.939,31.723C34.928,32.054 35.217,32.32 35.882,32.491C36.785,32.724 36.869,32.446 37.156,32.643C37.156,32.643 36.956,32.682 36.331,32.881C35.663,33.095 34.718,32.564 34.939,31.723Z" fill="#FCDEFA"/>
<path d="M36.305,30.188C35.946,31.147 37.085,30.861 37.321,31.728C37.08,31.074 35.73,31.346 36.305,30.188Z" fill="#FFFAFE"/>
<path d="M33.737,34.097C33.903,33.704 33.569,32.915 33.636,32.876C33.872,32.739 34.175,32.408 35.364,33.319C36.602,34.268 38.518,33.477 38.007,32.73C38.448,33.244 37.659,33.951 37.544,34.049C35.653,35.651 33.616,34.386 33.737,34.097Z" fill="#FCDEFA"/>
<path d="M33.71,34.138C32.882,34.11 32.436,34.511 32.206,35.005C31.976,35.496 33.569,36.486 35.407,36.425C37.242,36.36 38.064,37.746 38.454,37.948C38.17,37.084 37.259,35.446 36.462,35.19C35.662,34.932 33.659,35.011 33.71,34.138Z" fill="#FFF5FE"/>
<path d="M33.637,32.875C33.872,32.738 34.175,32.499 35.365,33.411C36.602,34.359 38.6,33.467 38.008,32.729C38.308,33.36 36.911,33.464 35.985,33.192C34.989,32.9 34.027,32.384 33.637,32.875Z" fill="#FFFAFE"/>
<path d="M37.906,37.16C37.749,36.967 36.511,35.99 34.797,35.901C33.175,35.816 31.363,34.613 33.442,34.203C32.87,34.708 33.577,35.286 34.556,35.376C35.664,35.474 36.587,35.006 37.906,37.16Z" fill="#FFFAFE"/>
<path d="M32.574,36.255C32.532,35.857 32.229,35.952 32.195,35.184C32.333,35.703 33.811,36.354 35.444,36.297C37.279,36.233 38.065,37.742 38.455,37.944C37.947,37.866 37.01,37.47 36.059,37.605C35.172,37.731 32.521,37.131 32.574,36.255Z" fill="#FCDEFA"/>
<path d="M38.161,33.453C38.057,34.096 36.711,34.862 36.172,35.01C37.507,35.282 37.777,34.48 39.123,34.525C39.839,34.55 39.898,33.509 38.161,33.453Z" fill="#FFF5FE"/>
<path d="M38.162,33.453C39.191,33.652 39.458,33.978 39.144,34.213C38.902,34.396 38.156,34.488 38.15,34.66C38.15,34.66 38.846,34.559 39.242,34.57C39.96,34.595 39.898,33.509 38.162,33.453Z" fill="#FFFAFE"/>
<path d="M37.579,36.229C37.736,36.465 38.107,37.093 38.112,37.138C38.581,37.124 39.459,36.86 39.493,36.813C39.723,36.266 40.11,36.125 40.183,35.472C40.25,34.894 38.783,36.358 37.579,36.229Z" fill="#FCDEFA"/>
<path d="M37.592,36.249C38.579,35.985 38.961,35.66 39.104,35.348C39.169,35.048 39.298,34.902 39.328,34.852C39.704,34.877 40.274,34.894 40.184,35.472C40.094,36.05 38.341,36.198 37.592,36.249Z" fill="#FFF5FE"/>
<path d="M37.593,36.247C38.58,35.983 38.962,35.658 39.105,35.347C39.17,35.046 39.299,34.901 39.33,34.85L39.397,34.727C38.757,34.861 39.114,35.776 37.396,35.975L37.593,36.247Z" fill="#E2ACE1"/>
<path d="M32.574,36.251C32.555,36.052 32.468,35.976 32.381,35.855C34.227,36.661 32.622,37.028 35.961,37.342C37.768,37.514 38.065,37.741 38.452,37.94C37.944,37.861 37.007,37.466 36.056,37.601C35.172,37.727 32.521,37.126 32.574,36.251Z" fill="#E2ACE1"/>
<path d="M21.872,37.195C21.724,37.26 21.555,37.302 21.367,37.307C20.181,37.341 19.086,37.45 17.894,37.251C17.35,37.159 16.808,37.046 16.27,36.926L14.707,36.926C14.491,37.164 14.025,36.929 14.062,37.274C14.003,38.281 17.209,38.985 18.231,38.839C19.328,38.685 20.613,39.137 21.199,39.226C21.098,38.918 20.823,38.315 20.798,38.286C21.339,38.27 22.33,37.933 22.366,37.874C22.571,37.397 22.271,37.271 21.872,37.195Z" fill="#DD76CF"/>
<path d="M14.894,35.794C15.598,35.368 15.18,34.725 15.531,34.591C16.574,34.86 20.092,33.188 20.639,33.8C20.639,33.8 22.003,35.393 19.242,36.802C18.182,35.651 14.136,36.4 14.894,35.794Z" fill="#E2ACE1"/>
<path d="M20.935,37.519C17.663,39.222 17.619,36.22 18.348,35.597C19.585,35.471 20.2,34.986 21.751,35.039C21.998,35.047 22.276,35.008 22.354,34.859C21.434,35.987 21.793,36.989 20.935,37.519Z" fill="#FCDEFA"/>
<path d="M16.439,32.466C17.144,32.04 17.082,31.812 17.848,32.009C18.891,32.278 19.683,32.054 20.23,32.665C20.23,32.665 19.531,33.931 18.81,34.161C17.75,33.008 15.679,33.072 16.439,32.466Z" fill="#E2ACE1"/>
<path d="M16.379,32.494C16.095,32.648 15.47,32.861 15.422,33.136C15.694,32.976 16.045,32.679 17.417,33.731C18.842,34.822 21.053,33.826 20.463,32.968C19.672,31.815 19.641,32.878 19.484,32.942C17.077,33.936 16.959,32.177 16.379,32.494Z" fill="#FFF5FE"/>
<path d="M18.497,30.035C17.515,31.629 19.42,31.508 19.476,32.866C20.525,30.751 17.683,31.71 18.497,30.035Z" fill="#FFF5FE"/>
<path d="M18.497,30.035C17.672,31.401 19.54,31.643 19.476,32.866C17.888,32.148 17.377,31.334 18.497,30.035Z" fill="#FCDEFA"/>
<path d="M18.495,30.035C16.764,31.214 16.248,32.274 17.995,32.726C19.039,32.995 19.188,32.667 19.474,32.866C19.474,32.866 19.614,32.473 18.972,32.173C18.234,31.831 17.532,31.256 18.495,30.035Z" fill="#FFF5FE"/>
<path d="M18.412,30.105C18.064,30.49 16.232,31.522 18.779,32.487C17.584,31.682 17.587,31.152 18.412,30.105Z" fill="#FFFAFE"/>
<path d="M16.923,31.805C16.912,32.186 17.243,32.495 18.009,32.691C19.052,32.961 19.148,32.638 19.476,32.865C19.476,32.865 19.246,32.91 18.525,33.14C17.756,33.387 16.671,32.773 16.923,31.805Z" fill="#FCDEFA"/>
<path d="M18.497,30.035C18.085,31.141 19.398,30.812 19.67,31.811C19.392,31.056 17.838,31.368 18.497,30.035Z" fill="#FFFAFE"/>
<path d="M15.536,34.543C15.727,34.088 15.342,33.179 15.421,33.134C15.693,32.974 16.041,32.593 17.413,33.645C18.838,34.736 21.049,33.824 20.46,32.966C20.97,33.558 20.059,34.371 19.927,34.484C17.747,36.332 15.398,34.874 15.536,34.543Z" fill="#FCDEFA"/>
<path d="M15.506,34.591C14.552,34.56 14.036,35.023 13.772,35.59C13.505,36.157 15.346,37.299 17.464,37.226C19.582,37.153 20.528,38.749 20.977,38.982C20.651,37.986 19.599,36.098 18.679,35.803C17.759,35.506 15.447,35.599 15.506,34.591Z" fill="#FFF5FE"/>
<path d="M15.422,33.133C15.694,32.973 16.042,32.698 17.414,33.75C18.839,34.841 21.145,33.814 20.461,32.964C20.806,33.691 19.195,33.812 18.126,33.5C16.982,33.163 15.871,32.566 15.422,33.133Z" fill="#FFFAFE"/>
<path d="M20.345,38.08C20.166,37.855 18.738,36.73 16.76,36.626C14.889,36.528 12.798,35.139 15.197,34.668C14.535,35.249 15.354,35.919 16.482,36.02C17.762,36.132 18.825,35.591 20.345,38.08Z" fill="#FFFAFE"/>
<path d="M14.196,37.031C14.148,36.574 13.797,36.681 13.761,35.797C13.921,36.394 15.626,37.146 17.506,37.082C19.624,37.009 20.528,38.748 20.977,38.981C20.39,38.889 19.31,38.434 18.213,38.588C17.189,38.734 14.137,38.039 14.196,37.031Z" fill="#FCDEFA"/>
<path d="M20.64,33.801C20.519,34.541 18.968,35.425 18.345,35.596C19.885,35.911 20.196,34.985 21.748,35.038C22.576,35.066 22.643,33.868 20.64,33.801Z" fill="#FFF5FE"/>
<path d="M20.641,33.801C21.831,34.031 22.134,34.407 21.772,34.679C21.494,34.889 20.633,34.996 20.627,35.192C20.627,35.192 21.429,35.075 21.887,35.091C22.714,35.119 22.644,33.868 20.641,33.801Z" fill="#FFFAFE"/>
<path d="M19.97,37.005C20.149,37.277 20.579,38.001 20.584,38.051C21.126,38.034 22.138,37.731 22.175,37.675C22.441,37.044 22.888,36.884 22.972,36.129C23.047,35.462 21.356,37.153 19.97,37.005Z" fill="#FCDEFA"/>
<path d="M19.984,37.028C21.123,36.725 21.564,36.347 21.727,35.99C21.8,35.642 21.948,35.477 21.985,35.418C22.417,35.446 23.073,35.466 22.972,36.131C22.871,36.798 20.848,36.969 19.984,37.028Z" fill="#FFF5FE"/>
<path d="M19.984,37.028C21.123,36.725 21.564,36.346 21.726,35.99C21.799,35.642 21.948,35.477 21.984,35.418L22.063,35.277C21.325,35.432 21.735,36.487 19.757,36.717L19.984,37.028Z" fill="#E2ACE1"/>
<path d="M14.195,37.032C14.17,36.801 14.072,36.714 13.974,36.574C16.103,37.503 14.251,37.927 18.103,38.291C20.188,38.488 20.527,38.751 20.976,38.981C20.39,38.889 19.31,38.434 18.213,38.589C17.189,38.735 14.136,38.039 14.195,37.032Z" fill="#E2ACE1"/>
<path d="M13.483,39.098C13.966,39.316 13.477,39.631 12.386,39.852C13.682,39.723 14.936,39.51 15.419,39.729C15.98,39.981 15.96,40.556 13.508,40.972C10.394,41.496 6.438,41.322 6.245,40.798C6.029,40.439 6.926,39.457 9.794,39.033C11.272,38.814 12.922,38.845 13.483,39.098Z" fill="#B4349D"/>
<path d="M13.288,38.445C13.745,38.652 13.013,39.096 11.98,39.303C13.206,39.18 14.357,38.203 14.631,38.621C14.716,38.75 15.117,39.901 15.139,39.946C15.26,40.173 14.575,40.453 13.405,40.627C10.448,41.062 7.707,40.911 6.481,40.597C6.198,40.052 6.448,39.236 6.532,39.163C7.514,38.288 12.965,37.855 12.965,37.855C13.167,38.1 13.251,38.428 13.288,38.445Z" fill="#D3114D"/>
<path d="M12.816,37.742C13.222,37.927 12.81,38.191 11.893,38.376C12.984,38.266 14.073,38.311 14.479,38.494C14.951,38.707 14.325,39.029 13.079,39.212C10.448,39.599 7.392,39.178 6.528,39.164C6.666,38.973 7.294,38.045 9.707,37.686C10.953,37.5 12.344,37.528 12.816,37.742Z" fill="#FF3E6A"/>
<path d="M9.648,37.846C10.796,37.675 12.078,37.7 12.513,37.896C12.712,37.986 12.692,38.098 12.507,38.208C12.967,38.048 13.113,37.871 12.813,37.737C12.341,37.523 10.95,37.498 9.707,37.68C7.294,38.037 6.666,38.968 6.528,39.159C6.59,39.159 6.663,39.165 6.744,39.167C6.921,38.929 7.561,38.155 9.648,37.846Z" fill="#FF80A1"/>
<path d="M14.481,38.493C14.111,38.324 13.176,38.277 12.189,38.349C12.043,38.397 11.866,38.442 11.664,38.484C12.671,38.383 13.676,38.425 14.052,38.594C14.472,38.784 13.942,39.065 12.87,39.236C12.941,39.228 13.014,39.219 13.084,39.208C14.327,39.028 14.952,38.706 14.481,38.493Z" fill="#FF80A1"/>
<path d="M10.894,43.157C10.734,43.227 10.557,43.269 10.358,43.275C9.096,43.309 7.934,43.427 6.669,43.216C6.091,43.118 5.516,43 4.944,42.871L3.285,42.871C3.055,43.126 2.562,42.874 2.601,43.241C2.539,44.31 5.942,45.059 7.031,44.905C8.198,44.74 9.559,45.219 10.184,45.318C10.078,44.989 9.786,44.35 9.758,44.319C10.333,44.299 11.385,43.943 11.424,43.881C11.638,43.37 11.318,43.236 10.894,43.157Z" fill="#DD76CF"/>
<path d="M3.485,41.669C4.234,41.217 3.791,40.533 4.161,40.39C5.27,40.676 9.007,38.9 9.587,39.551C9.587,39.551 11.035,41.245 8.103,42.741C6.978,41.517 2.677,42.314 3.485,41.669Z" fill="#E2ACE1"/>
<path d="M9.898,43.504C6.425,45.313 6.377,42.123 7.149,41.461C8.465,41.327 9.116,40.813 10.762,40.867C11.026,40.875 11.321,40.833 11.402,40.676C10.429,41.877 10.81,42.94 9.898,43.504Z" fill="#FCDEFA"/>
<path d="M5.126,38.132C5.875,37.68 5.807,37.436 6.621,37.647C7.729,37.933 8.568,37.694 9.152,38.345C9.152,38.345 8.411,39.689 7.642,39.933C6.514,38.707 4.318,38.775 5.126,38.132Z" fill="#E2ACE1"/>
<path d="M5.061,38.159C4.758,38.325 4.093,38.549 4.043,38.841C4.332,38.673 4.702,38.356 6.161,39.472C7.676,40.631 10.024,39.576 9.396,38.662C8.554,37.435 8.523,38.566 8.355,38.636C5.802,39.691 5.676,37.823 5.061,38.159Z" fill="#FFF5FE"/>
<path d="M7.311,35.555C6.268,37.246 8.29,37.12 8.352,38.562C9.463,36.312 6.444,37.331 7.311,35.555Z" fill="#FFF5FE"/>
<path d="M7.31,35.555C6.435,37.008 8.418,37.26 8.351,38.562C6.662,37.799 6.12,36.932 7.31,35.555Z" fill="#FCDEFA"/>
<path d="M7.315,35.555C5.477,36.806 4.927,37.934 6.784,38.414C7.893,38.7 8.053,38.352 8.353,38.562C8.353,38.562 8.501,38.147 7.82,37.827C7.037,37.46 6.291,36.848 7.315,35.555Z" fill="#FFF5FE"/>
<path d="M7.218,35.629C6.848,36.039 4.901,37.133 7.608,38.16C6.34,37.304 6.343,36.743 7.218,35.629Z" fill="#FFFAFE"/>
<path d="M5.636,37.438C5.621,37.844 5.978,38.17 6.789,38.38C7.897,38.666 7.998,38.324 8.349,38.565C8.349,38.565 8.104,38.613 7.339,38.857C6.522,39.115 5.366,38.467 5.636,37.438Z" fill="#FCDEFA"/>
<path d="M7.31,35.555C6.872,36.727 8.267,36.38 8.555,37.44C8.258,36.638 6.606,36.972 7.31,35.555Z" fill="#FFFAFE"/>
<path d="M4.168,40.341C4.37,39.858 3.963,38.893 4.044,38.845C4.333,38.677 4.703,38.27 6.162,39.387C7.677,40.545 10.026,39.578 9.397,38.666C9.939,39.297 8.974,40.158 8.83,40.279C6.513,42.243 4.019,40.691 4.168,40.341Z" fill="#FCDEFA"/>
<path d="M4.133,40.392C3.121,40.359 2.573,40.85 2.29,41.453C2.007,42.056 3.962,43.268 6.209,43.189C8.457,43.111 9.464,44.808 9.941,45.055C9.596,43.997 8.476,41.991 7.5,41.677C6.527,41.363 4.072,41.461 4.133,40.392Z" fill="#FFF5FE"/>
<path d="M4.043,38.842C4.332,38.673 4.702,38.382 6.161,39.495C7.676,40.654 10.125,39.566 9.399,38.662C9.766,39.434 8.055,39.563 6.919,39.229C5.701,38.875 4.523,38.241 4.043,38.842Z" fill="#FFFAFE"/>
<path d="M9.276,44.096C9.085,43.858 7.568,42.663 5.469,42.55C3.483,42.447 1.264,40.971 3.808,40.469C3.107,41.086 3.974,41.796 5.172,41.905C6.53,42.026 7.66,41.454 9.276,44.096Z" fill="#FFFAFE"/>
<path d="M2.741,42.985C2.691,42.5 2.318,42.615 2.278,41.672C2.447,42.306 4.259,43.106 6.259,43.038C8.51,42.96 9.469,44.809 9.946,45.055C9.323,44.957 8.178,44.475 7.011,44.64C5.923,44.792 2.677,44.054 2.741,42.985Z" fill="#FCDEFA"/>
<path d="M9.586,39.551C9.457,40.336 7.811,41.276 7.148,41.459C8.784,41.792 9.115,40.81 10.762,40.864C11.643,40.892 11.713,39.621 9.586,39.551Z" fill="#FFF5FE"/>
<path d="M9.587,39.551C10.85,39.795 11.172,40.193 10.788,40.482C10.493,40.704 9.576,40.819 9.573,41.029C9.573,41.029 10.426,40.906 10.912,40.92C11.79,40.948 11.714,39.621 9.587,39.551Z" fill="#FFFAFE"/>
<path d="M8.872,42.955C9.063,43.244 9.517,44.015 9.526,44.066C10.101,44.046 11.175,43.726 11.215,43.667C11.498,42.997 11.972,42.826 12.062,42.026C12.143,41.316 10.348,43.112 8.872,42.955Z" fill="#FCDEFA"/>
<path d="M8.89,42.982C10.099,42.659 10.567,42.258 10.741,41.879C10.82,41.512 10.977,41.332 11.016,41.273C11.476,41.304 12.172,41.324 12.066,42.031C11.956,42.738 9.807,42.92 8.89,42.982Z" fill="#FFF5FE"/>
<path d="M8.889,42.978C10.098,42.656 10.566,42.255 10.74,41.876C10.819,41.508 10.976,41.329 11.015,41.27L11.097,41.121C10.314,41.284 10.749,42.406 8.647,42.65L8.889,42.978Z" fill="#E2ACE1"/>
<path d="M2.742,42.985C2.716,42.741 2.61,42.649 2.506,42.5C4.77,43.488 2.8,43.936 6.891,44.324C9.105,44.531 9.466,44.812 9.943,45.056C9.321,44.958 8.176,44.475 7.009,44.641C5.923,44.792 2.677,44.054 2.742,42.985Z" fill="#E2ACE1"/>
<path d="M30.461,45.552C30.301,45.622 30.124,45.664 29.925,45.67C28.662,45.703 27.501,45.821 26.235,45.611C25.657,45.513 25.082,45.395 24.51,45.266L22.852,45.266C22.622,45.521 22.128,45.268 22.167,45.636C22.106,46.705 25.509,47.454 26.597,47.3C27.764,47.134 29.125,47.614 29.751,47.712C29.644,47.384 29.352,46.744 29.324,46.713C29.899,46.694 30.952,46.337 30.991,46.276C31.201,45.768 30.881,45.633 30.461,45.552Z" fill="#DD76CF"/>
<path d="M23.05,44.063C23.799,43.612 23.355,42.927 23.726,42.784C24.834,43.07 28.571,41.294 29.152,41.945C29.152,41.945 30.599,43.64 27.668,45.135C26.543,43.912 22.242,44.706 23.05,44.063Z" fill="#E2ACE1"/>
<path d="M29.463,45.898C25.99,47.708 25.942,44.518 26.713,43.856C28.029,43.721 28.68,43.208 30.327,43.261C30.591,43.27 30.885,43.227 30.967,43.07C29.993,44.271 30.375,45.337 29.463,45.898Z" fill="#FCDEFA"/>
<path d="M24.689,40.531C25.438,40.079 25.371,39.835 26.185,40.045C27.293,40.331 28.132,40.093 28.715,40.744C28.715,40.744 27.975,42.088 27.206,42.332C26.078,41.106 23.881,41.173 24.689,40.531Z" fill="#E2ACE1"/>
<path d="M24.626,40.558C24.323,40.723 23.658,40.948 23.607,41.24C23.896,41.071 24.267,40.754 25.726,41.871C27.241,43.029 29.589,41.975 28.96,41.06C28.119,39.834 28.088,40.965 27.92,41.035C25.367,42.09 25.24,40.221 24.626,40.558Z" fill="#FFF5FE"/>
<path d="M26.876,37.949C25.832,39.641 27.855,39.515 27.917,40.957C29.028,38.71 26.009,39.728 26.876,37.949Z" fill="#FFF5FE"/>
<path d="M26.874,37.949C25.999,39.403 27.983,39.655 27.915,40.957C26.226,40.194 25.685,39.33 26.874,37.949Z" fill="#FCDEFA"/>
<path d="M26.874,37.949C25.037,39.201 24.487,40.328 26.344,40.808C27.452,41.094 27.612,40.746 27.912,40.957C27.912,40.957 28.061,40.542 27.379,40.222C26.596,39.857 25.85,39.245 26.874,37.949Z" fill="#FFF5FE"/>
<path d="M26.782,38.023C26.412,38.433 24.465,39.527 27.172,40.554C25.904,39.698 25.907,39.134 26.782,38.023Z" fill="#FFFAFE"/>
<path d="M25.2,39.828C25.186,40.235 25.542,40.56 26.353,40.771C27.461,41.057 27.562,40.715 27.913,40.956C27.913,40.956 27.669,41.004 26.903,41.248C26.087,41.509 24.931,40.858 25.2,39.828Z" fill="#FCDEFA"/>
<path d="M26.874,37.949C26.437,39.122 27.831,38.774 28.12,39.835C27.823,39.035 26.17,39.366 26.874,37.949Z" fill="#FFFAFE"/>
<path d="M23.73,42.735C23.932,42.253 23.525,41.288 23.607,41.24C23.896,41.071 24.266,40.665 25.725,41.781C27.24,42.94 29.588,41.972 28.96,41.06C29.501,41.692 28.536,42.553 28.393,42.673C26.078,44.637 23.581,43.089 23.73,42.735Z" fill="#FCDEFA"/>
<path d="M23.7,42.791C22.687,42.757 22.14,43.248 21.857,43.851C21.573,44.454 23.529,45.666 25.776,45.588C28.023,45.509 29.03,47.207 29.507,47.454C29.162,46.396 28.043,44.39 27.066,44.076C26.09,43.764 23.635,43.86 23.7,42.791Z" fill="#FFF5FE"/>
<path d="M23.607,41.24C23.896,41.072 24.267,40.78 25.726,41.894C27.241,43.053 29.69,41.964 28.963,41.061C29.331,41.832 27.619,41.961 26.483,41.627C25.266,41.274 24.087,40.64 23.607,41.24Z" fill="#FFFAFE"/>
<path d="M28.839,46.491C28.648,46.252 27.13,45.057 25.032,44.945C23.045,44.841 20.826,43.365 23.371,42.863C22.669,43.481 23.536,44.19 24.734,44.3C26.092,44.423 27.223,43.848 28.839,46.491Z" fill="#FFFAFE"/>
<path d="M22.305,45.383C22.254,44.898 21.881,45.013 21.842,44.07C22.01,44.704 23.823,45.504 25.823,45.437C28.073,45.358 29.032,47.207 29.509,47.454C28.887,47.356 27.742,46.873 26.575,47.039C25.486,47.19 22.24,46.452 22.305,45.383Z" fill="#FCDEFA"/>
<path d="M29.151,41.945C29.022,42.731 27.375,43.671 26.713,43.853C28.349,44.187 28.68,43.205 30.326,43.258C31.207,43.289 31.278,42.015 29.151,41.945Z" fill="#FFF5FE"/>
<path d="M29.151,41.945C30.413,42.189 30.736,42.588 30.352,42.877C30.057,43.098 29.14,43.213 29.137,43.424C29.137,43.424 29.99,43.3 30.475,43.314C31.353,43.345 31.277,42.015 29.151,41.945Z" fill="#FFFAFE"/>
<path d="M28.438,45.357C28.629,45.646 29.084,46.418 29.092,46.468C29.667,46.448 30.742,46.129 30.781,46.07C31.064,45.399 31.539,45.228 31.628,44.428C31.707,43.719 29.911,45.514 28.438,45.357Z" fill="#FCDEFA"/>
<path d="M28.453,45.377C29.662,45.054 30.131,44.653 30.305,44.274C30.383,43.906 30.54,43.727 30.58,43.668C31.04,43.699 31.736,43.718 31.629,44.425C31.52,45.132 29.371,45.315 28.453,45.377Z" fill="#FFF5FE"/>
<path d="M28.451,45.377C29.66,45.054 30.129,44.653 30.303,44.274C30.381,43.907 30.539,43.727 30.578,43.668L30.659,43.52C29.876,43.682 30.311,44.804 28.21,45.049L28.451,45.377Z" fill="#E2ACE1"/>
<path d="M22.305,45.384C22.28,45.14 22.173,45.047 22.069,44.898C24.333,45.886 22.364,46.335 26.454,46.722C28.668,46.93 29.03,47.21 29.507,47.454C28.884,47.356 27.739,46.874 26.572,47.039C25.487,47.191 22.24,46.453 22.305,45.384Z" fill="#E2ACE1"/>
<path d="M51.588,45.521C51.429,45.591 51.252,45.633 51.053,45.638C49.79,45.672 48.629,45.79 47.363,45.579C46.785,45.481 46.21,45.363 45.638,45.234L43.98,45.234C43.75,45.49 43.256,45.237 43.295,45.605C43.233,46.674 46.637,47.423 47.725,47.268C48.892,47.103 50.253,47.583 50.879,47.681C50.772,47.353 50.48,46.713 50.452,46.682C51.027,46.662 52.079,46.306 52.119,46.244C52.329,45.734 52.009,45.599 51.588,45.521Z" fill="#DD76CF"/>
<path d="M44.177,44.036C44.926,43.584 44.483,42.9 44.853,42.757C45.961,43.043 49.698,41.267 50.279,41.918C50.279,41.918 51.727,43.612 48.795,45.108C47.67,43.885 43.372,44.679 44.177,44.036Z" fill="#E2ACE1"/>
<path d="M50.591,45.867C47.117,47.677 47.07,44.487 47.841,43.825C49.157,43.69 49.808,43.177 51.455,43.23C51.719,43.238 52.013,43.196 52.095,43.039C51.121,44.24 51.505,45.306 50.591,45.867Z" fill="#FCDEFA"/>
<path d="M45.818,40.499C46.567,40.048 46.5,39.804 47.313,40.014C48.422,40.3 49.26,40.062 49.844,40.713C49.844,40.713 49.103,42.056 48.335,42.3C47.21,41.074 45.013,41.142 45.818,40.499Z" fill="#E2ACE1"/>
<path d="M45.754,40.527C45.451,40.692 44.786,40.917 44.735,41.208C45.024,41.04 45.395,40.723 46.854,41.84C48.369,42.998 50.717,41.943 50.088,41.029C49.247,39.803 49.216,40.933 49.048,41.003C46.494,42.058 46.371,40.19 45.754,40.527Z" fill="#FFF5FE"/>
<path d="M48.004,37.918C46.96,39.61 48.983,39.483 49.045,40.926C50.158,38.678 47.137,39.697 48.004,37.918Z" fill="#FFF5FE"/>
<path d="M48.002,37.918C47.127,39.371 49.111,39.624 49.043,40.926C47.354,40.162 46.813,39.296 48.002,37.918Z" fill="#FCDEFA"/>
<path d="M48,37.918C46.163,39.169 45.613,40.297 47.47,40.777C48.578,41.063 48.738,40.715 49.038,40.926C49.038,40.926 49.187,40.51 48.505,40.19C47.722,39.823 46.976,39.214 48,37.918Z" fill="#FFF5FE"/>
<path d="M47.912,37.992C47.542,38.402 45.595,39.496 48.302,40.523C47.031,39.664 47.034,39.103 47.912,37.992Z" fill="#FFFAFE"/>
<path d="M46.331,39.801C46.317,40.208 46.673,40.533 47.484,40.743C48.592,41.03 48.693,40.687 49.044,40.929C49.044,40.929 48.8,40.976 48.034,41.22C47.215,41.481 46.062,40.83 46.331,39.801Z" fill="#FCDEFA"/>
<path d="M48.002,37.918C47.565,39.091 48.959,38.743 49.248,39.803C48.95,39.001 47.301,39.335 48.002,37.918Z" fill="#FFFAFE"/>
<path d="M44.858,42.704C45.06,42.221 44.653,41.256 44.735,41.209C45.024,41.04 45.394,40.633 46.853,41.75C48.368,42.909 50.716,41.941 50.088,41.029C50.629,41.66 49.664,42.522 49.521,42.642C47.206,44.606 44.712,43.057 44.858,42.704Z" fill="#FCDEFA"/>
<path d="M44.828,42.752C43.815,42.718 43.268,43.209 42.984,43.812C42.701,44.415 44.657,45.627 46.904,45.549C49.151,45.47 50.158,47.168 50.635,47.414C50.29,46.357 49.171,44.351 48.194,44.037C47.218,43.722 44.763,43.821 44.828,42.752Z" fill="#FFF5FE"/>
<path d="M44.735,41.207C45.024,41.038 45.395,40.747 46.854,41.86C48.369,43.019 50.818,41.931 50.091,41.027C50.459,41.799 48.747,41.928 47.611,41.594C46.393,41.238 45.215,40.604 44.735,41.207Z" fill="#FFFAFE"/>
<path d="M49.967,46.46C49.776,46.221 48.258,45.026 46.16,44.914C44.173,44.81 41.954,43.334 44.499,42.832C43.797,43.449 44.664,44.159 45.862,44.268C47.22,44.392 48.351,43.817 49.967,46.46Z" fill="#FFFAFE"/>
<path d="M43.433,45.344C43.382,44.859 43.009,44.974 42.97,44.031C43.138,44.665 44.95,45.465 46.951,45.398C49.201,45.319 50.16,47.168 50.637,47.415C50.015,47.317 48.87,46.834 47.703,47C46.614,47.151 43.368,46.413 43.433,45.344Z" fill="#FCDEFA"/>
<path d="M50.279,41.914C50.15,42.7 48.503,43.639 47.841,43.822C49.476,44.156 49.808,43.174 51.454,43.227C52.335,43.258 52.408,41.984 50.279,41.914Z" fill="#FFF5FE"/>
<path d="M50.279,41.914C51.541,42.158 51.864,42.557 51.479,42.846C51.185,43.067 50.267,43.182 50.265,43.393C50.265,43.393 51.118,43.269 51.603,43.283C52.481,43.314 52.408,41.984 50.279,41.914Z" fill="#FFFAFE"/>
<path d="M49.566,45.318C49.757,45.607 50.212,46.378 50.22,46.429C50.795,46.409 51.87,46.089 51.909,46.03C52.192,45.36 52.667,45.189 52.756,44.389C52.835,43.679 51.039,45.478 49.566,45.318Z" fill="#FCDEFA"/>
<path d="M49.581,45.341C50.79,45.019 51.259,44.618 51.433,44.239C51.511,43.871 51.668,43.692 51.708,43.633C52.168,43.664 52.864,43.683 52.757,44.39C52.648,45.095 50.498,45.277 49.581,45.341Z" fill="#FFF5FE"/>
<path d="M49.579,45.342C50.788,45.019 51.257,44.618 51.431,44.239C51.509,43.872 51.667,43.692 51.706,43.633L51.787,43.484C51.004,43.647 51.439,44.769 49.338,45.013L49.579,45.342Z" fill="#E2ACE1"/>
<path d="M43.433,45.349C43.408,45.105 43.301,45.012 43.197,44.863C45.461,45.851 43.492,46.3 47.582,46.687C49.796,46.895 50.158,47.175 50.635,47.419C50.012,47.321 48.867,46.838 47.7,47.004C46.614,47.155 43.368,46.418 43.433,45.349Z" fill="#E2ACE1"/>
<path d="M17.866,42.724C18.127,43.262 18.419,43.998 18.371,44.247C18.335,44.438 17.482,44.536 17.19,44.705C18.164,44.455 20.13,43.467 20.377,44.185C20.565,44.733 21.255,45.008 21.197,45.263C21.135,45.518 20.871,46.138 20.046,46.464C17.625,47.423 13.745,47.022 12.69,46.385C12.171,45.936 12.053,45.24 12.207,44.514C12.3,44.076 13.15,43.181 13.644,42.881C15.266,41.809 17.479,41.927 17.866,42.724Z" fill="#B4349D"/>
<path d="M17.942,42.276C18.183,42.812 18.309,43.112 18.262,43.362C18.225,43.552 17.56,44.088 17.283,44.259C18.208,43.999 20.512,42.932 20.736,43.648C20.907,44.192 21.067,44.882 21.008,45.138C20.949,45.393 20.47,45.819 19.984,46.021C17.936,46.88 13.192,46.498 12.844,46.125C12.606,45.76 12.409,44.843 12.564,44.116C12.656,43.679 12.984,43.37 13.049,43.019C14.598,41.934 17.583,41.485 17.942,42.276Z" fill="#D3114D"/>
<path d="M13.115,42.882C13.32,42.739 13.881,42.907 14.136,42.789L12.848,46.128C12.514,45.746 12.413,44.846 12.568,44.119C12.657,43.681 12.862,43.252 13.115,42.882Z" fill="#E51A4F"/>
<path d="M20.14,44.384C20.277,44.838 20.398,45.281 20.507,45.722C20.771,45.526 20.97,45.301 21.007,45.141C21.066,44.886 20.906,44.196 20.735,43.651C20.662,43.424 20.319,43.52 19.898,43.665C19.983,43.904 20.064,44.142 20.14,44.384Z" fill="#E51A4F"/>
<path d="M17.482,41.876C18.158,42.199 18.141,42.712 17.502,43.108C18.425,42.847 19.575,42.872 20.254,43.192C21.039,43.565 20.891,44.196 19.923,44.6C17.875,45.459 14.213,44.839 13.333,44.856C13.425,44.463 11.997,42.906 14.309,41.935C15.274,41.531 16.696,41.503 17.482,41.876Z" fill="#FF3E6A"/>
<path d="M14.439,42.523C15.407,42.116 16.826,42.091 17.612,42.461C17.746,42.526 17.847,42.599 17.926,42.674C18.066,42.383 17.929,42.085 17.48,41.872C16.694,41.499 15.275,41.527 14.307,41.934C12.755,42.585 12.887,43.499 13.114,44.147C13.078,43.603 13.316,42.994 14.439,42.523Z" fill="#FF80A1"/>
<path d="M38.436,43.413C38.702,43.96 38.997,44.706 38.946,44.956C38.91,45.15 38.043,45.248 37.748,45.422C38.736,45.166 40.212,44.914 40.98,44.894C41.634,44.877 41.873,45.728 41.811,45.986C41.749,46.244 41.483,46.872 40.646,47.203C38.192,48.174 34.255,47.77 33.184,47.122C32.656,46.667 32.538,45.96 32.693,45.225C32.788,44.782 33.649,43.873 34.152,43.57C35.798,42.484 38.043,42.605 38.436,43.413Z" fill="#B4349D"/>
<path d="M38.437,43.014C38.681,43.55 38.804,43.853 38.757,44.1C38.72,44.291 38.055,44.827 37.778,45.001C38.703,44.74 41.01,43.673 41.237,44.389C41.408,44.933 41.568,45.626 41.509,45.881C41.45,46.137 40.968,46.563 40.485,46.765C38.437,47.624 33.684,47.242 33.336,46.869C33.098,46.504 32.901,45.587 33.056,44.857C33.148,44.42 33.477,44.111 33.544,43.758C35.09,42.672 38.078,42.223 38.437,43.014Z" fill="#D3114D"/>
<path d="M33.598,43.62C33.803,43.477 34.364,43.645 34.622,43.527L33.331,46.869C32.995,46.487 32.896,45.587 33.051,44.857C33.143,44.422 33.345,43.99 33.598,43.62Z" fill="#E51A4F"/>
<path d="M40.635,45.121C40.772,45.575 40.893,46.019 41.005,46.459C41.269,46.263 41.468,46.038 41.507,45.878C41.566,45.623 41.406,44.933 41.235,44.386C41.162,44.159 40.82,44.254 40.396,44.4C40.478,44.638 40.559,44.88 40.635,45.121Z" fill="#E51A4F"/>
<path d="M37.972,42.612C38.651,42.934 38.632,43.448 37.992,43.843C38.918,43.582 40.068,43.605 40.747,43.927C41.533,44.3 41.384,44.932 40.416,45.339C38.368,46.197 34.701,45.577 33.817,45.594C33.91,45.201 32.482,43.641 34.797,42.67C35.765,42.264 37.187,42.238 37.972,42.612Z" fill="#FF3E6A"/>
<path d="M34.927,43.257C35.895,42.85 37.317,42.822 38.103,43.196C38.237,43.26 38.338,43.333 38.417,43.409C38.557,43.117 38.42,42.82 37.971,42.606C37.185,42.233 35.763,42.261 34.795,42.668C33.244,43.319 33.375,44.234 33.603,44.884C33.566,44.337 33.805,43.729 34.927,43.257Z" fill="#FF80A1"/>
<path d="M16.725,40.803C16.731,40.87 16.571,40.94 16.366,40.963C16.161,40.985 15.987,40.949 15.982,40.881C15.976,40.814 16.136,40.744 16.341,40.721C16.546,40.699 16.719,40.735 16.725,40.803Z" fill="#B4349D"/>
<path d="M16.519,40.715C16.544,40.754 16.499,40.827 16.421,40.883C16.339,40.936 16.255,40.95 16.227,40.911L8.195,28.965C8.169,28.926 8.214,28.853 8.293,28.797C8.374,28.743 8.458,28.729 8.486,28.769L16.519,40.715Z" fill="#2C8CFF"/>
<path d="M16.356,40.752C16.373,40.777 16.367,40.813 16.339,40.83C16.314,40.847 16.277,40.841 16.26,40.813L8.756,29.658C8.739,29.633 8.744,29.597 8.772,29.58C8.798,29.563 8.834,29.569 8.851,29.597L16.356,40.752Z" fill="#92C8FC"/>
<path d="M6.114,24.573L7.595,25.42L9.133,24.682C9.756,24.385 10.143,24.688 10.002,25.364L9.655,27.033L10.833,28.268C11.31,28.767 11.139,29.23 10.454,29.306L8.757,29.491L7.946,30.992C7.618,31.598 7.124,31.581 6.841,30.953L6.142,29.396L4.464,29.09C3.785,28.966 3.651,28.49 4.161,28.027L5.426,26.882L5.199,25.19C5.107,24.506 5.516,24.231 6.114,24.573Z" fill="#FF7935"/>
<g opacity="0.5">
<path d="M7.877,28.793C7.74,29.172 7.627,29.573 7.56,29.968C7.529,30.165 7.588,30.426 7.42,30.577C7.218,30.757 7.041,30.395 6.965,30.246C6.811,29.943 6.744,29.584 6.53,29.312C6.281,28.995 5.981,29.051 5.624,29.017C5.417,28.998 5.231,28.956 5.029,28.919C4.858,28.888 4.524,28.953 4.404,28.787C4.275,28.605 4.684,28.31 4.797,28.215C5.041,28.016 5.268,27.789 5.506,27.584C5.663,27.452 5.966,27.286 6.017,27.082C6.07,26.863 6.025,26.509 6,26.285C5.966,25.982 5.849,25.682 5.77,25.387C5.689,25.09 5.692,24.91 6.039,25.064C6.368,25.21 6.668,25.426 6.957,25.637C7.282,25.875 7.611,26.021 7.978,25.808C8.186,25.687 8.41,25.611 8.629,25.516C8.792,25.446 9.05,25.275 9.235,25.297C9.502,25.331 9.271,25.659 9.184,25.783C8.994,26.049 8.823,26.327 8.66,26.61C8.567,26.773 8.449,26.924 8.385,27.098C8.326,27.253 8.348,27.407 8.312,27.57C8.225,27.943 8.071,28.294 7.933,28.65C7.914,28.695 7.894,28.745 7.877,28.793Z" fill="#FFA98D"/>
</g>
<path d="M5.885,26.994C5.829,27.132 5.719,27.244 5.56,27.345C5.012,27.696 4.625,28.192 4.123,28.596C4.042,28.459 4.221,28.29 4.32,28.201C4.684,27.87 5.038,27.522 5.411,27.205C5.719,26.944 5.63,26.702 5.588,26.346C5.548,26.023 5.506,25.701 5.459,25.381C5.447,25.308 5.439,25.232 5.428,25.159C5.408,25.019 5.391,24.789 5.526,24.699C5.56,24.82 5.546,24.98 5.565,25.112C5.588,25.258 5.616,25.403 5.638,25.549C5.689,25.894 5.801,26.197 5.893,26.531C5.944,26.711 5.938,26.862 5.885,26.994Z" fill="#FFA98D"/>
<path d="M8.584,29.186C8.71,29.113 8.868,29.088 9.056,29.102C9.704,29.152 10.312,28.992 10.958,28.973C10.938,29.133 10.697,29.158 10.562,29.169C10.074,29.211 9.58,29.276 9.092,29.304C8.688,29.326 8.615,29.573 8.433,29.882C8.267,30.162 8.11,30.446 7.95,30.729C7.914,30.793 7.877,30.858 7.841,30.923C7.771,31.043 7.647,31.24 7.484,31.231C7.529,31.116 7.639,30.995 7.7,30.88C7.771,30.751 7.835,30.617 7.908,30.488C8.076,30.182 8.169,29.873 8.298,29.551C8.365,29.374 8.461,29.259 8.584,29.186Z" fill="#FF4D36"/>
<path d="M8.576,25.292C8.669,25.249 8.759,25.21 8.854,25.171C9.101,25.064 9.297,24.944 9.567,24.904C9.676,24.888 10.019,24.829 9.794,24.686C9.499,24.498 9.023,24.826 8.784,24.966C8.602,25.073 8.405,25.16 8.217,25.258C8.164,25.286 7.634,25.51 7.71,25.567C7.841,25.665 8.085,25.53 8.212,25.468C8.33,25.404 8.453,25.348 8.576,25.292Z" fill="#FFA98D"/>
<path d="M6.699,29.979C6.744,30.068 6.789,30.158 6.833,30.248C6.954,30.486 7.03,30.705 7.209,30.907C7.282,30.991 7.51,31.252 7.243,31.219C6.898,31.174 6.741,30.615 6.645,30.357C6.575,30.158 6.48,29.965 6.396,29.768C6.373,29.715 6.107,29.201 6.202,29.207C6.368,29.218 6.469,29.476 6.525,29.605C6.581,29.735 6.64,29.858 6.699,29.979Z" fill="#FFA98D"/>
<path d="M9.759,25.907C9.734,26.006 9.709,26.101 9.686,26.199C9.622,26.46 9.535,26.673 9.54,26.946C9.543,27.058 9.54,27.403 9.361,27.204C9.128,26.943 9.375,26.418 9.473,26.163C9.549,25.966 9.602,25.759 9.669,25.554C9.686,25.498 9.824,24.937 9.891,25.001C10.009,25.116 9.916,25.38 9.874,25.512C9.829,25.647 9.793,25.776 9.759,25.907Z" fill="#FF4D36"/>
<path d="M41.69,36.887C41.69,36.955 41.525,37.011 41.317,37.011C41.11,37.014 40.941,36.96 40.941,36.893C40.941,36.826 41.107,36.77 41.315,36.77C41.522,36.767 41.69,36.82 41.69,36.887Z" fill="#B4349D"/>
<path d="M41.52,36.93C41.508,36.975 41.424,36.995 41.329,36.972C41.233,36.953 41.166,36.897 41.175,36.852L44.297,22.801C44.308,22.757 44.393,22.737 44.488,22.759C44.583,22.782 44.651,22.835 44.642,22.88L41.52,36.93Z" fill="#2C8CFF"/>
<path d="M41.38,36.841C41.374,36.872 41.343,36.892 41.312,36.886C41.282,36.881 41.262,36.85 41.268,36.819L44.183,23.694C44.188,23.663 44.219,23.644 44.25,23.649C44.281,23.655 44.3,23.686 44.295,23.717L41.38,36.841Z" fill="#92C8FC"/>
<path d="M46.053,18.265L46.457,19.924L48.054,20.53C48.699,20.774 48.747,21.267 48.16,21.629L46.71,22.527L46.626,24.23C46.592,24.918 46.137,25.117 45.613,24.671L44.311,23.568L42.664,24.017C41.999,24.196 41.671,23.826 41.932,23.189L42.577,21.61L41.643,20.182C41.264,19.604 41.517,19.177 42.204,19.231L43.904,19.357L44.973,18.027C45.408,17.488 45.891,17.595 46.053,18.265Z" fill="#FF357A"/>
<g opacity="0.5">
<path d="M44.207,22.449C43.837,22.609 43.469,22.805 43.138,23.029C42.975,23.142 42.827,23.363 42.602,23.346C42.333,23.324 42.473,22.945 42.529,22.788C42.644,22.468 42.858,22.171 42.908,21.829C42.967,21.43 42.717,21.251 42.499,20.97C42.369,20.807 42.274,20.642 42.162,20.471C42.066,20.325 41.789,20.128 41.828,19.926C41.87,19.708 42.367,19.8 42.513,19.817C42.827,19.856 43.147,19.865 43.461,19.896C43.666,19.918 43.994,20.025 44.176,19.918C44.37,19.806 44.597,19.531 44.743,19.357C44.939,19.124 45.077,18.832 45.234,18.571C45.394,18.308 45.526,18.184 45.655,18.543C45.775,18.883 45.826,19.247 45.874,19.604C45.924,20.005 46.045,20.342 46.452,20.462C46.682,20.53 46.892,20.639 47.111,20.732C47.274,20.802 47.577,20.869 47.686,21.021C47.846,21.237 47.448,21.296 47.299,21.318C46.976,21.363 46.656,21.43 46.339,21.509C46.157,21.554 45.969,21.573 45.795,21.646C45.641,21.711 45.545,21.834 45.402,21.918C45.074,22.112 44.712,22.241 44.359,22.387C44.303,22.407 44.255,22.426 44.207,22.449Z" fill="#FF8DCD"/>
</g>
<path d="M44.144,19.765C44.006,19.818 43.847,19.815 43.664,19.773C43.033,19.619 42.407,19.678 41.768,19.594C41.812,19.439 42.057,19.454 42.188,19.465C42.679,19.501 43.173,19.518 43.661,19.571C44.065,19.616 44.178,19.383 44.405,19.108C44.612,18.859 44.814,18.603 45.016,18.351C45.064,18.292 45.109,18.236 45.157,18.177C45.244,18.068 45.398,17.896 45.558,17.93C45.496,18.037 45.37,18.138 45.289,18.242C45.196,18.359 45.112,18.48 45.019,18.598C44.803,18.873 44.66,19.162 44.483,19.459C44.388,19.613 44.276,19.714 44.144,19.765Z" fill="#FF8DCD"/>
<path d="M44.41,23.23C44.55,23.272 44.676,23.367 44.797,23.513C45.207,24.018 45.742,24.346 46.2,24.801C46.071,24.896 45.885,24.739 45.784,24.649C45.417,24.324 45.03,24.012 44.673,23.676C44.379,23.398 44.149,23.513 43.801,23.594C43.484,23.667 43.17,23.749 42.855,23.83C42.783,23.85 42.71,23.866 42.639,23.883C42.505,23.917 42.278,23.962 42.171,23.838C42.286,23.791 42.449,23.785 42.575,23.751C42.718,23.712 42.858,23.667 43.004,23.631C43.341,23.541 43.63,23.398 43.952,23.269C44.124,23.202 44.275,23.19 44.41,23.23Z" fill="#E51A4F"/>
<path d="M47.228,20.543C47.32,20.583 47.413,20.622 47.505,20.661C47.752,20.768 47.974,20.827 48.187,20.992C48.274,21.06 48.552,21.267 48.501,21.006C48.434,20.664 47.867,20.543 47.604,20.468C47.402,20.409 47.202,20.327 47,20.257C46.944,20.237 46.414,20.007 46.428,20.1C46.448,20.263 46.714,20.347 46.846,20.395C46.978,20.442 47.104,20.493 47.228,20.543Z" fill="#FF8DCD"/>
<path d="M42.537,22.416C42.503,22.508 42.466,22.604 42.433,22.699C42.343,22.951 42.236,23.156 42.214,23.426C42.205,23.538 42.169,23.88 42.012,23.667C41.807,23.386 42.102,22.887 42.225,22.64C42.32,22.452 42.393,22.25 42.48,22.054C42.503,22 42.694,21.453 42.755,21.526C42.862,21.652 42.744,21.905 42.688,22.034C42.635,22.163 42.584,22.289 42.537,22.416Z" fill="#FF8DCD"/>
<path d="M47.596,21.826C47.509,21.874 47.422,21.924 47.332,21.975C47.099,22.106 46.883,22.191 46.689,22.381C46.611,22.46 46.358,22.696 46.378,22.432C46.406,22.084 46.956,21.902 47.211,21.795C47.405,21.714 47.596,21.61 47.786,21.517C47.84,21.492 48.339,21.203 48.339,21.296C48.336,21.461 48.081,21.573 47.958,21.635C47.837,21.697 47.716,21.761 47.596,21.826Z" fill="#E51A4F"/>
<path d="M55.125,41.831C55.12,41.938 54.814,42.011 54.443,41.994C54.073,41.977 53.776,41.876 53.781,41.767C53.787,41.66 54.093,41.587 54.463,41.604C54.833,41.624 55.131,41.725 55.125,41.831Z" fill="#B4349D"/>
<path d="M54.501,41.823C54.481,41.885 54.363,41.902 54.234,41.86C54.105,41.82 54.018,41.739 54.038,41.677L59.997,22.681C60.017,22.619 60.134,22.602 60.263,22.644C60.393,22.684 60.48,22.765 60.46,22.827L54.501,41.823Z" fill="url(#pf_0_363_697)"/>
<path d="M54.318,41.674C54.304,41.717 54.26,41.739 54.22,41.728C54.178,41.714 54.156,41.669 54.167,41.627L59.733,23.884C59.747,23.842 59.792,23.82 59.831,23.831C59.873,23.845 59.896,23.89 59.885,23.932L54.318,41.674Z" fill="#BEF3E6"/>
<path d="M62.954,16.634L63.316,18.966L65.442,19.99C66.301,20.402 66.309,21.087 65.459,21.519L63.352,22.585L63.038,24.925C62.912,25.87 62.261,26.089 61.59,25.413L59.927,23.741L57.604,24.164C56.666,24.336 56.257,23.786 56.692,22.938L57.769,20.837L56.65,18.758C56.198,17.919 56.594,17.361 57.536,17.512L59.865,17.888L61.495,16.183C62.154,15.487 62.808,15.692 62.954,16.634Z" fill="#355EFF"/>
<g opacity="0.5">
<path d="M59.915,22.18C59.388,22.357 58.855,22.582 58.372,22.854C58.134,22.988 57.901,23.277 57.595,23.227C57.227,23.165 57.466,22.657 57.561,22.447C57.758,22.018 58.086,21.636 58.195,21.17C58.322,20.626 58.002,20.351 57.732,19.936C57.575,19.695 57.46,19.456 57.326,19.209C57.211,18.999 56.852,18.693 56.93,18.421C57.014,18.126 57.688,18.311 57.887,18.354C58.313,18.443 58.754,18.491 59.183,18.575C59.461,18.629 59.904,18.814 60.165,18.693C60.445,18.561 60.791,18.208 61.009,17.989C61.307,17.691 61.531,17.304 61.778,16.965C62.031,16.62 62.227,16.468 62.359,16.976C62.485,17.456 62.513,17.966 62.533,18.46C62.558,19.018 62.682,19.498 63.229,19.711C63.537,19.832 63.812,20.006 64.107,20.163C64.323,20.278 64.73,20.407 64.864,20.629C65.058,20.946 64.502,20.982 64.295,20.994C63.843,21.019 63.394,21.072 62.948,21.142C62.693,21.182 62.429,21.187 62.182,21.269C61.963,21.339 61.817,21.496 61.61,21.597C61.133,21.827 60.619,21.962 60.117,22.119C60.053,22.135 59.983,22.158 59.915,22.18Z" fill="#8DBAFF"/>
</g>
<path d="M60.143,18.474C59.947,18.53 59.728,18.511 59.484,18.427C58.631,18.14 57.761,18.149 56.892,17.955C56.97,17.748 57.304,17.798 57.489,17.826C58.16,17.936 58.841,18.014 59.506,18.146C60.056,18.253 60.239,17.947 60.587,17.596C60.904,17.276 61.212,16.951 61.521,16.623C61.591,16.547 61.664,16.474 61.734,16.398C61.869,16.258 62.102,16.039 62.315,16.106C62.217,16.247 62.029,16.37 61.905,16.505C61.765,16.656 61.633,16.813 61.493,16.962C61.162,17.316 60.932,17.697 60.651,18.084C60.497,18.295 60.331,18.421 60.143,18.474Z" fill="#8DBAFF"/>
<path d="M60.1,23.285C60.29,23.358 60.453,23.506 60.599,23.72C61.104,24.463 61.803,24.982 62.383,25.661C62.195,25.779 61.96,25.538 61.831,25.403C61.362,24.912 60.866,24.435 60.414,23.93C60.041,23.512 59.71,23.647 59.221,23.717C58.775,23.781 58.332,23.854 57.889,23.93C57.788,23.947 57.684,23.964 57.583,23.981C57.392,24.011 57.075,24.045 56.943,23.863C57.106,23.809 57.331,23.824 57.51,23.793C57.712,23.756 57.911,23.711 58.113,23.675C58.59,23.593 59.003,23.428 59.463,23.288C59.71,23.212 59.917,23.212 60.1,23.285Z" fill="#234FDB"/>
<path d="M64.301,19.91C64.425,19.975 64.548,20.039 64.672,20.104C65,20.278 65.3,20.387 65.575,20.643C65.687,20.746 66.046,21.066 66.007,20.699C65.957,20.219 65.188,19.986 64.832,19.849C64.56,19.745 64.296,19.607 64.026,19.487C63.954,19.453 63.249,19.072 63.255,19.203C63.263,19.431 63.62,19.579 63.796,19.661C63.965,19.742 64.133,19.823 64.301,19.91Z" fill="#8DBAFF"/>
<path d="M57.614,21.938C57.555,22.064 57.497,22.19 57.44,22.317C57.286,22.656 57.115,22.923 57.053,23.293C57.028,23.445 56.938,23.916 56.745,23.599C56.495,23.186 56.961,22.536 57.16,22.21C57.311,21.96 57.438,21.691 57.581,21.433C57.62,21.363 57.945,20.631 58.021,20.737C58.153,20.925 57.96,21.256 57.87,21.427C57.777,21.598 57.696,21.767 57.614,21.938Z" fill="#8DBAFF"/>
<path d="M64.656,21.722C64.53,21.779 64.404,21.837 64.275,21.896C63.938,22.053 63.632,22.143 63.343,22.382C63.226,22.48 62.85,22.777 62.909,22.413C62.987,21.936 63.767,21.748 64.132,21.633C64.41,21.543 64.682,21.422 64.957,21.318C65.032,21.29 65.756,20.951 65.742,21.08C65.72,21.307 65.355,21.433 65.175,21.504C65.002,21.574 64.828,21.647 64.656,21.722Z" fill="#234FDB"/>
<path d="M34.685,39.274C34.09,39.263 33.504,39.395 32.954,39.622C32.704,39.726 32.037,40.006 32.143,40.374C32.194,40.556 32.365,40.59 32.511,40.668C32.769,40.809 33.021,40.921 33.285,41.039C33.712,41.232 34.203,41.527 34.694,41.381C34.89,41.322 35.064,41.193 35.257,41.131C35.429,41.075 35.645,41.087 35.827,41.084C36.436,41.078 37.067,41.067 37.603,40.744C38.057,40.469 37.648,40.133 37.336,39.953C36.548,39.504 35.574,39.291 34.685,39.274Z" fill="#B4349D"/>
<path d="M37.056,4.3C36.946,4.869 36.595,5.531 36.234,5.977C35.686,6.648 34.575,7.218 33.922,6.356C33.397,5.666 33.56,4.589 33.77,3.814C33.953,3.152 34.152,2.499 34.244,1.817C34.317,1.27 34.289,0.709 34.387,0.167C34.62,-1.146 35.636,-0.189 36.082,0.47C36.826,1.564 37.311,2.97 37.056,4.3Z" fill="url(#pf_0_363_709)"/>
<g opacity="0.4">
<path d="M36.842,4.253C36.747,4.595 36.59,4.923 36.416,5.232C36.121,5.756 35.857,6.163 35.265,6.376C34.861,6.522 34.446,6.374 34.126,6.107C33.229,5.355 33.916,4.062 34.191,3.181C34.267,2.94 34.362,2.524 34.55,2.348C34.601,2.538 34.707,3.374 34.934,3.419C35.265,3.484 35.249,2.609 35.277,2.421C35.35,2.474 35.445,2.687 35.54,2.667C35.678,2.639 35.655,2.286 35.655,2.193C35.661,1.952 35.669,1.714 35.633,1.475C35.599,1.259 35.54,1.046 35.557,0.824C35.807,0.858 35.961,1.607 36.045,1.823C36.13,2.042 36.205,2.258 36.273,2.482C36.315,2.614 36.326,2.822 36.407,2.926C36.421,2.867 36.461,2.586 36.531,2.578C36.609,2.566 36.632,2.799 36.66,2.855C36.699,2.816 36.73,2.743 36.775,2.701C36.881,2.979 36.918,3.24 36.932,3.537C36.943,3.781 36.907,4.023 36.842,4.253Z" fill="#FFFFFF"/>
</g>
<path d="M34.784,8.4C34.75,8.35 33.982,7.121 34.913,5.039L35.168,5.154C34.302,7.084 35.011,8.235 35.017,8.249L34.784,8.4Z" fill="#F5D1F7"/>
<path d="M37.604,40.272C37.604,40.637 36.788,40.828 35.228,40.797C34.998,40.791 34.313,41.262 34.064,41.114C33.087,40.53 32.296,40.634 32.296,40.272C32.296,39.22 32.291,38.168 32.293,37.119C32.296,34.588 32.274,32.055 32.291,29.524C32.31,26.511 32.232,23.492 32.288,20.479C32.333,17.99 32.148,15.468 32.291,12.991C32.333,12.27 32.364,11.462 32.305,10.755C32.181,9.315 34.266,7.242 35.761,8.14C36.578,8.631 37.414,9.307 37.571,10.289C37.672,10.923 37.568,11.88 37.59,12.531C37.675,14.91 37.635,17.314 37.607,19.696C37.543,25.274 37.61,30.854 37.604,36.431C37.599,37.711 37.604,38.993 37.604,40.272Z" fill="#FF7935"/>
<path d="M37.621,18.246C37.616,18.728 37.61,19.211 37.605,19.694C37.599,20.185 37.599,20.673 37.596,21.164C37.231,22.165 36.499,23.338 35.001,24.115C33.598,24.842 32.762,25.484 32.28,26.194C32.274,25.254 32.268,24.312 32.266,23.372C32.745,22.651 33.584,22.005 35.001,21.27C36.536,20.476 37.265,19.262 37.621,18.246ZM35.001,37.543C33.609,38.264 32.776,38.898 32.294,39.602C32.294,39.824 32.294,40.048 32.294,40.27C32.294,40.598 33.029,40.629 33.952,41.047C34.294,40.825 34.547,40.618 35.001,40.382C36.508,39.602 37.24,38.418 37.602,37.414C37.602,37.085 37.599,36.754 37.602,36.426C37.602,35.812 37.599,35.194 37.599,34.58C37.234,35.587 36.502,36.766 35.001,37.543ZM35.001,10.424C33.629,11.134 32.801,11.762 32.313,12.455C32.305,12.635 32.296,12.814 32.285,12.988C32.238,13.793 32.229,14.604 32.232,15.418C32.706,14.677 33.551,14.018 34.998,13.266C36.474,12.5 37.203,11.353 37.574,10.362C37.571,10.337 37.568,10.312 37.565,10.286C37.478,9.745 37.184,9.302 36.802,8.926C36.381,9.478 35.801,10.009 35.001,10.424ZM35.001,15.847C33.59,16.579 32.751,17.222 32.271,17.94C32.288,18.787 32.299,19.635 32.282,20.479C32.28,20.575 32.282,20.673 32.28,20.768C32.762,20.056 33.598,19.416 34.998,18.689C36.555,17.881 37.285,16.644 37.635,15.62C37.635,14.708 37.624,13.796 37.596,12.89C37.231,13.892 36.502,15.07 35.001,15.847ZM35.001,32.12C33.604,32.843 32.768,33.483 32.285,34.193C32.288,35.138 32.291,36.084 32.291,37.029C32.773,36.322 33.607,35.685 35.001,34.964C36.499,34.187 37.229,33.015 37.593,32.016C37.591,31.076 37.588,30.139 37.585,29.199C37.217,30.189 36.485,31.351 35.001,32.12ZM37.577,23.79C37.206,24.78 36.477,25.93 34.998,26.696C33.601,27.42 32.768,28.06 32.285,28.767C32.285,29.019 32.288,29.272 32.285,29.524C32.28,30.22 32.282,30.916 32.282,31.612C32.765,30.902 33.601,30.265 34.998,29.538C36.477,28.772 37.206,27.619 37.577,26.629C37.577,25.684 37.577,24.735 37.577,23.79Z" fill="#FFC635"/>
<g opacity="0.5">
<path d="M33.85,40.025C33.85,40.297 33.631,40.516 33.359,40.516C33.087,40.516 32.868,40.297 32.868,40.025L32.868,11.057C32.868,10.785 33.087,10.566 33.359,10.566C33.631,10.566 33.85,10.785 33.85,11.057L33.85,40.025Z" fill="#FFFFFF"/>
</g>
<g opacity="0.1">
<path d="M37.288,40.025C37.288,40.297 37.069,40.516 36.797,40.516C36.525,40.516 36.306,40.297 36.306,40.025L36.306,11.057C36.306,10.785 36.525,10.566 36.797,10.566C37.069,10.566 37.288,10.785 37.288,11.057L37.288,40.025Z" fill="url(#pf_0_363_717)"/>
</g>
<g opacity="0.5">
<path d="M35.343,9.473C35.228,9.49 35.119,9.515 35.02,9.549C35.559,9.176 35.856,8.71 35.705,8.401C35.52,8.023 34.729,8.028 33.94,8.415C33.152,8.803 32.664,9.425 32.849,9.804C33.031,10.177 33.797,10.177 34.571,9.81C34.501,9.888 34.462,9.97 34.473,10.054C34.507,10.301 34.953,10.447 35.469,10.374C35.985,10.304 36.375,10.043 36.339,9.796C36.302,9.546 35.856,9.403 35.343,9.473Z" fill="#FFFFFF"/>
</g>
<path d="M34.539,7.698C34.492,7.597 34.48,7.411 34.469,7.296C34.45,7.08 34.455,6.881 34.458,6.665C34.461,6.359 34.478,6.048 34.525,5.745C34.576,5.425 34.638,5.043 34.828,4.771C35.042,4.468 35.437,4.827 35.375,5.114C35.347,5.245 35.263,5.369 35.202,5.49C35.089,5.711 34.946,5.936 34.851,6.166C34.767,6.373 34.8,6.645 34.797,6.867C34.797,6.943 34.786,7.198 34.795,7.599C34.705,7.549 34.685,6.783 34.682,6.688C34.573,6.78 34.576,7.035 34.562,7.17C34.556,7.274 34.612,7.633 34.539,7.698Z" fill="#180A19"/>
<path d="M31.706,38.761C31.465,39.09 30.443,39.272 29.425,39.165C28.407,39.059 27.778,38.708 28.019,38.38C28.261,38.052 29.282,37.869 30.3,37.976C31.319,38.082 31.947,38.433 31.706,38.761Z" fill="#B4349D"/>
<path d="M31.525,38.648C31.283,38.923 30.646,39.147 29.418,39.04C28.5,38.962 28.029,38.69 28.105,38.333C28.135,38.185 28.234,37.983 28.368,37.828C28.741,37.402 30.512,37.84 31.328,37.924C31.328,37.924 31.564,38.274 31.581,38.505C31.583,38.552 31.567,38.6 31.525,38.648Z" fill="#1290DD"/>
<path d="M30.696,37.836C30.267,37.766 29.767,37.684 29.338,37.656C29.17,38.091 28.979,38.518 28.785,38.941C28.965,38.986 29.172,39.023 29.416,39.045C30.233,39.115 30.786,39.037 31.136,38.899C30.979,38.546 30.83,38.192 30.696,37.836Z" fill="#0A87C6"/>
<path d="M31.304,38.133C31.091,38.375 30.26,38.504 29.45,38.42C28.639,38.335 28.153,38.072 28.367,37.828C28.58,37.586 29.41,37.457 30.221,37.541C31.032,37.626 31.517,37.892 31.304,38.133Z" fill="#30C0FD"/>
<path d="M28.619,37.93C28.813,37.709 29.573,37.591 30.314,37.667C30.898,37.725 31.29,37.888 31.338,38.062C31.417,37.84 30.954,37.616 30.219,37.537C29.408,37.453 28.577,37.582 28.364,37.824C28.199,38.012 28.459,38.214 28.964,38.334C28.642,38.228 28.493,38.076 28.619,37.93Z" fill="#5FD6FF"/>
<path d="M45.827,40.233C45.661,40.44 44.991,40.536 44.329,40.44C43.666,40.348 43.265,40.104 43.431,39.893C43.596,39.686 44.267,39.59 44.929,39.686C45.591,39.781 45.995,40.025 45.827,40.233Z" fill="#B4349D"/>
<path d="M45.711,40.151C45.548,40.325 45.124,40.456 44.325,40.358C43.727,40.285 43.427,40.095 43.486,39.864C43.511,39.766 43.578,39.637 43.671,39.542C43.923,39.273 45.068,39.601 45.601,39.677C45.601,39.677 45.747,39.912 45.753,40.061C45.753,40.092 45.739,40.123 45.711,40.151Z" fill="#DD4B12"/>
<path d="M45.191,39.602C44.91,39.546 44.59,39.481 44.31,39.453C44.189,39.734 44.054,40.006 43.917,40.278C44.032,40.312 44.169,40.34 44.327,40.359C44.86,40.424 45.222,40.387 45.454,40.306C45.359,40.073 45.272,39.837 45.191,39.602Z" fill="#C63C0A"/>
<path d="M45.582,39.814C45.436,39.968 44.892,40.03 44.365,39.957C43.837,39.884 43.526,39.699 43.672,39.545C43.818,39.39 44.362,39.329 44.889,39.402C45.417,39.475 45.725,39.66 45.582,39.814Z" fill="#FD6330"/>
<path d="M43.834,39.614C43.966,39.473 44.466,39.415 44.945,39.482C45.324,39.535 45.577,39.65 45.605,39.765C45.661,39.622 45.366,39.465 44.886,39.398C44.359,39.325 43.815,39.386 43.669,39.541C43.557,39.661 43.722,39.799 44.048,39.889C43.843,39.81 43.747,39.706 43.834,39.614Z" fill="#FF845F"/>
<path d="M33.648,42.572C33.524,42.729 33.022,42.797 32.528,42.729C32.035,42.659 31.734,42.477 31.858,42.32C31.981,42.163 32.483,42.095 32.977,42.163C33.474,42.233 33.774,42.415 33.648,42.572Z" fill="#B4349D"/>
<path d="M33.561,42.513C33.438,42.642 33.124,42.74 32.526,42.667C32.08,42.611 31.856,42.471 31.898,42.3C31.917,42.227 31.968,42.132 32.035,42.059C32.226,41.857 33.079,42.104 33.477,42.16C33.477,42.16 33.587,42.336 33.589,42.446C33.592,42.468 33.584,42.491 33.561,42.513Z" fill="#DD1292"/>
<path d="M33.173,42.101C32.965,42.058 32.724,42.011 32.513,41.988C32.424,42.196 32.323,42.401 32.219,42.606C32.306,42.631 32.407,42.653 32.525,42.667C32.923,42.718 33.192,42.69 33.366,42.628C33.296,42.454 33.232,42.277 33.173,42.101Z" fill="#C60A87"/>
<path d="M33.466,42.258C33.356,42.373 32.95,42.421 32.557,42.365C32.161,42.308 31.931,42.171 32.038,42.056C32.147,41.941 32.554,41.893 32.947,41.949C33.342,42.005 33.572,42.143 33.466,42.258Z" fill="#FD30C1"/>
<path d="M32.159,42.113C32.257,42.009 32.63,41.964 32.989,42.015C33.273,42.054 33.461,42.141 33.483,42.228C33.525,42.122 33.303,42.004 32.947,41.953C32.552,41.897 32.145,41.945 32.038,42.06C31.954,42.15 32.077,42.251 32.321,42.321C32.164,42.259 32.094,42.18 32.159,42.113Z" fill="#FF5FD7"/>
<path d="M20.048,40.562C19.897,40.781 19.235,40.921 18.567,40.874C17.899,40.826 17.484,40.61 17.633,40.391C17.784,40.172 18.446,40.032 19.114,40.08C19.782,40.127 20.2,40.343 20.048,40.562Z" fill="#B4349D"/>
<path d="M19.928,40.491C19.776,40.676 19.364,40.836 18.558,40.791C17.958,40.757 17.647,40.589 17.686,40.356C17.703,40.258 17.762,40.123 17.849,40.022C18.084,39.736 19.249,39.986 19.782,40.025C19.782,40.025 19.942,40.25 19.958,40.398C19.964,40.426 19.953,40.46 19.928,40.491Z" fill="#12DD7D"/>
<path d="M19.37,39.976C19.086,39.94 18.761,39.895 18.48,39.887C18.379,40.173 18.264,40.456 18.146,40.737C18.264,40.762 18.402,40.782 18.562,40.79C19.098,40.818 19.454,40.756 19.681,40.658C19.569,40.434 19.465,40.207 19.37,39.976Z" fill="#0AC666"/>
<path d="M19.773,40.162C19.639,40.325 19.1,40.426 18.57,40.387C18.04,40.347 17.717,40.185 17.849,40.022C17.981,39.859 18.522,39.758 19.052,39.798C19.585,39.837 19.908,40 19.773,40.162Z" fill="#30FD8B"/>
<path d="M18.018,40.083C18.141,39.934 18.632,39.841 19.117,39.875C19.499,39.903 19.76,40.001 19.794,40.113C19.841,39.968 19.535,39.83 19.053,39.794C18.523,39.754 17.981,39.855 17.849,40.018C17.745,40.144 17.919,40.271 18.253,40.338C18.04,40.279 17.939,40.181 18.018,40.083Z" fill="#5FFF9F"/>
<path d="M42.317,38.651C42.165,38.87 41.503,39.01 40.836,38.962C40.168,38.915 39.753,38.699 39.901,38.477C40.053,38.258 40.715,38.118 41.383,38.166C42.05,38.216 42.468,38.432 42.317,38.651Z" fill="#B4349D"/>
<path d="M42.197,38.585C42.045,38.77 41.633,38.93 40.828,38.885C40.227,38.851 39.916,38.683 39.958,38.45C39.975,38.352 40.034,38.217 40.121,38.116C40.356,37.83 41.521,38.08 42.054,38.119C42.054,38.119 42.216,38.343 42.23,38.492C42.233,38.52 42.222,38.551 42.197,38.585Z" fill="#1297DD"/>
<path d="M41.638,38.07C41.355,38.034 41.029,37.989 40.749,37.98C40.648,38.267 40.533,38.55 40.415,38.831C40.533,38.856 40.67,38.875 40.83,38.884C41.366,38.912 41.725,38.85 41.95,38.752C41.837,38.528 41.734,38.297 41.638,38.07Z" fill="#0A8CC6"/>
<path d="M42.042,38.252C41.907,38.415 41.369,38.516 40.838,38.477C40.308,38.437 39.986,38.275 40.117,38.112C40.249,37.949 40.791,37.848 41.321,37.887C41.854,37.927 42.177,38.089 42.042,38.252Z" fill="#30C8FD"/>
<path d="M40.286,38.172C40.41,38.024 40.901,37.931 41.386,37.965C41.767,37.993 42.028,38.091 42.062,38.203C42.11,38.057 41.804,37.92 41.321,37.883C40.791,37.844 40.25,37.945 40.118,38.108C40.014,38.234 40.188,38.36 40.522,38.428C40.309,38.366 40.208,38.271 40.286,38.172Z" fill="#5FDCFF"/>
<path d="M53.83,40.693C53.693,40.845 53.174,40.881 52.672,40.772C52.169,40.665 51.875,40.455 52.012,40.306C52.15,40.154 52.669,40.118 53.171,40.227C53.673,40.334 53.968,40.544 53.83,40.693Z" fill="#B4349D"/>
<path d="M53.743,40.624C53.609,40.748 53.278,40.826 52.672,40.708C52.217,40.619 51.998,40.459 52.055,40.285C52.08,40.212 52.139,40.116 52.212,40.046C52.419,39.853 53.281,40.167 53.682,40.251C53.682,40.251 53.78,40.439 53.777,40.554C53.78,40.579 53.769,40.602 53.743,40.624Z" fill="#C054DD"/>
<path d="M53.375,40.174C53.165,40.118 52.921,40.048 52.707,40.012C52.601,40.219 52.483,40.421 52.362,40.623C52.449,40.657 52.55,40.685 52.671,40.708C53.075,40.786 53.353,40.778 53.538,40.727C53.479,40.545 53.423,40.36 53.375,40.174Z" fill="#A645C6"/>
<path d="M53.663,40.359C53.545,40.468 53.124,40.488 52.723,40.404C52.322,40.32 52.094,40.16 52.215,40.05C52.336,39.941 52.754,39.921 53.155,40.005C53.556,40.092 53.783,40.249 53.663,40.359Z" fill="#D77BFD"/>
<path d="M52.335,40.116C52.445,40.015 52.829,39.998 53.194,40.077C53.48,40.138 53.668,40.239 53.685,40.329C53.735,40.222 53.517,40.085 53.155,40.009C52.753,39.925 52.333,39.945 52.215,40.054C52.122,40.138 52.243,40.253 52.487,40.34C52.333,40.267 52.265,40.18 52.335,40.116Z" fill="#E3ABFF"/>
<path d="M43.238,42.783C43.117,42.948 42.607,43.041 42.096,42.988C41.586,42.937 41.271,42.76 41.392,42.595C41.513,42.429 42.023,42.337 42.534,42.39C43.044,42.443 43.359,42.62 43.238,42.783Z" fill="#B4349D"/>
<path d="M43.145,42.723C43.024,42.861 42.704,42.976 42.087,42.925C41.627,42.886 41.391,42.751 41.428,42.572C41.444,42.496 41.492,42.395 41.559,42.319C41.745,42.106 42.634,42.322 43.044,42.364C43.044,42.364 43.161,42.541 43.173,42.653C43.175,42.675 43.167,42.701 43.145,42.723Z" fill="#C054DD"/>
<path d="M42.73,42.317C42.514,42.284 42.264,42.242 42.048,42.23C41.964,42.449 41.869,42.663 41.773,42.876C41.863,42.898 41.967,42.915 42.09,42.926C42.5,42.96 42.778,42.921 42.952,42.851C42.873,42.674 42.797,42.497 42.73,42.317Z" fill="#A645C6"/>
<path d="M43.036,42.467C42.929,42.588 42.514,42.655 42.107,42.613C41.701,42.571 41.456,42.439 41.563,42.319C41.67,42.198 42.085,42.131 42.492,42.173C42.899,42.215 43.143,42.347 43.036,42.467Z" fill="#D77BFD"/>
<path d="M41.69,42.368C41.788,42.256 42.167,42.197 42.54,42.233C42.832,42.261 43.028,42.343 43.053,42.43C43.092,42.318 42.86,42.205 42.492,42.169C42.085,42.127 41.67,42.194 41.563,42.315C41.479,42.41 41.611,42.511 41.866,42.57C41.701,42.52 41.628,42.444 41.69,42.368Z" fill="#E3ABFF"/>
<path d="M24.616,38.437C24.464,38.67 23.777,38.83 23.081,38.793C22.385,38.76 21.948,38.541 22.099,38.311C22.251,38.078 22.938,37.918 23.634,37.954C24.327,37.991 24.767,38.207 24.616,38.437Z" fill="#B4349D"/>
<path d="M24.487,38.373C24.333,38.567 23.909,38.744 23.071,38.716C22.445,38.696 22.117,38.528 22.153,38.281C22.17,38.177 22.229,38.037 22.313,37.927C22.552,37.624 23.769,37.857 24.325,37.885C24.325,37.885 24.499,38.115 24.518,38.27C24.524,38.306 24.513,38.34 24.487,38.373Z" fill="#DDB41F"/>
<path d="M23.894,37.846C23.6,37.816 23.26,37.776 22.966,37.773C22.868,38.074 22.753,38.371 22.635,38.666C22.758,38.691 22.901,38.708 23.067,38.713C23.625,38.733 23.995,38.66 24.231,38.551C24.113,38.318 24.001,38.082 23.894,37.846Z" fill="#C69E15"/>
<path d="M24.322,38.019C24.187,38.193 23.629,38.314 23.076,38.291C22.52,38.269 22.181,38.109 22.316,37.935C22.45,37.761 23.009,37.64 23.561,37.663C24.114,37.688 24.456,37.848 24.322,38.019Z" fill="#FDD03F"/>
<path d="M22.489,37.988C22.612,37.831 23.123,37.724 23.631,37.75C24.029,37.769 24.301,37.865 24.341,37.982C24.386,37.828 24.066,37.693 23.561,37.668C23.008,37.64 22.447,37.758 22.312,37.929C22.206,38.064 22.391,38.19 22.739,38.255C22.517,38.187 22.408,38.089 22.489,37.988Z" fill="#FFDB6E"/>
<path d="M22.5,42.806C22.366,42.989 21.793,43.09 21.227,43.028C20.657,42.966 20.306,42.77 20.444,42.587C20.579,42.405 21.151,42.304 21.718,42.366C22.287,42.425 22.638,42.621 22.5,42.806Z" fill="#B4349D"/>
<path d="M22.398,42.741C22.264,42.892 21.907,43.019 21.22,42.957C20.707,42.912 20.446,42.758 20.488,42.559C20.505,42.474 20.561,42.362 20.636,42.278C20.844,42.039 21.834,42.286 22.289,42.337C22.289,42.337 22.421,42.533 22.429,42.662C22.432,42.688 22.421,42.716 22.398,42.741Z" fill="#DDB41F"/>
<path d="M21.939,42.285C21.698,42.245 21.42,42.198 21.182,42.184C21.086,42.425 20.98,42.663 20.87,42.902C20.971,42.927 21.086,42.947 21.224,42.961C21.681,43.003 21.99,42.958 22.186,42.882C22.096,42.683 22.012,42.487 21.939,42.285Z" fill="#C69E15"/>
<path d="M22.278,42.447C22.16,42.584 21.698,42.657 21.243,42.612C20.789,42.568 20.516,42.422 20.637,42.284C20.755,42.147 21.218,42.074 21.672,42.119C22.124,42.164 22.396,42.312 22.278,42.447Z" fill="#FDD03F"/>
<path d="M20.777,42.338C20.887,42.214 21.31,42.15 21.726,42.194C22.051,42.228 22.27,42.321 22.298,42.419C22.343,42.295 22.085,42.169 21.672,42.124C21.218,42.077 20.755,42.147 20.634,42.281C20.542,42.388 20.688,42.5 20.968,42.568C20.791,42.503 20.707,42.416 20.777,42.338Z" fill="#FFDB6E"/>
<path d="M24.537,39.898C24.542,39.965 24.382,40.036 24.177,40.055C23.973,40.075 23.799,40.038 23.793,39.971C23.788,39.904 23.947,39.834 24.152,39.814C24.357,39.794 24.531,39.831 24.537,39.898Z" fill="#B4349D"/>
<path d="M24.407,39.886C24.41,39.939 24.326,39.987 24.214,39.998C24.104,40.007 24.009,39.97 24.006,39.92L22.006,15.957C22.003,15.904 22.087,15.856 22.2,15.845C22.309,15.837 22.404,15.873 22.407,15.924L24.407,39.886Z" fill="#2C8CFF"/>
<path d="M24.223,39.833C24.226,39.87 24.198,39.901 24.161,39.903C24.125,39.906 24.094,39.878 24.091,39.842L22.175,16.965C22.172,16.928 22.2,16.898 22.237,16.895C22.273,16.892 22.304,16.92 22.307,16.956L24.223,39.833Z" fill="#92C8FC"/>
<path d="M22.41,10.4L23.409,12.08L25.358,12.209C26.147,12.263 26.363,12.784 25.841,13.379L24.553,14.849L25.033,16.743C25.227,17.509 24.795,17.877 24.071,17.565L22.275,16.794L20.62,17.835C19.952,18.255 19.47,17.958 19.54,17.172L19.719,15.225L18.218,13.974C17.612,13.469 17.744,12.916 18.516,12.742L20.423,12.31L21.15,10.495C21.442,9.766 22.009,9.721 22.41,10.4Z" fill="#FFC635"/>
<g opacity="0.5">
<path d="M21.79,15.6C21.44,15.9 21.1,16.237 20.814,16.593C20.671,16.77 20.584,17.064 20.332,17.12C20.029,17.188 20.057,16.725 20.065,16.531C20.082,16.141 20.219,15.746 20.158,15.353C20.087,14.896 19.756,14.783 19.42,14.548C19.223,14.41 19.063,14.264 18.884,14.113C18.73,13.987 18.359,13.863 18.337,13.627C18.311,13.375 18.884,13.308 19.052,13.28C19.408,13.218 19.762,13.117 20.115,13.049C20.346,13.005 20.744,13.01 20.907,12.836C21.081,12.648 21.238,12.27 21.339,12.034C21.476,11.714 21.527,11.347 21.614,11.01C21.701,10.668 21.804,10.488 22.065,10.839C22.309,11.17 22.489,11.554 22.657,11.927C22.848,12.348 23.092,12.679 23.578,12.674C23.853,12.671 24.119,12.721 24.391,12.749C24.593,12.772 24.947,12.744 25.118,12.873C25.365,13.058 24.949,13.254 24.792,13.327C24.453,13.487 24.125,13.667 23.805,13.857C23.62,13.967 23.42,14.054 23.255,14.191C23.109,14.312 23.045,14.48 22.915,14.618C22.621,14.94 22.267,15.204 21.928,15.479C21.88,15.521 21.835,15.56 21.79,15.6Z" fill="#FFD78D"/>
</g>
<path d="M20.82,12.68C20.685,12.784 20.511,12.837 20.298,12.848C19.555,12.89 18.89,13.165 18.16,13.286C18.157,13.104 18.43,13.036 18.578,13.003C19.128,12.879 19.675,12.73 20.228,12.624C20.682,12.537 20.73,12.245 20.887,11.869C21.03,11.527 21.168,11.179 21.305,10.834C21.336,10.755 21.37,10.674 21.401,10.595C21.46,10.447 21.572,10.205 21.757,10.191C21.723,10.329 21.619,10.483 21.566,10.623C21.504,10.783 21.454,10.943 21.392,11.103C21.246,11.476 21.187,11.841 21.092,12.225C21.036,12.433 20.946,12.582 20.82,12.68Z" fill="#FFD78D"/>
<path d="M22.273,16.391C22.441,16.388 22.612,16.452 22.792,16.573C23.409,16.988 24.108,17.171 24.761,17.516C24.652,17.664 24.397,17.552 24.256,17.488C23.743,17.255 23.215,17.042 22.713,16.795C22.298,16.59 22.085,16.795 21.731,17C21.409,17.187 21.092,17.378 20.775,17.575C20.702,17.62 20.629,17.662 20.556,17.707C20.418,17.791 20.185,17.914 20.028,17.813C20.138,17.723 20.314,17.664 20.444,17.583C20.587,17.493 20.727,17.395 20.873,17.305C21.212,17.095 21.482,16.84 21.79,16.59C21.95,16.458 22.11,16.394 22.273,16.391Z" fill="#FFA536"/>
<path d="M24.458,12.497C24.573,12.508 24.688,12.519 24.803,12.533C25.109,12.567 25.372,12.556 25.661,12.668C25.782,12.713 26.152,12.847 26.009,12.578C25.821,12.225 25.159,12.283 24.845,12.289C24.604,12.292 24.357,12.269 24.115,12.261C24.048,12.258 23.391,12.182 23.434,12.281C23.512,12.452 23.829,12.457 23.989,12.463C24.149,12.471 24.303,12.483 24.458,12.497Z" fill="#FFD78D"/>
<path d="M19.945,16.121C19.939,16.236 19.934,16.351 19.928,16.466C19.914,16.774 19.864,17.032 19.931,17.335C19.959,17.462 20.035,17.849 19.788,17.666C19.468,17.428 19.625,16.783 19.679,16.471C19.718,16.233 19.732,15.986 19.763,15.745C19.771,15.677 19.796,15.015 19.886,15.074C20.046,15.178 19.998,15.492 19.984,15.652C19.965,15.812 19.953,15.966 19.945,16.121Z" fill="#FFD78D"/>
<path d="M25.291,13.785C25.209,13.867 25.131,13.951 25.052,14.035C24.842,14.259 24.634,14.422 24.485,14.694C24.424,14.807 24.227,15.152 24.163,14.851C24.076,14.461 24.617,14.074 24.861,13.875C25.046,13.721 25.22,13.544 25.4,13.378C25.45,13.334 25.902,12.848 25.93,12.952C25.984,13.134 25.742,13.342 25.627,13.451C25.509,13.564 25.4,13.673 25.291,13.785Z" fill="#FFA536"/>
<defs>
<radialGradient id="pf_0_363_399" cx="0" cy="0" r="1" gradientUnits="userSpaceOnUse" gradientTransform="matrix(15.343763 0 0 4.162487 17.04 39.121)">
<stop offset="0.356" stop-color="#000000"/>
<stop offset="0.426" stop-color="#050505"/>
<stop offset="0.506" stop-color="#121212"/>
<stop offset="0.59" stop-color="#292929"/>
<stop offset="0.678" stop-color="#494949"/>
<stop offset="0.768" stop-color="#727272"/>
<stop offset="0.861" stop-color="#A5A5A5"/>
<stop offset="0.954" stop-color="#DFDFDF"/>
<stop offset="1" stop-color="#FFFFFF"/>
</radialGradient>
<radialGradient id="pf_0_363_402" cx="0" cy="0" r="1" gradientUnits="userSpaceOnUse" gradientTransform="matrix(32.052286 0 0 32.052286 4.712 32.463)">
<stop stop-color="#D4B18E"/>
<stop offset="0.996" stop-color="#D7A763"/>
</radialGradient>
<linearGradient id="pf_0_363_403" x1="19.258" y1="64.973" x2="51.99" y2="68.131" gradientUnits="userSpaceOnUse">
<stop stop-color="#8E5D3F"/>
<stop offset="1" stop-color="#552F1C"/>
</linearGradient>
<linearGradient id="pf_0_363_404" x1="3.614" y1="63.154" x2="72.707" y2="63.154" gradientUnits="userSpaceOnUse">
<stop stop-color="#FFF5FE"/>
<stop offset="1" stop-color="#FDCCFC"/>
</linearGradient>
<linearGradient id="pf_0_363_405" x1="20.789" y1="75.154" x2="49.07" y2="78.025" gradientUnits="userSpaceOnUse">
<stop stop-color="#8E5D3F"/>
<stop offset="1" stop-color="#552F1C"/>
</linearGradient>
<linearGradient id="pf_0_363_406" x1="5.421" y1="74.058" x2="63.412" y2="74.058" gradientUnits="userSpaceOnUse">
<stop stop-color="#FFF5FE"/>
<stop offset="1" stop-color="#FDCCFC"/>
</linearGradient>
<linearGradient id="pf_0_363_413" x1="3.386" y1="47.276" x2="62.843" y2="67.986" gradientUnits="userSpaceOnUse">
<stop stop-color="#3D150B"/>
<stop offset="1" stop-color="#340D07"/>
</linearGradient>
<linearGradient id="pf_0_363_414" x1="33.9" y1="52.121" x2="39.888" y2="52.121" gradientUnits="userSpaceOnUse">
<stop offset="0.104" stop-color="#DD76CF"/>
<stop offset="0.996" stop-color="#CA51BA"/>
</linearGradient>
<linearGradient id="pf_0_363_415" x1="6.832" y1="58.921" x2="63.883" y2="58.921" gradientUnits="userSpaceOnUse">
<stop offset="0.213" stop-color="#C657B8"/>
<stop offset="0.301" stop-color="#B4349D"/>
</linearGradient>
<radialGradient id="pf_0_363_416" cx="0" cy="0" r="1" gradientUnits="userSpaceOnUse" gradientTransform="matrix(77.709665 0 0 77.709656 -33.654 -29.196)">
<stop offset="0.746" stop-color="#F6D4F8"/>
<stop offset="0.835" stop-color="#F5D2F7"/>
<stop offset="0.883" stop-color="#F4CAF4"/>
<stop offset="0.921" stop-color="#F1BCEE"/>
<stop offset="0.954" stop-color="#ECA9E5"/>
<stop offset="0.983" stop-color="#E790DB"/>
<stop offset="1" stop-color="#E37ED3"/>
</radialGradient>
<radialGradient id="pf_0_363_417" cx="0" cy="0" r="1" gradientUnits="userSpaceOnUse" gradientTransform="matrix(68.759159 0 0 65.564346 15.831 -40.353)">
<stop offset="0.87" stop-color="#F8ABEF"/>
<stop offset="0.907" stop-color="#F6A6EC"/>
<stop offset="0.949" stop-color="#F099E4"/>
<stop offset="0.992" stop-color="#E583D6"/>
<stop offset="1" stop-color="#E37ED3"/>
</radialGradient>
<radialGradient id="pf_0_363_418" cx="0" cy="0" r="1" gradientUnits="userSpaceOnUse" gradientTransform="matrix(4.822612 0 0 4.82261 29.835 27.439)">
<stop offset="0.536" stop-color="#CA51BA"/>
<stop offset="0.683" stop-color="#CD57BE"/>
<stop offset="0.885" stop-color="#D669C8"/>
<stop offset="1" stop-color="#DD76CF"/>
</radialGradient>
<radialGradient id="pf_0_363_419" cx="0" cy="0" r="1" gradientUnits="userSpaceOnUse" gradientTransform="matrix(3.805014 0 0 3.805014 25.887 27.583)">
<stop offset="0.647" stop-color="#CA51BA"/>
<stop offset="0.759" stop-color="#CD57BE"/>
<stop offset="0.913" stop-color="#D669C8"/>
<stop offset="1" stop-color="#DD76CF"/>
</radialGradient>
<radialGradient id="pf_0_363_420" cx="0" cy="0" r="1" gradientUnits="userSpaceOnUse" gradientTransform="matrix(4.742343 0 0 4.742342 7.009 27.153)">
<stop offset="0.536" stop-color="#DD76CF"/>
<stop offset="0.653" stop-color="#E07CD3"/>
<stop offset="0.813" stop-color="#E98EDD"/>
<stop offset="0.998" stop-color="#F8ABEF"/>
<stop offset="1" stop-color="#F8ABEF"/>
</radialGradient>
<radialGradient id="pf_0_363_421" cx="0" cy="0" r="1" gradientUnits="userSpaceOnUse" gradientTransform="matrix(6.349548 0 0 6.349547 15.12 26.937)">
<stop offset="0.536" stop-color="#DD76CF"/>
<stop offset="0.653" stop-color="#E07CD3"/>
<stop offset="0.813" stop-color="#E98EDD"/>
<stop offset="0.998" stop-color="#F8ABEF"/>
<stop offset="1" stop-color="#F8ABEF"/>
</radialGradient>
<radialGradient id="pf_0_363_422" cx="0" cy="0" r="1" gradientUnits="userSpaceOnUse" gradientTransform="matrix(5.478331 0 0 5.478331 9.162 22.342)">
<stop offset="0.717" stop-color="#DD76CF"/>
<stop offset="0.788" stop-color="#E07CD3"/>
<stop offset="0.886" stop-color="#E98EDD"/>
<stop offset="0.999" stop-color="#F8ABEF"/>
<stop offset="1" stop-color="#F8ABEF"/>
</radialGradient>
<linearGradient id="pf_0_363_697" x1="55.423" y1="31.989" x2="59.076" y2="32.512" gradientUnits="userSpaceOnUse">
<stop offset="0.213" stop-color="#57C6B5"/>
<stop offset="0.301" stop-color="#34B4A7"/>
</linearGradient>
<radialGradient id="pf_0_363_709" cx="0" cy="0" r="1" gradientUnits="userSpaceOnUse" gradientTransform="matrix(3.086136 0 0 3.086139 17.487 2.795)">
<stop offset="0.209" stop-color="#FFC635"/>
<stop offset="0.546" stop-color="#FF7935"/>
</radialGradient>
<linearGradient id="pf_0_363_717" x1="36.306" y1="25.541" x2="37.288" y2="25.541" gradientUnits="userSpaceOnUse">
<stop stop-color="#3D150B"/>
<stop offset="1" stop-color="#340D07"/>
</linearGradient>
</defs>
</svg>
