<svg width="70" height="88" viewBox="0 0 70 88" fill="none" xmlns="http://www.w3.org/2000/svg" xmlns:xlink="http://www.w3.org/1999/xlink">
<path d="M34.078,86.564C51.026,86.564 64.765,82.837 64.765,78.24C64.765,73.643 51.026,69.916 34.078,69.916C17.13,69.916 3.391,73.643 3.391,78.24C3.391,82.837 17.13,86.564 34.078,86.564Z" fill="url(#pf_0_338_338)"/>
<path d="M61.298,77.872C60.72,81.042 48.058,84.631 33.868,84.631C19.677,84.631 8.031,81.04 7.456,77.872C7.307,77.05 1.606,53.082 1.831,48.874C2.858,43.451 20.698,46.262 33.769,46.262C47.332,46.262 65.767,42.053 66.915,49.14C67.394,52.089 61.432,77.143 61.298,77.872Z" fill="url(#pf_0_338_341)"/>
<path d="M33.807,72.08C35.406,72.01 37.005,71.928 38.618,71.934C40.495,71.939 42.406,71.976 44.28,71.589C45.601,71.317 46.962,70.772 48.295,70.61C49.229,70.497 50.203,70.612 51.134,70.388C51.72,70.245 52.2,69.995 52.801,69.928C54.534,69.731 56.232,69.28 57.968,68.859C59.643,68.452 61.871,67.768 63.364,66.519C63.894,66.076 64.014,65.812 64.214,65.167C64.273,64.976 64.601,62.922 64.629,62.911C59.166,65.175 48.472,67.058 33.79,67.058C19.226,67.058 7.288,66.146 3.961,62.535C4.216,62.81 4.477,64.875 4.688,65.299C5.016,65.955 5.754,66.325 6.343,66.718C8.119,67.905 10.024,68.62 11.929,69.081C13.295,69.412 14.577,69.984 15.901,70.447C17.304,70.935 18.651,70.988 20.062,71.103C21.431,71.216 22.744,71.594 24.094,71.838C25.491,72.091 26.897,72.071 28.294,72.139C30.148,72.226 31.978,72.161 33.807,72.08Z" fill="url(#pf_0_338_342)"/>
<path d="M33.792,69.45C36.729,69.473 39.658,69.815 42.599,69.579C45.157,69.375 47.775,68.698 50.334,68.005C51.689,67.638 53.077,67.77 54.43,67.43C56.323,66.956 58.245,66.53 60.136,65.8C61.093,65.433 64.23,64.173 64.631,62.916C65.369,60.587 65.571,59.014 65.826,57.016C64.701,58.242 63.553,58.542 62.311,59.266C60.981,60.04 59.959,61.106 58.523,61.567C55.154,62.647 51.512,63.298 48.176,63.704C46.072,63.96 43.996,64.198 41.925,64.392C40.517,64.524 39.198,64.914 37.798,65.079C37.049,65.169 36.314,64.931 35.571,64.902C33.152,64.807 30.748,64.863 28.324,64.729C26.301,64.619 24.331,64.044 22.3,63.845C20.653,63.685 19.048,62.795 17.432,62.756C16.33,62.731 15.196,62.891 14.083,62.585C12.887,62.257 11.852,61.502 10.713,60.893C9.509,60.248 8.283,60.063 7.049,59.737C6.527,59.6 2.933,57.42 2.902,56.648C2.972,58.422 3.194,61.892 4.51,63.351C5.739,64.712 7.624,65.147 9.08,65.761C10.929,66.538 12.691,67.175 14.548,67.716C16.86,68.39 18.953,68.494 21.256,68.645C24.093,68.83 26.868,69.425 29.699,69.428C31.07,69.425 32.434,69.442 33.792,69.45Z" fill="url(#pf_0_338_343)"/>
<path d="M33.884,81.705C35.374,81.643 36.866,81.573 38.367,81.579C40.115,81.584 41.897,81.615 43.642,81.279C44.873,81.04 46.136,80.563 47.379,80.423C48.249,80.325 49.155,80.426 50.022,80.229C50.566,80.106 51.012,79.887 51.57,79.825C53.184,79.654 54.76,79.259 56.371,78.891C57.925,78.538 59.99,77.94 61.365,76.851C61.407,76.818 62.077,75.056 61.937,75.499C61.884,75.665 62.386,73.434 62.411,73.426C57.353,75.401 47.519,77.323 33.867,77.323C20.322,77.323 9.565,77.09 6.535,73.976C6.765,74.214 6.633,75.423 6.824,75.791C7.122,76.363 7.803,76.683 8.348,77.028C9.986,78.061 11.751,78.686 13.521,79.087C14.789,79.376 15.979,79.879 17.208,80.28C18.509,80.706 19.763,80.754 21.079,80.855C22.353,80.953 23.576,81.284 24.833,81.497C26.135,81.719 27.445,81.702 28.747,81.761C30.472,81.834 32.178,81.775 33.884,81.705Z" fill="url(#pf_0_338_344)"/>
<path d="M33.87,79.404C36.605,79.423 39.332,79.721 42.07,79.516C44.452,79.336 46.885,78.747 49.261,78.141C50.521,77.821 51.811,77.936 53.068,77.639C54.824,77.227 56.609,76.853 58.359,76.219C59.243,75.9 62.06,74.519 62.416,73.422C63.073,71.394 63.202,70.258 63.412,68.529C62.385,69.59 61.451,69.921 60.307,70.549C59.081,71.22 58.143,72.143 56.816,72.541C53.697,73.478 50.322,74.045 47.227,74.396C45.274,74.617 43.347,74.825 41.425,74.993C40.118,75.108 38.892,75.448 37.593,75.591C36.897,75.667 36.212,75.462 35.522,75.437C33.275,75.355 31.042,75.403 28.791,75.285C26.912,75.19 25.085,74.69 23.2,74.516C21.671,74.376 20.187,73.605 18.689,73.571C17.665,73.548 16.612,73.689 15.58,73.422C14.475,73.139 13.521,72.482 12.469,71.955C11.358,71.397 10.224,71.234 9.082,70.953C8.6,70.835 5.441,69.382 5.424,68.723C5.463,70.246 5.48,72.822 6.686,74.09C7.811,75.274 9.559,75.653 10.906,76.186C12.617,76.862 14.25,77.417 15.973,77.889C18.116,78.478 20.066,78.568 22.207,78.7C24.847,78.859 27.428,79.378 30.06,79.381C31.336,79.384 32.604,79.395 33.87,79.404Z" fill="url(#pf_0_338_345)"/>
<g opacity="0.2">
<g opacity="0.2">
<path d="M64.078,62.859C64.289,62.895 64.732,62.64 64.797,62.37C65.22,60.597 65.661,56.462 65.972,55.034C66.183,54.074 66.404,53.106 66.587,52.124C66.671,51.678 67.26,49.518 66.993,49.229C66.769,48.985 66.396,48.951 66.143,48.721C65.268,47.933 63.45,47.779 62.241,47.405C57.191,45.851 51.933,45.461 46.44,44.948C45.433,44.852 44.428,44.777 43.421,44.715C40.223,44.906 37.019,45.071 34.025,45.071C30.905,45.071 27.533,44.942 24.183,44.807C21.01,45.012 17.856,45.304 14.723,45.672C12.391,45.946 10.234,46.457 8.09,47.128C6.808,47.529 3.523,48.098 2.849,49.063C2.611,49.406 2.485,49.807 2.426,50.242C2.681,52.315 4.46,64.093 4.917,65.897C5.111,66.654 5.142,67.58 5.467,68.296C5.818,69.067 6.457,68.899 6.659,68.268C6.906,67.502 6.701,66.135 6.564,65.283C6.494,64.853 4.609,52.991 5.29,52.865C5.778,52.775 6.415,54.638 6.957,54.922C7.835,55.382 8.256,55.275 9.128,55.817C10.781,56.841 11.109,68.169 14.737,66.596C15.716,66.169 15.977,64.744 16.173,63.731C16.322,62.957 16.274,56.305 17.318,56.625C17.938,56.815 17.935,57.416 18.451,57.761C20.213,58.931 21.86,57.261 22.758,55.912C23.128,55.354 23.406,54.596 24.158,54.59C25.662,54.579 26.355,56.212 27.017,57.365C27.825,58.771 28.131,62.954 28.217,64.461C28.302,65.945 28.476,67.777 29.713,68.745C30.787,69.586 32.914,69.867 33.837,68.691C34.999,67.207 34.376,64.598 34.39,62.777C34.395,62.039 34.235,61.142 35.052,60.774C35.767,60.451 36.435,60.996 36.746,61.649C36.982,62.146 37.013,62.774 37.611,62.929C39.594,63.445 39.793,56.773 42.248,58.659C43.101,59.312 43.519,59.669 44.568,58.992C45.433,58.434 46.342,54.731 47.396,54.526C50.331,53.951 48.564,64.876 51.032,65.027C52.186,65.1 53.322,63.145 54.102,64.424C54.694,65.395 55.078,66.604 55.785,67.507C56.464,68.377 57.44,68.697 58.436,68.352C60.369,67.678 60.65,65.047 60.501,63.484C60.423,62.651 60.605,60.774 60.804,59.887C61.149,58.333 61.823,54.969 62.488,55.337C63.453,55.87 63.949,54.84 64.424,54.038C65.015,53.042 65.302,53.847 65.083,54.68C64.805,55.738 63.907,59.803 63.694,60.869C63.585,61.405 63.301,62.724 64.078,62.859Z" fill="url(#pf_0_338_352)"/>
</g>
</g>
<path d="M69.429,42.334C70.562,44.315 69.866,47.216 68.59,50.235C68.138,51.999 65.776,57.215 66.006,58.842C66.09,59.44 66.547,60.388 66.056,61.014C65.635,61.55 64.928,61.491 64.589,61.056C63.806,60.054 66.682,51.306 65.083,51.276C64.263,51.261 64.331,52.294 64.191,52.827C64.053,53.354 63.831,54.345 63.119,54.364C62.387,54.387 62.583,53.486 62.445,52.936C61.845,50.549 60.549,58.747 60.383,59.847C60.12,61.589 60.526,63.676 59.685,65.267C58.894,66.759 57.51,67.388 56.217,66.529C55.614,66.128 55.241,65.55 55.03,64.84C54.862,64.274 54.865,63.098 54.318,62.745C53.611,62.287 52.836,63.022 52.135,63.3C49.139,64.493 50.101,61.258 49.98,59.482C49.86,57.726 48.547,51.761 47.051,52.504C45.469,53.293 44.411,58.396 42.442,57.905C41.782,57.74 41.151,56.915 40.385,57.142C38.884,57.585 39.762,60.497 37.894,60.525C36.48,60.545 35.863,56.095 34.407,58.769C33.823,59.844 34.207,61.249 34.286,62.372C34.384,63.78 34.457,65.497 33.904,66.776C32.844,69.223 30.111,68.367 28.891,66.518C27.331,64.159 29.138,57.972 27.095,55.417C26.122,54.199 24.955,52.605 23.296,53.029C22.115,53.332 21.512,54.578 20.474,55.111C19.108,55.812 18.145,54.83 16.804,54.923C15.901,54.984 15.556,61.911 15.466,62.666C15.303,64.027 15.104,66.869 12.843,65.455C11.123,64.378 11.802,55.372 9.852,54.35C8.977,53.893 8.006,54.701 7.133,53.983C6.317,53.31 6.477,51.837 5.551,51.205C3.674,49.92 5.599,63.62 5.694,64.422C5.792,65.239 6.525,69.464 4.586,67.699C3.868,67.046 4.157,66.134 4.28,65.41C4.858,62.088 -2.448,45.474 0.866,41.748C2.659,39.789 5.719,40.373 7.032,39.795C9.232,38.827 11.454,38.089 13.872,37.694C20.564,36.597 27.348,35.957 34.224,35.957C38.503,35.957 42.717,36.092 46.942,36.644C52.654,37.391 58.122,37.955 63.304,40.196C64.541,40.732 66.418,40.951 67.282,42.082C67.602,42.488 69.283,41.658 69.429,42.334Z" fill="url(#pf_0_338_353)"/>
<path d="M65.429,60.154C65.18,59.983 64.952,59.786 64.913,59.517C64.823,58.9 65.283,55.017 65.469,54.386C65.786,53.314 66.591,51.28 65.783,50.452C64.299,48.929 64.116,53.238 63.3,52.733C62.596,52.298 62.394,49.423 61.05,51.493C60.135,52.904 59.709,60.103 59.669,61.523C59.639,62.6 59.403,64.449 58.171,64.923C57.518,65.176 56.555,65.01 56.073,64.595C55.124,63.782 55.43,62.351 55.105,61.212C54.6,59.45 53.545,62.264 52.529,62.513C51.028,62.881 50.91,61.248 50.697,60.238C50.4,58.838 49.505,49.953 47.485,50.612C45.512,51.255 44.331,58.42 42.025,56.675C40.903,55.828 39.949,55.878 39.27,57.315C38.919,58.055 38.139,60.353 37.059,59.155C36.333,58.35 36.916,56.566 36.06,55.887C33.564,53.909 33.923,62.014 33.9,62.631C33.864,63.706 33.768,65.325 32.655,65.793C31.036,66.475 29.683,64.915 29.293,63.487C28.701,61.327 28.163,56.355 27.773,53.996C27.602,52.96 27.198,52.161 26.39,51.501C25.009,50.379 23.402,51.384 22.51,52.545C21.657,53.659 20.874,54.711 19.395,54.742C18.31,54.764 17.496,53.785 16.985,52.854C16.685,52.307 16.494,51.701 15.916,52.082C15.49,52.363 15.692,53.227 15.574,53.718C15.305,54.849 15.165,62.185 14.671,63.125C13.975,64.446 12.533,64.225 11.961,62.715C11.658,61.913 11.458,55.115 11.122,54.271C10.325,52.256 8.571,54.425 7.489,53.35C6.891,52.758 6.776,51.768 6.422,51.022C6.075,50.287 5.393,49.366 4.568,49.599C2.927,50.062 5.777,64.668 5.606,65.799C5.55,66.175 5.505,66.935 5.306,67.235C5.196,67.395 4.568,67.749 4.352,67.423C4.419,67.521 4.498,67.62 4.588,67.701C6.526,69.463 5.791,65.238 5.693,64.424C5.598,63.622 3.673,49.922 5.55,51.207C6.473,51.838 6.313,53.311 7.132,53.984C8.005,54.705 8.973,53.895 9.851,54.352C11.801,55.37 11.122,64.379 12.842,65.456C15.103,66.87 15.302,64.028 15.465,62.668C15.555,61.916 15.897,54.989 16.803,54.924C18.144,54.832 19.106,55.814 20.473,55.112C21.511,54.579 22.114,53.334 23.295,53.031C24.953,52.607 26.118,54.2 27.094,55.418C29.139,57.974 27.33,64.16 28.889,66.52C30.11,68.369 32.842,69.224 33.903,66.778C34.456,65.501 34.383,63.782 34.285,62.373C34.206,61.251 33.822,59.845 34.405,58.771C35.858,56.097 36.476,60.549 37.893,60.527C39.761,60.502 38.883,57.587 40.384,57.143C41.15,56.916 41.781,57.744 42.44,57.907C44.407,58.398 45.465,53.291 47.05,52.506C48.545,51.762 49.858,57.727 49.979,59.483C50.105,61.338 49.151,64.486 52.134,63.302C52.835,63.024 53.609,62.289 54.316,62.746C54.861,63.1 54.861,64.275 55.029,64.842C55.239,65.552 55.613,66.13 56.216,66.531C57.509,67.389 58.892,66.761 59.683,65.268C60.525,63.68 60.121,61.59 60.382,59.848C60.548,58.748 61.844,50.55 62.444,52.938C62.582,53.488 62.385,54.388 63.118,54.366C63.83,54.344 64.052,53.356 64.189,52.828C64.33,52.295 64.262,51.263 65.081,51.277C66.681,51.308 63.864,59.688 64.484,61.012C64.705,61.484 65.856,61.689 66.148,60.942C66.223,60.614 65.8,60.409 65.429,60.154Z" fill="url(#pf_0_338_354)"/>
<path d="M69.485,42.706C69.485,46.328 53.336,48.66 34.252,48.66C15.169,48.66 0.375,46.328 0.375,42.706C0.375,39.084 15.166,35.541 34.25,35.541C53.333,35.541 69.485,39.084 69.485,42.706Z" fill="url(#pf_0_338_355)"/>
<path d="M39.589,47.946C20.797,47.895 4.325,45.104 4.334,41.695C4.339,40.127 9.409,38.66 14.563,37.453C6.112,38.716 0.712,40.744 0.706,42.817C0.698,46.226 15.253,48.457 34.048,48.507C46.187,48.538 57.115,47.651 63.341,46.1C57.081,46.992 48.639,47.968 39.589,47.946Z" fill="url(#pf_0_338_356)"/>
<path d="M57.839,64.727C59.34,64.359 59.556,62.025 59.626,61.152C59.963,56.826 59.073,59.256 57.794,59.099C56.577,58.95 55.55,57.135 55.017,56.248C55.508,58.271 54.273,65.599 57.839,64.727Z" fill="url(#pf_0_338_357)"/>
<path d="M52.457,62.53C53.459,62.325 54.418,60.24 55.271,59.632C57.639,57.937 53.366,58.762 52.53,58.599C51.733,58.445 50.432,55.698 50.101,55.078C50.695,57.94 50.269,62.976 52.457,62.53Z" fill="url(#pf_0_338_358)"/>
<path d="M13.078,63.85C12.012,63.586 11.872,61.926 11.83,61.305C11.622,58.261 12.234,59.967 13.137,59.855C13.998,59.748 14.728,58.477 15.107,57.857C14.756,59.274 15.617,64.476 13.078,63.85Z" fill="url(#pf_0_338_359)"/>
<path d="M32.313,65.867C33.96,65.575 33.873,63.011 33.826,62.049C33.59,57.268 32.928,59.9 31.452,59.622C30.046,59.358 28.534,54.496 27.785,53.436C28.652,55.795 28.4,66.557 32.313,65.867Z" fill="url(#pf_0_338_360)"/>
<path d="M23.619,51.177C21.888,52.226 21.619,54.277 20.137,54.557C18.176,54.928 17.13,53.124 16.445,50.84L23.619,51.177Z" fill="url(#pf_0_338_361)"/>
<path d="M45.74,35.659C45.962,35.928 46.217,36.296 46.206,36.419C46.198,36.515 45.634,36.559 45.451,36.644C46.083,36.523 47.323,36.038 47.547,36.397C47.718,36.672 48.207,36.809 48.187,36.935C48.167,37.062 48.041,37.37 47.514,37.53C45.968,37.999 43.33,37.788 42.57,37.466C42.183,37.241 42.048,36.893 42.09,36.531C42.116,36.313 42.612,35.869 42.921,35.723C43.92,35.19 45.415,35.26 45.74,35.659Z" fill="#B4349D"/>
<path d="M45.757,35.436C45.965,35.703 46.206,36.067 46.192,36.194C46.184,36.289 45.648,36.339 45.477,36.424C46.074,36.297 47.533,35.773 47.744,36.132C47.904,36.404 48.069,36.749 48.05,36.875C48.03,37.002 47.744,37.212 47.435,37.313C46.133,37.734 42.915,37.529 42.652,37.341C42.461,37.159 42.253,36.701 42.298,36.339C42.323,36.121 42.52,35.969 42.534,35.795C43.482,35.254 45.452,35.041 45.757,35.436Z" fill="#E51A4F"/>
<path d="M42.564,35.72C42.69,35.65 43.08,35.737 43.243,35.678L42.654,37.336C42.398,37.145 42.255,36.696 42.3,36.334C42.325,36.115 42.426,35.902 42.564,35.72Z" fill="#D3114D"/>
<path d="M46.734,36.248C47.183,36.152 47.643,35.956 47.747,36.13C47.907,36.402 48.073,36.747 48.053,36.873C48.033,37 47.747,37.21 47.439,37.311C47.11,36.405 46.734,36.248 46.734,36.248Z" fill="#D3114D"/>
<path d="M45.413,35.233C45.893,35.396 45.924,35.651 45.528,35.848C46.126,35.721 46.9,35.735 47.383,35.898C47.941,36.086 47.893,36.4 47.276,36.6C45.974,37.02 43.463,36.698 42.874,36.703C42.902,36.51 41.816,35.727 43.289,35.253C43.904,35.054 44.855,35.045 45.413,35.233Z" fill="#FF3E6A"/>
<path d="M43.451,35.48C44.068,35.281 45.019,35.272 45.577,35.46C45.67,35.491 45.74,35.528 45.799,35.564C45.805,35.444 45.681,35.323 45.415,35.233C44.856,35.045 43.905,35.054 43.288,35.253C41.818,35.727 42.904,36.51 42.873,36.703C42.884,36.703 42.904,36.703 42.915,36.703C42.693,36.384 42.329,35.842 43.451,35.48Z" fill="#FF80A1"/>
<path d="M57.373,37.642C57.225,37.707 57.056,37.749 56.868,37.755C55.682,37.788 54.587,37.898 53.395,37.698C52.851,37.606 52.309,37.494 51.771,37.373L50.208,37.373C49.992,37.612 49.526,37.376 49.563,37.721C49.504,38.728 52.71,39.432 53.732,39.286C54.829,39.132 56.114,39.584 56.7,39.674C56.599,39.365 56.324,38.762 56.299,38.734C56.84,38.717 57.831,38.38 57.867,38.321C58.069,37.844 57.769,37.718 57.373,37.642Z" fill="#DD76CF"/>
<path d="M50.395,36.246C51.099,35.819 50.681,35.177 51.032,35.042C52.076,35.311 55.594,33.639 56.141,34.251C56.141,34.251 57.505,35.844 54.744,37.253C53.683,36.102 49.635,36.852 50.395,36.246Z" fill="#E2ACE1"/>
<path d="M56.433,37.97C53.161,39.673 53.117,36.671 53.846,36.048C55.083,35.922 55.698,35.437 57.249,35.49C57.496,35.499 57.774,35.459 57.852,35.311C56.932,36.438 57.291,37.44 56.433,37.97Z" fill="#FCDEFA"/>
<path d="M51.939,32.911C52.643,32.485 52.581,32.258 53.347,32.454C54.391,32.724 55.182,32.499 55.729,33.111C55.729,33.111 55.03,34.376 54.309,34.606C53.249,33.456 51.181,33.517 51.939,32.911Z" fill="#E2ACE1"/>
<path d="M51.88,32.941C51.596,33.095 50.971,33.308 50.923,33.583C51.195,33.423 51.546,33.126 52.918,34.178C54.343,35.269 56.554,34.273 55.964,33.415C55.173,32.262 55.142,33.325 54.985,33.39C52.578,34.383 52.458,32.624 51.88,32.941Z" fill="#FFF5FE"/>
<path d="M53.998,30.482C53.016,32.076 54.921,31.955 54.977,33.313C56.023,31.198 53.181,32.155 53.998,30.482Z" fill="#FFF5FE"/>
<path d="M53.998,30.482C53.173,31.849 55.041,32.09 54.977,33.313C53.386,32.595 52.875,31.779 53.998,30.482Z" fill="#FCDEFA"/>
<path d="M53.993,30.482C52.262,31.661 51.746,32.721 53.493,33.173C54.537,33.442 54.686,33.114 54.972,33.313C54.972,33.313 55.112,32.92 54.47,32.62C53.729,32.275 53.028,31.7 53.993,30.482Z" fill="#FFF5FE"/>
<path d="M53.911,30.555C53.563,30.942 51.731,31.972 54.278,32.937C53.083,32.129 53.086,31.601 53.911,30.555Z" fill="#FFFAFE"/>
<path d="M52.421,32.252C52.41,32.634 52.741,32.942 53.507,33.139C54.55,33.408 54.646,33.085 54.974,33.312C54.974,33.312 54.744,33.357 54.023,33.587C53.257,33.834 52.168,33.223 52.421,32.252Z" fill="#FCDEFA"/>
<path d="M53.998,30.482C53.585,31.588 54.898,31.26 55.17,32.258C54.89,31.501 53.336,31.815 53.998,30.482Z" fill="#FFFAFE"/>
<path d="M51.035,34.988C51.226,34.533 50.841,33.624 50.92,33.579C51.192,33.42 51.54,33.038 52.912,34.09C54.337,35.181 56.548,34.27 55.959,33.411C56.469,34.003 55.558,34.817 55.426,34.929C53.246,36.778 50.897,35.319 51.035,34.988Z" fill="#FCDEFA"/>
<path d="M51.007,35.039C50.053,35.008 49.537,35.471 49.273,36.037C49.006,36.604 50.847,37.746 52.965,37.673C55.083,37.6 56.029,39.196 56.478,39.429C56.152,38.433 55.1,36.545 54.18,36.251C53.257,35.953 50.948,36.043 51.007,35.039Z" fill="#FFF5FE"/>
<path d="M50.919,33.58C51.191,33.42 51.539,33.145 52.911,34.197C54.336,35.288 56.642,34.262 55.958,33.412C56.303,34.138 54.692,34.259 53.624,33.947C52.482,33.611 51.371,33.013 50.919,33.58Z" fill="#FFFAFE"/>
<path d="M55.846,38.525C55.667,38.3 54.239,37.175 52.261,37.072C50.39,36.973 48.299,35.585 50.698,35.113C50.036,35.694 50.855,36.365 51.983,36.466C53.26,36.578 54.326,36.039 55.846,38.525Z" fill="#FFFAFE"/>
<path d="M49.694,37.481C49.646,37.023 49.295,37.13 49.259,36.246C49.419,36.844 51.125,37.596 53.004,37.531C55.122,37.458 56.026,39.198 56.475,39.43C55.888,39.338 54.808,38.883 53.711,39.038C52.69,39.181 49.635,38.488 49.694,37.481Z" fill="#FCDEFA"/>
<path d="M56.138,34.248C56.017,34.989 54.466,35.872 53.843,36.044C55.383,36.358 55.694,35.432 57.246,35.485C58.074,35.513 58.141,34.315 56.138,34.248Z" fill="#FFF5FE"/>
<path d="M56.138,34.248C57.328,34.478 57.631,34.854 57.269,35.126C56.991,35.337 56.13,35.443 56.124,35.64C56.124,35.64 56.926,35.522 57.384,35.539C58.211,35.567 58.141,34.315 56.138,34.248Z" fill="#FFFAFE"/>
<path d="M55.468,37.449C55.647,37.721 56.077,38.445 56.082,38.495C56.624,38.478 57.636,38.175 57.673,38.119C57.939,37.488 58.386,37.328 58.47,36.573C58.545,35.909 56.857,37.6 55.468,37.449Z" fill="#FCDEFA"/>
<path d="M55.482,37.476C56.621,37.173 57.062,36.794 57.225,36.438C57.298,36.09 57.446,35.924 57.483,35.865C57.915,35.893 58.571,35.913 58.47,36.578C58.369,37.246 56.347,37.417 55.482,37.476Z" fill="#FFF5FE"/>
<path d="M55.482,37.475C56.621,37.172 57.062,36.794 57.224,36.437C57.297,36.089 57.446,35.924 57.483,35.865L57.561,35.725C56.823,35.879 57.233,36.934 55.255,37.164L55.482,37.475Z" fill="#E2ACE1"/>
<path d="M49.693,37.481C49.668,37.251 49.57,37.164 49.472,37.023C51.601,37.952 49.749,38.376 53.601,38.74C55.686,38.937 56.026,39.201 56.474,39.431C55.888,39.338 54.808,38.884 53.711,39.038C52.69,39.181 49.634,38.488 49.693,37.481Z" fill="#E2ACE1"/>
<path d="M58.897,39.203C58.414,39.422 58.902,39.736 59.994,39.958C58.697,39.829 57.443,39.615 56.961,39.834C56.4,40.087 56.419,40.662 58.871,41.077C61.986,41.602 65.941,41.428 66.135,40.903C66.351,40.544 65.453,39.562 62.586,39.138C61.107,38.92 59.455,38.951 58.897,39.203Z" fill="#B4349D"/>
<path d="M59.09,38.546C58.633,38.754 59.365,39.197 60.397,39.405C59.171,39.281 58.021,38.305 57.746,38.723C57.662,38.852 57.261,40.002 57.238,40.047C57.118,40.274 57.802,40.555 58.972,40.729C61.929,41.164 64.67,41.012 65.896,40.698C66.18,40.154 65.93,39.337 65.846,39.264C64.864,38.389 59.413,37.957 59.413,37.957C59.211,38.201 59.129,38.532 59.09,38.546Z" fill="#D3114D"/>
<path d="M59.564,37.84C59.157,38.025 59.569,38.289 60.487,38.474C59.396,38.365 58.307,38.41 57.9,38.592C57.429,38.805 58.054,39.128 59.3,39.31C61.932,39.697 64.987,39.277 65.851,39.263C65.714,39.072 65.085,38.143 62.672,37.784C61.427,37.602 60.035,37.627 59.564,37.84Z" fill="#FF3E6A"/>
<path d="M62.732,37.949C61.584,37.778 60.302,37.804 59.867,38C59.668,38.09 59.688,38.202 59.873,38.311C59.413,38.151 59.267,37.975 59.567,37.84C60.038,37.627 61.43,37.602 62.673,37.784C65.086,38.14 65.714,39.072 65.852,39.263C65.79,39.263 65.717,39.268 65.636,39.271C65.459,39.032 64.819,38.258 62.732,37.949Z" fill="#FF80A1"/>
<path d="M57.9,38.596C58.271,38.428 59.205,38.38 60.192,38.453C60.338,38.501 60.515,38.546 60.717,38.588C59.71,38.487 58.705,38.529 58.329,38.697C57.909,38.888 58.439,39.168 59.511,39.34C59.44,39.331 59.368,39.323 59.297,39.312C58.054,39.129 57.429,38.809 57.9,38.596Z" fill="#FF80A1"/>
<path d="M68.291,42.235C68.131,42.306 67.954,42.348 67.755,42.353C66.492,42.387 65.331,42.505 64.065,42.294C63.487,42.196 62.912,42.078 62.34,41.949L60.682,41.949C60.452,42.205 59.958,41.952 59.997,42.32C59.936,43.388 63.339,44.138 64.427,43.983C65.594,43.818 66.955,44.297 67.581,44.396C67.474,44.067 67.182,43.428 67.154,43.397C67.73,43.377 68.782,43.021 68.821,42.959C69.034,42.451 68.714,42.317 68.291,42.235Z" fill="#DD76CF"/>
<path d="M60.883,40.751C61.632,40.299 61.188,39.615 61.559,39.472C62.667,39.758 66.404,37.982 66.985,38.633C66.985,38.633 68.432,40.327 65.501,41.823C64.376,40.599 60.075,41.393 60.883,40.751Z" fill="#E2ACE1"/>
<path d="M67.295,42.582C63.822,44.392 63.774,41.202 64.545,40.539C65.861,40.405 66.512,39.891 68.159,39.945C68.423,39.953 68.717,39.911 68.799,39.754C67.825,40.955 68.207,42.021 67.295,42.582Z" fill="#FCDEFA"/>
<path d="M62.522,37.214C63.271,36.762 63.204,36.518 64.018,36.729C65.126,37.015 65.965,36.776 66.548,37.427C66.548,37.427 65.808,38.771 65.039,39.015C63.911,37.789 61.714,37.857 62.522,37.214Z" fill="#E2ACE1"/>
<path d="M62.458,37.243C62.155,37.409 61.49,37.633 61.439,37.925C61.728,37.757 62.099,37.44 63.558,38.556C65.073,39.715 67.421,38.66 66.792,37.746C65.951,36.519 65.92,37.65 65.752,37.72C63.199,38.775 63.072,36.907 62.458,37.243Z" fill="#FFF5FE"/>
<path d="M64.711,34.635C63.667,36.327 65.69,36.2 65.752,37.642C66.863,35.395 63.844,36.414 64.711,34.635Z" fill="#FFF5FE"/>
<path d="M64.709,34.635C63.834,36.088 65.818,36.341 65.75,37.642C64.061,36.879 63.52,36.015 64.709,34.635Z" fill="#FCDEFA"/>
<path d="M64.704,34.635C62.867,35.886 62.317,37.014 64.174,37.494C65.282,37.78 65.442,37.432 65.742,37.642C65.742,37.642 65.891,37.227 65.209,36.907C64.427,36.543 63.68,35.931 64.704,34.635Z" fill="#FFF5FE"/>
<path d="M64.616,34.709C64.246,35.119 62.299,36.213 65.006,37.24C63.738,36.381 63.741,35.82 64.616,34.709Z" fill="#FFFAFE"/>
<path d="M63.035,36.516C63.021,36.922 63.377,37.248 64.188,37.458C65.296,37.744 65.397,37.402 65.748,37.643C65.748,37.643 65.504,37.691 64.738,37.935C63.921,38.196 62.766,37.545 63.035,36.516Z" fill="#FCDEFA"/>
<path d="M64.709,34.635C64.272,35.807 65.666,35.46 65.955,36.52C65.658,35.721 64.005,36.052 64.709,34.635Z" fill="#FFFAFE"/>
<path d="M61.564,39.419C61.766,38.936 61.359,37.971 61.441,37.923C61.73,37.755 62.1,37.348 63.559,38.465C65.074,39.624 67.422,38.656 66.794,37.744C67.335,38.375 66.37,39.236 66.227,39.357C63.91,41.321 61.415,39.772 61.564,39.419Z" fill="#FCDEFA"/>
<path d="M61.53,39.47C60.517,39.437 59.97,39.928 59.687,40.531C59.403,41.134 61.359,42.346 63.606,42.268C65.856,42.189 66.86,43.886 67.337,44.133C66.992,43.076 65.873,41.07 64.897,40.755C63.923,40.444 61.468,40.539 61.53,39.47Z" fill="#FFF5FE"/>
<path d="M61.439,37.924C61.728,37.755 62.099,37.463 63.558,38.577C65.073,39.736 67.522,38.647 66.795,37.744C67.163,38.516 65.451,38.645 64.315,38.311C63.098,37.954 61.919,37.32 61.439,37.924Z" fill="#FFFAFE"/>
<path d="M66.673,43.174C66.482,42.936 64.964,41.741 62.866,41.629C60.879,41.525 58.66,40.049 61.205,39.547C60.503,40.164 61.37,40.874 62.571,40.983C63.926,41.107 65.057,40.532 66.673,43.174Z" fill="#FFFAFE"/>
<path d="M60.138,42.063C60.087,41.578 59.714,41.693 59.675,40.75C59.843,41.384 61.656,42.184 63.656,42.116C65.906,42.038 66.866,43.887 67.342,44.134C66.72,44.035 65.575,43.553 64.408,43.718C63.319,43.873 60.073,43.135 60.138,42.063Z" fill="#FCDEFA"/>
<path d="M66.984,38.631C66.855,39.416 65.208,40.356 64.546,40.539C66.182,40.873 66.513,39.891 68.159,39.944C69.04,39.975 69.111,38.701 66.984,38.631Z" fill="#FFF5FE"/>
<path d="M66.984,38.631C68.246,38.875 68.569,39.273 68.185,39.562C67.89,39.784 66.973,39.899 66.97,40.109C66.97,40.109 67.823,39.986 68.308,40C69.186,40.031 69.11,38.701 66.984,38.631Z" fill="#FFFAFE"/>
<path d="M66.269,42.034C66.459,42.323 66.914,43.094 66.922,43.145C67.497,43.125 68.572,42.805 68.611,42.746C68.895,42.076 69.369,41.905 69.458,41.105C69.54,40.398 67.744,42.194 66.269,42.034Z" fill="#FCDEFA"/>
<path d="M66.286,42.06C67.495,41.738 67.964,41.336 68.138,40.958C68.216,40.59 68.373,40.41 68.413,40.352C68.873,40.382 69.569,40.402 69.462,41.109C69.353,41.816 67.204,41.996 66.286,42.06Z" fill="#FFF5FE"/>
<path d="M66.285,42.06C67.494,41.738 67.963,41.337 68.137,40.958C68.215,40.59 68.373,40.411 68.412,40.352L68.493,40.203C67.71,40.366 68.145,41.488 66.044,41.732L66.285,42.06Z" fill="#E2ACE1"/>
<path d="M60.138,42.062C60.113,41.817 60.006,41.725 59.902,41.576C62.166,42.564 60.197,43.013 64.287,43.4C66.501,43.607 66.863,43.888 67.34,44.132C66.717,44.034 65.572,43.551 64.405,43.717C63.32,43.871 60.073,43.133 60.138,42.062Z" fill="#E2ACE1"/>
<path d="M56.388,42.891C56.01,43.323 55.564,43.915 55.566,44.12C55.566,44.277 56.436,44.387 56.706,44.535C55.743,44.297 53.889,43.421 53.493,44.002C53.19,44.443 52.419,44.645 52.43,44.855C52.444,45.066 52.595,45.582 53.389,45.876C55.718,46.743 59.834,46.55 61.054,46.064C61.683,45.714 61.941,45.15 61.924,44.549C61.913,44.187 61.206,43.427 60.748,43.166C59.273,42.229 56.947,42.252 56.388,42.891Z" fill="#B4349D"/>
<path d="M56.395,42.525C56.039,42.954 55.615,43.544 55.618,43.748C55.618,43.905 56.44,44.02 56.695,44.169C55.786,43.925 53.598,42.974 53.222,43.549C52.936,43.99 52.636,44.548 52.647,44.758C52.658,44.969 53.073,45.333 53.539,45.516C55.5,46.287 60.508,46.139 60.943,45.847C61.263,45.558 61.644,44.814 61.627,44.214C61.616,43.852 61.336,43.588 61.336,43.299C59.941,42.36 56.922,41.891 56.395,42.525Z" fill="#E51A4F"/>
<path d="M61.298,43.182C61.112,43.055 60.495,43.176 60.254,43.072L60.938,45.847C61.362,45.547 61.64,44.815 61.623,44.214C61.615,43.852 61.488,43.493 61.298,43.182Z" fill="#D3114D"/>
<path d="M54.77,43.805C54.088,43.623 53.4,43.269 53.218,43.55C52.932,43.99 52.632,44.549 52.643,44.759C52.654,44.969 53.069,45.334 53.535,45.516C54.169,44.044 54.77,43.805 54.77,43.805Z" fill="#D3114D"/>
<path d="M56.956,42.209C56.19,42.447 56.109,42.868 56.695,43.216C55.786,42.972 54.585,42.952 53.816,43.191C52.927,43.468 52.958,43.99 53.884,44.355C55.845,45.127 59.776,44.745 60.687,44.79C60.668,44.467 62.458,43.241 60.244,42.369C59.315,42.001 57.845,41.931 56.956,42.209Z" fill="#FF3E6A"/>
<path d="M54.672,44.319C53.746,43.954 53.715,43.433 54.605,43.155C54.796,43.096 55.017,43.051 55.25,43.023C54.723,43.012 54.212,43.065 53.816,43.188C52.927,43.466 52.958,43.988 53.884,44.353C55.845,45.124 59.776,44.743 60.687,44.788C60.687,44.779 60.693,44.771 60.693,44.762C59.178,44.813 56.271,44.95 54.672,44.319Z" fill="#FF80A1"/>
<path d="M26.521,35.394C26.3,35.663 26.044,36.031 26.056,36.154C26.064,36.25 26.628,36.295 26.81,36.379C26.179,36.258 24.939,35.773 24.714,36.132C24.543,36.407 24.055,36.544 24.075,36.671C24.094,36.797 24.221,37.106 24.748,37.265C26.294,37.734 28.931,37.524 29.692,37.201C30.079,36.976 30.213,36.629 30.171,36.267C30.146,36.048 29.649,35.605 29.341,35.459C28.345,34.928 26.85,34.996 26.521,35.394Z" fill="#B4349D"/>
<path d="M26.508,35.172C26.3,35.439 26.059,35.804 26.073,35.93C26.081,36.025 26.617,36.076 26.788,36.16C26.191,36.034 24.732,35.509 24.521,35.868C24.361,36.14 24.196,36.485 24.215,36.612C24.235,36.738 24.521,36.948 24.83,37.049C26.132,37.47 29.35,37.265 29.613,37.077C29.804,36.895 30.012,36.438 29.967,36.076C29.942,35.857 29.745,35.705 29.731,35.532C28.78,34.99 26.813,34.777 26.508,35.172Z" fill="#E51A4F"/>
<path d="M29.701,35.458C29.575,35.388 29.185,35.475 29.022,35.416L29.612,37.074C29.867,36.883 30.01,36.434 29.968,36.073C29.94,35.856 29.839,35.643 29.701,35.458Z" fill="#D3114D"/>
<path d="M25.531,35.984C25.082,35.889 24.622,35.692 24.518,35.866C24.358,36.138 24.193,36.483 24.213,36.61C24.232,36.736 24.518,36.946 24.827,37.047C25.155,36.141 25.531,35.984 25.531,35.984Z" fill="#D3114D"/>
<path d="M26.848,34.971C26.366,35.133 26.338,35.389 26.733,35.585C26.136,35.459 25.361,35.473 24.879,35.636C24.32,35.824 24.368,36.138 24.985,36.337C26.287,36.758 28.798,36.435 29.387,36.441C29.359,36.247 30.445,35.464 28.972,34.99C28.358,34.791 27.406,34.78 26.848,34.971Z" fill="#FF3E6A"/>
<path d="M25.49,36.299C24.873,36.1 24.828,35.785 25.384,35.597C25.504,35.558 25.642,35.524 25.793,35.502C25.454,35.508 25.128,35.552 24.879,35.637C24.32,35.825 24.368,36.139 24.985,36.338C26.287,36.759 28.798,36.436 29.387,36.442C29.387,36.436 29.39,36.431 29.39,36.425C28.419,36.492 26.554,36.644 25.49,36.299Z" fill="#FF80A1"/>
<path d="M38.402,37.221C38.904,37.205 39.825,36.893 39.858,36.84C40.046,36.397 39.766,36.279 39.398,36.211C39.261,36.273 39.104,36.31 38.93,36.315C37.83,36.346 36.814,36.45 35.709,36.262C35.204,36.178 34.702,36.074 34.202,35.959C34.202,35.959 32.76,35.959 32.755,35.959C32.295,35.976 32.37,36.694 32.569,36.949C32.788,37.23 33.139,37.334 33.453,37.466C34.62,37.957 35.588,37.682 36.786,37.729C37.462,37.757 38.102,37.973 38.767,38.086C38.7,37.839 38.579,37.418 38.402,37.221Z" fill="#DD76CF"/>
<path d="M33.18,35.187C33.792,34.816 33.43,34.258 33.733,34.143C34.637,34.376 37.689,32.925 38.163,33.458C38.163,33.458 39.344,34.842 36.951,36.062C36.034,35.063 32.521,35.711 33.18,35.187Z" fill="#E2ACE1"/>
<path d="M38.417,36.681C35.58,38.16 35.541,35.556 36.172,35.015C37.247,34.905 37.777,34.484 39.124,34.529C39.337,34.538 39.578,34.501 39.646,34.375C38.849,35.354 39.16,36.224 38.417,36.681Z" fill="#FCDEFA"/>
<path d="M34.52,32.298C35.132,31.928 35.079,31.731 35.741,31.902C36.644,32.135 37.332,31.942 37.806,32.472C37.806,32.472 37.2,33.569 36.574,33.768C35.654,32.769 33.861,32.823 34.52,32.298Z" fill="#E2ACE1"/>
<path d="M34.467,32.321C34.22,32.456 33.679,32.641 33.637,32.879C33.872,32.742 34.175,32.484 35.365,33.396C36.602,34.344 38.518,33.48 38.005,32.734C37.318,31.732 37.292,32.655 37.155,32.711C35.073,33.572 34.969,32.046 34.467,32.321Z" fill="#FFF5FE"/>
<path d="M36.306,30.191C35.453,31.572 37.105,31.468 37.156,32.646C38.062,30.811 35.599,31.645 36.306,30.191Z" fill="#FFF5FE"/>
<path d="M36.305,30.191C35.59,31.378 37.209,31.586 37.155,32.646C35.775,32.026 35.332,31.316 36.305,30.191Z" fill="#FCDEFA"/>
<path d="M36.306,30.191C34.805,31.213 34.357,32.133 35.874,32.526C36.778,32.759 36.91,32.475 37.156,32.649C37.156,32.649 37.28,32.31 36.722,32.049C36.079,31.749 35.47,31.249 36.306,30.191Z" fill="#FFF5FE"/>
<path d="M36.231,30.254C35.928,30.588 34.34,31.483 36.551,32.322C35.512,31.62 35.515,31.163 36.231,30.254Z" fill="#FFFAFE"/>
<path d="M34.939,31.727C34.928,32.058 35.217,32.324 35.882,32.495C36.785,32.728 36.869,32.45 37.156,32.647C37.156,32.647 36.956,32.686 36.331,32.885C35.663,33.098 34.718,32.568 34.939,31.727Z" fill="#FCDEFA"/>
<path d="M36.305,30.191C35.946,31.151 37.085,30.865 37.321,31.732C37.08,31.078 35.73,31.35 36.305,30.191Z" fill="#FFFAFE"/>
<path d="M33.737,34.1C33.903,33.708 33.569,32.919 33.636,32.88C33.872,32.743 34.175,32.411 35.364,33.323C36.602,34.272 38.518,33.48 38.007,32.734C38.448,33.248 37.659,33.955 37.544,34.053C35.653,35.655 33.616,34.389 33.737,34.1Z" fill="#FCDEFA"/>
<path d="M33.71,34.142C32.882,34.114 32.436,34.515 32.206,35.009C31.976,35.5 33.569,36.49 35.407,36.429C37.242,36.364 38.064,37.75 38.454,37.952C38.17,37.088 37.259,35.449 36.462,35.194C35.662,34.936 33.659,35.015 33.71,34.142Z" fill="#FFF5FE"/>
<path d="M33.637,32.879C33.872,32.742 34.175,32.503 35.365,33.415C36.602,34.363 38.6,33.471 38.008,32.733C38.308,33.364 36.911,33.468 35.985,33.196C34.989,32.904 34.027,32.388 33.637,32.879Z" fill="#FFFAFE"/>
<path d="M37.906,37.162C37.749,36.969 36.511,35.992 34.797,35.902C33.175,35.818 31.363,34.615 33.442,34.205C32.87,34.71 33.577,35.288 34.556,35.378C35.664,35.476 36.587,35.007 37.906,37.162Z" fill="#FFFAFE"/>
<path d="M32.574,36.257C32.532,35.859 32.229,35.954 32.195,35.186C32.333,35.705 33.811,36.355 35.444,36.299C37.279,36.235 38.065,37.744 38.455,37.946C37.947,37.868 37.01,37.472 36.059,37.607C35.172,37.733 32.521,37.133 32.574,36.257Z" fill="#FCDEFA"/>
<path d="M38.161,33.457C38.057,34.1 36.711,34.865 36.172,35.014C37.507,35.286 37.777,34.484 39.123,34.529C39.839,34.554 39.898,33.513 38.161,33.457Z" fill="#FFF5FE"/>
<path d="M38.162,33.457C39.191,33.656 39.458,33.982 39.144,34.217C38.902,34.4 38.156,34.492 38.15,34.663C38.15,34.663 38.846,34.562 39.242,34.574C39.96,34.599 39.898,33.513 38.162,33.457Z" fill="#FFFAFE"/>
<path d="M37.579,36.235C37.736,36.471 38.107,37.099 38.112,37.144C38.581,37.13 39.459,36.866 39.493,36.818C39.723,36.271 40.11,36.131 40.183,35.477C40.25,34.899 38.783,36.364 37.579,36.235Z" fill="#FCDEFA"/>
<path d="M37.592,36.253C38.579,35.989 38.961,35.663 39.104,35.352C39.169,35.052 39.298,34.906 39.328,34.855C39.704,34.881 40.274,34.898 40.184,35.476C40.094,36.053 38.341,36.202 37.592,36.253Z" fill="#FFF5FE"/>
<path d="M37.593,36.253C38.58,35.989 38.962,35.664 39.105,35.352C39.17,35.052 39.299,34.906 39.33,34.856L39.397,34.732C38.757,34.867 39.114,35.782 37.396,35.981L37.593,36.253Z" fill="#E2ACE1"/>
<path d="M32.574,36.255C32.555,36.056 32.468,35.98 32.381,35.859C34.227,36.665 32.622,37.032 35.961,37.346C37.768,37.517 38.065,37.745 38.452,37.944C37.944,37.865 37.007,37.47 36.056,37.604C35.172,37.731 32.521,37.13 32.574,36.255Z" fill="#E2ACE1"/>
<path d="M21.872,37.197C21.724,37.262 21.555,37.304 21.367,37.309C20.181,37.343 19.086,37.452 17.894,37.253C17.35,37.161 16.808,37.048 16.27,36.928L14.707,36.928C14.491,37.166 14.025,36.931 14.062,37.276C14.003,38.283 17.209,38.987 18.231,38.841C19.328,38.687 20.613,39.139 21.199,39.228C21.098,38.92 20.823,38.316 20.798,38.288C21.339,38.272 22.33,37.935 22.366,37.876C22.571,37.399 22.271,37.273 21.872,37.197Z" fill="#DD76CF"/>
<path d="M14.894,35.796C15.598,35.37 15.18,34.727 15.531,34.593C16.574,34.862 20.092,33.19 20.639,33.802C20.639,33.802 22.003,35.395 19.242,36.804C18.182,35.653 14.136,36.402 14.894,35.796Z" fill="#E2ACE1"/>
<path d="M20.935,37.521C17.663,39.224 17.619,36.222 18.348,35.599C19.585,35.473 20.2,34.988 21.751,35.041C21.998,35.049 22.276,35.01 22.354,34.861C21.434,35.989 21.793,36.991 20.935,37.521Z" fill="#FCDEFA"/>
<path d="M16.439,32.47C17.144,32.044 17.082,31.816 17.848,32.013C18.891,32.282 19.683,32.058 20.23,32.669C20.23,32.669 19.531,33.935 18.81,34.165C17.75,33.012 15.679,33.076 16.439,32.47Z" fill="#E2ACE1"/>
<path d="M16.379,32.495C16.095,32.65 15.47,32.863 15.422,33.138C15.694,32.978 16.045,32.681 17.417,33.733C18.842,34.824 21.053,33.828 20.463,32.97C19.672,31.817 19.641,32.88 19.484,32.944C17.077,33.938 16.959,32.178 16.379,32.495Z" fill="#FFF5FE"/>
<path d="M18.497,30.039C17.515,31.633 19.42,31.512 19.476,32.87C20.525,30.754 17.683,31.714 18.497,30.039Z" fill="#FFF5FE"/>
<path d="M18.497,30.039C17.672,31.405 19.54,31.647 19.476,32.87C17.888,32.152 17.377,31.338 18.497,30.039Z" fill="#FCDEFA"/>
<path d="M18.495,30.037C16.764,31.215 16.248,32.276 17.995,32.728C19.039,32.997 19.188,32.669 19.474,32.868C19.474,32.868 19.614,32.475 18.972,32.175C18.234,31.833 17.532,31.258 18.495,30.037Z" fill="#FFF5FE"/>
<path d="M18.412,30.107C18.064,30.492 16.232,31.524 18.779,32.489C17.584,31.684 17.587,31.154 18.412,30.107Z" fill="#FFFAFE"/>
<path d="M16.923,31.807C16.912,32.188 17.243,32.497 18.009,32.693C19.052,32.963 19.148,32.64 19.476,32.867C19.476,32.867 19.246,32.912 18.525,33.142C17.756,33.389 16.671,32.775 16.923,31.807Z" fill="#FCDEFA"/>
<path d="M18.497,30.039C18.085,31.144 19.398,30.816 19.67,31.815C19.392,31.06 17.838,31.372 18.497,30.039Z" fill="#FFFAFE"/>
<path d="M15.536,34.546C15.727,34.092 15.342,33.183 15.421,33.138C15.693,32.978 16.041,32.597 17.413,33.649C18.838,34.74 21.049,33.828 20.46,32.97C20.97,33.562 20.059,34.375 19.927,34.488C17.747,36.336 15.398,34.877 15.536,34.546Z" fill="#FCDEFA"/>
<path d="M15.506,34.593C14.552,34.562 14.036,35.025 13.772,35.592C13.505,36.159 15.346,37.301 17.464,37.228C19.582,37.155 20.528,38.751 20.977,38.984C20.651,37.988 19.599,36.1 18.679,35.805C17.759,35.508 15.447,35.6 15.506,34.593Z" fill="#FFF5FE"/>
<path d="M15.422,33.137C15.694,32.977 16.042,32.702 17.414,33.754C18.839,34.845 21.145,33.818 20.461,32.968C20.806,33.695 19.195,33.815 18.126,33.504C16.982,33.167 15.871,32.57 15.422,33.137Z" fill="#FFFAFE"/>
<path d="M20.345,38.082C20.166,37.857 18.738,36.732 16.76,36.628C14.889,36.53 12.798,35.141 15.197,34.67C14.535,35.251 15.354,35.921 16.482,36.022C17.762,36.134 18.825,35.593 20.345,38.082Z" fill="#FFFAFE"/>
<path d="M14.196,37.035C14.148,36.578 13.797,36.685 13.761,35.801C13.921,36.398 15.626,37.15 17.506,37.086C19.624,37.013 20.528,38.752 20.977,38.985C20.39,38.893 19.31,38.438 18.213,38.592C17.189,38.738 14.137,38.042 14.196,37.035Z" fill="#FCDEFA"/>
<path d="M20.64,33.803C20.519,34.543 18.968,35.427 18.345,35.598C19.885,35.913 20.196,34.987 21.748,35.04C22.576,35.068 22.643,33.87 20.64,33.803Z" fill="#FFF5FE"/>
<path d="M20.641,33.803C21.831,34.033 22.134,34.409 21.772,34.681C21.494,34.891 20.633,34.998 20.627,35.194C20.627,35.194 21.429,35.076 21.887,35.093C22.714,35.121 22.644,33.87 20.641,33.803Z" fill="#FFFAFE"/>
<path d="M19.97,37.009C20.149,37.281 20.579,38.005 20.584,38.055C21.126,38.038 22.138,37.735 22.175,37.679C22.441,37.048 22.888,36.888 22.972,36.133C23.047,35.466 21.356,37.157 19.97,37.009Z" fill="#FCDEFA"/>
<path d="M19.984,37.032C21.123,36.729 21.564,36.351 21.727,35.994C21.8,35.646 21.948,35.481 21.985,35.422C22.417,35.45 23.073,35.47 22.972,36.134C22.871,36.802 20.848,36.973 19.984,37.032Z" fill="#FFF5FE"/>
<path d="M19.984,37.03C21.123,36.727 21.564,36.348 21.726,35.992C21.799,35.644 21.948,35.478 21.984,35.42L22.063,35.279C21.325,35.434 21.735,36.489 19.757,36.719L19.984,37.03Z" fill="#E2ACE1"/>
<path d="M14.195,37.033C14.17,36.803 14.072,36.716 13.974,36.576C16.103,37.505 14.251,37.928 18.103,38.293C20.188,38.49 20.527,38.753 20.976,38.983C20.39,38.891 19.31,38.436 18.213,38.591C17.189,38.736 14.136,38.041 14.195,37.033Z" fill="#E2ACE1"/>
<path d="M13.483,39.099C13.966,39.318 13.477,39.633 12.386,39.854C13.682,39.725 14.936,39.512 15.419,39.731C15.98,39.983 15.96,40.558 13.508,40.974C10.394,41.498 6.438,41.324 6.245,40.8C6.029,40.441 6.926,39.459 9.794,39.035C11.272,38.816 12.922,38.847 13.483,39.099Z" fill="#B4349D"/>
<path d="M13.288,38.447C13.745,38.654 13.013,39.097 11.98,39.305C13.206,39.182 14.357,38.205 14.631,38.623C14.716,38.752 15.117,39.903 15.139,39.948C15.26,40.175 14.575,40.455 13.405,40.629C10.448,41.064 7.707,40.913 6.481,40.598C6.198,40.054 6.448,39.238 6.532,39.165C7.514,38.289 12.965,37.857 12.965,37.857C13.167,38.102 13.251,38.43 13.288,38.447Z" fill="#D3114D"/>
<path d="M12.816,37.742C13.222,37.927 12.81,38.191 11.893,38.376C12.984,38.266 14.073,38.311 14.479,38.494C14.951,38.707 14.325,39.029 13.079,39.212C10.448,39.599 7.392,39.178 6.528,39.164C6.666,38.973 7.294,38.045 9.707,37.686C10.953,37.5 12.344,37.528 12.816,37.742Z" fill="#FF3E6A"/>
<path d="M9.648,37.848C10.796,37.677 12.078,37.702 12.513,37.898C12.712,37.988 12.692,38.1 12.507,38.21C12.967,38.05 13.113,37.873 12.813,37.739C12.341,37.525 10.95,37.5 9.707,37.682C7.294,38.039 6.666,38.97 6.528,39.161C6.59,39.161 6.663,39.167 6.744,39.169C6.921,38.931 7.561,38.157 9.648,37.848Z" fill="#FF80A1"/>
<path d="M14.481,38.495C14.111,38.326 13.176,38.278 12.189,38.351C12.043,38.399 11.866,38.444 11.664,38.486C12.671,38.385 13.676,38.427 14.052,38.596C14.472,38.786 13.942,39.067 12.87,39.238C12.941,39.23 13.014,39.221 13.084,39.21C14.327,39.03 14.952,38.708 14.481,38.495Z" fill="#FF80A1"/>
<path d="M10.894,43.159C10.734,43.229 10.557,43.271 10.358,43.277C9.096,43.311 7.934,43.429 6.669,43.218C6.091,43.12 5.516,43.002 4.944,42.873L3.285,42.873C3.055,43.128 2.562,42.876 2.601,43.243C2.539,44.312 5.942,45.061 7.031,44.907C8.198,44.742 9.559,45.221 10.184,45.32C10.078,44.991 9.786,44.352 9.758,44.321C10.333,44.301 11.385,43.945 11.424,43.883C11.638,43.372 11.318,43.238 10.894,43.159Z" fill="#DD76CF"/>
<path d="M3.485,41.673C4.234,41.221 3.791,40.537 4.161,40.394C5.27,40.68 9.007,38.904 9.587,39.555C9.587,39.555 11.035,41.249 8.103,42.745C6.978,41.521 2.677,42.318 3.485,41.673Z" fill="#E2ACE1"/>
<path d="M9.898,43.506C6.425,45.315 6.377,42.125 7.149,41.463C8.465,41.329 9.116,40.815 10.762,40.869C11.026,40.877 11.321,40.835 11.402,40.678C10.429,41.879 10.81,42.942 9.898,43.506Z" fill="#FCDEFA"/>
<path d="M5.126,38.134C5.875,37.682 5.807,37.438 6.621,37.649C7.729,37.935 8.568,37.696 9.152,38.347C9.152,38.347 8.411,39.691 7.642,39.935C6.514,38.709 4.318,38.777 5.126,38.134Z" fill="#E2ACE1"/>
<path d="M5.061,38.161C4.758,38.327 4.093,38.551 4.043,38.843C4.332,38.675 4.702,38.358 6.161,39.474C7.676,40.633 10.024,39.578 9.396,38.663C8.554,37.437 8.523,38.568 8.355,38.638C5.802,39.693 5.676,37.825 5.061,38.161Z" fill="#FFF5FE"/>
<path d="M7.311,35.557C6.268,37.248 8.29,37.122 8.352,38.564C9.463,36.314 6.444,37.333 7.311,35.557Z" fill="#FFF5FE"/>
<path d="M7.31,35.557C6.435,37.01 8.418,37.262 8.351,38.564C6.662,37.801 6.12,36.934 7.31,35.557Z" fill="#FCDEFA"/>
<path d="M7.315,35.557C5.477,36.808 4.927,37.936 6.784,38.416C7.893,38.702 8.053,38.354 8.353,38.564C8.353,38.564 8.501,38.149 7.82,37.829C7.037,37.462 6.291,36.85 7.315,35.557Z" fill="#FFF5FE"/>
<path d="M7.218,35.631C6.848,36.04 4.901,37.135 7.608,38.161C6.34,37.306 6.343,36.745 7.218,35.631Z" fill="#FFFAFE"/>
<path d="M5.636,37.438C5.621,37.844 5.978,38.17 6.789,38.38C7.897,38.666 7.998,38.324 8.349,38.565C8.349,38.565 8.104,38.613 7.339,38.857C6.522,39.115 5.366,38.467 5.636,37.438Z" fill="#FCDEFA"/>
<path d="M7.31,35.557C6.872,36.729 8.267,36.381 8.555,37.442C8.258,36.64 6.606,36.973 7.31,35.557Z" fill="#FFFAFE"/>
<path d="M4.168,40.343C4.37,39.86 3.963,38.895 4.044,38.847C4.333,38.679 4.703,38.272 6.162,39.389C7.677,40.547 10.026,39.579 9.397,38.668C9.939,39.299 8.974,40.16 8.83,40.281C6.513,42.245 4.019,40.693 4.168,40.343Z" fill="#FCDEFA"/>
<path d="M4.133,40.394C3.121,40.361 2.573,40.852 2.29,41.455C2.007,42.058 3.962,43.27 6.209,43.191C8.457,43.113 9.464,44.81 9.941,45.057C9.596,43.999 8.476,41.993 7.5,41.679C6.527,41.365 4.072,41.463 4.133,40.394Z" fill="#FFF5FE"/>
<path d="M4.043,38.846C4.332,38.677 4.702,38.386 6.161,39.499C7.676,40.658 10.125,39.569 9.399,38.666C9.766,39.438 8.055,39.567 6.919,39.233C5.701,38.879 4.523,38.245 4.043,38.846Z" fill="#FFFAFE"/>
<path d="M9.276,44.098C9.085,43.86 7.568,42.665 5.469,42.552C3.483,42.449 1.264,40.973 3.808,40.471C3.107,41.088 3.974,41.798 5.172,41.907C6.53,42.028 7.66,41.455 9.276,44.098Z" fill="#FFFAFE"/>
<path d="M2.741,42.987C2.691,42.501 2.318,42.617 2.278,41.674C2.447,42.308 4.259,43.107 6.259,43.04C8.51,42.962 9.469,44.81 9.946,45.057C9.323,44.959 8.178,44.477 7.011,44.642C5.923,44.794 2.677,44.056 2.741,42.987Z" fill="#FCDEFA"/>
<path d="M9.586,39.555C9.457,40.34 7.811,41.28 7.148,41.462C8.784,41.796 9.115,40.814 10.762,40.868C11.643,40.896 11.713,39.625 9.586,39.555Z" fill="#FFF5FE"/>
<path d="M9.587,39.555C10.85,39.799 11.172,40.197 10.788,40.486C10.493,40.708 9.576,40.823 9.573,41.033C9.573,41.033 10.426,40.91 10.912,40.924C11.79,40.952 11.714,39.625 9.587,39.555Z" fill="#FFFAFE"/>
<path d="M8.872,42.957C9.063,43.246 9.517,44.017 9.526,44.068C10.101,44.048 11.175,43.728 11.215,43.669C11.498,42.999 11.972,42.828 12.062,42.028C12.143,41.318 10.348,43.114 8.872,42.957Z" fill="#FCDEFA"/>
<path d="M8.89,42.982C10.099,42.659 10.567,42.258 10.741,41.879C10.82,41.512 10.977,41.332 11.016,41.273C11.476,41.304 12.172,41.324 12.066,42.031C11.956,42.738 9.807,42.92 8.89,42.982Z" fill="#FFF5FE"/>
<path d="M8.889,42.982C10.098,42.66 10.566,42.258 10.74,41.88C10.819,41.512 10.976,41.333 11.015,41.274L11.097,41.125C10.314,41.288 10.749,42.41 8.647,42.654L8.889,42.982Z" fill="#E2ACE1"/>
<path d="M2.742,42.985C2.716,42.741 2.61,42.649 2.506,42.5C4.77,43.488 2.8,43.936 6.891,44.324C9.105,44.531 9.466,44.812 9.943,45.056C9.321,44.958 8.176,44.475 7.009,44.641C5.923,44.792 2.677,44.054 2.742,42.985Z" fill="#E2ACE1"/>
<path d="M30.461,45.552C30.301,45.622 30.124,45.664 29.925,45.67C28.662,45.703 27.501,45.821 26.235,45.611C25.657,45.513 25.082,45.395 24.51,45.266L22.852,45.266C22.622,45.521 22.128,45.268 22.167,45.636C22.106,46.705 25.509,47.454 26.597,47.3C27.764,47.134 29.125,47.614 29.751,47.712C29.644,47.384 29.352,46.744 29.324,46.713C29.899,46.694 30.952,46.337 30.991,46.276C31.201,45.768 30.881,45.633 30.461,45.552Z" fill="#DD76CF"/>
<path d="M23.05,44.065C23.799,43.614 23.355,42.929 23.726,42.786C24.834,43.072 28.571,41.296 29.152,41.947C29.152,41.947 30.599,43.642 27.668,45.137C26.543,43.914 22.242,44.708 23.05,44.065Z" fill="#E2ACE1"/>
<path d="M29.463,45.898C25.99,47.708 25.942,44.518 26.713,43.856C28.029,43.721 28.68,43.208 30.327,43.261C30.591,43.27 30.885,43.227 30.967,43.07C29.993,44.271 30.375,45.337 29.463,45.898Z" fill="#FCDEFA"/>
<path d="M24.689,40.531C25.438,40.079 25.371,39.835 26.185,40.045C27.293,40.331 28.132,40.093 28.715,40.744C28.715,40.744 27.975,42.088 27.206,42.332C26.078,41.106 23.881,41.173 24.689,40.531Z" fill="#E2ACE1"/>
<path d="M24.626,40.558C24.323,40.723 23.658,40.948 23.607,41.24C23.896,41.071 24.267,40.754 25.726,41.871C27.241,43.029 29.589,41.975 28.96,41.06C28.119,39.834 28.088,40.965 27.92,41.035C25.367,42.09 25.24,40.221 24.626,40.558Z" fill="#FFF5FE"/>
<path d="M26.876,37.949C25.832,39.641 27.855,39.515 27.917,40.957C29.028,38.71 26.009,39.728 26.876,37.949Z" fill="#FFF5FE"/>
<path d="M26.874,37.949C25.999,39.403 27.983,39.655 27.915,40.957C26.226,40.194 25.685,39.33 26.874,37.949Z" fill="#FCDEFA"/>
<path d="M26.874,37.949C25.037,39.201 24.487,40.328 26.344,40.808C27.452,41.094 27.612,40.746 27.912,40.957C27.912,40.957 28.061,40.542 27.379,40.222C26.596,39.857 25.85,39.245 26.874,37.949Z" fill="#FFF5FE"/>
<path d="M26.782,38.023C26.412,38.433 24.465,39.527 27.172,40.554C25.904,39.698 25.907,39.134 26.782,38.023Z" fill="#FFFAFE"/>
<path d="M25.2,39.828C25.186,40.235 25.542,40.56 26.353,40.771C27.461,41.057 27.562,40.715 27.913,40.956C27.913,40.956 27.669,41.004 26.903,41.248C26.087,41.509 24.931,40.858 25.2,39.828Z" fill="#FCDEFA"/>
<path d="M26.874,37.949C26.437,39.122 27.831,38.774 28.12,39.835C27.823,39.035 26.17,39.366 26.874,37.949Z" fill="#FFFAFE"/>
<path d="M23.73,42.735C23.932,42.253 23.525,41.288 23.607,41.24C23.896,41.071 24.266,40.665 25.725,41.781C27.24,42.94 29.588,41.972 28.96,41.06C29.501,41.692 28.536,42.553 28.393,42.673C26.078,44.637 23.581,43.089 23.73,42.735Z" fill="#FCDEFA"/>
<path d="M23.7,42.789C22.687,42.755 22.14,43.246 21.857,43.849C21.573,44.452 23.529,45.664 25.776,45.586C28.023,45.507 29.03,47.205 29.507,47.452C29.162,46.394 28.043,44.388 27.066,44.074C26.09,43.762 23.635,43.858 23.7,42.789Z" fill="#FFF5FE"/>
<path d="M23.607,41.242C23.896,41.074 24.267,40.782 25.726,41.896C27.241,43.055 29.69,41.966 28.963,41.063C29.331,41.834 27.619,41.963 26.483,41.629C25.266,41.276 24.087,40.642 23.607,41.242Z" fill="#FFFAFE"/>
<path d="M28.839,46.491C28.648,46.252 27.13,45.057 25.032,44.945C23.045,44.841 20.826,43.365 23.371,42.863C22.669,43.481 23.536,44.19 24.734,44.3C26.092,44.423 27.223,43.848 28.839,46.491Z" fill="#FFFAFE"/>
<path d="M22.305,45.383C22.254,44.898 21.881,45.013 21.842,44.07C22.01,44.704 23.823,45.504 25.823,45.437C28.073,45.358 29.032,47.207 29.509,47.454C28.887,47.356 27.742,46.873 26.575,47.039C25.486,47.19 22.24,46.452 22.305,45.383Z" fill="#FCDEFA"/>
<path d="M29.151,41.947C29.022,42.733 27.375,43.673 26.713,43.855C28.349,44.189 28.68,43.207 30.326,43.26C31.207,43.291 31.278,42.017 29.151,41.947Z" fill="#FFF5FE"/>
<path d="M29.151,41.947C30.413,42.191 30.736,42.59 30.352,42.879C30.057,43.1 29.14,43.215 29.137,43.426C29.137,43.426 29.99,43.302 30.475,43.316C31.353,43.347 31.277,42.017 29.151,41.947Z" fill="#FFFAFE"/>
<path d="M28.438,45.357C28.629,45.646 29.084,46.418 29.092,46.468C29.667,46.448 30.742,46.129 30.781,46.07C31.064,45.399 31.539,45.228 31.628,44.428C31.707,43.719 29.911,45.514 28.438,45.357Z" fill="#FCDEFA"/>
<path d="M28.453,45.377C29.662,45.054 30.131,44.653 30.305,44.274C30.383,43.906 30.54,43.727 30.58,43.668C31.04,43.699 31.736,43.718 31.629,44.425C31.52,45.132 29.371,45.315 28.453,45.377Z" fill="#FFF5FE"/>
<path d="M28.451,45.377C29.66,45.054 30.129,44.653 30.303,44.274C30.381,43.907 30.539,43.727 30.578,43.668L30.659,43.52C29.876,43.682 30.311,44.804 28.21,45.049L28.451,45.377Z" fill="#E2ACE1"/>
<path d="M22.305,45.382C22.28,45.138 22.173,45.045 22.069,44.896C24.333,45.884 22.364,46.333 26.454,46.72C28.668,46.928 29.03,47.208 29.507,47.452C28.884,47.354 27.739,46.872 26.572,47.037C25.487,47.189 22.24,46.451 22.305,45.382Z" fill="#E2ACE1"/>
<path d="M51.588,45.522C51.429,45.593 51.252,45.635 51.053,45.64C49.79,45.674 48.629,45.792 47.363,45.581C46.785,45.483 46.21,45.365 45.638,45.236L43.98,45.236C43.75,45.492 43.256,45.239 43.295,45.607C43.233,46.676 46.637,47.425 47.725,47.27C48.892,47.105 50.253,47.585 50.879,47.683C50.772,47.355 50.48,46.715 50.452,46.684C51.027,46.664 52.079,46.308 52.119,46.246C52.329,45.736 52.009,45.601 51.588,45.522Z" fill="#DD76CF"/>
<path d="M44.177,44.038C44.926,43.586 44.483,42.902 44.853,42.759C45.961,43.045 49.698,41.269 50.279,41.92C50.279,41.92 51.727,43.614 48.795,45.11C47.67,43.887 43.372,44.681 44.177,44.038Z" fill="#E2ACE1"/>
<path d="M50.591,45.869C47.117,47.679 47.07,44.489 47.841,43.827C49.157,43.692 49.808,43.178 51.455,43.232C51.719,43.24 52.013,43.198 52.095,43.041C51.121,44.242 51.505,45.308 50.591,45.869Z" fill="#FCDEFA"/>
<path d="M45.818,40.501C46.567,40.05 46.5,39.805 47.313,40.016C48.422,40.302 49.26,40.064 49.844,40.714C49.844,40.714 49.103,42.058 48.335,42.302C47.21,41.076 45.013,41.144 45.818,40.501Z" fill="#E2ACE1"/>
<path d="M45.754,40.528C45.451,40.694 44.786,40.918 44.735,41.21C45.024,41.042 45.395,40.725 46.854,41.841C48.369,43 50.717,41.945 50.088,41.031C49.247,39.805 49.216,40.935 49.048,41.005C46.494,42.06 46.371,40.192 45.754,40.528Z" fill="#FFF5FE"/>
<path d="M48.004,37.92C46.96,39.612 48.983,39.485 49.045,40.928C50.158,38.68 47.137,39.699 48.004,37.92Z" fill="#FFF5FE"/>
<path d="M48.002,37.92C47.127,39.373 49.111,39.626 49.043,40.928C47.354,40.164 46.813,39.297 48.002,37.92Z" fill="#FCDEFA"/>
<path d="M48,37.92C46.163,39.171 45.613,40.299 47.47,40.779C48.578,41.065 48.738,40.717 49.038,40.928C49.038,40.928 49.187,40.512 48.505,40.192C47.722,39.825 46.976,39.216 48,37.92Z" fill="#FFF5FE"/>
<path d="M47.912,37.994C47.542,38.404 45.595,39.498 48.302,40.525C47.031,39.666 47.034,39.105 47.912,37.994Z" fill="#FFFAFE"/>
<path d="M46.331,39.801C46.317,40.208 46.673,40.533 47.484,40.743C48.592,41.03 48.693,40.687 49.044,40.929C49.044,40.929 48.8,40.976 48.034,41.22C47.215,41.481 46.062,40.83 46.331,39.801Z" fill="#FCDEFA"/>
<path d="M48.002,37.92C47.565,39.093 48.959,38.745 49.248,39.805C48.95,39.003 47.301,39.337 48.002,37.92Z" fill="#FFFAFE"/>
<path d="M44.858,42.706C45.06,42.223 44.653,41.258 44.735,41.211C45.024,41.042 45.394,40.635 46.853,41.752C48.368,42.911 50.716,41.943 50.088,41.031C50.629,41.662 49.664,42.524 49.521,42.644C47.206,44.608 44.712,43.059 44.858,42.706Z" fill="#FCDEFA"/>
<path d="M44.828,42.754C43.815,42.72 43.268,43.211 42.984,43.814C42.701,44.417 44.657,45.629 46.904,45.551C49.151,45.472 50.158,47.17 50.635,47.416C50.29,46.359 49.171,44.353 48.194,44.039C47.218,43.724 44.763,43.823 44.828,42.754Z" fill="#FFF5FE"/>
<path d="M44.735,41.209C45.024,41.04 45.395,40.749 46.854,41.862C48.369,43.021 50.818,41.933 50.091,41.029C50.459,41.801 48.747,41.93 47.611,41.596C46.393,41.24 45.215,40.606 44.735,41.209Z" fill="#FFFAFE"/>
<path d="M49.967,46.464C49.776,46.225 48.258,45.03 46.16,44.918C44.173,44.814 41.954,43.338 44.499,42.836C43.797,43.453 44.664,44.163 45.862,44.272C47.22,44.396 48.351,43.821 49.967,46.464Z" fill="#FFFAFE"/>
<path d="M43.433,45.348C43.382,44.863 43.009,44.978 42.97,44.035C43.138,44.669 44.95,45.469 46.951,45.401C49.201,45.323 50.16,47.172 50.637,47.419C50.015,47.32 48.87,46.838 47.703,47.003C46.614,47.155 43.368,46.417 43.433,45.348Z" fill="#FCDEFA"/>
<path d="M50.279,41.916C50.15,42.702 48.503,43.641 47.841,43.824C49.476,44.158 49.808,43.176 51.454,43.229C52.335,43.26 52.408,41.986 50.279,41.916Z" fill="#FFF5FE"/>
<path d="M50.279,41.916C51.541,42.16 51.864,42.558 51.479,42.847C51.185,43.069 50.267,43.184 50.265,43.395C50.265,43.395 51.118,43.271 51.603,43.285C52.481,43.316 52.408,41.986 50.279,41.916Z" fill="#FFFAFE"/>
<path d="M49.566,45.32C49.757,45.609 50.212,46.38 50.22,46.431C50.795,46.411 51.87,46.091 51.909,46.032C52.192,45.362 52.667,45.191 52.756,44.391C52.835,43.681 51.039,45.48 49.566,45.32Z" fill="#FCDEFA"/>
<path d="M49.581,45.343C50.79,45.021 51.259,44.62 51.433,44.241C51.511,43.873 51.668,43.694 51.708,43.635C52.168,43.666 52.864,43.685 52.757,44.392C52.648,45.096 50.498,45.279 49.581,45.343Z" fill="#FFF5FE"/>
<path d="M49.579,45.346C50.788,45.023 51.257,44.622 51.431,44.243C51.509,43.875 51.667,43.696 51.706,43.637L51.787,43.488C51.004,43.651 51.439,44.773 49.338,45.017L49.579,45.346Z" fill="#E2ACE1"/>
<path d="M43.433,45.349C43.408,45.105 43.301,45.012 43.197,44.863C45.461,45.851 43.492,46.3 47.582,46.687C49.796,46.895 50.158,47.175 50.635,47.419C50.012,47.321 48.867,46.838 47.7,47.004C46.614,47.155 43.368,46.418 43.433,45.349Z" fill="#E2ACE1"/>
<path d="M17.866,42.726C18.127,43.264 18.419,43.999 18.371,44.249C18.335,44.44 17.482,44.538 17.19,44.706C18.164,44.457 20.13,43.469 20.377,44.187C20.565,44.735 21.255,45.009 21.197,45.265C21.135,45.52 20.871,46.14 20.046,46.466C17.625,47.425 13.745,47.024 12.69,46.387C12.171,45.938 12.053,45.242 12.207,44.516C12.3,44.078 13.15,43.183 13.644,42.883C15.266,41.811 17.479,41.929 17.866,42.726Z" fill="#B4349D"/>
<path d="M17.942,42.28C18.183,42.816 18.309,43.116 18.262,43.366C18.225,43.556 17.56,44.092 17.283,44.263C18.208,44.002 20.512,42.936 20.736,43.652C20.907,44.196 21.067,44.886 21.008,45.141C20.949,45.397 20.47,45.823 19.984,46.025C17.936,46.884 13.192,46.502 12.844,46.129C12.606,45.764 12.409,44.847 12.564,44.12C12.656,43.683 12.984,43.374 13.049,43.023C14.598,41.938 17.583,41.489 17.942,42.28Z" fill="#D3114D"/>
<path d="M13.115,42.886C13.32,42.742 13.881,42.911 14.136,42.793L12.848,46.132C12.514,45.75 12.413,44.849 12.568,44.123C12.657,43.685 12.862,43.256 13.115,42.886Z" fill="#E51A4F"/>
<path d="M20.14,44.388C20.277,44.842 20.398,45.285 20.507,45.726C20.771,45.529 20.97,45.305 21.007,45.145C21.066,44.89 20.906,44.2 20.735,43.655C20.662,43.428 20.319,43.523 19.898,43.669C19.983,43.908 20.064,44.146 20.14,44.388Z" fill="#E51A4F"/>
<path d="M17.482,41.88C18.158,42.203 18.141,42.716 17.502,43.112C18.425,42.851 19.575,42.876 20.254,43.196C21.039,43.569 20.891,44.2 19.923,44.604C17.875,45.463 14.213,44.843 13.333,44.86C13.425,44.467 11.997,42.91 14.309,41.939C15.274,41.535 16.696,41.507 17.482,41.88Z" fill="#FF3E6A"/>
<path d="M14.439,42.525C15.407,42.118 16.826,42.093 17.612,42.463C17.746,42.528 17.847,42.601 17.926,42.676C18.066,42.385 17.929,42.087 17.48,41.874C16.694,41.501 15.275,41.529 14.307,41.936C12.755,42.587 12.887,43.501 13.114,44.149C13.078,43.605 13.316,42.996 14.439,42.525Z" fill="#FF80A1"/>
<path d="M38.436,43.415C38.702,43.962 38.997,44.708 38.946,44.958C38.91,45.152 38.043,45.25 37.748,45.424C38.736,45.168 40.212,44.916 40.98,44.896C41.634,44.879 41.873,45.729 41.811,45.988C41.749,46.246 41.483,46.874 40.646,47.205C38.192,48.176 34.255,47.772 33.184,47.124C32.656,46.669 32.538,45.962 32.693,45.227C32.788,44.784 33.649,43.875 34.152,43.572C35.798,42.486 38.043,42.607 38.436,43.415Z" fill="#B4349D"/>
<path d="M38.437,43.016C38.681,43.552 38.804,43.855 38.757,44.102C38.72,44.293 38.055,44.829 37.778,45.002C38.703,44.742 41.01,43.675 41.237,44.391C41.408,44.935 41.568,45.628 41.509,45.883C41.45,46.139 40.968,46.565 40.485,46.767C38.437,47.626 33.684,47.244 33.336,46.871C33.098,46.506 32.901,45.589 33.056,44.859C33.148,44.422 33.477,44.113 33.544,43.76C35.09,42.674 38.078,42.225 38.437,43.016Z" fill="#D3114D"/>
<path d="M33.598,43.62C33.803,43.477 34.364,43.645 34.622,43.527L33.331,46.869C32.995,46.487 32.896,45.587 33.051,44.857C33.143,44.422 33.345,43.99 33.598,43.62Z" fill="#E51A4F"/>
<path d="M40.635,45.123C40.772,45.577 40.893,46.021 41.005,46.461C41.269,46.265 41.468,46.04 41.507,45.88C41.566,45.625 41.406,44.935 41.235,44.388C41.162,44.161 40.82,44.256 40.396,44.402C40.478,44.64 40.559,44.882 40.635,45.123Z" fill="#E51A4F"/>
<path d="M37.972,42.613C38.651,42.936 38.632,43.45 37.992,43.845C38.918,43.584 40.068,43.607 40.747,43.929C41.533,44.302 41.384,44.934 40.416,45.341C38.368,46.199 34.701,45.579 33.817,45.596C33.91,45.203 32.482,43.643 34.797,42.672C35.765,42.266 37.187,42.24 37.972,42.613Z" fill="#FF3E6A"/>
<path d="M34.927,43.257C35.895,42.85 37.317,42.822 38.103,43.196C38.237,43.26 38.338,43.333 38.417,43.409C38.557,43.117 38.42,42.82 37.971,42.606C37.185,42.233 35.763,42.261 34.795,42.668C33.244,43.319 33.375,44.234 33.603,44.884C33.566,44.337 33.805,43.729 34.927,43.257Z" fill="#FF80A1"/>
<path d="M16.725,40.803C16.731,40.87 16.571,40.94 16.366,40.963C16.161,40.985 15.987,40.949 15.982,40.881C15.976,40.814 16.136,40.744 16.341,40.721C16.546,40.699 16.719,40.735 16.725,40.803Z" fill="#B4349D"/>
<path d="M16.519,40.717C16.544,40.756 16.499,40.829 16.421,40.885C16.339,40.938 16.255,40.952 16.227,40.913L8.195,28.967C8.169,28.928 8.214,28.855 8.293,28.799C8.374,28.745 8.458,28.731 8.486,28.771L16.519,40.717Z" fill="#2C8CFF"/>
<path d="M16.356,40.754C16.373,40.779 16.367,40.815 16.339,40.832C16.314,40.849 16.277,40.843 16.26,40.815L8.756,29.66C8.739,29.635 8.744,29.599 8.772,29.582C8.798,29.565 8.834,29.571 8.851,29.599L16.356,40.754Z" fill="#92C8FC"/>
<path d="M6.114,24.573L7.595,25.42L9.133,24.682C9.756,24.385 10.143,24.688 10.002,25.364L9.655,27.033L10.833,28.268C11.31,28.767 11.139,29.23 10.454,29.306L8.757,29.491L7.946,30.992C7.618,31.598 7.124,31.581 6.841,30.953L6.142,29.396L4.464,29.09C3.785,28.966 3.651,28.49 4.161,28.027L5.426,26.882L5.199,25.19C5.107,24.506 5.516,24.231 6.114,24.573Z" fill="#FF7935"/>
<g opacity="0.5">
<path d="M7.877,28.793C7.74,29.172 7.627,29.573 7.56,29.968C7.529,30.165 7.588,30.426 7.42,30.577C7.218,30.757 7.041,30.395 6.965,30.246C6.811,29.943 6.744,29.584 6.53,29.312C6.281,28.995 5.981,29.051 5.624,29.017C5.417,28.998 5.231,28.956 5.029,28.919C4.858,28.888 4.524,28.953 4.404,28.787C4.275,28.605 4.684,28.31 4.797,28.215C5.041,28.016 5.268,27.789 5.506,27.584C5.663,27.452 5.966,27.286 6.017,27.082C6.07,26.863 6.025,26.509 6,26.285C5.966,25.982 5.849,25.682 5.77,25.387C5.689,25.09 5.692,24.91 6.039,25.064C6.368,25.21 6.668,25.426 6.957,25.637C7.282,25.875 7.611,26.021 7.978,25.808C8.186,25.687 8.41,25.611 8.629,25.516C8.792,25.446 9.05,25.275 9.235,25.297C9.502,25.331 9.271,25.659 9.184,25.783C8.994,26.049 8.823,26.327 8.66,26.61C8.567,26.773 8.449,26.924 8.385,27.098C8.326,27.253 8.348,27.407 8.312,27.57C8.225,27.943 8.071,28.294 7.933,28.65C7.914,28.695 7.894,28.745 7.877,28.793Z" fill="#FFA98D"/>
</g>
<path d="M5.885,26.992C5.829,27.13 5.719,27.242 5.56,27.343C5.012,27.694 4.625,28.19 4.123,28.594C4.042,28.457 4.221,28.288 4.32,28.199C4.684,27.868 5.038,27.52 5.411,27.203C5.719,26.942 5.63,26.7 5.588,26.344C5.548,26.021 5.506,25.699 5.459,25.379C5.447,25.306 5.439,25.23 5.428,25.157C5.408,25.017 5.391,24.787 5.526,24.697C5.56,24.818 5.546,24.978 5.565,25.11C5.588,25.256 5.616,25.401 5.638,25.547C5.689,25.892 5.801,26.195 5.893,26.529C5.944,26.709 5.938,26.86 5.885,26.992Z" fill="#FFA98D"/>
<path d="M8.584,29.186C8.71,29.113 8.868,29.088 9.056,29.102C9.704,29.152 10.312,28.992 10.958,28.973C10.938,29.133 10.697,29.158 10.562,29.169C10.074,29.211 9.58,29.276 9.092,29.304C8.688,29.326 8.615,29.573 8.433,29.882C8.267,30.162 8.11,30.446 7.95,30.729C7.914,30.793 7.877,30.858 7.841,30.923C7.771,31.043 7.647,31.24 7.484,31.231C7.529,31.116 7.639,30.995 7.7,30.88C7.771,30.751 7.835,30.617 7.908,30.488C8.076,30.182 8.169,29.873 8.298,29.551C8.365,29.374 8.461,29.259 8.584,29.186Z" fill="#FF4D36"/>
<path d="M8.576,25.292C8.669,25.249 8.759,25.21 8.854,25.171C9.101,25.064 9.297,24.944 9.567,24.904C9.676,24.888 10.019,24.829 9.794,24.686C9.499,24.498 9.023,24.826 8.784,24.966C8.602,25.073 8.405,25.16 8.217,25.258C8.164,25.286 7.634,25.51 7.71,25.567C7.841,25.665 8.085,25.53 8.212,25.468C8.33,25.404 8.453,25.348 8.576,25.292Z" fill="#FFA98D"/>
<path d="M6.699,29.979C6.744,30.068 6.789,30.158 6.833,30.248C6.954,30.486 7.03,30.705 7.209,30.907C7.282,30.991 7.51,31.252 7.243,31.219C6.898,31.174 6.741,30.615 6.645,30.357C6.575,30.158 6.48,29.965 6.396,29.768C6.373,29.715 6.107,29.201 6.202,29.207C6.368,29.218 6.469,29.476 6.525,29.605C6.581,29.735 6.64,29.858 6.699,29.979Z" fill="#FFA98D"/>
<path d="M9.759,25.907C9.734,26.006 9.709,26.101 9.686,26.199C9.622,26.46 9.535,26.673 9.54,26.946C9.543,27.058 9.54,27.403 9.361,27.204C9.128,26.943 9.375,26.418 9.473,26.163C9.549,25.966 9.602,25.759 9.669,25.554C9.686,25.498 9.824,24.937 9.891,25.001C10.009,25.116 9.916,25.38 9.874,25.512C9.829,25.647 9.793,25.776 9.759,25.907Z" fill="#FF4D36"/>
<path d="M41.69,36.886C41.69,36.953 41.525,37.009 41.317,37.009C41.11,37.012 40.941,36.958 40.941,36.891C40.941,36.824 41.107,36.768 41.315,36.768C41.522,36.765 41.69,36.818 41.69,36.886Z" fill="#B4349D"/>
<path d="M41.52,36.926C41.508,36.971 41.424,36.991 41.329,36.968C41.233,36.949 41.166,36.893 41.175,36.848L44.297,22.798C44.308,22.753 44.393,22.733 44.488,22.755C44.583,22.778 44.651,22.831 44.642,22.876L41.52,36.926Z" fill="#2C8CFF"/>
<path d="M41.38,36.837C41.374,36.868 41.343,36.888 41.312,36.882C41.282,36.877 41.262,36.846 41.268,36.815L44.183,23.69C44.188,23.66 44.219,23.64 44.25,23.645C44.281,23.651 44.3,23.682 44.295,23.713L41.38,36.837Z" fill="#92C8FC"/>
<path d="M46.053,18.264L46.457,19.922L48.054,20.528C48.699,20.772 48.747,21.266 48.16,21.627L46.71,22.525L46.626,24.228C46.592,24.916 46.137,25.115 45.613,24.669L44.311,23.566L42.664,24.015C41.999,24.195 41.671,23.824 41.932,23.187L42.577,21.608L41.643,20.18C41.264,19.602 41.517,19.175 42.204,19.229L43.904,19.355L44.973,18.025C45.408,17.486 45.891,17.593 46.053,18.264Z" fill="#FF357A"/>
<g opacity="0.5">
<path d="M44.207,22.449C43.837,22.609 43.469,22.805 43.138,23.029C42.975,23.142 42.827,23.363 42.602,23.346C42.333,23.324 42.473,22.945 42.529,22.788C42.644,22.468 42.858,22.171 42.908,21.829C42.967,21.43 42.717,21.251 42.499,20.97C42.369,20.807 42.274,20.642 42.162,20.471C42.066,20.325 41.789,20.128 41.828,19.926C41.87,19.708 42.367,19.8 42.513,19.817C42.827,19.856 43.147,19.865 43.461,19.896C43.666,19.918 43.994,20.025 44.176,19.918C44.37,19.806 44.597,19.531 44.743,19.357C44.939,19.124 45.077,18.832 45.234,18.571C45.394,18.308 45.526,18.184 45.655,18.543C45.775,18.883 45.826,19.247 45.874,19.604C45.924,20.005 46.045,20.342 46.452,20.462C46.682,20.53 46.892,20.639 47.111,20.732C47.274,20.802 47.577,20.869 47.686,21.021C47.846,21.237 47.448,21.296 47.299,21.318C46.976,21.363 46.656,21.43 46.339,21.509C46.157,21.554 45.969,21.573 45.795,21.646C45.641,21.711 45.545,21.834 45.402,21.918C45.074,22.112 44.712,22.241 44.359,22.387C44.303,22.407 44.255,22.426 44.207,22.449Z" fill="#FF8DCD"/>
</g>
<path d="M44.144,19.763C44.006,19.816 43.847,19.813 43.664,19.771C43.033,19.617 42.407,19.676 41.768,19.592C41.812,19.438 42.057,19.452 42.188,19.463C42.679,19.499 43.173,19.516 43.661,19.569C44.065,19.614 44.178,19.381 44.405,19.106C44.612,18.857 44.814,18.601 45.016,18.349C45.064,18.29 45.109,18.234 45.157,18.175C45.244,18.066 45.398,17.894 45.558,17.928C45.496,18.035 45.37,18.136 45.289,18.24C45.196,18.357 45.112,18.478 45.019,18.596C44.803,18.871 44.66,19.16 44.483,19.457C44.388,19.611 44.276,19.712 44.144,19.763Z" fill="#FF8DCD"/>
<path d="M44.41,23.23C44.55,23.272 44.676,23.367 44.797,23.513C45.207,24.018 45.742,24.346 46.2,24.801C46.071,24.896 45.885,24.739 45.784,24.649C45.417,24.324 45.03,24.012 44.673,23.676C44.379,23.398 44.149,23.513 43.801,23.594C43.484,23.667 43.17,23.749 42.855,23.83C42.783,23.85 42.71,23.866 42.639,23.883C42.505,23.917 42.278,23.962 42.171,23.838C42.286,23.791 42.449,23.785 42.575,23.751C42.718,23.712 42.858,23.667 43.004,23.631C43.341,23.541 43.63,23.398 43.952,23.269C44.124,23.202 44.275,23.19 44.41,23.23Z" fill="#E51A4F"/>
<path d="M47.228,20.539C47.32,20.579 47.413,20.618 47.505,20.657C47.752,20.764 47.974,20.823 48.187,20.988C48.274,21.056 48.552,21.263 48.501,21.002C48.434,20.66 47.867,20.539 47.604,20.464C47.402,20.405 47.202,20.323 47,20.253C46.944,20.234 46.414,20.004 46.428,20.096C46.448,20.259 46.714,20.343 46.846,20.391C46.978,20.438 47.104,20.489 47.228,20.539Z" fill="#FF8DCD"/>
<path d="M42.537,22.412C42.503,22.504 42.466,22.6 42.433,22.695C42.343,22.948 42.236,23.152 42.214,23.422C42.205,23.534 42.169,23.876 42.012,23.663C41.807,23.382 42.102,22.883 42.225,22.636C42.32,22.448 42.393,22.246 42.48,22.05C42.503,21.996 42.694,21.449 42.755,21.522C42.862,21.649 42.744,21.901 42.688,22.03C42.635,22.159 42.584,22.285 42.537,22.412Z" fill="#FF8DCD"/>
<path d="M47.596,21.824C47.509,21.872 47.422,21.922 47.332,21.973C47.099,22.104 46.883,22.189 46.689,22.379C46.611,22.458 46.358,22.694 46.378,22.43C46.406,22.082 46.956,21.9 47.211,21.793C47.405,21.712 47.596,21.608 47.786,21.515C47.84,21.49 48.339,21.201 48.339,21.294C48.336,21.459 48.081,21.571 47.958,21.633C47.837,21.695 47.716,21.759 47.596,21.824Z" fill="#E51A4F"/>
<path d="M55.125,41.831C55.12,41.938 54.814,42.011 54.443,41.994C54.073,41.977 53.776,41.876 53.781,41.767C53.787,41.66 54.093,41.587 54.463,41.604C54.833,41.624 55.131,41.725 55.125,41.831Z" fill="#B4349D"/>
<path d="M54.501,41.819C54.481,41.881 54.363,41.898 54.234,41.856C54.105,41.817 54.018,41.735 54.038,41.673L59.997,22.677C60.017,22.615 60.134,22.598 60.263,22.64C60.393,22.68 60.48,22.761 60.46,22.823L54.501,41.819Z" fill="url(#pf_0_338_636)"/>
<path d="M54.318,41.673C54.304,41.715 54.26,41.737 54.22,41.726C54.178,41.712 54.156,41.667 54.167,41.625L59.733,23.882C59.747,23.84 59.792,23.818 59.831,23.829C59.873,23.843 59.896,23.888 59.885,23.93L54.318,41.673Z" fill="#BEF3E6"/>
<path d="M62.954,16.632L63.316,18.964L65.442,19.988C66.301,20.4 66.309,21.085 65.459,21.517L63.352,22.583L63.038,24.923C62.912,25.868 62.261,26.087 61.59,25.411L59.927,23.739L57.604,24.163C56.666,24.334 56.257,23.784 56.692,22.936L57.769,20.835L56.65,18.756C56.198,17.917 56.594,17.359 57.536,17.51L59.865,17.886L61.495,16.181C62.154,15.485 62.808,15.69 62.954,16.632Z" fill="#355EFF"/>
<g opacity="0.5">
<path d="M59.915,22.18C59.388,22.357 58.855,22.582 58.372,22.854C58.134,22.988 57.901,23.277 57.595,23.227C57.227,23.165 57.466,22.657 57.561,22.447C57.758,22.018 58.086,21.636 58.195,21.17C58.322,20.626 58.002,20.351 57.732,19.936C57.575,19.695 57.46,19.456 57.326,19.209C57.211,18.999 56.852,18.693 56.93,18.421C57.014,18.126 57.688,18.311 57.887,18.354C58.313,18.443 58.754,18.491 59.183,18.575C59.461,18.629 59.904,18.814 60.165,18.693C60.445,18.561 60.791,18.208 61.009,17.989C61.307,17.691 61.531,17.304 61.778,16.965C62.031,16.62 62.227,16.468 62.359,16.976C62.485,17.456 62.513,17.966 62.533,18.46C62.558,19.018 62.682,19.498 63.229,19.711C63.537,19.832 63.812,20.006 64.107,20.163C64.323,20.278 64.73,20.407 64.864,20.629C65.058,20.946 64.502,20.982 64.295,20.994C63.843,21.019 63.394,21.072 62.948,21.142C62.693,21.182 62.429,21.187 62.182,21.269C61.963,21.339 61.817,21.496 61.61,21.597C61.133,21.827 60.619,21.962 60.117,22.119C60.053,22.135 59.983,22.158 59.915,22.18Z" fill="#8DBAFF"/>
</g>
<path d="M60.143,18.474C59.947,18.53 59.728,18.511 59.484,18.427C58.631,18.14 57.761,18.149 56.892,17.955C56.97,17.748 57.304,17.798 57.489,17.826C58.16,17.936 58.841,18.014 59.506,18.146C60.056,18.253 60.239,17.947 60.587,17.596C60.904,17.276 61.212,16.951 61.521,16.623C61.591,16.547 61.664,16.474 61.734,16.398C61.869,16.258 62.102,16.039 62.315,16.106C62.217,16.247 62.029,16.37 61.905,16.505C61.765,16.656 61.633,16.813 61.493,16.962C61.162,17.316 60.932,17.697 60.651,18.084C60.497,18.295 60.331,18.421 60.143,18.474Z" fill="#8DBAFF"/>
<path d="M60.1,23.283C60.29,23.356 60.453,23.505 60.599,23.718C61.104,24.461 61.803,24.98 62.383,25.659C62.195,25.777 61.96,25.536 61.831,25.401C61.362,24.91 60.866,24.433 60.414,23.928C60.041,23.51 59.71,23.645 59.221,23.715C58.775,23.779 58.332,23.852 57.889,23.928C57.788,23.945 57.684,23.962 57.583,23.979C57.392,24.01 57.075,24.043 56.943,23.861C57.106,23.808 57.331,23.822 57.51,23.791C57.712,23.754 57.911,23.709 58.113,23.673C58.59,23.591 59.003,23.426 59.463,23.286C59.71,23.21 59.917,23.21 60.1,23.283Z" fill="#234FDB"/>
<path d="M64.301,19.908C64.425,19.973 64.548,20.037 64.672,20.102C65,20.276 65.3,20.385 65.575,20.641C65.687,20.745 66.046,21.064 66.007,20.697C65.957,20.217 65.188,19.984 64.832,19.847C64.56,19.743 64.296,19.605 64.026,19.485C63.954,19.451 63.249,19.07 63.255,19.201C63.263,19.429 63.62,19.577 63.796,19.659C63.965,19.74 64.133,19.821 64.301,19.908Z" fill="#8DBAFF"/>
<path d="M57.614,21.934C57.555,22.06 57.497,22.187 57.44,22.313C57.286,22.652 57.115,22.919 57.053,23.289C57.028,23.441 56.938,23.912 56.745,23.595C56.495,23.183 56.961,22.532 57.16,22.206C57.311,21.956 57.438,21.687 57.581,21.429C57.62,21.359 57.945,20.627 58.021,20.733C58.153,20.921 57.96,21.252 57.87,21.423C57.777,21.595 57.696,21.763 57.614,21.934Z" fill="#8DBAFF"/>
<path d="M64.656,21.722C64.53,21.779 64.404,21.837 64.275,21.896C63.938,22.053 63.632,22.143 63.343,22.382C63.226,22.48 62.85,22.777 62.909,22.413C62.987,21.936 63.767,21.748 64.132,21.633C64.41,21.543 64.682,21.422 64.957,21.318C65.032,21.29 65.756,20.951 65.742,21.08C65.72,21.307 65.355,21.433 65.175,21.504C65.002,21.574 64.828,21.647 64.656,21.722Z" fill="#234FDB"/>
<path d="M34.685,39.276C34.09,39.265 33.504,39.397 32.954,39.624C32.704,39.728 32.037,40.008 32.143,40.376C32.194,40.558 32.365,40.592 32.511,40.67C32.769,40.811 33.021,40.923 33.285,41.041C33.712,41.234 34.203,41.529 34.694,41.383C34.89,41.324 35.064,41.195 35.257,41.133C35.429,41.077 35.645,41.088 35.827,41.086C36.436,41.08 37.067,41.069 37.603,40.746C38.057,40.471 37.648,40.135 37.336,39.955C36.548,39.506 35.574,39.293 34.685,39.276Z" fill="#B4349D"/>
<path d="M37.056,4.3C36.946,4.869 36.595,5.531 36.234,5.977C35.686,6.648 34.575,7.218 33.922,6.356C33.397,5.666 33.56,4.589 33.77,3.814C33.953,3.152 34.152,2.499 34.244,1.817C34.317,1.27 34.289,0.709 34.387,0.167C34.62,-1.146 35.636,-0.189 36.082,0.47C36.826,1.564 37.311,2.97 37.056,4.3Z" fill="url(#pf_0_338_648)"/>
<g opacity="0.4">
<path d="M36.842,4.253C36.747,4.595 36.59,4.923 36.416,5.232C36.121,5.756 35.857,6.163 35.265,6.376C34.861,6.522 34.446,6.374 34.126,6.107C33.229,5.355 33.916,4.062 34.191,3.181C34.267,2.94 34.362,2.524 34.55,2.348C34.601,2.538 34.707,3.374 34.934,3.419C35.265,3.484 35.249,2.609 35.277,2.421C35.35,2.474 35.445,2.687 35.54,2.667C35.678,2.639 35.655,2.286 35.655,2.193C35.661,1.952 35.669,1.714 35.633,1.475C35.599,1.259 35.54,1.046 35.557,0.824C35.807,0.858 35.961,1.607 36.045,1.823C36.13,2.042 36.205,2.258 36.273,2.482C36.315,2.614 36.326,2.822 36.407,2.926C36.421,2.867 36.461,2.586 36.531,2.578C36.609,2.566 36.632,2.799 36.66,2.855C36.699,2.816 36.73,2.743 36.775,2.701C36.881,2.979 36.918,3.24 36.932,3.537C36.943,3.781 36.907,4.023 36.842,4.253Z" fill="#FFFFFF"/>
</g>
<path d="M34.784,8.4C34.75,8.35 33.982,7.121 34.913,5.039L35.168,5.154C34.302,7.084 35.011,8.235 35.017,8.249L34.784,8.4Z" fill="#F5D1F7"/>
<path d="M37.604,40.276C37.604,40.641 36.788,40.832 35.228,40.801C34.998,40.795 34.313,41.266 34.064,41.118C33.087,40.534 32.296,40.638 32.296,40.276C32.296,39.224 32.291,38.172 32.293,37.123C32.296,34.592 32.274,32.059 32.291,29.528C32.31,26.515 32.232,23.496 32.288,20.483C32.333,17.994 32.148,15.472 32.291,12.995C32.333,12.274 32.364,11.466 32.305,10.759C32.181,9.319 34.266,7.246 35.761,8.144C36.578,8.635 37.414,9.311 37.571,10.293C37.672,10.927 37.568,11.884 37.59,12.535C37.675,14.914 37.635,17.318 37.607,19.7C37.543,25.277 37.61,30.858 37.604,36.435C37.599,37.715 37.604,38.997 37.604,40.276Z" fill="#FF7935"/>
<path d="M37.621,18.248C37.616,18.73 37.61,19.213 37.605,19.696C37.599,20.187 37.599,20.675 37.596,21.166C37.231,22.167 36.499,23.34 35.001,24.117C33.598,24.844 32.762,25.486 32.28,26.196C32.274,25.256 32.268,24.314 32.266,23.374C32.745,22.653 33.584,22.007 35.001,21.272C36.536,20.478 37.265,19.263 37.621,18.248ZM35.001,37.545C33.609,38.266 32.776,38.9 32.294,39.604C32.294,39.826 32.294,40.05 32.294,40.272C32.294,40.6 33.029,40.631 33.952,41.049C34.294,40.827 34.547,40.62 35.001,40.384C36.508,39.604 37.24,38.42 37.602,37.416C37.602,37.087 37.599,36.756 37.602,36.428C37.602,35.814 37.599,35.196 37.599,34.582C37.234,35.589 36.502,36.768 35.001,37.545ZM35.001,10.426C33.629,11.136 32.801,11.764 32.313,12.457C32.305,12.637 32.296,12.816 32.285,12.99C32.238,13.795 32.229,14.606 32.232,15.42C32.706,14.679 33.551,14.02 34.998,13.268C36.474,12.502 37.203,11.355 37.574,10.364C37.571,10.339 37.568,10.314 37.565,10.288C37.478,9.747 37.184,9.304 36.802,8.928C36.381,9.48 35.801,10.011 35.001,10.426ZM35.001,15.849C33.59,16.581 32.751,17.224 32.271,17.942C32.288,18.789 32.299,19.637 32.282,20.481C32.28,20.576 32.282,20.675 32.28,20.77C32.762,20.057 33.598,19.418 34.998,18.691C36.555,17.883 37.285,16.646 37.635,15.622C37.635,14.71 37.624,13.798 37.596,12.892C37.231,13.894 36.502,15.072 35.001,15.849ZM35.001,32.122C33.604,32.845 32.768,33.485 32.285,34.195C32.288,35.14 32.291,36.086 32.291,37.031C32.773,36.324 33.607,35.687 35.001,34.966C36.499,34.189 37.229,33.017 37.593,32.018C37.591,31.078 37.588,30.141 37.585,29.201C37.217,30.191 36.485,31.353 35.001,32.122ZM37.577,23.792C37.206,24.782 36.477,25.932 34.998,26.698C33.601,27.422 32.768,28.062 32.285,28.769C32.285,29.021 32.288,29.274 32.285,29.526C32.28,30.222 32.282,30.918 32.282,31.614C32.765,30.904 33.601,30.267 34.998,29.54C36.477,28.774 37.206,27.621 37.577,26.631C37.577,25.685 37.577,24.737 37.577,23.792Z" fill="#FFC635"/>
<g opacity="0.5">
<path d="M33.85,40.027C33.85,40.299 33.631,40.518 33.359,40.518C33.087,40.518 32.868,40.299 32.868,40.027L32.868,11.059C32.868,10.787 33.087,10.568 33.359,10.568C33.631,10.568 33.85,10.787 33.85,11.059L33.85,40.027Z" fill="#FFFFFF"/>
</g>
<g opacity="0.1">
<path d="M37.288,40.027C37.288,40.299 37.069,40.518 36.797,40.518C36.525,40.518 36.306,40.299 36.306,40.027L36.306,11.059C36.306,10.787 36.525,10.568 36.797,10.568C37.069,10.568 37.288,10.787 37.288,11.059L37.288,40.027Z" fill="url(#pf_0_338_656)"/>
</g>
<g opacity="0.5">
<path d="M35.343,9.473C35.228,9.49 35.119,9.515 35.02,9.549C35.559,9.176 35.856,8.71 35.705,8.401C35.52,8.023 34.729,8.028 33.94,8.415C33.152,8.803 32.664,9.425 32.849,9.804C33.031,10.177 33.797,10.177 34.571,9.81C34.501,9.888 34.462,9.97 34.473,10.054C34.507,10.301 34.953,10.447 35.469,10.374C35.985,10.304 36.375,10.043 36.339,9.796C36.302,9.546 35.856,9.403 35.343,9.473Z" fill="#FFFFFF"/>
</g>
<path d="M34.539,7.7C34.492,7.599 34.48,7.413 34.469,7.298C34.45,7.082 34.455,6.883 34.458,6.667C34.461,6.361 34.478,6.05 34.525,5.747C34.576,5.427 34.638,5.045 34.828,4.773C35.042,4.47 35.437,4.829 35.375,5.116C35.347,5.247 35.263,5.371 35.202,5.492C35.089,5.713 34.946,5.938 34.851,6.168C34.767,6.375 34.8,6.647 34.797,6.869C34.797,6.945 34.786,7.2 34.795,7.601C34.705,7.551 34.685,6.785 34.682,6.69C34.573,6.782 34.576,7.037 34.562,7.172C34.556,7.276 34.612,7.635 34.539,7.7Z" fill="#180A19"/>
<path d="M31.706,38.763C31.465,39.092 30.443,39.274 29.425,39.167C28.407,39.061 27.778,38.71 28.019,38.382C28.261,38.053 29.282,37.871 30.3,37.978C31.319,38.084 31.947,38.435 31.706,38.763Z" fill="#B4349D"/>
<path d="M31.525,38.652C31.283,38.926 30.646,39.151 29.418,39.044C28.5,38.966 28.029,38.694 28.105,38.337C28.135,38.189 28.234,37.987 28.368,37.832C28.741,37.406 30.512,37.843 31.328,37.928C31.328,37.928 31.564,38.278 31.581,38.508C31.583,38.556 31.567,38.604 31.525,38.652Z" fill="#1290DD"/>
<path d="M30.696,37.836C30.267,37.766 29.767,37.684 29.338,37.656C29.17,38.091 28.979,38.518 28.785,38.941C28.965,38.986 29.172,39.023 29.416,39.045C30.233,39.115 30.786,39.037 31.136,38.899C30.979,38.546 30.83,38.192 30.696,37.836Z" fill="#0A87C6"/>
<path d="M31.304,38.133C31.091,38.375 30.26,38.504 29.45,38.42C28.639,38.335 28.153,38.072 28.367,37.828C28.58,37.586 29.41,37.457 30.221,37.541C31.032,37.626 31.517,37.892 31.304,38.133Z" fill="#30C0FD"/>
<path d="M28.619,37.932C28.813,37.711 29.573,37.593 30.314,37.668C30.898,37.727 31.29,37.89 31.338,38.064C31.417,37.842 30.954,37.618 30.219,37.539C29.408,37.455 28.577,37.584 28.364,37.826C28.199,38.014 28.459,38.216 28.964,38.336C28.642,38.23 28.493,38.078 28.619,37.932Z" fill="#5FD6FF"/>
<path d="M45.827,40.229C45.661,40.436 44.991,40.532 44.329,40.436C43.666,40.344 43.265,40.1 43.431,39.889C43.596,39.682 44.267,39.586 44.929,39.682C45.591,39.777 45.995,40.021 45.827,40.229Z" fill="#B4349D"/>
<path d="M45.711,40.149C45.548,40.323 45.124,40.455 44.325,40.356C43.727,40.283 43.427,40.093 43.486,39.863C43.511,39.764 43.578,39.635 43.671,39.54C43.923,39.271 45.068,39.599 45.601,39.675C45.601,39.675 45.747,39.91 45.753,40.059C45.753,40.09 45.739,40.121 45.711,40.149Z" fill="#DD4B12"/>
<path d="M45.191,39.598C44.91,39.542 44.59,39.477 44.31,39.449C44.189,39.73 44.054,40.002 43.917,40.274C44.032,40.308 44.169,40.336 44.327,40.355C44.86,40.42 45.222,40.383 45.454,40.302C45.359,40.069 45.272,39.834 45.191,39.598Z" fill="#C63C0A"/>
<path d="M45.582,39.81C45.436,39.964 44.892,40.026 44.365,39.953C43.837,39.88 43.526,39.695 43.672,39.541C43.818,39.386 44.362,39.325 44.889,39.398C45.417,39.471 45.725,39.656 45.582,39.81Z" fill="#FD6330"/>
<path d="M43.834,39.612C43.966,39.472 44.466,39.413 44.945,39.48C45.324,39.533 45.577,39.648 45.605,39.763C45.661,39.62 45.366,39.463 44.886,39.396C44.359,39.323 43.815,39.385 43.669,39.539C43.557,39.659 43.722,39.797 44.048,39.887C43.843,39.808 43.747,39.704 43.834,39.612Z" fill="#FF845F"/>
<path d="M33.648,42.572C33.524,42.729 33.022,42.797 32.528,42.729C32.035,42.659 31.734,42.477 31.858,42.32C31.981,42.163 32.483,42.095 32.977,42.163C33.474,42.233 33.774,42.415 33.648,42.572Z" fill="#B4349D"/>
<path d="M33.561,42.513C33.438,42.642 33.124,42.74 32.526,42.667C32.08,42.611 31.856,42.471 31.898,42.3C31.917,42.227 31.968,42.132 32.035,42.059C32.226,41.857 33.079,42.104 33.477,42.16C33.477,42.16 33.587,42.336 33.589,42.446C33.592,42.468 33.584,42.491 33.561,42.513Z" fill="#DD1292"/>
<path d="M33.173,42.101C32.965,42.058 32.724,42.011 32.513,41.988C32.424,42.196 32.323,42.401 32.219,42.606C32.306,42.631 32.407,42.653 32.525,42.667C32.923,42.718 33.192,42.69 33.366,42.628C33.296,42.454 33.232,42.277 33.173,42.101Z" fill="#C60A87"/>
<path d="M33.466,42.258C33.356,42.373 32.95,42.421 32.557,42.365C32.161,42.308 31.931,42.171 32.038,42.056C32.147,41.941 32.554,41.893 32.947,41.949C33.342,42.005 33.572,42.143 33.466,42.258Z" fill="#FD30C1"/>
<path d="M32.159,42.111C32.257,42.007 32.63,41.962 32.989,42.013C33.273,42.052 33.461,42.139 33.483,42.226C33.525,42.12 33.303,42.002 32.947,41.951C32.552,41.895 32.145,41.943 32.038,42.058C31.954,42.148 32.077,42.249 32.321,42.319C32.164,42.257 32.094,42.179 32.159,42.111Z" fill="#FF5FD7"/>
<path d="M20.048,40.558C19.897,40.777 19.235,40.917 18.567,40.87C17.899,40.822 17.484,40.606 17.633,40.387C17.784,40.168 18.446,40.028 19.114,40.076C19.782,40.123 20.2,40.339 20.048,40.558Z" fill="#B4349D"/>
<path d="M19.928,40.489C19.776,40.674 19.364,40.834 18.558,40.789C17.958,40.755 17.647,40.587 17.686,40.354C17.703,40.256 17.762,40.121 17.849,40.02C18.084,39.734 19.249,39.984 19.782,40.023C19.782,40.023 19.942,40.248 19.958,40.396C19.964,40.424 19.953,40.458 19.928,40.489Z" fill="#12DD7D"/>
<path d="M19.37,39.975C19.086,39.938 18.761,39.893 18.48,39.885C18.379,40.171 18.264,40.454 18.146,40.735C18.264,40.76 18.402,40.78 18.562,40.788C19.098,40.816 19.454,40.754 19.681,40.656C19.569,40.432 19.465,40.205 19.37,39.975Z" fill="#0AC666"/>
<path d="M19.773,40.158C19.639,40.321 19.1,40.422 18.57,40.383C18.04,40.344 17.717,40.181 17.849,40.018C17.981,39.855 18.522,39.754 19.052,39.794C19.585,39.833 19.908,39.996 19.773,40.158Z" fill="#30FD8B"/>
<path d="M18.018,40.081C18.141,39.932 18.632,39.839 19.117,39.873C19.499,39.901 19.76,39.999 19.794,40.112C19.841,39.966 19.535,39.828 19.053,39.792C18.523,39.752 17.981,39.853 17.849,40.016C17.745,40.142 17.919,40.269 18.253,40.336C18.04,40.277 17.939,40.179 18.018,40.081Z" fill="#5FFF9F"/>
<path d="M42.317,38.653C42.165,38.872 41.503,39.012 40.836,38.964C40.168,38.917 39.753,38.701 39.901,38.479C40.053,38.26 40.715,38.12 41.383,38.168C42.05,38.218 42.468,38.434 42.317,38.653Z" fill="#B4349D"/>
<path d="M42.197,38.585C42.045,38.77 41.633,38.93 40.828,38.885C40.227,38.851 39.916,38.683 39.958,38.45C39.975,38.352 40.034,38.217 40.121,38.116C40.356,37.83 41.521,38.08 42.054,38.119C42.054,38.119 42.216,38.343 42.23,38.492C42.233,38.52 42.222,38.551 42.197,38.585Z" fill="#1297DD"/>
<path d="M41.638,38.07C41.355,38.034 41.029,37.989 40.749,37.98C40.648,38.267 40.533,38.55 40.415,38.831C40.533,38.856 40.67,38.875 40.83,38.884C41.366,38.912 41.725,38.85 41.95,38.752C41.837,38.528 41.734,38.297 41.638,38.07Z" fill="#0A8CC6"/>
<path d="M42.042,38.252C41.907,38.415 41.369,38.516 40.838,38.477C40.308,38.437 39.986,38.275 40.117,38.112C40.249,37.949 40.791,37.848 41.321,37.887C41.854,37.927 42.177,38.089 42.042,38.252Z" fill="#30C8FD"/>
<path d="M40.286,38.174C40.41,38.026 40.901,37.933 41.386,37.967C41.767,37.995 42.028,38.093 42.062,38.205C42.11,38.059 41.804,37.922 41.321,37.885C40.791,37.846 40.25,37.947 40.118,38.11C40.014,38.236 40.188,38.362 40.522,38.43C40.309,38.368 40.208,38.273 40.286,38.174Z" fill="#5FDCFF"/>
<path d="M53.83,40.691C53.693,40.843 53.174,40.879 52.672,40.77C52.169,40.663 51.875,40.453 52.012,40.304C52.15,40.152 52.669,40.116 53.171,40.225C53.673,40.332 53.968,40.542 53.83,40.691Z" fill="#B4349D"/>
<path d="M53.743,40.624C53.609,40.748 53.278,40.826 52.672,40.708C52.217,40.619 51.998,40.459 52.055,40.285C52.08,40.212 52.139,40.116 52.212,40.046C52.419,39.853 53.281,40.167 53.682,40.251C53.682,40.251 53.78,40.439 53.777,40.554C53.78,40.579 53.769,40.602 53.743,40.624Z" fill="#C054DD"/>
<path d="M53.375,40.174C53.165,40.118 52.921,40.048 52.707,40.012C52.601,40.219 52.483,40.421 52.362,40.623C52.449,40.657 52.55,40.685 52.671,40.708C53.075,40.786 53.353,40.778 53.538,40.727C53.479,40.545 53.423,40.36 53.375,40.174Z" fill="#A645C6"/>
<path d="M53.663,40.357C53.545,40.466 53.124,40.486 52.723,40.402C52.322,40.318 52.094,40.158 52.215,40.048C52.336,39.939 52.754,39.919 53.155,40.003C53.556,40.09 53.783,40.247 53.663,40.357Z" fill="#D77BFD"/>
<path d="M52.335,40.112C52.445,40.011 52.829,39.994 53.194,40.073C53.48,40.134 53.668,40.235 53.685,40.325C53.735,40.219 53.517,40.081 53.155,40.005C52.753,39.921 52.333,39.941 52.215,40.05C52.122,40.134 52.243,40.249 52.487,40.336C52.333,40.263 52.265,40.176 52.335,40.112Z" fill="#E3ABFF"/>
<path d="M43.238,42.779C43.117,42.944 42.607,43.037 42.096,42.984C41.586,42.933 41.271,42.757 41.392,42.591C41.513,42.425 42.023,42.333 42.534,42.386C43.044,42.439 43.359,42.616 43.238,42.779Z" fill="#B4349D"/>
<path d="M43.145,42.721C43.024,42.859 42.704,42.974 42.087,42.923C41.627,42.884 41.391,42.749 41.428,42.57C41.444,42.494 41.492,42.393 41.559,42.317C41.745,42.104 42.634,42.32 43.044,42.362C43.044,42.362 43.161,42.539 43.173,42.651C43.175,42.674 43.167,42.699 43.145,42.721Z" fill="#C054DD"/>
<path d="M42.73,42.315C42.514,42.282 42.264,42.24 42.048,42.229C41.964,42.447 41.869,42.661 41.773,42.874C41.863,42.896 41.967,42.913 42.09,42.924C42.5,42.958 42.778,42.919 42.952,42.849C42.873,42.672 42.797,42.495 42.73,42.315Z" fill="#A645C6"/>
<path d="M43.036,42.463C42.929,42.584 42.514,42.651 42.107,42.609C41.701,42.567 41.456,42.435 41.563,42.315C41.67,42.194 42.085,42.127 42.492,42.169C42.899,42.211 43.143,42.343 43.036,42.463Z" fill="#D77BFD"/>
<path d="M41.69,42.366C41.788,42.254 42.167,42.195 42.54,42.231C42.832,42.259 43.028,42.341 43.053,42.428C43.092,42.316 42.86,42.203 42.492,42.167C42.085,42.125 41.67,42.192 41.563,42.313C41.479,42.408 41.611,42.509 41.866,42.568C41.701,42.518 41.628,42.442 41.69,42.366Z" fill="#E3ABFF"/>
<path d="M24.616,38.435C24.464,38.668 23.777,38.828 23.081,38.791C22.385,38.758 21.948,38.539 22.099,38.309C22.251,38.076 22.938,37.916 23.634,37.952C24.327,37.989 24.767,38.205 24.616,38.435Z" fill="#B4349D"/>
<path d="M24.487,38.37C24.333,38.563 23.909,38.74 23.071,38.712C22.445,38.692 22.117,38.524 22.153,38.277C22.17,38.173 22.229,38.033 22.313,37.923C22.552,37.62 23.769,37.853 24.325,37.881C24.325,37.881 24.499,38.111 24.518,38.266C24.524,38.302 24.513,38.336 24.487,38.37Z" fill="#DDB41F"/>
<path d="M23.894,37.844C23.6,37.814 23.26,37.774 22.966,37.771C22.868,38.072 22.753,38.369 22.635,38.664C22.758,38.689 22.901,38.706 23.067,38.711C23.625,38.731 23.995,38.658 24.231,38.549C24.113,38.316 24.001,38.08 23.894,37.844Z" fill="#C69E15"/>
<path d="M24.322,38.017C24.187,38.191 23.629,38.312 23.076,38.289C22.52,38.267 22.181,38.107 22.316,37.933C22.45,37.759 23.009,37.638 23.561,37.661C24.114,37.686 24.456,37.846 24.322,38.017Z" fill="#FDD03F"/>
<path d="M22.489,37.984C22.612,37.827 23.123,37.72 23.631,37.746C24.029,37.765 24.301,37.861 24.341,37.979C24.386,37.824 24.066,37.69 23.561,37.664C23.008,37.636 22.447,37.754 22.312,37.925C22.206,38.06 22.391,38.186 22.739,38.251C22.517,38.183 22.408,38.085 22.489,37.984Z" fill="#FFDB6E"/>
<path d="M22.5,42.806C22.366,42.989 21.793,43.09 21.227,43.028C20.657,42.966 20.306,42.77 20.444,42.587C20.579,42.405 21.151,42.304 21.718,42.366C22.287,42.425 22.638,42.621 22.5,42.806Z" fill="#B4349D"/>
<path d="M22.398,42.741C22.264,42.892 21.907,43.019 21.22,42.957C20.707,42.912 20.446,42.758 20.488,42.559C20.505,42.474 20.561,42.362 20.636,42.278C20.844,42.039 21.834,42.286 22.289,42.337C22.289,42.337 22.421,42.533 22.429,42.662C22.432,42.688 22.421,42.716 22.398,42.741Z" fill="#DDB41F"/>
<path d="M21.939,42.283C21.698,42.243 21.42,42.196 21.182,42.182C21.086,42.423 20.98,42.661 20.87,42.9C20.971,42.925 21.086,42.945 21.224,42.959C21.681,43.001 21.99,42.956 22.186,42.88C22.096,42.681 22.012,42.485 21.939,42.283Z" fill="#C69E15"/>
<path d="M22.278,42.447C22.16,42.584 21.698,42.657 21.243,42.612C20.789,42.568 20.516,42.422 20.637,42.284C20.755,42.147 21.218,42.074 21.672,42.119C22.124,42.164 22.396,42.312 22.278,42.447Z" fill="#FDD03F"/>
<path d="M20.777,42.336C20.887,42.212 21.31,42.148 21.726,42.193C22.051,42.226 22.27,42.319 22.298,42.417C22.343,42.294 22.085,42.167 21.672,42.122C21.218,42.075 20.755,42.145 20.634,42.279C20.542,42.386 20.688,42.498 20.968,42.566C20.791,42.501 20.707,42.414 20.777,42.336Z" fill="#FFDB6E"/>
<path d="M24.537,39.9C24.542,39.967 24.382,40.037 24.177,40.057C23.973,40.077 23.799,40.04 23.793,39.973C23.788,39.906 23.947,39.835 24.152,39.816C24.357,39.796 24.531,39.833 24.537,39.9Z" fill="#B4349D"/>
<path d="M24.407,39.886C24.41,39.939 24.326,39.987 24.214,39.998C24.104,40.007 24.009,39.97 24.006,39.92L22.006,15.957C22.003,15.904 22.087,15.856 22.2,15.845C22.309,15.837 22.404,15.873 22.407,15.924L24.407,39.886Z" fill="#2C8CFF"/>
<path d="M24.223,39.833C24.226,39.87 24.198,39.901 24.161,39.903C24.125,39.906 24.094,39.878 24.091,39.842L22.175,16.965C22.172,16.928 22.2,16.898 22.237,16.895C22.273,16.892 22.304,16.92 22.307,16.956L24.223,39.833Z" fill="#92C8FC"/>
<path d="M22.41,10.402L23.409,12.082L25.358,12.211C26.147,12.265 26.363,12.786 25.841,13.381L24.553,14.851L25.033,16.745C25.227,17.511 24.795,17.879 24.071,17.567L22.275,16.796L20.62,17.836C19.952,18.257 19.47,17.96 19.54,17.174L19.719,15.227L18.218,13.976C17.612,13.471 17.744,12.918 18.516,12.744L20.423,12.312L21.15,10.497C21.442,9.768 22.009,9.723 22.41,10.402Z" fill="#FFC635"/>
<g opacity="0.5">
<path d="M21.79,15.602C21.44,15.902 21.1,16.239 20.814,16.595C20.671,16.772 20.584,17.066 20.332,17.122C20.029,17.19 20.057,16.727 20.065,16.533C20.082,16.143 20.219,15.748 20.158,15.355C20.087,14.898 19.756,14.785 19.42,14.55C19.223,14.412 19.063,14.266 18.884,14.115C18.73,13.989 18.359,13.865 18.337,13.629C18.311,13.377 18.884,13.31 19.052,13.282C19.408,13.22 19.762,13.119 20.115,13.051C20.346,13.007 20.744,13.012 20.907,12.838C21.081,12.65 21.238,12.271 21.339,12.036C21.476,11.716 21.527,11.348 21.614,11.012C21.701,10.67 21.804,10.49 22.065,10.841C22.309,11.172 22.489,11.556 22.657,11.929C22.848,12.35 23.092,12.681 23.578,12.675C23.853,12.673 24.119,12.723 24.391,12.751C24.593,12.774 24.947,12.746 25.118,12.875C25.365,13.06 24.949,13.256 24.792,13.329C24.453,13.489 24.125,13.669 23.805,13.859C23.62,13.969 23.42,14.056 23.255,14.193C23.109,14.314 23.045,14.482 22.915,14.62C22.621,14.942 22.267,15.206 21.928,15.481C21.88,15.523 21.835,15.562 21.79,15.602Z" fill="#FFD78D"/>
</g>
<path d="M20.82,12.682C20.685,12.786 20.511,12.839 20.298,12.85C19.555,12.892 18.89,13.167 18.16,13.288C18.157,13.106 18.43,13.038 18.578,13.005C19.128,12.881 19.675,12.732 20.228,12.626C20.682,12.539 20.73,12.247 20.887,11.871C21.03,11.529 21.168,11.181 21.305,10.836C21.336,10.757 21.37,10.676 21.401,10.597C21.46,10.449 21.572,10.207 21.757,10.193C21.723,10.331 21.619,10.485 21.566,10.625C21.504,10.785 21.454,10.945 21.392,11.105C21.246,11.478 21.187,11.843 21.092,12.227C21.036,12.435 20.946,12.584 20.82,12.682Z" fill="#FFD78D"/>
<path d="M22.273,16.391C22.441,16.388 22.612,16.452 22.792,16.573C23.409,16.988 24.108,17.171 24.761,17.516C24.652,17.664 24.397,17.552 24.256,17.488C23.743,17.255 23.215,17.042 22.713,16.795C22.298,16.59 22.085,16.795 21.731,17C21.409,17.187 21.092,17.378 20.775,17.575C20.702,17.62 20.629,17.662 20.556,17.707C20.418,17.791 20.185,17.914 20.028,17.813C20.138,17.723 20.314,17.664 20.444,17.583C20.587,17.493 20.727,17.395 20.873,17.305C21.212,17.095 21.482,16.84 21.79,16.59C21.95,16.458 22.11,16.394 22.273,16.391Z" fill="#FFA536"/>
<path d="M24.458,12.501C24.573,12.512 24.688,12.523 24.803,12.537C25.109,12.571 25.372,12.559 25.661,12.672C25.782,12.717 26.152,12.851 26.009,12.582C25.821,12.228 25.159,12.287 24.845,12.293C24.604,12.296 24.357,12.273 24.115,12.265C24.048,12.262 23.391,12.186 23.434,12.285C23.512,12.456 23.829,12.461 23.989,12.467C24.149,12.475 24.303,12.487 24.458,12.501Z" fill="#FFD78D"/>
<path d="M19.945,16.122C19.939,16.237 19.934,16.353 19.928,16.468C19.914,16.776 19.864,17.034 19.931,17.337C19.959,17.464 20.035,17.851 19.788,17.668C19.468,17.43 19.625,16.785 19.679,16.473C19.718,16.235 19.732,15.988 19.763,15.747C19.771,15.679 19.796,15.017 19.886,15.076C20.046,15.18 19.998,15.494 19.984,15.654C19.965,15.814 19.953,15.968 19.945,16.122Z" fill="#FFD78D"/>
<path d="M25.291,13.785C25.209,13.867 25.131,13.951 25.052,14.035C24.842,14.259 24.634,14.422 24.485,14.694C24.424,14.807 24.227,15.152 24.163,14.851C24.076,14.461 24.617,14.074 24.861,13.875C25.046,13.721 25.22,13.544 25.4,13.378C25.45,13.334 25.902,12.848 25.93,12.952C25.984,13.134 25.742,13.342 25.627,13.451C25.509,13.564 25.4,13.673 25.291,13.785Z" fill="#FFA536"/>
<defs>
<radialGradient id="pf_0_338_338" cx="0" cy="0" r="1" gradientUnits="userSpaceOnUse" gradientTransform="matrix(15.343763 0 0 4.162487 17.04 39.12)">
<stop offset="0.356" stop-color="#000000"/>
<stop offset="0.426" stop-color="#050505"/>
<stop offset="0.506" stop-color="#121212"/>
<stop offset="0.59" stop-color="#292929"/>
<stop offset="0.678" stop-color="#494949"/>
<stop offset="0.768" stop-color="#727272"/>
<stop offset="0.861" stop-color="#A5A5A5"/>
<stop offset="0.954" stop-color="#DFDFDF"/>
<stop offset="1" stop-color="#FFFFFF"/>
</radialGradient>
<radialGradient id="pf_0_338_341" cx="0" cy="0" r="1" gradientUnits="userSpaceOnUse" gradientTransform="matrix(32.052286 0 0 32.052286 4.712 32.464)">
<stop stop-color="#D4B18E"/>
<stop offset="0.996" stop-color="#D7A763"/>
</radialGradient>
<linearGradient id="pf_0_338_342" x1="19.258" y1="64.973" x2="51.99" y2="68.131" gradientUnits="userSpaceOnUse">
<stop stop-color="#8E5D3F"/>
<stop offset="1" stop-color="#552F1C"/>
</linearGradient>
<linearGradient id="pf_0_338_343" x1="3.614" y1="63.154" x2="72.707" y2="63.154" gradientUnits="userSpaceOnUse">
<stop stop-color="#FFF5FE"/>
<stop offset="1" stop-color="#FDCCFC"/>
</linearGradient>
<linearGradient id="pf_0_338_344" x1="20.789" y1="75.154" x2="49.07" y2="78.025" gradientUnits="userSpaceOnUse">
<stop stop-color="#8E5D3F"/>
<stop offset="1" stop-color="#552F1C"/>
</linearGradient>
<linearGradient id="pf_0_338_345" x1="5.421" y1="74.06" x2="63.412" y2="74.06" gradientUnits="userSpaceOnUse">
<stop stop-color="#FFF5FE"/>
<stop offset="1" stop-color="#FDCCFC"/>
</linearGradient>
<linearGradient id="pf_0_338_352" x1="3.386" y1="47.276" x2="62.843" y2="67.986" gradientUnits="userSpaceOnUse">
<stop stop-color="#3D150B"/>
<stop offset="1" stop-color="#340D07"/>
</linearGradient>
<linearGradient id="pf_0_338_353" x1="33.9" y1="52.121" x2="39.888" y2="52.121" gradientUnits="userSpaceOnUse">
<stop offset="0.104" stop-color="#DD76CF"/>
<stop offset="0.996" stop-color="#CA51BA"/>
</linearGradient>
<linearGradient id="pf_0_338_354" x1="6.832" y1="58.921" x2="63.883" y2="58.921" gradientUnits="userSpaceOnUse">
<stop offset="0.213" stop-color="#C657B8"/>
<stop offset="0.301" stop-color="#B4349D"/>
</linearGradient>
<radialGradient id="pf_0_338_355" cx="0" cy="0" r="1" gradientUnits="userSpaceOnUse" gradientTransform="matrix(77.709665 0 0 77.709656 -33.654 -29.195)">
<stop offset="0.746" stop-color="#F6D4F8"/>
<stop offset="0.835" stop-color="#F5D2F7"/>
<stop offset="0.883" stop-color="#F4CAF4"/>
<stop offset="0.921" stop-color="#F1BCEE"/>
<stop offset="0.954" stop-color="#ECA9E5"/>
<stop offset="0.983" stop-color="#E790DB"/>
<stop offset="1" stop-color="#E37ED3"/>
</radialGradient>
<radialGradient id="pf_0_338_356" cx="0" cy="0" r="1" gradientUnits="userSpaceOnUse" gradientTransform="matrix(68.759159 0 0 65.564346 15.831 -40.351)">
<stop offset="0.87" stop-color="#F8ABEF"/>
<stop offset="0.907" stop-color="#F6A6EC"/>
<stop offset="0.949" stop-color="#F099E4"/>
<stop offset="0.992" stop-color="#E583D6"/>
<stop offset="1" stop-color="#E37ED3"/>
</radialGradient>
<radialGradient id="pf_0_338_357" cx="0" cy="0" r="1" gradientUnits="userSpaceOnUse" gradientTransform="matrix(4.822612 0 0 4.82261 29.835 27.44)">
<stop offset="0.536" stop-color="#CA51BA"/>
<stop offset="0.683" stop-color="#CD57BE"/>
<stop offset="0.885" stop-color="#D669C8"/>
<stop offset="1" stop-color="#DD76CF"/>
</radialGradient>
<radialGradient id="pf_0_338_358" cx="0" cy="0" r="1" gradientUnits="userSpaceOnUse" gradientTransform="matrix(3.805014 0 0 3.805014 25.887 27.585)">
<stop offset="0.647" stop-color="#CA51BA"/>
<stop offset="0.759" stop-color="#CD57BE"/>
<stop offset="0.913" stop-color="#D669C8"/>
<stop offset="1" stop-color="#DD76CF"/>
</radialGradient>
<radialGradient id="pf_0_338_359" cx="0" cy="0" r="1" gradientUnits="userSpaceOnUse" gradientTransform="matrix(4.742343 0 0 4.742342 7.009 27.154)">
<stop offset="0.536" stop-color="#DD76CF"/>
<stop offset="0.653" stop-color="#E07CD3"/>
<stop offset="0.813" stop-color="#E98EDD"/>
<stop offset="0.998" stop-color="#F8ABEF"/>
<stop offset="1" stop-color="#F8ABEF"/>
</radialGradient>
<radialGradient id="pf_0_338_360" cx="0" cy="0" r="1" gradientUnits="userSpaceOnUse" gradientTransform="matrix(6.349548 0 0 6.349547 15.12 26.938)">
<stop offset="0.536" stop-color="#DD76CF"/>
<stop offset="0.653" stop-color="#E07CD3"/>
<stop offset="0.813" stop-color="#E98EDD"/>
<stop offset="0.998" stop-color="#F8ABEF"/>
<stop offset="1" stop-color="#F8ABEF"/>
</radialGradient>
<radialGradient id="pf_0_338_361" cx="0" cy="0" r="1" gradientUnits="userSpaceOnUse" gradientTransform="matrix(5.478331 0 0 5.478331 9.162 22.344)">
<stop offset="0.717" stop-color="#DD76CF"/>
<stop offset="0.788" stop-color="#E07CD3"/>
<stop offset="0.886" stop-color="#E98EDD"/>
<stop offset="0.999" stop-color="#F8ABEF"/>
<stop offset="1" stop-color="#F8ABEF"/>
</radialGradient>
<linearGradient id="pf_0_338_636" x1="55.423" y1="31.985" x2="59.076" y2="32.508" gradientUnits="userSpaceOnUse">
<stop offset="0.213" stop-color="#57C6B5"/>
<stop offset="0.301" stop-color="#34B4A7"/>
</linearGradient>
<radialGradient id="pf_0_338_648" cx="0" cy="0" r="1" gradientUnits="userSpaceOnUse" gradientTransform="matrix(3.086136 0 0 3.086139 17.487 2.795)">
<stop offset="0.209" stop-color="#FFC635"/>
<stop offset="0.546" stop-color="#FF7935"/>
</radialGradient>
<linearGradient id="pf_0_338_656" x1="36.306" y1="25.543" x2="37.288" y2="25.543" gradientUnits="userSpaceOnUse">
<stop stop-color="#3D150B"/>
<stop offset="1" stop-color="#340D07"/>
</linearGradient>
</defs>
</svg>
