<svg width="30" height="36" viewBox="0 0 30 36" fill="none" xmlns="http://www.w3.org/2000/svg" xmlns:xlink="http://www.w3.org/1999/xlink">
<path d="M7.903,0.895L19.374,0.895C19.726,0.895 20.063,1.038 20.307,1.292L29.04,10.389C29.271,10.629 29.4,10.95 29.4,11.284L29.4,27.088C29.4,31.396 25.907,35.124 21.678,35.124L7.903,35.124C3.456,35.124 0,31.571 0,27.088L0,8.617C0,4.374 3.615,0.895 7.903,0.895ZM26.813,11.804L18.821,3.48L7.903,3.482C5.022,3.482 2.586,5.826 2.586,8.618L2.586,27.089C2.586,30.16 4.901,32.539 7.903,32.539L21.678,32.539C24.44,32.539 26.814,30.005 26.814,27.089L26.813,11.804Z" clip-rule="evenodd" fill-rule="evenodd" fill="#01008A"/>
<path d="M18.922,0.875C19.577,0.875 20.118,1.361 20.203,1.993L20.215,2.168L20.215,7.184C20.215,8.919 21.619,10.327 23.353,10.33L28.015,10.33C28.727,10.283 29.343,10.822 29.39,11.535C29.437,12.247 28.897,12.863 28.185,12.91L25.304,12.92C24.729,12.919 24.074,12.918 23.347,12.916C20.296,12.91 17.806,10.519 17.638,7.508L17.629,7.184L17.629,2.168C17.629,1.454 18.208,0.875 18.922,0.875Z" fill="#01008A"/>
<path d="M18.594,22.957C19.309,22.957 19.887,23.536 19.887,24.25C19.887,24.905 19.401,25.446 18.77,25.531L18.594,25.543L9.289,25.543C8.575,25.543 7.996,24.964 7.996,24.25C7.996,23.595 8.483,23.054 9.114,22.969L9.289,22.957L18.594,22.957Z" fill="#9999D0"/>
<path d="M15.073,14.418C15.788,14.418 16.367,14.997 16.367,15.711C16.367,16.366 15.88,16.907 15.249,16.992L15.073,17.004L9.287,17.004C8.573,17.004 7.994,16.425 7.994,15.711C7.994,15.056 8.481,14.515 9.112,14.43L9.287,14.418L15.073,14.418Z" fill="#9999D0"/>
</svg>
