<svg width="482" height="346" viewBox="0 0 482 346" fill="none" xmlns="http://www.w3.org/2000/svg" xmlns:xlink="http://www.w3.org/1999/xlink">
<g opacity="0.35">
<path d="M446.347,242.43C438.653,214.822 463.113,213.76 463.655,178.189C463.873,163.636 455.899,148.823 436.731,142.024C427.303,138.687 417.915,136.39 409.527,131.078C390.421,118.978 390.763,95.943 385.545,76.317C374.089,33.187 284.401,-1.096 239.795,0.027C207.643,0.827 192.809,16.326 163.495,43.614C143.443,62.283 108.099,60.599 118.401,108.843C127.57,151.816 105.937,148.625 86.124,164.488C66.353,180.32 51.872,199.208 59.741,220.642C68.421,244.282 15.302,257.846 5.832,288.482C-0.602,309.26 33.151,311.008 56.124,311.008C79.097,311.008 275.627,309.24 358.747,311.704C381.117,312.37 452.501,318.46 462.605,290.57C469.475,271.59 451.721,261.714 446.347,242.43Z" fill="#DCE0FF"/>
</g>
<path d="M471.194,233.55C454.658,272.036 422.787,303.465 384.578,320.494L385.168,321.816C423.696,304.645 455.838,272.955 472.525,234.122L471.194,233.55Z" fill="#B2B1FF"/>
<path d="M466.988,244.11C472.789,239.277 476.76,232.301 477.945,224.848C478.236,223.019 478.298,220.94 477.072,219.557C476.739,219.172 476.292,218.86 475.783,218.808C474.972,218.725 474.255,219.328 473.704,219.942C470.814,223.185 469.816,227.665 469.317,231.979C468.828,236.293 467.882,239.464 466.988,244.11Z" fill="#B2B1FF"/>
<path d="M459.095,257.275C462.505,250.539 463.389,242.566 461.517,235.248C461.06,233.46 460.291,231.526 458.617,230.736C458.16,230.518 457.619,230.414 457.141,230.56C456.361,230.809 455.935,231.641 455.686,232.42C454.324,236.537 455.187,241.059 456.434,245.217C457.682,249.375 458.077,252.649 459.095,257.275Z" fill="#B2B1FF"/>
<path d="M447.487,273.486C451.697,267.217 453.537,259.41 452.58,251.916C452.341,250.076 451.822,248.069 450.252,247.082C449.826,246.812 449.306,246.635 448.807,246.728C448.007,246.874 447.487,247.654 447.133,248.392C445.273,252.311 445.574,256.905 446.312,261.178C447.061,265.471 447.04,268.766 447.487,273.486Z" fill="#B2B1FF"/>
<path d="M434.149,287.693C438.359,281.424 440.209,273.617 439.243,266.123C439.003,264.283 438.484,262.276 436.914,261.289C436.488,261.019 435.968,260.842 435.469,260.935C434.669,261.081 434.149,261.861 433.796,262.599C431.935,266.518 432.236,271.112 432.974,275.385C433.712,279.667 433.702,282.973 434.149,287.693Z" fill="#B2B1FF"/>
<path d="M414.167,304.068C419.001,298.268 421.652,290.69 421.475,283.143C421.433,281.293 421.111,279.235 419.656,278.102C419.25,277.79 418.762,277.561 418.252,277.603C417.431,277.665 416.839,278.393 416.413,279.089C414.157,282.8 413.98,287.395 414.271,291.719C414.562,296.044 414.209,299.328 414.167,304.068Z" fill="#B2B1FF"/>
<path d="M398.514,314.53C403.275,309.374 406.341,302.17 406.986,294.665C407.142,292.825 407.09,290.746 405.967,289.436C405.655,289.072 405.26,288.791 404.824,288.771C404.117,288.739 403.535,289.374 403.088,290.018C400.769,293.428 400.125,297.96 399.917,302.295C399.709,306.629 399.054,309.842 398.514,314.53Z" fill="#B2B1FF"/>
<path d="M455.148,263.081C462.799,264.339 471.063,262.759 477.945,258.705C479.629,257.707 481.375,256.366 481.739,254.495C481.833,253.986 481.812,253.424 481.531,252.998C481.084,252.312 480.128,252.156 479.286,252.146C474.785,252.083 470.46,254.298 466.604,256.792C462.737,259.298 459.546,260.67 455.148,263.081Z" fill="#B2B1FF"/>
<path d="M445.775,275.349C452.906,278.405 461.306,278.831 468.957,276.544C470.828,275.983 472.855,275.099 473.645,273.363C473.863,272.885 473.967,272.344 473.801,271.866C473.53,271.097 472.647,270.723 471.826,270.504C467.47,269.361 462.74,270.484 458.405,271.981C454.05,273.477 450.609,274.049 445.775,275.349Z" fill="#B2B1FF"/>
<path d="M431.756,289.639C438.138,294.057 446.278,296.157 454.23,295.45C456.184,295.274 458.336,294.816 459.459,293.278C459.771,292.851 459.979,292.342 459.916,291.843C459.802,291.032 459.012,290.481 458.253,290.107C454.22,288.122 449.355,288.267 444.802,288.87C440.238,289.463 436.756,289.338 431.756,289.639Z" fill="#B2B1FF"/>
<path d="M412.154,306.149C419.358,309.039 427.757,309.289 435.356,306.825C437.217,306.222 439.213,305.297 439.972,303.54C440.179,303.062 440.273,302.511 440.096,302.033C439.805,301.264 438.911,300.91 438.09,300.713C433.714,299.673 429.015,300.9 424.701,302.49C420.387,304.102 416.967,304.757 412.154,306.149Z" fill="#B2B1FF"/>
<path d="M396.313,315.617C401.437,321.438 408.839,325.451 416.729,326.667C418.662,326.969 420.866,327.041 422.332,325.815C422.737,325.482 423.07,325.035 423.122,324.526C423.205,323.715 422.571,322.987 421.926,322.447C418.485,319.547 413.735,318.528 409.171,318.008C404.587,317.488 401.229,316.532 396.313,315.617Z" fill="#B2B1FF"/>
<path d="M377.924,152.489C377.717,152.479 377.55,152.312 377.54,152.105L377.394,150.036C377.373,149.807 377.55,149.61 377.779,149.599C377.997,149.579 378.205,149.755 378.215,149.984L378.361,152.053C378.382,152.281 378.205,152.479 377.976,152.489C377.956,152.489 377.935,152.489 377.924,152.489Z" fill="#DCDCFF"/>
<path d="M387.21,246.449L381.753,246.833L375.672,158.724L378.406,158.537L381.129,158.34L387.21,246.449Z" fill="#B2B1FF"/>
<path d="M378.449,151.223L377.337,151.295L375.674,158.728L381.131,158.343L378.449,151.223Z" fill="#B2B1FF"/>
<path d="M110.352,173.29C120.114,226.633 157.286,274.17 206.703,296.503L207.299,295.184C158.316,273.046 121.453,225.905 111.777,173.03L110.352,173.29Z" fill="#B2B1FF"/>
<path d="M113.528,184.267C108.954,178.269 106.636,170.577 107.135,163.051C107.26,161.2 107.665,159.163 109.172,158.092C109.588,157.801 110.087,157.593 110.597,157.656C111.407,157.76 111.979,158.498 112.364,159.215C114.453,163.02 114.432,167.614 113.954,171.928C113.476,176.242 113.684,179.537 113.528,184.267Z" fill="#B2B1FF"/>
<path d="M118.279,198.867C116.459,191.538 117.374,183.565 120.825,176.85C121.667,175.207 122.852,173.492 124.661,173.097C125.16,172.993 125.701,173.004 126.148,173.253C126.855,173.669 127.073,174.573 127.156,175.395C127.561,179.719 125.721,183.929 123.57,187.692C121.418,191.476 120.306,194.584 118.279,198.867Z" fill="#B2B1FF"/>
<path d="M125.981,217.254C123.278,210.206 123.216,202.181 125.825,195.092C126.459,193.356 127.426,191.505 129.172,190.902C129.65,190.736 130.191,190.674 130.659,190.882C131.407,191.204 131.74,192.077 131.917,192.878C132.852,197.119 131.532,201.516 129.858,205.528C128.195,209.541 127.467,212.763 125.981,217.254Z" fill="#B2B1FF"/>
<path d="M135.812,234.063C133.11,227.015 133.047,218.99 135.646,211.9C136.28,210.164 137.247,208.314 138.993,207.711C139.471,207.545 140.012,207.482 140.48,207.69C141.228,208.012 141.561,208.886 141.738,209.686C142.673,213.927 141.353,218.324 139.679,222.337C138.027,226.349 137.309,229.572 135.812,234.063Z" fill="#B2B1FF"/>
<path d="M151.647,254.495C148.227,247.769 147.333,239.786 149.194,232.467C149.651,230.669 150.42,228.735 152.094,227.956C152.551,227.738 153.092,227.623 153.57,227.779C154.35,228.029 154.776,228.86 155.036,229.64C156.408,233.756 155.556,238.278 154.298,242.436C153.04,246.584 152.666,249.858 151.647,254.495Z" fill="#B2B1FF"/>
<path d="M164.569,268.188C161.087,262.097 159.694,254.394 160.733,246.93C160.993,245.101 161.502,243.084 162.895,242.055C163.28,241.774 163.727,241.577 164.163,241.66C164.86,241.785 165.286,242.543 165.577,243.261C167.084,247.096 166.689,251.66 165.931,255.932C165.172,260.205 165.099,263.49 164.569,268.188Z" fill="#B2B1FF"/>
<path d="M120.835,205.394C113.091,204.916 105.388,201.527 99.587,196.049C98.163,194.708 96.76,193.003 96.833,191.101C96.854,190.581 96.999,190.04 97.363,189.687C97.955,189.115 98.912,189.178 99.743,189.354C104.141,190.29 107.862,193.419 111.074,196.704C114.276,200.009 117.093,202.068 120.835,205.394Z" fill="#B2B1FF"/>
<path d="M127.251,219.435C119.621,220.817 111.336,219.372 104.382,215.433C102.677,214.466 100.91,213.156 100.525,211.285C100.421,210.776 100.432,210.214 100.712,209.788C101.149,209.092 102.095,208.925 102.947,208.905C107.449,208.769 111.804,210.911 115.702,213.343C119.59,215.765 122.812,217.096 127.251,219.435Z" fill="#B2B1FF"/>
<path d="M137.719,236.516C130.515,239.406 122.105,239.635 114.517,237.171C112.656,236.568 110.66,235.632 109.901,233.886C109.694,233.408 109.6,232.857 109.777,232.379C110.068,231.61 110.962,231.256 111.783,231.059C116.159,230.019 120.858,231.256 125.172,232.857C129.486,234.447 132.906,235.102 137.719,236.516Z" fill="#B2B1FF"/>
<path d="M153.143,256.972C145.482,258.189 137.228,256.557 130.367,252.461C128.683,251.463 126.947,250.101 126.604,248.23C126.51,247.71 126.542,247.159 126.822,246.733C127.28,246.047 128.226,245.902 129.078,245.891C133.579,245.85 137.893,248.095 141.729,250.611C145.575,253.137 148.766,254.54 153.143,256.972Z" fill="#B2B1FF"/>
<path d="M166.48,269.738C160.181,274.27 152.083,276.526 144.12,275.965C142.166,275.829 140.004,275.403 138.85,273.885C138.538,273.47 138.309,272.96 138.372,272.451C138.465,271.64 139.255,271.079 140.004,270.684C144.006,268.626 148.86,268.688 153.424,269.197C157.998,269.717 161.47,269.53 166.48,269.738Z" fill="#B2B1FF"/>
<path d="M15.342,248.044C69.034,245.591 123.256,270.932 155.836,313.685L156.988,312.807C124.12,269.676 69.443,244.122 15.276,246.597L15.342,248.044Z" fill="#B2B1FF"/>
<path d="M26.688,247.21C19.816,244.092 11.802,243.572 4.577,245.755C2.81,246.285 0.908,247.148 0.201,248.853C0.003,249.321 -0.08,249.861 0.097,250.339C0.378,251.109 1.23,251.493 2.02,251.711C6.199,252.897 10.669,251.836 14.764,250.402C18.85,248.967 22.114,248.437 26.688,247.21Z" fill="#B2B1FF"/>
<path d="M41.982,248.56C34.435,248.424 26.868,251.117 21.109,255.992C19.695,257.188 18.292,258.726 18.323,260.576C18.333,261.086 18.458,261.616 18.811,261.98C19.373,262.572 20.308,262.593 21.119,262.479C25.423,261.907 29.113,259.163 32.304,256.221C35.485,253.279 38.271,251.501 41.982,248.56Z" fill="#B2B1FF"/>
<path d="M61.624,251.935C54.15,250.885 46.312,252.632 39.991,256.759C38.442,257.767 36.862,259.129 36.665,260.969C36.613,261.478 36.675,262.018 36.977,262.424C37.465,263.079 38.391,263.214 39.212,263.203C43.557,263.162 47.549,260.896 51.073,258.359C54.596,255.823 57.569,254.399 61.624,251.935Z" fill="#B2B1FF"/>
<path d="M80.212,257.748C72.737,256.698 64.899,258.444 58.579,262.571C57.03,263.579 55.45,264.941 55.253,266.781C55.201,267.29 55.263,267.831 55.565,268.236C56.053,268.891 56.978,269.026 57.8,269.016C62.145,268.974 66.136,266.708 69.66,264.172C73.195,261.635 76.168,260.211 80.212,257.748Z" fill="#B2B1FF"/>
<path d="M103.673,268.58C96.344,266.761 88.371,267.686 81.656,271.138C80.014,271.98 78.298,273.165 77.903,274.973C77.799,275.472 77.81,276.013 78.07,276.45C78.486,277.156 79.39,277.375 80.211,277.458C84.535,277.863 88.745,276.023 92.509,273.872C96.282,271.72 99.39,270.608 103.673,268.58Z" fill="#B2B1FF"/>
<path d="M119.924,278.106C113.209,276.079 105.392,276.453 98.344,279.146C96.619,279.8 94.768,280.757 94.082,282.347C93.895,282.784 93.812,283.272 93.978,283.678C94.259,284.333 95.09,284.582 95.86,284.697C99.935,285.3 104.301,283.896 108.292,282.191C112.284,280.487 115.465,279.676 119.924,278.106Z" fill="#B2B1FF"/>
<path d="M48.921,249.589C46.717,242.146 41.686,235.41 35.043,230.982C33.411,229.901 31.446,228.913 29.606,229.402C29.097,229.537 28.609,229.807 28.349,230.244C27.933,230.951 28.203,231.865 28.567,232.635C30.469,236.71 34.347,239.641 38.276,242.022C42.195,244.412 44.835,246.689 48.921,249.589Z" fill="#B2B1FF"/>
<path d="M64.047,252.68C63.683,244.925 60.409,237.181 55.014,231.297C53.693,229.852 52.009,228.428 50.107,228.47C49.587,228.48 49.047,228.626 48.693,228.979C48.122,229.561 48.163,230.517 48.329,231.359C49.203,235.777 52.269,239.54 55.523,242.794C58.756,246.048 60.772,248.886 64.047,252.68Z" fill="#B2B1FF"/>
<path d="M83.017,259.051C84.212,251.379 82.549,243.136 78.443,236.296C77.435,234.623 76.073,232.887 74.202,232.544C73.682,232.45 73.131,232.481 72.705,232.762C72.029,233.219 71.884,234.165 71.873,235.018C71.842,239.519 74.098,243.822 76.634,247.658C79.16,251.494 80.574,254.685 83.017,259.051Z" fill="#B2B1FF"/>
<path d="M106.429,269.492C105.889,261.747 102.448,254.076 96.918,248.317C95.567,246.903 93.851,245.51 91.949,245.593C91.429,245.614 90.889,245.77 90.546,246.134C89.984,246.726 90.057,247.683 90.234,248.514C91.211,252.912 94.361,256.602 97.677,259.783C100.993,262.974 103.072,265.77 106.429,269.492Z" fill="#B2B1FF"/>
<path d="M121.856,279.625C124.86,272.473 125.235,264.074 122.896,256.434C122.324,254.563 121.42,252.546 119.684,251.766C119.206,251.548 118.665,251.444 118.187,251.621C117.418,251.901 117.043,252.785 116.835,253.606C115.723,257.972 116.877,262.692 118.405,267.026C119.933,271.351 120.536,274.791 121.856,279.625Z" fill="#B2B1FF"/>
<path d="M185.731,270.132C177.924,262.824 166.885,259.103 156.24,260.173C149.036,260.901 141.178,264.747 139.587,271.816C138.828,275.184 139.099,279.643 135.907,280.974C132.789,282.273 129.774,279.061 126.573,277.98C121.24,276.192 115.159,282.284 116.957,287.606C117.778,290.028 119.826,292.138 119.649,294.685C119.421,298.157 115.127,299.966 111.687,299.425C108.246,298.885 105.211,296.879 101.843,296.016C98.475,295.153 94.098,296.016 92.913,299.29C91.853,302.222 93.682,306.161 91.375,308.272C90.387,309.176 88.963,309.363 87.632,309.488C58.432,312.263 26.27,317.502 29.534,322.69C30.428,324.103 32.715,323.656 34.389,323.625C96.551,322.648 153.018,321.723 215.149,323.636Z" fill="#B2B1FF"/>
<path d="M360.52,172.492L378.94,244.749L375.437,245.643L352.641,174.498Z" fill="#A09FFF"/>
<path d="M343.466,174.136C334.058,176.537 324.037,169.24 321.137,157.868C318.237,146.495 323.538,135.3 332.946,132.899C342.354,130.497 352.375,137.795 355.275,149.167C358.175,160.539 352.874,171.745 343.466,174.136ZM334.568,139.219C328.642,140.726 325.462,148.377 327.468,156.256C329.474,164.136 335.929,169.323 341.855,167.816C347.78,166.309 350.961,158.658 348.955,150.778C346.938,142.899 340.483,137.712 334.568,139.219Z" fill="#C6C8FF"/>
<path d="M353.157,154.058C353.459,155.253 358.76,176.033 358.76,176.033C359.041,177.135 358.376,178.258 357.274,178.549C356.172,178.829 355.049,178.164 354.758,177.062L354.124,174.578C354.124,174.578 351.182,168.299 343.043,170.888C343.043,170.888 352.742,169.671 353.074,169.702C353.417,169.713 352.856,152.852 353.157,154.058Z" fill="#AEADFF"/>
<path d="M358.074,181.7C355.226,182.427 352.326,180.702 351.598,177.853C351.598,177.853 351.266,176.128 350.59,175.171C349.54,173.674 347.388,173.113 343.459,174.111L342.461,168.56C344.53,167.895 346.016,166.897 347.679,167.021C348.573,166.918 349.311,166.824 349.925,166.751C349.914,165.046 349.883,162.801 349.862,161.086C349.841,159.256 352.212,157.198 352.201,155.888C352.191,153.529 349.779,151.159 352.7,150.764L355.58,150.379L361.931,175.223C362.648,178.072 360.923,180.972 358.074,181.7Z" fill="#C6C8FF"/>
<path d="M363.234,171.839L363.286,246.413L366.904,246.403L371.363,171.828Z" fill="#A09FFF"/>
<path d="M362.531,147.938C362.521,136.202 370.421,126.648 380.13,126.648C389.839,126.638 397.75,136.181 397.76,147.917C397.771,159.653 389.87,169.206 380.161,169.206C370.452,169.216 362.542,159.674 362.531,147.938ZM369.059,147.938C369.07,156.077 374.049,162.688 380.161,162.688C386.274,162.688 391.243,156.056 391.243,147.927C391.232,139.788 386.253,133.177 380.141,133.177C374.028,133.177 369.059,139.798 369.059,147.938Z" fill="#C6C8FF"/>
<path d="M365.803,152.156C365.803,153.393 365.824,174.828 365.824,174.828C365.824,175.971 366.749,176.897 367.892,176.897C369.036,176.897 369.961,175.971 369.961,174.828L369.961,172.271C369.961,172.271 371.26,165.462 379.774,165.951C379.774,165.951 370.075,167.177 369.763,167.281C369.431,167.395 365.792,150.919 365.803,152.156Z" fill="#AEADFF"/>
<path d="M367.882,180.16C370.824,180.16 373.204,177.769 373.204,174.827C373.204,174.827 373.101,173.07 373.516,171.979C374.171,170.263 376.105,169.193 380.169,169.193L379.753,163.569C377.591,163.444 375.897,162.841 374.317,163.371C373.423,163.486 372.685,163.579 372.071,163.663C371.656,162.01 371.136,159.827 370.73,158.153C370.304,156.376 367.498,154.972 367.175,153.704C366.604,151.417 368.35,148.517 365.419,148.86L362.539,149.203L362.549,174.848C362.56,177.779 364.951,180.16 367.882,180.16Z" fill="#C6C8FF"/>
<path d="M394.634,233.214L385.258,231.52L399.821,150.854C399.936,150.189 400.57,149.752 401.235,149.877L408.221,151.135C408.886,151.249 409.323,151.883 409.198,152.548L394.634,233.214Z" fill="#A09FFF"/>
<path d="M407.792,160.307L398.416,158.613L399.819,150.858C399.934,150.193 400.568,149.756 401.233,149.881L408.219,151.138C408.884,151.253 409.32,151.887 409.196,152.552L407.792,160.307Z" fill="#FF3874"/>
<g opacity="0.5">
<g opacity="0.5">
<g opacity="0.5">
<path d="M404.288,156.088L401.429,156.088L401.429,165.621L404.288,165.621L404.288,156.088Z" transform="rotate(-159.529 402.858 160.854)" fill="#DCDCFF"/>
</g>
</g>
</g>
<path d="M418.85,162.786L402.395,162.786L402.395,251.789L418.85,251.789L418.85,162.786Z" transform="rotate(43.026 410.623 207.288)" fill="#B2B1FF"/>
<path d="M428.246,170.275L433.288,172.261L433.819,170.913L428.777,168.928L428.246,170.275Z" fill="#E8EAFF"/>
<path d="M426.538,174.58L431.59,176.566L432.12,175.218L427.068,173.232L426.538,174.58Z" fill="#E8EAFF"/>
<path d="M424.841,178.869L429.893,180.865L430.426,179.518L425.373,177.522L424.841,178.869Z" fill="#E8EAFF"/>
<path d="M420.684,182.197L428.199,185.16L428.73,183.812L421.215,180.85L420.684,182.197Z" fill="#E8EAFF"/>
<path d="M421.457,187.486L426.499,189.472L427.03,188.124L421.988,186.139L421.457,187.486Z" fill="#E8EAFF"/>
<path d="M419.762,191.779L424.804,193.765L425.334,192.417L420.293,190.432L419.762,191.779Z" fill="#E8EAFF"/>
<path d="M418.064,196.076L423.105,198.071L423.638,196.725L418.597,194.729L418.064,196.076Z" fill="#E8EAFF"/>
<path d="M413.909,199.416L421.414,202.368L421.944,201.021L414.439,198.068L413.909,199.416Z" fill="#E8EAFF"/>
<path d="M414.676,204.685L419.718,206.671L420.248,205.324L415.207,203.338L414.676,204.685Z" fill="#E8EAFF"/>
<path d="M412.983,208.986L418.024,210.972L418.555,209.624L413.513,207.639L412.983,208.986Z" fill="#E8EAFF"/>
<path d="M411.288,213.275L416.33,215.271L416.863,213.924L411.821,211.928L411.288,213.275Z" fill="#E8EAFF"/>
<path d="M407.118,216.615L414.634,219.568L415.163,218.22L407.648,215.268L407.118,216.615Z" fill="#E8EAFF"/>
<path d="M407.899,221.892L412.94,223.878L413.471,222.531L408.429,220.545L407.899,221.892Z" fill="#E8EAFF"/>
<path d="M406.198,226.193L411.25,228.179L411.78,226.831L406.728,224.846L406.198,226.193Z" fill="#E8EAFF"/>
<path d="M404.498,230.486L409.55,232.482L410.082,231.135L405.03,229.139L404.498,230.486Z" fill="#E8EAFF"/>
<path d="M400.343,233.822L407.858,236.775L408.388,235.427L400.872,232.475L400.343,233.822Z" fill="#E8EAFF"/>
<path d="M401.116,239.088L406.157,241.073L406.688,239.726L401.646,237.74L401.116,239.088Z" fill="#E8EAFF"/>
<path d="M399.416,243.396L404.458,245.382L404.989,244.034L399.947,242.049L399.416,243.396Z" fill="#E8EAFF"/>
<path d="M397.722,247.693L402.763,249.689L403.296,248.342L398.255,246.346L397.722,247.693Z" fill="#E8EAFF"/>
<path d="M413.156,327.312L336.835,327.312L324.018,211.864C323.852,210.398 325.005,209.109 326.482,209.109L423.51,209.109C424.986,209.109 426.14,210.388 425.973,211.864L413.156,327.312Z" fill="#C6C8FF"/>
<path d="M317.461,332.336C363.429,332.959 409.396,333.583 455.363,334.217C456.902,334.238 461.766,332.731 453.388,327.336C446.288,322.762 423.866,326.878 423.866,326.878C423.866,326.878 429.084,324.789 429.063,322.086C429.043,319.383 426.995,317.013 424.531,315.891C422.078,314.768 419.271,314.685 416.579,314.841C411.09,315.153 405.654,316.369 400.56,318.427C402.722,317.096 403.387,313.832 401.911,311.764C400.435,309.695 397.14,309.258 395.175,310.88C398.616,306.213 403.949,285.537 387.576,276.42C367.056,264.996 351.474,274.393 348.148,281.275C346.464,274.528 338.719,269.414 333.615,268.156C321.983,265.266 314.416,266.129 303.553,271.191C299.717,272.99 294.571,279.113 292.014,282.491C288.012,287.793 287.388,294.84 287.17,301.473C287.004,306.452 286.983,311.441 287.108,316.421Z" fill="#E8EAFF"/>
<g opacity="0.2">
<path d="M344.318,339.689C344.318,342.069 298.017,344.003 240.907,344.003C183.796,344.003 137.496,342.069 137.496,339.689C137.496,337.308 183.796,335.375 240.907,335.375C298.017,335.375 344.318,337.308 344.318,339.689Z" fill="#8C8BFF"/>
</g>
<path d="M242.876,38.688C237.149,38.688 232.502,43.334 232.502,49.062L232.502,62.368L253.261,62.368C253.261,62.368 253.261,51.806 253.261,49.072C253.261,43.334 248.614,38.688 242.876,38.688ZM242.876,55.029C239.664,55.029 237.055,52.419 237.055,49.207C237.055,45.995 239.664,43.386 242.876,43.386C246.088,43.386 248.698,45.995 248.698,49.207C248.698,52.419 246.099,55.029 242.876,55.029Z" fill="#FF3874"/>
<g opacity="0.45">
<g opacity="0.45">
<g opacity="0.45">
<path d="M248.698,49.208C248.698,45.996 246.088,43.387 242.876,43.387C242.575,43.387 242.294,43.429 242.003,43.47C242.876,43.137 242.918,42.909 244.363,42.909C247.575,42.909 250.184,45.518 250.184,48.73C250.184,51.651 248.698,53.231 246.452,53.803C247.7,52.732 248.698,50.975 248.698,49.208ZM235.672,61.048L235.672,47.742C235.672,44.135 237.242,40.954 240.038,39.094C235.693,40.331 232.502,44.322 232.502,49.063L232.502,62.368L253.261,62.368C253.261,62.368 253.261,61.849 253.261,61.038L235.672,61.038L235.672,61.048Z" fill="#FF3874"/>
</g>
</g>
</g>
<path d="M328.58,339.64L153.224,339.64C147.632,339.64 143.1,335.108 143.1,329.516L143.1,73.203C143.1,67.61 147.632,63.078 153.224,63.078L328.58,63.078C334.172,63.078 338.705,67.61 338.705,73.203L338.705,329.526C338.715,335.108 334.172,339.64 328.58,339.64Z" fill="#D3D2FF"/>
<path d="M327.375,73.918L154.441,73.918L154.441,328.796L327.375,328.796L327.375,73.918Z" fill="#B2B1FF"/>
<path d="M320.734,81.699L161.096,81.699L161.096,321.005L320.734,321.005L320.734,81.699Z" fill="#FFFFFF"/>
<path d="M303.819,67.649L303.819,78.044L177.986,78.044L177.986,67.649C177.986,66.89 178.101,66.162 178.319,65.476C179.244,62.503 182.02,60.352 185.284,60.352L296.522,60.352C300.555,60.352 303.819,63.616 303.819,67.649Z" fill="#FF3874"/>
<g opacity="0.45">
<path d="M303.819,75.445L303.819,78.044L177.986,78.044L177.986,70.518C177.986,68.501 178.101,66.838 178.319,65.476C179.244,62.503 182.02,60.352 185.284,60.352L186.178,60.352C184.255,62.202 182.851,65.029 182.851,67.919L182.851,75.445L303.819,75.445Z" fill="#FF3874"/>
</g>
<g opacity="0.15">
<line x1="205.357" y1="105.51" x2="231.293" y2="105.51" stroke="#6D6CF1" stroke-width="1.622" stroke-miterlimit="10" stroke-linecap="round" stroke-linejoin="round"/>
<line x1="289.484" y1="113.792" x2="309.194" y2="113.792" stroke="#6D6CF1" stroke-width="1.622" stroke-miterlimit="10" stroke-linecap="round" stroke-linejoin="round"/>
<line x1="205.355" y1="113.792" x2="280.938" y2="113.792" stroke="#6D6CF1" stroke-width="1.622" stroke-miterlimit="10" stroke-linecap="round" stroke-linejoin="round"/>
<line x1="205.355" y1="122.053" x2="309.192" y2="122.053" stroke="#6D6CF1" stroke-width="1.622" stroke-miterlimit="10" stroke-linecap="round" stroke-linejoin="round"/>
<line x1="276.189" y1="130.323" x2="309.194" y2="130.323" stroke="#6D6CF1" stroke-width="1.622" stroke-miterlimit="10" stroke-linecap="round" stroke-linejoin="round"/>
<line x1="205.355" y1="130.323" x2="267.976" y2="130.323" stroke="#6D6CF1" stroke-width="1.622" stroke-miterlimit="10" stroke-linecap="round" stroke-linejoin="round"/>
<line x1="239.793" y1="105.51" x2="309.191" y2="105.51" stroke="#6D6CF1" stroke-width="1.622" stroke-miterlimit="10" stroke-linecap="round" stroke-linejoin="round"/>
</g>
<g opacity="0.15">
<line x1="205.359" y1="164.944" x2="231.295" y2="164.944" stroke="#6D6CF1" stroke-width="1.622" stroke-miterlimit="10" stroke-linecap="round" stroke-linejoin="round"/>
<line x1="289.486" y1="173.233" x2="309.196" y2="173.233" stroke="#6D6CF1" stroke-width="1.622" stroke-miterlimit="10" stroke-linecap="round" stroke-linejoin="round"/>
<line x1="205.357" y1="173.233" x2="280.94" y2="173.233" stroke="#6D6CF1" stroke-width="1.622" stroke-miterlimit="10" stroke-linecap="round" stroke-linejoin="round"/>
<line x1="205.357" y1="181.487" x2="309.194" y2="181.487" stroke="#6D6CF1" stroke-width="1.622" stroke-miterlimit="10" stroke-linecap="round" stroke-linejoin="round"/>
<line x1="276.191" y1="189.756" x2="309.196" y2="189.756" stroke="#6D6CF1" stroke-width="1.622" stroke-miterlimit="10" stroke-linecap="round" stroke-linejoin="round"/>
<line x1="205.357" y1="189.756" x2="267.978" y2="189.756" stroke="#6D6CF1" stroke-width="1.622" stroke-miterlimit="10" stroke-linecap="round" stroke-linejoin="round"/>
<line x1="239.795" y1="164.944" x2="309.193" y2="164.944" stroke="#6D6CF1" stroke-width="1.622" stroke-miterlimit="10" stroke-linecap="round" stroke-linejoin="round"/>
</g>
<g opacity="0.15">
<line x1="205.357" y1="222.288" x2="231.293" y2="222.288" stroke="#6D6CF1" stroke-width="1.622" stroke-miterlimit="10" stroke-linecap="round" stroke-linejoin="round"/>
<line x1="289.484" y1="230.569" x2="309.194" y2="230.569" stroke="#6D6CF1" stroke-width="1.622" stroke-miterlimit="10" stroke-linecap="round" stroke-linejoin="round"/>
<line x1="205.355" y1="230.569" x2="280.938" y2="230.569" stroke="#6D6CF1" stroke-width="1.622" stroke-miterlimit="10" stroke-linecap="round" stroke-linejoin="round"/>
<line x1="205.355" y1="238.835" x2="309.192" y2="238.835" stroke="#6D6CF1" stroke-width="1.622" stroke-miterlimit="10" stroke-linecap="round" stroke-linejoin="round"/>
<line x1="276.189" y1="247.096" x2="309.194" y2="247.096" stroke="#6D6CF1" stroke-width="1.622" stroke-miterlimit="10" stroke-linecap="round" stroke-linejoin="round"/>
<line x1="205.355" y1="247.096" x2="267.976" y2="247.096" stroke="#6D6CF1" stroke-width="1.622" stroke-miterlimit="10" stroke-linecap="round" stroke-linejoin="round"/>
<line x1="239.793" y1="222.288" x2="309.191" y2="222.288" stroke="#6D6CF1" stroke-width="1.622" stroke-miterlimit="10" stroke-linecap="round" stroke-linejoin="round"/>
</g>
<g opacity="0.15">
<line x1="205.357" y1="280.674" x2="231.293" y2="280.674" stroke="#6D6CF1" stroke-width="1.622" stroke-miterlimit="10" stroke-linecap="round" stroke-linejoin="round"/>
<line x1="289.486" y1="288.94" x2="309.196" y2="288.94" stroke="#6D6CF1" stroke-width="1.622" stroke-miterlimit="10" stroke-linecap="round" stroke-linejoin="round"/>
<line x1="205.357" y1="288.94" x2="280.94" y2="288.94" stroke="#6D6CF1" stroke-width="1.622" stroke-miterlimit="10" stroke-linecap="round" stroke-linejoin="round"/>
<line x1="205.357" y1="297.217" x2="309.194" y2="297.217" stroke="#6D6CF1" stroke-width="1.622" stroke-miterlimit="10" stroke-linecap="round" stroke-linejoin="round"/>
<line x1="276.191" y1="305.487" x2="309.196" y2="305.487" stroke="#6D6CF1" stroke-width="1.622" stroke-miterlimit="10" stroke-linecap="round" stroke-linejoin="round"/>
<line x1="205.357" y1="305.487" x2="267.978" y2="305.487" stroke="#6D6CF1" stroke-width="1.622" stroke-miterlimit="10" stroke-linecap="round" stroke-linejoin="round"/>
<line x1="239.795" y1="280.674" x2="309.193" y2="280.674" stroke="#6D6CF1" stroke-width="1.622" stroke-miterlimit="10" stroke-linecap="round" stroke-linejoin="round"/>
</g>
<path d="M194.422,126.994L175.025,126.994L175.025,129.829L194.422,129.829L194.422,126.994ZM175.025,126.994C174.602,126.994 174.259,126.652 174.259,126.229L171.424,126.229C171.424,128.217 173.036,129.829 175.025,129.829L175.025,126.994ZM174.259,126.229L174.259,106.831L171.424,106.831L171.424,126.229L174.259,126.229ZM174.259,106.831C174.259,106.408 174.602,106.066 175.025,106.066L175.025,103.231C173.036,103.231 171.424,104.843 171.424,106.831L174.259,106.831ZM175.025,106.066L194.422,106.066L194.422,103.231L175.025,103.231L175.025,106.066ZM194.422,106.066C194.845,106.066 195.187,106.408 195.187,106.831L198.023,106.831C198.023,104.843 196.411,103.231 194.422,103.231L194.422,106.066ZM195.187,106.831L195.187,126.229L198.023,126.229L198.023,106.831L195.187,106.831ZM195.187,126.229C195.187,126.652 194.845,126.994 194.422,126.994L194.422,129.829C196.411,129.829 198.023,128.217 198.023,126.229L195.187,126.229Z" fill="#B2B1FF"/>
<path d="M194.422,186.236L175.025,186.236L175.025,189.071L194.422,189.071L194.422,186.236ZM175.025,186.236C174.602,186.236 174.259,185.894 174.259,185.471L171.424,185.471C171.424,187.46 173.036,189.071 175.025,189.071L175.025,186.236ZM174.259,185.471L174.259,166.074L171.424,166.074L171.424,185.471L174.259,185.471ZM174.259,166.074C174.259,165.651 174.602,165.308 175.025,165.308L175.025,162.473C173.036,162.473 171.424,164.085 171.424,166.074L174.259,166.074ZM175.025,165.308L194.422,165.308L194.422,162.473L175.025,162.473L175.025,165.308ZM194.422,165.308C194.845,165.308 195.187,165.651 195.187,166.074L198.023,166.074C198.023,164.085 196.411,162.473 194.422,162.473L194.422,165.308ZM195.187,166.074L195.187,185.471L198.023,185.471L198.023,166.074L195.187,166.074ZM195.187,185.471C195.187,185.888 194.841,186.236 194.422,186.236L194.422,189.071C196.415,189.071 198.023,187.445 198.023,185.471L195.187,185.471Z" fill="#B2B1FF"/>
<path d="M194.422,245.475L175.025,245.475L175.025,248.31L194.422,248.31L194.422,245.475ZM175.025,245.475C174.602,245.475 174.259,245.132 174.259,244.709L171.424,244.709C171.424,246.698 173.036,248.31 175.025,248.31L175.025,245.475ZM174.259,244.709L174.259,225.312L171.424,225.312L171.424,244.709L174.259,244.709ZM174.259,225.312C174.259,224.889 174.602,224.546 175.025,224.546L175.025,221.711C173.036,221.711 171.424,223.323 171.424,225.312L174.259,225.312ZM175.025,224.546L194.422,224.546L194.422,221.711L175.025,221.711L175.025,224.546ZM194.422,224.546C194.845,224.546 195.187,224.889 195.187,225.312L198.023,225.312C198.023,223.323 196.411,221.711 194.422,221.711L194.422,224.546ZM195.187,225.312L195.187,244.709L198.023,244.709L198.023,225.312L195.187,225.312ZM195.187,244.709C195.187,245.132 194.845,245.475 194.422,245.475L194.422,248.31C196.411,248.31 198.023,246.698 198.023,244.709L195.187,244.709Z" fill="#B2B1FF"/>
<path d="M194.422,304.705L175.025,304.705L175.025,307.54L194.422,307.54L194.422,304.705ZM175.025,304.705C174.602,304.705 174.259,304.363 174.259,303.94L171.424,303.94C171.424,305.928 173.036,307.54 175.025,307.54L175.025,304.705ZM174.259,303.94L174.259,284.542L171.424,284.542L171.424,303.94L174.259,303.94ZM174.259,284.542C174.259,284.119 174.602,283.777 175.025,283.777L175.025,280.942C173.036,280.942 171.424,282.554 171.424,284.542L174.259,284.542ZM175.025,283.777L194.422,283.777L194.422,280.942L175.025,280.942L175.025,283.777ZM194.422,283.777C194.845,283.777 195.187,284.119 195.187,284.542L198.023,284.542C198.023,282.554 196.411,280.942 194.422,280.942L194.422,283.777ZM195.187,284.542L195.187,303.94L198.023,303.94L198.023,284.542L195.187,284.542ZM195.187,303.94C195.187,304.363 194.845,304.705 194.422,304.705L194.422,307.54C196.411,307.54 198.023,305.928 198.023,303.94L195.187,303.94Z" fill="#B2B1FF"/>
<path d="M177.204,111.151C176.545,110.356 175.367,110.245 174.571,110.904C173.776,111.562 173.665,112.741 174.324,113.536L177.204,111.151ZM184.724,123.165L183.284,124.357C183.666,124.818 184.245,125.069 184.843,125.031C185.44,124.993 185.983,124.671 186.304,124.166L184.724,123.165ZM203.539,96.962C204.091,96.089 203.832,94.934 202.96,94.382C202.088,93.829 200.933,94.088 200.38,94.96L203.539,96.962ZM174.324,113.536L183.284,124.357L186.164,121.973L177.204,111.151L174.324,113.536ZM186.304,124.166L203.539,96.962L200.38,94.96L183.145,122.164L186.304,124.166Z" fill="#FFA829"/>
<path d="M177.204,169.901C176.545,169.106 175.367,168.995 174.571,169.654C173.776,170.312 173.665,171.491 174.324,172.286L177.204,169.901ZM184.724,181.915L183.284,183.107C183.666,183.568 184.245,183.819 184.843,183.781C185.44,183.743 185.983,183.421 186.304,182.916L184.724,181.915ZM203.539,155.712C204.091,154.839 203.832,153.684 202.96,153.132C202.088,152.579 200.933,152.838 200.38,153.71L203.539,155.712ZM174.324,172.286L183.284,183.107L186.164,180.723L177.204,169.901L174.324,172.286ZM186.304,182.916L203.539,155.712L200.38,153.71L183.145,180.914L186.304,182.916Z" fill="#FFA829"/>
<path d="M109.691,188.332C109.691,188.332 110.138,191.295 110.418,191.555C110.418,191.555 110.138,192.053 109.285,192.095Z" fill="#FFB392"/>
<g opacity="0.4">
<path d="M131.915,339.919C131.915,341.156 120.813,342.154 107.122,342.154C93.432,342.154 82.33,341.156 82.33,339.919C82.33,338.682 93.432,337.684 107.122,337.684C120.813,337.684 131.915,338.682 131.915,339.919Z" fill="#8C8BFF"/>
</g>
<path d="M118.454,202.198L112.975,226.273C112.83,226.928 113.266,227.573 113.932,227.666L130.99,230.12C131.583,230.203 132.144,229.818 132.279,229.236L137.757,205.161C137.903,204.506 137.466,203.862 136.801,203.768L119.743,201.315C119.14,201.221 118.578,201.606 118.454,202.198Z" fill="#C0BFFF"/>
<path d="M119.515,202.965L114.275,226.011L131.209,228.443L136.459,205.397L119.515,202.965Z" fill="#E8E8FF"/>
<path d="M134.618,207.399C134.782,207.423 134.933,207.309 134.956,207.146C134.98,206.983 134.867,206.832 134.703,206.808L134.618,207.399ZM120.306,204.74C120.143,204.716 119.992,204.83 119.968,204.993C119.945,205.156 120.058,205.307 120.221,205.331L120.306,204.74ZM134.703,206.808L120.306,204.74L120.221,205.331L134.618,207.399L134.703,206.808Z" fill="#2321BF"/>
<path d="M134.126,209.575C134.289,209.598 134.44,209.485 134.464,209.322C134.487,209.159 134.374,209.008 134.211,208.984L134.126,209.575ZM119.824,206.916C119.661,206.892 119.509,207.005 119.486,207.168C119.462,207.332 119.576,207.483 119.739,207.506L119.824,206.916ZM134.211,208.984L119.824,206.916L119.739,207.506L134.126,209.575L134.211,208.984Z" fill="#2321BF"/>
<path d="M128.147,211.381C128.31,211.405 128.461,211.291 128.484,211.128C128.508,210.965 128.395,210.814 128.231,210.79L128.147,211.381ZM119.24,209.501C119.076,209.478 118.925,209.591 118.902,209.755C118.878,209.918 118.992,210.069 119.155,210.092L119.24,209.501ZM128.231,210.79L119.24,209.501L119.155,210.092L128.147,211.381L128.231,210.79Z" fill="#2321BF"/>
<path d="M127.498,213.252C127.661,213.276 127.813,213.162 127.836,212.999C127.859,212.836 127.746,212.685 127.583,212.662L127.498,213.252ZM118.591,211.373C118.428,211.349 118.277,211.462 118.253,211.626C118.23,211.789 118.343,211.94 118.506,211.963L118.591,211.373ZM127.583,212.662L118.591,211.373L118.506,211.963L127.498,213.252L127.583,212.662Z" fill="#2321BF"/>
<path d="M126.863,215.131C127.027,215.155 127.178,215.041 127.201,214.878C127.225,214.715 127.111,214.564 126.948,214.54L126.863,215.131ZM117.956,213.251C117.793,213.228 117.642,213.341 117.619,213.505C117.595,213.668 117.709,213.819 117.872,213.842L117.956,213.251ZM126.948,214.54L117.956,213.251L117.872,213.842L126.863,215.131L126.948,214.54Z" fill="#2321BF"/>
<path d="M130.162,225.474C130.325,225.497 130.476,225.384 130.5,225.221C130.524,225.058 130.41,224.906 130.247,224.883L130.162,225.474ZM121.256,223.584C121.092,223.56 120.941,223.673 120.918,223.836C120.894,223.999 121.007,224.151 121.17,224.174L121.256,223.584ZM130.247,224.883L121.256,223.584L121.17,224.174L130.162,225.474L130.247,224.883Z" fill="#2321BF"/>
<path d="M111.878,226.545C112.845,226.088 113.562,225.246 114.248,224.435C114.924,223.624 115.599,222.824 116.285,222.013C116.556,221.691 116.836,221.348 116.867,220.932C115.734,220.838 114.996,222.314 113.863,222.398C114.393,220.526 115.152,218.718 116.119,217.034C116.358,216.618 116.608,216.14 116.441,215.703C115.215,216.171 114.175,217.044 113.281,218.011C112.657,218.687 112.075,219.414 111.566,220.183C110.069,222.45 109.133,225.059 108.51,227.699Z" fill="#F2A181"/>
<path d="M106.998,245.942L94.814,235.672C94.814,235.672 89.149,243.364 91.28,250.776C92.33,254.425 93.65,256.233 94.222,257.959C94.752,259.581 98.422,282.46 98.151,284.134C97.881,285.807 95.906,290.485 95.157,295.413C94.253,301.338 94.409,320.621 93.702,325.735C93.006,330.85 97.725,331.712 97.985,329.987C100.21,315.194 106.072,292.148 106.894,284.758C107.715,277.356 107.382,263.822 106.998,245.942Z" fill="#FFBE9D"/>
<path d="M107.028,260.512L101.727,272.664C103.962,276.437 105.251,280.886 105.417,285.397C105.51,287.747 105.302,290.096 105.365,292.435C105.365,292.601 105.396,292.778 105.438,292.944C106.144,289.472 106.675,286.603 106.883,284.732C107.465,279.504 107.465,271.208 107.278,260.48C107.205,260.501 107.122,260.501 107.028,260.512Z" fill="#F2A181"/>
<path d="M98.804,325.239C98.804,325.239 97.671,330.602 97.973,331.289C98.274,331.975 99.376,333.96 100.499,334.677C101.673,335.436 104.293,336.33 104.501,336.652C104.709,336.975 104.719,337.453 104.355,337.744C103.388,338.503 101.725,338.867 100.634,338.69C97.089,338.108 96.725,336.538 94.667,336.289C94.314,336.247 93.648,336.767 92.671,336.268C91.684,335.769 91.205,334.854 91.289,333.991C91.434,332.515 92.266,331.299 92.858,330.197C93.451,329.106 93.867,324.105 93.867,324.105Z" fill="#FFBE9D"/>
<path d="M104.629,338.005C104.889,337.569 104.951,336.893 104.712,336.737C104.379,336.508 103.194,335.729 102.508,335.406C101.822,335.095 100.731,334.814 101.115,335.022C101.5,335.23 100.793,335.999 100.149,335.968C97.934,335.833 96.292,334.357 95.024,334.045C93.194,333.587 92.435,331.435 92.352,331.082C92.009,331.3 91.209,333.036 91.042,333.577C90.897,334.065 90.637,334.97 90.772,335.49C90.866,335.843 91.084,336.56 90.97,337.309C90.97,337.309 91.333,337.589 92.279,337.787C92.882,337.912 93.693,337.808 93.693,337.808L93.849,336.664C93.849,336.664 94.348,336.643 94.982,336.779C95.616,336.914 96.645,337.506 96.708,337.579C96.957,337.88 97.165,338.431 97.498,338.598C98.381,339.045 99.275,339.253 100.408,339.325C102.799,339.45 104.192,338.754 104.629,338.005Z" fill="#01008A"/>
<path d="M123.627,337.774C123.367,337.483 120.54,337.026 119.219,336.475C117.962,335.945 116.434,334.25 116.132,333.533C115.831,332.816 115.903,329.177 115.945,327.639C116.205,317.109 118.159,291.37 118.44,285.206C118.928,274.489 117.535,263.439 113.419,246.235L98.076,234.457C98.076,234.457 93.783,242.451 95.217,250.091C96.049,254.52 99.729,255.206 100.352,256.931C100.976,258.657 110.259,286.433 110.259,286.433C110.259,286.433 108.45,292.441 108.346,299.011C108.253,304.624 110.799,321.568 111.278,328.023C111.33,329.281 111.548,332.306 111.174,333.263C110.716,334.437 109.562,335.82 109.614,337.306C109.646,338.169 110.269,338.99 111.361,339.323C112.452,339.656 113.055,339.032 113.429,339.022C115.592,338.928 116.194,340.425 119.926,340.414C121.08,340.414 122.754,339.78 123.637,338.876C123.97,338.533 123.887,338.065 123.627,337.774Z" fill="#FFBE9D"/>
<path d="M123.95,339.086C124.158,338.608 124.127,337.932 123.857,337.818C123.482,337.652 122.152,337.07 121.393,336.862C120.645,336.664 119.48,336.56 119.907,336.706C120.333,336.851 119.709,337.725 119.044,337.797C116.736,338.026 114.834,336.831 113.493,336.727C111.549,336.571 110.832,334.575 110.696,334.242C110.374,334.512 109.407,336.363 109.324,336.924C109.241,337.434 109.096,338.369 109.314,338.858C109.459,339.19 109.782,339.866 109.782,340.625C109.782,340.625 110.187,340.843 111.206,340.874C111.85,340.895 112.661,340.666 112.661,340.666L112.661,339.513C112.661,339.513 113.17,339.409 113.846,339.44C114.511,339.461 115.343,339.804 115.748,340.115C116.071,340.355 116.403,340.76 116.778,340.854C117.859,341.124 118.638,341.207 119.813,341.082C122.266,340.812 123.597,339.908 123.95,339.086Z" fill="#01008A"/>
<path d="M95.135,234.36C94.095,235.503 90.384,241.688 90.343,246.719C90.301,251.751 91.912,255.025 92.255,256.033C93.201,258.788 94.968,261.241 94.968,261.751C94.968,262.25 97.734,262.603 103.607,262.229C114.459,261.543 118.441,259.516 118.441,259.516C118.441,259.516 118.794,255.004 117.682,245.212C117.152,240.565 113.191,233.195 113.191,233.195Z" fill="#01008A"/>
<path d="M85.238,214.25C85.238,214.25 86.985,222.929 87.442,224.478C87.899,226.027 90.166,235.83 92.317,235.664C94.469,235.497 106.236,225.674 106.236,225.674L104.573,222.337L94.22,227.275C94.22,227.275 93.284,216.058 92.463,213.387Z" fill="#FFBE9D"/>
<path d="M89.238,219.59C90.33,223.467 92.586,227.553 93.251,230.557C93.386,231.16 100.559,228.55 100.569,225.858Z" fill="#F2A181"/>
<path d="M92.256,202.223C92.256,202.223 88.826,202.586 87.08,203.917C82.641,207.316 86.071,219.645 86.071,219.645C86.071,219.645 85.853,220.3 88.836,220.133C91.82,219.967 94.211,219.115 94.211,219.115L93.348,209.011Z" fill="#FF3874"/>
<path d="M88.327,209.191C88.327,209.191 87.953,216.437 89.262,220.096C90.562,220.075 91.695,219.774 91.695,219.774L88.327,209.191Z" fill="#B03D44"/>
<path d="M108.67,179.466C110.739,182.148 110.333,185.921 109.824,189.268C109.564,190.963 109.304,192.657 109.055,194.352C108.93,195.152 108.764,196.036 108.14,196.555C107.506,197.075 106.601,197.075 105.78,197.033C105.791,198.437 105.801,199.84 105.801,201.243C103.4,201.306 101.009,201.316 98.608,201.275C98.608,200.298 98.389,199.31 97.984,198.416C96.809,198.395 96.03,197.221 95.572,196.14C95.042,194.892 94.657,193.593 94.283,192.293C93.784,190.568 93.316,188.811 93.264,187.013C93.223,185.214 93.649,183.354 94.782,181.961C95.562,181.015 96.622,180.339 97.703,179.778C99.19,178.998 100.978,178.385 102.516,179.071Z" fill="#FFBE9D"/>
<path d="M106.184,192.24C105.903,190.826 105.924,190.036 106.381,189.101C106.537,188.789 106.734,188.498 107.015,188.3C107.389,188.04 107.888,187.989 108.294,188.165C108.564,188.28 108.782,188.498 108.938,188.768C109.427,186.876 109.531,184.86 109.385,182.895C109.157,179.776 107.285,177.365 104.541,176.242C99.458,174.153 92.161,176.221 90.102,181.201C88.543,184.964 89.333,190.4 92.316,193.56C94.957,196.357 98.761,196.762 102.265,196.19C104.063,195.899 106.828,196.076 107.753,193.633C107.826,193.446 107.66,193.259 107.473,193.269C106.745,193.332 106.236,192.51 106.184,192.24Z" fill="#020153"/>
<path d="M106.581,185.621C106.768,185.912 106.726,186.317 106.903,186.619C107.205,187.128 107.6,187.315 108.13,187.554C108.993,187.949 108.795,189.207 108.764,189.768C109.419,189.332 109.523,188.157 109.679,187.565C109.855,186.889 109.97,186.203 110.167,185.538C110.354,184.893 110.687,184.28 110.749,183.594C110.957,181.234 109.481,178.469 107.693,177.149C106.394,176.182 104.408,176.224 102.943,177.201C102.319,177.616 101.861,178.24 101.581,178.926C101.466,179.228 101.383,179.571 101.529,179.851Z" fill="#020153"/>
<path d="M95.031,202.262C95.156,201.441 95.374,200.485 96.144,200.162C96.351,200.069 96.591,200.048 96.819,200.017C99.158,199.757 101.518,199.643 103.867,199.684C104.844,199.695 105.853,199.747 106.715,200.183C108.077,200.869 108.836,202.335 109.491,203.717Z" fill="#B03D44"/>
<path d="M114.857,232.349C114.535,231.861 113.776,231.289 113.506,230.759C112.851,229.48 112.289,224.096 112.508,222.723C112.747,221.247 114.057,220.457 114.639,217.183C115.398,212.962 113.662,209.678 112.695,208.264C111.323,206.278 112.134,206.289 111.666,203.846C111.583,203.409 111.479,202.942 111.177,202.63C110.886,202.328 108.839,201.393 108.443,201.33C104.639,200.738 102.404,201.206 98.558,201.372C96.655,201.455 94.753,201.673 92.882,202.089C90.813,202.547 89.015,203.098 88.589,205.904C87.934,210.239 88.485,214.636 89.805,218.742C90.678,221.466 95.896,230.904 94.607,232.734C94.316,233.15 93.568,233.94 93.485,234.47C93.163,236.383 97.466,237.048 99.316,237.204C102.123,237.433 105.356,237.277 108.173,237.152C110.304,237.048 114.971,236.31 115.304,233.669C115.367,233.15 115.117,232.734 114.857,232.349Z" fill="#FF3874"/>
<path d="M114.042,217.988C114.042,218.758 113.616,219.787 113.47,220.192C112.93,220.462 110.809,220.92 109.593,220.369C109.322,217.832 107.836,212.957 107.836,212.957C107.836,212.957 114.042,217.281 114.042,217.988Z" fill="#B03D44"/>
<path d="M111.322,216.225C111.322,216.225 118.349,233.21 121.395,233.21C123.609,233.21 129.056,217.534 129.056,217.534L125.616,215.902L121.78,222.472L117.902,210.227Z" fill="#FFBE9D"/>
<path d="M124.938,217.067C124.938,217.067 126.081,215.269 125.998,214.001C125.967,213.512 125.676,211.204 125.915,210.757C126.154,210.3 126.736,208.813 127.069,208.533C127.401,208.242 128.617,207.784 128.919,207.982C129.22,208.19 129.584,207.244 130.083,207.317C130.582,207.4 130.987,207.815 130.987,208.262C130.987,208.72 131.653,208.803 131.726,209.125C131.809,209.458 131.767,209.749 131.892,209.988C132.017,210.238 132.38,210.113 132.516,210.726C132.63,211.287 132.474,211.35 132.516,211.63C132.557,211.922 132.807,211.89 132.723,212.441C132.64,212.992 132.266,213.709 131.933,214.323C131.601,214.947 130.925,215.716 130.021,216.267C129.574,216.537 129.324,217.005 128.898,217.805Z" fill="#FFBE9D"/>
<path d="M126.821,203.947C126.738,203.811 126.499,203.583 126.218,203.78C125.938,203.978 126.021,204.321 126.083,204.456C126.146,204.591 128.162,209.154 128.162,209.154C128.162,209.154 128.329,209.352 128.651,209.061C129.004,208.749 128.89,208.604 128.89,208.604C128.89,208.604 126.915,204.082 126.821,203.947Z" fill="#01008A"/>
<path d="M129.016,208.3C128.621,209.007 128.164,209.235 127.748,209.62C127.426,209.921 127.467,210.119 127.104,210.431C127.727,210.389 127.623,210.015 128.434,209.433C128.808,209.163 129.193,208.872 129.276,208.404C129.297,208.258 129.11,208.165 129.016,208.3Z" fill="#F2A181"/>
<path d="M104.854,201.082C106.683,201.176 112.016,200.24 114.978,203.338C117.463,205.937 118.877,212.735 119.874,215.49C117.39,218.027 114.999,220.064 111.226,219.243C111.08,219.139 109.219,213.255 107.858,212.735Z" fill="#FF3874"/>
<path d="M118.451,255.007C118.451,255.007 119.657,284.061 119.438,286.182C119.22,288.303 116.86,328.417 116.86,328.417C116.86,328.417 112.016,329.27 109.116,328.417C109.116,328.417 105.374,297.17 109.116,287.44L107.453,278.115C107.453,278.115 107.702,285.059 107.453,286.463C107.203,287.876 99.719,327.43 99.719,327.43C99.719,327.43 94.771,327.295 92.505,325.32C92.505,325.32 91.798,297.835 96.954,286.276L92.234,256.036L94.947,248.344L118.451,255.007Z" fill="#01008A"/>
<path d="M107.462,278.115C106.776,273.645 102.504,257.792 102.327,257.418C99.999,255.609 97.868,254.019 97.088,252.512C98.366,256.337 100.809,256.535 101.735,258.51C104.001,263.395 102.265,262.314 107.566,278.676Z" fill="#4947FF"/>
<path d="M86.641,200.878C86.527,202.427 86.849,203.966 86.87,205.515C86.891,207.063 86.558,208.737 85.425,209.787C84.282,210.837 82.172,210.878 81.371,209.558C82.192,211.263 83.949,212.417 85.82,212.76C87.681,213.103 89.625,212.698 91.35,211.908C95.924,209.808 98.98,205.016 98.835,199.964C98.721,195.816 95.571,191.803 91.163,193.986C88.585,195.265 86.839,198.03 86.641,200.878Z" fill="#020153"/>
</svg>
