<svg width="44" height="48" viewBox="0 0 44 48" fill="none" xmlns="http://www.w3.org/2000/svg" xmlns:xlink="http://www.w3.org/1999/xlink">
<path d="M29.271,6.159L29.271,0L13.3,0L13.3,6.159L0,6.159L0,9.485L3.979,9.485L6.814,46.387L35.867,46.387L38.701,9.485L43.225,9.485L43.225,6.159L29.271,6.159L29.271,6.159ZM26.001,3.271L26.001,6.105L16.625,6.105L16.625,3.271L26.001,3.271ZM9.812,43.007L7.25,9.43L35.322,9.43L32.705,43.007L9.812,43.007Z" fill="#E41B1B"/>
<path d="M22.946,14.227L19.621,14.227L19.621,38.374L22.946,38.374L22.946,14.227Z" fill="#E41B1B"/>
<path d="M29.711,14.201L26.386,14.201L26.386,38.403L29.711,38.403L29.711,14.201Z" transform="rotate(-353.784 28.049 26.302)" fill="#E41B1B"/>
<path d="M26.616,24.639L2.414,24.639L2.414,27.964L26.616,27.964L26.616,24.639Z" transform="rotate(-186.202 14.515 26.302)" fill="#E41B1B"/>
</svg>
