<svg width="38" height="42" viewBox="0 0 38 42" fill="none" xmlns="http://www.w3.org/2000/svg" xmlns:xlink="http://www.w3.org/1999/xlink">
<path d="M25.113,5.346L25.113,0L11.252,0L11.252,5.346L-0.291,5.346L-0.291,8.231L3.162,8.231L5.622,40.258L30.837,40.258L33.297,8.231L37.223,8.231L37.223,5.346L25.113,5.346L25.113,5.346ZM22.274,2.838L22.274,5.298L14.137,5.298L14.137,2.838L22.274,2.838ZM8.224,37.325L6.001,8.184L30.364,8.184L28.093,37.325L8.224,37.325Z" fill="#E41B1B"/>
<path d="M19.622,12.347L16.736,12.347L16.736,33.303L19.622,33.303L19.622,12.347Z" fill="#E41B1B"/>
<path d="M25.493,12.324L22.608,12.324L22.608,33.328L25.493,33.328L25.493,12.324Z" transform="rotate(-353.784 24.051 22.826)" fill="#E41B1B"/>
<path d="M22.806,21.383L1.802,21.383L1.802,24.269L22.806,24.269L22.806,21.383Z" transform="rotate(-186.202 12.304 22.826)" fill="#E41B1B"/>
</svg>
