<svg width="926" height="646" viewBox="0 0 926 646" fill="none" xmlns="http://www.w3.org/2000/svg" xmlns:xlink="http://www.w3.org/1999/xlink">
<g opacity="0.1">
<path d="M79.244,641.206L887.86,641.206C954.882,585.296 920.394,417.06 864.408,382.954C804.15,346.242 899.836,219.28 807.008,178.068C746.398,151.163 650.002,180.49 662.968,108.5C680.95,8.674 470.794,-16.9 315.962,10.005C148.574,39.098 301.434,182.13 117.355,210.95C22.699,225.77 40.991,352.55 49.817,378.75C57.504,401.568 108.361,437.762 37.682,487.604C-65.961,560.688 76.801,639.86 79.244,641.206Z" fill="#9BC1F9"/>
</g>
<path d="M797.505,214.193C797.505,214.193 784.269,243.013 775.36,255.184C766.452,267.359 757.967,278.997 750.858,312.784C743.75,346.57 744.968,349.965 743.026,358.692C741.08,367.419 728.419,402.775 728.348,409.258C728.274,415.741 702.763,452.649 696.227,469.921C689.69,487.195 678.116,511.871 678.765,524.435L681.673,523.697C681.673,523.697 684.045,494.405 704.212,464.801C724.379,435.197 721.496,429.609 744.397,414.399C767.301,399.192 782.092,357.179 782.092,357.179C782.092,357.179 805.391,311.548 804.304,287.827C803.218,264.106 809.406,242.715 797.505,214.193Z" fill="#256653"/>
<path d="M766.505,169.87C766.505,169.87 765.735,188.801 759.628,200.046C753.521,211.29 748.263,218.122 747.155,230.289C746.047,242.457 742.213,273.822 725.184,289.135C708.156,304.448 705.983,350.332 693.024,364.214C680.065,378.092 678.371,388.07 680.764,411.876C683.157,435.682 691.288,468.674 672.488,511.738L668.238,501.026C668.238,501.026 681.687,465.598 678.431,444.852C675.176,424.108 663.846,392.764 667.993,377.73C672.14,362.698 656.72,359.762 666.005,337.024C675.289,314.287 671.476,306.387 684.119,286.728C684.119,286.728 685.415,285.808 688.738,269.174C692.062,252.54 718.857,222.055 731.206,211.653C743.548,201.253 761.343,184.58 766.505,169.87Z" fill="#256653"/>
<path d="M716.212,263.601C716.212,263.601 701.424,288.916 701.215,305.212C701.005,321.506 702.77,334.76 695.289,357.075C687.808,379.39 702.656,393.496 698.378,405.816C694.099,418.136 693.766,432.722 693.897,443.781C694.028,454.841 676.961,491.451 674.362,509.985C671.763,528.519 675.083,528.583 675.083,528.583C675.083,528.583 677.913,504.113 681.839,496.021C685.766,487.929 697.707,460.032 700.497,449.239C703.288,438.445 710.847,431.518 717.369,413.236C723.892,394.959 733.165,379.56 732.455,353.624C731.749,327.68 742.187,300.302 716.212,263.601Z" fill="#3C8F7C"/>
<path d="M684.903,511.591C684.903,511.591 691.798,479.463 720.877,476.253C749.956,473.043 767.034,478.795 787.577,455.319C808.12,431.843 820.05,394.595 826.611,388.183C826.611,388.183 816.29,382.875 799.13,398.916C781.971,414.957 769.92,427.125 759.986,436.466C750.052,445.807 741.985,439.715 731.497,445.875C722.709,451.037 711.34,465.949 706.334,473.76C704.708,476.299 702.78,478.625 700.565,480.67C698.552,482.53 696.151,484.806 694.61,486.485C691.532,489.841 682.652,511.705 682.652,511.705L684.903,511.591Z" fill="#3C8F7C"/>
<path d="M674.657,505.924C674.657,505.924 684.904,466.631 678.041,447.405C671.178,428.175 649.69,413.948 650.553,401.87C651.416,389.791 665.213,357.144 653.965,332.841C653.965,332.841 649.69,354.52 645.476,359.345C641.258,364.167 612.325,383.617 617.455,409.301C622.586,434.985 650.713,440.989 657.643,448.552C664.57,456.114 673.922,456.104 673.983,461.131C674.043,466.159 675.868,484.44 672.761,502.48L674.657,505.924Z" fill="#3C8F7C"/>
<path d="M685.864,479.626L700.261,438.156C700.261,438.156 708.718,404.803 713.621,376.988C718.525,349.174 716.213,263.596 716.213,263.596C716.213,263.596 701.425,288.911 701.216,305.208C701.006,321.501 702.771,334.755 695.29,357.07C687.809,379.385 702.657,393.491 698.379,405.811C694.101,418.131 693.767,432.717 693.898,443.777C694.03,454.836 676.959,491.446 674.363,509.98C672.94,520.134 673.295,524.736 673.906,526.83C671.591,510.618 685.864,479.626 685.864,479.626Z" fill="#327F6B"/>
<path d="M756.773,454.925C743.931,457.489 732.449,456.615 717.203,467.963C701.957,479.31 692.992,491.428 692.992,491.428C692.992,491.428 686.14,503.674 683.306,510.132C682.898,511.119 682.66,511.709 682.66,511.709L684.908,511.595C684.908,511.595 691.803,479.466 720.881,476.257C749.96,473.047 767.038,478.799 787.581,455.323C808.124,431.847 820.054,394.599 826.615,388.187C826.615,388.187 804.766,405.183 791.267,420.226C777.764,435.266 769.616,452.358 756.773,454.925Z" fill="#327F6B"/>
<path d="M645.476,359.339C641.258,364.16 612.325,383.61 617.455,409.294C622.586,434.978 650.713,440.982 657.643,448.545C664.57,456.107 673.922,456.097 673.983,461.124C674.043,466.152 675.868,484.433 672.761,502.473L673.592,503.979C675.108,496.938 677.217,486.219 677.906,478.078C679.024,464.856 676.88,459.385 672.633,448.673C668.383,437.961 641.978,416.147 635.364,404.678C628.749,393.21 648.121,374.038 652.424,364.781C656.724,355.525 653.976,332.834 653.976,332.834C653.976,332.834 649.69,354.517 645.476,359.339Z" fill="#327F6B"/>
<path d="M714.114,486.941L718.634,476.017C722.142,467.982 731.114,464.147 738.68,467.446C757.739,475.765 766.026,498.924 757.189,519.169L750.727,533.971C747.897,540.455 748.881,547.591 752.698,552.619C756.163,557.188 756.731,563.54 754.327,569.047L750.922,576.851C747.233,585.301 740.058,591.557 731.547,594.138C726.569,595.647 722.174,599.382 719.848,604.708L715.023,615.757C709.69,627.974 696.046,633.808 684.546,628.788L677.984,625.922C666.484,620.902 661.485,606.931 666.818,594.713C675.442,580.107 674.753,569.207 671.696,561.811C667.205,550.939 667.255,538.431 672.115,527.296L672.797,525.734C677.928,513.982 687.834,505.209 699.632,501.452C704.844,499.798 710.273,495.747 714.114,486.941Z" fill="#50BFA5"/>
<path d="M632.73,641.208C641.98,629.214 692.698,564.972 725.768,554.263C762.27,542.447 727.866,589.381 727.866,589.381C727.866,589.381 792.624,518.57 816.387,524.954C838.17,530.805 816.387,574.696 816.387,574.696C816.387,574.696 840.92,550.393 870.674,550.393C899.632,550.393 850.444,636.592 847.792,641.208L632.73,641.208L632.73,641.208Z" fill="#96D9C9"/>
<path d="M827.892,502.226C801.434,543.546 782.122,589.451 771.084,638.217L769.27,637.731C780.265,589.983 799.445,544.161 825.861,502.886C832,493.292 838.629,481.913 850.122,478.171C850.342,478.1 850.427,478.437 850.217,478.515C839.715,482.471 833.633,493.257 827.892,502.226Z" fill="#3C8F7C"/>
<path d="M777.461,639.932C807.026,599.726 842.971,562.563 885.712,530.25C886.138,529.927 886.714,530.673 886.284,531.003C845.748,562.162 809.884,598.956 779.708,640.539L777.461,639.932Z" fill="#3C8F7C"/>
<path d="M830.31,476.602C830.991,477.603 833.598,480.216 834.364,483.649C835.394,486.905 834.581,490.981 834.492,490.839C834.297,490.921 837.51,488.205 838.511,483.884C839.811,479.74 838.902,473.988 837.283,472.085C834.492,467.779 829.614,467.342 828.666,469.43C827.665,471.499 828.939,474.322 830.31,476.602Z" fill="#3C8F7C"/>
<path d="M836.64,513.485C835.653,512.786 833.09,510.127 829.674,509.292C826.439,508.199 822.349,508.93 822.488,509.022C822.403,509.218 825.183,506.058 829.521,505.138C833.69,503.92 839.42,504.943 841.295,506.597C845.545,509.473 845.886,514.359 843.78,515.264C841.685,516.23 838.891,514.902 836.64,513.485Z" fill="#3C8F7C"/>
<path d="M827.086,529.65C826.099,528.95 823.539,526.291 820.12,525.456C816.886,524.363 812.796,525.094 812.934,525.187C812.849,525.382 815.629,522.222 819.968,521.302C824.136,520.084 829.866,521.107 831.741,522.762C835.991,525.637 836.332,530.523 834.226,531.428C832.135,532.394 829.337,531.066 827.086,529.65Z" fill="#3C8F7C"/>
<path d="M861.16,567.146C860.173,566.446 857.613,563.787 854.194,562.952C850.959,561.859 846.869,562.59 847.007,562.683C846.922,562.878 849.702,559.718 854.041,558.798C858.209,557.581 863.94,558.603 865.814,560.258C870.064,563.134 870.405,568.019 868.3,568.924C866.205,569.894 863.411,568.562 861.16,567.146Z" fill="#3C8F7C"/>
<path d="M878.568,551.812C877.581,551.112 875.017,548.453 871.602,547.618C868.367,546.525 864.277,547.256 864.416,547.349C864.33,547.544 867.11,544.384 871.449,543.464C875.617,542.247 881.348,543.269 883.223,544.924C887.473,547.8 887.813,552.685 885.708,553.59C883.613,554.556 880.819,553.225 878.568,551.812Z" fill="#3C8F7C"/>
<path d="M816.941,494.894C817.771,495.775 820.757,497.944 822.057,501.214C823.587,504.268 823.427,508.422 823.317,508.294C823.136,508.404 825.881,505.216 826.19,500.792C826.818,496.496 825.014,490.96 823.118,489.334C819.682,485.521 814.796,485.862 814.189,488.07C813.525,490.275 815.229,492.86 816.941,494.894Z" fill="#3C8F7C"/>
<path d="M802.896,513.225C804.078,513.854 808.208,514.99 810.285,518.079C812.635,520.83 812.933,525.531 812.777,525.439C812.557,525.641 815.721,520.901 815.586,515.828C815.877,510.761 812.869,505.361 810.217,504.36C805.307,501.583 799.022,504.058 798.508,506.788C797.915,509.54 800.432,511.691 802.896,513.225Z" fill="#3C8F7C"/>
<path d="M788.113,540.994C789.384,541.413 793.645,541.839 796.212,544.537C798.992,546.852 800.078,551.439 799.908,551.372C799.723,551.61 802.045,546.405 801.058,541.427C800.494,536.382 796.62,531.567 793.836,531.028C788.528,529.118 782.752,532.615 782.702,535.391C782.581,538.196 785.429,539.897 788.113,540.994Z" fill="#3C8F7C"/>
<path d="M831.861,560.336C832.788,560.915 836.083,562.072 837.595,564.707C839.349,567.078 839.328,570.92 839.204,570.835C839.012,570.987 841.856,567.313 842.033,563.176C842.559,559.072 840.422,554.506 838.32,553.544C834.482,551.005 829.23,552.663 828.655,554.85C828.016,557.052 829.944,558.948 831.861,560.336Z" fill="#3C8F7C"/>
<path d="M854.634,483.102C854.08,482.644 852.681,480.961 850.696,480.318C848.829,479.53 846.379,479.786 846.457,479.842C846.397,479.952 848.179,478.206 850.788,477.854C853.309,477.318 856.654,478.174 857.687,479.232C860.077,481.121 860.062,484.025 858.777,484.469C857.499,484.944 855.905,484.036 854.634,483.102Z" fill="#3C8F7C"/>
<path d="M849.33,471.301C849.355,472.018 849.834,474.155 849.131,476.119C848.617,478.078 846.92,479.864 846.92,479.765C846.795,479.744 849.266,479.399 851.137,477.549C853.101,475.881 854.468,472.71 854.258,471.244C854.223,468.201 851.911,466.436 850.775,467.185C849.621,467.906 849.366,469.724 849.33,471.301Z" fill="#3C8F7C"/>
<path d="M891.101,536.19C890.548,535.732 889.149,534.049 887.164,533.406C885.296,532.618 882.847,532.873 882.925,532.93C882.864,533.04 884.65,531.293 887.256,530.942C889.777,530.406 893.122,531.262 894.155,532.32C896.544,534.208 896.53,537.113 895.245,537.557C893.967,538.036 892.373,537.127 891.101,536.19Z" fill="#3C8F7C"/>
<path d="M884.704,524.289C884.785,525.003 885.442,527.09 884.902,529.107C884.551,531.102 883.003,533.023 882.996,532.924C882.872,532.913 885.307,532.366 887.019,530.371C888.84,528.55 889.941,525.276 889.614,523.831C889.326,520.799 886.884,519.233 885.811,520.071C884.714,520.884 884.608,522.716 884.704,524.289Z" fill="#3C8F7C"/>
<path d="M880.251,601.199C853.236,604.16 828.073,616.086 803.848,627.714C787.512,635.557 788.336,637.79 785.009,638.958C784.47,639.146 783.93,638.561 784.193,638.042C785.474,635.507 788.83,633.792 791.162,632.333C793.882,630.636 796.719,629.134 799.602,627.735C805.769,624.742 812.092,622.047 818.377,619.317C831.162,613.76 844.154,608.538 857.663,604.998C865.07,603.059 872.604,601.66 880.23,600.975C880.376,600.964 880.39,601.181 880.251,601.199Z" fill="#3C8F7C"/>
<path d="M855.899,592.82C856.077,593.927 857.231,597.148 856.517,600.325C856.095,603.46 853.805,606.556 853.791,606.404C853.595,606.393 857.359,605.385 859.904,602.157C862.628,599.196 864.133,594.02 863.53,591.786C862.887,587.075 858.971,584.785 857.355,586.162C855.697,587.504 855.651,590.37 855.899,592.82Z" fill="#3C8F7C"/>
<path d="M832.1,601.345C832.277,602.452 833.431,605.673 832.718,608.85C832.295,611.985 830.005,615.082 829.991,614.929C829.795,614.918 833.559,613.91 836.105,610.682C838.828,607.721 840.333,602.545 839.73,600.308C839.087,595.596 835.171,593.306 833.555,594.684C831.894,596.026 831.851,598.895 832.1,601.345Z" fill="#3C8F7C"/>
<path d="M807.917,612.123C808.095,613.231 809.249,616.451 808.535,619.629C808.112,622.764 805.822,625.86 805.808,625.707C805.613,625.696 809.376,624.688 811.922,621.461C814.645,618.5 816.151,613.323 815.547,611.086C814.904,606.375 810.988,604.085 809.373,605.462C807.711,606.804 807.665,609.673 807.917,612.123Z" fill="#3C8F7C"/>
<path d="M863.006,615.059C862.516,614.143 861.572,611.129 859.275,609.183C857.215,607.11 853.8,606.105 853.874,606.229C853.736,606.347 857.073,604.99 860.748,605.945C864.409,606.606 868.407,609.581 869.209,611.566C871.364,615.393 869.756,619.267 867.796,619.157C865.822,619.093 864.188,617.002 863.006,615.059Z" fill="#3C8F7C"/>
<path d="M838.25,623.823C837.76,622.907 836.816,619.893 834.515,617.947C832.456,615.874 829.04,614.869 829.115,614.993C828.976,615.11 832.314,613.754 835.988,614.709C839.649,615.369 843.647,618.345 844.449,620.329C846.604,624.16 844.996,628.031 843.036,627.92C841.069,627.857 839.432,625.765 838.25,623.823Z" fill="#3C8F7C"/>
<path d="M881.86,606.038C881.431,605.526 880.44,603.758 878.739,602.842C877.17,601.813 874.894,601.632 874.958,601.699C874.887,601.791 876.804,600.499 879.236,600.613C881.622,600.545 884.527,601.884 885.293,603.023C887.154,605.143 886.657,607.788 885.411,607.976C884.161,608.196 882.861,607.103 881.86,606.038Z" fill="#3C8F7C"/>
<path d="M879.002,594.401C878.903,595.057 878.984,597.085 878.015,598.757C877.216,600.454 875.37,601.8 875.388,601.711C875.278,601.672 877.589,601.771 879.602,600.397C881.672,599.208 883.444,596.545 883.501,595.175C883.976,592.395 882.169,590.403 881.008,590.893C879.836,591.354 879.3,592.97 879.002,594.401Z" fill="#3C8F7C"/>
<path d="M183.178,436.019C151.433,407.711 135.108,367.061 127.006,337.94C118.207,306.33 116.926,281.1 116.915,280.848L115.189,280.741C115.2,280.993 116.489,306.408 125.34,338.231C133.517,367.636 150.013,408.708 182.152,437.364L183.178,436.019Z" fill="#3C8F7C"/>
<path d="M120.533,273.529C122.099,280.807 120.789,287.684 117.451,292.648C112.221,288.796 108.106,282.628 106.54,275.35C104.975,268.071 106.285,261.198 109.622,256.23C114.856,260.079 118.967,266.25 120.533,273.529Z" fill="#3C8F7C"/>
<path d="M110.792,294.255C116.264,299.343 119.459,306.028 120.081,312.465C114.077,312.739 107.469,310.303 102.001,305.212C96.534,300.124 93.335,293.438 92.717,287.001C98.717,286.728 105.325,289.167 110.792,294.255Z" fill="#3C8F7C"/>
<path d="M108.23,316.032C115.026,318.165 120.6,322.898 123.902,328.647C118.97,331.814 112.359,332.726 105.564,330.592C98.768,328.458 93.194,323.726 89.892,317.977C94.823,314.81 101.431,313.898 108.23,316.032Z" fill="#3C8F7C"/>
<path d="M118.697,342.228C124.08,343.925 128.387,348.271 130.826,353.757C126.743,357.186 121.399,358.486 116.013,356.789C110.631,355.092 106.324,350.746 103.885,345.26C107.968,341.831 113.311,340.531 118.697,342.228Z" fill="#3C8F7C"/>
<path d="M127.889,304.84C132.125,300.576 137.738,298.754 143.17,299.34C143.472,305.089 141.487,310.918 137.252,315.183C133.016,319.447 127.403,321.268 121.97,320.682C121.669,314.934 123.653,309.104 127.889,304.84Z" fill="#3C8F7C"/>
<path d="M132.802,323.614C137.038,319.35 142.651,317.529 148.084,318.115C148.385,323.863 146.401,329.693 142.165,333.957C137.929,338.221 132.316,340.043 126.883,339.457C126.582,333.705 128.563,327.879 132.802,323.614Z" fill="#3C8F7C"/>
<path d="M164.049,474.405C134.732,470.13 109.644,452.765 93.759,438.946C76.514,423.946 66.09,409.772 65.987,409.63L64.943,410.23C65.046,410.372 75.549,424.652 92.904,439.756C108.941,453.713 134.288,471.256 163.97,475.58L164.049,474.405Z" fill="#50BFA5"/>
<path d="M65.281,403.991C68.984,407.623 70.859,412.122 70.827,416.286C66.307,416.056 61.549,414.046 57.846,410.417C54.143,406.785 52.268,402.287 52.3,398.122C56.82,398.353 61.578,400.359 65.281,403.991Z" fill="#50BFA5"/>
<path d="M67.574,419.777C72.708,420.636 77.129,423.295 79.958,426.799C76.571,429.263 71.799,430.382 66.665,429.523C61.531,428.663 57.111,426.004 54.281,422.5C57.665,420.036 62.44,418.914 67.574,419.777Z" fill="#50BFA5"/>
<path d="M74.436,433.416C79.205,432.049 84.264,432.66 88.386,434.737C86.735,438.472 83.242,441.536 78.473,442.906C73.705,444.273 68.646,443.663 64.523,441.586C66.174,437.85 69.668,434.786 74.436,433.416Z" fill="#50BFA5"/>
<path d="M90.574,444.629C94.356,443.55 98.524,444.423 102.046,446.678C100.988,450.239 98.382,453.044 94.601,454.123C90.819,455.203 86.651,454.329 83.129,452.075C84.187,448.514 86.793,445.709 90.574,444.629Z" fill="#50BFA5"/>
<path d="M81.573,419.368C82.4,415.264 84.964,412.051 88.344,410.308C90.726,413.535 91.809,417.682 90.982,421.786C90.155,425.891 87.591,429.104 84.208,430.847C81.829,427.623 80.746,423.473 81.573,419.368Z" fill="#50BFA5"/>
<path d="M91.633,428.397C92.46,424.292 95.023,421.079 98.407,419.336C100.789,422.563 101.872,426.71 101.045,430.815C100.218,434.919 97.654,438.132 94.271,439.876C91.888,436.648 90.805,432.501 91.633,428.397Z" fill="#50BFA5"/>
<path d="M181.701,562.148C147.886,574.987 110.659,568.205 85.386,560.255C57.952,551.628 38.278,539.794 38.083,539.677L37.334,541.108C37.529,541.228 57.348,553.151 84.964,561.843C110.485,569.874 148.092,576.719 182.329,563.724L181.701,562.148Z" fill="#96D9C9"/>
<path d="M33.919,532.807C40.058,535.189 44.777,539.844 47.258,545.265C42.305,547.797 36.021,548.177 29.882,545.795C23.743,543.409 19.025,538.757 16.543,533.336C21.496,530.804 27.78,530.424 33.919,532.807Z" fill="#96D9C9"/>
<path d="M45.898,551.823C51.884,549.721 58.204,550.392 63.338,553.158C61.218,558.473 56.809,562.914 50.819,565.016C44.833,567.118 38.513,566.447 33.379,563.681C35.502,558.37 39.912,553.928 45.898,551.823Z" fill="#96D9C9"/>
<path d="M61.456,565.203C65.709,560.442 71.468,558.066 77.117,558.169C77.614,564.045 75.747,570.205 71.49,574.967C67.236,579.731 61.477,582.107 55.828,582C55.335,576.128 57.202,569.964 61.456,565.203Z" fill="#96D9C9"/>
<path d="M83.223,572.107C87.477,567.342 93.236,564.967 98.885,565.074C99.382,570.95 97.514,577.11 93.257,581.871C89.004,586.636 83.245,589.011 77.596,588.905C77.102,583.032 78.97,576.872 83.223,572.107Z" fill="#96D9C9"/>
<path d="M62.744,549.792C58.998,544.917 57.33,539.041 57.727,533.712C62.659,534.287 67.701,537.152 71.443,542.027C75.189,546.902 76.857,552.778 76.46,558.108C71.528,557.532 66.486,554.667 62.744,549.792Z" fill="#96D9C9"/>
<path d="M85.359,556.868C81.545,552.05 79.784,546.192 80.093,540.849C85.021,541.339 90.098,544.119 93.915,548.937C97.729,553.755 99.49,559.613 99.181,564.956C94.249,564.47 89.172,561.69 85.359,556.868Z" fill="#96D9C9"/>
<path d="M111.831,574C112.832,571.461 114.817,569.697 117.146,568.969C118.265,571.316 118.456,574.103 117.459,576.641C116.457,579.18 114.473,580.945 112.144,581.672C111.025,579.326 110.833,576.538 111.831,574Z" fill="#96D9C9"/>
<path d="M254.282,638.727C254.282,638.727 297.366,468.329 283.08,451.205C263.334,427.541 247.046,506.039 245.448,499.371C230.354,436.407 226.335,355.842 177.643,347.314C149.967,342.467 184.038,407.221 181.985,424.736C179.937,442.251 130.059,384.101 99.749,353.637C69.438,323.174 53.784,342.46 72.935,380.767C91.455,417.809 151.362,458.288 139.014,463.092C126.665,467.896 51.696,420.06 42.515,440.507C31.26,465.581 143.715,499.701 133.127,505.336C122.536,510.967 68.788,492.419 70.258,511.592C71.728,530.765 143.977,530.051 142.745,538.483C140.746,552.139 92.957,521.232 90.858,540.123C88.71,559.449 153.727,555.923 152.601,570.999C151.955,579.661 138.002,566.595 135.946,578.593C131.259,605.953 216.968,639.279 216.968,639.279L254.282,638.727Z" fill="#3C8F7C"/>
<path d="M287.135,639.768C287.135,639.768 246.13,576.899 226.4,565.03C205.378,552.383 221.383,590.249 221.383,590.249C221.383,590.249 178.415,539.125 166.475,549.51C154.531,559.899 165.371,571.928 165.371,571.928C165.371,571.928 126.798,560.499 119.868,574.655C109.216,596.409 172.717,614.449 172.717,614.449C172.717,614.449 145.456,614.162 150.473,628.85C158.035,651.002 287.135,639.768 287.135,639.768Z" fill="#50BFA5"/>
<path d="M119.867,574.656C126.801,560.496 165.37,571.929 165.37,571.929C165.37,571.929 154.531,559.9 166.475,549.511C178.419,539.122 212.787,570.217 212.787,570.217C212.787,570.217 209.184,544.576 235.067,567.164C253.551,583.298 287.138,639.768 287.138,639.768L119.867,574.656Z" fill="#96D9C9"/>
<path d="M237.358,481.919L239.197,480.661C205.811,430.099 195.621,370.074 192.951,328.619C190.054,283.634 195.138,250.195 195.192,249.865L192.912,249.201C192.859,249.535 187.736,283.197 190.644,328.448C193.331,370.259 203.617,430.82 237.358,481.919Z" fill="#96D9C9"/>
<path d="M201.765,241.989C201.84,252.147 198.314,260.544 192.69,265.582C186.977,258.317 183.324,248.511 183.249,238.353C183.178,228.195 186.7,219.798 192.324,214.76C198.037,222.024 201.694,231.831 201.765,241.989Z" fill="#96D9C9"/>
<path d="M183.681,264.818C189.373,273.797 191.709,283.881 190.786,292.533C182.975,290.311 175.11,284.3 169.422,275.321C163.731,266.341 161.395,256.258 162.318,247.605C170.129,249.825 177.99,255.836 183.681,264.818Z" fill="#96D9C9"/>
<path d="M174.56,292.093C182.751,297.792 188.67,306.352 191.386,315.264C184.182,317.273 175.423,315.626 167.232,309.927C159.041,304.229 153.122,295.669 150.406,286.757C157.61,284.747 166.369,286.395 174.56,292.093Z" fill="#96D9C9"/>
<path d="M185.243,339.713C188.815,341.843 191.528,345.262 192.923,348.937C189.99,350.031 186.301,349.626 182.73,347.496C179.158,345.365 176.445,341.946 175.05,338.271C177.983,337.178 181.668,337.579 185.243,339.713Z" fill="#96D9C9"/>
<path d="M188.145,357.351C191.716,359.481 194.429,362.901 195.824,366.575C192.892,367.669 189.203,367.264 185.631,365.134C182.059,363.004 179.347,359.584 177.951,355.91C180.884,354.82 184.573,355.221 188.145,357.351Z" fill="#96D9C9"/>
<path d="M202.89,285.951C209.49,282.212 217.209,282.251 224.054,285.344C222.908,292.967 218.796,299.709 212.196,303.448C205.595,307.186 197.877,307.147 191.031,304.055C192.178,296.432 196.29,289.689 202.89,285.951Z" fill="#96D9C9"/>
<path d="M204.207,312.524C210.808,308.785 218.526,308.824 225.372,311.917C224.225,319.54 220.114,326.282 213.513,330.021C206.913,333.759 199.194,333.72 192.349,330.628C193.495,323.009 197.607,316.263 204.207,312.524Z" fill="#96D9C9"/>
<path d="M202.898,350.557C207.194,348.121 212.218,348.149 216.674,350.163C215.928,355.123 213.251,359.511 208.955,361.947C204.659,364.382 199.635,364.354 195.179,362.341C195.924,357.381 198.601,352.992 202.898,350.557Z" fill="#96D9C9"/>
<path d="M673.981,500.489C677.862,501.117 677.631,501.749 678.131,501.817C678.721,501.895 685.722,498.38 685.722,498.38C685.722,498.38 706.432,488.158 707.53,487.565L722.477,468.758L733.995,474.069C733.995,474.069 717.183,494.062 716.122,494.943C715.057,495.823 685.364,506.237 682.783,507.238C682.783,507.238 680.18,509.617 678.494,511.055C676.807,512.493 674.556,513.061 674.02,513.388C673.942,513.437 672.081,514.417 669.458,514.989C667.196,515.482 669.081,513.945 669.081,513.945C669.081,513.945 673.083,512.255 672.887,511.95C672.735,511.715 670.608,512.77 668.112,513.341C667.469,513.487 666.837,513.633 666.251,513.757C664.718,514.087 664.047,513.21 665.584,512.599C666.127,512.383 667.04,512.049 667.728,511.907C668.471,511.751 669.095,511.364 669.695,511.133C670.888,510.679 671.765,510.363 671.719,510.324C671.659,510.27 671.826,510.008 671.141,510.139C670.313,510.299 668.648,511.044 667.412,511.183C666.713,511.261 665.261,511.52 665.261,511.52C665.261,511.52 662.69,511.765 662.673,511.406C662.634,510.618 664.217,510.178 665.186,510.199C665.797,509.887 667.334,509.66 667.334,509.66C667.334,509.66 670.313,508.484 670.143,508.044C670.075,507.867 668.268,508.14 666.354,508.271C664.331,508.41 662.864,508.41 662.758,508.019C662.587,507.398 664.196,507.16 664.196,507.16C664.196,507.16 665.616,506.954 666.081,506.848C666.628,506.723 668.226,506.223 668.226,506.223C668.226,506.223 673.708,504.21 673.509,503.805C673.31,503.4 672.404,502.555 672.017,502.555C671.63,502.559 670.942,502.942 670.555,502.946C670.168,502.949 669.337,502.875 669.28,502.388C669.223,501.902 671.368,500.893 671.368,500.893C671.368,500.893 672.863,500.308 673.981,500.489Z" fill="#F8A492"/>
<path d="M712.074,480.41C712.074,480.41 715.802,483.797 717.354,484.912C718.643,485.839 724.927,488.864 724.927,488.864C724.927,488.864 731.179,479.292 733.913,474.492C737.23,468.669 739.527,460.005 738.742,459.771C736.541,459.111 733.516,458.71 730.721,459.991C721.046,464.433 712.074,480.41 712.074,480.41Z" fill="#355389"/>
<path d="M677.605,505.491C675.947,505.754 674.25,505.438 673.515,503.918C673.348,505.722 676.079,506.616 677.605,505.491Z" fill="#FE875E"/>
<path d="M214.109,438.346C214.34,432.772 213.524,427.265 211.038,422.077C208.901,417.611 203.614,415.079 198.793,415.072C183.483,415.051 181.537,435.367 171.791,443.203C168.812,445.596 165.485,447.549 162.666,450.13C152.26,459.663 156.946,477.316 166.501,485.674C173.129,491.475 183.55,494.77 191.723,490.236C195.988,487.868 199.226,483.934 201.534,479.624C204.807,473.506 206.92,466.444 209.245,459.926C211.727,452.981 213.804,445.756 214.109,438.346Z" fill="#13375B"/>
<path d="M216.614,465.339C211.831,450.832 205.519,451.059 205.519,451.059L210.621,481.948C213.575,481.142 217.42,479.342 220.37,478.511C219.39,473.924 217.789,468.911 216.614,465.339Z" fill="#F7CC7F"/>
<path d="M240.782,514.817L223.299,501.481C223.299,501.481 221.541,489.04 219.184,477.998C216.233,478.832 213.571,481.144 210.62,481.953L215.065,506.679L237.98,518.499L244.453,526.817L245.926,518.278L240.782,514.817Z" fill="#F48C7F"/>
<path d="M400.141,493.986C405.57,493.986 410.665,495.417 415.068,497.92C415.624,498.236 416.228,498.527 416.872,498.789C430.306,504.307 445.006,494.089 445.006,479.564L445.006,408.138L373.583,408.138C359.058,408.138 348.84,393.439 354.358,380.004C354.62,379.361 354.911,378.758 355.227,378.2C357.731,373.794 359.161,368.703 359.161,363.274C359.161,346.072 344.817,332.218 327.438,333.024C311.709,333.752 299.044,346.672 298.604,362.411C298.448,368.01 299.811,373.276 302.314,377.827C302.627,378.396 302.911,379.01 303.173,379.663C308.645,393.318 298.263,408.142 283.553,408.142L212.742,408.142L212.742,570.892C212.742,609.284 243.866,640.408 282.257,640.408L445.008,640.408L445.008,569.22C445.008,554.624 430.26,544.342 416.744,549.842C416.098,550.104 415.49,550.392 414.932,550.704C410.118,553.406 404.487,554.83 398.501,554.514C383.081,553.698 370.622,541.168 369.895,525.741C369.071,508.344 382.932,493.986 400.141,493.986Z" fill="#F47458"/>
<path d="M554.951,454.365C555.204,448.943 556.872,443.919 559.578,439.637C559.919,439.098 560.238,438.505 560.529,437.876C566.668,424.715 557.146,409.554 542.638,408.876L471.287,405.542L467.954,476.889C467.275,491.397 452.115,500.919 438.953,494.78C438.325,494.486 437.732,494.17 437.192,493.829C432.91,491.123 427.89,489.458 422.464,489.202C405.28,488.4 390.773,502.08 390.766,519.478C390.759,535.221 403.072,548.478 418.772,549.65C424.357,550.069 429.679,548.95 434.344,546.664C434.927,546.38 435.552,546.121 436.219,545.89C450.112,541.061 464.439,552.124 463.75,566.816L460.444,637.55L623.018,645.152C661.368,646.944 693.912,617.308 695.704,578.959L703.306,416.385L632.194,413.062C617.614,412.38 606.654,426.632 611.514,440.394C611.746,441.051 612.004,441.672 612.292,442.244C614.768,447.179 615.928,452.87 615.332,458.835C613.798,474.202 600.696,486.06 585.255,486.067C567.843,486.071 554.146,471.556 554.951,454.365Z" fill="#F7CC7F"/>
<path d="M356.141,342.024C356.414,347.446 355.243,352.606 352.963,357.128C352.676,357.7 352.416,358.318 352.186,358.974C347.35,372.668 358.293,386.84 372.8,386.108L444.136,382.522L440.55,311.185C439.822,296.681 453.988,285.735 467.684,290.571C468.34,290.801 468.958,291.06 469.53,291.348C474.052,293.627 479.212,294.799 484.634,294.526C501.814,293.663 514.93,278.641 513.254,261.321C511.738,245.65 498.196,233.649 482.456,234C476.858,234.125 471.666,235.754 467.246,238.481C466.696,238.822 466.096,239.138 465.456,239.433C452.096,245.586 436.766,235.96 436.026,221.268L432.47,150.546L269.924,158.719C231.582,160.647 202.06,193.294 203.988,231.636L212.161,394.182L283.26,390.606C297.835,389.874 307.364,374.628 301.193,361.404C300.899,360.772 300.583,360.178 300.238,359.638C297.295,354.966 295.591,349.413 295.608,343.42C295.647,327.979 307.538,314.906 322.908,313.404C340.238,311.714 355.275,324.833 356.141,342.024Z" fill="#50BFA5"/>
<path d="M502.147,302.653C496.719,302.653 491.624,301.222 487.221,298.719C486.664,298.403 486.06,298.111 485.417,297.849C471.982,292.331 457.283,302.55 457.283,317.075L457.283,388.499L528.709,388.499C543.234,388.499 553.452,403.199 547.935,416.633C547.672,417.277 547.381,417.881 547.065,418.437C544.562,422.843 543.131,427.935 543.131,433.363C543.131,450.567 557.475,464.421 574.855,463.615C590.583,462.887 603.248,449.967 603.688,434.227C603.844,428.627 602.477,423.363 599.978,418.811C599.665,418.243 599.381,417.629 599.119,416.975C593.644,403.319 604.029,388.497 618.739,388.497L689.549,388.497L689.549,225.749C689.549,187.357 658.427,156.233 620.035,156.233L457.283,156.233L457.283,227.421C457.283,242.017 472.032,252.299 485.549,246.8C486.195,246.537 486.802,246.249 487.36,245.937C492.174,243.235 497.805,241.808 503.791,242.127C519.211,242.944 531.67,255.473 532.398,270.9C533.218,288.294 519.36,302.653 502.147,302.653Z" fill="#184655"/>
<path d="M166.254,617.82C166.254,617.82 165.174,625.319 163.321,627.74C162.7,628.553 161.56,629.58 160.814,631.049C159.653,633.332 160.296,636.737 161.152,638.609C161.592,639.571 161.12,639.567 162.124,639.876C165.093,640.792 168.249,639.248 169.513,636.4C170.22,634.809 170.837,632.686 170.962,630.009C171.278,623.199 173.39,619.738 173.39,619.738L166.254,617.82Z" fill="#F7A491"/>
<path d="M198.718,621.248C198.718,621.248 199.386,629.705 198.843,632.45C198.552,633.92 196.94,636.952 197.682,638.337C198.42,639.721 199.265,640.069 199.265,640.069L218.427,640.378C219.471,640.396 218.782,639.721 217.941,639.1C216.563,638.085 215.452,637.413 211.049,635.28C210.762,635.141 209.718,634.474 209.342,634.243C208.386,633.657 207.428,632.737 206.601,631.818C205.223,630.281 205.106,622.835 205.106,622.835L198.718,621.248Z" fill="#F7A491"/>
<path d="M213.694,508.855C213.694,508.855 216.108,522.585 214.521,531.586C212.934,540.586 205.332,624.012 205.332,624.012L196.882,624.492C196.882,624.492 195.11,589.643 195.426,584.797C195.742,579.951 198.253,571.841 198.253,571.841L197.411,543.703L208.077,506.739L213.694,508.855Z" fill="#355389"/>
<path d="M188.859,505.963C188.859,505.963 182.205,516.001 180.618,524.309C179.035,532.617 181.783,558.149 178.733,569.038C177.082,574.932 170.829,584.032 169.878,591.648C168.926,599.263 165.198,619.214 165.198,619.214L173.645,620.893L193.276,571.073L208.674,526.041L212.619,502.85L188.859,505.963Z" fill="#466EB6"/>
<path d="M194.244,448.847C194.244,448.847 185.432,448.286 181.949,452.093C178.462,455.899 189.682,486.025 190.314,490.868C190.946,495.714 187.083,508.599 187.083,508.599C187.083,508.599 207.779,512.774 213.697,508.851C213.697,508.851 214.333,474.003 213.697,470.541C213.065,467.079 207.782,453.001 206.515,451.617C205.244,450.232 194.244,448.847 194.244,448.847Z" fill="#F7CC7F"/>
<path d="M197.178,437.049C197.178,437.049 197.132,437.308 197.05,437.752C196.656,439.875 195.144,446.919 194.121,448.854C192.885,451.194 198.35,458.657 203.608,457.745C205.174,457.475 202.284,450.889 202.426,450.189C202.692,448.854 203.051,447.033 203.42,445.165C203.629,444.111 203.839,443.042 204.038,442.041C204.599,439.186 205.06,436.854 205.06,436.854L197.178,437.049Z" fill="#F7A491"/>
<path d="M197.05,437.749C197.131,437.305 197.177,437.046 197.177,437.046L205.056,436.851C205.056,436.851 204.598,439.183 204.034,442.038C203.838,443.036 203.629,444.097 203.419,445.148C202.201,444.967 200.93,444.378 199.656,443.256C198.268,442.038 197.355,440.572 196.805,439.009C196.908,438.509 196.989,438.079 197.05,437.749Z" fill="#F47458"/>
<path d="M202.482,419.097C202.482,419.097 198.768,418.668 196.439,421.686C194.11,424.704 191.603,434.034 197.383,439.108C203.167,444.182 208.88,438.437 209.728,432.348C210.577,426.259 210.904,418.877 202.482,419.097Z" fill="#F7A491"/>
<path d="M211.441,432.259C210.752,433.605 209.591,434.347 208.852,433.921C208.114,433.495 208.075,432.06 208.763,430.715C209.452,429.369 210.613,428.624 211.352,429.05C212.09,429.479 212.129,430.914 211.441,432.259Z" fill="#F7A491"/>
<path d="M202.896,418.101C202.896,418.101 197.936,426.977 194.386,427.385C190.835,427.794 190.37,432.512 190.37,432.512C190.37,432.512 191.638,421.648 195.153,419.553C198.664,417.455 202.896,418.101 202.896,418.101Z" fill="#13375B"/>
<path d="M170.086,634.898C165.481,635.739 162.421,633.041 160.827,631.021C159.655,633.311 159.087,636.726 159.946,638.604C160.702,640.262 162.918,640.213 164.665,640.277C166.508,640.344 167.935,639.318 168.851,637.71C169.273,636.96 169.717,636.023 170.086,634.898Z" fill="#F47458"/>
<path d="M209.341,634.243C204.275,635.546 200.526,634.658 198.431,633.813C197.891,635.347 197.174,637.275 197.554,638.387C198.019,639.746 198.683,640.055 199.265,640.069C203.895,640.19 216.222,640.357 219.751,640.403C220.245,640.41 220.515,639.832 220.199,639.452C219.325,638.404 209.718,634.474 209.341,634.243Z" fill="#F47458"/>
<path d="M195.318,429.615C195.605,431.191 195.026,432.636 194.022,432.842C193.017,433.048 191.969,431.941 191.678,430.364C191.391,428.788 191.969,427.343 192.974,427.137C193.979,426.927 195.026,428.039 195.318,429.615Z" fill="#F7A491"/>
<path d="M201.112,435.071L205.592,435.274C205.592,435.274 205.411,436.971 203.441,436.939C201.034,436.9 201.112,435.071 201.112,435.071Z" fill="#FFFFFF"/>
<path d="M583.129,77.848C583.686,77.869 585.216,78.384 587.45,82.605C590.304,88.002 594.476,104.299 594.476,104.299L582.021,108.936L580.42,105.534L577.785,79.346C577.789,79.346 582.976,77.841 583.129,77.848Z" fill="#DD513A"/>
<path d="M566.667,75.498C570.228,75.502 579.04,76.542 583.131,77.849C583.131,77.849 586.134,103.671 580.425,123.295C579.147,127.687 581.483,141.505 581.483,141.505L544.579,141.019C544.579,141.019 548.95,107.616 547.302,102.223C545.655,96.826 545.616,78.026 545.616,78.026C545.616,78.026 545.868,77.987 553.906,76.599C557.659,75.945 562.864,75.491 566.667,75.498Z" fill="#F47458"/>
<path d="M562.367,189.434C562.367,189.434 563.184,198.857 564.686,201.466C566.188,204.076 564.608,208.51 564.526,209.121C564.448,209.728 561.366,210.598 556.466,210.076C551.567,209.554 551.648,208.425 552.042,206.597C552.437,204.772 555.046,202.421 555.202,200.682C555.362,198.942 553.701,192.679 553.701,192.679L562.367,189.434Z" fill="#F7A491"/>
<path d="M577.318,133.728C577.318,133.728 602.792,132.315 608.48,135.759C614.168,139.203 604.44,156.114 604.44,156.114C604.44,156.114 586.712,155.298 551.992,157.3C543.769,157.776 543.062,135.862 544.6,134.048C546.137,132.234 577.318,133.728 577.318,133.728Z" fill="#E0973F"/>
<path d="M555.858,210.807C550.813,210.271 551.438,207.793 551.846,205.911C552.102,204.732 553.547,203.344 554.41,202.03C554.861,202.389 555.595,203.024 557.783,203.671C560.058,204.342 563.176,203.014 565.161,202.179C565.871,204.814 565.903,208.176 565.835,208.687C565.753,209.316 560.9,211.347 555.858,210.807Z" fill="#DD513A"/>
<path d="M558.642,151.951C559.661,159.652 564.699,197.994 564.699,197.994L553.007,199.443C553.007,199.443 538.628,149.398 539.366,141.747C540.105,134.092 545.487,133.449 545.487,133.449C545.487,133.449 555.947,131.564 558.642,151.951Z" fill="#F7CC7F"/>
<path d="M545.214,80.892C548.665,79.596 550.352,110.688 550.817,123.484C556.927,124.073 567.579,123.487 570.231,123.288C571.477,123.196 574.353,122.142 575.596,121.978C576.867,121.811 578.021,121.726 578.642,121.833C578.873,121.872 585.239,124.478 585.786,125.05C586.461,125.76 588.289,127.546 587.98,128.316C587.671,129.09 584.469,126.164 584.469,126.164L582.903,125.284C584.852,127.187 588.573,129.697 588.037,130.61C587.515,131.501 584.16,128.955 581.77,127.219C583.823,129.072 586.368,132.385 585.782,132.903C585.253,133.368 582.356,129.53 579.26,128.426C578.113,128.018 576.966,129.15 576.065,129.289C575.401,129.388 574.378,129.605 573.725,129.42L570.37,128.469C569.226,128.572 569.198,129.246 568.044,129.495C566.706,129.779 564.508,130.081 562.804,130.496C552.983,132.896 549.706,134.011 546.698,134.007C537.588,134.004 537.062,83.952 545.214,80.892Z" fill="#F7A491"/>
<path d="M538.667,110.08C538.021,96.971 538.117,80.816 545.463,78.061C548.364,76.975 553.473,83.511 552.553,110.346C548.634,110.669 542.875,110.932 538.667,110.08Z" fill="#DD513A"/>
<path d="M596.558,197.493C596.558,197.493 595.539,200.763 597.364,202.929C599.192,205.091 606.783,207.214 607.778,208.386C608.775,209.558 608.697,210.555 608.697,210.555L587.391,209.97L587.621,203.536L588.601,198.913L596.558,197.493Z" fill="#F7A491"/>
<path d="M598.692,204.005C598.692,204.005 593.217,206.221 590.572,204.907C587.927,203.597 588.008,203.231 587.241,203.721C586.475,204.211 586.201,210.243 586.201,210.243L610.16,210.946C611.829,210.907 612.67,209.679 611.314,208.628C610.384,207.907 609.311,207.424 608.701,207.076C606.83,206.004 598.692,204.005 598.692,204.005Z" fill="#DD513A"/>
<path d="M595.752,139.766C597.399,136.3 601.145,131.788 607.735,134.507C614.019,137.099 615.706,143.469 613.725,149.991C611.744,156.513 598.688,194.859 598.234,200.131L587.81,200.199C587.81,200.199 589.702,169.838 590.167,162.499C590.611,155.434 592.901,145.762 595.752,139.766Z" fill="#F7CC7F"/>
<path d="M612.676,104.449L577.835,104.449C576.912,104.449 576.084,105.007 575.733,105.862L565.003,132.118L545.795,132.118C545.259,132.118 544.822,132.555 544.822,133.095C544.822,133.634 545.259,134.071 545.795,134.071L600.466,134.071C601.968,134.071 603.331,133.187 603.949,131.809L614.753,107.662C615.42,106.153 614.323,104.449 612.676,104.449Z" fill="#000000"/>
<path d="M593.913,119.738C593.679,120.917 592.653,121.705 591.623,121.499C590.593,121.293 589.951,120.168 590.185,118.989C590.419,117.81 591.445,117.022 592.475,117.228C593.505,117.434 594.147,118.559 593.913,119.738Z" fill="#FFFFFF"/>
<path d="M574.945,43.96C573.894,43.604 572.861,43.207 571.863,42.724C570.734,42.181 569.272,41.542 568.348,41.4C566.403,41.098 563.065,41.3 561.219,43.299C558.922,45.792 554.839,43.75 555.659,56.805C556.589,71.586 564.809,69.963 565.007,69.711C565.206,69.463 572.336,60.256 572.336,60.256C572.336,60.256 574.828,65.71 574.828,65.508C574.832,65.319 587.56,48.206 574.945,43.96Z" fill="#0E2E35"/>
<path d="M568.707,70.808L569.417,76.088C569.417,76.088 571.008,83.696 568.963,85.163C566.918,86.629 560.268,75.871 560.268,75.871L560.971,62.489L568.707,70.808Z" fill="#F7A491"/>
<path d="M560.742,66.828C562.432,71.394 566.455,74.199 569.31,75.285L568.71,70.808L560.969,62.489L560.742,66.828Z" fill="#F47458"/>
<path d="M568.288,47.929C572.62,47.229 576.508,50.712 576.398,55.051C576.352,56.936 576.195,59.29 575.805,61.825C574.864,67.921 570.703,73.29 567.955,72.81C565.207,72.331 558.283,67.073 559.504,58.396C560.254,53.038 563.74,48.66 568.288,47.929Z" fill="#F7A491"/>
<path d="M561.411,59.429C561.18,60.771 560.104,61.701 559.014,61.513C557.92,61.321 557.225,60.082 557.455,58.74C557.686,57.398 558.762,56.468 559.852,56.656C560.945,56.848 561.641,58.09 561.411,59.429Z" fill="#F7A491"/>
<path d="M559.852,56.656C559.852,56.656 563.179,57.483 564.411,55.342C565.646,53.205 570.056,48.589 575.666,50.503C581.275,52.416 570.73,45.852 570.28,45.852C569.832,45.852 564.446,45.813 564.446,45.813C564.446,45.813 560.296,49.228 560.146,49.601C559.997,49.977 558.801,54.067 558.801,54.067L559.852,56.656Z" fill="#0E2E35"/>
<path d="M565.936,65.582L571.986,66.739C571.986,66.739 571.407,69.019 568.733,68.586C565.474,68.06 565.936,65.582 565.936,65.582Z" fill="#FFFFFF"/>
<path d="M463.586,486.837C463.817,487.636 463.952,487.899 464.243,488.435C466.139,491.89 470.541,496.818 470.541,496.818L473.946,489.145C473.946,489.145 473.392,486.734 472.427,483.294C469.142,484.15 466.011,484.647 463.586,486.837Z" fill="#F8A492"/>
<path d="M483.111,480.185C483.111,480.185 464.116,488.365 463.501,488.209C463.107,488.109 455.712,475.729 455.63,464.09C455.595,458.715 461.176,452.246 467.407,453.524C470.542,454.167 470.496,455.04 475.136,461.782C479.78,468.525 483.111,480.185 483.111,480.185Z" fill="#13375B"/>
<path d="M499.326,626.831C499.326,626.831 498.875,634.291 498.871,634.305C498.704,635.253 498.055,637.593 498.055,638.452C498.055,641.686 513.414,635.707 509.97,634.273C509.658,634.142 508.024,633.162 507.925,632.061C507.769,630.364 507.368,626.934 507.368,626.934L499.326,626.831Z" fill="#F7A491"/>
<path d="M509.934,634.244C509.934,634.244 506.327,635.235 504.481,635.48C502.634,635.728 500.199,633.644 498.892,634.209C497.454,634.827 497.511,640.401 497.511,640.401C497.511,640.401 516.847,641.988 522.287,640.348C524.438,639.694 517.305,636.549 509.934,634.244Z" fill="#DD513A"/>
<path d="M467.906,626.831C467.906,626.831 467.455,634.291 467.451,634.305C467.284,635.253 466.635,637.593 466.635,638.452C466.635,641.686 481.994,635.707 478.55,634.273C478.238,634.142 476.122,632.43 476.019,631.33C475.863,629.632 475.944,626.934 475.944,626.934L467.906,626.831Z" fill="#F7A491"/>
<path d="M478.512,634.244C478.512,634.244 474.905,635.235 473.059,635.48C471.213,635.728 468.777,633.644 467.47,634.209C466.032,634.827 465.976,640.401 465.976,640.401C465.976,640.401 485.4,642.251 490.865,640.348C492.988,639.606 485.887,636.549 478.512,634.244Z" fill="#DD513A"/>
<path d="M472.6,490.974L486.127,472.025C486.184,471.858 486.308,471.521 486.496,471.003C487.178,469.121 488.595,465.208 489.83,461.317L489.844,461.274C490.231,459.915 491.055,457.539 491.85,455.246C492.735,452.693 493.832,449.526 493.871,448.986C493.835,448.894 493.771,448.727 493.69,448.507C493.193,447.218 492.522,444.154 492.287,442.819C492.138,441.97 491.985,439.907 492.994,439.907C494.581,439.907 493.825,441.967 494.556,443.256C494.826,442.396 495.369,440.689 495.657,438.963L495.923,434.933C495.973,434.628 495.649,432.405 496.764,432.405L496.818,432.405C497.819,432.48 497.794,434.841 498.209,438.839C498.341,438.377 498.472,437.823 498.572,437.316C498.561,437.042 498.76,435.842 498.909,435.207C498.706,434.092 498.824,432.338 500.01,432.501C500.602,432.583 500.556,435.036 500.556,435.036C500.549,435.374 500.514,437.965 500.535,438.477C500.656,437.607 501.131,433.896 502.062,433.896C502.832,433.896 502.896,434.894 502.878,435.686C502.868,436.155 502.385,440.17 502.356,440.639C502.719,440.028 503.152,436.488 503.51,436.488C505.016,436.488 504.472,441.523 503.919,442.837C503.865,442.972 503.812,443.234 503.748,443.54C503.56,444.438 503.244,445.94 502.459,447.285C501.515,448.901 500.212,451.471 500.013,451.866C499.867,452.668 499.417,455.554 498.845,459.187C498.6,460.742 498.334,462.442 498.057,464.207L498.043,464.204C497.993,464.587 497.709,465.801 496.64,470.357C495.177,476.591 495.025,476.861 494.957,476.975C494.322,478.1 479.736,497.908 479.115,498.75L478.749,499.247L472.6,490.974Z" fill="#F7A491"/>
<path d="M497.759,446.778C497.759,446.778 496.662,443.969 494.706,443.966C494.706,443.966 495.8,443.572 496.733,444.314C497.674,445.052 497.759,446.778 497.759,446.778Z" fill="#F47458"/>
<path d="M469.331,441.353L467.591,452.367C467.591,452.367 474.227,457.696 478.093,456.57C481.338,455.626 479.112,451.383 479.112,451.383C479.112,451.383 477.383,445.503 477.912,442.422C478.445,439.34 469.331,441.353 469.331,441.353Z" fill="#F7A491"/>
<path d="M470.585,444.679C472.246,445.463 475.534,446.535 478.094,446.795C477.849,445.254 477.71,443.624 477.916,442.42C478.161,441 476.351,440.663 474.334,440.713C471.692,440.94 469.335,441.352 469.335,441.352L469.001,443.468C469.502,443.997 470.027,444.419 470.585,444.679Z" fill="#FE875E"/>
<path d="M460.959,428.648C460.686,428.648 463.583,440.951 468.064,443.067C472.548,445.183 479.234,444.079 480.487,440.766C481.875,437.102 476.812,424.551 470.507,422.957C464.204,421.362 460.959,428.648 460.959,428.648Z" fill="#F7A491"/>
<path d="M466.147,417.345C462.568,419.411 460.924,422.472 460.37,423.729C458.69,424.528 456.656,426.25 455.68,430.901C454.48,436.613 458.747,441.02 463.271,442.344C467.794,443.668 468.493,446.661 468.493,446.661L469.008,443.441C469.008,443.441 468.003,440.636 466.487,439.234C464.975,437.831 467.205,435.783 467.4,434.114C467.553,432.829 466.605,430.333 466.81,428.224C466.81,428.224 469.324,424.414 471.802,423.473C476.024,421.868 470.741,414.696 466.147,417.345Z" fill="#13375B"/>
<path d="M468.053,436.254C468.639,437.674 468.401,439.087 467.517,439.407C466.636,439.727 465.447,438.832 464.861,437.412C464.275,435.991 464.513,434.578 465.397,434.262C466.278,433.939 467.467,434.834 468.053,436.254Z" fill="#F7A491"/>
<path d="M484.751,491.276L510.844,487.023C510.844,487.023 507.875,479.549 506.814,479.549C505.752,479.549 487.084,487.697 487.084,487.697L485.6,490.68L484.751,491.276Z" fill="#F8A492"/>
<path d="M471.383,509.167C471.383,509.167 468.78,521.75 469.842,531.294C470.903,540.834 470.985,574.731 470.985,574.731L466.938,628.961L476.542,629.17C476.542,629.17 487.932,574.965 487.719,576.357C487.505,577.749 491.535,538.192 491.535,538.192L477.958,507.978L471.383,509.167Z" fill="#184655"/>
<path d="M473.928,508.571C473.928,508.571 472.231,519.901 474.354,524.872C476.474,529.842 492.551,578.601 492.764,582.574C492.977,586.551 498.32,630.492 498.32,630.492L509.487,630.179L511.901,581.325L506.842,519.922L501.931,504.399L473.928,508.571Z" fill="#13375B"/>
<path d="M467.591,452.363C467.591,452.363 470.346,454.17 472.913,453.961C475.48,453.751 479.112,451.383 479.112,451.383L478.608,449.672C478.608,449.672 471.965,448.702 471.795,448.809C471.628,448.912 467.591,452.363 467.591,452.363Z" fill="#F7A491"/>
<path d="M496.942,479.18C496.942,479.18 506.813,488.493 511.269,486.902C515.725,485.312 517.567,479.876 506.696,471.923C496.967,464.808 496.942,479.18 496.942,479.18Z" fill="#F8A492"/>
<path d="M503.627,490.68C502.161,482.702 491.534,457.881 490.686,453.311C490.274,451.089 484.54,451.039 479.083,451.33C473.317,451.635 467.586,452.367 467.586,452.367C467.586,452.367 462.481,453.205 460.237,455.31C457.989,457.416 457.393,463.235 460.624,474.284C463.173,483.004 466.333,487.794 467.895,494.149C468.211,496.279 468.484,498.381 468.843,500.838C469.418,510.336 468.836,522.887 468.836,522.887C468.836,522.887 496.626,528.653 507.022,519.904C507.022,519.901 505.133,498.854 503.627,490.68Z" fill="#355389"/>
<path d="M510.716,473.53C510.716,473.53 499.812,482.531 499.176,482.531C498.768,482.531 483.615,471.386 480.117,462.229C478.182,457.166 482.241,451.503 486.87,451.521C490.08,451.535 491.507,452.362 497.873,457.727C504.239,463.092 510.716,473.53 510.716,473.53Z" fill="#466EB6"/>
<path d="M318.888,71.732C320.674,67.433 322.491,63.123 327.128,60.946C330.881,59.185 334.801,59.845 338.135,62.356C347.583,69.46 339.349,77.285 350.104,90.756C353.445,94.942 357.489,98.322 359.491,103.225C362.293,110.092 358.955,113.387 353.608,116.675C328.013,132.407 314.595,100.104 315.078,92.716C315.433,87.22 317.737,74.502 318.888,71.732Z" fill="#13375B"/>
<path d="M292.324,155.46C293.404,155.289 296.024,153.411 296.951,153.241C297.668,153.109 299.219,152.875 299.88,152.776C300.689,149.754 304.801,133.273 305.262,128.44C305.763,123.207 309.462,100.565 309.462,100.565L319.045,102.309C319.045,102.309 315.065,119.727 313.964,128.171C313.02,135.424 305.06,151.735 304.048,153.457C304.048,153.5 304.048,153.539 304.044,153.581C303.892,156.141 302.656,155.289 302.656,155.289L300.654,155.801C300.654,155.801 293.563,156.482 293.098,156.653C292.633,156.823 291.245,155.63 292.324,155.46Z" fill="#F7A491"/>
<path d="M317.813,87.331C311.039,89.628 307.187,108.045 307.187,108.045C307.187,108.045 317.817,111.013 320.54,109.454C320.54,109.454 323.632,95.753 324.74,96.232L317.813,87.331Z" fill="#6A97CE"/>
<path d="M265.411,187.279C263.338,192.747 262.262,198.012 262.166,198.648C262.12,198.953 262.553,200.441 262.51,200.757C258.349,206.434 252.37,207.673 247.243,208.035C249.856,205.486 253.691,203.068 253.876,202.262C254.17,200.977 255.747,195.25 256.524,187.318C259.713,188.795 261.878,187.624 265.411,187.279Z" fill="#F7A491"/>
<path d="M324.371,126.117L333.528,151.901C333.528,151.901 318.815,154.67 313.315,155.679C307.815,156.687 277.082,158.029 276.305,158.576C275.726,158.981 269.378,179.513 266.544,190.836C263.328,191.542 257.821,190.694 254.892,189.685C256.475,173.484 262.191,147.821 264.023,145.027C266.999,140.479 324.371,126.117 324.371,126.117Z" fill="#256653"/>
<path d="M288.604,198.584C287.592,204.343 287.521,209.718 287.545,210.361C287.556,210.67 288.259,212.047 288.28,212.371C285.255,218.726 279.614,221.066 274.646,222.383C276.734,219.39 280.05,216.294 280.079,215.467C280.125,214.149 280.604,208.231 279.88,200.288C283.292,201.137 285.199,199.585 288.604,198.584Z" fill="#F7A491"/>
<path d="M335.058,127.457L338.609,133.521C344.016,142.756 339.869,154.636 329.896,158.506C329.843,158.527 329.789,158.549 329.736,158.566C324.524,160.587 294.586,167.666 293.926,168.348C293.432,168.856 291.046,190.212 290.382,201.865C287.354,203.164 281.787,203.36 278.719,202.916C277.238,186.708 278.044,160.427 279.319,157.338C281.392,152.314 335.058,127.457 335.058,127.457Z" fill="#327F6B"/>
<path d="M287.087,210.538C287.882,209.657 290.812,214.504 291.543,215.537C292.367,216.698 292.132,217.575 292.033,217.76C291.774,218.239 276.343,227.318 272.58,227.964C272.225,228.024 271.607,227.801 271.454,227.662C269.984,226.359 276.752,216.748 279.794,215.484C281.758,214.667 283.501,214.497 287.087,210.538Z" fill="#13375B"/>
<path d="M261.672,198.821C262.62,198.104 264.587,203.412 265.113,204.566C265.702,205.862 265.308,206.679 265.177,206.838C264.832,207.261 247.974,213.286 244.154,213.215C243.792,213.208 243.231,212.871 243.103,212.707C241.903,211.152 250.353,202.979 253.577,202.308C255.661,201.878 257.408,202.042 261.672,198.821Z" fill="#13375B"/>
<path d="M324.238,87.278C324.064,87.278 323.812,87.217 323.557,87.136C322.3,86.912 319.548,86.582 317.407,87.484C314.805,88.581 310.771,98.845 311.009,109.376C311.105,110.988 311.204,112.429 311.286,113.434C311.943,121.391 314.226,136.321 314.35,136.399C317.457,138.398 336.193,130.647 337.478,128.946C338.767,127.246 339.527,106.564 340.152,105.531L341.384,87.544C339.207,86.901 327.569,87.253 324.238,87.278Z" fill="#9BC1F9"/>
<path d="M331.833,80.652C331.833,80.652 330.626,86.89 330.868,89.354C331.109,91.814 329.948,99.746 324.739,99.775C319.531,99.8 323.749,89.691 324.242,87.277C324.732,84.866 324.85,77.399 324.85,77.399L331.833,80.652Z" fill="#F7A491"/>
<path d="M324.74,81.145C324.822,79.104 324.847,77.399 324.847,77.399L331.834,80.655C331.834,80.655 331.589,81.93 331.341,83.556C328.28,84.167 326.065,83.038 324.74,81.145Z" fill="#F47458"/>
<path d="M334.386,63.434C334.386,63.434 337.077,64.928 338.06,68.163C339.044,71.401 337.926,79.752 330.97,81.769C324.015,83.785 321.004,77.171 322.435,71.998C323.869,66.828 326.983,60.281 334.386,63.434Z" fill="#F7A491"/>
<path d="M321.569,69.994C321.704,71.383 322.471,72.444 323.281,72.366C324.09,72.288 324.633,71.095 324.498,69.707C324.364,68.319 323.597,67.257 322.787,67.335C321.978,67.417 321.431,68.606 321.569,69.994Z" fill="#F7A491"/>
<path d="M333.57,63.011C333.57,63.011 334.831,72.327 337.845,74.01C340.856,75.693 339.596,79.826 339.596,79.826C339.596,79.826 342.329,70.229 339.947,67.147C337.565,64.062 333.57,63.011 333.57,63.011Z" fill="#13375B"/>
<path d="M336.059,75.349C335.243,76.563 335.246,77.994 336.067,78.548C336.887,79.102 338.215,78.562 339.031,77.348C339.848,76.134 339.844,74.703 339.024,74.149C338.204,73.599 336.876,74.135 336.059,75.349Z" fill="#F7A491"/>
<path d="M325.926,75.867L330.826,77.099C330.826,77.099 330.236,78.96 328.067,78.48C325.422,77.898 325.926,75.867 325.926,75.867Z" fill="#FFFFFF"/>
<path d="M350.262,154.682C350.496,154.671 371.391,153.62 371.391,153.62C371.391,153.62 362.72,159.851 362.543,159.851C362.365,159.851 355.637,157.195 355.342,157.195C355.048,157.195 350.262,154.682 350.262,154.682Z" fill="#50BFA5"/>
<path d="M773.287,627.136C773.287,627.136 773.699,634.464 773.702,634.478C773.855,635.408 774.452,637.709 774.452,638.554C774.452,641.732 760.352,635.856 763.512,634.45C763.8,634.322 765.298,633.36 765.391,632.277C765.536,630.612 765.902,627.239 765.902,627.239L773.287,627.136Z" fill="#F7A491"/>
<path d="M763.376,634.482C763.376,634.482 766.685,635.454 768.382,635.696C770.079,635.937 772.312,633.892 773.512,634.446C774.833,635.053 774.78,640.532 774.78,640.532C774.78,640.532 757.031,642.09 752.039,640.478C750.061,639.836 756.608,636.743 763.376,634.482Z" fill="#F7CC7F"/>
<path d="M796.762,626.756C796.762,626.756 797.177,634.084 797.177,634.098C797.33,635.028 797.93,637.329 797.93,638.174C797.93,641.352 783.831,635.476 786.991,634.07C787.275,633.942 789.221,632.259 789.313,631.176C789.458,629.511 789.38,626.859 789.38,626.859L796.762,626.756Z" fill="#F7A491"/>
<path d="M787.026,634.038C787.026,634.038 790.335,635.011 792.032,635.253C793.726,635.494 795.963,633.449 797.163,634.003C798.484,634.61 798.537,640.088 798.537,640.088C798.537,640.088 780.912,640.813 775.689,640.035C773.634,639.73 780.259,636.304 787.026,634.038Z" fill="#F7CC7F"/>
<path d="M792.579,510.348C792.579,510.348 794.968,522.711 793.996,532.084C793.023,541.458 792.945,574.758 792.945,574.758L797.436,628.019L787.842,628.242C787.842,628.242 777.39,574.988 777.582,576.355C777.777,577.722 774.077,538.859 774.077,538.859L786.539,509.173L792.579,510.348Z" fill="#355389"/>
<path d="M789.237,502.365C789.237,502.365 800.063,513.766 796.037,526.217C794.421,531.22 779.335,579.006 779.14,582.912C778.945,586.817 774.038,629.988 774.038,629.988L763.787,629.679L761.568,581.68L764.498,517.007L770.722,506.1L789.237,502.365Z" fill="#466EB6"/>
<path d="M723.522,465.258C727.065,461.303 734.78,455.675 734.78,455.675C734.78,455.675 739.375,451.749 741.249,451.102C744.008,450.151 748.73,447.616 755.561,457.969C760.45,465.379 791.297,503.742 796.364,505.035L763.294,520.856C762.389,513.3 746.046,499.024 743.692,496.361C738.437,490.41 720.166,469.004 723.522,465.258Z" fill="#F47458"/>
<path d="M725.062,449.186L735.362,455.218C735.362,455.218 735.653,464.012 732.284,466.295C729.458,468.213 727.31,463.611 727.31,463.611C727.31,463.611 723.479,458.303 720.571,456.649C717.659,454.994 725.062,449.186 725.062,449.186Z" fill="#F7A491"/>
<path d="M726.791,453.056C726.404,454.891 725.506,457.543 724.118,459.727C722.982,458.498 721.707,457.295 720.571,456.649C719.229,455.885 720.081,454.238 721.391,452.683C723.241,450.758 725.062,449.186 725.062,449.186L727.044,450.343C727.171,451.096 726.919,452.445 726.791,453.056Z" fill="#F47458"/>
<path d="M719.698,434.072C719.871,433.859 728.339,444.396 727.296,449.342C726.252,454.288 721.132,458.797 717.574,457.558C713.64,456.188 706.323,443.779 708.947,437.753C711.57,431.728 719.698,434.072 719.698,434.072Z" fill="#F7A491"/>
<path d="M710.428,430.747C714.12,428.695 720.142,428.105 724.64,430.459C730.172,433.356 731.432,440.642 729.7,445.087C727.967,449.533 729.952,452.046 729.952,452.046L727.019,450.331C727.019,450.331 725.304,447.654 725.081,445.524C724.857,443.39 721.747,443.77 720.227,442.801C719.059,442.055 717.564,439.637 715.675,438.38C715.675,438.38 710.91,437.795 708.571,439.112C704.573,441.352 705.141,433.687 710.428,430.747Z" fill="#13375B"/>
<path d="M722.604,444.58C722.576,446.16 723.325,447.455 724.273,447.47C725.221,447.484 726.013,446.216 726.041,444.636C726.07,443.056 725.32,441.76 724.372,441.746C723.421,441.729 722.629,442.996 722.604,444.58Z" fill="#F7A491"/>
<path d="M713.932,452.97L718.416,449.618C718.416,449.618 719.602,451.429 717.674,452.963C715.32,454.83 713.932,452.97 713.932,452.97Z" fill="#FFFFFF"/>
<path d="M702.674,519.656C703.796,518.016 704.286,515.648 705.841,513.84C706.363,513.233 707.194,512.552 708.138,511.87C715.608,507.499 735.065,496.234 735.821,495.36C736.719,494.323 749.998,472.261 749.998,472.261L738.072,469.559L726.416,490.141C725.443,490.915 706.941,504.588 706.941,504.588C706.941,504.588 703.263,507.464 701.25,508.809C700.235,509.402 699.248,509.786 698.385,510.088C697.298,510.464 695.232,511.497 694.813,511.863C694.327,512.289 693.354,513.205 692.775,513.762C692.196,514.32 691.497,514.952 691.223,515.282C691.06,515.484 690.549,515.761 690.172,515.949C689.611,516.23 689.686,517.057 690.286,517.228C690.854,517.387 691.618,517.032 692.093,516.809C693.432,516.18 695.069,514.48 695.154,514.689C695.239,514.899 693.577,518.538 693.414,518.967C693.251,519.397 691.344,523.64 691.245,524.584C691.145,525.529 691.717,525.749 692.139,525.401C692.505,525.103 695.573,519.44 695.573,519.44C695.573,519.44 695.967,518.719 696.12,519.131C696.272,519.543 693.496,524.694 693.226,525.539C692.956,526.384 693.169,527.077 693.954,526.782C694.905,526.423 697.529,520.743 697.529,520.743C697.529,520.743 697.87,520.036 698.104,520.281C698.339,520.526 695.903,524.868 695.875,525.369C695.846,525.87 696.301,526.363 696.957,525.944C697.731,525.451 700.032,520.363 700.032,520.363C700.032,520.363 700.316,520.025 700.405,520.263C700.494,520.501 698.683,524.35 698.818,524.911C698.932,525.383 699.358,525.287 699.358,525.287C700.306,525.284 701.548,521.297 702.674,519.656Z" fill="#F8A492"/>
<path d="M746.727,483.917C746.727,483.917 742.843,482.681 740.351,481.541C738.682,480.778 731.403,477.157 731.403,477.157C731.403,477.157 734.542,463.92 736.662,459.159C744.448,441.691 753.292,453.737 754.492,456.546C757.18,462.823 746.727,483.917 746.727,483.917Z" fill="#355389"/>
<path d="M475.427,438.178L479.123,435.416C479.123,435.416 480.099,436.911 478.509,438.171C476.57,439.712 475.427,438.178 475.427,438.178Z" fill="#FFFFFF"/>
<path d="M909.35,640.139L50.594,640.139C49.522,640.139 48.648,641.25 48.648,642.62C48.648,643.991 49.518,645.102 50.594,645.102L909.35,645.102C910.422,645.102 911.292,643.991 911.292,642.62C911.292,641.25 910.422,640.139 909.35,640.139Z" fill="#184655"/>
<path d="M371.869,153.599C371.781,153.375 371.585,153.372 371.387,153.365C369.448,153.304 367.509,153.219 365.589,152.931C365.269,152.885 364.953,152.811 364.658,152.694C364.122,152.481 363.597,152.484 363.053,152.633C362.762,152.715 362.464,152.729 362.162,152.729C361.186,152.726 358.406,151.778 356.975,151.529C356.648,151.472 356.389,151.224 356.308,150.904C354.902,145.344 351.887,132.868 351.497,128.767C350.996,123.523 347.375,99.869 347.375,99.869L337.682,102.571C337.682,102.571 341.672,120.029 342.773,128.493C343.625,135.03 350.158,148.902 352.207,152.889C353.208,155.857 355.452,155.939 355.974,156.003C356.272,156.038 356.545,156.187 356.741,156.415C357.096,156.826 357.501,157.185 357.962,157.48C358.306,157.696 358.569,157.98 358.796,158.31C359.208,158.911 359.578,159.539 359.94,160.171C360.181,160.59 360.433,160.721 360.792,160.622C361.175,160.515 361.36,160.231 361.353,159.763C361.342,159.07 361.122,158.445 360.774,157.852C360.447,157.299 360.472,156.979 360.852,156.468C361.069,156.177 361.296,155.893 361.58,155.658C361.871,155.42 362.177,155.243 362.571,155.296C363.267,155.47 363.97,155.612 364.683,155.69L365.269,155.811C365.29,155.814 365.589,155.878 365.589,155.878C365.638,155.893 366.668,156.003 367.023,156.006C367.307,156.006 367.765,156.024 368.156,156.045C368.511,156.063 369.256,155.878 369.281,155.878C369.625,155.871 369.931,155.747 370.186,155.516C370.293,155.42 370.392,155.317 370.339,155.154C370.289,155.008 370.176,154.945 370.023,154.916C369.789,154.874 368.585,154.728 368.599,154.678C368.958,154.678 370.076,154.653 370.435,154.643C370.918,154.629 371.333,154.458 371.667,154.1C371.805,153.965 371.955,153.823 371.869,153.599Z" fill="#F7A491"/>
<path d="M341.502,87.51C346.284,86.64 350.232,108.043 350.232,108.043C350.232,108.043 339.602,111.011 336.879,109.452C336.879,109.452 333.786,95.751 332.679,96.23L341.502,87.51Z" fill="#9BC1F9"/>
<path d="M225.831,472.227C226.147,471.318 221.737,470.587 221.499,469.671C221.265,468.751 227.07,468.68 227.276,467.874C227.659,466.39 220.913,467.562 221.044,466.866C221.176,466.17 228.074,464.619 227.329,463.429C226.583,462.236 220.345,465.783 220.157,464.977C219.969,464.168 226.253,462.201 226.143,460.429C226.083,459.481 215.825,465.155 214.636,464.64C213.446,464.125 215.914,459.673 214.97,459.009C214.022,458.348 211.305,468.059 210.649,468.386C209.995,468.709 196.138,476.619 191.206,477.876C190.606,476.225 189.314,473.995 188.785,472.433C186.019,474.404 183.963,475.391 181.108,477.184C183.178,482.368 186.122,488.045 187.563,488.695C191.952,490.679 208.923,476.602 212.314,474.191C215.704,471.78 217.647,472.561 219.937,471.801C222.23,471.041 225.515,473.133 225.831,472.227Z" fill="#F7A491"/>
<path d="M180.518,479.674C180.518,479.674 176.719,462.898 177.38,458.03C178.04,453.162 183.824,448.628 187.833,450.311C191.841,451.994 193.659,475.417 193.659,475.417L180.518,479.674Z" fill="#F7CC7F"/>
</svg>
