<svg width="796" height="460" viewBox="0 0 796 460" fill="none" xmlns="http://www.w3.org/2000/svg" xmlns:xlink="http://www.w3.org/1999/xlink">
<path d="M184.62,367.425C184.09,354.388 182.947,343.044 181.58,335.137C179.4,322.529 177.436,315.276 177.413,315.201C177.125,314.091 172.977,309.606 163.752,309.742C154.528,309.882 155.402,315.765 155.402,315.765C155.402,315.961 155.429,316.147 155.466,316.287C155.553,316.59 164.025,347.295 163.658,386.937C163.654,387.494 163.589,388.455 163.631,389.095C163.631,389.099 185.01,389.647 185.014,389.095C185.759,385.635 185.396,376.032 184.62,367.425Z" fill="#B7D3F3"/>
<path d="M187.306,386.745C187.299,387.297 187.007,387.74 186.652,387.74L186.644,387.74C186.288,387.733 186.004,387.29 186.001,386.745L167.68,386.745C167.673,387.297 167.381,387.74 167.026,387.74L167.018,387.74C166.655,387.733 166.367,387.275 166.374,386.714C166.48,375.366 165.833,364.768 164.853,355.418C162.419,332.094 157.915,316.507 157.85,316.291C157.809,316.151 157.786,315.965 157.786,315.769C157.786,315.769 156.911,309.886 166.136,309.746C175.364,309.606 179.513,314.096 179.8,315.205C179.816,315.261 180.928,319.368 182.405,326.753C182.893,329.198 183.423,332.003 183.964,335.141C185.331,343.052 186.474,354.393 187.004,367.429C187.78,376.033 188.052,383.281 187.306,386.745Z" fill="#D2E3FC"/>
<path d="M165.02,387.74L236.848,387.74C236.848,387.74 235.175,380.972 193.58,381.979C164.138,382.691 165.02,387.74 165.02,387.74Z" fill="#C5DCF8"/>
<path d="M159.176,458.44C167.503,416.28 165.361,390.408 165.353,390.083C165.33,389.436 166.53,388.845 167.174,388.822C167.825,388.811 170.702,388.629 171.031,389.186C171.466,389.913 173.143,421.788 160.731,458.44L159.176,458.44L159.176,458.44Z" fill="#B7D3F3"/>
<path d="M226.238,458.44C217.911,416.28 220.053,390.408 220.061,390.083C220.083,389.436 218.887,388.845 218.24,388.822C217.589,388.811 214.712,388.629 214.383,389.186C213.948,389.913 212.271,421.788 224.682,458.44L226.238,458.44L226.238,458.44Z" fill="#B7D3F3"/>
<path d="M239.528,458.44C231.201,416.28 233.343,390.408 233.351,390.083C233.373,389.436 232.174,388.845 231.53,388.822C230.879,388.811 228.002,388.629 227.673,389.186C227.238,389.913 225.561,421.788 237.972,458.44L239.528,458.44L239.528,458.44Z" fill="#B7D3F3"/>
<path d="M172.553,458.44C180.88,416.28 178.738,390.408 178.73,390.083C178.707,389.436 179.907,388.845 180.551,388.822C181.202,388.811 184.079,388.629 184.408,389.186C184.843,389.913 186.52,421.788 174.108,458.44L172.553,458.44L172.553,458.44Z" fill="#B7D3F3"/>
<path d="M236.891,389.897L165.063,389.897C164.253,389.897 163.591,389.235 163.591,388.425L163.591,387.46C163.591,386.65 164.253,385.987 165.063,385.987L236.891,385.987C237.701,385.987 238.363,386.65 238.363,387.46L238.363,388.425C238.363,389.235 237.701,389.897 236.891,389.897Z" fill="#B7D3F3"/>
<path d="M234.368,325.031L258.245,319.86L259.65,323.286C259.65,323.286 233.305,338.96 230.837,338.196C228.369,337.431 234.368,325.031 234.368,325.031Z" fill="#FFB27D"/>
<path d="M212.66,433.015C212.061,433.7 211.986,434.465 212.281,435.282C212.281,435.286 212.285,435.29 212.289,435.294C212.837,436.808 214.643,438.496 216.744,440.18C217.012,440.396 217.251,440.593 217.459,440.778C217.512,440.828 217.569,440.873 217.618,440.922C217.66,440.96 217.701,440.998 217.743,441.032C219.7,442.838 218.966,443.25 222.482,446.914C226.494,451.089 229.258,451.165 230.041,450.783C230.707,450.457 229.356,448.243 227.857,445.756C227.785,445.635 227.713,445.514 227.637,445.393C227.437,445.063 227.24,444.726 227.043,444.393C225.291,441.399 225.741,439.995 226.154,435.536C226.491,431.914 231.79,415.3 231.79,415.3L224.102,413.976C224.102,413.976 221.786,427.205 219.234,429.241C217.872,430.328 216.342,430.343 215.033,431.145C214.942,431.202 214.851,431.259 214.76,431.319C214.018,431.819 213.258,432.326 212.66,433.015Z" fill="#FFB27D"/>
<path d="M212.66,433.015C212.061,433.701 211.986,434.465 212.281,435.283C212.281,435.287 212.285,435.29 212.289,435.294C212.959,436.804 214.722,438.485 216.751,440.166C217.016,440.385 217.251,440.59 217.459,440.779C217.512,440.828 217.569,440.874 217.618,440.923C217.66,440.961 217.701,440.998 217.743,441.033C219.7,442.838 218.966,443.251 222.482,446.915C226.494,451.09 229.258,451.165 230.041,450.783C230.707,450.458 229.356,448.243 227.857,445.756C227.077,445.469 223.447,443.996 220.707,440.487C218.292,437.406 216.679,433.443 215.033,431.149C214.942,431.206 214.851,431.263 214.76,431.324C214.018,431.819 213.258,432.327 212.66,433.015Z" fill="#1C468A"/>
<path d="M274.658,428.212C275.131,430.585 278.515,430.188 282.296,429.264C286.078,428.341 285.177,429.439 290.555,428.844C295.934,428.25 297.566,426.244 297.728,425.441C297.876,424.73 295.219,424.48 292.365,424.154C292.005,424.113 291.646,424.071 291.286,424.026C288.069,423.621 285.71,421.546 282.784,419.839C280.014,418.223 275.88,411.641 275.88,411.641L268.503,412.224C268.503,412.224 272.375,418.102 273.87,420.661C274.752,422.163 274.703,424.151 274.593,425.687C274.544,426.524 274.487,427.376 274.658,428.212Z" fill="#FFB27D"/>
<path d="M282.292,429.268C286.073,428.345 285.172,429.442 290.551,428.848C295.93,428.254 297.561,426.248 297.724,425.445C297.871,424.734 295.214,424.484 292.36,424.158L292.334,424.211C292.334,424.211 289.109,426.497 284.631,426.607C280.982,426.694 277.117,425.65 274.596,425.691C274.54,426.524 274.487,427.379 274.653,428.216C275.13,430.585 278.514,430.192 282.292,429.268Z" fill="#1C468A"/>
<path d="M258.241,319.861C258.241,319.861 259.998,315.553 261.932,315.379C263.866,315.205 270.017,314.236 270.456,315.114C270.895,315.992 270.456,319.157 269.139,320.3C267.822,321.443 259.649,323.286 259.649,323.286L258.241,319.861Z" fill="#FFB27D"/>
<path d="M246.385,381.041L230.487,423.829C230.487,423.829 228.046,424.064 225.703,423.39C223.549,422.769 221.077,421.138 221.077,421.138C221.077,421.138 225.021,380.053 232.251,371.51C239.485,362.967 246.385,381.041 246.385,381.041Z" fill="#0B0A56"/>
<path d="M183.502,363.732C183.502,363.732 229.185,348.284 239.375,351.57C249.565,354.855 280.157,415.721 280.157,415.721C280.157,415.721 279.468,416.641 277.583,417.345C275.83,418.004 271.587,417.958 271.587,417.958C271.587,417.958 243.978,394.293 240.692,387.393C237.407,380.493 236.09,373.918 232.804,374.576C229.519,375.235 190.406,390.682 181.534,381.477C172.661,372.275 174.982,360.317 174.982,360.317L183.502,363.732Z" fill="#01008A"/>
<path d="M209.544,254.805C207.568,253.684 205.202,253.559 203.548,253.658C203.976,253.219 204.812,253.056 204.812,253.056C203.786,252.905 201.496,253.923 201.496,253.923C187.219,248.423 184.974,269.446 185.273,274.329C185.572,279.212 185.606,284.833 178.479,289.216C164.455,297.835 176.287,312.881 176.287,312.881C176.397,312.945 182.813,323.824 182.813,323.824C182.453,319.876 200.664,299.05 210.164,292.812C212.477,289.405 213.299,283.39 213.359,282.917C212.962,287.687 212.144,290.363 211.414,291.869C219.465,284.465 214.779,257.78 209.544,254.805Z" fill="#B5453C"/>
<path d="M209.605,293.122C209.654,293.145 205.017,295.549 201.531,294.599C198.253,293.705 196.11,289.451 196.152,289.443C197.541,289.167 197.942,287.259 197.912,279.057L198.54,279.182L209.097,281.271C209.097,281.271 208.859,284.594 208.851,287.721C208.844,290.352 209.003,292.842 209.605,293.122Z" fill="#FFB27D"/>
<path d="M209.097,281.271C209.097,281.271 208.858,284.594 208.851,287.721C202.942,287.554 199.823,282.164 198.54,279.178L209.097,281.271Z" fill="#ED975D"/>
<path d="M197.45,278.031C197.45,278.031 194.354,273.14 193.612,268.958C193.082,265.971 194.604,254.903 205.724,256.497C205.724,256.497 208.953,256.815 211.993,258.866C214.408,260.498 217.894,264.018 213.995,273.678L212.984,276.941L197.45,278.031Z" fill="#B5453C"/>
<path d="M211.07,284.235C211.07,284.235 197.095,284.466 197.084,275.76C197.072,267.054 195.263,261.221 204.188,260.707C213.11,260.192 214.848,263.511 215.559,266.418C216.267,269.318 214.707,283.951 211.07,284.235Z" fill="#FFB27D"/>
<path d="M210.554,260.492C210.554,260.492 206.727,270.704 200.857,272.214C194.982,273.725 192.435,272.15 192.435,272.15C192.435,272.15 196.939,268.573 197.874,262.324C197.874,262.327 207.666,255.631 210.554,260.492Z" fill="#B5453C"/>
<path d="M209.605,261.319C209.605,261.319 212.463,263.598 213.16,265.816C213.856,268.034 214.17,272.595 215.499,272.44C215.499,272.44 218.383,265.498 215.143,261.569C211.706,257.409 209.605,261.319 209.605,261.319Z" fill="#B5453C"/>
<path d="M178.483,330.724C177.105,324.944 181.795,313.729 186.689,304.44C191.129,296.022 195.74,289.197 196.156,289.443C207.871,296.396 208.927,290.616 208.927,290.616C208.931,290.616 219.567,292.028 222.58,297.214C226.316,303.649 230.355,321.628 234.368,325.035C233.751,326.92 234.015,327.923 234.67,330.259C234.81,330.758 234.966,331.235 235.136,331.686C235.742,333.328 236.495,334.661 237.15,335.819C235.109,337.057 231.173,339.415 228.273,337.719C223.852,335.13 220.4,327.253 218.458,324.115C218.451,324.104 218.443,324.093 218.436,324.081C214.215,347.97 219.954,353.413 217.05,355.93C213.984,358.591 209.601,354.662 199.96,358.841C193.635,361.585 184.861,365.552 178.952,366.241C175.852,366.604 173.543,366.067 172.79,363.973C170.595,357.894 181.11,341.743 178.483,330.724Z" fill="#01008A"/>
<path d="M207.962,278.958C207.962,278.958 208.223,280.063 210.975,279.893C210.975,279.893 213.284,279.749 213.216,278.534C213.216,278.534 210.975,277.667 207.962,278.958Z" fill="#FFFFFF"/>
<path d="M172.786,363.973C173.539,366.066 175.852,366.604 178.948,366.24C183.036,364.458 200.702,357.614 200.505,352.981C200.21,346.114 197.11,345.895 199.301,337.424C201.061,330.622 184.74,317.968 182.136,315.22C177.241,324.505 177.105,324.944 178.483,330.724C181.11,341.743 170.595,357.894 172.786,363.973Z" fill="#0B0A56"/>
<path d="M170.788,339.215C173.922,334.816 177.185,332.488 179.331,331.319C178.835,330.047 192.507,313.286 192.507,310.689C192.507,308.059 196.156,289.439 196.156,289.439C196.156,289.439 184.766,290.144 180.822,295.643C175.886,302.521 165.644,328.995 170.788,339.215Z" fill="#01008A"/>
<path d="M179.332,331.318L202.092,337.257L199.957,341.092C199.957,341.092 172.257,340.899 170.789,339.21C169.32,337.526 179.332,331.318 179.332,331.318Z" fill="#FFB27D"/>
<path d="M218.454,324.114C220.396,327.252 223.844,335.129 228.269,337.718C231.169,339.41 235.105,337.056 237.145,335.818C236.494,334.66 235.737,333.327 235.132,331.685C233.504,332.056 231.521,332.533 230.237,332.919C227.747,333.672 218.454,324.114 218.454,324.114Z" fill="#0B0A56"/>
<path d="M202.091,337.258C202.091,337.258 209.237,335.236 210.941,335.709C212.644,336.183 218.477,340.043 217.655,341.096C216.834,342.144 211.698,340.467 209.332,340.785C206.966,341.103 205.138,342.269 203.435,342.016C201.731,341.762 199.952,341.096 199.952,341.096L202.091,337.258Z" fill="#FFB27D"/>
<path d="M202.09,337.258C202.09,337.258 205.587,335.46 206.583,334.438C206.708,334.309 206.92,334.336 207.018,334.487C207.283,334.907 207.533,335.721 206.307,336.527C204.539,337.689 202.09,337.258 202.09,337.258Z" fill="#FFB27D"/>
<path d="M235.126,347.313L201.778,347.313C201.778,345.845 202.967,344.656 204.436,344.656L235.126,344.656L235.126,347.313Z" fill="#ED7D2B"/>
<path d="M235.032,310.994L286.59,310.994L274.224,347.313L222.329,347.313L235.032,310.994Z" fill="#ED7D2B"/>
<path d="M287.351,310.994L274.981,347.313L223.09,347.313L235.789,310.994L287.351,310.994Z" fill="#F99746"/>
<path d="M259.552,328.818C259.23,330.207 257.848,331.331 256.459,331.331C255.07,331.331 254.207,330.207 254.525,328.818C254.847,327.429 256.228,326.305 257.617,326.305C259.007,326.305 259.87,327.429 259.552,328.818Z" fill="#F9DDBF"/>
<path d="M287.35,310.994L274.98,347.313L240.614,347.313C263.378,339.542 269.438,315.851 270.457,310.994L287.35,310.994L287.35,310.994Z" fill="#ED893E"/>
<path d="M137.667,458.44C138.318,458.44 138.878,457.982 138.988,457.358L145.464,420.653L154.78,367.865L157.384,353.102L150.748,352.913L149.598,361.483L141.516,421.701L136.724,457.395C136.649,457.948 137.091,458.44 137.667,458.44Z" fill="#95C0F4"/>
<path d="M149.594,361.481C153.894,363.377 154.776,367.863 154.776,367.863L157.38,353.1L150.744,352.911L149.594,361.481Z" fill="#78ACEA"/>
<path d="M302.678,458.438C302.027,458.438 301.467,457.98 301.357,457.356L294.88,420.651L285.565,367.863L282.961,353.1L289.596,352.911L290.747,361.481L298.828,421.699L303.621,457.394C303.696,457.946 303.253,458.438 302.678,458.438Z" fill="#95C0F4"/>
<path d="M290.747,361.481C286.451,363.377 285.565,367.863 285.565,367.863L282.961,353.1L289.596,352.911L290.747,361.481Z" fill="#78ACEA"/>
<path d="M133.239,358.895L303.129,358.895C305.355,358.895 307.176,357.074 307.176,354.849L307.176,351.351C307.176,349.125 305.355,347.305 303.129,347.305L133.239,347.305C131.013,347.305 129.192,349.125 129.192,351.351L129.192,354.849C129.192,357.074 131.013,358.895 133.239,358.895Z" fill="#78ACEA"/>
<path d="M555.231,341.127C555.231,341.127 550.825,346.593 552.202,347.338C553.58,348.084 557.222,349.477 558.081,348.599C558.94,347.721 559.209,341.278 559.209,341.278L555.231,341.127Z" fill="#FFB27D"/>
<path d="M555.41,341.217C555.41,341.217 553.608,341.841 552.9,342.78C552.192,343.719 550.625,345.146 551.007,345.543C551.39,345.941 553.642,344.188 553.642,344.188L555.41,341.217Z" fill="#FFB27D"/>
<path d="M571.889,268.137C571.889,268.137 566.923,314.38 566.48,315.698C566.385,315.985 565.995,317.446 565.447,319.555C564.663,322.564 563.562,326.887 562.513,330.994C560.931,337.201 559.481,342.932 559.481,342.932L555.17,341.513C555.17,341.513 554.946,319.04 556.056,313.866C557.168,308.687 560.715,276.896 562.505,272.618C564.292,268.337 571.889,268.137 571.889,268.137Z" fill="#AEC3FF"/>
<path d="M561.56,379.027L534.47,371.922C530.945,370.999 528.814,367.357 529.738,363.83L532.815,352.088C533.739,348.56 537.38,346.433 540.908,347.356L567.999,354.461C571.523,355.385 573.654,359.026 572.726,362.554L569.649,374.296C568.729,377.823 565.088,379.954 561.56,379.027Z" fill="#A02E2E"/>
<path d="M536.392,353.019L533.277,364.897C532.675,367.199 533.364,369.545 534.89,371.162C535.397,371.699 535.995,372.153 536.669,372.502C536.669,372.502 536.669,372.502 536.672,372.502C537.093,372.721 537.543,372.895 538.02,373.02L565.065,380.11C568.604,381.037 572.257,378.902 573.188,375.363L576.303,363.485C577.231,359.946 575.096,356.29 571.557,355.362L562.245,352.921L562.911,350.389C563.218,349.219 562.514,348.015 561.344,347.709L560.322,347.44L554.66,345.956L553.252,345.589C552.688,345.441 552.093,345.521 551.586,345.816C551.079,346.111 550.719,346.588 550.572,347.152L549.905,349.685L544.512,348.269C544.296,348.212 544.088,348.17 543.872,348.136C543.868,348.136 543.868,348.136 543.868,348.136C541.699,347.792 539.553,348.56 538.077,350.056C537.289,350.854 536.695,351.861 536.392,353.019ZM560.917,352.573L551.238,350.037L551.904,347.504C552.018,347.069 552.468,346.804 552.903,346.921L555.333,347.557L559.792,348.727L560.996,349.041C561.079,349.064 561.155,349.098 561.223,349.139C561.518,349.325 561.674,349.688 561.583,350.04L560.917,352.573Z" fill="#FF3874"/>
<path d="M557.805,348.72C557.805,348.72 559.009,346.695 558.558,345.987C558.108,345.279 556.484,348.088 556.484,348.088C556.484,348.088 557.593,345.676 557.18,345.279C556.768,344.882 555.068,347.652 555.068,347.652C555.068,347.652 556.124,345.309 555.753,345.23C555.382,345.15 554.122,347.198 554.122,347.198C554.122,347.198 554.777,345.446 554.179,345.529C553.581,345.612 552.286,347.213 552.286,347.213L557.805,348.72Z" fill="#FFB27D"/>
<path d="M565.443,319.556C564.66,322.565 563.558,326.888 562.51,330.995C561.832,329.094 560.977,326.07 560.431,321.925C559.432,314.272 562.502,297.969 562.502,297.969L565.443,319.556Z" fill="#9DB0F4"/>
<path d="M622.275,339.226C622.275,339.226 627.078,343.128 627.672,344.347C628.267,345.566 629.758,350.078 629.678,351.531C629.599,352.985 625.999,348.204 624.939,347.818C623.88,347.432 626.045,349.783 625.802,350.286C625.56,350.789 623.308,349.143 622.445,348.605C621.586,348.068 620.98,344.419 619.701,342.432C618.421,340.444 622.275,339.226 622.275,339.226Z" fill="#FFB27D"/>
<path d="M559.248,456.052L583.193,456.052C584.908,454.89 582.731,443.512 582.731,443.512C582.731,443.512 576.194,441.033 575.066,446.074C573.935,451.113 566.743,452.717 562.935,453.331C560.334,453.755 559.509,455.185 559.248,456.052Z" fill="#233862"/>
<path d="M594.764,456.052L618.709,456.052C620.423,454.89 618.247,443.512 618.247,443.512C618.247,443.512 611.71,441.033 610.582,446.074C609.45,451.113 602.258,452.717 598.45,453.331C595.846,453.755 595.025,455.185 594.764,456.052Z" fill="#233862"/>
<path d="M565.689,340.002C565.689,340.002 566.764,353.432 568.033,369.572C569.751,391.499 574.388,445.866 574.388,445.866C574.388,445.866 577.427,448.459 584.161,447.039C584.161,447.039 589.892,428.284 591.607,406.875C591.633,406.523 591.66,406.171 591.686,405.819C593.28,384.027 595.759,338.136 595.759,338.136L565.689,340.002Z" fill="#01008A"/>
<path d="M565.322,335.36C565.322,335.36 566.764,353.431 568.032,369.571L591.61,406.878C591.637,406.526 591.663,406.174 591.69,405.822C593.283,384.03 595.763,338.139 595.763,338.139L565.322,335.36Z" fill="#0B0A56"/>
<path d="M572.196,335.361C572.196,335.361 589.298,377.93 594.763,394.062C598.658,405.558 609.639,445.874 609.639,445.874C609.639,445.874 614.416,447.327 618.428,444.519C618.428,444.519 622.513,403.324 614.261,391.712C609.881,385.549 613.171,327.651 595.418,327.155C577.666,326.659 572.196,335.361 572.196,335.361Z" fill="#01008A"/>
<path d="M604.784,339.226C597.652,343.249 567.106,343.158 565.69,340.002C562.53,332.95 561.738,297.123 563.23,286.131C563.23,286.131 564.002,269.241 565.69,269.987C576.974,264.801 595.237,269.51 595.237,269.51C600.162,270.96 599.738,282.213 601.112,298.016C601.29,300.053 601.483,302.176 601.702,304.368C602.675,314.126 604.087,325.338 606.237,337.163C606.385,337.939 605.843,338.628 604.784,339.226Z" fill="#AEC3FF"/>
<path d="M586.8,267.611C586.611,270.631 582.671,270.291 577.931,269.208C573.196,268.129 574.911,265.336 574.911,265.336C574.911,265.336 574.979,263.19 575.282,260.619C575.392,259.685 575.528,258.689 575.706,257.724C575.789,257.251 575.884,256.785 575.99,256.335C576.607,253.677 585.453,256.24 585.388,256.955C585.218,258.886 586.615,265.241 586.8,267.611Z" fill="#FFB27D"/>
<path d="M576.644,272.882L576.273,268.711L581.516,269.699L579.498,273.423L576.644,272.882Z" fill="#233862"/>
<path d="M575.026,263.371L571.892,268.137C571.892,268.137 571.892,271.066 574.609,273.194L578.894,269.204C578.894,269.204 576.127,268.148 575.026,263.371Z" fill="#9DB0F4"/>
<path d="M578.893,269.204C578.893,269.204 579.782,272.391 581.497,273.852C581.497,273.852 588.185,272.054 589.783,268.625L586.296,264.128C586.296,264.128 586.13,267.531 578.893,269.204Z" fill="#9DB0F4"/>
<path d="M585.441,258.458C585.441,258.458 581.182,261.289 575.281,260.619C575.391,259.684 575.527,258.689 575.705,257.724C576.871,257.44 577.844,257.266 577.844,257.266L585.441,258.458Z" fill="#E2915A"/>
<path d="M588.144,255.241C586.062,260.968 578.469,259.507 575.232,258.587C574.32,258.33 573.756,258.114 573.756,258.114C572.757,257.66 572.446,255.915 572.533,253.712C572.708,249.351 574.426,243.196 575.418,241.713C576.905,239.479 579.385,237.212 586.751,240.373C594.12,243.533 590.812,247.901 588.144,255.241Z" fill="#FFB27D"/>
<path d="M593.833,252.299C591.509,254.196 586.513,257.705 586.513,257.705C586.513,257.705 587.069,257.046 587.747,255.154C587.822,254.938 587.849,254.624 587.838,254.29C587.807,253.363 588.034,252.436 588.519,251.645C588.822,251.149 588.935,250.638 588.549,250.274C587.917,249.676 586.838,250.225 586.134,250.71C585.669,251.028 585.055,251.047 584.575,250.747C584.571,250.747 584.567,250.744 584.567,250.744C582.58,249.498 584.772,247.307 583.159,245.486C581.543,243.665 574.555,243.416 574.835,242.276C572.451,240.929 573.954,235.955 573.999,235.69C573.999,235.69 577.425,235.993 581.698,234.925C585.169,234.055 588.996,236.284 590.207,237.2C590.207,236.981 590.169,236.674 590.014,236.352C590.014,236.352 590.54,236.871 590.529,237.477C590.582,237.53 590.605,237.567 590.589,237.575C590.589,237.575 591.282,237.56 591.683,237.829C591.683,237.829 591.388,237.734 591.248,237.912C591.233,237.931 591.21,237.946 591.187,237.957C595.832,241.243 595.764,250.721 593.833,252.299Z" fill="#233862"/>
<path d="M577.155,254.412C577.155,254.412 576.781,255.135 574.903,254.537C574.903,254.537 573.325,254.033 573.586,253.204C573.59,253.204 575.293,252.996 577.155,254.412Z" fill="#FFFFFF"/>
<path d="M576.644,272.883C576.644,272.883 572.461,325.754 572.518,330.16C572.575,334.566 577.155,339.226 577.155,339.226C577.155,339.226 580.804,335.232 581.516,331.019C582.227,326.807 579.498,273.428 579.498,273.428L576.644,272.883Z" fill="#2A4E96"/>
<path d="M595.24,269.515C595.24,269.515 601.993,271.131 607.334,281.389C612.675,291.647 616.891,312.333 619.439,317.795C621.99,323.257 623.735,340.453 623.735,340.453L619.7,342.432C619.7,342.432 609.953,324.809 608.515,319.029C607.735,315.902 595.819,290.871 595.819,290.871L595.24,269.515Z" fill="#AEC3FF"/>
<path d="M604.783,339.226C604.779,339.226 604.779,339.226 604.775,339.226C592.057,337.398 595.702,295.307 596.702,295.14C597.701,294.974 601.357,302.665 601.357,302.665L601.706,304.372C602.678,314.131 604.09,325.342 606.24,337.167C606.384,337.939 605.843,338.628 604.783,339.226Z" fill="#9DB0F4"/>
<path d="M763.458,431.173C763.458,431.173 768.753,436.007 767.72,439.44C766.686,442.873 761.909,445.163 761.262,449.361C760.615,453.559 758.033,455.845 755.709,455.845C753.385,455.845 744.626,455.845 744.626,455.845C744.626,455.845 742.915,452.892 747.049,452.003C751.182,451.113 752.742,446.181 752.481,441.605C752.223,437.029 752.867,430.923 752.867,430.923L761.648,428.887L763.458,431.173Z" fill="#233862"/>
<path d="M698.493,443.671C698.493,443.671 699.443,454.667 697.119,455.814L667.367,455.753C667.367,455.753 667.367,452.32 672.144,451.556C676.921,450.791 685.317,447.994 686.74,441.763C688.163,435.533 698.493,443.671 698.493,443.671Z" fill="#233862"/>
<path d="M673.379,288.319C673.379,288.319 674.95,307.597 676.793,330.77C679.299,362.247 682.316,400.913 682.611,408.237C683.126,420.955 685.196,441.301 685.196,441.301C685.196,441.301 690.102,446.134 699.921,444.098C699.921,444.098 708.668,415.054 711.167,384.322C711.204,383.819 711.246,383.312 711.284,382.805C713.608,351.52 717.223,285.646 717.223,285.646L673.379,288.319Z" fill="#01008A"/>
<path d="M673.379,288.318C673.379,288.318 674.95,307.596 676.793,330.769L711.167,384.325C711.204,383.822 711.246,383.315 711.284,382.808C713.608,351.523 717.223,285.649 717.223,285.649L673.379,288.318Z" fill="#0B0A56"/>
<path d="M680.544,290.609C680.544,290.609 708.827,360.423 727.427,393.233C746.028,426.043 751.838,435.199 751.838,435.199C751.838,435.199 762.493,431.001 763.462,428.14C763.462,428.14 756.35,364.799 743.897,349.359C736.86,340.634 730.789,321.276 731.095,312.116C731.618,296.321 725.686,278.016 725.686,278.016L680.544,290.609Z" fill="#01008A"/>
<path d="M657.958,291.635C657.958,291.635 652.678,298.785 652.288,300.693C651.898,302.6 651.444,309.414 652.076,311.409C652.708,313.403 656.001,305.458 657.333,304.542C658.666,303.626 656.501,307.669 657.019,308.286C657.538,308.899 660.081,305.803 661.084,304.743C662.088,303.687 661.618,298.391 662.686,295.17C663.753,291.949 657.958,291.635 657.958,291.635Z" fill="#FFB27D"/>
<path d="M681.249,187.721C681.249,187.721 674.114,254.155 673.478,256.047C673.338,256.46 672.782,258.561 671.991,261.589C670.866,265.911 669.28,272.119 667.774,278.024C665.503,286.942 663.05,294.656 663.05,294.656C663.05,294.656 661.971,295.353 659.375,295.133C657.603,294.982 656.646,293.468 656.646,293.468C656.646,293.468 656.907,260.851 658.496,253.416C660.094,245.979 665.189,200.306 667.766,194.159C670.337,188.008 681.249,187.721 681.249,187.721Z" fill="#FFFFFF"/>
<path d="M671.99,261.584C670.866,265.907 669.28,272.115 667.774,278.02C666.805,275.291 665.571,270.945 664.791,264.991C663.356,253.995 667.766,230.576 667.766,230.576L671.99,261.584Z" fill="#DCEAFF"/>
<path d="M728.503,289.844C718.26,295.624 674.374,295.496 672.342,290.957C667.8,280.828 666.664,229.357 668.806,213.569C668.806,213.569 669.916,189.306 672.342,190.377C688.55,182.932 714.789,189.692 714.789,189.692C721.863,191.778 721.254,207.941 723.23,230.644C723.483,233.57 723.764,236.621 724.082,239.77C725.478,253.791 727.507,269.893 730.596,286.881C730.804,288.001 730.024,288.989 728.503,289.844Z" fill="#FFFFFF"/>
<path d="M702.666,186.963C702.393,191.305 696.734,190.813 689.928,189.257C683.126,187.709 685.587,183.693 685.587,183.693C685.587,183.693 685.685,180.608 686.117,176.914C686.276,175.57 686.469,174.143 686.73,172.754C686.851,172.076 686.984,171.406 687.135,170.759C688.025,166.94 700.731,170.626 700.641,171.652C700.391,174.43 702.401,183.557 702.666,186.963Z" fill="#FFB27D"/>
<path d="M688.081,194.538L687.543,188.542L695.076,189.965L692.176,195.317L688.081,194.538Z" fill="#233862"/>
<path d="M685.75,180.873L681.249,187.72C681.249,187.72 681.249,191.933 685.155,194.988L691.31,189.257C691.31,189.253 687.328,187.736 685.75,180.873Z" fill="#DCEAFF"/>
<path d="M691.309,189.253C691.309,189.253 692.584,193.829 695.048,195.93C695.048,195.93 704.659,193.345 706.949,188.424L701.945,181.963C701.945,181.963 701.703,186.85 691.309,189.253Z" fill="#DCEAFF"/>
<path d="M700.712,173.813C700.712,173.813 694.595,177.882 686.12,176.917C686.279,175.573 686.472,174.146 686.733,172.757C688.406,172.352 689.807,172.099 689.807,172.099L700.712,173.813Z" fill="#E2915A"/>
<path d="M704.594,169.192C701.603,177.421 690.691,175.32 686.046,173.999C684.737,173.628 683.927,173.322 683.927,173.322C682.492,172.671 682.045,170.165 682.17,167C682.416,160.736 684.892,151.894 686.311,149.763C688.446,146.557 692.008,143.294 702.595,147.836C713.182,152.374 708.428,158.646 704.594,169.192Z" fill="#FFB27D"/>
<path d="M712.767,164.968C709.424,167.693 702.248,172.735 702.248,172.735C702.248,172.735 703.046,171.792 704.023,169.071C704.133,168.76 704.171,168.31 704.155,167.829C704.114,166.497 704.436,165.164 705.136,164.029C705.575,163.317 705.73,162.583 705.177,162.061C704.269,161.201 702.721,161.989 701.706,162.685C701.037,163.143 700.158,163.17 699.469,162.742C699.466,162.738 699.462,162.738 699.458,162.734C696.604,160.948 699.753,157.798 697.437,155.183C695.113,152.567 685.074,152.211 685.476,150.569C682.046,148.634 684.208,141.488 684.272,141.109C684.272,141.109 689.189,141.545 695.332,140.012C700.317,138.759 705.813,141.961 707.555,143.282C707.555,142.968 707.502,142.525 707.278,142.063C707.278,142.063 708.031,142.809 708.02,143.68C708.096,143.755 708.13,143.808 708.107,143.823C708.107,143.823 709.103,143.805 709.682,144.187C709.682,144.187 709.258,144.054 709.057,144.308C709.035,144.338 709.004,144.357 708.97,144.376C715.64,149.081 715.541,162.7 712.767,164.968Z" fill="#233862"/>
<path d="M688.811,168.003C688.811,168.003 688.274,169.04 685.579,168.181C685.579,168.181 683.312,167.458 683.69,166.265C683.69,166.265 686.135,165.966 688.811,168.003Z" fill="#FFFFFF"/>
<path d="M688.079,194.536C688.079,194.536 682.068,270.494 682.151,276.822C682.235,283.151 688.809,289.843 688.809,289.843C688.809,289.843 694.048,284.109 695.074,278.053C696.096,271.996 692.174,195.316 692.174,195.316L688.079,194.536Z" fill="#2A4E96"/>
<path d="M728.502,289.845C728.498,289.845 728.498,289.845 728.491,289.845C710.22,287.215 715.454,226.75 716.889,226.512C718.324,226.273 723.578,237.318 723.578,237.318L724.081,239.771C725.478,253.791 727.506,269.894 730.595,286.882C730.803,288.002 730.024,288.99 728.502,289.845Z" fill="#DCEAFF"/>
<path d="M782.212,334.89L743.577,346.132C738.55,347.597 733.236,344.679 731.775,339.652L726.903,322.91C725.438,317.883 728.357,312.569 733.383,311.108L772.019,299.866C777.045,298.401 782.36,301.319 783.821,306.346L788.692,323.088C790.157,328.115 787.239,333.425 782.212,334.89Z" fill="#A02E2E"/>
<path d="M731.991,321.414L736.919,338.349C737.873,341.627 740.459,344.012 743.532,344.878C744.55,345.166 745.625,345.287 746.716,345.215C746.719,345.215 746.719,345.215 746.719,345.215L746.723,345.215C747.401,345.174 748.086,345.056 748.767,344.859L787.33,333.636C792.376,332.168 795.306,326.838 793.837,321.792L788.909,304.854C787.436,299.808 782.107,296.878 777.061,298.347L763.783,302.212L762.731,298.597C762.246,296.928 760.49,295.966 758.82,296.451L757.363,296.875L749.286,299.225L747.279,299.808C746.473,300.043 745.803,300.58 745.398,301.318C744.993,302.06 744.899,302.912 745.133,303.718L746.186,307.333L738.494,309.57C738.187,309.657 737.896,309.763 737.608,309.877C737.608,309.88 737.605,309.88 737.601,309.88L737.597,309.88C734.671,311.058 732.589,313.586 731.878,316.52L731.878,316.523C731.503,318.083 731.514,319.764 731.991,321.414ZM761.89,302.761L748.09,306.777L747.037,303.162C746.856,302.541 747.215,301.886 747.84,301.705L751.307,300.698L757.662,298.847L759.377,298.347C759.494,298.313 759.612,298.298 759.729,298.302C760.229,298.309 760.69,298.642 760.838,299.15L761.89,302.761Z" fill="#FF3874"/>
<path d="M750.313,291.946C750.313,291.946 749.113,301.966 751.362,301.822C753.606,301.678 759.102,300.599 759.481,298.877C759.855,297.151 755.272,289.104 755.272,289.104L750.313,291.946Z" fill="#FFB27D"/>
<path d="M750.6,291.919C750.6,291.919 748.882,294.054 748.734,295.734C748.586,297.415 747.765,300.352 748.537,300.542C749.306,300.731 750.714,296.885 750.714,296.885L750.6,291.919Z" fill="#FFB27D"/>
<path d="M714.792,189.696C714.792,189.696 724.497,192.02 732.166,206.756C739.839,221.492 745.895,251.213 749.559,259.06C753.223,266.903 756.009,290.443 756.009,290.443C756.009,290.443 755.437,291.612 753.465,292.04C751.932,292.373 750.361,292.241 750.361,292.241C750.361,292.241 735.936,269.132 733.866,260.831C732.745,256.338 715.629,220.379 715.629,220.379L714.792,189.696Z" fill="#FFFFFF"/>
<path d="M75.746,446.253L74.293,435.783L80.398,430.677L82.321,444.542L75.746,446.253Z" fill="#FFB27D"/>
<path d="M96.028,455.605L71.129,455.605C71.129,455.605 70.531,451.813 71.833,448.932C73.079,446.169 75.02,444.466 75.195,442.35C76.777,443.977 78.722,445.026 82.322,444.541C82.765,445.257 85.169,449.083 86.641,450.14C88.272,451.309 95.525,450.893 96.028,455.605Z" fill="#233862"/>
<path d="M91.022,304.853C89.395,317.95 88.062,330.301 86.98,341.808C81.185,403.132 82.324,440.612 82.324,440.612C82.324,440.612 81.904,441.722 78.312,441.737C76.283,441.748 74.292,441.305 74.292,441.305C74.292,441.305 61.32,401.262 62.319,378.475C62.441,375.734 62.762,373.244 63.33,371.098C66.442,359.439 51.812,314.853 67.717,298.248C83.619,281.646 91.772,298.842 91.022,304.853Z" fill="#F99746"/>
<path d="M91.022,304.853C89.395,317.95 88.062,330.301 86.98,341.808L62.319,378.475C62.441,375.734 62.762,373.244 63.33,371.098C66.442,359.439 51.812,314.853 67.717,298.248C83.619,281.646 91.772,298.842 91.022,304.853Z" fill="#ED7D2B"/>
<path d="M110.62,179.915C110.62,179.915 110.018,176.921 109.344,174.639C109.045,173.628 111.131,166.989 112.573,166.175C114.015,165.358 117.774,169.828 116.71,173.261C116.165,175.025 115.268,180.759 115.268,180.759L110.62,179.915Z" fill="#FFB27D"/>
<path d="M110.619,179.916C110.619,179.916 109.836,178.182 109.128,177.899C108.42,177.618 107.659,174.78 107.141,173.655C107.141,173.655 107.644,172.921 108.522,173.867C109.06,174.446 110.252,176.138 110.252,176.138L110.619,179.916Z" fill="#FFB27D"/>
<path d="M7.836,189.984C7.685,190.298 7.473,190.862 7.284,191.392C7.28,191.248 7.28,191.104 7.276,190.964C7.265,189.912 3.332,184.174 1.712,183.814C0.092,183.454 -2.19,188.829 -0.169,191.801C0.868,193.326 3.404,198.55 3.404,198.55L7.598,196.385C7.598,196.385 7.84,194.496 8.435,194.019C9.029,193.542 8.923,190.608 9.093,189.378C9.097,189.378 8.4,188.822 7.836,189.984Z" fill="#FFB27D"/>
<path d="M33.989,443.114C33.637,439.757 33.55,430.926 33.55,430.926C33.55,430.926 42.547,428.049 42.218,430.025C40.59,439.734 41.033,444.541 41.033,444.541L37.396,446.714L33.989,443.114Z" fill="#FFB27D"/>
<path d="M83.509,304.229C83.509,304.229 48.75,399.513 41.906,440.844C41.906,440.844 40.32,441.934 37.364,441.571C34.01,441.162 33.091,438.83 33.091,438.83C33.091,438.83 26.811,389.293 39.291,372.094C47.864,360.28 35.593,308.385 55.563,304.225C75.538,300.069 83.509,304.229 83.509,304.229Z" fill="#F99746"/>
<path d="M77.338,212.574C77.338,212.57 77.338,212.57 77.338,212.574C77.33,212.528 77.322,212.487 77.307,212.445C77.103,211.605 76.883,210.78 76.645,209.962C76.645,209.958 76.645,209.958 76.645,209.958C75.918,207.452 75.051,205.068 74.116,202.959C73.579,201.752 73.022,200.631 72.451,199.636C72.364,199.481 72.28,199.337 72.197,199.193L72.193,199.189C70.85,196.933 69.468,195.37 68.223,194.889C65.952,194.011 63.423,194.257 61.682,194.617C62.064,194.083 62.931,193.78 62.931,193.78C61.818,193.78 59.547,195.219 59.547,195.219C43.536,191.638 44.475,214.285 45.565,219.417C46.651,224.55 41.496,227.044 34.228,232.298C20.355,242.321 20.586,252.943 20.586,252.943C20.711,252.996 20.847,253.056 20.991,253.128C21.548,251.754 22.732,249.154 23.974,248.601C23.94,248.722 22.929,252.095 22.642,253.98C24.754,255.146 27.68,256.947 30.855,258.984C30.855,258.984 30.855,258.984 30.859,258.988C35.11,261.705 39.796,264.836 43.555,267.376C43.377,266.342 43.199,264.866 43.46,264.033L44.656,267.743L44.815,268.227C47.215,269.851 49.104,271.153 50.065,271.819C50.164,271.887 50.251,271.948 50.33,272.001C50.61,272.194 50.762,272.3 50.762,272.3C50.444,270.99 51.841,267.572 54.191,263.265C54.354,262.966 54.524,262.659 54.698,262.349C55.455,260.986 56.303,259.552 57.215,258.072C57.545,257.538 57.874,257 58.219,256.459C58.219,256.455 58.222,256.455 58.222,256.455C58.499,256.016 58.779,255.581 59.066,255.138L59.07,255.134C59.752,254.082 60.456,253.022 61.175,251.962C63.037,249.214 65.005,246.485 66.955,243.979C69.782,240.334 72.557,237.166 74.881,235.095C74.957,234.94 75.029,234.778 75.093,234.619C75.456,233.774 75.736,232.836 75.952,231.882C76.02,231.594 76.081,231.307 76.134,231.019C76.713,227.972 76.724,224.947 76.717,224.228C76.902,227.173 76.83,229.395 76.633,231.072C76.588,231.439 76.539,231.78 76.486,232.098L76.486,232.101C76.361,232.817 76.221,233.411 76.066,233.903C76.444,233.43 76.781,232.915 77.076,232.347C77.269,231.98 77.447,231.59 77.602,231.185C79.465,226.401 78.961,219.266 77.338,212.574Z" fill="#163560"/>
<path d="M74.327,235.517C74.38,235.532 69.845,238.813 65.995,238.355C62.377,237.924 59.432,233.753 59.481,233.738C60.912,233.227 61.033,231.137 59.708,222.446L60.393,222.477L71.919,223.029C71.919,223.029 72.188,226.591 72.676,229.911C73.081,232.697 73.645,235.312 74.327,235.517Z" fill="#FFB27D"/>
<path d="M71.921,223.024C71.921,223.024 72.189,226.586 72.678,229.906C66.387,230.663 62.227,225.439 60.398,222.472L71.921,223.024Z" fill="#ED975D"/>
<path d="M59.058,221.427C59.058,221.427 55.004,216.73 53.554,212.411C52.521,209.33 52.388,197.35 64.433,197.285C64.433,197.285 67.907,197.111 71.454,198.811C74.274,200.158 78.525,203.345 75.917,214.201L75.357,217.82L59.058,221.427Z" fill="#163560"/>
<path d="M92.478,302.4C92.478,302.4 77.481,311.314 58.65,306.73C58.426,306.677 43.146,304.236 43.146,304.236C43.407,303.517 45.383,291.711 45.64,291.052C48.982,282.433 55.084,235.645 60.186,233.336C61.489,234.755 65.213,235.724 68.397,235.444C72.064,235.118 73.295,233.536 72.988,231.829C77.049,233.748 80.168,235.535 80.168,235.535C83.882,241.095 92.478,302.4 92.478,302.4Z" fill="#FFFFFF"/>
<path d="M74.482,225.856C74.482,225.856 59.697,228.305 58.312,219.073C56.93,209.841 54.088,203.94 63.471,201.987C72.855,200.034 75.221,203.281 76.432,206.249C77.639,209.22 78.29,224.982 74.482,225.856Z" fill="#FFB27D"/>
<path d="M70.186,200.76C70.186,200.76 67.741,212.195 61.749,214.724C55.761,217.252 52.809,215.984 52.809,215.984C52.809,215.984 57.022,211.48 57.029,204.708C57.029,204.705 66.36,196.059 70.186,200.76Z" fill="#163560"/>
<path d="M69.312,201.79C69.312,201.79 72.703,203.759 73.789,205.999C74.88,208.24 75.932,213.032 77.317,212.658C77.317,212.658 79.278,204.841 75.224,201.188C70.924,197.309 69.312,201.79 69.312,201.79Z" fill="#163560"/>
<path d="M115.366,180.131C114.764,179.919 113.878,179.42 112.723,179.314C111.694,179.223 110.399,179.556 110.399,179.556C110.399,179.556 106.228,205.488 105.918,206.862C105.607,208.236 88.025,228.044 83.286,227.964C79.005,227.893 73.933,231.197 72.994,231.833C72.994,231.833 82.964,252.913 83.46,256.872C84.001,261.179 89.161,327.534 89.161,327.534C89.161,327.534 88.854,330.622 94.623,328.961C100.391,327.303 101.834,325.929 101.834,325.929C101.834,325.929 96.534,273.693 95.425,257.447C95.278,255.267 94.922,253.25 94.415,251.387C93.926,249.593 94.312,247.67 95.406,246.167C102.697,236.159 114.211,219.94 114.855,216.495C115.789,211.427 115.366,180.131 115.366,180.131Z" fill="#01008A"/>
<path d="M54.734,455.605L29.835,455.605C29.835,455.605 29.237,451.813 30.539,448.932C31.785,446.169 33.727,444.466 33.901,442.35C35.483,443.977 37.428,445.026 41.028,444.541C41.471,445.257 43.875,449.083 45.347,450.14C46.978,451.309 54.235,450.893 54.734,455.605Z" fill="#233862"/>
<path d="M71.84,258.915C70.999,253.752 60.287,233.017 60.287,233.017C60.287,233.017 53.515,230.992 49.057,232.608C44.598,234.224 21.534,221.2 20.796,220.004C20.058,218.804 7.703,195.786 7.703,195.786C7.703,195.786 6.678,195.192 5.039,196.047C3.415,196.895 3.407,198.545 3.407,198.545C3.407,198.545 12.942,227.529 15.478,232.01C17.007,234.713 29.866,244.127 39.836,251.175C41.74,252.522 42.739,254.812 42.425,257.121C41.085,267.031 40.744,272.614 39.2,289.617C37.921,303.724 37.432,331.034 37.432,331.034C37.432,331.034 48.587,334.895 56.29,335.406C63.989,335.917 65.666,327.802 65.666,327.802C65.666,327.802 72.699,264.226 71.84,258.915Z" fill="#01008A"/>
<path d="M69.637,221.296C69.637,221.296 71.435,222.352 73.554,222.034C75.008,221.815 75.337,220.092 75.337,220.092C75.337,220.092 74.327,219.774 72.714,220.096C71.102,220.418 69.637,221.296 69.637,221.296Z" fill="#FFFFFF"/>
<path d="M541.897,45.318C541.897,45.318 534.977,33.024 541.897,30.522C548.816,28.02 551.946,30.329 552.276,33.126C552.605,35.927 549.641,46.965 549.641,46.965L541.897,45.318Z" fill="#FFB27D"/>
<path d="M547.443,123.955C534.827,126.23 523.23,127.282 512.764,127.517C502.827,127.74 493.91,127.225 486.104,126.317C484.007,126.075 481.998,125.806 480.063,125.514C459.638,122.418 448.362,116.926 448.362,116.926C448.362,116.926 467.023,77.863 482.096,79.362C499.78,81.126 529.751,96.993 532.73,92.546C536.084,87.53 538.893,44.527 538.893,44.527C546.736,39.156 551.414,44.818 551.414,44.818C551.414,44.818 566.733,120.473 547.443,123.955Z" fill="#F99746"/>
<path d="M547.442,123.955C534.826,126.23 523.229,127.282 512.762,127.516C502.826,127.74 493.908,127.225 486.103,126.317C481.398,111.354 478.014,96.069 487.477,105.282C504.174,121.536 547.442,123.955 547.442,123.955Z" fill="#ED7D2B"/>
<path d="M446.946,439.341C446.946,439.341 445.602,454.867 448.888,456.484L490.896,456.397C490.896,456.397 490.896,451.548 484.147,450.473C477.398,449.394 465.546,445.446 463.54,436.645C461.534,427.849 446.946,439.341 446.946,439.341Z" fill="#233862"/>
<path d="M477.788,251.398C477.58,261.554 477.091,272.027 476.138,281.437C471.599,326.103 470.006,380.072 469.355,390.473C468.223,408.537 464.657,437.391 464.657,437.391C464.657,437.391 457.579,444.109 443.786,440.903C443.786,440.903 432.354,399.346 429.803,355.585C429.765,354.866 429.724,354.147 429.69,353.424C429.394,347.637 429.084,341.024 428.766,333.889C426.665,286.108 424.383,215.132 424.383,215.132L477.099,202.755C477.091,202.755 478.307,226.087 477.788,251.398Z" fill="#01008A"/>
<path d="M477.787,251.398C464.429,274.446 438.962,316.912 428.761,333.889C426.66,286.108 424.378,215.132 424.378,215.132L477.094,202.755C477.09,202.755 478.306,226.087 477.787,251.398Z" fill="#0B0A56"/>
<path d="M344.31,206.748C344.31,206.748 335.733,216.836 334.961,219.633C334.189,222.43 332.815,232.506 333.553,235.534C334.287,238.562 339.992,227.09 342.066,225.867C344.14,224.641 340.51,230.428 341.218,231.397C341.926,232.362 346.021,228.017 347.619,226.548C349.216,225.08 349.057,217.165 350.976,212.486C352.895,207.808 344.31,206.748 344.31,206.748Z" fill="#FFB27D"/>
<path d="M342.298,421.694C342.298,421.694 334.822,428.519 336.279,433.364C337.737,438.213 344.485,441.445 345.398,447.369C346.31,453.293 349.955,456.526 353.241,456.526C356.522,456.526 368.889,456.526 368.889,456.526C368.889,456.526 371.303,452.354 365.471,451.098C359.634,449.841 357.435,442.876 357.798,436.415C358.161,429.95 357.249,421.331 357.249,421.331L344.849,418.458L342.298,421.694Z" fill="#233862"/>
<path d="M468.786,216.216C468.786,216.216 419.439,321.8 393.177,368.127C366.916,414.455 358.709,427.385 358.709,427.385C358.709,427.385 343.663,421.457 342.297,417.419C342.297,417.419 352.339,327.982 369.925,306.179C379.861,293.858 391.534,256.888 392.083,243.962C392.632,231.032 404.158,200.175 404.158,200.175L468.786,216.216Z" fill="#01008A"/>
<path d="M483.213,221.196C483.213,221.196 463.59,234.315 435.815,233.096C423.626,232.563 399.447,229.107 395.544,219.413C394.628,217.138 395.298,214.25 396.676,209.814C400.241,198.292 408.557,176.349 406.048,127.698C405.813,123.171 405.942,118.916 406.373,114.93C408.989,90.966 422.722,76.776 435.996,72.139C468.367,60.825 479.159,76.499 479.159,76.499C479.159,76.499 493.467,87.836 495.624,111.493C499.936,158.823 483.213,221.196 483.213,221.196Z" fill="#F99746"/>
<path d="M445.48,69.426C445.48,69.426 460.334,78.461 476.443,75.906C476.443,75.906 479.627,75.096 478.063,71.356C479.044,68.339 478.926,68.612 479.494,66.367C480.906,61.208 481.337,58.229 481.337,58.229L472.196,48.618L463.536,39.436C461.144,61.386 445.48,69.426 445.48,69.426Z" fill="#FFB27D"/>
<path d="M462.146,47.759C462.146,47.759 467.12,61.056 479.49,66.367C480.902,61.208 481.822,55.806 481.822,55.806L472.192,48.618L462.146,47.759Z" fill="#ED985F"/>
<path d="M491.596,57.763C491.596,57.763 463.245,61.306 461.254,43.883C459.263,26.46 454.263,15.183 472.284,12.186C490.302,9.188 494.586,15.448 496.687,21.107C498.784,26.766 498.92,56.393 491.596,57.763Z" fill="#FFB27D"/>
<path d="M452.302,9.355C452.056,9.052 451.477,8.795 450.167,8.673C450.167,8.673 451.242,8.056 452.646,8.075C452.991,6.258 454.085,3.064 457.257,2.398C457.257,2.398 455.534,3.234 455.239,5.168C459.02,1.569 466.92,-0.858 488.454,1.663C516.828,4.987 506.759,22.853 502.993,24.885C499.227,26.918 490.176,20.612 483.291,20.896C476.406,21.18 474.725,31.051 472.344,32.323C469.963,33.595 470.97,31.226 467.874,29.681C464.778,28.137 464.278,33.349 465.062,36.778C465.845,40.208 461.345,44.523 461.345,44.523C461.345,44.523 461.345,44.523 457.147,39.644C452.949,34.765 449.58,14.654 451.73,10.475C451.92,10.104 452.109,9.729 452.302,9.355Z" fill="#2C3A64"/>
<path d="M538.89,37.164L490.754,37.592L490.429,30.351L538.41,26.634L538.89,37.164Z" fill="#2A4E96"/>
<path d="M575.222,38.371L522.82,39.128L522.222,25.963L574.476,21.917L575.222,38.371Z" fill="#2A4E96"/>
<path d="M610.56,39.405L566.368,39.462L565.562,21.686L609.572,17.682L610.56,39.405Z" fill="#233862"/>
<path d="M611.192,42.406C612.554,42.346 613.611,41.187 613.55,39.825L612.513,16.992C612.452,15.63 611.294,14.574 609.931,14.634C608.569,14.695 607.513,15.853 607.577,17.216L608.614,40.048C608.671,41.411 609.825,42.467 611.192,42.406Z" fill="#233862"/>
<path d="M490.607,39.137C489.396,39.193 488.366,38.255 488.313,37.043L488.044,31.12C487.988,29.908 488.926,28.882 490.138,28.826C491.349,28.769 492.378,29.708 492.431,30.919L492.7,36.843C492.757,38.054 491.818,39.084 490.607,39.137Z" fill="#2A4E96"/>
<path d="M396.675,209.815C400.24,198.293 408.557,176.35 406.047,127.699C405.812,123.172 405.941,118.918 406.372,114.932L406.376,114.932C417.028,114.016 433.315,125.534 433.315,125.534C433.315,125.534 423.285,186.68 396.675,209.815Z" fill="#ED7D2B"/>
<path d="M445.481,69.425C445.481,69.425 418.164,74.122 403.916,91.515C389.669,108.908 366.749,133.432 361.333,142.021C355.912,150.609 340.87,209.056 340.87,209.056C340.87,209.056 341.862,210.934 346.01,212.028C349.981,213.073 352.862,211.453 352.862,211.453C352.862,211.453 372.791,177.344 380.293,160.307C383.408,153.229 437.305,125.192 457.567,128.095C465.528,129.234 445.481,69.425 445.481,69.425Z" fill="#F99746"/>
<path d="M538.604,24.558C538.604,24.558 544.478,28.15 547.995,26.633C551.511,25.111 551.201,23.722 551.201,23.722C551.201,23.722 540.579,20.773 538.604,24.558Z" fill="#FFB27D"/>
<path d="M471.988,88.479C471.988,88.479 460.001,164.163 374.944,186.201L365.678,204.479L381.954,207.235C381.954,207.235 478.787,179.183 477.485,87.139L471.988,88.479Z" fill="#BC3F3F"/>
<path d="M470.13,76.398L466.201,76.785L466.201,82.466L471.989,88.481L477.489,87.141L477.489,79.256L473.533,76.398L470.13,76.398Z" fill="#A02E2E"/>
<path d="M454.725,61.349C454.725,61.349 450.924,62.208 442.237,69.426C442.237,69.426 450.879,87.769 469.108,89.965C469.108,89.965 468.813,81.452 470.13,76.402C470.13,76.399 455.678,71.228 454.725,61.349Z" fill="#ED7D2B"/>
<path d="M470.13,76.397C470.13,76.397 479.025,81.121 479.684,88.48C479.684,88.48 483.083,83.093 482.099,79.361C481.111,75.629 478.064,71.355 478.064,71.355C478.064,71.355 478.366,75.848 470.13,76.397Z" fill="#ED7D2B"/>
</svg>
