<svg width="466" height="666" viewBox="0 0 466 666" fill="none" xmlns="http://www.w3.org/2000/svg" xmlns:xlink="http://www.w3.org/1999/xlink">
<path d="M445.894,245.965L18.074,245.965L18.074,284.322L445.894,284.322L445.894,245.965Z" fill="#BBC9DB"/>
<path d="M128.819,272.293L128.819,665.561L168.834,665.561L168.834,395.772C168.834,360.883 197.095,332.621 231.985,332.621C266.874,332.621 295.136,360.883 295.136,395.772L295.136,665.561L335.149,665.561L335.149,272.293L128.819,272.293Z" fill="#BBC9DB"/>
<path d="M140.787,258.424L18.075,258.424L18.075,665.562L140.787,665.562L140.787,258.424Z" fill="#E5F1FF"/>
<path d="M79.411,371.154C94.918,371.154 107.488,358.583 107.488,343.076C107.488,327.569 94.918,314.999 79.411,314.999C63.904,314.999 51.334,327.569 51.334,343.076C51.334,358.583 63.904,371.154 79.411,371.154Z" transform="rotate(-161.516 79.411 343.076)" fill="#BBC9DB"/>
<path d="M79.446,359.504C88.513,359.504 95.863,352.154 95.863,343.087C95.863,334.02 88.513,326.67 79.446,326.67C70.379,326.67 63.029,334.02 63.029,343.087C63.029,352.154 70.379,359.504 79.446,359.504Z" fill="#BBC9DB"/>
<path d="M113.324,396.08L40.139,396.08L40.139,665.53L113.324,665.53L113.324,396.08Z" fill="#BBC9DB"/>
<path d="M119.124,504.461L34.37,504.461L34.37,665.53L119.124,665.53L119.124,504.461Z" fill="#BBC9DB"/>
<path d="M144.93,493.689L13.994,493.689L13.994,504.46L144.93,504.46L144.93,493.689Z" fill="#BBC9DB"/>
<path d="M445.895,258.424L323.183,258.424L323.183,665.562L445.895,665.562L445.895,258.424Z" fill="#E5F1FF"/>
<path d="M384.488,371.173C399.995,371.173 412.566,358.602 412.566,343.096C412.566,327.589 399.995,315.018 384.488,315.018C368.982,315.018 356.411,327.589 356.411,343.096C356.411,358.602 368.982,371.173 384.488,371.173Z" transform="rotate(-161.516 384.488 343.096)" fill="#BBC9DB"/>
<path d="M384.523,359.504C393.59,359.504 400.94,352.154 400.94,343.087C400.94,334.02 393.59,326.67 384.523,326.67C375.457,326.67 368.106,334.02 368.106,343.087C368.106,352.154 375.457,359.504 384.523,359.504Z" fill="#BBC9DB"/>
<path d="M418.431,396.08L345.245,396.08L345.245,665.53L418.431,665.53L418.431,396.08Z" fill="#BBC9DB"/>
<path d="M424.201,504.461L339.447,504.461L339.447,665.53L424.201,665.53L424.201,504.461Z" fill="#BBC9DB"/>
<path d="M450.007,493.689L319.071,493.689L319.071,504.46L450.007,504.46L450.007,493.689Z" fill="#BBC9DB"/>
<path d="M445.894,194.076L18.074,194.076L18.074,245.966L445.894,245.966L445.894,194.076Z" fill="#BBC9DB"/>
<path d="M464.152,239.154L-0.184,239.154L-0.184,258.425L464.152,258.425L464.152,239.154Z" fill="#E5F1FF"/>
<path d="M450.006,277.785L13.993,277.785L-0.184,258.422L464.152,258.422L450.006,277.785Z" fill="#BBC9DB"/>
<path d="M412.6,168.115L51.368,168.115L51.368,194.075L412.6,194.075L412.6,168.115Z" fill="#E5F1FF"/>
<path d="M389.216,68.727L74.75,68.727L74.75,167.78L389.216,167.78L389.216,68.727Z" fill="#BBC9DB"/>
<path d="M381.853,44.605L82.085,44.605L82.085,68.356L381.853,68.356L381.853,44.605Z" fill="#E5F1FF"/>
<path d="M325.453,24.813L138.516,24.813L138.516,44.605L325.453,44.605L325.453,24.813Z" fill="#BBC9DB"/>
<path d="M283.905,24.843C283.905,24.843 266.199,21.959 247.205,7.598C243.768,2.903 238.244,-0.135 231.985,-0.135C225.786,-0.135 220.293,2.872 216.857,7.506C197.831,21.959 180.064,24.843 180.064,24.843L214.156,24.843C216.703,32.239 223.699,37.578 231.954,37.578C240.208,37.578 247.205,32.269 249.752,24.874L283.905,24.874L283.905,24.843Z" fill="#BBC9DB"/>
<path d="M325.453,92.043L138.516,92.043L138.516,136.169L325.453,136.169L325.453,92.043Z" fill="#E5F1FF"/>
<path d="M141.247,114.106C141.247,125.736 131.827,135.125 120.228,135.125C108.598,135.125 99.208,125.705 99.208,114.106C99.208,102.476 108.629,93.086 120.228,93.086C131.827,93.086 141.247,102.506 141.247,114.106Z" fill="#E5F1FF"/>
<path d="M364.793,114.106C364.793,125.736 355.373,135.125 343.774,135.125C332.144,135.125 322.754,125.705 322.754,114.106C322.754,102.476 332.174,93.086 343.774,93.086C355.404,93.086 364.793,102.506 364.793,114.106Z" fill="#E5F1FF"/>
<path d="M270.801,132.98L193.197,132.98L193.197,141.818L270.801,141.818L270.801,132.98Z" fill="#E5F1FF"/>
</svg>
