<svg width="40" height="40" viewBox="0 0 40 40" fill="none" xmlns="http://www.w3.org/2000/svg" xmlns:xlink="http://www.w3.org/1999/xlink">
<path d="M14.669,22.773C14.192,23.251 14.192,24.024 14.669,24.502C15.146,24.979 15.92,24.979 16.397,24.502L14.669,22.773ZM34.32,6.579C34.797,6.102 34.797,5.328 34.32,4.851C33.843,4.374 33.069,4.374 32.592,4.851L34.32,6.579ZM16.397,24.502L34.32,6.579L32.592,4.851L14.669,22.773L16.397,24.502Z" fill="#707070"/>
<path d="M33.456,5.715L34.606,6.13C34.767,5.684 34.655,5.186 34.32,4.851C33.985,4.516 33.487,4.405 33.041,4.565L33.456,5.715ZM22.866,35.043L23.977,35.552C23.991,35.521 24.003,35.49 24.015,35.458L22.866,35.043ZM22.051,35.566L22.051,36.788L22.051,35.566ZM21.236,35.043L22.347,34.534C22.341,34.521 22.336,34.509 22.329,34.496L21.236,35.043ZM15.534,23.638L16.627,23.091C16.508,22.855 16.317,22.663 16.08,22.545L15.534,23.638ZM4.128,17.935L4.675,16.842C4.662,16.836 4.65,16.83 4.637,16.824L4.128,17.935ZM3.605,17.12L4.827,17.12L3.605,17.12ZM4.128,16.306L3.713,15.156C3.681,15.168 3.65,15.181 3.619,15.195L4.128,16.306ZM32.307,5.3L21.716,34.628L24.015,35.458L34.606,6.13L32.307,5.3ZM21.755,34.534C21.781,34.477 21.823,34.429 21.875,34.395L23.195,36.452C23.536,36.233 23.808,35.921 23.977,35.552L21.755,34.534ZM21.875,34.395C21.928,34.362 21.989,34.344 22.051,34.344L22.051,36.788C22.457,36.788 22.854,36.671 23.195,36.452L21.875,34.395ZM22.051,34.344C22.113,34.344 22.175,34.362 22.227,34.395L20.907,36.452C21.248,36.671 21.645,36.788 22.051,36.788L22.051,34.344ZM22.227,34.395C22.28,34.429 22.321,34.477 22.347,34.534L20.125,35.552C20.294,35.921 20.566,36.233 20.907,36.452L22.227,34.395ZM22.329,34.496L16.627,23.091L14.441,24.184L20.143,35.589L22.329,34.496ZM16.08,22.545L4.675,16.842L3.582,19.028L14.987,24.731L16.08,22.545ZM4.637,16.824C4.694,16.85 4.742,16.892 4.776,16.944L2.719,18.264C2.938,18.606 3.25,18.877 3.619,19.046L4.637,16.824ZM4.776,16.944C4.81,16.997 4.827,17.058 4.827,17.12L2.383,17.12C2.383,17.526 2.5,17.923 2.719,18.264L4.776,16.944ZM4.827,17.12C4.827,17.183 4.81,17.244 4.776,17.296L2.719,15.976C2.5,16.318 2.383,16.715 2.383,17.12L4.827,17.12ZM4.776,17.296C4.742,17.349 4.694,17.39 4.637,17.416L3.619,15.195C3.25,15.364 2.938,15.635 2.719,15.976L4.776,17.296ZM4.543,17.455L33.871,6.864L33.041,4.565L3.713,15.156L4.543,17.455Z" fill="#707070"/>
</svg>
