<svg width="34" height="36" viewBox="0 0 34 36" fill="none" xmlns="http://www.w3.org/2000/svg" xmlns:xlink="http://www.w3.org/1999/xlink">
<path d="M31.211,14.742L26.039,14.742C21.798,14.742 18.344,11.268 18.344,7.002L18.344,1.8C18.344,0.81 17.539,0 16.555,0L8.967,0C3.456,0 -1,3.6 -1,10.026L-1,25.974C-1,32.4 3.456,36 8.967,36L23.033,36C28.544,36 33,32.4 33,25.974L33,16.542C33,15.552 32.195,14.742 31.211,14.742ZM15.159,20.754C14.891,21.024 14.551,21.15 14.211,21.15C13.871,21.15 13.531,21.024 13.262,20.754L11.974,19.458L11.974,27C11.974,27.738 11.365,28.35 10.632,28.35C9.898,28.35 9.289,27.738 9.289,27L9.289,19.458L8.001,20.754C7.482,21.276 6.623,21.276 6.104,20.754C5.585,20.232 5.585,19.368 6.104,18.846L9.683,15.246C9.808,15.138 9.934,15.048 10.077,14.976C10.113,14.958 10.166,14.94 10.202,14.922C10.309,14.886 10.417,14.868 10.542,14.85C10.596,14.85 10.632,14.85 10.685,14.85C10.828,14.85 10.972,14.886 11.115,14.94C11.133,14.94 11.133,14.94 11.151,14.94C11.294,14.994 11.437,15.102 11.544,15.21C11.562,15.228 11.58,15.228 11.58,15.246L15.159,18.846C15.678,19.368 15.678,20.232 15.159,20.754Z" fill="#01008A"/>
<path d="M25.851,11.982C27.526,12 29.855,12 31.848,12C32.853,12 33.383,10.819 32.677,10.113C30.137,7.556 25.586,2.954 22.976,0.344C22.252,-0.379 21,0.114 21,1.12L21,7.274C21,9.849 23.187,11.982 25.851,11.982Z" fill="#01008A"/>
</svg>
