<svg width="4896" height="4766" viewBox="0 0 4896 4766" fill="none" xmlns="http://www.w3.org/2000/svg" xmlns:xlink="http://www.w3.org/1999/xlink">
<path d="M2223.866,2260.112C2223.207,2318.522 2226.221,2377.026 2232.816,2435.108L2234.795,2438.216L2804.199,2438.216C2808.297,2431.15 2806.131,2421.258 2797.793,2417.302C2773.203,2405.666 2745.129,2401.286 2718.185,2405.338C2740.513,2393.938 2760.863,2378.77 2778.103,2360.588C2783.991,2354.322 2790.067,2346.408 2783.755,2337.082C2780.457,2332.182 2774.853,2329.31 2768.965,2328.98C2732.223,2326.718 2695.245,2328.744 2659.021,2335.056C2664.909,2310.468 2681.067,2289.6 2689.357,2265.718C2699.673,2235.994 2692.465,2193.836 2651.861,2194.354C2646.775,2194.448 2641.687,2195.39 2636.741,2196.756C2599.905,2206.695 2567.213,2231.143 2546.959,2263.551C2552.093,2210.181 2556.663,2153.749 2533.723,2105.278C2526.563,2090.252 2516.199,2075.79 2501.031,2068.866C2479.693,2059.115 2454.161,2066.699 2434.283,2079.276C2402.677,2099.249 2379.737,2130.856 2364.051,2164.819C2348.365,2198.829 2339.368,2235.429 2330.465,2271.748C2319.866,2247.535 2308.278,2222.099 2283.171,2210.134C2270.736,2204.199 2256.086,2203.633 2244.074,2210.416C2225.421,2220.968 2224.102,2241.553 2223.866,2260.112Z" fill="#55E0D3"/>
<path d="M2078.312,2260.392C2078.972,2318.802 2075.956,2377.306 2069.362,2435.388L2067.384,2438.496L1498.026,2438.496C1493.927,2431.43 1496.094,2421.538 1504.432,2417.582C1529.021,2405.946 1557.095,2401.566 1584.039,2405.618C1561.712,2394.218 1541.362,2379.05 1524.122,2360.868C1518.234,2354.602 1512.157,2346.688 1518.469,2337.362C1521.767,2332.462 1527.372,2329.59 1533.26,2329.26C1570.002,2326.998 1606.979,2329.024 1643.203,2335.336C1637.315,2310.748 1621.158,2289.88 1612.868,2265.998C1602.552,2236.275 1609.759,2194.116 1650.363,2194.634C1655.45,2194.728 1660.538,2195.67 1665.484,2197.036C1702.32,2206.975 1735.01,2231.423 1755.266,2263.831C1750.132,2210.461 1745.562,2154.029 1768.502,2105.558C1775.662,2090.532 1786.026,2076.071 1801.194,2069.146C1822.532,2059.396 1848.062,2066.979 1867.942,2079.557C1899.548,2099.529 1922.488,2131.136 1938.174,2165.099C1953.86,2199.109 1962.858,2235.709 1971.76,2272.028C1982.36,2247.815 1993.946,2222.379 2019.054,2210.414C2031.49,2204.479 2046.14,2203.914 2058.15,2210.697C2076.804,2221.201 2078.076,2241.833 2078.312,2260.392Z" fill="#55E0D3"/>
<path d="M1963.281,2285.077C1936.243,2296.523 1909.252,2307.922 1882.214,2319.369C1894.178,2293.744 1907.038,2268.543 1920.793,2243.813C1922.253,2241.175 1918.013,2239.102 1916.553,2241.74C1889.986,2289.41 1866.81,2338.87 1847.168,2389.79L1823.662,2149.838C1823.38,2146.823 1818.669,2147.153 1818.952,2150.215L1847.497,2441.7C1847.78,2444.716 1852.49,2444.386 1852.208,2441.324L1848.157,2400.012C1848.204,2399.966 1848.251,2399.918 1848.251,2399.872C1857.907,2374.294 1868.506,2349.092 1879.905,2324.315C1880.424,2324.739 1881.13,2324.88 1881.978,2324.55C1909.582,2312.868 1937.232,2301.186 1964.836,2289.504C1967.615,2288.327 1966.06,2283.899 1963.281,2285.077Z" fill="#FFFFFF"/>
<path d="M1751.026,2432.279C1742.688,2417.63 1734.398,2403.027 1726.06,2388.378C1726.013,2387.718 1725.731,2387.106 1725.118,2386.729C1720.549,2378.674 1715.933,2370.572 1711.364,2362.517C1714.567,2332.276 1717.77,2302.034 1720.973,2271.793C1721.303,2268.778 1716.686,2267.883 1716.357,2270.898C1713.342,2299.114 1710.374,2327.33 1707.36,2355.545C1689.413,2323.985 1671.466,2292.378 1653.519,2260.817C1652.011,2258.179 1648.149,2260.864 1649.656,2263.502C1668.592,2296.853 1687.576,2330.203 1706.512,2363.553C1706.465,2364.024 1706.418,2364.448 1706.37,2364.919C1706.182,2366.615 1707.548,2367.604 1708.867,2367.651L1719.183,2385.834C1696.526,2383.008 1673.915,2380.181 1651.258,2377.355C1648.243,2376.978 1647.348,2381.594 1650.363,2381.971L1722.104,2390.921C1730.441,2405.618 1738.779,2420.268 1747.163,2434.964C1748.671,2437.602 1752.533,2434.87 1751.026,2432.279Z" fill="#FFFFFF"/>
<path d="M2040.156,2346.784C2026.872,2359.408 2013.636,2372.079 2000.352,2384.704L2039.685,2295.675C2040.91,2292.896 2036.67,2290.823 2035.445,2293.603L2013.683,2342.922C2012.647,2332.841 2011.563,2322.808 2010.527,2312.727C2010.197,2309.712 2005.534,2310.042 2005.816,2313.104C2006.994,2324.409 2008.172,2335.667 2009.349,2346.973C2009.444,2348.056 2010.197,2348.715 2010.998,2348.951L1991.45,2393.183C1991.214,2393.418 1990.931,2393.654 1990.696,2393.889C1989.989,2394.596 1989.895,2395.349 1990.178,2396.009L1972.184,2436.802C1970.959,2439.581 1975.198,2441.654 1976.423,2438.874L1995.406,2395.867C2011.516,2380.511 2027.626,2365.202 2043.689,2349.846C2045.903,2347.773 2042.323,2344.711 2040.156,2346.784Z" fill="#FFFFFF"/>
<path d="M2505.695,2182.906C2481.342,2220.967 2457.036,2259.027 2432.682,2297.088C2441.585,2238.913 2450.441,2180.739 2459.344,2122.564C2459.815,2119.55 2455.199,2118.655 2454.727,2121.669C2443.564,2194.823 2432.353,2268.024 2421.189,2341.179C2402.253,2312.633 2383.363,2284.087 2364.427,2255.542C2362.731,2252.998 2358.869,2255.683 2360.565,2258.227C2380.349,2288.044 2400.086,2317.861 2419.87,2347.679C2419.964,2347.821 2420.058,2347.867 2420.2,2348.009C2415.677,2377.639 2411.155,2407.267 2406.633,2436.849C2406.162,2439.863 2410.779,2440.759 2411.25,2437.743C2417.891,2394.219 2424.533,2350.741 2431.175,2307.216C2431.646,2307.027 2432.07,2306.745 2432.4,2306.274C2458.26,2265.858 2484.121,2225.394 2509.982,2184.978C2511.583,2182.435 2507.344,2180.362 2505.695,2182.906Z" fill="#FFFFFF"/>
<path d="M2645.832,2230.954L2596.702,2322.055C2593.781,2296.854 2590.814,2271.7 2587.893,2246.499C2587.563,2243.484 2582.853,2243.814 2583.183,2246.876C2586.292,2273.679 2589.448,2300.434 2592.557,2327.237C2592.604,2327.802 2592.886,2328.226 2593.216,2328.556L2552.659,2403.782C2552.376,2403.971 2552.046,2404.206 2551.764,2404.395C2550.774,2405.101 2550.633,2406.091 2550.916,2406.986C2545.404,2417.254 2539.846,2427.476 2534.335,2437.745C2532.875,2440.429 2537.114,2442.455 2538.574,2439.817L2556.286,2407.033C2582.759,2388.52 2609.232,2370.008 2635.705,2351.496C2638.201,2349.753 2635.516,2345.89 2633.02,2347.633C2609.09,2364.356 2585.161,2381.078 2561.232,2397.8C2590.861,2342.876 2620.443,2287.951 2650.072,2233.074C2651.485,2230.342 2647.245,2228.269 2645.832,2230.954Z" fill="#FFFFFF"/>
<path d="M2723.697,2370.196C2707.351,2377.592 2691.006,2384.987 2674.613,2392.383C2685.777,2379.994 2696.894,2367.605 2708.058,2355.17C2710.083,2352.909 2706.503,2349.847 2704.478,2352.108C2697.035,2360.351 2689.64,2368.642 2682.197,2376.885C2683.657,2366.381 2685.118,2355.876 2686.625,2345.372C2687.049,2342.357 2682.433,2341.462 2682.009,2344.477C2680.407,2356.018 2678.758,2367.558 2677.157,2379.099C2677.015,2380.135 2677.487,2380.936 2678.193,2381.36C2673.388,2386.73 2668.537,2392.053 2663.732,2397.423C2663.543,2397.564 2663.402,2397.753 2663.261,2397.941C2652.285,2410.141 2641.357,2422.341 2630.382,2434.542C2628.356,2436.803 2631.936,2439.864 2633.962,2437.603C2644.937,2425.403 2655.865,2413.25 2666.841,2401.05C2686.342,2392.241 2705.797,2383.433 2725.298,2374.624C2728.03,2373.399 2726.476,2368.971 2723.697,2370.196Z" fill="#FFFFFF"/>
<path d="M1760.965,2151.346C1760.353,2162.651 1759.741,2173.909 1759.128,2185.214C1758.987,2188.229 1763.65,2187.852 1763.839,2184.838C1764.451,2173.532 1765.063,2162.274 1765.676,2150.969C1765.817,2147.954 1761.154,2148.331 1760.965,2151.346Z" fill="#00ACA1"/>
<path d="M1764.733,2204.338C1764.404,2201.324 1759.693,2201.653 1760.023,2204.715C1761.719,2219.129 1763.414,2233.496 1765.11,2247.91C1765.44,2250.925 1770.15,2250.595 1769.821,2247.533C1768.125,2233.166 1766.429,2218.752 1764.733,2204.338Z" fill="#00ACA1"/>
<path d="M1777.498,2180.6C1777.451,2177.585 1772.741,2177.915 1772.788,2180.977C1773.023,2194.543 1773.259,2208.062 1773.542,2221.628C1773.589,2224.643 1778.299,2224.313 1778.252,2221.252C1777.969,2207.732 1777.734,2194.166 1777.498,2180.6Z" fill="#00ACA1"/>
<path d="M1626.764,2214.845C1617.107,2231.331 1617.201,2250.739 1626.622,2267.32C1628.13,2269.957 1631.992,2267.272 1630.485,2264.635C1621.865,2249.514 1622.242,2231.85 1631.003,2216.917C1632.511,2214.279 1628.271,2212.207 1626.764,2214.845Z" fill="#00ACA1"/>
<path d="M1644.569,2303.635L1635.242,2281.637C1634.065,2278.858 1629.637,2280.412 1630.815,2283.239C1633.923,2290.587 1637.032,2297.935 1640.141,2305.237C1641.319,2308.016 1645.794,2306.414 1644.569,2303.635Z" fill="#00ACA1"/>
<path d="M1646.076,2279.99C1643.25,2272.359 1640.423,2264.728 1637.644,2257.097C1636.608,2254.27 1632.133,2255.825 1633.216,2258.698C1636.043,2266.329 1638.869,2273.96 1641.648,2281.591C1642.731,2284.418 1647.159,2282.863 1646.076,2279.99Z" fill="#00ACA1"/>
<path d="M1720.313,2239.713C1711.316,2233.448 1702.366,2227.136 1693.369,2220.871C1690.92,2219.129 1687.811,2222.709 1690.307,2224.451L1717.251,2243.293C1719.701,2244.989 1722.81,2241.409 1720.313,2239.713Z" fill="#00ACA1"/>
<path d="M1710.092,2249.937C1704.016,2245.273 1697.892,2240.61 1691.816,2235.946C1689.413,2234.109 1686.351,2237.689 1688.754,2239.526C1694.83,2244.19 1700.954,2248.853 1707.031,2253.516C1709.433,2255.354 1712.495,2251.774 1710.092,2249.937Z" fill="#00ACA1"/>
<path d="M1605.566,2340.99C1591.764,2338.964 1577.916,2338.258 1564.02,2339.483C1556.671,2340.142 1541.409,2339.907 1537.405,2348.056C1529.68,2363.695 1566.422,2379.805 1576.173,2384.421C1578.905,2385.74 1580.977,2381.5 1578.245,2380.181C1570.19,2376.366 1562.465,2372.079 1555.164,2366.898C1552.338,2364.872 1549.417,2362.894 1546.826,2360.539C1542.21,2358.277 1541.551,2355.31 1544.942,2351.589C1545.46,2346.595 1548.381,2344.523 1553.704,2345.465C1570.614,2342.733 1587.808,2343.157 1604.718,2345.653C1607.639,2346.077 1608.581,2341.414 1605.566,2340.99Z" fill="#00ACA1"/>
<path d="M1601.044,2400.533C1595.674,2398.272 1590.304,2396.011 1584.981,2393.75C1582.202,2392.572 1580.129,2396.811 1582.908,2397.989C1588.278,2400.25 1593.648,2402.511 1598.971,2404.772C1601.797,2405.95 1603.87,2401.71 1601.044,2400.533Z" fill="#00ACA1"/>
<path d="M1603.494,2384.61C1596.146,2380.936 1588.797,2377.262 1581.496,2373.588C1578.764,2372.222 1576.738,2376.461 1579.423,2377.827C1586.772,2381.502 1594.12,2385.176 1601.421,2388.85C1604.153,2390.216 1606.226,2385.977 1603.494,2384.61Z" fill="#00ACA1"/>
<path d="M1648.949,2420.455L1542.209,2425.778C1539.195,2425.919 1539.524,2430.63 1542.586,2430.489L1649.326,2425.166C1652.341,2424.977 1651.964,2420.314 1648.949,2420.455Z" fill="#00ACA1"/>
<path d="M1699.776,2418.903C1687.906,2419.704 1676.036,2420.457 1664.212,2421.258C1661.198,2421.447 1661.527,2426.157 1664.589,2425.969C1676.46,2425.168 1688.33,2424.414 1700.153,2423.613C1703.121,2423.425 1702.791,2418.715 1699.776,2418.903Z" fill="#00ACA1"/>
<path d="M1676.931,2409.151C1666.473,2409.527 1656.063,2409.951 1645.606,2410.328C1642.591,2410.422 1642.921,2415.133 1645.983,2415.039C1656.44,2414.662 1666.85,2414.238 1677.307,2413.861C1680.322,2413.72 1679.945,2409.009 1676.931,2409.151Z" fill="#00ACA1"/>
<path d="M1812.733,2207.779C1812.357,2204.764 1807.646,2205.141 1808.023,2208.156C1810.001,2223.418 1812.027,2238.632 1814.005,2253.894C1814.382,2256.909 1819.093,2256.532 1818.716,2253.518C1816.69,2238.255 1814.712,2223.041 1812.733,2207.779Z" fill="#00ACA1"/>
<path d="M1822.814,2271.934C1822.437,2268.919 1817.774,2269.249 1818.104,2272.311C1822.531,2309.335 1826.959,2346.36 1831.387,2383.384C1831.764,2386.399 1836.427,2386.069 1836.098,2383.007L1822.814,2271.934Z" fill="#00ACA1"/>
<path d="M1806.374,2243.153C1805.809,2240.232 1801.098,2240.515 1801.664,2243.529C1804.678,2258.791 1807.646,2274.053 1810.661,2289.315C1811.226,2292.236 1815.936,2291.953 1815.371,2288.939L1806.374,2243.153Z" fill="#00ACA1"/>
<path d="M1747.777,2391.911C1740.381,2379.9 1733.033,2367.888 1725.637,2355.876C1724.036,2353.285 1720.173,2355.97 1721.775,2358.561C1729.17,2370.573 1736.519,2382.585 1743.914,2394.596C1745.469,2397.187 1749.378,2394.502 1747.777,2391.911Z" fill="#00ACA1"/>
<path d="M1761.672,2418.713C1758.893,2413.06 1756.161,2407.361 1753.381,2401.708C1752.062,2399.023 1747.635,2400.577 1748.954,2403.31C1751.733,2408.962 1754.465,2414.662 1757.244,2420.314C1758.516,2422.999 1762.991,2421.445 1761.672,2418.713Z" fill="#00ACA1"/>
<path d="M1770.386,2401.19C1765.817,2390.779 1761.248,2380.369 1756.679,2369.912C1755.454,2367.133 1751.026,2368.734 1752.251,2371.514C1756.82,2381.924 1761.389,2392.334 1765.959,2402.791C1767.183,2405.523 1771.611,2403.969 1770.386,2401.19Z" fill="#00ACA1"/>
<path d="M1813.11,2072.823C1795.823,2081.113 1782.21,2094.632 1774.06,2112.061C1772.789,2114.793 1777.028,2116.866 1778.3,2114.134C1785.884,2097.929 1798.555,2085.023 1814.712,2077.298C1817.397,2075.931 1815.843,2071.504 1813.11,2072.823Z" fill="#00ACA1"/>
<path d="M1812.074,2088.225C1804.019,2095.998 1796.012,2103.77 1787.957,2111.542C1785.79,2113.662 1789.37,2116.724 1791.537,2114.604C1799.592,2106.832 1807.599,2099.059 1815.654,2091.287C1817.821,2089.167 1814.241,2086.106 1812.074,2088.225Z" fill="#00ACA1"/>
<path d="M2591.143,2223.511C2581.298,2234.251 2571.453,2245.038 2561.608,2255.778C2559.536,2258.039 2563.115,2261.1 2565.188,2258.839C2575.033,2248.099 2584.878,2237.312 2594.723,2226.572C2596.795,2224.359 2593.216,2221.25 2591.143,2223.511Z" fill="#00ACA1"/>
<path d="M2637.919,2200.428C2629.157,2204.903 2620.348,2209.378 2611.587,2213.806C2608.902,2215.172 2610.456,2219.6 2613.188,2218.234C2621.95,2213.759 2630.759,2209.284 2639.52,2204.856C2642.205,2203.537 2640.651,2199.062 2637.919,2200.428Z" fill="#00ACA1"/>
<path d="M2617.946,2220.355C2610.032,2224.83 2602.072,2229.258 2594.158,2233.733C2591.52,2235.241 2594.205,2239.103 2596.843,2237.596C2604.757,2233.121 2612.717,2228.693 2620.631,2224.218C2623.269,2222.711 2620.584,2218.848 2617.946,2220.355Z" fill="#00ACA1"/>
<path d="M2676.262,2243.719C2673.86,2260.018 2668.678,2275.233 2660.623,2289.6C2659.116,2292.238 2663.402,2294.31 2664.863,2291.672C2673.106,2276.976 2678.429,2261.337 2680.925,2244.661C2681.302,2241.6 2676.686,2240.705 2676.262,2243.719Z" fill="#00ACA1"/>
<path d="M2647.81,2309.477C2644.654,2315.366 2641.545,2321.301 2638.389,2327.189C2636.976,2329.874 2641.215,2331.946 2642.628,2329.261C2645.784,2323.373 2648.893,2317.438 2652.049,2311.55C2653.51,2308.865 2649.27,2306.792 2647.81,2309.477Z" fill="#00ACA1"/>
<path d="M2653.746,2272.123C2649.177,2283.099 2644.608,2294.074 2639.992,2305.097C2638.814,2307.876 2643.053,2309.949 2644.231,2307.169C2648.8,2296.194 2653.369,2285.218 2657.986,2274.196C2659.116,2271.37 2654.924,2269.297 2653.746,2272.123Z" fill="#00ACA1"/>
<path d="M2733.776,2334.018C2723.036,2335.478 2712.344,2336.939 2701.604,2338.399C2698.636,2338.823 2698.966,2343.486 2701.981,2343.109C2712.721,2341.649 2723.413,2340.189 2734.153,2338.729C2737.121,2338.305 2736.791,2333.594 2733.776,2334.018Z" fill="#00ACA1"/>
<path d="M2770.001,2336.469C2763.783,2335.951 2757.565,2335.48 2751.347,2334.962C2748.332,2334.726 2747.437,2339.343 2750.452,2339.578C2756.67,2340.096 2762.888,2340.567 2769.106,2341.086C2772.073,2341.321 2773.015,2336.705 2770.001,2336.469Z" fill="#00ACA1"/>
<path d="M2753.278,2346.784C2745.647,2346.878 2738.016,2346.972 2730.432,2347.066C2727.417,2347.113 2727.747,2351.777 2730.809,2351.777C2738.44,2351.682 2746.071,2351.588 2753.655,2351.494C2756.669,2351.447 2756.293,2346.736 2753.278,2346.784Z" fill="#00ACA1"/>
<path d="M2710.931,2420.927C2695.952,2421.445 2681.02,2421.916 2666.04,2422.435C2663.026,2422.529 2663.355,2427.239 2666.417,2427.145L2711.308,2425.638C2714.323,2425.496 2713.946,2420.833 2710.931,2420.927Z" fill="#00ACA1"/>
<path d="M2775.276,2420.174C2760.014,2420.268 2744.799,2420.316 2729.537,2420.41C2726.523,2420.41 2726.852,2425.12 2729.914,2425.12C2745.176,2425.026 2760.391,2424.979 2775.653,2424.885C2778.668,2424.838 2778.291,2420.127 2775.276,2420.174Z" fill="#00ACA1"/>
<path d="M2734.625,2411.932C2724.45,2412.497 2714.323,2413.062 2704.148,2413.628C2701.134,2413.816 2701.463,2418.479 2704.525,2418.338C2714.7,2417.773 2724.827,2417.208 2735.002,2416.642C2738.017,2416.501 2737.687,2411.791 2734.625,2411.932Z" fill="#00ACA1"/>
<path d="M2590.296,2395.727L2562.457,2410.753C2559.772,2412.166 2562.504,2416.076 2565.142,2414.616L2592.981,2399.589C2595.666,2398.176 2592.981,2394.314 2590.296,2395.727Z" fill="#00ACA1"/>
<path d="M2633.773,2365.013C2622.892,2372.315 2611.963,2379.616 2601.082,2386.917C2598.586,2388.613 2601.223,2392.476 2603.767,2390.78C2614.648,2383.478 2625.577,2376.177 2636.458,2368.876C2638.954,2367.227 2636.269,2363.317 2633.773,2365.013Z" fill="#00ACA1"/>
<path d="M2619.453,2392.665C2608.336,2398.6 2597.173,2404.583 2586.056,2410.518C2583.371,2411.931 2586.103,2415.794 2588.741,2414.381C2599.858,2408.445 2611.021,2402.463 2622.138,2396.528C2624.823,2395.115 2622.138,2391.252 2619.453,2392.665Z" fill="#00ACA1"/>
<path d="M1930.543,2187.382C1923.194,2172.685 1915.846,2158.036 1908.498,2143.339C1907.179,2140.654 1902.704,2142.208 1904.07,2144.94C1911.418,2159.637 1918.767,2174.287 1926.115,2188.984C1927.434,2191.622 1931.909,2190.067 1930.543,2187.382Z" fill="#00ACA1"/>
<path d="M1949.15,2236.465C1945.476,2225.725 1941.802,2215.032 1938.128,2204.292C1937.138,2201.419 1932.711,2203.02 1933.7,2205.894C1937.374,2216.634 1941.048,2227.327 1944.722,2238.067C1945.712,2240.94 1950.139,2239.338 1949.15,2236.465Z" fill="#00ACA1"/>
<path d="M1930.355,2213.525C1927.152,2205.611 1923.949,2197.697 1920.746,2189.737C1919.615,2186.957 1915.187,2188.512 1916.318,2191.338C1919.521,2199.252 1922.724,2207.165 1925.927,2215.126C1927.058,2217.905 1931.486,2216.351 1930.355,2213.525Z" fill="#00ACA1"/>
<path d="M2029.888,2215.833C2026.073,2218.094 2022.257,2220.355 2018.442,2222.616C2015.851,2224.171 2018.536,2228.034 2021.127,2226.479C2024.942,2224.218 2028.758,2221.957 2032.573,2219.696C2035.164,2218.189 2032.479,2214.279 2029.888,2215.833Z" fill="#00ACA1"/>
<path d="M2008.266,2231.895C1998.704,2242.164 1990.837,2253.658 1984.714,2266.329C1983.395,2269.061 1987.634,2271.134 1988.953,2268.402C1994.935,2256.108 2002.566,2244.991 2011.846,2235.004C2013.919,2232.743 2010.339,2229.682 2008.266,2231.895Z" fill="#00ACA1"/>
<path d="M2031.301,2226.619C2022.492,2230.576 2014.861,2236.276 2008.69,2243.765C2006.759,2246.121 2010.339,2249.182 2012.27,2246.827C2017.923,2239.997 2024.848,2234.674 2032.903,2231.047C2035.635,2229.822 2034.08,2225.395 2031.301,2226.619Z" fill="#00ACA1"/>
<path d="M2062.391,2281.874C2061.872,2294.31 2061.307,2306.699 2060.742,2319.134C2060.601,2322.149 2065.311,2321.772 2065.452,2318.757C2066.018,2306.322 2066.536,2293.933 2067.101,2281.497C2067.195,2278.53 2062.532,2278.907 2062.391,2281.874Z" fill="#00ACA1"/>
<path d="M2060.176,2339.484C2060.035,2347.539 2059.894,2355.594 2059.752,2363.601C2059.705,2366.616 2064.416,2366.239 2064.463,2363.225C2064.604,2355.17 2064.745,2347.115 2064.887,2339.107C2064.934,2336.092 2060.223,2336.469 2060.176,2339.484Z" fill="#00ACA1"/>
<path d="M2055.983,2320.499C2055.983,2317.485 2051.273,2317.814 2051.273,2320.876C2051.273,2327.801 2051.273,2334.725 2051.273,2341.602C2051.273,2344.617 2055.983,2344.287 2055.983,2341.226C2055.983,2334.348 2055.983,2327.424 2055.983,2320.499Z" fill="#00ACA1"/>
<path d="M1999.128,2349.093C1992.25,2362.753 1985.373,2376.413 1978.496,2390.074C1977.13,2392.806 1981.369,2394.832 1982.735,2392.147C1989.612,2378.486 1996.49,2364.826 2003.367,2351.165C2004.733,2348.48 2000.494,2346.408 1999.128,2349.093Z" fill="#00ACA1"/>
<path d="M1971.902,2404.253C1968.416,2412.214 1964.93,2420.127 1961.444,2428.088C1960.22,2430.867 1964.459,2432.94 1965.684,2430.161C1969.17,2422.2 1972.655,2414.286 1976.141,2406.326C1977.366,2403.546 1973.126,2401.474 1971.902,2404.253Z" fill="#00ACA1"/>
<path d="M1975.011,2374.481C1969.17,2386.729 1963.329,2399.023 1957.441,2411.27C1956.122,2414.002 1960.361,2416.075 1961.68,2413.343C1967.521,2401.096 1973.362,2388.801 1979.25,2376.554C1980.522,2373.822 1976.283,2371.749 1975.011,2374.481Z" fill="#00ACA1"/>
<path d="M1918.484,2314.893L1890.834,2326.293C1888.055,2327.423 1889.609,2331.898 1892.435,2330.72C1901.668,2326.905 1910.853,2323.136 1920.086,2319.321C1922.865,2318.19 1921.264,2313.763 1918.484,2314.893Z" fill="#00ACA1"/>
<path d="M1957.44,2298.172C1947.83,2302.129 1938.174,2306.038 1928.565,2309.995C1925.785,2311.126 1927.34,2315.601 1930.166,2314.423C1939.776,2310.466 1949.432,2306.557 1959.041,2302.6C1961.821,2301.422 1960.266,2296.994 1957.44,2298.172Z" fill="#00ACA1"/>
<path d="M1940.624,2315.93C1931.91,2318.379 1923.478,2321.535 1915.282,2325.398C1912.55,2326.67 1914.104,2331.145 1916.883,2329.826C1925.08,2325.963 1933.464,2322.807 1942.226,2320.358C1945.146,2319.557 1943.545,2315.082 1940.624,2315.93Z" fill="#00ACA1"/>
<path d="M1877.173,2291.295C1872.321,2301.894 1867.423,2312.446 1862.571,2323.044C1861.299,2325.823 1865.538,2327.849 1866.81,2325.117C1871.662,2314.518 1876.561,2303.967 1881.413,2293.368C1882.684,2290.589 1878.445,2288.563 1877.173,2291.295Z" fill="#00ACA1"/>
<path d="M1893.612,2250.644C1890.221,2257.616 1886.829,2264.634 1883.438,2271.606C1882.119,2274.338 1886.358,2276.411 1887.677,2273.678C1891.069,2266.707 1894.46,2259.688 1897.852,2252.717C1899.171,2249.938 1894.931,2247.912 1893.612,2250.644Z" fill="#00ACA1"/>
<path d="M1875.194,2263.975C1873.074,2269.062 1870.955,2274.15 1868.835,2279.237C1867.657,2282.016 1871.897,2284.089 1873.074,2281.31C1875.194,2276.222 1877.314,2271.135 1879.434,2266.048C1880.611,2263.221 1876.372,2261.149 1875.194,2263.975Z" fill="#00ACA1"/>
<path d="M2400.839,2355.358C2398.955,2366.38 2397.023,2377.356 2395.139,2388.378C2394.621,2391.346 2399.237,2392.288 2399.755,2389.273L2405.455,2356.253C2405.973,2353.285 2401.357,2352.343 2400.839,2355.358Z" fill="#00ACA1"/>
<path d="M2389.581,2411.27L2385.247,2429.076C2384.541,2432.043 2389.157,2432.938 2389.863,2429.971C2391.324,2424.036 2392.737,2418.1 2394.197,2412.165C2394.951,2409.245 2390.287,2408.35 2389.581,2411.27Z" fill="#00ACA1"/>
<path d="M2379.925,2383.289C2379.077,2389.224 2378.229,2395.159 2377.381,2401.095C2376.958,2404.109 2381.574,2405.004 2381.998,2401.99C2382.846,2396.054 2383.694,2390.119 2384.541,2384.184C2384.965,2381.216 2380.349,2380.321 2379.925,2383.289Z" fill="#00ACA1"/>
<path d="M2405.69,2111.542C2373.989,2150.78 2352.839,2197.132 2344.077,2246.827C2343.559,2249.795 2348.175,2250.737 2348.693,2247.722C2357.314,2198.78 2377.993,2153.23 2409.223,2114.604C2411.202,2112.248 2407.622,2109.187 2405.69,2111.542Z" fill="#00ACA1"/>
<path d="M2443.892,2082.809C2435.649,2088.932 2427.359,2095.103 2419.115,2101.227C2416.666,2103.017 2419.351,2106.926 2421.8,2105.089C2430.044,2098.966 2438.334,2092.795 2446.577,2086.671C2448.98,2084.881 2446.295,2080.971 2443.892,2082.809Z" fill="#00ACA1"/>
<path d="M2430.657,2104.053C2425.146,2109.329 2419.634,2114.652 2414.123,2119.928C2411.956,2122.048 2415.536,2125.062 2417.703,2122.99C2423.214,2117.714 2428.726,2112.391 2434.237,2107.115C2436.404,2104.996 2432.824,2101.934 2430.657,2104.053Z" fill="#00ACA1"/>
<path d="M2435.179,2162.935C2432.447,2178.809 2429.714,2194.684 2426.982,2210.605C2426.464,2213.573 2431.08,2214.515 2431.599,2211.5L2439.795,2163.83C2440.313,2160.815 2435.697,2159.92 2435.179,2162.935Z" fill="#00ACA1"/>
<path d="M2420.812,2232.177C2418.127,2247.627 2415.442,2263.125 2412.709,2278.575C2412.191,2281.543 2416.808,2282.485 2417.326,2279.47C2420.011,2264.02 2422.696,2248.522 2425.428,2233.072C2425.946,2230.104 2421.33,2229.209 2420.812,2232.177Z" fill="#00ACA1"/>
<path d="M2416.807,2199.77C2415.112,2212.912 2413.416,2226.007 2411.72,2239.15C2411.343,2242.164 2415.96,2243.059 2416.336,2240.045C2418.032,2226.902 2419.728,2213.807 2421.424,2200.665C2421.848,2197.65 2417.184,2196.755 2416.807,2199.77Z" fill="#00ACA1"/>
<path d="M2475.5,2251.302C2469.141,2261.43 2462.734,2271.605 2456.375,2281.732C2454.774,2284.323 2459.013,2286.348 2460.615,2283.805C2466.974,2273.677 2473.38,2263.502 2479.739,2253.375C2481.341,2250.831 2477.101,2248.759 2475.5,2251.302Z" fill="#00ACA1"/>
<path d="M2509.652,2199.064C2500.984,2211.594 2492.364,2224.077 2483.697,2236.607C2482.001,2239.056 2485.534,2242.165 2487.277,2239.669C2495.944,2227.139 2504.564,2214.656 2513.232,2202.126C2514.974,2199.677 2511.395,2196.568 2509.652,2199.064Z" fill="#00ACA1"/>
<path d="M2494.437,2239.197L2478.562,2265.246C2476.961,2267.837 2481.247,2269.862 2482.802,2267.318C2488.078,2258.651 2493.401,2249.937 2498.676,2241.269C2500.231,2238.632 2495.991,2236.606 2494.437,2239.197Z" fill="#00ACA1"/>
<path d="M2533.628,2127.039C2532.733,2124.165 2528.305,2125.72 2529.2,2128.64C2533.816,2143.573 2536.124,2158.74 2536.218,2174.379C2536.218,2177.394 2540.929,2177.064 2540.929,2174.002C2540.835,2157.94 2538.385,2142.348 2533.628,2127.039Z" fill="#00ACA1"/>
<path d="M2536.408,2195.341C2534.712,2209.096 2533.016,2222.85 2531.32,2236.605C2530.943,2239.62 2535.56,2240.515 2535.937,2237.5C2537.632,2223.745 2539.328,2209.991 2541.024,2196.236C2541.401,2193.268 2536.784,2192.326 2536.408,2195.341Z" fill="#00ACA1"/>
<path d="M2530.566,2166.985C2530.519,2163.97 2525.809,2164.3 2525.856,2167.362C2525.997,2178.996 2526.186,2190.631 2526.327,2202.313C2526.374,2205.328 2531.084,2204.998 2531.037,2201.937C2530.849,2190.302 2530.708,2178.667 2530.566,2166.985Z" fill="#00ACA1"/>
<path d="M2430.515,2398.033C2427.735,2407.549 2424.956,2417.064 2422.13,2426.579C2421.282,2429.5 2425.898,2430.395 2426.746,2427.474C2429.525,2417.959 2432.304,2408.444 2435.131,2398.928C2435.979,2396.008 2431.362,2395.16 2430.515,2398.033Z" fill="#00ACA1"/>
<path d="M2443.47,2338.212C2440.502,2349.846 2437.534,2361.481 2434.567,2373.163C2433.813,2376.131 2438.429,2376.979 2439.183,2374.058C2442.151,2362.424 2445.118,2350.788 2448.086,2339.106C2448.84,2336.186 2444.223,2335.291 2443.47,2338.212Z" fill="#00ACA1"/>
<path d="M2447.022,2384.497C3798.482,2384.497 4894.082,2383.442 4894.082,2382.142C4894.082,2380.841 3798.482,2379.786 2447.022,2379.786C1095.546,2379.786 -0.038,2380.841 -0.038,2382.142C-0.038,2383.442 1095.546,2384.497 2447.022,2384.497Z" transform="rotate(-153.501 2447.017 2382.142)" fill="#00ACA1"/>
<path d="M2554.543,2354.979C2543.851,2376.93 2533.158,2398.928 2522.512,2420.879C2521.193,2423.611 2525.433,2425.684 2526.751,2422.952C2537.444,2401.001 2548.137,2379.003 2558.783,2357.052C2560.102,2354.32 2555.862,2352.247 2554.543,2354.979Z" fill="#00ACA1"/>
<path d="M2575.127,2317.956C2572.395,2322.619 2569.616,2327.282 2566.884,2331.946C2565.329,2334.584 2569.569,2336.609 2571.123,2334.018C2573.855,2329.355 2576.635,2324.692 2579.367,2320.028C2580.874,2317.39 2576.635,2315.365 2575.127,2317.956Z" fill="#00ACA1"/>
<path d="M2554.024,2329.968C2549.832,2338.447 2545.64,2346.925 2541.447,2355.451C2540.081,2358.184 2544.321,2360.256 2545.687,2357.524C2549.879,2349.045 2554.071,2340.566 2558.264,2332.04C2559.583,2329.308 2555.343,2327.236 2554.024,2329.968Z" fill="#00ACA1"/>
<path d="M1501.135,2438.263L2807.309,2438.027C2807.309,2438.027 2716.301,2493.564 2140.349,2493.564C1564.397,2493.564 1501.135,2438.263 1501.135,2438.263Z" fill="#E0FFF9"/>
<path d="M2362.165,2018.603C2347.045,2018.886 2335.551,2001.174 2338.896,1986.242C2342.334,1970.98 2356.984,1960.24 2372.246,1956.66C2387.508,1953.127 2403.429,1955.341 2418.927,1957.555C2408.328,1937.818 2397.447,1917.139 2396.505,1894.717C2395.563,1872.295 2407.716,1847.612 2429.431,1841.865C2446.813,1837.202 2465.561,1845.963 2477.761,1859.2C2490.008,1872.436 2496.98,1889.535 2503.669,1906.211C2506.165,1890.43 2508.709,1874.462 2514.88,1859.718C2521.003,1844.927 2531.178,1831.267 2545.451,1824.107C2573.149,1810.164 2609.419,1826.132 2624.351,1853.312C2639.283,1880.491 2635.987,1914.737 2623.173,1942.999C2633.301,1919.73 2661.517,1905.975 2686.059,1912.334C2710.647,1918.74 2728.595,1944.46 2726.099,1969.755C2723.601,1995.003 2700.945,2018.65 2675.601,2020.111L2362.212,2020.111L2362.165,2018.603Z" fill="#B2FFF0"/>
<path d="M1735.622,1856.563C1728.321,1856.846 1720.831,1856.987 1714.048,1854.302C1706.935,1851.476 1700.765,1844.74 1701.141,1837.109C1701.612,1828.536 1709.667,1822.459 1717.44,1818.738C1735.434,1810.118 1756.207,1807.339 1775.85,1811.013C1764.639,1801.922 1754.276,1791.088 1748.67,1777.804C1743.065,1764.52 1742.829,1748.269 1750.884,1736.257C1757.762,1725.988 1769.82,1720.006 1782.068,1718.31C1794.315,1716.662 1806.798,1718.829 1818.715,1722.126C1844.105,1729.239 1867.987,1741.58 1888.478,1758.161C1875.053,1737.247 1877.361,1707.476 1893.848,1688.823C1910.335,1670.216 1939.587,1664.328 1962.009,1675.115C1984.431,1685.902 1998.043,1712.469 1993.757,1737.011C2016.179,1712.234 2039.637,1686.797 2070.491,1674.079C2080.477,1669.981 2091.829,1667.296 2102.051,1670.781C2112.981,1674.456 2120.611,1684.583 2124.851,1695.323C2136.015,1723.822 2124.663,1759.386 2099.085,1776.155C2117.785,1769.325 2138.275,1765.557 2157.635,1770.079C2177.043,1774.601 2194.989,1788.827 2199.747,1808.14C2204.505,1827.453 2192.541,1850.581 2172.991,1854.302L2172.945,1859.06L1735.622,1856.563Z" fill="#B2FFF0"/>
<path d="M2637.164,1946.25C2612.481,1938.572 2587.091,1957.508 2571.028,1978.329C2575.786,1962.219 2578.235,1945.497 2577.859,1928.539C2577.529,1915.114 2575.88,1889.301 2557.085,1889.206C2540.128,1889.112 2531.131,1911.628 2526.797,1924.676C2523.076,1935.934 2521.286,1947.522 2521.191,1959.11C2517.423,1950.82 2512.571,1943.047 2506.589,1935.982C2496.367,1923.97 2479.362,1910.451 2462.781,1918.223C2450.44,1924.017 2445.729,1939.232 2447.519,1951.95C2448.414,1958.121 2450.769,1963.679 2454.067,1968.719C2442.715,1964.48 2431.033,1965.281 2422.224,1977.858C2410.73,1994.203 2430.891,2014.27 2447.425,2004.095C2450.016,2002.494 2447.331,1998.631 2444.74,2000.233C2435.272,2006.074 2421.612,1997.359 2423.59,1986.148C2425.333,1976.35 2436.685,1971.546 2445.447,1971.546C2450.204,1971.546 2454.585,1972.818 2458.683,1974.843C2465.56,1982.898 2474.463,1989.587 2482.518,1995.569C2485.015,1997.406 2487.606,1994.203 2485.58,1991.989C2480.116,1986.007 2472.296,1978.753 2463.723,1973.524C2459.531,1968.908 2456.045,1963.821 2453.878,1957.932C2449.121,1944.931 2452.795,1924.865 2468.387,1921.379C2485.674,1917.516 2500.748,1934.615 2509.415,1947.428C2515.256,1956.001 2519.449,1965.375 2522.228,1975.22C2522.981,1980.731 2524.065,1986.148 2525.572,1991.565C2526.279,1994.109 2530.471,1993.214 2530.141,1990.576C2529.435,1985.112 2528.351,1979.742 2526.891,1974.466C2525.29,1962.737 2525.525,1950.82 2527.88,1939.043C2529.482,1930.941 2531.978,1923.028 2535.464,1915.491C2538.856,1908.143 2548.183,1889.772 2559.441,1894.058C2576.634,1900.606 2573.949,1930.612 2572.771,1945.026C2571.264,1963.114 2566.553,1980.59 2559.205,1997.218C2557.98,1999.997 2562.126,2002.023 2563.445,1999.291C2573.761,1977.669 2593.309,1956.99 2617.285,1950.961C2631.746,1947.334 2651.624,1952.28 2647.904,1971.546C2644.7,1988.127 2627.224,1995.004 2613.234,2000.327C2610.408,2001.41 2611.963,2005.838 2614.836,2004.755C2629.58,1999.149 2646.584,1992.131 2651.672,1975.644C2655.44,1963.161 2650.024,1950.254 2637.164,1946.25Z" fill="#B1DDD5"/>
<path d="M2129.891,1802.582C2124.615,1789.11 2107.469,1789.722 2095.693,1790.711C2077.511,1792.266 2059.987,1797.07 2043.407,1804.466C2051.085,1784.964 2059.751,1765.416 2065.735,1745.396C2069.361,1733.243 2065.357,1719.724 2050.143,1721.467C2034.645,1723.257 2019.431,1740.921 2009.491,1751.803C1997.432,1764.992 1987.587,1779.877 1979.626,1795.799C1976.564,1781.761 1971.712,1768.242 1964.694,1755.571C1959.842,1746.856 1951.881,1731.453 1939.398,1733.385C1929.883,1734.845 1926.445,1746.009 1924.089,1753.828C1919.002,1770.55 1916.741,1787.791 1916.741,1805.22C1908.262,1795.657 1898.464,1787.555 1887.112,1781.526C1876.655,1775.967 1857.954,1767.159 1845.989,1771.822C1837.228,1775.261 1835.438,1785.294 1838.829,1793.349C1841.279,1799.237 1845.989,1802.817 1851.501,1805.125C1841.75,1805.643 1832.046,1806.915 1822.814,1810.118C1814.523,1812.992 1803.642,1817.749 1803.171,1827.924C1802.747,1836.497 1809.813,1844.317 1817.585,1847.049C1829.597,1851.241 1842.362,1844.364 1852.631,1838.805C1855.316,1837.392 1852.584,1833.483 1849.946,1834.943C1840.478,1840.03 1827.666,1847.096 1816.973,1841.679C1810.143,1838.193 1808.258,1833.624 1810.519,1826.464C1812.922,1818.786 1814.947,1818.126 1822.578,1815.253C1837.887,1809.412 1854.657,1809.506 1870.767,1809.459C1873.404,1809.459 1873.687,1805.125 1871.049,1804.796C1860.969,1803.524 1846.555,1801.828 1842.739,1790.476C1839.63,1781.149 1850.794,1775.873 1858.378,1776.156C1863.277,1776.344 1869.071,1778.841 1873.499,1780.537C1890.88,1787.131 1905.766,1798.436 1917.306,1812.945C1918.767,1814.782 1921.687,1813.84 1921.593,1811.437C1921.216,1798.248 1922.017,1785.106 1924.513,1772.105C1926.303,1762.825 1927.858,1748.317 1934.735,1741.487C1948.113,1728.297 1962.998,1761.93 1966.013,1768.666C1970.912,1779.689 1974.256,1791.229 1976.329,1803.1C1976.706,1805.267 1979.72,1806.256 1980.804,1803.948C1992.721,1777.993 2010.009,1754.864 2032.195,1736.776C2034.645,1734.751 2037.189,1732.678 2039.827,1730.888C2041.851,1729.71 2043.925,1728.533 2045.951,1727.355C2053.111,1723.54 2057.209,1725.565 2058.339,1733.526C2062.861,1742.334 2061.589,1743.135 2058.481,1751.614C2057.161,1755.241 2055.747,1758.821 2054.335,1762.448C2048.541,1777.616 2042.795,1792.784 2037.001,1807.952C2036.341,1809.647 2037.895,1812.191 2039.921,1811.202C2050.991,1805.832 2062.483,1801.545 2074.449,1798.766C2085.519,1796.175 2113.121,1789.345 2121.553,1799.755C2125.651,1801.781 2126.075,1804.984 2122.825,1809.365C2123.627,1813.793 2122.307,1816.572 2118.821,1817.655C2116.607,1819.304 2113.217,1820.152 2110.673,1820.905C2104.643,1822.648 2098.425,1823.873 2092.301,1825.333C2078.311,1828.678 2064.321,1832.022 2050.331,1835.367C2047.411,1836.073 2049.011,1840.501 2051.933,1839.795C2072.753,1834.801 2095.033,1831.504 2115.195,1824.391C2124.615,1821.188 2134.225,1813.746 2129.891,1802.582Z" fill="#B1DDD5"/>
<path d="M1934.594,2417.771L1934.594,2438.026L1750.837,2438.026L1750.837,2417.771L1767.136,2417.771L1918.296,2417.771L1934.594,2417.771Z" fill="#F47722"/>
<path d="M1903.363,2363.411L1918.296,2417.77L1767.136,2417.77L1780.419,2363.552L1902.845,2363.552L1903.363,2363.411Z" fill="#F79021"/>
<path d="M1889.938,2314.472L1903.363,2363.414L1902.845,2363.555L1780.419,2363.555L1792.384,2314.472L1889.938,2314.472Z" fill="#F9F9F9"/>
<path d="M1867.375,2232.178L1889.939,2314.47L1792.384,2314.47L1812.545,2232.178C1812.545,2232.178 1822.908,2252.574 1842.739,2252.574C1862.571,2252.574 1867.375,2232.178 1867.375,2232.178Z" fill="#F79021"/>
<path d="M1812.545,2232.178L1867.423,2232.178C1867.423,2232.178 1862.524,2252.574 1842.74,2252.574C1822.956,2252.574 1812.545,2232.178 1812.545,2232.178Z" fill="#F47722"/>
<path d="M2255.897,1849.592L2254.013,1848.744C2255.002,1846.389 2255.85,1843.939 2256.556,1841.442C2259.901,1829.666 2259.995,1817.183 2257.498,1805.172L2261.031,1804.512C2284.961,1792.359 2307.948,1778.275 2329.616,1762.589C2329.804,1762.683 2329.993,1762.777 2330.181,1762.871L2323.257,1810.306C2322.739,1810.353 2322.221,1810.447 2321.702,1810.542C2317.322,1811.39 2313.082,1813.933 2311.057,1817.89C2309.078,1821.658 2309.361,1826.086 2310.068,1830.373C2286.562,1838.239 2264.611,1845.635 2255.897,1849.592Z" fill="#00ACA1"/>
<path d="M2296.031,1980.545C2293.911,1961.279 2276.577,1947.336 2257.31,1949.409C2237.997,1951.481 2224.054,1968.816 2226.126,1988.129C2228.246,2007.442 2245.581,2021.385 2264.847,2019.265C2284.161,2017.193 2298.103,1999.858 2296.031,1980.545ZM2243.131,1915.493L2277.849,1911.725C2276.811,1915.493 2276.247,1919.497 2276.247,1923.595C2276.247,1938.386 2283.359,1951.576 2294.383,1959.819L2298.197,1921.334L2320.619,1911.112L2326.649,1966.602L2339.791,2087.85L2238.798,2098.779L2238.798,2097.978L2139.736,2097.978L2139.736,2109.518L2085.094,2115.454L2065.499,1934.759L2147.791,1925.809L2165.267,1923.925L2228.717,1917.048L2243.131,1915.493ZM2151.088,2081.02L2265.365,2068.631C2265.365,2068.631 2256.085,2020.255 2201.443,2026.143C2146.802,2032.078 2151.088,2081.02 2151.088,2081.02ZM2140.49,2033.208C2159.803,2031.089 2173.746,2013.754 2171.673,1994.488C2169.553,1975.175 2152.219,1961.232 2132.906,1963.305C2113.64,1965.424 2099.697,1982.759 2101.769,2002.072C2103.842,2021.338 2121.224,2035.281 2140.49,2033.208Z" fill="#C3D5D8"/>
<path d="M2310.585,1833.2C2310.397,1832.258 2310.255,1831.316 2310.067,1830.374C2313.647,1829.196 2317.227,1827.972 2320.854,1826.794L2317.321,1851.289C2313.317,1846.437 2311.81,1839.512 2310.585,1833.2Z" fill="#F2B481"/>
<path d="M2060.977,2328.274L2060.977,2384.753C2034.316,2377.216 2005.534,2374.531 1979.156,2382.963C1951.976,2391.63 1928,2414.052 1923.289,2442.221L1873.97,2442.221C1874.488,2413.487 1886.641,2385.224 1907.038,2365.016C1917.213,2363.32 1926.445,2356.113 1931.109,2346.692C1947.878,2332.702 1968.416,2323.234 1989.943,2319.654C2013.401,2315.744 2037.943,2318.759 2059.705,2328.274L2060.977,2328.274L2060.977,2328.274Z" fill="#00ACA1"/>
<path d="M2224.242,1880.87C2224.855,1885.91 2225.514,1890.903 2226.174,1895.944L2162.346,1902.821C2161.593,1897.875 2160.839,1892.976 2160.085,1888.03C2131.351,1887.606 2103.936,1868.152 2093.29,1841.396C2082.598,1814.499 2089.004,1781.856 2108.411,1760.329C2127.818,1738.849 2159.049,1729.098 2187.406,1734.845C2215.811,1740.545 2240.494,1761.224 2252.034,1787.791C2254.437,1793.349 2256.321,1799.19 2257.498,1805.172C2259.995,1817.184 2259.901,1829.667 2256.556,1841.443C2255.85,1843.94 2255.002,1846.389 2254.013,1848.745L2253.966,1848.745C2248.219,1862.546 2237.714,1874.464 2224.242,1880.87Z" fill="#F9A138"/>
<path d="M1931.108,2346.69C1926.445,2356.111 1917.212,2363.318 1907.038,2365.014C1904.965,2365.391 1902.845,2365.532 1900.725,2365.344L1900.82,2363.507C1897.711,2358.844 1895.403,2353.615 1893.989,2348.198L1893.33,2346.879C1896.251,2345.419 1899.218,2343.958 1901.668,2341.792C1904.117,2339.625 1906.048,2336.704 1906.331,2333.454C1906.802,2327.377 1901.479,2322.337 1895.921,2319.794C1891.116,2317.627 1885.605,2316.543 1880.423,2317.627C1875.242,2318.71 1870.39,2322.102 1868.27,2326.954C1866.15,2331.852 1867.234,2338.117 1871.379,2341.462L1871.944,2341.886C1867.893,2347.209 1863.842,2352.484 1859.744,2357.76C1846.225,2350.553 1838.924,2333.266 1843.352,2318.569C1847.45,2304.908 1861.204,2294.875 1875.383,2294.687C1875.666,2294.687 1875.901,2294.687 1876.137,2294.687L1876.137,2295.158C1889.609,2296.618 1902.987,2298.973 1916.129,2302.129C1918.013,2302.553 1919.897,2303.024 1921.781,2303.495L1922.394,2302.883C1932.097,2312.775 1936.949,2327.566 1933.369,2340.897C1932.804,2342.875 1932.097,2344.853 1931.108,2346.69Z" fill="#312A5E"/>
<path d="M2243.179,1915.493L2228.765,1917.047L2165.314,1923.925L2147.838,1925.809L2145.577,1904.659L2162.394,1902.822L2226.221,1895.944L2240.918,1894.343L2243.179,1915.493Z" fill="#312A5E"/>
<path d="M2323.257,1810.308L2320.854,1826.794C2317.227,1827.972 2313.647,1829.197 2310.067,1830.374C2309.361,1826.088 2309.078,1821.66 2311.057,1817.892C2313.082,1813.935 2317.321,1811.391 2321.702,1810.543C2322.22,1810.449 2322.739,1810.355 2323.257,1810.308Z" fill="#F2B481"/>
<path d="M2238.186,2408.304L2239.034,2408.304L2293.675,2408.304L2299.14,2408.304L2299.14,2436.755L2299.14,2437.98L2169.601,2437.98L2169.601,2408.304L2238.186,2408.304Z" fill="#312A5E"/>
<path d="M2299.139,2216.963L2299.139,2408.303L2293.675,2408.303L2239.033,2408.303L2238.185,2408.303L2238.185,2245.32L2276.246,2245.32L2276.246,2216.963L2299.139,2216.963Z" fill="#00ACA1"/>
<path d="M2060.977,2384.753L2060.977,2328.273L2060.977,2166.138L2060.977,2125.251L2139.736,2125.251L2238.798,2125.251L2299.139,2125.251L2299.139,2216.964L2276.247,2216.964L2276.247,2158.319L2099.744,2158.319L2099.744,2245.322L2238.185,2245.322L2238.185,2408.305L2169.601,2408.305L2169.601,2437.981L2060.977,2437.981L2060.977,2384.753Z" fill="#C3D5D8"/>
<path d="M2296.03,1980.544C2298.103,1999.857 2284.16,2017.191 2264.847,2019.264C2245.581,2021.384 2228.246,2007.441 2226.127,1988.128C2224.054,1968.815 2237.997,1951.48 2257.31,1949.407C2276.576,1947.335 2293.911,1961.278 2296.03,1980.544Z" fill="#312A5E"/>
<path d="M2276.246,2216.963L2276.246,2245.32L2238.185,2245.32L2238.185,2216.963L2238.609,2216.963L2276.246,2216.963Z" fill="#00ACA1"/>
<path d="M2238.185,2216.964L2238.185,2245.321L2099.744,2245.321L2099.744,2158.318L2276.246,2158.318L2276.246,2216.964L2238.609,2216.964L2238.185,2216.964ZM2215.763,2193.647L2215.763,2173.345L2113.263,2173.345L2113.263,2193.647L2215.763,2193.647ZM2200.171,2222.051C2200.171,2217.247 2196.309,2213.337 2191.504,2213.337C2186.699,2213.337 2182.837,2217.247 2182.837,2222.051C2182.837,2226.809 2186.699,2230.719 2191.504,2230.719C2196.309,2230.719 2200.171,2226.809 2200.171,2222.051ZM2165.832,2222.051C2165.832,2217.247 2161.922,2213.337 2157.165,2213.337C2152.36,2213.337 2148.45,2217.247 2148.45,2222.051C2148.45,2226.809 2152.36,2230.719 2157.165,2230.719C2161.922,2230.719 2165.832,2226.809 2165.832,2222.051ZM2129.561,2222.051C2129.561,2217.247 2125.698,2213.337 2120.894,2213.337C2116.089,2213.337 2112.227,2217.247 2112.227,2222.051C2112.227,2226.809 2116.089,2230.719 2120.894,2230.719C2125.698,2230.719 2129.561,2226.809 2129.561,2222.051Z" fill="#F9F9F9"/>
<path d="M2265.365,2068.63L2151.089,2081.019C2151.089,2081.019 2146.802,2032.077 2201.444,2026.142C2256.086,2020.253 2265.365,2068.63 2265.365,2068.63Z" fill="#00ACA1"/>
<path d="M2238.798,2098.777L2238.798,2125.25L2139.736,2125.25L2139.736,2109.517L2238.798,2098.777Z" fill="#312A5E"/>
<path d="M2238.798,2097.977L2238.798,2098.777L2139.736,2109.517L2139.736,2097.977L2238.798,2097.977Z" fill="#C3D5D8"/>
<path d="M2215.764,2173.345L2113.264,2173.345L2113.264,2193.647L2215.764,2193.647L2215.764,2173.345Z" fill="#312A5E"/>
<path d="M2191.504,2213.338C2196.309,2213.338 2200.172,2217.248 2200.172,2222.052C2200.172,2226.81 2196.309,2230.72 2191.504,2230.72C2186.699,2230.72 2182.837,2226.81 2182.837,2222.052C2182.837,2217.248 2186.699,2213.338 2191.504,2213.338Z" fill="#F47722"/>
<path d="M2171.674,1994.487C2173.747,2013.753 2159.803,2031.088 2140.49,2033.207C2121.224,2035.28 2103.843,2021.337 2101.77,2002.071C2099.697,1982.758 2113.641,1965.423 2132.907,1963.304C2152.22,1961.231 2169.554,1975.174 2171.674,1994.487Z" fill="#312A5E"/>
<path d="M2157.165,2213.338C2161.923,2213.338 2165.832,2217.248 2165.832,2222.052C2165.832,2226.81 2161.923,2230.72 2157.165,2230.72C2152.36,2230.72 2148.451,2226.81 2148.451,2222.052C2148.451,2217.248 2152.36,2213.338 2157.165,2213.338Z" fill="#F47722"/>
<path d="M2120.894,2213.338C2125.699,2213.338 2129.561,2217.248 2129.561,2222.052C2129.561,2226.81 2125.699,2230.72 2120.894,2230.72C2116.089,2230.72 2112.227,2226.81 2112.227,2222.052C2112.227,2217.248 2116.089,2213.338 2120.894,2213.338Z" fill="#F47722"/>
<path d="M1876.138,2294.686C1875.902,2294.686 1875.667,2294.686 1875.384,2294.686L1875.337,2293.462C1881.602,2247.911 1904.589,2204.81 1938.976,2174.286C1972.42,2144.563 2016.275,2126.898 2060.978,2125.108L2060.978,2125.25L2060.978,2166.137C2025.319,2168.586 1990.697,2183.66 1964.601,2208.013C1938.363,2232.555 1920.935,2266.329 1916.13,2301.94L1916.13,2302.129C1902.988,2298.973 1889.61,2296.618 1876.138,2295.157L1876.138,2294.686Z" fill="#00ACA1"/>
<path d="M2054.476,1878.797L2052.356,1923.83L2038.978,1896.132L2018.817,1904.093L2001.718,1871.496L2030.311,1848.509L2034.079,1883.932L2054.476,1878.797Z" fill="#F9A138"/>
<path d="M2047.552,1947.147L2021.974,1958.97L2009.774,1996.936L1982.123,1986.62L1982.123,1955.72L2007.324,1963.727L2011.705,1943.331L2047.552,1947.147Z" fill="#F9A138"/>
<path d="M2179.068,1899.523C2165.314,1871.166 2151.559,1842.762 2137.804,1814.404C2136.485,1811.719 2132.057,1813.274 2133.376,1816.006C2147.131,1844.363 2160.886,1872.767 2174.64,1901.125C2175.959,1903.81 2180.387,1902.255 2179.068,1899.523Z" fill="#F9F9F9"/>
<path d="M2224.243,1812.192C2222.689,1815.489 2220.616,1818.645 2217.696,1820.906C2216.754,1821.66 2215.529,1822.225 2214.21,1822.696C2214.257,1815.63 2214.304,1808.565 2214.304,1801.499C2214.304,1798.484 2209.641,1798.861 2209.594,1801.876C2209.547,1809.177 2209.5,1816.431 2209.452,1823.732C2205.778,1824.109 2201.916,1823.638 2199.372,1822.178C2197.865,1821.33 2196.687,1819.493 2195.698,1817.373C2200.785,1810.826 2203.847,1799.379 2196.404,1796.223C2187.831,1792.549 2187.973,1803.477 2190.045,1812.616C2188.962,1812.804 2187.878,1812.992 2186.795,1813.228C2187.878,1801.593 2184.204,1788.168 2176.997,1780.914C2165.598,1769.42 2162.3,1788.686 2164.279,1797.024C2166.022,1804.325 2171.58,1816.054 2179.541,1820.576C2177.374,1825.24 2173.747,1828.961 2169.272,1829.573C2170.779,1819.823 2168.518,1807.387 2159.003,1806.021C2146.52,1804.278 2149.346,1822.366 2153.963,1828.254C2156.318,1831.222 2159.286,1833.153 2162.395,1834.143C2157.684,1842.81 2147.18,1847.897 2138.277,1837.252C2136.346,1834.943 2132.436,1837.581 2134.414,1839.937C2143.081,1850.3 2158.344,1850.3 2166.163,1838.618C2166.823,1837.628 2167.435,1836.357 2167.953,1834.943C2173.888,1834.802 2179.776,1831.599 2183.121,1825.711C2183.733,1824.627 2184.251,1823.497 2184.675,1822.319C2186.418,1822.555 2188.255,1822.413 2190.187,1821.801C2190.94,1821.566 2191.694,1821.095 2192.448,1820.529C2192.919,1821.66 2193.437,1822.602 2193.861,1823.12C2198.241,1828.678 2203.894,1830.233 2209.405,1829.338C2209.264,1851.713 2209.17,1874.088 2209.029,1896.51C2209.029,1899.524 2213.692,1899.147 2213.739,1896.133C2213.88,1873.428 2213.975,1850.676 2214.116,1827.972C2220.145,1825.428 2225.609,1820.2 2228.436,1814.217C2229.802,1811.485 2225.562,1809.413 2224.243,1812.192ZM2161.217,1827.312C2156.836,1824.298 2151.278,1818.221 2157.92,1815.065C2163.148,1812.569 2163.808,1816.572 2164.75,1821.66C2165.221,1824.062 2165.033,1826.559 2164.467,1828.961C2163.431,1828.584 2162.348,1828.066 2161.217,1827.312ZM2179.541,1814.547C2177.939,1812.804 2176.385,1811.061 2174.783,1809.318C2172.711,1806.445 2171.109,1802.865 2169.931,1799.52C2169.178,1797.354 2166.399,1788.545 2168.236,1786.567C2170.638,1786.472 2173.04,1786.425 2175.396,1786.331C2177.044,1788.592 2178.316,1791.042 2179.164,1793.632C2181.284,1799.473 2182.037,1805.691 2181.755,1811.862C2181.708,1812.616 2181.613,1813.369 2181.519,1814.17C2180.907,1814.311 2180.2,1814.406 2179.541,1814.547Z" fill="#F9F9F9"/>
<path d="M2155.046,2014.555C2149.252,2010.786 2143.458,2007.065 2137.805,2003.108C2133.943,2008.761 2129.986,2014.319 2125.982,2019.878C2123.862,2022.751 2119.34,2019.689 2121.46,2016.816C2125.464,2011.258 2129.42,2005.652 2133.283,1999.999C2128.054,1996.467 2122.826,1992.745 2117.691,1989.024C2114.818,1986.999 2117.88,1982.476 2120.753,1984.549C2125.888,1988.27 2131.116,1991.945 2136.345,1995.525C2139.925,1990.249 2143.458,1984.879 2146.943,1979.509C2148.875,1976.541 2153.35,1979.603 2151.466,1982.571C2147.98,1987.988 2144.447,1993.311 2140.82,1998.633C2146.52,2002.496 2152.313,2006.312 2158.107,2010.08C2161.075,2011.917 2158.013,2016.439 2155.046,2014.555Z" fill="#F9F9F9"/>
<path d="M2276.388,1999.435C2270.594,1995.666 2264.8,1991.945 2259.147,1987.988C2255.285,1993.641 2251.328,1999.199 2247.324,2004.758C2245.204,2007.631 2240.682,2004.569 2242.802,2001.696C2246.806,1996.138 2250.763,1990.532 2254.625,1984.879C2249.397,1981.347 2244.168,1977.625 2239.034,1973.904C2236.16,1971.878 2239.222,1967.356 2242.095,1969.429C2247.23,1973.15 2252.459,1976.824 2257.687,1980.404C2261.267,1975.129 2264.8,1969.759 2268.286,1964.389C2270.217,1961.421 2274.692,1964.483 2272.808,1967.451C2269.322,1972.868 2265.789,1978.19 2262.162,1983.513C2267.862,1987.376 2273.656,1991.192 2279.45,1994.96C2282.417,1996.75 2279.355,2001.272 2276.388,1999.435Z" fill="#F9F9F9"/>
<path d="M2177.325,2076.263C2175.017,2065.24 2172.709,2054.218 2170.401,2043.242C2169.789,2040.322 2165.078,2040.652 2165.691,2043.619C2167.999,2054.642 2170.307,2065.664 2172.615,2076.64C2173.274,2079.56 2177.985,2079.231 2177.325,2076.263Z" fill="#067C70"/>
<path d="M2193.436,2029.158C2193.059,2026.143 2188.349,2026.52 2188.726,2029.534L2194.519,2074.661C2194.896,2077.676 2199.607,2077.299 2199.23,2074.284L2193.436,2029.158Z" fill="#067C70"/>
<path d="M2215.904,2029.532C2215.904,2026.517 2211.194,2026.847 2211.194,2029.908C2211.288,2044.181 2211.382,2058.501 2211.476,2072.774C2211.476,2075.789 2216.187,2075.459 2216.187,2072.397C2216.093,2058.077 2215.999,2043.804 2215.904,2029.532Z" fill="#067C70"/>
<path d="M2235.076,2033.679C2233.051,2045.785 2231.025,2057.938 2229.047,2070.044C2228.529,2073.011 2233.192,2073.953 2233.663,2070.939C2235.689,2058.833 2237.714,2046.68 2239.693,2034.574C2240.211,2031.606 2235.595,2030.711 2235.076,2033.679Z" fill="#067C70"/>
<path d="M2297.632,2240.894C2278.554,2240.423 2259.477,2239.999 2240.399,2239.528C2237.243,2239.434 2237.62,2244.144 2240.776,2244.238C2259.854,2244.709 2278.931,2245.133 2298.009,2245.604C2301.165,2245.699 2300.741,2240.988 2297.632,2240.894Z" fill="#067C70"/>
<path d="M2297.632,2269.769C2278.554,2269.298 2259.477,2268.874 2240.399,2268.403C2237.243,2268.309 2237.62,2273.019 2240.776,2273.113C2259.854,2273.584 2278.931,2274.008 2298.009,2274.479C2301.165,2274.526 2300.741,2269.863 2297.632,2269.769Z" fill="#067C70"/>
<path d="M2297.632,2297.183C2278.554,2296.712 2259.477,2296.288 2240.399,2295.817C2237.243,2295.723 2237.62,2300.433 2240.776,2300.527C2259.854,2300.998 2278.931,2301.422 2298.009,2301.893C2301.165,2301.94 2300.741,2297.277 2297.632,2297.183Z" fill="#067C70"/>
<path d="M2297.632,2326.06C2278.554,2325.589 2259.477,2325.165 2240.399,2324.694C2237.243,2324.6 2237.62,2329.31 2240.776,2329.404C2259.854,2329.875 2278.931,2330.299 2298.009,2330.77C2301.165,2330.817 2300.741,2326.154 2297.632,2326.06Z" fill="#067C70"/>
<path d="M2297.632,2356.395C2278.554,2355.924 2259.477,2355.5 2240.399,2355.029C2237.243,2354.935 2237.62,2359.645 2240.776,2359.739C2259.854,2360.21 2278.931,2360.634 2298.009,2361.105C2301.165,2361.152 2300.741,2356.442 2297.632,2356.395Z" fill="#067C70"/>
<path d="M2297.632,2385.27C2278.554,2384.799 2259.477,2384.375 2240.399,2383.904C2237.243,2383.81 2237.62,2388.52 2240.776,2388.614C2259.854,2389.085 2278.931,2389.509 2298.009,2389.98C2301.165,2390.027 2300.741,2385.317 2297.632,2385.27Z" fill="#067C70"/>
<path d="M2028.569,2136.509C2028.145,2133.541 2023.434,2133.871 2023.858,2136.886C2025.365,2147.579 2026.873,2158.271 2028.38,2168.964C2028.804,2171.932 2033.515,2171.602 2033.091,2168.587C2031.583,2157.895 2030.076,2147.202 2028.569,2136.509Z" fill="#067C70"/>
<path d="M2001.86,2178.949C1996.254,2168.492 1990.601,2157.988 1984.996,2147.53C1983.583,2144.845 1979.673,2147.577 1981.133,2150.215C1986.739,2160.673 1992.391,2171.177 1997.997,2181.634C1999.41,2184.272 2003.273,2181.587 2001.86,2178.949Z" fill="#067C70"/>
<path d="M1976.989,2194.966C1969.546,2184.509 1962.151,2174.004 1954.708,2163.547C1952.965,2161.098 1949.056,2163.736 1950.846,2166.232C1958.288,2176.689 1965.684,2187.194 1973.126,2197.651C1974.869,2200.1 1978.732,2197.463 1976.989,2194.966Z" fill="#067C70"/>
<path d="M1953.294,2214.797C1944.108,2206.742 1934.876,2198.687 1925.69,2190.632C1923.382,2188.654 1920.32,2192.187 1922.629,2194.212C1931.814,2202.267 1941.047,2210.322 1950.232,2218.377C1952.54,2220.355 1955.602,2216.822 1953.294,2214.797Z" fill="#067C70"/>
<path d="M1934.076,2241.034C1923.431,2234.958 1912.738,2228.881 1902.092,2222.804C1899.454,2221.297 1897.429,2225.537 1900.02,2227.044C1910.665,2233.12 1921.358,2239.197 1932.004,2245.274C1934.642,2246.781 1936.667,2242.494 1934.076,2241.034Z" fill="#067C70"/>
<path d="M1919.708,2274.103C1907.838,2270.381 1896.015,2266.66 1884.144,2262.939C1881.271,2262.044 1880.376,2266.66 1883.249,2267.555C1895.12,2271.276 1906.943,2274.998 1918.813,2278.719C1921.734,2279.661 1922.582,2274.998 1919.708,2274.103Z" fill="#067C70"/>
<path d="M1930.12,2419.091C1916.883,2413.25 1903.647,2407.409 1890.457,2401.568C1887.678,2400.344 1885.606,2404.583 1888.385,2405.808C1901.621,2411.649 1914.858,2417.49 1928.047,2423.331C1930.826,2424.556 1932.899,2420.316 1930.12,2419.091Z" fill="#067C70"/>
<path d="M1950.468,2397.565L1919.803,2364.356C1917.73,2362.142 1914.715,2365.722 1916.741,2367.936C1926.963,2379.006 1937.185,2390.076 1947.406,2401.145C1949.432,2403.359 1952.494,2399.779 1950.468,2397.565Z" fill="#067C70"/>
<path d="M1974.115,2381.125C1968.792,2365.11 1963.422,2349.141 1958.099,2333.125C1957.157,2330.252 1952.682,2331.853 1953.672,2334.727C1958.995,2350.742 1964.364,2366.711 1969.687,2382.727C1970.677,2385.6 1975.104,2383.999 1974.115,2381.125Z" fill="#067C70"/>
<path d="M1990.884,2323.515C1990.555,2320.5 1985.844,2320.83 1986.174,2323.892C1988.293,2341.792 1990.366,2359.692 1992.486,2377.544C1992.816,2380.559 1997.526,2380.229 1997.196,2377.168C1995.077,2359.315 1993.004,2341.415 1990.884,2323.515Z" fill="#067C70"/>
<path d="M2025.977,2323.939C2024.894,2341.179 2023.858,2358.467 2022.774,2375.707C2022.586,2378.675 2027.202,2379.617 2027.39,2376.602C2028.474,2359.362 2029.51,2342.074 2030.594,2324.834C2030.782,2321.866 2026.166,2320.924 2025.977,2323.939Z" fill="#067C70"/>
<path d="M2053.393,2330.251C2050.473,2346.22 2047.599,2362.188 2044.679,2378.204C2044.161,2381.171 2048.777,2382.113 2049.295,2379.099C2052.215,2363.13 2055.089,2347.162 2058.009,2331.146C2058.575,2328.178 2053.911,2327.283 2053.393,2330.251Z" fill="#067C70"/>
<path d="M2090.182,2036.835C2089.946,2033.821 2085.236,2034.15 2085.471,2037.212C2086.272,2046.822 2087.12,2056.431 2087.921,2065.993C2088.156,2069.008 2092.867,2068.678 2092.631,2065.617C2091.831,2056.007 2090.983,2046.445 2090.182,2036.835Z" fill="#A2BABC"/>
<path d="M2099.932,2061.376C2099.744,2058.362 2095.033,2058.691 2095.222,2061.753C2095.646,2068.536 2096.07,2075.319 2096.494,2082.055C2096.682,2085.07 2101.393,2084.74 2101.204,2081.679C2100.78,2074.943 2100.356,2068.159 2099.932,2061.376Z" fill="#A2BABC"/>
<path d="M2092.302,2085.964C2092.16,2082.949 2087.45,2083.279 2087.591,2086.341C2087.827,2091.57 2088.062,2096.798 2088.298,2102.027C2088.439,2105.042 2093.149,2104.712 2093.008,2101.65C2092.773,2096.374 2092.537,2091.146 2092.302,2085.964Z" fill="#A2BABC"/>
<path d="M2322.22,2019.876C2322.079,2016.862 2317.368,2017.191 2317.509,2020.253L2318.781,2044.795C2318.923,2047.81 2323.633,2047.48 2323.492,2044.418C2323.068,2036.269 2322.644,2028.073 2322.22,2019.876Z" fill="#A2BABC"/>
<path d="M2319.254,2059.632L2319.254,2073.622C2319.254,2076.637 2323.964,2076.307 2323.964,2073.245L2323.964,2059.255C2323.964,2056.241 2319.254,2056.617 2319.254,2059.632Z" fill="#A2BABC"/>
<path d="M2313.365,2046.161C2313.177,2043.147 2308.466,2043.476 2308.654,2046.538C2308.937,2051.202 2309.22,2055.865 2309.502,2060.528C2309.691,2063.543 2314.401,2063.213 2314.213,2060.152C2313.93,2055.441 2313.648,2050.778 2313.365,2046.161Z" fill="#A2BABC"/>
<path d="M2140.207,2250.36C2123.767,2249.984 2107.328,2249.607 2090.841,2249.277C2090.653,2239.432 2090.464,2229.587 2090.276,2219.789C2090.229,2216.775 2085.518,2217.104 2085.565,2220.166C2085.754,2230.294 2085.942,2240.421 2086.131,2250.549C2085.659,2251.915 2086.46,2253.94 2088.439,2253.94C2105.82,2254.317 2123.155,2254.741 2140.537,2255.118C2143.599,2255.118 2143.222,2250.408 2140.207,2250.36Z" fill="#A2BABC"/>
<path d="M2212.184,2248.619C2195.085,2249.232 2178.033,2249.844 2160.934,2250.456C2157.919,2250.551 2158.249,2255.261 2161.311,2255.167C2178.41,2254.555 2195.462,2253.942 2212.561,2253.33C2215.576,2253.189 2215.246,2248.478 2212.184,2248.619Z" fill="#A2BABC"/>
<path d="M2200.784,2258.322C2190.892,2258.699 2181,2259.028 2171.155,2259.405C2168.14,2259.499 2168.47,2264.21 2171.532,2264.116C2181.424,2263.739 2191.316,2263.409 2201.161,2263.032C2204.176,2262.938 2203.799,2258.227 2200.784,2258.322Z" fill="#A2BABC"/>
<path d="M2073.13,2315.414C2073.083,2312.4 2068.372,2312.729 2068.419,2315.791C2068.796,2340.616 2069.22,2365.487 2069.597,2390.311C2069.644,2393.326 2074.355,2392.996 2074.307,2389.934C2073.931,2365.11 2073.507,2340.286 2073.13,2315.414Z" fill="#A2BABC"/>
<path d="M2074.119,2401.381C2073.978,2398.366 2069.267,2398.696 2069.408,2401.758C2069.832,2409.672 2070.256,2417.585 2070.68,2425.452C2070.822,2428.467 2075.532,2428.137 2075.391,2425.075C2074.967,2417.208 2074.543,2409.295 2074.119,2401.381Z" fill="#A2BABC"/>
<path d="M2084.341,2384.469C2084.106,2381.454 2079.395,2381.784 2079.631,2384.846C2080.196,2392.336 2080.761,2399.825 2081.326,2407.268C2081.562,2410.282 2086.272,2409.953 2086.037,2406.891C2085.472,2399.401 2084.906,2391.912 2084.341,2384.469Z" fill="#A2BABC"/>
<path d="M2070.728,1879.364C2070.492,1891.093 2070.21,1902.869 2069.974,1914.598C2069.927,1917.613 2074.59,1917.236 2074.684,1914.221C2074.92,1902.492 2075.203,1890.716 2075.438,1878.987C2075.485,1875.972 2070.822,1876.349 2070.728,1879.364Z" fill="#F9A138"/>
<path d="M2040.674,1929.576C2031.017,1924.394 2021.361,1919.26 2011.751,1914.078C2009.066,1912.665 2007.041,1916.905 2009.679,1918.318C2019.335,1923.499 2028.992,1928.634 2038.601,1933.815C2041.286,1935.229 2043.359,1930.989 2040.674,1929.576Z" fill="#F9A138"/>
<path d="M2047.128,1963.634L2028.993,1979.131C2026.732,1981.063 2029.37,1984.972 2031.678,1982.994C2037.707,1977.812 2043.784,1972.678 2049.813,1967.496C2052.074,1965.565 2049.436,1961.702 2047.128,1963.634Z" fill="#F9A138"/>
<path d="M2111.991,1771.303C2097.765,1790.051 2094.091,1813.839 2102.193,1835.978C2103.23,1838.804 2107.658,1837.25 2106.621,1834.377C2099.084,1813.839 2102.288,1791.841 2115.571,1774.365C2117.408,1771.963 2113.828,1768.901 2111.991,1771.303Z" fill="#F7BC39"/>
<path d="M2217.13,1757.691C2214.492,1756.184 2212.419,1760.423 2215.057,1761.931C2233.616,1772.388 2244.686,1791.512 2244.874,1812.757C2244.922,1815.772 2249.585,1815.442 2249.585,1812.38C2249.397,1789.44 2237.102,1768.949 2217.13,1757.691Z" fill="#F7BC39"/>
<path d="M2240.964,1832.683C2240.682,1844.789 2235.971,1855.717 2227.54,1864.432C2225.42,1866.598 2229,1869.66 2231.12,1867.493C2240.399,1857.884 2245.345,1845.637 2245.628,1832.306C2245.722,1829.291 2241.012,1829.668 2240.964,1832.683Z" fill="#F7BC39"/>
<path d="M2132.058,1871.591C2125.087,1868.011 2119.434,1862.782 2115.336,1856.093C2113.734,1853.502 2109.872,1856.187 2111.473,1858.778C2115.948,1866.126 2122.355,1871.92 2129.986,1875.83C2132.671,1877.196 2134.743,1872.957 2132.058,1871.591Z" fill="#F7BC39"/>
<path d="M2132.388,1749.824C2128.525,1753.169 2124.663,1756.513 2120.847,1759.858C2118.586,1761.836 2121.224,1765.746 2123.532,1763.72L2135.073,1753.687C2137.334,1751.756 2134.696,1747.846 2132.388,1749.824Z" fill="#F7BC39"/>
<path d="M2129.938,1763.861C2125.134,1769.938 2120.329,1776.014 2115.524,1782.091C2113.64,1784.446 2117.22,1787.555 2119.104,1785.153C2123.909,1779.076 2128.714,1773 2133.518,1766.923C2135.355,1764.568 2131.823,1761.506 2129.938,1763.861Z" fill="#F7BC39"/>
<path d="M2237.196,1805.22C2236.819,1802.205 2232.109,1802.582 2232.485,1805.597C2233.851,1815.772 2233.522,1825.805 2231.59,1835.885C2231.025,1838.853 2235.641,1839.748 2236.207,1836.78C2238.232,1826.276 2238.609,1815.819 2237.196,1805.22Z" fill="#F7BC39"/>
<path d="M2729.302,2417.631L2729.302,2437.886L2545.546,2437.886L2545.546,2417.631L2561.891,2417.631L2713.004,2417.631L2729.302,2417.631Z" fill="#F47722"/>
<path d="M2698.119,2363.271L2713.004,2417.63L2561.891,2417.63L2575.128,2363.412L2697.601,2363.412L2698.119,2363.271Z" fill="#F79021"/>
<path d="M2684.647,2314.331L2698.119,2363.273L2697.601,2363.414L2575.128,2363.414L2587.14,2314.331L2684.647,2314.331Z" fill="#F9F9F9"/>
<path d="M2662.131,2232.037L2684.694,2314.33L2587.14,2314.33L2607.301,2232.037C2607.301,2232.037 2617.664,2252.434 2637.495,2252.434C2657.326,2252.434 2662.131,2232.037 2662.131,2232.037Z" fill="#F79021"/>
<path d="M2607.254,2232.037L2662.131,2232.037C2662.131,2232.037 2657.232,2252.434 2637.448,2252.434C2617.664,2252.434 2607.254,2232.037 2607.254,2232.037Z" fill="#F47722"/>
<path d="M2450.487,2027.365C2425.098,2029.343 2399.567,2029.343 2374.177,2027.412C2374.601,2015.542 2375.072,2003.765 2375.543,1992.036C2427.924,1991.283 2480.211,1986.29 2531.743,1977.198C2537.867,2034.855 2533.345,2116.817 2533.156,2174.662C2566.46,2230.858 2596.089,2289.362 2618.181,2350.788L2617.333,2351.07C2617.097,2351.542 2616.861,2351.966 2616.579,2352.39C2610.031,2363.694 2598.303,2371.796 2585.489,2374.198L2585.585,2374.622C2583.983,2375.942 2582.429,2377.26 2580.873,2378.674L2580.639,2378.39C2547.806,2319.792 2513.749,2261.854 2478.609,2204.574C2469.471,2145.881 2460.332,2087.094 2451.147,2028.401L2450.346,2028.307C2450.393,2027.977 2450.44,2027.695 2450.487,2027.365Z" fill="#F9A138"/>
<path d="M2371.823,2395.209C2370.881,2395.681 2369.892,2396.151 2368.949,2396.669L2368.573,2395.963C2366.877,2285.831 2369.468,2154.08 2374.178,2027.414C2399.568,2029.346 2425.098,2029.346 2450.488,2027.367C2450.441,2027.697 2450.394,2027.98 2450.347,2028.309C2442.056,2089.64 2431.74,2150.688 2419.493,2211.312C2417.986,2272.501 2416.478,2333.691 2409.413,2394.503L2407.858,2394.315C2396.035,2395.539 2384.117,2396.057 2372.2,2395.917L2371.823,2395.209Z" fill="#F79021"/>
<path d="M2531.838,1856.611C2523.454,1875.783 2514.033,1894.53 2504.659,1913.184L2503.246,1912.477C2498.017,1915.445 2491.516,1913.467 2485.911,1911.347C2449.687,1897.592 2415.442,1879.504 2381.621,1860.521C2382.233,1849.074 2382.845,1837.816 2383.458,1826.794C2414.453,1838.758 2445.872,1849.781 2477.573,1859.861C2483.933,1820.953 2492.364,1781.714 2511.018,1747.045C2514.833,1739.932 2520.015,1732.395 2527.929,1731.029C2529.954,1730.652 2531.98,1730.794 2533.958,1731.218C2538.998,1732.395 2543.615,1735.975 2546.959,1740.12C2553.695,1748.552 2556.616,1759.528 2556.804,1770.315C2556.992,1781.102 2554.637,1791.747 2551.717,1802.158C2546.535,1820.811 2539.611,1838.9 2531.838,1856.611Z" fill="#00ACA1"/>
<path d="M2313.884,1876.96C2316.522,1876.442 2319.254,1876.206 2322.08,1876.206C2331.454,1876.206 2340.122,1879.032 2347.376,1883.931C2359.388,1892.033 2367.301,1905.788 2367.301,1921.38C2367.301,1940.127 2355.902,1956.143 2339.698,1963.02L2346.999,1922.133L2321.798,1908.661L2321.28,1908.897L2320.856,1904.893L2278.508,1909.509C2282.983,1892.881 2296.738,1880.116 2313.884,1876.96Z" fill="#312A5E"/>
<path d="M2504.658,1913.184C2514.032,1894.531 2523.453,1875.783 2531.838,1856.611C2532.733,1896.651 2533.628,1936.69 2534.523,1976.729C2533.581,1976.917 2532.686,1977.059 2531.743,1977.2C2480.211,1986.291 2427.924,1991.284 2375.543,1992.038C2376.486,1968.297 2377.522,1944.886 2378.605,1921.899C2379.594,1901.031 2380.584,1880.494 2381.62,1860.521C2415.441,1879.504 2449.687,1897.593 2485.91,1911.347C2491.516,1913.467 2498.016,1915.445 2503.245,1912.478L2504.658,1913.184Z" fill="#00ACA1"/>
<path d="M2472.156,1719.205C2493.165,1720.618 2514.032,1724.34 2534.24,1730.275L2533.957,1731.217C2531.979,1730.793 2529.954,1730.652 2527.928,1731.028C2520.014,1732.394 2514.833,1739.931 2511.017,1747.044C2492.364,1781.713 2483.932,1820.952 2477.573,1859.86C2445.871,1849.78 2414.452,1838.757 2383.457,1826.793C2383.928,1818.502 2384.399,1810.353 2384.87,1802.298C2379.171,1804.889 2367.865,1808.94 2354.158,1813.603L2358.915,1762.871C2371.634,1758.82 2381.384,1748.127 2384.117,1734.844L2386.566,1735.268C2397.259,1730.557 2408.705,1727.543 2420.34,1726.365C2420.293,1727.166 2420.246,1727.967 2420.199,1728.767L2419.822,1729.003C2425.946,1740.025 2431.363,1751.331 2436.12,1762.965L2437.581,1764.143C2449.263,1749.729 2460.945,1735.409 2472.58,1720.995C2472.58,1720.995 2472.438,1720.336 2472.156,1719.205Z" fill="#00ACA1"/>
<path d="M2381.62,1860.521C2373.283,1855.905 2365.04,1851.194 2356.749,1846.531C2357.173,1837.345 2358.351,1828.207 2360.329,1819.21C2360.47,1819.304 2360.659,1819.398 2360.8,1819.492L2363.155,1818.833C2369.891,1821.518 2376.674,1824.203 2383.458,1826.794C2382.845,1837.816 2382.233,1849.074 2381.62,1860.521Z" fill="#00ACA1"/>
<path d="M2354.159,1813.603L2353.97,1815.581C2353.264,1815.204 2352.463,1814.827 2351.709,1814.45C2352.51,1814.168 2353.358,1813.885 2354.159,1813.603Z" fill="#312A5E"/>
<path d="M2347.564,1764.615C2351.521,1764.615 2355.336,1764.003 2358.916,1762.872L2354.158,1813.604C2353.358,1813.887 2352.51,1814.169 2351.709,1814.452C2346.575,1812.05 2341.157,1810.213 2335.599,1808.988C2331.784,1808.14 2327.78,1807.575 2323.917,1808.093L2330.841,1760.658C2335.882,1763.202 2341.534,1764.615 2347.564,1764.615Z" fill="#312A5E"/>
<path d="M2353.97,1815.583L2350.672,1850.723C2345.962,1852.701 2340.356,1854.727 2336.776,1855.245C2331.453,1856.093 2325.66,1855.386 2321.279,1852.23C2320.007,1851.335 2318.924,1850.252 2317.981,1849.074L2321.514,1824.58C2331.925,1821.141 2342.335,1817.655 2351.709,1814.452C2352.462,1814.829 2353.263,1815.206 2353.97,1815.583Z" fill="#F2B481"/>
<path d="M2335.599,1808.987C2341.157,1810.212 2346.574,1812.049 2351.709,1814.451C2342.335,1817.654 2331.925,1821.14 2321.515,1824.579L2323.917,1808.092C2327.78,1807.574 2331.784,1808.139 2335.599,1808.987Z" fill="#F2B481"/>
<path d="M2629.487,2369.725C2632.172,2376.179 2632.455,2384.139 2628.357,2389.839C2625.53,2393.749 2621.056,2396.151 2616.675,2398.318C2590.013,2411.507 2562.269,2422.53 2533.77,2431.15C2547.242,2411.79 2563.116,2394.126 2580.875,2378.675C2582.429,2377.262 2583.984,2375.943 2585.585,2374.624L2585.491,2374.2C2598.304,2371.798 2610.033,2363.696 2616.581,2352.391L2617.24,2352.767C2621.95,2357.949 2626.755,2363.272 2629.487,2369.725Z" fill="#312A5E"/>
<path d="M2463.677,1680.438C2464.714,1686.703 2470.555,1712.234 2472.156,1719.205C2472.439,1720.336 2472.58,1720.995 2472.58,1720.995C2460.945,1735.409 2449.263,1749.729 2437.581,1764.143L2436.121,1762.966C2431.363,1751.331 2425.946,1740.026 2419.823,1729.003L2420.2,1728.767C2420.247,1727.967 2420.294,1727.166 2420.341,1726.365C2420.671,1720.053 2421.047,1713.788 2421.471,1707.523C2411.956,1707.052 2401.923,1705.639 2395.281,1698.95C2388.875,1692.45 2387.367,1682.746 2386.237,1673.702C2384.4,1659.664 2382.61,1645.627 2380.82,1631.59C2403.713,1630.883 2426.606,1630.13 2449.546,1629.376C2450.959,1638.42 2453.314,1647.276 2456.518,1655.849L2457.224,1656.179C2458.967,1652.693 2461.275,1649.443 2464.714,1647.653C2467.022,1646.428 2469.848,1646.145 2472.251,1646.852C2473.852,1647.323 2475.218,1648.218 2476.207,1649.537C2478.186,1652.222 2477.95,1655.943 2477.244,1659.193C2475.312,1667.531 2470.413,1675.162 2463.677,1680.438Z" fill="#F2B481"/>
<path d="M2380.726,1630.93L2380.066,1631.025C2374.366,1626.173 2368.478,1620.991 2365.982,1613.926C2363.438,1606.907 2365.652,1597.58 2372.576,1594.801C2376.204,1593.388 2380.349,1594 2383.976,1595.413C2387.556,1596.827 2390.806,1599.04 2394.198,1600.925C2405.55,1607.19 2418.598,1609.827 2431.552,1610.346C2441.774,1610.77 2451.948,1609.969 2462.076,1608.932L2470.602,1609.215C2471.214,1621.651 2471.78,1634.134 2472.345,1646.569L2472.251,1646.852C2469.848,1646.145 2467.022,1646.428 2464.714,1647.653C2461.275,1649.443 2458.967,1652.693 2457.224,1656.179L2456.518,1655.849C2453.314,1647.276 2450.959,1638.42 2449.546,1629.376C2426.606,1630.13 2403.713,1630.883 2380.82,1631.59C2380.773,1631.354 2380.773,1631.166 2380.726,1630.93Z" fill="#312A5E"/>
<path d="M2410.307,2395.868C2411.485,2405.996 2411.767,2416.264 2411.061,2426.439L2411.249,2430.773C2379.076,2432.28 2346.857,2433.834 2314.684,2435.389L2314.401,2429.077C2331.924,2417.206 2350.154,2406.325 2368.949,2396.669C2369.891,2396.151 2370.88,2395.68 2371.822,2395.208L2372.199,2395.915C2384.117,2396.056 2396.034,2395.538 2407.858,2394.313L2409.412,2394.502C2409.365,2394.926 2409.318,2395.397 2409.271,2395.821L2410.307,2395.868Z" fill="#312A5E"/>
<path d="M2330.276,1760.376C2318.359,1754.158 2310.209,1741.723 2310.209,1727.308C2310.209,1711.858 2319.63,1698.622 2333.008,1692.922L2326.979,1726.696L2347.799,1737.813L2366.735,1729.193L2369.891,1697.397C2378.983,1704.227 2384.871,1715.108 2384.871,1727.308C2384.871,1729.899 2384.588,1732.396 2384.117,1734.845C2381.385,1748.129 2371.634,1758.822 2358.916,1762.873C2355.336,1764.003 2351.52,1764.616 2347.564,1764.616C2341.534,1764.616 2335.882,1763.202 2330.841,1760.659C2330.653,1760.565 2330.465,1760.47 2330.276,1760.376Z" fill="#312A5E"/>
<path d="M2356.749,1846.529C2356.702,1847.047 2356.655,1847.518 2356.655,1848.036C2355.053,1848.79 2352.981,1849.732 2350.672,1850.721L2353.97,1815.581C2356.184,1816.664 2358.256,1817.889 2360.329,1819.208C2358.35,1828.205 2357.173,1837.343 2356.749,1846.529Z" fill="#F2B481"/>
<path d="M2350.673,1850.723L2347.564,1883.602L2347.375,1883.932C2340.121,1879.033 2331.454,1876.207 2322.08,1876.207C2319.254,1876.207 2316.522,1876.442 2313.884,1876.96L2317.982,1849.074C2318.924,1850.252 2320.007,1851.335 2321.279,1852.23C2325.66,1855.386 2331.454,1856.093 2336.777,1855.245C2340.357,1854.727 2345.962,1852.701 2350.673,1850.723Z" fill="#312A5E"/>
<path d="M2320.855,1904.895L2321.279,1908.898L2298.857,1919.12L2295.042,1957.605C2284.019,1949.362 2276.906,1936.172 2276.906,1921.381C2276.906,1917.283 2277.471,1913.279 2278.508,1909.511L2320.855,1904.895Z" fill="#312A5E"/>
<path d="M2397.447,1642.99C2392.973,1642.189 2388.639,1643.084 2384.823,1645.581C2382.28,1647.229 2384.965,1651.139 2387.508,1649.443C2390.24,1647.653 2393.349,1647.041 2396.552,1647.606C2399.52,1648.124 2400.415,1643.508 2397.447,1642.99Z" fill="#312A5E"/>
<path d="M2435.838,1644.12C2430.233,1641.859 2424.297,1641.718 2418.598,1643.837C2415.771,1644.921 2417.326,1649.349 2420.199,1648.265C2424.674,1646.569 2429.338,1646.569 2433.765,1648.359C2436.592,1649.49 2438.664,1645.25 2435.838,1644.12Z" fill="#312A5E"/>
<path d="M2394.48,1653.587C2393.538,1652.503 2391.795,1652.126 2390.759,1653.398C2390.476,1653.728 2390.288,1654.105 2390.099,1654.435C2389.864,1654.67 2389.675,1654.953 2389.534,1655.33C2388.922,1657.167 2388.356,1659.098 2389.393,1660.888C2390.288,1662.395 2391.983,1663.29 2393.726,1662.913C2398.154,1661.877 2396.6,1655.989 2394.48,1653.587Z" fill="#312A5E"/>
<path d="M2430.374,1656.979C2429.95,1654.482 2427.972,1651.986 2425.146,1653.022C2422.885,1653.87 2422.367,1656.037 2422.743,1658.062C2422.649,1660.464 2423.591,1662.914 2426.465,1663.055C2429.809,1663.244 2430.798,1659.664 2430.374,1656.979Z" fill="#312A5E"/>
<path d="M2412.945,1685.62C2412.474,1682.417 2409.789,1678.366 2406.068,1680.533C2405.785,1680.721 2405.55,1680.957 2405.314,1681.145C2404.607,1681.333 2404.089,1681.899 2403.995,1682.888C2403.76,1685.95 2403.854,1691.414 2407.481,1692.591C2411.862,1694.005 2413.416,1688.917 2412.945,1685.62Z" fill="#312A5E"/>
<path d="M2408.376,1672.759C2404.043,1672.524 2405.456,1669.038 2406.115,1665.882C2406.822,1662.726 2407.481,1659.523 2408.188,1656.367C2408.847,1653.399 2404.184,1652.504 2403.571,1655.472C2402.959,1658.392 2402.3,1661.313 2401.687,1664.233C2401.169,1666.588 2400.321,1669.085 2400.415,1671.487C2400.557,1675.586 2403.854,1677.14 2407.528,1677.375C2410.449,1677.564 2411.391,1672.948 2408.376,1672.759Z" fill="#E08B4B"/>
<path d="M2448.226,1676.481C2447.143,1669.462 2437.91,1666.494 2433.2,1672.006C2431.645,1673.796 2431.221,1676.057 2431.598,1678.129C2431.598,1680.72 2432.682,1683.311 2435.32,1684.96C2441.302,1688.681 2449.31,1683.546 2448.226,1676.481Z" fill="#E08B4B"/>
<path d="M2529.247,1730.228C2508.568,1737.765 2498.959,1757.078 2493.071,1777.051C2484.969,1804.466 2479.646,1832.776 2476.113,1861.133C2476.066,1861.086 2476.019,1861.039 2475.925,1860.992C2446.861,1847.143 2417.091,1834.943 2386.661,1824.485C2383.834,1823.496 2381.715,1827.735 2384.588,1828.725C2415.018,1839.182 2444.788,1851.382 2473.852,1865.231C2474.747,1865.655 2475.548,1865.467 2476.113,1864.995C2477.149,1866.644 2480.117,1866.785 2480.4,1864.383C2483.226,1840.972 2487.418,1817.796 2493.118,1794.903C2498.959,1771.586 2505.601,1743.794 2530.849,1734.656C2533.675,1733.62 2532.121,1729.192 2529.247,1730.228Z" fill="#067C70"/>
<path d="M2527.976,1859.155C2521.994,1872.674 2516.011,1886.193 2510.029,1899.666C2507.862,1904.564 2507.108,1907.391 2502.209,1910.311C2496.274,1913.844 2492.977,1911.159 2486.759,1908.757C2479.929,1906.166 2473.146,1903.34 2466.457,1900.466C2439.56,1888.926 2413.511,1875.501 2388.404,1860.427C2385.813,1858.873 2383.74,1863.112 2386.331,1864.667C2417.703,1883.461 2450.535,1899.76 2484.686,1912.996C2492.883,1916.152 2502.539,1921.616 2509.04,1913.043C2513.797,1906.684 2516.435,1896.839 2519.638,1889.585C2523.831,1880.117 2528.023,1870.649 2532.215,1861.228C2533.44,1858.449 2529.201,1856.376 2527.976,1859.155Z" fill="#067C70"/>
<path d="M2384.446,1756.136L2382.844,1794.856C2382.703,1797.871 2387.414,1797.494 2387.555,1794.48C2388.073,1781.573 2388.638,1768.666 2389.156,1755.759C2389.298,1752.744 2384.587,1753.121 2384.446,1756.136Z" fill="#067C70"/>
</svg>
