<svg width="860" height="640" viewBox="0 0 860 640" fill="none" xmlns="http://www.w3.org/2000/svg" xmlns:xlink="http://www.w3.org/1999/xlink">
<path d="M858.94,562.445L0,562.445L0,562.875L858.94,562.875L858.94,562.445Z" fill="#E8EAFF"/>
<path d="M764.898,582.117L677.459,582.117L677.459,582.547L764.898,582.547L764.898,582.117Z" fill="#E8EAFF"/>
<path d="M171.219,577.035L90.118,577.035L90.118,577.465L171.219,577.465L171.219,577.035Z" fill="#E8EAFF"/>
<path d="M683.712,574.137L650.746,574.137L650.746,574.566L683.712,574.566L683.712,574.137Z" fill="#E8EAFF"/>
<path d="M568.991,585.527L544.804,585.527L544.804,585.957L568.991,585.957L568.991,585.527Z" fill="#E8EAFF"/>
<path d="M529.502,585.527L468.621,585.527L468.621,585.957L529.502,585.957L529.502,585.527Z" fill="#E8EAFF"/>
<path d="M433.267,578.289L335.366,578.289L335.366,578.719L433.267,578.719L433.267,578.289Z" fill="#E8EAFF"/>
<path d="M407.134,485.814L75.43,485.814C72.831,485.81 70.34,484.774 68.505,482.936C66.669,481.096 65.638,478.604 65.638,476.006L65.638,9.723C65.66,7.14 66.701,4.669 68.535,2.849C70.368,1.028 72.846,0.004 75.43,0L407.134,0C409.736,0 412.23,1.033 414.07,2.873C415.91,4.713 416.944,7.208 416.944,9.809L416.944,476.006C416.944,478.608 415.91,481.102 414.07,482.942C412.23,484.782 409.736,485.814 407.134,485.814L407.134,485.814ZM75.43,0.344C72.945,0.348 70.564,1.338 68.808,3.097C67.053,4.855 66.067,7.239 66.067,9.723L66.067,476.006C66.067,478.49 67.053,480.874 68.808,482.632C70.564,484.39 72.945,485.38 75.43,485.386L407.134,485.386C409.62,485.38 412.004,484.392 413.762,482.634C415.52,480.876 416.51,478.492 416.514,476.006L416.514,9.723C416.51,7.237 415.52,4.854 413.762,3.096C412.004,1.338 409.62,0.348 407.134,0.344L75.43,0.344Z" fill="#E8EAFF"/>
<path d="M778.731,485.814L447.01,485.814C444.41,485.81 441.918,484.776 440.079,482.936C438.241,481.098 437.206,478.606 437.201,476.006L437.201,9.723C437.228,7.138 438.273,4.668 440.109,2.848C441.945,1.027 444.425,0.004 447.01,0L778.731,0C781.313,0.009 783.785,1.035 785.615,2.855C787.445,4.675 788.483,7.143 788.507,9.723L788.507,476.006C788.507,478.602 787.477,481.092 785.645,482.93C783.813,484.768 781.327,485.806 778.731,485.814L778.731,485.814ZM447.01,0.344C444.524,0.348 442.141,1.338 440.383,3.096C438.625,4.854 437.635,7.237 437.631,9.723L437.631,476.006C437.635,478.492 438.625,480.876 440.383,482.634C442.141,484.392 444.524,485.38 447.01,485.386L778.731,485.386C781.217,485.38 783.601,484.392 785.359,482.634C787.117,480.876 788.107,478.492 788.111,476.006L788.111,9.723C788.107,7.237 787.117,4.854 785.359,3.096C783.601,1.338 781.217,0.348 778.731,0.344L447.01,0.344Z" fill="#E8EAFF"/>
<path d="M373.878,45.636L132.294,45.636L132.294,260.042L373.878,260.042L373.878,45.636Z" transform="rotate(360 253.086 152.84)" fill="#E8EAFF"/>
<path d="M368.522,45.636L126.938,45.636L126.938,260.042L368.522,260.042L368.522,45.636Z" transform="rotate(360 247.73 152.84)" fill="#D9DCFF"/>
<path d="M344.108,41.691L151.347,41.691L151.347,263.999L344.108,263.999L344.108,41.691Z" transform="rotate(180 247.727 152.846)" fill="#FFFFFF"/>
<path d="M234.965,150.819L42.203,150.819L42.203,154.873L234.965,154.873L234.965,150.819Z" transform="rotate(180 138.584 152.846)" fill="#E8EAFF"/>
<path d="M364.531,216.283L130.919,216.283L130.919,230.816L364.531,230.816L364.531,216.283Z" transform="rotate(360 247.725 223.55)" fill="#D9DCFF"/>
<path d="M116.423,27.723L384.411,27.723C384.607,27.72 384.799,27.757 384.981,27.83C385.163,27.903 385.327,28.012 385.467,28.149C385.605,28.287 385.715,28.45 385.791,28.631C385.867,28.811 385.905,29.005 385.905,29.2L385.905,29.2C385.901,29.594 385.741,29.969 385.461,30.246C385.181,30.522 384.805,30.678 384.411,30.677L116.423,30.677C116.027,30.677 115.647,30.52 115.366,30.24C115.086,29.959 114.929,29.579 114.929,29.183L114.929,29.183C114.931,28.989 114.971,28.797 115.048,28.619C115.124,28.44 115.235,28.279 115.374,28.143C115.512,28.008 115.676,27.901 115.857,27.829C116.037,27.756 116.229,27.72 116.423,27.723Z" fill="#E8EAFF"/>
<path d="M111.218,29.168C111.218,29.902 111.435,30.619 111.843,31.229C112.251,31.839 112.83,32.315 113.508,32.596C114.186,32.877 114.932,32.95 115.652,32.807C116.372,32.664 117.033,32.31 117.552,31.791C118.071,31.272 118.424,30.611 118.568,29.892C118.711,29.172 118.637,28.426 118.356,27.748C118.076,27.07 117.6,26.49 116.99,26.082C116.38,25.675 115.662,25.457 114.928,25.457C113.944,25.457 113,25.848 112.305,26.544C111.609,27.24 111.218,28.184 111.218,29.168Z" fill="#E8EAFF"/>
<path d="M371.874,37.504C372.405,37.499 372.914,37.286 373.29,36.91C373.666,36.534 373.879,36.025 373.884,35.494L373.884,31.182C373.884,30.649 373.672,30.137 373.295,29.761C372.918,29.384 372.407,29.172 371.874,29.172C371.345,29.172 370.838,29.382 370.465,29.756C370.091,30.129 369.881,30.636 369.881,31.165L369.881,35.476C369.879,35.74 369.928,36.002 370.027,36.247C370.126,36.492 370.272,36.714 370.457,36.903C370.642,37.091 370.863,37.241 371.106,37.344C371.349,37.447 371.61,37.501 371.874,37.504L371.874,37.504Z" fill="#E8EAFF"/>
<path d="M138.792,37.505C139.061,37.512 139.328,37.465 139.579,37.367C139.83,37.269 140.059,37.123 140.252,36.936C140.446,36.748 140.6,36.525 140.706,36.277C140.812,36.03 140.868,35.764 140.87,35.495L140.87,31.183C140.87,30.913 140.816,30.646 140.711,30.398C140.606,30.149 140.451,29.924 140.257,29.737C140.064,29.549 139.834,29.403 139.582,29.306C139.33,29.209 139.061,29.164 138.792,29.173L138.792,29.173C138.263,29.173 137.756,29.383 137.383,29.757C137.009,30.13 136.799,30.637 136.799,31.166L136.799,35.478C136.797,35.742 136.846,36.003 136.945,36.248C137.044,36.493 137.19,36.716 137.375,36.904C137.56,37.092 137.781,37.242 138.024,37.345C138.267,37.448 138.528,37.502 138.792,37.505L138.792,37.505Z" fill="#E8EAFF"/>
<g opacity="0.4">
<path d="M364.531,29.196L116.901,29.196L116.901,239.05L364.531,239.05L364.531,29.196Z" transform="rotate(360 240.716 134.124)" fill="#E8EAFF"/>
</g>
<path d="M344.318,29.168C344.318,29.902 344.536,30.619 344.944,31.229C345.351,31.839 345.931,32.315 346.609,32.596C347.287,32.877 348.033,32.95 348.753,32.807C349.473,32.664 350.134,32.31 350.653,31.791C351.172,31.272 351.525,30.611 351.668,29.892C351.811,29.172 351.738,28.426 351.457,27.748C351.176,27.07 350.701,26.49 350.09,26.082C349.48,25.675 348.763,25.457 348.029,25.457C347.045,25.457 346.101,25.848 345.405,26.544C344.709,27.24 344.318,28.184 344.318,29.168Z" fill="#E8EAFF"/>
<path d="M364.639,325.763L309.77,325.763L309.77,551.765L364.639,551.765L364.639,325.763Z" transform="rotate(360 337.204 438.764)" fill="#E8EAFF"/>
<path d="M354.089,551.777L143.375,551.777L143.375,562.445L354.089,562.445L354.089,551.777Z" transform="rotate(360 248.732 557.111)" fill="#E8EAFF"/>
<path d="M309.753,325.777L132.848,325.777L132.848,551.779L309.753,551.779L309.753,325.777Z" fill="#D9DCFF"/>
<path d="M288.176,411.156L154.423,411.156L154.423,466.351L288.176,466.351L288.176,411.156Z" fill="#E8EAFF"/>
<path d="M288.176,476.43L154.423,476.43L154.423,531.625L288.176,531.625L288.176,476.43Z" fill="#E8EAFF"/>
<path d="M288.176,345.906L154.423,345.906L154.423,401.101L288.176,401.101L288.176,345.906Z" fill="#E8EAFF"/>
<path d="M309.749,307.224L125.525,307.224L125.525,325.777L309.749,325.777L309.749,307.224Z" transform="rotate(360 217.637 316.501)" fill="#E8EAFF"/>
<path d="M372.279,307.219L309.749,307.219L309.749,325.772L372.279,325.772L372.279,307.219Z" fill="#E8EAFF"/>
<path d="M233.732,277.453L204.494,277.453L204.494,307.189L233.732,307.189L233.732,277.453Z" fill="#E8EAFF"/>
<path d="M204.477,277.482L152.614,277.482L152.614,307.219L204.477,307.219L204.477,277.482Z" transform="rotate(360 178.545 292.351)" fill="#D9DCFF"/>
<g opacity="0.7" style="mix-blend-mode:multiply">
<path d="M233.716,281.953L152.323,281.953L152.323,284.358L233.716,284.358L233.716,281.953Z" fill="#E8EAFF"/>
</g>
<path d="M235.33,276.023L204.494,276.023L204.494,282.981L235.33,282.981L235.33,276.023Z" fill="#E8EAFF"/>
<path d="M204.477,275.984L150.999,275.984L150.999,282.941L204.477,282.941L204.477,275.984Z" transform="rotate(360 177.738 279.463)" fill="#D9DCFF"/>
<path d="M337.561,277.453L308.323,277.453L308.323,307.189L337.561,307.189L337.561,277.453Z" fill="#E8EAFF"/>
<path d="M308.323,277.482L256.461,277.482L256.461,307.219L308.323,307.219L308.323,277.482Z" transform="rotate(360 282.392 292.351)" fill="#D9DCFF"/>
<g opacity="0.7" style="mix-blend-mode:multiply">
<path d="M337.545,281.953L256.152,281.953L256.152,284.358L337.545,284.358L337.545,281.953Z" fill="#E8EAFF"/>
</g>
<path d="M339.159,276.023L308.323,276.023L308.323,282.981L339.159,282.981L339.159,276.023Z" fill="#E8EAFF"/>
<path d="M308.323,275.984L254.846,275.984L254.846,282.941L308.323,282.941L308.323,275.984Z" transform="rotate(360 281.585 279.463)" fill="#D9DCFF"/>
<path d="M756.125,112.402L642.918,112.402L642.918,250.828L756.125,250.828L756.125,112.402Z" transform="rotate(360 699.521 181.615)" fill="#E8EAFF"/>
<path d="M748.817,112.402L618.603,112.402L618.603,250.828L748.817,250.828L748.817,112.402Z" transform="rotate(360 683.71 181.615)" fill="#D9DCFF"/>
<path d="M741.999,127.403L625.39,127.403L625.39,235.801L741.999,235.801L741.999,127.403Z" transform="rotate(-180 683.695 181.602)" fill="#FFFFFF"/>
<path d="M706.639,153.628L660.738,153.628C656.82,153.628 653.643,156.805 653.643,160.723L653.643,202.381C653.643,206.3 656.82,209.476 660.738,209.476L706.639,209.476C710.558,209.476 713.734,206.3 713.734,202.381L713.734,160.723C713.734,156.805 710.558,153.628 706.639,153.628Z" transform="rotate(-180 683.689 181.552)" fill="#D9DCFF"/>
<path d="M609.517,48.008L496.309,48.008L496.309,186.434L609.517,186.434L609.517,48.008Z" transform="rotate(360 552.913 117.221)" fill="#E8EAFF"/>
<path d="M602.235,48.008L472.021,48.008L472.021,186.434L602.235,186.434L602.235,48.008Z" transform="rotate(360 537.128 117.221)" fill="#D9DCFF"/>
<path d="M595.433,63.028L478.824,63.028L478.824,171.426L595.433,171.426L595.433,63.028Z" transform="rotate(-180 537.128 117.227)" fill="#FFFFFF"/>
<path d="M551.807,89.324L522.431,89.324C513.95,89.324 507.074,96.199 507.074,104.681L507.074,129.814C507.074,138.296 513.95,145.171 522.431,145.171L551.807,145.171C560.289,145.171 567.165,138.296 567.165,129.814L567.165,104.681C567.165,96.199 560.289,89.324 551.807,89.324Z" transform="rotate(-180 537.119 117.247)" fill="#D9DCFF"/>
<path d="M418.666,354.154L337.205,354.154L337.205,562.446L418.666,562.446L418.666,354.154Z" transform="rotate(360 377.935 458.3)" fill="#E8EAFF"/>
<path d="M345.381,562.44L337.187,562.44L337.187,534.078L353.987,534.078L345.381,562.44Z" fill="#E8EAFF"/>
<path d="M546.334,354.154L464.873,354.154L464.873,562.446L546.334,562.446L546.334,354.154Z" transform="rotate(360 505.603 458.3)" fill="#E8EAFF"/>
<path d="M472.021,354.138L337.203,354.138L337.203,545.027L472.021,545.027L472.021,354.138Z" transform="rotate(360 404.612 449.583)" fill="#E8EAFF"/>
<path d="M465.666,362.614L343.56,362.614L343.56,414.957L465.666,414.957L465.666,362.614Z" transform="rotate(360 404.613 388.785)" fill="#E8EAFF"/>
<path d="M392.641,378.868L411.056,378.868C419.044,378.868 426.689,372.409 432.186,361.02L371.511,361.02C377.008,372.409 384.652,378.868 392.641,378.868Z" fill="#E8EAFF"/>
<path d="M463.81,562.44L472.004,562.44L472.004,534.078L455.221,534.078L463.81,562.44Z" fill="#E8EAFF"/>
<path d="M465.666,423.414L343.56,423.414L343.56,475.758L465.666,475.758L465.666,423.414Z" transform="rotate(360 404.613 449.586)" fill="#E8EAFF"/>
<path d="M392.641,439.663L411.056,439.663C419.044,439.663 426.689,433.203 432.186,421.797L371.511,421.797C377.008,433.203 384.652,439.663 392.641,439.663Z" fill="#E8EAFF"/>
<path d="M465.666,484.219L343.56,484.219L343.56,536.563L465.666,536.563L465.666,484.219Z" transform="rotate(360 404.613 510.391)" fill="#E8EAFF"/>
<path d="M392.641,500.479L411.056,500.479C419.044,500.479 426.689,494.02 432.186,482.613L371.511,482.613C377.008,494.02 384.652,500.479 392.641,500.479Z" fill="#E8EAFF"/>
<path d="M658.718,329.539L644.064,380.989C644.511,492.204 639.495,498.611 639.443,517.731L654.904,517.731C656.364,424.657 665.503,432.577 658.718,329.539Z" fill="#E8EAFF"/>
<path d="M655.883,562.437C669.837,562.441 683.374,557.673 694.245,548.923C705.116,540.174 712.668,527.97 715.647,514.337C717.099,506.995 719.185,499.793 721.883,492.812L722.347,491.695L589.436,491.695L589.899,492.812C592.59,499.769 594.665,506.948 596.101,514.268C599.07,527.915 606.619,540.136 617.495,548.898C628.37,557.661 641.916,562.439 655.883,562.437L655.883,562.437Z" fill="#F5F6FF"/>
<path d="M580.83,498.367L730.954,498.367L735.249,465.848L576.535,465.848L580.83,498.367Z" fill="#E8EAFF"/>
<path d="M650.353,476.783C644.804,369.605 715.529,363.403 743.547,399.65C758.424,438.56 653.548,538.42 650.353,476.783Z" fill="#E8EAFF"/>
<path d="M650.456,432.419C639.135,353.311 690.722,338.366 713.776,361.248C727.33,388.098 656.966,477.925 650.456,432.419Z" fill="#E8EAFF"/>
<path d="M653.755,374.803C642.022,324.882 674.146,312.393 690.174,325.706C700.361,342.095 660.507,403.508 653.755,374.803Z" fill="#E8EAFF"/>
<path d="M643.103,410.354C663.442,349.645 624.945,330.439 603.489,345.075C588.921,364.35 631.404,445.261 643.103,410.354Z" fill="#E8EAFF"/>
<path d="M655.317,379.421C684.881,322.646 649.854,297.668 626.354,308.834C608.986,325.514 638.31,412.078 655.317,379.421Z" fill="#E8EAFF"/>
<path d="M647.828,470.001C662.396,376.429 600.879,364.645 573.015,393.865C556.438,426.694 639.445,523.805 647.828,470.001Z" fill="#E8EAFF"/>
<path d="M429.476,639.998C613.43,639.998 762.556,631.292 762.556,620.552C762.556,609.812 613.43,601.105 429.476,601.105C245.52,601.105 96.396,609.812 96.396,620.552C96.396,631.292 245.52,639.998 429.476,639.998Z" fill="#D9DCFF"/>
<path d="M467.372,605.767L454.11,605.767L453.543,575.086L466.805,575.086L467.372,605.767Z" fill="#FFB573"/>
<path d="M546.922,605.767L533.677,605.767L527.768,575.086L541.012,575.086L546.922,605.767Z" fill="#FFB573"/>
<path d="M532.768,604.238L547.661,604.238C547.923,604.235 548.178,604.324 548.379,604.491C548.581,604.658 548.716,604.891 548.761,605.149L551.097,616.916C551.147,617.207 551.133,617.505 551.056,617.789C550.979,618.074 550.841,618.338 550.651,618.564C550.461,618.79 550.225,618.971 549.958,619.096C549.69,619.221 549.399,619.286 549.104,619.287C543.951,619.184 541.391,618.892 534.846,618.892C530.809,618.892 522.495,619.304 516.946,619.304C511.397,619.304 510.779,613.807 513.081,613.309C523.388,611.076 527.253,607.983 530.603,605.046C531.21,604.535 531.975,604.25 532.768,604.238Z" fill="#263238"/>
<path d="M454.228,604.238L468.71,604.238C468.971,604.238 469.223,604.329 469.424,604.495C469.625,604.661 469.761,604.893 469.81,605.149L472.146,616.916C472.202,617.205 472.193,617.502 472.12,617.787C472.047,618.071 471.913,618.337 471.726,618.563C471.538,618.79 471.303,618.972 471.038,619.097C470.772,619.222 470.481,619.287 470.187,619.287C465.034,619.184 457.424,618.892 450.861,618.892C443.183,618.892 436.552,619.304 427.55,619.304C422.122,619.304 420.679,613.807 423.032,613.309C433.459,611.041 441.929,610.8 451.016,605.269C451.973,604.639 453.084,604.283 454.228,604.238L454.228,604.238Z" fill="#263238"/>
<path d="M453.848,189.881L439.778,177.203C439.778,177.203 408.857,225.922 402.638,228.636C394.049,232.312 365.515,256.964 356.118,262.667C355.517,264.832 355.671,270.792 356.754,272.528C372.386,271.188 410.197,248.203 416.415,242.413C430.502,229.203 453.848,189.881 453.848,189.881Z" fill="#FFB573"/>
<path d="M463.659,179.796C465.737,192.303 436.877,222.949 436.877,222.949L413.755,204.053C419.749,193.996 426.779,184.594 434.73,176C446.652,163.889 461.391,166.088 463.659,179.796Z" fill="#FF3874"/>
<g opacity="0.2">
<path d="M430.896,218.189L436.874,223.034C436.874,223.034 443.35,216.162 449.929,207.573C457.643,196.372 463.587,186.237 463.776,181.547L463.776,181.427C460.838,179.28 444.106,197.437 430.896,218.189Z" fill="#000000"/>
</g>
<path d="M358.021,261.633L344.381,264.158L343.625,278.829C349.43,277.326 354.969,274.939 360.048,271.751L358.021,261.633Z" fill="#FFB573"/>
<path d="M329.835,269.087L331.845,276.628L343.629,278.827L344.385,264.156L329.835,269.087Z" fill="#FFB573"/>
<g opacity="0.2">
<path d="M453.543,575.086L453.835,590.907L467.097,590.907L466.805,575.086L453.543,575.086Z" fill="#000000"/>
</g>
<g opacity="0.2">
<path d="M541.029,575.086L527.768,575.086L530.825,590.907L544.07,590.907L541.029,575.086Z" fill="#000000"/>
</g>
<path d="M417.639,196.27L409.702,205.718L435.419,226.916L445.709,216.747L417.639,196.27Z" fill="#CC2D5D"/>
<path d="M444.59,169.143C444.59,169.143 427.961,209.17 441,283.691L511.931,283.691C512.686,272.817 507.155,219.734 518.905,168.473C511.093,166.961 503.192,165.957 495.25,165.467C485.215,164.891 475.154,164.891 465.119,165.467C458.191,166.163 451.328,167.392 444.59,169.143L444.59,169.143Z" fill="#FF3874"/>
<g opacity="0.2">
<path d="M503.133,181.087C501.759,189.539 503.924,209.724 511.379,233.053C511.744,213.069 513.871,193.156 517.735,173.546L517.735,173.495C513.08,172.962 504.473,173.185 503.133,181.087Z" fill="#000000"/>
</g>
<path d="M491.954,137.309C489.807,146.997 488.518,159.022 495.201,165.482C495.201,165.482 491.061,175.325 473.04,175.325C456.583,175.325 465.069,165.482 465.069,165.482C475.943,162.905 475.703,149.54 474.002,141.998L491.954,137.309Z" fill="#FFB573"/>
<g opacity="0.2">
<path d="M474.003,142.016C475.324,147.259 475.163,152.766 473.539,157.923C475.223,157.672 476.862,157.174 478.401,156.446C484.568,153.577 487.677,149.042 490.975,142.342C491.25,140.624 491.577,138.906 491.955,137.309L474.003,142.016Z" fill="#000000"/>
</g>
<path d="M459.415,129.146C459.706,130.737 460.311,132.254 461.196,133.608C462.081,134.962 463.228,136.126 464.569,137.031C468.193,139.384 471.44,136.395 471.543,132.238C471.68,128.51 469.945,122.772 465.737,122.085C464.812,121.967 463.872,122.076 462.998,122.402C462.125,122.727 461.343,123.26 460.721,123.955C460.099,124.65 459.656,125.485 459.428,126.389C459.2,127.293 459.196,128.239 459.415,129.146L459.415,129.146Z" fill="#FFB573"/>
<g opacity="0.2">
<path d="M459.415,129.146C459.706,130.737 460.311,132.254 461.196,133.608C462.081,134.962 463.228,136.126 464.569,137.031C468.193,139.384 471.44,136.395 471.543,132.238C471.68,128.51 469.945,122.772 465.737,122.085C464.812,121.967 463.872,122.076 462.998,122.402C462.125,122.727 461.343,123.26 460.721,123.955C460.099,124.65 459.656,125.485 459.428,126.389C459.2,127.293 459.196,128.239 459.415,129.146L459.415,129.146Z" fill="#000000"/>
</g>
<path d="M477.113,106.273L468.386,134.961C456.962,114.467 469.794,97.048 477.113,106.273Z" fill="#263238"/>
<path d="M501.262,129.233C495.662,141.258 492.999,148.576 484.341,152.596C471.337,158.66 458.487,147.442 460.411,134.026C462.129,122.001 471.01,104.324 484.891,103.877C487.936,103.755 490.96,104.429 493.665,105.832C496.37,107.236 498.663,109.321 500.316,111.881C501.969,114.441 502.925,117.388 503.091,120.432C503.257,123.475 502.627,126.508 501.262,129.233L501.262,129.233Z" fill="#FFB573"/>
<path d="M493.601,139.647C486.73,140.489 492.399,123.07 498.36,118.363C490.372,117.298 468.915,115.511 469.946,103.847C471.183,89.709 487.125,93.935 487.125,97.25C490.165,99.432 514.061,97.628 511.725,115.735C523.44,116.233 516.895,136.847 493.601,139.647Z" fill="#263238"/>
<path d="M511.686,116.205L511.565,116.205C511.45,116.169 511.354,116.09 511.296,115.984C511.238,115.878 511.224,115.754 511.256,115.638C513.902,106.842 510.741,103.733 507.7,101.998C507.6,101.934 507.528,101.836 507.496,101.721C507.464,101.607 507.476,101.486 507.528,101.379C507.589,101.277 507.688,101.201 507.803,101.169C507.918,101.137 508.041,101.151 508.147,101.208C513.026,103.991 514.297,108.663 512.115,115.913C512.083,116 512.024,116.075 511.947,116.127C511.87,116.18 511.779,116.207 511.686,116.205L511.686,116.205Z" fill="#263238"/>
<path d="M515.554,125.76C515.493,125.763 515.432,125.752 515.376,125.728C515.319,125.705 515.269,125.669 515.228,125.623C515.186,125.581 515.152,125.532 515.13,125.477C515.107,125.423 515.095,125.364 515.095,125.305C515.095,125.246 515.107,125.187 515.13,125.133C515.152,125.078 515.186,125.029 515.228,124.987C517.822,122.651 518.87,120.572 518.268,118.975C517.667,117.377 515.022,116.175 511.655,116.175C511.536,116.175 511.423,116.127 511.339,116.044C511.255,115.96 511.208,115.846 511.208,115.728C511.208,115.609 511.255,115.496 511.339,115.412C511.423,115.328 511.536,115.281 511.655,115.281C515.451,115.281 518.32,116.57 519.11,118.717C519.643,120.091 519.488,122.428 515.829,125.726C515.743,125.764 515.647,125.776 515.554,125.76L515.554,125.76Z" fill="#263238"/>
<path d="M501.779,143.4C499.129,145.405 495.799,146.293 492.502,145.873C488.173,145.272 487.847,140.96 490.595,137.782C493.052,134.913 498.291,131.77 501.882,133.986C505.472,136.202 505.06,140.823 501.779,143.4Z" fill="#FFB573"/>
<path d="M440.996,283.693C440.996,283.693 436.736,382.779 437.199,423.201C437.663,465.22 448.967,587.858 448.967,587.858L471.419,587.858C471.419,587.858 475.559,467.608 477.569,426.379C479.751,381.371 487.584,283.676 487.584,283.676L440.996,283.693Z" fill="#01008A"/>
<g opacity="0.4">
<path d="M440.996,283.693C440.996,283.693 436.736,382.779 437.199,423.201C437.663,465.22 448.967,587.858 448.967,587.858L471.419,587.858C471.419,587.858 475.559,467.608 477.569,426.379C479.751,381.371 487.584,283.676 487.584,283.676L440.996,283.693Z" fill="#FFFFFF"/>
</g>
<path d="M473.07,580.964C473.173,580.964 472.881,588.299 472.881,588.299L447.01,588.299L446.134,580.07L473.07,580.964Z" fill="#263238"/>
<g opacity="0.2">
<path d="M471.353,309.922C470.58,359.087 472.813,388.944 478.224,412.994C479.581,389.545 481.797,358.537 483.739,332.769L471.353,309.922Z" fill="#000000"/>
</g>
<path d="M466.149,283.691C466.149,283.691 478.707,385.045 486.025,422.839C494.048,464.394 524.711,587.753 524.711,587.753L548.985,587.753C548.985,587.753 529.848,467.812 525.673,426.687C521.173,382.022 511.931,283.691 511.931,283.691L466.149,283.691Z" fill="#01008A"/>
<g opacity="0.4">
<path d="M466.149,283.691C466.149,283.691 478.707,385.045 486.025,422.839C494.048,464.394 524.711,587.753 524.711,587.753L548.985,587.753C548.985,587.753 529.848,467.812 525.673,426.687C521.173,382.022 511.931,283.691 511.931,283.691L466.149,283.691Z" fill="#FFFFFF"/>
</g>
<path d="M549.139,581.525C549.242,581.525 550.187,588.294 550.187,588.294L523.508,588.294L521.344,580.512L549.139,581.525Z" fill="#263238"/>
<path d="M481.407,125.812C481.012,126.808 480.17,127.427 479.517,127.186C478.864,126.946 478.658,125.932 479.053,124.936C479.448,123.939 480.29,123.218 480.943,123.544C481.596,123.871 481.802,124.798 481.407,125.812Z" fill="#263238"/>
<path d="M470.171,121.548C469.776,122.545 468.934,123.163 468.282,122.923C467.629,122.682 467.423,121.669 467.818,120.672C468.213,119.676 469.055,119.058 469.707,119.298C470.36,119.539 470.566,120.552 470.171,121.548Z" fill="#263238"/>
<path d="M473.539,123.457C471.153,126.097 468.426,128.408 465.431,130.328C465.918,131.069 466.563,131.693 467.321,132.153C468.079,132.614 468.929,132.9 469.811,132.991L473.539,123.457Z" fill="#ED893E"/>
<path d="M471.614,136.716C471.576,136.703 471.541,136.682 471.511,136.655C471.481,136.627 471.457,136.594 471.441,136.557C471.425,136.52 471.417,136.479 471.417,136.439C471.417,136.398 471.426,136.358 471.442,136.321C471.456,136.281 471.477,136.244 471.506,136.212C471.534,136.18 471.569,136.155 471.607,136.137C471.646,136.119 471.688,136.11 471.73,136.109C471.773,136.108 471.815,136.116 471.855,136.132C473.097,136.613 474.435,136.799 475.762,136.673C477.089,136.548 478.368,136.116 479.499,135.411C479.557,135.355 479.634,135.324 479.714,135.324C479.794,135.324 479.871,135.355 479.929,135.411C479.985,135.471 480.017,135.551 480.017,135.634C480.017,135.717 479.985,135.797 479.929,135.858C478.711,136.653 477.322,137.146 475.876,137.295C474.429,137.445 472.968,137.246 471.614,136.716L471.614,136.716Z" fill="#263238"/>
<path d="M486.165,123.317C486.074,123.287 485.993,123.235 485.927,123.166C485.861,123.097 485.813,123.013 485.787,122.922C485.61,122.15 485.247,121.433 484.729,120.834C484.211,120.235 483.554,119.772 482.815,119.486C482.737,119.463 482.665,119.424 482.603,119.372C482.541,119.32 482.489,119.256 482.453,119.184C482.416,119.112 482.394,119.033 482.388,118.952C482.383,118.871 482.393,118.79 482.42,118.713C482.442,118.634 482.479,118.559 482.53,118.494C482.581,118.43 482.644,118.376 482.716,118.336C482.788,118.296 482.867,118.27 482.949,118.261C483.031,118.253 483.114,118.26 483.193,118.284C484.121,118.617 484.953,119.174 485.615,119.905C486.277,120.636 486.749,121.519 486.989,122.475C487.013,122.555 487.021,122.639 487.012,122.722C487.003,122.805 486.978,122.886 486.939,122.959C486.899,123.033 486.845,123.097 486.78,123.15C486.715,123.202 486.64,123.242 486.56,123.265C486.438,123.326 486.299,123.344 486.165,123.317L486.165,123.317Z" fill="#263238"/>
<path d="M466.7,115.663C466.62,115.62 466.55,115.562 466.494,115.491C466.387,115.361 466.336,115.194 466.353,115.026C466.369,114.859 466.45,114.705 466.58,114.598C467.336,113.938 468.238,113.468 469.212,113.226C470.186,112.984 471.203,112.977 472.18,113.206C472.334,113.257 472.462,113.367 472.536,113.512C472.61,113.656 472.624,113.824 472.575,113.979C472.524,114.138 472.413,114.272 472.266,114.352C472.119,114.432 471.947,114.452 471.785,114.409C471.011,114.236 470.206,114.251 469.439,114.451C468.671,114.651 467.962,115.031 467.37,115.56C467.28,115.638 467.169,115.69 467.05,115.708C466.932,115.726 466.81,115.71 466.7,115.663L466.7,115.663Z" fill="#263238"/>
<path d="M507.26,190.23L525.675,184.234C525.675,184.234 542.631,227.422 548.918,229.93C557.507,233.365 574.806,242.436 585.594,244.6C586.831,246.421 588.498,252.021 587.965,253.997C572.504,258.017 541.033,249.53 534.832,243.982C520.693,231.287 507.26,190.23 507.26,190.23Z" fill="#FFB573"/>
<path d="M518.802,168.419C531.291,170.24 544.57,213.685 544.57,213.685L517.874,228.562C517.874,228.562 506.777,207.948 501.434,192.487C495.903,176.476 505.454,166.461 518.802,168.419Z" fill="#FF3874"/>
<path d="M544.585,208.996L551.336,220.763L518.852,234.523L513.097,222.172L544.585,208.996Z" fill="#CC2D5D"/>
<path d="M528.338,606.559C527.437,606.631 526.538,606.388 525.796,605.872C525.552,605.665 525.368,605.396 525.262,605.095C525.157,604.793 525.133,604.468 525.194,604.154C525.199,603.97 525.253,603.791 525.349,603.634C525.446,603.477 525.582,603.348 525.744,603.261C527.221,602.505 531.447,605.133 531.928,605.443C531.979,605.475 532.019,605.522 532.043,605.577C532.068,605.632 532.075,605.692 532.066,605.752C532.05,605.814 532.017,605.87 531.972,605.916C531.927,605.961 531.87,605.993 531.808,606.01C530.676,606.322 529.512,606.507 528.338,606.559L528.338,606.559ZM526.431,603.811C526.295,603.783 526.155,603.783 526.019,603.811C525.933,603.811 525.847,603.931 525.813,604.171C525.779,604.378 525.797,604.591 525.866,604.789C525.935,604.987 526.052,605.164 526.208,605.305C526.929,605.924 528.647,606.01 530.915,605.546C529.547,604.683 528.024,604.094 526.431,603.811L526.431,603.811Z" fill="#01008A"/>
<path d="M531.739,606.108L531.584,606.108C530.244,605.369 527.65,602.466 527.976,600.955C528.024,600.721 528.151,600.511 528.336,600.361C528.521,600.211 528.752,600.129 528.99,600.13C529.23,600.101 529.473,600.122 529.704,600.193C529.935,600.264 530.148,600.383 530.33,600.542C531.824,601.796 532.048,605.61 532.048,605.782C532.049,605.839 532.035,605.896 532.008,605.948C531.981,605.999 531.941,606.042 531.893,606.074C531.846,606.099 531.792,606.111 531.739,606.108L531.739,606.108ZM529.196,600.731L529.11,600.731C528.698,600.731 528.664,600.972 528.646,601.058C528.457,601.934 530.089,604.115 531.429,605.163C531.371,603.662 530.863,602.214 529.969,601.006C529.757,600.817 529.48,600.718 529.196,600.731L529.196,600.731Z" fill="#01008A"/>
<path d="M448.659,606.556C447.531,606.661 446.401,606.369 445.464,605.731C445.253,605.542 445.093,605.303 444.997,605.036C444.901,604.769 444.872,604.483 444.914,604.202C444.927,604.032 444.983,603.867 445.076,603.723C445.169,603.579 445.296,603.46 445.447,603.378C447.079,602.467 452.318,605.096 452.937,605.491C452.995,605.52 453.042,605.568 453.07,605.627C453.098,605.687 453.106,605.753 453.091,605.817C453.084,605.883 453.054,605.944 453.007,605.991C452.961,606.038 452.899,606.068 452.834,606.075C451.46,606.365 450.063,606.526 448.659,606.556L448.659,606.556ZM446.34,603.807C446.133,603.795 445.925,603.836 445.739,603.928C445.679,603.96 445.629,604.007 445.593,604.064C445.557,604.121 445.536,604.187 445.533,604.254C445.507,604.44 445.527,604.628 445.589,604.805C445.652,604.981 445.756,605.14 445.893,605.268C446.684,605.989 448.865,606.109 451.803,605.628C450.1,604.711 448.252,604.095 446.34,603.807L446.34,603.807Z" fill="#01008A"/>
<path d="M452.785,606.101L452.647,606.101C451.067,605.38 447.975,602.511 448.25,600.948C448.25,600.604 448.576,600.157 449.452,600.072C449.76,600.039 450.071,600.069 450.366,600.16C450.662,600.252 450.935,600.403 451.17,600.604C452.888,601.996 453.094,605.569 453.111,605.758C453.11,605.811 453.097,605.863 453.073,605.911C453.049,605.958 453.015,606 452.974,606.033C452.917,606.07 452.852,606.094 452.785,606.101ZM449.675,600.724L449.486,600.724C448.92,600.724 448.885,601.016 448.868,601.085C448.696,601.978 450.809,604.229 452.407,605.208C452.282,603.703 451.68,602.276 450.689,601.137C450.409,600.886 450.051,600.74 449.675,600.724L449.675,600.724Z" fill="#01008A"/>
<path d="M586.779,254.269L599.405,254.888L592.689,241.145C592.689,241.145 581.643,240.99 579.839,249.476L586.779,254.269Z" fill="#FFB573"/>
<path d="M609.61,248.273L602.928,236.145L592.689,241.178L599.406,254.921L609.61,248.273Z" fill="#FFB573"/>
<path d="M607.919,155.791L589.383,155.791L589.383,229.66L607.919,229.66L607.919,155.791Z" transform="rotate(172.86 598.651 192.726)" fill="#01008A"/>
<g opacity="0.5">
<path d="M609.42,179.678L590.884,179.678L590.884,253.546L609.42,253.546L609.42,179.678Z" transform="rotate(172.86 600.152 216.612)" fill="#FFFFFF"/>
</g>
<g opacity="0.5">
<path d="M609.42,179.678L590.884,179.678L590.884,253.546L609.42,253.546L609.42,179.678Z" transform="rotate(172.86 600.152 216.612)" fill="#01008A"/>
</g>
<path d="M573.379,516.3L215.049,487.594C210.552,487.222 206.386,485.086 203.46,481.65C200.534,478.216 199.087,473.764 199.433,469.264L214.997,274.94C215.378,270.451 217.519,266.295 220.953,263.379C224.387,260.464 228.836,259.025 233.327,259.376L591.657,288.065C596.143,288.463 600.293,290.607 603.213,294.036C606.133,297.464 607.591,301.902 607.273,306.394L591.709,500.736C591.297,505.212 589.147,509.35 585.721,512.26C582.293,515.17 577.863,516.62 573.379,516.3L573.379,516.3Z" fill="#01008A"/>
<g opacity="0.4">
<path d="M573.379,516.3L215.049,487.594C210.552,487.222 206.386,485.086 203.46,481.65C200.534,478.216 199.087,473.764 199.433,469.264L214.997,274.94C215.378,270.451 217.519,266.295 220.953,263.379C224.387,260.464 228.836,259.025 233.327,259.376L591.657,288.065C596.143,288.463 600.293,290.607 603.213,294.036C606.133,297.464 607.591,301.902 607.273,306.394L591.709,500.736C591.297,505.212 589.147,509.35 585.721,512.26C582.293,515.17 577.863,516.62 573.379,516.3L573.379,516.3Z" fill="#000000"/>
</g>
<path d="M567.013,515.827L208.684,487.139C204.198,486.741 200.048,484.597 197.127,481.169C194.207,477.741 192.749,473.303 193.069,468.809L208.633,274.467C209.031,269.981 211.175,265.831 214.604,262.911C218.032,259.99 222.47,258.532 226.962,258.852L585.291,287.54C589.765,287.939 593.903,290.073 596.823,293.487C599.741,296.9 601.207,301.32 600.907,305.801L585.343,500.143C584.961,504.643 582.825,508.809 579.395,511.745C575.965,514.679 571.517,516.147 567.013,515.827L567.013,515.827Z" fill="#01008A"/>
<path d="M581.056,492.074L198.573,461.445C197.824,461.388 197.128,461.036 196.638,460.466C196.149,459.895 195.905,459.154 195.962,458.405L209.31,291.772C209.367,291.022 209.719,290.326 210.29,289.836C210.86,289.347 211.601,289.104 212.351,289.16L594.85,319.79C595.232,319.82 595.604,319.926 595.942,320.103C596.282,320.279 596.582,320.522 596.826,320.817C597.07,321.112 597.252,321.453 597.36,321.819C597.47,322.186 597.504,322.571 597.462,322.951L584.114,489.584C584.028,490.314 583.66,490.984 583.09,491.448C582.518,491.912 581.79,492.138 581.056,492.074L581.056,492.074Z" fill="#FFFFFF"/>
<path d="M234.045,284.84C233.781,284.857 233.517,284.857 233.254,284.84C230.707,284.736 228.302,283.639 226.556,281.782C224.809,279.926 223.859,277.458 223.911,274.91C223.963,272.361 225.012,269.935 226.832,268.151C228.653,266.366 231.1,265.367 233.649,265.367C236.199,265.367 238.646,266.366 240.467,268.151C242.287,269.935 243.336,272.361 243.388,274.91C243.439,277.458 242.49,279.926 240.743,281.782C238.996,283.639 236.592,284.736 234.045,284.84L234.045,284.84ZM234.045,266.63C231.825,266.718 229.728,267.673 228.204,269.29C226.68,270.906 225.851,273.056 225.895,275.278C225.939,277.499 226.852,279.614 228.438,281.17C230.025,282.725 232.158,283.596 234.38,283.596C236.601,283.596 238.734,282.725 240.321,281.17C241.907,279.614 242.82,277.499 242.864,275.278C242.908,273.056 242.079,270.906 240.555,269.29C239.032,267.673 236.934,266.718 234.715,266.63L234.045,266.63Z" fill="#FFFFFF"/>
<path d="M262.208,287.095L261.418,287.095C258.72,286.992 256.171,285.834 254.318,283.871C252.465,281.908 251.456,279.297 251.508,276.598C251.56,273.899 252.668,271.328 254.595,269.438C256.522,267.547 259.114,266.488 261.813,266.488C264.512,266.488 267.104,267.547 269.031,269.438C270.958,271.328 272.067,273.899 272.118,276.598C272.17,279.297 271.161,281.908 269.308,283.871C267.455,285.834 264.906,286.992 262.208,287.095ZM262.208,268.886C260.855,268.885 259.521,269.211 258.32,269.836C257.12,270.462 256.088,271.368 255.313,272.478C254.538,273.588 254.043,274.869 253.87,276.211C253.697,277.554 253.851,278.918 254.318,280.188C254.786,281.459 255.554,282.597 256.556,283.507C257.559,284.417 258.766,285.07 260.076,285.413C261.385,285.756 262.758,285.777 264.078,285.474C265.397,285.172 266.624,284.555 267.654,283.677C268.496,282.964 269.187,282.092 269.689,281.11C270.19,280.128 270.491,279.056 270.574,277.956L270.574,277.956C270.75,275.738 270.038,273.54 268.595,271.846C267.152,270.152 265.096,269.1 262.878,268.92L262.208,268.886Z" fill="#FFFFFF"/>
<path d="M290.315,289.381L289.525,289.381C286.992,289.278 284.6,288.185 282.863,286.339C281.126,284.492 280.182,282.038 280.233,279.503C280.285,276.968 281.328,274.554 283.139,272.78C284.95,271.006 287.385,270.012 289.92,270.012C292.456,270.012 294.89,271.006 296.701,272.78C298.512,274.554 299.555,276.968 299.607,279.503C299.659,282.038 298.715,284.492 296.978,286.339C295.24,288.185 292.849,289.278 290.315,289.381L290.315,289.381ZM290.315,271.172C288.15,271.259 286.106,272.192 284.62,273.771C283.135,275.349 282.328,277.446 282.372,279.613C282.416,281.779 283.307,283.842 284.855,285.359C286.403,286.876 288.483,287.725 290.65,287.725C292.817,287.725 294.898,286.876 296.446,285.359C297.993,283.842 298.885,281.779 298.929,279.613C298.973,277.446 298.165,275.349 296.68,273.771C295.195,272.192 293.151,271.259 290.985,271.172L290.315,271.172Z" fill="#FFFFFF"/>
<path d="M316.313,298.039L297.777,298.039L297.777,371.907L316.313,371.907L316.313,298.039Z" transform="rotate(189.16 307.045 334.973)" fill="#01008A"/>
<path d="M478.752,335.054L460.216,335.054L460.216,408.922L478.752,408.922L478.752,335.054Z" transform="rotate(189.16 469.484 371.988)" fill="#01008A"/>
<g opacity="0.5">
<path d="M394.664,352.296L376.128,352.296L376.128,426.165L394.664,426.165L394.664,352.296Z" transform="rotate(189.16 385.396 389.23)" fill="#01008A"/>
</g>
<g opacity="0.5">
<path d="M308.676,393.464L290.14,393.464L290.14,467.333L308.676,467.333L308.676,393.464Z" transform="rotate(189.16 299.408 430.398)" fill="#01008A"/>
</g>
<path d="M559.007,365.503L540.471,365.503L540.471,439.372L559.007,439.372L559.007,365.503Z" transform="rotate(189.16 549.739 402.438)" fill="#01008A"/>
<g opacity="0.5">
<path d="M557.086,389.363L538.55,389.363L538.55,463.231L557.086,463.231L557.086,389.363Z" transform="rotate(189.16 547.818 426.297)" fill="#01008A"/>
</g>
<path d="M473.007,406.664L454.471,406.664L454.471,480.532L473.007,480.532L473.007,406.664Z" transform="rotate(189.16 463.739 443.598)" fill="#01008A"/>
<path d="M595.583,346.482L595.583,345.64L513.831,339.095L515.875,313.55L515.033,313.55L512.989,339.095L431.665,332.584L433.709,307.039L432.851,307.039L430.807,332.584L349.482,326.073L351.527,300.529L350.685,300.529L348.726,325.867L267.403,319.356L269.43,293.777L268.588,293.777L266.544,319.322L207.501,314.598L207.501,315.44L266.544,320.164L264.551,343.166L205.594,338.442L205.594,339.301L264.551,344.008L262.713,367.027L203.67,362.303L203.67,363.145L262.713,367.886L260.875,390.906L201.832,386.181L201.832,387.023L260.737,391.696L258.882,414.732L199.856,409.991L199.856,410.85L258.899,415.574L257.044,438.593L198.001,433.869L198.001,434.711L257.027,439.452L254.914,465.925L255.756,465.925L257.886,439.435L339.21,445.963L337.079,472.435L337.938,472.435L340.051,445.946L421.375,452.457L419.159,479.135L420.001,479.135L422.113,452.646L503.437,459.156L501.325,485.646L502.167,485.646L504.297,459.156L586.033,465.701L586.033,464.86L504.297,458.315L506.135,435.295L587.887,441.84L587.887,440.981L506.255,434.642L508.093,411.623L589.847,418.168L589.847,417.326L508.093,410.781L509.949,387.745L591.685,394.29L591.685,393.448L509.949,386.903L511.787,363.883L593.539,370.429L593.539,369.57L511.923,362.956L513.761,339.936L595.583,346.482ZM430.807,333.288L428.969,356.325L347.644,349.814L349.482,326.778L430.807,333.288ZM343.831,397.554L345.669,374.534L426.993,381.045L425.155,404.064L343.831,397.554ZM425.085,404.906L423.231,427.943L341.855,421.415L343.71,398.395L425.085,404.906ZM345.737,373.675L347.576,350.656L428.899,357.167L427.061,380.186L345.737,373.675ZM267.317,320.198L348.726,326.709L346.888,349.745L265.565,343.235L267.317,320.198ZM265.41,344.076L346.734,350.587L344.878,373.607L263.555,367.096L265.41,344.076ZM263.486,367.955L344.81,374.517L342.972,397.536L261.648,391.026L263.486,367.955ZM261.579,391.816L342.903,398.327L341.065,421.363L259.741,414.853L261.579,391.816ZM257.834,438.714L259.672,415.694L340.996,422.205L339.158,445.224L257.834,438.714ZM340,445.293L341.855,422.274L423.179,428.784L421.323,451.821L340,445.293ZM503.489,458.383L422.165,451.821L424.021,428.802L505.345,435.312L503.489,458.383ZM505.413,434.505L424.089,427.994L425.927,404.975L507.251,411.486L505.413,434.505ZM507.319,410.592L426.031,404.133L427.869,381.114L509.193,387.624L507.319,410.592ZM509.227,386.714L427.903,380.203L429.741,357.184L511.065,363.695L509.227,386.714ZM511.133,362.853L429.809,356.342L431.665,333.288L512.989,339.799L511.133,362.853Z" fill="#E8EAFF"/>
</svg>
