<svg width="36" height="32" viewBox="0 0 36 32" fill="none" xmlns="http://www.w3.org/2000/svg" xmlns:xlink="http://www.w3.org/1999/xlink">
<path d="M33.354,13.252L19.196,0.184C18.575,-0.373 17.77,-0.681 16.937,-0.681C16.103,-0.681 15.298,-0.373 14.678,0.184L0.536,13.244L0.522,13.258C0.23,13.52 -0.004,13.841 -0.164,14.2C-0.324,14.559 -0.406,14.947 -0.406,15.34C-0.406,15.732 -0.324,16.121 -0.164,16.479C-0.004,16.838 0.23,17.159 0.522,17.422C1.103,17.952 1.855,18.257 2.642,18.282L2.74,18.282L3.304,18.282L3.304,27.898C3.342,28.851 3.757,29.75 4.458,30.397C5.159,31.045 6.088,31.387 7.042,31.35L12.586,31.35C12.843,31.358 13.094,31.264 13.283,31.089C13.472,30.914 13.584,30.671 13.596,30.414L13.596,22.874C13.614,22.439 13.804,22.03 14.124,21.735C14.443,21.44 14.867,21.284 15.302,21.3L18.574,21.3C19.008,21.284 19.432,21.44 19.751,21.735C20.071,22.03 20.261,22.439 20.28,22.874L20.28,30.414C20.29,30.673 20.404,30.917 20.594,31.093C20.784,31.268 21.037,31.362 21.296,31.352L26.832,31.352C27.785,31.389 28.714,31.047 29.415,30.399C30.116,29.752 30.531,28.853 30.57,27.9L30.57,18.286L31.094,18.286C31.928,18.293 32.735,17.984 33.352,17.422C33.645,17.159 33.879,16.838 34.04,16.479C34.2,16.12 34.283,15.731 34.284,15.337C34.284,14.944 34.201,14.555 34.041,14.195C33.881,13.836 33.646,13.514 33.354,13.252L33.354,13.252Z" fill="#333333"/>
</svg>
