<svg width="36" height="32" viewBox="0 0 36 32" fill="none" xmlns="http://www.w3.org/2000/svg" xmlns:xlink="http://www.w3.org/1999/xlink">
<path d="M33.354,13.216L19.196,0.148C18.575,-0.409 17.77,-0.717 16.937,-0.717C16.103,-0.717 15.298,-0.409 14.678,0.148L0.536,13.208L0.522,13.222C0.23,13.484 -0.004,13.805 -0.164,14.164C-0.324,14.523 -0.406,14.911 -0.406,15.304C-0.406,15.696 -0.324,16.085 -0.164,16.443C-0.004,16.802 0.23,17.123 0.522,17.386C1.103,17.916 1.855,18.221 2.642,18.246L2.74,18.246L3.304,18.246L3.304,27.862C3.342,28.815 3.757,29.714 4.458,30.361C5.159,31.008 6.088,31.351 7.042,31.314L12.586,31.314C12.843,31.322 13.094,31.228 13.283,31.053C13.472,30.878 13.584,30.635 13.596,30.378L13.596,22.838C13.614,22.403 13.804,21.994 14.124,21.699C14.443,21.404 14.867,21.247 15.302,21.264L18.574,21.264C19.008,21.247 19.432,21.404 19.751,21.699C20.071,21.994 20.261,22.403 20.28,22.838L20.28,30.378C20.29,30.637 20.404,30.881 20.594,31.056C20.784,31.232 21.037,31.325 21.296,31.316L26.832,31.316C27.785,31.353 28.714,31.01 29.415,30.363C30.116,29.716 30.531,28.817 30.57,27.864L30.57,18.25L31.094,18.25C31.928,18.256 32.735,17.948 33.352,17.386C33.645,17.123 33.879,16.802 34.04,16.443C34.2,16.083 34.283,15.695 34.284,15.301C34.284,14.908 34.201,14.519 34.041,14.159C33.881,13.8 33.646,13.478 33.354,13.216L33.354,13.216Z" fill="#333333"/>
</svg>
