<svg width="36" height="34" viewBox="0 0 36 34" fill="none" xmlns="http://www.w3.org/2000/svg" xmlns:xlink="http://www.w3.org/1999/xlink">
<path d="M33.354,14.482L19.196,1.414C18.575,0.858 17.77,0.55 16.937,0.55C16.103,0.55 15.298,0.858 14.678,1.414L0.536,14.474L0.522,14.488C0.23,14.751 -0.004,15.072 -0.164,15.431C-0.324,15.789 -0.406,16.178 -0.406,16.57C-0.406,16.963 -0.324,17.351 -0.164,17.71C-0.004,18.069 0.23,18.39 0.522,18.652C1.103,19.182 1.855,19.487 2.642,19.512L2.74,19.512L3.304,19.512L3.304,29.128C3.342,30.081 3.757,30.98 4.458,31.628C5.159,32.275 6.088,32.618 7.042,32.58L12.586,32.58C12.843,32.588 13.094,32.495 13.283,32.319C13.472,32.144 13.584,31.902 13.596,31.644L13.596,24.104C13.614,23.67 13.804,23.26 14.124,22.965C14.443,22.67 14.867,22.514 15.302,22.53L18.574,22.53C19.008,22.514 19.432,22.67 19.751,22.965C20.071,23.26 20.261,23.67 20.28,24.104L20.28,31.644C20.29,31.903 20.404,32.147 20.594,32.323C20.784,32.499 21.037,32.592 21.296,32.582L26.832,32.582C27.785,32.62 28.714,32.277 29.415,31.63C30.116,30.982 30.531,30.083 30.57,29.13L30.57,19.516L31.094,19.516C31.928,19.523 32.735,19.214 33.352,18.652C33.645,18.39 33.879,18.068 34.04,17.709C34.2,17.35 34.283,16.961 34.284,16.568C34.284,16.174 34.201,15.785 34.041,15.426C33.881,15.066 33.646,14.745 33.354,14.482L33.354,14.482Z" fill="#333333"/>
</svg>
