<svg width="44" height="36" viewBox="0 0 44 36" fill="none" xmlns="http://www.w3.org/2000/svg" xmlns:xlink="http://www.w3.org/1999/xlink">
<path d="M41.25,31.253C42.769,31.253 44,32.253 44,33.485C44,34.718 42.769,35.718 41.25,35.718L2.75,35.718C1.231,35.718 0,34.718 0,33.485C0,32.253 1.231,31.253 2.75,31.253L41.25,31.253ZM41.25,15.626C42.769,15.626 44,16.626 44,17.859C44,19.092 42.769,20.091 41.25,20.091L2.75,20.091C1.231,20.091 0,19.092 0,17.859C0,16.626 1.231,15.626 2.75,15.626L41.25,15.626ZM41.25,0C42.769,0 44,0.999 44,2.232C44,3.465 42.769,4.465 41.25,4.465L2.75,4.465C1.231,4.465 0,3.465 0,2.232C0,0.999 1.231,0 2.75,0L41.25,0Z" clip-rule="evenodd" fill-rule="evenodd" fill="#FFFFFF"/>
</svg>
