<svg width="58" height="40" viewBox="0 0 58 40" fill="none" xmlns="http://www.w3.org/2000/svg" xmlns:xlink="http://www.w3.org/1999/xlink">
<path d="M23.457,7.042C22.608,4.084 24.483,0.897 27.509,0.155C29.532,-0.341 31.68,0.371 33.186,2.038C34.459,3.448 34.904,5.741 34.223,7.39C34.096,7.697 34.445,7.872 36.038,8.298C45.709,10.886 53.176,19.346 54.527,29.242L54.732,30.748L28.888,30.748L3.043,30.748L3.161,29.724C3.52,26.6 4.81,22.745 6.381,20.1C9.73,14.462 15.618,9.921 21.645,8.329L23.672,7.794L23.457,7.042Z" fill="#5062F6"/>
<path d="M0.105,39.183L0.105,36.411L0.105,33.64L28.905,33.64L57.704,33.64L57.704,36.411L57.704,39.183L28.905,39.183L0.105,39.183Z" fill="#5062F6"/>
</svg>
