<svg width="24" height="48" viewBox="0 0 24 48" fill="none" xmlns="http://www.w3.org/2000/svg" xmlns:xlink="http://www.w3.org/1999/xlink">
<path d="M17.766,12.244L19.532,6.122L21.298,0L22.17,0.307C22.813,0.533 23.022,0.733 22.966,1.066C22.924,1.316 22.191,3.931 21.339,6.878C20.487,9.825 19.789,12.293 19.789,12.361C19.789,12.429 20.494,12.485 21.356,12.485C22.444,12.485 22.925,12.577 22.93,12.786C22.935,12.952 21.986,20.597 20.822,29.776L18.705,46.465L11.414,46.465C7.405,46.466 4.124,46.404 4.124,46.329C4.124,45.975 0.002,13.487 -0.117,12.907L-0.252,12.244L8.757,12.244L17.766,12.244Z" fill="#5062F6"/>
</svg>
