<svg width="34" height="44" viewBox="0 0 34 44" fill="none" xmlns="http://www.w3.org/2000/svg" xmlns:xlink="http://www.w3.org/1999/xlink">
<g filter="url(#filter1110_908)">
<path d="M8.622,25.178L6.432,21.832C4.937,19.547 1.751,18.713 -0.686,19.966L-0.118,19.674C-0.723,19.985 -1.013,20.76 -0.764,21.404L2.268,29.248C2.749,30.492 3.976,32.25 4.994,33.134C4.994,33.134 11.093,38.182 11.093,40.075L11.093,42.471L20.974,42.471L23.445,37.53L25.915,42.471L28.385,42.471L28.385,40.075C28.385,38.182 32.113,32.221 32.113,32.221C32.799,31.062 33.371,29.02 33.371,27.665L33.371,17.698C33.326,15.491 31.45,13.702 29.136,13.702C27.978,13.702 27.04,14.597 27.04,15.701L27.04,16.499C27.04,14.292 25.164,12.504 22.849,12.504C21.691,12.504 20.753,13.398 20.753,14.502L20.753,15.3C20.753,13.094 18.878,11.305 16.563,11.305C15.405,11.305 14.467,12.199 14.467,13.303L14.467,14.102C14.467,13.747 14.429,13.465 14.356,13.242L13.717,2.948C13.63,1.556 12.457,0.475 11.093,0.475C9.719,0.475 8.622,1.581 8.622,2.945L8.622,12.827L8.622,25.178ZM25.959,22.707L28.429,22.707L28.429,32.589L25.959,32.589L25.959,22.707L25.959,22.707ZM21.018,22.707L23.488,22.707L23.488,32.589L21.018,32.589L21.018,22.707L21.018,22.707ZM16.077,22.707L18.547,22.707L18.547,32.589L16.077,32.589L16.077,22.707L16.077,22.707Z" clip-rule="evenodd" fill-rule="evenodd" transform="rotate(-18.464 16.259 21.473)" fill="#FFFFFF" stroke="#000000" stroke-opacity="0.8" stroke-width="1.235" stroke-miterlimit="3.999327"/>
</g>
<defs>
<filter id="filter1110_908" x="-7.705538" y="-5.703987" width="27.669965" height="30.882441" filterUnits="userSpaceOnUse" color-interpolation-filters="sRGB">
<feFlood flood-opacity="0" result="BackgroundImageFix"/>
<feColorMatrix in="SourceAlpha" type="matrix" values="0 0 0 0 0 0 0 0 0 0 0 0 0 0 0 0 0 0 127 0" result="hardAlpha"/>
<feMorphology radius="0" operator="dilate" in="SourceAlpha" result="0dropshadow"/>
<feOffset dx="0" dy="1.235179"/>
<feGaussianBlur stdDeviation="1.852769"/>
<feComposite in2="hardAlpha" operator="out"/>
<feColorMatrix type="matrix" values="0 0 0 0 0 0 0 0 0 0 0 0 0 0 0 0 0 0 0.2 0"/>
<feBlend mode="normal" in2="BackgroundImageFix" result="0dropshadow"/>
<feBlend mode="normal" in="SourceGraphic" in2="0dropshadow" result="shape"/>
</filter>
</defs>
</svg>
