<svg width="44" height="44" viewBox="0 0 44 44" fill="none" xmlns="http://www.w3.org/2000/svg" xmlns:xlink="http://www.w3.org/1999/xlink">
<path d="M21.999,41.985C32.994,41.985 41.983,32.996 41.983,22.001L38.683,22.001C38.683,31.173 31.171,38.685 21.999,38.685L21.999,41.985ZM41.983,22.001C41.983,11.007 32.994,2.018 21.999,2.018L21.999,5.318C31.171,5.318 38.683,12.829 38.683,22.001L41.983,22.001ZM21.999,2.018C11.005,2.018 2.016,11.007 2.016,22.001L5.316,22.001C5.316,12.829 12.827,5.318 21.999,5.318L21.999,2.018ZM2.016,22.001C2.016,32.996 11.005,41.985 21.999,41.985L21.999,38.685C12.827,38.685 5.316,31.173 5.316,22.001L2.016,22.001Z" fill="#929292"/>
<line x1="23.644" y1="29.168" x2="23.644" y2="20.001" stroke="#929292" stroke-width="1.65" stroke-miterlimit="3.999327" stroke-linecap="round" stroke-linejoin="round"/>
<path d="M21.989,11.017C21.078,11.017 20.339,11.755 20.339,12.667C20.339,13.578 21.078,14.317 21.989,14.317L21.989,11.017ZM22.006,14.317C22.917,14.317 23.656,13.578 23.656,12.667C23.656,11.755 22.917,11.017 22.006,11.017L22.006,14.317ZM21.989,14.317L22.006,14.317L22.006,11.017L21.989,11.017L21.989,14.317Z" transform="rotate(360 21.998 13.583)" fill="#929292"/>
</svg>
