<svg width="84" height="70" viewBox="0 0 84 70" fill="none" xmlns="http://www.w3.org/2000/svg" xmlns:xlink="http://www.w3.org/1999/xlink">
<path d="M13.428,45.799C14.045,46.303 14.952,46.211 15.456,45.594C15.959,44.978 15.867,44.07 15.251,43.566L13.428,45.799ZM3.329,34.031L4.578,33.312L4.577,33.31L3.329,34.031ZM17.095,7.3C17.873,7.133 18.369,6.368 18.203,5.589C18.036,4.811 17.27,4.315 16.492,4.481L17.095,7.3ZM14.339,44.683C15.251,43.566 15.251,43.566 15.251,43.566C15.251,43.566 15.25,43.566 15.25,43.566C15.25,43.566 15.25,43.566 15.249,43.565C15.248,43.565 15.247,43.563 15.245,43.562C15.241,43.558 15.234,43.553 15.226,43.546C15.209,43.533 15.184,43.512 15.151,43.485C15.084,43.43 14.986,43.349 14.86,43.245C14.608,43.036 14.245,42.733 13.804,42.36C12.921,41.613 11.726,40.586 10.477,39.464C9.225,38.339 7.931,37.13 6.845,36.016C5.73,34.872 4.932,33.926 4.578,33.312L2.081,34.751C2.632,35.709 3.663,36.88 4.782,38.028C5.93,39.205 7.275,40.462 8.55,41.608C9.827,42.755 11.045,43.802 11.943,44.561C12.393,44.941 12.763,45.25 13.021,45.464C13.15,45.571 13.251,45.654 13.32,45.711C13.355,45.739 13.382,45.761 13.4,45.776C13.409,45.784 13.416,45.789 13.42,45.793C13.423,45.795 13.425,45.797 13.426,45.798C13.427,45.798 13.427,45.799 13.427,45.799C13.428,45.799 13.428,45.799 13.428,45.799C13.428,45.799 13.428,45.799 14.339,44.683ZM4.577,33.31C2.04,28.923 2.251,23.056 4.654,17.876C7.051,12.71 11.509,8.495 17.095,7.3L16.492,4.481C9.837,5.905 4.731,10.862 2.04,16.663C-0.645,22.45 -1.046,29.345 2.082,34.753L4.577,33.31Z" fill="#18A83D"/>
<path d="M45.541,42.18C44.842,41.799 43.967,42.057 43.586,42.756C43.205,43.455 43.463,44.33 44.162,44.711L45.541,42.18ZM60.786,53.766C61.485,54.146 62.36,53.888 62.741,53.189C63.122,52.491 62.864,51.615 62.165,51.235L60.786,53.766ZM44.162,44.711L60.786,53.766L62.165,51.235L45.541,42.18L44.162,44.711Z" fill="#18A83D"/>
<path d="M39.256,48.348C38.544,47.992 37.678,48.28 37.322,48.992C36.966,49.704 37.255,50.57 37.967,50.926L39.256,48.348ZM54.733,59.306C55.445,59.662 56.31,59.373 56.666,58.661C57.022,57.949 56.733,57.084 56.022,56.728L54.733,59.306ZM37.967,50.926L54.733,59.306L56.022,56.728L39.256,48.348L37.967,50.926Z" fill="#18A83D"/>
<path d="M69.025,48.061C69.631,48.578 70.54,48.506 71.057,47.901C71.574,47.296 71.503,46.387 70.898,45.869L69.025,48.061ZM63.384,41.345L64.321,40.249C64.238,40.179 64.149,40.118 64.053,40.068L63.384,41.345ZM53.376,34.477C52.67,34.108 51.8,34.38 51.43,35.085C51.061,35.791 51.333,36.661 52.039,37.031L53.376,34.477ZM70.898,45.869L64.321,40.249L62.448,42.44L69.025,48.061L70.898,45.869ZM64.053,40.068L53.376,34.477L52.039,37.031L62.716,42.621L64.053,40.068Z" fill="#18A83D"/>
<path d="M44.054,59.383C43.383,58.955 42.492,59.153 42.064,59.824C41.636,60.495 41.833,61.386 42.504,61.814L44.054,59.383ZM55.385,58.027L56.122,56.788C55.519,56.43 54.747,56.557 54.291,57.089C53.835,57.621 53.828,58.404 54.274,58.945L55.385,58.027ZM61.487,52.503L62.111,51.204C61.577,50.948 60.94,51.044 60.506,51.447C60.072,51.85 59.929,52.478 60.145,53.03L61.487,52.503ZM69.971,46.979L70.224,45.561C69.77,45.48 69.305,45.621 68.973,45.94C68.641,46.259 68.481,46.718 68.544,47.174L69.971,46.979ZM75.691,40.026L74.879,38.835C74.362,39.188 74.132,39.834 74.309,40.434L75.691,40.026ZM75.564,7.319L76.683,6.411C76.458,6.134 76.139,5.951 75.787,5.896L75.564,7.319ZM48.506,2.234L48.732,0.811C48.679,0.802 48.626,0.797 48.572,0.794L48.506,2.234ZM31.057,1.436L30.689,2.83C30.788,2.856 30.889,2.871 30.991,2.876L31.057,1.436ZM24.893,4.703L23.536,4.22C23.523,4.257 23.511,4.294 23.501,4.331L24.893,4.703ZM20.252,15.508L18.997,14.8C18.967,14.853 18.94,14.908 18.918,14.964L20.252,15.508ZM22.666,21.425L22.097,22.749C22.169,22.78 22.242,22.805 22.317,22.823L22.666,21.425ZM28.418,19.251L29.3,20.39C29.34,20.36 29.378,20.327 29.415,20.292L28.418,19.251ZM33.325,13.35L33.922,12.039C33.305,11.758 32.575,11.945 32.17,12.489L33.325,13.35ZM50.917,21.352L51.624,20.096C51.588,20.076 51.551,20.057 51.513,20.04L50.917,21.352ZM67.321,30.591L68.128,29.397C68.096,29.375 68.063,29.354 68.029,29.335L67.321,30.591ZM74.705,41.059C75.272,41.618 76.185,41.611 76.744,41.044C77.302,40.478 77.296,39.565 76.729,39.006L74.705,41.059ZM42.504,61.814C48.181,65.433 52.353,65.717 54.958,63.976C56.232,63.124 56.966,61.872 57.223,60.638C57.47,59.449 57.304,58.087 56.496,57.109L54.274,58.945C54.371,59.062 54.526,59.45 54.401,60.05C54.286,60.605 53.953,61.181 53.356,61.58C52.221,62.339 49.435,62.814 44.054,59.383L42.504,61.814ZM54.649,59.266C56.885,60.595 59.536,60.436 61.361,59.007C63.263,57.518 63.976,54.901 62.828,51.977L60.145,53.03C60.903,54.962 60.328,56.155 59.585,56.738C58.764,57.38 57.411,57.555 56.122,56.788L54.649,59.266ZM60.863,53.802C63.782,55.205 66.619,54.863 68.655,53.368C70.655,51.9 71.756,49.402 71.399,46.785L68.544,47.174C68.758,48.747 68.096,50.202 66.949,51.044C65.84,51.859 64.149,52.184 62.111,51.204L60.863,53.802ZM69.719,48.398C72.323,48.861 74.615,48.028 76.029,46.261C77.421,44.522 77.802,42.084 77.073,39.617L74.309,40.434C74.819,42.158 74.484,43.579 73.779,44.46C73.097,45.312 71.909,45.86 70.224,45.561L69.719,48.398ZM76.503,41.216C81.469,37.828 83.097,31.026 82.803,24.452C82.507,17.813 80.24,10.792 76.683,6.411L74.445,8.228C77.516,12.01 79.647,18.386 79.924,24.581C80.204,30.84 78.581,36.31 74.879,38.835L76.503,41.216ZM75.787,5.896C69.838,4.961 66.322,4.206 62.671,3.426C59.002,2.643 55.204,1.836 48.732,0.811L48.281,3.657C54.68,4.671 58.421,5.466 62.069,6.245C65.735,7.028 69.312,7.796 75.34,8.743L75.787,5.896ZM48.572,0.794L31.123,-0.003L30.991,2.876L48.441,3.674L48.572,0.794ZM31.425,0.043C28.11,-0.832 24.685,0.987 23.536,4.22L26.251,5.186C26.902,3.356 28.832,2.34 30.689,2.83L31.425,0.043ZM23.501,4.331C22.571,7.814 21.435,10.479 18.997,14.8L21.507,16.216C24.027,11.75 25.276,8.856 26.286,5.075L23.501,4.331ZM18.918,14.964C17.683,17.991 19.093,21.459 22.097,22.749L23.235,20.101C21.681,19.434 20.942,17.632 21.586,16.052L18.918,14.964ZM22.317,22.823C23.852,23.207 25.094,23.061 26.274,22.497C27.314,22 28.311,21.156 29.3,20.39L27.536,18.111C26.359,19.022 25.71,19.572 25.031,19.897C24.492,20.155 23.941,20.258 23.016,20.027L22.317,22.823ZM29.415,20.292C32.359,17.473 33.018,16.174 34.481,14.212L32.17,12.489C30.597,14.6 30.139,15.607 27.421,18.21L29.415,20.292ZM32.729,14.662L50.32,22.663L51.513,20.04L33.922,12.039L32.729,14.662ZM50.21,22.607L66.614,31.847L68.029,29.335L51.624,20.096L50.21,22.607ZM66.515,31.785C67.927,32.739 69.42,34.453 70.877,36.309C71.615,37.247 72.248,38.097 72.908,38.946C73.531,39.747 74.147,40.508 74.705,41.059L76.729,39.006C76.322,38.605 75.81,37.983 75.184,37.177C74.596,36.42 73.859,35.438 73.144,34.528C71.697,32.687 69.958,30.633 68.128,29.397L66.515,31.785Z" fill="#18A83D"/>
<path d="M35.568,57.839L34.127,57.839C34.127,58.459 34.524,59.009 35.112,59.206C35.701,59.402 36.348,59.2 36.721,58.704L35.568,57.839ZM40.913,56.678L41.634,55.43C41.625,55.425 41.616,55.42 41.607,55.415L40.913,56.678ZM42.819,61.917L44.07,62.633L44.074,62.626L42.819,61.917ZM40.531,65.917L41.684,66.782C41.719,66.734 41.752,66.684 41.782,66.632L40.531,65.917ZM34.622,66.774L33.758,67.927L33.768,67.935L34.622,66.774ZM33.234,61.827L31.99,61.099C31.952,61.164 31.919,61.232 31.892,61.301L33.234,61.827ZM35.568,57.837L37.01,57.837C37.01,57.186 36.573,56.616 35.945,56.446C35.317,56.275 34.653,56.547 34.324,57.109L35.568,57.837ZM36.721,58.704C37.258,57.989 37.826,57.667 38.344,57.564C38.87,57.459 39.505,57.548 40.218,57.94L41.607,55.415C40.415,54.759 39.092,54.476 37.78,54.737C36.461,55 35.309,55.784 34.416,56.973L36.721,58.704ZM40.191,57.925C40.909,58.34 41.445,58.898 41.695,59.457C41.918,59.955 41.953,60.521 41.564,61.209L44.074,62.626C44.925,61.12 44.912,59.59 44.326,58.279C43.766,57.028 42.728,56.063 41.634,55.43L40.191,57.925ZM41.568,61.202L39.28,65.201L41.782,66.632L44.07,62.633L41.568,61.202ZM39.379,65.051C38.445,66.295 36.68,66.5 35.476,65.613L33.768,67.935C36.185,69.714 39.756,69.349 41.684,66.782L39.379,65.051ZM35.486,65.621C34.449,64.844 34.13,63.492 34.576,62.352L31.892,61.301C31.007,63.561 31.611,66.319 33.758,67.927L35.486,65.621ZM34.478,62.555C35.062,61.557 35.353,61.058 35.499,60.809C35.572,60.684 35.609,60.622 35.627,60.591C35.636,60.575 35.641,60.567 35.643,60.563C35.644,60.561 35.645,60.56 35.645,60.56C35.645,60.56 35.645,60.559 35.645,60.559C35.645,60.559 35.645,60.559 35.645,60.559C35.645,60.559 35.645,60.559 35.646,60.559C35.646,60.559 35.646,60.558 35.646,60.558C35.646,60.558 35.647,60.557 35.647,60.556C35.648,60.555 35.65,60.55 35.652,60.547C35.831,60.015 35.792,59.455 35.792,59.455C35.792,59.455 35.831,60.015 35.652,60.547C35.65,60.55 35.648,60.555 35.647,60.556C35.647,60.557 35.646,60.558 35.646,60.558C35.646,60.558 35.646,60.558 35.646,60.559C35.645,60.559 35.645,60.559 35.645,60.559C35.645,60.559 35.645,60.559 35.645,60.559C35.645,60.559 35.645,60.559 35.645,60.559C35.646,60.558 35.646,60.557 35.647,60.555C35.65,60.552 35.654,60.544 35.663,60.528C35.682,60.497 35.718,60.435 35.791,60.31C35.937,60.061 36.229,59.562 36.812,58.564L34.324,57.109C33.741,58.106 33.449,58.605 33.303,58.855C33.23,58.979 33.194,59.042 33.176,59.073C33.166,59.088 33.162,59.096 33.16,59.1C33.158,59.102 33.158,59.103 33.158,59.104C33.157,59.104 33.157,59.104 33.157,59.104C33.157,59.104 33.157,59.104 33.157,59.104C33.157,59.104 33.157,59.105 33.157,59.105C33.157,59.105 33.157,59.105 33.157,59.105C33.156,59.106 33.156,59.106 33.156,59.107C33.155,59.108 33.152,59.113 33.15,59.116C32.972,59.648 33.01,60.208 33.01,60.208C33.01,60.208 32.972,59.648 33.15,59.116C33.152,59.113 33.155,59.108 33.156,59.107C33.156,59.106 33.156,59.106 33.157,59.105C33.157,59.105 33.157,59.105 33.157,59.105C33.157,59.105 33.157,59.104 33.157,59.104C33.157,59.104 33.157,59.104 33.157,59.104C33.157,59.104 33.157,59.104 33.157,59.105C33.157,59.105 33.156,59.106 33.155,59.108C33.153,59.112 33.148,59.12 33.139,59.135C33.121,59.166 33.084,59.229 33.011,59.353C32.866,59.603 32.574,60.102 31.99,61.099L34.478,62.555ZM34.127,57.837L34.127,57.839L37.01,57.839L37.01,57.837L34.127,57.837Z" fill="#18A83D"/>
<path d="M28.254,53.753L26.813,53.753C26.813,54.373 27.21,54.923 27.798,55.12C28.386,55.316 29.034,55.114 29.406,54.618L28.254,53.753ZM33.598,52.592L34.32,51.344C34.311,51.339 34.302,51.334 34.293,51.329L33.598,52.592ZM35.504,57.832L36.755,58.547L36.759,58.54L35.504,57.832ZM33.217,61.831L34.369,62.696C34.405,62.648 34.438,62.598 34.468,62.546L33.217,61.831ZM27.307,62.688L26.443,63.841L26.453,63.849L27.307,62.688ZM25.92,57.741L24.676,57.013C24.638,57.078 24.605,57.146 24.578,57.215L25.92,57.741ZM28.254,53.751L29.695,53.751C29.695,53.1 29.259,52.53 28.631,52.36C28.003,52.189 27.339,52.461 27.01,53.023L28.254,53.751ZM29.406,54.618C29.943,53.903 30.511,53.581 31.029,53.478C31.556,53.373 32.19,53.462 32.904,53.854L34.293,51.329C33.1,50.673 31.778,50.39 30.466,50.651C29.146,50.914 27.995,51.698 27.101,52.887L29.406,54.618ZM32.877,53.839C33.595,54.254 34.13,54.812 34.38,55.371C34.603,55.869 34.638,56.435 34.25,57.123L36.759,58.54C37.61,57.034 37.598,55.504 37.011,54.193C36.451,52.942 35.414,51.977 34.32,51.344L32.877,53.839ZM34.254,57.116L31.966,61.115L34.468,62.546L36.755,58.547L34.254,57.116ZM32.064,60.966C31.131,62.209 29.366,62.414 28.162,61.527L26.453,63.849C28.87,65.628 32.442,65.263 34.369,62.696L32.064,60.966ZM28.171,61.535C27.135,60.758 26.815,59.406 27.262,58.266L24.578,57.215C23.693,59.475 24.297,62.233 26.443,63.841L28.171,61.535ZM27.164,58.469C27.747,57.471 28.039,56.972 28.185,56.723C28.258,56.598 28.294,56.536 28.312,56.505C28.322,56.489 28.326,56.481 28.328,56.477C28.33,56.475 28.33,56.474 28.33,56.474C28.33,56.474 28.331,56.474 28.331,56.474C28.331,56.474 28.331,56.474 28.331,56.474C28.331,56.474 28.331,56.474 28.331,56.474C28.331,56.474 28.33,56.474 28.33,56.474C28.33,56.474 28.33,56.474 28.33,56.474C28.33,56.475 28.33,56.475 28.33,56.475C28.329,56.476 28.327,56.479 28.326,56.481C26.56,57.087 25.678,55.442 25.678,55.442C25.678,55.442 26.56,57.087 28.326,56.481C28.327,56.479 28.329,56.476 28.33,56.475C28.33,56.475 28.33,56.475 28.33,56.474C28.33,56.474 28.33,56.474 28.33,56.474C28.331,56.474 28.331,56.474 28.331,56.473C28.331,56.473 28.331,56.473 28.331,56.473C28.331,56.472 28.332,56.471 28.333,56.47C28.335,56.466 28.34,56.458 28.349,56.442C28.367,56.411 28.404,56.349 28.477,56.224C28.622,55.975 28.914,55.476 29.498,54.478L27.01,53.023C26.426,54.02 26.135,54.519 25.989,54.769C25.916,54.893 25.879,54.956 25.861,54.987C25.852,55.002 25.847,55.01 25.845,55.014C25.844,55.016 25.843,55.017 25.843,55.018C25.843,55.018 25.843,55.018 25.843,55.018C25.843,55.018 25.843,55.018 25.843,55.018C25.843,55.018 25.843,55.018 25.843,55.018C25.843,55.018 25.843,55.018 25.843,55.018C25.843,55.017 25.843,55.017 25.843,55.017C25.843,55.017 25.844,55.016 25.844,55.016C25.845,55.015 25.846,55.012 25.848,55.01C27.613,54.404 28.496,56.049 28.496,56.049C28.496,56.049 27.613,54.404 25.848,55.01C25.846,55.012 25.845,55.015 25.844,55.016C25.844,55.016 25.843,55.017 25.843,55.017C25.843,55.017 25.843,55.017 25.843,55.018C25.843,55.018 25.843,55.018 25.843,55.018C25.843,55.018 25.843,55.018 25.843,55.019C25.842,55.019 25.842,55.02 25.841,55.022C25.838,55.026 25.834,55.034 25.825,55.049C25.806,55.08 25.77,55.143 25.697,55.267C25.551,55.517 25.259,56.016 24.676,57.013L27.164,58.469ZM26.813,53.751L26.813,53.753L29.695,53.753L29.695,53.751L26.813,53.751Z" fill="#18A83D"/>
<path d="M20.955,49.675L19.514,49.675C19.514,50.295 19.911,50.845 20.499,51.042C21.087,51.238 21.735,51.036 22.108,50.54L20.955,49.675ZM26.3,48.513L27.021,47.266C27.012,47.261 27.003,47.256 26.994,47.251L26.3,48.513ZM28.206,53.753L29.457,54.469L29.46,54.462L28.206,53.753ZM25.918,57.753L27.07,58.618C27.106,58.57 27.139,58.52 27.169,58.468L25.918,57.753ZM20.008,58.61L19.144,59.763L19.154,59.771L20.008,58.61ZM18.621,53.663L17.377,52.935C17.339,53 17.306,53.067 17.279,53.137L18.621,53.663ZM20.955,49.672L22.396,49.672C22.396,49.022 21.96,48.452 21.332,48.282C20.704,48.111 20.04,48.383 19.711,48.945L20.955,49.672ZM22.108,50.54C22.645,49.825 23.212,49.503 23.731,49.4C24.257,49.295 24.892,49.384 25.605,49.776L26.994,47.251C25.801,46.595 24.479,46.312 23.167,46.573C21.847,46.836 20.696,47.62 19.803,48.809L22.108,50.54ZM25.578,49.761C26.296,50.176 26.831,50.734 27.081,51.292C27.305,51.791 27.339,52.357 26.951,53.045L29.46,54.462C30.311,52.956 30.299,51.426 29.712,50.115C29.153,48.864 28.115,47.899 27.021,47.266L25.578,49.761ZM26.955,53.038L24.667,57.037L27.169,58.468L29.457,54.469L26.955,53.038ZM24.765,56.887C23.832,58.131 22.067,58.336 20.863,57.449L19.154,59.771C21.571,61.55 25.143,61.185 27.07,58.618L24.765,56.887ZM20.873,57.457C19.836,56.68 19.516,55.328 19.963,54.188L17.279,53.137C16.394,55.397 16.998,58.155 19.144,59.763L20.873,57.457ZM19.865,54.39C20.448,53.393 20.74,52.894 20.886,52.645C20.959,52.52 20.995,52.458 21.014,52.426C21.023,52.411 21.027,52.403 21.03,52.399C21.031,52.397 21.031,52.396 21.032,52.396C21.032,52.396 21.032,52.396 21.032,52.396C21.032,52.396 21.032,52.396 21.032,52.396C21.032,52.396 21.032,52.396 21.032,52.396C21.032,52.396 21.032,52.396 21.032,52.396C21.031,52.396 21.031,52.396 21.031,52.396C21.031,52.397 21.031,52.397 21.031,52.397C21.03,52.399 21.028,52.402 21.027,52.404C19.284,53.018 18.37,51.412 18.37,51.412C18.37,51.412 19.284,53.018 21.027,52.404C21.028,52.402 21.03,52.399 21.031,52.397C21.031,52.397 21.031,52.397 21.031,52.396C21.031,52.396 21.031,52.396 21.032,52.396C21.032,52.396 21.032,52.395 21.032,52.395C21.032,52.395 21.032,52.395 21.032,52.395C21.032,52.394 21.033,52.393 21.034,52.391C21.036,52.388 21.041,52.38 21.05,52.364C21.068,52.333 21.105,52.271 21.178,52.146C21.324,51.897 21.615,51.398 22.199,50.4L19.711,48.945C19.128,49.942 18.836,50.441 18.69,50.691C18.617,50.815 18.58,50.878 18.562,50.909C18.553,50.924 18.549,50.932 18.546,50.936C18.545,50.938 18.545,50.939 18.544,50.939C18.544,50.94 18.544,50.94 18.544,50.94C18.544,50.94 18.544,50.94 18.544,50.94C18.544,50.94 18.544,50.94 18.544,50.94C18.544,50.94 18.544,50.94 18.544,50.939C18.544,50.939 18.545,50.939 18.545,50.939C18.545,50.939 18.545,50.938 18.545,50.938C18.546,50.937 18.548,50.933 18.549,50.931C20.292,50.318 21.206,51.924 21.206,51.924C21.206,51.924 20.292,50.318 18.549,50.931C18.548,50.933 18.546,50.937 18.545,50.938C18.545,50.938 18.545,50.939 18.545,50.939C18.544,50.939 18.544,50.939 18.544,50.939C18.544,50.94 18.544,50.94 18.544,50.94C18.544,50.94 18.544,50.94 18.544,50.94C18.543,50.941 18.543,50.942 18.542,50.944C18.539,50.948 18.535,50.956 18.526,50.971C18.508,51.002 18.471,51.065 18.398,51.189C18.252,51.439 17.96,51.937 17.377,52.935L19.865,54.39ZM19.514,49.672L19.514,49.675L22.396,49.675L22.396,49.672L19.514,49.672Z" fill="#18A83D"/>
<path d="M13.67,45.589L12.229,45.589C12.229,46.209 12.626,46.759 13.214,46.956C13.802,47.152 14.45,46.95 14.822,46.454L13.67,45.589ZM19.014,44.428L19.736,43.18C19.727,43.175 19.718,43.17 19.709,43.165L19.014,44.428ZM20.921,49.667L22.171,50.383L22.175,50.376L20.921,49.667ZM18.633,53.667L19.785,54.532C19.821,54.484 19.854,54.434 19.884,54.382L18.633,53.667ZM12.723,54.524L11.859,55.677L11.869,55.685L12.723,54.524ZM11.336,49.577L10.092,48.849C10.054,48.914 10.021,48.982 9.994,49.051L11.336,49.577ZM13.67,45.587L15.111,45.587C15.111,44.936 14.675,44.366 14.047,44.196C13.419,44.025 12.755,44.297 12.426,44.859L13.67,45.587ZM14.822,46.454C15.359,45.739 15.927,45.417 16.445,45.314C16.972,45.209 17.606,45.298 18.32,45.69L19.709,43.165C18.516,42.509 17.194,42.226 15.882,42.487C14.562,42.75 13.411,43.534 12.517,44.723L14.822,46.454ZM18.293,45.675C19.011,46.09 19.546,46.648 19.796,47.207C20.019,47.705 20.054,48.271 19.666,48.959L22.175,50.376C23.026,48.87 23.014,47.34 22.427,46.029C21.867,44.778 20.83,43.813 19.736,43.18L18.293,45.675ZM19.67,48.952L17.382,52.951L19.884,54.382L22.171,50.383L19.67,48.952ZM17.48,52.801C16.547,54.045 14.782,54.25 13.578,53.363L11.869,55.685C14.286,57.464 17.858,57.099 19.785,54.532L17.48,52.801ZM13.587,53.371C12.551,52.594 12.231,51.242 12.678,50.102L9.994,49.051C9.109,51.311 9.713,54.069 11.859,55.677L13.587,53.371ZM12.58,50.305C13.163,49.307 13.455,48.808 13.601,48.559C13.674,48.434 13.71,48.372 13.728,48.341C13.738,48.325 13.742,48.317 13.744,48.313C13.746,48.311 13.746,48.31 13.746,48.31C13.747,48.31 13.747,48.309 13.747,48.309C13.747,48.309 13.747,48.309 13.747,48.309C13.747,48.309 13.747,48.309 13.747,48.309C13.747,48.308 13.747,48.308 13.747,48.308C13.748,48.308 13.748,48.307 13.749,48.306C13.749,48.305 13.752,48.3 13.754,48.297C13.935,47.744 13.882,47.165 13.882,47.165C13.882,47.165 13.935,47.744 13.754,48.297C13.752,48.3 13.749,48.305 13.749,48.306C13.748,48.307 13.748,48.308 13.748,48.308C13.747,48.308 13.747,48.308 13.747,48.309C13.747,48.309 13.747,48.309 13.747,48.309C13.747,48.309 13.747,48.309 13.747,48.309C13.747,48.309 13.747,48.309 13.747,48.309C13.747,48.308 13.748,48.307 13.749,48.305C13.751,48.302 13.756,48.294 13.765,48.278C13.783,48.247 13.82,48.185 13.893,48.06C14.038,47.811 14.33,47.312 14.914,46.314L12.426,44.859C11.842,45.856 11.551,46.355 11.405,46.605C11.332,46.729 11.295,46.792 11.277,46.823C11.268,46.838 11.263,46.846 11.261,46.85C11.26,46.852 11.259,46.853 11.259,46.854C11.259,46.854 11.259,46.854 11.259,46.854C11.259,46.854 11.259,46.854 11.259,46.854C11.259,46.854 11.259,46.855 11.258,46.855C11.258,46.855 11.258,46.855 11.258,46.855C11.258,46.856 11.257,46.857 11.257,46.857C11.256,46.859 11.253,46.863 11.252,46.866C11.071,47.419 11.123,47.998 11.123,47.998C11.123,47.998 11.071,47.419 11.252,46.866C11.253,46.863 11.256,46.859 11.257,46.857C11.257,46.857 11.258,46.856 11.258,46.855C11.258,46.855 11.258,46.855 11.258,46.855C11.259,46.855 11.259,46.854 11.259,46.854C11.259,46.854 11.259,46.854 11.259,46.854C11.259,46.854 11.259,46.854 11.259,46.855C11.258,46.855 11.258,46.856 11.257,46.858C11.254,46.862 11.25,46.87 11.241,46.885C11.222,46.916 11.186,46.979 11.113,47.103C10.967,47.353 10.675,47.852 10.092,48.849L12.58,50.305ZM12.229,45.587L12.229,45.589L15.111,45.589L15.111,45.587L12.229,45.587Z" fill="#18A83D"/>
</svg>
