<svg width="368" height="662" viewBox="0 0 368 662" fill="none" xmlns="http://www.w3.org/2000/svg" xmlns:xlink="http://www.w3.org/1999/xlink">
<path d="M352.607,147.661C349.821,155.159 344.985,163.86 339.917,166.017C334.166,168.47 331.767,171.932 331.767,171.932L327.126,169.238L321.584,166.017C321.584,166.017 321.716,165.404 321.988,164.403C322.251,163.402 322.671,162.012 323.229,160.475C323.229,160.475 324.929,158.287 323.889,155.539C322.849,152.799 323.059,148.554 324.836,145.969C326.613,143.384 328.329,137.02 329.4,137.206C331.992,137.649 328.127,146.404 329.237,148.026C330.238,149.493 331.496,148.988 331.728,148.88C331.744,148.872 331.759,148.864 331.775,148.856C339.048,145.659 347.873,128.412 351.777,130.741C353.236,131.61 353.795,144.463 352.607,147.661Z" fill="#FFB27D"/>
<path d="M327.443,158.1L336.555,164.503C337.199,164.953 338.091,164.798 338.549,164.154L361.896,130.942C362.347,130.298 362.191,129.405 361.547,128.947L352.435,122.544C351.791,122.094 350.898,122.249 350.44,122.893L327.093,156.105C326.643,156.749 326.798,157.642 327.443,158.1Z" fill="#2B478B"/>
<path d="M335.788,163.961L341.128,167.718C341.617,168.059 342.3,167.943 342.641,167.454L366.376,133.683C366.718,133.194 366.601,132.511 366.112,132.17L360.772,128.413C360.283,128.071 359.6,128.188 359.259,128.677L335.524,162.455C335.182,162.936 335.299,163.619 335.788,163.961Z" fill="#233862"/>
<path d="M196.715,110.438C196.715,110.438 243.083,191.313 259.902,206.192L321.584,160.205C321.584,160.205 330.533,162.952 334.452,171.932C334.452,171.932 296.995,248.244 260.12,251.481C223.244,254.717 171.482,160.011 171.482,160.011L196.715,110.438Z" fill="#B0B0FF"/>
<path d="M91.788,660.502L64.995,660.502C61.619,658.67 58.615,654.479 57.668,648.223C56.357,639.592 46.686,634.888 44.59,627.825C42.502,620.77 53.221,610.835 53.221,610.835L55.014,608.522L56.877,606.124L74.659,610.308C74.659,610.308 75.101,614.545 75.365,619.94C75.559,623.828 75.66,628.33 75.442,632.273C74.922,641.688 78.074,651.824 86.441,653.656C92.634,655.014 92.355,658.685 91.788,660.502Z" fill="#233862"/>
<path d="M247.275,660.502L186.006,660.502C183.056,656.908 184.143,643.636 184.593,639.305C184.686,638.436 184.748,637.923 184.748,637.923C184.748,637.923 205.673,621.189 208.545,634.004C208.631,634.407 208.739,634.795 208.856,635.183C212.473,647.167 228.718,652.616 238.094,654.129C244.186,655.123 246.437,658.297 247.275,660.502Z" fill="#233862"/>
<path d="M235.596,318.511C235.596,318.511 232.421,358.149 228.688,405.79C223.612,470.514 217.511,550.016 216.906,565.074C215.866,591.222 211.674,633.058 211.674,633.058C211.674,633.058 201.747,642.992 181.87,638.808C181.87,638.808 164.158,579.09 159.097,515.904C159.02,514.872 158.942,513.824 158.864,512.783C154.161,448.463 146.842,313.016 146.842,313.016L235.596,318.511Z" fill="#01008A"/>
<path d="M235.596,318.511C235.596,318.511 232.421,358.149 228.688,405.79L159.097,515.904C159.02,514.872 158.942,513.824 158.864,512.783C154.161,448.463 146.842,313.016 146.842,313.016L235.596,318.511Z" fill="#020153"/>
<path d="M221.088,323.214C221.088,323.214 163.823,466.764 126.172,534.221C88.521,601.683 76.754,620.505 76.754,620.505C76.754,620.505 55.184,611.875 53.221,605.991C53.221,605.991 67.618,475.76 92.836,444.007C107.086,426.07 123.82,372.236 124.604,353.406C125.388,334.585 129.703,297.321 129.703,297.321L221.088,323.214Z" fill="#01008A"/>
<path d="M206.837,113.953C184.461,121.016 145.746,101.961 145.746,101.961C145.746,101.961 166.376,86.477 165.298,54.282L182.598,68.222L194.349,77.691C194.349,77.691 194.302,83.271 193.014,93.059C192.673,95.636 195.575,101.309 198.098,104.499C204.874,113.107 206.837,113.953 206.837,113.953Z" fill="#FFB27D"/>
<path d="M194.338,77.691C194.338,77.691 194.292,83.272 193.003,93.059C179.979,90.824 165.209,69.774 165.209,69.774C171.837,67.857 177.643,67.516 182.587,68.222L194.338,77.691Z" fill="#ED975D"/>
<path d="M201.187,77.163C201.187,77.163 164.226,83.302 160.757,60.227C157.287,37.152 150.178,22.405 173.633,17.508C197.089,12.61 203.003,20.729 206.038,28.149C209.065,35.561 210.71,74.967 201.187,77.163Z" fill="#FFB27D"/>
<path d="M238.071,321.808C237.396,322.368 236.612,322.702 235.719,322.702C227.313,322.586 202.81,327.258 182.079,325.124C164.6,323.446 149.131,318.27 132.513,310.818C130.309,309.832 125.233,307.116 125.342,304.656C125.419,301.954 125.683,298.042 126.025,293.106C127.204,275.961 129.253,246.459 127.251,212.433C126.894,206.099 126.7,199.812 126.677,193.626C126.506,147.507 135.649,106.945 154.028,93.215C155.596,92.089 165.236,96.801 174.084,101.17C182.265,105.206 190.446,105.649 198.176,104.089L205.907,110.919C215.322,119.658 225.629,131.541 230.107,149.579C233.918,164.932 236.161,192.609 237.388,221.296C237.947,234.297 238.397,247.406 238.513,259.848L238.513,260.29C238.622,261.524 238.622,262.875 238.622,264.101C239.08,296.04 238.63,321.358 238.071,321.808Z" fill="#C6C6FF"/>
<path d="M126.023,293.113C127.203,275.968 129.252,246.466 127.25,212.439C126.893,206.106 126.699,199.819 126.675,193.633C134.328,175.06 140.584,161.593 140.584,161.593L159.879,161.593C159.879,161.593 174.029,258.217 126.023,293.113Z" fill="#B0B0FF"/>
<path d="M27.186,402.621L109.474,414.349C120.185,415.878 130.198,408.365 131.719,397.654L136.803,361.989C138.332,351.278 130.818,341.266 120.107,339.745L37.819,328.017C27.108,326.488 17.096,334.001 15.574,344.712L10.491,380.377C8.962,391.08 16.475,401.092 27.186,402.621Z" fill="#9A1A40"/>
<path d="M124.751,350.371C122.438,344.581 117.447,340.009 111.122,338.457L111.114,338.457C111.106,338.457 111.106,338.457 111.098,338.449C110.477,338.302 109.849,338.17 109.197,338.084L92.812,335.756L93.906,328.056C94.155,326.341 93.712,324.626 92.665,323.229C91.617,321.839 90.088,320.931 88.372,320.691L84.096,320.077L66.888,317.625L63.784,317.182C60.229,316.678 56.922,319.154 56.418,322.709L55.324,330.408L27.04,326.38C16.291,324.851 6.247,332.387 4.71,343.137L-0.428,379.213C-1.957,389.963 5.58,400.006 16.329,401.543L98.47,413.255C99.922,413.465 101.357,413.504 102.755,413.387L102.762,413.387C102.77,413.387 102.77,413.387 102.77,413.387C105.021,413.216 107.179,412.658 109.181,411.765C115.22,409.103 119.807,403.468 120.8,396.483L125.938,360.414C126.458,356.898 125.993,353.46 124.751,350.371ZM60.477,323.291C60.632,322.212 61.478,321.397 62.495,321.234C62.736,321.195 62.976,321.187 63.225,321.226L66.881,321.746L80.425,323.679L87.806,324.734C89.133,324.921 90.057,326.163 89.87,327.482L88.776,335.182L59.383,330.99L60.477,323.291Z" fill="#FF3874"/>
<path d="M89.76,296.436C89.76,296.436 85.437,302.195 85.266,304.492C84.102,320.085 91.227,322.235 72.786,330.897C72.786,330.897 64.915,333.901 64.776,327.785C64.644,321.676 70.24,321.575 69.215,313.014C68.036,303.142 68.152,303.049 74.633,297.895L78.925,290.801L89.76,296.436Z" fill="#FFB27D"/>
<path d="M78.771,300.844C85.718,302.202 93.254,301.652 93.254,301.652C93.254,301.652 113.885,237.929 116.539,232.108C119.194,226.286 177.809,157.395 177.809,157.395L153.391,96.288C153.391,96.288 89.995,202.187 83.552,217.066C72.911,241.654 69.225,296.786 69.225,296.786C69.225,296.786 73.315,299.782 78.771,300.844Z" fill="#C6C6FF"/>
<path d="M160.726,58.008C160.726,58.008 164.522,57.371 163.909,52.148C163.296,46.924 163.303,40.094 167.549,41.367C171.794,42.64 172.004,46.039 173.75,44.052C175.497,42.065 175.528,33.698 188.164,33.116C200.799,32.534 205.938,36.935 211.813,34.35C217.689,31.766 217.999,22.871 217.999,22.871C217.999,22.871 216.33,26.045 213.8,27.054C213.8,27.054 223.603,13.642 212.256,4.445C200.9,-4.753 189.328,1.27 182.754,1.666C168.278,2.543 158.926,3.413 154.199,12.921C149.488,22.436 151.444,48.849 160.726,58.008Z" fill="#01008A"/>
<path d="M82.947,303.289C82.947,303.289 87.107,307.628 87.371,309.429C88.217,315.219 90.149,317.726 89.179,318.354C87.161,319.666 84.499,315.374 83.226,311.524C81.945,307.682 82.947,303.289 82.947,303.289Z" fill="#FFB27D"/>
</svg>
