<svg width="564" height="480" viewBox="0 0 564 480" fill="none" xmlns="http://www.w3.org/2000/svg" xmlns:xlink="http://www.w3.org/1999/xlink">
<mask id="mask_0_1116_715" style="mask-type:alpha" maskUnits="userSpaceOnUse" x="70.681641" y="52.101563" width="219.085175" height="151.899048">
<rect  x="70.682" y="52.102" width="438.17" height="303.798" rx="15.579" fill="#01008A"/>
</mask>
<g mask="url(#mask_0_1116_715)">
<path d="M511.649,478.202C495.837,478.202 480.237,474.474 466.05,467.308C451.862,460.14 439.465,449.723 429.815,436.86C420.165,423.997 413.518,409.031 410.386,393.114C407.255,377.197 407.722,360.755 411.753,345.053C415.784,329.351 423.27,314.808 433.635,302.546C444,290.283 456.968,280.628 471.539,274.323C486.109,268.019 501.895,265.233 517.679,266.181C533.463,267.129 548.825,271.785 562.581,279.791L541.796,317.461C533.654,312.723 524.561,309.966 515.218,309.405C505.875,308.844 496.532,310.493 487.907,314.225C479.282,317.957 471.607,323.672 465.471,330.93C459.336,338.189 454.905,346.796 452.519,356.091C450.133,365.385 449.856,375.118 451.71,384.539C453.563,393.96 457.498,402.819 463.21,410.433C468.922,418.047 476.26,424.212 484.658,428.455C493.056,432.697 502.29,434.904 511.649,434.904L511.649,478.202Z" fill="#2221A7"/>
<path d="M90.34,184.533C76.565,184.533 62.975,181.286 50.615,175.042C38.255,168.798 27.456,159.723 19.048,148.517C10.641,137.311 4.851,124.273 2.123,110.407C-0.605,96.54 -0.198,82.216 3.313,68.537C6.825,54.858 13.347,42.189 22.377,31.506C31.406,20.823 42.703,12.412 55.397,6.919C68.091,1.427 81.843,-1 95.593,-0.174C109.344,0.651 122.727,4.708 134.711,11.682L116.604,44.5C109.51,40.371 101.589,37.97 93.449,37.482C85.31,36.993 77.17,38.429 69.657,41.68C62.143,44.931 55.456,49.91 50.111,56.234C44.767,62.557 40.906,70.056 38.828,78.153C36.749,86.25 36.508,94.728 38.123,102.936C39.737,111.144 43.165,118.861 48.141,125.494C53.118,132.127 59.51,137.499 66.826,141.194C74.142,144.89 82.187,146.812 90.34,146.812L90.34,184.533Z" transform="rotate(360 90.34 92.1)" fill="#2221A7"/>
</g>
</svg>
