<svg width="564" height="480" viewBox="0 0 564 480" fill="none" xmlns="http://www.w3.org/2000/svg" xmlns:xlink="http://www.w3.org/1999/xlink">
<mask id="mask_0_1116_757" style="mask-type:alpha" maskUnits="userSpaceOnUse" x="71.021484" y="52.101563" width="219.085175" height="151.899048">
<rect  x="71.021" y="52.102" width="438.17" height="303.798" rx="15.579" fill="#01008A"/>
</mask>
<g mask="url(#mask_0_1116_757)">
<path d="M511.988,478.202C496.177,478.202 480.577,474.474 466.389,467.308C452.202,460.14 439.805,449.723 430.155,436.86C420.504,423.997 413.857,409.031 410.726,393.114C407.595,377.197 408.062,360.755 412.093,345.053C416.124,329.351 423.61,314.808 433.975,302.546C444.34,290.283 457.308,280.628 471.878,274.323C486.449,268.019 502.235,265.233 518.019,266.181C533.803,267.129 549.165,271.785 562.921,279.791L542.136,317.461C533.994,312.723 524.901,309.966 515.558,309.405C506.215,308.844 496.871,310.493 488.247,314.225C479.622,317.957 471.946,323.672 465.811,330.93C459.676,338.189 455.245,346.796 452.859,356.091C450.473,365.385 450.196,375.118 452.05,384.539C453.903,393.96 457.838,402.819 463.55,410.433C469.262,418.047 476.6,424.212 484.998,428.455C493.396,432.697 502.63,434.904 511.988,434.904L511.988,478.202Z" fill="#2221A7"/>
<path d="M90.68,184.533C76.905,184.533 63.315,181.286 50.955,175.042C38.595,168.798 27.796,159.723 19.388,148.517C10.981,137.311 5.19,124.273 2.462,110.407C-0.266,96.54 0.142,82.216 3.653,68.537C7.165,54.858 13.687,42.189 22.717,31.506C31.746,20.823 43.043,12.412 55.737,6.919C68.431,1.427 82.183,-1 95.933,-0.174C109.684,0.651 123.067,4.708 135.051,11.682L116.944,44.5C109.85,40.371 101.929,37.97 93.789,37.482C85.65,36.993 77.51,38.429 69.997,41.68C62.483,44.931 55.796,49.91 50.451,56.234C45.107,62.557 41.246,70.056 39.168,78.153C37.089,86.25 36.848,94.728 38.463,102.936C40.077,111.144 43.505,118.861 48.481,125.494C53.458,132.127 59.85,137.499 67.166,141.194C74.482,144.89 82.527,146.812 90.68,146.812L90.68,184.533Z" transform="rotate(360 90.68 92.1)" fill="#2221A7"/>
</g>
</svg>
