<svg width="564" height="480" viewBox="0 0 564 480" fill="none" xmlns="http://www.w3.org/2000/svg" xmlns:xlink="http://www.w3.org/1999/xlink">
<mask id="mask_0_1116_694" style="mask-type:alpha" maskUnits="userSpaceOnUse" x="70.339844" y="52.101563" width="219.085175" height="151.899048">
<rect  x="70.34" y="52.102" width="438.17" height="303.798" rx="15.579" fill="#01008A"/>
</mask>
<g mask="url(#mask_0_1116_694)">
<path d="M511.309,478.202C495.498,478.202 479.897,474.474 465.71,467.308C451.522,460.14 439.126,449.723 429.475,436.86C419.825,423.997 413.178,409.031 410.046,393.114C406.915,377.197 407.383,360.755 411.413,345.053C415.444,329.351 422.93,314.808 433.295,302.546C443.661,290.283 456.628,280.628 471.199,274.323C485.77,268.019 501.555,265.233 517.339,266.181C533.124,267.129 548.485,271.785 562.241,279.791L541.457,317.461C533.314,312.723 524.221,309.966 514.878,309.405C505.535,308.844 496.192,310.493 487.567,314.225C478.942,317.957 471.267,323.672 465.132,330.93C458.996,338.189 454.565,346.796 452.179,356.091C449.793,365.385 449.517,375.118 451.37,384.539C453.224,393.96 457.158,402.819 462.87,410.433C468.583,418.047 475.92,424.212 484.318,428.455C492.716,432.697 501.95,434.904 511.309,434.904L511.309,478.202Z" fill="#2221A7"/>
<path d="M90,184.533C76.226,184.533 62.635,181.286 50.275,175.042C37.915,168.798 27.116,159.723 18.709,148.517C10.301,137.311 4.511,124.273 1.783,110.407C-0.945,96.54 -0.538,82.216 2.974,68.537C6.485,54.858 13.007,42.189 22.037,31.506C31.067,20.823 42.363,12.412 55.057,6.919C67.751,1.427 81.503,-1 95.254,-0.174C109.004,0.651 122.387,4.708 134.371,11.682L116.264,44.5C109.17,40.371 101.249,37.97 93.11,37.482C84.97,36.993 76.83,38.429 69.317,41.68C61.803,44.931 55.116,49.91 49.772,56.234C44.427,62.557 40.566,70.056 38.488,78.153C36.409,86.25 36.168,94.728 37.783,102.936C39.398,111.144 42.825,118.861 47.802,125.494C52.778,132.127 59.17,137.499 66.486,141.194C73.802,144.89 81.847,146.812 90,146.812L90,184.533Z" transform="rotate(360 90 92.1)" fill="#2221A7"/>
</g>
</svg>
