<svg width="564" height="480" viewBox="0 0 564 480" fill="none" xmlns="http://www.w3.org/2000/svg" xmlns:xlink="http://www.w3.org/1999/xlink">
<mask id="mask_0_1116_736" style="mask-type:alpha" maskUnits="userSpaceOnUse" x="70.851563" y="52.101563" width="219.085175" height="151.899048">
<rect  x="70.852" y="52.102" width="438.17" height="303.798" rx="15.579" fill="#01008A"/>
</mask>
<g mask="url(#mask_0_1116_736)">
<path d="M511.821,478.202C496.009,478.202 480.409,474.474 466.222,467.308C452.034,460.14 439.637,449.723 429.987,436.86C420.336,423.997 413.689,409.031 410.558,393.114C407.427,377.197 407.894,360.755 411.925,345.053C415.956,329.351 423.442,314.808 433.807,302.546C444.172,290.283 457.14,280.628 471.711,274.323C486.281,268.019 502.067,265.233 517.851,266.181C533.635,267.129 548.997,271.785 562.753,279.791L541.968,317.461C533.826,312.723 524.733,309.966 515.39,309.405C506.047,308.844 496.704,310.493 488.079,314.225C479.454,317.957 471.779,323.672 465.643,330.93C459.508,338.189 455.077,346.796 452.691,356.091C450.305,365.385 450.028,375.118 451.882,384.539C453.735,393.96 457.67,402.819 463.382,410.433C469.094,418.047 476.432,424.212 484.83,428.455C493.228,432.697 502.462,434.904 511.821,434.904L511.821,478.202Z" fill="#2221A7"/>
<path d="M90.512,184.533C76.737,184.533 63.147,181.286 50.787,175.042C38.427,168.798 27.628,159.723 19.22,148.517C10.813,137.311 5.022,124.273 2.294,110.407C-0.434,96.54 -0.026,82.216 3.485,68.537C6.997,54.858 13.519,42.189 22.549,31.506C31.578,20.823 42.875,12.412 55.569,6.919C68.263,1.427 82.015,-1 95.765,-0.174C109.516,0.651 122.899,4.708 134.883,11.682L116.776,44.5C109.682,40.371 101.761,37.97 93.621,37.482C85.482,36.993 77.342,38.429 69.829,41.68C62.315,44.931 55.628,49.91 50.283,56.234C44.939,62.557 41.078,70.056 39,78.153C36.921,86.25 36.68,94.728 38.295,102.936C39.909,111.144 43.337,118.861 48.313,125.494C53.29,132.127 59.682,137.499 66.998,141.194C74.314,144.89 82.359,146.812 90.512,146.812L90.512,184.533Z" transform="rotate(360 90.512 92.1)" fill="#2221A7"/>
</g>
</svg>
