<svg width="32" height="10" viewBox="0 0 32 10" fill="none" xmlns="http://www.w3.org/2000/svg" xmlns:xlink="http://www.w3.org/1999/xlink">
<path d="M0,9.786L1.75,9.786L1.75,3.36L4.914,9.226L8.092,3.36L8.092,9.786L9.828,9.786L9.828,0.168L8.092,0.168L4.914,6.034L1.75,0.168L0,0.168L0,9.786Z" fill="#01008A"/>
<path d="M16.51,9.954C19.24,9.954 21.55,7.672 21.55,4.97C21.55,2.268 19.24,0 16.51,0C13.766,0 11.456,2.268 11.456,4.97C11.456,7.672 13.766,9.954 16.51,9.954ZM16.51,8.358C14.732,8.358 13.234,6.818 13.234,4.97C13.234,3.136 14.732,1.596 16.51,1.596C18.274,1.596 19.758,3.136 19.758,4.97C19.758,6.818 18.274,8.358 16.51,8.358Z" fill="#01008A"/>
<path d="M23.14,9.786L24.89,9.786L24.89,3.024L29.972,9.786L31.708,9.786L31.708,0.168L29.972,0.168L29.972,6.93L24.89,0.168L23.14,0.168L23.14,9.786Z" fill="#01008A"/>
</svg>
