<svg width="38" height="44" viewBox="0 0 38 44" fill="none" xmlns="http://www.w3.org/2000/svg" xmlns:xlink="http://www.w3.org/1999/xlink">
<path d="M2.002,25.574L3.501,25.606C3.502,25.596 3.502,25.585 3.502,25.574L2.002,25.574ZM2.002,25.136L0.503,25.062C0.502,25.087 0.502,25.111 0.502,25.136L2.002,25.136ZM3.205,21.499L2.103,20.482C2.049,20.54 2,20.602 1.956,20.667L3.205,21.499ZM5.591,16.872L7.06,17.177C7.081,17.077 7.091,16.974 7.091,16.872L5.591,16.872ZM5.708,12.854L4.214,12.714L4.214,12.724L5.708,12.854ZM32.311,12.854L33.805,12.724L33.804,12.71L32.311,12.854ZM32.408,16.872L30.912,16.981C30.917,17.048 30.926,17.114 30.94,17.18L32.408,16.872ZM34.795,21.518L36.037,20.677C35.996,20.617 35.951,20.56 35.902,20.507L34.795,21.518ZM35.998,25.136L37.498,25.136C37.498,25.114 37.497,25.091 37.496,25.069L35.998,25.136ZM35.998,25.555L34.498,25.555C34.498,25.568 34.498,25.58 34.498,25.593L35.998,25.555ZM34.31,30.335L35.395,31.37C35.416,31.348 35.436,31.325 35.456,31.302L34.31,30.335ZM28.605,33.077L28.469,31.583L28.445,31.585L28.605,33.077ZM9.375,33.077L9.535,31.585L9.517,31.584L9.375,33.077ZM3.67,30.335L2.516,31.293C2.54,31.321 2.564,31.348 2.589,31.375L3.67,30.335ZM3.502,25.574L3.502,25.136L0.502,25.136L0.502,25.574L3.502,25.574ZM3.5,25.211C3.551,24.187 3.879,23.193 4.453,22.331L1.956,20.667C1.084,21.977 0.581,23.494 0.503,25.062L3.5,25.211ZM4.307,22.517C5.694,21.014 6.646,19.17 7.06,17.177L4.123,16.567C3.82,18.023 3.124,19.376 2.103,20.482L4.307,22.517ZM7.091,16.872C7.091,15.528 7.092,14.241 7.202,12.985L4.214,12.724C4.09,14.133 4.091,15.55 4.091,16.872L7.091,16.872ZM7.201,12.994C7.712,7.541 13.217,3.5 18.922,3.5L18.922,0.5C12.092,0.5 4.906,5.332 4.214,12.714L7.201,12.994ZM18.922,3.5L19.077,3.5L19.077,0.5L18.922,0.5L18.922,3.5ZM19.077,3.5C24.781,3.5 30.29,7.541 30.818,12.999L33.804,12.71C33.09,5.332 25.909,0.5 19.077,0.5L19.077,3.5ZM30.817,12.985C30.868,13.574 30.869,14.18 30.867,14.858C30.864,15.514 30.859,16.246 30.912,16.981L33.904,16.763C33.861,16.165 33.864,15.555 33.867,14.868C33.869,14.203 33.87,13.467 33.805,12.724L30.817,12.985ZM30.94,17.18C31.358,19.173 32.307,21.019 33.687,22.53L35.902,20.507C34.881,19.389 34.183,18.028 33.876,16.564L30.94,17.18ZM33.553,22.359C34.127,23.208 34.454,24.191 34.499,25.204L37.496,25.069C37.426,23.499 36.92,21.981 36.037,20.677L33.553,22.359ZM34.498,25.136L34.498,25.555L37.498,25.555L37.498,25.136L34.498,25.136ZM34.498,25.593C34.532,26.963 34.061,28.304 33.163,29.367L35.456,31.302C36.823,29.683 37.55,27.629 37.497,25.518L34.498,25.593ZM33.224,29.299C31.982,30.602 30.291,31.417 28.469,31.583L28.741,34.571C31.278,34.34 33.646,33.204 35.395,31.37L33.224,29.299ZM28.445,31.585C22.16,32.26 15.82,32.26 9.535,31.585L9.215,34.568C15.712,35.265 22.268,35.265 28.765,34.568L28.445,31.585ZM9.517,31.584C7.694,31.41 6.001,30.595 4.752,29.295L2.589,31.375C4.342,33.197 6.703,34.33 9.233,34.57L9.517,31.584ZM4.824,29.377C3.939,28.31 3.472,26.973 3.501,25.606L0.502,25.542C0.457,27.637 1.173,29.675 2.516,31.293L4.824,29.377Z" fill="#FFFFFF"/>
<path d="M15.284,38.768C14.767,38.121 13.824,38.014 13.176,38.53C12.528,39.046 12.421,39.99 12.937,40.638L15.284,38.768ZM22.687,40.712L21.79,39.51L21.768,39.527L22.687,40.712ZM24.904,40.643C25.423,39.998 25.321,39.054 24.675,38.534C24.03,38.015 23.085,38.117 22.566,38.763L24.904,40.643ZM12.937,40.638C14.185,42.204 16.012,43.212 18.01,43.447L18.36,40.467C17.138,40.324 16.033,39.709 15.284,38.768L12.937,40.638ZM18.01,43.447C20.007,43.682 22.021,43.127 23.606,41.898L21.768,39.527C20.809,40.27 19.582,40.611 18.36,40.467L18.01,43.447ZM23.583,41.915C24.076,41.548 24.519,41.121 24.904,40.643L22.566,38.763C22.341,39.042 22.081,39.293 21.791,39.51L23.583,41.915Z" fill="#FFFFFF"/>
</svg>
