<svg width="48" height="54" viewBox="0 0 48 54" fill="none" xmlns="http://www.w3.org/2000/svg" xmlns:xlink="http://www.w3.org/1999/xlink">
<path d="M2.002,31.467L3.877,31.507C3.877,31.493 3.877,31.48 3.877,31.467L2.002,31.467ZM2.002,30.919L0.129,30.826C0.128,30.857 0.127,30.888 0.127,30.919L2.002,30.919ZM3.506,26.373L2.128,25.101C2.061,25.174 2,25.251 1.946,25.333L3.506,26.373ZM6.489,20.589L8.325,20.97C8.351,20.845 8.364,20.717 8.364,20.589L6.489,20.589ZM6.635,15.567L4.768,15.392L4.767,15.404L6.635,15.567ZM39.887,15.567L41.755,15.404L41.753,15.386L39.887,15.567ZM40.008,20.589L38.138,20.725C38.145,20.809 38.156,20.892 38.173,20.974L40.008,20.589ZM42.992,26.397L44.544,25.345C44.493,25.27 44.437,25.199 44.376,25.132L42.992,26.397ZM44.495,30.919L46.37,30.919C46.37,30.891 46.37,30.863 46.368,30.835L44.495,30.919ZM44.495,31.443L42.621,31.443C42.621,31.458 42.621,31.474 42.621,31.489L44.495,31.443ZM42.385,37.417L43.742,38.711C43.768,38.684 43.794,38.655 43.818,38.626L42.385,37.417ZM35.255,40.844L35.085,38.977C35.075,38.978 35.065,38.979 35.055,38.98L35.255,40.844ZM11.219,40.844L11.419,38.98L11.396,38.978L11.219,40.844ZM4.088,37.417L2.645,38.615C2.675,38.65 2.705,38.684 2.736,38.717L4.088,37.417ZM3.877,31.467L3.877,30.919L0.127,30.919L0.127,31.467L3.877,31.467ZM3.875,31.012C3.938,29.732 4.348,28.49 5.066,27.413L1.946,25.333C0.855,26.97 0.227,28.867 0.129,30.826L3.875,31.012ZM4.883,27.645C6.617,25.767 7.808,23.462 8.325,20.97L4.653,20.208C4.275,22.028 3.405,23.719 2.128,25.101L4.883,27.645ZM8.364,20.589C8.364,18.909 8.365,17.301 8.502,15.73L4.767,15.404C4.613,17.165 4.614,18.937 4.614,20.589L8.364,20.589ZM8.501,15.742C9.14,8.927 16.021,3.875 23.152,3.875L23.152,0.125C14.614,0.125 5.633,6.165 4.768,15.392L8.501,15.742ZM23.152,3.875L23.346,3.875L23.346,0.125L23.152,0.125L23.152,3.875ZM23.346,3.875C30.475,3.875 37.361,8.926 38.021,15.748L41.753,15.386C40.861,6.165 31.885,0.125 23.346,0.125L23.346,3.875ZM38.019,15.73C38.084,16.467 38.085,17.224 38.082,18.071C38.079,18.891 38.072,19.807 38.138,20.725L41.878,20.453C41.824,19.705 41.829,18.943 41.832,18.085C41.835,17.254 41.836,16.334 41.755,15.404L38.019,15.73ZM38.173,20.974C38.696,23.466 39.883,25.773 41.607,27.661L44.376,25.132C43.1,23.735 42.227,22.034 41.843,20.204L38.173,20.974ZM41.439,27.448C42.158,28.509 42.565,29.738 42.622,31.004L46.368,30.835C46.28,28.873 45.648,26.975 44.544,25.345L41.439,27.448ZM42.621,30.919L42.621,31.443L46.37,31.443L46.37,30.919L42.621,30.919ZM42.621,31.489C42.664,33.203 42.074,34.879 40.953,36.208L43.818,38.626C45.526,36.602 46.435,34.035 46.37,31.396L42.621,31.489ZM41.029,36.123C39.476,37.751 37.362,38.77 35.085,38.977L35.425,42.712C38.596,42.423 41.556,41.003 43.742,38.711L41.029,36.123ZM35.055,38.98C27.199,39.823 19.274,39.823 11.419,38.98L11.019,42.709C19.14,43.58 27.333,43.58 35.455,42.709L35.055,38.98ZM11.396,38.978C9.117,38.761 7.001,37.742 5.439,36.117L2.736,38.717C4.927,40.995 7.878,42.41 11.041,42.711L11.396,38.978ZM5.53,36.219C4.423,34.886 3.84,33.215 3.877,31.507L0.128,31.426C0.071,34.045 0.967,36.593 2.645,38.615L5.53,36.219Z" fill="#FFFFFF"/>
<path d="M18.603,47.957C17.958,47.147 16.778,47.013 15.968,47.659C15.159,48.304 15.025,49.483 15.67,50.293L18.603,47.957ZM27.857,50.386L26.737,48.883C26.727,48.89 26.718,48.897 26.708,48.905L27.857,50.386ZM30.628,50.3C31.277,49.493 31.149,48.313 30.342,47.664C29.535,47.015 28.355,47.143 27.706,47.95L30.628,50.3ZM15.67,50.293C17.23,52.251 19.514,53.511 22.011,53.804L22.449,50.08C20.922,49.9 19.539,49.132 18.603,47.957L15.67,50.293ZM22.011,53.804C24.507,54.098 27.024,53.404 29.006,51.868L26.708,48.905C25.51,49.834 23.976,50.26 22.449,50.08L22.011,53.804ZM28.978,51.89C29.593,51.431 30.147,50.897 30.628,50.3L27.706,47.95C27.425,48.299 27.099,48.613 26.737,48.883L28.978,51.89Z" fill="#FFFFFF"/>
</svg>
