<svg width="30" height="34" viewBox="0 0 30 34" fill="none" xmlns="http://www.w3.org/2000/svg" xmlns:xlink="http://www.w3.org/1999/xlink">
<path d="M19.531,2.02L20.435,1.151C20.199,0.905 19.872,0.766 19.531,0.766L19.531,2.02ZM28,10.84L29.254,10.84C29.254,10.516 29.129,10.205 28.904,9.972L28,10.84ZM19.531,0.766L8.41,0.766L8.41,3.273L19.531,3.273L19.531,0.766ZM8.41,0.766C4.319,0.766 0.746,4.073 0.746,8.254L3.254,8.254C3.254,5.547 5.613,3.273 8.41,3.273L8.41,0.766ZM0.746,8.254L0.746,26.391L3.254,26.391L3.254,8.254L0.746,8.254ZM0.746,26.391C0.746,30.747 4.105,33.956 8.41,33.956L8.41,31.448C5.439,31.448 3.254,29.311 3.254,26.391L0.746,26.391ZM8.41,33.956L21.764,33.956L21.764,31.448L8.41,31.448L8.41,33.956ZM21.764,33.956C25.92,33.956 29.254,30.508 29.254,26.391L26.746,26.391C26.746,29.162 24.496,31.448 21.764,31.448L21.764,33.956ZM29.254,26.391L29.254,10.84L26.746,10.84L26.746,26.391L29.254,26.391ZM28.904,9.972L20.435,1.151L18.626,2.888L27.096,11.708L28.904,9.972Z" fill="#01008A"/>
<path d="M20.345,2C20.345,1.308 19.784,0.746 19.091,0.746C18.399,0.746 17.837,1.308 17.837,2L20.345,2ZM23.386,11.168L23.389,9.914L23.389,9.914L23.386,11.168ZM28.073,12.416C28.764,12.37 29.287,11.773 29.241,11.082C29.196,10.391 28.599,9.868 27.908,9.914L28.073,12.416ZM17.837,2L17.837,6.863L20.345,6.863L20.345,2L17.837,2ZM17.837,6.863C17.837,9.928 20.318,12.416 23.384,12.422L23.389,9.914C21.707,9.911 20.345,8.546 20.345,6.863L17.837,6.863ZM23.383,12.422C25.535,12.427 27.864,12.43 28.073,12.416L27.908,9.914C27.92,9.913 27.807,9.915 27.511,9.916C27.246,9.918 26.884,9.918 26.456,9.918C25.6,9.919 24.489,9.917 23.389,9.914L23.383,12.422Z" fill="#01008A"/>
<g opacity="0.4">
<path d="M18.791,21.641C19.484,21.641 20.045,21.079 20.045,20.387C20.045,19.694 19.484,19.133 18.791,19.133L18.791,21.641ZM10.598,19.133C9.905,19.133 9.344,19.694 9.344,20.387C9.344,21.079 9.905,21.641 10.598,21.641L10.598,19.133ZM18.791,19.133L10.598,19.133L10.598,21.641L18.791,21.641L18.791,19.133Z" fill="#01008A"/>
</g>
</svg>
