<svg width="36" height="42" viewBox="0 0 36 42" fill="none" xmlns="http://www.w3.org/2000/svg" xmlns:xlink="http://www.w3.org/1999/xlink">
<path d="M22.972,2.023L24.054,0.984C23.771,0.69 23.38,0.523 22.972,0.523L22.972,2.023ZM33.104,12.575L34.604,12.575C34.604,12.188 34.454,11.816 34.186,11.536L33.104,12.575ZM22.972,0.523L9.668,0.523L9.668,3.523L22.972,3.523L22.972,0.523ZM9.668,0.523C4.774,0.523 0.5,4.479 0.5,9.481L3.5,9.481C3.5,6.243 6.322,3.523 9.668,3.523L9.668,0.523ZM0.5,9.481L0.5,31.179L3.5,31.179L3.5,9.481L0.5,9.481ZM0.5,31.179C0.5,36.39 4.518,40.229 9.668,40.229L9.668,37.229C6.114,37.229 3.5,34.672 3.5,31.179L0.5,31.179ZM9.668,40.229L25.644,40.229L25.644,37.229L9.668,37.229L9.668,40.229ZM25.644,40.229C30.616,40.229 34.604,36.104 34.604,31.179L31.604,31.179C31.604,34.494 28.912,37.229 25.644,37.229L25.644,40.229ZM34.604,31.179L34.604,12.575L31.604,12.575L31.604,31.179L34.604,31.179ZM34.186,11.536L24.054,0.984L21.89,3.062L32.022,13.614L34.186,11.536Z" fill="#1D68D8"/>
<path d="M23.947,2C23.947,1.172 23.275,0.5 22.447,0.5C21.618,0.5 20.947,1.172 20.947,2L23.947,2ZM27.585,12.968L27.588,11.468L27.588,11.468L27.585,12.968ZM33.191,14.461C34.018,14.406 34.644,13.692 34.589,12.865C34.535,12.039 33.821,11.413 32.994,11.467L33.191,14.461ZM20.947,2L20.947,7.818L23.947,7.818L23.947,2L20.947,2ZM20.947,7.818C20.947,11.485 23.914,14.46 27.581,14.468L27.588,11.468C25.575,11.464 23.947,9.831 23.947,7.818L20.947,7.818ZM27.581,14.468C30.155,14.474 32.941,14.477 33.191,14.461L32.994,11.467C33.008,11.466 32.874,11.469 32.519,11.471C32.203,11.472 31.769,11.473 31.257,11.473C30.234,11.473 28.903,11.471 27.588,11.468L27.581,14.468Z" fill="#1D68D8"/>
<path d="M22.087,25.494C22.916,25.494 23.587,24.822 23.587,23.994C23.587,23.166 22.916,22.494 22.087,22.494L22.087,25.494ZM12.285,22.494C11.457,22.494 10.785,23.166 10.785,23.994C10.785,24.822 11.457,25.494 12.285,25.494L12.285,22.494ZM22.087,22.494L12.285,22.494L12.285,25.494L22.087,25.494L22.087,22.494Z" fill="#1D68D8"/>
</svg>
