<svg width="36" height="42" viewBox="0 0 36 42" fill="none" xmlns="http://www.w3.org/2000/svg" xmlns:xlink="http://www.w3.org/1999/xlink">
<path d="M22.972,2.145L24.054,1.106C23.771,0.812 23.38,0.645 22.972,0.645L22.972,2.145ZM33.104,12.697L34.604,12.697C34.604,12.31 34.454,11.937 34.186,11.658L33.104,12.697ZM22.972,0.645L9.668,0.645L9.668,3.645L22.972,3.645L22.972,0.645ZM9.668,0.645C4.774,0.645 0.5,4.601 0.5,9.603L3.5,9.603C3.5,6.365 6.322,3.645 9.668,3.645L9.668,0.645ZM0.5,9.603L0.5,31.301L3.5,31.301L3.5,9.603L0.5,9.603ZM0.5,31.301C0.5,36.512 4.518,40.351 9.668,40.351L9.668,37.351C6.114,37.351 3.5,34.794 3.5,31.301L0.5,31.301ZM9.668,40.351L25.644,40.351L25.644,37.351L9.668,37.351L9.668,40.351ZM25.644,40.351C30.616,40.351 34.604,36.226 34.604,31.301L31.604,31.301C31.604,34.616 28.912,37.351 25.644,37.351L25.644,40.351ZM34.604,31.301L34.604,12.697L31.604,12.697L31.604,31.301L34.604,31.301ZM34.186,11.658L24.054,1.106L21.89,3.184L32.022,13.736L34.186,11.658Z" fill="#1D68D8"/>
<path d="M23.947,2.122C23.947,1.293 23.275,0.622 22.447,0.622C21.618,0.622 20.947,1.293 20.947,2.122L23.947,2.122ZM27.585,13.09L27.588,11.59L27.588,11.59L27.585,13.09ZM33.191,14.582C34.018,14.528 34.644,13.814 34.589,12.987C34.535,12.16 33.821,11.534 32.994,11.589L33.191,14.582ZM20.947,2.122L20.947,7.94L23.947,7.94L23.947,2.122L20.947,2.122ZM20.947,7.94C20.947,11.606 23.914,14.582 27.581,14.59L27.588,11.59C25.575,11.585 23.947,9.953 23.947,7.94L20.947,7.94ZM27.581,14.59C30.155,14.595 32.941,14.599 33.191,14.582L32.994,11.589C33.008,11.588 32.874,11.591 32.519,11.592C32.203,11.594 31.769,11.594 31.257,11.594C30.234,11.595 28.903,11.593 27.588,11.59L27.581,14.59Z" fill="#1D68D8"/>
<path d="M22.087,25.615C22.916,25.615 23.587,24.944 23.587,24.115C23.587,23.287 22.916,22.615 22.087,22.615L22.087,25.615ZM12.285,22.615C11.457,22.615 10.785,23.287 10.785,24.115C10.785,24.944 11.457,25.615 12.285,25.615L12.285,22.615ZM22.087,22.615L12.285,22.615L12.285,25.615L22.087,25.615L22.087,22.615Z" fill="#1D68D8"/>
</svg>
