<svg width="30" height="34" viewBox="0 0 30 34" fill="none" xmlns="http://www.w3.org/2000/svg" xmlns:xlink="http://www.w3.org/1999/xlink">
<path d="M19.531,2.021L20.435,1.153C20.199,0.907 19.872,0.768 19.531,0.768L19.531,2.021ZM28,10.842L29.254,10.842C29.254,10.518 29.129,10.207 28.904,9.974L28,10.842ZM19.531,0.768L8.41,0.768L8.41,3.275L19.531,3.275L19.531,0.768ZM8.41,0.768C4.319,0.768 0.746,4.075 0.746,8.256L3.254,8.256C3.254,5.549 5.613,3.275 8.41,3.275L8.41,0.768ZM0.746,8.256L0.746,26.393L3.254,26.393L3.254,8.256L0.746,8.256ZM0.746,26.393C0.746,30.749 4.105,33.958 8.41,33.958L8.41,31.45C5.439,31.45 3.254,29.313 3.254,26.393L0.746,26.393ZM8.41,33.958L21.764,33.958L21.764,31.45L8.41,31.45L8.41,33.958ZM21.764,33.958C25.92,33.958 29.254,30.51 29.254,26.393L26.746,26.393C26.746,29.164 24.496,31.45 21.764,31.45L21.764,33.958ZM29.254,26.393L29.254,10.842L26.746,10.842L26.746,26.393L29.254,26.393ZM28.904,9.974L20.435,1.153L18.626,2.89L27.096,11.71L28.904,9.974Z" fill="#01008A"/>
<path d="M20.346,2C20.346,1.308 19.784,0.746 19.092,0.746C18.399,0.746 17.838,1.308 17.838,2L20.346,2ZM23.387,11.168L23.39,9.914L23.389,9.914L23.387,11.168ZM28.073,12.416C28.764,12.37 29.288,11.773 29.242,11.082C29.196,10.391 28.599,9.868 27.908,9.914L28.073,12.416ZM17.838,2L17.838,6.863L20.346,6.863L20.346,2L17.838,2ZM17.838,6.863C17.838,9.928 20.318,12.416 23.384,12.422L23.389,9.914C21.707,9.911 20.346,8.546 20.346,6.863L17.838,6.863ZM23.384,12.422C25.535,12.427 27.865,12.43 28.073,12.416L27.908,9.914C27.92,9.913 27.808,9.915 27.511,9.916C27.247,9.918 26.884,9.918 26.456,9.918C25.601,9.919 24.489,9.917 23.39,9.914L23.384,12.422Z" fill="#01008A"/>
<g opacity="0.4">
<path d="M18.791,21.639C19.484,21.639 20.045,21.077 20.045,20.385C20.045,19.692 19.484,19.131 18.791,19.131L18.791,21.639ZM10.598,19.131C9.905,19.131 9.344,19.692 9.344,20.385C9.344,21.077 9.905,21.639 10.598,21.639L10.598,19.131ZM18.791,19.131L10.598,19.131L10.598,21.639L18.791,21.639L18.791,19.131Z" fill="#01008A"/>
</g>
</svg>
