<svg width="30" height="34" viewBox="0 0 30 34" fill="none" xmlns="http://www.w3.org/2000/svg" xmlns:xlink="http://www.w3.org/1999/xlink">
<path d="M19.531,0.668L20.435,-0.2C20.199,-0.447 19.872,-0.586 19.531,-0.586L19.531,0.668ZM28,9.488L29.254,9.488C29.254,9.165 29.129,8.854 28.904,8.62L28,9.488ZM19.531,-0.586L8.41,-0.586L8.41,1.922L19.531,1.922L19.531,-0.586ZM8.41,-0.586C4.319,-0.586 0.746,2.721 0.746,6.902L3.254,6.902C3.254,4.195 5.613,1.922 8.41,1.922L8.41,-0.586ZM0.746,6.902L0.746,25.04L3.254,25.04L3.254,6.902L0.746,6.902ZM0.746,25.04C0.746,29.396 4.105,32.605 8.41,32.605L8.41,30.097C5.439,30.097 3.254,27.959 3.254,25.04L0.746,25.04ZM8.41,32.605L21.764,32.605L21.764,30.097L8.41,30.097L8.41,32.605ZM21.764,32.605C25.92,32.605 29.254,29.156 29.254,25.04L26.746,25.04C26.746,27.811 24.496,30.097 21.764,30.097L21.764,32.605ZM29.254,25.04L29.254,9.488L26.746,9.488L26.746,25.04L29.254,25.04ZM28.904,8.62L20.435,-0.2L18.626,1.536L27.096,10.357L28.904,8.62Z" fill="#FFFFFF"/>
<path d="M20.346,0.648C20.346,-0.044 19.784,-0.605 19.092,-0.605C18.399,-0.605 17.838,-0.044 17.838,0.648L20.346,0.648ZM23.387,9.817L23.39,8.563L23.389,8.563L23.387,9.817ZM28.073,11.064C28.764,11.019 29.288,10.422 29.242,9.731C29.196,9.04 28.599,8.517 27.908,8.562L28.073,11.064ZM17.838,0.648L17.838,5.512L20.346,5.512L20.346,0.648L17.838,0.648ZM17.838,5.512C17.838,8.577 20.318,11.064 23.384,11.07L23.389,8.563C21.707,8.559 20.346,7.195 20.346,5.512L17.838,5.512ZM23.384,11.07C25.535,11.075 27.865,11.078 28.073,11.064L27.908,8.562C27.92,8.561 27.808,8.564 27.511,8.565C27.247,8.566 26.884,8.567 26.456,8.567C25.601,8.567 24.489,8.565 23.39,8.563L23.384,11.07Z" fill="#FFFFFF"/>
<g opacity="0.4">
<path d="M18.791,20.289C19.484,20.289 20.045,19.728 20.045,19.035C20.045,18.343 19.484,17.781 18.791,17.781L18.791,20.289ZM10.598,17.781C9.905,17.781 9.344,18.343 9.344,19.035C9.344,19.728 9.905,20.289 10.598,20.289L10.598,17.781ZM18.791,17.781L10.598,17.781L10.598,20.289L18.791,20.289L18.791,17.781Z" fill="#FFFFFF"/>
</g>
</svg>
