<svg width="12" height="18" viewBox="0 0 12 18" fill="none" xmlns="http://www.w3.org/2000/svg" xmlns:xlink="http://www.w3.org/1999/xlink">
<path d="M3.303,0.483C2.618,-0.202 1.508,-0.202 0.823,0.483C0.138,1.168 0.138,2.278 0.823,2.963L3.303,0.483ZM9.078,8.738L10.319,9.978C11.004,9.294 11.004,8.183 10.319,7.498L9.078,8.738ZM0.823,14.514C0.138,15.198 0.138,16.309 0.823,16.994C1.508,17.679 2.618,17.679 3.303,16.994L0.823,14.514ZM0.823,2.963L7.838,9.978L10.319,7.498L3.303,0.483L0.823,2.963ZM7.838,7.498L0.823,14.514L3.303,16.994L10.319,9.978L7.838,7.498Z" transform="rotate(-359.994 5.571 8.738)" fill="#505060"/>
</svg>
