<svg width="30" height="14" viewBox="0 0 30 14" fill="none" xmlns="http://www.w3.org/2000/svg" xmlns:xlink="http://www.w3.org/1999/xlink">
<g opacity="0.4">
<path d="M2,7.331L3.29,7.333L3.29,7.326L2,7.331ZM2.378,5.663L1.224,5.086L1.216,5.103L2.378,5.663ZM7.226,2.876L7.485,4.14L7.495,4.138L7.226,2.876ZM11.256,2.31L11.345,3.597L11.369,3.595L11.256,2.31ZM18.796,2.31L18.683,3.595L18.706,3.596L18.796,2.31ZM22.826,2.876L22.558,4.138L22.567,4.14L22.826,2.876ZM27.675,5.663L28.839,5.109L28.839,5.108L27.675,5.663ZM27.675,9.016L28.839,9.57L28.839,9.57L27.675,9.016ZM22.826,11.786L22.577,10.521C22.567,10.523 22.557,10.525 22.546,10.527L22.826,11.786ZM18.796,12.369L18.709,11.082L18.687,11.083L18.796,12.369ZM12.657,12.463L12.726,11.175C12.703,11.174 12.68,11.173 12.657,11.173L12.657,12.463ZM11.256,12.369L11.509,11.104C11.454,11.093 11.399,11.086 11.343,11.082L11.256,12.369ZM7.242,11.786L7.524,10.528C7.512,10.525 7.501,10.523 7.489,10.52L7.242,11.786ZM2.378,9.016L1.212,9.568L1.218,9.579L2.378,9.016ZM3.29,7.326C3.288,6.944 3.374,6.567 3.54,6.223L1.216,5.103C0.88,5.799 0.707,6.563 0.71,7.336L3.29,7.326ZM3.531,6.24C3.752,5.798 4.233,5.359 4.995,4.969C5.741,4.587 6.636,4.314 7.485,4.14L6.967,1.613C5.975,1.816 4.839,2.15 3.818,2.673C2.814,3.188 1.791,3.953 1.224,5.086L3.531,6.24ZM7.495,4.138C8.764,3.867 10.051,3.686 11.345,3.597L11.167,1.023C9.751,1.121 8.345,1.319 6.957,1.615L7.495,4.138ZM11.369,3.595C13.802,3.381 16.25,3.381 18.683,3.595L18.909,1.025C16.326,0.798 13.727,0.798 11.143,1.025L11.369,3.595ZM18.706,3.596C20.001,3.687 21.288,3.868 22.558,4.138L23.094,1.615C21.707,1.32 20.301,1.122 18.887,1.023L18.706,3.596ZM22.567,4.14C23.435,4.318 24.327,4.573 25.068,4.945C25.817,5.32 26.288,5.751 26.51,6.217L28.839,5.108C28.274,3.921 27.242,3.148 26.224,2.638C25.197,2.124 24.059,1.813 23.085,1.613L22.567,4.14ZM26.51,6.217C26.848,6.927 26.848,7.752 26.51,8.462L28.839,9.57C29.511,8.158 29.511,6.52 28.839,5.109L26.51,6.217ZM26.51,8.461C26.288,8.927 25.817,9.358 25.07,9.731C24.331,10.099 23.441,10.351 22.577,10.521L23.075,13.052C24.053,12.86 25.194,12.552 26.222,12.039C27.242,11.53 28.274,10.757 28.839,9.57L26.51,8.461ZM22.546,10.527C21.283,10.808 20,10.994 18.709,11.082L18.884,13.656C20.305,13.559 21.716,13.355 23.106,13.045L22.546,10.527ZM18.687,11.083C16.705,11.252 14.713,11.282 12.726,11.175L12.588,13.751C14.693,13.865 16.804,13.832 18.905,13.654L18.687,11.083ZM12.657,11.173C12.167,11.173 11.837,11.169 11.509,11.104L11.003,13.633C11.62,13.757 12.203,13.753 12.657,13.753L12.657,11.173ZM11.343,11.082C10.058,10.995 8.781,10.81 7.524,10.528L6.96,13.045C8.345,13.356 9.752,13.56 11.169,13.656L11.343,11.082ZM7.489,10.52C6.618,10.351 5.729,10.099 4.99,9.731C4.245,9.359 3.768,8.926 3.538,8.452L1.218,9.579C1.79,10.758 2.817,11.53 3.839,12.039C4.867,12.552 6.008,12.86 6.995,13.052L7.489,10.52ZM3.543,8.463C3.376,8.11 3.289,7.724 3.29,7.333L0.71,7.33C0.709,8.104 0.881,8.869 1.212,9.568L3.543,8.463Z" fill="#FFFFFF"/>
</g>
</svg>
