<svg width="624" height="80" viewBox="0 0 624 80" fill="none" xmlns="http://www.w3.org/2000/svg" xmlns:xlink="http://www.w3.org/1999/xlink">
<path d="M9.456,0L613.456,0C616.108,0 618.652,1.054 620.528,2.929C622.402,4.804 623.456,7.348 623.456,10L623.456,70C623.456,72.652 622.402,75.196 620.528,77.071C618.652,78.946 616.108,80 613.456,80L9.456,80C6.804,80 4.26,78.946 2.385,77.071C0.51,75.196 -0.544,72.652 -0.544,70L-0.544,10C-0.544,7.348 0.51,4.804 2.385,2.929C4.26,1.054 6.804,0 9.456,0L9.456,0Z" fill="#179E8A"/>
</svg>
