<svg width="34" height="16" viewBox="0 0 34 16" fill="none" xmlns="http://www.w3.org/2000/svg" xmlns:xlink="http://www.w3.org/1999/xlink">
<path d="M2.351,8.027L3.834,8.029L3.834,8.022L2.351,8.027ZM2.785,6.109L1.459,5.446L1.45,5.466L2.785,6.109ZM8.358,2.907L8.656,4.359L8.668,4.357L8.358,2.907ZM12.991,2.255L13.093,3.734L13.12,3.732L12.991,2.255ZM21.658,2.255L21.528,3.732L21.554,3.734L21.658,2.255ZM26.29,2.907L25.982,4.357L25.992,4.359L26.29,2.907ZM31.863,6.109L33.202,5.473L33.202,5.472L31.863,6.109ZM31.863,9.963L33.202,10.601L33.202,10.6L31.863,9.963ZM26.29,13.148L26.004,11.693C25.992,11.696 25.98,11.698 25.968,11.701L26.29,13.148ZM21.658,13.818L21.557,12.338L21.533,12.34L21.658,13.818ZM14.601,13.926L14.681,12.446C14.654,12.444 14.628,12.444 14.601,12.444L14.601,13.926ZM12.991,13.818L13.281,12.364C13.218,12.351 13.155,12.343 13.091,12.338L12.991,13.818ZM8.377,13.148L8.701,11.701C8.687,11.698 8.674,11.695 8.66,11.693L8.377,13.148ZM2.785,9.963L1.446,10.599L1.452,10.611L2.785,9.963ZM3.834,8.022C3.832,7.582 3.93,7.149 4.121,6.753L1.45,5.466C1.064,6.266 0.865,7.144 0.868,8.033L3.834,8.022ZM4.111,6.772C4.365,6.265 4.917,5.761 5.793,5.312C6.651,4.872 7.68,4.559 8.656,4.359L8.061,1.454C6.92,1.688 5.614,2.072 4.441,2.673C3.286,3.264 2.11,4.144 1.459,5.446L4.111,6.772ZM8.668,4.357C10.126,4.045 11.605,3.837 13.093,3.734L12.888,0.776C11.261,0.889 9.644,1.116 8.049,1.457L8.668,4.357ZM13.12,3.732C15.918,3.486 18.731,3.486 21.528,3.732L21.788,0.778C18.818,0.517 15.831,0.517 12.861,0.778L13.12,3.732ZM21.554,3.734C23.043,3.838 24.522,4.047 25.982,4.357L26.598,1.456C25.004,1.117 23.388,0.89 21.762,0.776L21.554,3.734ZM25.992,4.359C26.99,4.564 28.016,4.857 28.867,5.284C29.728,5.715 30.269,6.211 30.525,6.747L33.202,5.472C32.552,4.108 31.366,3.219 30.196,2.633C29.016,2.042 27.707,1.684 26.588,1.454L25.992,4.359ZM30.524,6.746C30.912,7.562 30.912,8.51 30.524,9.327L33.202,10.6C33.974,8.978 33.974,7.095 33.202,5.473L30.524,6.746ZM30.525,9.326C30.27,9.862 29.728,10.357 28.869,10.785C28.02,11.209 26.997,11.498 26.004,11.693L26.576,14.603C27.7,14.382 29.011,14.028 30.193,13.439C31.365,12.854 32.552,11.965 33.202,10.601L30.525,9.326ZM25.968,11.701C24.516,12.024 23.041,12.237 21.557,12.338L21.759,15.297C23.392,15.185 25.014,14.951 26.612,14.595L25.968,11.701ZM21.533,12.34C19.254,12.533 16.964,12.569 14.681,12.446L14.521,15.407C16.942,15.537 19.368,15.5 21.783,15.295L21.533,12.34ZM14.601,12.444C14.038,12.444 13.658,12.439 13.281,12.364L12.7,15.271C13.409,15.413 14.079,15.409 14.601,15.409L14.601,12.444ZM13.091,12.338C11.613,12.238 10.146,12.025 8.701,11.701L8.052,14.595C9.645,14.952 11.262,15.187 12.891,15.297L13.091,12.338ZM8.66,11.693C7.66,11.498 6.637,11.209 5.788,10.785C4.931,10.358 4.384,9.86 4.119,9.316L1.452,10.611C2.11,11.966 3.29,12.853 4.464,13.439C5.647,14.029 6.958,14.382 8.093,14.603L8.66,11.693ZM4.125,9.328C3.933,8.922 3.833,8.479 3.834,8.029L0.868,8.025C0.867,8.915 1.064,9.794 1.446,10.599L4.125,9.328Z" fill="#837425"/>
</svg>
