<svg width="30" height="14" viewBox="0 0 30 14" fill="none" xmlns="http://www.w3.org/2000/svg" xmlns:xlink="http://www.w3.org/1999/xlink">
<g opacity="0.4">
<path d="M2,6.331L3.29,6.333L3.29,6.326L2,6.331ZM2.378,4.663L1.224,4.086L1.216,4.103L2.378,4.663ZM7.226,1.876L7.485,3.14L7.495,3.138L7.226,1.876ZM11.256,1.31L11.345,2.597L11.369,2.595L11.256,1.31ZM18.796,1.31L18.683,2.595L18.706,2.596L18.796,1.31ZM22.826,1.876L22.558,3.138L22.567,3.14L22.826,1.876ZM27.675,4.663L28.839,4.109L28.839,4.108L27.675,4.663ZM27.675,8.016L28.839,8.57L28.839,8.57L27.675,8.016ZM22.826,10.786L22.577,9.521C22.567,9.523 22.557,9.525 22.546,9.527L22.826,10.786ZM18.796,11.369L18.709,10.082L18.687,10.083L18.796,11.369ZM12.657,11.463L12.726,10.175C12.703,10.174 12.68,10.173 12.657,10.173L12.657,11.463ZM11.256,11.369L11.509,10.104C11.454,10.093 11.399,10.086 11.343,10.082L11.256,11.369ZM7.242,10.786L7.524,9.528C7.512,9.525 7.501,9.523 7.489,9.52L7.242,10.786ZM2.378,8.016L1.212,8.568L1.218,8.579L2.378,8.016ZM3.29,6.326C3.288,5.944 3.374,5.567 3.54,5.223L1.216,4.103C0.88,4.799 0.707,5.563 0.71,6.336L3.29,6.326ZM3.531,5.24C3.752,4.798 4.233,4.359 4.995,3.969C5.741,3.587 6.636,3.314 7.485,3.14L6.967,0.613C5.975,0.816 4.839,1.15 3.818,1.673C2.814,2.188 1.791,2.953 1.224,4.086L3.531,5.24ZM7.495,3.138C8.764,2.867 10.051,2.686 11.345,2.597L11.167,0.023C9.751,0.121 8.345,0.319 6.957,0.615L7.495,3.138ZM11.369,2.595C13.802,2.381 16.25,2.381 18.683,2.595L18.909,0.025C16.326,-0.202 13.727,-0.202 11.143,0.025L11.369,2.595ZM18.706,2.596C20.001,2.687 21.288,2.868 22.558,3.138L23.094,0.615C21.707,0.32 20.301,0.122 18.887,0.023L18.706,2.596ZM22.567,3.14C23.435,3.318 24.327,3.573 25.068,3.945C25.817,4.32 26.288,4.751 26.51,5.217L28.839,4.108C28.274,2.921 27.242,2.148 26.224,1.638C25.197,1.124 24.059,0.813 23.085,0.613L22.567,3.14ZM26.51,5.217C26.848,5.927 26.848,6.752 26.51,7.462L28.839,8.57C29.511,7.158 29.511,5.52 28.839,4.109L26.51,5.217ZM26.51,7.461C26.288,7.927 25.817,8.358 25.07,8.731C24.331,9.099 23.441,9.351 22.577,9.521L23.075,12.052C24.053,11.86 25.194,11.552 26.222,11.039C27.242,10.53 28.274,9.757 28.839,8.57L26.51,7.461ZM22.546,9.527C21.283,9.808 20,9.994 18.709,10.082L18.884,12.656C20.305,12.559 21.716,12.355 23.106,12.045L22.546,9.527ZM18.687,10.083C16.705,10.252 14.713,10.282 12.726,10.175L12.588,12.751C14.693,12.865 16.804,12.832 18.905,12.654L18.687,10.083ZM12.657,10.173C12.167,10.173 11.837,10.169 11.509,10.104L11.003,12.633C11.62,12.757 12.203,12.753 12.657,12.753L12.657,10.173ZM11.343,10.082C10.058,9.995 8.781,9.81 7.524,9.528L6.96,12.045C8.345,12.356 9.752,12.56 11.169,12.656L11.343,10.082ZM7.489,9.52C6.618,9.351 5.729,9.099 4.99,8.731C4.245,8.359 3.768,7.926 3.538,7.452L1.218,8.579C1.79,9.758 2.817,10.53 3.839,11.039C4.867,11.552 6.008,11.86 6.995,12.052L7.489,9.52ZM3.543,7.463C3.376,7.11 3.289,6.724 3.29,6.333L0.71,6.33C0.709,7.104 0.881,7.869 1.212,8.568L3.543,7.463Z" fill="#01008A"/>
</g>
</svg>
