<svg width="30" height="14" viewBox="0 0 30 14" fill="none" xmlns="http://www.w3.org/2000/svg" xmlns:xlink="http://www.w3.org/1999/xlink">
<g opacity="0.4">
<path d="M2,6.333L3.29,6.335L3.29,6.328L2,6.333ZM2.378,4.665L1.224,4.088L1.216,4.105L2.378,4.665ZM7.226,1.878L7.486,3.142L7.496,3.14L7.226,1.878ZM11.256,1.312L11.345,2.599L11.369,2.597L11.256,1.312ZM18.796,1.312L18.684,2.597L18.706,2.598L18.796,1.312ZM22.826,1.878L22.558,3.14L22.567,3.142L22.826,1.878ZM27.675,4.665L28.839,4.111L28.839,4.11L27.675,4.665ZM27.675,8.018L28.839,8.572L28.839,8.572L27.675,8.018ZM22.826,10.788L22.577,9.523C22.567,9.525 22.557,9.527 22.546,9.529L22.826,10.788ZM18.796,11.371L18.709,10.084L18.687,10.085L18.796,11.371ZM12.657,11.465L12.727,10.177C12.703,10.176 12.68,10.175 12.657,10.175L12.657,11.465ZM11.256,11.371L11.509,10.106C11.454,10.095 11.399,10.088 11.343,10.084L11.256,11.371ZM7.242,10.788L7.524,9.53C7.513,9.527 7.501,9.525 7.489,9.522L7.242,10.788ZM2.378,8.018L1.212,8.57L1.218,8.581L2.378,8.018ZM3.29,6.328C3.288,5.946 3.374,5.569 3.54,5.225L1.216,4.105C0.88,4.801 0.707,5.565 0.71,6.338L3.29,6.328ZM3.532,5.242C3.752,4.8 4.233,4.361 4.995,3.971C5.741,3.588 6.636,3.316 7.486,3.142L6.967,0.615C5.975,0.818 4.839,1.152 3.819,1.675C2.814,2.19 1.791,2.955 1.224,4.088L3.532,5.242ZM7.496,3.14C8.764,2.869 10.051,2.688 11.345,2.598L11.167,0.025C9.752,0.123 8.345,0.321 6.957,0.617L7.496,3.14ZM11.369,2.597C13.803,2.383 16.25,2.383 18.684,2.597L18.909,0.027C16.326,-0.2 13.727,-0.2 11.143,0.027L11.369,2.597ZM18.706,2.598C20.001,2.689 21.288,2.87 22.558,3.14L23.094,0.617C21.707,0.322 20.301,0.124 18.887,0.025L18.706,2.598ZM22.567,3.142C23.435,3.32 24.327,3.575 25.068,3.947C25.817,4.322 26.288,4.753 26.51,5.219L28.839,4.11C28.274,2.923 27.242,2.15 26.224,1.64C25.197,1.126 24.059,0.815 23.085,0.615L22.567,3.142ZM26.51,5.219C26.848,5.929 26.848,6.754 26.51,7.464L28.839,8.572C29.511,7.16 29.511,5.522 28.839,4.111L26.51,5.219ZM26.51,7.463C26.288,7.929 25.817,8.36 25.07,8.733C24.331,9.101 23.441,9.353 22.577,9.523L23.075,12.054C24.053,11.862 25.194,11.554 26.222,11.041C27.242,10.532 28.274,9.759 28.839,8.572L26.51,7.463ZM22.546,9.529C21.283,9.81 20,9.996 18.709,10.084L18.884,12.658C20.305,12.561 21.716,12.357 23.106,12.047L22.546,9.529ZM18.687,10.085C16.705,10.254 14.713,10.284 12.727,10.177L12.588,12.753C14.693,12.866 16.804,12.834 18.905,12.656L18.687,10.085ZM12.657,10.175C12.167,10.175 11.837,10.171 11.509,10.106L11.003,12.635C11.62,12.759 12.203,12.755 12.657,12.755L12.657,10.175ZM11.343,10.084C10.058,9.997 8.781,9.812 7.524,9.53L6.96,12.047C8.345,12.358 9.752,12.562 11.169,12.658L11.343,10.084ZM7.489,9.522C6.618,9.353 5.729,9.101 4.99,8.733C4.245,8.361 3.768,7.928 3.538,7.454L1.218,8.581C1.79,9.76 2.817,10.532 3.839,11.041C4.867,11.554 6.008,11.862 6.995,12.054L7.489,9.522ZM3.543,7.465C3.376,7.112 3.289,6.726 3.29,6.335L0.71,6.332C0.709,7.106 0.881,7.871 1.212,8.57L3.543,7.465Z" fill="#01008A"/>
</g>
</svg>
