<svg width="10" height="16" viewBox="0 0 10 16" fill="none" xmlns="http://www.w3.org/2000/svg" xmlns:xlink="http://www.w3.org/1999/xlink">
<path d="M3.061,0.939C2.475,0.353 1.525,0.353 0.94,0.939C0.354,1.525 0.354,2.475 0.94,3.06L3.061,0.939ZM8,8L9.061,9.06C9.647,8.475 9.647,7.525 9.061,6.939L8,8ZM0.94,12.939C0.354,13.525 0.354,14.475 0.94,15.06C1.525,15.646 2.475,15.646 3.061,15.06L0.94,12.939ZM0.94,3.06L6.94,9.06L9.061,6.939L3.061,0.939L0.94,3.06ZM6.94,6.939L0.94,12.939L3.061,15.06L9.061,9.06L6.94,6.939Z" transform="rotate(-359.994 5 8)" fill="#505060"/>
</svg>
