<svg width="12" height="4" viewBox="0 0 12 4" fill="none" xmlns="http://www.w3.org/2000/svg" xmlns:xlink="http://www.w3.org/1999/xlink">
<path d="M2.323,-0.371C2.586,-0.371 2.82,-0.318 3.027,-0.213C3.237,-0.108 3.4,0.039 3.515,0.228C3.634,0.413 3.694,0.627 3.694,0.868C3.694,1.11 3.634,1.325 3.515,1.514C3.4,1.7 3.237,1.845 3.027,1.95C2.82,2.055 2.586,2.108 2.323,2.108L1.546,2.108L1.546,3.236L0.648,3.236L0.648,-0.371L2.323,-0.371ZM2.244,1.288C2.402,1.288 2.53,1.25 2.628,1.173C2.726,1.096 2.775,0.994 2.775,0.868C2.775,0.742 2.726,0.641 2.628,0.564C2.53,0.487 2.402,0.448 2.244,0.448L1.546,0.448L1.546,1.288L2.244,1.288Z" fill="#FFFFFF"/>
<path d="M4.165,-0.371L5.063,-0.371L6.638,1.761L6.638,-0.371L7.536,-0.371L7.536,3.236L6.638,3.236L5.063,1.105L5.063,3.236L4.165,3.236L4.165,-0.371Z" fill="#FFFFFF"/>
<path d="M9.821,1.168L11.459,1.168L11.459,2.675C11.281,2.871 11.06,3.025 10.798,3.137C10.535,3.245 10.266,3.299 9.989,3.299C9.636,3.299 9.308,3.215 9.007,3.047C8.706,2.879 8.467,2.652 8.288,2.365C8.113,2.078 8.026,1.766 8.026,1.43C8.026,1.094 8.113,0.784 8.288,0.501C8.467,0.214 8.706,-0.014 9.007,-0.182C9.308,-0.35 9.636,-0.434 9.989,-0.434C10.266,-0.434 10.533,-0.378 10.792,-0.266C11.055,-0.157 11.277,-0.007 11.459,0.186L10.803,0.769C10.705,0.65 10.582,0.555 10.435,0.485C10.292,0.415 10.143,0.38 9.989,0.38C9.804,0.38 9.63,0.427 9.469,0.522C9.312,0.616 9.186,0.744 9.091,0.905C8.997,1.066 8.95,1.241 8.95,1.43C8.95,1.619 8.997,1.794 9.091,1.955C9.186,2.116 9.312,2.246 9.469,2.344C9.63,2.438 9.804,2.486 9.989,2.486C10.203,2.486 10.402,2.423 10.588,2.297L10.588,1.845L9.821,1.845L9.821,1.168Z" fill="#FFFFFF"/>
</svg>
