<svg width="686" height="94" viewBox="0 0 686 94" fill="none" xmlns="http://www.w3.org/2000/svg" xmlns:xlink="http://www.w3.org/1999/xlink">
<path d="M675.042,0.792L10.958,0.792C4.906,0.792 0,5.698 0,11.75L0,81.885C0,87.937 4.906,92.843 10.958,92.843L675.042,92.843C681.094,92.843 686,87.937 686,81.885L686,11.75C686,5.698 681.094,0.792 675.042,0.792Z" fill="#FFFFFF"/>
<path d="M10.958,2.984L675.042,2.984L675.042,0.792L10.958,0.792L10.958,2.984ZM675.042,2.984C679.884,2.984 683.808,6.909 683.808,11.75L686,11.75C686,5.698 681.094,0.792 675.042,0.792L675.042,2.984ZM683.808,11.75L683.808,81.884L686,81.884L686,11.75L683.808,11.75ZM683.808,81.884C683.808,86.726 679.884,90.651 675.042,90.651L675.042,92.843C681.094,92.843 686,87.937 686,81.884L683.808,81.884ZM675.042,90.651L10.958,90.651L10.958,92.843L675.042,92.843L675.042,90.651ZM10.958,90.651C6.117,90.651 2.192,86.726 2.192,81.884L0,81.884C0,87.937 4.906,92.843 10.958,92.843L10.958,90.651ZM2.192,81.884L2.192,11.75L0,11.75L0,81.884L2.192,81.884ZM2.192,11.75C2.192,6.909 6.117,2.984 10.958,2.984L10.958,0.792C4.906,0.792 0,5.698 0,11.75L2.192,11.75Z" fill="#B5B5B5"/>
</svg>
