<svg width="170" height="64" viewBox="0 0 170 64" fill="none" xmlns="http://www.w3.org/2000/svg" xmlns:xlink="http://www.w3.org/1999/xlink">
<path d="M138,0L32,0C14.327,0 0,14.327 0,32C0,49.673 14.327,64 32,64L138,64C155.673,64 170,49.673 170,32C170,14.327 155.673,0 138,0Z" fill="#FFFFFF"/>
<path d="M32,3L138,3L138,0L32,0L32,3ZM138,3C154.016,3 167,15.984 167,32L170,32C170,14.327 155.673,0 138,0L138,3ZM167,32C167,48.016 154.016,61 138,61L138,64C155.673,64 170,49.673 170,32L167,32ZM138,61L32,61L32,64L138,64L138,61ZM32,61C15.984,61 3,48.016 3,32L0,32C0,49.673 14.327,64 32,64L32,61ZM3,32C3,15.984 15.984,3 32,3L32,0C14.327,0 0,14.327 0,32L3,32Z" fill="#179E8A"/>
</svg>
