<svg width="626" height="84" viewBox="0 0 626 84" fill="none" xmlns="http://www.w3.org/2000/svg" xmlns:xlink="http://www.w3.org/1999/xlink">
<path d="M615.456,0L9.456,0C3.933,0 -0.544,4.477 -0.544,10L-0.544,74C-0.544,79.523 3.933,84 9.456,84L615.456,84C620.978,84 625.456,79.523 625.456,74L625.456,10C625.456,4.477 620.978,0 615.456,0Z" fill="#FFFFFF"/>
<path d="M9.456,2L615.456,2L615.456,0L9.456,0L9.456,2ZM615.456,2C619.874,2 623.456,5.582 623.456,10L625.456,10C625.456,4.477 620.978,0 615.456,0L615.456,2ZM623.456,10L623.456,74L625.456,74L625.456,10L623.456,10ZM623.456,74C623.456,78.418 619.874,82 615.456,82L615.456,84C620.978,84 625.456,79.523 625.456,74L623.456,74ZM615.456,82L9.456,82L9.456,84L615.456,84L615.456,82ZM9.456,82C5.038,82 1.456,78.418 1.456,74L-0.544,74C-0.544,79.523 3.933,84 9.456,84L9.456,82ZM1.456,74L1.456,10L-0.544,10L-0.544,74L1.456,74ZM1.456,10C1.456,5.582 5.038,2 9.456,2L9.456,0C3.933,0 -0.544,4.477 -0.544,10L1.456,10Z" fill="#B5B5B5"/>
</svg>
