<svg width="18" height="18" viewBox="0 0 18 18" fill="none" xmlns="http://www.w3.org/2000/svg" xmlns:xlink="http://www.w3.org/1999/xlink">
<path d="M17.456,0L-0.544,0L-0.544,18L17.456,18L17.456,0Z" fill="#FFFFFF"/>
<path d="M0.456,1L0.456,0L-0.544,0L-0.544,1L0.456,1ZM16.456,1L17.456,1L17.456,0L16.456,0L16.456,1ZM16.456,17L16.456,18L17.456,18L17.456,17L16.456,17ZM0.456,17L-0.544,17L-0.544,18L0.456,18L0.456,17ZM0.456,2L16.456,2L16.456,0L0.456,0L0.456,2ZM15.456,1L15.456,17L17.456,17L17.456,1L15.456,1ZM16.456,16L0.456,16L0.456,18L16.456,18L16.456,16ZM1.456,17L1.456,1L-0.544,1L-0.544,17L1.456,17Z" fill="#626262"/>
</svg>
