<svg width="1626" height="64" viewBox="0 0 1626 64" fill="none" xmlns="http://www.w3.org/2000/svg" xmlns:xlink="http://www.w3.org/1999/xlink">
<path d="M1591.22,0L34.781,0C15.572,0 0,14.327 0,32C0,49.673 15.572,64 34.781,64L1591.22,64C1610.428,64 1626,49.673 1626,32C1626,14.327 1610.428,0 1591.22,0Z" fill="#FFFFFF"/>
<path d="M34.781,3L1591.219,3L1591.219,0L34.781,0L34.781,3ZM1591.219,3C1608.819,3 1622.871,16.099 1622.871,32L1625.871,32C1625.871,14.212 1610.237,0 1591.219,0L1591.219,3ZM1622.871,32C1622.871,47.901 1608.819,61 1591.219,61L1591.219,64C1610.237,64 1625.871,49.788 1625.871,32L1622.871,32ZM1591.219,61L34.781,61L34.781,64L1591.219,64L1591.219,61ZM34.781,61C17.181,61 3.131,47.901 3.131,32L0.131,32C0.131,49.788 15.764,64 34.781,64L34.781,61ZM3.131,32C3.131,16.099 17.181,3 34.781,3L34.781,0C15.764,0 0.131,14.212 0.131,32L3.131,32Z" fill="#179E8A"/>
</svg>
