<svg width="582" height="78" viewBox="0 0 582 78" fill="none" xmlns="http://www.w3.org/2000/svg" xmlns:xlink="http://www.w3.org/1999/xlink">
<path d="M571.423,-0.393L8.885,-0.393C3.759,-0.393 -0.397,3.763 -0.397,8.89L-0.397,68.3C-0.397,73.427 3.759,77.583 8.885,77.583L571.423,77.583C576.549,77.583 580.705,73.427 580.705,68.3L580.705,8.89C580.705,3.763 576.549,-0.393 571.423,-0.393Z" fill="#FFFFFF"/>
<path d="M8.886,1.463L571.421,1.463L571.421,-0.393L8.886,-0.393L8.886,1.463ZM571.421,1.463C575.523,1.463 578.849,4.788 578.849,8.89L580.705,8.89C580.705,3.763 576.549,-0.393 571.421,-0.393L571.421,1.463ZM578.849,8.89L578.849,68.299L580.705,68.299L580.705,8.89L578.849,8.89ZM578.849,68.299C578.849,72.401 575.523,75.726 571.421,75.726L571.421,77.582C576.549,77.582 580.705,73.426 580.705,68.299L578.849,68.299ZM571.421,75.726L8.886,75.726L8.886,77.582L571.421,77.582L571.421,75.726ZM8.886,75.726C4.784,75.726 1.46,72.401 1.46,68.299L-0.397,68.299C-0.397,73.426 3.759,77.582 8.886,77.582L8.886,75.726ZM1.46,68.299L1.46,8.89L-0.397,8.89L-0.397,68.299L1.46,68.299ZM1.46,8.89C1.46,4.788 4.784,1.463 8.886,1.463L8.886,-0.393C3.759,-0.393 -0.397,3.763 -0.397,8.89L1.46,8.89Z" fill="#B5B5B5"/>
</svg>
