<svg width="74" height="74" viewBox="0 0 74 74" fill="none" xmlns="http://www.w3.org/2000/svg" xmlns:xlink="http://www.w3.org/1999/xlink">
<circle cx="34.526" cy="36.508" r="23.076" fill="#FF0000"/>
<path d="M24.42,28.436C24.688,28.168 25.051,28.018 25.43,28.018C25.809,28.018 26.172,28.168 26.44,28.436L34.001,35.998L41.563,28.436C41.694,28.3 41.852,28.191 42.026,28.116C42.201,28.041 42.388,28.002 42.578,28C42.767,27.998 42.956,28.035 43.131,28.106C43.307,28.178 43.466,28.284 43.6,28.418C43.734,28.553 43.841,28.712 43.912,28.888C43.984,29.063 44.02,29.251 44.019,29.441C44.017,29.631 43.978,29.818 43.903,29.992C43.828,30.167 43.719,30.324 43.583,30.456L36.021,38.018L43.583,45.579C43.843,45.848 43.987,46.209 43.984,46.584C43.98,46.958 43.83,47.317 43.565,47.582C43.3,47.846 42.942,47.997 42.567,48C42.193,48.003 41.832,47.859 41.563,47.599L34.001,40.038L26.44,47.599C26.17,47.859 25.809,48.003 25.435,48C25.06,47.997 24.702,47.846 24.437,47.582C24.172,47.317 24.022,46.958 24.019,46.584C24.016,46.209 24.16,45.848 24.42,45.579L31.981,38.018L24.42,30.456C24.152,30.188 24.001,29.825 24.001,29.446C24.001,29.067 24.152,28.704 24.42,28.436L24.42,28.436Z" clip-rule="evenodd" fill-rule="evenodd" fill="#FFFFFF" stroke="#FFFFFF" stroke-width="2.5" stroke-miterlimit="3.999327"/>
</svg>
