<svg width="28" height="10" viewBox="0 0 28 10" fill="none" xmlns="http://www.w3.org/2000/svg" xmlns:xlink="http://www.w3.org/1999/xlink">
<path d="M4.116,9.954C6.412,9.954 7.728,8.736 7.728,7.014C7.728,5.264 6.384,4.62 4.382,4.172C2.856,3.822 2.142,3.542 2.142,2.758C2.142,2.086 2.8,1.498 3.766,1.498C4.718,1.498 5.684,1.904 6.524,2.632L7.476,1.344C6.51,0.518 5.362,0 3.836,0C1.806,0 0.378,1.232 0.378,2.912C0.378,4.718 1.764,5.292 3.752,5.754C5.292,6.118 5.978,6.384 5.978,7.182C5.978,7.868 5.362,8.456 4.172,8.456C2.912,8.456 1.89,7.952 1.008,7.154L0,8.4C1.064,9.394 2.464,9.954 4.116,9.954Z" fill="#01008A"/>
<path d="M16.506,9.8L18.438,9.8L14.42,0.182L12.474,0.182L8.456,9.8L10.402,9.8L11.13,8.064L15.778,8.064L16.506,9.8ZM11.76,6.552L13.454,2.506L15.148,6.552L11.76,6.552Z" fill="#01008A"/>
<path d="M21.259,9.8L22.995,9.8L22.995,1.778L26.075,1.778L26.075,0.182L18.179,0.182L18.179,1.778L21.259,1.778L21.259,9.8Z" fill="#01008A"/>
</svg>
