<svg width="40" height="42" viewBox="0 0 40 42" fill="none" xmlns="http://www.w3.org/2000/svg" xmlns:xlink="http://www.w3.org/1999/xlink">
<path d="M37.056,12.691L38.556,12.691C38.556,12.428 38.487,12.17 38.356,11.942L37.056,12.691ZM35.811,10.531L34.512,11.28L34.512,11.28L35.811,10.531ZM25.377,7.767L26.671,7.008L26.666,7.001L25.377,7.767ZM21.038,2L21.038,3.5L21.038,3.5L21.038,2ZM18.53,2L18.53,3.5L18.53,3.5L18.53,2ZM10.896,9.597L10.88,11.097L10.896,11.097L10.896,9.597ZM3.848,10.494L5.129,11.274C5.136,11.264 5.142,11.253 5.148,11.243L3.848,10.494ZM2.512,12.691L1.23,11.911C1.224,11.922 1.218,11.932 1.212,11.942L2.512,12.691ZM3.775,31.913L5.087,31.186C5.082,31.177 5.077,31.169 5.072,31.161L3.775,31.913ZM14.191,34.787L12.889,35.532L12.901,35.553L14.191,34.787ZM21.038,40.444L21.038,38.944L21.038,38.944L21.038,40.444ZM28.69,32.81L28.73,31.311C28.719,31.31 28.708,31.31 28.697,31.31L28.69,32.81ZM37.056,29.735L38.343,30.506L38.352,30.49L37.056,29.735ZM34.274,19.3L35.57,20.055L35.575,20.045L34.274,19.3ZM38.356,11.942L37.111,9.782L34.512,11.28L35.757,13.44L38.356,11.942ZM37.111,9.782C35.645,7.238 32.396,6.36 29.848,7.82L31.34,10.423C32.452,9.785 33.871,10.168 34.512,11.28L37.111,9.782ZM29.833,7.829C29.305,8.14 28.674,8.228 28.081,8.074L27.327,10.978C28.692,11.332 30.141,11.129 31.355,10.414L29.833,7.829ZM28.081,8.074C27.488,7.92 26.981,7.536 26.67,7.008L24.083,8.525C24.796,9.741 25.963,10.624 27.327,10.978L28.081,8.074ZM26.666,7.001C26.472,6.674 26.368,6.301 26.364,5.92L23.364,5.951C23.373,6.86 23.623,7.751 24.087,8.532L26.666,7.001ZM26.363,5.979C26.405,4.54 25.862,3.146 24.858,2.114L22.707,4.205C23.146,4.656 23.383,5.264 23.365,5.893L26.363,5.979ZM24.858,2.114C23.855,1.081 22.477,0.499 21.037,0.5L21.038,3.5C21.667,3.5 22.269,3.754 22.707,4.205L24.858,2.114ZM21.038,0.5L18.53,0.5L18.53,3.5L21.038,3.5L21.038,0.5ZM18.53,0.5C17.118,0.5 15.764,1.063 14.768,2.064L16.894,4.18C17.327,3.745 17.916,3.5 18.53,3.5L18.53,0.5ZM14.768,2.064C13.772,3.065 13.215,4.421 13.222,5.833L16.222,5.819C16.219,5.205 16.461,4.615 16.894,4.18L14.768,2.064ZM13.222,5.805C13.204,7.076 12.168,8.097 10.896,8.097L10.896,11.097C13.808,11.098 16.18,8.759 16.222,5.848L13.222,5.805ZM10.912,8.097C10.531,8.093 10.158,7.989 9.831,7.795L8.3,10.375C9.081,10.838 9.972,11.088 10.88,11.097L10.912,8.097ZM9.811,7.783C7.263,6.323 4.014,7.201 2.548,9.745L5.148,11.243C5.788,10.132 7.207,9.749 8.32,10.386L9.811,7.783ZM2.566,9.715L1.23,11.911L3.793,13.471L5.129,11.274L2.566,9.715ZM1.212,11.942C-0.252,14.483 0.613,17.73 3.149,19.205L4.657,16.612C3.55,15.968 3.172,14.55 3.811,13.44L1.212,11.942ZM3.153,19.207C3.873,19.623 4.316,20.391 4.316,21.222L7.316,21.222C7.316,19.319 6.301,17.561 4.653,16.609L3.153,19.207ZM4.316,21.222C4.316,22.053 3.873,22.821 3.153,23.236L4.653,25.835C6.301,24.883 7.316,23.125 7.316,21.222L4.316,21.222ZM3.152,23.237C0.616,24.704 -0.252,27.947 1.212,30.484L3.811,28.985C3.174,27.882 3.552,26.472 4.654,25.834L3.152,23.237ZM1.214,30.487L2.477,32.665L5.072,31.161L3.809,28.982L1.214,30.487ZM2.463,32.64C3.15,33.88 4.302,34.794 5.665,35.182L6.485,32.296C5.89,32.127 5.387,31.727 5.087,31.186L2.463,32.64ZM5.665,35.182C7.028,35.569 8.489,35.397 9.726,34.704L8.259,32.087C7.719,32.39 7.081,32.465 6.485,32.296L5.665,35.182ZM9.748,34.691C10.275,34.384 10.904,34.299 11.494,34.457L12.269,31.559C10.907,31.195 9.455,31.389 8.236,32.1L9.748,34.691ZM11.494,34.457C12.084,34.615 12.586,35.002 12.889,35.532L15.493,34.042C14.793,32.818 13.632,31.924 12.269,31.559L11.494,34.457ZM12.901,35.553C13.096,35.88 13.2,36.253 13.204,36.633L16.204,36.602C16.194,35.693 15.945,34.803 15.481,34.022L12.901,35.553ZM13.204,36.618C13.204,39.559 15.588,41.944 18.53,41.944L18.53,38.944C17.245,38.944 16.204,37.903 16.204,36.618L13.204,36.618ZM18.53,41.944L21.038,41.944L21.038,38.944L18.53,38.944L18.53,41.944ZM21.038,41.944C23.969,41.944 26.35,39.575 26.364,36.643L23.364,36.629C23.358,37.909 22.318,38.944 21.038,38.944L21.038,41.944ZM26.364,36.629C26.361,36.013 26.604,35.421 27.04,34.986L24.919,32.865C23.917,33.866 23.357,35.227 23.364,36.643L26.364,36.629ZM27.04,34.986C27.475,34.55 28.067,34.307 28.683,34.31L28.697,31.31C27.281,31.303 25.92,31.863 24.919,32.865L27.04,34.986ZM28.65,34.31C29.046,34.32 29.433,34.428 29.776,34.625L31.265,32.02C30.492,31.578 29.621,31.334 28.73,31.311L28.65,34.31ZM29.772,34.622C32.313,36.087 35.56,35.221 37.035,32.686L34.442,31.177C33.797,32.284 32.379,32.662 31.27,32.023L29.772,34.622ZM37.024,32.703L38.342,30.506L35.77,28.963L34.452,31.16L37.024,32.703ZM38.352,30.49C39.063,29.269 39.259,27.815 38.895,26.45L35.996,27.223C36.154,27.817 36.069,28.449 35.76,28.979L38.352,30.49ZM38.895,26.45C38.531,25.085 37.637,23.921 36.413,23.217L34.917,25.817C35.449,26.124 35.838,26.63 35.996,27.223L38.895,26.45ZM36.413,23.217C35.88,22.911 35.492,22.405 35.334,21.811L32.435,22.584C32.799,23.949 33.692,25.113 34.917,25.817L36.413,23.217ZM35.334,21.811C35.176,21.218 35.26,20.586 35.57,20.055L32.977,18.545C32.266,19.765 32.071,21.219 32.435,22.584L35.334,21.811ZM35.575,20.045C35.774,19.698 36.063,19.409 36.41,19.21L34.919,16.607C34.109,17.071 33.436,17.743 32.972,18.554L35.575,20.045ZM36.422,19.203C38.942,17.729 39.806,14.501 38.359,11.966L35.753,13.453C36.385,14.56 36.008,15.97 34.908,16.614L36.422,19.203ZM38.556,12.709L38.556,12.691L35.556,12.691L35.556,12.709L38.556,12.709Z" fill="#FFFFFF"/>
<circle cx="19.793" cy="21.222" r="5.272" stroke="#FFFFFF" stroke-width="1.5" stroke-miterlimit="3.999327" stroke-linecap="round" stroke-linejoin="round"/>
</svg>
