<svg width="40" height="12" viewBox="0 0 40 12" fill="none" xmlns="http://www.w3.org/2000/svg" xmlns:xlink="http://www.w3.org/1999/xlink">
<path d="M5.539,0.967C2.832,0.967 0.646,3.152 0.646,5.86C0.646,8.567 2.832,10.752 5.539,10.752C8.246,10.752 10.432,8.567 10.432,5.86C10.432,3.152 8.246,0.967 5.539,0.967ZM34.895,0.967C32.187,0.967 30.002,3.152 30.002,5.86C30.002,8.567 32.187,10.752 34.895,10.752C37.602,10.752 39.787,8.567 39.787,5.86C39.787,3.152 37.602,0.967 34.895,0.967ZM15.322,5.86C15.322,3.152 17.507,0.967 20.214,0.967C22.922,0.967 25.107,3.152 25.107,5.86C25.107,8.567 22.922,10.752 20.214,10.752C17.507,10.752 15.322,8.567 15.322,5.86Z" clip-rule="evenodd" fill-rule="evenodd" transform="rotate(180 20.217 5.86)" fill="#64676C"/>
</svg>
