<svg width="52" height="42" viewBox="0 0 52 42" fill="none" xmlns="http://www.w3.org/2000/svg" xmlns:xlink="http://www.w3.org/1999/xlink">
<path d="M4.202,0C1.94,0 0.105,1.834 0.105,4.097L0.105,35.909C0.105,38.171 1.94,40.006 4.202,40.006L47.341,40.006C49.604,40.006 51.438,38.171 51.438,35.909L51.438,4.097C51.438,1.834 49.604,0 47.341,0L4.202,0ZM15.77,20.002C18.964,20.002 21.554,17.413 21.554,14.218C21.554,11.024 18.964,8.434 15.77,8.434C12.576,8.434 9.986,11.024 9.986,14.218C9.986,17.413 12.576,20.002 15.77,20.002ZM23,31.329L15.168,31.329L8.179,31.329C5.889,31.329 5.889,30.124 5.89,27.955C5.89,24.097 8.537,22.894 10.829,22.894C12.252,22.894 13.171,23.104 14.033,23.301C14.63,23.437 15.2,23.568 15.891,23.617C16.816,23.683 17.631,23.459 18.418,23.244C19.067,23.066 19.695,22.894 20.349,22.894C24.325,22.532 25.651,26.027 25.651,27.955C25.651,29.883 25.651,30.124 25.169,30.726C24.687,31.329 23.563,31.329 23,31.329ZM32.158,12.772C31.758,12.772 31.435,13.096 31.435,13.495L31.435,14.941C31.435,15.341 31.758,15.664 32.158,15.664L45.172,15.664C45.571,15.664 45.895,15.341 45.895,14.941L45.895,13.495C45.895,13.096 45.571,12.772 45.172,12.772L32.158,12.772ZM31.435,19.28C31.435,18.881 31.759,18.557 32.158,18.557L45.172,18.557C45.572,18.557 45.895,18.881 45.895,19.28L45.895,20.726C45.895,21.125 45.572,21.449 45.172,21.449L32.158,21.449C31.759,21.449 31.435,21.125 31.435,20.726L31.435,19.28ZM32.158,24.341C31.759,24.341 31.435,24.665 31.435,25.064L31.435,26.51C31.435,26.909 31.759,27.233 32.158,27.233L45.172,27.233C45.572,27.233 45.895,26.909 45.895,26.51L45.895,25.064C45.895,24.665 45.572,24.341 45.172,24.341L32.158,24.341Z" clip-rule="evenodd" fill-rule="evenodd" fill="#5062F6"/>
</svg>
