<svg width="24" height="24" viewBox="0 0 24 24" fill="none" xmlns="http://www.w3.org/2000/svg" xmlns:xlink="http://www.w3.org/1999/xlink">
<path d="M11.545,23.091C17.922,23.091 23.091,17.922 23.091,11.545C23.091,5.169 17.922,0 11.545,0C5.169,0 0,5.169 0,11.545C0,17.922 5.169,23.091 11.545,23.091ZM6.494,11.612L9.953,15.071L15.699,7.759C15.889,7.516 16.24,7.474 16.482,7.665C16.724,7.855 16.766,8.205 16.576,8.448L10.442,16.255C10.235,16.518 9.845,16.541 9.609,16.305L5.705,12.401C5.488,12.183 5.488,11.83 5.705,11.612C5.923,11.395 6.276,11.395 6.494,11.612Z" clip-rule="evenodd" fill-rule="evenodd" fill="#FFFFFF"/>
</svg>
