<svg width="32" height="26" viewBox="0 0 32 26" fill="none" xmlns="http://www.w3.org/2000/svg" xmlns:xlink="http://www.w3.org/1999/xlink">
<path d="M2.603,0C1.165,0 0,1.165 0,2.603L0,22.126C0,23.563 1.165,24.729 2.603,24.729L28.308,24.729C29.746,24.729 30.911,23.564 30.911,22.126L30.911,2.603C30.911,1.165 29.746,0 28.308,0L2.603,0ZM3.983,3.252C3.462,3.252 3.04,3.674 3.04,4.195L3.04,7.024C3.04,7.545 3.462,7.967 3.983,7.967L14.985,7.967C15.506,7.967 15.928,7.545 15.928,7.024L15.928,4.195C15.928,3.674 15.506,3.252 14.985,3.252L3.983,3.252ZM3.039,11.112C3.039,10.592 3.461,10.169 3.982,10.169L26.929,10.169C27.45,10.169 27.872,10.592 27.872,11.112L27.872,13.942C27.872,14.462 27.45,14.885 26.929,14.885L3.982,14.885C3.461,14.885 3.039,14.462 3.039,13.942L3.039,11.112ZM3.982,17.086C3.461,17.086 3.039,17.508 3.039,18.029L3.039,20.858C3.039,21.379 3.461,21.801 3.982,21.801L18.442,21.801C18.963,21.801 19.385,21.379 19.385,20.858L19.385,18.029C19.385,17.508 18.963,17.086 18.442,17.086L3.982,17.086Z" clip-rule="evenodd" fill-rule="evenodd" fill="#EA9F2C"/>
</svg>
