<svg width="48" height="42" viewBox="0 0 48 42" fill="none" xmlns="http://www.w3.org/2000/svg" xmlns:xlink="http://www.w3.org/1999/xlink">
<path d="M0.106,0.964C0.106,0.432 0.538,0 1.07,0L45.172,0C45.705,0 46.136,0.432 46.136,0.964L46.136,4.097C46.136,4.629 45.705,5.061 45.172,5.061L43.484,5.061L43.484,35.909L45.172,35.909C45.704,35.909 46.136,36.341 46.136,36.873L46.136,40.006C46.136,40.539 45.704,40.97 45.172,40.97L25.65,40.97L25.65,40.97L25.65,34.463C25.65,33.797 25.111,33.258 24.445,33.258L21.794,33.258C21.129,33.258 20.589,33.797 20.589,34.463L20.589,40.97L20.589,40.97L1.069,40.97C0.537,40.97 0.105,40.539 0.105,40.006L0.105,36.873C0.105,36.341 0.537,35.909 1.069,35.909L2.756,35.909L2.756,5.061L1.07,5.061C0.538,5.061 0.106,4.629 0.106,4.097L0.106,0.964ZM31.915,15.183C31.25,15.183 30.71,15.722 30.71,16.388L30.71,19.28C30.71,19.945 31.25,20.485 31.915,20.485L34.807,20.485C35.473,20.485 36.012,19.945 36.012,19.28L36.012,16.388C36.012,15.722 35.473,15.183 34.807,15.183L31.915,15.183ZM30.71,8.676C30.71,8.01 31.25,7.471 31.915,7.471L34.807,7.471C35.473,7.471 36.012,8.01 36.012,8.676L36.012,11.568C36.012,12.233 35.473,12.773 34.807,12.773L31.915,12.773C31.25,12.773 30.71,12.233 30.71,11.568L30.71,8.676ZM21.553,15.183C20.888,15.183 20.348,15.722 20.348,16.388L20.348,19.28C20.348,19.945 20.888,20.485 21.553,20.485L24.445,20.485C25.111,20.485 25.65,19.945 25.65,19.28L25.65,16.388C25.65,15.722 25.111,15.183 24.445,15.183L21.553,15.183ZM20.349,8.676C20.349,8.01 20.889,7.471 21.554,7.471L24.446,7.471C25.112,7.471 25.651,8.01 25.651,8.676L25.651,11.568C25.651,12.233 25.112,12.773 24.446,12.773L21.554,12.773C20.889,12.773 20.349,12.233 20.349,11.568L20.349,8.676ZM11.19,15.183C10.525,15.183 9.985,15.722 9.985,16.388L9.985,19.28C9.985,19.945 10.525,20.485 11.19,20.485L14.082,20.485C14.748,20.485 15.287,19.945 15.287,19.28L15.287,16.388C15.287,15.722 14.748,15.183 14.082,15.183L11.19,15.183ZM9.986,8.676C9.986,8.01 10.526,7.471 11.191,7.471L14.083,7.471C14.749,7.471 15.288,8.01 15.288,8.676L15.288,11.568C15.288,12.233 14.749,12.773 14.083,12.773L11.191,12.773C10.526,12.773 9.986,12.233 9.986,11.568L9.986,8.676ZM22.999,22.895C18.74,22.895 15.287,26.348 15.287,30.607L15.287,30.848L30.711,30.848L30.711,30.607C30.711,26.348 27.258,22.895 22.999,22.895Z" clip-rule="evenodd" fill-rule="evenodd" fill="#5062F6"/>
</svg>
