<svg width="22" height="22" viewBox="0 0 22 22" fill="none" xmlns="http://www.w3.org/2000/svg" xmlns:xlink="http://www.w3.org/1999/xlink">
<path d="M11,22C17.075,22 22,17.075 22,11C22,4.925 17.075,0 11,0C4.925,0 0,4.925 0,11C0,17.075 4.925,22 11,22ZM14.323,7.948L11.511,10.76L14.323,13.572C14.531,13.78 14.531,14.116 14.323,14.324C14.22,14.427 14.084,14.479 13.948,14.479C13.812,14.479 13.676,14.427 13.572,14.324L10.76,11.511L7.947,14.324C7.844,14.427 7.708,14.479 7.572,14.479C7.436,14.479 7.3,14.427 7.196,14.324C6.988,14.116 6.988,13.78 7.196,13.572L10.008,10.76L7.196,7.948C6.988,7.74 6.988,7.404 7.196,7.197C7.404,6.989 7.74,6.989 7.947,7.197L10.76,10.009L13.572,7.197C13.78,6.989 14.115,6.989 14.323,7.197C14.531,7.404 14.531,7.74 14.323,7.948Z" clip-rule="evenodd" fill-rule="evenodd" fill="#FFFFFF"/>
</svg>
