<svg width="42" height="42" viewBox="0 0 42 42" fill="none" xmlns="http://www.w3.org/2000/svg" xmlns:xlink="http://www.w3.org/1999/xlink">
<path d="M40.918,20.406C40.918,31.676 31.782,40.813 20.512,40.813C9.242,40.813 0.105,31.676 0.105,20.406C0.105,9.136 9.242,0 20.512,0C31.782,0 40.918,9.136 40.918,20.406ZM8.978,21.978C8.978,21.227 9.586,20.618 10.337,20.618L18.737,20.618L18.737,11.977C18.737,11.242 19.333,10.646 20.068,10.646C20.803,10.646 21.399,11.242 21.399,11.977L21.399,22.007C21.399,22.742 20.803,23.338 20.068,23.338C20.06,23.338 20.053,23.338 20.045,23.338C20.043,23.338 20.041,23.338 20.039,23.338L10.337,23.338C9.586,23.338 8.978,22.729 8.978,21.978Z" clip-rule="evenodd" fill-rule="evenodd" fill="#5062F6"/>
</svg>
