<svg width="36" height="42" viewBox="0 0 36 42" fill="none" xmlns="http://www.w3.org/2000/svg" xmlns:xlink="http://www.w3.org/1999/xlink">
<path d="M0.105,20.364L0.105,40.729L17.939,40.729L35.773,40.729L35.773,30.607L35.773,20.485L25.531,20.485L15.288,20.485L15.288,10.242L15.288,0L7.697,0L0.105,0L0.105,20.364ZM20.59,7.712L20.59,15.183L28.12,15.183L35.65,15.183L28.182,7.712C24.074,3.603 20.686,0.241 20.652,0.241C20.618,0.241 20.59,3.603 20.59,7.712ZM10.589,20.29L5.046,20.29L5.046,25.611L10.589,25.611L10.589,20.29ZM5.046,30.654L25.531,30.654L25.531,35.956L5.046,35.956L5.046,30.654ZM10.589,10.409L5.046,10.409L5.046,15.731L10.589,15.731L10.589,10.409Z" clip-rule="evenodd" fill-rule="evenodd" fill="#5062F6"/>
</svg>
