<svg width="42" height="34" viewBox="0 0 42 34" fill="none" xmlns="http://www.w3.org/2000/svg" xmlns:xlink="http://www.w3.org/1999/xlink">
<path d="M3.379,0C1.513,0 0,1.513 0,3.379L0,28.718C0,30.584 1.513,32.097 3.379,32.097L36.742,32.097C38.608,32.097 40.121,30.584 40.121,28.718L40.121,3.379C40.121,1.513 38.608,0 36.742,0L3.379,0ZM5.169,4.218C4.493,4.218 3.945,4.766 3.945,5.442L3.945,9.114C3.945,9.79 4.493,10.338 5.169,10.338L19.449,10.338C20.126,10.338 20.674,9.79 20.674,9.114L20.674,5.442C20.674,4.766 20.126,4.218 19.449,4.218L5.169,4.218ZM3.944,14.42C3.944,13.744 4.492,13.196 5.168,13.196L34.953,13.196C35.629,13.196 36.177,13.744 36.177,14.42L36.177,18.092C36.177,18.768 35.629,19.317 34.953,19.317L5.168,19.317C4.492,19.317 3.944,18.768 3.944,18.092L3.944,14.42ZM5.168,22.17C4.492,22.17 3.944,22.718 3.944,23.394L3.944,27.067C3.944,27.743 4.492,28.291 5.168,28.291L23.937,28.291C24.613,28.291 25.161,27.743 25.161,27.067L25.161,23.394C25.161,22.718 24.613,22.17 23.937,22.17L5.168,22.17Z" clip-rule="evenodd" fill-rule="evenodd" fill="#EA9F2C"/>
</svg>
