<svg width="42" height="34" viewBox="0 0 42 34" fill="none" xmlns="http://www.w3.org/2000/svg" xmlns:xlink="http://www.w3.org/1999/xlink">
<path d="M3.379,0C1.513,0 0,1.513 0,3.379L0,28.718C0,30.584 1.513,32.097 3.379,32.097L36.742,32.097C38.608,32.097 40.121,30.584 40.121,28.718L40.121,3.379C40.121,1.513 38.608,0 36.742,0L3.379,0ZM20.863,24.596L20.863,21.127L17.327,21.127L17.327,24.596L20.863,24.596ZM14.106,11.464C13.85,12.14 13.715,12.883 13.7,13.694L17.011,13.694C17.011,13.288 17.056,12.913 17.146,12.568C17.237,12.207 17.372,11.899 17.552,11.644C17.747,11.374 17.987,11.164 18.273,11.013C18.573,10.848 18.926,10.766 19.331,10.766C19.932,10.766 20.397,10.931 20.728,11.261C21.073,11.592 21.246,12.102 21.246,12.793C21.261,13.198 21.186,13.536 21.021,13.806C20.87,14.077 20.668,14.325 20.412,14.55C20.157,14.775 19.879,15 19.579,15.225C19.279,15.451 18.993,15.721 18.723,16.036C18.453,16.337 18.213,16.705 18.002,17.14C17.807,17.575 17.687,18.116 17.642,18.762L17.642,19.775L20.683,19.775L20.683,18.919C20.743,18.469 20.885,18.094 21.111,17.793C21.351,17.493 21.621,17.23 21.922,17.005C22.222,16.765 22.537,16.532 22.868,16.307C23.213,16.066 23.521,15.781 23.791,15.451C24.076,15.12 24.309,14.722 24.489,14.257C24.685,13.791 24.782,13.198 24.782,12.478C24.782,12.042 24.685,11.577 24.489,11.081C24.309,10.571 24.001,10.098 23.566,9.662C23.13,9.227 22.552,8.866 21.831,8.581C21.126,8.281 20.24,8.13 19.174,8.13C18.348,8.13 17.597,8.273 16.921,8.558C16.261,8.829 15.69,9.212 15.209,9.707C14.744,10.203 14.376,10.788 14.106,11.464Z" clip-rule="evenodd" fill-rule="evenodd" fill="#DE5151"/>
</svg>
