<svg width="32" height="26" viewBox="0 0 32 26" fill="none" xmlns="http://www.w3.org/2000/svg" xmlns:xlink="http://www.w3.org/1999/xlink">
<path d="M2.603,0C1.165,0 0,1.165 0,2.603L0,22.126C0,23.563 1.165,24.729 2.603,24.729L28.308,24.729C29.746,24.729 30.911,23.564 30.911,22.126L30.911,2.603C30.911,1.165 29.746,0 28.308,0L2.603,0ZM16.074,19.998L16.074,17.326L13.349,17.326L13.349,19.998L16.074,19.998ZM10.868,9.881C10.671,10.402 10.567,10.974 10.555,11.599L13.106,11.599C13.106,11.287 13.141,10.998 13.21,10.731C13.28,10.454 13.384,10.217 13.523,10.02C13.673,9.812 13.858,9.65 14.078,9.534C14.309,9.407 14.581,9.343 14.894,9.343C15.356,9.343 15.715,9.47 15.97,9.725C16.236,9.979 16.369,10.373 16.369,10.905C16.38,11.217 16.322,11.478 16.195,11.686C16.079,11.894 15.923,12.085 15.727,12.259C15.53,12.432 15.316,12.606 15.085,12.779C14.853,12.953 14.633,13.161 14.425,13.404C14.217,13.635 14.032,13.919 13.87,14.254C13.719,14.59 13.627,15.006 13.592,15.504L13.592,16.285L15.935,16.285L15.935,15.625C15.981,15.278 16.091,14.989 16.265,14.757C16.45,14.526 16.658,14.324 16.889,14.15C17.121,13.965 17.364,13.786 17.618,13.612C17.884,13.427 18.121,13.207 18.33,12.953C18.549,12.698 18.729,12.392 18.868,12.033C19.018,11.674 19.093,11.217 19.093,10.662C19.093,10.327 19.018,9.968 18.868,9.586C18.729,9.193 18.492,8.828 18.156,8.493C17.821,8.157 17.375,7.88 16.82,7.66C16.276,7.429 15.594,7.313 14.772,7.313C14.136,7.313 13.557,7.423 13.037,7.643C12.528,7.851 12.088,8.146 11.718,8.528C11.359,8.909 11.076,9.361 10.868,9.881Z" clip-rule="evenodd" fill-rule="evenodd" fill="#DE5151"/>
</svg>
