<svg width="30" height="10" viewBox="0 0 30 10" fill="none" xmlns="http://www.w3.org/2000/svg" xmlns:xlink="http://www.w3.org/1999/xlink">
<path d="M4.116,9.954C6.412,9.954 7.728,8.736 7.728,7.014C7.728,5.264 6.384,4.62 4.382,4.172C2.856,3.822 2.142,3.542 2.142,2.758C2.142,2.086 2.8,1.498 3.766,1.498C4.718,1.498 5.684,1.904 6.524,2.632L7.476,1.344C6.51,0.518 5.362,0 3.836,0C1.806,0 0.378,1.232 0.378,2.912C0.378,4.718 1.764,5.292 3.752,5.754C5.292,6.118 5.978,6.384 5.978,7.182C5.978,7.868 5.362,8.456 4.172,8.456C2.912,8.456 1.89,7.952 1.008,7.154L0,8.4C1.064,9.394 2.464,9.954 4.116,9.954Z" fill="#01008A"/>
<path d="M13.454,9.968C15.946,9.968 17.696,8.204 17.696,5.698L17.696,0.182L15.96,0.182L15.96,5.642C15.96,7.238 14.924,8.386 13.454,8.386C11.998,8.386 10.962,7.238 10.962,5.642L10.962,0.182L9.212,0.182L9.212,5.698C9.212,8.204 10.976,9.968 13.454,9.968Z" fill="#01008A"/>
<path d="M19.697,9.8L21.447,9.8L21.447,3.038L26.529,9.8L28.265,9.8L28.265,0.182L26.529,0.182L26.529,6.944L21.447,0.182L19.697,0.182L19.697,9.8Z" fill="#01008A"/>
</svg>
