<svg width="1444" height="1744" viewBox="0 0 1444 1744" fill="none" xmlns="http://www.w3.org/2000/svg" xmlns:xlink="http://www.w3.org/1999/xlink">
<g opacity="0.3">
<line x1="23.741" y1="17.305" x2="23.741" y2="1742.761" stroke="#000000" stroke-width="0.827" stroke-miterlimit="3.999327"/>
<line x1="227.222" y1="17.305" x2="227.222" y2="1742.761" stroke="#000000" stroke-width="0.827" stroke-miterlimit="3.999327"/>
<line x1="430.704" y1="-0.891" x2="430.704" y2="1724.566" stroke="#000000" stroke-width="0.827" stroke-miterlimit="3.999327"/>
<line x1="634.185" y1="17.305" x2="634.185" y2="1742.761" stroke="#03C905" stroke-width="0.827" stroke-miterlimit="3.999327"/>
<line x1="837.667" y1="17.305" x2="837.667" y2="1742.761" stroke="#03C905" stroke-width="0.827" stroke-miterlimit="3.999327"/>
<line x1="1041.148" y1="17.305" x2="1041.148" y2="1742.761" stroke="#000000" stroke-width="0.827" stroke-miterlimit="3.999327"/>
<line x1="1244.63" y1="17.305" x2="1244.63" y2="1742.761" stroke="#000000" stroke-width="0.827" stroke-miterlimit="3.999327"/>
<line x1="-0.247" y1="36.333" x2="1442.321" y2="36.333" stroke="#000000" stroke-width="0.827" stroke-miterlimit="3.999327"/>
<line x1="-0.247" y1="104.157" x2="1442.321" y2="104.157" stroke="#000000" stroke-width="0.827" stroke-miterlimit="3.999327"/>
<line x1="-0.247" y1="178.603" x2="1442.321" y2="178.603" stroke="#000000" stroke-width="0.827" stroke-miterlimit="3.999327"/>
<line x1="-0.247" y1="253.048" x2="1442.321" y2="253.048" stroke="#000000" stroke-width="0.827" stroke-miterlimit="3.999327"/>
<line x1="-0.247" y1="327.493" x2="1442.321" y2="327.493" stroke="#000000" stroke-width="0.827" stroke-miterlimit="3.999327"/>
<line x1="-0.247" y1="401.935" x2="1442.321" y2="401.935" stroke="#000000" stroke-width="0.827" stroke-miterlimit="3.999327"/>
<line x1="-0.247" y1="476.38" x2="1442.321" y2="476.38" stroke="#000000" stroke-width="0.827" stroke-miterlimit="3.999327"/>
<line x1="-0.247" y1="550.825" x2="1442.321" y2="550.825" stroke="#000000" stroke-width="0.827" stroke-miterlimit="3.999327"/>
<line x1="-0.247" y1="625.27" x2="1442.321" y2="625.27" stroke="#000000" stroke-width="0.827" stroke-miterlimit="3.999327"/>
<line x1="-0.247" y1="699.716" x2="1442.321" y2="699.716" stroke="#000000" stroke-width="0.827" stroke-miterlimit="3.999327"/>
<line x1="-0.247" y1="774.157" x2="1442.321" y2="774.157" stroke="#000000" stroke-width="0.827" stroke-miterlimit="3.999327"/>
<line x1="-0.247" y1="848.603" x2="1442.321" y2="848.603" stroke="#000000" stroke-width="0.827" stroke-miterlimit="3.999327"/>
<line x1="-0.247" y1="923.048" x2="1442.321" y2="923.048" stroke="#000000" stroke-width="0.827" stroke-miterlimit="3.999327"/>
<line x1="-0.247" y1="997.493" x2="1442.321" y2="997.493" stroke="#000000" stroke-width="0.827" stroke-miterlimit="3.999327"/>
<line x1="-0.247" y1="1071.938" x2="1442.321" y2="1071.938" stroke="#000000" stroke-width="0.827" stroke-miterlimit="3.999327"/>
<line x1="-0.247" y1="1146.38" x2="1442.321" y2="1146.38" stroke="#000000" stroke-width="0.827" stroke-miterlimit="3.999327"/>
<line x1="-0.247" y1="1220.825" x2="1442.321" y2="1220.825" stroke="#000000" stroke-width="0.827" stroke-miterlimit="3.999327"/>
<line x1="-0.247" y1="1295.27" x2="1442.321" y2="1295.27" stroke="#000000" stroke-width="0.827" stroke-miterlimit="3.999327"/>
<line x1="-0.247" y1="1369.716" x2="1442.321" y2="1369.716" stroke="#000000" stroke-width="0.827" stroke-miterlimit="3.999327"/>
<line x1="-0.247" y1="1443.333" x2="1442.321" y2="1443.333" stroke="#000000" stroke-width="0.827" stroke-miterlimit="3.999327"/>
<line x1="-0.247" y1="1517.774" x2="1442.321" y2="1517.774" stroke="#000000" stroke-width="0.827" stroke-miterlimit="3.999327"/>
<line x1="-0.247" y1="1592.22" x2="1442.321" y2="1592.22" stroke="#000000" stroke-width="0.827" stroke-miterlimit="3.999327"/>
<line x1="-0.247" y1="1666.665" x2="1442.321" y2="1666.665" stroke="#000000" stroke-width="0.827" stroke-miterlimit="3.999327"/>
<line x1="-0.247" y1="1741.11" x2="1442.321" y2="1741.11" stroke="#000000" stroke-width="0.827" stroke-miterlimit="3.999327"/>
</g>
</svg>
