<svg width="28" height="10" viewBox="0 0 28 10" fill="none" xmlns="http://www.w3.org/2000/svg" xmlns:xlink="http://www.w3.org/1999/xlink">
<path d="M3.08,9.618L4.816,9.618L4.816,1.596L7.896,1.596L7.896,0L0,0L0,1.596L3.08,1.596L3.08,9.618Z" fill="#01008A"/>
<path d="M15.802,0L15.802,3.92L11,3.92L11,0L9.25,0L9.25,9.618L11,9.618L11,5.516L15.802,5.516L15.802,9.618L17.552,9.618L17.552,0L15.802,0Z" fill="#01008A"/>
<path d="M23.675,9.786C26.167,9.786 27.917,8.022 27.917,5.516L27.917,0L26.181,0L26.181,5.46C26.181,7.056 25.145,8.204 23.675,8.204C22.219,8.204 21.183,7.056 21.183,5.46L21.183,0L19.433,0L19.433,5.516C19.433,8.022 21.197,9.786 23.675,9.786Z" fill="#01008A"/>
</svg>
