<svg width="38" height="32" viewBox="0 0 38 32" fill="none" xmlns="http://www.w3.org/2000/svg" xmlns:xlink="http://www.w3.org/1999/xlink">
<path d="M7.143,0L30.788,0C34.728,0 37.929,3.177 37.929,7.105L37.931,11.705C37.931,12.439 37.339,13.035 36.608,13.035C35.208,13.035 34.091,14.145 34.091,15.519C34.091,16.892 35.208,18.001 36.608,18.001C37.339,18.001 37.931,18.597 37.931,19.331L37.931,23.929C37.931,27.858 34.731,31.034 30.79,31.034L7.141,31.034C3.2,31.034 0,27.858 0,23.929L0,19.331C0,18.597 0.592,18.001 1.323,18.001C2.723,18.001 3.84,16.892 3.84,15.519C3.84,14.191 2.769,13.185 1.323,13.185L1.144,13.173C0.498,13.085 0,12.528 0,11.854L0.002,7.106C0.002,3.177 3.203,0 7.143,0ZM31.084,2.67L30.788,2.66L7.143,2.66C4.657,2.66 2.648,4.654 2.648,7.106L2.645,10.685L2.795,10.723C4.845,11.291 6.351,13.027 6.478,15.218L6.487,15.519C6.487,17.86 4.928,19.825 2.79,20.452L2.646,20.488L2.646,23.929C2.646,26.283 4.497,28.214 6.845,28.365L7.141,28.374L30.79,28.374C33.277,28.374 35.285,26.381 35.285,23.929L35.285,20.49L35.141,20.452C33.096,19.852 31.581,18.028 31.453,15.822L31.445,15.519C31.445,13.178 33.003,11.212 35.141,10.585L35.283,10.546L35.283,7.106C35.283,4.752 33.432,2.82 31.084,2.67Z" clip-rule="evenodd" fill-rule="evenodd" fill="#01008A"/>
</svg>
