<svg width="48" height="40" viewBox="0 0 48 40" fill="none" xmlns="http://www.w3.org/2000/svg" xmlns:xlink="http://www.w3.org/1999/xlink">
<path d="M8.942,0.665L38.338,0.665C43.237,0.665 47.217,4.615 47.217,9.499L47.219,15.217C47.219,16.13 46.483,16.871 45.574,16.871C43.834,16.871 42.445,18.251 42.445,19.959C42.445,21.666 43.833,23.045 45.574,23.045C46.482,23.045 47.219,23.785 47.219,24.699L47.219,30.415C47.219,35.3 43.241,39.249 38.34,39.249L8.94,39.249C4.039,39.249 0.061,35.3 0.061,30.415L0.061,24.699C0.061,23.785 0.798,23.045 1.706,23.045C3.447,23.045 4.835,21.666 4.835,19.959C4.835,18.308 3.503,17.057 1.706,17.057L1.483,17.042C0.68,16.933 0.061,16.24 0.061,15.403L0.063,9.499C0.063,4.615 4.043,0.665 8.942,0.665ZM38.706,3.984L38.338,3.972L8.942,3.972C5.851,3.972 3.353,6.451 3.353,9.5L3.349,13.949L3.536,13.996C6.085,14.702 7.957,16.861 8.115,19.584L8.125,19.959C8.125,22.87 6.188,25.312 3.53,26.092L3.351,26.137L3.351,30.415C3.351,33.342 5.651,35.743 8.571,35.93L8.94,35.942L38.34,35.942C41.433,35.942 43.929,33.464 43.929,30.415L43.929,26.139L43.75,26.092C41.207,25.346 39.324,23.079 39.165,20.336L39.155,19.959C39.155,17.049 41.092,14.605 43.75,13.824L43.927,13.777L43.927,9.499C43.927,6.573 41.625,4.171 38.706,3.984Z" clip-rule="evenodd" fill-rule="evenodd" fill="#E32CBC"/>
</svg>
