<svg width="38" height="32" viewBox="0 0 38 32" fill="none" xmlns="http://www.w3.org/2000/svg" xmlns:xlink="http://www.w3.org/1999/xlink">
<path d="M7.143,0.484L30.788,0.484C34.728,0.484 37.929,3.661 37.929,7.59L37.931,12.189C37.931,12.924 37.339,13.52 36.608,13.52C35.208,13.52 34.091,14.63 34.091,16.003C34.091,17.377 35.208,18.486 36.608,18.486C37.339,18.486 37.931,19.081 37.931,19.816L37.931,24.413C37.931,28.343 34.731,31.519 30.79,31.519L7.141,31.519C3.2,31.519 0,28.343 0,24.413L0,19.816C0,19.081 0.592,18.486 1.323,18.486C2.723,18.486 3.84,17.377 3.84,16.003C3.84,14.676 2.769,13.669 1.323,13.669L1.144,13.657C0.498,13.569 0,13.012 0,12.339L0.002,7.59C0.002,3.661 3.203,0.484 7.143,0.484ZM31.084,3.154L30.788,3.144L7.143,3.144C4.657,3.144 2.648,5.138 2.648,7.591L2.645,11.169L2.795,11.207C4.845,11.775 6.351,13.511 6.478,15.702L6.487,16.003C6.487,18.344 4.928,20.309 2.79,20.936L2.646,20.972L2.646,24.413C2.646,26.768 4.497,28.699 6.845,28.849L7.141,28.859L30.79,28.859C33.277,28.859 35.285,26.866 35.285,24.413L35.285,20.974L35.141,20.936C33.096,20.336 31.581,18.513 31.453,16.307L31.445,16.003C31.445,13.662 33.003,11.696 35.141,11.069L35.283,11.031L35.283,7.59C35.283,5.236 33.432,3.305 31.084,3.154Z" clip-rule="evenodd" fill-rule="evenodd" fill="#FFFFFF"/>
</svg>
