<svg width="38" height="34" viewBox="0 0 38 34" fill="none" xmlns="http://www.w3.org/2000/svg" xmlns:xlink="http://www.w3.org/1999/xlink">
<path d="M36,20.587L37.378,20.587C37.378,19.825 36.761,19.208 36,19.208L36,20.587ZM36,12.357L36,13.735C36.366,13.735 36.716,13.59 36.975,13.331C37.234,13.072 37.379,12.721 37.378,12.356L36,12.357ZM35.996,7.389L34.618,7.389L34.618,7.39L35.996,7.389ZM2.002,7.389L3.38,7.389L3.38,7.389L2.002,7.389ZM2,12.517L0.622,12.516C0.621,12.882 0.767,13.232 1.025,13.491C1.284,13.75 1.634,13.895 2,13.895L2,12.517ZM2,20.587L2,19.208C1.239,19.208 0.622,19.825 0.622,20.587L2,20.587ZM29.764,33.163C33.972,33.163 37.378,29.754 37.378,25.549L34.622,25.549C34.622,28.232 32.449,30.406 29.764,30.406L29.764,33.163ZM37.378,25.549L37.378,20.587L34.622,20.587L34.622,25.549L37.378,25.549ZM36,19.208C34.482,19.208 33.262,17.987 33.262,16.472L30.505,16.472C30.505,19.51 32.96,21.965 36,21.965L36,19.208ZM33.262,16.472C33.262,14.955 34.482,13.735 36,13.735L36,10.978C32.961,10.978 30.505,13.431 30.505,16.472L33.262,16.472ZM37.378,12.356L37.375,7.388L34.618,7.39L34.622,12.358L37.378,12.356ZM37.375,7.389C37.375,3.184 33.968,-0.225 29.762,-0.225L29.762,2.532C32.445,2.532 34.618,4.706 34.618,7.389L37.375,7.389ZM29.762,-0.225L8.238,-0.225L8.238,2.532L29.762,2.532L29.762,-0.225ZM8.238,-0.225C4.032,-0.225 0.623,3.184 0.623,7.389L3.38,7.389C3.38,4.706 5.555,2.532 8.238,2.532L8.238,-0.225ZM0.623,7.388L0.622,12.516L3.378,12.517L3.38,7.389L0.623,7.388ZM2,13.895C3.589,13.895 4.737,15.025 4.737,16.472L7.493,16.472C7.493,13.36 4.965,11.138 2,11.138L2,13.895ZM4.737,16.472C4.737,17.987 3.516,19.208 2,19.208L2,21.965C5.038,21.965 7.493,19.51 7.493,16.472L4.737,16.472ZM0.622,20.587L0.622,25.549L3.378,25.549L3.378,20.587L0.622,20.587ZM0.622,25.549C0.622,29.753 4.028,33.163 8.234,33.163L8.234,30.406C5.552,30.406 3.378,28.232 3.378,25.549L0.622,25.549ZM8.234,33.163L29.764,33.163L29.764,30.406L8.234,30.406L8.234,33.163Z" fill="#01008A"/>
<g opacity="0.4">
<path d="M18.999,19.724L19.641,18.504C19.239,18.292 18.759,18.292 18.358,18.504L18.999,19.724ZM22.197,21.405L21.555,22.625L21.56,22.627L22.197,21.405ZM22.791,20.975L24.149,20.743L24.149,20.742L22.791,20.975ZM22.179,17.412L21.217,16.424C20.892,16.741 20.743,17.197 20.82,17.645L22.179,17.412ZM24.768,14.892L25.729,15.88L25.731,15.878L24.768,14.892ZM24.542,14.195L24.744,12.832L24.74,12.831L24.542,14.195ZM20.966,13.675L19.73,14.286C19.93,14.692 20.318,14.974 20.767,15.039L20.966,13.675ZM19.365,10.433L18.127,11.041L18.129,11.044L19.365,10.433ZM18.633,10.433L17.399,9.82L17.397,9.823L18.633,10.433ZM17.033,13.675L17.231,15.039C17.68,14.974 18.068,14.692 18.268,14.286L17.033,13.675ZM13.458,14.195L13.26,12.831L13.256,12.832L13.458,14.195ZM13.232,14.892L12.269,15.878L12.27,15.88L13.232,14.892ZM15.82,17.412L17.178,17.645C17.255,17.197 17.106,16.741 16.781,16.424L15.82,17.412ZM15.208,20.975L13.849,20.742L13.849,20.743L15.208,20.975ZM15.801,21.405L16.439,22.627L16.443,22.625L15.801,21.405ZM18.358,20.944L21.555,22.625L22.838,20.185L19.641,18.504L18.358,20.944ZM21.56,22.627C22.858,23.304 24.401,22.213 24.149,20.743L21.432,21.208C21.294,20.403 22.135,19.819 22.834,20.183L21.56,22.627ZM24.149,20.742L23.537,17.178L20.82,17.645L21.432,21.209L24.149,20.742ZM23.14,18.4L25.729,15.88L23.807,13.904L21.217,16.424L23.14,18.4ZM25.731,15.878C26.793,14.84 26.2,13.048 24.744,12.832L24.34,15.559C23.553,15.442 23.228,14.47 23.805,13.906L25.731,15.878ZM24.74,12.831L21.164,12.311L20.767,15.039L24.344,15.559L24.74,12.831ZM22.201,13.065L20.601,9.823L18.129,11.044L19.73,14.286L22.201,13.065ZM20.602,9.826C19.946,8.488 18.053,8.503 17.399,9.82L19.868,11.047C19.515,11.757 18.486,11.772 18.127,11.041L20.602,9.826ZM17.397,9.823L15.797,13.065L18.268,14.286L19.869,11.044L17.397,9.823ZM16.834,12.311L13.26,12.831L13.656,15.559L17.231,15.039L16.834,12.311ZM13.256,12.832C11.8,13.048 11.207,14.84 12.269,15.878L14.195,13.906C14.772,14.47 14.447,15.442 13.66,15.559L13.256,12.832ZM12.27,15.88L14.858,18.399L16.781,16.424L14.194,13.904L12.27,15.88ZM14.461,17.178L13.849,20.742L16.566,21.209L17.178,17.645L14.461,17.178ZM13.849,20.743C13.597,22.213 15.14,23.304 16.439,22.627L15.164,20.183C15.863,19.819 16.704,20.403 16.566,21.208L13.849,20.743ZM16.443,22.625L19.641,20.944L18.358,18.504L15.16,20.185L16.443,22.625Z" fill="#01008A"/>
</g>
</svg>
