<svg width="38" height="34" viewBox="0 0 38 34" fill="none" xmlns="http://www.w3.org/2000/svg" xmlns:xlink="http://www.w3.org/1999/xlink">
<path d="M36,20.586L37.378,20.586C37.378,19.824 36.761,19.207 36,19.207L36,20.586ZM36,12.356L36,13.734C36.366,13.734 36.716,13.589 36.975,13.33C37.234,13.071 37.379,12.721 37.378,12.355L36,12.356ZM35.996,7.388L34.618,7.388L34.618,7.389L35.996,7.388ZM2.002,7.388L3.38,7.389L3.38,7.388L2.002,7.388ZM2,12.516L0.622,12.515C0.621,12.881 0.767,13.232 1.025,13.49C1.284,13.749 1.634,13.894 2,13.894L2,12.516ZM2,20.586L2,19.207C1.239,19.207 0.622,19.824 0.622,20.586L2,20.586ZM29.764,33.162C33.972,33.162 37.378,29.753 37.378,25.548L34.622,25.548C34.622,28.231 32.449,30.405 29.764,30.405L29.764,33.162ZM37.378,25.548L37.378,20.586L34.622,20.586L34.622,25.548L37.378,25.548ZM36,19.207C34.482,19.207 33.262,17.986 33.262,16.471L30.505,16.471C30.505,19.509 32.96,21.964 36,21.964L36,19.207ZM33.262,16.471C33.262,14.954 34.482,13.734 36,13.734L36,10.977C32.961,10.977 30.505,13.43 30.505,16.471L33.262,16.471ZM37.378,12.355L37.375,7.387L34.618,7.389L34.622,12.357L37.378,12.355ZM37.375,7.388C37.375,3.183 33.968,-0.226 29.762,-0.226L29.762,2.531C32.445,2.531 34.618,4.705 34.618,7.388L37.375,7.388ZM29.762,-0.226L8.238,-0.226L8.238,2.531L29.762,2.531L29.762,-0.226ZM8.238,-0.226C4.032,-0.226 0.623,3.183 0.623,7.388L3.38,7.388C3.38,4.705 5.555,2.531 8.238,2.531L8.238,-0.226ZM0.623,7.388L0.622,12.515L3.378,12.516L3.38,7.389L0.623,7.388ZM2,13.894C3.589,13.894 4.737,15.024 4.737,16.471L7.493,16.471C7.493,13.359 4.965,11.137 2,11.137L2,13.894ZM4.737,16.471C4.737,17.987 3.516,19.207 2,19.207L2,21.964C5.038,21.964 7.493,19.509 7.493,16.471L4.737,16.471ZM0.622,20.586L0.622,25.548L3.378,25.548L3.378,20.586L0.622,20.586ZM0.622,25.548C0.622,29.753 4.028,33.162 8.234,33.162L8.234,30.405C5.552,30.405 3.378,28.231 3.378,25.548L0.622,25.548ZM8.234,33.162L29.764,33.162L29.764,30.405L8.234,30.405L8.234,33.162Z" fill="#01008A"/>
<g opacity="0.4">
<path d="M18.998,19.723L19.64,18.503C19.238,18.292 18.758,18.292 18.357,18.503L18.998,19.723ZM22.196,21.404L21.555,22.624L21.559,22.627L22.196,21.404ZM22.79,20.974L24.148,20.742L24.148,20.741L22.79,20.974ZM22.178,17.411L21.217,16.423C20.891,16.74 20.742,17.196 20.819,17.644L22.178,17.411ZM24.767,14.891L25.729,15.879L25.731,15.877L24.767,14.891ZM24.541,14.195L24.744,12.831L24.74,12.831L24.541,14.195ZM20.965,13.674L19.729,14.285C19.93,14.691 20.318,14.973 20.767,15.038L20.965,13.674ZM19.364,10.433L18.127,11.04L18.128,11.043L19.364,10.433ZM18.633,10.433L17.398,9.819L17.397,9.822L18.633,10.433ZM17.032,13.674L17.23,15.038C17.679,14.973 18.067,14.691 18.268,14.285L17.032,13.674ZM13.457,14.195L13.259,12.831L13.255,12.831L13.457,14.195ZM13.231,14.891L12.268,15.877L12.27,15.879L13.231,14.891ZM15.819,17.411L17.177,17.644C17.254,17.197 17.106,16.74 16.781,16.423L15.819,17.411ZM15.207,20.974L13.848,20.741L13.848,20.742L15.207,20.974ZM15.801,21.404L16.438,22.627L16.442,22.624L15.801,21.404ZM18.357,20.943L21.555,22.624L22.838,20.184L19.64,18.503L18.357,20.943ZM21.559,22.627C22.857,23.303 24.4,22.212 24.148,20.742L21.431,21.207C21.293,20.402 22.135,19.818 22.834,20.182L21.559,22.627ZM24.148,20.741L23.536,17.177L20.819,17.644L21.431,21.208L24.148,20.741ZM23.139,18.399L25.729,15.879L23.806,13.903L21.217,16.423L23.139,18.399ZM25.731,15.877C26.793,14.839 26.2,13.047 24.744,12.831L24.339,15.558C23.552,15.441 23.227,14.469 23.804,13.905L25.731,15.877ZM24.74,12.831L21.163,12.31L20.767,15.038L24.343,15.559L24.74,12.831ZM22.201,13.064L20.6,9.822L18.128,11.043L19.729,14.285L22.201,13.064ZM20.601,9.825C19.945,8.488 18.053,8.502 17.398,9.819L19.867,11.046C19.514,11.756 18.486,11.771 18.127,11.04L20.601,9.825ZM17.397,9.822L15.796,13.064L18.268,14.285L19.869,11.043L17.397,9.822ZM16.833,12.31L13.259,12.831L13.656,15.559L17.23,15.038L16.833,12.31ZM13.255,12.831C11.799,13.047 11.206,14.839 12.268,15.877L14.195,13.905C14.771,14.469 14.447,15.441 13.66,15.558L13.255,12.831ZM12.27,15.879L14.857,18.398L16.781,16.423L14.193,13.904L12.27,15.879ZM14.46,17.177L13.848,20.741L16.565,21.208L17.177,17.644L14.46,17.177ZM13.848,20.742C13.597,22.212 15.14,23.303 16.438,22.627L15.163,20.182C15.862,19.818 16.703,20.402 16.566,21.207L13.848,20.742ZM16.442,22.624L19.64,20.943L18.357,18.503L15.159,20.184L16.442,22.624Z" fill="#01008A"/>
</g>
</svg>
