<svg width="46" height="42" viewBox="0 0 46 42" fill="none" xmlns="http://www.w3.org/2000/svg" xmlns:xlink="http://www.w3.org/1999/xlink">
<path d="M43,25.556L44.662,25.556C44.662,24.638 43.918,23.894 43,23.894L43,25.556ZM43,15.632L43,17.294C43.441,17.294 43.864,17.119 44.176,16.807C44.488,16.495 44.662,16.071 44.662,15.63L43,15.632ZM42.996,9.641L41.333,9.641L41.333,9.642L42.996,9.641ZM2.002,9.641L3.664,9.642L3.664,9.641L2.002,9.641ZM2,15.824L0.338,15.824C0.338,16.265 0.513,16.688 0.824,17C1.136,17.311 1.559,17.487 2,17.487L2,15.824ZM2,25.556L2,23.894C1.082,23.894 0.338,24.638 0.338,25.556L2,25.556ZM35.48,40.721C40.554,40.721 44.662,36.611 44.662,31.54L41.338,31.54C41.338,34.775 38.717,37.397 35.48,37.397L35.48,40.721ZM44.662,31.54L44.662,25.556L41.338,25.556L41.338,31.54L44.662,31.54ZM43,23.894C41.169,23.894 39.698,22.421 39.698,20.594L36.374,20.594C36.374,24.258 39.334,27.218 43,27.218L43,23.894ZM39.698,20.594C39.698,18.765 41.169,17.294 43,17.294L43,13.969C39.335,13.969 36.374,16.927 36.374,20.594L39.698,20.594ZM44.662,15.63L44.658,9.64L41.333,9.642L41.338,15.633L44.662,15.63ZM44.658,9.641C44.658,4.571 40.55,0.459 35.478,0.459L35.478,3.784C38.713,3.784 41.333,6.405 41.333,9.641L44.658,9.641ZM35.478,0.459L9.522,0.459L9.522,3.784L35.478,3.784L35.478,0.459ZM9.522,0.459C4.451,0.459 0.34,4.57 0.34,9.641L3.664,9.641C3.664,6.406 6.287,3.784 9.522,3.784L9.522,0.459ZM0.34,9.641L0.338,15.824L3.662,15.825L3.664,9.642L0.34,9.641ZM2,17.487C3.916,17.487 5.3,18.849 5.3,20.594L8.624,20.594C8.624,16.842 5.576,14.162 2,14.162L2,17.487ZM5.3,20.594C5.3,22.422 3.828,23.894 2,23.894L2,27.218C5.664,27.218 8.624,24.258 8.624,20.594L5.3,20.594ZM0.338,25.556L0.338,31.54L3.662,31.54L3.662,25.556L0.338,25.556ZM0.338,31.54C0.338,36.61 4.446,40.721 9.517,40.721L9.517,37.397C6.283,37.397 3.662,34.775 3.662,31.54L0.338,31.54ZM9.517,40.721L35.48,40.721L35.48,37.397L9.517,37.397L9.517,40.721Z" fill="#3229E1"/>
<path d="M22.499,24.515L23.273,23.044C22.788,22.789 22.21,22.789 21.725,23.044L22.499,24.515ZM26.355,26.543L25.582,28.014L25.587,28.017L26.355,26.543ZM27.071,26.025L28.709,25.744L28.709,25.743L27.071,26.025ZM26.333,21.727L25.174,20.536C24.781,20.918 24.602,21.469 24.695,22.009L26.333,21.727ZM29.456,18.689L30.615,19.88L30.617,19.878L29.456,18.689ZM29.183,17.849L29.427,16.205L29.422,16.204L29.183,17.849ZM24.87,17.222L23.38,17.958C23.622,18.448 24.09,18.788 24.631,18.867L24.87,17.222ZM22.94,13.312L21.448,14.045L21.45,14.048L22.94,13.312ZM22.058,13.312L20.569,12.573L20.568,12.576L22.058,13.312ZM20.128,17.222L20.367,18.867C20.908,18.788 21.376,18.448 21.618,17.958L20.128,17.222ZM15.817,17.849L15.578,16.204L15.573,16.205L15.817,17.849ZM15.544,18.689L14.383,19.878L14.385,19.88L15.544,18.689ZM18.665,21.727L20.303,22.009C20.396,21.469 20.217,20.918 19.824,20.536L18.665,21.727ZM17.927,26.025L16.289,25.743L16.289,25.744L17.927,26.025ZM18.643,26.543L19.411,28.017L19.416,28.014L18.643,26.543ZM21.725,25.986L25.582,28.014L27.129,25.072L23.273,23.044L21.725,25.986ZM25.587,28.017C27.152,28.833 29.013,27.517 28.709,25.744L25.433,26.305C25.266,25.334 26.281,24.63 27.124,25.069L25.587,28.017ZM28.709,25.743L27.971,21.446L24.695,22.009L25.433,26.306L28.709,25.743ZM27.492,22.919L30.615,19.88L28.297,17.498L25.174,20.536L27.492,22.919ZM30.617,19.878C31.898,18.626 31.183,16.465 29.427,16.205L28.939,19.493C27.99,19.352 27.598,18.18 28.294,17.5L30.617,19.878ZM29.422,16.204L25.11,15.577L24.631,18.867L28.944,19.494L29.422,16.204ZM26.361,16.486L24.43,12.576L21.45,14.048L23.38,17.958L26.361,16.486ZM24.432,12.58C23.64,10.967 21.359,10.985 20.569,12.573L23.546,14.052C23.121,14.909 21.881,14.926 21.448,14.045L24.432,12.58ZM20.568,12.576L18.637,16.486L21.618,17.958L23.548,14.048L20.568,12.576ZM19.888,15.577L15.578,16.204L16.056,19.494L20.367,18.867L19.888,15.577ZM15.573,16.205C13.817,16.465 13.102,18.626 14.383,19.878L16.706,17.5C17.402,18.18 17.01,19.352 16.061,19.493L15.573,16.205ZM14.385,19.88L17.505,22.918L19.824,20.536L16.704,17.498L14.385,19.88ZM17.027,21.446L16.289,25.743L19.565,26.306L20.303,22.009L17.027,21.446ZM16.289,25.744C15.985,27.517 17.846,28.833 19.411,28.017L17.874,25.069C18.717,24.63 19.731,25.334 19.565,26.305L16.289,25.744ZM19.416,28.014L23.273,25.986L21.725,23.044L17.869,25.072L19.416,28.014Z" fill="#3229E1"/>
</svg>
