<svg width="38" height="36" viewBox="0 0 38 36" fill="none" xmlns="http://www.w3.org/2000/svg" xmlns:xlink="http://www.w3.org/1999/xlink">
<path d="M36,21.433L37.378,21.433C37.378,20.672 36.761,20.055 36,20.055L36,21.433ZM36,13.203L36,14.582C36.366,14.582 36.716,14.436 36.975,14.178C37.234,13.919 37.379,13.568 37.378,13.202L36,13.203ZM35.996,8.236L34.618,8.236L34.618,8.237L35.996,8.236ZM2.002,8.236L3.38,8.236L3.38,8.236L2.002,8.236ZM2,13.363L0.622,13.363C0.621,13.729 0.767,14.079 1.025,14.338C1.284,14.596 1.634,14.742 2,14.742L2,13.363ZM2,21.433L2,20.055C1.239,20.055 0.622,20.672 0.622,21.433L2,21.433ZM29.764,34.01C33.972,34.01 37.378,30.601 37.378,26.395L34.622,26.395C34.622,29.079 32.449,31.253 29.764,31.253L29.764,34.01ZM37.378,26.395L37.378,21.433L34.622,21.433L34.622,26.395L37.378,26.395ZM36,20.055C34.482,20.055 33.262,18.834 33.262,17.318L30.505,17.318C30.505,20.357 32.96,22.812 36,22.812L36,20.055ZM33.262,17.318C33.262,15.802 34.482,14.582 36,14.582L36,11.825C32.961,11.825 30.505,14.277 30.505,17.318L33.262,17.318ZM37.378,13.202L37.375,8.235L34.618,8.237L34.622,13.204L37.378,13.202ZM37.375,8.236C37.375,4.031 33.968,0.622 29.762,0.622L29.762,3.378C32.445,3.378 34.618,5.552 34.618,8.236L37.375,8.236ZM29.762,0.622L8.238,0.622L8.238,3.378L29.762,3.378L29.762,0.622ZM8.238,0.622C4.032,0.622 0.623,4.03 0.623,8.236L3.38,8.236C3.38,5.553 5.555,3.378 8.238,3.378L8.238,0.622ZM0.623,8.235L0.622,13.363L3.378,13.364L3.38,8.236L0.623,8.235ZM2,14.742C3.589,14.742 4.737,15.872 4.737,17.318L7.493,17.318C7.493,14.207 4.965,11.985 2,11.985L2,14.742ZM4.737,17.318C4.737,18.834 3.516,20.055 2,20.055L2,22.812C5.038,22.812 7.493,20.357 7.493,17.318L4.737,17.318ZM0.622,21.433L0.622,26.395L3.378,26.395L3.378,21.433L0.622,21.433ZM0.622,26.395C0.622,30.6 4.028,34.01 8.234,34.01L8.234,31.253C5.552,31.253 3.378,29.079 3.378,26.395L0.622,26.395ZM8.234,34.01L29.764,34.01L29.764,31.253L8.234,31.253L8.234,34.01Z" fill="#01008A"/>
<g opacity="0.4">
<path d="M18.999,20.57L19.64,19.35C19.239,19.139 18.759,19.139 18.357,19.35L18.999,20.57ZM22.197,22.252L21.555,23.472L21.559,23.474L22.197,22.252ZM22.79,21.822L24.149,21.589L24.149,21.589L22.79,21.822ZM22.178,18.258L21.217,17.271C20.892,17.587 20.743,18.044 20.82,18.492L22.178,18.258ZM24.768,15.739L25.729,16.727L25.731,16.725L24.768,15.739ZM24.542,15.042L24.744,13.679L24.74,13.678L24.542,15.042ZM20.965,14.522L19.729,15.132C19.93,15.539 20.318,15.821 20.767,15.886L20.965,14.522ZM19.365,11.28L18.127,11.888L18.129,11.89L19.365,11.28ZM18.633,11.28L17.399,10.667L17.397,10.67L18.633,11.28ZM17.032,14.522L17.231,15.886C17.68,15.821 18.068,15.539 18.268,15.132L17.032,14.522ZM13.458,15.042L13.259,13.678L13.256,13.679L13.458,15.042ZM13.232,15.739L12.268,16.725L12.27,16.726L13.232,15.739ZM15.819,18.258L17.178,18.492C17.255,18.044 17.106,17.588 16.781,17.271L15.819,18.258ZM15.207,21.822L13.849,21.589L13.849,21.589L15.207,21.822ZM15.801,22.252L16.438,23.474L16.443,23.472L15.801,22.252ZM18.357,21.79L21.555,23.472L22.838,21.032L19.64,19.35L18.357,21.79ZM21.559,23.474C22.857,24.151 24.401,23.06 24.149,21.589L21.432,22.055C21.294,21.25 22.135,20.665 22.834,21.03L21.559,23.474ZM24.149,21.589L23.537,18.025L20.82,18.492L21.432,22.055L24.149,21.589ZM23.14,19.246L25.729,16.727L23.807,14.751L21.217,17.271L23.14,19.246ZM25.731,16.725C26.793,15.687 26.2,13.895 24.744,13.679L24.34,16.406C23.553,16.289 23.228,15.317 23.804,14.753L25.731,16.725ZM24.74,13.678L21.164,13.158L20.767,15.886L24.343,16.406L24.74,13.678ZM22.201,13.912L20.601,10.67L18.129,11.89L19.729,15.132L22.201,13.912ZM20.602,10.673C19.945,9.335 18.053,9.35 17.399,10.667L19.867,11.894C19.514,12.604 18.486,12.619 18.127,11.888L20.602,10.673ZM17.397,10.67L15.796,13.912L18.268,15.132L19.869,11.89L17.397,10.67ZM16.834,13.158L13.259,13.678L13.656,16.406L17.231,15.886L16.834,13.158ZM13.256,13.679C11.8,13.895 11.206,15.687 12.268,16.725L14.195,14.753C14.772,15.317 14.447,16.289 13.66,16.406L13.256,13.679ZM12.27,16.726L14.858,19.246L16.781,17.271L14.193,14.751L12.27,16.726ZM14.461,18.025L13.849,21.589L16.566,22.055L17.178,18.492L14.461,18.025ZM13.849,21.589C13.597,23.06 15.14,24.151 16.438,23.474L15.164,21.03C15.863,20.665 16.704,21.25 16.566,22.055L13.849,21.589ZM16.443,23.472L19.64,21.79L18.357,19.35L15.159,21.032L16.443,23.472Z" fill="#01008A"/>
</g>
</svg>
