<svg width="38" height="34" viewBox="0 0 38 34" fill="none" xmlns="http://www.w3.org/2000/svg" xmlns:xlink="http://www.w3.org/1999/xlink">
<path d="M36,20.586L37.378,20.586C37.378,19.824 36.761,19.207 36,19.207L36,20.586ZM36,12.356L36,13.734C36.366,13.734 36.716,13.589 36.975,13.33C37.234,13.071 37.379,12.721 37.378,12.355L36,12.356ZM35.996,7.388L34.618,7.388L34.618,7.389L35.996,7.388ZM2.002,7.388L3.38,7.389L3.38,7.388L2.002,7.388ZM2,12.516L0.622,12.515C0.621,12.881 0.767,13.232 1.025,13.49C1.284,13.749 1.634,13.894 2,13.894L2,12.516ZM2,20.586L2,19.207C1.239,19.207 0.622,19.824 0.622,20.586L2,20.586ZM29.764,33.162C33.972,33.162 37.378,29.753 37.378,25.548L34.622,25.548C34.622,28.231 32.449,30.405 29.764,30.405L29.764,33.162ZM37.378,25.548L37.378,20.586L34.622,20.586L34.622,25.548L37.378,25.548ZM36,19.207C34.482,19.207 33.262,17.986 33.262,16.471L30.505,16.471C30.505,19.509 32.96,21.964 36,21.964L36,19.207ZM33.262,16.471C33.262,14.954 34.482,13.734 36,13.734L36,10.977C32.961,10.977 30.505,13.43 30.505,16.471L33.262,16.471ZM37.378,12.355L37.375,7.387L34.618,7.389L34.622,12.357L37.378,12.355ZM37.375,7.388C37.375,3.183 33.968,-0.226 29.762,-0.226L29.762,2.531C32.445,2.531 34.618,4.705 34.618,7.388L37.375,7.388ZM29.762,-0.226L8.238,-0.226L8.238,2.531L29.762,2.531L29.762,-0.226ZM8.238,-0.226C4.032,-0.226 0.623,3.183 0.623,7.388L3.38,7.388C3.38,4.705 5.555,2.531 8.238,2.531L8.238,-0.226ZM0.623,7.388L0.622,12.515L3.378,12.516L3.38,7.389L0.623,7.388ZM2,13.894C3.589,13.894 4.737,15.024 4.737,16.471L7.493,16.471C7.493,13.359 4.965,11.137 2,11.137L2,13.894ZM4.737,16.471C4.737,17.987 3.516,19.207 2,19.207L2,21.964C5.038,21.964 7.493,19.509 7.493,16.471L4.737,16.471ZM0.622,20.586L0.622,25.548L3.378,25.548L3.378,20.586L0.622,20.586ZM0.622,25.548C0.622,29.753 4.028,33.162 8.234,33.162L8.234,30.405C5.552,30.405 3.378,28.231 3.378,25.548L0.622,25.548ZM8.234,33.162L29.764,33.162L29.764,30.405L8.234,30.405L8.234,33.162Z" fill="#01008A"/>
<g opacity="0.4">
<path d="M18.998,19.725L19.64,18.505C19.238,18.294 18.758,18.294 18.357,18.505L18.998,19.725ZM22.196,21.406L21.555,22.626L21.559,22.629L22.196,21.406ZM22.79,20.976L24.148,20.744L24.148,20.743L22.79,20.976ZM22.178,17.413L21.217,16.425C20.891,16.742 20.742,17.198 20.819,17.646L22.178,17.413ZM24.767,14.893L25.729,15.881L25.731,15.879L24.767,14.893ZM24.541,14.197L24.744,12.833L24.74,12.832L24.541,14.197ZM20.965,13.676L19.729,14.287C19.93,14.693 20.318,14.975 20.767,15.04L20.965,13.676ZM19.364,10.434L18.127,11.042L18.128,11.045L19.364,10.434ZM18.633,10.434L17.398,9.821L17.397,9.824L18.633,10.434ZM17.032,13.676L17.23,15.04C17.679,14.975 18.067,14.693 18.268,14.287L17.032,13.676ZM13.457,14.197L13.259,12.832L13.255,12.833L13.457,14.197ZM13.231,14.893L12.268,15.879L12.27,15.881L13.231,14.893ZM15.819,17.413L17.177,17.646C17.254,17.199 17.106,16.742 16.781,16.425L15.819,17.413ZM15.207,20.976L13.848,20.743L13.848,20.744L15.207,20.976ZM15.801,21.406L16.438,22.629L16.442,22.626L15.801,21.406ZM18.357,20.945L21.555,22.626L22.838,20.186L19.64,18.505L18.357,20.945ZM21.559,22.629C22.857,23.305 24.4,22.214 24.148,20.744L21.431,21.209C21.293,20.404 22.135,19.82 22.834,20.184L21.559,22.629ZM24.148,20.743L23.536,17.179L20.819,17.646L21.431,21.21L24.148,20.743ZM23.139,18.401L25.729,15.881L23.806,13.905L21.217,16.425L23.139,18.401ZM25.731,15.879C26.793,14.841 26.2,13.049 24.744,12.833L24.339,15.56C23.552,15.443 23.227,14.471 23.804,13.907L25.731,15.879ZM24.74,12.832L21.163,12.312L20.767,15.04L24.343,15.561L24.74,12.832ZM22.201,13.066L20.6,9.824L18.128,11.045L19.729,14.287L22.201,13.066ZM20.601,9.827C19.945,8.49 18.053,8.504 17.398,9.821L19.867,11.048C19.514,11.758 18.486,11.773 18.127,11.042L20.601,9.827ZM17.397,9.824L15.796,13.066L18.268,14.287L19.869,11.045L17.397,9.824ZM16.833,12.312L13.259,12.833L13.656,15.561L17.23,15.04L16.833,12.312ZM13.255,12.833C11.799,13.049 11.206,14.841 12.268,15.879L14.195,13.907C14.771,14.471 14.447,15.443 13.66,15.56L13.255,12.833ZM12.27,15.881L14.857,18.4L16.781,16.425L14.193,13.906L12.27,15.881ZM14.46,17.179L13.848,20.743L16.565,21.21L17.177,17.646L14.46,17.179ZM13.848,20.744C13.597,22.214 15.14,23.305 16.438,22.629L15.163,20.184C15.862,19.82 16.703,20.404 16.566,21.209L13.848,20.744ZM16.442,22.626L19.64,20.945L18.357,18.505L15.159,20.186L16.442,22.626Z" fill="#01008A"/>
</g>
</svg>
