<svg width="38" height="34" viewBox="0 0 38 34" fill="none" xmlns="http://www.w3.org/2000/svg" xmlns:xlink="http://www.w3.org/1999/xlink">
<path d="M36,20.117L37.378,20.117C37.378,19.356 36.761,18.739 36,18.739L36,20.117ZM36,11.887L36,13.265C36.366,13.265 36.716,13.12 36.975,12.861C37.234,12.603 37.379,12.252 37.378,11.886L36,11.887ZM35.996,6.919L34.618,6.919L34.618,6.92L35.996,6.919ZM2.002,6.919L3.38,6.92L3.38,6.919L2.002,6.919ZM2,12.047L0.622,12.046C0.621,12.412 0.767,12.763 1.025,13.021C1.284,13.28 1.634,13.425 2,13.425L2,12.047ZM2,20.117L2,18.739C1.239,18.739 0.622,19.356 0.622,20.117L2,20.117ZM29.764,32.693C33.972,32.693 37.378,29.284 37.378,25.079L34.622,25.079C34.622,27.762 32.449,29.936 29.764,29.936L29.764,32.693ZM37.378,25.079L37.378,20.117L34.622,20.117L34.622,25.079L37.378,25.079ZM36,18.739C34.482,18.739 33.262,17.517 33.262,16.002L30.505,16.002C30.505,19.041 32.96,21.495 36,21.495L36,18.739ZM33.262,16.002C33.262,14.485 34.482,13.265 36,13.265L36,10.509C32.961,10.509 30.505,12.961 30.505,16.002L33.262,16.002ZM37.378,11.886L37.375,6.918L34.618,6.92L34.622,11.888L37.378,11.886ZM37.375,6.919C37.375,2.715 33.968,-0.695 29.762,-0.695L29.762,2.062C32.445,2.062 34.618,4.236 34.618,6.919L37.375,6.919ZM29.762,-0.695L8.238,-0.695L8.238,2.062L29.762,2.062L29.762,-0.695ZM8.238,-0.695C4.032,-0.695 0.623,2.714 0.623,6.919L3.38,6.919C3.38,4.237 5.555,2.062 8.238,2.062L8.238,-0.695ZM0.623,6.919L0.622,12.046L3.378,12.047L3.38,6.92L0.623,6.919ZM2,13.425C3.589,13.425 4.737,14.555 4.737,16.002L7.493,16.002C7.493,12.891 4.965,10.669 2,10.669L2,13.425ZM4.737,16.002C4.737,17.518 3.516,18.739 2,18.739L2,21.495C5.038,21.495 7.493,19.04 7.493,16.002L4.737,16.002ZM0.622,20.117L0.622,25.079L3.378,25.079L3.378,20.117L0.622,20.117ZM0.622,25.079C0.622,29.284 4.028,32.693 8.234,32.693L8.234,29.936C5.552,29.936 3.378,27.762 3.378,25.079L0.622,25.079ZM8.234,32.693L29.764,32.693L29.764,29.936L8.234,29.936L8.234,32.693Z" fill="#FFFFFF"/>
<g opacity="0.4">
<path d="M18.998,19.256L19.64,18.036C19.238,17.825 18.758,17.825 18.357,18.036L18.998,19.256ZM22.196,20.938L21.555,22.158L21.559,22.16L22.196,20.938ZM22.79,20.508L24.148,20.275L24.148,20.274L22.79,20.508ZM22.178,16.944L21.217,15.956C20.891,16.273 20.742,16.73 20.819,17.177L22.178,16.944ZM24.767,14.424L25.729,15.412L25.731,15.41L24.767,14.424ZM24.541,13.728L24.744,12.364L24.74,12.364L24.541,13.728ZM20.965,13.208L19.729,13.818C19.93,14.225 20.318,14.506 20.767,14.572L20.965,13.208ZM19.364,9.966L18.127,10.573L18.128,10.576L19.364,9.966ZM18.633,9.966L17.398,9.352L17.397,9.355L18.633,9.966ZM17.032,13.208L17.23,14.572C17.679,14.506 18.067,14.225 18.268,13.818L17.032,13.208ZM13.457,13.728L13.259,12.364L13.255,12.364L13.457,13.728ZM13.231,14.424L12.268,15.41L12.27,15.412L13.231,14.424ZM15.819,16.944L17.177,17.177C17.254,16.73 17.106,16.273 16.781,15.956L15.819,16.944ZM15.207,20.508L13.848,20.274L13.848,20.275L15.207,20.508ZM15.801,20.938L16.438,22.16L16.442,22.158L15.801,20.938ZM18.357,20.476L21.555,22.158L22.838,19.718L19.64,18.036L18.357,20.476ZM21.559,22.16C22.857,22.837 24.4,21.745 24.148,20.275L21.431,20.74C21.293,19.935 22.135,19.351 22.834,19.715L21.559,22.16ZM24.148,20.274L23.536,16.711L20.819,17.177L21.431,20.741L24.148,20.274ZM23.139,17.932L25.729,15.412L23.806,13.436L21.217,15.956L23.139,17.932ZM25.731,15.41C26.793,14.372 26.2,12.58 24.744,12.364L24.339,15.091C23.552,14.974 23.227,14.002 23.804,13.439L25.731,15.41ZM24.74,12.364L21.163,11.844L20.767,14.572L24.343,15.092L24.74,12.364ZM22.201,12.597L20.6,9.355L18.128,10.576L19.729,13.818L22.201,12.597ZM20.601,9.358C19.945,8.021 18.053,8.035 17.398,9.352L19.867,10.579C19.514,11.29 18.486,11.304 18.127,10.573L20.601,9.358ZM17.397,9.355L15.796,12.597L18.268,13.818L19.869,10.576L17.397,9.355ZM16.833,11.844L13.259,12.364L13.656,15.092L17.23,14.572L16.833,11.844ZM13.255,12.364C11.799,12.58 11.206,14.372 12.268,15.41L14.195,13.439C14.771,14.002 14.447,14.974 13.66,15.091L13.255,12.364ZM12.27,15.412L14.857,17.932L16.781,15.956L14.193,13.437L12.27,15.412ZM14.46,16.711L13.848,20.274L16.565,20.741L17.177,17.177L14.46,16.711ZM13.848,20.275C13.597,21.745 15.14,22.837 16.438,22.16L15.163,19.715C15.862,19.351 16.703,19.935 16.566,20.74L13.848,20.275ZM16.442,22.158L19.64,20.476L18.357,18.036L15.159,19.718L16.442,22.158Z" fill="#FFFFFF"/>
</g>
</svg>
