<svg width="46" height="42" viewBox="0 0 46 42" fill="none" xmlns="http://www.w3.org/2000/svg" xmlns:xlink="http://www.w3.org/1999/xlink">
<path d="M43,25.434L44.662,25.434C44.662,24.516 43.918,23.772 43,23.772L43,25.434ZM43,15.51L43,17.172C43.441,17.172 43.864,16.997 44.176,16.685C44.488,16.373 44.662,15.95 44.662,15.509L43,15.51ZM42.996,9.52L41.333,9.52L41.333,9.521L42.996,9.52ZM2.002,9.52L3.664,9.52L3.664,9.52L2.002,9.52ZM2,15.703L0.338,15.702C0.338,16.143 0.513,16.566 0.824,16.878C1.136,17.19 1.559,17.365 2,17.365L2,15.703ZM2,25.434L2,23.772C1.082,23.772 0.338,24.516 0.338,25.434L2,25.434ZM35.48,40.6C40.554,40.6 44.662,36.489 44.662,31.418L41.338,31.418C41.338,34.654 38.717,37.276 35.48,37.276L35.48,40.6ZM44.662,31.418L44.662,25.434L41.338,25.434L41.338,31.418L44.662,31.418ZM43,23.772C41.169,23.772 39.698,22.3 39.698,20.472L36.374,20.472C36.374,24.137 39.334,27.096 43,27.096L43,23.772ZM39.698,20.472C39.698,18.643 41.169,17.172 43,17.172L43,13.848C39.335,13.848 36.374,16.805 36.374,20.472L39.698,20.472ZM44.662,15.509L44.658,9.518L41.333,9.521L41.338,15.511L44.662,15.509ZM44.658,9.52C44.658,4.449 40.55,0.338 35.478,0.338L35.478,3.662C38.713,3.662 41.333,6.284 41.333,9.52L44.658,9.52ZM35.478,0.338L9.522,0.338L9.522,3.662L35.478,3.662L35.478,0.338ZM9.522,0.338C4.451,0.338 0.34,4.448 0.34,9.52L3.664,9.52C3.664,6.284 6.287,3.662 9.522,3.662L9.522,0.338ZM0.34,9.519L0.338,15.702L3.662,15.703L3.664,9.52L0.34,9.519ZM2,17.365C3.916,17.365 5.3,18.728 5.3,20.472L8.624,20.472C8.624,16.72 5.576,14.041 2,14.041L2,17.365ZM5.3,20.472C5.3,22.3 3.828,23.772 2,23.772L2,27.096C5.664,27.096 8.624,24.136 8.624,20.472L5.3,20.472ZM0.338,25.434L0.338,31.418L3.662,31.418L3.662,25.434L0.338,25.434ZM0.338,31.418C0.338,36.489 4.446,40.6 9.517,40.6L9.517,37.276C6.283,37.276 3.662,34.654 3.662,31.418L0.338,31.418ZM9.517,40.6L35.48,40.6L35.48,37.276L9.517,37.276L9.517,40.6Z" fill="#3229E1"/>
<path d="M22.499,24.394L23.273,22.923C22.788,22.668 22.21,22.668 21.725,22.923L22.499,24.394ZM26.355,26.422L25.582,27.893L25.587,27.895L26.355,26.422ZM27.071,25.903L28.709,25.622L28.709,25.622L27.071,25.903ZM26.333,21.606L25.174,20.414C24.781,20.796 24.602,21.347 24.695,21.887L26.333,21.606ZM29.456,18.567L30.615,19.759L30.617,19.756L29.456,18.567ZM29.183,17.727L29.427,16.083L29.422,16.083L29.183,17.727ZM24.87,17.1L23.38,17.836C23.622,18.326 24.09,18.666 24.631,18.745L24.87,17.1ZM22.94,13.191L21.448,13.923L21.45,13.927L22.94,13.191ZM22.058,13.191L20.569,12.451L20.568,12.455L22.058,13.191ZM20.128,17.1L20.367,18.745C20.908,18.666 21.376,18.326 21.618,17.836L20.128,17.1ZM15.817,17.727L15.578,16.083L15.573,16.083L15.817,17.727ZM15.544,18.567L14.383,19.756L14.385,19.758L15.544,18.567ZM18.665,21.606L20.303,21.887C20.396,21.347 20.217,20.797 19.824,20.415L18.665,21.606ZM17.927,25.903L16.289,25.622L16.289,25.622L17.927,25.903ZM18.643,26.422L19.411,27.895L19.416,27.893L18.643,26.422ZM21.725,25.865L25.582,27.893L27.129,24.95L23.273,22.923L21.725,25.865ZM25.587,27.895C27.152,28.712 29.013,27.395 28.709,25.622L25.433,26.184C25.266,25.213 26.281,24.508 27.124,24.948L25.587,27.895ZM28.709,25.622L27.971,21.324L24.695,21.887L25.433,26.184L28.709,25.622ZM27.492,22.797L30.615,19.759L28.297,17.376L25.174,20.414L27.492,22.797ZM30.617,19.756C31.898,18.505 31.183,16.344 29.427,16.083L28.939,19.372C27.99,19.231 27.598,18.058 28.294,17.379L30.617,19.756ZM29.422,16.083L25.11,15.455L24.631,18.745L28.944,19.372L29.422,16.083ZM26.361,16.364L24.43,12.455L21.45,13.927L23.38,17.836L26.361,16.364ZM24.432,12.458C23.64,10.845 21.359,10.863 20.569,12.451L23.546,13.93C23.121,14.787 21.881,14.805 21.448,13.923L24.432,12.458ZM20.568,12.455L18.637,16.364L21.618,17.836L23.548,13.927L20.568,12.455ZM19.888,15.455L15.578,16.083L16.056,19.372L20.367,18.745L19.888,15.455ZM15.573,16.083C13.817,16.344 13.102,18.505 14.383,19.756L16.706,17.379C17.402,18.058 17.01,19.231 16.061,19.372L15.573,16.083ZM14.385,19.758L17.505,22.797L19.824,20.415L16.704,17.376L14.385,19.758ZM17.027,21.324L16.289,25.622L19.565,26.184L20.303,21.887L17.027,21.324ZM16.289,25.622C15.985,27.395 17.846,28.712 19.411,27.895L17.874,24.948C18.717,24.508 19.731,25.213 19.565,26.184L16.289,25.622ZM19.416,27.893L23.273,25.865L21.725,22.923L17.869,24.95L19.416,27.893Z" fill="#3229E1"/>
</svg>
