<svg width="28" height="28" viewBox="0 0 28 28" fill="none" xmlns="http://www.w3.org/2000/svg" xmlns:xlink="http://www.w3.org/1999/xlink">
<path d="M24.414,7.849C24.895,7.896 25.323,7.545 25.371,7.064C25.418,6.583 25.067,6.155 24.586,6.107L24.414,7.849ZM5.88,6.745L5.965,7.615L5.968,7.615L5.88,6.745ZM3.415,6.107C2.934,6.154 2.582,6.582 2.629,7.063C2.676,7.544 3.104,7.896 3.585,7.849L3.415,6.107ZM24.586,6.107C20.673,5.719 16.736,5.52 12.81,5.52L12.81,7.27C16.677,7.27 20.557,7.466 24.414,7.849L24.586,6.107ZM12.81,5.52C10.47,5.52 8.131,5.638 5.792,5.874L5.968,7.615C8.249,7.385 10.53,7.27 12.81,7.27L12.81,5.52ZM5.795,5.874L3.415,6.107L3.585,7.849L5.965,7.615L5.795,5.874Z" fill="#707070"/>
<path d="M9.054,5.652C8.974,6.129 9.295,6.58 9.772,6.66C10.248,6.74 10.699,6.419 10.779,5.942L9.054,5.652ZM10.173,4.269L9.31,4.123L9.31,4.124L10.173,4.269ZM17.827,4.28L16.963,4.421L16.964,4.426L17.827,4.28ZM17.22,5.943C17.301,6.42 17.753,6.74 18.229,6.66C18.706,6.579 19.027,6.128 18.946,5.651L17.22,5.943ZM10.779,5.942L11.036,4.414L9.31,4.124L9.054,5.652L10.779,5.942ZM11.036,4.414C11.141,3.79 11.202,3.585 11.309,3.463C11.366,3.399 11.578,3.207 12.472,3.207L12.472,1.457C11.394,1.457 10.55,1.679 9.997,2.306C9.495,2.875 9.392,3.639 9.31,4.123L11.036,4.414ZM12.472,3.207L15.528,3.207L15.528,1.457L12.472,1.457L12.472,3.207ZM15.528,3.207C16.409,3.207 16.628,3.405 16.69,3.477C16.804,3.608 16.865,3.823 16.963,4.421L18.69,4.14C18.613,3.665 18.511,2.905 18.012,2.33C17.462,1.697 16.619,1.457 15.528,1.457L15.528,3.207ZM16.964,4.426L17.22,5.943L18.946,5.651L18.689,4.134L16.964,4.426Z" fill="#707070"/>
<path d="M22.865,10.72C22.896,10.238 22.53,9.822 22.048,9.791C21.566,9.76 21.15,10.125 21.118,10.608L22.865,10.72ZM21.233,22.412L22.106,22.474L22.106,22.469L21.233,22.412ZM6.767,22.412L5.893,22.469L5.894,22.474L6.767,22.412ZM6.881,10.608C6.85,10.125 6.434,9.76 5.952,9.791C5.47,9.822 5.104,10.238 5.135,10.72L6.881,10.608ZM21.118,10.608L20.36,22.356L22.106,22.469L22.865,10.72L21.118,10.608ZM20.36,22.351C20.327,22.822 20.3,23.196 20.234,23.521C20.17,23.837 20.082,24.045 19.968,24.194C19.771,24.45 19.284,24.792 17.745,24.792L17.745,26.542C19.461,26.542 20.654,26.173 21.356,25.26C21.691,24.824 21.856,24.332 21.95,23.866C22.042,23.41 22.075,22.918 22.106,22.474L20.36,22.351ZM17.745,24.792L10.255,24.792L10.255,26.542L17.745,26.542L17.745,24.792ZM10.255,24.792C8.716,24.792 8.229,24.45 8.032,24.194C7.918,24.045 7.83,23.837 7.766,23.521C7.7,23.196 7.672,22.822 7.639,22.351L5.894,22.474C5.925,22.918 5.958,23.41 6.05,23.866C6.144,24.332 6.309,24.824 6.644,25.26C7.346,26.173 8.539,26.542 10.255,26.542L10.255,24.792ZM7.64,22.356L6.881,10.608L5.135,10.72L5.893,22.469L7.64,22.356Z" fill="#707070"/>
<line x1="12.052" y1="18.375" x2="15.937" y2="18.375" stroke="#707070" stroke-width="0.875" stroke-miterlimit="3.999327" stroke-linecap="round" stroke-linejoin="round"/>
<line x1="11.083" y1="13.707" x2="16.917" y2="13.707" stroke="#707070" stroke-width="0.875" stroke-miterlimit="3.999327" stroke-linecap="round" stroke-linejoin="round"/>
</svg>
