<svg width="28" height="10" viewBox="0 0 28 10" fill="none" xmlns="http://www.w3.org/2000/svg" xmlns:xlink="http://www.w3.org/1999/xlink">
<path d="M3.08,9.618L4.816,9.618L4.816,1.596L7.896,1.596L7.896,0L0,0L0,1.596L3.08,1.596L3.08,9.618Z" fill="#01008A"/>
<path d="M13.52,9.786C16.012,9.786 17.762,8.022 17.762,5.516L17.762,0L16.026,0L16.026,5.46C16.026,7.056 14.99,8.204 13.52,8.204C12.064,8.204 11.028,7.056 11.028,5.46L11.028,0L9.278,0L9.278,5.516C9.278,8.022 11.042,9.786 13.52,9.786Z" fill="#01008A"/>
<path d="M26.876,1.596L26.876,0L19.638,0L19.638,9.618L26.876,9.618L26.876,8.022L21.388,8.022L21.388,5.516L26.358,5.516L26.358,3.92L21.388,3.92L21.388,1.596L26.876,1.596Z" fill="#01008A"/>
</svg>
