<svg width="40" height="38" viewBox="0 0 40 38" fill="none" xmlns="http://www.w3.org/2000/svg" xmlns:xlink="http://www.w3.org/1999/xlink">
<path d="M30.593,1.54C29.427,1.148 28.2,0.975 26.971,0.975C24.264,0.955 21.637,1.851 19.474,3.505C19.327,3.392 19.153,3.291 18.986,3.193L18.986,3.193L18.889,3.136C18.814,3.09 18.715,3.019 18.605,2.939L18.605,2.939C18.432,2.813 18.231,2.667 18.052,2.572L17.312,2.241C16.923,2.026 16.516,1.871 16.085,1.732C16.046,1.695 15.988,1.655 15.91,1.618L15.795,1.618C14.644,1.226 13.456,1.012 12.229,0.975L12.015,0.975C11.47,0.975 10.927,1.012 10.379,1.092L10.146,1.092C9.562,1.168 8.979,1.304 8.415,1.499C1.149,3.877 -1.441,11.763 0.76,18.657C2.006,22.18 4.014,25.375 6.623,28.002C10.418,31.663 14.568,34.896 19.026,37.661L19.532,37.975L20.019,37.681C24.461,34.896 28.587,31.663 32.348,28.022C34.975,25.395 36.981,22.18 38.207,18.657C40.371,11.763 37.781,3.877 30.593,1.54Z" clip-rule="evenodd" fill-rule="evenodd" fill="#01008A"/>
</svg>
