<svg width="40" height="38" viewBox="0 0 40 38" fill="none" xmlns="http://www.w3.org/2000/svg" xmlns:xlink="http://www.w3.org/1999/xlink">
<path d="M30.593,0.065C29.427,-0.326 28.2,-0.5 26.971,-0.5C24.264,-0.519 21.637,0.377 19.474,2.03C19.327,1.918 19.153,1.816 18.986,1.719L18.986,1.719L18.89,1.662C18.814,1.616 18.715,1.544 18.605,1.464L18.605,1.464C18.432,1.338 18.231,1.193 18.052,1.097L17.312,0.766C16.923,0.552 16.516,0.396 16.085,0.258C16.046,0.221 15.988,0.18 15.91,0.143L15.795,0.143C14.644,-0.248 13.456,-0.463 12.23,-0.5L12.015,-0.5C11.47,-0.5 10.927,-0.463 10.38,-0.383L10.146,-0.383C9.562,-0.307 8.979,-0.171 8.415,0.024C1.149,2.402 -1.441,10.289 0.76,17.182C2.006,20.705 4.014,23.901 6.623,26.528C10.418,30.189 14.568,33.422 19.026,36.187L19.532,36.5L20.019,36.206C24.461,33.422 28.587,30.189 32.348,26.547C34.975,23.92 36.981,20.705 38.207,17.182C40.371,10.289 37.781,2.402 30.593,0.065Z" clip-rule="evenodd" fill-rule="evenodd" fill="#01008A"/>
</svg>
