<svg width="40" height="38" viewBox="0 0 40 38" fill="none" xmlns="http://www.w3.org/2000/svg" xmlns:xlink="http://www.w3.org/1999/xlink">
<path d="M30.593,0.067C29.427,-0.324 28.2,-0.498 26.971,-0.498C25.581,-0.508 24.213,-0.275 22.917,0.176C21.688,0.602 20.526,1.227 19.474,2.032C19.327,1.92 19.153,1.819 18.986,1.721L18.89,1.664L18.672,1.516L18.605,1.467C18.432,1.34 18.23,1.196 18.052,1.1L17.312,0.768C16.923,0.555 16.516,0.399 16.085,0.26L16.008,0.198L15.91,0.145L15.795,0.145C14.645,-0.246 13.456,-0.461 12.229,-0.498L12.016,-0.498C11.47,-0.498 10.927,-0.461 10.38,-0.381L10.145,-0.381C9.561,-0.304 8.979,-0.168 8.415,0.026C1.149,2.405 -1.441,10.291 0.76,17.184C2.006,20.707 4.014,23.903 6.623,26.53C10.418,30.192 14.568,33.424 19.025,36.19L19.532,36.502L20.019,36.209C24.461,33.424 28.587,30.192 32.348,26.549C34.975,23.922 36.98,20.707 38.207,17.184C40.371,10.291 37.781,2.405 30.593,0.067Z" clip-rule="evenodd" fill-rule="evenodd" fill="#01008A"/>
</svg>
