<svg width="56" height="44" viewBox="0 0 56 44" fill="none" xmlns="http://www.w3.org/2000/svg" xmlns:xlink="http://www.w3.org/1999/xlink">
<path d="M9.322,6.126C8.338,8.424 6.259,12.919 4.528,16.515L4.789,16.515C2.021,17.323 0,19.879 0,22.908L0,29.567C0,31.362 0.71,32.991 1.866,34.189L1.866,39.423C1.866,41.482 3.535,43.152 5.595,43.152L9.324,43.152C11.383,43.152 13.053,41.482 13.053,39.423L13.053,36.226L42.619,36.226L42.619,39.423C42.619,41.482 44.289,43.152 46.348,43.152L50.078,43.152C52.137,43.152 53.807,41.482 53.807,39.423L53.807,34.187C54.961,32.99 55.67,31.361 55.67,29.567L55.67,22.908C55.67,19.877 53.645,17.319 50.875,16.513C49.781,13.321 47.659,8.806 46.347,6.126C45.035,3.446 42.352,0 36.358,0L18.245,0C13.717,0 10.553,3.254 9.322,6.126ZM42.644,16.248C41.888,14.373 40.367,10.744 39.555,9.323C38.702,7.831 36.802,7.369 35.959,7.325L19.311,7.325C17.579,7.325 16.381,8.257 15.582,9.856C14.974,11.07 13.517,14.466 12.764,16.248L42.644,16.248ZM44.13,22.801C41.984,23.945 39.838,26.663 40.553,28.237C40.985,29.188 42.127,29.668 45.131,29.811C48.136,29.954 50.711,28.237 50.282,24.947C49.853,21.656 46.276,21.656 44.13,22.801ZM15.105,28.237C15.821,26.663 13.675,23.945 11.529,22.801C9.383,21.656 5.806,21.656 5.377,24.947C4.948,28.237 7.523,29.954 10.527,29.811C13.532,29.668 14.673,29.188 15.105,28.237Z" clip-rule="evenodd" fill-rule="evenodd" fill="#5062F6"/>
</svg>
