<svg width="28" height="28" viewBox="0 0 28 28" fill="none" xmlns="http://www.w3.org/2000/svg" xmlns:xlink="http://www.w3.org/1999/xlink">
<path d="M21.739,0.402C20.91,0.123 20.038,0 19.165,0C17.242,-0.014 15.375,0.623 13.838,1.798C13.733,1.718 13.61,1.646 13.491,1.576L13.422,1.536C13.369,1.503 13.298,1.452 13.22,1.396L13.22,1.396C13.097,1.306 12.954,1.203 12.827,1.135L12.302,0.9C12.025,0.747 11.736,0.637 11.43,0.539C11.402,0.512 11.361,0.483 11.305,0.457L11.224,0.457C10.406,0.179 9.562,0.027 8.69,0L8.538,0C8.15,0 7.764,0.027 7.375,0.083L7.209,0.083C6.794,0.137 6.381,0.234 5.979,0.372C0.816,2.062 -1.024,7.666 0.54,12.565C1.425,15.068 2.852,17.339 4.706,19.205C7.403,21.807 10.352,24.104 13.519,26.069L13.879,26.292L14.225,26.083C17.381,24.104 20.314,21.807 22.986,19.219C24.852,17.353 26.278,15.068 27.149,12.565C28.687,7.666 26.846,2.062 21.739,0.402Z" clip-rule="evenodd" fill-rule="evenodd" fill="#01008A"/>
</svg>
