<svg width="40" height="38" viewBox="0 0 40 38" fill="none" xmlns="http://www.w3.org/2000/svg" xmlns:xlink="http://www.w3.org/1999/xlink">
<path d="M30.593,1.542C29.427,1.15 28.2,0.977 26.971,0.977C24.264,0.957 21.637,1.853 19.474,3.507C19.327,3.394 19.153,3.293 18.986,3.195L18.986,3.195L18.889,3.138C18.814,3.092 18.715,3.021 18.605,2.941L18.605,2.941C18.432,2.815 18.231,2.669 18.052,2.574L17.312,2.243C16.923,2.028 16.516,1.873 16.085,1.734C16.046,1.697 15.988,1.657 15.91,1.62L15.795,1.62C14.644,1.228 13.456,1.014 12.229,0.977L12.015,0.977C11.47,0.977 10.927,1.014 10.379,1.094L10.146,1.094C9.562,1.17 8.979,1.306 8.415,1.501C1.149,3.878 -1.441,11.765 0.76,18.659C2.006,22.182 4.014,25.377 6.623,28.004C10.418,31.665 14.568,34.898 19.026,37.663L19.532,37.977L20.019,37.683C24.461,34.898 28.587,31.665 32.348,28.024C34.975,25.397 36.981,22.182 38.207,18.659C40.371,11.765 37.781,3.878 30.593,1.542Z" clip-rule="evenodd" fill-rule="evenodd" fill="#01008A"/>
</svg>
