<svg width="40" height="38" viewBox="0 0 40 38" fill="none" xmlns="http://www.w3.org/2000/svg" xmlns:xlink="http://www.w3.org/1999/xlink">
<path d="M30.593,0.067C29.427,-0.325 28.2,-0.498 26.971,-0.498C24.264,-0.517 21.637,0.378 19.474,2.032C19.327,1.919 19.153,1.818 18.986,1.72L18.89,1.664C18.845,1.637 18.792,1.6 18.734,1.559C18.693,1.53 18.65,1.499 18.605,1.466C18.432,1.34 18.231,1.194 18.052,1.099L17.312,0.768C16.923,0.554 16.516,0.398 16.085,0.26C16.046,0.223 15.988,0.182 15.91,0.145L15.795,0.145C14.644,-0.247 13.456,-0.461 12.229,-0.498L12.015,-0.498C11.47,-0.498 10.927,-0.461 10.38,-0.381L10.146,-0.381C9.562,-0.305 8.979,-0.169 8.415,0.026C1.149,2.404 -1.441,10.291 0.76,17.184C2.006,20.707 4.014,23.903 6.623,26.53C10.418,30.191 14.568,33.423 19.026,36.189L19.532,36.502L20.019,36.208C24.461,33.423 28.587,30.191 32.348,26.549C34.975,23.922 36.981,20.707 38.207,17.184C40.371,10.291 37.781,2.404 30.593,0.067Z" clip-rule="evenodd" fill-rule="evenodd" fill="#01008A"/>
</svg>
