<svg width="20" height="22" viewBox="0 0 20 22" fill="none" xmlns="http://www.w3.org/2000/svg" xmlns:xlink="http://www.w3.org/1999/xlink">
<path d="M12.04,2.911C12.04,1.618 10.993,0.57 9.699,0.57C8.405,0.57 7.358,1.618 7.358,2.911L7.358,8.415L1.833,8.415C0.54,8.415 -0.508,9.463 -0.508,10.756C-0.508,12.05 0.54,13.098 1.833,13.098L7.358,13.098L7.358,18.602C7.358,19.895 8.405,20.943 9.699,20.943C10.993,20.943 12.04,19.895 12.04,18.602L12.04,13.098L17.544,13.098C18.838,13.098 19.885,12.05 19.885,10.756C19.885,9.463 18.838,8.415 17.544,8.415L12.04,8.415L12.04,2.911Z" clip-rule="evenodd" fill-rule="evenodd" fill="#8B8AEA"/>
</svg>
