<svg width="10" height="12" viewBox="0 0 10 12" fill="none" xmlns="http://www.w3.org/2000/svg" xmlns:xlink="http://www.w3.org/1999/xlink">
<path d="M5.426,1.5C5.426,0.878 4.916,0.355 4.294,0.355C3.659,0.355 3.162,0.865 3.162,1.5L3.162,4.174L0.488,4.174C-0.147,4.174 -0.644,4.684 -0.644,5.306C-0.644,5.928 -0.134,6.45 0.488,6.45L3.162,6.45L3.162,9.125C3.162,9.747 3.672,10.269 4.294,10.269C4.928,10.269 5.426,9.759 5.426,9.125L5.426,6.45L8.1,6.45C8.734,6.45 9.244,5.94 9.244,5.306C9.244,4.684 8.734,4.174 8.1,4.174L5.426,4.174L5.426,1.5Z" clip-rule="evenodd" fill-rule="evenodd" fill="#8B8AEA"/>
</svg>
