<svg width="14" height="12" viewBox="0 0 14 12" fill="none" xmlns="http://www.w3.org/2000/svg" xmlns:xlink="http://www.w3.org/1999/xlink">
<path d="M7.673,0.511C7.673,-0.273 7.039,-0.907 6.255,-0.907C5.472,-0.907 4.837,-0.273 4.837,0.511L4.837,3.844L1.504,3.844C0.72,3.844 0.086,4.479 0.086,5.262C0.086,6.046 0.72,6.68 1.504,6.68L4.837,6.68L4.837,10.014C4.837,10.797 5.472,11.432 6.255,11.432C7.039,11.432 7.673,10.797 7.673,10.014L7.673,6.68L11.007,6.68C11.79,6.68 12.425,6.046 12.425,5.262C12.425,4.479 11.79,3.844 11.007,3.844L7.673,3.844L7.673,0.511Z" clip-rule="evenodd" fill-rule="evenodd" fill="#8B8AEA"/>
</svg>
