<svg width="78" height="66" viewBox="0 0 78 66" fill="none" xmlns="http://www.w3.org/2000/svg" xmlns:xlink="http://www.w3.org/1999/xlink">
<path d="M33.614,64.007C36.09,66.61 39.882,59.314 40.976,57.721C44.494,60.318 53.959,62.353 52.514,55.282C54.39,55.968 60.225,56.295 58.407,49.996C63.071,52.273 67.05,48.709 66.436,44.699C70.566,45.448 73.09,42.072 71.929,38.044C78.148,30.23 77.789,20.133 77.432,15.583C76.241,0.42 55.878,6.154 46.509,0.23L26.623,0.31C23.252,6.349 21.159,3.104 14.793,3.89C5.497,5.253 -2.169,28.772 0.221,29.845L12.057,42.454C12.27,44.792 6.071,48.647 11.511,51.466C20.889,54.774 27.309,59.225 33.632,64.004L33.614,64.007Z" fill="#D4FFDF" stroke="#B7FFC9" stroke-width="1.441" stroke-miterlimit="3.999327" stroke-linecap="round"/>
</svg>
