<svg width="32" height="34" viewBox="0 0 32 34" fill="none" xmlns="http://www.w3.org/2000/svg" xmlns:xlink="http://www.w3.org/1999/xlink">
<path d="M16,3.002C13.933,3.001 11.896,3.492 10.057,4.437C8.219,5.381 6.632,6.751 5.43,8.432L8.146,11.148C8.216,11.218 8.264,11.307 8.283,11.405C8.303,11.502 8.293,11.602 8.255,11.694C8.217,11.785 8.153,11.864 8.07,11.918C7.988,11.973 7.891,12.003 7.792,12.002L0.5,12.002C0.367,12.002 0.24,11.95 0.146,11.856C0.053,11.762 0,11.635 0,11.502L0,4.21C0,4.111 0.029,4.015 0.084,3.932C0.139,3.85 0.217,3.785 0.309,3.748C0.4,3.71 0.501,3.7 0.598,3.719C0.695,3.738 0.784,3.786 0.854,3.856L3.286,6.288C5.231,3.741 7.897,1.837 10.937,0.823C13.977,-0.192 17.252,-0.27 20.338,0.599C23.423,1.467 26.176,3.242 28.24,5.694C30.305,8.145 31.585,11.16 31.916,14.348C31.939,14.545 31.922,14.745 31.866,14.935C31.811,15.126 31.719,15.303 31.594,15.458C31.47,15.612 31.316,15.74 31.142,15.835C30.968,15.93 30.777,15.989 30.58,16.009C30.383,16.03 30.183,16.011 29.993,15.954C29.804,15.896 29.627,15.802 29.474,15.676C29.321,15.551 29.194,15.396 29.101,15.221C29.008,15.046 28.951,14.854 28.932,14.656C28.599,11.459 27.093,8.498 24.704,6.346C22.316,4.193 19.215,3.002 16,3.002ZM1.424,16.01C1.82,15.97 2.215,16.089 2.523,16.34C2.832,16.591 3.028,16.955 3.068,17.35C3.342,19.974 4.407,22.452 6.122,24.456C7.838,26.46 10.122,27.895 12.672,28.57C15.222,29.245 17.917,29.129 20.4,28.236C22.882,27.343 25.034,25.717 26.57,23.572L23.854,20.856C23.784,20.786 23.736,20.697 23.717,20.6C23.698,20.503 23.707,20.402 23.745,20.311C23.783,20.219 23.848,20.141 23.93,20.086C24.012,20.031 24.109,20.002 24.208,20.002L31.5,20.002C31.633,20.002 31.76,20.055 31.854,20.149C31.948,20.243 32,20.37 32,20.502L32,27.794C32,27.893 31.971,27.99 31.916,28.073C31.861,28.155 31.783,28.219 31.692,28.257C31.6,28.295 31.5,28.305 31.402,28.286C31.305,28.266 31.216,28.219 31.146,28.148L28.714,25.716C26.768,28.263 24.103,30.166 21.063,31.18C18.023,32.194 14.748,32.271 11.664,31.403C8.579,30.535 5.826,28.76 3.762,26.309C1.697,23.858 0.416,20.844 0.084,17.656C0.064,17.46 0.082,17.262 0.139,17.073C0.195,16.884 0.288,16.709 0.413,16.556C0.537,16.403 0.691,16.276 0.864,16.182C1.038,16.089 1.228,16.03 1.424,16.01Z" clip-rule="evenodd" fill-rule="evenodd" fill="#F1A63D"/>
</svg>
