<svg width="14" height="24" viewBox="0 0 14 24" fill="none" xmlns="http://www.w3.org/2000/svg" xmlns:xlink="http://www.w3.org/1999/xlink">
<path d="M-0.53,0.393C-0.25,0.114 0.129,-0.043 0.524,-0.043C0.919,-0.043 1.298,0.114 1.578,0.393L12.012,10.828C12.292,11.107 12.449,11.486 12.449,11.882C12.449,12.277 12.292,12.656 12.012,12.936L1.578,23.37C1.297,23.642 0.92,23.792 0.529,23.788C0.139,23.785 -0.235,23.628 -0.512,23.352C-0.788,23.075 -0.945,22.702 -0.948,22.311C-0.952,21.92 -0.801,21.543 -0.53,21.262L8.851,11.882L-0.53,2.501C-0.809,2.222 -0.966,1.843 -0.966,1.447C-0.966,1.052 -0.809,0.673 -0.53,0.393L-0.53,0.393Z" clip-rule="evenodd" fill-rule="evenodd" fill="#000000"/>
</svg>
