<svg width="10" height="8" viewBox="0 0 10 8" fill="none" xmlns="http://www.w3.org/2000/svg" xmlns:xlink="http://www.w3.org/1999/xlink">
<path d="M4.767,6.588L4.631,7.406C4.684,7.415 4.738,7.419 4.791,7.417L4.767,6.588ZM4.525,6.588L4.495,7.417C4.55,7.419 4.606,7.416 4.661,7.406L4.525,6.588ZM7.946,3.294L8.776,3.3L8.776,3.294L7.946,3.294ZM4.904,5.769C4.737,5.741 4.555,5.741 4.388,5.769L4.661,7.406C4.655,7.407 4.651,7.408 4.649,7.408C4.647,7.408 4.646,7.408 4.646,7.408C4.646,7.408 4.645,7.408 4.643,7.408C4.641,7.408 4.637,7.407 4.631,7.406L4.904,5.769ZM4.555,5.758C3.239,5.711 2.188,4.634 2.188,3.294L0.529,3.294C0.529,5.528 2.287,7.337 4.495,7.417L4.555,5.758ZM2.188,3.294C2.188,1.927 3.285,0.83 4.652,0.83L4.652,-0.83C2.368,-0.83 0.529,1.01 0.529,3.294L2.188,3.294ZM4.652,0.83C6.018,0.83 7.116,1.937 7.116,3.294L8.776,3.294C8.776,1.025 6.938,-0.83 4.652,-0.83L4.652,0.83ZM7.116,3.288C7.107,4.639 6.048,5.72 4.743,5.758L4.791,7.417C7.01,7.353 8.76,5.523 8.776,3.3L7.116,3.288Z" fill="#01008A"/>
</svg>
