<svg width="82" height="44" viewBox="0 0 82 44" fill="none" xmlns="http://www.w3.org/2000/svg" xmlns:xlink="http://www.w3.org/1999/xlink">
<path d="M14.417,42.947C15.075,42.947 15.739,42.738 16.301,42.309L27.158,33.995C27.957,34.114 28.76,34.126 29.63,34.126L53.711,34.126C54.378,34.126 55.068,34.126 55.771,34.051C56.271,33.998 56.673,33.681 56.868,33.255C58.143,32.3 57.76,32.683 58.143,32.3L80.055,10.389C81.375,9.069 82.081,7.236 81.993,5.359C81.904,3.488 81.026,1.729 79.583,0.536C76.968,-1.629 72.945,-1.352 70.427,1.166L60.612,10.982C59.695,10.432 58.656,10.132 57.597,10.132L57.593,10.132C57.396,10.124 52.769,9.939 51.667,9.939C50.889,9.946 50.091,9.961 49.278,9.977C45.237,10.058 41.057,10.141 37.29,9.159C36.428,8.933 35.601,8.693 34.796,8.459C30.765,7.288 26.959,6.182 22.091,7.865C17.828,9.33 13.774,12.177 9.338,16.825L1.009,24.383C-0.226,25.498 -0.343,27.429 0.744,28.686L12.076,41.879C12.683,42.582 13.546,42.947 14.417,42.947ZM2.843,26.41L11.211,18.817C11.236,18.795 11.26,18.772 11.282,18.748C15.418,14.407 19.135,11.771 22.981,10.449C27.031,9.049 30.121,9.947 34.033,11.084C34.861,11.324 35.71,11.571 36.599,11.804C40.734,12.881 45.301,12.79 49.333,12.711C50.134,12.694 50.922,12.679 51.691,12.673C52.725,12.653 57.432,12.861 57.536,12.864C58.414,12.864 59.242,13.208 59.868,13.834C60.494,14.46 60.838,15.288 60.838,16.166C60.838,17.992 59.357,19.478 57.536,19.478L36.205,19.478C35.571,19.478 34.874,19.478 34.874,20.532C34.874,20.853 34.874,21.029 34.874,21.397C34.874,22.359 35.988,22.211 36.743,22.211C37.172,22.211 37.066,22.211 37.199,22.211L57.535,22.211C60.864,22.211 63.571,19.5 63.571,16.166C63.571,14.979 63.226,13.845 62.588,12.872L72.36,3.1C73.892,1.57 76.299,1.366 77.841,2.643C78.704,3.357 79.209,4.369 79.262,5.489C79.314,6.598 78.898,7.681 78.121,8.458L56.21,30.368C55.56,31.018 55.19,31.518 54.3,31.392L53.725,31.392C53.72,31.392 53.715,31.392 53.71,31.392L29.629,31.392C28.693,31.392 27.858,31.379 27.119,31.208C26.72,31.115 26.302,31.207 25.979,31.454L14.64,40.138C14.486,40.256 14.27,40.236 14.148,40.095L2.814,26.9C2.687,26.754 2.699,26.54 2.843,26.41Z" transform="rotate(360 41 21.013)" fill="#473D55" stroke="#473D55" stroke-width="0.6" stroke-miterlimit="3.999327"/>
</svg>
