<svg width="16" height="6" viewBox="0 0 16 6" fill="none" xmlns="http://www.w3.org/2000/svg" xmlns:xlink="http://www.w3.org/1999/xlink">
<path d="M1.377,1.192C0.93,0.745 0.207,0.745 -0.24,1.192C-0.686,1.638 -0.686,2.362 -0.24,2.808L1.377,1.192ZM14.711,2.808C15.157,2.362 15.157,1.638 14.711,1.192C14.264,0.745 13.541,0.745 13.094,1.192L14.711,2.808ZM-0.24,2.808C0.826,3.874 3.767,6 7.235,6L7.235,3.714C4.609,3.714 2.216,2.031 1.377,1.192L-0.24,2.808ZM7.235,6C10.704,6 13.645,3.874 14.711,2.808L13.094,1.192C12.255,2.031 9.862,3.714 7.235,3.714L7.235,6Z" fill="#828282"/>
</svg>
