<svg width="82" height="82" viewBox="0 0 82 82" fill="none" xmlns="http://www.w3.org/2000/svg" xmlns:xlink="http://www.w3.org/1999/xlink">
<path d="M39.997,13.099L38.73,13.785C38.982,14.25 39.468,14.54 39.997,14.54C40.526,14.54 41.013,14.25 41.265,13.785L39.997,13.099ZM5.578,35.977L6.472,37.107C6.774,36.869 6.968,36.519 7.01,36.137C7.053,35.755 6.941,35.371 6.7,35.072L5.578,35.977ZM5.571,35.982L4.677,34.852C4.376,35.09 4.182,35.44 4.139,35.822C4.096,36.204 4.208,36.588 4.45,36.887L5.571,35.982ZM39.997,78.65L38.876,79.555C39.149,79.894 39.562,80.091 39.997,80.091C40.433,80.091 40.845,79.894 41.119,79.555L39.997,78.65ZM74.423,35.983L75.545,36.887C75.786,36.588 75.898,36.205 75.855,35.823C75.813,35.44 75.619,35.091 75.318,34.853L74.423,35.983ZM74.416,35.977L73.294,35.072C73.053,35.371 72.941,35.755 72.984,36.137C73.026,36.519 73.22,36.868 73.522,37.107L74.416,35.977ZM80.457,22.962C80.457,10.703 70.52,0.766 58.261,0.766L58.261,3.648C68.928,3.648 77.575,12.295 77.575,22.962L80.457,22.962ZM58.261,0.766C49.819,0.766 42.481,5.481 38.73,12.413L41.265,13.785C44.533,7.745 50.919,3.648 58.261,3.648L58.261,0.766ZM41.265,12.413C37.513,5.481 30.176,0.766 21.733,0.766L21.733,3.648C29.075,3.648 35.462,7.745 38.73,13.785L41.265,12.413ZM21.733,0.766C9.475,0.766 -0.463,10.703 -0.463,22.962L2.42,22.962C2.42,12.295 11.067,3.648 21.733,3.648L21.733,0.766ZM-0.463,22.962C-0.463,28.236 1.386,33.076 4.457,36.882L6.7,35.072C4.025,31.757 2.42,27.55 2.42,22.962L-0.463,22.962ZM4.685,34.846L4.677,34.852L6.465,37.113L6.472,37.107L4.685,34.846ZM4.45,36.887L38.876,79.555L41.119,77.745L6.693,35.077L4.45,36.887ZM41.119,79.555L75.545,36.887L73.302,35.078L38.876,77.745L41.119,79.555ZM75.318,34.853L75.31,34.847L73.522,37.107L73.529,37.113L75.318,34.853ZM75.538,36.882C78.608,33.076 80.457,28.236 80.457,22.962L77.575,22.962C77.575,27.55 75.969,31.757 73.294,35.072L75.538,36.882Z" fill="#F14647"/>
</svg>
