<svg width="62" height="52" viewBox="0 0 62 52" fill="none" xmlns="http://www.w3.org/2000/svg" xmlns:xlink="http://www.w3.org/1999/xlink">
<path d="M60.373,44.666C60.26,45.122 60.164,45.583 60.033,46.034C59.013,49.539 55.837,51.973 52.195,51.986C46.712,52.006 41.228,51.992 35.745,51.991C34.85,51.991 34.3,51.52 34.316,50.785C34.33,50.072 34.865,49.629 35.734,49.629C41.179,49.627 46.622,49.637 52.067,49.624C54.837,49.618 57.208,47.767 57.822,45.178C57.84,45.104 57.848,45.027 57.863,44.926C39.411,44.926 20.98,44.926 2.479,44.926C2.898,46.71 3.875,48.032 5.446,48.909C6.375,49.429 7.383,49.634 8.447,49.632C13.714,49.626 36.785,49.629 42.052,49.629C42.189,49.629 42.328,49.627 42.465,49.629C43.319,49.638 43.859,50.097 43.856,50.814C43.854,51.529 43.315,51.991 42.458,51.991C36.936,51.992 13.61,52.016 8.088,51.981C3.752,51.954 0.094,48.323 0.001,44.033C-0.021,42.99 0.404,42.543 1.436,42.539C2.693,42.535 3.951,42.538 5.304,42.538C5.304,42.294 5.304,42.068 5.304,41.841C5.304,31.995 5.304,22.15 5.304,12.303C5.304,10.972 5.644,10.634 6.982,10.634C9.575,10.634 12.168,10.634 14.856,10.634C14.856,10.408 14.856,10.201 14.856,9.995C14.856,7.159 14.854,4.323 14.856,1.487C14.858,0.402 15.264,0 16.361,0C22.037,0.002 27.717,0.002 33.396,0.003C34.49,0.003 34.898,0.408 34.899,1.494C34.902,2.793 34.899,4.093 34.899,5.393C34.899,5.58 34.899,5.768 34.899,6.042C35.178,5.867 35.377,5.75 35.566,5.623C38.164,3.888 40.765,2.155 43.358,0.413C43.835,0.091 44.308,-0.167 44.883,0.148C45.449,0.458 45.519,0.982 45.518,1.564C45.507,4.558 45.513,7.55 45.513,10.639C45.737,10.639 45.943,10.639 46.148,10.639C48.625,10.639 51.101,10.638 53.576,10.639C54.659,10.641 55.064,11.049 55.064,12.144C55.065,22.009 55.064,31.875 55.064,41.741C55.064,41.977 55.064,42.212 55.064,42.541C55.544,42.541 56.006,42.541 56.467,42.541C57.235,42.541 58.002,42.577 58.766,42.53C59.494,42.484 60.022,42.728 60.37,43.368C60.373,43.8 60.373,44.233 60.373,44.666ZM29.442,30.708C26.686,29.879 25.205,27.88 25.489,25.491C25.761,23.197 27.63,21.406 29.88,21.28C32.183,21.151 34.258,22.684 34.768,24.894C35.071,26.206 34.857,27.437 34.13,28.568C33.402,29.701 32.337,30.361 30.935,30.684C31.127,30.752 31.197,30.791 31.271,30.799C34.942,31.193 38.605,34.544 38.444,39.429C38.411,40.446 38.439,41.465 38.439,42.502C43.221,42.502 47.944,42.502 52.667,42.502C52.667,32.653 52.667,22.843 52.667,13.047C50.262,13.047 47.897,13.047 45.515,13.047C45.515,13.724 45.499,14.354 45.519,14.983C45.537,15.567 45.449,16.09 44.885,16.399C44.311,16.713 43.837,16.454 43.359,16.134C40.75,14.381 38.134,12.637 35.52,10.891C35.347,10.775 35.165,10.669 34.902,10.504C34.902,10.776 34.902,10.965 34.902,11.154C34.902,12.473 34.905,13.793 34.901,15.112C34.898,16.116 34.469,16.542 33.459,16.544C27.742,16.546 22.023,16.546 16.305,16.544C15.27,16.544 14.859,16.117 14.856,15.06C14.854,14.379 14.856,13.7 14.856,13.031C12.414,13.031 10.063,13.031 7.699,13.031C7.699,22.874 7.699,32.686 7.699,42.497C12.458,42.497 17.18,42.497 21.933,42.497C21.933,41.274 21.924,40.094 21.935,38.916C21.968,35.098 24.622,31.796 28.333,30.944C28.665,30.865 29.004,30.799 29.442,30.708ZM17.235,14.151C22.363,14.151 27.424,14.151 32.506,14.151C32.506,10.217 32.506,6.313 32.506,2.404C27.395,2.404 22.321,2.404 17.235,2.404C17.235,6.335 17.235,10.225 17.235,14.151ZM36.07,42.511C36.07,41.208 36.111,39.934 36.062,38.662C35.948,35.793 33.656,33.421 30.748,33.11C27.975,32.814 25.242,34.654 24.54,37.381C24.329,38.204 24.334,39.091 24.296,39.949C24.257,40.803 24.288,41.662 24.288,42.511C28.259,42.511 32.141,42.511 36.07,42.511ZM35.852,8.274C38.324,9.926 40.699,11.509 43.123,13.128C43.123,9.855 43.123,6.683 43.123,3.419C40.687,5.045 38.315,6.63 35.852,8.274ZM30.207,23.635C28.911,23.623 27.838,24.675 27.827,25.972C27.814,27.271 28.865,28.346 30.159,28.359C31.454,28.371 32.528,27.316 32.539,26.021C32.552,24.722 31.501,23.648 30.207,23.635Z" fill="#01008A"/>
</svg>
