<svg width="22" height="22" viewBox="0 0 22 22" fill="none" xmlns="http://www.w3.org/2000/svg" xmlns:xlink="http://www.w3.org/1999/xlink">
<path d="M12.294,2.737C12.294,1.443 11.247,0.396 9.953,0.396C8.659,0.396 7.612,1.443 7.612,2.737L7.612,8.241L2.108,8.241C0.814,8.241 -0.233,9.288 -0.233,10.582C-0.233,11.876 0.814,12.923 2.108,12.923L7.612,12.923L7.612,18.427C7.612,19.72 8.659,20.768 9.953,20.768C11.247,20.768 12.294,19.72 12.294,18.427L12.294,12.923L17.798,12.923C19.092,12.923 20.139,11.876 20.139,10.582C20.139,9.288 19.092,8.241 17.798,8.241L12.294,8.241L12.294,2.737Z" clip-rule="evenodd" fill-rule="evenodd" fill="#8B8AEA"/>
</svg>
