<svg width="38" height="40" viewBox="0 0 38 40" fill="none" xmlns="http://www.w3.org/2000/svg" xmlns:xlink="http://www.w3.org/1999/xlink">
<path d="M12.533,13.991C14.038,12.486 16.103,11.565 18.391,11.565C20.68,11.565 22.745,12.486 24.25,13.991C25.755,15.483 26.675,17.561 26.675,19.849C26.675,22.138 25.755,24.203 24.25,25.708C22.745,27.201 20.68,28.133 18.391,28.133C16.103,28.133 14.038,27.201 12.533,25.708C11.04,24.215 10.107,22.138 10.107,19.849C10.107,17.561 11.04,15.483 12.533,13.991ZM14.324,5.781C13.18,6.117 12.085,6.577 11.077,7.162C10.045,7.759 9.087,8.481 8.229,9.301C8.067,9.463 7.819,9.488 7.62,9.376L3.776,7.15L3.751,7.137C3.527,7.025 3.278,7 3.055,7.063C2.818,7.125 2.607,7.274 2.47,7.51L2.458,7.535L-0.254,12.225C-0.391,12.448 -0.416,12.71 -0.354,12.946C-0.291,13.182 -0.142,13.394 0.094,13.531L0.119,13.543L3.938,15.745C4.137,15.857 4.224,16.093 4.174,16.304C4.037,16.877 3.925,17.449 3.851,18.058C3.776,18.643 3.739,19.24 3.739,19.837C3.739,20.446 3.776,21.043 3.851,21.616C3.925,22.213 4.025,22.797 4.174,23.369C4.236,23.606 4.112,23.842 3.9,23.942L0.082,26.143C-0.142,26.28 -0.304,26.492 -0.366,26.728C-0.428,26.964 -0.403,27.225 -0.267,27.449L2.458,32.164C2.582,32.387 2.806,32.537 3.042,32.611C3.278,32.673 3.54,32.649 3.764,32.512L3.788,32.499L7.607,30.298C7.806,30.186 8.055,30.223 8.217,30.372C9.075,31.193 10.033,31.915 11.065,32.512C12.085,33.096 13.18,33.569 14.336,33.905C14.56,33.967 14.71,34.166 14.71,34.39L14.71,38.831C14.71,39.092 14.821,39.328 14.983,39.502C15.157,39.676 15.394,39.788 15.655,39.788L21.103,39.788C21.364,39.788 21.6,39.676 21.775,39.502C21.949,39.328 22.061,39.092 22.061,38.831L22.061,34.39C22.061,34.154 22.222,33.942 22.446,33.892C23.591,33.557 24.685,33.096 25.693,32.512C26.725,31.915 27.683,31.193 28.541,30.372C28.715,30.211 28.976,30.186 29.175,30.31L32.994,32.512C33.218,32.636 33.479,32.661 33.716,32.611C33.952,32.549 34.163,32.4 34.3,32.164L34.313,32.139L37.024,27.449C37.161,27.225 37.186,26.964 37.124,26.728C37.062,26.492 36.912,26.28 36.676,26.143L32.832,23.929C32.633,23.817 32.546,23.581 32.596,23.369C32.733,22.797 32.845,22.213 32.919,21.616C32.994,21.031 33.031,20.434 33.031,19.837C33.031,19.227 32.994,18.63 32.919,18.058C32.845,17.461 32.745,16.877 32.596,16.304C32.534,16.068 32.658,15.832 32.87,15.732L36.688,13.531C36.912,13.406 37.062,13.195 37.136,12.946C37.198,12.71 37.173,12.448 37.037,12.225L37.024,12.2L34.313,7.51C34.176,7.286 33.964,7.125 33.728,7.063C33.492,7 33.23,7.025 33.007,7.15L29.163,9.376C28.964,9.5 28.703,9.451 28.541,9.289C27.683,8.468 26.738,7.747 25.705,7.15C24.685,6.565 23.591,6.092 22.434,5.756C22.21,5.694 22.061,5.495 22.061,5.271L22.061,0.831C22.061,0.57 21.961,0.333 21.775,0.159C21.6,-0.015 21.364,-0.127 21.103,-0.127L15.655,-0.127C15.394,-0.127 15.157,-0.015 14.983,0.159C14.809,0.333 14.71,0.57 14.71,0.831L14.71,5.271C14.722,5.533 14.548,5.732 14.324,5.781Z" clip-rule="evenodd" fill-rule="evenodd" fill="#8B8AEA"/>
</svg>
