<svg width="44" height="66" viewBox="0 0 44 66" fill="none" xmlns="http://www.w3.org/2000/svg" xmlns:xlink="http://www.w3.org/1999/xlink">
<path d="M26.725,28.797L26.499,4.725L26.499,5.714C26.499,1.173 34.875,-0.049 34.876,6.786L34.954,15.081L35.102,30.859L34.932,12.716C34.931,8.625 42.219,8.487 42.22,13.762L42.224,45.191C42.226,56.543 33.119,65.595 21.767,65.597C10.415,65.599 1.211,56.397 1.21,45.046C1.269,41.086 0.849,34.352 0.848,25.219C3.65,22.415 8.134,26.256 9.681,29.919L9.682,36.222L9.678,6.488C9.677,1.764 18.224,1.412 18.225,7.232L18.225,3.466C18.224,-1.621 26.498,-3.394 26.499,5.714Z" fill="#CFFBFF"/>
</svg>
