<svg width="22" height="12" viewBox="0 0 22 12" fill="none" xmlns="http://www.w3.org/2000/svg" xmlns:xlink="http://www.w3.org/1999/xlink">
<path d="M-0.242,0.047C0.005,-0.2 0.34,-0.339 0.69,-0.339C1.039,-0.339 1.374,-0.2 1.621,0.047L9.914,8.34L18.207,0.047C18.328,-0.079 18.474,-0.179 18.635,-0.248C18.795,-0.318 18.968,-0.354 19.143,-0.355C19.318,-0.357 19.492,-0.324 19.654,-0.257C19.816,-0.191 19.963,-0.093 20.086,0.03C20.21,0.154 20.308,0.301 20.374,0.463C20.44,0.625 20.474,0.799 20.472,0.974C20.471,1.149 20.434,1.322 20.365,1.482C20.296,1.643 20.196,1.789 20.07,1.91L10.846,11.135C10.599,11.382 10.263,11.52 9.914,11.52C9.565,11.52 9.229,11.382 8.982,11.135L-0.242,1.91C-0.489,1.663 -0.628,1.328 -0.628,0.979C-0.628,0.629 -0.489,0.294 -0.242,0.047L-0.242,0.047Z" clip-rule="evenodd" fill-rule="evenodd" fill="#4AC501"/>
</svg>
