<svg width="120" height="88" viewBox="0 0 120 88" fill="none" xmlns="http://www.w3.org/2000/svg" xmlns:xlink="http://www.w3.org/1999/xlink">
<path d="M116.609,3.071C117.992,4.456 118.769,6.334 118.769,8.292C118.769,10.25 117.992,12.127 116.609,13.513L45.19,84.932C43.805,86.315 41.927,87.092 39.969,87.092C38.011,87.092 36.134,86.315 34.748,84.932L2.733,52.916C1.428,51.516 0.717,49.663 0.751,47.749C0.785,45.835 1.56,44.009 2.914,42.655C4.268,41.302 6.094,40.526 8.008,40.493C9.922,40.459 11.774,41.169 13.175,42.474L39.969,69.269L106.167,3.071C107.552,1.687 109.43,0.91 111.388,0.91C113.346,0.91 115.224,1.687 116.609,3.071Z" clip-rule="evenodd" fill-rule="evenodd" fill="#19AF36" stroke="#19AF36" stroke-width="2" stroke-miterlimit="3.999327"/>
</svg>
