<svg width="12" height="14" viewBox="0 0 12 14" fill="none" xmlns="http://www.w3.org/2000/svg" xmlns:xlink="http://www.w3.org/1999/xlink">
<path d="M6.21,11.396L6.015,12.564C6.091,12.576 6.167,12.582 6.244,12.579L6.21,11.396ZM5.864,11.396L5.821,12.579C5.9,12.582 5.98,12.577 6.058,12.564L5.864,11.396ZM10.744,6.698L11.927,6.707L11.927,6.698L10.744,6.698ZM6.404,10.229C6.166,10.189 5.907,10.189 5.669,10.229L6.058,12.564C6.049,12.565 6.043,12.566 6.041,12.566C6.038,12.566 6.037,12.566 6.037,12.566C6.036,12.566 6.035,12.566 6.032,12.566C6.03,12.566 6.024,12.565 6.015,12.564L6.404,10.229ZM5.907,10.213C4.03,10.145 2.531,8.61 2.531,6.698L0.164,6.698C0.164,9.885 2.672,12.465 5.821,12.579L5.907,10.213ZM2.531,6.698C2.531,4.748 4.095,3.184 6.046,3.184L6.046,0.816C2.788,0.816 0.164,3.44 0.164,6.698L2.531,6.698ZM6.046,3.184C7.993,3.184 9.56,4.763 9.56,6.698L11.927,6.698C11.927,3.462 9.306,0.816 6.046,0.816L6.046,3.184ZM9.56,6.69C9.546,8.617 8.036,10.159 6.175,10.213L6.244,12.579C9.409,12.488 11.905,9.878 11.927,6.707L9.56,6.69Z" fill="#01008A"/>
</svg>
