<svg width="18" height="14" viewBox="0 0 18 14" fill="none" xmlns="http://www.w3.org/2000/svg" xmlns:xlink="http://www.w3.org/1999/xlink">
<path d="M2.911,3.132L2.257,2.146L2.254,2.147L2.911,3.132ZM2.911,9.36L3.569,8.376L3.567,8.375L2.911,9.36ZM13.509,9.36L12.852,8.375L12.851,8.376L13.509,9.36ZM13.509,3.132L14.165,2.147L14.165,2.147L13.509,3.132ZM2.254,2.147C0.723,3.168 -0.199,4.632 -0.199,6.246C-0.199,7.861 0.723,9.324 2.254,10.345L3.567,8.375C2.53,7.684 2.168,6.89 2.168,6.246C2.168,5.603 2.53,4.808 3.567,4.117L2.254,2.147ZM2.253,10.344C3.945,11.475 6.108,12.005 8.21,12.005C10.311,12.005 12.475,11.475 14.167,10.344L12.851,8.376C11.629,9.193 9.95,9.638 8.21,9.638C6.469,9.638 4.79,9.193 3.569,8.376L2.253,10.344ZM14.165,10.345C15.696,9.324 16.618,7.861 16.618,6.246C16.618,4.632 15.696,3.168 14.165,2.147L12.852,4.117C13.889,4.808 14.251,5.603 14.251,6.246C14.251,6.89 13.889,7.684 12.852,8.375L14.165,10.345ZM14.165,2.147C12.481,1.025 10.317,0.501 8.216,0.501C6.116,0.501 3.949,1.025 2.257,2.146L3.564,4.119C4.786,3.31 6.47,2.868 8.216,2.868C9.963,2.868 11.641,3.31 12.852,4.117L14.165,2.147Z" fill="#01008A"/>
</svg>
