<svg width="56" height="66" viewBox="0 0 56 66" fill="none" xmlns="http://www.w3.org/2000/svg" xmlns:xlink="http://www.w3.org/1999/xlink">
<path d="M12.247,0C11.22,0 10.34,0.88 10.34,1.907C10.34,1.907 10.34,1.98 10.34,2.2L10.34,9.093L9.68,9.093C4.327,9.093 0,13.493 0,18.847C0,24.2 4.327,28.527 9.68,28.527L10.56,28.527C11.513,34.613 15.84,39.673 21.56,41.653L21.56,45.833L10.707,45.833C9.9,45.833 9.167,46.347 8.873,47.08L5.5,56.247L3.96,56.247C2.86,56.247 2.053,57.127 2.053,58.227L2.053,64.093C1.98,65.12 2.86,66 3.96,66L50.087,66C51.187,66 51.993,65.12 51.993,64.02L51.993,58.153C51.993,57.053 51.113,56.173 50.087,56.173L48.547,56.173L45.1,47.08C44.807,46.347 44.073,45.833 43.267,45.833L32.487,45.833L32.487,41.653C38.207,39.673 42.46,34.687 43.487,28.527L44.367,28.527C49.72,28.527 54.047,24.127 54.047,18.847C54.047,13.493 49.72,9.167 44.367,9.167L43.707,9.167L43.707,2.2C43.707,1.907 43.707,1.833 43.707,1.907C43.633,0.88 42.827,0 41.727,0L12.247,0ZM14.227,3.887L39.82,3.887L39.82,5.94L14.227,5.94L14.227,3.887ZM14.227,9.827L39.82,9.827L39.82,25.96C39.82,33.073 34.173,38.793 27.06,38.793C19.947,38.793 14.227,33.147 14.227,25.96L14.227,9.827L14.227,9.827ZM9.68,12.98L10.34,12.98L10.34,24.64L9.68,24.64C6.453,24.64 3.887,22.073 3.887,18.847C3.887,15.547 6.453,12.98 9.68,12.98ZM43.707,12.98L44.367,12.98C47.593,12.98 50.16,15.547 50.16,18.773C50.16,22 47.593,24.567 44.367,24.567L43.707,24.567L43.707,12.98ZM25.373,42.533C25.96,42.533 26.473,42.607 26.987,42.607C27.5,42.607 28.087,42.607 28.6,42.533L28.6,45.833L25.373,45.833L25.373,42.533ZM12.1,49.72L41.947,49.72L44.367,56.247L9.607,56.247L12.1,49.72ZM5.867,60.133L48.107,60.133L48.107,62.113L5.867,62.113L5.867,60.133Z" fill="#583C10" stroke="#ECBD6C" stroke-width="0.2" stroke-miterlimit="3.999327"/>
</svg>
