<svg width="16" height="16" viewBox="0 0 16 16" fill="none" xmlns="http://www.w3.org/2000/svg" xmlns:xlink="http://www.w3.org/1999/xlink">
<path d="M9.106,1.284C9.106,0.257 8.264,-0.605 7.237,-0.605C6.19,-0.605 5.368,0.237 5.368,1.284L5.368,5.699L0.953,5.699C-0.094,5.699 -0.916,6.541 -0.916,7.568C-0.916,8.595 -0.074,9.458 0.953,9.458L5.368,9.458L5.368,13.873C5.368,14.9 6.21,15.762 7.237,15.762C8.285,15.762 9.106,14.92 9.106,13.873L9.106,9.458L13.522,9.458C14.569,9.458 15.411,8.615 15.411,7.568C15.411,6.541 14.569,5.699 13.522,5.699L9.106,5.699L9.106,1.284Z" clip-rule="evenodd" fill-rule="evenodd" fill="#8B8AEA"/>
</svg>
