<svg width="16" height="14" viewBox="0 0 16 14" fill="none" xmlns="http://www.w3.org/2000/svg" xmlns:xlink="http://www.w3.org/1999/xlink">
<path d="M7.037,11.882L6.768,13.494C6.877,13.512 6.986,13.519 7.096,13.515L7.037,11.882ZM6.623,11.882L6.564,13.515C6.674,13.519 6.783,13.512 6.892,13.494L6.623,11.882ZM12.462,6.261L14.097,6.272L14.097,6.261L12.462,6.261ZM7.306,10.27C6.997,10.219 6.663,10.219 6.354,10.27L6.892,13.494C6.859,13.5 6.84,13.5 6.83,13.5C6.82,13.5 6.801,13.5 6.768,13.494L7.306,10.27ZM6.682,10.249C4.553,10.172 2.854,8.431 2.854,6.261L-0.415,6.261C-0.415,10.191 2.679,13.375 6.564,13.515L6.682,10.249ZM2.854,6.261C2.854,4.047 4.628,2.273 6.841,2.273L6.841,-0.995C2.823,-0.995 -0.415,2.242 -0.415,6.261L2.854,6.261ZM6.841,2.273C9.05,2.273 10.828,4.065 10.828,6.261L14.097,6.261C14.097,2.268 10.863,-0.995 6.841,-0.995L6.841,2.273ZM10.828,6.249C10.813,8.43 9.105,10.172 6.978,10.249L7.096,13.515C10.983,13.374 14.069,10.192 14.097,6.272L10.828,6.249Z" transform="rotate(360 6.841 6.261)" fill="#01008A"/>
</svg>
