<svg width="36" height="36" viewBox="0 0 36 36" fill="none" xmlns="http://www.w3.org/2000/svg" xmlns:xlink="http://www.w3.org/1999/xlink">
<path d="M5.42,26.953C3.265,26.592 1.225,28.045 0.863,30.2C0.501,32.355 1.955,34.395 4.11,34.757L5.42,26.953ZM25.549,27.057L23.354,23.765L23.347,23.77L25.549,27.057ZM25.549,9.016L27.743,5.724L27.736,5.719L25.549,9.016ZM3.924,1.373C1.771,1.751 0.332,3.801 0.709,5.953C1.086,8.105 3.137,9.545 5.289,9.168L3.924,1.373ZM4.11,34.757C12.112,36.1 21.151,34.764 27.751,30.344L23.347,23.77C18.763,26.84 11.871,28.036 5.42,26.953L4.11,34.757ZM27.743,30.349C32.287,27.32 35.084,22.93 35.084,18.036C35.084,13.143 32.287,8.753 27.743,5.724L23.354,12.308C26.248,14.237 27.171,16.389 27.171,18.036C27.171,19.684 26.248,21.836 23.354,23.765L27.743,30.349ZM27.736,5.719C21.088,1.308 11.944,-0.031 3.924,1.373L5.289,9.168C11.723,8.04 18.721,9.233 23.361,12.313L27.736,5.719Z" fill="#01008A"/>
</svg>
