<svg width="14" height="12" viewBox="0 0 14 12" fill="none" xmlns="http://www.w3.org/2000/svg" xmlns:xlink="http://www.w3.org/1999/xlink">
<path d="M3.719,1.063C2.55,1.063 1.313,2.081 1.313,3.688C1.313,5.568 2.695,7.313 4.257,8.659C5.018,9.316 5.783,9.844 6.359,10.208C6.619,10.372 6.838,10.502 7,10.594C7.162,10.502 7.381,10.372 7.641,10.208C8.217,9.844 8.982,9.316 9.743,8.659C11.305,7.313 12.688,5.568 12.688,3.688C12.688,2.081 11.45,1.063 10.281,1.063C9.08,1.063 7.999,1.925 7.631,3.212C7.55,3.493 7.293,3.688 7,3.688C6.707,3.688 6.45,3.493 6.369,3.212C6.001,1.925 4.92,1.063 3.719,1.063ZM7,11.344C6.699,11.927 6.698,11.927 6.698,11.926L6.696,11.925L6.691,11.923L6.675,11.914C6.661,11.907 6.642,11.897 6.617,11.883C6.567,11.856 6.495,11.817 6.404,11.765C6.222,11.662 5.966,11.512 5.658,11.317C5.045,10.93 4.224,10.364 3.4,9.653C1.789,8.265 0,6.182 0,3.688C0,1.356 1.825,-0.25 3.719,-0.25C5.073,-0.25 6.259,0.451 7,1.517C7.741,0.451 8.927,-0.25 10.281,-0.25C12.175,-0.25 14,1.356 14,3.688C14,6.182 12.211,8.265 10.6,9.653C9.776,10.364 8.955,10.93 8.342,11.317C8.034,11.512 7.778,11.662 7.596,11.765C7.505,11.817 7.433,11.856 7.383,11.883C7.358,11.897 7.339,11.907 7.325,11.914L7.309,11.923L7.304,11.925L7.302,11.926C7.302,11.927 7.301,11.927 7,11.344ZM7,11.344L7.302,11.926C7.113,12.024 6.887,12.024 6.698,11.926L7,11.344Z" clip-rule="evenodd" fill-rule="evenodd" fill="#01008A" stroke="#01008A" stroke-width="0.175" stroke-miterlimit="3.999327"/>
</svg>
