<svg width="28" height="28" viewBox="0 0 28 28" fill="none" xmlns="http://www.w3.org/2000/svg" xmlns:xlink="http://www.w3.org/1999/xlink">
<path d="M0.577,0.602C0.947,0.233 1.448,0.025 1.971,0.025C2.494,0.025 2.996,0.233 3.365,0.602L13.802,11.039L24.238,0.602C24.42,0.414 24.637,0.264 24.878,0.161C25.119,0.057 25.377,0.003 25.639,0.001C25.901,-0.002 26.161,0.048 26.403,0.147C26.645,0.246 26.865,0.393 27.05,0.578C27.236,0.763 27.382,0.983 27.481,1.226C27.58,1.468 27.63,1.728 27.628,1.989C27.626,2.251 27.571,2.51 27.468,2.75C27.365,2.991 27.214,3.209 27.026,3.39L16.59,13.827L27.026,24.263C27.385,24.635 27.584,25.133 27.579,25.65C27.575,26.167 27.368,26.661 27.002,27.027C26.636,27.393 26.142,27.6 25.625,27.604C25.108,27.609 24.61,27.41 24.238,27.051L13.802,16.615L3.365,27.051C2.993,27.41 2.495,27.609 1.978,27.604C1.461,27.6 0.967,27.393 0.601,27.027C0.236,26.661 0.028,26.167 0.024,25.65C0.019,25.133 0.218,24.635 0.577,24.263L11.014,13.827L0.577,3.39C0.208,3.021 0,2.519 0,1.996C0,1.474 0.208,0.972 0.577,0.602L0.577,0.602Z" clip-rule="evenodd" fill-rule="evenodd" fill="#FFFFFF" stroke="#FFFFFF" stroke-width="0.468" stroke-miterlimit="3.999327"/>
</svg>
