<svg width="12" height="14" viewBox="0 0 12 14" fill="none" xmlns="http://www.w3.org/2000/svg" xmlns:xlink="http://www.w3.org/1999/xlink">
<path d="M7.248,2.357C7.248,1.574 6.614,0.939 5.83,0.939C5.047,0.939 4.412,1.574 4.412,2.357L4.412,5.703L1.066,5.703C0.283,5.703 -0.351,6.338 -0.351,7.121C-0.351,7.905 0.283,8.539 1.066,8.539L4.412,8.539L4.412,11.873C4.412,12.657 5.047,13.291 5.83,13.291C6.614,13.291 7.248,12.657 7.248,11.873L7.248,8.539L10.582,8.539C11.366,8.539 12,7.905 12,7.121C12,6.338 11.366,5.703 10.582,5.703L7.248,5.703L7.248,2.357Z" clip-rule="evenodd" fill-rule="evenodd" fill="#8B8AEA"/>
</svg>
