<svg width="30" height="34" viewBox="0 0 30 34" fill="none" xmlns="http://www.w3.org/2000/svg" xmlns:xlink="http://www.w3.org/1999/xlink">
<g opacity="0.4">
<path d="M0,4.886C0,2.656 1.808,0.848 4.038,0.848L9.808,0.848C10.764,0.848 11.538,1.623 11.538,2.578C11.538,3.534 10.764,4.309 9.808,4.309L4.038,4.309C3.72,4.309 3.462,4.567 3.462,4.886L3.462,29.117C3.462,29.436 3.72,29.694 4.038,29.694L9.808,29.694C10.764,29.694 11.538,30.469 11.538,31.425C11.538,32.38 10.764,33.155 9.808,33.155L4.038,33.155C1.808,33.155 0,31.347 0,29.117L0,4.886ZM15.14,15.271L19.685,10.725C20.361,10.049 20.361,8.954 19.685,8.278C19.009,7.602 17.914,7.602 17.238,8.278L9.738,15.778C9.062,16.454 9.062,17.549 9.738,18.225L17.238,25.725C17.914,26.401 19.009,26.401 19.685,25.725C20.361,25.049 20.361,23.954 19.685,23.278L15.14,18.732L28.269,18.732C29.225,18.732 30,17.957 30,17.001C30,16.046 29.225,15.271 28.269,15.271L15.14,15.271Z" clip-rule="evenodd" fill-rule="evenodd" fill="#FFFFFF" fill-opacity="0.78"/>
</g>
</svg>
