<svg width="326" height="310" viewBox="0 0 326 310" fill="none" xmlns="http://www.w3.org/2000/svg" xmlns:xlink="http://www.w3.org/1999/xlink">
<g opacity="0.12">
<path d="M5.571,30.829C22.382,-16.998 103.599,4.315 103.599,4.315C103.599,4.315 153.227,93.83 169.34,97.058C185.453,100.287 141.856,12.24 141.856,12.24C173.593,11.51 251.061,56.054 251.061,56.054C251.061,56.054 238.643,155.309 255.059,154.471C271.475,153.633 261.571,66.028 261.571,66.028C291.399,77.422 317.245,115.096 317.245,115.096C348.563,175.66 269.169,212.744 269.169,212.744C269.169,212.744 265.607,247.238 284.041,288.452C284.041,288.452 288.317,296.128 292.299,308.926L283.987,308.314C283.475,306.032 282.885,303.828 282.209,301.692C282.209,301.678 282.209,301.662 282.193,301.654C282.185,301.622 282.171,301.592 282.163,301.56C281.689,300.234 281.005,298.348 280.145,296.042L280.145,296.034C280.145,296.026 280.137,296.026 280.137,296.026C277.963,290.866 276.519,287.07 275.627,284.338C275.627,284.33 275.619,284.322 275.619,284.314C269.153,268.148 259.693,246.996 252.691,242.192C252.691,242.192 253.709,240.966 254.749,238.506C254.089,239.678 253.405,240.904 252.691,242.192C236.213,271.64 164.675,271.484 125.627,260.432C86.578,249.38 104.686,239.468 127.365,222.89C150.052,206.31 194.425,214.39 208.171,208.244C221.909,202.096 203.119,193.558 176.535,193.651C149.951,193.737 134.793,219.194 91.794,220.118C48.795,221.042 22.18,138.335 22.18,138.335C50.991,149.651 105.051,137.279 107.829,127.267C110.608,117.246 32.255,112.504 20.279,108.553C8.318,104.626 -11.233,78.656 5.571,30.829Z" fill="#8584FF"/>
</g>
</svg>
