<svg width="24" height="24" viewBox="0 0 24 24" fill="none" xmlns="http://www.w3.org/2000/svg" xmlns:xlink="http://www.w3.org/1999/xlink">
<path d="M12,0C12.415,0 12.813,0.165 13.107,0.458C13.4,0.752 13.565,1.15 13.565,1.565L13.565,10.435L22.435,10.435C22.85,10.435 23.248,10.6 23.541,10.893C23.835,11.187 24,11.585 24,12C24,12.415 23.835,12.813 23.541,13.107C23.248,13.4 22.85,13.565 22.435,13.565L13.565,13.565L13.565,22.435C13.565,22.85 13.4,23.248 13.107,23.541C12.813,23.835 12.415,24 12,24C11.585,24 11.187,23.835 10.893,23.541C10.6,23.248 10.435,22.85 10.435,22.435L10.435,13.565L1.565,13.565C1.15,13.565 0.752,13.4 0.458,13.107C0.165,12.813 0,12.415 0,12C0,11.585 0.165,11.187 0.458,10.893C0.752,10.6 1.15,10.435 1.565,10.435L10.435,10.435L10.435,1.565C10.435,1.15 10.6,0.752 10.893,0.458C11.187,0.165 11.585,0 12,0Z" clip-rule="evenodd" fill-rule="evenodd" fill="#01008A"/>
</svg>
