<svg width="38" height="40" viewBox="0 0 38 40" fill="none" xmlns="http://www.w3.org/2000/svg" xmlns:xlink="http://www.w3.org/1999/xlink">
<path d="M12.919,13.528C14.412,12.035 16.489,11.102 18.778,11.102C21.066,11.102 23.131,12.023 24.636,13.528C26.129,15.021 27.062,17.098 27.062,19.386C27.062,21.675 26.129,23.74 24.636,25.233C23.144,26.725 21.066,27.658 18.778,27.658C16.489,27.658 14.424,26.725 12.919,25.233C11.427,23.74 10.494,21.663 10.494,19.386C10.494,17.098 11.427,15.021 12.919,13.528ZM14.71,5.318C13.566,5.654 12.471,6.115 11.464,6.699C10.431,7.296 9.474,8.018 8.615,8.839C8.454,9 8.205,9.025 8.006,8.913L4.162,6.687L4.138,6.674C3.914,6.562 3.665,6.537 3.441,6.6C3.205,6.662 2.993,6.811 2.856,7.035L2.844,7.06L0.132,11.749C0.008,11.973 -0.029,12.234 0.045,12.471C0.107,12.707 0.257,12.918 0.493,13.055L0.518,13.068L4.337,15.269C4.536,15.381 4.623,15.618 4.573,15.829C4.436,16.401 4.324,16.986 4.249,17.583C4.175,18.168 4.138,18.765 4.138,19.362C4.138,19.971 4.175,20.556 4.249,21.14C4.324,21.737 4.436,22.322 4.573,22.894C4.635,23.131 4.511,23.367 4.299,23.466L0.481,25.668C0.257,25.805 0.107,26.016 0.033,26.253C-0.029,26.489 -0.005,26.75 0.12,26.974L2.844,31.688C2.968,31.912 3.192,32.061 3.428,32.136C3.665,32.198 3.926,32.173 4.15,32.037L4.175,32.024L7.993,29.822C8.192,29.711 8.441,29.748 8.603,29.897C9.461,30.718 10.419,31.44 11.451,32.037C12.471,32.621 13.566,33.094 14.723,33.43C14.947,33.492 15.096,33.703 15.096,33.927L15.096,38.368C15.096,38.629 15.208,38.865 15.382,39.039C15.556,39.214 15.792,39.313 16.054,39.313L21.502,39.313C21.763,39.313 21.999,39.201 22.173,39.039C22.348,38.865 22.459,38.629 22.459,38.368L22.459,33.927C22.459,33.691 22.621,33.492 22.845,33.43C23.989,33.094 25.084,32.634 26.092,32.049C27.124,31.452 28.082,30.731 28.94,29.91C29.114,29.748 29.375,29.723 29.574,29.847L33.393,32.049C33.617,32.173 33.878,32.198 34.114,32.136C34.351,32.074 34.562,31.925 34.687,31.688L34.699,31.663L37.411,26.974C37.535,26.75 37.572,26.489 37.498,26.253C37.436,26.016 37.286,25.805 37.062,25.668L33.219,23.454C33.02,23.342 32.933,23.106 32.983,22.894C33.119,22.322 33.231,21.737 33.306,21.14C33.381,20.556 33.418,19.959 33.418,19.362C33.418,18.752 33.381,18.155 33.306,17.57C33.231,16.973 33.132,16.389 32.983,15.817C32.92,15.58 33.045,15.344 33.256,15.244L37.075,13.043C37.299,12.918 37.448,12.695 37.51,12.458C37.572,12.222 37.547,11.961 37.423,11.737L37.411,11.712L34.699,7.023C34.562,6.799 34.351,6.649 34.114,6.587C33.878,6.525 33.617,6.55 33.393,6.674L29.549,8.901C29.35,9.013 29.089,8.975 28.928,8.814C28.069,7.993 27.124,7.271 26.092,6.674C25.072,6.09 23.977,5.617 22.833,5.281C22.609,5.219 22.459,5.008 22.459,4.796L22.459,0.355C22.459,0.094 22.348,-0.142 22.173,-0.316C21.999,-0.49 21.763,-0.59 21.502,-0.59L16.054,-0.59C15.792,-0.59 15.556,-0.478 15.382,-0.316C15.208,-0.142 15.096,0.094 15.096,0.355L15.096,4.796C15.096,5.07 14.934,5.269 14.71,5.318Z" clip-rule="evenodd" fill-rule="evenodd" fill="#8B8AEA"/>
</svg>
