<svg width="32" height="32" viewBox="0 0 32 32" fill="none" xmlns="http://www.w3.org/2000/svg" xmlns:xlink="http://www.w3.org/1999/xlink">
<path d="M0.777,-0.153C1.274,-0.65 1.949,-0.929 2.653,-0.929C3.357,-0.929 4.031,-0.65 4.529,-0.153L15.929,11.247L27.329,-0.153C27.572,-0.414 27.866,-0.623 28.191,-0.768C28.517,-0.913 28.869,-0.991 29.225,-0.998C29.582,-1.004 29.936,-0.938 30.266,-0.805C30.597,-0.671 30.897,-0.472 31.149,-0.22C31.402,0.032 31.6,0.332 31.734,0.663C31.867,0.993 31.933,1.348 31.927,1.704C31.92,2.061 31.842,2.412 31.697,2.738C31.552,3.064 31.343,3.357 31.082,3.6L19.682,15L31.082,26.4C31.343,26.643 31.552,26.936 31.697,27.262C31.842,27.588 31.92,27.939 31.927,28.296C31.933,28.652 31.867,29.006 31.734,29.337C31.6,29.668 31.402,29.968 31.149,30.22C30.897,30.472 30.597,30.671 30.266,30.804C29.936,30.938 29.582,31.004 29.225,30.997C28.869,30.991 28.517,30.913 28.191,30.768C27.866,30.623 27.572,30.413 27.329,30.153L15.929,18.753L4.529,30.153C4.026,30.622 3.36,30.877 2.672,30.865C1.984,30.852 1.328,30.574 0.842,30.087C0.355,29.601 0.076,28.945 0.064,28.257C0.052,27.569 0.308,26.903 0.777,26.4L12.176,15L0.777,3.6C0.279,3.102 0,2.427 0,1.723C0,1.02 0.279,0.345 0.777,-0.153Z" clip-rule="evenodd" fill-rule="evenodd" fill="#000000"/>
</svg>
