<svg width="34" height="34" viewBox="0 0 34 34" fill="none" xmlns="http://www.w3.org/2000/svg" xmlns:xlink="http://www.w3.org/1999/xlink">
<path d="M0.803,0.873C1.317,0.36 2.015,0.071 2.742,0.071C3.469,0.071 4.167,0.36 4.681,0.873L16.464,12.656L28.247,0.873C28.498,0.604 28.801,0.388 29.138,0.238C29.474,0.088 29.838,0.007 30.206,0C30.574,-0.006 30.94,0.062 31.282,0.2C31.624,0.338 31.934,0.543 32.195,0.804C32.456,1.064 32.661,1.375 32.799,1.717C32.937,2.058 33.005,2.424 32.998,2.793C32.992,3.161 32.911,3.525 32.761,3.861C32.611,4.198 32.395,4.501 32.125,4.752L20.343,16.535L32.125,28.317C32.395,28.569 32.611,28.872 32.761,29.208C32.911,29.545 32.992,29.908 32.998,30.277C33.005,30.645 32.937,31.011 32.799,31.353C32.661,31.695 32.456,32.005 32.195,32.266C31.934,32.527 31.624,32.732 31.282,32.87C30.94,33.008 30.574,33.076 30.206,33.069C29.838,33.063 29.474,32.982 29.138,32.832C28.801,32.682 28.498,32.466 28.247,32.196L16.464,20.414L4.681,32.196C4.161,32.681 3.473,32.945 2.762,32.932C2.051,32.92 1.373,32.632 0.87,32.129C0.367,31.626 0.079,30.948 0.066,30.237C0.054,29.526 0.318,28.838 0.803,28.317L12.585,16.535L0.803,4.752C0.289,4.238 0,3.54 0,2.813C0,2.086 0.289,1.388 0.803,0.873Z" clip-rule="evenodd" fill-rule="evenodd" fill="#939393"/>
</svg>
