<svg width="12" height="14" viewBox="0 0 12 14" fill="none" xmlns="http://www.w3.org/2000/svg" xmlns:xlink="http://www.w3.org/1999/xlink">
<path d="M6.762,1.56C6.762,0.776 6.127,0.142 5.344,0.142C4.56,0.142 3.926,0.776 3.926,1.56L3.926,4.893L0.592,4.893C-0.191,4.893 -0.826,5.528 -0.826,6.311C-0.826,7.095 -0.191,7.729 0.592,7.729L3.926,7.729L3.926,11.063C3.926,11.846 4.56,12.481 5.344,12.481C6.127,12.481 6.762,11.846 6.762,11.063L6.762,7.729L10.108,7.729C10.891,7.729 11.526,7.095 11.526,6.311C11.526,5.528 10.891,4.893 10.108,4.893L6.762,4.893L6.762,1.56Z" clip-rule="evenodd" fill-rule="evenodd" fill="#8B8AEA"/>
</svg>
