<svg width="8" height="6" viewBox="0 0 8 6" fill="none" xmlns="http://www.w3.org/2000/svg" xmlns:xlink="http://www.w3.org/1999/xlink">
<path d="M3.6,4.687L3.487,5.366C3.532,5.373 3.579,5.376 3.625,5.375L3.6,4.687ZM3.426,4.687L3.401,5.375C3.447,5.376 3.493,5.373 3.539,5.366L3.426,4.687ZM5.884,2.32L6.572,2.325L6.572,2.32L5.884,2.32ZM3.713,4.008C3.583,3.987 3.442,3.987 3.313,4.008L3.539,5.366C3.525,5.368 3.517,5.368 3.513,5.368C3.509,5.368 3.5,5.368 3.487,5.366L3.713,4.008ZM3.451,3.999C2.554,3.967 1.838,3.234 1.838,2.32L0.462,2.32C0.462,3.975 1.765,5.315 3.401,5.375L3.451,3.999ZM1.838,2.32C1.838,1.388 2.585,0.641 3.517,0.641L3.517,-0.735C1.825,-0.735 0.462,0.628 0.462,2.32L1.838,2.32ZM3.517,0.641C4.448,0.641 5.196,1.396 5.196,2.32L6.572,2.32C6.572,0.639 5.211,-0.735 3.517,-0.735L3.517,0.641ZM5.196,2.315C5.19,3.234 4.471,3.967 3.575,3.999L3.625,5.375C5.262,5.315 6.561,3.975 6.572,2.325L5.196,2.315Z" fill="#01008A"/>
</svg>
