<svg width="64" height="66" viewBox="0 0 64 66" fill="none" xmlns="http://www.w3.org/2000/svg" xmlns:xlink="http://www.w3.org/1999/xlink">
<path d="M21.454,22.927C23.939,20.442 27.348,18.923 31.127,18.923C34.906,18.923 38.315,20.442 40.8,22.927C43.285,25.392 44.804,28.821 44.804,32.6C44.804,36.379 43.285,39.788 40.8,42.273C38.315,44.737 34.906,46.278 31.127,46.278C27.348,46.278 23.939,44.737 21.454,42.273C18.99,39.808 17.45,36.379 17.45,32.6C17.45,28.821 18.99,25.392 21.454,22.927ZM24.412,9.373C22.522,9.928 20.715,10.687 19.052,11.653C17.347,12.638 15.766,13.83 14.349,15.185C14.082,15.452 13.671,15.493 13.342,15.308L6.996,11.632L6.955,11.612C6.586,11.427 6.175,11.386 5.805,11.488C5.415,11.591 5.066,11.837 4.84,12.228L4.82,12.269L0.343,20.011C0.117,20.381 0.076,20.812 0.178,21.202C0.281,21.592 0.527,21.942 0.918,22.167L0.959,22.188L7.263,25.823C7.592,26.008 7.736,26.398 7.654,26.747C7.428,27.692 7.243,28.637 7.12,29.643C6.996,30.608 6.935,31.594 6.935,32.58C6.935,33.586 6.996,34.572 7.12,35.516C7.243,36.502 7.407,37.467 7.654,38.412C7.756,38.802 7.551,39.192 7.202,39.357L0.897,42.992C0.527,43.218 0.26,43.567 0.158,43.957C0.055,44.347 0.096,44.778 0.322,45.148L4.82,52.931C5.025,53.301 5.395,53.547 5.785,53.671C6.175,53.773 6.606,53.732 6.976,53.506L7.017,53.486L13.322,49.851C13.65,49.666 14.061,49.728 14.328,49.974C15.745,51.33 17.326,52.521 19.031,53.506C20.715,54.472 22.522,55.252 24.432,55.807C24.802,55.909 25.048,56.238 25.048,56.607L25.048,63.939C25.048,64.37 25.233,64.761 25.5,65.048C25.787,65.336 26.178,65.52 26.609,65.52L35.604,65.52C36.035,65.52 36.425,65.336 36.713,65.048C37,64.761 37.185,64.37 37.185,63.939L37.185,56.607C37.185,56.217 37.452,55.868 37.822,55.786C39.711,55.231 41.519,54.472 43.182,53.506C44.887,52.521 46.468,51.33 47.885,49.974C48.172,49.707 48.604,49.666 48.932,49.871L55.237,53.506C55.607,53.712 56.038,53.753 56.428,53.671C56.818,53.568 57.168,53.322 57.393,52.931L57.414,52.89L61.891,45.148C62.117,44.778 62.158,44.347 62.055,43.957C61.953,43.567 61.706,43.218 61.316,42.992L54.97,39.336C54.641,39.151 54.498,38.761 54.58,38.412C54.806,37.467 54.991,36.502 55.114,35.516C55.237,34.551 55.299,33.565 55.299,32.58C55.299,31.573 55.237,30.587 55.114,29.643C54.991,28.657 54.826,27.692 54.58,26.747C54.477,26.357 54.683,25.967 55.032,25.802L61.336,22.167C61.706,21.962 61.953,21.613 62.076,21.202C62.178,20.812 62.137,20.381 61.911,20.011L61.891,19.97L57.414,12.228C57.188,11.858 56.839,11.591 56.449,11.488C56.058,11.386 55.627,11.427 55.258,11.632L48.912,15.308C48.583,15.514 48.152,15.431 47.885,15.164C46.468,13.809 44.907,12.618 43.203,11.632C41.519,10.667 39.711,9.887 37.801,9.332C37.432,9.229 37.185,8.901 37.185,8.531L37.185,1.199C37.185,0.768 37.021,0.378 36.713,0.091C36.425,-0.197 36.035,-0.382 35.604,-0.382L26.609,-0.382C26.178,-0.382 25.787,-0.197 25.5,0.091C25.212,0.378 25.048,0.768 25.048,1.199L25.048,8.531C25.069,8.962 24.781,9.291 24.412,9.373Z" clip-rule="evenodd" fill-rule="evenodd" fill="#8B8AEA"/>
</svg>
