<svg width="32" height="32" viewBox="0 0 32 32" fill="none" xmlns="http://www.w3.org/2000/svg" xmlns:xlink="http://www.w3.org/1999/xlink">
<path d="M0.777,0.845C1.274,0.348 1.949,0.069 2.653,0.069C3.357,0.069 4.031,0.348 4.529,0.845L15.929,12.245L27.329,0.845C27.572,0.584 27.866,0.375 28.191,0.23C28.517,0.085 28.869,0.007 29.225,0C29.582,-0.006 29.936,0.06 30.266,0.193C30.597,0.327 30.897,0.526 31.149,0.778C31.402,1.03 31.6,1.33 31.734,1.661C31.867,1.991 31.933,2.346 31.927,2.702C31.92,3.059 31.842,3.41 31.697,3.736C31.552,4.062 31.343,4.355 31.082,4.598L19.682,15.998L31.082,27.398C31.343,27.641 31.552,27.934 31.697,28.26C31.842,28.586 31.92,28.937 31.927,29.294C31.933,29.65 31.867,30.004 31.734,30.335C31.6,30.666 31.402,30.966 31.149,31.218C30.897,31.47 30.597,31.669 30.266,31.802C29.936,31.936 29.582,32.002 29.225,31.995C28.869,31.989 28.517,31.911 28.191,31.766C27.866,31.621 27.572,31.411 27.329,31.151L15.929,19.751L4.529,31.151C4.026,31.62 3.36,31.875 2.672,31.863C1.984,31.85 1.328,31.572 0.842,31.085C0.355,30.599 0.076,29.943 0.064,29.255C0.052,28.567 0.308,27.901 0.777,27.398L12.176,15.998L0.777,4.598C0.279,4.1 0,3.425 0,2.721C0,2.018 0.279,1.343 0.777,0.845Z" clip-rule="evenodd" fill-rule="evenodd" fill="#000000"/>
</svg>
