<svg width="14" height="24" viewBox="0 0 14 24" fill="none" xmlns="http://www.w3.org/2000/svg" xmlns:xlink="http://www.w3.org/1999/xlink">
<path d="M13.098,0.393C13.378,0.673 13.535,1.052 13.535,1.447C13.535,1.843 13.378,2.222 13.098,2.501L3.718,11.882L13.098,21.262C13.37,21.543 13.52,21.92 13.517,22.311C13.513,22.702 13.356,23.075 13.08,23.352C12.804,23.628 12.43,23.785 12.039,23.788C11.648,23.792 11.272,23.642 10.99,23.37L0.556,12.936C0.277,12.656 0.12,12.277 0.12,11.882C0.12,11.486 0.277,11.107 0.556,10.828L10.99,0.393C11.27,0.114 11.649,-0.043 12.044,-0.043C12.44,-0.043 12.819,0.114 13.098,0.393L13.098,0.393Z" clip-rule="evenodd" fill-rule="evenodd" fill="#000000"/>
</svg>
