<svg width="14" height="14" viewBox="0 0 14 14" fill="none" xmlns="http://www.w3.org/2000/svg" xmlns:xlink="http://www.w3.org/1999/xlink">
<path d="M7.94,1.242C7.94,0.459 7.306,-0.176 6.522,-0.176C5.739,-0.176 5.104,0.459 5.104,1.242L5.104,4.588L1.771,4.588C0.987,4.588 0.353,5.223 0.353,6.006C0.353,6.79 0.987,7.424 1.771,7.424L5.104,7.424L5.104,10.758C5.104,11.541 5.739,12.176 6.522,12.176C7.306,12.176 7.94,11.541 7.94,10.758L7.94,7.424L11.274,7.424C12.057,7.424 12.692,6.79 12.692,6.006C12.692,5.223 12.057,4.588 11.274,4.588L7.94,4.588L7.94,1.242Z" clip-rule="evenodd" fill-rule="evenodd" fill="#8B8AEA"/>
</svg>
