<svg width="30" height="34" viewBox="0 0 30 34" fill="none" xmlns="http://www.w3.org/2000/svg" xmlns:xlink="http://www.w3.org/1999/xlink">
<g opacity="0.4">
<path d="M0,4.038C0,1.808 1.808,0 4.038,0L9.808,0C10.764,0 11.538,0.775 11.538,1.731C11.538,2.687 10.764,3.462 9.808,3.462L4.038,3.462C3.72,3.462 3.462,3.72 3.462,4.038L3.462,28.269C3.462,28.588 3.72,28.846 4.038,28.846L9.808,28.846C10.764,28.846 11.538,29.621 11.538,30.577C11.538,31.533 10.764,32.308 9.808,32.308L4.038,32.308C1.808,32.308 0,30.5 0,28.269L0,4.038ZM15.14,14.423L19.685,9.878C20.361,9.202 20.361,8.106 19.685,7.43C19.009,6.754 17.914,6.754 17.238,7.43L9.738,14.93C9.062,15.606 9.062,16.702 9.738,17.378L17.238,24.878C17.914,25.554 19.009,25.554 19.685,24.878C20.361,24.202 20.361,23.106 19.685,22.43L15.14,17.885L28.269,17.885C29.225,17.885 30,17.11 30,16.154C30,15.198 29.225,14.423 28.269,14.423L15.14,14.423Z" clip-rule="evenodd" fill-rule="evenodd" fill="#01008A"/>
</g>
</svg>
