<svg width="14" height="14" viewBox="0 0 14 14" fill="none" xmlns="http://www.w3.org/2000/svg" xmlns:xlink="http://www.w3.org/1999/xlink">
<path d="M7.404,1.949C7.404,1.166 6.769,0.531 5.986,0.531C5.202,0.531 4.568,1.166 4.568,1.949L4.568,5.283L1.234,5.283C0.451,5.283 -0.184,5.917 -0.184,6.701C-0.184,7.484 0.451,8.119 1.234,8.119L4.568,8.119L4.568,11.452C4.568,12.236 5.202,12.87 5.986,12.87C6.769,12.87 7.404,12.236 7.404,11.452L7.404,8.119L10.737,8.119C11.521,8.119 12.155,7.484 12.155,6.701C12.155,5.917 11.521,5.283 10.737,5.283L7.404,5.283L7.404,1.949Z" clip-rule="evenodd" fill-rule="evenodd" fill="#8B8AEA"/>
</svg>
