<svg width="56" height="86" viewBox="0 0 56 86" fill="none" xmlns="http://www.w3.org/2000/svg" xmlns:xlink="http://www.w3.org/1999/xlink">
<path d="M27.479,0C26.446,0 25.609,0.837 25.609,1.87L25.609,9.348C25.609,10.38 26.446,11.217 27.479,11.217C28.511,11.217 29.348,10.38 29.348,9.348L29.348,1.87C29.348,0.837 28.511,0 27.479,0ZM1.042,10.954C0.563,10.954 0.092,11.144 -0.273,11.51C-1.003,12.24 -1.003,13.408 -0.273,14.139L5.015,19.426C5.744,20.156 6.914,20.156 7.644,19.426C8.374,18.696 8.374,17.527 7.644,16.797L2.356,11.51C1.991,11.144 1.52,10.954 1.042,10.954ZM53.915,10.954C53.437,10.954 52.966,11.144 52.601,11.51L47.313,16.797C46.583,17.527 46.583,18.696 47.313,19.426C48.043,20.156 49.213,20.156 49.942,19.426L55.23,14.139C55.96,13.408 55.96,12.24 55.23,11.51C54.865,11.144 54.394,10.954 53.915,10.954ZM27.479,14.957C15.112,14.957 3.174,24.571 3.174,38.18C3.174,46.762 6.515,52.216 9.601,56.584C12.687,60.951 15.326,64.159 15.326,69.174L15.326,80.391C15.326,83.564 17.957,86 20.935,86L21.87,86C23.346,86 24.404,86 27.479,86C30.553,86 32.644,86 33.087,86L34.022,86C37,86 39.631,83.564 39.631,80.391L39.631,69.174C39.631,64.159 42.27,60.951 45.356,56.584C48.442,52.216 51.783,46.762 51.783,38.18C51.783,24.571 39.845,14.957 27.479,14.957ZM27.479,18.696C37.911,18.696 48.044,26.77 48.044,38.18C48.044,45.829 45.308,50.191 42.318,54.422C39.633,58.221 36.602,61.982 36.008,67.304L18.949,67.304C18.355,61.982 15.324,58.221 12.639,54.422C9.649,50.191 6.913,45.829 6.913,38.18C6.913,26.77 17.046,18.696 27.479,18.696ZM19.066,72L35.892,72L35.892,80.391C35.892,81.515 34.99,82.261 34.022,82.261L20.935,82.261C19.967,82.261 19.066,81.515 19.066,80.391L19.066,72Z" fill="#583C10" stroke="#583C10" stroke-width="0.43" stroke-miterlimit="3.999327"/>
</svg>
