<svg width="64" height="66" viewBox="0 0 64 66" fill="none" xmlns="http://www.w3.org/2000/svg" xmlns:xlink="http://www.w3.org/1999/xlink">
<path d="M21.705,23.043C24.19,20.579 27.599,19.039 31.378,19.039C35.157,19.039 38.566,20.579 41.051,23.043C43.515,25.508 45.055,28.937 45.055,32.716C45.055,36.495 43.515,39.904 41.051,42.389C38.566,44.853 35.157,46.394 31.378,46.394C27.599,46.394 24.19,44.853 21.705,42.389C19.241,39.925 17.701,36.495 17.701,32.716C17.701,28.937 19.22,25.528 21.705,23.043ZM24.642,9.51C22.753,10.064 20.945,10.824 19.282,11.789C17.577,12.775 15.996,13.966 14.579,15.342C14.312,15.609 13.901,15.65 13.573,15.465L7.227,11.789L7.186,11.769C6.816,11.563 6.405,11.543 6.036,11.646C5.646,11.748 5.296,11.995 5.071,12.385L5.05,12.426L0.594,20.168C0.368,20.538 0.327,20.969 0.429,21.359C0.532,21.75 0.799,22.099 1.169,22.325L1.21,22.345L7.514,25.98C7.843,26.165 7.987,26.555 7.905,26.904C7.679,27.849 7.494,28.814 7.371,29.8C7.268,30.765 7.206,31.751 7.206,32.737C7.206,33.743 7.268,34.708 7.371,35.673C7.494,36.659 7.679,37.624 7.905,38.569C7.987,38.959 7.802,39.35 7.453,39.514L1.169,43.149C0.799,43.375 0.552,43.724 0.429,44.114C0.327,44.504 0.368,44.936 0.594,45.305L5.091,53.089C5.317,53.458 5.666,53.705 6.056,53.828C6.446,53.931 6.878,53.89 7.247,53.684L7.288,53.664L13.593,50.029C13.922,49.844 14.332,49.905 14.599,50.152C16.016,51.507 17.598,52.698 19.302,53.705C20.986,54.67 22.794,55.45 24.683,55.984C25.053,56.087 25.299,56.436 25.299,56.785L25.299,64.117C25.299,64.548 25.484,64.938 25.771,65.226C26.059,65.513 26.449,65.698 26.88,65.698L35.876,65.698C36.307,65.698 36.697,65.513 36.985,65.226C37.272,64.938 37.457,64.548 37.457,64.117L37.457,56.785C37.457,56.395 37.724,56.046 38.093,55.964C39.983,55.409 41.79,54.649 43.454,53.684C45.158,52.698 46.739,51.507 48.156,50.131C48.444,49.864 48.875,49.823 49.204,50.029L55.509,53.664C55.878,53.89 56.309,53.91 56.7,53.807C57.09,53.705 57.439,53.458 57.644,53.068L57.665,53.027L62.142,45.285C62.347,44.915 62.409,44.484 62.286,44.094C62.183,43.703 61.937,43.354 61.567,43.128L55.221,39.473C54.892,39.288 54.728,38.898 54.831,38.549C55.057,37.604 55.242,36.639 55.365,35.653C55.488,34.688 55.55,33.702 55.55,32.716C55.55,31.73 55.488,30.724 55.365,29.779C55.242,28.794 55.077,27.828 54.831,26.884C54.728,26.494 54.934,26.103 55.262,25.939L61.567,22.304C61.937,22.099 62.183,21.75 62.286,21.339C62.388,20.949 62.347,20.517 62.142,20.148L62.121,20.107L57.665,12.364C57.439,11.995 57.09,11.748 56.7,11.625C56.309,11.522 55.878,11.563 55.509,11.769L49.163,15.445C48.834,15.65 48.403,15.568 48.136,15.301C46.719,13.946 45.158,12.755 43.454,11.769C41.77,10.804 39.962,10.023 38.052,9.469C37.683,9.366 37.457,9.037 37.457,8.668L37.457,1.336C37.457,0.905 37.272,0.515 36.985,0.227C36.697,-0.06 36.307,-0.225 35.876,-0.225L26.88,-0.225C26.449,-0.225 26.059,-0.04 25.771,0.227C25.484,0.515 25.299,0.905 25.299,1.336L25.299,8.668C25.299,9.079 25.032,9.407 24.642,9.51Z" clip-rule="evenodd" fill-rule="evenodd" fill="#8B8AEA"/>
</svg>
