<svg width="36" height="36" viewBox="0 0 36 36" fill="none" xmlns="http://www.w3.org/2000/svg" xmlns:xlink="http://www.w3.org/1999/xlink">
<path d="M0.752,0.785C1.234,0.303 1.887,0.032 2.569,0.032C3.25,0.032 3.903,0.303 4.385,0.785L17.984,14.396L31.583,0.785C31.82,0.539 32.103,0.344 32.417,0.209C32.73,0.074 33.067,0.003 33.408,0C33.75,-0.003 34.088,0.062 34.404,0.191C34.719,0.321 35.006,0.512 35.247,0.753C35.489,0.995 35.679,1.282 35.809,1.598C35.938,1.914 36.003,2.252 36,2.594C35.997,2.935 35.926,3.273 35.791,3.586C35.657,3.9 35.461,4.184 35.216,4.421L21.617,18.032L35.216,31.642C35.684,32.127 35.943,32.777 35.937,33.451C35.931,34.125 35.661,34.77 35.184,35.247C34.708,35.724 34.064,35.994 33.39,36C32.716,36.006 32.067,35.747 31.583,35.278L17.984,21.668L4.385,35.278C3.901,35.747 3.252,36.006 2.578,36C1.904,35.994 1.26,35.724 0.784,35.247C0.307,34.77 0.037,34.125 0.031,33.451C0.025,32.777 0.284,32.127 0.752,31.642L14.351,18.032L0.752,4.421C0.271,3.939 0,3.285 0,2.603C0,1.921 0.271,1.267 0.752,0.785L0.752,0.785Z" clip-rule="evenodd" fill-rule="evenodd" fill="#5A5A5A"/>
</svg>
