<svg width="20" height="22" viewBox="0 0 20 22" fill="none" xmlns="http://www.w3.org/2000/svg" xmlns:xlink="http://www.w3.org/1999/xlink">
<path d="M11.755,2.163C11.755,0.87 10.708,-0.178 9.414,-0.178C8.12,-0.178 7.073,0.87 7.073,2.163L7.073,7.667L1.569,7.667C0.275,7.667 -0.772,8.715 -0.772,10.008C-0.772,11.302 0.275,12.35 1.569,12.35L7.073,12.35L7.073,17.853C7.073,19.147 8.12,20.195 9.414,20.195C10.708,20.195 11.755,19.147 11.755,17.853L11.755,12.35L17.259,12.35C18.553,12.35 19.6,11.302 19.6,10.008C19.6,8.715 18.553,7.667 17.259,7.667L11.755,7.667L11.755,2.163Z" clip-rule="evenodd" fill-rule="evenodd" fill="#8B8AEA"/>
</svg>
