<svg width="6" height="8" viewBox="0 0 6 8" fill="none" xmlns="http://www.w3.org/2000/svg" xmlns:xlink="http://www.w3.org/1999/xlink">
<path d="M0.769,4.688C0.395,4.625 0.04,4.878 -0.023,5.252C-0.086,5.627 0.167,5.982 0.542,6.045L0.769,4.688ZM4.27,4.706L3.888,4.133L3.887,4.134L4.27,4.706ZM4.27,1.568L4.652,0.996L4.651,0.995L4.27,1.568ZM0.509,0.239C0.135,0.305 -0.115,0.661 -0.05,1.035C0.016,1.41 0.372,1.66 0.747,1.594L0.509,0.239ZM0.542,6.045C1.933,6.279 3.505,6.046 4.653,5.277L3.887,4.134C3.09,4.668 1.891,4.876 0.769,4.688L0.542,6.045ZM4.652,5.278C5.442,4.751 5.928,3.988 5.928,3.137C5.928,2.286 5.442,1.522 4.652,0.996L3.888,2.141C4.392,2.476 4.552,2.85 4.552,3.137C4.552,3.423 4.392,3.798 3.888,4.133L4.652,5.278ZM4.651,0.995C3.494,0.228 1.904,-0.005 0.509,0.239L0.747,1.594C1.866,1.398 3.083,1.606 3.89,2.141L4.651,0.995Z" fill="#01008A"/>
</svg>
