<svg width="364" height="272" viewBox="0 0 364 272" fill="none" xmlns="http://www.w3.org/2000/svg" xmlns:xlink="http://www.w3.org/1999/xlink">
<g opacity="0.5">
<path d="M362.74,53.757C357.028,0.528 268.382,2.794 268.382,2.794C268.382,2.794 195.719,82.8 178.372,82.226C161.025,81.652 227.138,1.692 227.138,1.692C194.687,-6.737 104.28,20.32 104.28,20.32C104.28,20.32 93.041,125.349 76.369,120.522C59.697,115.694 91.07,28.035 91.07,28.035C57.656,32.536 21.976,65.011 21.976,65.011C-24.865,119.691 47.775,177.018 47.775,177.018C47.775,177.018 43.095,213.334 14.183,251.242C14.183,251.242 7.927,258.096 0.74,270.296L9.433,271.678C10.512,269.458 11.653,267.332 12.864,265.306C12.864,265.29 12.872,265.274 12.887,265.268C12.903,265.236 12.926,265.206 12.941,265.182C13.749,263.932 14.913,262.154 16.349,259.996C16.349,259.996 16.349,259.99 16.357,259.99C16.357,259.982 16.364,259.982 16.364,259.982C19.849,255.2 22.255,251.646 23.831,249.054C23.839,249.046 23.839,249.038 23.846,249.03C34.402,233.972 49.25,214.522 57.602,211.278C57.602,211.278 56.856,209.772 56.375,206.994C56.763,208.36 57.175,209.78 57.602,211.278C67.42,245.538 140.992,262.674 183.805,260.766C226.618,258.848 210.404,244.28 191.093,221.756C171.782,199.232 124.212,196.795 111.576,187.163C98.94,177.523 120.323,173.293 147.62,179.812C174.926,186.332 184.348,216.168 228.326,227.514C272.302,238.862 319.664,160.284 319.664,160.284C287.314,164.957 234.736,139.157 234.294,128.19C233.86,117.223 315.55,131.295 328.814,130.131C342.072,128.951 368.452,106.985 362.74,53.757Z" fill="#8584FF"/>
</g>
</svg>
