<svg width="144" height="152" viewBox="0 0 144 152" fill="none" xmlns="http://www.w3.org/2000/svg" xmlns:xlink="http://www.w3.org/1999/xlink">
<path d="M49.284,51.784C52.242,48.827 55.795,46.424 59.738,44.802C63.537,43.22 67.685,42.358 72.039,42.358C76.393,42.358 80.541,43.22 84.341,44.802C88.284,46.445 91.836,48.827 94.794,51.784C97.751,54.741 100.154,58.294 101.776,62.237C103.357,66.037 104.22,70.185 104.22,74.539C104.22,78.892 103.357,83.041 101.776,86.861C100.133,90.804 97.751,94.357 94.794,97.314C91.836,100.271 88.284,102.674 84.341,104.296C80.541,105.878 76.372,106.74 72.019,106.74C67.665,106.74 63.516,105.878 59.717,104.296C55.774,102.653 52.221,100.271 49.264,97.314C46.307,94.357 43.904,90.804 42.281,86.861C40.7,83.061 39.838,78.892 39.838,74.539C39.838,70.185 40.7,66.037 42.281,62.237C43.945,58.294 46.327,54.741 49.284,51.784ZM60.888,47.533C57.314,49.012 54.111,51.189 51.4,53.879C48.709,56.569 46.533,59.793 45.054,63.367C43.637,66.796 42.836,70.575 42.836,74.539C42.836,78.502 43.616,82.281 45.054,85.711C46.533,89.284 48.709,92.488 51.4,95.199C54.09,97.889 57.314,100.066 60.888,101.544C64.317,102.961 68.096,103.762 72.06,103.762C76.023,103.762 79.802,102.982 83.232,101.544C86.805,100.066 90.029,97.889 92.72,95.199C95.41,92.508 97.587,89.284 99.065,85.711C100.482,82.281 101.283,78.502 101.283,74.539C101.283,70.575 100.503,66.796 99.065,63.367C97.587,59.793 95.41,56.59 92.72,53.879C90.029,51.189 86.805,49.012 83.232,47.533C79.802,46.116 76.023,45.315 72.06,45.315C68.096,45.336 64.317,46.116 60.888,47.533ZM57.335,23.834C55.322,24.409 53.33,25.127 51.4,25.949C49.428,26.791 47.539,27.736 45.711,28.804C43.842,29.871 42.056,31.063 40.33,32.356C38.605,33.65 36.962,35.047 35.422,36.546C34.868,37.08 34.19,37.388 33.492,37.47C32.773,37.552 32.034,37.408 31.397,37.039C26.674,34.307 21.704,31.597 17.062,28.762C16.836,28.639 16.611,28.578 16.364,28.557C16.097,28.537 15.83,28.557 15.563,28.619C15.296,28.68 15.05,28.804 14.844,28.968C14.639,29.132 14.454,29.317 14.331,29.563C10.881,34.78 7.431,41.516 4.227,47.04C4.083,47.287 4.001,47.533 3.981,47.779C3.939,48.046 3.96,48.313 4.042,48.601C4.104,48.868 4.227,49.114 4.391,49.32C4.556,49.525 4.74,49.71 4.987,49.833C9.238,52.647 14.721,55.46 19.239,58.068C19.896,58.459 20.389,59.013 20.656,59.67C20.759,59.896 20.821,60.122 20.862,60.368L21.149,60.471L20.821,61.806C20.554,62.853 20.328,63.901 20.143,64.928C19.958,65.934 19.794,67.002 19.671,68.111C19.547,69.179 19.445,70.247 19.383,71.314C19.321,72.341 19.28,73.43 19.28,74.559C19.28,75.689 19.321,76.757 19.383,77.804C19.445,78.872 19.547,79.94 19.671,81.008C19.794,82.117 19.958,83.164 20.143,84.191C20.328,85.238 20.554,86.286 20.821,87.333C21.005,88.113 20.923,88.873 20.615,89.551C20.307,90.229 19.773,90.783 19.096,91.132L6.486,98.423L4.987,99.285C4.74,99.429 4.556,99.593 4.391,99.799C4.227,100.004 4.104,100.251 4.042,100.518C3.96,100.785 3.939,101.072 3.981,101.339C4.022,101.585 4.104,101.852 4.227,102.078L13.571,118.261L14.331,119.576C14.475,119.822 14.639,120.007 14.844,120.171C15.05,120.335 15.317,120.459 15.563,120.52C15.83,120.582 16.118,120.602 16.364,120.582C16.611,120.561 16.878,120.459 17.103,120.335C21.622,117.501 26.715,114.791 31.376,112.1C32.034,111.731 32.773,111.587 33.471,111.669C34.19,111.751 34.868,112.059 35.402,112.573C36.942,114.051 38.585,115.468 40.31,116.762C42.035,118.056 43.822,119.247 45.67,120.315C47.518,121.383 49.428,122.328 51.4,123.17C53.351,123.991 55.363,124.71 57.438,125.305C58.177,125.511 58.772,125.942 59.204,126.517C59.635,127.092 59.881,127.811 59.881,128.55L59.881,145C59.881,145.267 59.943,145.534 60.025,145.78C60.128,146.027 60.272,146.253 60.477,146.438C60.662,146.622 60.888,146.787 61.134,146.889C61.36,146.992 61.627,147.033 61.915,147.033L82.123,147.033C82.39,147.033 82.657,146.972 82.903,146.889C83.149,146.787 83.375,146.622 83.56,146.438C83.745,146.232 83.909,146.006 84.012,145.76C84.115,145.534 84.156,145.267 84.156,144.979L84.156,128.509C84.156,127.729 84.423,127.01 84.895,126.414C85.367,125.819 86.025,125.388 86.764,125.223C88.776,124.648 90.769,123.929 92.699,123.108C94.67,122.266 96.56,121.321 98.408,120.253C100.256,119.185 102.064,117.994 103.768,116.7C105.493,115.407 107.136,114.01 108.676,112.511C109.252,111.957 109.97,111.648 110.71,111.587C111.469,111.525 112.229,111.69 112.866,112.121L126.954,120.253C127.18,120.397 127.447,120.479 127.693,120.5C127.96,120.541 128.227,120.5 128.515,120.438C128.782,120.377 129.028,120.253 129.234,120.089C129.439,119.925 129.624,119.74 129.747,119.493C133.095,113.661 136.504,107.849 139.851,101.996C139.995,101.77 140.077,101.503 140.098,101.257C140.139,100.99 140.118,100.723 140.036,100.456C139.974,100.189 139.851,99.943 139.687,99.737C139.543,99.532 139.338,99.347 139.112,99.224L124.859,90.989C124.202,90.619 123.709,90.044 123.442,89.387C123.36,89.222 123.319,89.038 123.258,88.853L122.888,88.771L123.258,87.251C123.525,86.204 123.75,85.156 123.935,84.129C124.12,83.123 124.284,82.055 124.408,80.946C124.531,79.858 124.633,78.79 124.695,77.742C124.757,76.716 124.798,75.627 124.798,74.498C124.798,73.368 124.757,72.3 124.695,71.273C124.633,70.226 124.531,69.138 124.408,68.07C124.264,66.961 124.1,65.893 123.915,64.886C123.73,63.839 123.504,62.812 123.237,61.765C123.052,60.984 123.134,60.204 123.442,59.526C123.75,58.869 124.284,58.294 124.962,57.945L139.071,49.792C139.297,49.669 139.502,49.484 139.666,49.279C139.831,49.073 139.954,48.827 140.015,48.56C140.077,48.293 140.098,48.026 140.077,47.759C140.036,47.512 139.954,47.245 139.831,47.02C136.38,41.885 132.93,35.047 129.727,29.522C129.583,29.276 129.419,29.091 129.213,28.927C129.008,28.762 128.761,28.639 128.494,28.578C128.227,28.496 127.94,28.475 127.673,28.516C127.426,28.557 127.16,28.639 126.934,28.762L112.661,36.998C111.983,37.388 111.244,37.511 110.525,37.429C109.806,37.326 109.128,36.998 108.594,36.484C107.054,34.985 105.411,33.609 103.707,32.315C102.002,31.042 100.215,29.851 98.367,28.783C96.519,27.715 94.609,26.77 92.637,25.928C90.686,25.107 88.674,24.388 86.6,23.793C85.86,23.587 85.265,23.156 84.833,22.581C84.402,22.006 84.156,21.287 84.156,20.548L84.156,4.077C84.156,3.81 84.094,3.543 84.012,3.297C83.909,3.05 83.766,2.825 83.56,2.64C83.375,2.455 83.149,2.291 82.903,2.188C82.657,2.085 82.41,2.044 82.123,2.044L61.915,2.044C61.627,2.044 61.381,2.106 61.134,2.188C60.888,2.291 60.662,2.455 60.456,2.64C60.087,3.009 59.861,3.523 59.861,4.077L59.861,20.548C59.861,21.328 59.594,22.068 59.142,22.643C58.731,23.238 58.074,23.669 57.335,23.834ZM50.229,23.218C48.155,24.101 46.142,25.107 44.212,26.236C42.24,27.366 40.351,28.639 38.544,29.995C36.737,31.35 35.011,32.829 33.369,34.41C33.307,34.472 33.225,34.513 33.143,34.513C33.06,34.513 32.958,34.513 32.896,34.472C28.091,31.699 23.306,28.947 18.5,26.175C17.925,25.867 17.309,25.682 16.693,25.6C16.056,25.518 15.419,25.579 14.803,25.744C14.167,25.908 13.571,26.216 13.037,26.606C12.524,26.996 12.093,27.489 11.743,28.085C8.273,33.712 4.966,39.811 1.639,45.561C1.311,46.157 1.085,46.773 1.023,47.43C0.941,48.087 0.982,48.765 1.146,49.381C1.311,50.018 1.598,50.613 2.009,51.147C2.399,51.661 2.892,52.092 3.488,52.441C8.067,55.275 13.058,57.966 17.74,60.676C17.822,60.718 17.863,60.779 17.904,60.861C17.945,60.943 17.945,61.026 17.925,61.108L17.596,62.443L17.617,62.443C17.473,63.079 17.35,63.736 17.227,64.414C17.021,65.544 16.857,66.673 16.713,67.782C16.59,68.871 16.487,70 16.405,71.171C16.344,72.341 16.303,73.471 16.303,74.58C16.303,75.689 16.344,76.818 16.405,77.989C16.467,79.159 16.57,80.289 16.713,81.377C16.857,82.486 17.021,83.595 17.227,84.745C17.432,85.875 17.678,86.984 17.945,88.052C17.966,88.134 17.966,88.237 17.925,88.319C17.884,88.401 17.822,88.483 17.74,88.504C12.503,91.297 7.184,94.603 2.009,97.581L2.194,97.807L2.03,98.012C1.619,98.546 1.331,99.142 1.167,99.778C1.003,100.394 0.941,101.072 1.044,101.729C1.126,102.366 1.331,103.003 1.68,103.598L12.524,122.389L12.729,122.266C12.832,122.369 12.955,122.451 13.058,122.553C13.592,122.964 14.187,123.252 14.824,123.416C15.44,123.58 16.118,123.621 16.775,123.539C17.391,123.457 18.007,123.272 18.582,122.944C23.326,120.418 28.214,117.378 32.896,114.667C32.958,114.626 33.06,114.626 33.143,114.626C33.225,114.647 33.307,114.667 33.369,114.729C35.011,116.31 36.737,117.789 38.544,119.144C40.351,120.5 42.24,121.753 44.212,122.903C46.163,124.032 48.196,125.038 50.27,125.921C52.344,126.805 54.48,127.564 56.657,128.18C56.739,128.201 56.821,128.263 56.862,128.324C56.924,128.406 56.945,128.489 56.945,128.571L56.945,145.021C56.945,145.698 57.088,146.335 57.335,146.93C57.581,147.547 57.971,148.101 58.423,148.553C58.875,149.025 59.43,149.395 60.046,149.641C60.641,149.888 61.278,150.032 61.956,150.032L82.164,150.032C82.841,150.032 83.478,149.888 84.074,149.641C84.69,149.395 85.244,149.005 85.696,148.553C86.148,148.101 86.538,147.547 86.784,146.93C87.031,146.335 87.175,145.678 87.175,145.021L87.175,128.55C87.175,128.447 87.195,128.365 87.257,128.304C87.318,128.242 87.38,128.18 87.483,128.16L87.544,128.139C89.742,127.503 91.857,126.763 93.89,125.88C95.964,124.997 97.977,123.991 99.907,122.861C101.879,121.732 103.768,120.459 105.575,119.103C107.383,117.748 109.108,116.269 110.751,114.688C110.812,114.626 110.894,114.585 110.977,114.585C111.059,114.585 111.161,114.606 111.223,114.647L125.475,122.882C126.071,123.211 126.687,123.416 127.324,123.498C127.981,123.58 128.659,123.539 129.275,123.375C129.911,123.211 130.507,122.923 131.041,122.512C131.534,122.143 131.965,121.65 132.314,121.075C136.052,115.058 139.605,108.465 143.178,102.263L142.993,102.14C143.034,101.976 143.055,101.832 143.075,101.668C143.158,101.01 143.116,100.333 142.952,99.717C142.788,99.08 142.48,98.484 142.09,97.951C141.699,97.437 141.207,97.006 140.632,96.657L126.379,88.442C126.297,88.401 126.256,88.339 126.215,88.257C126.174,88.175 126.174,88.093 126.194,88.011L126.564,86.512L126.543,86.512C126.667,85.916 126.79,85.32 126.893,84.725C127.098,83.595 127.283,82.466 127.406,81.357C127.55,80.268 127.652,79.139 127.714,77.968C127.776,76.798 127.817,75.668 127.817,74.559C127.817,73.45 127.776,72.321 127.714,71.15C127.652,69.98 127.55,68.85 127.406,67.762C127.283,66.673 127.098,65.544 126.893,64.394C126.687,63.264 126.441,62.155 126.174,61.087C126.153,61.005 126.174,60.902 126.194,60.82C126.235,60.738 126.297,60.676 126.379,60.635L140.611,52.421C141.207,52.072 141.699,51.64 142.069,51.127C142.48,50.593 142.767,49.997 142.932,49.361C143.096,48.745 143.137,48.067 143.055,47.41C142.973,46.794 142.767,46.178 142.459,45.603C139.071,39.318 135.169,32.973 131.575,26.75L131.37,26.873C131.267,26.77 131.144,26.688 131.041,26.586C130.507,26.175 129.911,25.887 129.275,25.723C128.638,25.559 127.981,25.518 127.324,25.6C126.687,25.682 126.051,25.887 125.475,26.216L124.469,26.832L111.244,34.472C111.161,34.513 111.079,34.533 110.997,34.513C110.915,34.513 110.833,34.472 110.771,34.41L110.73,34.369C109.108,32.808 107.383,31.35 105.575,29.974C103.768,28.619 101.879,27.366 99.928,26.236C97.977,25.107 95.944,24.101 93.87,23.218C91.795,22.335 89.66,21.575 87.483,20.959C87.401,20.938 87.318,20.876 87.277,20.815C87.216,20.733 87.195,20.65 87.195,20.568L87.195,4.098C87.195,3.42 87.051,2.783 86.805,2.188C86.538,1.572 86.168,1.017 85.716,0.566C85.244,0.114 84.71,-0.276 84.094,-0.523C83.499,-0.769 82.841,-0.913 82.184,-0.913L61.976,-0.913C61.298,-0.913 60.662,-0.769 60.066,-0.523C59.45,-0.276 58.896,0.114 58.444,0.566C57.54,1.469 56.965,2.722 56.965,4.118L56.965,20.589C56.965,20.692 56.924,20.774 56.883,20.835C56.821,20.897 56.76,20.938 56.657,20.979L56.596,21C54.378,21.595 52.262,22.355 50.229,23.218Z" clip-rule="evenodd" fill-rule="evenodd" fill="#8B8AEA"/>
</svg>
