<svg width="26" height="28" viewBox="0 0 26 28" fill="none" xmlns="http://www.w3.org/2000/svg" xmlns:xlink="http://www.w3.org/1999/xlink">
<path d="M12.503,0.656C12.954,0.656 13.387,0.835 13.706,1.154C14.025,1.473 14.204,1.906 14.204,2.356L14.204,11.991L23.838,11.991C24.289,11.991 24.721,12.17 25.04,12.489C25.359,12.808 25.538,13.24 25.538,13.691C25.538,14.142 25.359,14.574 25.04,14.893C24.721,15.212 24.289,15.391 23.838,15.391L14.204,15.391L14.204,25.025C14.204,25.476 14.025,25.909 13.706,26.228C13.387,26.547 12.954,26.726 12.503,26.726C12.053,26.726 11.62,26.547 11.301,26.228C10.982,25.909 10.803,25.476 10.803,25.025L10.803,15.391L1.169,15.391C0.718,15.391 0.286,15.212 -0.033,14.893C-0.352,14.574 -0.531,14.142 -0.531,13.691C-0.531,13.24 -0.352,12.808 -0.033,12.489C0.286,12.17 0.718,11.991 1.169,11.991L10.803,11.991L10.803,2.356C10.803,1.906 10.982,1.473 11.301,1.154C11.62,0.835 12.053,0.656 12.503,0.656Z" clip-rule="evenodd" fill-rule="evenodd" fill="#01008A"/>
</svg>
