<svg width="48" height="48" viewBox="0 0 48 48" fill="none" xmlns="http://www.w3.org/2000/svg" xmlns:xlink="http://www.w3.org/1999/xlink">
<path d="M23.41,41.879L22.625,46.586C22.93,46.637 23.239,46.658 23.548,46.649L23.41,41.879ZM22.015,41.879L21.842,46.648C22.163,46.659 22.483,46.639 22.799,46.586L22.015,41.879ZM41.689,22.94L46.46,22.974C46.46,22.962 46.46,22.951 46.46,22.94L41.689,22.94ZM24.194,37.172C23.234,37.013 22.19,37.013 21.231,37.172L22.799,46.586C22.763,46.592 22.74,46.594 22.73,46.595C22.72,46.596 22.714,46.596 22.712,46.596C22.71,46.596 22.705,46.596 22.695,46.595C22.685,46.594 22.662,46.592 22.625,46.586L24.194,37.172ZM22.188,37.111C14.621,36.837 8.581,30.646 8.581,22.94L-0.962,22.94C-0.962,35.787 9.148,46.188 21.842,46.648L22.188,37.111ZM8.581,22.94C8.581,15.077 14.887,8.772 22.749,8.772L22.749,-0.772C9.616,-0.772 -0.962,9.807 -0.962,22.94L8.581,22.94ZM22.749,8.772C30.599,8.772 36.917,15.139 36.917,22.94L46.46,22.94C46.46,9.892 35.894,-0.772 22.749,-0.772L22.749,8.772ZM36.917,22.905C36.862,30.676 30.774,36.892 23.272,37.11L23.548,46.649C36.306,46.279 46.369,35.758 46.46,22.974L36.917,22.905Z" fill="#01008A"/>
</svg>
