<svg width="16" height="14" viewBox="0 0 16 14" fill="none" xmlns="http://www.w3.org/2000/svg" xmlns:xlink="http://www.w3.org/1999/xlink">
<path d="M7.3,11.882L7.031,13.494C7.139,13.512 7.249,13.519 7.359,13.515L7.3,11.882ZM6.886,11.882L6.826,13.515C6.936,13.519 7.046,13.512 7.154,13.494L6.886,11.882ZM12.725,6.261L14.359,6.272L14.359,6.261L12.725,6.261ZM7.568,10.27C7.26,10.219 6.926,10.219 6.617,10.27L7.154,13.494C7.122,13.5 7.102,13.5 7.093,13.5C7.083,13.5 7.063,13.5 7.031,13.494L7.568,10.27ZM6.945,10.249C4.816,10.172 3.116,8.431 3.116,6.261L-0.152,6.261C-0.152,10.191 2.941,13.375 6.826,13.515L6.945,10.249ZM3.116,6.261C3.116,4.047 4.89,2.273 7.103,2.273L7.103,-0.995C3.085,-0.995 -0.152,2.242 -0.152,6.261L3.116,6.261ZM7.103,2.273C9.313,2.273 11.091,4.065 11.091,6.261L14.359,6.261C14.359,2.268 11.126,-0.995 7.103,-0.995L7.103,2.273ZM11.091,6.249C11.075,8.43 9.367,10.172 7.24,10.249L7.359,13.515C11.246,13.374 14.331,10.192 14.359,6.272L11.091,6.249Z" fill="#01008A"/>
</svg>
