<svg width="36" height="36" viewBox="0 0 36 36" fill="none" xmlns="http://www.w3.org/2000/svg" xmlns:xlink="http://www.w3.org/1999/xlink">
<path d="M4.813,26.953C2.658,26.592 0.618,28.045 0.256,30.2C-0.106,32.355 1.348,34.395 3.503,34.757L4.813,26.953ZM24.942,27.057L22.747,23.765L22.74,23.77L24.942,27.057ZM24.942,9.016L27.137,5.724L27.129,5.719L24.942,9.016ZM3.317,1.373C1.165,1.751 -0.274,3.801 0.103,5.953C0.48,8.105 2.53,9.545 4.682,9.168L3.317,1.373ZM3.503,34.757C11.505,36.1 20.544,34.764 27.144,30.344L22.74,23.77C18.156,26.84 11.264,28.036 4.813,26.953L3.503,34.757ZM27.137,30.349C31.681,27.32 34.477,22.93 34.477,18.036C34.477,13.143 31.681,8.753 27.137,5.724L22.747,12.308C25.641,14.237 26.564,16.389 26.564,18.036C26.564,19.684 25.641,21.836 22.747,23.765L27.137,30.349ZM27.129,5.719C20.482,1.308 11.337,-0.031 3.317,1.373L4.682,9.168C11.116,8.04 18.114,9.233 22.755,12.313L27.129,5.719Z" transform="rotate(360 17.26 18.048)" fill="#01008A"/>
</svg>
