<svg width="20" height="22" viewBox="0 0 20 22" fill="none" xmlns="http://www.w3.org/2000/svg" xmlns:xlink="http://www.w3.org/1999/xlink">
<path d="M11.879,2.341C11.879,1.047 10.832,0 9.538,0C8.244,0 7.197,1.047 7.197,2.341L7.197,7.845L1.673,7.845C0.379,7.845 -0.668,8.892 -0.668,10.186C-0.668,11.48 0.379,12.527 1.673,12.527L7.177,12.527L7.177,18.031C7.177,19.325 8.224,20.372 9.518,20.372C10.812,20.372 11.859,19.325 11.859,18.031L11.859,12.527L17.363,12.527C18.657,12.527 19.704,11.48 19.704,10.186C19.704,8.892 18.657,7.845 17.363,7.845L11.879,7.845L11.879,2.341Z" clip-rule="evenodd" fill-rule="evenodd" fill="#8B8AEA"/>
</svg>
