<svg width="22" height="20" viewBox="0 0 22 20" fill="none" xmlns="http://www.w3.org/2000/svg" xmlns:xlink="http://www.w3.org/1999/xlink">
<path d="M13.191,1.65C13.191,0.356 12.144,-0.691 10.85,-0.691C9.556,-0.691 8.509,0.356 8.509,1.65L8.509,7.174L2.985,7.174C1.691,7.174 0.644,8.222 0.644,9.515C0.644,10.809 1.691,11.856 2.985,11.856L8.509,11.856L8.509,17.36C8.509,18.654 9.556,19.701 10.85,19.701C12.144,19.701 13.191,18.654 13.191,17.36L13.191,11.856L18.695,11.856C19.989,11.856 21.036,10.809 21.036,9.515C21.036,8.222 19.989,7.174 18.695,7.174L13.191,7.174L13.191,1.65Z" clip-rule="evenodd" fill-rule="evenodd" fill="#8B8AEA"/>
</svg>
