<svg width="582" height="80" viewBox="0 0 582 80" fill="none" xmlns="http://www.w3.org/2000/svg" xmlns:xlink="http://www.w3.org/1999/xlink">
<path d="M8.9,2.396L572.336,2.396L572.336,0.536L8.9,0.536L8.9,2.396ZM572.336,2.396C576.444,2.396 579.774,5.726 579.774,9.834L581.634,9.834C581.634,4.699 577.472,0.536 572.336,0.536L572.336,2.396ZM579.774,9.834L579.774,69.339L581.634,69.339L581.634,9.834L579.774,9.834ZM579.774,69.339C579.774,73.446 576.444,76.777 572.336,76.777L572.336,78.636C577.472,78.636 581.634,74.473 581.634,69.339L579.774,69.339ZM572.336,76.777L8.9,76.777L8.9,78.636L572.336,78.636L572.336,76.777ZM8.9,76.777C4.792,76.777 1.462,73.446 1.462,69.339L-0.398,69.339C-0.398,74.473 3.765,78.636 8.9,78.636L8.9,76.777ZM1.462,69.339L1.462,9.834L-0.398,9.834L-0.398,69.339L1.462,69.339ZM1.462,9.834C1.462,5.726 4.792,2.396 8.9,2.396L8.9,0.536C3.765,0.536 -0.398,4.699 -0.398,9.834L1.462,9.834Z" fill="#B5B5B5"/>
</svg>
