<svg width="12" height="12" viewBox="0 0 12 12" fill="none" xmlns="http://www.w3.org/2000/svg" xmlns:xlink="http://www.w3.org/1999/xlink">
<path d="M6.747,0.819C6.747,0.036 6.113,-0.599 5.329,-0.599C4.545,-0.599 3.911,0.036 3.911,0.819L3.911,4.153L0.565,4.153C-0.219,4.153 -0.853,4.787 -0.853,5.571C-0.853,6.355 -0.219,6.989 0.565,6.989L3.911,6.989L3.911,10.322C3.911,11.106 4.545,11.74 5.329,11.74C6.113,11.74 6.747,11.106 6.747,10.322L6.747,6.989L10.081,6.989C10.864,6.989 11.498,6.355 11.498,5.571C11.498,4.787 10.864,4.153 10.081,4.153L6.747,4.153L6.747,0.819Z" clip-rule="evenodd" fill-rule="evenodd" fill="#8B8AEA"/>
</svg>
