<svg width="686" height="94" viewBox="0 0 686 94" fill="none" xmlns="http://www.w3.org/2000/svg" xmlns:xlink="http://www.w3.org/1999/xlink">
<path d="M10.958,3.096L675.042,3.096L675.042,0.904L10.958,0.904L10.958,3.096ZM675.042,3.096C679.884,3.096 683.808,7.021 683.808,11.863L686,11.863C686,5.81 681.094,0.904 675.042,0.904L675.042,3.096ZM683.808,11.863L683.808,81.997L686,81.997L686,11.863L683.808,11.863ZM683.808,81.997C683.808,86.839 679.884,90.764 675.042,90.764L675.042,92.955C681.094,92.955 686,88.049 686,81.997L683.808,81.997ZM675.042,90.764L10.958,90.764L10.958,92.955L675.042,92.955L675.042,90.764ZM10.958,90.764C6.117,90.764 2.192,86.839 2.192,81.997L0,81.997C0,88.049 4.906,92.955 10.958,92.955L10.958,90.764ZM2.192,81.997L2.192,11.863L0,11.863L0,81.997L2.192,81.997ZM2.192,11.863C2.192,7.021 6.117,3.096 10.958,3.096L10.958,0.904C4.906,0.904 0,5.81 0,11.863L2.192,11.863Z" fill="#B5B5B5"/>
</svg>
