<svg width="98" height="72" viewBox="0 0 98 72" fill="none" xmlns="http://www.w3.org/2000/svg" xmlns:xlink="http://www.w3.org/1999/xlink">
<path d="M96.092,1.149C97.24,2.298 97.885,3.856 97.885,5.481C97.885,7.106 97.24,8.664 96.092,9.814L36.826,69.08C35.676,70.228 34.118,70.873 32.493,70.873C30.868,70.873 29.31,70.228 28.16,69.08L1.593,42.512C0.51,41.35 -0.08,39.813 -0.052,38.224C-0.024,36.636 0.62,35.121 1.743,33.997C2.866,32.874 4.382,32.231 5.97,32.203C7.559,32.175 9.096,32.764 10.258,33.847L32.493,56.082L87.427,1.149C88.576,0 90.134,-0.645 91.76,-0.645C93.384,-0.645 94.943,0 96.092,1.149Z" clip-rule="evenodd" fill-rule="evenodd" fill="#19AF36" stroke="#19AF36" stroke-width="1.66" stroke-miterlimit="3.999327"/>
</svg>
