<svg width="8" height="6" viewBox="0 0 8 6" fill="none" xmlns="http://www.w3.org/2000/svg" xmlns:xlink="http://www.w3.org/1999/xlink">
<path d="M3.805,4.687L3.692,5.366C3.737,5.373 3.784,5.376 3.83,5.375L3.805,4.687ZM3.631,4.687L3.606,5.375C3.652,5.376 3.698,5.373 3.744,5.366L3.631,4.687ZM6.089,2.32L6.777,2.325L6.777,2.32L6.089,2.32ZM3.918,4.008C3.788,3.987 3.647,3.987 3.518,4.008L3.744,5.366C3.73,5.368 3.722,5.368 3.718,5.368C3.714,5.368 3.705,5.368 3.692,5.366L3.918,4.008ZM3.656,3.999C2.759,3.967 2.043,3.234 2.043,2.32L0.667,2.32C0.667,3.975 1.97,5.315 3.606,5.375L3.656,3.999ZM2.043,2.32C2.043,1.388 2.79,0.641 3.722,0.641L3.722,-0.735C2.03,-0.735 0.667,0.628 0.667,2.32L2.043,2.32ZM3.722,0.641C4.653,0.641 5.401,1.396 5.401,2.32L6.777,2.32C6.777,0.639 5.416,-0.735 3.722,-0.735L3.722,0.641ZM5.401,2.315C5.395,3.234 4.676,3.967 3.78,3.999L3.83,5.375C5.467,5.315 6.766,3.975 6.777,2.325L5.401,2.315Z" transform="rotate(360 3.722 2.32)" fill="#01008A"/>
</svg>
