<svg width="626" height="84" viewBox="0 0 626 84" fill="none" xmlns="http://www.w3.org/2000/svg" xmlns:xlink="http://www.w3.org/1999/xlink">
<path d="M9.456,1L615.456,1L615.456,-1L9.456,-1L9.456,1ZM615.456,1C619.874,1 623.456,4.582 623.456,9L625.456,9C625.456,3.477 620.978,-1 615.456,-1L615.456,1ZM623.456,9L623.456,73L625.456,73L625.456,9L623.456,9ZM623.456,73C623.456,77.418 619.874,81 615.456,81L615.456,83C620.978,83 625.456,78.523 625.456,73L623.456,73ZM615.456,81L9.456,81L9.456,83L615.456,83L615.456,81ZM9.456,81C5.038,81 1.456,77.418 1.456,73L-0.544,73C-0.544,78.523 3.933,83 9.456,83L9.456,81ZM1.456,73L1.456,9L-0.544,9L-0.544,73L1.456,73ZM1.456,9C1.456,4.582 5.038,1 9.456,1L9.456,-1C3.933,-1 -0.544,3.477 -0.544,9L1.456,9Z" fill="#179E8A"/>
</svg>
