<svg width="32" height="38" viewBox="0 0 32 38" fill="none" xmlns="http://www.w3.org/2000/svg" xmlns:xlink="http://www.w3.org/1999/xlink">
<path d="M17.01,0C17.714,0.115 18.428,0.188 19.12,0.351C23.973,1.498 27.259,4.444 29.094,9.046C29.187,9.28 29.299,9.51 29.43,9.724C29.786,10.308 29.97,10.936 29.97,11.62C29.97,13.097 29.972,14.575 29.97,16.053C29.967,18.194 28.513,19.654 26.363,19.671C25.429,19.679 24.494,19.661 23.56,19.682C23.395,19.686 23.203,19.791 23.075,19.907C22.396,20.521 21.733,21.154 21.062,21.785C21.14,21.814 21.278,21.868 21.417,21.919C27.027,23.964 30.414,27.997 31.903,33.688C32.386,35.532 31.007,37.189 29.062,37.197C26.113,37.208 23.164,37.207 20.216,37.209C14.464,37.211 8.711,37.213 2.959,37.211C1.374,37.21 0.201,36.213 0.017,34.668C-0.031,34.272 0.028,33.841 0.134,33.452C1.299,29.166 3.641,25.712 7.485,23.388C8.482,22.785 9.602,22.383 10.667,21.891C10.772,21.843 10.885,21.811 11.035,21.756C10.704,21.507 10.392,21.3 10.115,21.055C9.743,20.727 9.363,20.397 9.05,20.016C8.82,19.738 8.581,19.661 8.242,19.666C7.247,19.678 6.249,19.706 5.258,19.643C3.492,19.529 2.155,18.266 2.069,16.505C1.983,14.719 2.05,12.924 2.08,11.132C2.085,10.817 2.198,10.485 2.33,10.193C2.758,9.247 3.177,8.295 3.67,7.383C5.918,3.229 9.409,0.834 14.078,0.134C14.376,0.089 14.673,0.045 14.971,0C15.651,0 16.331,0 17.01,0ZM15.979,35.032C15.979,35.03 15.979,35.027 15.979,35.024C19.511,35.024 23.043,35.024 26.574,35.024C27.4,35.024 28.225,35.028 29.05,35.017C29.599,35.01 29.893,34.675 29.774,34.183C28.929,30.73 27.188,27.85 24.238,25.794C20.961,23.509 17.317,22.828 13.398,23.472C7.888,24.377 3.355,28.709 2.212,34.167C2.11,34.654 2.377,35.004 2.872,35.03C2.981,35.036 3.091,35.032 3.199,35.032C7.459,35.032 11.72,35.032 15.979,35.032ZM21.37,18.502C21.159,18.502 21.033,18.502 20.906,18.502C20.081,18.502 19.255,18.514 18.431,18.497C17.58,18.478 17.081,17.828 17.309,17.067C17.455,16.577 17.853,16.317 18.503,16.314C19.777,16.308 21.051,16.302 22.325,16.319C22.612,16.323 22.725,16.221 22.803,15.961C23.137,14.861 23.192,13.755 22.984,12.624C22.43,9.612 19.82,7.165 16.801,6.846C12.13,6.353 8.276,10.349 9,15.002C9.453,17.917 11.219,19.805 14.009,20.645C16.692,21.453 19.087,20.833 21.09,18.838C21.172,18.757 21.238,18.662 21.37,18.502ZM5.804,8.141C6.74,8.141 7.637,8.147 8.534,8.132C8.653,8.13 8.805,8.04 8.885,7.943C10.632,5.866 12.89,4.787 15.575,4.678C18.584,4.557 21.128,5.616 23.104,7.933C23.177,8.018 23.287,8.128 23.381,8.13C24.309,8.144 25.238,8.139 26.186,8.139C24.665,5.04 20.96,2.309 16.4,2.168C11.333,2.013 7.405,4.942 5.804,8.141ZM7.419,10.321C6.749,10.321 6.122,10.314 5.495,10.323C4.77,10.334 4.235,10.82 4.225,11.547C4.202,13.12 4.205,14.695 4.224,16.268C4.231,16.851 4.618,17.376 5.144,17.423C5.883,17.488 6.632,17.44 7.405,17.44C6.484,15.071 6.492,12.712 7.419,10.321ZM24.584,17.471C25.314,17.471 25.993,17.502 26.667,17.462C27.301,17.424 27.77,16.917 27.777,16.281C27.793,14.698 27.792,13.113 27.777,11.529C27.771,10.913 27.307,10.383 26.707,10.344C26.011,10.299 25.311,10.333 24.583,10.333C25.512,12.712 25.516,15.069 24.584,17.471Z" fill="#01008A"/>
</svg>
