<svg width="14" height="12" viewBox="0 0 14 12" fill="none" xmlns="http://www.w3.org/2000/svg" xmlns:xlink="http://www.w3.org/1999/xlink">
<path d="M7.53,0.623C7.53,-0.161 6.896,-0.795 6.112,-0.795C5.329,-0.795 4.694,-0.161 4.694,0.623L4.694,3.957L1.361,3.957C0.577,3.957 -0.057,4.591 -0.057,5.375C-0.057,6.158 0.577,6.793 1.361,6.793L4.694,6.793L4.694,10.126C4.694,10.91 5.329,11.544 6.112,11.544C6.896,11.544 7.53,10.91 7.53,10.126L7.53,6.793L10.864,6.793C11.647,6.793 12.282,6.158 12.282,5.375C12.282,4.591 11.647,3.957 10.864,3.957L7.53,3.957L7.53,0.623Z" clip-rule="evenodd" fill-rule="evenodd" fill="#8B8AEA"/>
</svg>
