<svg width="582" height="80" viewBox="0 0 582 80" fill="none" xmlns="http://www.w3.org/2000/svg" xmlns:xlink="http://www.w3.org/1999/xlink">
<path d="M8.886,1.976L571.421,1.976L571.421,0.12L8.886,0.12L8.886,1.976ZM571.421,1.976C575.523,1.976 578.849,5.301 578.849,9.402L580.705,9.402C580.705,4.276 576.549,0.12 571.421,0.12L571.421,1.976ZM578.849,9.402L578.849,68.812L580.705,68.812L580.705,9.402L578.849,9.402ZM578.849,68.812C578.849,72.913 575.523,76.238 571.421,76.238L571.421,78.095C576.549,78.095 580.705,73.939 580.705,68.812L578.849,68.812ZM571.421,76.238L8.886,76.238L8.886,78.095L571.421,78.095L571.421,76.238ZM8.886,76.238C4.784,76.238 1.46,72.913 1.46,68.812L-0.397,68.812C-0.397,73.939 3.759,78.095 8.886,78.095L8.886,76.238ZM1.46,68.812L1.46,9.402L-0.397,9.402L-0.397,68.812L1.46,68.812ZM1.46,9.402C1.46,5.301 4.784,1.976 8.886,1.976L8.886,0.12C3.759,0.12 -0.397,4.276 -0.397,9.402L1.46,9.402Z" fill="#B5B5B5"/>
</svg>
