<svg width="36" height="36" viewBox="0 0 36 36" fill="none" xmlns="http://www.w3.org/2000/svg" xmlns:xlink="http://www.w3.org/1999/xlink">
<path d="M17.879,30.452L17.229,34.354C17.491,34.398 17.757,34.415 18.022,34.406L17.879,30.452ZM16.877,30.452L16.734,34.406C16.999,34.415 17.265,34.398 17.527,34.354L16.877,30.452ZM31.014,16.842L34.971,16.87L34.971,16.842L31.014,16.842ZM18.529,26.549C17.782,26.425 16.973,26.425 16.226,26.549L17.527,34.354C17.449,34.367 17.401,34.369 17.378,34.369C17.355,34.369 17.307,34.367 17.229,34.354L18.529,26.549ZM17.02,26.498C11.866,26.311 7.751,22.096 7.751,16.842L-0.162,16.842C-0.162,26.358 7.328,34.065 16.734,34.406L17.02,26.498ZM7.751,16.842C7.751,11.483 12.046,7.188 17.404,7.188L17.404,-0.724C7.676,-0.724 -0.162,7.113 -0.162,16.842L7.751,16.842ZM17.404,7.188C22.753,7.188 27.058,11.526 27.058,16.842L34.971,16.842C34.971,7.176 27.143,-0.724 17.404,-0.724L17.404,7.188ZM27.058,16.814C27.02,22.094 22.885,26.311 17.736,26.498L18.022,34.406C27.433,34.065 34.903,26.36 34.97,16.87L27.058,16.814Z" transform="rotate(360 17.404 16.842)" fill="#01008A"/>
</svg>
