<svg width="30" height="22" viewBox="0 0 30 22" fill="none" xmlns="http://www.w3.org/2000/svg" xmlns:xlink="http://www.w3.org/1999/xlink">
<path d="M14.249,2.541L9.41,12.883C9.03,13.832 9.41,15.065 10.358,15.539C10.643,15.634 10.928,15.729 11.212,15.729C11.971,15.729 12.636,15.35 13.015,14.591L17.759,4.154C18.233,3.205 17.759,2.067 16.81,1.592C15.861,1.118 14.723,1.592 14.249,2.541Z" transform="rotate(-285.532 13.959 10.285)" fill="#285117"/>
<path d="M0.681,-0.021C-0.363,0.264 -1.027,1.307 -0.743,2.351L2.199,13.357C2.483,14.211 3.242,14.78 4.096,14.78C4.191,14.78 4.381,14.686 4.571,14.686C5.614,14.401 6.279,13.357 5.994,12.314L3.053,1.307C2.768,0.264 1.724,-0.305 0.681,-0.021Z" transform="rotate(-285.532 13.959 10.285)" fill="#285117"/>
<path d="M17.285,20.473L27.627,15.634C28.575,15.16 29.05,14.021 28.481,13.073C28.101,12.124 26.868,11.649 25.919,12.124L15.577,16.963C14.628,17.342 14.154,18.576 14.628,19.524C15.008,20.284 15.672,20.663 16.431,20.663C16.715,20.663 17,20.568 17.285,20.473Z" transform="rotate(-285.532 13.959 10.285)" fill="#285117"/>
</svg>
