<svg width="472" height="298" viewBox="0 0 472 298" fill="none" xmlns="http://www.w3.org/2000/svg" xmlns:xlink="http://www.w3.org/1999/xlink">
<path d="M7.09,212.538C-22.358,161.18 58.471,105.653 58.471,105.653C58.471,105.653 175.469,130.102 190.628,118.32C205.787,106.538 94.679,77.89 94.679,77.89C118.259,49.273 216.753,14.796 216.753,14.796C216.753,14.796 295.013,101.524 306.803,86.373C318.593,71.223 233.589,13.119 233.589,13.119C266.419,-4.546 319.455,1.361 319.455,1.361C396.893,19.903 369.083,118.382 369.083,118.382C369.083,118.382 396.853,147.853 447.351,163.019C447.351,163.019 457.401,165.091 471.753,171.347L464.867,178.232C462.461,176.943 460.055,175.779 457.657,174.754C457.641,174.739 457.635,174.739 457.611,174.739C457.579,174.724 457.541,174.708 457.509,174.692C455.973,174.103 453.785,173.264 451.091,172.263L451.083,172.263C451.075,172.263 451.075,172.263 451.067,172.263C444.851,170.245 440.387,168.623 437.291,167.327C437.283,167.327 437.275,167.319 437.259,167.311C418.035,160.683 392.119,152.913 382.525,155.436C382.525,155.436 382.215,153.604 380.841,150.802C381.377,152.277 381.935,153.822 382.525,155.436C395.983,192.474 341.249,255.592 301.681,281.678C262.113,307.764 267.165,284.192 269.827,251.486C272.489,218.778 313.493,185.714 318.547,168.887C323.599,152.052 301.711,162.15 281.501,185.714C261.289,209.278 272.225,242.11 240.225,280.824C208.223,319.538 114.805,279.948 114.805,279.948C146.798,263.12 177.115,205.886 170.385,195.788C163.656,185.683 99.662,251.322 87.034,258.898C74.414,266.426 36.537,263.888 7.09,212.538Z" fill="#D1D1FF"/>
</svg>
