<svg width="62" height="66" viewBox="0 0 62 66" fill="none" xmlns="http://www.w3.org/2000/svg" xmlns:xlink="http://www.w3.org/1999/xlink">
<path d="M21.33,23.028C23.795,20.564 27.224,19.023 31.003,19.023C34.782,19.023 38.191,20.543 40.676,23.028C43.14,25.492 44.68,28.922 44.68,32.701C44.68,36.479 43.14,39.889 40.676,42.353C38.211,44.817 34.782,46.358 31.003,46.358C27.224,46.358 23.815,44.817 21.33,42.353C18.866,39.889 17.325,36.459 17.325,32.701C17.325,28.922 18.866,25.492 21.33,23.028ZM24.287,9.474C22.398,10.028 20.591,10.788 18.927,11.753C17.223,12.739 15.641,13.93 14.224,15.286C13.957,15.553 13.547,15.594 13.218,15.409L6.872,11.733L6.831,11.712C6.462,11.527 6.051,11.486 5.681,11.589C5.291,11.692 4.942,11.938 4.716,12.308L4.695,12.349L0.218,20.091C0.013,20.461 -0.049,20.892 0.075,21.282C0.177,21.673 0.424,22.022 0.814,22.248L0.855,22.268L7.16,25.903C7.488,26.088 7.632,26.478 7.55,26.827C7.324,27.772 7.139,28.737 7.016,29.723C6.893,30.688 6.831,31.674 6.831,32.66C6.831,33.666 6.893,34.631 7.016,35.596C7.139,36.582 7.324,37.547 7.55,38.492C7.653,38.882 7.447,39.272 7.098,39.437L0.793,43.072C0.424,43.298 0.177,43.647 0.054,44.037C-0.049,44.427 -0.008,44.858 0.198,45.228L4.695,53.011C4.901,53.381 5.27,53.628 5.661,53.751C6.051,53.853 6.482,53.812 6.852,53.587L6.893,53.566L13.198,49.931C13.526,49.746 13.937,49.808 14.204,50.054C15.621,51.41 17.202,52.601 18.907,53.587C20.591,54.552 22.398,55.332 24.308,55.887C24.678,55.989 24.924,56.338 24.924,56.708L24.924,64.04C24.924,64.471 25.109,64.861 25.396,65.149C25.684,65.436 26.074,65.6 26.505,65.6L35.5,65.6C35.932,65.6 36.322,65.416 36.609,65.149C36.897,64.861 37.082,64.471 37.082,64.04L37.082,56.708C37.082,56.318 37.349,55.989 37.718,55.887C39.608,55.332 41.415,54.572 43.078,53.607C44.783,52.621 46.364,51.43 47.781,50.075C48.069,49.808 48.5,49.767 48.829,49.972L55.133,53.607C55.503,53.812 55.934,53.853 56.325,53.751C56.715,53.648 57.064,53.402 57.269,53.011L57.29,52.97L61.767,45.228C61.972,44.858 62.034,44.427 61.911,44.037C61.808,43.647 61.561,43.298 61.192,43.072L54.846,39.416C54.517,39.231 54.374,38.841 54.456,38.492C54.682,37.547 54.866,36.582 54.99,35.596C55.113,34.631 55.175,33.645 55.175,32.66C55.175,31.653 55.113,30.668 54.99,29.702C54.866,28.717 54.702,27.751 54.456,26.807C54.353,26.416 54.558,26.026 54.908,25.862L61.212,22.227C61.582,22.022 61.828,21.652 61.931,21.262C62.034,20.872 61.993,20.44 61.787,20.071L61.767,20.03L57.29,12.287C57.064,11.918 56.715,11.671 56.325,11.568C55.934,11.466 55.503,11.507 55.133,11.712L48.788,15.388C48.459,15.573 48.028,15.511 47.761,15.244C46.344,13.889 44.783,12.698 43.078,11.712C41.394,10.747 39.587,9.967 37.698,9.412C37.328,9.309 37.082,8.96 37.082,8.611L37.082,1.28C37.082,0.848 36.897,0.458 36.609,0.171C36.322,-0.117 35.932,-0.281 35.5,-0.281L26.505,-0.281C26.074,-0.281 25.684,-0.096 25.396,0.171C25.109,0.458 24.924,0.848 24.924,1.28L24.924,8.611C24.924,9.063 24.657,9.392 24.287,9.474Z" clip-rule="evenodd" fill-rule="evenodd" fill="#8B8AEA"/>
</svg>
