<svg width="20" height="20" viewBox="0 0 20 20" fill="none" xmlns="http://www.w3.org/2000/svg" xmlns:xlink="http://www.w3.org/1999/xlink">
<path d="M11.907,1.569C11.907,0.275 10.859,-0.772 9.565,-0.772C8.272,-0.772 7.224,0.275 7.224,1.569L7.224,7.073L1.72,7.073C0.427,7.073 -0.621,8.12 -0.621,9.414C-0.621,10.708 0.427,11.755 1.72,11.755L7.224,11.755L7.224,17.259C7.224,18.553 8.272,19.6 9.565,19.6C10.859,19.6 11.907,18.553 11.907,17.259L11.907,11.755L17.431,11.755C18.725,11.755 19.772,10.708 19.772,9.414C19.772,8.12 18.725,7.073 17.431,7.073L11.907,7.073L11.907,1.569Z" clip-rule="evenodd" fill-rule="evenodd" fill="#8B8AEA"/>
</svg>
