<svg width="68" height="48" viewBox="0 0 68 48" fill="none" xmlns="http://www.w3.org/2000/svg" xmlns:xlink="http://www.w3.org/1999/xlink">
<path d="M12.047,11.002L9.411,7.024L9.4,7.032L12.047,11.002ZM12.047,36.108L14.699,32.142L14.694,32.138L12.047,36.108ZM54.771,36.108L52.124,32.138L52.118,32.142L54.771,36.108ZM54.771,11.002L57.418,7.032L57.418,7.032L54.771,11.002ZM9.4,7.032C3.23,11.145 -0.488,17.046 -0.488,23.555C-0.488,30.064 3.23,35.965 9.4,40.078L14.694,32.138C10.513,29.351 9.055,26.149 9.055,23.555C9.055,20.961 10.513,17.759 14.694,14.972L9.4,7.032ZM9.394,40.074C16.215,44.636 24.937,46.771 33.409,46.771C41.88,46.771 50.602,44.636 57.423,40.074L52.118,32.142C47.194,35.435 40.427,37.227 33.409,37.227C26.391,37.227 19.624,35.435 14.699,32.142L9.394,40.074ZM57.418,40.078C63.588,35.965 67.305,30.064 67.305,23.555C67.305,17.046 63.588,11.145 57.418,7.032L52.124,14.972C56.304,17.759 57.762,20.961 57.762,23.555C57.762,26.149 56.304,29.351 52.124,32.138L57.418,40.078ZM57.418,7.032C50.627,2.505 41.904,0.394 33.436,0.394C24.967,0.394 16.232,2.506 9.411,7.024L14.682,14.98C19.607,11.717 26.398,9.938 33.436,9.938C40.476,9.938 47.242,11.718 52.124,14.972L57.418,7.032Z" fill="#01008A"/>
</svg>
