<svg width="22" height="22" viewBox="0 0 22 22" fill="none" xmlns="http://www.w3.org/2000/svg" xmlns:xlink="http://www.w3.org/1999/xlink">
<path d="M12.58,2.15C12.58,0.856 11.532,-0.191 10.238,-0.191C8.945,-0.191 7.897,0.856 7.897,2.15L7.897,7.674L2.393,7.674C1.1,7.674 0.052,8.721 0.052,10.015C0.052,11.309 1.1,12.356 2.393,12.356L7.897,12.356L7.897,17.86C7.897,19.154 8.945,20.202 10.238,20.202C11.532,20.202 12.58,19.154 12.58,17.86L12.58,12.356L18.083,12.356C19.377,12.356 20.425,11.309 20.425,10.015C20.425,8.721 19.377,7.674 18.083,7.674L12.58,7.674L12.58,2.15Z" clip-rule="evenodd" fill-rule="evenodd" fill="#8B8AEA"/>
</svg>
