<svg width="14" height="14" viewBox="0 0 14 14" fill="none" xmlns="http://www.w3.org/2000/svg" xmlns:xlink="http://www.w3.org/1999/xlink">
<path d="M7.001,0C7.133,0 7.263,0.037 7.375,0.107C7.488,0.176 7.578,0.276 7.637,0.395L9.415,4L13.393,4.578C13.524,4.597 13.647,4.652 13.748,4.737C13.849,4.823 13.924,4.934 13.965,5.06C14.006,5.186 14.011,5.321 13.979,5.449C13.948,5.577 13.881,5.694 13.786,5.787L10.908,8.593L11.587,12.554C11.61,12.684 11.595,12.818 11.546,12.941C11.496,13.063 11.413,13.17 11.306,13.247C11.199,13.325 11.072,13.371 10.94,13.381C10.808,13.39 10.676,13.363 10.559,13.301L7.001,11.431L3.442,13.301C3.325,13.363 3.194,13.39 3.062,13.381C2.93,13.371 2.803,13.325 2.697,13.247C2.59,13.17 2.507,13.064 2.457,12.941C2.407,12.819 2.392,12.685 2.414,12.555L3.095,8.592L0.215,5.787C0.12,5.694 0.053,5.577 0.021,5.449C-0.011,5.32 -0.006,5.185 0.035,5.06C0.076,4.934 0.151,4.822 0.252,4.736C0.354,4.651 0.477,4.596 0.608,4.577L4.586,4L6.365,0.395C6.424,0.276 6.514,0.176 6.627,0.107C6.739,0.037 6.869,0 7.001,0ZM7.001,2.31L5.692,4.961C5.641,5.064 5.566,5.153 5.474,5.22C5.381,5.288 5.273,5.332 5.159,5.348L2.233,5.773L4.35,7.837C4.432,7.917 4.493,8.016 4.529,8.126C4.565,8.235 4.573,8.351 4.554,8.464L4.055,11.379L6.671,10.003C6.773,9.949 6.886,9.921 7.001,9.921C7.116,9.921 7.229,9.949 7.331,10.003L9.948,11.379L9.447,8.464C9.428,8.351 9.436,8.235 9.472,8.126C9.507,8.016 9.569,7.917 9.651,7.837L11.768,5.774L8.843,5.349C8.729,5.333 8.621,5.289 8.528,5.221C8.435,5.154 8.36,5.065 8.31,4.962L7.001,2.309L7.001,2.31Z" clip-rule="evenodd" fill-rule="evenodd" fill="#01008A" stroke="#01008A" stroke-width="0.2" stroke-miterlimit="3.999327"/>
</svg>
