<svg width="6" height="8" viewBox="0 0 6 8" fill="none" xmlns="http://www.w3.org/2000/svg" xmlns:xlink="http://www.w3.org/1999/xlink">
<path d="M0.141,4.688C-0.233,4.625 -0.588,4.878 -0.651,5.252C-0.714,5.627 -0.461,5.982 -0.087,6.045L0.141,4.688ZM3.642,4.706L3.26,4.133L3.259,4.134L3.642,4.706ZM3.642,1.568L4.024,0.996L4.023,0.995L3.642,1.568ZM-0.119,0.239C-0.493,0.305 -0.743,0.661 -0.678,1.035C-0.612,1.41 -0.256,1.66 0.119,1.594L-0.119,0.239ZM-0.087,6.045C1.305,6.279 2.877,6.046 4.025,5.277L3.259,4.134C2.462,4.668 1.263,4.876 0.141,4.688L-0.087,6.045ZM4.024,5.278C4.814,4.751 5.3,3.988 5.3,3.137C5.3,2.286 4.814,1.522 4.024,0.996L3.26,2.141C3.764,2.476 3.924,2.85 3.924,3.137C3.924,3.423 3.764,3.798 3.26,4.133L4.024,5.278ZM4.023,0.995C2.866,0.228 1.276,-0.005 -0.119,0.239L0.119,1.594C1.238,1.398 2.455,1.606 3.262,2.141L4.023,0.995Z" transform="rotate(360 2.306 3.139)" fill="#01008A"/>
</svg>
