<svg width="10" height="10" viewBox="0 0 10 10" fill="none" xmlns="http://www.w3.org/2000/svg" xmlns:xlink="http://www.w3.org/1999/xlink">
<path d="M4.808,7.538L4.647,8.506C4.712,8.517 4.778,8.521 4.844,8.519L4.808,7.538ZM4.56,7.538L4.524,8.519C4.59,8.521 4.656,8.517 4.721,8.506L4.56,7.538ZM8.067,4.162L9.048,4.169L9.048,4.162L8.067,4.162ZM4.97,6.57C4.784,6.539 4.584,6.539 4.398,6.57L4.721,8.506C4.701,8.51 4.69,8.51 4.684,8.51C4.678,8.51 4.666,8.51 4.647,8.506L4.97,6.57ZM4.595,6.557C3.317,6.511 2.296,5.465 2.296,4.162L0.333,4.162C0.333,6.523 2.191,8.434 4.524,8.519L4.595,6.557ZM2.296,4.162C2.296,2.833 3.361,1.768 4.69,1.768L4.69,-0.195C2.277,-0.195 0.333,1.749 0.333,4.162L2.296,4.162ZM4.69,1.768C6.017,1.768 7.085,2.844 7.085,4.162L9.048,4.162C9.048,1.765 7.106,-0.195 4.69,-0.195L4.69,1.768ZM7.085,4.155C7.076,5.465 6.05,6.511 4.773,6.557L4.844,8.519C7.178,8.434 9.031,6.523 9.048,4.169L7.085,4.155Z" fill="#01008A"/>
</svg>
