<svg width="32" height="36" viewBox="0 0 32 36" fill="none" xmlns="http://www.w3.org/2000/svg" xmlns:xlink="http://www.w3.org/1999/xlink">
<path d="M26.756,10.033C23.883,7.16 20.063,5.578 16,5.578L13.77,5.578L17.349,1.989L15.355,0L8.384,6.988L15.264,13.984L17.272,12.008L13.718,8.395L16,8.395C22.834,8.395 28.395,13.955 28.395,20.789C28.395,27.624 22.834,33.184 16,33.184C9.166,33.184 3.605,27.623 3.605,20.789L3.605,19.38L0.789,19.381L0.789,20.789C0.789,24.852 2.371,28.672 5.244,31.545C8.117,34.418 11.937,36.001 16,36.001C20.063,36.001 23.883,34.418 26.756,31.545C29.629,28.672 31.211,24.852 31.211,20.789C31.211,16.726 29.629,12.906 26.756,10.033Z" fill="#F1A63D"/>
</svg>
