<svg width="14" height="14" viewBox="0 0 14 14" fill="none" xmlns="http://www.w3.org/2000/svg" xmlns:xlink="http://www.w3.org/1999/xlink">
<path d="M8.108,1.743C8.108,0.96 7.473,0.325 6.69,0.325C5.906,0.325 5.272,0.96 5.272,1.743L5.272,5.077L1.926,5.077C1.142,5.077 0.508,5.711 0.508,6.495C0.508,7.278 1.142,7.913 1.926,7.913L5.259,7.913L5.259,11.246C5.259,12.03 5.893,12.664 6.677,12.664C7.461,12.664 8.095,12.03 8.095,11.246L8.095,7.913L11.429,7.913C12.212,7.913 12.847,7.278 12.847,6.495C12.847,5.711 12.212,5.077 11.429,5.077L8.108,5.077L8.108,1.743Z" clip-rule="evenodd" fill-rule="evenodd" fill="#8B8AEA"/>
</svg>
