<svg width="10" height="10" viewBox="0 0 10 10" fill="none" xmlns="http://www.w3.org/2000/svg" xmlns:xlink="http://www.w3.org/1999/xlink">
<path d="M5.427,7.538L5.266,8.506C5.331,8.517 5.397,8.521 5.463,8.519L5.427,7.538ZM5.179,7.538L5.143,8.519C5.209,8.521 5.275,8.517 5.34,8.506L5.179,7.538ZM8.686,4.162L9.667,4.169L9.667,4.162L8.686,4.162ZM5.589,6.57C5.403,6.539 5.203,6.539 5.017,6.57L5.34,8.506C5.321,8.51 5.309,8.51 5.303,8.51C5.297,8.51 5.285,8.51 5.266,8.506L5.589,6.57ZM5.214,6.557C3.936,6.511 2.915,5.465 2.915,4.162L0.952,4.162C0.952,6.523 2.81,8.434 5.143,8.519L5.214,6.557ZM2.915,4.162C2.915,2.833 3.98,1.768 5.31,1.768L5.31,-0.195C2.896,-0.195 0.952,1.749 0.952,4.162L2.915,4.162ZM5.31,1.768C6.636,1.768 7.704,2.844 7.704,4.162L9.667,4.162C9.667,1.765 7.725,-0.195 5.31,-0.195L5.31,1.768ZM7.704,4.155C7.695,5.465 6.669,6.511 5.392,6.557L5.463,8.519C7.797,8.434 9.65,6.523 9.667,4.169L7.704,4.155Z" transform="rotate(360 5.31 4.162)" fill="#01008A"/>
</svg>
