<svg width="582" height="78" viewBox="0 0 582 78" fill="none" xmlns="http://www.w3.org/2000/svg" xmlns:xlink="http://www.w3.org/1999/xlink">
<path d="M8.868,1.682L572.04,1.682L572.04,-0.176L8.868,-0.176L8.868,1.682ZM572.04,1.682C576.146,1.682 579.474,5.011 579.474,9.117L581.334,9.117C581.334,3.984 577.172,-0.176 572.04,-0.176L572.04,1.682ZM579.474,9.117L579.474,68.594L581.334,68.594L581.334,9.117L579.474,9.117ZM579.474,68.594C579.474,72.7 576.146,76.028 572.04,76.028L572.04,77.887C577.172,77.887 581.334,73.726 581.334,68.594L579.474,68.594ZM572.04,76.028L8.868,76.028L8.868,77.887L572.04,77.887L572.04,76.028ZM8.868,76.028C4.762,76.028 1.434,72.7 1.434,68.594L-0.425,68.594C-0.425,73.726 3.736,77.887 8.868,77.887L8.868,76.028ZM1.434,68.594L1.434,9.117L-0.425,9.117L-0.425,68.594L1.434,68.594ZM1.434,9.117C1.434,5.011 4.762,1.682 8.868,1.682L8.868,-0.176C3.736,-0.176 -0.425,3.984 -0.425,9.117L1.434,9.117Z" fill="#B5B5B5"/>
</svg>
