<svg width="88" height="94" viewBox="0 0 88 94" fill="none" xmlns="http://www.w3.org/2000/svg" xmlns:xlink="http://www.w3.org/1999/xlink">
<path d="M30.222,32.762C32.013,30.971 34.165,29.516 36.554,28.533C38.855,27.575 41.367,27.053 44.004,27.053C46.641,27.053 49.154,27.575 51.455,28.533C53.843,29.528 55.995,30.971 57.786,32.762C59.577,34.553 61.033,36.705 62.015,39.093C62.973,41.395 63.495,43.907 63.495,46.544C63.495,49.181 62.973,51.694 62.015,54.007C61.02,56.395 59.577,58.547 57.786,60.338C55.995,62.13 53.843,63.585 51.455,64.568C49.154,65.525 46.629,66.048 43.992,66.048C41.355,66.048 38.842,65.525 36.541,64.568C34.153,63.572 32.001,62.13 30.21,60.338C28.419,58.547 26.963,56.395 25.981,54.007C25.023,51.706 24.501,49.181 24.501,46.544C24.501,43.907 25.023,41.395 25.981,39.093C26.988,36.705 28.431,34.553 30.222,32.762ZM37.25,30.187C35.086,31.083 33.145,32.401 31.503,34.031C29.874,35.66 28.556,37.613 27.66,39.777C26.802,41.855 26.317,44.143 26.317,46.544C26.317,48.945 26.789,51.233 27.66,53.311C28.556,55.475 29.874,57.415 31.503,59.057C33.133,60.687 35.086,62.005 37.25,62.901C39.327,63.759 41.616,64.244 44.017,64.244C46.417,64.244 48.706,63.771 50.783,62.901C52.948,62.005 54.9,60.687 56.53,59.057C58.159,57.428 59.478,55.475 60.373,53.311C61.232,51.233 61.717,48.945 61.717,46.544C61.717,44.143 61.244,41.855 60.373,39.777C59.478,37.613 58.159,35.673 56.53,34.031C54.9,32.401 52.948,31.083 50.783,30.187C48.706,29.329 46.417,28.844 44.017,28.844C41.616,28.856 39.327,29.329 37.25,30.187ZM35.098,15.833C33.879,16.181 32.673,16.617 31.503,17.114C30.309,17.624 29.165,18.197 28.058,18.843C26.926,19.49 25.844,20.212 24.799,20.995C23.754,21.779 22.759,22.625 21.826,23.533C21.49,23.856 21.08,24.043 20.657,24.092C20.222,24.142 19.774,24.055 19.388,23.831C16.527,22.177 13.517,20.535 10.706,18.818C10.569,18.744 10.432,18.706 10.283,18.694C10.122,18.682 9.96,18.694 9.798,18.731C9.636,18.769 9.487,18.843 9.363,18.943C9.238,19.042 9.126,19.154 9.052,19.304C6.962,22.463 4.872,26.543 2.932,29.889C2.845,30.038 2.795,30.187 2.783,30.337C2.758,30.498 2.77,30.66 2.82,30.834C2.857,30.996 2.932,31.145 3.032,31.27C3.131,31.394 3.243,31.506 3.392,31.58C5.967,33.285 9.288,34.989 12.025,36.568C12.423,36.805 12.721,37.141 12.883,37.539C12.945,37.675 12.982,37.812 13.007,37.961L13.181,38.024L12.982,38.832C12.821,39.467 12.684,40.101 12.572,40.723C12.46,41.332 12.36,41.979 12.286,42.651C12.211,43.298 12.149,43.944 12.112,44.591C12.074,45.213 12.049,45.872 12.049,46.557C12.049,47.241 12.074,47.887 12.112,48.522C12.149,49.169 12.211,49.815 12.286,50.462C12.36,51.134 12.46,51.768 12.572,52.39C12.684,53.025 12.821,53.659 12.982,54.293C13.094,54.766 13.045,55.226 12.858,55.637C12.671,56.047 12.348,56.383 11.938,56.594L4.3,61.01L3.392,61.533C3.243,61.62 3.131,61.719 3.032,61.843C2.932,61.968 2.857,62.117 2.82,62.279C2.77,62.441 2.758,62.615 2.783,62.776C2.808,62.926 2.857,63.087 2.932,63.224L8.592,73.026L9.052,73.822C9.139,73.971 9.238,74.083 9.363,74.183C9.487,74.282 9.649,74.357 9.798,74.394C9.96,74.431 10.134,74.444 10.283,74.431C10.432,74.419 10.594,74.357 10.731,74.282C13.467,72.566 16.552,70.924 19.376,69.294C19.774,69.07 20.222,68.983 20.645,69.033C21.08,69.083 21.49,69.269 21.814,69.58C22.747,70.476 23.742,71.334 24.787,72.118C25.831,72.901 26.914,73.623 28.033,74.27C29.153,74.916 30.309,75.489 31.503,75.999C32.685,76.496 33.904,76.931 35.16,77.292C35.608,77.417 35.969,77.678 36.23,78.026C36.491,78.374 36.641,78.81 36.641,79.257L36.641,89.221C36.641,89.382 36.678,89.544 36.728,89.693C36.79,89.843 36.877,89.98 37.001,90.091C37.113,90.203 37.25,90.303 37.399,90.365C37.536,90.427 37.698,90.452 37.872,90.452L50.112,90.452C50.273,90.452 50.435,90.415 50.584,90.365C50.733,90.303 50.87,90.203 50.982,90.091C51.094,89.967 51.194,89.83 51.256,89.681C51.318,89.544 51.343,89.382 51.343,89.208L51.343,79.233C51.343,78.76 51.505,78.325 51.791,77.964C52.077,77.603 52.475,77.342 52.923,77.242C54.142,76.894 55.348,76.459 56.517,75.961C57.712,75.451 58.856,74.879 59.975,74.232C61.095,73.585 62.189,72.864 63.222,72.08C64.267,71.297 65.262,70.451 66.195,69.543C66.543,69.207 66.978,69.021 67.426,68.983C67.886,68.946 68.346,69.045 68.732,69.307L77.265,74.232C77.402,74.319 77.563,74.369 77.713,74.382C77.874,74.406 78.036,74.382 78.21,74.344C78.372,74.307 78.521,74.232 78.646,74.133C78.77,74.033 78.882,73.921 78.957,73.772C80.984,70.24 83.049,66.719 85.076,63.174C85.163,63.038 85.213,62.876 85.226,62.727C85.25,62.565 85.238,62.403 85.188,62.242C85.151,62.08 85.076,61.931 84.977,61.806C84.89,61.682 84.765,61.57 84.629,61.495L75.996,56.507C75.598,56.283 75.3,55.935 75.138,55.537C75.088,55.438 75.063,55.326 75.026,55.214L74.802,55.164L75.026,54.244C75.188,53.609 75.325,52.975 75.436,52.353C75.548,51.743 75.648,51.097 75.723,50.425C75.797,49.766 75.859,49.119 75.897,48.484C75.934,47.863 75.959,47.203 75.959,46.519C75.959,45.835 75.934,45.188 75.897,44.566C75.859,43.932 75.797,43.273 75.723,42.626C75.635,41.954 75.536,41.307 75.424,40.698C75.312,40.064 75.175,39.442 75.014,38.807C74.902,38.335 74.951,37.862 75.138,37.451C75.325,37.053 75.648,36.705 76.058,36.494L84.604,31.556C84.741,31.481 84.865,31.369 84.964,31.245C85.064,31.12 85.139,30.971 85.176,30.809C85.213,30.648 85.226,30.486 85.213,30.324C85.188,30.175 85.139,30.013 85.064,29.876C82.974,26.767 80.885,22.625 78.944,19.279C78.857,19.129 78.758,19.017 78.633,18.918C78.509,18.818 78.36,18.744 78.198,18.707C78.036,18.657 77.862,18.644 77.7,18.669C77.551,18.694 77.389,18.744 77.252,18.818L68.608,23.806C68.197,24.043 67.749,24.117 67.314,24.068C66.879,24.005 66.468,23.806 66.145,23.495C65.212,22.587 64.217,21.754 63.184,20.97C62.152,20.199 61.07,19.478 59.95,18.831C58.831,18.184 57.674,17.612 56.48,17.102C55.298,16.604 54.079,16.169 52.823,15.808C52.375,15.684 52.015,15.423 51.753,15.074C51.492,14.726 51.343,14.291 51.343,13.843L51.343,3.867C51.343,3.706 51.306,3.544 51.256,3.395C51.194,3.245 51.107,3.109 50.982,2.997C50.87,2.885 50.733,2.785 50.584,2.723C50.435,2.661 50.286,2.636 50.112,2.636L37.872,2.636C37.698,2.636 37.549,2.673 37.399,2.723C37.25,2.785 37.113,2.885 36.989,2.997C36.765,3.22 36.628,3.531 36.628,3.867L36.628,13.843C36.628,14.316 36.466,14.763 36.193,15.112C35.944,15.472 35.546,15.734 35.098,15.833ZM30.794,15.46C29.538,15.995 28.319,16.604 27.15,17.289C25.956,17.973 24.812,18.744 23.717,19.565C22.622,20.386 21.577,21.281 20.582,22.239C20.545,22.276 20.495,22.301 20.446,22.301C20.396,22.301 20.334,22.301 20.296,22.276C17.386,20.597 14.487,18.93 11.577,17.251C11.229,17.065 10.855,16.953 10.482,16.903C10.097,16.853 9.711,16.89 9.338,16.99C8.952,17.089 8.592,17.276 8.268,17.512C7.957,17.749 7.696,18.047 7.485,18.408C5.382,21.816 3.38,25.51 1.365,28.993C1.166,29.354 1.029,29.727 0.992,30.125C0.942,30.523 0.967,30.934 1.066,31.307C1.166,31.692 1.34,32.053 1.589,32.377C1.825,32.688 2.124,32.949 2.484,33.16C5.258,34.877 8.281,36.506 11.117,38.148C11.166,38.173 11.191,38.21 11.216,38.26C11.241,38.31 11.241,38.359 11.229,38.409L11.03,39.218L11.042,39.218C10.955,39.603 10.88,40.001 10.806,40.412C10.681,41.096 10.582,41.78 10.495,42.452C10.42,43.111 10.358,43.795 10.308,44.504C10.271,45.213 10.246,45.897 10.246,46.569C10.246,47.241 10.271,47.925 10.308,48.634C10.345,49.343 10.408,50.027 10.495,50.686C10.582,51.358 10.681,52.029 10.806,52.726C10.93,53.41 11.079,54.082 11.241,54.729C11.253,54.778 11.253,54.841 11.229,54.89C11.204,54.94 11.166,54.99 11.117,55.002C7.945,56.694 4.723,58.697 1.589,60.5L1.701,60.637L1.601,60.761C1.352,61.085 1.178,61.445 1.079,61.831C0.979,62.204 0.942,62.615 1.004,63.013C1.054,63.398 1.178,63.784 1.39,64.145L7.957,75.526L8.082,75.451C8.144,75.513 8.218,75.563 8.281,75.625C8.604,75.874 8.965,76.048 9.35,76.148C9.723,76.247 10.134,76.272 10.532,76.222C10.905,76.173 11.278,76.061 11.627,75.862C14.5,74.332 17.46,72.491 20.296,70.849C20.334,70.824 20.396,70.824 20.446,70.824C20.495,70.837 20.545,70.849 20.582,70.886C21.577,71.844 22.622,72.74 23.717,73.561C24.812,74.382 25.956,75.14 27.15,75.837C28.332,76.521 29.563,77.13 30.819,77.665C32.076,78.2 33.369,78.66 34.688,79.034C34.737,79.046 34.787,79.083 34.812,79.121C34.849,79.17 34.862,79.22 34.862,79.27L34.862,89.233C34.862,89.644 34.949,90.029 35.098,90.39C35.247,90.763 35.484,91.099 35.757,91.373C36.031,91.659 36.367,91.883 36.74,92.032C37.101,92.181 37.486,92.268 37.897,92.268L50.136,92.268C50.547,92.268 50.932,92.181 51.293,92.032C51.666,91.883 52.002,91.646 52.276,91.373C52.55,91.099 52.786,90.763 52.935,90.39C53.084,90.029 53.171,89.631 53.171,89.233L53.171,79.257C53.171,79.195 53.184,79.146 53.221,79.108C53.259,79.071 53.296,79.034 53.358,79.021L53.395,79.009C54.726,78.623 56.007,78.175 57.239,77.64C58.495,77.106 59.714,76.496 60.883,75.812C62.077,75.128 63.222,74.357 64.316,73.536C65.411,72.715 66.456,71.819 67.451,70.861C67.488,70.824 67.538,70.799 67.588,70.799C67.637,70.799 67.7,70.812 67.737,70.837L76.369,75.824C76.73,76.023 77.103,76.148 77.489,76.198C77.887,76.247 78.297,76.222 78.67,76.123C79.056,76.023 79.417,75.849 79.74,75.601C80.039,75.377 80.3,75.078 80.511,74.73C82.775,71.085 84.927,67.093 87.091,63.336L86.979,63.261C87.004,63.162 87.017,63.075 87.029,62.975C87.079,62.577 87.054,62.167 86.955,61.794C86.855,61.408 86.668,61.047 86.432,60.724C86.196,60.413 85.897,60.152 85.549,59.94L76.917,54.965C76.867,54.94 76.842,54.903 76.817,54.853C76.792,54.803 76.792,54.754 76.805,54.704L77.029,53.796L77.016,53.796C77.091,53.435 77.165,53.074 77.228,52.714C77.352,52.029 77.464,51.345 77.539,50.674C77.626,50.014 77.688,49.33 77.725,48.621C77.762,47.912 77.787,47.228 77.787,46.557C77.787,45.885 77.762,45.201 77.725,44.492C77.688,43.783 77.626,43.099 77.539,42.439C77.464,41.78 77.352,41.096 77.228,40.399C77.103,39.715 76.954,39.044 76.792,38.397C76.78,38.347 76.792,38.285 76.805,38.235C76.83,38.185 76.867,38.148 76.917,38.123L85.537,33.148C85.897,32.936 86.196,32.675 86.42,32.364C86.668,32.041 86.843,31.68 86.942,31.294C87.042,30.921 87.067,30.511 87.017,30.113C86.967,29.74 86.843,29.366 86.656,29.018C84.604,25.212 82.24,21.368 80.064,17.599L79.939,17.674C79.877,17.612 79.802,17.562 79.74,17.5C79.417,17.251 79.056,17.077 78.67,16.978C78.285,16.878 77.887,16.853 77.489,16.903C77.103,16.953 76.718,17.077 76.369,17.276L75.76,17.649L67.749,22.276C67.7,22.301 67.65,22.314 67.6,22.301C67.55,22.301 67.501,22.276 67.463,22.239L67.438,22.214C66.456,21.269 65.411,20.386 64.316,19.552C63.222,18.731 62.077,17.973 60.896,17.289C59.714,16.604 58.483,15.995 57.226,15.46C55.97,14.925 54.677,14.465 53.358,14.092C53.308,14.079 53.259,14.042 53.234,14.005C53.196,13.955 53.184,13.905 53.184,13.855L53.184,3.88C53.184,3.469 53.097,3.084 52.948,2.723C52.786,2.35 52.562,2.014 52.288,1.74C52.002,1.467 51.679,1.23 51.306,1.081C50.945,0.932 50.547,0.845 50.149,0.845L37.909,0.845C37.499,0.845 37.113,0.932 36.753,1.081C36.379,1.23 36.044,1.467 35.77,1.74C35.223,2.288 34.874,3.046 34.874,3.892L34.874,13.868C34.874,13.93 34.849,13.98 34.825,14.017C34.787,14.054 34.75,14.079 34.688,14.104L34.65,14.117C33.307,14.477 32.026,14.938 30.794,15.46Z" clip-rule="evenodd" fill-rule="evenodd" fill="#8B8AEA"/>
</svg>
