<svg width="36" height="36" viewBox="0 0 36 36" fill="none" xmlns="http://www.w3.org/2000/svg" xmlns:xlink="http://www.w3.org/1999/xlink">
<path d="M23.311,10.309C23.897,9.724 23.897,8.774 23.311,8.188C22.725,7.602 21.775,7.602 21.19,8.188L23.311,10.309ZM9.788,23.249L8.288,23.249L9.788,23.249ZM13.5,26.961L13.5,28.461L13.5,26.961ZM29.675,9.249L28.175,9.249L29.675,9.249ZM22.25,1.824L22.25,3.324L22.25,1.824ZM17,3.999L18.061,5.059L18.061,5.059L17,3.999ZM5.625,15.374L4.565,14.313L4.565,14.313L5.625,15.374ZM2.363,23.249L3.863,23.249L2.363,23.249ZM13.5,34.386L13.5,32.886L13.5,34.386ZM21.375,31.124L22.436,32.184L22.436,32.184L21.375,31.124ZM33.811,20.809C34.397,20.224 34.397,19.274 33.811,18.688C33.225,18.102 32.275,18.102 31.689,18.688L33.811,20.809ZM21.19,8.188L9.815,19.563L11.936,21.684L23.311,10.309L21.19,8.188ZM9.815,19.563C8.837,20.541 8.288,21.866 8.288,23.249L11.288,23.249C11.288,22.662 11.521,22.099 11.936,21.684L9.815,19.563ZM8.288,23.249C8.288,24.631 8.837,25.957 9.815,26.934L11.936,24.813C11.521,24.398 11.288,23.836 11.288,23.249L8.288,23.249ZM9.815,26.934C10.792,27.912 12.118,28.461 13.5,28.461L13.5,25.461C12.913,25.461 12.351,25.228 11.936,24.813L9.815,26.934ZM13.5,28.461C14.883,28.461 16.208,27.912 17.186,26.934L15.065,24.813C14.65,25.228 14.087,25.461 13.5,25.461L13.5,28.461ZM17.186,26.934L28.561,15.559L26.439,13.438L15.065,24.813L17.186,26.934ZM28.561,15.559C30.234,13.886 31.175,11.616 31.175,9.249L28.175,9.249C28.175,10.82 27.551,12.327 26.439,13.438L28.561,15.559ZM31.175,9.249C31.175,6.882 30.234,4.612 28.561,2.938L26.439,5.059C27.551,6.171 28.175,7.678 28.175,9.249L31.175,9.249ZM28.561,2.938C26.887,1.264 24.617,0.324 22.25,0.324L22.25,3.324C23.821,3.324 25.328,3.948 26.439,5.059L28.561,2.938ZM22.25,0.324C19.883,0.324 17.613,1.264 15.94,2.938L18.061,5.059C19.172,3.948 20.679,3.324 22.25,3.324L22.25,0.324ZM15.94,2.938L4.565,14.313L6.686,16.434L18.061,5.059L15.94,2.938ZM4.565,14.313C2.195,16.683 0.863,19.897 0.863,23.249L3.863,23.249C3.863,20.693 4.879,18.242 6.686,16.434L4.565,14.313ZM0.863,23.249C0.863,26.6 2.195,29.815 4.565,32.184L6.686,30.063C4.879,28.256 3.863,25.805 3.863,23.249L0.863,23.249ZM4.565,32.184C6.934,34.554 10.149,35.886 13.5,35.886L13.5,32.886C10.944,32.886 8.493,31.87 6.686,30.063L4.565,32.184ZM13.5,35.886C16.852,35.886 20.066,34.554 22.436,32.184L20.315,30.063C18.507,31.87 16.056,32.886 13.5,32.886L13.5,35.886ZM22.436,32.184L33.811,20.809L31.689,18.688L20.315,30.063L22.436,32.184Z" fill="#707070"/>
</svg>
