<svg width="564" height="432" viewBox="0 0 564 432" fill="none" xmlns="http://www.w3.org/2000/svg" xmlns:xlink="http://www.w3.org/1999/xlink">
<g opacity="0.2">
<path d="M539.302,397.227C598.026,349.035 526.37,245.597 526.37,245.597C526.37,245.597 374.88,221.613 362.074,200.58C349.266,179.546 495.596,195.791 495.596,195.791C480.352,150.727 377.906,64.481 377.906,64.481C377.906,64.481 244.516,132.86 237.274,109.312C230.034,85.771 358.48,54.794 358.48,54.794C327.138,18.641 260.838,1.565 260.838,1.565C159.495,-11.474 147.985,119.332 147.985,119.332C147.985,119.332 101.245,142.035 33.758,137.215C33.758,137.215 20.757,135.127 0.686,136.081L5.808,147.475C9.285,147.033 12.7,146.73 16.046,146.591C16.069,146.583 16.085,146.583 16.108,146.591C16.154,146.591 16.201,146.591 16.255,146.583C18.366,146.575 21.378,146.567 25.057,146.591C25.057,146.591 25.065,146.591 25.072,146.591C25.08,146.591 25.08,146.591 25.088,146.591C33.47,147.01 39.563,147.095 43.863,146.948C43.879,146.948 43.887,146.948 43.902,146.948C69.989,147.755 104.613,150.246 114.967,157.635C114.967,157.635 116.17,155.578 119.096,152.846C117.777,154.375 116.411,155.967 114.967,157.635C81.949,195.939 118.848,296.591 154.435,345.907C190.022,395.225 194.694,364.651 206.398,324.207C218.112,283.761 183.983,225.417 185.59,202.915C187.196,180.423 208.852,202.505 222.364,239.977C235.87,277.451 207.796,311.857 228.542,372.871C249.29,433.893 379.396,428.965 379.396,428.965C348.684,394.201 338.392,311.733 351.068,302.683C363.742,293.633 410.606,401.527 422.302,416.367C433.984,431.199 480.576,445.419 539.302,397.227Z" fill="#AFCDFB"/>
</g>
</svg>
