<svg width="22" height="22" viewBox="0 0 22 22" fill="none" xmlns="http://www.w3.org/2000/svg" xmlns:xlink="http://www.w3.org/1999/xlink">
<path d="M-0.057,-0.037C0.235,-0.329 0.63,-0.492 1.042,-0.492C1.454,-0.492 1.849,-0.329 2.141,-0.037L10.366,8.188L18.591,-0.037C18.734,-0.186 18.905,-0.304 19.095,-0.386C19.285,-0.467 19.488,-0.51 19.695,-0.512C19.901,-0.513 20.106,-0.474 20.297,-0.396C20.488,-0.318 20.661,-0.202 20.807,-0.057C20.953,0.089 21.068,0.263 21.146,0.454C21.225,0.645 21.264,0.849 21.262,1.056C21.26,1.262 21.217,1.466 21.136,1.656C21.055,1.845 20.936,2.017 20.788,2.16L12.563,10.385L20.788,18.61C21.071,18.903 21.227,19.296 21.224,19.703C21.22,20.11 21.057,20.5 20.769,20.788C20.481,21.076 20.091,21.24 19.683,21.243C19.276,21.247 18.884,21.09 18.591,20.807L10.366,12.582L2.141,20.807C1.847,21.09 1.455,21.247 1.047,21.243C0.64,21.24 0.25,21.076 -0.038,20.788C-0.326,20.5 -0.489,20.11 -0.493,19.703C-0.496,19.296 -0.34,18.903 -0.057,18.61L8.168,10.385L-0.057,2.16C-0.348,1.869 -0.512,1.473 -0.512,1.061C-0.512,0.649 -0.348,0.254 -0.057,-0.037L-0.057,-0.037Z" clip-rule="evenodd" fill-rule="evenodd" fill="#FFFFFF" stroke="#FFFFFF" stroke-width="0.369" stroke-miterlimit="3.999327"/>
</svg>
