<svg width="30" height="20" viewBox="0 0 30 20" fill="none" xmlns="http://www.w3.org/2000/svg" xmlns:xlink="http://www.w3.org/1999/xlink">
<path d="M5.498,5.197L4.409,3.554L4.404,3.557L5.498,5.197ZM5.498,15.567L6.593,13.929L6.591,13.927L5.498,15.567ZM23.145,15.567L22.051,13.927L22.049,13.929L23.145,15.567ZM23.145,5.197L24.238,3.557L24.238,3.557L23.145,5.197ZM4.404,3.557C1.856,5.256 0.32,7.694 0.32,10.382C0.32,13.071 1.856,15.508 4.404,17.207L6.591,13.927C4.864,12.776 4.262,11.454 4.262,10.382C4.262,9.311 4.864,7.988 6.591,6.837L4.404,3.557ZM4.402,17.205C7.219,19.09 10.822,19.971 14.321,19.971C17.82,19.971 21.423,19.09 24.24,17.205L22.049,13.929C20.015,15.289 17.22,16.03 14.321,16.03C11.422,16.03 8.627,15.289 6.593,13.929L4.402,17.205ZM24.238,17.207C26.786,15.508 28.322,13.071 28.322,10.382C28.322,7.694 26.786,5.256 24.238,3.557L22.051,6.837C23.778,7.988 24.38,9.311 24.38,10.382C24.38,11.454 23.778,12.776 22.051,13.927L24.238,17.207ZM24.238,3.557C21.433,1.688 17.83,0.816 14.332,0.816C10.834,0.816 7.226,1.688 4.409,3.554L6.586,6.84C8.62,5.493 11.425,4.758 14.332,4.758C17.24,4.758 20.035,5.493 22.051,6.837L24.238,3.557Z" fill="#01008A"/>
</svg>
