<svg width="30" height="30" viewBox="0 0 30 30" fill="none" xmlns="http://www.w3.org/2000/svg" xmlns:xlink="http://www.w3.org/1999/xlink">
<path d="M0.648,0.72C1.116,0.253 1.75,-0.01 2.412,-0.01C3.073,-0.01 3.707,0.253 4.175,0.72L14.891,11.436L25.607,0.72C25.835,0.475 26.111,0.278 26.417,0.142C26.723,0.005 27.053,-0.068 27.389,-0.074C27.724,-0.08 28.056,-0.018 28.367,0.107C28.678,0.233 28.96,0.42 29.197,0.657C29.434,0.894 29.621,1.176 29.747,1.487C29.872,1.798 29.934,2.131 29.928,2.466C29.922,2.801 29.849,3.131 29.712,3.437C29.576,3.744 29.379,4.019 29.134,4.248L18.418,14.963L29.134,25.679C29.379,25.907 29.576,26.183 29.712,26.489C29.849,26.795 29.922,27.126 29.928,27.461C29.934,27.796 29.872,28.129 29.747,28.44C29.621,28.75 29.434,29.033 29.197,29.269C28.96,29.507 28.678,29.693 28.367,29.819C28.056,29.944 27.724,30.006 27.389,30C27.053,29.994 26.723,29.921 26.417,29.785C26.111,29.648 25.835,29.451 25.607,29.206L14.891,18.491L4.175,29.206C3.702,29.647 3.076,29.887 2.43,29.876C1.783,29.864 1.166,29.602 0.709,29.145C0.252,28.688 -0.01,28.071 -0.022,27.424C-0.033,26.778 0.207,26.152 0.648,25.679L11.363,14.963L0.648,4.248C0.181,3.78 -0.082,3.145 -0.082,2.484C-0.082,1.822 0.181,1.188 0.648,0.72Z" clip-rule="evenodd" fill-rule="evenodd" fill="#FFFFFF"/>
</svg>
