<svg width="16" height="14" viewBox="0 0 16 14" fill="none" xmlns="http://www.w3.org/2000/svg" xmlns:xlink="http://www.w3.org/1999/xlink">
<path d="M2.336,10.133C1.446,9.984 0.603,10.584 0.454,11.474C0.304,12.365 0.904,13.207 1.795,13.357L2.336,10.133ZM10.65,10.176L9.743,8.816L9.741,8.818L10.65,10.176ZM10.65,2.724L11.556,1.365L11.553,1.363L10.65,2.724ZM1.718,-0.432C0.829,-0.277 0.234,0.57 0.39,1.459C0.546,2.348 1.393,2.943 2.282,2.787L1.718,-0.432ZM1.795,13.357C5.1,13.912 8.834,13.36 11.559,11.534L9.741,8.818C7.847,10.087 5,10.581 2.336,10.133L1.795,13.357ZM11.556,11.536C13.433,10.285 14.588,8.472 14.588,6.45C14.588,4.429 13.433,2.616 11.556,1.365L9.743,4.084C10.939,4.881 11.32,5.77 11.32,6.45C11.32,7.131 10.939,8.02 9.743,8.816L11.556,11.536ZM11.553,1.363C8.808,-0.459 5.03,-1.013 1.718,-0.432L2.282,2.787C4.939,2.321 7.83,2.814 9.746,4.086L11.553,1.363Z" transform="rotate(360 7.477 6.455)" fill="#01008A"/>
</svg>
