<svg width="20" height="20" viewBox="0 0 20 20" fill="none" xmlns="http://www.w3.org/2000/svg" xmlns:xlink="http://www.w3.org/1999/xlink">
<path d="M10.321,17.646L9.997,19.59C10.123,19.611 10.251,19.62 10.379,19.616L10.321,17.646ZM9.745,17.646L9.674,19.615C9.806,19.62 9.939,19.612 10.069,19.59L9.745,17.646ZM17.871,9.823L19.842,9.837L19.842,9.823L17.871,9.823ZM10.645,15.702C10.249,15.636 9.818,15.636 9.421,15.702L10.069,19.59C10.054,19.592 10.045,19.593 10.041,19.594C10.036,19.594 10.034,19.594 10.033,19.594C10.033,19.594 10.03,19.594 10.026,19.594C10.022,19.593 10.013,19.592 9.997,19.59L10.645,15.702ZM9.817,15.676C6.691,15.563 4.196,13.006 4.196,9.823L0.255,9.823C0.255,15.13 4.431,19.426 9.674,19.615L9.817,15.676ZM4.196,9.823C4.196,6.575 6.801,3.971 10.049,3.971L10.049,0.029C4.624,0.029 0.255,4.398 0.255,9.823L4.196,9.823ZM10.049,3.971C13.291,3.971 15.901,6.601 15.901,9.823L19.842,9.823C19.842,4.434 15.478,0.029 10.049,0.029L10.049,3.971ZM15.901,9.809C15.878,13.018 13.363,15.586 10.264,15.676L10.379,19.616C15.648,19.463 19.805,15.118 19.842,9.837L15.901,9.809Z" fill="#01008A"/>
</svg>
