<svg width="688" height="94" viewBox="0 0 688 94" fill="none" xmlns="http://www.w3.org/2000/svg" xmlns:xlink="http://www.w3.org/1999/xlink">
<path d="M10.976,3.098L676.122,3.098L676.122,0.902L10.976,0.902L10.976,3.098ZM676.122,3.098C680.972,3.098 684.902,7.029 684.902,11.878L687.098,11.878C687.098,5.817 682.184,0.902 676.122,0.902L676.122,3.098ZM684.902,11.878L684.902,82.125L687.098,82.125L687.098,11.878L684.902,11.878ZM684.902,82.125C684.902,86.974 680.972,90.906 676.122,90.906L676.122,93.101C682.184,93.101 687.098,88.187 687.098,82.125L684.902,82.125ZM676.122,90.906L10.976,90.906L10.976,93.101L676.122,93.101L676.122,90.906ZM10.976,90.906C6.127,90.906 2.195,86.974 2.195,82.125L0,82.125C0,88.187 4.914,93.101 10.976,93.101L10.976,90.906ZM2.195,82.125L2.195,11.878L0,11.878L0,82.125L2.195,82.125ZM2.195,11.878C2.195,7.029 6.127,3.098 10.976,3.098L10.976,0.902C4.914,0.902 0,5.817 0,11.878L2.195,11.878Z" fill="#B5B5B5"/>
</svg>
