<svg width="26" height="28" viewBox="0 0 26 28" fill="none" xmlns="http://www.w3.org/2000/svg" xmlns:xlink="http://www.w3.org/1999/xlink">
<path d="M12.69,0.816C13.111,0.816 13.514,0.984 13.812,1.281C14.109,1.579 14.276,1.982 14.276,2.403L14.276,11.92L23.794,11.92C24.215,11.92 24.618,12.087 24.916,12.385C25.213,12.682 25.38,13.086 25.38,13.507C25.38,13.927 25.213,14.331 24.916,14.628C24.618,14.926 24.215,15.093 23.794,15.093L14.276,15.093L14.276,24.611C14.276,25.031 14.109,25.435 13.812,25.732C13.514,26.03 13.111,26.197 12.69,26.197C12.27,26.197 11.866,26.03 11.569,25.732C11.271,25.435 11.104,25.031 11.104,24.611L11.104,15.093L1.586,15.093C1.166,15.093 0.762,14.926 0.465,14.628C0.167,14.331 0,13.927 0,13.507C0,13.086 0.167,12.682 0.465,12.385C0.762,12.087 1.166,11.92 1.586,11.92L11.104,11.92L11.104,2.403C11.104,1.982 11.271,1.579 11.569,1.281C11.866,0.984 12.27,0.816 12.69,0.816L12.69,0.816Z" clip-rule="evenodd" fill-rule="evenodd" fill="#FFFFFF"/>
</svg>
