<svg width="22" height="22" viewBox="0 0 22 22" fill="none" xmlns="http://www.w3.org/2000/svg" xmlns:xlink="http://www.w3.org/1999/xlink">
<path d="M13.343,3.179C13.343,1.885 12.296,0.838 11.002,0.838C9.708,0.838 8.661,1.885 8.661,3.179L8.661,8.683L3.157,8.683C1.863,8.683 0.816,9.73 0.816,11.024C0.816,12.318 1.863,13.365 3.157,13.365L8.661,13.365L8.661,18.869C8.661,20.163 9.708,21.21 11.002,21.21C12.296,21.21 13.343,20.163 13.343,18.869L13.343,13.365L18.847,13.365C20.141,13.365 21.188,12.318 21.188,11.024C21.188,9.73 20.141,8.683 18.847,8.683L13.343,8.683L13.343,3.179Z" clip-rule="evenodd" fill-rule="evenodd" fill="#8B8AEA"/>
</svg>
