<svg width="50" height="62" viewBox="0 0 50 62" fill="none" xmlns="http://www.w3.org/2000/svg" xmlns:xlink="http://www.w3.org/1999/xlink">
<path d="M1.047,12C2.647,8.8 7.714,8.666 10.047,9L10.047,0L40.047,0L40.047,10C41.047,9.333 43.847,8.6 47.047,11C51.047,14 50.047,20 48.047,22C46.447,23.6 42.047,25.333 40.047,26C39.247,33.2 31.713,37.667 28.047,39L28.047,46L41.047,46L45.047,56L48.047,57L48.047,62L2.047,62L2.047,56L5.047,56L9.047,46L20.047,46L21.047,43C22.047,41.667 22.847,38.6 18.047,37C12.047,35 12.047,32 11.047,29C10.047,26 8.047,24 4.047,23C0.047,22 -0.953,16 1.047,12Z" fill="#ECBD6C"/>
</svg>
