<svg width="28" height="26" viewBox="0 0 28 26" fill="none" xmlns="http://www.w3.org/2000/svg" xmlns:xlink="http://www.w3.org/1999/xlink">
<path d="M13.586,-0.449C14.036,-0.449 14.469,-0.27 14.788,0.049C15.107,0.368 15.286,0.8 15.286,1.251L15.286,10.885L24.92,10.885C25.371,10.885 25.803,11.064 26.122,11.383C26.441,11.702 26.62,12.135 26.62,12.586C26.62,13.036 26.441,13.469 26.122,13.788C25.803,14.107 25.371,14.286 24.92,14.286L15.286,14.286L15.286,23.92C15.286,24.371 15.107,24.803 14.788,25.122C14.469,25.441 14.036,25.62 13.586,25.62C13.135,25.62 12.702,25.441 12.383,25.122C12.064,24.803 11.885,24.371 11.885,23.92L11.885,14.286L2.251,14.286C1.8,14.286 1.368,14.107 1.049,13.788C0.73,13.469 0.551,13.036 0.551,12.586C0.551,12.135 0.73,11.702 1.049,11.383C1.368,11.064 1.8,10.885 2.251,10.885L11.885,10.885L11.885,1.251C11.885,0.8 12.064,0.368 12.383,0.049C12.702,-0.27 13.135,-0.449 13.586,-0.449Z" clip-rule="evenodd" fill-rule="evenodd" fill="#01008A"/>
</svg>
