<svg width="14" height="14" viewBox="0 0 14 14" fill="none" xmlns="http://www.w3.org/2000/svg" xmlns:xlink="http://www.w3.org/1999/xlink">
<path d="M1.326,10.133C0.436,9.984 -0.407,10.584 -0.556,11.474C-0.705,12.365 -0.105,13.207 0.785,13.357L1.326,10.133ZM9.64,10.176L8.734,8.816L8.731,8.818L9.64,10.176ZM9.64,2.724L10.547,1.365L10.544,1.363L9.64,2.724ZM0.708,-0.432C-0.181,-0.277 -0.775,0.57 -0.619,1.459C-0.464,2.348 0.383,2.943 1.272,2.787L0.708,-0.432ZM0.785,13.357C4.09,13.912 7.824,13.36 10.55,11.534L8.731,8.818C6.838,10.087 3.991,10.581 1.326,10.133L0.785,13.357ZM10.547,11.536C12.424,10.285 13.579,8.472 13.579,6.45C13.579,4.429 12.424,2.616 10.547,1.365L8.734,4.084C9.929,4.881 10.31,5.77 10.31,6.45C10.31,7.131 9.929,8.02 8.734,8.816L10.547,11.536ZM10.544,1.363C7.798,-0.459 4.021,-1.013 0.708,-0.432L1.272,2.787C3.93,2.321 6.82,2.814 8.737,4.086L10.544,1.363Z" fill="#01008A"/>
</svg>
