<svg width="38" height="40" viewBox="0 0 38 40" fill="none" xmlns="http://www.w3.org/2000/svg" xmlns:xlink="http://www.w3.org/1999/xlink">
<path d="M12.065,13.536C13.57,12.044 15.635,11.111 17.923,11.111C20.212,11.111 22.277,12.044 23.782,13.536C25.275,15.029 26.207,17.106 26.207,19.395C26.207,21.684 25.275,23.748 23.782,25.253C22.277,26.746 20.212,27.679 17.923,27.679C15.635,27.679 13.57,26.746 12.065,25.253C10.572,23.761 9.639,21.684 9.639,19.395C9.639,17.106 10.56,15.041 12.065,13.536ZM13.844,5.339C12.699,5.675 11.605,6.135 10.597,6.72C9.565,7.317 8.607,8.038 7.749,8.872C7.587,9.033 7.338,9.058 7.139,8.946L3.296,6.72L3.271,6.707C3.047,6.583 2.798,6.571 2.574,6.633C2.338,6.695 2.126,6.844 1.99,7.081L1.977,7.106L-0.722,11.795C-0.859,12.019 -0.884,12.28 -0.822,12.516C-0.759,12.753 -0.598,12.964 -0.374,13.101L-0.349,13.113L3.47,15.315C3.669,15.427 3.756,15.663 3.706,15.875C3.569,16.447 3.457,17.031 3.383,17.629C3.321,18.213 3.283,18.81 3.283,19.407C3.283,20.017 3.321,20.601 3.383,21.186C3.457,21.783 3.569,22.368 3.706,22.94C3.756,23.176 3.644,23.413 3.432,23.512L-0.374,25.714C-0.598,25.85 -0.747,26.062 -0.822,26.298C-0.884,26.535 -0.859,26.796 -0.722,27.02L2.002,31.734C2.139,31.958 2.35,32.107 2.587,32.182C2.823,32.244 3.084,32.219 3.308,32.095L3.333,32.082L7.152,29.881C7.351,29.769 7.599,29.806 7.761,29.955C8.619,30.776 9.577,31.498 10.61,32.107C11.63,32.692 12.724,33.164 13.868,33.488C14.092,33.55 14.242,33.761 14.242,33.973L14.242,38.413C14.242,38.675 14.354,38.911 14.528,39.085C14.702,39.259 14.938,39.371 15.199,39.371L20.647,39.371C20.909,39.371 21.145,39.259 21.319,39.085C21.493,38.911 21.605,38.675 21.605,38.413L21.605,33.973C21.605,33.737 21.767,33.525 21.991,33.475C23.135,33.139 24.23,32.679 25.237,32.095C26.27,31.498 27.227,30.776 28.086,29.943C28.26,29.781 28.521,29.756 28.72,29.881L32.539,32.082C32.763,32.219 33.024,32.231 33.26,32.169C33.496,32.107 33.708,31.958 33.832,31.721L33.845,31.697L36.556,27.007C36.681,26.783 36.718,26.522 36.643,26.286C36.581,26.049 36.432,25.838 36.208,25.701L32.365,23.487C32.166,23.375 32.066,23.139 32.128,22.927C32.265,22.355 32.377,21.771 32.452,21.174C32.526,20.589 32.564,19.992 32.564,19.395C32.564,18.798 32.526,18.188 32.452,17.616C32.377,17.019 32.277,16.434 32.128,15.862C32.066,15.626 32.19,15.39 32.389,15.29L36.208,13.088C36.432,12.964 36.581,12.753 36.643,12.504C36.706,12.268 36.681,12.006 36.556,11.782L36.544,11.758L33.845,7.068C33.708,6.844 33.496,6.695 33.26,6.62C33.024,6.558 32.763,6.583 32.539,6.707L28.695,8.934C28.496,9.058 28.235,9.009 28.073,8.847C27.215,8.026 26.27,7.305 25.237,6.707C24.217,6.123 23.123,5.65 21.966,5.314C21.742,5.252 21.605,5.053 21.605,4.829L21.605,0.389C21.605,0.127 21.493,-0.109 21.319,-0.283C21.145,-0.457 20.909,-0.557 20.647,-0.557L15.199,-0.557C14.938,-0.557 14.702,-0.445 14.528,-0.283C14.354,-0.109 14.242,0.127 14.242,0.389L14.242,4.829C14.242,5.078 14.08,5.277 13.844,5.339Z" clip-rule="evenodd" fill-rule="evenodd" fill="#8B8AEA"/>
</svg>
