<svg width="26" height="28" viewBox="0 0 26 28" fill="none" xmlns="http://www.w3.org/2000/svg" xmlns:xlink="http://www.w3.org/1999/xlink">
<path d="M12.505,0.656C12.956,0.656 13.389,0.835 13.708,1.154C14.026,1.473 14.206,1.906 14.206,2.356L14.206,11.991L23.84,11.991C24.291,11.991 24.723,12.17 25.042,12.489C25.361,12.808 25.54,13.24 25.54,13.691C25.54,14.142 25.361,14.574 25.042,14.893C24.723,15.212 24.291,15.391 23.84,15.391L14.206,15.391L14.206,25.025C14.206,25.476 14.026,25.909 13.708,26.228C13.389,26.547 12.956,26.726 12.505,26.726C12.055,26.726 11.622,26.547 11.303,26.228C10.984,25.909 10.805,25.476 10.805,25.025L10.805,15.391L1.171,15.391C0.72,15.391 0.288,15.212 -0.031,14.893C-0.35,14.574 -0.529,14.142 -0.529,13.691C-0.529,13.24 -0.35,12.808 -0.031,12.489C0.288,12.17 0.72,11.991 1.171,11.991L10.805,11.991L10.805,2.356C10.805,1.906 10.984,1.473 11.303,1.154C11.622,0.835 12.055,0.656 12.505,0.656Z" clip-rule="evenodd" fill-rule="evenodd" fill="#01008A"/>
</svg>
