<svg width="36" height="36" viewBox="0 0 36 36" fill="none" xmlns="http://www.w3.org/2000/svg" xmlns:xlink="http://www.w3.org/1999/xlink">
<path d="M18.198,30.452L17.548,34.354C17.81,34.398 18.076,34.415 18.341,34.406L18.198,30.452ZM17.196,30.452L17.052,34.406C17.318,34.415 17.584,34.398 17.846,34.354L17.196,30.452ZM31.333,16.842L35.289,16.87L35.289,16.842L31.333,16.842ZM18.848,26.549C18.101,26.425 17.292,26.425 16.545,26.549L17.846,34.354C17.768,34.367 17.72,34.369 17.697,34.369C17.674,34.369 17.626,34.367 17.548,34.354L18.848,26.549ZM17.339,26.498C12.185,26.311 8.07,22.096 8.07,16.842L0.157,16.842C0.157,26.358 7.647,34.065 17.052,34.406L17.339,26.498ZM8.07,16.842C8.07,11.483 12.365,7.188 17.723,7.188L17.723,-0.724C7.995,-0.724 0.157,7.113 0.157,16.842L8.07,16.842ZM17.723,7.188C23.072,7.188 27.377,11.526 27.377,16.842L35.289,16.842C35.289,7.176 27.462,-0.724 17.723,-0.724L17.723,7.188ZM27.377,16.814C27.339,22.094 23.204,26.311 18.055,26.498L18.341,34.406C27.752,34.065 35.221,26.36 35.289,16.87L27.377,16.814Z" fill="#01008A"/>
</svg>
