<svg width="10" height="10" viewBox="0 0 10 10" fill="none" xmlns="http://www.w3.org/2000/svg" xmlns:xlink="http://www.w3.org/1999/xlink">
<path d="M1.623,6.097C1.089,6.007 0.583,6.367 0.493,6.902C0.403,7.437 0.764,7.943 1.298,8.032L1.623,6.097ZM6.616,6.122L6.072,5.306L6.07,5.307L6.616,6.122ZM6.616,1.647L7.161,0.831L7.159,0.829L6.616,1.647ZM1.252,-0.249C0.718,-0.155 0.361,0.354 0.455,0.887C0.548,1.421 1.057,1.778 1.591,1.685L1.252,-0.249ZM1.298,8.032C3.283,8.366 5.525,8.034 7.162,6.938L6.07,5.307C4.933,6.069 3.223,6.365 1.623,6.097L1.298,8.032ZM7.161,6.939C8.288,6.187 8.981,5.099 8.981,3.885C8.981,2.671 8.288,1.582 7.161,0.831L6.072,2.464C6.79,2.942 7.019,3.476 7.019,3.885C7.019,4.293 6.79,4.827 6.072,5.306L7.161,6.939ZM7.159,0.829C5.51,-0.265 3.241,-0.597 1.252,-0.249L1.591,1.685C3.187,1.405 4.922,1.701 6.074,2.465L7.159,0.829Z" fill="#01008A"/>
</svg>
