<svg width="34" height="10" viewBox="0 0 34 10" fill="none" xmlns="http://www.w3.org/2000/svg" xmlns:xlink="http://www.w3.org/1999/xlink">
<path d="M3.052,9.618L4.788,9.618L7.21,2.478L9.618,9.618L11.368,9.618L14.406,0L12.488,0L10.43,6.888L8.162,0L6.258,0L3.976,6.888L1.918,0L0,0L3.052,9.618Z" fill="#01008A"/>
<path d="M22.849,1.596L22.849,0L15.611,0L15.611,9.618L22.849,9.618L22.849,8.022L17.361,8.022L17.361,5.516L22.331,5.516L22.331,3.92L17.361,3.92L17.361,1.596L22.849,1.596Z" fill="#01008A"/>
<path d="M24.511,9.618L27.899,9.618C31.077,9.618 33.317,7.616 33.317,4.802C33.317,1.988 31.077,0 27.899,0L24.511,0L24.511,9.618ZM26.261,8.036L26.261,1.582L28.081,1.582C30.111,1.582 31.539,2.912 31.539,4.802C31.539,6.692 30.111,8.036 28.081,8.036L26.261,8.036Z" fill="#01008A"/>
</svg>
