<svg width="22" height="22" viewBox="0 0 22 22" fill="none" xmlns="http://www.w3.org/2000/svg" xmlns:xlink="http://www.w3.org/1999/xlink">
<path d="M20.153,7.296L13.721,7.296L13.721,0.864C13.721,0.621 13.625,0.387 13.452,0.215C13.28,0.043 13.047,-0.054 12.803,-0.054L9.127,-0.054C8.884,-0.054 8.65,0.043 8.478,0.215C8.306,0.387 8.209,0.621 8.209,0.864L8.209,7.296L1.777,7.296C1.534,7.296 1.3,7.393 1.128,7.565C0.956,7.737 0.859,7.971 0.859,8.214L0.859,11.89C0.859,12.134 0.956,12.367 1.128,12.539C1.3,12.712 1.534,12.808 1.777,12.808L8.209,12.808L8.209,19.24C8.209,19.484 8.306,19.717 8.478,19.889C8.65,20.061 8.884,20.158 9.127,20.158L12.803,20.158C13.047,20.158 13.28,20.061 13.452,19.889C13.625,19.717 13.721,19.484 13.721,19.24L13.721,12.808L20.153,12.808C20.397,12.808 20.63,12.712 20.802,12.539C20.975,12.367 21.071,12.134 21.071,11.89L21.071,8.214C21.071,7.971 20.975,7.737 20.802,7.565C20.63,7.393 20.397,7.296 20.153,7.296L20.153,7.296Z" fill="#000000"/>
</svg>
