<svg width="22" height="6" viewBox="0 0 22 6" fill="none" xmlns="http://www.w3.org/2000/svg" xmlns:xlink="http://www.w3.org/1999/xlink">
<path d="M20.153,-0.798L1.777,-0.798C1.534,-0.798 1.3,-0.701 1.128,-0.529C0.956,-0.357 0.859,-0.123 0.859,0.12L0.859,3.802C0.859,4.046 0.956,4.279 1.128,4.451C1.3,4.623 1.534,4.72 1.777,4.72L20.153,4.72C20.397,4.72 20.63,4.623 20.802,4.451C20.975,4.279 21.071,4.046 21.071,3.802L21.071,0.126C21.072,0.005 21.049,-0.115 21.003,-0.227C20.957,-0.339 20.89,-0.441 20.805,-0.527C20.719,-0.613 20.618,-0.681 20.506,-0.727C20.394,-0.774 20.274,-0.798 20.153,-0.798Z" fill="#000000"/>
</svg>
