<svg width="22" height="20" viewBox="0 0 22 20" fill="none" xmlns="http://www.w3.org/2000/svg" xmlns:xlink="http://www.w3.org/1999/xlink">
<path d="M20.153,6.562L13.721,6.562L13.721,0.13C13.721,-0.114 13.625,-0.347 13.452,-0.519C13.28,-0.691 13.047,-0.788 12.803,-0.788L9.127,-0.788C8.884,-0.788 8.65,-0.691 8.478,-0.519C8.306,-0.347 8.209,-0.114 8.209,0.13L8.209,6.562L1.777,6.562C1.534,6.562 1.3,6.659 1.128,6.831C0.956,7.003 0.859,7.236 0.859,7.48L0.859,11.156C0.859,11.399 0.956,11.633 1.128,11.805C1.3,11.977 1.534,12.074 1.777,12.074L8.209,12.074L8.209,18.506C8.209,18.749 8.306,18.983 8.478,19.155C8.65,19.327 8.884,19.424 9.127,19.424L12.803,19.424C13.047,19.424 13.28,19.327 13.452,19.155C13.625,18.983 13.721,18.749 13.721,18.506L13.721,12.074L20.153,12.074C20.397,12.074 20.63,11.977 20.802,11.805C20.975,11.633 21.071,11.399 21.071,11.156L21.071,7.48C21.071,7.236 20.975,7.003 20.802,6.831C20.63,6.659 20.397,6.562 20.153,6.562L20.153,6.562Z" fill="#000000"/>
</svg>
